<svg width="692" height="692" viewBox="0 0 692 692" fill="none" xmlns="http://www.w3.org/2000/svg">
<g clip-path="url(#clip0_9_26)">
<rect x="123" y="520.009" width="578" height="77" rx="38.5" transform="rotate(-45 123 520.009)" fill="black"/>
<path d="M557.932 493.786C572.966 508.821 572.967 533.198 557.932 548.233C542.897 563.268 518.52 563.268 503.484 548.233L370.503 415.252L424.95 360.805L557.932 493.786ZM149.224 139.525C164.259 124.49 188.636 124.49 203.671 139.525L337.269 273.123L282.821 327.57L149.224 193.973C134.188 178.938 134.188 154.561 149.224 139.525Z" fill="black"/>
<path d="M92 208C33.6349 129.275 130.431 30.0039 213.5 82" stroke="black" stroke-width="48" stroke-linecap="round"/>
<path d="M614 208C672.365 129.275 575.569 30.0039 492.5 82" stroke="black" stroke-width="48" stroke-linecap="round"/>
<path d="M92 473C33.6349 551.725 130.431 650.996 213.5 599" stroke="black" stroke-width="48" stroke-linecap="round"/>
<path d="M614 473C672.365 551.725 575.569 650.996 492.5 599" stroke="black" stroke-width="48" stroke-linecap="round"/>
</g>
<defs>
<clipPath id="clip0_9_26">
<rect width="692" height="692" fill="white"/>
</clipPath>
</defs>
</svg>
