<svg xmlns="http://www.w3.org/2000/svg" viewBox="-2.115 0 77.056 77.056" width="256" height="256">
  <title>ampmod1</title>
  <rect x="-2.115" y="0" width="77.056" height="77.056" fill="#f5efe4"/>
  <path fill="none" stroke="#31604f" stroke-width="0.4" stroke-linecap="round" stroke-linejoin="round" d="M41.467,10.535 L41.467,10.535 L41.529,9.120 L41.590,7.706 L41.651,6.291 L41.712,4.877 L41.773,3.463 L42.082,3.322 L42.106,4.766 L42.129,6.211 L42.153,7.655 L42.177,9.100 L42.200,10.544 L42.197,12.046 L42.193,13.548 L42.190,15.050 L42.186,16.552 L42.183,18.055 L42.355,18.206 L42.470,16.679 L42.586,15.152 L42.702,13.626 L42.817,12.099 L42.933,10.573 L43.078,8.991 L43.224,7.409 L43.370,5.827 L43.516,4.245 L43.661,2.663 L43.984,2.542 L43.931,3.888 L43.878,5.235 L43.824,6.581 L43.771,7.928 L43.718,9.274 L43.664,10.621 L43.583,12.013 L43.502,13.405 L43.422,14.796 L43.341,16.188 L43.260,17.580 L43.179,18.972 L43.336,19.127 L43.512,17.720 L43.689,16.314 L43.865,14.907 L44.041,13.501 L44.218,12.094 L44.394,10.688 L44.600,9.239 L44.806,7.789 L45.012,6.340 L45.219,4.891 L45.425,3.442 L45.631,1.993 L45.966,1.895 L45.825,3.375 L45.685,4.855 L45.544,6.335 L45.403,7.814 L45.263,9.294 L45.122,10.774 L44.949,12.295 L44.777,13.816 L44.604,15.337 L44.431,16.858 L44.259,18.379 L44.086,19.900 L44.229,20.054 L44.499,18.525 L44.769,16.996 L45.038,15.467 L45.308,13.938 L45.578,12.408 L45.847,10.879 L46.151,9.312 L46.455,7.745 L46.758,6.178 L47.062,4.611 L47.365,3.044 L47.669,1.477 L48.014,1.408 L47.808,2.779 L47.601,4.149 L47.395,5.520 L47.189,6.891 L46.982,8.262 L46.776,9.633 L46.570,11.003 L46.333,12.405 L46.096,13.806 L45.859,15.208 L45.623,16.609 L45.386,18.010 L45.149,19.412 L44.912,20.813 L45.363,19.560 L45.684,18.158 L46.005,16.755 L46.326,15.353 L46.647,13.951 L46.968,12.549 L47.289,11.146 L47.642,9.717 L47.994,8.287 L48.347,6.858 L48.699,5.429 L49.052,3.999 L49.405,2.570 L49.757,1.140 L50.109,1.103 L49.808,2.561 L49.508,4.019 L49.207,5.477 L48.906,6.934 L48.605,8.392 L48.305,9.850 L48.004,11.308 L47.670,12.791 L47.336,14.274 L47.003,15.756 L46.669,17.239 L46.335,18.722 L46.002,20.204 L45.668,21.687 L46.206,20.351 L46.624,18.874 L47.042,17.397 L47.460,15.920 L47.878,14.443 L48.296,12.966 L48.714,11.489 L49.166,9.991 L49.618,8.493 L50.069,6.995 L50.521,5.496 L50.973,3.998 L51.424,2.500 L51.876,1.002 L52.230,1.000 L51.829,2.527 L51.427,4.054 L51.026,5.580 L50.624,7.107 L50.223,8.634 L49.821,10.161 L49.420,11.688 L49.038,13.039 L48.657,14.391 L48.276,15.743 L47.894,17.095 L47.513,18.447 L47.132,19.799 L46.750,21.151 L46.369,22.503 L46.936,21.291 L47.391,19.950 L47.846,18.609 L48.301,17.268 L48.755,15.927 L49.210,14.587 L49.665,13.246 L50.120,11.905 L50.605,10.552 L51.090,9.199 L51.575,7.845 L52.060,6.492 L52.545,5.139 L53.030,3.786 L53.515,2.433 L54.000,1.080 L54.352,1.114 L53.910,2.492 L53.468,3.871 L53.025,5.249 L52.583,6.627 L52.141,8.006 L51.698,9.384 L51.256,10.762 L50.814,12.141 L50.341,13.528 L49.869,14.916 L49.396,16.304 L48.923,17.692 L48.451,19.080 L47.978,20.468 L47.505,21.856 L47.033,23.244 L47.686,21.989 L48.231,20.618 L48.776,19.248 L49.321,17.877 L49.866,16.506 L50.411,15.136 L50.957,13.765 L51.502,12.394 L52.077,11.018 L52.652,9.641 L53.227,8.265 L53.802,6.888 L54.377,5.512 L54.952,4.135 L55.527,2.759 L56.102,1.382 L56.448,1.455 L55.915,2.856 L55.382,4.258 L54.849,5.659 L54.315,7.060 L53.782,8.462 L53.249,9.863 L52.716,11.265 L52.182,12.666 L51.620,14.070 L51.057,15.475 L50.494,16.879 L49.931,18.283 L49.368,19.688 L48.805,21.092 L48.242,22.497 L47.679,23.901 L48.420,22.621 L49.054,21.240 L49.687,19.859 L50.321,18.478 L50.955,17.098 L51.589,15.717 L52.222,14.336 L52.856,12.955 L53.518,11.575 L54.181,10.195 L54.843,8.815 L55.506,7.435 L56.168,6.055 L56.831,4.675 L57.493,3.295 L58.156,1.915 L58.491,2.027 L57.870,3.431 L57.249,4.836 L56.628,6.240 L56.006,7.644 L55.385,9.049 L54.764,10.453 L54.143,11.858 L53.522,13.262 L52.872,14.663 L52.223,16.064 L51.574,17.464 L50.925,18.865 L50.276,20.266 L49.626,21.667 L48.977,23.067 L48.328,24.468 L49.155,23.183 L49.873,21.812 L50.591,20.441 L51.308,19.070 L52.026,17.699 L52.744,16.328 L53.461,14.957 L54.179,13.586 L54.923,12.223 L55.667,10.859 L56.412,9.496 L57.156,8.132 L57.900,6.769 L58.644,5.406 L59.389,4.042 L60.133,2.679 L60.453,2.828 L59.750,4.215 L59.047,5.603 L58.344,6.990 L57.640,8.378 L56.937,9.765 L56.234,11.153 L55.531,12.540 L54.828,13.928 L54.099,15.305 L53.371,16.682 L52.642,18.059 L51.914,19.437 L51.185,20.814 L50.457,22.191 L49.728,23.568 L49.000,24.946 L49.909,23.676 L50.703,22.334 L51.497,20.993 L52.291,19.651 L53.085,18.310 L53.879,16.969 L54.673,15.627 L55.467,14.286 L56.285,12.958 L57.102,11.631 L57.920,10.303 L58.737,8.976 L59.555,7.648 L60.372,6.320 L61.189,4.993 L62.007,3.665 L62.307,3.851 L61.531,5.202 L60.755,6.553 L59.979,7.904 L59.202,9.256 L58.426,10.607 L57.650,11.958 L56.874,13.309 L56.097,14.661 L55.299,15.995 L54.501,17.330 L53.703,18.665 L52.905,20.000 L52.107,21.335 L51.309,22.670 L50.511,24.004 L49.713,25.339 L50.697,24.104 L51.557,22.811 L52.417,21.518 L53.277,20.225 L54.137,18.931 L54.997,17.638 L55.857,16.345 L56.717,15.052 L57.597,13.778 L58.476,12.505 L59.356,11.231 L60.235,9.958 L61.115,8.684 L61.994,7.411 L62.874,6.137 L63.753,4.864 L64.031,5.083 L63.193,6.380 L62.355,7.677 L61.517,8.974 L60.679,10.271 L59.841,11.568 L59.003,12.865 L58.165,14.162 L57.327,15.459 L56.471,16.734 L55.616,18.009 L54.760,19.284 L53.905,20.559 L53.049,21.834 L52.194,23.109 L51.338,24.384 L50.483,25.659 L51.531,24.478 L52.445,23.250 L53.358,22.022 L54.272,20.794 L55.185,19.566 L56.098,18.338 L57.012,17.110 L57.925,15.882 L58.854,14.679 L59.782,13.476 L60.710,12.273 L61.638,11.070 L62.566,9.867 L63.495,8.664 L64.423,7.460 L65.351,6.257 L65.602,6.507 L64.716,7.734 L63.829,8.960 L62.943,10.187 L62.057,11.414 L61.171,12.641 L60.285,13.867 L59.399,15.094 L58.513,16.321 L57.614,17.521 L56.715,18.720 L55.817,19.920 L54.918,21.120 L54.019,22.320 L53.120,23.520 L52.222,24.720 L51.323,25.920 L52.423,24.811 L53.375,23.663 L54.327,22.515 L55.279,21.367 L56.232,20.219 L57.184,19.070 L58.136,17.922 L59.088,16.774 L60.050,15.656 L61.012,14.537 L61.974,13.418 L62.935,12.299 L63.897,11.181 L64.859,10.062 L65.821,8.943 L66.783,7.825 L67.004,8.101 L66.085,9.244 L65.166,10.386 L64.247,11.529 L63.328,12.672 L62.409,13.815 L61.490,14.958 L60.571,16.100 L59.652,17.243 L58.726,18.355 L57.799,19.467 L56.873,20.579 L55.947,21.691 L55.021,22.803 L54.095,23.915 L53.168,25.028 L52.242,26.140 L53.378,25.118 L54.353,24.062 L55.328,23.006 L56.303,21.950 L57.278,20.894 L58.253,19.838 L59.228,18.782 L60.203,17.726 L61.182,16.703 L62.161,15.680 L63.140,14.657 L64.119,13.634 L65.098,12.610 L66.077,11.587 L67.056,10.564 L68.035,9.541 L68.226,9.839 L67.290,10.887 L66.355,11.936 L65.419,12.984 L64.484,14.032 L63.548,15.080 L62.612,16.128 L61.677,17.176 L60.741,18.224 L59.670,19.383 L58.599,20.543 L57.528,21.702 L56.457,22.862 L55.386,24.021 L54.315,25.180 L53.244,26.340 L54.540,25.282 L55.661,24.191 L56.782,23.100 L57.903,22.009 L59.024,20.918 L60.145,19.827 L61.266,18.736 L62.386,17.685 L63.505,16.634 L64.624,15.583 L65.743,14.532 L66.863,13.481 L67.982,12.430 L69.101,11.379 L69.260,11.695 L68.191,12.776 L67.123,13.857 L66.054,14.937 L64.985,16.018 L63.916,17.099 L62.847,18.180 L61.778,19.261 L60.713,20.301 L59.649,21.341 L58.585,22.381 L57.520,23.422 L56.456,24.462 L55.392,25.502 L54.327,26.542 L55.624,25.610 L56.733,24.641 L57.841,23.673 L58.950,22.704 L60.058,21.736 L61.167,20.767 L62.275,19.799 L63.376,18.872 L64.476,17.945 L65.577,17.018 L66.677,16.091 L67.777,15.164 L68.878,14.237 L69.978,13.310 L70.106,13.639 L69.057,14.598 L68.007,15.556 L66.957,16.515 L65.908,17.474 L64.858,18.433 L63.808,19.391 L62.759,20.350 L61.720,21.267 L60.681,22.185 L59.642,23.102 L58.603,24.019 L57.564,24.937 L56.525,25.854 L55.486,26.771 L55.686,26.813 L56.943,25.830 L58.200,24.847 L59.457,23.863 L60.714,22.880 L61.971,21.897 L63.227,20.914 L64.468,19.979 L65.708,19.044 L66.949,18.110 L68.189,17.175 L69.429,16.240 L70.670,15.306 L70.768,15.643 L69.587,16.617 L68.405,17.591 L67.224,18.566 L66.043,19.540 L64.862,20.515 L63.681,21.489 L62.519,22.416 L61.357,23.342 L60.195,24.269 L59.034,25.195 L57.872,26.122 L56.710,27.049 L56.919,27.101 L58.119,26.264 L59.319,25.426 L60.519,24.589 L61.719,23.751 L62.920,22.914 L64.120,22.077 L65.297,21.287 L66.475,20.497 L67.652,19.707 L68.830,18.917 L70.007,18.127 L71.184,17.337 L71.254,17.678 L70.135,18.511 L69.017,19.344 L67.898,20.176 L66.780,21.009 L65.661,21.842 L64.543,22.675 L63.449,23.462 L62.356,24.249 L61.262,25.035 L60.168,25.822 L59.075,26.609 L57.981,27.396 L58.197,27.462 L59.547,26.626 L60.898,25.791 L62.249,24.955 L63.599,24.120 L64.950,23.285 L66.267,22.503 L67.584,21.722 L68.901,20.941 L70.219,20.160 L71.536,19.379 L71.579,19.718 L70.332,20.556 L69.084,21.393 L67.837,22.230 L66.589,23.067 L65.341,23.905 L64.129,24.690 L62.917,25.475 L61.705,26.260 L60.493,27.046 L59.281,27.831 L59.498,27.913 L60.742,27.238 L61.985,26.562 L63.229,25.886 L64.473,25.210 L65.716,24.535 L66.921,23.909 L68.126,23.283 L69.331,22.658 L70.536,22.032 L71.741,21.406 L71.763,21.742 L70.625,22.428 L69.487,23.115 L68.350,23.801 L67.212,24.488 L66.074,25.174 L64.702,25.973 L63.329,26.772 L61.957,27.571 L60.584,28.370 L60.800,28.471 L62.204,27.809 L63.608,27.147 L65.012,26.485 L66.416,25.823 L67.767,25.217 L69.119,24.612 L70.470,24.006 L71.822,23.400 L71.825,23.728 L70.554,24.416 L69.282,25.104 L68.011,25.792 L66.740,26.480 L65.521,27.116 L64.302,27.752 L63.084,28.387 L61.865,29.023 L62.074,29.143 L63.317,28.644 L64.560,28.145 L65.804,27.645 L67.047,27.146 L68.235,26.696 L69.424,26.245 L70.613,25.795 L71.802,25.345 L71.791,25.663 L70.677,26.202 L69.563,26.741 L68.450,27.280 L67.336,27.819 L65.922,28.478 L64.509,29.137 L63.095,29.796 L63.293,29.937 L64.731,29.458 L66.169,28.979 L67.608,28.500 L68.974,28.076 L70.340,27.652 L71.706,27.229 L71.685,27.536 L70.410,28.087 L69.136,28.637 L67.861,29.188 L66.656,29.689 L65.451,30.190 L64.245,30.691 L64.427,30.852 L65.651,30.529 L66.874,30.205 L68.097,29.882 L69.252,29.603 L70.406,29.325 L71.561,29.046 L71.534,29.342 L70.461,29.756 L69.387,30.169 L68.314,30.582 L67.305,30.956 L66.297,31.330 L65.288,31.704 L65.449,31.884 L66.981,31.586 L68.513,31.288 L69.952,31.042 L71.391,30.796 L71.361,31.081 L70.028,31.540 L68.694,31.998 L67.445,32.412 L66.196,32.825 L66.333,33.022 L67.594,32.867 L68.855,32.713 L70.037,32.597 L71.218,32.482 L71.191,32.757 L70.095,33.094 L68.998,33.432 L67.972,33.737 L66.946,34.042 L67.054,34.253 L68.088,34.204 L69.123,34.154 L70.093,34.133 L71.064,34.111 L71.042,34.378 L70.135,34.629 L69.228,34.880 L68.373,35.108 L67.518,35.336 L67.595,35.558 L68.454,35.583 L69.314,35.608 L70.129,35.652 L70.945,35.696 L70.929,35.957 L69.381,36.338 L67.896,36.686 L67.939,36.915 L69.429,37.069 L70.872,37.251 L70.865,37.508 L69.458,37.802 L68.070,38.070 L68.079,38.302 L69.467,38.535 L70.854,38.791 L70.856,39.047 L69.458,39.267 L68.035,39.462 L68.009,39.693 L69.429,40.000 L70.891,40.334 L70.902,40.593 L69.381,40.731 L67.792,40.838 L67.732,41.064 L68.523,41.262 L69.314,41.461 L70.147,41.679 L70.980,41.897 L70.999,42.161 L70.114,42.175 L69.228,42.189 L68.288,42.181 L67.348,42.172 L67.255,42.389 L68.189,42.652 L69.123,42.915 L70.118,43.205 L71.112,43.495 L71.138,43.766 L70.068,43.702 L68.998,43.637 L67.857,43.540 L66.715,43.442 L66.592,43.646 L67.724,44.001 L68.855,44.356 L70.065,44.749 L71.275,45.143 L71.303,45.423 L69.999,45.247 L68.694,45.071 L67.302,44.850 L65.910,44.629 L65.760,44.817 L67.137,45.299 L68.513,45.781 L69.981,46.315 L71.449,46.849 L71.477,47.140 L70.423,46.922 L69.369,46.705 L68.314,46.487 L67.194,46.230 L66.074,45.972 L64.954,45.715 L64.782,45.886 L65.887,46.319 L66.992,46.753 L68.097,47.187 L69.269,47.665 L70.441,48.143 L71.613,48.621 L71.638,48.923 L70.379,48.576 L69.120,48.228 L67.861,47.881 L66.532,47.484 L65.202,47.087 L63.872,46.689 L63.682,46.840 L64.990,47.416 L66.299,47.993 L67.608,48.569 L68.987,49.200 L70.366,49.830 L71.745,50.461 L71.762,50.774 L70.287,50.266 L68.811,49.758 L67.336,49.250 L66.175,48.823 L65.014,48.397 L63.853,47.970 L62.692,47.544 L62.488,47.675 L63.628,48.237 L64.767,48.799 L65.907,49.361 L67.047,49.923 L68.239,50.534 L69.432,51.145 L70.625,51.755 L71.818,52.366 L71.823,52.690 L70.552,52.164 L69.281,51.639 L68.011,51.114 L66.740,50.589 L65.415,50.011 L64.091,49.433 L62.767,48.855 L61.442,48.277 L61.229,48.387 L62.526,49.102 L63.822,49.817 L65.119,50.532 L66.416,51.246 L67.763,52.017 L69.111,52.787 L70.459,53.558 L71.807,54.329 L71.796,54.660 L70.365,53.969 L68.935,53.278 L67.505,52.586 L66.074,51.895 L64.890,51.294 L63.705,50.693 L62.520,50.093 L61.336,49.492 L60.151,48.891 L59.934,48.982 L61.090,49.693 L62.247,50.403 L63.403,51.114 L64.560,51.824 L65.716,52.535 L66.910,53.295 L68.105,54.055 L69.299,54.815 L70.493,55.575 L71.687,56.336 L71.655,56.673 L70.392,55.972 L69.130,55.270 L67.867,54.568 L66.604,53.866 L65.341,53.164 L64.042,52.410 L62.743,51.656 L61.444,50.902 L60.145,50.148 L58.846,49.394 L58.629,49.468 L59.893,50.331 L61.157,51.194 L62.422,52.058 L63.686,52.921 L64.950,53.784 L66.247,54.702 L67.544,55.619 L68.841,56.536 L70.139,57.453 L71.436,58.370 L71.379,58.711 L70.240,57.991 L69.101,57.272 L67.961,56.552 L66.822,55.833 L65.682,55.113 L64.543,54.394 L63.378,53.628 L62.213,52.862 L61.048,52.096 L59.883,51.330 L58.718,50.564 L57.553,49.798 L57.341,49.857 L58.471,50.713 L59.600,51.569 L60.730,52.425 L61.860,53.281 L62.990,54.137 L64.120,54.992 L65.272,55.896 L66.424,56.799 L67.576,57.702 L68.728,58.605 L69.880,59.508 L71.032,60.411 L70.949,60.750 L69.737,59.888 L68.526,59.027 L67.315,58.165 L66.104,57.303 L64.892,56.442 L63.681,55.580 L62.450,54.670 L61.219,53.760 L59.988,52.850 L58.758,51.940 L57.527,51.030 L56.296,50.120 L56.091,50.167 L57.280,51.165 L58.470,52.163 L59.659,53.161 L60.849,54.159 L62.038,55.157 L63.227,56.155 L64.433,57.202 L65.638,58.248 L66.843,59.295 L68.049,60.341 L69.254,61.387 L70.459,62.434 L70.347,62.767 L69.263,61.903 L68.179,61.039 L67.095,60.175 L66.011,59.311 L64.927,58.447 L63.843,57.583 L62.759,56.719 L61.663,55.813 L60.568,54.907 L59.473,54.002 L58.378,53.096 L57.283,52.190 L56.187,51.284 L55.092,50.378 L55.952,51.396 L57.006,52.375 L58.060,53.354 L59.114,54.333 L60.168,55.312 L61.221,56.291 L62.275,57.270 L63.337,58.290 L64.399,59.310 L65.460,60.331 L66.522,61.351 L67.583,62.371 L68.645,63.391 L69.707,64.411 L69.563,64.734 L68.451,63.745 L67.339,62.756 L66.227,61.766 L65.114,60.777 L64.002,59.787 L62.890,58.798 L61.778,57.808 L60.661,56.778 L59.543,55.748 L58.426,54.717 L57.309,53.687 L56.192,52.657 L55.075,51.626 L53.957,50.596 L54.846,51.730 L55.916,52.831 L56.986,53.931 L58.056,55.032 L59.126,56.132 L60.196,57.233 L61.266,58.334 L62.338,59.474 L63.409,60.614 L64.481,61.754 L65.552,62.894 L66.624,64.034 L67.695,65.174 L68.767,66.315 L68.592,66.623 L67.470,65.512 L66.349,64.400 L65.227,63.289 L64.106,62.178 L62.984,61.067 L61.863,59.956 L60.741,58.845 L59.761,57.839 L58.781,56.833 L57.801,55.826 L56.821,54.820 L55.841,53.814 L54.861,52.808 L53.881,51.801 L52.901,50.795 L53.666,51.893 L54.600,52.957 L55.534,54.021 L56.468,55.085 L57.402,56.150 L58.335,57.214 L59.269,58.278 L60.203,59.343 L61.132,60.439 L62.062,61.536 L62.991,62.632 L63.921,63.729 L64.850,64.825 L65.779,65.922 L66.709,67.019 L67.638,68.115 L67.432,68.403 L66.459,67.331 L65.487,66.259 L64.514,65.187 L63.542,64.115 L62.569,63.042 L61.597,61.970 L60.624,60.898 L59.652,59.826 L58.686,58.723 L57.721,57.619 L56.755,56.516 L55.789,55.413 L54.824,54.309 L53.858,53.206 L52.892,52.103 L51.927,50.999 L52.687,52.193 L53.601,53.350 L54.516,54.508 L55.430,55.665 L56.345,56.822 L57.259,57.980 L58.174,59.137 L59.088,60.295 L59.993,61.481 L60.897,62.667 L61.802,63.853 L62.707,65.040 L63.611,66.226 L64.516,67.412 L65.420,68.598 L66.325,69.785 L66.089,70.048 L65.142,68.886 L64.195,67.723 L63.248,66.561 L62.301,65.398 L61.354,64.236 L60.407,63.073 L59.460,61.911 L58.513,60.748 L57.578,59.559 L56.643,58.369 L55.708,57.179 L54.774,55.990 L53.839,54.800 L52.904,53.610 L51.969,52.420 L51.035,51.231 L51.773,52.513 L52.652,53.752 L53.530,54.991 L54.409,56.230 L55.288,57.469 L56.167,58.709 L57.046,59.948 L57.925,61.187 L58.789,62.451 L59.653,63.714 L60.517,64.978 L61.381,66.242 L62.245,67.505 L63.109,68.769 L63.972,70.033 L64.836,71.297 L64.572,71.532 L63.666,70.291 L62.761,69.051 L61.855,67.811 L60.949,66.571 L60.044,65.331 L59.138,64.090 L58.232,62.850 L57.327,61.610 L56.438,60.347 L55.550,59.085 L54.661,57.822 L53.773,56.560 L52.884,55.297 L51.996,54.034 L51.107,52.772 L50.219,51.509 L50.918,52.868 L51.747,54.175 L52.575,55.482 L53.403,56.789 L54.232,58.096 L55.060,59.403 L55.889,60.710 L56.717,62.017 L57.526,63.344 L58.335,64.670 L59.143,65.996 L59.952,67.322 L60.761,68.648 L61.569,69.975 L62.378,71.301 L63.187,72.627 L62.897,72.830 L62.047,71.527 L61.197,70.225 L60.347,68.922 L59.497,67.619 L58.647,66.316 L57.797,65.014 L56.947,63.711 L56.097,62.408 L55.269,61.089 L54.440,59.769 L53.612,58.450 L52.783,57.130 L51.955,55.811 L51.126,54.491 L50.298,53.172 L49.469,51.852 L50.115,53.275 L50.879,54.633 L51.644,55.992 L52.409,57.350 L53.173,58.708 L53.938,60.067 L54.703,61.425 L55.467,62.783 L56.208,64.155 L56.949,65.527 L57.690,66.898 L58.431,68.270 L59.172,69.642 L59.913,71.013 L60.654,72.385 L61.395,73.757 L61.084,73.924 L60.302,72.577 L59.520,71.229 L58.738,69.881 L57.956,68.533 L57.174,67.185 L56.392,65.837 L55.610,64.489 L54.828,63.141 L54.071,61.783 L53.314,60.424 L52.557,59.066 L51.800,57.707 L51.043,56.349 L50.286,54.990 L49.529,53.631 L48.772,52.273 L49.350,53.743 L50.040,55.134 L50.730,56.525 L51.419,57.917 L52.109,59.308 L52.799,60.700 L53.489,62.091 L54.179,63.483 L54.842,64.881 L55.505,66.280 L56.168,67.678 L56.831,69.076 L57.495,70.475 L58.158,71.873 L58.821,73.272 L59.484,74.670 L59.155,74.801 L58.451,73.426 L57.747,72.052 L57.043,70.678 L56.339,69.304 L55.634,67.930 L54.930,66.555 L54.226,65.181 L53.522,63.807 L52.845,62.429 L52.169,61.050 L51.492,59.672 L50.816,58.293 L50.139,56.915 L49.463,55.537 L48.787,54.158 L48.110,52.780 L48.609,54.278 L49.215,55.683 L49.822,57.088 L50.429,58.493 L51.036,59.899 L51.642,61.304 L52.249,62.709 L52.856,64.114 L53.434,65.519 L54.012,66.925 L54.589,68.330 L55.167,69.735 L55.745,71.141 L56.323,72.546 L56.900,73.952 L57.478,75.357 L57.137,75.449 L56.517,74.068 L55.898,72.688 L55.279,71.307 L54.660,69.926 L54.040,68.545 L53.421,67.165 L52.802,65.784 L52.182,64.403 L51.593,63.025 L51.003,61.647 L50.413,60.268 L49.823,58.890 L49.234,57.512 L48.644,56.134 L48.054,54.755 L47.464,53.377 L47.875,54.884 L48.393,56.283 L48.911,57.681 L49.429,59.080 L49.947,60.479 L50.465,61.877 L50.984,63.276 L51.502,64.675 L51.990,66.067 L52.478,67.459 L52.965,68.852 L53.453,70.244 L53.941,71.636 L54.429,73.029 L54.917,74.421 L55.405,75.813 L55.055,75.867 L54.525,74.500 L53.995,73.132 L53.465,71.765 L52.935,70.398 L52.404,69.030 L51.874,67.663 L51.344,66.296 L50.814,64.928 L50.314,63.570 L49.814,62.212 L49.314,60.854 L48.814,59.496 L48.314,58.138 L47.814,56.779 L47.314,55.421 L46.814,54.063 L47.131,55.558 L47.558,56.930 L47.985,58.303 L48.412,59.675 L48.839,61.047 L49.266,62.419 L49.693,63.792 L50.120,65.164 L50.516,66.524 L50.913,67.883 L51.310,69.242 L51.706,70.602 L52.103,71.961 L52.499,73.321 L52.896,74.680 L53.293,76.040 L52.939,76.056 L52.499,74.721 L52.059,73.387 L51.619,72.053 L51.179,70.719 L50.739,69.384 L50.299,68.050 L49.860,66.716 L49.420,65.381 L48.951,63.874 L48.483,62.367 L48.014,60.860 L47.546,59.352 L47.077,57.845 L46.609,56.338 L46.140,54.831 L46.408,56.482 L46.793,57.998 L47.177,59.515 L47.561,61.031 L47.946,62.548 L48.330,64.064 L48.714,65.580 L49.065,67.075 L49.415,68.570 L49.766,70.065 L50.116,71.560 L50.467,73.054 L50.817,74.549 L51.168,76.044 L50.814,76.024 L50.413,74.558 L50.011,73.091 L49.610,71.625 L49.208,70.159 L48.807,68.693 L48.405,67.227 L48.004,65.761 L47.635,64.319 L47.266,62.877 L46.898,61.435 L46.529,59.993 L46.160,58.551 L45.792,57.109 L45.423,55.668 L45.582,57.257 L45.867,58.701 L46.151,60.146 L46.436,61.590 L46.720,63.034 L47.004,64.478 L47.289,65.923 L47.541,67.339 L47.794,68.756 L48.047,70.172 L48.299,71.588 L48.552,73.005 L48.804,74.421 L49.057,75.838 L48.708,75.784 L48.403,74.396 L48.097,73.007 L47.792,71.619 L47.486,70.231 L47.181,68.842 L46.875,67.454 L46.570,66.066 L46.295,64.707 L46.020,63.349 L45.745,61.991 L45.470,60.632 L45.195,59.274 L44.920,57.915 L44.645,56.557 L44.509,56.709 L44.732,58.289 L44.955,59.869 L45.178,61.449 L45.401,63.029 L45.624,64.610 L45.847,66.190 L46.037,67.731 L46.226,69.273 L46.415,70.814 L46.604,72.356 L46.794,73.897 L46.983,75.439 L46.642,75.355 L46.389,73.845 L46.135,72.335 L45.882,70.825 L45.629,69.315 L45.375,67.805 L45.122,66.295 L44.901,64.825 L44.679,63.356 L44.458,61.886 L44.236,60.417 L44.015,58.947 L43.793,57.478 L43.643,57.633 L43.768,59.091 L43.894,60.549 L44.019,62.007 L44.144,63.465 L44.269,64.923 L44.394,66.381 L44.489,67.796 L44.585,69.210 L44.680,70.625 L44.775,72.040 L44.871,73.454 L44.966,74.869 L44.637,74.759 L44.474,73.374 L44.312,71.989 L44.150,70.604 L43.988,69.218 L43.826,67.833 L43.664,66.448 L43.530,65.108 L43.395,63.767 L43.261,62.427 L43.126,61.086 L42.991,59.746 L42.857,58.405 L42.692,58.559 L42.740,60.146 L42.788,61.734 L42.836,63.321 L42.885,64.909 L42.933,66.496 L42.951,68.027 L42.969,69.559 L42.987,71.090 L43.004,72.621 L43.022,74.152 L42.707,74.020 L42.605,72.521 L42.504,71.022 L42.403,69.523 L42.302,68.024 L42.200,66.525 L42.126,65.083 L42.052,63.640 L41.978,62.198 L41.904,60.755 L41.830,59.313 L41.650,59.460 L41.613,60.875 L41.577,62.290 L41.540,63.705 L41.504,65.120 L41.467,66.535 L41.407,67.891 L41.346,69.247 L41.285,70.604 L41.224,71.960 L41.164,73.316 L40.863,73.167 L40.837,71.839 L40.811,70.510 L40.786,69.182 L40.760,67.853 L40.734,66.525 L40.729,64.937 L40.723,63.349 L40.717,61.761 L40.712,60.172 L40.517,60.309 L40.388,61.856 L40.259,63.403 L40.131,64.949 L40.002,66.496 L39.851,67.969 L39.699,69.443 L39.548,70.916 L39.397,72.389 L39.111,72.228 L39.151,70.783 L39.191,69.338 L39.231,67.893 L39.270,66.448 L39.329,65.075 L39.388,63.702 L39.447,62.328 L39.506,60.955 L39.297,61.076 L39.108,62.402 L38.919,63.729 L38.730,65.055 L38.541,66.381 L38.336,67.636 L38.132,68.891 L37.927,70.145 L37.723,71.400 L37.453,71.231 L37.543,69.997 L37.633,68.763 L37.723,67.529 L37.813,66.295 L37.949,64.741 L38.085,63.187 L38.221,61.634 L38.000,61.735 L37.696,63.220 L37.391,64.705 L37.087,66.190 L36.771,67.585 L36.455,68.980 L36.139,70.375 L35.883,70.203 L36.044,68.824 L36.204,67.445 L36.365,66.066 L36.533,64.771 L36.702,63.477 L36.871,62.182 L36.640,62.260 L36.309,63.481 L35.977,64.702 L35.646,65.923 L35.310,67.062 L34.974,68.201 L34.638,69.341 L34.395,69.169 L34.574,68.033 L34.752,66.897 L34.931,65.761 L35.111,64.700 L35.292,63.640 L35.472,62.579 L35.236,62.629 L34.728,64.105 L34.220,65.580 L33.714,66.949 L33.208,68.318 L32.975,68.150 L33.245,66.766 L33.515,65.381 L33.781,64.093 L34.047,62.805 L33.809,62.825 L33.312,63.994 L32.815,65.164 L32.324,66.245 L31.834,67.326 L31.609,67.165 L31.865,66.047 L32.121,64.928 L32.370,63.887 L32.619,62.846 L32.382,62.834 L31.908,63.755 L31.433,64.675 L30.966,65.526 L30.500,66.378 L30.280,66.225 L30.516,65.314 L30.752,64.403 L30.982,63.549 L31.212,62.694 L30.982,62.650 L30.530,63.382 L30.079,64.114 L29.633,64.798 L29.187,65.482 L28.969,65.338 L29.413,63.807 L29.853,62.346 L29.633,62.270 L28.756,63.483 L27.877,64.642 L27.657,64.507 L28.107,63.141 L28.568,61.805 L28.363,61.697 L27.467,62.783 L26.552,63.856 L26.329,63.729 L26.837,62.408 L27.380,61.079 L27.193,60.941 L26.217,62.017 L25.197,63.116 L24.967,62.997 L25.608,61.610 L26.310,60.181 L26.145,60.016 L25.577,60.601 L25.009,61.187 L24.404,61.799 L23.799,62.412 L23.561,62.297 L23.992,61.523 L24.422,60.748 L24.899,59.939 L25.377,59.129 L25.236,58.941 L24.541,59.618 L23.846,60.295 L23.097,61.011 L22.349,61.727 L22.101,61.614 L22.692,60.720 L23.283,59.826 L23.938,58.886 L24.593,57.946 L24.478,57.737 L23.605,58.540 L22.732,59.343 L21.786,60.193 L20.841,61.044 L20.584,60.929 L21.389,59.887 L22.193,58.845 L23.081,57.750 L23.968,56.655 L23.880,56.432 L22.774,57.383 L21.668,58.334 L20.472,59.338 L19.276,60.342 L19.010,60.221 L19.726,59.417 L20.441,58.613 L21.157,57.808 L21.940,56.967 L22.723,56.126 L23.505,55.284 L23.444,55.050 L22.516,55.790 L21.587,56.530 L20.659,57.270 L19.659,58.046 L18.659,58.822 L17.659,59.598 L17.385,59.469 L18.315,58.552 L19.246,57.636 L20.176,56.719 L21.185,55.766 L22.194,54.813 L23.202,53.861 L23.167,53.620 L22.014,54.465 L20.861,55.310 L19.707,56.155 L18.471,57.034 L17.236,57.913 L16.000,58.792 L15.720,58.651 L16.898,57.627 L18.076,56.603 L19.253,55.580 L20.203,54.788 L21.153,53.996 L22.103,53.203 L23.052,52.411 L23.041,52.169 L21.985,52.875 L20.928,53.581 L19.871,54.287 L18.815,54.992 L17.689,55.720 L16.564,56.448 L15.439,57.176 L14.313,57.903 L14.031,57.746 L15.121,56.908 L16.211,56.070 L17.302,55.232 L18.392,54.394 L19.555,53.536 L20.717,52.678 L21.880,51.820 L23.043,50.962 L23.054,50.722 L21.786,51.488 L20.519,52.253 L19.252,53.019 L17.985,53.784 L16.643,54.566 L15.302,55.349 L13.961,56.131 L12.619,56.913 L12.338,56.737 L13.652,55.844 L14.966,54.951 L16.280,54.058 L17.593,53.164 L18.706,52.439 L19.819,51.713 L20.931,50.988 L22.044,50.262 L23.157,49.537 L23.186,49.303 L21.993,49.949 L20.799,50.596 L19.606,51.242 L18.412,51.888 L17.219,52.535 L15.963,53.189 L14.708,53.843 L13.452,54.497 L12.197,55.151 L10.941,55.805 L10.665,55.609 L11.904,54.866 L13.143,54.123 L14.382,53.380 L15.621,52.638 L16.860,51.895 L18.163,51.147 L19.466,50.399 L20.768,49.651 L22.071,48.903 L23.374,48.155 L23.418,47.930 L22.038,48.594 L20.659,49.257 L19.279,49.920 L17.899,50.583 L16.519,51.246 L15.076,51.911 L13.633,52.576 L12.191,53.241 L10.748,53.905 L9.305,54.570 L9.038,54.351 L10.231,53.724 L11.424,53.097 L12.617,52.470 L13.809,51.843 L15.002,51.216 L16.195,50.589 L17.441,49.963 L18.687,49.337 L19.932,48.711 L21.178,48.085 L22.424,47.459 L23.670,46.834 L23.725,46.620 L22.419,47.171 L21.113,47.721 L19.807,48.272 L18.500,48.822 L17.194,49.373 L15.888,49.923 L14.530,50.469 L13.172,51.015 L11.814,51.561 L10.456,52.108 L9.097,52.654 L7.739,53.200 L7.487,52.958 L8.839,52.340 L10.191,51.722 L11.543,51.104 L12.895,50.486 L14.247,49.868 L15.599,49.250 L17.002,48.639 L18.406,48.028 L19.809,47.417 L21.213,46.806 L22.617,46.195 L24.020,45.584 L24.082,45.383 L22.623,45.914 L21.164,46.445 L19.704,46.976 L18.245,47.507 L16.786,48.038 L15.327,48.569 L13.818,49.089 L12.309,49.610 L10.800,50.131 L9.292,50.651 L7.783,51.172 L6.274,51.693 L6.041,51.428 L7.332,50.922 L8.622,50.415 L9.912,49.908 L11.203,49.401 L12.493,48.895 L13.783,48.388 L15.073,47.881 L16.405,47.386 L17.737,46.890 L19.070,46.394 L20.402,45.899 L21.734,45.403 L23.066,44.908 L24.398,44.412 L23.087,44.648 L21.712,45.071 L20.337,45.494 L18.962,45.917 L17.587,46.341 L16.213,46.764 L14.838,47.187 L13.423,47.596 L12.009,48.006 L10.595,48.415 L9.181,48.824 L7.766,49.234 L6.352,49.643 L4.938,50.052 L4.730,49.766 L6.143,49.298 L7.556,48.829 L8.969,48.361 L10.382,47.892 L11.794,47.424 L13.207,46.955 L14.620,46.487 L16.071,46.035 L17.522,45.582 L18.973,45.130 L20.424,44.678 L21.875,44.225 L23.326,43.773 L24.777,43.320 L23.350,43.523 L21.862,43.899 L20.374,44.276 L18.886,44.652 L17.398,45.028 L15.910,45.405 L14.421,45.781 L12.898,46.139 L11.375,46.497 L9.852,46.855 L8.329,47.213 L6.806,47.571 L5.282,47.929 L3.759,48.286 L3.580,47.981 L5.103,47.565 L6.626,47.149 L8.149,46.734 L9.672,46.318 L11.195,45.902 L12.718,45.487 L14.241,45.071 L15.602,44.725 L16.964,44.380 L18.325,44.034 L19.687,43.688 L21.048,43.343 L22.410,42.997 L23.771,42.651 L25.133,42.306 L23.799,42.420 L22.411,42.697 L21.022,42.973 L19.634,43.250 L18.245,43.526 L16.856,43.803 L15.468,44.079 L14.079,44.356 L12.665,44.613 L11.250,44.869 L9.836,45.126 L8.422,45.382 L7.007,45.639 L5.593,45.896 L4.179,46.152 L2.764,46.409 L2.618,46.086 L4.033,45.780 L5.447,45.474 L6.862,45.168 L8.277,44.862 L9.692,44.555 L11.107,44.249 L12.521,43.943 L13.936,43.637 L15.375,43.352 L16.813,43.068 L18.251,42.783 L19.689,42.499 L21.128,42.214 L22.566,41.929 L24.004,41.645 L25.443,41.360 L24.029,41.422 L22.569,41.635 L21.110,41.848 L19.650,42.062 L18.191,42.275 L16.731,42.488 L15.272,42.701 L13.812,42.915 L12.332,43.105 L10.853,43.295 L9.373,43.485 L7.894,43.676 L6.414,43.866 L4.934,44.056 L3.455,44.246 L1.975,44.437 L1.865,44.100 L3.345,43.861 L4.825,43.623 L6.306,43.384 L7.786,43.145 L9.266,42.906 L10.746,42.667 L12.227,42.428 L13.707,42.189 L15.205,41.975 L16.702,41.760 L18.200,41.545 L19.698,41.331 L21.195,41.116 L22.693,40.901 L24.191,40.687 L25.688,40.472 L24.209,40.470 L22.697,40.612 L21.184,40.753 L19.671,40.895 L18.159,41.036 L16.646,41.178 L15.133,41.320 L13.621,41.461 L12.094,41.578 L10.568,41.694 L9.042,41.810 L7.515,41.926 L5.989,42.043 L4.463,42.159 L2.936,42.275 L1.410,42.392 L1.339,42.045 L2.866,41.881 L4.392,41.717 L5.919,41.553 L7.446,41.388 L8.973,41.224 L10.500,41.060 L12.027,40.896 L13.554,40.731 L15.091,40.593 L16.629,40.455 L18.167,40.317 L19.704,40.179 L21.242,40.041 L22.780,39.903 L24.317,39.764 L25.855,39.626 L24.328,39.552 L22.782,39.616 L21.236,39.680 L19.690,39.744 L18.144,39.808 L16.598,39.872 L15.052,39.936 L13.506,40.000 L11.953,40.037 L10.400,40.074 L8.847,40.112 L7.294,40.149 L5.741,40.186 L4.188,40.223 L2.635,40.261 L1.082,40.298 L1.052,39.946 L2.605,39.861 L4.158,39.776 L5.711,39.691 L7.264,39.607 L8.817,39.522 L10.371,39.437 L11.924,39.352 L13.477,39.267 L15.034,39.210 L16.591,39.152 L18.148,39.094 L19.705,39.037 L21.262,38.979 L22.819,38.921 L24.376,38.863 L25.933,38.806 L24.378,38.653 L22.819,38.636 L21.261,38.619 L19.702,38.602 L18.143,38.585 L16.585,38.568 L15.026,38.551 L13.467,38.535 L11.909,38.490 L10.350,38.446 L8.792,38.402 L7.234,38.358 L5.675,38.314 L4.117,38.270 L2.558,38.226 L1.000,38.181 L1.010,37.828 L2.569,37.825 L4.127,37.822 L5.685,37.818 L7.244,37.815 L8.802,37.812 L10.360,37.808 L11.919,37.805 L13.477,37.802 L15.032,37.825 L16.587,37.849 L18.142,37.873 L19.697,37.897 L21.252,37.920 L22.807,37.944 L24.362,37.968 L25.917,37.991 L24.356,37.757 L22.806,37.659 L21.256,37.560 L19.706,37.462 L18.156,37.364 L16.606,37.266 L15.056,37.167 L13.506,37.069 L11.963,36.944 L10.420,36.819 L8.878,36.694 L7.335,36.569 L5.793,36.444 L4.250,36.319 L2.707,36.194 L1.165,36.069 L1.216,35.720 L2.758,35.797 L4.300,35.874 L5.843,35.952 L7.385,36.029 L8.927,36.106 L10.469,36.183 L12.011,36.260 L13.554,36.338 L15.086,36.441 L16.617,36.544 L18.149,36.648 L19.681,36.751 L21.213,36.854 L22.745,36.958 L24.277,37.061 L25.809,37.165 L24.262,36.847 L22.742,36.670 L21.222,36.493 L19.702,36.316 L18.181,36.139 L16.661,35.962 L15.141,35.785 L13.621,35.608 L12.115,35.405 L10.609,35.203 L9.103,35.001 L7.597,34.798 L6.091,34.596 L4.585,34.394 L3.079,34.191 L1.573,33.989 L1.664,33.647 L3.169,33.801 L4.674,33.955 L6.180,34.109 L7.685,34.264 L9.191,34.418 L10.696,34.572 L12.201,34.726 L13.707,34.880 L15.195,35.058 L16.684,35.236 L18.172,35.415 L19.661,35.593 L21.149,35.772 L22.638,35.950 L24.126,36.128 L25.615,36.307 L24.104,35.909 L22.634,35.658 L21.164,35.407 L19.693,35.157 L18.223,34.906 L16.753,34.656 L15.282,34.405 L13.812,34.154 L12.362,33.881 L10.913,33.607 L9.463,33.334 L8.013,33.060 L6.563,32.786 L5.114,32.513 L3.664,32.239 L2.214,31.966 L2.343,31.636 L3.792,31.860 L5.241,32.085 L6.690,32.309 L8.139,32.534 L9.589,32.758 L11.038,32.983 L12.487,33.207 L13.936,33.432 L15.362,33.678 L16.789,33.924 L18.215,34.170 L19.641,34.416 L21.067,34.662 L22.493,34.909 L23.919,35.155 L25.346,35.401 L23.893,34.928 L22.491,34.611 L21.089,34.295 L19.687,33.979 L18.285,33.662 L16.883,33.346 L15.481,33.029 L14.079,32.713 L12.704,32.377 L11.328,32.040 L9.952,31.704 L8.577,31.368 L7.201,31.032 L5.825,30.695 L4.450,30.359 L3.074,30.023 L3.237,29.708 L4.613,29.995 L5.988,30.281 L7.364,30.567 L8.739,30.853 L10.115,31.139 L11.490,31.426 L12.866,31.712 L14.241,31.998 L15.781,32.346 L17.320,32.694 L18.860,33.042 L20.399,33.390 L21.939,33.737 L23.478,34.085 L25.018,34.433 L23.454,33.840 L21.948,33.414 L20.443,32.989 L18.938,32.564 L17.432,32.138 L15.927,31.713 L14.421,31.288 L12.952,30.844 L11.482,30.400 L10.012,29.956 L8.542,29.512 L7.073,29.068 L5.603,28.625 L4.133,28.181 L4.327,27.885 L5.798,28.270 L7.268,28.655 L8.739,29.041 L10.209,29.426 L11.679,29.811 L13.150,30.197 L14.620,30.582 L16.053,30.984 L17.487,31.385 L18.920,31.787 L20.353,32.189 L21.786,32.590 L23.219,32.992 L24.652,33.394 L23.196,32.737 L21.803,32.261 L20.410,31.785 L19.017,31.309 L17.624,30.834 L16.231,30.358 L14.838,29.882 L13.485,29.393 L12.132,28.903 L10.779,28.414 L9.426,27.924 L8.073,27.435 L6.720,26.945 L5.367,26.456 L5.588,26.180 L6.943,26.610 L8.298,27.040 L9.653,27.469 L11.008,27.899 L12.363,28.329 L13.718,28.758 L15.073,29.188 L16.387,29.629 L17.701,30.070 L19.015,30.511 L20.329,30.952 L21.643,31.393 L22.957,31.834 L24.270,32.275 L24.207,32.081 L22.727,31.484 L21.247,30.888 L19.767,30.291 L18.287,29.694 L16.807,29.097 L15.327,28.500 L13.897,27.893 L12.468,27.286 L11.038,26.679 L9.609,26.073 L8.179,25.466 L6.749,24.859 L6.992,24.606 L8.427,25.141 L9.861,25.677 L11.295,26.213 L12.730,26.748 L14.164,27.284 L15.599,27.819 L16.982,28.362 L18.365,28.905 L19.749,29.448 L21.132,29.991 L22.516,30.534 L23.899,31.077 L23.840,30.870 L22.515,30.249 L21.189,29.629 L19.864,29.008 L18.539,28.387 L17.213,27.767 L15.888,27.146 L14.615,26.521 L13.343,25.896 L12.070,25.272 L10.797,24.647 L9.524,24.022 L8.252,23.397 L8.512,23.167 L9.792,23.719 L11.073,24.271 L12.353,24.824 L13.634,25.376 L14.914,25.928 L16.195,26.480 L17.423,27.034 L18.651,27.588 L19.879,28.141 L21.108,28.695 L22.336,29.249 L23.564,29.802 L23.513,29.583 L22.115,28.831 L20.716,28.079 L19.317,27.327 L17.918,26.575 L16.519,25.823 L15.184,25.073 L13.849,24.323 L12.514,23.573 L11.179,22.822 L9.844,22.072 L10.116,21.865 L11.465,22.527 L12.814,23.188 L14.163,23.850 L15.512,24.512 L16.860,25.174 L18.147,25.831 L19.433,26.488 L20.719,27.145 L22.005,27.802 L23.291,28.459 L23.254,28.230 L22.047,27.491 L20.840,26.752 L19.633,26.013 L18.426,25.274 L17.219,24.535 L16.074,23.804 L14.930,23.073 L13.786,22.342 L12.641,21.611 L11.497,20.881 L11.777,20.695 L12.940,21.337 L14.103,21.979 L15.267,22.621 L16.430,23.263 L17.593,23.905 L18.972,24.694 L20.350,25.483 L21.728,26.272 L23.106,27.061 L23.085,26.824 L21.810,25.939 L20.535,25.054 L19.260,24.169 L17.985,23.285 L16.784,22.417 L15.584,21.549 L14.384,20.682 L13.183,19.814 L13.466,19.647 L14.697,20.404 L15.929,21.161 L17.160,21.918 L18.392,22.675 L19.552,23.413 L20.712,24.150 L21.871,24.888 L23.031,25.625 L23.031,25.384 L21.977,24.557 L20.923,23.730 L19.869,22.903 L18.815,22.077 L17.830,21.272 L16.846,20.468 L15.862,19.663 L14.877,18.859 L15.159,18.710 L16.182,19.404 L17.206,20.099 L18.230,20.794 L19.253,21.489 L20.531,22.384 L21.809,23.279 L23.086,24.173 L23.109,23.932 L21.975,22.926 L20.841,21.920 L19.707,20.914 L18.657,19.942 L17.607,18.971 L16.557,18.000 L16.834,17.864 L17.948,18.693 L19.062,19.521 L20.176,20.350 L21.213,21.143 L22.249,21.936 L23.286,22.730 L23.334,22.492 L22.443,21.594 L21.551,20.696 L20.659,19.799 L19.841,18.938 L19.022,18.078 L18.203,17.217 L18.473,17.092 L19.368,17.815 L20.262,18.538 L21.157,19.261 L21.985,19.947 L22.813,20.634 L23.642,21.321 L23.717,21.091 L22.692,19.913 L21.668,18.736 L20.736,17.613 L19.804,16.490 L20.065,16.372 L21.129,17.298 L22.193,18.224 L23.176,19.099 L24.159,19.973 L24.261,19.757 L23.496,18.742 L22.732,17.726 L22.041,16.761 L21.350,15.796 L21.602,15.682 L22.442,16.463 L23.283,17.243 L24.060,17.979 L24.837,18.716 L24.966,18.516 L24.406,17.645 L23.846,16.774 L23.342,15.944 L22.838,15.115 L23.081,15.001 L23.751,15.661 L24.422,16.321 L25.047,16.947 L25.672,17.573 L25.826,17.396 L25.417,16.639 L25.009,15.882 L24.640,15.154 L24.270,14.425 L24.504,14.308 L25.608,15.459 L26.652,16.571 L26.829,16.419 L26.217,15.052 L25.653,13.711 L25.879,13.588 L26.837,14.661 L27.764,15.728 L27.960,15.604 L27.467,14.286 L26.996,12.957 L27.217,12.827 L28.107,13.928 L28.987,15.062 L29.200,14.969 L28.756,13.586 L28.314,12.153 L28.532,12.014 L29.413,13.262 L30.299,14.585 L30.525,14.524 L30.302,13.740 L30.079,12.955 L29.851,12.125 L29.623,11.295 L29.842,11.146 L30.297,11.906 L30.752,12.666 L31.215,13.484 L31.677,14.302 L31.911,14.274 L31.672,13.334 L31.433,12.394 L31.187,11.387 L30.941,10.381 L31.163,10.223 L31.642,11.182 L32.121,12.141 L32.607,13.178 L33.094,14.216 L33.332,14.220 L33.073,13.062 L32.815,11.905 L32.551,10.661 L32.286,9.417 L32.515,9.252 L33.015,10.470 L33.515,11.688 L34.019,13.004 L34.524,14.320 L34.762,14.355 L34.491,12.922 L34.220,11.489 L33.949,9.951 L33.677,8.413 L33.915,8.242 L34.253,9.264 L34.592,10.286 L34.931,11.308 L35.268,12.407 L35.605,13.505 L35.943,14.604 L36.176,14.668 L35.999,13.494 L35.823,12.320 L35.646,11.146 L35.474,9.892 L35.302,8.638 L35.130,7.384 L35.379,7.211 L35.707,8.475 L36.036,9.739 L36.365,11.003 L36.685,12.353 L37.006,13.704 L37.327,15.054 L37.553,15.143 L37.398,13.722 L37.242,12.301 L37.087,10.879 L36.944,9.369 L36.801,7.860 L36.657,6.350 L36.920,6.179 L37.218,7.710 L37.515,9.242 L37.813,10.774 L38.024,11.993 L38.235,13.211 L38.446,14.430 L38.657,15.648 L38.872,15.760 L38.789,14.492 L38.707,13.224 L38.624,11.956 L38.541,10.688 L38.473,9.349 L38.406,8.011 L38.338,6.673 L38.270,5.334 L38.548,5.168 L38.729,6.531 L38.909,7.895 L39.090,9.258 L39.270,10.621 L39.432,12.057 L39.594,13.493 L39.755,14.929 L39.917,16.364 L40.119,16.494 L40.090,15.014 L40.061,13.533 L40.031,12.053 L40.002,10.573 L39.995,9.020 L39.989,7.468 L39.982,5.915 L39.975,4.362 L40.269,4.207 L40.385,5.791 L40.501,7.375 L40.618,8.960 L40.734,10.544 L40.806,11.870 L40.878,13.197 L40.950,14.523 L41.022,15.850 L41.095,17.176 L41.282,17.318 L41.319,15.962 L41.356,14.605 L41.393,13.248 L41.430,11.891 L41.467,10.535 L41.448,11.234 L41.467,10.535 L41.448,11.234 L41.467,10.535"/>
</svg>
