<svg xmlns="http://www.w3.org/2000/svg" viewBox="-1.044 0 80.573 80.573" width="256" height="256">
  <title>ampmod2</title>
  <rect x="-1.044" y="0" width="80.573" height="80.573" fill="#f5efe4"/>
  <path fill="none" stroke="#d9a441" stroke-width="0.4" stroke-linecap="round" stroke-linejoin="round" d="M36.956,16.293 L36.956,16.293 L37.004,14.781 L37.052,13.268 L37.100,11.755 L37.148,10.243 L37.196,8.730 L37.244,7.217 L37.338,5.981 L37.432,4.744 L37.526,3.508 L37.620,2.272 L37.765,3.068 L37.910,3.865 L37.921,5.363 L37.932,6.862 L37.944,8.360 L37.955,9.858 L37.966,11.357 L37.940,12.778 L37.914,14.200 L37.889,15.621 L37.863,17.043 L37.837,18.464 L37.811,19.886 L37.785,21.307 L37.737,22.858 L37.689,24.409 L37.641,25.959 L37.593,27.510 L37.545,29.061 L37.537,29.994 L37.529,30.927 L37.636,29.681 L37.744,28.435 L37.852,27.189 L37.959,25.943 L38.085,24.575 L38.211,23.207 L38.336,21.839 L38.462,20.471 L38.588,19.103 L38.713,17.735 L38.839,16.367 L38.990,14.981 L39.142,13.595 L39.293,12.208 L39.444,10.822 L39.596,9.435 L39.747,8.049 L39.898,6.662 L40.099,5.350 L40.299,4.038 L40.499,2.725 L40.700,1.413 L40.779,2.287 L40.859,3.161 L40.761,4.498 L40.663,5.834 L40.566,7.170 L40.468,8.506 L40.371,9.843 L40.273,11.179 L40.124,12.692 L39.975,14.205 L39.826,15.718 L39.677,17.231 L39.528,18.744 L39.379,20.257 L39.230,21.770 L39.077,23.139 L38.925,24.508 L38.772,25.877 L38.619,27.245 L38.466,28.614 L38.313,29.983 L38.222,30.959 L38.130,31.935 L38.346,30.617 L38.562,29.298 L38.778,27.979 L38.993,26.660 L39.239,25.221 L39.484,23.782 L39.729,22.344 L39.974,20.905 L40.220,19.466 L40.465,18.028 L40.710,16.589 L40.983,15.139 L41.256,13.689 L41.529,12.239 L41.802,10.789 L42.075,9.338 L42.348,7.888 L42.621,6.438 L42.937,5.079 L43.253,3.719 L43.569,2.360 L43.884,1.000 L43.887,1.941 L43.890,2.882 L43.674,4.279 L43.459,5.676 L43.244,7.073 L43.029,8.470 L42.814,9.867 L42.599,11.264 L42.317,12.835 L42.035,14.405 L41.753,15.976 L41.471,17.547 L41.189,19.118 L40.907,20.688 L40.625,22.259 L40.352,23.671 L40.079,25.083 L39.807,26.495 L39.534,27.907 L39.261,29.319 L38.988,30.731 L38.813,31.721 L38.637,32.711 L38.969,31.350 L39.300,29.989 L39.632,28.627 L39.963,27.266 L40.334,25.794 L40.705,24.321 L41.076,22.848 L41.446,21.375 L41.817,19.902 L42.188,18.429 L42.559,16.957 L42.957,15.482 L43.356,14.007 L43.754,12.532 L44.153,11.058 L44.551,9.583 L44.950,8.108 L45.348,6.634 L45.780,5.266 L46.212,3.899 L46.644,2.531 L47.075,1.164 L46.994,2.151 L46.912,3.138 L46.576,4.557 L46.241,5.975 L45.905,7.394 L45.570,8.813 L45.234,10.232 L44.899,11.651 L44.536,13.036 L44.172,14.422 L43.809,15.807 L43.445,17.192 L43.082,18.577 L42.718,19.962 L42.355,21.347 L41.991,22.733 L41.600,24.146 L41.210,25.559 L40.819,26.972 L40.428,28.386 L40.037,29.799 L39.646,31.212 L39.392,32.183 L39.139,33.154 L39.585,31.791 L40.032,30.428 L40.479,29.065 L40.926,27.702 L41.418,26.240 L41.911,24.778 L42.403,23.316 L42.895,21.854 L43.388,20.392 L43.880,18.930 L44.372,17.468 L44.890,16.015 L45.408,14.561 L45.926,13.108 L46.444,11.655 L46.961,10.201 L47.479,8.748 L47.997,7.295 L48.536,5.963 L49.075,4.631 L49.614,3.299 L50.153,1.968 L49.985,2.971 L49.817,3.975 L49.368,5.372 L48.919,6.768 L48.471,8.165 L48.022,9.562 L47.573,10.958 L47.125,12.355 L46.654,13.707 L46.183,15.060 L45.712,16.412 L45.241,17.765 L44.770,19.117 L44.299,20.469 L43.828,21.822 L43.356,23.174 L42.859,24.544 L42.362,25.914 L41.864,27.284 L41.367,28.654 L40.870,30.023 L40.372,31.393 L40.054,32.316 L39.735,33.238 L40.287,31.917 L40.838,30.596 L41.390,29.274 L41.942,27.953 L42.542,26.548 L43.141,25.144 L43.741,23.739 L44.341,22.334 L44.941,20.930 L45.540,19.525 L46.140,18.120 L46.761,16.734 L47.382,15.348 L48.003,13.961 L48.624,12.575 L49.245,11.189 L49.866,9.803 L50.487,8.416 L51.115,7.161 L51.743,5.907 L52.371,4.652 L52.999,3.397 L52.751,4.386 L52.503,5.374 L51.957,6.705 L51.412,8.037 L50.866,9.368 L50.320,10.699 L49.775,12.031 L49.229,13.362 L48.588,14.824 L47.947,16.285 L47.307,17.747 L46.666,19.208 L46.025,20.670 L45.384,22.131 L44.744,23.593 L44.160,24.879 L43.576,26.166 L42.992,27.452 L42.408,28.738 L41.824,30.025 L41.240,31.311 L40.874,32.162 L40.507,33.013 L41.144,31.774 L41.782,30.535 L42.420,29.295 L43.057,28.056 L43.742,26.749 L44.427,25.443 L45.112,24.136 L45.797,22.829 L46.482,21.523 L47.167,20.216 L47.852,18.909 L48.552,17.629 L49.252,16.348 L49.953,15.067 L50.653,13.787 L51.354,12.506 L52.054,11.225 L52.755,9.944 L53.448,8.799 L54.141,7.654 L54.835,6.509 L55.528,5.364 L55.213,6.307 L54.897,7.249 L54.278,8.480 L53.658,9.711 L53.038,10.942 L52.418,12.173 L51.799,13.403 L51.179,14.634 L50.462,15.975 L49.746,17.316 L49.029,18.657 L48.313,19.998 L47.596,21.339 L46.879,22.679 L46.163,24.020 L45.517,25.193 L44.871,26.366 L44.225,27.540 L43.579,28.713 L42.933,29.886 L42.287,31.059 L41.890,31.825 L41.493,32.591 L42.192,31.465 L42.892,30.339 L43.591,29.213 L44.290,28.087 L45.034,26.908 L45.777,25.728 L46.521,24.548 L47.265,23.369 L48.008,22.189 L48.752,21.010 L49.496,19.830 L50.249,18.681 L51.002,17.532 L51.756,16.383 L52.509,15.234 L53.262,14.085 L54.016,12.936 L54.769,11.787 L55.503,10.771 L56.237,9.756 L56.971,8.740 L57.704,7.725 L57.338,8.598 L56.972,9.471 L56.170,10.799 L55.367,12.128 L54.565,13.457 L53.762,14.786 L52.960,16.114 L52.195,17.313 L51.430,18.512 L50.665,19.710 L49.900,20.909 L49.136,22.107 L48.371,23.306 L47.606,24.504 L46.785,25.757 L45.965,27.009 L45.144,28.262 L44.324,29.515 L43.503,30.767 L42.676,32.125 L43.412,31.130 L44.149,30.135 L44.885,29.140 L45.621,28.145 L46.528,26.934 L47.435,25.722 L48.342,24.511 L49.249,23.300 L50.156,22.088 L51.063,20.877 L51.975,19.703 L52.888,18.528 L53.800,17.354 L54.713,16.179 L55.625,15.005 L56.538,13.830 L57.543,12.656 L58.547,11.481 L59.552,10.307 L59.153,11.096 L58.754,11.885 L57.919,13.056 L57.083,14.227 L56.248,15.398 L55.413,16.568 L54.577,17.739 L53.655,18.965 L52.733,20.191 L51.811,21.418 L50.889,22.644 L49.967,23.870 L49.044,25.096 L48.200,26.192 L47.356,27.288 L46.512,28.384 L45.668,29.481 L44.824,30.577 L43.979,31.773 L44.984,30.626 L45.989,29.478 L46.994,28.331 L47.919,27.283 L48.844,26.235 L49.768,25.187 L50.693,24.139 L51.618,23.092 L52.543,22.044 L53.470,21.030 L54.397,20.017 L55.324,19.003 L56.252,17.990 L57.179,16.976 L58.106,15.963 L59.121,14.957 L60.136,13.952 L61.151,12.946 L60.734,13.647 L60.316,14.349 L59.465,15.369 L58.613,16.388 L57.761,17.408 L56.909,18.428 L56.057,19.448 L55.120,20.513 L54.182,21.579 L53.245,22.645 L52.308,23.710 L51.370,24.776 L50.433,25.841 L49.576,26.795 L48.718,27.748 L47.861,28.702 L47.004,29.655 L46.147,30.608 L45.281,31.672 L46.295,30.690 L47.309,29.709 L48.322,28.727 L49.443,27.646 L50.564,26.565 L51.685,25.484 L52.806,24.404 L53.926,23.323 L55.050,22.277 L56.174,21.231 L57.298,20.186 L58.422,19.140 L59.546,18.094 L60.570,17.233 L61.594,16.372 L62.618,15.512 L61.764,16.751 L60.682,17.862 L59.600,18.973 L58.518,20.084 L57.437,21.195 L56.292,22.310 L55.148,23.424 L54.004,24.539 L52.860,25.654 L51.716,26.769 L50.622,27.812 L49.529,28.855 L48.435,29.899 L47.342,30.942 L46.437,31.906 L47.460,31.064 L48.484,30.223 L49.508,29.382 L50.648,28.447 L51.787,27.512 L52.927,26.577 L54.066,25.642 L55.206,24.707 L56.352,23.799 L57.499,22.892 L58.646,21.984 L59.792,21.077 L60.939,20.169 L61.987,19.423 L63.036,18.677 L64.084,17.931 L63.209,19.034 L62.096,20.014 L60.982,20.994 L59.868,21.974 L58.754,22.954 L57.571,23.940 L56.388,24.927 L55.204,25.913 L54.021,26.899 L52.838,27.885 L51.700,28.814 L50.561,29.743 L49.423,30.672 L48.285,31.601 L47.306,32.494 L48.357,31.763 L49.409,31.032 L50.460,30.301 L51.642,29.478 L52.825,28.655 L54.007,27.832 L55.190,27.010 L56.372,26.187 L57.569,25.384 L58.766,24.582 L59.963,23.780 L61.160,22.977 L62.357,22.175 L63.458,21.515 L64.558,20.855 L65.659,20.195 L64.746,21.194 L63.569,22.076 L62.393,22.958 L61.217,23.841 L60.041,24.723 L58.784,25.613 L57.527,26.503 L56.270,27.393 L55.013,28.284 L53.756,29.174 L52.537,30.018 L51.318,30.862 L50.099,31.706 L48.880,32.550 L47.787,33.393 L48.895,32.745 L50.003,32.096 L51.112,31.448 L52.373,30.709 L53.635,29.970 L54.896,29.231 L56.158,28.492 L57.419,27.754 L58.704,27.030 L59.989,26.307 L61.274,25.584 L62.559,24.861 L63.843,24.138 L65.031,23.544 L66.219,22.950 L67.407,22.356 L66.422,23.281 L65.144,24.090 L63.865,24.898 L62.587,25.707 L61.309,26.515 L59.936,27.332 L58.563,28.149 L57.191,28.966 L55.818,29.782 L54.445,30.599 L53.104,31.377 L51.764,32.154 L50.423,32.932 L49.083,33.709 L47.838,34.507 L49.038,33.923 L50.239,33.338 L51.439,32.754 L52.819,32.083 L54.199,31.412 L55.580,30.740 L56.960,30.069 L58.340,29.398 L59.752,28.741 L61.164,28.083 L62.576,27.426 L63.988,26.769 L65.400,26.112 L66.708,25.576 L68.017,25.041 L69.326,24.506 L68.229,25.377 L67.093,25.973 L65.957,26.570 L64.821,27.166 L63.685,27.763 L62.549,28.359 L61.275,28.985 L60.001,29.610 L58.728,30.236 L57.454,30.862 L56.180,31.487 L54.906,32.113 L53.707,32.685 L52.509,33.256 L51.310,33.827 L50.111,34.399 L48.912,34.970 L48.201,35.342 L47.489,35.713 L48.814,35.187 L50.139,34.661 L51.464,34.135 L52.742,33.631 L54.019,33.126 L55.297,32.622 L56.574,32.118 L57.852,31.613 L59.129,31.109 L60.438,30.618 L61.746,30.127 L63.055,29.636 L64.364,29.145 L65.673,28.654 L66.981,28.162 L68.435,27.691 L69.889,27.220 L71.342,26.748 L70.095,27.573 L68.821,28.115 L67.548,28.657 L66.274,29.200 L65.000,29.742 L63.727,30.284 L62.300,30.848 L60.873,31.411 L59.446,31.975 L58.019,32.539 L56.592,33.102 L55.165,33.666 L53.822,34.177 L52.479,34.689 L51.135,35.201 L49.792,35.712 L48.449,36.224 L47.644,36.557 L46.839,36.890 L48.312,36.430 L49.784,35.969 L51.256,35.509 L52.677,35.070 L54.098,34.631 L55.519,34.193 L56.939,33.754 L58.360,33.316 L59.781,32.877 L61.235,32.455 L62.688,32.034 L64.142,31.612 L65.595,31.190 L67.049,30.769 L68.502,30.347 L69.707,30.054 L70.912,29.761 L72.117,29.468 L73.322,29.175 L72.609,29.559 L71.896,29.944 L70.475,30.417 L69.053,30.891 L67.632,31.365 L66.210,31.839 L64.789,32.313 L63.429,32.727 L62.069,33.142 L60.709,33.556 L59.349,33.971 L57.989,34.386 L56.629,34.800 L55.269,35.215 L53.779,35.648 L52.290,36.082 L50.800,36.515 L49.310,36.949 L47.821,37.382 L46.931,37.663 L46.040,37.944 L47.259,37.661 L48.477,37.379 L49.696,37.096 L50.914,36.813 L52.254,36.510 L53.594,36.207 L54.933,35.904 L56.273,35.600 L57.613,35.297 L58.953,34.994 L60.293,34.691 L61.658,34.406 L63.023,34.122 L64.389,33.837 L65.754,33.553 L67.120,33.268 L68.485,32.984 L69.850,32.699 L71.160,32.484 L72.470,32.269 L73.780,32.054 L75.091,31.839 L74.284,32.185 L73.477,32.531 L72.176,32.851 L70.875,33.171 L69.574,33.491 L68.273,33.811 L66.971,34.131 L65.670,34.451 L64.185,34.777 L62.700,35.103 L61.215,35.429 L59.730,35.755 L58.245,36.081 L56.760,36.407 L55.275,36.733 L53.926,37.010 L52.577,37.288 L51.228,37.565 L49.879,37.843 L48.530,38.121 L47.181,38.398 L46.225,38.613 L45.268,38.828 L46.589,38.625 L47.910,38.423 L49.231,38.221 L50.552,38.018 L51.996,37.807 L53.440,37.596 L54.884,37.384 L56.328,37.173 L57.772,36.962 L59.216,36.750 L60.660,36.539 L62.124,36.351 L63.587,36.162 L65.051,35.974 L66.514,35.785 L67.978,35.597 L69.441,35.408 L70.905,35.220 L72.295,35.100 L73.686,34.980 L75.077,34.860 L76.467,34.741 L75.573,35.034 L74.678,35.327 L73.283,35.554 L71.888,35.781 L70.493,36.008 L69.098,36.235 L67.703,36.462 L66.308,36.689 L64.727,36.907 L63.146,37.124 L61.565,37.341 L59.984,37.558 L58.403,37.776 L56.823,37.993 L55.242,38.210 L53.814,38.387 L52.387,38.564 L50.960,38.741 L49.532,38.918 L48.105,39.095 L46.678,39.272 L45.682,39.410 L44.687,39.549 L46.084,39.444 L47.481,39.339 L48.878,39.233 L50.275,39.128 L51.790,39.026 L53.305,38.923 L54.821,38.821 L56.336,38.718 L57.851,38.616 L59.367,38.513 L60.882,38.410 L62.408,38.334 L63.933,38.257 L65.459,38.180 L66.985,38.104 L68.510,38.027 L70.036,37.950 L71.562,37.874 L72.996,37.862 L74.430,37.850 L75.864,37.838 L77.298,37.826 L76.334,38.053 L75.370,38.280 L73.917,38.400 L72.463,38.519 L71.010,38.639 L69.557,38.758 L68.104,38.878 L66.651,38.997 L65.221,39.079 L63.791,39.162 L62.362,39.244 L60.932,39.326 L59.502,39.409 L58.073,39.491 L56.643,39.574 L55.213,39.656 L53.748,39.721 L52.284,39.786 L50.819,39.851 L49.354,39.916 L47.889,39.981 L46.424,40.046 L45.422,40.104 L44.420,40.163 L45.855,40.167 L47.289,40.171 L48.724,40.174 L50.158,40.178 L51.701,40.195 L53.243,40.211 L54.786,40.228 L56.328,40.244 L57.871,40.261 L59.413,40.277 L60.956,40.293 L62.498,40.337 L64.040,40.380 L65.583,40.424 L67.125,40.467 L68.667,40.510 L70.209,40.554 L71.752,40.597 L73.185,40.698 L74.618,40.799 L76.051,40.900 L77.484,41.001 L76.478,41.151 L75.471,41.302 L74.004,41.307 L72.537,41.312 L71.070,41.317 L69.603,41.321 L68.136,41.326 L66.669,41.331 L65.237,41.301 L63.806,41.271 L62.374,41.241 L60.942,41.211 L59.510,41.181 L58.079,41.151 L56.647,41.121 L55.215,41.091 L53.759,41.041 L52.302,40.991 L50.846,40.942 L49.389,40.892 L47.933,40.842 L46.476,40.792 L45.500,40.774 L44.525,40.756 L45.952,40.873 L47.379,40.989 L48.806,41.106 L50.233,41.222 L51.754,41.358 L53.276,41.495 L54.797,41.631 L56.318,41.767 L57.839,41.904 L59.361,42.040 L60.882,42.176 L62.392,42.339 L63.903,42.501 L65.413,42.663 L66.923,42.825 L68.434,42.987 L69.944,43.150 L71.454,43.312 L72.842,43.521 L74.229,43.731 L75.616,43.940 L77.004,44.150 L75.987,44.219 L74.971,44.289 L73.536,44.181 L72.101,44.074 L70.666,43.966 L69.231,43.859 L67.796,43.751 L66.362,43.644 L64.774,43.486 L63.186,43.328 L61.598,43.170 L60.010,43.013 L58.422,42.855 L56.834,42.697 L55.246,42.539 L53.842,42.381 L52.438,42.224 L51.034,42.066 L49.630,41.908 L48.226,41.750 L46.823,41.592 L45.900,41.507 L44.977,41.421 L46.353,41.644 L47.729,41.868 L49.104,42.091 L50.480,42.315 L51.934,42.562 L53.388,42.810 L54.843,43.057 L56.297,43.305 L57.752,43.553 L59.206,43.800 L60.660,44.048 L62.095,44.318 L63.529,44.589 L64.964,44.859 L66.398,45.129 L67.833,45.400 L69.267,45.670 L70.702,45.941 L72.005,46.246 L73.308,46.552 L74.611,46.857 L75.915,47.163 L74.921,47.154 L73.927,47.146 L72.565,46.937 L71.203,46.728 L69.841,46.518 L68.479,46.309 L67.116,46.100 L65.754,45.891 L64.258,45.624 L62.761,45.357 L61.264,45.090 L59.768,44.823 L58.271,44.555 L56.774,44.288 L55.278,44.021 L53.962,43.769 L52.647,43.518 L51.332,43.266 L50.017,43.014 L48.701,42.762 L47.386,42.510 L46.535,42.369 L45.683,42.228 L46.970,42.545 L48.257,42.863 L49.544,43.180 L50.831,43.497 L52.183,43.840 L53.534,44.182 L54.886,44.525 L56.238,44.868 L57.589,45.211 L58.941,45.553 L60.293,45.896 L61.618,46.258 L62.944,46.619 L64.270,46.980 L65.595,47.342 L66.921,47.703 L68.246,48.064 L69.572,48.426 L70.765,48.810 L71.957,49.194 L73.150,49.578 L74.342,49.962 L73.399,49.884 L72.456,49.806 L70.944,49.453 L69.432,49.100 L67.920,48.748 L66.409,48.395 L64.897,48.042 L63.521,47.685 L62.144,47.328 L60.768,46.971 L59.392,46.614 L58.016,46.257 L56.640,45.900 L55.263,45.543 L53.819,45.150 L52.374,44.756 L50.929,44.363 L49.484,43.970 L48.039,43.576 L46.492,43.209 L47.666,43.602 L48.840,43.995 L50.014,44.388 L51.188,44.781 L52.620,45.269 L54.052,45.757 L55.484,46.245 L56.917,46.734 L58.349,47.222 L59.781,47.710 L61.180,48.215 L62.579,48.720 L63.978,49.225 L65.377,49.730 L66.776,50.234 L68.175,50.739 L69.602,51.332 L71.030,51.925 L72.457,52.518 L71.584,52.382 L70.710,52.246 L69.338,51.814 L67.967,51.381 L66.595,50.948 L65.223,50.515 L63.852,50.083 L62.401,49.585 L60.949,49.087 L59.498,48.588 L58.047,48.090 L56.596,47.592 L55.145,47.094 L53.842,46.630 L52.538,46.166 L51.235,45.702 L49.932,45.238 L48.629,44.774 L47.229,44.340 L48.631,44.941 L50.033,45.542 L51.435,46.144 L52.718,46.699 L54.000,47.255 L55.282,47.811 L56.564,48.366 L57.847,48.922 L59.129,49.478 L60.379,50.047 L61.630,50.615 L62.880,51.184 L64.131,51.753 L65.381,52.321 L66.631,52.890 L67.901,53.544 L69.171,54.199 L70.441,54.853 L69.645,54.673 L68.849,54.493 L67.616,53.998 L66.383,53.503 L65.150,53.008 L63.917,52.513 L62.684,52.018 L61.381,51.456 L60.078,50.894 L58.775,50.332 L57.472,49.769 L56.168,49.207 L54.865,48.645 L53.694,48.124 L52.522,47.604 L51.350,47.083 L50.179,46.562 L49.007,46.042 L47.728,45.547 L48.975,46.208 L50.222,46.869 L51.469,47.529 L52.843,48.261 L54.217,48.993 L55.592,49.725 L56.966,50.457 L58.340,51.189 L59.682,51.935 L61.024,52.681 L62.366,53.427 L63.707,54.172 L65.049,54.918 L66.185,55.626 L67.320,56.334 L68.455,57.042 L67.012,56.613 L65.621,55.927 L64.230,55.241 L62.839,54.556 L61.449,53.870 L60.035,53.126 L58.621,52.383 L57.207,51.639 L55.794,50.895 L54.380,50.152 L53.050,49.434 L51.719,48.716 L50.389,47.999 L49.059,47.281 L47.863,46.718 L48.979,47.432 L50.096,48.146 L51.212,48.860 L52.454,49.654 L53.695,50.449 L54.936,51.244 L56.178,52.039 L57.419,52.833 L58.637,53.644 L59.854,54.454 L61.071,55.264 L62.289,56.074 L63.506,56.884 L64.540,57.651 L65.574,58.417 L66.607,59.184 L65.288,58.693 L64.012,57.936 L62.735,57.180 L61.459,56.423 L60.182,55.667 L58.879,54.846 L57.575,54.026 L56.272,53.205 L54.968,52.384 L53.665,51.564 L52.430,50.768 L51.195,49.973 L49.959,49.177 L48.724,48.382 L47.572,47.727 L48.592,48.501 L49.612,49.275 L50.632,50.049 L51.780,50.919 L52.928,51.789 L54.076,52.660 L55.224,53.530 L56.372,54.400 L57.505,55.291 L58.638,56.181 L59.771,57.072 L60.904,57.962 L62.037,58.853 L63.005,59.695 L63.973,60.538 L64.940,61.381 L63.708,60.821 L62.505,59.975 L61.303,59.129 L60.101,58.283 L58.898,57.437 L57.663,56.516 L56.428,55.596 L55.193,54.676 L53.958,53.755 L52.723,52.835 L51.543,51.937 L50.364,51.038 L49.185,50.140 L48.005,49.241 L46.865,48.462 L47.825,49.316 L48.784,50.169 L49.743,51.023 L50.835,51.994 L51.928,52.966 L53.020,53.937 L54.113,54.909 L55.206,55.880 L56.290,56.879 L57.375,57.877 L58.460,58.876 L59.545,59.874 L60.629,60.873 L61.561,61.819 L62.493,62.765 L63.425,63.711 L62.241,63.060 L61.077,62.094 L59.913,61.129 L58.749,60.163 L57.585,59.197 L56.384,58.144 L55.183,57.090 L53.982,56.037 L52.781,54.984 L51.580,53.931 L50.426,52.896 L49.273,51.862 L48.119,50.827 L46.966,49.792 L45.822,48.855 L46.748,49.816 L47.675,50.777 L48.602,51.738 L49.667,52.843 L50.732,53.948 L51.797,55.054 L52.861,56.159 L53.926,57.264 L54.988,58.404 L56.049,59.544 L57.110,60.683 L58.172,61.823 L59.233,62.963 L60.147,64.042 L61.060,65.121 L61.974,66.200 L60.806,65.426 L59.888,64.530 L58.970,63.634 L58.051,62.738 L57.133,61.842 L56.215,60.946 L55.226,59.928 L54.237,58.910 L53.249,57.892 L52.260,56.874 L51.271,55.855 L50.283,54.837 L49.369,53.874 L48.455,52.910 L47.541,51.947 L46.627,50.983 L45.713,50.020 L45.140,49.458 L44.567,48.896 L45.477,49.994 L46.386,51.091 L47.296,52.189 L48.171,53.248 L49.045,54.307 L49.919,55.366 L50.794,56.425 L51.668,57.484 L52.543,58.543 L53.414,59.636 L54.286,60.729 L55.157,61.822 L56.029,62.915 L56.900,64.008 L57.772,65.101 L58.669,66.338 L59.567,67.574 L60.464,68.811 L59.295,67.880 L58.385,66.836 L57.476,65.792 L56.567,64.749 L55.657,63.705 L54.748,62.661 L53.771,61.478 L52.794,60.295 L51.817,59.112 L50.840,57.929 L49.863,56.747 L48.886,55.564 L47.984,54.444 L47.083,53.325 L46.181,52.205 L45.280,51.086 L44.378,49.966 L43.812,49.304 L43.247,48.642 L44.140,49.899 L45.033,51.157 L45.925,52.415 L46.782,53.631 L47.638,54.847 L48.494,56.063 L49.350,57.278 L50.206,58.494 L51.063,59.710 L51.913,60.962 L52.763,62.214 L53.613,63.466 L54.464,64.718 L55.314,65.970 L56.164,67.222 L56.815,68.278 L57.466,69.333 L58.117,70.389 L58.768,71.444 L58.182,70.885 L57.596,70.325 L56.706,69.120 L55.817,67.914 L54.927,66.709 L54.037,65.503 L53.147,64.298 L52.332,63.133 L51.518,61.967 L50.703,60.802 L49.889,59.637 L49.074,58.472 L48.260,57.306 L47.445,56.141 L46.572,54.858 L45.700,53.575 L44.827,52.293 L43.955,51.010 L43.082,49.727 L42.540,48.967 L41.998,48.207 L42.643,49.279 L43.288,50.350 L43.934,51.422 L44.579,52.493 L45.281,53.674 L45.984,54.854 L46.686,56.035 L47.389,57.215 L48.091,58.396 L48.793,59.576 L49.496,60.757 L50.188,61.967 L50.881,63.178 L51.573,64.389 L52.266,65.599 L52.958,66.810 L53.651,68.021 L54.343,69.231 L54.953,70.411 L55.562,71.590 L56.171,72.770 L56.781,73.949 L56.202,73.289 L55.624,72.628 L54.918,71.490 L54.211,70.351 L53.505,69.213 L52.798,68.074 L52.092,66.936 L51.385,65.797 L50.616,64.486 L49.848,63.174 L49.079,61.862 L48.310,60.551 L47.541,59.239 L46.772,57.928 L46.004,56.616 L45.323,55.419 L44.642,54.222 L43.961,53.024 L43.280,51.827 L42.599,50.630 L41.918,49.433 L41.418,48.589 L40.918,47.746 L41.519,48.940 L42.120,50.133 L42.720,51.327 L43.321,52.521 L43.968,53.829 L44.616,55.137 L45.263,56.445 L45.910,57.753 L46.557,59.061 L47.204,60.370 L47.852,61.678 L48.483,63.011 L49.115,64.345 L49.746,65.678 L50.378,67.012 L51.009,68.346 L51.641,69.679 L52.272,71.013 L52.816,72.298 L53.359,73.584 L53.903,74.870 L54.447,76.155 L53.891,75.395 L53.336,74.635 L52.689,73.379 L52.042,72.122 L51.395,70.865 L50.748,69.609 L50.101,68.352 L49.454,67.095 L48.759,65.659 L48.064,64.223 L47.368,62.786 L46.673,61.350 L45.978,59.913 L45.283,58.477 L44.588,57.040 L43.979,55.738 L43.369,54.435 L42.760,53.132 L42.151,51.829 L41.541,50.527 L40.932,49.224 L40.492,48.320 L40.053,47.416 L40.585,48.712 L41.116,50.008 L41.648,51.304 L42.180,52.600 L42.746,54.010 L43.311,55.419 L43.877,56.829 L44.443,58.238 L45.009,59.648 L45.574,61.057 L46.140,62.467 L46.685,63.894 L47.229,65.321 L47.773,66.749 L48.318,68.176 L48.862,69.603 L49.407,71.030 L49.951,72.458 L50.405,73.818 L50.860,75.178 L51.314,76.538 L51.769,77.898 L51.255,77.052 L50.741,76.205 L50.178,74.860 L49.616,73.515 L49.053,72.170 L48.490,70.825 L47.928,69.480 L47.365,68.134 L46.845,66.800 L46.325,65.466 L45.805,64.132 L45.285,62.797 L44.764,61.463 L44.244,60.129 L43.724,58.795 L43.204,57.460 L42.690,56.087 L42.175,54.714 L41.661,53.341 L41.146,51.968 L40.632,50.595 L40.117,49.222 L39.752,48.287 L39.386,47.352 L39.826,48.718 L40.266,50.083 L40.705,51.449 L41.145,52.814 L41.606,54.286 L42.067,55.758 L42.528,57.230 L42.989,58.703 L43.450,60.175 L43.911,61.647 L44.372,63.119 L44.808,64.599 L45.243,66.079 L45.678,67.559 L46.114,69.040 L46.549,70.520 L46.984,72.000 L47.420,73.480 L47.766,74.874 L48.113,76.268 L48.460,77.662 L48.807,79.057 L48.353,78.146 L47.899,77.235 L47.441,75.842 L46.983,74.448 L46.525,73.054 L46.067,71.661 L45.609,70.267 L45.151,68.873 L44.737,67.502 L44.323,66.131 L43.909,64.760 L43.496,63.389 L43.082,62.018 L42.668,60.647 L42.254,59.276 L41.840,57.906 L41.437,56.505 L41.034,55.104 L40.632,53.704 L40.229,52.303 L39.826,50.903 L39.423,49.502 L39.139,48.568 L38.854,47.635 L39.185,49.028 L39.515,50.421 L39.845,51.815 L40.176,53.208 L40.516,54.697 L40.857,56.186 L41.197,57.675 L41.537,59.164 L41.878,60.652 L42.218,62.141 L42.559,63.630 L42.871,65.117 L43.184,66.603 L43.496,68.090 L43.808,69.577 L44.121,71.063 L44.433,72.550 L44.746,74.036 L44.975,75.420 L45.205,76.805 L45.434,78.189 L45.664,79.573 L45.284,78.628 L44.903,77.683 L44.562,76.285 L44.221,74.887 L43.880,73.489 L43.539,72.091 L43.197,70.693 L42.856,69.295 L42.516,67.736 L42.175,66.177 L41.834,64.618 L41.494,63.059 L41.153,61.500 L40.813,59.941 L40.472,58.382 L40.188,56.998 L39.904,55.614 L39.621,54.230 L39.337,52.847 L39.053,51.463 L38.769,50.079 L38.566,49.175 L38.362,48.271 L38.575,49.648 L38.788,51.025 L39.000,52.403 L39.213,53.780 L39.427,55.240 L39.641,56.699 L39.855,58.159 L40.068,59.619 L40.282,61.079 L40.496,62.538 L40.710,63.998 L40.896,65.446 L41.083,66.894 L41.269,68.341 L41.455,69.789 L41.641,71.237 L41.827,72.685 L42.013,74.133 L42.125,75.467 L42.237,76.800 L42.349,78.134 L42.461,79.468 L42.163,78.520 L41.864,77.572 L41.642,76.212 L41.420,74.852 L41.197,73.492 L40.975,72.132 L40.753,70.772 L40.531,69.412 L40.323,67.906 L40.114,66.400 L39.906,64.894 L39.698,63.388 L39.489,61.882 L39.281,60.376 L39.072,58.870 L38.905,57.542 L38.738,56.213 L38.571,54.884 L38.404,53.556 L38.237,52.227 L38.070,50.898 L37.942,50.045 L37.813,49.192 L37.909,50.514 L38.005,51.836 L38.101,53.158 L38.197,54.480 L38.289,55.871 L38.380,57.262 L38.472,58.654 L38.564,60.045 L38.655,61.437 L38.747,62.828 L38.839,64.219 L38.905,65.592 L38.971,66.964 L39.037,68.337 L39.103,69.709 L39.169,71.081 L39.235,72.454 L39.301,73.826 L39.304,75.079 L39.307,76.332 L39.310,77.585 L39.313,78.838 L39.096,77.917 L38.879,76.995 L38.748,75.448 L38.616,73.902 L38.484,72.355 L38.352,70.808 L38.221,69.261 L38.135,67.842 L38.049,66.423 L37.963,65.004 L37.878,63.585 L37.792,62.166 L37.706,60.746 L37.621,59.327 L37.548,57.832 L37.476,56.336 L37.403,54.840 L37.331,53.344 L37.258,51.849 L37.130,50.264 L37.119,51.502 L37.108,52.740 L37.097,53.978 L37.086,55.215 L37.064,56.728 L37.043,58.241 L37.021,59.754 L36.999,61.267 L36.978,62.780 L36.956,64.293 L36.908,65.780 L36.860,67.267 L36.812,68.753 L36.764,70.240 L36.716,71.726 L36.669,73.213 L36.546,74.753 L36.423,76.294 L36.301,77.835 L36.160,76.962 L36.018,76.089 L36.006,74.651 L35.994,73.213 L35.982,71.774 L35.969,70.336 L35.957,68.898 L35.982,67.364 L36.008,65.830 L36.033,64.296 L36.058,62.762 L36.083,61.228 L36.109,59.694 L36.147,58.311 L36.186,56.928 L36.224,55.545 L36.263,54.162 L36.301,52.780 L36.282,51.315 L36.143,52.834 L36.005,54.353 L35.866,55.872 L35.734,57.263 L35.602,58.654 L35.470,60.046 L35.337,61.437 L35.205,62.828 L35.073,64.219 L34.918,65.584 L34.764,66.949 L34.609,68.314 L34.455,69.679 L34.301,71.044 L34.146,72.409 L33.916,73.819 L33.686,75.229 L33.456,76.639 L33.381,75.827 L33.307,75.014 L33.396,73.688 L33.486,72.363 L33.576,71.037 L33.665,69.711 L33.755,68.385 L33.887,66.972 L34.019,65.559 L34.151,64.146 L34.283,62.733 L34.416,61.320 L34.548,59.907 L34.681,58.632 L34.814,57.357 L34.947,56.082 L35.080,54.806 L35.213,53.531 L35.288,52.162 L35.045,53.552 L34.802,54.942 L34.559,56.332 L34.287,57.865 L34.016,59.399 L33.744,60.932 L33.473,62.465 L33.201,63.998 L32.907,65.505 L32.612,67.011 L32.318,68.518 L32.023,70.025 L31.728,71.531 L31.406,72.830 L31.083,74.128 L30.761,75.426 L30.723,73.921 L30.946,72.387 L31.168,70.852 L31.390,69.317 L31.612,67.783 L31.883,66.208 L32.153,64.634 L32.424,63.060 L32.694,61.485 L32.965,59.911 L33.236,58.424 L33.507,56.937 L33.779,55.451 L34.050,53.964 L34.216,52.652 L33.882,53.934 L33.548,55.217 L33.214,56.499 L32.842,57.926 L32.470,59.352 L32.098,60.778 L31.725,62.204 L31.353,63.630 L30.959,65.039 L30.565,66.447 L30.170,67.855 L29.776,69.263 L29.382,70.671 L28.972,71.891 L28.563,73.111 L28.153,74.331 L28.212,72.924 L28.537,71.477 L28.862,70.029 L29.187,68.581 L29.512,67.134 L29.890,65.641 L30.268,64.147 L30.645,62.654 L31.023,61.161 L31.400,59.668 L31.775,58.247 L32.150,56.826 L32.525,55.406 L32.900,53.985 L33.167,52.687 L32.746,53.896 L32.325,55.106 L31.904,56.315 L31.431,57.676 L30.958,59.037 L30.485,60.397 L30.012,61.758 L29.539,63.119 L29.043,64.471 L28.546,65.824 L28.049,67.177 L27.552,68.529 L27.056,69.882 L26.553,71.063 L26.050,72.244 L25.548,73.425 L25.700,72.080 L26.133,70.675 L26.566,69.269 L26.999,67.864 L27.432,66.459 L27.926,65.000 L28.419,63.541 L28.913,62.082 L29.407,60.623 L29.900,59.164 L30.390,57.765 L30.880,56.366 L31.371,54.966 L31.861,53.567 L32.249,52.242 L31.734,53.418 L31.218,54.594 L30.703,55.770 L30.117,57.110 L29.530,58.449 L28.944,59.788 L28.358,61.127 L27.771,62.467 L27.157,63.807 L26.543,65.147 L25.928,66.487 L25.314,67.828 L24.699,69.168 L24.087,70.346 L23.475,71.525 L22.863,72.704 L23.117,71.376 L23.676,69.971 L24.235,68.566 L24.794,67.160 L25.352,65.755 L25.983,64.287 L26.614,62.819 L27.244,61.352 L27.875,59.884 L28.505,58.416 L29.133,56.999 L29.760,55.582 L30.388,54.166 L31.015,52.749 L31.553,51.371 L30.925,52.549 L30.298,53.728 L29.670,54.906 L28.948,56.260 L28.226,57.615 L27.504,58.969 L26.782,60.323 L26.060,61.678 L25.304,63.039 L24.548,64.401 L23.792,65.762 L23.036,67.124 L22.280,68.485 L21.536,69.688 L20.792,70.890 L20.048,72.093 L20.423,70.743 L20.992,69.593 L21.560,68.442 L22.128,67.292 L22.697,66.142 L23.265,64.992 L23.928,63.737 L24.591,62.482 L25.254,61.227 L25.917,59.972 L26.579,58.717 L27.242,57.462 L27.876,56.295 L28.510,55.129 L29.144,53.962 L29.778,52.795 L30.412,51.628 L30.769,50.909 L31.126,50.190 L30.364,51.395 L29.601,52.599 L28.838,53.804 L28.101,54.963 L27.364,56.121 L26.627,57.280 L25.890,58.439 L25.153,59.598 L24.416,60.757 L23.646,61.923 L22.876,63.090 L22.106,64.257 L21.335,65.423 L20.565,66.590 L19.795,67.756 L18.896,68.992 L17.997,70.228 L17.098,71.464 L17.623,70.064 L18.335,68.876 L19.046,67.689 L19.758,66.501 L20.469,65.314 L21.181,64.127 L22.004,62.832 L22.827,61.537 L23.650,60.243 L24.474,58.948 L25.297,57.653 L26.120,56.359 L26.906,55.155 L27.692,53.952 L28.478,52.748 L29.264,51.545 L30.050,50.341 L30.505,49.599 L30.960,48.856 L30.040,50.094 L29.120,51.332 L28.199,52.570 L27.307,53.760 L26.416,54.950 L25.524,56.140 L24.632,57.330 L23.741,58.520 L22.849,59.710 L21.921,60.905 L20.993,62.101 L20.065,63.296 L19.137,64.492 L18.209,65.688 L17.281,66.883 L16.478,67.828 L15.675,68.773 L14.873,69.719 L14.070,70.664 L14.421,69.934 L14.772,69.204 L15.644,67.985 L16.515,66.766 L17.387,65.548 L18.258,64.329 L19.130,63.110 L19.986,61.975 L20.843,60.840 L21.699,59.706 L22.556,58.571 L23.412,57.436 L24.269,56.301 L25.125,55.167 L26.076,53.940 L27.026,52.714 L27.976,51.488 L28.927,50.261 L29.877,49.035 L30.432,48.284 L30.987,47.534 L30.168,48.479 L29.348,49.424 L28.529,50.369 L27.709,51.313 L26.803,52.346 L25.898,53.379 L24.992,54.412 L24.086,55.445 L23.181,56.478 L22.275,57.510 L21.369,58.543 L20.432,59.576 L19.494,60.609 L18.557,61.641 L17.620,62.674 L16.682,63.707 L15.745,64.740 L14.808,65.772 L13.874,66.716 L12.941,67.660 L12.007,68.604 L11.074,69.548 L11.523,68.794 L11.973,68.040 L12.837,67.016 L13.701,65.993 L14.566,64.969 L15.430,63.945 L16.295,62.922 L17.159,61.898 L18.169,60.761 L19.179,59.625 L20.189,58.488 L21.199,57.352 L22.208,56.215 L23.218,55.079 L24.228,53.942 L25.156,52.925 L26.084,51.907 L27.013,50.890 L27.941,49.872 L28.869,48.855 L29.797,47.837 L30.445,47.101 L31.093,46.365 L30.143,47.305 L29.193,48.245 L28.244,49.185 L27.294,50.126 L26.250,51.145 L25.206,52.165 L24.162,53.185 L23.117,54.205 L22.073,55.225 L21.029,56.244 L19.985,57.264 L18.912,58.277 L17.839,59.289 L16.766,60.302 L15.692,61.315 L14.619,62.327 L13.546,63.340 L12.473,64.353 L11.418,65.267 L10.364,66.181 L9.309,67.096 L8.254,68.010 L8.806,67.247 L9.357,66.484 L10.352,65.480 L11.347,64.477 L12.342,63.473 L13.337,62.469 L14.333,61.466 L15.328,60.462 L16.479,59.357 L17.630,58.252 L18.782,57.147 L19.933,56.042 L21.084,54.937 L22.236,53.832 L23.387,52.727 L24.438,51.745 L25.488,50.763 L26.539,49.781 L27.590,48.799 L28.640,47.817 L29.691,46.835 L30.415,46.137 L31.139,45.440 L30.071,46.346 L29.002,47.252 L27.934,48.159 L26.866,49.065 L25.700,50.038 L24.534,51.012 L23.369,51.986 L22.203,52.959 L21.037,53.933 L19.872,54.907 L18.706,55.880 L17.517,56.839 L16.328,57.798 L15.138,58.757 L13.949,59.716 L12.760,60.674 L11.571,61.633 L10.382,62.592 L9.228,63.444 L8.075,64.297 L6.922,65.149 L5.769,66.002 L6.415,65.252 L7.062,64.501 L8.167,63.551 L9.273,62.600 L10.378,61.649 L11.483,60.698 L12.589,59.747 L13.694,58.797 L14.802,57.890 L15.911,56.983 L17.019,56.076 L18.127,55.169 L19.235,54.262 L20.344,53.355 L21.452,52.448 L22.560,51.541 L23.707,50.627 L24.854,49.714 L26.001,48.800 L27.148,47.887 L28.295,46.973 L29.442,46.059 L30.218,45.423 L30.993,44.786 L29.831,45.627 L28.668,46.467 L27.505,47.307 L26.343,48.147 L25.085,49.040 L23.827,49.934 L22.570,50.827 L21.312,51.720 L20.055,52.614 L18.797,53.507 L17.539,54.400 L16.266,55.272 L14.993,56.143 L13.720,57.015 L12.447,57.886 L11.173,58.757 L9.900,59.629 L8.627,60.500 L7.408,61.261 L6.190,62.022 L4.971,62.782 L3.752,63.543 L4.478,62.830 L5.204,62.116 L6.387,61.250 L7.571,60.384 L8.755,59.518 L9.939,58.651 L11.123,57.785 L12.307,56.919 L13.483,56.102 L14.659,55.285 L15.835,54.467 L17.011,53.650 L18.187,52.833 L19.363,52.016 L20.539,51.198 L21.715,50.381 L22.923,49.565 L24.130,48.749 L25.338,47.933 L26.545,47.118 L27.753,46.302 L28.960,45.486 L29.760,44.927 L30.561,44.368 L29.338,45.112 L28.115,45.857 L26.892,46.602 L25.669,47.347 L24.358,48.130 L23.047,48.914 L21.736,49.698 L20.425,50.482 L19.114,51.266 L17.803,52.050 L16.492,52.833 L15.175,53.590 L13.858,54.347 L12.541,55.103 L11.224,55.860 L9.906,56.616 L8.589,57.373 L7.272,58.129 L6.026,58.775 L4.781,59.421 L3.535,60.067 L2.290,60.713 L3.071,60.060 L3.853,59.406 L5.077,58.649 L6.301,57.893 L7.525,57.136 L8.749,56.380 L9.973,55.624 L11.197,54.867 L12.574,54.062 L13.952,53.256 L15.329,52.450 L16.707,51.644 L18.084,50.839 L19.462,50.033 L20.839,49.227 L22.067,48.530 L23.296,47.832 L24.524,47.135 L25.753,46.437 L26.981,45.740 L28.210,45.042 L29.007,44.569 L29.804,44.096 L28.559,44.724 L27.315,45.352 L26.071,45.980 L24.827,46.607 L23.505,47.262 L22.183,47.917 L20.860,48.571 L19.538,49.226 L18.216,49.880 L16.894,50.535 L15.572,51.189 L14.252,51.814 L12.933,52.438 L11.613,53.062 L10.294,53.687 L8.975,54.311 L7.655,54.936 L6.336,55.560 L5.102,56.079 L3.868,56.598 L2.634,57.117 L1.400,57.635 L2.209,57.058 L3.018,56.481 L4.243,55.849 L5.468,55.218 L6.693,54.586 L7.917,53.955 L9.142,53.324 L10.367,52.692 L11.735,52.029 L13.103,51.365 L14.471,50.701 L15.838,50.038 L17.206,49.374 L18.574,48.711 L19.942,48.047 L21.154,47.478 L22.366,46.908 L23.578,46.339 L24.790,45.769 L26.002,45.200 L27.215,44.631 L27.986,44.244 L28.758,43.858 L27.530,44.358 L26.303,44.858 L25.075,45.358 L23.848,45.858 L22.553,46.375 L21.258,46.892 L19.963,47.409 L18.668,47.926 L17.373,48.444 L16.078,48.961 L14.783,49.478 L13.498,49.965 L12.213,50.452 L10.928,50.938 L9.643,51.425 L8.359,51.912 L7.074,52.399 L5.789,52.886 L4.598,53.276 L3.408,53.666 L2.217,54.056 L1.026,54.446 L1.836,53.955 L2.645,53.464 L4.075,52.861 L5.506,52.258 L6.936,51.654 L8.366,51.051 L9.797,50.448 L11.120,49.928 L12.443,49.408 L13.766,48.888 L15.089,48.368 L16.413,47.848 L17.736,47.327 L19.059,46.807 L20.459,46.276 L21.859,45.745 L23.259,45.214 L24.660,44.683 L26.060,44.152 L27.527,43.540 L26.346,43.912 L25.166,44.284 L23.985,44.656 L22.805,45.028 L21.359,45.475 L19.913,45.922 L18.467,46.369 L17.022,46.816 L15.576,47.263 L14.130,47.710 L12.702,48.124 L11.273,48.538 L9.845,48.951 L8.416,49.365 L6.988,49.779 L5.559,50.193 L4.056,50.552 L2.553,50.912 L1.049,51.271 L1.836,50.867 L2.623,50.463 L3.987,50.007 L5.351,49.551 L6.715,49.095 L8.079,48.639 L9.443,48.183 L10.909,47.733 L12.376,47.283 L13.843,46.833 L15.310,46.383 L16.776,45.933 L18.243,45.483 L19.570,45.092 L20.897,44.702 L22.224,44.311 L23.552,43.920 L24.879,43.530 L26.266,43.058 L24.778,43.396 L23.291,43.734 L21.803,44.071 L20.439,44.376 L19.075,44.680 L17.711,44.984 L16.347,45.288 L14.983,45.592 L13.619,45.896 L12.273,46.171 L10.927,46.446 L9.581,46.721 L8.235,46.996 L6.890,47.271 L5.544,47.546 L4.132,47.763 L2.719,47.980 L1.307,48.197 L2.057,47.874 L2.807,47.552 L4.095,47.228 L5.384,46.903 L6.673,46.579 L7.961,46.255 L9.250,45.930 L10.634,45.619 L12.019,45.308 L13.404,44.997 L14.788,44.686 L16.173,44.375 L17.558,44.064 L18.812,43.797 L20.066,43.529 L21.320,43.262 L22.574,42.994 L23.828,42.727 L25.153,42.375 L23.756,42.573 L22.358,42.772 L20.961,42.970 L19.419,43.186 L17.877,43.401 L16.335,43.617 L14.793,43.832 L13.251,44.048 L11.727,44.233 L10.203,44.419 L8.680,44.604 L7.156,44.790 L5.632,44.975 L4.297,45.069 L2.963,45.164 L1.628,45.258 L3.048,44.758 L4.576,44.495 L6.104,44.232 L7.633,43.969 L9.161,43.706 L10.742,43.477 L12.323,43.248 L13.903,43.018 L15.484,42.789 L17.065,42.560 L18.563,42.358 L20.061,42.157 L21.559,41.956 L23.057,41.754 L24.356,41.507 L23.033,41.586 L21.710,41.664 L20.387,41.743 L18.916,41.830 L17.444,41.916 L15.973,42.003 L14.501,42.090 L13.030,42.176 L11.569,42.237 L10.108,42.297 L8.647,42.357 L7.185,42.417 L5.724,42.477 L4.438,42.465 L3.151,42.452 L1.864,42.440 L3.220,42.062 L4.697,41.923 L6.175,41.785 L7.652,41.647 L9.129,41.508 L10.666,41.406 L12.203,41.304 L13.740,41.201 L15.276,41.099 L16.813,40.997 L18.280,40.914 L19.747,40.832 L21.214,40.750 L22.681,40.667 L23.998,40.520 L22.718,40.493 L21.438,40.467 L20.157,40.440 L18.717,40.411 L17.277,40.381 L15.836,40.352 L14.396,40.323 L12.956,40.293 L11.516,40.239 L10.076,40.185 L8.636,40.130 L7.196,40.076 L5.756,40.021 L4.478,39.908 L3.199,39.795 L1.921,39.682 L3.247,39.411 L4.717,39.389 L6.187,39.366 L7.658,39.344 L9.128,39.322 L10.668,39.340 L12.208,39.359 L13.748,39.377 L15.288,39.396 L16.828,39.415 L18.311,39.448 L19.793,39.482 L21.275,39.516 L22.757,39.549 L24.137,39.509 L22.860,39.383 L21.582,39.256 L20.304,39.129 L18.849,38.985 L17.394,38.842 L15.940,38.698 L14.485,38.554 L13.030,38.410 L11.565,38.240 L10.101,38.070 L8.636,37.900 L7.172,37.730 L5.707,37.560 L4.397,37.342 L3.087,37.124 L1.777,36.906 L3.118,36.737 L4.627,36.834 L6.136,36.931 L7.646,37.029 L9.155,37.126 L10.746,37.272 L12.337,37.418 L13.927,37.564 L15.518,37.710 L17.109,37.857 L18.650,38.015 L20.192,38.174 L21.733,38.333 L23.274,38.492 L24.751,38.578 L23.436,38.345 L22.122,38.113 L20.807,37.880 L19.296,37.612 L17.785,37.344 L16.274,37.075 L14.763,36.807 L13.251,36.539 L11.723,36.241 L10.194,35.943 L8.666,35.644 L7.137,35.346 L5.609,35.048 L4.235,34.712 L2.862,34.376 L1.488,34.040 L2.888,33.979 L4.157,34.165 L5.427,34.350 L6.697,34.535 L7.966,34.720 L9.236,34.905 L10.634,35.148 L12.032,35.390 L13.431,35.633 L14.829,35.876 L16.227,36.118 L17.626,36.361 L18.931,36.603 L20.237,36.845 L21.542,37.088 L22.848,37.330 L24.154,37.572 L24.948,37.690 L25.742,37.807 L24.361,37.454 L22.980,37.101 L21.598,36.748 L20.268,36.405 L18.938,36.062 L17.609,35.719 L16.279,35.376 L14.949,35.034 L13.619,34.691 L12.272,34.319 L10.924,33.947 L9.577,33.575 L8.229,33.203 L6.882,32.831 L5.534,32.459 L4.081,31.986 L2.628,31.513 L1.175,31.040 L2.669,31.106 L4.018,31.416 L5.367,31.726 L6.716,32.036 L8.065,32.346 L9.414,32.656 L10.900,33.038 L12.386,33.421 L13.871,33.804 L15.357,34.187 L16.843,34.569 L18.328,34.952 L19.716,35.328 L21.103,35.704 L22.491,36.079 L23.878,36.455 L25.266,36.831 L26.113,37.034 L26.960,37.237 L25.498,36.745 L24.036,36.252 L22.574,35.759 L21.167,35.279 L19.760,34.798 L18.352,34.318 L16.945,33.838 L15.538,33.357 L14.130,32.877 L12.707,32.364 L11.283,31.851 L9.859,31.337 L8.435,30.824 L7.011,30.311 L5.588,29.798 L4.441,29.327 L3.294,28.855 L2.147,28.384 L1.000,27.913 L1.803,28.021 L2.605,28.129 L4.034,28.582 L5.462,29.034 L6.891,29.486 L8.319,29.938 L9.747,30.390 L11.091,30.854 L12.435,31.318 L13.779,31.782 L15.123,32.246 L16.467,32.710 L17.811,33.174 L19.155,33.638 L20.615,34.163 L22.075,34.688 L23.535,35.213 L24.995,35.738 L26.455,36.263 L27.340,36.558 L28.225,36.854 L27.073,36.367 L25.922,35.880 L24.770,35.392 L23.618,34.905 L22.356,34.362 L21.094,33.820 L19.831,33.278 L18.569,32.736 L17.307,32.194 L16.045,31.651 L14.783,31.109 L13.511,30.537 L12.239,29.964 L10.967,29.392 L9.695,28.820 L8.424,28.247 L7.152,27.675 L5.880,27.103 L4.694,26.506 L3.507,25.910 L2.321,25.314 L1.135,24.718 L1.991,24.913 L2.847,25.107 L4.088,25.613 L5.328,26.119 L6.569,26.625 L7.810,27.130 L9.051,27.636 L10.291,28.142 L11.684,28.751 L13.077,29.360 L14.470,29.969 L15.863,30.579 L17.256,31.188 L18.649,31.797 L20.042,32.406 L21.297,32.975 L22.551,33.543 L23.806,34.111 L25.060,34.680 L26.315,35.248 L27.569,35.816 L28.470,36.205 L29.370,36.594 L28.182,35.981 L26.994,35.368 L25.807,34.755 L24.619,34.143 L23.327,33.465 L22.034,32.787 L20.742,32.109 L19.449,31.431 L18.157,30.753 L16.864,30.076 L15.572,29.398 L14.277,28.690 L12.982,27.982 L11.687,27.274 L10.393,26.567 L9.098,25.859 L7.803,25.151 L6.508,24.444 L5.313,23.723 L4.117,23.003 L2.922,22.282 L1.727,21.562 L2.623,21.850 L3.518,22.138 L4.781,22.775 L6.043,23.411 L7.305,24.047 L8.567,24.684 L9.829,25.320 L11.091,25.956 L12.498,26.710 L13.904,27.463 L15.311,28.217 L16.718,28.970 L18.124,29.724 L19.531,30.477 L20.938,31.231 L22.196,31.927 L23.455,32.622 L24.714,33.318 L25.973,34.014 L27.231,34.710 L28.490,35.406 L29.377,35.879 L30.264,36.352 L29.072,35.616 L27.880,34.880 L26.688,34.144 L25.496,33.408 L24.210,32.600 L22.923,31.792 L21.637,30.984 L20.351,30.177 L19.065,29.369 L17.779,28.561 L16.492,27.754 L15.213,26.919 L13.934,26.084 L12.654,25.249 L11.375,24.415 L10.096,23.580 L8.816,22.745 L7.537,21.910 L6.370,21.077 L5.203,20.244 L4.035,19.411 L2.868,18.577 L3.782,18.960 L4.695,19.343 L5.941,20.101 L7.187,20.858 L8.433,21.616 L9.678,22.373 L10.924,23.131 L12.170,23.888 L13.375,24.662 L14.580,25.436 L15.785,26.209 L16.990,26.983 L18.195,27.757 L19.400,28.530 L20.605,29.304 L21.810,30.078 L23.034,30.886 L24.257,31.695 L25.480,32.503 L26.704,33.312 L27.927,34.120 L29.150,34.929 L29.995,35.470 L30.840,36.011 L29.682,35.165 L28.524,34.319 L27.365,33.473 L26.207,32.627 L24.969,31.707 L23.731,30.787 L22.492,29.867 L21.254,28.947 L20.016,28.027 L18.778,27.107 L17.539,26.187 L16.317,25.245 L15.095,24.303 L13.873,23.362 L12.651,22.420 L11.428,21.479 L10.206,20.537 L8.984,19.595 L7.884,18.671 L6.784,17.747 L5.684,16.823 L4.584,15.899 L5.486,16.369 L6.389,16.839 L7.579,17.697 L8.768,18.556 L9.958,19.414 L11.148,20.272 L12.338,21.131 L13.527,21.989 L14.668,22.855 L15.808,23.721 L16.949,24.587 L18.090,25.452 L19.230,26.318 L20.371,27.184 L21.512,28.050 L22.652,28.916 L23.801,29.812 L24.951,30.709 L26.100,31.605 L27.249,32.501 L28.398,33.398 L29.547,34.294 L30.326,34.882 L31.105,35.470 L30.019,34.537 L28.932,33.604 L27.846,32.671 L26.760,31.738 L25.609,30.734 L24.459,29.729 L23.308,28.725 L22.158,27.720 L21.007,26.716 L19.857,25.711 L18.706,24.707 L17.580,23.688 L16.453,22.669 L15.326,21.650 L14.200,20.631 L13.073,19.612 L11.947,18.593 L10.820,17.574 L9.821,16.589 L8.822,15.604 L7.822,14.619 L6.823,13.634 L7.686,14.175 L8.550,14.716 L9.647,15.647 L10.745,16.577 L11.843,17.508 L12.940,18.438 L14.038,19.368 L15.135,20.299 L16.327,21.360 L17.519,22.421 L18.711,23.482 L19.903,24.543 L21.095,25.604 L22.287,26.665 L23.479,27.726 L24.522,28.679 L25.565,29.632 L26.608,30.585 L27.651,31.537 L28.694,32.490 L29.737,33.443 L30.433,34.055 L31.129,34.667 L30.147,33.677 L29.166,32.688 L28.184,31.699 L27.203,30.709 L26.172,29.654 L25.141,28.599 L24.110,27.544 L23.079,26.488 L22.047,25.433 L21.016,24.378 L19.985,23.323 L18.984,22.261 L17.982,21.199 L16.981,20.137 L15.979,19.075 L14.977,18.013 L13.976,16.952 L12.974,15.890 L12.100,14.876 L11.225,13.863 L10.350,12.850 L9.475,11.837 L10.274,12.428 L11.073,13.019 L12.052,13.989 L13.031,14.958 L14.011,15.928 L14.990,16.898 L15.969,17.868 L16.948,18.837 L18.001,19.933 L19.055,21.029 L20.109,22.125 L21.163,23.221 L22.217,24.317 L23.270,25.413 L24.324,26.508 L25.240,27.485 L26.156,28.462 L27.072,29.439 L27.989,30.416 L28.905,31.392 L29.821,32.369 L30.427,32.984 L31.032,33.598 L30.178,32.585 L29.323,31.572 L28.468,30.559 L27.613,29.546 L26.721,28.474 L25.829,27.403 L24.937,26.331 L24.045,25.259 L23.153,24.187 L22.261,23.116 L21.369,22.044 L20.509,20.972 L19.649,19.901 L18.789,18.829 L17.929,17.758 L17.069,16.686 L16.209,15.615 L15.349,14.543 L14.610,13.531 L13.871,12.520 L13.132,11.508 L12.393,10.496 L13.110,11.114 L13.827,11.732 L14.843,12.906 L15.859,14.080 L16.874,15.254 L17.890,16.427 L18.906,17.601 L19.809,18.699 L20.713,19.797 L21.616,20.895 L22.520,21.992 L23.423,23.090 L24.327,24.188 L25.230,25.285 L26.168,26.453 L27.106,27.620 L28.044,28.788 L28.981,29.955 L29.919,31.123 L30.954,32.329 L30.236,31.321 L29.517,30.314 L28.798,29.306 L28.080,28.298 L27.208,27.061 L26.336,25.824 L25.464,24.588 L24.593,23.351 L23.721,22.114 L22.849,20.877 L22.014,19.646 L21.179,18.416 L20.344,17.185 L19.509,15.954 L18.674,14.723 L17.839,13.492 L17.032,12.174 L16.226,10.855 L15.420,9.537 L16.047,10.160 L16.674,10.783 L17.529,11.940 L18.385,13.096 L19.240,14.252 L20.095,15.408 L20.951,16.565 L21.832,17.821 L22.713,19.077 L23.594,20.333 L24.475,21.588 L25.357,22.844 L26.238,24.100 L27.019,25.242 L27.801,26.383 L28.583,27.525 L29.364,28.666 L30.146,29.807 L31.023,30.981 L30.242,29.671 L29.461,28.360 L28.680,27.050 L27.970,25.847 L27.259,24.643 L26.548,23.440 L25.837,22.237 L25.127,21.033 L24.416,19.830 L23.739,18.635 L23.061,17.440 L22.384,16.245 L21.707,15.050 L21.029,13.855 L20.352,12.660 L19.709,11.384 L19.066,10.108 L18.424,8.832 L18.962,9.445 L19.500,10.059 L20.207,11.184 L20.913,12.309 L21.620,13.435 L22.327,14.560 L23.033,15.685 L23.757,16.906 L24.481,18.127 L25.204,19.348 L25.928,20.569 L26.652,21.789 L27.376,23.010 L28.017,24.120 L28.659,25.230 L29.301,26.340 L29.943,27.450 L30.585,28.560 L31.329,29.711 L30.709,28.444 L30.088,27.176 L29.468,25.909 L28.786,24.509 L28.105,23.109 L27.423,21.709 L26.742,20.309 L26.060,18.909 L25.413,17.517 L24.766,16.125 L24.118,14.733 L23.471,13.341 L22.824,11.949 L22.322,10.709 L21.819,9.469 L21.317,8.229 L22.232,9.425 L22.954,10.797 L23.677,12.169 L24.399,13.541 L25.121,14.913 L25.828,16.346 L26.534,17.779 L27.241,19.211 L27.947,20.644 L28.654,22.077 L29.308,23.439 L29.963,24.801 L30.617,26.164 L31.271,27.526 L31.908,28.685 L31.425,27.451 L30.941,26.217 L30.457,24.984 L29.920,23.611 L29.383,22.238 L28.846,20.866 L28.309,19.493 L27.771,18.120 L27.263,16.749 L26.754,15.378 L26.245,14.007 L25.736,12.636 L25.228,11.265 L24.842,10.038 L24.456,8.810 L24.071,7.582 L24.849,8.755 L25.437,10.117 L26.025,11.480 L26.613,12.842 L27.201,14.204 L27.774,15.634 L28.346,17.064 L28.918,18.494 L29.490,19.924 L30.062,21.354 L30.594,22.724 L31.126,24.093 L31.657,25.463 L32.189,26.833 L32.737,28.040 L32.366,26.814 L31.996,25.588 L31.625,24.363 L31.208,22.984 L30.791,21.605 L30.374,20.226 L29.957,18.847 L29.539,17.468 L29.146,16.082 L28.753,14.696 L28.360,13.309 L27.967,11.923 L27.574,10.537 L27.286,9.286 L26.999,8.035 L26.711,6.784 L27.379,7.962 L27.854,9.353 L28.330,10.744 L28.805,12.136 L29.281,13.527 L29.739,14.997 L30.197,16.468 L30.655,17.939 L31.114,19.409 L31.572,20.880 L31.998,22.300 L32.424,23.720 L32.850,25.140 L33.276,26.560 L33.740,27.860 L33.466,26.606 L33.192,25.351 L32.918,24.097 L32.605,22.669 L32.292,21.241 L31.979,19.813 L31.666,18.385 L31.353,16.957 L31.062,15.511 L30.772,14.066 L30.481,12.620 L30.190,11.175 L29.900,9.730 L29.702,8.416 L29.504,7.103 L29.307,5.790 L29.882,7.013 L30.256,8.478 L30.630,9.944 L31.003,11.409 L31.377,12.875 L31.730,14.433 L32.083,15.991 L32.435,17.549 L32.788,19.107 L33.140,20.665 L33.466,22.180 L33.791,23.695 L34.116,25.210 L34.441,26.725 L34.816,28.156 L34.631,26.834 L34.446,25.512 L34.261,24.189 L34.049,22.669 L33.837,21.149 L33.625,19.629 L33.413,18.109 L33.201,16.589 L33.013,15.043 L32.824,13.497 L32.635,11.951 L32.447,10.405 L32.258,8.859 L32.153,7.449 L32.048,6.039 L31.944,4.629 L32.433,5.942 L32.650,7.206 L32.866,8.471 L33.082,9.736 L33.298,11.000 L33.514,12.265 L33.716,13.670 L33.917,15.075 L34.119,16.479 L34.320,17.884 L34.521,19.289 L34.723,20.694 L34.896,22.011 L35.069,23.327 L35.242,24.644 L35.415,25.960 L35.588,27.277 L35.721,28.069 L35.855,28.860 L35.764,27.438 L35.673,26.015 L35.582,24.592 L35.497,23.221 L35.412,21.850 L35.327,20.480 L35.243,19.109 L35.158,17.738 L35.073,16.367 L35.010,14.971 L34.948,13.575 L34.885,12.178 L34.822,10.782 L34.760,9.385 L34.697,7.989 L34.698,6.461 L34.699,4.932 L34.700,3.404 L35.098,4.845 L35.220,6.224 L35.343,7.603 L35.465,8.982 L35.587,10.361 L35.709,11.740 L35.804,13.271 L35.899,14.802 L35.994,16.333 L36.089,17.865 L36.184,19.396 L36.280,20.927 L36.351,22.363 L36.422,23.799 L36.494,25.234 L36.565,26.670 L36.637,28.106 L36.705,28.974 L36.773,29.842 L36.790,28.300 L36.807,26.757 L36.824,25.215 L36.846,23.728 L36.868,22.241 L36.890,20.754 L36.912,19.267 L36.934,17.780 L36.956,16.293 L36.946,16.993 L36.956,16.293 L36.946,16.993 L36.956,16.293"/>
  <path fill="none" stroke="#2b2b2b" stroke-width="0.4" stroke-linecap="round" stroke-linejoin="round" d="M37.042,15.599 L36.956,16.293 L37.042,15.599 L36.956,16.293 L37.068,15.390 L37.181,14.487 L37.408,14.414 L37.496,15.358 L37.584,16.302 L37.653,17.321 L37.722,18.340 L37.911,18.421 L38.061,17.374 L38.212,16.326 L38.385,15.208 L38.559,14.090 L38.792,14.033 L38.815,15.200 L38.839,16.367 L38.836,17.603 L38.833,18.839 L39.239,17.675 L39.465,16.425 L39.719,15.114 L39.974,13.802 L40.213,13.767 L40.151,15.133 L40.088,16.499 L39.994,17.922 L39.900,19.345 L40.392,18.008 L40.710,16.589 L41.062,15.122 L41.414,13.655 L41.655,13.646 L41.492,15.171 L41.329,16.695 L41.132,18.261 L40.934,19.827 L41.525,18.361 L41.946,16.818 L42.250,15.769 L42.554,14.720 L42.858,13.671 L43.097,13.691 L42.918,14.780 L42.738,15.868 L42.559,16.957 L42.355,18.060 L42.152,19.163 L41.949,20.266 L42.468,19.260 L42.818,18.186 L43.167,17.111 L43.540,16.030 L43.912,14.949 L44.284,13.868 L44.519,13.919 L44.270,15.040 L44.021,16.161 L43.772,17.282 L43.502,18.404 L43.232,19.526 L42.962,20.649 L43.545,19.627 L43.959,18.548 L44.372,17.468 L44.805,16.395 L45.237,15.323 L45.670,14.250 L45.895,14.332 L45.586,15.445 L45.277,16.557 L44.967,17.670 L44.641,18.770 L44.315,19.871 L43.989,20.971 L44.627,19.976 L45.092,18.932 L45.557,17.888 L46.035,16.863 L46.514,15.839 L46.992,14.815 L47.205,14.926 L46.850,15.991 L46.495,17.056 L46.140,18.120 L45.775,19.160 L45.409,20.201 L45.043,21.241 L45.721,20.310 L46.219,19.339 L46.718,18.368 L47.223,17.429 L47.728,16.489 L48.233,15.549 L48.430,15.686 L47.859,17.159 L47.288,18.631 L46.712,20.052 L46.136,21.472 L47.087,20.209 L47.852,18.909 L48.615,17.670 L49.378,16.431 L49.559,16.590 L48.983,17.896 L48.408,19.202 L47.839,20.444 L47.270,21.686 L48.209,20.616 L48.956,19.509 L49.689,18.471 L50.422,17.433 L50.586,17.609 L50.041,18.720 L49.496,19.830 L48.969,20.871 L48.442,21.912 L48.641,21.952 L49.334,21.059 L50.027,20.165 L50.696,19.344 L51.365,18.523 L51.513,18.711 L51.031,19.613 L50.550,20.514 L50.096,21.345 L49.642,22.176 L49.843,22.226 L50.453,21.552 L51.063,20.877 L51.640,20.273 L52.217,19.669 L52.351,19.864 L51.566,21.253 L50.851,22.509 L51.051,22.573 L52.060,21.642 L52.992,20.840 L53.115,21.035 L52.543,22.044 L52.045,22.935 L52.241,23.017 L53.015,22.458 L53.711,22.008 L53.828,22.201 L53.476,22.884 L53.198,23.474 L53.384,23.576 L53.926,23.323 L54.398,23.153 L54.511,23.340 L54.365,23.773 L54.279,24.139 L54.451,24.263 L54.791,24.234 L55.077,24.261 L55.191,24.442 L55.206,24.707 L55.261,24.934 L55.413,25.079 L55.607,25.190 L55.771,25.328 L55.889,25.501 L55.996,25.683 L56.118,25.854 L56.247,26.019 L56.372,26.187 L56.496,26.356 L56.621,26.524 L56.735,26.700 L56.831,26.888 L56.935,27.070 L57.084,27.222 L57.265,27.355 L57.398,27.520 L57.419,27.754 L57.389,28.016 L57.466,28.212 L57.740,28.293 L58.080,28.342 L58.221,28.506 L58.047,28.842 L57.789,29.216 L57.840,29.422 L58.340,29.398 L58.937,29.334 L59.083,29.501 L58.618,29.961 L58.038,30.463 L58.066,30.673 L58.881,30.532 L59.820,30.352 L59.969,30.525 L59.129,31.109 L58.152,31.730 L58.159,31.941 L59.362,31.693 L60.707,31.413 L60.853,31.595 L59.579,32.282 L58.153,32.995 L58.145,33.204 L58.963,33.040 L59.781,32.877 L60.675,32.705 L61.569,32.533 L61.708,32.726 L60.838,33.102 L59.968,33.477 L59.020,33.858 L58.072,34.239 L58.053,34.443 L59.095,34.262 L60.138,34.082 L61.255,33.901 L62.373,33.720 L62.498,33.925 L61.396,34.308 L60.293,34.691 L59.116,35.070 L57.940,35.449 L59.173,35.475 L60.431,35.304 L61.757,35.141 L63.083,34.978 L63.190,35.194 L61.872,35.557 L60.554,35.920 L59.172,36.270 L57.789,36.620 L59.212,36.675 L60.660,36.539 L62.164,36.420 L63.668,36.301 L63.751,36.528 L62.251,36.844 L60.751,37.161 L59.200,37.457 L57.650,37.753 L59.227,37.861 L60.824,37.785 L61.916,37.750 L63.007,37.715 L64.099,37.680 L64.154,37.914 L63.063,38.079 L61.972,38.245 L60.882,38.410 L59.770,38.558 L58.658,38.706 L57.546,38.854 L58.663,39.036 L59.793,39.037 L60.923,39.037 L62.066,39.057 L63.210,39.077 L64.353,39.097 L64.377,39.336 L63.234,39.446 L62.091,39.555 L60.948,39.665 L59.797,39.755 L58.646,39.845 L57.495,39.935 L58.647,40.174 L59.801,40.234 L60.956,40.293 L62.110,40.373 L63.263,40.453 L64.417,40.533 L64.409,40.773 L63.255,40.822 L62.101,40.872 L60.948,40.922 L59.800,40.952 L58.653,40.981 L57.506,41.011 L58.650,41.311 L59.786,41.430 L60.923,41.550 L62.045,41.688 L63.167,41.827 L64.289,41.965 L64.249,42.202 L63.127,42.193 L62.004,42.185 L60.882,42.176 L59.780,42.150 L58.677,42.124 L57.575,42.097 L58.669,42.454 L59.747,42.628 L60.824,42.802 L61.874,42.992 L62.924,43.182 L63.974,43.372 L63.904,43.602 L62.327,43.514 L60.751,43.426 L59.222,43.317 L57.693,43.208 L59.188,43.722 L60.660,44.048 L62.075,44.391 L63.489,44.734 L63.393,44.955 L61.974,44.811 L60.554,44.667 L59.197,44.510 L57.839,44.353 L59.148,44.915 L60.431,45.283 L61.645,45.660 L62.859,46.036 L62.742,46.247 L61.517,46.071 L60.293,45.896 L59.140,45.717 L57.988,45.537 L58.010,45.739 L59.074,46.122 L60.138,46.505 L61.126,46.888 L62.113,47.270 L61.980,47.469 L60.974,47.289 L59.968,47.110 L59.037,46.935 L58.106,46.760 L58.121,46.967 L58.951,47.338 L59.781,47.710 L60.534,48.072 L61.287,48.434 L61.143,48.622 L59.579,48.305 L58.163,48.012 L58.165,48.223 L59.362,48.894 L60.413,49.533 L60.265,49.711 L59.129,49.478 L58.127,49.280 L58.110,49.492 L58.881,50.055 L59.524,50.578 L59.377,50.748 L58.618,50.626 L57.971,50.543 L57.931,50.752 L58.340,51.189 L58.648,51.586 L58.504,51.751 L58.047,51.745 L57.673,51.777 L57.608,51.978 L57.740,52.293 L57.804,52.574 L57.667,52.738 L57.419,52.833 L57.220,52.956 L57.130,53.146 L57.084,53.365 L57.003,53.563 L56.875,53.729 L56.735,53.887 L56.610,54.056 L56.493,54.229 L56.372,54.400 L56.250,54.570 L56.128,54.741 L55.996,54.904 L55.847,55.053 L55.706,55.208 L55.607,55.397 L55.537,55.610 L55.421,55.788 L55.206,55.880 L54.946,55.932 L54.784,56.067 L54.791,56.353 L54.850,56.691 L54.737,56.875 L54.365,56.814 L53.928,56.684 L53.749,56.796 L53.926,57.264 L54.171,57.812 L54.057,58.003 L53.476,57.702 L52.820,57.306 L52.629,57.397 L53.015,58.129 L53.476,58.967 L53.357,59.161 L52.543,58.543 L51.650,57.806 L51.451,57.878 L52.060,58.945 L52.741,60.138 L52.613,60.334 L51.566,59.334 L50.448,58.198 L50.246,58.254 L50.654,58.982 L51.063,59.710 L51.503,60.507 L51.942,61.304 L51.802,61.496 L51.176,60.784 L50.550,60.073 L49.895,59.289 L49.240,58.505 L49.039,58.550 L49.533,59.486 L50.027,60.422 L50.544,61.428 L51.062,62.435 L50.906,62.618 L50.201,61.687 L49.496,60.757 L48.772,59.755 L48.048,58.753 L48.404,59.935 L48.956,61.078 L49.521,62.289 L50.085,63.499 L49.913,63.668 L49.160,62.527 L48.408,61.385 L47.647,60.178 L46.887,58.972 L47.275,60.343 L47.852,61.678 L48.429,63.071 L49.007,64.465 L48.818,64.614 L48.053,63.285 L47.288,61.956 L46.528,60.572 L45.767,59.189 L46.151,60.723 L46.718,62.219 L47.088,63.246 L47.459,64.273 L47.829,65.300 L47.624,65.425 L47.129,64.439 L46.635,63.453 L46.140,62.467 L45.656,61.455 L45.172,60.443 L44.688,59.431 L44.860,60.550 L45.208,61.625 L45.557,62.699 L45.891,63.793 L46.225,64.886 L46.560,65.980 L46.340,66.077 L45.882,65.023 L45.425,63.970 L44.967,62.917 L44.526,61.850 L44.085,60.783 L43.644,59.717 L43.772,60.886 L44.072,62.002 L44.372,63.119 L44.653,64.241 L44.933,65.363 L45.214,66.485 L44.984,66.551 L44.580,65.469 L44.176,64.387 L43.772,63.305 L43.389,62.223 L43.006,61.141 L42.624,60.059 L42.692,61.240 L42.930,62.358 L43.167,63.476 L43.382,64.586 L43.597,65.695 L43.812,66.805 L43.575,66.840 L43.236,65.770 L42.897,64.700 L42.559,63.630 L42.243,62.574 L41.927,61.518 L41.612,60.461 L41.611,61.612 L41.778,62.691 L41.946,63.769 L42.090,64.826 L42.233,65.883 L42.377,66.940 L42.136,66.946 L41.733,65.419 L41.329,63.892 L40.961,62.404 L40.592,60.916 L40.565,62.497 L40.710,63.998 L40.821,65.449 L40.932,66.900 L40.692,66.878 L40.390,65.483 L40.088,64.088 L39.819,62.749 L39.549,61.409 L39.418,62.828 L39.465,64.162 L39.482,65.433 L39.499,66.703 L39.262,66.657 L39.051,65.438 L38.839,64.219 L38.653,63.068 L38.468,61.916 L38.283,62.000 L38.248,63.130 L38.212,64.261 L38.153,65.318 L38.095,66.376 L37.864,66.310 L37.724,65.298 L37.584,64.285 L37.463,63.346 L37.342,62.407 L37.150,62.485 L37.053,63.389 L36.956,64.293 L36.844,65.121 L36.732,65.949 L36.509,65.871 L36.328,64.285 L36.168,62.848 L35.968,62.915 L35.700,64.261 L35.417,65.458 L35.202,65.372 L35.073,64.219 L34.951,63.206 L34.745,63.255 L34.447,64.162 L34.148,64.935 L33.941,64.848 L33.823,64.088 L33.702,63.447 L33.491,63.474 L33.201,63.998 L32.920,64.413 L32.718,64.328 L32.582,63.892 L32.436,63.545 L32.225,63.546 L31.966,63.769 L31.719,63.916 L31.521,63.836 L31.353,63.630 L31.175,63.479 L30.967,63.451 L30.744,63.476 L30.531,63.460 L30.333,63.389 L30.139,63.305 L29.941,63.238 L29.739,63.181 L29.539,63.119 L29.340,63.055 L29.140,62.992 L28.944,62.917 L28.756,62.821 L28.565,62.735 L28.355,62.699 L28.130,62.698 L27.926,62.643 L27.771,62.467 L27.642,62.236 L27.464,62.123 L27.194,62.219 L26.891,62.379 L26.681,62.329 L26.624,61.956 L26.613,61.500 L26.450,61.365 L26.060,61.678 L25.614,62.080 L25.398,62.031 L25.504,61.385 L25.678,60.638 L25.532,60.484 L24.956,61.078 L24.302,61.776 L24.080,61.723 L24.416,60.757 L24.842,59.680 L24.711,59.513 L23.885,60.422 L22.960,61.438 L22.735,61.377 L23.362,60.073 L24.097,58.658 L23.981,58.484 L23.415,59.097 L22.849,59.710 L22.227,60.374 L21.605,61.039 L21.379,60.965 L21.862,60.149 L22.346,59.334 L22.889,58.469 L23.431,57.604 L23.327,57.427 L22.590,58.186 L21.852,58.945 L21.055,59.748 L20.257,60.551 L20.035,60.459 L20.702,59.501 L21.369,58.543 L22.098,57.545 L22.827,56.547 L21.814,57.251 L20.897,58.129 L19.920,59.040 L18.943,59.951 L18.729,59.839 L19.582,58.771 L20.435,57.702 L21.348,56.607 L22.261,55.511 L21.077,56.303 L19.985,57.264 L18.838,58.244 L17.692,59.224 L17.491,59.090 L18.519,57.952 L19.547,56.814 L20.627,55.663 L21.708,54.513 L20.368,55.352 L19.120,56.353 L18.258,57.022 L17.395,57.692 L16.533,58.362 L16.351,58.205 L17.136,57.430 L17.921,56.655 L18.706,55.880 L19.519,55.107 L20.332,54.334 L21.144,53.561 L20.133,54.070 L19.219,54.734 L18.304,55.397 L17.368,56.053 L16.431,56.709 L15.494,57.365 L15.335,57.186 L16.195,56.425 L17.055,55.664 L17.915,54.904 L18.794,54.155 L19.672,53.405 L20.550,52.656 L19.478,53.140 L18.508,53.770 L17.539,54.400 L16.559,55.014 L15.579,55.627 L14.598,56.241 L14.464,56.042 L15.368,55.324 L16.273,54.606 L17.177,53.887 L18.088,53.189 L18.998,52.490 L19.909,51.792 L18.807,52.222 L17.817,52.793 L16.828,53.365 L15.839,53.912 L14.850,54.460 L13.860,55.007 L13.754,54.792 L14.667,54.139 L15.579,53.486 L16.492,52.833 L17.400,52.207 L18.307,51.580 L19.214,50.954 L18.119,51.308 L17.145,51.801 L16.171,52.293 L15.210,52.757 L14.249,53.220 L13.288,53.684 L13.209,53.456 L14.537,52.601 L15.864,51.745 L17.165,50.935 L18.466,50.125 L16.954,50.588 L15.572,51.189 L14.226,51.743 L12.880,52.297 L12.827,52.062 L14.061,51.344 L15.294,50.626 L16.484,49.955 L17.675,49.284 L16.285,49.599 L15.031,50.055 L13.828,50.464 L12.625,50.873 L12.596,50.634 L13.689,50.056 L14.783,49.478 L15.821,48.946 L16.859,48.413 L16.722,48.264 L15.636,48.579 L14.550,48.894 L13.526,49.165 L12.502,49.436 L12.493,49.197 L13.413,48.751 L14.332,48.305 L15.188,47.899 L16.044,47.494 L15.910,47.335 L15.020,47.523 L14.130,47.710 L13.309,47.859 L12.487,48.009 L12.493,47.773 L13.944,47.110 L15.261,46.514 L15.137,46.345 L13.774,46.505 L12.548,46.606 L12.563,46.375 L13.619,45.896 L14.545,45.467 L14.435,45.286 L13.480,45.283 L12.652,45.238 L12.672,45.014 L13.358,44.667 L13.930,44.354 L13.839,44.162 L13.251,44.048 L12.769,43.908 L12.788,43.690 L13.161,43.426 L13.446,43.180 L13.380,42.980 L13.087,42.802 L12.872,42.613 L12.886,42.399 L13.030,42.176 L13.119,41.960 L13.081,41.754 L12.989,41.550 L12.938,41.342 L12.944,41.132 L12.964,40.922 L12.966,40.712 L12.958,40.503 L12.956,40.293 L12.955,40.084 L12.953,39.875 L12.964,39.665 L12.997,39.457 L13.020,39.248 L12.989,39.037 L12.921,38.823 L12.910,38.612 L13.030,38.410 L13.209,38.216 L13.261,38.012 L13.087,37.785 L12.841,37.546 L12.824,37.330 L13.161,37.161 L13.591,37.010 L13.670,36.813 L13.251,36.539 L12.731,36.240 L12.711,36.018 L13.358,35.920 L14.122,35.855 L14.223,35.668 L13.480,35.304 L12.615,34.897 L12.597,34.670 L13.619,34.691 L14.775,34.763 L14.893,34.588 L13.774,34.082 L12.521,33.517 L12.510,33.284 L13.944,33.477 L15.517,33.739 L15.646,33.575 L14.888,33.226 L14.130,32.877 L13.306,32.491 L12.482,32.105 L12.483,31.867 L13.408,32.074 L14.332,32.282 L15.323,32.531 L16.313,32.780 L16.449,32.626 L15.500,32.160 L14.550,31.693 L13.540,31.182 L12.530,30.672 L12.548,30.432 L13.665,30.771 L14.783,31.109 L15.957,31.494 L17.132,31.879 L16.149,31.132 L15.031,30.532 L13.862,29.884 L12.694,29.237 L12.734,28.999 L14.014,29.480 L15.294,29.961 L16.618,30.491 L17.942,31.020 L16.823,30.139 L15.572,29.398 L14.285,28.610 L12.999,27.822 L13.064,27.590 L14.464,28.216 L15.864,28.842 L17.292,29.514 L18.721,30.186 L17.509,29.171 L16.171,28.293 L15.268,27.680 L14.364,27.067 L13.461,26.454 L13.554,26.232 L14.533,26.739 L15.513,27.246 L16.492,27.754 L17.479,28.288 L18.465,28.822 L19.452,29.356 L18.655,28.552 L17.741,27.887 L16.828,27.222 L15.915,26.534 L15.001,25.846 L14.088,25.158 L14.209,24.950 L15.198,25.534 L16.187,26.117 L17.177,26.700 L18.161,27.303 L19.145,27.907 L20.128,28.511 L19.337,27.640 L18.438,26.914 L17.539,26.187 L16.653,25.444 L15.766,24.701 L14.880,23.958 L15.027,23.769 L15.990,24.407 L16.953,25.045 L17.915,25.683 L18.861,26.334 L19.807,26.984 L20.753,27.634 L20.003,26.719 L19.154,25.955 L18.304,25.190 L17.478,24.418 L16.652,23.647 L15.826,22.875 L15.997,22.707 L16.900,23.374 L17.803,24.040 L18.706,24.707 L19.582,25.376 L20.459,26.045 L21.335,26.714 L20.659,25.782 L19.890,25.008 L19.120,24.234 L18.383,23.464 L17.645,22.693 L16.907,21.922 L17.099,21.777 L18.323,22.775 L19.547,23.773 L20.719,24.760 L21.892,25.747 L20.985,24.452 L19.985,23.323 L19.043,22.214 L18.100,21.105 L18.307,20.983 L19.371,21.934 L20.435,22.884 L21.441,23.809 L22.447,24.734 L21.719,23.510 L20.897,22.458 L20.136,21.440 L19.375,20.422 L19.594,20.321 L20.481,21.182 L21.369,22.044 L22.196,22.866 L23.023,23.689 L23.123,23.513 L22.488,22.577 L21.852,21.642 L21.278,20.752 L20.704,19.862 L20.928,19.779 L21.637,20.516 L22.346,21.253 L22.996,21.942 L23.645,22.630 L23.755,22.454 L23.302,21.666 L22.849,20.877 L22.453,20.142 L22.057,19.406 L22.283,19.339 L23.362,20.514 L24.336,21.583 L24.458,21.412 L23.885,20.165 L23.410,19.031 L23.634,18.974 L24.416,19.830 L25.110,20.579 L25.248,20.418 L24.956,19.509 L24.743,18.707 L24.962,18.657 L25.504,19.202 L25.979,19.649 L26.133,19.504 L26.060,18.909 L26.044,18.408 L26.257,18.358 L26.624,18.631 L26.945,18.826 L27.116,18.701 L27.194,18.368 L27.308,18.105 L27.515,18.052 L27.771,18.120 L28.004,18.138 L28.189,18.038 L28.355,17.888 L28.536,17.775 L28.738,17.716 L28.944,17.670 L29.144,17.607 L29.341,17.535 L29.539,17.468 L29.738,17.403 L29.937,17.336 L30.139,17.282 L30.348,17.248 L30.553,17.206 L30.744,17.111 L30.927,16.980 L31.124,16.905 L31.353,16.957 L31.594,17.067 L31.804,17.053 L31.966,16.818 L32.117,16.509 L32.317,16.427 L32.582,16.695 L32.859,17.057 L33.070,17.071 L33.201,16.589 L33.325,16.001 L33.530,15.914 L33.823,16.499 L34.121,17.205 L34.330,17.244 L34.447,16.425 L34.566,15.476 L34.777,15.389 L35.073,16.367 L35.361,17.489 L35.565,17.547 L35.700,16.326 L35.850,14.960 L36.068,14.878 L36.328,16.302 L36.565,17.878 L36.761,17.951 L36.858,17.122 L36.956,16.293 L36.874,16.989 L36.956,16.293 L36.874,16.989 L36.956,16.293"/>
  <path fill="none" stroke="#8c4a6b" stroke-width="0.4" stroke-linecap="round" stroke-linejoin="round" d="M37.067,15.602 L36.956,16.293 L37.067,15.602 L36.956,16.293 L37.177,14.919 L37.424,13.484 L37.694,12.106 L37.982,10.907 L38.278,10.006 L38.569,9.505 L38.840,9.481 L39.076,9.972 L39.263,10.978 L39.392,12.454 L39.425,13.382 L39.458,14.311 L39.461,15.368 L39.465,16.425 L39.443,17.535 L39.422,18.645 L39.386,19.725 L39.349,20.805 L39.308,21.771 L39.267,22.736 L39.206,24.284 L39.194,25.320 L39.259,25.754 L39.424,25.546 L39.705,24.702 L40.108,23.283 L40.369,22.340 L40.629,21.396 L40.940,20.290 L41.251,19.184 L41.598,18.001 L41.946,16.818 L42.312,15.649 L42.679,14.479 L43.043,13.412 L43.408,12.345 L43.749,11.461 L44.090,10.576 L44.684,9.299 L45.152,8.600 L45.470,8.517 L45.623,9.040 L45.611,10.109 L45.448,11.625 L45.304,12.541 L45.161,13.457 L44.974,14.456 L44.787,15.456 L44.580,16.462 L44.372,17.468 L44.168,18.407 L43.965,19.346 L43.788,20.155 L43.612,20.964 L43.355,22.223 L43.227,23.062 L43.250,23.459 L43.760,23.020 L44.222,22.308 L44.787,21.387 L45.418,20.358 L46.074,19.322 L46.718,18.368 L47.312,17.569 L47.830,16.974 L48.253,16.608 L48.573,16.475 L48.792,16.554 L48.921,16.811 L48.978,17.200 L48.985,17.670 L48.966,18.173 L48.944,18.667 L48.936,19.119 L48.956,19.509 L49.011,19.827 L49.104,20.076 L49.230,20.264 L49.383,20.406 L49.556,20.515 L49.741,20.605 L49.934,20.685 L50.133,20.758 L50.339,20.820 L50.559,20.867 L50.797,20.888 L51.063,20.877 L51.359,20.829 L51.687,20.745 L52.041,20.634 L52.408,20.515 L52.770,20.412 L53.102,20.355 L53.373,20.378 L53.556,20.510 L53.624,20.778 L53.559,21.194 L53.354,21.759 L53.015,22.458 L52.565,23.259 L52.042,24.116 L51.498,24.969 L50.996,25.754 L50.605,26.404 L50.391,26.858 L50.413,27.069 L50.715,27.006 L51.320,26.662 L52.226,26.053 L53.403,25.223 L54.097,24.729 L54.791,24.234 L55.550,23.703 L56.310,23.171 L57.083,22.648 L57.855,22.126 L58.586,21.661 L59.316,21.196 L60.577,20.473 L61.531,20.035 L62.092,19.939 L62.199,20.214 L61.826,20.863 L60.987,21.853 L60.361,22.491 L59.735,23.128 L58.946,23.867 L58.157,24.606 L57.264,25.396 L56.372,26.187 L55.447,26.975 L54.521,27.764 L53.637,28.498 L52.753,29.233 L51.983,29.864 L51.213,30.495 L50.034,31.472 L49.319,32.110 L49.137,32.383 L49.514,32.293 L50.430,31.874 L51.824,31.182 L52.711,30.738 L53.597,30.295 L54.607,29.798 L55.618,29.301 L56.679,28.797 L57.740,28.293 L58.776,27.828 L59.811,27.363 L60.748,26.975 L61.684,26.586 L62.458,26.306 L63.233,26.026 L64.360,25.722 L65.006,25.691 L65.152,25.927 L64.818,26.402 L64.063,27.072 L62.977,27.882 L61.670,28.769 L60.968,29.220 L60.265,29.671 L59.573,30.101 L58.881,30.532 L57.630,31.304 L56.602,31.954 L55.863,32.462 L55.445,32.823 L55.355,33.046 L55.567,33.149 L56.034,33.160 L56.692,33.110 L57.466,33.030 L58.283,32.950 L59.074,32.893 L59.781,32.877 L60.365,32.913 L60.803,33.003 L61.090,33.145 L61.236,33.331 L61.264,33.552 L61.203,33.796 L61.085,34.053 L60.938,34.314 L60.788,34.572 L60.649,34.823 L60.531,35.067 L60.431,35.304 L60.347,35.535 L60.268,35.762 L60.189,35.987 L60.106,36.211 L60.023,36.433 L59.949,36.652 L59.902,36.864 L59.903,37.068 L59.977,37.263 L60.147,37.446 L60.428,37.619 L60.824,37.785 L61.328,37.947 L61.914,38.110 L62.542,38.280 L63.157,38.461 L63.695,38.658 L64.088,38.872 L64.273,39.101 L64.195,39.342 L63.821,39.590 L63.139,39.836 L62.168,40.073 L60.956,40.293 L59.580,40.491 L58.139,40.663 L56.752,40.812 L55.540,40.942 L54.623,41.065 L54.102,41.192 L54.518,41.522 L55.493,41.752 L56.933,42.041 L57.843,42.217 L58.752,42.392 L59.788,42.597 L60.824,42.802 L61.912,43.031 L62.999,43.261 L64.054,43.506 L65.110,43.750 L66.049,43.999 L66.988,44.247 L68.479,44.724 L69.455,45.150 L69.826,45.500 L69.550,45.748 L68.635,45.879 L67.142,45.888 L66.159,45.834 L65.176,45.779 L64.030,45.674 L62.883,45.568 L61.657,45.426 L60.431,45.283 L59.218,45.122 L58.004,44.960 L56.891,44.799 L55.778,44.639 L54.845,44.502 L53.912,44.364 L52.535,44.178 L51.733,44.115 L51.544,44.202 L51.957,44.454 L52.912,44.869 L54.310,45.434 L55.166,45.778 L56.022,46.123 L56.959,46.509 L57.897,46.896 L58.839,47.303 L59.781,47.710 L60.655,48.113 L61.528,48.515 L62.269,48.890 L63.011,49.265 L64.132,49.917 L64.830,50.439 L65.082,50.809 L64.903,51.021 L64.342,51.081 L63.475,51.008 L62.395,50.831 L61.205,50.587 L60.003,50.315 L58.881,50.055 L57.909,49.843 L57.139,49.705 L56.595,49.661 L56.279,49.718 L56.242,50.120 L56.438,50.435 L56.714,50.799 L57.018,51.187 L57.311,51.576 L57.558,51.950 L57.740,52.293 L57.848,52.600 L57.883,52.868 L57.853,53.100 L57.774,53.302 L57.660,53.484 L57.524,53.651 L57.374,53.808 L57.214,53.958 L57.041,54.097 L56.848,54.222 L56.628,54.326 L56.372,54.400 L56.076,54.442 L55.742,54.450 L55.378,54.429 L55.002,54.393 L54.639,54.360 L54.321,54.355 L54.078,54.408 L53.939,54.799 L54.082,55.181 L54.371,55.701 L54.791,56.353 L55.311,57.113 L55.883,57.943 L56.450,58.792 L56.945,59.596 L57.302,60.288 L57.462,60.800 L57.375,61.072 L57.012,61.063 L56.365,60.747 L55.452,60.128 L54.313,59.236 L53.664,58.682 L53.015,58.129 L52.327,57.509 L51.639,56.890 L50.959,56.255 L50.279,55.620 L49.655,55.026 L49.032,54.433 L47.989,53.443 L47.229,52.756 L46.808,52.460 L47.077,53.248 L47.736,54.343 L48.207,55.096 L48.678,55.849 L49.249,56.763 L49.819,57.678 L50.441,58.694 L51.063,59.710 L51.682,60.758 L52.300,61.806 L52.863,62.811 L53.427,63.816 L53.886,64.705 L54.345,65.594 L54.976,67.009 L55.266,67.957 L55.188,68.368 L54.746,68.218 L53.972,67.526 L52.924,66.352 L52.302,65.574 L51.679,64.797 L51.002,63.893 L50.325,62.990 L49.640,62.034 L48.956,61.078 L48.309,60.147 L47.661,59.215 L47.090,58.381 L46.520,57.547 L46.056,56.873 L45.592,56.200 L44.919,55.271 L44.518,54.820 L44.482,55.388 L44.777,56.328 L45.209,57.596 L45.717,59.082 L45.978,59.872 L46.239,60.663 L46.478,61.441 L46.718,62.219 L47.106,63.638 L47.372,64.831 L47.493,65.733 L47.467,66.309 L47.300,66.554 L47.013,66.494 L46.633,66.175 L46.189,65.663 L45.715,65.030 L45.239,64.351 L44.786,63.695 L44.372,63.119 L44.009,62.662 L43.699,62.349 L43.440,62.183 L43.224,62.153 L43.042,62.239 L42.882,62.410 L42.734,62.636 L42.589,62.885 L42.440,63.135 L42.283,63.370 L42.119,63.581 L41.946,63.769 L41.767,63.939 L41.583,64.099 L41.397,64.256 L41.209,64.414 L41.018,64.568 L40.823,64.709 L40.621,64.821 L40.411,64.879 L40.190,64.861 L39.958,64.745 L39.715,64.513 L39.465,64.162 L39.210,63.700 L38.956,63.152 L38.708,62.559 L38.472,61.976 L38.251,61.465 L38.046,61.095 L37.857,60.931 L37.680,61.025 L37.509,61.412 L37.337,62.103 L37.155,63.080 L36.956,64.293 L36.734,65.668 L36.488,67.103 L36.218,68.481 L35.930,69.680 L35.633,70.581 L35.342,71.082 L35.071,71.106 L34.836,70.615 L34.649,69.609 L34.520,68.133 L34.487,67.205 L34.454,66.276 L34.451,65.219 L34.447,64.162 L34.468,63.052 L34.489,61.942 L34.526,60.862 L34.563,59.782 L34.604,58.816 L34.644,57.851 L34.706,56.303 L34.718,55.267 L34.653,54.832 L34.488,55.041 L34.207,55.885 L33.803,57.304 L33.543,58.247 L33.283,59.191 L32.972,60.297 L32.661,61.403 L32.314,62.586 L31.966,63.769 L31.599,64.938 L31.233,66.108 L30.868,67.175 L30.504,68.241 L30.162,69.126 L29.821,70.011 L29.228,71.288 L28.759,71.987 L28.441,72.070 L28.288,71.547 L28.301,70.478 L28.464,68.962 L28.607,68.046 L28.751,67.130 L28.938,66.131 L29.125,65.131 L29.332,64.125 L29.539,63.119 L29.743,62.180 L29.947,61.241 L30.124,60.432 L30.300,59.623 L30.557,58.364 L30.684,57.525 L30.662,57.128 L30.152,57.567 L29.689,58.279 L29.124,59.200 L28.494,60.229 L27.837,61.265 L27.194,62.219 L26.600,63.018 L26.082,63.613 L25.659,63.978 L25.339,64.112 L25.120,64.033 L24.991,63.776 L24.934,63.387 L24.927,62.917 L24.945,62.414 L24.968,61.920 L24.976,61.468 L24.956,61.078 L24.900,60.760 L24.808,60.511 L24.682,60.323 L24.529,60.181 L24.356,60.072 L24.170,59.982 L23.977,59.902 L23.779,59.829 L23.572,59.767 L23.353,59.720 L23.114,59.699 L22.849,59.710 L22.553,59.758 L22.225,59.842 L21.871,59.953 L21.503,60.072 L21.141,60.175 L20.810,60.232 L20.539,60.209 L20.356,60.077 L20.288,59.809 L20.353,59.393 L20.558,58.828 L20.897,58.129 L21.347,57.328 L21.870,56.471 L22.414,55.618 L22.915,54.833 L23.307,54.183 L23.521,53.729 L23.499,53.518 L23.197,53.581 L22.591,53.925 L21.685,54.533 L20.509,55.364 L19.815,55.858 L19.120,56.353 L18.361,56.884 L17.602,57.416 L16.829,57.939 L16.056,58.461 L15.326,58.926 L14.595,59.391 L13.335,60.114 L12.380,60.552 L11.820,60.648 L11.713,60.373 L12.085,59.724 L12.924,58.734 L13.551,58.096 L14.177,57.459 L14.966,56.720 L15.755,55.981 L16.647,55.191 L17.539,54.400 L18.465,53.611 L19.391,52.823 L20.275,52.089 L21.159,51.354 L21.929,50.723 L22.699,50.092 L23.878,49.115 L24.592,48.477 L24.774,48.204 L24.398,48.294 L23.482,48.713 L22.087,49.405 L21.201,49.849 L20.315,50.292 L19.304,50.789 L18.294,51.286 L17.232,51.790 L16.171,52.293 L15.136,52.759 L14.101,53.224 L13.164,53.612 L12.228,54.001 L11.453,54.281 L10.679,54.561 L9.552,54.865 L8.905,54.896 L8.760,54.660 L9.094,54.185 L9.848,53.515 L10.935,52.705 L12.241,51.818 L12.944,51.367 L13.647,50.916 L14.339,50.486 L15.031,50.055 L16.282,49.283 L17.309,48.633 L18.049,48.125 L18.466,47.764 L18.557,47.541 L18.344,47.438 L17.877,47.427 L17.220,47.477 L16.445,47.557 L15.628,47.637 L14.838,47.694 L14.130,47.710 L13.546,47.674 L13.108,47.584 L12.822,47.442 L12.675,47.256 L12.647,47.035 L12.708,46.791 L12.827,46.534 L12.973,46.273 L13.124,46.015 L13.262,45.764 L13.381,45.520 L13.480,45.283 L13.565,45.052 L13.644,44.825 L13.722,44.600 L13.805,44.376 L13.889,44.154 L13.963,43.935 L14.010,43.723 L14.009,43.518 L13.934,43.324 L13.765,43.141 L13.484,42.968 L13.087,42.802 L12.584,42.640 L11.997,42.477 L11.370,42.307 L10.755,42.126 L10.217,41.929 L9.823,41.715 L9.639,41.486 L9.717,41.245 L10.091,40.997 L10.773,40.751 L11.744,40.514 L12.956,40.293 L14.332,40.096 L15.772,39.924 L17.160,39.775 L18.371,39.645 L19.289,39.522 L19.810,39.395 L19.394,39.065 L18.419,38.835 L16.978,38.546 L16.069,38.370 L15.160,38.195 L14.124,37.990 L13.087,37.785 L12.000,37.556 L10.912,37.326 L9.857,37.081 L8.802,36.837 L7.863,36.588 L6.924,36.340 L5.433,35.863 L4.457,35.436 L4.086,35.087 L4.362,34.839 L5.277,34.708 L6.770,34.699 L7.753,34.753 L8.735,34.808 L9.882,34.913 L11.029,35.019 L12.255,35.161 L13.480,35.304 L14.694,35.465 L15.908,35.627 L17.021,35.788 L18.134,35.948 L19.067,36.085 L19.999,36.223 L21.376,36.409 L22.178,36.472 L22.368,36.385 L21.955,36.133 L21.000,35.718 L19.601,35.153 L18.746,34.809 L17.890,34.464 L16.952,34.078 L16.015,33.691 L15.073,33.284 L14.130,32.877 L13.257,32.474 L12.384,32.072 L11.642,31.697 L10.901,31.322 L9.780,30.670 L9.082,30.148 L8.830,29.778 L9.009,29.566 L9.569,29.506 L10.437,29.579 L11.516,29.756 L12.707,30.000 L13.908,30.272 L15.031,30.532 L16.002,30.744 L16.773,30.882 L17.317,30.926 L17.632,30.869 L17.670,30.467 L17.473,30.151 L17.198,29.788 L16.893,29.400 L16.601,29.010 L16.353,28.637 L16.171,28.293 L16.064,27.987 L16.029,27.719 L16.058,27.487 L16.137,27.285 L16.251,27.103 L16.388,26.936 L16.538,26.779 L16.698,26.629 L16.871,26.490 L17.063,26.365 L17.284,26.261 L17.539,26.187 L17.835,26.145 L18.170,26.137 L18.534,26.158 L18.910,26.194 L19.272,26.227 L19.591,26.232 L19.834,26.179 L19.972,25.788 L19.830,25.406 L19.541,24.886 L19.120,24.234 L18.601,23.474 L18.029,22.643 L17.462,21.795 L16.967,20.990 L16.609,20.299 L16.450,19.787 L16.536,19.514 L16.899,19.524 L17.546,19.840 L18.460,20.459 L19.598,21.351 L20.247,21.905 L20.897,22.458 L21.585,23.078 L22.273,23.697 L22.953,24.332 L23.633,24.967 L24.256,25.561 L24.880,26.154 L25.922,27.144 L26.683,27.831 L27.103,28.127 L26.835,27.339 L26.175,26.244 L25.705,25.491 L25.234,24.738 L24.663,23.824 L24.092,22.909 L23.471,21.893 L22.849,20.877 L22.230,19.829 L21.611,18.781 L21.048,17.776 L20.485,16.771 L20.026,15.882 L19.567,14.993 L18.936,13.578 L18.646,12.630 L18.724,12.219 L19.166,12.369 L19.939,13.061 L20.987,14.235 L21.610,15.013 L22.233,15.790 L22.910,16.694 L23.587,17.597 L24.271,18.553 L24.956,19.509 L25.603,20.440 L26.250,21.372 L26.821,22.206 L27.392,23.040 L27.856,23.713 L28.319,24.387 L28.992,25.316 L29.394,25.767 L29.430,25.199 L29.135,24.259 L28.703,22.991 L28.195,21.505 L27.934,20.715 L27.673,19.924 L27.434,19.146 L27.194,18.368 L26.805,16.949 L26.540,15.756 L26.418,14.854 L26.445,14.278 L26.611,14.033 L26.898,14.093 L27.279,14.412 L27.722,14.924 L28.196,15.557 L28.672,16.236 L29.126,16.892 L29.539,17.468 L29.903,17.924 L30.213,18.238 L30.472,18.404 L30.688,18.434 L30.870,18.348 L31.030,18.177 L31.178,17.951 L31.323,17.702 L31.472,17.452 L31.628,17.217 L31.793,17.006 L31.966,16.818 L32.145,16.648 L32.328,16.488 L32.515,16.331 L32.703,16.173 L32.894,16.019 L33.089,15.878 L33.290,15.766 L33.501,15.708 L33.721,15.726 L33.954,15.842 L34.196,16.074 L34.447,16.425 L34.702,16.887 L34.956,17.435 L35.203,18.028 L35.440,18.611 L35.661,19.122 L35.866,19.492 L36.055,19.656 L36.232,19.562 L36.403,19.175 L36.575,18.484 L36.757,17.507 L36.956,16.293 L36.843,16.984 L36.956,16.293 L36.843,16.984 L36.956,16.293"/>
</svg>
