<svg xmlns="http://www.w3.org/2000/svg" viewBox="0 -0.06 69.86 69.86" width="256" height="256">
  <title>anisotropic-material-compensation</title>
  <rect x="0" y="-0.06" width="69.86" height="69.86" fill="#f4efe6"/>
  <path fill="none" stroke="#6a4c93" stroke-width="0.4" stroke-linecap="round" stroke-linejoin="round" d="M2.860,19.000 L2.860,19.000 M2.860,19.000 L4.660,18.600 L1.060,18.200 L4.660,17.800 L1.060,17.400 L4.660,17.000 L1.060,16.600 L4.660,16.200 L1.060,15.800 L4.660,15.400 L1.060,15.000 L4.660,14.600 L1.060,14.200 L4.660,13.800 L1.060,13.400 L4.660,13.000 L1.060,12.600 L4.660,12.200 L1.060,11.800 L4.660,11.400 L1.060,11.000 L4.660,10.600 L1.060,10.200 L4.660,9.800 L1.060,9.400 L4.660,9.000 L1.060,8.600 L4.660,8.200 L1.060,7.800 L4.660,7.400 L1.060,7.000 L4.660,6.600 L1.060,6.200 L4.660,5.800 L1.060,5.400 L4.660,5.000 L1.060,4.600 L4.660,4.200 L1.060,3.800 L4.660,3.400 L1.060,3.000 L4.660,2.600 L1.060,2.200 L4.660,1.800 L1.060,1.400 L4.660,1.000 L3.964,1.077 L4.660,1.000 L3.964,1.077 L4.660,1.000 M23.860,19.000 L24.355,18.505 L23.860,19.000 L24.355,18.505 L23.860,19.000 M23.860,19.000 L25.409,19.996 L23.141,17.174 L25.963,19.443 L23.694,16.620 L26.516,18.889 L24.247,16.067 L27.070,18.336 L24.801,15.514 L27.623,17.783 L25.354,14.960 L28.176,17.229 L25.908,14.407 L28.730,16.676 L26.461,13.853 L29.283,16.122 L27.014,13.300 L29.837,15.569 L27.568,12.747 L30.390,15.016 L28.121,12.193 L30.943,14.462 L28.674,11.640 L31.497,13.909 L29.228,11.087 L32.050,13.355 L29.781,10.533 L32.604,12.802 L30.335,9.980 L33.157,12.249 L30.888,9.426 L33.710,11.695 L31.441,8.873 L34.264,11.142 L31.995,8.320 L34.817,10.589 L32.548,7.766 L35.370,10.035 L33.102,7.213 L35.924,9.482 L33.655,6.659 L36.477,8.928 L34.208,6.106 L37.031,8.375 L34.762,5.553 L37.584,7.822 L35.315,4.999 L35.754,5.545 L35.315,4.999 L35.754,5.545 L35.315,4.999 M50.860,19.000 L51.560,19.000 L50.860,19.000 L51.560,19.000 L50.860,19.000 M50.860,19.000 L51.260,20.800 L51.660,17.200 L52.060,20.800 L52.460,17.200 L52.860,20.800 L53.260,17.200 L53.660,20.800 L54.060,17.200 L54.460,20.800 L54.860,17.200 L55.260,20.800 L55.660,17.200 L56.060,20.800 L56.460,17.200 L56.860,20.800 L57.260,17.200 L57.660,20.800 L58.060,17.200 L58.460,20.800 L58.860,17.200 L59.260,20.800 L59.660,17.200 L60.060,20.800 L60.460,17.200 L60.860,20.800 L61.260,17.200 L61.660,20.800 L62.060,17.200 L62.460,20.800 L62.860,17.200 L63.260,20.800 L63.660,17.200 L64.060,20.800 L64.460,17.200 L64.860,20.800 L65.260,17.200 L65.660,20.800 L66.060,17.200 L66.460,20.800 L66.860,17.200 L67.260,20.800 L67.660,17.200 L68.060,20.800 L68.460,17.200 L68.860,20.800 L68.783,20.104 L68.860,20.800 L68.783,20.104 L68.860,20.800"/>
  <path fill="none" stroke="#1982c4" stroke-width="0.4" stroke-linecap="round" stroke-linejoin="round" d="M2.860,67.000 L2.860,66.300 L2.860,67.000 L2.860,66.300 L2.860,67.000 M2.860,67.000 L4.720,66.600 L1.000,66.200 L4.720,65.800 L1.000,65.400 L4.720,65.000 L1.000,64.600 L4.720,64.200 L1.000,63.800 L4.720,63.400 L1.000,63.000 L4.720,62.600 L1.000,62.200 L4.720,61.800 L1.000,61.400 L4.720,61.000 L1.000,60.600 L4.720,60.200 L1.000,59.800 L4.720,59.400 L1.000,59.000 L4.720,58.600 L1.000,58.200 L4.720,57.800 L1.000,57.400 L4.720,57.000 L1.000,56.600 L4.720,56.200 L1.000,55.800 L4.720,55.400 L1.000,55.000 L4.720,54.600 L1.000,54.200 L4.720,53.800 L1.000,53.400 L4.720,53.000 L1.000,52.600 L4.720,52.200 L1.000,51.800 L4.720,51.400 L1.000,51.000 L4.720,50.600 L1.000,50.200 L4.720,49.800 L1.000,49.400 L4.720,49.000 L4.024,49.075 L4.720,49.000 L4.024,49.075 L4.720,49.000 M23.860,67.000 L24.355,66.505 L23.860,67.000 L24.355,66.505 L23.860,67.000 M23.860,67.000 L25.409,67.996 L23.141,65.174 L25.963,67.443 L23.694,64.620 L26.516,66.889 L24.247,64.067 L27.070,66.336 L24.801,63.514 L27.623,65.783 L25.354,62.960 L28.176,65.229 L25.908,62.407 L28.730,64.676 L26.461,61.853 L29.283,64.122 L27.014,61.300 L29.837,63.569 L27.568,60.747 L30.390,63.016 L28.121,60.193 L30.943,62.462 L28.674,59.640 L31.497,61.909 L29.228,59.087 L32.050,61.355 L29.781,58.533 L32.604,60.802 L30.335,57.980 L33.157,60.249 L30.888,57.426 L33.710,59.695 L31.441,56.873 L34.264,59.142 L31.995,56.320 L34.817,58.589 L32.548,55.766 L35.370,58.035 L33.102,55.213 L35.924,57.482 L33.655,54.659 L36.477,56.928 L34.208,54.106 L37.031,56.375 L34.762,53.553 L37.584,55.822 L35.315,52.999 L35.754,53.545 L35.315,52.999 L35.754,53.545 L35.315,52.999 M50.860,67.000 L51.560,67.000 L50.860,67.000 L51.560,67.000 L50.860,67.000 M50.860,67.000 L51.260,68.740 L51.660,65.260 L52.060,68.740 L52.460,65.260 L52.860,68.740 L53.260,65.260 L53.660,68.740 L54.060,65.260 L54.460,68.740 L54.860,65.260 L55.260,68.740 L55.660,65.260 L56.060,68.740 L56.460,65.260 L56.860,68.740 L57.260,65.260 L57.660,68.740 L58.060,65.260 L58.460,68.740 L58.860,65.260 L59.260,68.740 L59.660,65.260 L60.060,68.740 L60.460,65.260 L60.860,68.740 L61.260,65.260 L61.660,68.740 L62.060,65.260 L62.460,68.740 L62.860,65.260 L63.260,68.740 L63.660,65.260 L64.060,68.740 L64.460,65.260 L64.860,68.740 L65.260,65.260 L65.660,68.740 L66.060,65.260 L66.460,68.740 L66.860,65.260 L67.260,68.740 L67.660,65.260 L68.060,68.740 L68.460,65.260 L68.860,68.740 L68.780,68.045 L68.860,68.740 L68.780,68.045 L68.860,68.740"/>
</svg>
