<svg xmlns="http://www.w3.org/2000/svg" viewBox="0 -10 60.5 60.5" width="256" height="256">
  <title>applique-with</title>
  <rect x="0" y="-10" width="60.5" height="60.5" fill="#f3e9dc"/>
  <path fill="none" stroke="#6d597a" stroke-width="0.4" stroke-linecap="round" stroke-linejoin="round" d="M57.950,37.950 L57.950,37.950 L57.950,35.450 L57.950,32.950 L57.950,30.450 L57.950,27.950 L57.950,25.450 L57.950,22.950 L57.950,20.450 L57.950,17.950 L57.950,15.450 L57.950,12.950 L57.950,10.450 L57.950,7.950 L57.950,5.450 L57.950,2.950 L55.482,2.550 L52.982,2.550 L50.482,2.550 L47.982,2.550 L45.482,2.550 L42.982,2.550 L40.482,2.550 L37.982,2.550 L35.482,2.550 L34.232,2.550 L32.982,2.550 L31.732,2.550 L30.482,2.550 L27.982,2.550 L25.482,2.550 L22.982,2.550 L20.482,2.550 L17.982,2.550 L15.482,2.550 L12.982,2.550 L10.482,2.550 L7.982,2.550 L5.482,2.550 L2.982,2.550 L2.550,5.012 L2.550,7.512 L2.550,10.012 L2.550,12.512 L2.550,15.012 L2.550,17.512 L2.550,20.012 L2.550,21.262 L2.550,22.512 L2.550,23.762 L2.550,25.012 L2.550,27.512 L2.550,30.012 L2.550,32.512 L2.550,35.012 L2.550,36.262 L2.550,37.512 L5.011,37.950 L7.511,37.950 L10.011,37.950 L12.511,37.950 L15.011,37.950 L17.511,37.950 L20.011,37.950 L22.511,37.950 L25.011,37.950 L27.511,37.950 L30.011,37.950 L32.511,37.950 L35.011,37.950 L37.511,37.950 L40.011,37.950 L42.511,37.950 L45.011,37.950 L47.511,37.950 L50.011,37.950 L52.511,37.950 L55.011,37.950 L57.511,37.950 L57.950,37.950 L57.511,37.950 L57.950,37.950 L57.511,37.950 L57.950,37.950"/>
  <path fill="none" stroke="#b56576" stroke-width="0.4" stroke-linecap="round" stroke-linejoin="round" d="M57.450,37.450 L57.888,36.951 L57.450,37.450 L57.888,36.951 L57.450,37.450 L57.888,36.951 L57.013,36.453 L57.888,35.954 L57.013,35.456 L57.888,34.957 L57.013,34.459 L57.888,33.960 L57.013,33.462 L57.888,32.963 L57.013,32.464 L57.888,31.966 L57.013,31.467 L57.888,30.969 L57.013,30.470 L57.888,29.972 L57.013,29.473 L57.888,28.975 L57.013,28.476 L57.888,27.978 L57.013,27.479 L57.888,26.980 L57.013,26.482 L57.888,25.983 L57.013,25.485 L57.888,24.986 L57.013,24.488 L57.888,23.989 L57.013,23.491 L57.888,22.992 L57.013,22.493 L57.888,21.995 L57.013,21.496 L57.888,20.998 L57.013,20.499 L57.888,20.001 L57.013,19.502 L57.888,19.004 L57.013,18.505 L57.888,18.007 L57.013,17.508 L57.888,17.009 L57.013,16.511 L57.888,16.012 L57.013,15.514 L57.888,15.015 L57.013,14.517 L57.888,14.018 L57.013,13.520 L57.888,13.021 L57.013,12.522 L57.888,12.024 L57.013,11.525 L57.888,11.027 L57.013,10.528 L57.888,10.030 L57.013,9.531 L57.888,9.033 L57.013,8.534 L57.888,8.036 L57.013,7.537 L57.888,7.038 L57.013,6.540 L57.888,6.041 L57.013,5.543 L57.888,5.044 L57.013,4.546 L57.888,4.047 L57.013,3.549 L57.888,3.050 L56.951,3.488 L56.452,2.613 L55.953,3.488 L55.454,2.613 L54.955,3.488 L54.456,2.613 L53.956,3.488 L53.457,2.613 L52.958,3.488 L52.459,2.613 L51.960,3.488 L51.461,2.613 L50.962,3.488 L50.463,2.613 L49.964,3.488 L49.465,2.613 L48.966,3.488 L48.467,2.613 L47.967,3.488 L47.468,2.613 L46.969,3.488 L46.470,2.613 L45.971,3.488 L45.472,2.613 L44.973,3.488 L44.474,2.613 L43.975,3.488 L43.476,2.613 L42.977,3.488 L42.478,2.613 L41.978,3.488 L41.479,2.613 L40.980,3.488 L40.481,2.613 L39.982,3.488 L39.483,2.613 L38.984,3.488 L38.485,2.613 L37.986,3.488 L37.487,2.613 L36.988,3.488 L36.489,2.613 L35.989,3.488 L35.490,2.613 L34.991,3.488 L34.492,2.613 L33.993,3.488 L33.494,2.613 L32.995,3.488 L32.496,2.613 L31.997,3.488 L31.498,2.613 L30.999,3.488 L30.500,2.613 L30.000,3.488 L29.501,2.613 L29.002,3.488 L28.503,2.613 L28.004,3.488 L27.505,2.613 L27.006,3.488 L26.507,2.613 L26.008,3.488 L25.509,2.613 L25.010,3.488 L24.511,2.613 L24.011,3.488 L23.512,2.613 L23.013,3.488 L22.514,2.613 L22.015,3.488 L21.516,2.613 L21.017,3.488 L20.518,2.613 L20.019,3.488 L19.520,2.613 L19.021,3.488 L18.522,2.613 L18.022,3.488 L17.523,2.613 L17.024,3.488 L16.525,2.613 L16.026,3.488 L15.527,2.613 L15.028,3.488 L14.529,2.613 L14.030,3.488 L13.531,2.613 L13.032,3.488 L12.533,2.613 L12.033,3.488 L11.534,2.613 L11.035,3.488 L10.536,2.613 L10.037,3.488 L9.538,2.613 L9.039,3.488 L8.540,2.613 L8.041,3.488 L7.542,2.613 L7.043,3.488 L6.544,2.613 L6.044,3.488 L5.545,2.613 L5.046,3.488 L4.547,2.613 L4.048,3.488 L3.549,2.613 L3.050,3.488 L2.613,3.549 L3.488,4.047 L2.613,4.546 L3.488,5.044 L2.613,5.543 L3.488,6.041 L2.613,6.540 L3.488,7.038 L2.613,7.537 L3.488,8.036 L2.613,8.534 L3.488,9.033 L2.613,9.531 L3.488,10.030 L2.613,10.528 L3.488,11.027 L2.613,11.525 L3.488,12.024 L2.613,12.522 L3.488,13.021 L2.613,13.520 L3.488,14.018 L2.613,14.517 L3.488,15.015 L2.613,15.514 L3.488,16.012 L2.613,16.511 L3.488,17.009 L2.613,17.508 L3.488,18.007 L2.613,18.505 L3.488,19.004 L2.613,19.502 L3.488,20.001 L2.613,20.499 L3.488,20.998 L2.613,21.496 L3.488,21.995 L2.613,22.493 L3.488,22.992 L2.613,23.491 L3.488,23.989 L2.613,24.488 L3.488,24.986 L2.613,25.485 L3.488,25.983 L2.613,26.482 L3.488,26.980 L2.613,27.479 L3.488,27.978 L2.613,28.476 L3.488,28.975 L2.613,29.473 L3.488,29.972 L2.613,30.470 L3.488,30.969 L2.613,31.467 L3.488,31.966 L2.613,32.464 L3.488,32.963 L2.613,33.462 L3.488,33.960 L2.613,34.459 L3.488,34.957 L2.613,35.456 L3.488,35.954 L2.613,36.453 L3.488,36.951 L2.613,37.450 L3.549,37.013 L4.048,37.888 L4.547,37.013 L5.046,37.888 L5.545,37.013 L6.044,37.888 L6.544,37.013 L7.043,37.888 L7.542,37.013 L8.041,37.888 L8.540,37.013 L9.039,37.888 L9.538,37.013 L10.037,37.888 L10.536,37.013 L11.035,37.888 L11.534,37.013 L12.033,37.888 L12.533,37.013 L13.032,37.888 L13.531,37.013 L14.030,37.888 L14.529,37.013 L15.028,37.888 L15.527,37.013 L16.026,37.888 L16.525,37.013 L17.024,37.888 L17.523,37.013 L18.022,37.888 L18.522,37.013 L19.021,37.888 L19.520,37.013 L20.019,37.888 L20.518,37.013 L21.017,37.888 L21.516,37.013 L22.015,37.888 L22.514,37.013 L23.013,37.888 L23.512,37.013 L24.011,37.888 L24.511,37.013 L25.010,37.888 L25.509,37.013 L26.008,37.888 L26.507,37.013 L27.006,37.888 L27.505,37.013 L28.004,37.888 L28.503,37.013 L29.002,37.888 L29.501,37.013 L30.000,37.888 L30.500,37.013 L30.999,37.888 L31.498,37.013 L31.997,37.888 L32.496,37.013 L32.995,37.888 L33.494,37.013 L33.993,37.888 L34.492,37.013 L34.991,37.888 L35.490,37.013 L35.989,37.888 L36.489,37.013 L36.988,37.888 L37.487,37.013 L37.986,37.888 L38.485,37.013 L38.984,37.888 L39.483,37.013 L39.982,37.888 L40.481,37.013 L40.980,37.888 L41.479,37.013 L41.978,37.888 L42.478,37.013 L42.977,37.888 L43.476,37.013 L43.975,37.888 L44.474,37.013 L44.973,37.888 L45.472,37.013 L45.971,37.888 L46.470,37.013 L46.969,37.888 L47.468,37.013 L47.967,37.888 L48.467,37.013 L48.966,37.888 L49.465,37.013 L49.964,37.888 L50.463,37.013 L50.962,37.888 L51.461,37.013 L51.960,37.888 L52.459,37.013 L52.958,37.888 L53.457,37.013 L53.956,37.888 L54.456,37.013 L54.955,37.888 L55.454,37.013 L55.953,37.888 L56.452,37.013 L56.951,37.888 L57.450,37.013 L57.103,37.621 L57.450,37.013 L57.103,37.621 L57.450,37.013"/>
  <path fill="none" stroke="#e56b6f" stroke-width="0.4" stroke-linecap="round" stroke-linejoin="round" d="M2.250,38.250 L2.510,38.900 L2.250,38.250 L2.510,38.900 L2.250,38.250 L2.750,39.500 L3.250,37.000 L3.750,39.500 L4.250,37.000 L4.750,39.500 L5.250,37.000 L5.750,39.500 L6.250,37.000 L6.750,39.500 L7.250,37.000 L7.750,39.500 L8.250,37.000 L8.750,39.500 L9.250,37.000 L9.750,39.500 L10.250,37.000 L10.750,39.500 L11.250,37.000 L11.750,39.500 L12.250,37.000 L12.750,39.500 L13.250,37.000 L13.750,39.500 L14.250,37.000 L14.750,39.500 L15.250,37.000 L15.750,39.500 L16.250,37.000 L16.750,39.500 L17.250,37.000 L17.750,39.500 L18.250,37.000 L18.750,39.500 L19.250,37.000 L19.750,39.500 L20.250,37.000 L20.750,39.500 L21.250,37.000 L21.750,39.500 L22.250,37.000 L22.750,39.500 L23.250,37.000 L23.750,39.500 L24.250,37.000 L24.750,39.500 L25.250,37.000 L25.750,39.500 L26.250,37.000 L26.750,39.500 L27.250,37.000 L27.750,39.500 L28.250,37.000 L28.750,39.500 L29.250,37.000 L29.750,39.500 L30.250,37.000 L30.750,39.500 L31.250,37.000 L31.750,39.500 L32.250,37.000 L32.750,39.500 L33.250,37.000 L33.750,39.500 L34.250,37.000 L34.750,39.500 L35.250,37.000 L35.750,39.500 L36.250,37.000 L36.750,39.500 L37.250,37.000 L37.750,39.500 L38.250,37.000 L38.750,39.500 L39.250,37.000 L39.750,39.500 L40.250,37.000 L40.750,39.500 L41.250,37.000 L41.750,39.500 L42.250,37.000 L42.750,39.500 L43.250,37.000 L43.750,39.500 L44.250,37.000 L44.750,39.500 L45.250,37.000 L45.750,39.500 L46.250,37.000 L46.750,39.500 L47.250,37.000 L47.750,39.500 L48.250,37.000 L48.750,39.500 L49.250,37.000 L49.750,39.500 L50.250,37.000 L50.750,39.500 L51.250,37.000 L51.750,39.500 L52.250,37.000 L52.750,39.500 L53.250,37.000 L53.750,39.500 L54.250,37.000 L54.750,39.500 L55.250,37.000 L55.750,39.500 L56.250,37.000 L56.750,39.500 L57.250,37.000 L57.750,39.500 L58.250,37.000 L59.500,37.750 L57.000,37.250 L59.500,36.750 L57.000,36.250 L59.500,35.750 L57.000,35.250 L59.500,34.750 L57.000,34.250 L59.500,33.750 L57.000,33.250 L59.500,32.750 L57.000,32.250 L59.500,31.750 L57.000,31.250 L59.500,30.750 L57.000,30.250 L59.500,29.750 L57.000,29.250 L59.500,28.750 L57.000,28.250 L59.500,27.750 L57.000,27.250 L59.500,26.750 L57.000,26.250 L59.500,25.750 L57.000,25.250 L59.500,24.750 L57.000,24.250 L59.500,23.750 L57.000,23.250 L59.500,22.750 L57.000,22.250 L59.500,21.750 L57.000,21.250 L59.500,20.750 L57.000,20.250 L59.500,19.750 L57.000,19.250 L59.500,18.750 L57.000,18.250 L59.500,17.750 L57.000,17.250 L59.500,16.750 L57.000,16.250 L59.500,15.750 L57.000,15.250 L59.500,14.750 L57.000,14.250 L59.500,13.750 L57.000,13.250 L59.500,12.750 L57.000,12.250 L59.500,11.750 L57.000,11.250 L59.500,10.750 L57.000,10.250 L59.500,9.750 L57.000,9.250 L59.500,8.750 L57.000,8.250 L59.500,7.750 L57.000,7.250 L59.500,6.750 L57.000,6.250 L59.500,5.750 L57.000,5.250 L59.500,4.750 L57.000,4.250 L59.500,3.750 L57.000,3.250 L59.500,2.750 L57.000,2.250 L57.750,1.000 L57.250,3.500 L56.750,1.000 L56.250,3.500 L55.750,1.000 L55.250,3.500 L54.750,1.000 L54.250,3.500 L53.750,1.000 L53.250,3.500 L52.750,1.000 L52.250,3.500 L51.750,1.000 L51.250,3.500 L50.750,1.000 L50.250,3.500 L49.750,1.000 L49.250,3.500 L48.750,1.000 L48.250,3.500 L47.750,1.000 L47.250,3.500 L46.750,1.000 L46.250,3.500 L45.750,1.000 L45.250,3.500 L44.750,1.000 L44.250,3.500 L43.750,1.000 L43.250,3.500 L42.750,1.000 L42.250,3.500 L41.750,1.000 L41.250,3.500 L40.750,1.000 L40.250,3.500 L39.750,1.000 L39.250,3.500 L38.750,1.000 L38.250,3.500 L37.750,1.000 L37.250,3.500 L36.750,1.000 L36.250,3.500 L35.750,1.000 L35.250,3.500 L34.750,1.000 L34.250,3.500 L33.750,1.000 L33.250,3.500 L32.750,1.000 L32.250,3.500 L31.750,1.000 L31.250,3.500 L30.750,1.000 L30.250,3.500 L29.750,1.000 L29.250,3.500 L28.750,1.000 L28.250,3.500 L27.750,1.000 L27.250,3.500 L26.750,1.000 L26.250,3.500 L25.750,1.000 L25.250,3.500 L24.750,1.000 L24.250,3.500 L23.750,1.000 L23.250,3.500 L22.750,1.000 L22.250,3.500 L21.750,1.000 L21.250,3.500 L20.750,1.000 L20.250,3.500 L19.750,1.000 L19.250,3.500 L18.750,1.000 L18.250,3.500 L17.750,1.000 L17.250,3.500 L16.750,1.000 L16.250,3.500 L15.750,1.000 L15.250,3.500 L14.750,1.000 L14.250,3.500 L13.750,1.000 L13.250,3.500 L12.750,1.000 L12.250,3.500 L11.750,1.000 L11.250,3.500 L10.750,1.000 L10.250,3.500 L9.750,1.000 L9.250,3.500 L8.750,1.000 L8.250,3.500 L7.750,1.000 L7.250,3.500 L6.750,1.000 L6.250,3.500 L5.750,1.000 L5.250,3.500 L4.750,1.000 L4.250,3.500 L3.750,1.000 L3.250,3.500 L2.750,1.000 L2.250,3.500 L1.000,2.750 L3.500,3.250 L1.000,3.750 L3.500,4.250 L1.000,4.750 L3.500,5.250 L1.000,5.750 L3.500,6.250 L1.000,6.750 L3.500,7.250 L1.000,7.750 L3.500,8.250 L1.000,8.750 L3.500,9.250 L1.000,9.750 L3.500,10.250 L1.000,10.750 L3.500,11.250 L1.000,11.750 L3.500,12.250 L1.000,12.750 L3.500,13.250 L1.000,13.750 L3.500,14.250 L1.000,14.750 L3.500,15.250 L1.000,15.750 L3.500,16.250 L1.000,16.750 L3.500,17.250 L1.000,17.750 L3.500,18.250 L1.000,18.750 L3.500,19.250 L1.000,19.750 L3.500,20.250 L1.000,20.750 L3.500,21.250 L1.000,21.750 L3.500,22.250 L1.000,22.750 L3.500,23.250 L1.000,23.750 L3.500,24.250 L1.000,24.750 L3.500,25.250 L1.000,25.750 L3.500,26.250 L1.000,26.750 L3.500,27.250 L1.000,27.750 L3.500,28.250 L1.000,28.750 L3.500,29.250 L1.000,29.750 L3.500,30.250 L1.000,30.750 L3.500,31.250 L1.000,31.750 L3.500,32.250 L1.000,32.750 L3.500,33.250 L1.000,33.750 L3.500,34.250 L1.000,34.750 L3.500,35.250 L1.000,35.750 L3.500,36.250 L1.000,36.750 L3.500,37.250 L1.000,37.750 L3.500,38.250 L2.814,38.113 L3.500,38.250 L2.814,38.113 L3.500,38.250"/>
</svg>
