<svg xmlns="http://www.w3.org/2000/svg" viewBox="-2.733 0 75.053 75.053" width="256" height="256">
  <title>bars</title>
  <rect x="-2.733" y="0" width="75.053" height="75.053" fill="#f5efe4"/>
  <path fill="none" stroke="#c8472f" stroke-width="0.4" stroke-linecap="round" stroke-linejoin="round" d="M9.167,55.849 L9.167,55.149 L9.167,55.849 L9.167,55.149 L9.167,55.849 M9.167,55.849 L9.867,55.849 L9.167,55.849 L9.867,55.849 L9.167,55.849 M15.881,15.187 L16.376,15.682 L15.881,15.187 L16.376,15.682 L15.881,15.187 M11.218,55.778 L10.723,55.283 L11.218,55.778 L10.723,55.283 L11.218,55.778 M9.662,14.621 L9.167,15.116 L9.662,14.621 L9.167,15.116 L9.662,14.621 L8.672,15.611 L8.672,17.025 L10.394,15.303 L11.076,14.621 L12.490,14.621 L11.501,15.610 L10.512,16.599 L9.592,17.519 L8.672,18.439 L8.672,19.853 L9.651,18.875 L10.630,17.896 L12.398,16.128 L13.905,14.621 L15.319,14.621 L14.283,15.657 L12.515,17.424 L10.748,19.192 L9.864,20.076 L8.980,20.960 L8.672,21.268 L8.672,22.682 L9.098,22.256 L10.865,20.489 L12.633,18.721 L14.401,16.953 L16.169,15.185 L16.733,14.621 L18.147,14.621 L17.217,15.551 L16.287,16.482 L14.519,18.249 L12.751,20.017 L10.983,21.785 L9.216,23.553 L8.672,24.096 L8.672,25.510 L9.333,24.849 L11.101,23.081 L12.869,21.313 L14.637,19.546 L16.404,17.778 L18.172,16.010 L19.301,14.882 L19.301,16.296 L18.290,17.307 L16.522,19.074 L14.755,20.842 L12.987,22.610 L11.219,24.378 L10.335,25.261 L9.451,26.145 L8.672,26.925 L8.672,28.339 L9.569,27.442 L11.337,25.674 L13.105,23.906 L14.872,22.138 L16.640,20.371 L18.408,18.603 L19.301,17.710 L19.301,19.124 L18.526,19.899 L16.758,21.667 L14.990,23.435 L14.106,24.319 L13.223,25.203 L11.455,26.970 L9.687,28.738 L8.672,29.753 L8.672,31.167 L9.805,30.034 L11.573,28.267 L12.456,27.383 L13.340,26.499 L15.108,24.731 L16.876,22.963 L18.644,21.196 L19.301,20.538 L19.301,21.953 L18.762,22.492 L16.994,24.260 L15.226,26.028 L13.458,27.795 L11.690,29.563 L9.923,31.331 L8.672,32.581 L8.672,33.996 L10.041,32.627 L11.808,30.859 L13.576,29.092 L15.344,27.324 L16.228,26.440 L17.112,25.556 L18.879,23.788 L19.301,23.367 L19.301,24.781 L18.997,25.085 L17.229,26.852 L15.462,28.620 L14.578,29.504 L13.694,30.388 L11.926,32.156 L10.158,33.924 L8.672,35.410 L8.672,36.824 L10.276,35.220 L12.044,33.452 L13.812,31.684 L15.580,29.917 L17.347,28.149 L18.324,27.172 L19.301,26.195 L19.301,27.610 L18.383,28.527 L17.465,29.445 L15.697,31.213 L13.930,32.981 L12.162,34.749 L10.394,36.516 L8.672,38.238 L8.672,39.652 L9.592,38.733 L10.512,37.813 L12.280,36.045 L14.047,34.277 L15.815,32.509 L16.699,31.625 L17.583,30.742 L19.301,29.024 L19.301,30.438 L17.701,32.038 L15.933,33.806 L14.165,35.573 L12.398,37.341 L10.630,39.109 L9.651,40.088 L8.672,41.067 L8.672,42.481 L8.980,42.173 L10.748,40.405 L11.632,39.521 L12.515,38.638 L14.283,36.870 L16.051,35.102 L17.819,33.334 L19.301,31.852 L19.301,33.266 L17.937,34.631 L16.169,36.398 L14.401,38.166 L12.633,39.934 L10.865,41.702 L9.098,43.469 L8.672,43.895 L8.672,45.309 L9.216,44.766 L10.983,42.998 L12.751,41.230 L14.519,39.463 L16.287,37.695 L18.054,35.927 L19.301,34.681 L19.301,36.095 L18.172,37.223 L16.404,38.991 L14.637,40.759 L13.753,41.643 L12.869,42.527 L11.101,44.294 L9.333,46.062 L8.672,46.724 L8.672,48.138 L9.451,47.359 L11.219,45.591 L12.987,43.823 L14.755,42.055 L16.522,40.288 L18.290,38.520 L19.301,37.509 L19.301,38.923 L18.408,39.816 L16.640,41.584 L14.872,43.352 L13.105,45.119 L11.337,46.887 L9.569,48.655 L8.672,49.552 L8.672,50.966 L9.687,49.951 L11.455,48.184 L13.223,46.416 L14.990,44.648 L15.874,43.764 L16.758,42.880 L18.526,41.112 L19.301,40.337 L19.301,41.752 L18.644,42.409 L16.876,44.177 L15.108,45.944 L13.340,47.712 L11.573,49.480 L9.805,51.248 L8.672,52.380 L8.672,53.795 L9.923,52.544 L11.690,50.776 L13.458,49.008 L15.226,47.241 L16.994,45.473 L18.762,43.705 L19.301,43.166 L19.301,44.580 L18.879,45.002 L17.995,45.885 L17.112,46.769 L15.344,48.537 L13.576,50.305 L11.808,52.073 L10.041,53.840 L8.672,55.209 L8.952,56.344 L10.158,55.137 L11.926,53.369 L13.694,51.601 L15.462,49.833 L17.229,48.066 L18.997,46.298 L19.301,45.994 L19.301,47.408 L18.324,48.385 L17.347,49.362 L15.580,51.130 L13.812,52.898 L12.044,54.665 L10.366,56.344 L11.780,56.344 L12.162,55.962 L13.930,54.194 L15.697,52.426 L17.465,50.658 L18.383,49.741 L19.301,48.823 L19.301,50.237 L17.583,51.955 L15.815,53.723 L14.047,55.490 L13.194,56.344 L14.608,56.344 L15.933,55.019 L17.701,53.251 L19.301,51.651 L19.301,53.065 L17.819,54.547 L16.921,55.446 L16.023,56.344 L17.437,56.344 L17.937,55.844 L19.301,54.480 L19.301,55.894 L18.851,56.344 L19.301,55.894 L18.851,56.344 L19.301,55.894 L18.851,56.344 M24.838,73.853 L25.192,73.499 L24.838,73.853 L25.192,73.499 L24.838,73.853 M25.192,73.499 L25.892,73.499 L25.192,73.499 L25.892,73.499 L25.192,73.499 M40.910,3.200 L40.210,3.200 L40.910,3.200 L40.210,3.200 L40.910,3.200 M40.910,71.200 L41.010,74.053 L41.010,71.996 L41.010,69.496 L41.010,66.996 L41.010,64.496 L41.010,61.996 L41.010,59.496 L41.010,56.996 L41.010,54.496 L41.010,51.996 L41.010,49.496 L41.010,46.996 L41.010,44.496 L41.010,41.996 L41.010,39.496 L41.010,36.996 L41.010,34.496 L41.010,31.996 L41.010,29.496 L41.010,26.996 L41.010,24.496 L41.010,21.996 L41.010,19.496 L41.010,16.996 L41.010,14.496 L41.010,11.996 L41.010,9.496 L41.010,6.996 L41.010,4.496 L41.010,1.996 L41.010,1.000 L40.010,1.000 L40.010,2.331 L40.010,3.663 L40.010,6.163 L40.010,8.663 L40.010,11.163 L40.010,13.663 L40.010,16.163 L40.010,18.663 L40.010,21.163 L40.010,23.663 L40.010,26.163 L40.010,28.663 L40.010,31.163 L40.010,33.663 L40.010,36.163 L40.010,38.663 L40.010,41.163 L40.010,43.663 L40.010,46.163 L40.010,48.663 L40.010,51.163 L40.010,53.663 L40.010,56.163 L40.010,58.663 L40.010,61.163 L40.010,63.663 L40.010,66.163 L40.010,68.663 L40.010,71.163 L40.010,73.663 L40.010,74.053 L39.010,74.053 L39.010,72.829 L39.010,70.329 L39.010,67.829 L39.010,65.329 L39.010,62.829 L39.010,60.329 L39.010,57.829 L39.010,55.329 L39.010,52.829 L39.010,50.329 L39.010,47.829 L39.010,45.329 L39.010,42.829 L39.010,40.329 L39.010,37.829 L39.010,35.329 L39.010,32.829 L39.010,30.329 L39.010,27.829 L39.010,25.329 L39.010,22.829 L39.010,20.329 L39.010,17.829 L39.010,15.329 L39.010,12.829 L39.010,10.329 L39.010,7.829 L39.010,5.329 L39.010,2.829 L39.010,1.000 L38.010,1.000 L38.010,1.996 L38.010,4.496 L38.010,6.996 L38.010,9.496 L38.010,11.996 L38.010,14.496 L38.010,16.996 L38.010,19.496 L38.010,21.996 L38.010,24.496 L38.010,26.996 L38.010,29.496 L38.010,31.996 L38.010,34.496 L38.010,36.996 L38.010,39.496 L38.010,41.996 L38.010,44.496 L38.010,46.996 L38.010,49.496 L38.010,51.996 L38.010,54.496 L38.010,56.996 L38.010,59.496 L38.010,61.996 L38.010,64.496 L38.010,66.996 L38.010,69.496 L38.010,71.996 L38.010,74.053 L37.010,74.053 L37.010,73.663 L37.010,71.163 L37.010,68.663 L37.010,66.163 L37.010,63.663 L37.010,61.163 L37.010,58.663 L37.010,56.163 L37.010,53.663 L37.010,51.163 L37.010,48.663 L37.010,46.163 L37.010,43.663 L37.010,41.163 L37.010,38.663 L37.010,36.163 L37.010,33.663 L37.010,31.163 L37.010,28.663 L37.010,26.163 L37.010,23.663 L37.010,21.163 L37.010,18.663 L37.010,16.163 L37.010,13.663 L37.010,11.163 L37.010,8.663 L37.010,6.163 L37.010,3.663 L37.010,2.331 L37.010,1.000 L36.010,1.000 L36.010,2.829 L36.010,5.329 L36.010,7.829 L36.010,10.329 L36.010,12.829 L36.010,15.329 L36.010,17.829 L36.010,20.329 L36.010,22.829 L36.010,25.329 L36.010,27.829 L36.010,30.329 L36.010,32.829 L36.010,35.329 L36.010,37.829 L36.010,40.329 L36.010,42.829 L36.010,45.329 L36.010,47.829 L36.010,50.329 L36.010,52.829 L36.010,55.329 L36.010,57.829 L36.010,60.329 L36.010,62.829 L36.010,65.329 L36.010,67.829 L36.010,70.329 L36.010,72.829 L36.010,74.053 L35.010,74.053 L35.010,71.996 L35.010,69.496 L35.010,66.996 L35.010,64.496 L35.010,61.996 L35.010,59.496 L35.010,56.996 L35.010,54.496 L35.010,51.996 L35.010,49.496 L35.010,46.996 L35.010,44.496 L35.010,41.996 L35.010,39.496 L35.010,36.996 L35.010,34.496 L35.010,31.996 L35.010,29.496 L35.010,26.996 L35.010,24.496 L35.010,21.996 L35.010,19.496 L35.010,16.996 L35.010,14.496 L35.010,11.996 L35.010,9.496 L35.010,6.996 L35.010,4.496 L35.010,1.996 L35.010,1.000 L34.010,1.000 L34.010,2.331 L34.010,3.663 L34.010,6.163 L34.010,8.663 L34.010,11.163 L34.010,13.663 L34.010,16.163 L34.010,18.663 L34.010,21.163 L34.010,23.663 L34.010,26.163 L34.010,28.663 L34.010,31.163 L34.010,33.663 L34.010,36.163 L34.010,38.663 L34.010,41.163 L34.010,43.663 L34.010,46.163 L34.010,48.663 L34.010,51.163 L34.010,53.663 L34.010,56.163 L34.010,58.663 L34.010,61.163 L34.010,63.663 L34.010,66.163 L34.010,68.663 L34.010,71.163 L34.010,73.663 L34.010,74.053 L33.010,74.053 L33.010,72.829 L33.010,70.329 L33.010,67.829 L33.010,65.329 L33.010,62.829 L33.010,60.329 L33.010,57.829 L33.010,55.329 L33.010,52.829 L33.010,50.329 L33.010,47.829 L33.010,45.329 L33.010,42.829 L33.010,40.329 L33.010,37.829 L33.010,35.329 L33.010,32.829 L33.010,30.329 L33.010,27.829 L33.010,25.329 L33.010,22.829 L33.010,20.329 L33.010,17.829 L33.010,15.329 L33.010,12.829 L33.010,10.329 L33.010,7.829 L33.010,5.329 L33.010,2.829 L33.010,1.000 L32.010,1.000 L32.010,1.996 L32.010,4.496 L32.010,6.996 L32.010,9.496 L32.010,11.996 L32.010,14.496 L32.010,16.996 L32.010,19.496 L32.010,21.996 L32.010,24.496 L32.010,26.996 L32.010,29.496 L32.010,31.996 L32.010,34.496 L32.010,36.996 L32.010,39.496 L32.010,41.996 L32.010,44.496 L32.010,46.996 L32.010,49.496 L32.010,51.996 L32.010,54.496 L32.010,56.996 L32.010,59.496 L32.010,61.996 L32.010,64.496 L32.010,66.996 L32.010,69.496 L32.010,71.996 L32.010,74.053 L31.010,74.053 L31.010,73.663 L31.010,71.163 L31.010,68.663 L31.010,66.163 L31.010,63.663 L31.010,61.163 L31.010,58.663 L31.010,56.163 L31.010,53.663 L31.010,51.163 L31.010,48.663 L31.010,46.163 L31.010,43.663 L31.010,41.163 L31.010,38.663 L31.010,36.163 L31.010,33.663 L31.010,31.163 L31.010,28.663 L31.010,26.163 L31.010,23.663 L31.010,21.163 L31.010,18.663 L31.010,16.163 L31.010,13.663 L31.010,11.163 L31.010,8.663 L31.010,6.163 L31.010,3.663 L31.010,2.331 L31.010,1.000 L30.010,1.000 L30.010,2.829 L30.010,5.329 L30.010,7.829 L30.010,10.329 L30.010,12.829 L30.010,15.329 L30.010,17.829 L30.010,20.329 L30.010,22.829 L30.010,25.329 L30.010,27.829 L30.010,30.329 L30.010,32.829 L30.010,35.329 L30.010,37.829 L30.010,40.329 L30.010,42.829 L30.010,45.329 L30.010,47.829 L30.010,50.329 L30.010,52.829 L30.010,55.329 L30.010,57.829 L30.010,60.329 L30.010,62.829 L30.010,65.329 L30.010,67.829 L30.010,70.329 L30.010,72.829 L30.010,74.053 L29.010,74.053 L29.010,71.996 L29.010,69.496 L29.010,66.996 L29.010,64.496 L29.010,61.996 L29.010,59.496 L29.010,56.996 L29.010,54.496 L29.010,51.996 L29.010,49.496 L29.010,46.996 L29.010,44.496 L29.010,41.996 L29.010,39.496 L29.010,36.996 L29.010,34.496 L29.010,31.996 L29.010,29.496 L29.010,26.996 L29.010,24.496 L29.010,21.996 L29.010,19.496 L29.010,16.996 L29.010,14.496 L29.010,11.996 L29.010,9.496 L29.010,6.996 L29.010,4.496 L29.010,1.996 L29.010,1.000 L28.010,1.000 L28.010,2.331 L28.010,3.663 L28.010,6.163 L28.010,8.663 L28.010,11.163 L28.010,13.663 L28.010,16.163 L28.010,18.663 L28.010,21.163 L28.010,23.663 L28.010,26.163 L28.010,28.663 L28.010,31.163 L28.010,33.663 L28.010,36.163 L28.010,38.663 L28.010,41.163 L28.010,43.663 L28.010,46.163 L28.010,48.663 L28.010,51.163 L28.010,53.663 L28.010,56.163 L28.010,58.663 L28.010,61.163 L28.010,63.663 L28.010,66.163 L28.010,68.663 L28.010,71.163 L28.010,73.663 L28.010,74.053 L27.010,74.053 L27.010,72.829 L27.010,70.329 L27.010,67.829 L27.010,65.329 L27.010,62.829 L27.010,60.329 L27.010,57.829 L27.010,55.329 L27.010,52.829 L27.010,50.329 L27.010,47.829 L27.010,45.329 L27.010,42.829 L27.010,40.329 L27.010,37.829 L27.010,35.329 L27.010,32.829 L27.010,30.329 L27.010,27.829 L27.010,25.329 L27.010,22.829 L27.010,20.329 L27.010,17.829 L27.010,15.329 L27.010,12.829 L27.010,10.329 L27.010,7.829 L27.010,5.329 L27.010,2.829 L27.010,1.000 L26.010,1.000 L26.010,1.996 L26.010,4.496 L26.010,6.996 L26.010,9.496 L26.010,11.996 L26.010,14.496 L26.010,16.996 L26.010,19.496 L26.010,21.996 L26.010,24.496 L26.010,26.996 L26.010,29.496 L26.010,31.996 L26.010,34.496 L26.010,36.996 L26.010,39.496 L26.010,41.996 L26.010,44.496 L26.010,46.996 L26.010,49.496 L26.010,51.996 L26.010,54.496 L26.010,56.996 L26.010,59.496 L26.010,61.996 L26.010,64.496 L26.010,66.996 L26.010,69.496 L26.010,71.996 L26.010,74.053 L25.010,74.053 L25.010,73.663 L25.010,71.163 L25.010,68.663 L25.010,66.163 L25.010,63.663 L25.010,61.163 L25.010,58.663 L25.010,56.163 L25.010,53.663 L25.010,51.163 L25.010,48.663 L25.010,46.163 L25.010,43.663 L25.010,41.163 L25.010,38.663 L25.010,36.163 L25.010,33.663 L25.010,31.163 L25.010,28.663 L25.010,26.163 L25.010,23.663 L25.010,21.163 L25.010,18.663 L25.010,16.163 L25.010,13.663 L25.010,11.163 L25.010,8.663 L25.010,6.163 L25.010,3.663 L25.010,2.331 L25.010,1.000 L25.010,1.700 L25.010,1.000 L25.010,1.700 L25.010,1.000 M1.141,44.634 L1.495,44.281 L1.141,44.634 L1.495,44.281 L1.141,44.634 M1.495,44.281 L2.195,44.281 L1.495,44.281 L2.195,44.281 L1.495,44.281 M68.021,38.498 L67.526,38.993 L68.021,38.498 L67.526,38.993 L68.021,38.498 M3.546,29.434 L3.311,29.669 L3.546,29.434 L3.311,29.669 L3.546,29.434 M68.586,29.859 L68.091,29.364 L68.586,29.859 L68.091,29.364 L68.586,29.859 L67.596,28.869 L66.182,28.869 L67.340,30.027 L68.586,31.273 L68.586,32.687 L67.812,31.912 L66.044,30.145 L64.768,28.869 L63.354,28.869 L64.748,30.263 L66.515,32.030 L68.283,33.798 L68.586,34.101 L68.586,35.515 L66.987,33.916 L65.219,32.148 L63.451,30.380 L61.940,28.869 L60.525,28.869 L62.155,30.498 L63.923,32.266 L65.690,34.034 L67.458,35.802 L68.586,36.930 L68.586,38.344 L67.930,37.687 L66.162,35.919 L64.394,34.152 L62.626,32.384 L60.859,30.616 L59.111,28.869 L57.697,28.869 L58.630,29.801 L59.562,30.734 L61.330,32.502 L63.098,34.270 L64.866,36.037 L66.633,37.805 L67.610,38.782 L68.586,39.758 L68.586,41.172 L67.105,39.691 L65.337,37.923 L63.569,36.155 L61.801,34.387 L60.034,32.620 L58.266,30.852 L56.498,29.084 L56.283,28.869 L54.868,28.869 L55.202,29.202 L56.970,30.970 L58.737,32.737 L60.505,34.505 L62.273,36.273 L64.041,38.041 L65.808,39.809 L67.576,41.576 L68.586,42.587 L68.586,44.001 L68.048,43.462 L66.280,41.694 L64.512,39.926 L62.744,38.159 L60.976,36.391 L59.209,34.623 L57.441,32.855 L55.673,31.088 L53.905,29.320 L53.454,28.869 L52.040,28.869 L52.609,29.438 L54.377,31.205 L56.145,32.973 L57.912,34.741 L59.680,36.509 L61.448,38.276 L63.216,40.044 L64.983,41.812 L66.751,43.580 L67.947,44.776 L66.533,44.776 L65.455,43.698 L63.687,41.930 L61.919,40.162 L60.151,38.394 L58.384,36.627 L56.616,34.859 L54.848,33.091 L53.080,31.323 L51.313,29.555 L50.626,28.869 L49.212,28.869 L50.016,29.673 L51.784,31.441 L53.552,33.209 L55.320,34.977 L57.087,36.744 L58.855,38.512 L60.623,40.280 L62.391,42.048 L64.158,43.815 L65.119,44.776 L63.705,44.776 L62.862,43.933 L61.094,42.166 L59.327,40.398 L57.559,38.630 L55.791,36.862 L54.023,35.094 L52.255,33.327 L50.488,31.559 L48.720,29.791 L47.797,28.869 L46.383,28.869 L47.424,29.909 L49.191,31.677 L50.959,33.445 L52.727,35.212 L54.495,36.980 L56.262,38.748 L58.030,40.516 L59.798,42.283 L61.566,44.051 L62.290,44.776 L60.876,44.776 L60.269,44.169 L58.502,42.401 L56.734,40.633 L54.966,38.866 L53.198,37.098 L51.431,35.330 L49.663,33.562 L47.895,31.795 L46.127,30.027 L44.969,28.869 L43.555,28.869 L44.831,30.145 L46.599,31.912 L48.366,33.680 L50.134,35.448 L51.902,37.216 L53.670,38.984 L55.437,40.751 L57.205,42.519 L58.973,44.287 L59.462,44.776 L58.048,44.776 L57.677,44.405 L55.909,42.637 L54.141,40.869 L52.373,39.101 L50.606,37.334 L48.838,35.566 L47.070,33.798 L45.302,32.030 L43.534,30.263 L42.141,28.869 L40.726,28.869 L42.238,30.380 L44.006,32.148 L45.774,33.916 L47.541,35.684 L49.309,37.451 L51.077,39.219 L52.845,40.987 L54.612,42.755 L56.380,44.523 L56.633,44.776 L55.219,44.776 L54.268,43.824 L53.316,42.873 L51.548,41.105 L49.781,39.337 L48.013,37.569 L46.245,35.802 L44.477,34.034 L42.710,32.266 L40.942,30.498 L39.312,28.869 L37.898,28.869 L39.645,30.616 L41.413,32.384 L43.181,34.152 L44.949,35.919 L46.716,37.687 L48.484,39.455 L50.252,41.223 L52.020,42.990 L52.912,43.883 L53.805,44.776 L52.391,44.776 L50.723,43.108 L48.956,41.341 L47.188,39.573 L45.420,37.805 L43.652,36.037 L41.885,34.270 L40.117,32.502 L38.349,30.734 L37.416,29.801 L36.484,28.869 L35.069,28.869 L35.285,29.084 L37.053,30.852 L38.820,32.620 L40.588,34.387 L42.356,36.155 L44.124,37.923 L45.892,39.691 L47.659,41.458 L49.427,43.226 L50.977,44.776 L49.562,44.776 L48.131,43.344 L46.363,41.576 L44.595,39.809 L42.827,38.041 L41.060,36.273 L39.292,34.505 L37.524,32.737 L35.756,30.970 L33.989,29.202 L33.655,28.869 L32.241,28.869 L32.692,29.320 L34.460,31.088 L36.228,32.855 L37.995,34.623 L39.763,36.391 L41.531,38.159 L43.299,39.926 L45.067,41.694 L46.834,43.462 L48.148,44.776 L46.734,44.776 L45.538,43.580 L43.770,41.812 L42.002,40.044 L40.235,38.276 L38.467,36.509 L36.699,34.741 L34.931,32.973 L33.164,31.205 L31.396,29.438 L30.827,28.869 L29.413,28.869 L30.099,29.555 L31.867,31.323 L33.635,33.091 L35.403,34.859 L37.171,36.627 L38.938,38.394 L40.706,40.162 L42.474,41.930 L44.242,43.698 L45.320,44.776 L43.906,44.776 L42.945,43.815 L41.177,42.048 L39.410,40.280 L37.642,38.512 L35.874,36.744 L34.106,34.977 L32.339,33.209 L30.571,31.441 L28.803,29.673 L27.998,28.869 L26.584,28.869 L27.507,29.791 L29.274,31.559 L31.042,33.327 L32.810,35.094 L34.578,36.862 L36.346,38.630 L38.113,40.398 L39.881,42.166 L41.649,43.933 L42.491,44.776 L41.077,44.776 L40.352,44.051 L38.585,42.283 L36.817,40.516 L35.049,38.748 L33.281,36.980 L31.514,35.212 L29.746,33.445 L27.978,31.677 L26.210,29.909 L25.170,28.869 L23.756,28.869 L24.914,30.027 L26.682,31.795 L28.450,33.562 L30.217,35.330 L31.985,37.098 L33.753,38.866 L35.521,40.633 L37.288,42.401 L39.056,44.169 L39.663,44.776 L38.249,44.776 L37.760,44.287 L35.992,42.519 L34.224,40.751 L32.456,38.984 L30.689,37.216 L28.921,35.448 L27.153,33.680 L25.385,31.912 L23.618,30.145 L22.342,28.869 L20.927,28.869 L22.321,30.263 L24.089,32.030 L25.857,33.798 L27.625,35.566 L29.392,37.334 L31.160,39.101 L32.928,40.869 L34.696,42.637 L36.463,44.405 L36.834,44.776 L35.420,44.776 L35.167,44.523 L33.399,42.755 L31.632,40.987 L29.864,39.219 L28.096,37.451 L26.328,35.684 L24.560,33.916 L22.793,32.148 L21.025,30.380 L19.513,28.869 L18.099,28.869 L19.729,30.498 L21.496,32.266 L23.264,34.034 L24.148,34.918 L25.032,35.802 L26.800,37.569 L28.567,39.337 L30.335,41.105 L32.103,42.873 L33.054,43.824 L34.006,44.776 L32.592,44.776 L31.699,43.883 L30.807,42.990 L29.039,41.223 L27.271,39.455 L25.503,37.687 L23.735,35.919 L21.968,34.152 L20.200,32.384 L18.432,30.616 L16.685,28.869 L15.270,28.869 L16.203,29.801 L17.136,30.734 L18.904,32.502 L20.671,34.270 L22.439,36.037 L24.207,37.805 L25.091,38.689 L25.975,39.573 L27.742,41.341 L29.510,43.108 L31.178,44.776 L29.763,44.776 L28.214,43.226 L26.446,41.458 L24.678,39.691 L22.911,37.923 L22.027,37.039 L21.143,36.155 L19.375,34.387 L17.607,32.620 L15.839,30.852 L14.072,29.084 L13.856,28.869 L12.442,28.869 L12.775,29.202 L14.543,30.970 L16.311,32.737 L18.079,34.505 L19.846,36.273 L21.614,38.041 L23.382,39.809 L25.150,41.576 L26.917,43.344 L28.349,44.776 L26.935,44.776 L25.621,43.462 L23.853,41.694 L22.969,40.810 L22.086,39.926 L20.318,38.159 L18.550,36.391 L16.782,34.623 L15.015,32.855 L14.131,31.971 L13.247,31.088 L11.479,29.320 L11.028,28.869 L9.614,28.869 L10.183,29.438 L11.950,31.205 L13.718,32.973 L15.486,34.741 L17.254,36.509 L19.021,38.276 L19.905,39.160 L20.789,40.044 L22.557,41.812 L24.325,43.580 L25.521,44.776 L24.107,44.776 L23.028,43.698 L21.261,41.930 L19.493,40.162 L17.725,38.394 L15.957,36.627 L14.190,34.859 L12.422,33.091 L10.654,31.323 L8.886,29.555 L8.199,28.869 L6.785,28.869 L7.590,29.673 L9.358,31.441 L11.125,33.209 L12.009,34.093 L12.893,34.977 L14.661,36.744 L16.429,38.512 L18.196,40.280 L19.964,42.048 L20.848,42.932 L21.732,43.815 L22.692,44.776 L21.278,44.776 L20.436,43.933 L18.668,42.166 L17.784,41.282 L16.900,40.398 L15.132,38.630 L13.365,36.862 L11.597,35.094 L9.829,33.327 L8.061,31.559 L6.294,29.791 L5.371,28.869 L3.957,28.869 L4.997,29.909 L6.765,31.677 L8.533,33.445 L10.300,35.212 L12.068,36.980 L13.836,38.748 L15.604,40.516 L17.372,42.283 L19.139,44.051 L19.864,44.776 L18.450,44.776 L17.843,44.169 L16.075,42.401 L14.307,40.633 L12.540,38.866 L10.772,37.098 L9.004,35.330 L7.236,33.562 L5.469,31.795 L3.701,30.027 L2.543,28.869 L1.128,28.869 L2.404,30.145 L4.172,31.912 L5.940,33.680 L7.708,35.448 L9.476,37.216 L11.243,38.984 L13.011,40.751 L14.779,42.519 L15.663,43.403 L16.547,44.287 L17.035,44.776 L15.621,44.776 L15.250,44.405 L13.482,42.637 L11.715,40.869 L9.947,39.101 L8.179,37.334 L6.411,35.566 L4.644,33.798 L2.876,32.030 L1.938,31.092 L1.000,30.155 L1.000,31.569 L1.579,32.148 L3.347,33.916 L5.115,35.684 L6.883,37.451 L7.767,38.335 L8.651,39.219 L10.418,40.987 L12.186,42.755 L13.954,44.523 L14.207,44.776 L12.793,44.776 L11.841,43.824 L10.890,42.873 L9.122,41.105 L7.354,39.337 L5.586,37.569 L3.819,35.802 L2.051,34.034 L1.000,32.983 L1.000,34.397 L2.522,35.919 L4.290,37.687 L6.058,39.455 L7.826,41.223 L9.593,42.990 L10.486,43.883 L11.379,44.776 L9.964,44.776 L8.297,43.108 L6.529,41.341 L5.645,40.457 L4.761,39.573 L2.994,37.805 L1.226,36.037 L1.000,35.811 L1.000,37.226 L1.697,37.923 L3.465,39.691 L5.233,41.458 L7.001,43.226 L8.550,44.776 L7.136,44.776 L5.704,43.344 L3.936,41.576 L2.169,39.809 L1.000,38.640 L1.000,40.054 L2.640,41.694 L3.524,42.578 L4.408,43.462 L5.722,44.776 L4.308,44.776 L3.112,43.580 L1.344,41.812 L1.000,41.468 L1.000,42.882 L1.815,43.698 L2.893,44.776 L1.479,44.776 L1.000,44.297 L1.479,44.776 L1.000,44.297 L1.479,44.776 L1.000,44.297"/>
</svg>
