<svg xmlns="http://www.w3.org/2000/svg" viewBox="0 -12 66 66" width="256" height="256">
  <title>billiard</title>
  <rect x="0" y="-12" width="66" height="66" fill="#f5efe4"/>
  <path fill="none" stroke="#c8472f" stroke-width="0.4" stroke-linecap="round" stroke-linejoin="round" d="M1.000,41.000 L1.000,41.000 L3.462,41.000 L1.000,41.000 L3.462,41.000 L5.923,41.000 L3.462,41.000 L5.923,41.000 L8.385,41.000 L5.923,41.000 L8.385,41.000 L10.846,41.000 L8.385,41.000 L10.846,41.000 L13.308,41.000 L10.846,41.000 L13.308,41.000 L15.769,41.000 L13.308,41.000 L15.769,41.000 L18.231,41.000 L15.769,41.000 L18.231,41.000 L20.692,41.000 L18.231,41.000 L20.692,41.000 L23.154,41.000 L20.692,41.000 L23.154,41.000 L25.615,41.000 L23.154,41.000 L25.615,41.000 L28.077,41.000 L25.615,41.000 L28.077,41.000 L30.538,41.000 L28.077,41.000 L30.538,41.000 L33.000,41.000 L30.538,41.000 L33.000,41.000 L35.462,41.000 L33.000,41.000 L35.462,41.000 L37.923,41.000 L35.462,41.000 L37.923,41.000 L40.385,41.000 L37.923,41.000 L40.385,41.000 L42.846,41.000 L40.385,41.000 L42.846,41.000 L45.308,41.000 L42.846,41.000 L45.308,41.000 L47.769,41.000 L45.308,41.000 L47.769,41.000 L50.231,41.000 L47.769,41.000 L50.231,41.000 L52.692,41.000 L50.231,41.000 L52.692,41.000 L55.154,41.000 L52.692,41.000 L55.154,41.000 L57.615,41.000 L55.154,41.000 L57.615,41.000 L60.077,41.000 L57.615,41.000 L60.077,41.000 L62.538,41.000 L60.077,41.000 L62.538,41.000 L65.000,41.000 L62.538,41.000 L65.000,41.000 L65.000,38.500 L65.000,41.000 L65.000,38.500 L65.000,36.000 L65.000,38.500 L65.000,36.000 L65.000,33.500 L65.000,36.000 L65.000,33.500 L65.000,31.000 L65.000,33.500 L65.000,31.000 L65.000,28.500 L65.000,31.000 L65.000,28.500 L65.000,26.000 L65.000,28.500 L65.000,26.000 L65.000,23.500 L65.000,26.000 L65.000,23.500 L65.000,21.000 L65.000,23.500 L65.000,21.000 L65.000,18.500 L65.000,21.000 L65.000,18.500 L65.000,16.000 L65.000,18.500 L65.000,16.000 L65.000,13.500 L65.000,16.000 L65.000,13.500 L65.000,11.000 L65.000,13.500 L65.000,11.000 L65.000,8.500 L65.000,11.000 L65.000,8.500 L65.000,6.000 L65.000,8.500 L65.000,6.000 L65.000,3.500 L65.000,6.000 L65.000,3.500 L65.000,1.000 L65.000,3.500 L65.000,1.000 L62.538,1.000 L65.000,1.000 L62.538,1.000 L60.077,1.000 L62.538,1.000 L60.077,1.000 L57.615,1.000 L60.077,1.000 L57.615,1.000 L55.154,1.000 L57.615,1.000 L55.154,1.000 L52.692,1.000 L55.154,1.000 L52.692,1.000 L50.231,1.000 L52.692,1.000 L50.231,1.000 L47.769,1.000 L50.231,1.000 L47.769,1.000 L45.308,1.000 L47.769,1.000 L45.308,1.000 L42.846,1.000 L45.308,1.000 L42.846,1.000 L40.385,1.000 L42.846,1.000 L40.385,1.000 L37.923,1.000 L40.385,1.000 L37.923,1.000 L35.462,1.000 L37.923,1.000 L35.462,1.000 L33.000,1.000 L35.462,1.000 L33.000,1.000 L30.538,1.000 L33.000,1.000 L30.538,1.000 L28.077,1.000 L30.538,1.000 L28.077,1.000 L25.615,1.000 L28.077,1.000 L25.615,1.000 L23.154,1.000 L25.615,1.000 L23.154,1.000 L20.692,1.000 L23.154,1.000 L20.692,1.000 L18.231,1.000 L20.692,1.000 L18.231,1.000 L15.769,1.000 L18.231,1.000 L15.769,1.000 L13.308,1.000 L15.769,1.000 L13.308,1.000 L10.846,1.000 L13.308,1.000 L10.846,1.000 L8.385,1.000 L10.846,1.000 L8.385,1.000 L5.923,1.000 L8.385,1.000 L5.923,1.000 L3.462,1.000 L5.923,1.000 L3.462,1.000 L1.000,1.000 L3.462,1.000 L1.000,1.000 L1.000,3.500 L1.000,1.000 L1.000,3.500 L1.000,6.000 L1.000,3.500 L1.000,6.000 L1.000,8.500 L1.000,6.000 L1.000,8.500 L1.000,11.000 L1.000,8.500 L1.000,11.000 L1.000,13.500 L1.000,11.000 L1.000,13.500 L1.000,16.000 L1.000,13.500 L1.000,16.000 L1.000,18.500 L1.000,16.000 L1.000,18.500 L1.000,21.000 L1.000,18.500 L1.000,21.000 L1.000,23.500 L1.000,21.000 L1.000,23.500 L1.000,26.000 L1.000,23.500 L1.000,26.000 L1.000,28.500 L1.000,26.000 L1.000,28.500 L1.000,31.000 L1.000,28.500 L1.000,31.000 L1.000,33.500 L1.000,31.000 L1.000,33.500 L1.000,36.000 L1.000,33.500 L1.000,36.000 L1.000,38.500 L1.000,36.000 L1.000,38.500 L1.000,41.000 L1.000,38.500 L1.000,41.000 L1.000,40.300 L1.000,41.000 L1.000,40.300 L1.000,41.000 M6.500,32.700 L6.998,32.208 L6.500,32.700 L6.998,32.208 L6.500,32.700 L8.216,31.006 L9.931,29.311 L11.647,27.617 L13.363,25.922 L15.078,24.228 L16.794,22.533 L18.510,20.839 L20.225,19.144 L21.941,17.450 L23.657,15.756 L25.372,14.061 L27.088,12.367 L28.804,10.672 L30.519,8.978 L32.235,7.283 L33.951,5.589 L35.666,3.894 L37.382,2.200 L39.143,3.939 L40.904,5.679 L42.666,7.418 L44.427,9.158 L46.188,10.897 L47.949,12.637 L49.710,14.376 L51.472,16.115 L53.233,17.855 L54.994,19.594 L56.755,21.334 L58.516,23.073 L60.278,24.812 L62.039,26.552 L63.800,28.291 L62.135,29.935 L60.471,31.579 L58.806,33.224 L57.141,34.868 L55.477,36.512 L53.812,38.156 L52.147,39.800 L50.417,38.091 L48.686,36.382 L46.956,34.673 L45.225,32.964 L43.495,31.255 L41.764,29.545 L40.034,27.836 L38.303,26.127 L36.573,24.418 L34.842,22.709 L33.112,21.000 L31.381,19.291 L29.651,17.582 L27.920,15.873 L26.190,14.164 L24.459,12.455 L22.729,10.745 L20.998,9.036 L19.268,7.327 L17.537,5.618 L15.807,3.909 L14.076,2.200 L12.380,3.876 L10.683,5.551 L8.986,7.227 L7.290,8.902 L5.593,10.578 L3.897,12.254 L2.200,13.929 L3.946,15.654 L5.693,17.379 L7.439,19.103 L9.185,20.828 L10.932,22.553 L12.678,24.278 L14.424,26.002 L16.170,27.727 L17.917,29.452 L19.663,31.176 L21.409,32.901 L23.156,34.626 L24.902,36.351 L26.648,38.075 L28.395,39.800 L30.165,38.052 L31.935,36.303 L33.705,34.555 L35.476,32.807 L37.246,31.058 L39.016,29.310 L40.787,27.561 L42.557,25.813 L44.327,24.065 L46.097,22.316 L47.868,20.568 L49.638,18.820 L51.408,17.071 L53.178,15.323 L54.949,13.574 L56.719,11.826 L58.489,10.078 L60.259,8.329 L62.030,6.581 L63.800,4.833 L62.467,3.516 L61.134,2.200 L59.404,3.909 L57.673,5.618 L55.943,7.327 L54.212,9.036 L52.482,10.745 L50.751,12.455 L49.021,14.164 L47.290,15.873 L45.560,17.582 L43.829,19.291 L42.099,21.000 L40.368,22.709 L38.638,24.418 L36.908,26.127 L35.177,27.836 L33.447,29.545 L31.716,31.255 L29.986,32.964 L28.255,34.673 L26.525,36.382 L24.794,38.091 L23.064,39.800 L21.325,38.083 L19.586,36.366 L17.848,34.649 L16.109,32.932 L14.370,31.214 L12.632,29.497 L10.893,27.780 L9.155,26.063 L7.416,24.346 L5.677,22.629 L3.939,20.912 L2.200,19.195 L3.921,17.495 L5.641,15.796 L7.362,14.096 L9.083,12.397 L10.804,10.697 L12.524,8.998 L14.245,7.298 L15.966,5.599 L17.687,3.899 L19.407,2.200 L21.138,3.909 L22.868,5.618 L24.599,7.327 L26.329,9.036 L28.060,10.745 L29.790,12.455 L31.521,14.164 L33.251,15.873 L34.982,17.582 L36.712,19.291 L38.443,21.000 L40.173,22.709 L41.904,24.418 L43.634,26.127 L45.365,27.836 L47.095,29.545 L48.826,31.255 L50.556,32.964 L52.287,34.673 L54.017,36.382 L55.748,38.091 L57.478,39.800 L59.059,38.239 L60.639,36.678 L62.220,35.117 L63.800,33.556 L62.036,31.814 L60.272,30.072 L58.508,28.330 L56.745,26.588 L54.981,24.846 L53.217,23.104 L51.453,21.362 L49.689,19.620 L47.925,17.878 L46.162,16.136 L44.398,14.394 L42.634,12.652 L40.870,10.910 L39.106,9.168 L37.342,7.426 L35.579,5.684 L33.815,3.942 L32.051,2.200 L30.295,3.934 L28.539,5.668 L26.783,7.403 L25.027,9.137 L23.271,10.871 L21.515,12.605 L19.759,14.339 L18.003,16.074 L16.247,17.808 L14.492,19.542 L12.736,21.276 L10.980,23.011 L9.224,24.745 L7.468,26.479 L5.712,28.213 L3.956,29.947 L2.200,31.682 L3.844,33.305 L5.488,34.929 L7.132,36.553 L8.776,38.176 L10.420,39.800 L12.151,38.091 L13.881,36.382 L15.612,34.673 L17.342,32.964 L19.073,31.255 L20.803,29.545 L22.534,27.836 L24.264,26.127 L25.994,24.418 L27.725,22.709 L29.455,21.000 L31.186,19.291 L32.916,17.582 L34.647,15.873 L36.377,14.164 L38.108,12.455 L39.838,10.745 L41.569,9.036 L43.299,7.327 L45.030,5.618 L46.760,3.909 L48.491,2.200 L50.192,3.880 L51.893,5.560 L53.594,7.240 L55.295,8.920 L56.996,10.600 L58.697,12.280 L60.398,13.960 L62.099,15.640 L63.800,17.320 L62.049,19.049 L60.298,20.778 L58.547,22.507 L56.796,24.237 L55.045,25.966 L53.295,27.695 L51.544,29.424 L49.793,31.154 L48.042,32.883 L46.291,34.612 L44.540,36.341 L42.789,38.071 L41.038,39.800 L39.308,38.091 L37.577,36.382 L35.847,34.673 L34.116,32.964 L32.386,31.255 L30.655,29.545 L28.925,27.836 L27.194,26.127 L25.464,24.418 L23.733,22.709 L22.003,21.000 L20.272,19.291 L18.542,17.582 L16.811,15.873 L15.081,14.164 L13.350,12.455 L11.620,10.745 L9.889,9.036 L8.159,7.327 L6.428,5.618 L4.698,3.909 L2.967,2.200 L2.200,2.958 L3.976,4.712 L5.753,6.467 L7.529,8.221 L9.305,9.975 L11.082,11.730 L12.858,13.484 L14.635,15.239 L16.411,16.993 L18.187,18.747 L19.964,20.502 L21.740,22.256 L23.516,24.010 L25.293,25.765 L27.069,27.519 L28.845,29.274 L30.622,31.028 L32.398,32.782 L34.175,34.537 L35.951,36.291 L37.727,38.046 L39.504,39.800 L41.239,38.086 L42.975,36.372 L44.710,34.658 L46.445,32.944 L48.181,31.230 L49.916,29.516 L51.652,27.802 L53.387,26.088 L55.123,24.374 L56.858,22.660 L58.594,20.946 L60.329,19.232 L62.065,17.518 L63.800,15.804 L62.078,14.104 L60.356,12.403 L58.635,10.703 L56.913,9.002 L55.191,7.302 L53.469,5.601 L51.747,3.901 L50.025,2.200 L48.295,3.909 L46.564,5.618 L44.834,7.327 L43.104,9.036 L41.373,10.745 L39.643,12.455 L37.912,14.164 L36.182,15.873 L34.451,17.582 L32.721,19.291 L30.990,21.000 L29.260,22.709 L27.529,24.418 L25.799,26.127 L24.068,27.836 L22.338,29.545 L20.607,31.255 L18.877,32.964 L17.146,34.673 L15.416,36.382 L13.685,38.091 L11.955,39.800 L10.329,38.194 L8.703,36.589 L7.077,34.983 L5.452,33.377 L3.826,31.772 L2.200,30.166 L3.970,28.418 L5.740,26.670 L7.509,24.922 L9.279,23.175 L11.049,21.427 L12.819,19.679 L14.588,17.931 L16.358,16.183 L18.128,14.435 L19.898,12.687 L21.667,10.939 L23.437,9.192 L25.207,7.444 L26.977,5.696 L28.747,3.948 L30.516,2.200 L32.268,3.930 L34.020,5.660 L35.772,7.390 L37.523,9.120 L39.275,10.851 L41.027,12.581 L42.779,14.311 L44.530,16.041 L46.282,17.771 L48.034,19.501 L49.786,21.231 L51.538,22.961 L53.289,24.691 L55.041,26.421 L56.793,28.152 L58.545,29.882 L60.296,31.612 L62.048,33.342 L63.800,35.072 L62.204,36.648 L60.609,38.224 L59.013,39.800 L57.282,38.091 L55.552,36.382 L53.821,34.673 L52.091,32.964 L50.360,31.255 L48.630,29.545 L46.899,27.836 L45.169,26.127 L43.438,24.418 L41.708,22.709 L39.977,21.000 L38.247,19.291 L36.516,17.582 L34.786,15.873 L33.055,14.164 L31.325,12.455 L29.594,10.745 L27.864,9.036 L26.133,7.327 L24.403,5.618 L22.672,3.909 L20.942,2.200 L19.238,3.883 L17.534,5.565 L15.830,7.248 L14.127,8.931 L12.423,10.614 L10.719,12.296 L9.015,13.979 L7.311,15.662 L5.608,17.345 L3.904,19.027 L2.200,20.710 L3.957,22.446 L5.714,24.181 L7.472,25.916 L9.229,27.652 L10.986,29.387 L12.743,31.123 L14.500,32.858 L16.257,34.594 L18.015,36.329 L19.772,38.065 L21.529,39.800 L23.259,38.091 L24.990,36.382 L26.720,34.673 L28.451,32.964 L30.181,31.255 L31.912,29.545 L33.642,27.836 L35.373,26.127 L37.103,24.418 L38.834,22.709 L40.564,21.000 L42.295,19.291 L44.025,17.582 L45.756,15.873 L47.486,14.164 L49.217,12.455 L50.947,10.745 L52.678,9.036 L54.408,7.327 L56.139,5.618 L57.869,3.909 L59.600,2.200 L61.000,3.583 L62.400,4.965 L63.800,6.348 L62.106,8.021 L60.413,9.693 L58.719,11.366 L57.026,13.039 L55.332,14.711 L53.639,16.384 L51.945,18.056 L50.252,19.729 L48.558,21.401 L46.865,23.074 L45.171,24.747 L43.478,26.419 L41.784,28.092 L40.090,29.764 L38.397,31.437 L36.703,33.110 L35.010,34.782 L33.316,36.455 L31.623,38.127 L29.929,39.800 L28.196,38.088 L26.463,36.377 L24.730,34.665 L22.997,32.953 L21.264,31.242 L19.531,29.530 L17.798,27.819 L16.065,26.107 L14.332,24.395 L12.598,22.684 L10.865,20.972 L9.132,19.260 L7.399,17.549 L5.666,15.837 L3.933,14.125 L2.200,12.414 L3.924,10.711 L5.647,9.009 L7.371,7.307 L9.094,5.605 L10.818,3.902 L12.542,2.200 L14.272,3.909 L16.003,5.618 L17.733,7.327 L19.464,9.036 L21.194,10.745 L22.925,12.455 L24.655,14.164 L26.386,15.873 L28.116,17.582 L29.847,19.291 L31.577,21.000 L33.308,22.709 L35.038,24.418 L36.769,26.127 L38.499,27.836 L40.230,29.545 L41.960,31.255 L43.691,32.964 L45.421,34.673 L47.152,36.382 L48.882,38.091 L50.613,39.800 L52.261,38.172 L53.909,36.544 L55.558,34.916 L57.206,33.288 L58.855,31.660 L60.503,30.032 L62.152,28.404 L63.800,26.776 L62.023,25.020 L60.245,23.265 L58.468,21.509 L56.690,19.754 L54.913,17.999 L53.136,16.243 L51.358,14.488 L49.581,12.732 L47.803,10.977 L46.026,9.222 L44.249,7.466 L42.471,5.711 L40.694,3.955 L38.917,2.200 L37.168,3.927 L35.420,5.654 L33.671,7.380 L31.923,9.107 L30.174,10.834 L28.426,12.561 L26.678,14.287 L24.929,16.014 L23.181,17.741 L21.432,19.468 L19.684,21.195 L17.936,22.921 L16.187,24.648 L14.439,26.375 L12.690,28.102 L10.942,29.828 L9.194,31.555 L7.445,33.282 L5.697,35.009 L3.948,36.736 L2.200,38.462 L3.554,39.800 L5.285,38.091 L7.015,36.382 L8.746,34.673 L10.476,32.964 L12.207,31.255 L13.937,29.545 L15.668,27.836 L17.398,26.127 L19.129,24.418 L20.859,22.709 L22.590,21.000 L24.320,19.291 L26.051,17.582 L27.781,15.873 L29.512,14.164 L31.242,12.455 L32.973,10.745 L34.703,9.036 L36.434,7.327 L38.164,5.618 L39.895,3.909 L41.625,2.200 L43.331,3.885 L45.037,5.569 L46.743,7.254 L48.448,8.939 L50.154,10.623 L51.860,12.308 L53.566,13.993 L55.271,15.677 L56.977,17.362 L58.683,19.047 L60.389,20.731 L62.094,22.416 L63.800,24.100 L62.034,25.845 L60.268,27.589 L58.501,29.334 L56.735,31.078 L54.969,32.822 L53.203,34.567 L51.436,36.311 L49.670,38.056 L47.904,39.800 L46.173,38.091 L44.443,36.382 L42.712,34.673 L40.982,32.964 L39.251,31.255 L37.521,29.545 L35.790,27.836 L34.060,26.127 L32.329,24.418 L30.599,22.709 L28.868,21.000 L27.138,19.291 L25.407,17.582 L23.677,15.873 L21.946,14.164 L20.216,12.455 L18.485,10.745 L16.755,9.036 L15.024,7.327 L13.294,5.618 L11.563,3.909 L9.833,2.200 L8.306,3.708 L6.780,5.215 L5.253,6.723 L3.727,8.231 L2.200,9.739 L3.891,11.409 L5.582,13.079 L7.273,14.749 L8.964,16.419 L10.655,18.089 L12.346,19.759 L14.037,21.429 L15.728,23.099 L17.419,24.769 L19.110,26.439 L20.801,28.109 L22.492,29.780 L24.183,31.450 L25.874,33.120 L27.565,34.790 L29.256,36.460 L30.947,38.130 L32.638,39.800 L34.369,38.090 L36.100,36.380 L37.832,34.671 L39.563,32.961 L41.294,31.251 L43.025,29.541 L44.757,27.831 L46.488,26.122 L48.219,24.412 L49.950,22.702 L51.681,20.992 L53.413,19.282 L55.144,17.572 L56.875,15.863 L58.606,14.153 L60.338,12.443 L62.069,10.733 L63.800,9.023 L62.073,7.318 L60.346,5.612 L58.618,3.906 L56.891,2.200 L55.161,3.909 L53.430,5.618 L51.700,7.327 L49.969,9.036 L48.239,10.745 L46.508,12.455 L44.778,14.164 L43.047,15.873 L41.317,17.582 L39.586,19.291 L37.856,21.000 L36.125,22.709 L34.395,24.418 L32.664,26.127 L30.934,27.836 L29.203,29.545 L27.473,31.255 L25.742,32.964 L24.012,34.673 L22.281,36.382 L20.551,38.091 L18.820,39.800 L17.158,38.159 L15.496,36.517 L13.834,34.876 L12.172,33.234 L10.510,31.593 L8.848,29.951 L7.186,28.310 L5.524,26.668 L3.862,25.027 L2.200,23.385 L3.850,21.756 L5.500,20.126 L7.150,18.496 L8.800,16.867 L10.450,15.237 L12.100,13.607 L13.750,11.978 L15.400,10.348 L17.050,8.719 L18.700,7.089 L20.351,5.459 L22.001,3.830 L23.651,2.200 L25.381,3.909 L27.112,5.618 L28.842,7.327 L30.573,9.036 L32.303,10.745 L34.034,12.455 L35.764,14.164 L37.495,15.873 L39.225,17.582 L40.956,19.291 L42.686,21.000 L44.417,22.709 L46.147,24.418 L47.878,26.127 L49.608,27.836 L51.339,29.545 L53.069,31.255 L54.800,32.964 L56.530,34.673 L58.261,36.382 L59.991,38.091 L61.722,39.800 L62.761,38.774 L63.800,37.747 L62.086,36.055 L60.372,34.362 L58.658,32.669 L56.944,30.976 L55.230,29.284 L53.516,27.591 L51.803,25.898 L50.089,24.205 L48.375,22.513 L46.661,20.820 L44.947,19.127 L43.233,17.435 L41.519,15.742 L39.805,14.049 L38.091,12.356 L36.377,10.664 L34.663,8.971 L32.949,7.278 L31.235,5.585 L29.521,3.893 L27.808,2.200 L26.100,3.886 L24.393,5.572 L22.686,7.258 L20.979,8.944 L19.272,10.630 L17.565,12.316 L15.857,14.002 L14.150,15.688 L12.443,17.374 L10.736,19.061 L9.029,20.747 L7.322,22.433 L5.614,24.119 L3.907,25.805 L2.200,27.491 L3.758,29.029 L5.316,30.568 L6.874,32.107 L8.432,33.645 L9.990,35.184 L11.547,36.723 L13.105,38.261 L14.663,39.800 L16.394,38.091 L18.124,36.382 L19.855,34.673 L21.585,32.964 L23.316,31.255 L25.046,29.545 L26.777,27.836 L28.507,26.127 L30.238,24.418 L31.968,22.709 L33.699,21.000 L35.429,19.291 L37.160,17.582 L38.890,15.873 L40.621,14.164 L42.351,12.455 L44.082,10.745 L45.812,9.036 L47.543,7.327 L49.273,5.618 L51.004,3.909 L52.734,2.200 L54.315,3.761 L55.896,5.323 L57.477,6.884 L59.058,8.445 L60.638,10.006 L62.219,11.568 L63.800,13.129 L62.112,14.796 L60.424,16.463 L58.737,18.130 L57.049,19.797 L55.361,21.464 L53.673,23.131 L51.985,24.798 L50.297,26.464 L48.610,28.131 L46.922,29.798 L45.234,31.465 L43.546,33.132 L41.858,34.799 L40.171,36.466 L38.483,38.133 L36.795,39.800 L35.065,38.092 L33.335,36.383 L31.606,34.675 L29.876,32.967 L28.146,31.258 L26.416,29.550 L24.687,27.842 L22.957,26.133 L21.227,24.425 L19.497,22.717 L17.768,21.008 L16.038,19.300 L14.308,17.591 L12.578,15.883 L10.849,14.175 L9.119,12.466 L7.389,10.758 L5.659,9.050 L3.930,7.341 L2.200,5.633 L3.938,3.917 L5.676,2.200 L7.407,3.909 L9.137,5.618 L10.868,7.327 L12.598,9.036 L14.328,10.745 L16.059,12.455 L17.789,14.164 L19.520,15.873 L21.250,17.582 L22.981,19.291 L24.711,21.000 L26.442,22.709 L28.172,24.418 L29.903,26.127 L31.633,27.836 L33.364,29.545 L35.094,31.255 L36.825,32.964 L38.555,34.673 L40.286,36.382 L42.016,38.091 L43.747,39.800 L45.418,38.150 L47.089,36.499 L48.760,34.849 L50.431,33.198 L52.102,31.548 L53.773,29.897 L55.445,28.247 L57.116,26.597 L58.787,24.946 L60.458,23.296 L62.129,21.645 L63.800,19.995 L62.162,18.377 L60.524,16.760 L58.886,15.142 L57.248,13.524 L55.610,11.906 L53.972,10.289 L52.334,8.671 L50.696,7.053 L49.058,5.435 L47.420,3.818 L45.782,2.200 L44.052,3.909 L42.321,5.618 L40.591,7.327 L38.860,9.036 L37.130,10.745 L35.399,12.455 L33.669,14.164 L31.938,15.873 L30.208,17.582 L28.477,19.291 L26.747,21.000 L25.016,22.709 L23.286,24.418 L21.555,26.127 L19.825,27.836 L18.094,29.545 L16.364,31.255 L14.633,32.964 L12.903,34.673 L11.172,36.382 L9.442,38.091 L7.711,39.800 L6.333,38.439 L4.956,37.078 L3.578,35.718 L2.200,34.357 L3.914,32.664 L5.627,30.972 L7.341,29.279 L9.055,27.587 L10.768,25.895 L12.482,24.202 L14.196,22.510 L15.909,20.817 L17.623,19.125 L19.337,17.432 L21.050,15.740 L22.764,14.047 L24.478,12.355 L26.191,10.662 L27.905,8.970 L29.619,7.277 L31.332,5.585 L33.046,3.892 L34.760,2.200 L36.468,3.887 L38.176,5.574 L39.884,7.261 L41.593,8.949 L43.301,10.636 L45.009,12.323 L46.717,14.010 L48.426,15.697 L50.134,17.384 L51.842,19.071 L53.550,20.758 L55.259,22.446 L56.967,24.133 L58.675,25.820 L60.383,27.507 L62.092,29.194 L63.800,30.881 L62.295,32.368 L60.790,33.854 L59.285,35.341 L57.780,36.827 L56.275,38.314 L54.770,39.800 L53.039,38.091 L51.309,36.382 L49.578,34.673 L47.848,32.964 L46.117,31.255 L44.387,29.545 L42.656,27.836 L40.926,26.127 L39.195,24.418 L37.465,22.709 L35.734,21.000 L34.004,19.291 L32.273,17.582 L30.543,15.873 L28.812,14.164 L27.082,12.455 L25.351,10.745 L23.621,9.036 L21.890,7.327 L20.160,5.618 L18.429,3.909 L16.699,2.200 L15.088,3.791 L13.477,5.382 L11.866,6.973 L10.255,8.564 L8.644,10.155 L7.033,11.746 L5.422,13.337 L3.811,14.928 L2.200,16.519 L3.884,18.182 L5.567,19.845 L7.251,21.508 L8.935,23.171 L10.619,24.834 L12.302,26.497 L13.986,28.160 L15.670,29.823 L17.354,31.485 L19.037,33.148 L20.721,34.811 L22.405,36.474 L24.089,38.137 L25.772,39.800 L27.501,38.093 L29.229,36.386 L30.958,34.679 L32.686,32.971 L34.415,31.264 L36.143,29.557 L37.872,27.850 L39.601,26.143 L41.329,24.436 L43.058,22.728 L44.786,21.021 L46.515,19.314 L48.243,17.607 L49.972,15.900 L51.700,14.193 L53.429,12.486 L55.157,10.778 L56.886,9.071 L58.614,7.364 L60.343,5.657 L62.071,3.950 L63.800,2.243 L62.026,3.909 L60.296,5.618 L58.565,7.327 L56.835,9.036 L55.104,10.745 L53.374,12.455 L51.643,14.164 L49.913,15.873 L48.182,17.582 L46.452,19.291 L44.721,21.000 L42.991,22.709 L41.260,24.418 L39.530,26.127 L37.799,27.836 L36.069,29.545 L34.338,31.255 L32.608,32.964 L30.877,34.673 L29.147,36.382 L27.416,38.091 L25.686,39.800 L24.008,38.143 L22.331,36.486 L20.653,34.830 L18.976,33.173 L17.298,31.516 L15.621,29.859 L13.943,28.202 L12.265,26.545 L10.588,24.889 L8.910,23.232 L7.233,21.575 L5.555,19.918 L3.878,18.261 L2.200,16.605 L3.821,15.004 L5.441,13.404 L7.062,11.803 L8.682,10.203 L10.303,8.602 L11.923,7.002 L13.544,5.401 L15.164,3.801 L16.785,2.200 L18.515,3.909 L20.246,5.618 L21.976,7.327 L23.707,9.036 L25.437,10.745 L27.168,12.455 L28.898,14.164 L30.629,15.873 L32.359,17.582 L34.090,19.291 L35.820,21.000 L37.551,22.709 L39.281,24.418 L41.012,26.127 L42.742,27.836 L44.473,29.545 L46.203,31.255 L47.934,32.964 L49.664,34.673 L51.395,36.382 L53.125,38.091 L54.856,39.800 L56.347,38.328 L57.837,36.855 L59.328,35.383 L60.819,33.911 L62.309,32.439 L63.800,30.966 L62.087,29.274 L60.373,27.582 L58.660,25.890 L56.947,24.198 L55.233,22.506 L53.520,20.814 L51.807,19.121 L50.093,17.429 L48.380,15.737 L46.667,14.045 L44.953,12.353 L43.240,10.661 L41.527,8.969 L39.813,7.276 L38.100,5.584 L36.387,3.892 L34.673,2.200 L32.964,3.888 L31.255,5.576 L29.546,7.264 L27.837,8.952 L26.128,10.640 L24.419,12.328 L22.709,14.016 L21.000,15.704 L19.291,17.392 L17.582,19.080 L15.873,20.768 L14.164,22.456 L12.455,24.144 L10.746,25.832 L9.036,27.520 L7.327,29.208 L5.618,30.896 L3.909,32.584 L2.200,34.272 L3.599,35.654 L4.999,37.036 L6.398,38.418 L7.798,39.800 L9.528,38.091 L11.259,36.382 L12.989,34.673 L14.720,32.964 L16.450,31.255 L18.181,29.545 L19.911,27.836 L21.642,26.127 L23.372,24.418 L25.103,22.709 L26.833,21.000 L28.564,19.291 L30.294,17.582 L32.025,15.873 L33.755,14.164 L35.486,12.455 L37.216,10.745 L38.947,9.036 L40.677,7.327 L42.408,5.618 L44.138,3.909 L45.869,2.200 L47.499,3.810 L49.129,5.420 L50.759,7.030 L52.389,8.640 L54.019,10.250 L55.649,11.860 L57.279,13.470 L58.910,15.080 L60.540,16.690 L62.170,18.300 L63.800,19.910 L62.122,21.567 L60.443,23.225 L58.765,24.882 L57.087,26.540 L55.409,28.197 L53.730,29.855 L52.052,31.512 L50.374,33.170 L48.695,34.827 L47.017,36.485 L45.339,38.142 L43.661,39.800 L41.930,38.091 L40.200,36.382 L38.469,34.673 L36.739,32.964 L35.008,31.255 L33.278,29.545 L31.547,27.836 L29.817,26.127 L28.086,24.418 L26.356,22.709 L24.625,21.000 L22.895,19.291 L21.164,17.582 L19.434,15.873 L17.703,14.164 L15.973,12.455 L14.242,10.745 L12.512,9.036 L10.781,7.327 L9.051,5.618 L7.320,3.909 L5.590,2.200 L3.895,3.874 L2.200,5.548 L3.934,7.260 L5.668,8.973 L7.402,10.686 L9.136,12.398 L10.870,14.111 L12.604,15.823 L14.338,17.536 L16.072,19.249 L17.807,20.961 L19.541,22.674 L21.275,24.386 L23.009,26.099 L24.743,27.812 L26.477,29.524 L28.211,31.237 L29.945,32.950 L31.679,34.662 L33.413,36.375 L35.147,38.087 L36.881,39.800 L36.383,39.308 L36.881,39.800 L36.383,39.308 L36.881,39.800"/>
</svg>
