<svg xmlns="http://www.w3.org/2000/svg" viewBox="0 0 76.739 76.739" width="256" height="256">
  <title>bloom</title>
  <rect x="0" y="0" width="76.739" height="76.739" fill="#f5efe4"/>
  <path fill="none" stroke="#c8472f" stroke-width="0.4" stroke-linecap="round" stroke-linejoin="round" d="M36.877,37.969 L36.877,37.269 L36.877,37.969 L36.877,37.269 L36.877,37.969 L36.877,36.269 L36.877,34.569 L37.172,32.895 L37.467,31.221 L38.048,29.624 L38.630,28.026 L39.480,26.554 L40.330,25.082 L41.423,23.779 L42.515,22.477 L43.818,21.384 L45.120,20.292 L46.592,19.442 L48.064,18.592 L49.662,18.010 L51.259,17.429 L52.933,17.133 L54.608,16.838 L56.308,16.838 L58.008,16.838 L59.682,17.133 L61.356,17.429 L62.953,18.010 L64.551,18.592 L66.023,19.442 L67.495,20.292 L68.798,21.384 L70.100,22.477 L71.193,23.779 L72.285,25.082 L73.135,26.554 L73.985,28.026 L74.567,29.624 L75.148,31.221 L75.444,32.895 L75.739,34.569 L75.739,36.269 L75.739,37.969 L75.444,39.644 L75.148,41.318 L74.567,42.915 L73.985,44.513 L73.135,45.985 L72.285,47.457 L71.193,48.759 L70.100,50.062 L68.798,51.154 L67.495,52.247 L66.023,53.097 L64.551,53.947 L62.953,54.529 L61.356,55.110 L59.682,55.405 L58.008,55.700 L56.308,55.700 L54.608,55.700 L52.933,55.405 L51.259,55.110 L49.662,54.529 L48.064,53.947 L46.592,53.097 L45.120,52.247 L43.818,51.154 L42.515,50.062 L41.423,48.759 L40.330,47.457 L39.480,45.985 L38.630,44.513 L38.048,42.915 L37.467,41.318 L37.172,39.644 L36.877,37.969 L37.277,37.277 L38.127,35.804 L38.977,34.332 L40.069,33.030 L41.162,31.727 L42.464,30.635 L43.767,29.542 L45.239,28.692 L46.711,27.842 L48.309,27.261 L49.906,26.679 L51.580,26.384 L53.254,26.089 L54.954,26.089 L56.654,26.089 L58.329,26.384 L60.003,26.679 L61.600,27.261 L63.198,27.842 L64.670,28.692 L66.142,29.542 L67.444,30.635 L68.747,31.727 L69.839,33.030 L70.932,34.332 L71.782,35.804 L72.632,37.277 L73.214,38.874 L73.795,40.471 L74.090,42.146 L74.385,43.820 L74.385,45.520 L74.385,47.220 L74.090,48.894 L73.795,50.568 L73.214,52.166 L72.632,53.763 L71.782,55.235 L70.932,56.708 L69.839,58.010 L68.747,59.312 L67.444,60.405 L66.142,61.498 L64.670,62.348 L63.198,63.198 L61.600,63.779 L60.003,64.361 L58.329,64.656 L56.654,64.951 L54.954,64.951 L53.254,64.951 L51.580,64.656 L49.906,64.361 L48.309,63.779 L46.711,63.198 L45.239,62.348 L43.767,61.498 L42.464,60.405 L41.162,59.312 L40.069,58.010 L38.977,56.708 L38.127,55.235 L37.277,53.763 L36.695,52.166 L36.114,50.568 L35.818,48.894 L35.523,47.220 L35.523,45.520 L35.523,43.820 L35.818,42.146 L36.114,40.471 L36.695,38.874 L37.277,37.277 L37.969,36.877 L39.442,36.027 L40.914,35.177 L42.511,34.595 L44.109,34.014 L45.783,33.718 L47.457,33.423 L49.157,33.423 L50.857,33.423 L52.531,33.718 L54.205,34.014 L55.803,34.595 L57.400,35.177 L58.873,36.027 L60.345,36.877 L61.647,37.969 L62.949,39.062 L64.042,40.364 L65.135,41.667 L65.985,43.139 L66.835,44.611 L67.416,46.209 L67.998,47.806 L68.293,49.480 L68.588,51.154 L68.588,52.854 L68.588,54.554 L68.293,56.229 L67.998,57.903 L67.416,59.500 L66.835,61.098 L65.985,62.570 L65.135,64.042 L64.042,65.344 L62.949,66.647 L61.647,67.739 L60.345,68.832 L58.873,69.682 L57.400,70.532 L55.803,71.114 L54.205,71.695 L52.531,71.990 L50.857,72.285 L49.157,72.285 L47.457,72.285 L45.783,71.990 L44.109,71.695 L42.511,71.114 L40.914,70.532 L39.442,69.682 L37.969,68.832 L36.667,67.739 L35.365,66.647 L34.272,65.344 L33.179,64.042 L32.329,62.570 L31.479,61.098 L30.898,59.500 L30.316,57.903 L30.021,56.229 L29.726,54.554 L29.726,52.854 L29.726,51.154 L30.021,49.480 L30.316,47.806 L30.898,46.209 L31.479,44.611 L32.329,43.139 L33.179,41.667 L34.272,40.364 L35.365,39.062 L36.667,37.969 L37.969,36.877 L38.769,36.877 L40.469,36.877 L42.169,36.877 L43.844,37.172 L45.518,37.467 L47.115,38.048 L48.713,38.630 L50.185,39.480 L51.657,40.330 L52.959,41.423 L54.262,42.515 L55.354,43.818 L56.447,45.120 L57.297,46.592 L58.147,48.064 L58.729,49.662 L59.310,51.259 L59.605,52.933 L59.900,54.608 L59.900,56.308 L59.900,58.008 L59.605,59.682 L59.310,61.356 L58.729,62.953 L58.147,64.551 L57.297,66.023 L56.447,67.495 L55.354,68.798 L54.262,70.100 L52.959,71.193 L51.657,72.285 L50.185,73.135 L48.713,73.985 L47.115,74.567 L45.518,75.148 L43.844,75.444 L42.169,75.739 L40.469,75.739 L38.769,75.739 L37.095,75.444 L35.421,75.148 L33.824,74.567 L32.226,73.985 L30.754,73.135 L29.282,72.285 L27.979,71.193 L26.677,70.100 L25.584,68.798 L24.492,67.495 L23.642,66.023 L22.792,64.551 L22.210,62.953 L21.629,61.356 L21.333,59.682 L21.038,58.008 L21.038,56.308 L21.038,54.608 L21.333,52.933 L21.629,51.259 L22.210,49.662 L22.792,48.064 L23.642,46.592 L24.492,45.120 L25.584,43.818 L26.677,42.515 L27.979,41.423 L29.282,40.330 L30.754,39.480 L32.226,38.630 L33.824,38.048 L35.421,37.467 L37.095,37.172 L38.769,36.877 L39.462,37.277 L40.934,38.127 L42.407,38.977 L43.709,40.069 L45.011,41.162 L46.104,42.464 L47.197,43.767 L48.047,45.239 L48.897,46.711 L49.478,48.309 L50.060,49.906 L50.355,51.580 L50.650,53.254 L50.650,54.954 L50.650,56.654 L50.355,58.329 L50.060,60.003 L49.478,61.600 L48.897,63.198 L48.047,64.670 L47.197,66.142 L46.104,67.444 L45.011,68.747 L43.709,69.839 L42.407,70.932 L40.934,71.782 L39.462,72.632 L37.865,73.214 L36.267,73.795 L34.593,74.090 L32.919,74.385 L31.219,74.385 L29.519,74.385 L27.845,74.090 L26.171,73.795 L24.573,73.214 L22.976,72.632 L21.503,71.782 L20.031,70.932 L18.729,69.839 L17.427,68.747 L16.334,67.444 L15.241,66.142 L14.391,64.670 L13.541,63.198 L12.960,61.600 L12.378,60.003 L12.083,58.329 L11.788,56.654 L11.788,54.954 L11.788,53.254 L12.083,51.580 L12.378,49.906 L12.960,48.309 L13.541,46.711 L14.391,45.239 L15.241,43.767 L16.334,42.464 L17.427,41.162 L18.729,40.069 L20.031,38.977 L21.503,38.127 L22.976,37.277 L24.573,36.695 L26.171,36.114 L27.845,35.818 L29.519,35.523 L31.219,35.523 L32.919,35.523 L34.593,35.818 L36.267,36.114 L37.865,36.695 L39.462,37.277 L39.862,37.969 L40.712,39.442 L41.562,40.914 L42.144,42.511 L42.725,44.109 L43.020,45.783 L43.315,47.457 L43.315,49.157 L43.315,50.857 L43.020,52.531 L42.725,54.205 L42.144,55.803 L41.562,57.400 L40.712,58.873 L39.862,60.345 L38.769,61.647 L37.677,62.949 L36.374,64.042 L35.072,65.135 L33.600,65.985 L32.128,66.835 L30.530,67.416 L28.933,67.998 L27.259,68.293 L25.584,68.588 L23.884,68.588 L22.184,68.588 L20.510,68.293 L18.836,67.998 L17.239,67.416 L15.641,66.835 L14.169,65.985 L12.697,65.135 L11.394,64.042 L10.092,62.949 L8.999,61.647 L7.907,60.345 L7.057,58.873 L6.207,57.400 L5.625,55.803 L5.044,54.205 L4.748,52.531 L4.453,50.857 L4.453,49.157 L4.453,47.457 L4.748,45.783 L5.044,44.109 L5.625,42.511 L6.207,40.914 L7.057,39.442 L7.907,37.969 L8.999,36.667 L10.092,35.365 L11.394,34.272 L12.697,33.179 L14.169,32.329 L15.641,31.479 L17.239,30.898 L18.836,30.316 L20.510,30.021 L22.184,29.726 L23.884,29.726 L25.584,29.726 L27.259,30.021 L28.933,30.316 L30.530,30.898 L32.128,31.479 L33.600,32.329 L35.072,33.179 L36.374,34.272 L37.677,35.365 L38.769,36.667 L39.862,37.969 L39.862,38.769 L39.862,40.469 L39.862,42.169 L39.567,43.844 L39.272,45.518 L38.690,47.115 L38.109,48.713 L37.259,50.185 L36.409,51.657 L35.316,52.959 L34.223,54.262 L32.921,55.354 L31.619,56.447 L30.147,57.297 L28.674,58.147 L27.077,58.729 L25.479,59.310 L23.805,59.605 L22.131,59.900 L20.431,59.900 L18.731,59.900 L17.057,59.605 L15.383,59.310 L13.785,58.729 L12.188,58.147 L10.716,57.297 L9.243,56.447 L7.941,55.354 L6.639,54.262 L5.546,52.959 L4.453,51.657 L3.603,50.185 L2.753,48.713 L2.172,47.115 L1.590,45.518 L1.295,43.844 L1.000,42.169 L1.000,40.469 L1.000,38.769 L1.295,37.095 L1.590,35.421 L2.172,33.824 L2.753,32.226 L3.603,30.754 L4.453,29.282 L5.546,27.979 L6.639,26.677 L7.941,25.584 L9.243,24.492 L10.716,23.642 L12.188,22.792 L13.785,22.210 L15.383,21.629 L17.057,21.333 L18.731,21.038 L20.431,21.038 L22.131,21.038 L23.805,21.333 L25.479,21.629 L27.077,22.210 L28.674,22.792 L30.147,23.642 L31.619,24.492 L32.921,25.584 L34.223,26.677 L35.316,27.979 L36.409,29.282 L37.259,30.754 L38.109,32.226 L38.690,33.824 L39.272,35.421 L39.567,37.095 L39.862,38.769 L39.462,39.462 L38.612,40.934 L37.762,42.407 L36.669,43.709 L35.577,45.011 L34.274,46.104 L32.972,47.197 L31.500,48.047 L30.028,48.897 L28.430,49.478 L26.833,50.060 L25.159,50.355 L23.484,50.650 L21.784,50.650 L20.084,50.650 L18.410,50.355 L16.736,50.060 L15.139,49.478 L13.541,48.897 L12.069,48.047 L10.597,47.197 L9.294,46.104 L7.992,45.011 L6.899,43.709 L5.807,42.407 L4.957,40.934 L4.107,39.462 L3.525,37.865 L2.944,36.267 L2.648,34.593 L2.353,32.919 L2.353,31.219 L2.353,29.519 L2.648,27.845 L2.944,26.171 L3.525,24.573 L4.107,22.976 L4.957,21.503 L5.807,20.031 L6.899,18.729 L7.992,17.427 L9.294,16.334 L10.597,15.241 L12.069,14.391 L13.541,13.541 L15.139,12.960 L16.736,12.378 L18.410,12.083 L20.084,11.788 L21.784,11.788 L23.484,11.788 L25.159,12.083 L26.833,12.378 L28.430,12.960 L30.028,13.541 L31.500,14.391 L32.972,15.241 L34.274,16.334 L35.577,17.427 L36.669,18.729 L37.762,20.031 L38.612,21.503 L39.462,22.976 L40.044,24.573 L40.625,26.171 L40.920,27.845 L41.215,29.519 L41.215,31.219 L41.215,32.919 L40.920,34.593 L40.625,36.267 L40.044,37.865 L39.462,39.462 L38.769,39.862 L37.297,40.712 L35.825,41.562 L34.227,42.144 L32.630,42.725 L30.956,43.020 L29.282,43.315 L27.582,43.315 L25.882,43.315 L24.207,43.020 L22.533,42.725 L20.936,42.144 L19.338,41.562 L17.866,40.712 L16.394,39.862 L15.092,38.769 L13.789,37.677 L12.696,36.374 L11.604,35.072 L10.754,33.600 L9.904,32.128 L9.322,30.530 L8.741,28.933 L8.446,27.259 L8.150,25.584 L8.150,23.884 L8.150,22.184 L8.446,20.510 L8.741,18.836 L9.322,17.239 L9.904,15.641 L10.754,14.169 L11.604,12.697 L12.696,11.394 L13.789,10.092 L15.092,8.999 L16.394,7.907 L17.866,7.057 L19.338,6.207 L20.936,5.625 L22.533,5.044 L24.207,4.748 L25.882,4.453 L27.582,4.453 L29.282,4.453 L30.956,4.748 L32.630,5.044 L34.227,5.625 L35.825,6.207 L37.297,7.057 L38.769,7.907 L40.072,8.999 L41.374,10.092 L42.467,11.394 L43.559,12.697 L44.409,14.169 L45.259,15.641 L45.841,17.239 L46.422,18.836 L46.717,20.510 L47.013,22.184 L47.013,23.884 L47.013,25.584 L46.717,27.259 L46.422,28.933 L45.841,30.530 L45.259,32.128 L44.409,33.600 L43.559,35.072 L42.467,36.374 L41.374,37.677 L40.072,38.769 L38.769,39.862 L37.969,39.862 L36.269,39.862 L34.569,39.862 L32.895,39.567 L31.221,39.272 L29.624,38.690 L28.026,38.109 L26.554,37.259 L25.082,36.409 L23.779,35.316 L22.477,34.223 L21.384,32.921 L20.292,31.619 L19.442,30.147 L18.592,28.674 L18.010,27.077 L17.429,25.479 L17.133,23.805 L16.838,22.131 L16.838,20.431 L16.838,18.731 L17.133,17.057 L17.429,15.383 L18.010,13.785 L18.592,12.188 L19.442,10.716 L20.292,9.243 L21.384,7.941 L22.477,6.639 L23.779,5.546 L25.082,4.453 L26.554,3.603 L28.026,2.753 L29.624,2.172 L31.221,1.590 L32.895,1.295 L34.569,1.000 L36.269,1.000 L37.969,1.000 L39.644,1.295 L41.318,1.590 L42.915,2.172 L44.513,2.753 L45.985,3.603 L47.457,4.453 L48.759,5.546 L50.062,6.639 L51.154,7.941 L52.247,9.243 L53.097,10.716 L53.947,12.188 L54.529,13.785 L55.110,15.383 L55.405,17.057 L55.700,18.731 L55.700,20.431 L55.700,22.131 L55.405,23.805 L55.110,25.479 L54.529,27.077 L53.947,28.674 L53.097,30.147 L52.247,31.619 L51.154,32.921 L50.062,34.223 L48.759,35.316 L47.457,36.409 L45.985,37.259 L44.513,38.109 L42.915,38.690 L41.318,39.272 L39.644,39.567 L37.969,39.862 L37.277,39.462 L35.804,38.612 L34.332,37.762 L33.030,36.669 L31.727,35.577 L30.635,34.274 L29.542,32.972 L28.692,31.500 L27.842,30.028 L27.261,28.430 L26.679,26.833 L26.384,25.159 L26.089,23.484 L26.089,21.784 L26.089,20.084 L26.384,18.410 L26.679,16.736 L27.261,15.139 L27.842,13.541 L28.692,12.069 L29.542,10.597 L30.635,9.294 L31.727,7.992 L33.030,6.899 L34.332,5.807 L35.804,4.957 L37.277,4.107 L38.874,3.525 L40.471,2.944 L42.146,2.648 L43.820,2.353 L45.520,2.353 L47.220,2.353 L48.894,2.648 L50.568,2.944 L52.166,3.525 L53.763,4.107 L55.235,4.957 L56.708,5.807 L58.010,6.899 L59.312,7.992 L60.405,9.294 L61.498,10.597 L62.348,12.069 L63.198,13.541 L63.779,15.139 L64.361,16.736 L64.656,18.410 L64.951,20.084 L64.951,21.784 L64.951,23.484 L64.656,25.159 L64.361,26.833 L63.779,28.430 L63.198,30.028 L62.348,31.500 L61.498,32.972 L60.405,34.274 L59.312,35.577 L58.010,36.669 L56.708,37.762 L55.235,38.612 L53.763,39.462 L52.166,40.044 L50.568,40.625 L48.894,40.920 L47.220,41.215 L45.520,41.215 L43.820,41.215 L42.146,40.920 L40.471,40.625 L38.874,40.044 L37.277,39.462 L36.877,38.769 L36.027,37.297 L35.177,35.825 L34.595,34.227 L34.014,32.630 L33.718,30.956 L33.423,29.282 L33.423,27.582 L33.423,25.882 L33.718,24.207 L34.014,22.533 L34.595,20.936 L35.177,19.338 L36.027,17.866 L36.877,16.394 L37.969,15.092 L39.062,13.789 L40.364,12.696 L41.667,11.604 L43.139,10.754 L44.611,9.904 L46.209,9.322 L47.806,8.741 L49.480,8.446 L51.154,8.150 L52.854,8.150 L54.554,8.150 L56.229,8.446 L57.903,8.741 L59.500,9.322 L61.098,9.904 L62.570,10.754 L64.042,11.604 L65.344,12.696 L66.647,13.789 L67.739,15.092 L68.832,16.394 L69.682,17.866 L70.532,19.338 L71.114,20.936 L71.695,22.533 L71.990,24.207 L72.285,25.882 L72.285,27.582 L72.285,29.282 L71.990,30.956 L71.695,32.630 L71.114,34.227 L70.532,35.825 L69.682,37.297 L68.832,38.769 L67.739,40.072 L66.647,41.374 L65.344,42.467 L64.042,43.559 L62.570,44.409 L61.098,45.259 L59.500,45.841 L57.903,46.422 L56.229,46.717 L54.554,47.013 L52.854,47.013 L51.154,47.013 L49.480,46.717 L47.806,46.422 L46.209,45.841 L44.611,45.259 L43.139,44.409 L41.667,43.559 L40.364,42.467 L39.062,41.374 L37.969,40.072 L36.877,38.769 L36.877,37.969 L36.877,38.669 L36.877,37.969 L36.877,38.669 L36.877,37.969"/>
</svg>
