<svg xmlns="http://www.w3.org/2000/svg" viewBox="0 0 62 62" width="256" height="256">
  <title>boustrophedon</title>
  <rect x="0" y="0" width="62" height="62" fill="#f5efe4"/>
  <path fill="none" stroke="#c8472f" stroke-width="0.4" stroke-linecap="round" stroke-linejoin="round" d="M1.000,61.000 L1.000,61.000 L1.000,59.000 L1.000,57.000 L1.000,55.000 L1.000,53.000 L1.000,51.000 L1.000,49.000 L1.000,47.000 L1.000,45.000 L1.000,43.000 L1.000,41.000 L1.000,39.000 L1.000,37.000 L1.000,35.000 L1.000,33.000 L1.000,31.000 L1.000,29.000 L1.000,27.000 L1.000,25.000 L1.000,23.000 L1.000,21.000 L1.000,19.000 L1.000,17.000 L1.000,15.000 L1.000,13.000 L1.000,11.000 L1.000,9.000 L1.000,7.000 L1.000,5.000 L1.000,3.000 L1.000,1.000 L2.000,1.000 L2.000,3.000 L2.000,5.000 L2.000,7.000 L2.000,9.000 L2.000,11.000 L2.000,13.000 L2.000,15.000 L2.000,17.000 L2.000,19.000 L2.000,21.000 L2.000,23.000 L2.000,25.000 L2.000,27.000 L2.000,29.000 L2.000,31.000 L2.000,33.000 L2.000,35.000 L2.000,37.000 L2.000,39.000 L2.000,41.000 L2.000,43.000 L2.000,45.000 L2.000,47.000 L2.000,49.000 L2.000,51.000 L2.000,53.000 L2.000,55.000 L2.000,57.000 L2.000,59.000 L2.000,61.000 L3.000,61.000 L3.000,59.000 L3.000,57.000 L3.000,55.000 L3.000,53.000 L3.000,51.000 L3.000,49.000 L3.000,47.000 L3.000,45.000 L3.000,43.000 L3.000,41.000 L3.000,39.000 L3.000,37.000 L3.000,35.000 L3.000,33.000 L3.000,31.000 L3.000,29.000 L3.000,27.000 L3.000,25.000 L3.000,23.000 L3.000,21.000 L3.000,19.000 L3.000,17.000 L3.000,15.000 L3.000,13.000 L3.000,11.000 L3.000,9.000 L3.000,7.000 L3.000,5.000 L3.000,3.000 L3.000,1.000 L4.000,1.000 L4.000,3.000 L4.000,5.000 L4.000,7.000 L4.000,9.000 L4.000,11.000 L4.000,13.000 L4.000,15.000 L4.000,17.000 L4.000,19.000 L4.000,21.000 L4.000,23.000 L4.000,25.000 L4.000,27.000 L4.000,29.000 L4.000,31.000 L4.000,33.000 L4.000,35.000 L4.000,37.000 L4.000,39.000 L4.000,41.000 L4.000,43.000 L4.000,45.000 L4.000,47.000 L4.000,49.000 L4.000,51.000 L4.000,53.000 L4.000,55.000 L4.000,57.000 L4.000,59.000 L4.000,61.000 L5.000,61.000 L5.000,59.000 L5.000,57.000 L5.000,55.000 L5.000,53.000 L5.000,51.000 L5.000,49.000 L5.000,47.000 L5.000,45.000 L5.000,43.000 L5.000,41.000 L5.000,39.000 L5.000,37.000 L5.000,35.000 L5.000,33.000 L5.000,31.000 L5.000,29.000 L5.000,27.000 L5.000,25.000 L5.000,23.000 L5.000,21.000 L5.000,19.000 L5.000,17.000 L5.000,15.000 L5.000,13.000 L5.000,11.000 L5.000,9.000 L5.000,7.000 L5.000,5.000 L5.000,3.000 L5.000,1.000 L6.000,1.000 L6.000,3.000 L6.000,5.000 L6.000,7.000 L6.000,9.000 L6.000,11.000 L6.000,13.000 L6.000,15.000 L6.000,17.000 L6.000,19.000 L6.000,21.000 L6.000,23.000 L6.000,25.000 L6.000,27.000 L6.000,29.000 L6.000,31.000 L6.000,33.000 L6.000,35.000 L6.000,37.000 L6.000,39.000 L6.000,41.000 L6.000,43.000 L6.000,45.000 L6.000,47.000 L6.000,49.000 L6.000,51.000 L6.000,53.000 L6.000,55.000 L6.000,57.000 L6.000,59.000 L6.000,61.000 L7.000,61.000 L7.000,59.000 L7.000,57.000 L7.000,55.000 L7.000,53.000 L7.000,51.000 L7.000,49.000 L7.000,47.000 L7.000,45.000 L7.000,43.000 L7.000,41.000 L7.000,39.000 L7.000,37.000 L7.000,35.000 L7.000,33.000 L7.000,31.000 L7.000,29.000 L7.000,27.000 L7.000,25.000 L7.000,23.000 L7.000,21.000 L7.000,19.000 L7.000,17.000 L7.000,15.000 L7.000,13.000 L7.000,11.000 L7.000,9.000 L7.000,7.000 L7.000,5.000 L7.000,3.000 L7.000,1.000 L8.000,1.000 L8.000,3.000 L8.000,5.000 L8.000,7.000 L8.000,9.000 L8.000,11.000 L8.000,13.000 L8.000,15.000 L8.000,17.000 L8.000,19.000 L8.000,21.000 L8.000,23.000 L8.000,25.000 L8.000,27.000 L8.000,29.000 L8.000,31.000 L8.000,33.000 L8.000,35.000 L8.000,37.000 L8.000,39.000 L8.000,41.000 L8.000,43.000 L8.000,45.000 L8.000,47.000 L8.000,49.000 L8.000,51.000 L8.000,53.000 L8.000,55.000 L8.000,57.000 L8.000,59.000 L8.000,61.000 L9.000,61.000 L9.000,59.000 L9.000,57.000 L9.000,55.000 L9.000,53.000 L9.000,51.000 L9.000,49.000 L9.000,47.000 L9.000,45.000 L9.000,43.000 L9.000,41.000 L9.000,39.000 L9.000,37.000 L9.000,35.000 L9.000,33.000 L9.000,31.000 L9.000,29.000 L9.000,27.000 L9.000,25.000 L9.000,23.000 L9.000,21.000 L9.000,19.000 L9.000,17.000 L9.000,15.000 L9.000,13.000 L9.000,11.000 L9.000,9.000 L9.000,7.000 L9.000,5.000 L9.000,3.000 L9.000,1.000 L10.000,1.000 L10.000,3.000 L10.000,5.000 L10.000,7.000 L10.000,9.000 L10.000,11.000 L10.000,13.000 L10.000,15.000 L10.000,17.000 L10.000,19.000 L10.000,21.000 L10.000,23.000 L10.000,25.000 L10.000,27.000 L10.000,29.000 L10.000,31.000 L10.000,33.000 L10.000,35.000 L10.000,37.000 L10.000,39.000 L10.000,41.000 L10.000,43.000 L10.000,45.000 L10.000,47.000 L10.000,49.000 L10.000,51.000 L10.000,53.000 L10.000,55.000 L10.000,57.000 L10.000,59.000 L10.000,61.000 L11.000,61.000 L11.000,59.000 L11.000,57.000 L11.000,55.000 L11.000,53.000 L11.000,51.000 L11.000,49.000 L11.000,47.000 L11.000,45.000 L11.000,43.000 L11.000,41.000 L11.000,39.000 L11.000,37.000 L11.000,35.000 L11.000,33.000 L11.000,31.000 L11.000,29.000 L11.000,27.000 L11.000,25.000 L11.000,23.000 L11.000,21.000 L11.000,19.000 L11.000,17.000 L11.000,15.000 L11.000,13.000 L11.000,11.000 L11.000,9.000 L11.000,7.000 L11.000,5.000 L11.000,3.000 L11.000,1.000 L12.000,1.000 L12.000,3.000 L12.000,5.000 L12.000,7.000 L12.000,9.000 L12.000,11.000 L12.000,13.000 L12.000,15.000 L12.000,17.000 L12.000,19.000 L12.000,21.000 L12.000,23.000 L12.000,25.000 L12.000,27.000 L12.000,29.000 L12.000,31.000 L12.000,33.000 L12.000,35.000 L12.000,37.000 L12.000,39.000 L12.000,41.000 L12.000,43.000 L12.000,45.000 L12.000,47.000 L12.000,49.000 L12.000,51.000 L12.000,53.000 L12.000,55.000 L12.000,57.000 L12.000,59.000 L12.000,61.000 L13.000,61.000 L13.000,59.000 L13.000,57.000 L13.000,55.000 L13.000,53.000 L13.000,51.000 L13.000,49.000 L13.000,47.000 L13.000,45.000 L13.000,43.000 L13.000,41.000 L13.000,39.000 L13.000,37.000 L13.000,35.000 L13.000,33.000 L13.000,31.000 L13.000,29.000 L13.000,27.000 L13.000,25.000 L13.000,23.000 L13.000,21.000 L13.000,19.000 L13.000,17.000 L13.000,15.000 L13.000,13.000 L13.000,11.000 L13.000,9.000 L13.000,7.000 L13.000,5.000 L13.000,3.000 L13.000,1.000 L14.000,1.000 L14.000,3.000 L14.000,5.000 L14.000,7.000 L14.000,9.000 L14.000,11.000 L14.000,13.000 L14.000,15.000 L14.000,17.000 L14.000,19.000 L14.000,21.000 L14.000,23.000 L14.000,25.000 L14.000,27.000 L14.000,29.000 L14.000,31.000 L14.000,33.000 L14.000,35.000 L14.000,37.000 L14.000,39.000 L14.000,41.000 L14.000,43.000 L14.000,45.000 L14.000,47.000 L14.000,49.000 L14.000,51.000 L14.000,53.000 L14.000,55.000 L14.000,57.000 L14.000,59.000 L14.000,61.000 L15.000,61.000 L15.000,59.000 L15.000,57.000 L15.000,55.000 L15.000,53.000 L15.000,51.000 L15.000,49.000 L15.000,47.000 L15.000,45.000 L15.000,43.000 L15.000,41.000 L15.000,39.000 L15.000,37.000 L15.000,35.000 L15.000,33.000 L15.000,31.000 L15.000,29.000 L15.000,27.000 L15.000,25.000 L15.000,23.000 L15.000,21.000 L15.000,19.000 L15.000,17.000 L15.000,15.000 L15.000,13.000 L15.000,11.000 L15.000,9.000 L15.000,7.000 L15.000,5.000 L15.000,3.000 L15.000,1.000 L16.000,1.000 L16.000,3.000 L16.000,5.000 L16.000,7.000 L16.000,9.000 L16.000,11.000 L16.000,13.000 L16.000,15.000 L16.000,17.000 L16.000,19.000 L16.000,21.000 L16.000,23.000 L16.000,25.000 L16.000,27.000 L16.000,29.000 L16.000,31.000 L16.000,33.000 L16.000,35.000 L16.000,37.000 L16.000,39.000 L16.000,41.000 L16.000,43.000 L16.000,45.000 L16.000,47.000 L16.000,49.000 L16.000,51.000 L16.000,53.000 L16.000,55.000 L16.000,57.000 L16.000,59.000 L16.000,61.000 L17.000,61.000 L17.000,59.000 L17.000,57.000 L17.000,55.000 L17.000,53.000 L17.000,51.000 L17.000,49.000 L17.000,47.000 L17.000,45.000 L17.000,43.000 L17.000,41.000 L17.000,39.000 L17.000,37.000 L17.000,35.000 L17.000,33.000 L17.000,31.000 L17.000,29.000 L17.000,27.000 L17.000,25.000 L17.000,23.000 L17.000,21.000 L17.000,19.000 L17.000,17.000 L17.000,15.000 L17.000,13.000 L17.000,11.000 L17.000,9.000 L17.000,7.000 L17.000,5.000 L17.000,3.000 L17.000,1.000 L18.000,1.000 L18.000,3.000 L18.000,5.000 L18.000,7.000 L18.000,9.000 L18.000,11.000 L18.000,13.000 L18.000,15.000 L18.000,17.000 L18.000,19.000 L18.000,21.000 L18.000,23.000 L18.000,25.000 L18.000,27.000 L18.000,29.000 L18.000,31.000 L18.000,33.000 L18.000,35.000 L18.000,37.000 L18.000,39.000 L18.000,41.000 L18.000,43.000 L18.000,45.000 L18.000,47.000 L18.000,49.000 L18.000,51.000 L18.000,53.000 L18.000,55.000 L18.000,57.000 L18.000,59.000 L18.000,61.000 L19.000,61.000 L19.000,59.000 L19.000,57.000 L19.000,55.000 L19.000,53.000 L19.000,51.000 L19.000,49.000 L19.000,47.000 L19.000,45.000 L19.000,43.000 L19.000,41.000 L19.000,39.000 L19.000,37.000 L19.000,35.000 L19.000,33.000 L19.000,31.000 L19.000,29.000 L19.000,27.000 L19.000,25.000 L19.000,23.000 L19.000,21.000 L19.000,19.000 L19.000,17.000 L19.000,15.000 L19.000,13.000 L19.000,11.000 L19.000,9.000 L19.000,7.000 L19.000,5.000 L19.000,3.000 L19.000,1.000 L20.000,1.000 L20.000,3.000 L20.000,5.000 L20.000,7.000 L20.000,9.000 L20.000,11.000 L20.000,13.000 L20.000,15.000 L20.000,17.000 L20.000,19.000 L20.000,21.000 L20.000,23.000 L20.000,25.000 L20.000,27.000 L20.000,29.000 L20.000,31.000 L20.000,33.000 L20.000,35.000 L20.000,37.000 L20.000,39.000 L20.000,41.000 L20.000,43.000 L20.000,45.000 L20.000,47.000 L20.000,49.000 L20.000,51.000 L20.000,53.000 L20.000,55.000 L20.000,57.000 L20.000,59.000 L20.000,61.000 L21.000,61.000 L21.000,59.000 L21.000,57.000 L21.000,55.000 L21.000,53.000 L21.000,51.000 L21.000,49.000 L21.000,47.000 L21.000,45.000 L21.000,43.000 L21.000,41.000 L21.000,39.000 L21.000,37.000 L21.000,35.000 L21.000,33.000 L21.000,31.000 L21.000,29.000 L21.000,27.000 L21.000,25.000 L21.000,23.000 L21.000,21.000 L21.000,19.000 L21.000,17.000 L21.000,15.000 L21.000,13.000 L21.000,11.000 L21.000,9.000 L21.000,7.000 L21.000,5.000 L21.000,3.000 L21.000,1.000 L22.000,1.000 L22.000,3.000 L22.000,5.000 L22.000,7.000 L22.000,9.000 L22.000,11.000 L22.000,13.000 L22.000,15.000 L22.000,17.000 L22.000,19.000 L22.000,21.000 L22.000,23.000 L22.000,25.000 L22.000,27.000 L22.000,29.000 L22.000,31.000 L22.000,33.000 L22.000,35.000 L22.000,37.000 L22.000,39.000 L22.000,41.000 L22.000,43.000 L22.000,45.000 L22.000,47.000 L22.000,49.000 L22.000,51.000 L22.000,53.000 L22.000,55.000 L22.000,57.000 L22.000,59.000 L22.000,61.000 L23.000,61.000 L23.000,59.000 L23.000,57.000 L23.000,55.000 L23.000,53.000 L23.000,51.000 L23.000,49.000 L23.000,47.000 L23.000,45.000 L23.000,43.000 L23.000,41.000 L23.000,39.000 L23.000,37.000 L23.000,35.000 L23.000,33.000 L23.000,31.000 L23.000,29.000 L23.000,27.000 L23.000,25.000 L23.000,23.000 L23.000,21.000 L23.000,19.000 L23.000,17.000 L23.000,15.000 L23.000,13.000 L23.000,11.000 L23.000,9.000 L23.000,7.000 L23.000,5.000 L23.000,3.000 L23.000,1.000 L24.000,1.000 L24.000,3.000 L24.000,5.000 L24.000,7.000 L24.000,9.000 L24.000,11.000 L24.000,13.000 L24.000,15.000 L24.000,17.000 L24.000,19.000 L24.000,21.000 L24.000,23.000 L24.000,25.000 L24.000,27.000 L24.000,29.000 L24.000,31.000 L24.000,33.000 L24.000,35.000 L24.000,37.000 L24.000,39.000 L24.000,41.000 L24.000,43.000 L24.000,45.000 L24.000,47.000 L24.000,49.000 L24.000,51.000 L24.000,53.000 L24.000,55.000 L24.000,57.000 L24.000,59.000 L24.000,61.000 L25.000,61.000 L25.000,59.000 L25.000,57.000 L25.000,55.000 L25.000,53.000 L25.000,51.000 L25.000,49.000 L25.000,47.000 L25.000,45.000 L25.000,43.000 L25.000,41.000 L25.000,39.000 L25.000,37.000 L25.000,35.000 L25.000,33.000 L25.000,31.000 L25.000,29.000 L25.000,27.000 L25.000,25.000 L25.000,23.000 L25.000,21.000 L25.000,19.000 L25.000,17.000 L25.000,15.000 L25.000,13.000 L25.000,11.000 L25.000,9.000 L25.000,7.000 L25.000,5.000 L25.000,3.000 L25.000,1.000 L26.000,1.000 L26.000,3.000 L26.000,5.000 L26.000,7.000 L26.000,9.000 L26.000,11.000 L26.000,13.000 L26.000,15.000 L26.000,17.000 L26.000,19.000 L26.000,21.000 L26.000,23.000 L26.000,25.000 L26.000,27.000 L26.000,29.000 L26.000,31.000 L26.000,33.000 L26.000,35.000 L26.000,37.000 L26.000,39.000 L26.000,41.000 L26.000,43.000 L26.000,45.000 L26.000,47.000 L26.000,49.000 L26.000,51.000 L26.000,53.000 L26.000,55.000 L26.000,57.000 L26.000,59.000 L26.000,61.000 L27.000,61.000 L27.000,59.000 L27.000,57.000 L27.000,55.000 L27.000,53.000 L27.000,51.000 L27.000,49.000 L27.000,47.000 L27.000,45.000 L27.000,43.000 L27.000,41.000 L27.000,39.000 L27.000,37.000 L27.000,35.000 L27.000,33.000 L27.000,31.000 L27.000,29.000 L27.000,27.000 L27.000,25.000 L27.000,23.000 L27.000,21.000 L27.000,19.000 L27.000,17.000 L27.000,15.000 L27.000,13.000 L27.000,11.000 L27.000,9.000 L27.000,7.000 L27.000,5.000 L27.000,3.000 L27.000,1.000 L28.000,1.000 L28.000,3.000 L28.000,5.000 L28.000,7.000 L28.000,9.000 L28.000,11.000 L28.000,13.000 L28.000,15.000 L28.000,17.000 L28.000,19.000 L28.000,21.000 L28.000,23.000 L28.000,25.000 L28.000,27.000 L28.000,29.000 L28.000,31.000 L28.000,33.000 L28.000,35.000 L28.000,37.000 L28.000,39.000 L28.000,41.000 L28.000,43.000 L28.000,45.000 L28.000,47.000 L28.000,49.000 L28.000,51.000 L28.000,53.000 L28.000,55.000 L28.000,57.000 L28.000,59.000 L28.000,61.000 L29.000,61.000 L29.000,59.000 L29.000,57.000 L29.000,55.000 L29.000,53.000 L29.000,51.000 L29.000,49.000 L29.000,47.000 L29.000,45.000 L29.000,43.000 L29.000,41.000 L29.000,39.000 L29.000,37.000 L29.000,35.000 L29.000,33.000 L29.000,31.000 L29.000,29.000 L29.000,27.000 L29.000,25.000 L29.000,23.000 L29.000,21.000 L29.000,19.000 L29.000,17.000 L29.000,15.000 L29.000,13.000 L29.000,11.000 L29.000,9.000 L29.000,7.000 L29.000,5.000 L29.000,3.000 L29.000,1.000 L30.000,1.000 L30.000,3.000 L30.000,5.000 L30.000,7.000 L30.000,9.000 L30.000,11.000 L30.000,13.000 L30.000,15.000 L30.000,17.000 L30.000,19.000 L30.000,21.000 L30.000,23.000 L30.000,25.000 L30.000,27.000 L30.000,29.000 L30.000,31.000 L30.000,33.000 L30.000,35.000 L30.000,37.000 L30.000,39.000 L30.000,41.000 L30.000,43.000 L30.000,45.000 L30.000,47.000 L30.000,49.000 L30.000,51.000 L30.000,53.000 L30.000,55.000 L30.000,57.000 L30.000,59.000 L30.000,61.000 L31.000,61.000 L31.000,59.000 L31.000,57.000 L31.000,55.000 L31.000,53.000 L31.000,51.000 L31.000,49.000 L31.000,47.000 L31.000,45.000 L31.000,43.000 L31.000,41.000 L31.000,39.000 L31.000,37.000 L31.000,35.000 L31.000,33.000 L31.000,31.000 L31.000,29.000 L31.000,27.000 L31.000,25.000 L31.000,23.000 L31.000,21.000 L31.000,19.000 L31.000,17.000 L31.000,15.000 L31.000,13.000 L31.000,11.000 L31.000,9.000 L31.000,7.000 L31.000,5.000 L31.000,3.000 L31.000,1.000 L32.000,1.000 L32.000,3.000 L32.000,5.000 L32.000,7.000 L32.000,9.000 L32.000,11.000 L32.000,13.000 L32.000,15.000 L32.000,17.000 L32.000,19.000 L32.000,21.000 L32.000,23.000 L32.000,25.000 L32.000,27.000 L32.000,29.000 L32.000,31.000 L32.000,33.000 L32.000,35.000 L32.000,37.000 L32.000,39.000 L32.000,41.000 L32.000,43.000 L32.000,45.000 L32.000,47.000 L32.000,49.000 L32.000,51.000 L32.000,53.000 L32.000,55.000 L32.000,57.000 L32.000,59.000 L32.000,61.000 L33.000,61.000 L33.000,59.000 L33.000,57.000 L33.000,55.000 L33.000,53.000 L33.000,51.000 L33.000,49.000 L33.000,47.000 L33.000,45.000 L33.000,43.000 L33.000,41.000 L33.000,39.000 L33.000,37.000 L33.000,35.000 L33.000,33.000 L33.000,31.000 L33.000,29.000 L33.000,27.000 L33.000,25.000 L33.000,23.000 L33.000,21.000 L33.000,19.000 L33.000,17.000 L33.000,15.000 L33.000,13.000 L33.000,11.000 L33.000,9.000 L33.000,7.000 L33.000,5.000 L33.000,3.000 L33.000,1.000 L34.000,1.000 L34.000,3.000 L34.000,5.000 L34.000,7.000 L34.000,9.000 L34.000,11.000 L34.000,13.000 L34.000,15.000 L34.000,17.000 L34.000,19.000 L34.000,21.000 L34.000,23.000 L34.000,25.000 L34.000,27.000 L34.000,29.000 L34.000,31.000 L34.000,33.000 L34.000,35.000 L34.000,37.000 L34.000,39.000 L34.000,41.000 L34.000,43.000 L34.000,45.000 L34.000,47.000 L34.000,49.000 L34.000,51.000 L34.000,53.000 L34.000,55.000 L34.000,57.000 L34.000,59.000 L34.000,61.000 L35.000,61.000 L35.000,59.000 L35.000,57.000 L35.000,55.000 L35.000,53.000 L35.000,51.000 L35.000,49.000 L35.000,47.000 L35.000,45.000 L35.000,43.000 L35.000,41.000 L35.000,39.000 L35.000,37.000 L35.000,35.000 L35.000,33.000 L35.000,31.000 L35.000,29.000 L35.000,27.000 L35.000,25.000 L35.000,23.000 L35.000,21.000 L35.000,19.000 L35.000,17.000 L35.000,15.000 L35.000,13.000 L35.000,11.000 L35.000,9.000 L35.000,7.000 L35.000,5.000 L35.000,3.000 L35.000,1.000 L36.000,1.000 L36.000,3.000 L36.000,5.000 L36.000,7.000 L36.000,9.000 L36.000,11.000 L36.000,13.000 L36.000,15.000 L36.000,17.000 L36.000,19.000 L36.000,21.000 L36.000,23.000 L36.000,25.000 L36.000,27.000 L36.000,29.000 L36.000,31.000 L36.000,33.000 L36.000,35.000 L36.000,37.000 L36.000,39.000 L36.000,41.000 L36.000,43.000 L36.000,45.000 L36.000,47.000 L36.000,49.000 L36.000,51.000 L36.000,53.000 L36.000,55.000 L36.000,57.000 L36.000,59.000 L36.000,61.000 L37.000,61.000 L37.000,59.000 L37.000,57.000 L37.000,55.000 L37.000,53.000 L37.000,51.000 L37.000,49.000 L37.000,47.000 L37.000,45.000 L37.000,43.000 L37.000,41.000 L37.000,39.000 L37.000,37.000 L37.000,35.000 L37.000,33.000 L37.000,31.000 L37.000,29.000 L37.000,27.000 L37.000,25.000 L37.000,23.000 L37.000,21.000 L37.000,19.000 L37.000,17.000 L37.000,15.000 L37.000,13.000 L37.000,11.000 L37.000,9.000 L37.000,7.000 L37.000,5.000 L37.000,3.000 L37.000,1.000 L38.000,1.000 L38.000,3.000 L38.000,5.000 L38.000,7.000 L38.000,9.000 L38.000,11.000 L38.000,13.000 L38.000,15.000 L38.000,17.000 L38.000,19.000 L38.000,21.000 L38.000,23.000 L38.000,25.000 L38.000,27.000 L38.000,29.000 L38.000,31.000 L38.000,33.000 L38.000,35.000 L38.000,37.000 L38.000,39.000 L38.000,41.000 L38.000,43.000 L38.000,45.000 L38.000,47.000 L38.000,49.000 L38.000,51.000 L38.000,53.000 L38.000,55.000 L38.000,57.000 L38.000,59.000 L38.000,61.000 L39.000,61.000 L39.000,59.000 L39.000,57.000 L39.000,55.000 L39.000,53.000 L39.000,51.000 L39.000,49.000 L39.000,47.000 L39.000,45.000 L39.000,43.000 L39.000,41.000 L39.000,39.000 L39.000,37.000 L39.000,35.000 L39.000,33.000 L39.000,31.000 L39.000,29.000 L39.000,27.000 L39.000,25.000 L39.000,23.000 L39.000,21.000 L39.000,19.000 L39.000,17.000 L39.000,15.000 L39.000,13.000 L39.000,11.000 L39.000,9.000 L39.000,7.000 L39.000,5.000 L39.000,3.000 L39.000,1.000 L40.000,1.000 L40.000,3.000 L40.000,5.000 L40.000,7.000 L40.000,9.000 L40.000,11.000 L40.000,13.000 L40.000,15.000 L40.000,17.000 L40.000,19.000 L40.000,21.000 L40.000,23.000 L40.000,25.000 L40.000,27.000 L40.000,29.000 L40.000,31.000 L40.000,33.000 L40.000,35.000 L40.000,37.000 L40.000,39.000 L40.000,41.000 L40.000,43.000 L40.000,45.000 L40.000,47.000 L40.000,49.000 L40.000,51.000 L40.000,53.000 L40.000,55.000 L40.000,57.000 L40.000,59.000 L40.000,61.000 L41.000,61.000 L41.000,59.000 L41.000,57.000 L41.000,55.000 L41.000,53.000 L41.000,51.000 L41.000,49.000 L41.000,47.000 L41.000,45.000 L41.000,43.000 L41.000,41.000 L41.000,39.000 L41.000,37.000 L41.000,35.000 L41.000,33.000 L41.000,31.000 L41.000,29.000 L41.000,27.000 L41.000,25.000 L41.000,23.000 L41.000,21.000 L41.000,19.000 L41.000,17.000 L41.000,15.000 L41.000,13.000 L41.000,11.000 L41.000,9.000 L41.000,7.000 L41.000,5.000 L41.000,3.000 L41.000,1.000 L42.000,1.000 L42.000,3.000 L42.000,5.000 L42.000,7.000 L42.000,9.000 L42.000,11.000 L42.000,13.000 L42.000,15.000 L42.000,17.000 L42.000,19.000 L42.000,21.000 L42.000,23.000 L42.000,25.000 L42.000,27.000 L42.000,29.000 L42.000,31.000 L42.000,33.000 L42.000,35.000 L42.000,37.000 L42.000,39.000 L42.000,41.000 L42.000,43.000 L42.000,45.000 L42.000,47.000 L42.000,49.000 L42.000,51.000 L42.000,53.000 L42.000,55.000 L42.000,57.000 L42.000,59.000 L42.000,61.000 L43.000,61.000 L43.000,59.000 L43.000,57.000 L43.000,55.000 L43.000,53.000 L43.000,51.000 L43.000,49.000 L43.000,47.000 L43.000,45.000 L43.000,43.000 L43.000,41.000 L43.000,39.000 L43.000,37.000 L43.000,35.000 L43.000,33.000 L43.000,31.000 L43.000,29.000 L43.000,27.000 L43.000,25.000 L43.000,23.000 L43.000,21.000 L43.000,19.000 L43.000,17.000 L43.000,15.000 L43.000,13.000 L43.000,11.000 L43.000,9.000 L43.000,7.000 L43.000,5.000 L43.000,3.000 L43.000,1.000 L44.000,1.000 L44.000,3.000 L44.000,5.000 L44.000,7.000 L44.000,9.000 L44.000,11.000 L44.000,13.000 L44.000,15.000 L44.000,17.000 L44.000,19.000 L44.000,21.000 L44.000,23.000 L44.000,25.000 L44.000,27.000 L44.000,29.000 L44.000,31.000 L44.000,33.000 L44.000,35.000 L44.000,37.000 L44.000,39.000 L44.000,41.000 L44.000,43.000 L44.000,45.000 L44.000,47.000 L44.000,49.000 L44.000,51.000 L44.000,53.000 L44.000,55.000 L44.000,57.000 L44.000,59.000 L44.000,61.000 L45.000,61.000 L45.000,59.000 L45.000,57.000 L45.000,55.000 L45.000,53.000 L45.000,51.000 L45.000,49.000 L45.000,47.000 L45.000,45.000 L45.000,43.000 L45.000,41.000 L45.000,39.000 L45.000,37.000 L45.000,35.000 L45.000,33.000 L45.000,31.000 L45.000,29.000 L45.000,27.000 L45.000,25.000 L45.000,23.000 L45.000,21.000 L45.000,19.000 L45.000,17.000 L45.000,15.000 L45.000,13.000 L45.000,11.000 L45.000,9.000 L45.000,7.000 L45.000,5.000 L45.000,3.000 L45.000,1.000 L46.000,1.000 L46.000,3.000 L46.000,5.000 L46.000,7.000 L46.000,9.000 L46.000,11.000 L46.000,13.000 L46.000,15.000 L46.000,17.000 L46.000,19.000 L46.000,21.000 L46.000,23.000 L46.000,25.000 L46.000,27.000 L46.000,29.000 L46.000,31.000 L46.000,33.000 L46.000,35.000 L46.000,37.000 L46.000,39.000 L46.000,41.000 L46.000,43.000 L46.000,45.000 L46.000,47.000 L46.000,49.000 L46.000,51.000 L46.000,53.000 L46.000,55.000 L46.000,57.000 L46.000,59.000 L46.000,61.000 L47.000,61.000 L47.000,59.000 L47.000,57.000 L47.000,55.000 L47.000,53.000 L47.000,51.000 L47.000,49.000 L47.000,47.000 L47.000,45.000 L47.000,43.000 L47.000,41.000 L47.000,39.000 L47.000,37.000 L47.000,35.000 L47.000,33.000 L47.000,31.000 L47.000,29.000 L47.000,27.000 L47.000,25.000 L47.000,23.000 L47.000,21.000 L47.000,19.000 L47.000,17.000 L47.000,15.000 L47.000,13.000 L47.000,11.000 L47.000,9.000 L47.000,7.000 L47.000,5.000 L47.000,3.000 L47.000,1.000 L48.000,1.000 L48.000,3.000 L48.000,5.000 L48.000,7.000 L48.000,9.000 L48.000,11.000 L48.000,13.000 L48.000,15.000 L48.000,17.000 L48.000,19.000 L48.000,21.000 L48.000,23.000 L48.000,25.000 L48.000,27.000 L48.000,29.000 L48.000,31.000 L48.000,33.000 L48.000,35.000 L48.000,37.000 L48.000,39.000 L48.000,41.000 L48.000,43.000 L48.000,45.000 L48.000,47.000 L48.000,49.000 L48.000,51.000 L48.000,53.000 L48.000,55.000 L48.000,57.000 L48.000,59.000 L48.000,61.000 L49.000,61.000 L49.000,59.000 L49.000,57.000 L49.000,55.000 L49.000,53.000 L49.000,51.000 L49.000,49.000 L49.000,47.000 L49.000,45.000 L49.000,43.000 L49.000,41.000 L49.000,39.000 L49.000,37.000 L49.000,35.000 L49.000,33.000 L49.000,31.000 L49.000,29.000 L49.000,27.000 L49.000,25.000 L49.000,23.000 L49.000,21.000 L49.000,19.000 L49.000,17.000 L49.000,15.000 L49.000,13.000 L49.000,11.000 L49.000,9.000 L49.000,7.000 L49.000,5.000 L49.000,3.000 L49.000,1.000 L50.000,1.000 L50.000,3.000 L50.000,5.000 L50.000,7.000 L50.000,9.000 L50.000,11.000 L50.000,13.000 L50.000,15.000 L50.000,17.000 L50.000,19.000 L50.000,21.000 L50.000,23.000 L50.000,25.000 L50.000,27.000 L50.000,29.000 L50.000,31.000 L50.000,33.000 L50.000,35.000 L50.000,37.000 L50.000,39.000 L50.000,41.000 L50.000,43.000 L50.000,45.000 L50.000,47.000 L50.000,49.000 L50.000,51.000 L50.000,53.000 L50.000,55.000 L50.000,57.000 L50.000,59.000 L50.000,61.000 L51.000,61.000 L51.000,59.000 L51.000,57.000 L51.000,55.000 L51.000,53.000 L51.000,51.000 L51.000,49.000 L51.000,47.000 L51.000,45.000 L51.000,43.000 L51.000,41.000 L51.000,39.000 L51.000,37.000 L51.000,35.000 L51.000,33.000 L51.000,31.000 L51.000,29.000 L51.000,27.000 L51.000,25.000 L51.000,23.000 L51.000,21.000 L51.000,19.000 L51.000,17.000 L51.000,15.000 L51.000,13.000 L51.000,11.000 L51.000,9.000 L51.000,7.000 L51.000,5.000 L51.000,3.000 L51.000,1.000 L52.000,1.000 L52.000,3.000 L52.000,5.000 L52.000,7.000 L52.000,9.000 L52.000,11.000 L52.000,13.000 L52.000,15.000 L52.000,17.000 L52.000,19.000 L52.000,21.000 L52.000,23.000 L52.000,25.000 L52.000,27.000 L52.000,29.000 L52.000,31.000 L52.000,33.000 L52.000,35.000 L52.000,37.000 L52.000,39.000 L52.000,41.000 L52.000,43.000 L52.000,45.000 L52.000,47.000 L52.000,49.000 L52.000,51.000 L52.000,53.000 L52.000,55.000 L52.000,57.000 L52.000,59.000 L52.000,61.000 L53.000,61.000 L53.000,59.000 L53.000,57.000 L53.000,55.000 L53.000,53.000 L53.000,51.000 L53.000,49.000 L53.000,47.000 L53.000,45.000 L53.000,43.000 L53.000,41.000 L53.000,39.000 L53.000,37.000 L53.000,35.000 L53.000,33.000 L53.000,31.000 L53.000,29.000 L53.000,27.000 L53.000,25.000 L53.000,23.000 L53.000,21.000 L53.000,19.000 L53.000,17.000 L53.000,15.000 L53.000,13.000 L53.000,11.000 L53.000,9.000 L53.000,7.000 L53.000,5.000 L53.000,3.000 L53.000,1.000 L54.000,1.000 L54.000,3.000 L54.000,5.000 L54.000,7.000 L54.000,9.000 L54.000,11.000 L54.000,13.000 L54.000,15.000 L54.000,17.000 L54.000,19.000 L54.000,21.000 L54.000,23.000 L54.000,25.000 L54.000,27.000 L54.000,29.000 L54.000,31.000 L54.000,33.000 L54.000,35.000 L54.000,37.000 L54.000,39.000 L54.000,41.000 L54.000,43.000 L54.000,45.000 L54.000,47.000 L54.000,49.000 L54.000,51.000 L54.000,53.000 L54.000,55.000 L54.000,57.000 L54.000,59.000 L54.000,61.000 L55.000,61.000 L55.000,59.000 L55.000,57.000 L55.000,55.000 L55.000,53.000 L55.000,51.000 L55.000,49.000 L55.000,47.000 L55.000,45.000 L55.000,43.000 L55.000,41.000 L55.000,39.000 L55.000,37.000 L55.000,35.000 L55.000,33.000 L55.000,31.000 L55.000,29.000 L55.000,27.000 L55.000,25.000 L55.000,23.000 L55.000,21.000 L55.000,19.000 L55.000,17.000 L55.000,15.000 L55.000,13.000 L55.000,11.000 L55.000,9.000 L55.000,7.000 L55.000,5.000 L55.000,3.000 L55.000,1.000 L56.000,1.000 L56.000,3.000 L56.000,5.000 L56.000,7.000 L56.000,9.000 L56.000,11.000 L56.000,13.000 L56.000,15.000 L56.000,17.000 L56.000,19.000 L56.000,21.000 L56.000,23.000 L56.000,25.000 L56.000,27.000 L56.000,29.000 L56.000,31.000 L56.000,33.000 L56.000,35.000 L56.000,37.000 L56.000,39.000 L56.000,41.000 L56.000,43.000 L56.000,45.000 L56.000,47.000 L56.000,49.000 L56.000,51.000 L56.000,53.000 L56.000,55.000 L56.000,57.000 L56.000,59.000 L56.000,61.000 L57.000,61.000 L57.000,59.000 L57.000,57.000 L57.000,55.000 L57.000,53.000 L57.000,51.000 L57.000,49.000 L57.000,47.000 L57.000,45.000 L57.000,43.000 L57.000,41.000 L57.000,39.000 L57.000,37.000 L57.000,35.000 L57.000,33.000 L57.000,31.000 L57.000,29.000 L57.000,27.000 L57.000,25.000 L57.000,23.000 L57.000,21.000 L57.000,19.000 L57.000,17.000 L57.000,15.000 L57.000,13.000 L57.000,11.000 L57.000,9.000 L57.000,7.000 L57.000,5.000 L57.000,3.000 L57.000,1.000 L58.000,1.000 L58.000,3.000 L58.000,5.000 L58.000,7.000 L58.000,9.000 L58.000,11.000 L58.000,13.000 L58.000,15.000 L58.000,17.000 L58.000,19.000 L58.000,21.000 L58.000,23.000 L58.000,25.000 L58.000,27.000 L58.000,29.000 L58.000,31.000 L58.000,33.000 L58.000,35.000 L58.000,37.000 L58.000,39.000 L58.000,41.000 L58.000,43.000 L58.000,45.000 L58.000,47.000 L58.000,49.000 L58.000,51.000 L58.000,53.000 L58.000,55.000 L58.000,57.000 L58.000,59.000 L58.000,61.000 L59.000,61.000 L59.000,59.000 L59.000,57.000 L59.000,55.000 L59.000,53.000 L59.000,51.000 L59.000,49.000 L59.000,47.000 L59.000,45.000 L59.000,43.000 L59.000,41.000 L59.000,39.000 L59.000,37.000 L59.000,35.000 L59.000,33.000 L59.000,31.000 L59.000,29.000 L59.000,27.000 L59.000,25.000 L59.000,23.000 L59.000,21.000 L59.000,19.000 L59.000,17.000 L59.000,15.000 L59.000,13.000 L59.000,11.000 L59.000,9.000 L59.000,7.000 L59.000,5.000 L59.000,3.000 L59.000,1.000 L60.000,1.000 L60.000,3.000 L60.000,5.000 L60.000,7.000 L60.000,9.000 L60.000,11.000 L60.000,13.000 L60.000,15.000 L60.000,17.000 L60.000,19.000 L60.000,21.000 L60.000,23.000 L60.000,25.000 L60.000,27.000 L60.000,29.000 L60.000,31.000 L60.000,33.000 L60.000,35.000 L60.000,37.000 L60.000,39.000 L60.000,41.000 L60.000,43.000 L60.000,45.000 L60.000,47.000 L60.000,49.000 L60.000,51.000 L60.000,53.000 L60.000,55.000 L60.000,57.000 L60.000,59.000 L60.000,61.000 L61.000,61.000 L60.300,61.000 L61.000,61.000 L60.300,61.000 L61.000,61.000"/>
</svg>
