<svg xmlns="http://www.w3.org/2000/svg" viewBox="0 -7.818 63.029 63.029" width="256" height="256">
  <title>coilsatin</title>
  <rect x="0" y="-7.818" width="63.029" height="63.029" fill="#f5efe4"/>
  <path fill="none" stroke="#c8472f" stroke-width="0.4" stroke-linecap="round" stroke-linejoin="round" d="M1.293,2.700 L1.293,2.700 M1.293,2.700 L1.643,4.400 L1.993,1.000 L2.348,4.400 L2.704,1.000 L3.075,4.400 L3.447,1.000 L3.847,4.400 L4.246,1.000 L4.686,4.400 L5.126,1.000 L5.622,4.400 L6.118,1.000 L6.689,4.400 L7.261,1.000 L7.932,4.400 L8.603,1.000 L9.404,4.400 L10.205,1.000 L11.171,4.400 L12.137,1.000 L13.301,4.400 L14.466,1.000 L15.844,4.400 L17.223,1.000 L18.777,4.400 L20.331,1.000 L21.931,4.400 L23.531,1.000 L25.131,4.400 L26.731,1.000 L28.331,4.400 L29.931,1.000 L31.531,4.400 L33.131,1.000 L34.731,4.400 L36.331,1.000 L37.931,4.400 L39.531,1.000 L41.131,4.400 L42.731,1.000 L44.331,4.400 L45.931,1.000 L47.458,4.400 L48.986,1.000 L50.290,4.400 L51.594,1.000 L52.641,4.400 L53.689,1.000 L54.520,4.400 L55.350,1.000 L56.019,4.400 L56.688,1.000 L57.241,4.400 L57.795,1.000 L58.268,4.400 L58.741,1.000 L59.160,4.400 L59.578,1.000 L59.960,4.400 L60.342,1.000 L60.702,4.400 L61.062,1.000 L60.988,1.696 L61.062,1.000 L60.988,1.696 L61.062,1.000 M1.293,18.700 L1.889,18.334 L1.293,18.700 L1.889,18.334 L1.293,18.700 M1.293,18.700 L2.480,19.966 L1.000,16.885 L3.034,19.627 L1.660,16.497 L3.664,19.269 L2.359,16.106 L4.285,18.936 L3.059,15.740 L4.969,18.592 L3.894,15.338 L5.739,18.236 L4.837,14.922 L6.629,17.865 L5.923,14.493 L7.679,17.482 L7.269,14.041 L8.941,17.096 L8.796,13.629 L10.408,16.758 L10.708,13.255 L12.216,16.486 L12.998,13.010 L14.426,16.361 L15.765,12.989 L16.984,16.486 L18.878,13.295 L19.859,16.918 L22.142,13.940 L22.843,17.634 L25.321,14.821 L25.798,18.545 L28.417,15.849 L28.781,19.590 L31.451,16.947 L31.781,20.691 L34.441,18.040 L34.823,21.778 L37.417,19.061 L37.930,22.782 L40.399,19.942 L41.166,23.628 L43.397,20.608 L44.468,24.208 L46.405,20.984 L47.763,24.435 L49.234,21.009 L50.785,24.290 L51.594,20.747 L53.252,23.892 L53.508,20.337 L55.233,23.382 L54.985,19.891 L56.818,22.850 L56.205,19.436 L58.044,22.351 L57.190,19.011 L59.066,21.884 L58.011,18.615 L59.942,21.443 L58.718,18.242 L60.717,21.024 L59.349,17.887 L61.373,20.644 L59.938,17.539 L62.029,20.244 L61.601,19.690 L62.029,20.244 L61.601,19.690 L62.029,20.244 M8.793,31.700 L9.171,32.289 L8.793,31.700 L9.171,32.289 L8.793,31.700 M8.793,31.700 L10.412,31.075 L7.741,33.208 L10.794,31.670 L8.127,33.808 L11.190,32.287 L8.534,34.442 L11.530,32.811 L9.111,35.235 L12.068,33.495 L9.680,35.959 L12.680,34.274 L10.443,36.913 L13.336,35.021 L11.308,37.820 L14.290,36.021 L12.488,39.005 L15.414,37.042 L13.887,40.217 L16.894,38.230 L15.847,41.659 L18.843,39.528 L18.330,43.157 L21.295,40.808 L21.466,44.574 L24.090,41.885 L24.676,45.564 L26.878,42.583 L27.978,46.176 L29.893,42.931 L31.491,46.393 L32.928,42.921 L34.841,46.147 L35.941,42.554 L38.139,45.516 L38.719,41.818 L41.343,44.508 L41.543,40.708 L44.532,43.017 L44.172,39.299 L47.289,41.290 L46.384,37.761 L49.474,39.574 L48.022,36.333 L51.083,38.060 L49.169,35.140 L52.176,36.913 L49.998,34.198 L53.058,35.807 L50.704,33.301 L53.694,34.998 L51.182,32.669 L54.281,34.137 L51.632,31.969 L54.705,33.477 L52.041,31.332 L55.098,32.864 L54.473,32.551 L55.098,32.864 L54.473,32.551 L55.098,32.864"/>
</svg>
