<svg xmlns="http://www.w3.org/2000/svg" viewBox="0 -5.846 63.44 63.44" width="256" height="256">
  <title>compose</title>
  <rect x="0" y="-5.846" width="63.44" height="63.44" fill="#f5efe4"/>
  <path fill="none" stroke="#d9a441" stroke-width="0.4" stroke-linecap="round" stroke-linejoin="round" d="M31.723,26.688 L31.723,25.988 L31.723,26.688 L31.723,25.988 L31.723,26.688 L31.723,25.116 L31.723,23.545 L31.723,21.973 L31.723,20.402 L31.723,18.831 L31.723,17.259 L31.723,15.688 L33.219,15.790 L34.688,16.095 L36.102,16.597 L37.434,17.286 L38.660,18.151 L39.757,19.174 L40.704,20.337 L41.485,21.618 L42.084,22.993 L42.490,24.437 L42.696,25.922 L42.698,27.422 L42.496,28.909 L42.094,30.354 L41.499,31.731 L40.722,33.014 L39.778,34.179 L38.683,35.205 L37.460,36.073 L36.130,36.766 L34.718,37.272 L33.250,37.581 L31.753,37.688 L30.257,37.589 L28.787,37.289 L27.372,36.791 L26.038,36.105 L24.810,35.244 L23.710,34.224 L22.759,33.064 L21.975,31.785 L21.373,30.411 L20.962,28.968 L20.752,27.483 L20.746,25.983 L20.943,24.496 L21.342,23.050 L21.933,21.672 L22.707,20.387 L23.648,19.218 L24.739,18.189 L25.960,17.318 L27.288,16.621 L28.699,16.111 L30.166,15.798 L31.662,15.689 L30.964,15.740 L31.662,15.689 L30.964,15.740 L31.662,15.689"/>
  <path fill="none" stroke="#31604f" stroke-width="0.4" stroke-linecap="round" stroke-linejoin="round" d="M31.686,14.990 L31.662,15.689 L31.686,14.990 L31.662,15.689 L31.723,13.888 L31.723,12.088 L31.723,10.288 L31.723,8.488 L31.723,6.688 L33.047,5.983 L34.457,5.472 L35.943,5.261 L37.431,5.442 L38.808,6.039 L39.983,6.971 L40.946,8.121 L41.738,9.395 L42.426,10.728 L43.105,12.066 L43.906,13.334 L44.954,14.407 L46.208,15.231 L47.542,15.915 L48.879,16.596 L50.162,17.373 L51.329,18.315 L52.288,19.469 L52.924,20.827 L53.149,22.310 L52.974,23.800 L52.491,25.220 L51.803,26.553 L51.002,27.821 L50.177,29.074 L49.455,30.389 L49.005,31.819 L48.886,33.315 L48.951,34.813 L49.035,36.311 L49.022,37.811 L48.819,39.297 L48.340,40.718 L47.525,41.978 L46.388,42.956 L45.029,43.592 L43.565,43.919 L42.068,44.012 L40.569,43.962 L39.072,43.871 L37.572,43.878 L36.098,44.160 L34.729,44.772 L33.457,45.566 L32.204,46.391 L30.907,47.145 L29.530,47.739 L28.068,48.075 L26.568,48.050 L25.135,47.606 L23.878,46.788 L22.837,45.708 L21.988,44.471 L21.271,43.154 L20.603,41.811 L19.866,40.504 L18.918,39.342 L17.727,38.430 L16.410,37.712 L15.068,37.042 L13.759,36.309 L12.539,35.436 L11.489,34.365 L10.716,33.079 L10.330,31.630 L10.362,30.130 L10.741,28.679 L11.365,27.315 L12.136,26.028 L12.964,24.778 L13.743,23.496 L14.313,22.108 L14.549,20.627 L14.531,19.127 L14.440,17.630 L14.405,16.130 L14.524,14.635 L14.889,13.180 L15.573,11.845 L16.596,10.748 L17.885,9.982 L19.321,9.548 L20.812,9.379 L22.312,9.388 L23.809,9.477 L25.308,9.526 L26.799,9.365 L28.215,8.869 L29.516,8.123 L30.770,7.299 L31.723,6.688 L31.134,7.066 L31.723,6.688 L31.134,7.066 L31.723,6.688"/>
  <path fill="none" stroke="#3a4e8c" stroke-width="0.4" stroke-linecap="round" stroke-linejoin="round" d="M32.162,6.143 L31.723,6.688 L32.162,6.143 L31.723,6.688 L32.852,5.286 L33.980,3.885 L35.109,2.484 L36.238,1.083 L37.674,1.515 L38.995,2.225 L40.157,3.174 L41.160,4.290 L42.017,5.521 L42.758,6.825 L43.422,8.170 L44.057,9.529 L44.732,10.868 L45.542,12.131 L46.567,13.227 L47.778,14.112 L49.084,14.849 L50.420,15.532 L51.746,16.233 L53.033,17.002 L54.247,17.883 L55.350,18.900 L56.291,20.069 L57.005,21.387 L57.431,22.826 L57.526,24.323 L57.301,25.806 L56.798,27.219 L56.077,28.534 L55.192,29.745 L54.196,30.867 L53.130,31.923 L52.035,32.947 L50.959,33.992 L49.982,35.131 L49.213,36.419 L48.706,37.830 L48.389,39.296 L48.149,40.777 L47.902,42.257 L47.583,43.722 L47.143,45.156 L46.546,46.532 L45.760,47.810 L44.763,48.930 L43.556,49.822 L42.184,50.427 L40.713,50.723 L39.213,50.725 L37.733,50.479 L36.299,50.039 L34.916,49.459 L33.577,48.784 L32.263,48.060 L30.943,47.348 L29.570,46.743 L28.119,46.362 L26.622,46.272 L25.127,46.400 L23.645,46.626 L22.162,46.854 L20.671,47.017 L19.172,47.065 L17.676,46.954 L16.209,46.641 L14.817,46.081 L13.567,45.253 L12.526,44.172 L11.745,42.892 L11.236,41.481 L10.977,40.003 L10.920,38.504 L11.022,37.008 L11.238,35.523 L11.518,34.050 L11.795,32.576 L11.974,31.086 L11.932,29.587 L11.600,28.124 L11.041,26.732 L10.376,25.388 L9.698,24.050 L9.070,22.687 L8.540,21.284 L8.153,19.835 L7.961,18.347 L8.019,16.848 L8.369,15.390 L9.024,14.041 L9.960,12.868 L11.116,11.913 L12.422,11.174 L13.819,10.628 L15.268,10.239 L16.744,9.973 L18.231,9.778 L19.719,9.590 L21.195,9.323 L22.623,8.863 L23.935,8.136 L25.106,7.198 L26.187,6.159 L27.249,5.100 L28.342,4.072 L29.499,3.117 L30.741,2.277 L32.082,1.603 L33.512,1.152 L35.005,1.000 L36.238,1.083 L35.539,1.036 L36.238,1.083 L35.539,1.036 L36.238,1.083"/>
  <path fill="none" stroke="#8c4a6b" stroke-width="0.4" stroke-linecap="round" stroke-linejoin="round" d="M35.881,1.685 L36.238,1.083 L35.881,1.685 L36.238,1.083 L35.335,2.604 L34.432,4.125 L33.529,5.646 L32.626,7.167 L31.723,8.688 L33.012,7.921 L34.383,7.312 L35.847,6.984 L37.346,7.045 L38.775,7.499 L40.039,8.308 L41.166,9.298 L42.220,10.364 L43.319,11.385 L44.578,12.200 L45.979,12.736 L47.439,13.081 L48.916,13.344 L50.396,13.590 L51.870,13.865 L53.331,14.206 L54.770,14.630 L56.174,15.158 L57.524,15.812 L58.794,16.610 L59.950,17.566 L60.945,18.689 L61.721,19.972 L62.229,21.383 L62.440,22.868 L62.360,24.366 L62.027,25.829 L61.491,27.230 L60.800,28.561 L59.997,29.828 L59.120,31.045 L58.199,32.229 L57.267,33.404 L56.353,34.593 L55.480,35.814 L54.658,37.068 L53.865,38.342 L53.054,39.603 L52.164,40.811 L51.139,41.906 L49.953,42.824 L48.621,43.513 L47.186,43.952 L45.698,44.140 L44.198,44.124 L42.711,43.931 L41.243,43.623 L39.796,43.229 L38.349,42.831 L36.875,42.556 L35.376,42.618 L33.990,43.192 L32.725,43.999 L31.481,44.836 L30.188,45.596 L28.792,46.146 L27.316,46.415 L25.823,46.271 L24.418,45.747 L23.184,44.895 L22.084,43.875 L21.027,42.810 L19.901,41.819 L18.611,41.054 L17.195,40.560 L15.729,40.242 L14.250,39.987 L12.772,39.736 L11.299,39.451 L9.841,39.097 L8.408,38.655 L7.013,38.104 L5.676,37.425 L4.424,36.598 L3.295,35.611 L2.337,34.456 L1.607,33.145 L1.154,31.716 L1.000,30.224 L1.131,28.729 L1.506,27.277 L2.075,25.889 L2.790,24.570 L3.609,23.314 L4.498,22.106 L5.423,20.925 L6.354,19.749 L7.262,18.555 L8.125,17.328 L8.939,16.068 L9.732,14.795 L10.553,13.539 L11.465,12.348 L12.518,11.280 L13.732,10.400 L15.089,9.760 L16.538,9.370 L18.030,9.223 L19.529,9.277 L21.014,9.493 L22.477,9.825 L23.924,10.219 L25.371,10.616 L26.853,10.841 L28.345,10.682 L29.704,10.047 L30.961,9.229 L31.723,8.688 L31.152,9.093 L31.723,8.688 L31.152,9.093 L31.723,8.688"/>
  <path fill="none" stroke="#c8472f" stroke-width="0.4" stroke-linecap="round" stroke-linejoin="round" d="M35.561,4.923 L35.682,4.234 L35.561,4.923 L35.682,4.234 L35.561,4.923 L35.786,3.643 L36.012,2.363 L36.238,1.083 L36.116,1.772 L36.238,1.083 L36.116,1.772 L36.238,1.083 M37.032,5.393 L37.202,4.714 L37.032,5.393 L37.202,4.714 L37.032,5.393 L37.345,4.141 L37.657,2.888 L37.969,1.636 L37.800,2.315 L37.969,1.636 L37.800,2.315 L37.969,1.636 M38.368,6.237 L38.584,5.571 L38.368,6.237 L38.584,5.571 L38.368,6.237 L38.759,5.034 L39.150,3.831 L39.541,2.628 L39.324,3.293 L39.541,2.628 L39.324,3.293 L39.541,2.628 M39.524,7.379 L39.786,6.730 L39.524,7.379 L39.786,6.730 L39.524,7.379 L39.983,6.243 L40.442,5.107 L40.901,3.972 L40.639,4.621 L40.901,3.972 L40.639,4.621 L40.901,3.972 M40.487,8.718 L40.794,8.089 L40.487,8.718 L40.794,8.089 L40.487,8.718 L41.261,7.133 L42.034,5.547 L41.727,6.176 L42.034,5.547 L41.727,6.176 L42.034,5.547 M49.987,18.556 L50.627,18.271 L49.987,18.556 L50.627,18.271 L49.987,18.556 L51.599,17.838 L53.210,17.121 M51.292,19.565 L52.443,19.146 L53.594,18.727 L54.745,18.308 M52.393,20.761 L53.609,20.412 L54.825,20.063 L56.041,19.715 M53.190,22.125 L54.452,21.856 L55.715,21.588 L56.978,21.320 L56.293,21.465 L56.978,21.320 L56.293,21.465 L56.978,21.320 M53.608,23.612 L54.301,23.515 L53.608,23.612 L54.301,23.515 L53.608,23.612 L54.895,23.431 L56.183,23.250 L57.470,23.069 L56.777,23.167 L57.470,23.069 L56.777,23.167 L57.470,23.069 M53.616,25.157 L54.314,25.108 L53.616,25.157 L54.314,25.108 L53.616,25.157 L54.904,25.067 L56.191,24.977 L57.479,24.887 L56.781,24.935 L57.479,24.887 L56.781,24.935 L57.479,24.887 M53.226,26.688 L53.926,26.688 L53.226,26.688 L53.926,26.688 L53.226,26.688 L54.491,26.688 L55.756,26.688 L57.021,26.688 L56.321,26.688 L57.021,26.688 L56.321,26.688 L57.021,26.688 M52.497,28.140 L53.196,28.189 L52.497,28.140 L53.196,28.189 L52.497,28.140 L53.719,28.226 L54.941,28.311 L56.163,28.397 L55.465,28.348 L56.163,28.397 L55.465,28.348 L56.163,28.397 M51.521,29.470 L52.214,29.568 L51.521,29.470 L52.214,29.568 L51.521,29.470 L53.268,29.716 L55.015,29.961 L54.322,29.864 L55.015,29.961 L54.322,29.864 L55.015,29.961 M45.101,41.545 L45.569,42.065 L45.101,41.545 L45.569,42.065 L45.101,41.545 L46.281,42.856 L47.462,44.167 M44.544,43.098 L45.298,44.063 L46.053,45.029 L46.807,45.994 M43.748,44.515 L44.455,45.563 L45.162,46.612 L45.870,47.661 M42.696,45.694 L43.342,46.812 L43.987,47.930 L44.633,49.048 L44.283,48.441 L44.633,49.048 L44.283,48.441 L44.633,49.048 M41.411,46.551 L41.718,47.180 L41.411,46.551 L41.718,47.180 L41.411,46.551 L41.981,47.719 L42.551,48.888 L43.121,50.056 L42.814,49.427 L43.121,50.056 L42.814,49.427 L43.121,50.056 M39.944,47.036 L40.206,47.685 L39.944,47.036 L40.206,47.685 L39.944,47.036 L40.428,48.233 L40.911,49.430 L41.395,50.627 L41.133,49.978 L41.395,50.627 L41.133,49.978 L41.395,50.627 M38.368,47.139 L38.584,47.804 L38.368,47.139 L38.584,47.804 L38.368,47.139 L38.759,48.342 L39.150,49.545 L39.541,50.748 L39.324,50.082 L39.541,50.748 L39.324,50.082 L39.541,50.748 M36.761,46.894 L36.930,47.573 L36.761,46.894 L36.930,47.573 L36.761,46.894 L37.057,48.083 L37.354,49.271 L37.650,50.460 L37.481,49.781 L37.650,50.460 L37.481,49.781 L37.650,50.460 M35.195,46.377 L35.316,47.066 L35.195,46.377 L35.316,47.066 L35.195,46.377 L35.501,48.114 L35.807,49.851 L35.686,49.162 L35.807,49.851 L35.686,49.162 L35.807,49.851 M21.727,44.002 L21.377,44.608 L21.727,44.002 L21.377,44.608 L21.727,44.002 L20.845,45.530 L19.963,47.057 M20.078,43.952 L19.393,44.968 L18.708,45.984 L18.023,46.999 M18.484,43.633 L17.705,44.629 L16.927,45.626 L16.148,46.623 M17.038,42.997 L16.174,43.956 L15.310,44.916 L14.447,45.875 L14.915,45.355 L14.447,45.875 L14.915,45.355 L14.447,45.875 M15.826,42.040 L15.322,42.526 L15.826,42.040 L15.322,42.526 L15.826,42.040 L14.890,42.943 L13.955,43.846 L13.020,44.749 L13.524,44.263 L13.020,44.749 L13.524,44.263 L13.020,44.749 M14.911,40.794 L14.375,41.244 L14.911,40.794 L14.375,41.244 L14.911,40.794 L13.922,41.624 L12.933,42.454 L11.944,43.284 L12.481,42.834 L11.944,43.284 L12.481,42.834 L11.944,43.284 M14.326,39.327 L13.760,39.738 L14.326,39.327 L13.760,39.738 L14.326,39.327 L13.303,40.071 L12.280,40.814 L11.256,41.558 L11.823,41.146 L11.256,41.558 L11.823,41.146 L11.256,41.558 M14.062,37.723 L13.469,38.094 L14.062,37.723 L13.469,38.094 L14.062,37.723 L13.024,38.372 L11.985,39.022 L10.946,39.671 L11.539,39.300 L10.946,39.671 L11.539,39.300 L10.946,39.671 M14.070,36.074 L13.452,36.402 L14.070,36.074 L13.452,36.402 L14.070,36.074 L12.513,36.902 L10.955,37.730 L11.573,37.401 L10.955,37.730 L11.573,37.401 L10.955,37.730 M12.167,22.531 L11.482,22.385 L12.167,22.531 L11.482,22.385 L12.167,22.531 L10.442,22.164 L8.716,21.797 M11.705,20.948 L10.527,20.610 L9.350,20.272 L8.172,19.935 M11.516,19.333 L10.328,18.900 L9.139,18.468 L7.951,18.035 M11.674,17.761 L10.495,17.236 L9.315,16.711 L8.136,16.186 L8.776,16.471 L8.136,16.186 L8.776,16.471 L8.136,16.186 M12.210,16.312 L11.592,15.984 L12.210,16.312 L11.592,15.984 L12.210,16.312 L11.062,15.702 L9.914,15.092 L8.766,14.481 L9.384,14.810 L8.766,14.481 L9.384,14.810 L8.766,14.481 M13.112,15.058 L12.518,14.687 L13.112,15.058 L12.518,14.687 L13.112,15.058 L12.017,14.374 L10.922,13.690 L9.827,13.006 L10.421,13.377 L9.827,13.006 L10.421,13.377 L9.827,13.006 M14.326,14.048 L13.760,13.637 L14.326,14.048 L13.760,13.637 L14.326,14.048 L13.303,13.305 L12.280,12.561 L11.256,11.818 L11.823,12.229 L11.256,11.818 L11.823,12.229 L11.256,11.818 M15.770,13.302 L15.234,12.852 L15.770,13.302 L15.234,12.852 L15.770,13.302 L14.832,12.514 L13.893,11.727 L12.955,10.939 L13.491,11.389 L12.955,10.939 L13.491,11.389 L12.955,10.939 M17.341,12.799 L16.838,12.313 L17.341,12.799 L16.838,12.313 L17.341,12.799 L16.072,11.574 L14.803,10.349 L15.307,10.835 L14.803,10.349 L15.307,10.835 L14.803,10.349 M29.633,6.804 L29.560,6.108 L29.633,6.804 L29.560,6.108 L29.633,6.804 L29.449,5.050 L29.264,3.296 M30.996,5.875 L30.953,4.651 L30.911,3.427 L30.868,2.203 M32.473,5.197 L32.518,3.933 L32.562,2.669 L32.606,1.405 M34.017,4.862 L34.152,3.578 L34.287,2.294 L34.422,1.010 L34.349,1.706 L34.422,1.010 L34.349,1.706 L34.422,1.010"/>
</svg>
