<svg xmlns="http://www.w3.org/2000/svg" viewBox="0 -4 82.004 82.004" width="256" height="256">
  <title>constrained-travel-plan</title>
  <rect x="0" y="-4" width="82.004" height="82.004" fill="#f4efe6"/>
  <path fill="none" stroke="#176087" stroke-width="0.4" stroke-linecap="round" stroke-linejoin="round" d="M5.002,9.000 L5.002,9.000 L6.336,10.334 L7.670,11.668 L9.004,13.002 L7.670,14.336 L6.336,15.670 L5.002,17.004 L3.668,15.670 L2.334,14.336 L1.000,13.002 L2.334,11.668 L3.668,10.334 L5.002,9.000 L4.507,9.495 L5.002,9.000 L4.507,9.495 L5.002,9.000 M11.002,25.000 L11.497,25.495 L11.002,25.000 L11.497,25.495 L11.002,25.000 L12.336,26.334 L13.670,27.668 L15.004,29.002 L13.670,30.336 L12.336,31.670 L11.002,33.004 L9.668,31.670 L8.334,30.336 L7.000,29.002 L8.334,27.668 L9.668,26.334 L11.002,25.000 L10.507,25.495 L11.002,25.000 L10.507,25.495 L11.002,25.000 M33.002,23.000 L33.497,23.495 L33.002,23.000 L33.497,23.495 L33.002,23.000 L34.336,24.334 L35.670,25.668 L37.004,27.002 L35.670,28.336 L34.336,29.670 L33.002,31.004 L31.668,29.670 L30.334,28.336 L29.000,27.002 L30.334,25.668 L31.668,24.334 L33.002,23.000 L32.507,23.495 L33.002,23.000 L32.507,23.495 L33.002,23.000 M29.002,1.000 L29.497,1.495 L29.002,1.000 L29.497,1.495 L29.002,1.000 L30.336,2.334 L31.670,3.668 L33.004,5.002 L31.670,6.336 L30.336,7.670 L29.002,9.004 L27.668,7.670 L26.334,6.336 L25.000,5.002 L26.334,3.668 L27.668,2.334 L29.002,1.000 L28.507,1.495 L29.002,1.000 L28.507,1.495 L29.002,1.000 M77.002,57.000 L77.497,57.495 L77.002,57.000 L77.497,57.495 L77.002,57.000 L78.336,58.334 L79.670,59.668 L81.004,61.002 L79.670,62.336 L78.336,63.670 L77.002,65.004 L75.668,63.670 L74.334,62.336 L73.000,61.002 L74.334,59.668 L75.668,58.334 L77.002,57.000 L76.507,57.495 L77.002,57.000 L76.507,57.495 L77.002,57.000 M71.002,40.000 L71.497,40.495 L71.002,40.000 L71.497,40.495 L71.002,40.000 L72.336,41.334 L73.670,42.668 L75.004,44.002 L73.670,45.336 L72.336,46.670 L71.002,48.004 L69.668,46.670 L68.334,45.336 L67.000,44.002 L68.334,42.668 L69.668,41.334 L71.002,40.000 L70.507,40.495 L71.002,40.000 L70.507,40.495 L71.002,40.000 M49.002,43.000 L49.497,43.495 L49.002,43.000 L49.497,43.495 L49.002,43.000 L50.336,44.334 L51.670,45.668 L53.004,47.002 L51.670,48.336 L50.336,49.670 L49.002,51.004 L47.668,49.670 L46.334,48.336 L45.000,47.002 L46.334,45.668 L47.668,44.334 L49.002,43.000 L48.507,43.495 L49.002,43.000 L48.507,43.495 L49.002,43.000 M51.002,65.000 L51.497,65.495 L51.002,65.000 L51.497,65.495 L51.002,65.000 L52.336,66.334 L53.670,67.668 L55.004,69.002 L53.670,70.336 L52.336,71.670 L51.002,73.004 L49.668,71.670 L48.334,70.336 L47.000,69.002 L48.334,67.668 L49.668,66.334 L51.002,65.000 L50.507,65.495 L51.002,65.000 L50.507,65.495 L51.002,65.000"/>
  <path fill="none" stroke="#d1495b" stroke-width="0.4" stroke-linecap="round" stroke-linejoin="round" d="M36.002,37.000 L36.702,37.000 L36.002,37.000 L36.702,37.000 L36.002,37.000 L38.502,37.000 L41.002,37.000 L43.502,37.000 L46.002,37.000 L45.302,37.000 L46.002,37.000 L45.302,37.000 L46.002,37.000"/>
</svg>
