<svg xmlns="http://www.w3.org/2000/svg" viewBox="0 -3.261 52.474 52.474" width="256" height="256">
  <title>contour-fill-paths</title>
  <rect x="0" y="-3.261" width="52.474" height="52.474" fill="#f5efe4"/>
  <path fill="none" stroke="#3a4e8c" stroke-width="0.4" stroke-linecap="round" stroke-linejoin="round" d="M1.000,44.951 L1.700,44.951 L1.000,44.951 L1.700,44.951 L1.000,44.951 M1.000,44.951 L1.350,44.345 L1.000,44.951 L1.350,44.345 L1.000,44.951 M26.067,26.201 L26.158,25.507 L26.067,26.201 L26.158,25.507 L26.067,26.201 M26.067,26.201 L26.158,26.895 L26.067,26.201 L26.158,26.895 L26.067,26.201 M2.167,44.601 L2.167,43.901 L2.167,44.601 L2.167,43.901 L2.167,44.601 M27.767,30.317 L27.767,31.017 L27.767,30.317 L27.767,31.017 L27.767,30.317 M40.567,25.032 L40.567,25.732 L40.567,25.032 L40.567,25.732 L40.567,25.032 M50.167,44.601 L50.167,43.901 L50.167,44.601 L50.167,43.901 L50.167,44.601 M26.567,1.000 L26.217,1.606 L26.567,1.000 L26.217,1.606 L26.567,1.000 L25.566,2.732 L24.566,4.463 L23.565,6.195 L22.565,7.927 L21.564,9.659 L20.564,11.390 L19.563,13.122 L18.563,14.854 L17.562,16.586 L16.561,18.317 L15.561,20.049 L14.560,21.781 L13.560,23.513 L12.559,25.244 L11.559,26.976 L10.558,28.708 L9.558,30.439 L8.557,32.171 L7.557,33.903 L6.556,35.635 L5.555,37.366 L4.555,39.098 L3.554,40.830 L2.554,42.562 L1.553,44.293 L2.674,44.801 L4.674,44.801 L6.674,44.801 L8.674,44.801 L10.674,44.801 L12.674,44.801 L14.674,44.801 L16.674,44.801 L18.674,44.801 L20.674,44.801 L22.674,44.801 L24.674,44.801 L26.674,44.801 L28.674,44.801 L30.674,44.801 L32.674,44.801 L34.674,44.801 L36.674,44.801 L38.674,44.801 L40.674,44.801 L42.674,44.801 L44.674,44.801 L46.674,44.801 L48.674,44.801 L50.674,44.801 L51.474,44.109 L50.473,42.377 L49.473,40.645 L48.472,38.913 L47.472,37.182 L46.471,35.450 L45.471,33.718 L44.470,31.986 L43.469,30.255 L42.469,28.523 L41.468,26.791 L40.468,25.059 L39.467,23.328 L38.467,21.596 L37.466,19.864 L36.466,18.133 L35.465,16.401 L34.465,14.669 L33.464,12.937 L32.463,11.206 L31.463,9.474 L30.462,7.742 L29.462,6.010 L28.461,4.279 L27.461,2.547 L26.567,1.000 L26.917,1.606 L26.567,1.000 L26.917,1.606 L26.567,1.000 M31.014,31.997 L30.383,31.693 L31.014,31.997 L30.383,31.693 L31.014,31.997 L29.223,31.133 L27.796,29.756 L26.873,27.999 L26.589,26.034 L27.001,24.092 L28.001,22.379 L29.490,21.064 L31.347,20.361 L33.330,20.301 L35.232,20.866 L36.853,22.014 L37.956,23.667 L38.485,25.578 L38.388,27.561 L37.618,29.391 L36.276,30.853 L34.545,31.821 L32.593,32.198 L31.014,31.997 M34.172,32.394 L35.988,31.577 L37.464,30.247 L38.470,28.538 L38.918,26.604 L38.763,24.620 L37.958,22.799 L36.633,21.319 L34.926,20.307 L32.994,19.853 L31.010,20.002 L29.184,20.795 L27.700,22.116 L26.682,23.819 L26.222,25.750 L26.364,27.734 L27.146,29.564 L28.463,31.054 L30.163,32.076 L32.092,32.542 L34.075,32.407 L34.172,32.394 M31.014,31.997 L29.223,31.133 L27.796,29.756 L26.873,27.999 L26.589,26.034 L27.001,24.092 L28.001,22.379 L29.490,21.064 L31.347,20.361 L33.330,20.301 L35.232,20.866 L36.853,22.014 L37.956,23.667 L38.485,25.578 L38.388,27.561 L37.618,29.391 L36.276,30.853 L34.545,31.821 L32.593,32.198 L31.014,31.997 L31.708,32.085 L31.014,31.997 L31.708,32.085 L31.014,31.997 M39.652,25.248 L39.648,25.948 L39.652,25.248 L39.648,25.948 L39.652,25.248 L39.642,27.233 L39.087,29.139 L38.031,30.822 L36.554,32.152 L34.767,33.027 L32.806,33.380 L30.822,33.180 L28.969,32.433 L27.397,31.202 L26.231,29.583 L25.555,27.710 L25.419,25.724 L25.832,23.780 L26.761,22.024 L28.135,20.591 L29.849,19.590 L31.772,19.095 L33.757,19.147 L35.653,19.742 L36.691,20.124 L35.690,18.392 L34.690,16.660 L33.689,14.928 L32.689,13.197 L31.688,11.465 L30.688,9.733 L29.687,8.001 L28.687,6.270 L27.686,4.538 L26.686,2.806 L25.685,4.126 L24.685,5.857 L23.684,7.589 L22.684,9.321 L21.683,11.053 L20.683,12.784 L19.682,14.516 L18.681,16.248 L17.681,17.979 L16.680,19.711 L15.680,21.443 L14.679,23.175 L13.679,24.906 L12.678,26.638 L11.677,28.370 L10.677,30.101 L9.676,31.833 L8.676,33.565 L7.675,35.297 L6.675,37.028 L5.674,38.760 L4.674,40.492 L3.673,42.224 L2.672,43.955 L4.593,44.001 L6.593,44.001 L8.593,44.001 L10.593,44.001 L12.593,44.001 L14.593,44.001 L16.593,44.001 L18.593,44.001 L20.593,44.001 L22.593,44.001 L24.593,44.001 L26.593,44.001 L28.593,44.001 L30.593,44.001 L32.593,44.001 L34.593,44.001 L36.593,44.001 L38.593,44.001 L40.593,44.001 L42.593,44.001 L44.593,44.001 L46.593,44.001 L48.593,44.001 L50.435,43.910 L49.435,42.178 L48.434,40.447 L47.433,38.715 L46.433,36.983 L45.432,35.251 L44.432,33.520 L43.431,31.788 L42.430,30.056 L41.430,28.325 L40.429,26.593 L39.652,25.248 M40.341,28.041 L39.634,29.908 L38.489,31.540 L36.976,32.836 L35.191,33.717 L33.245,34.129 L31.259,34.046 L29.356,33.474 L27.654,32.450 L26.258,31.036 L25.257,29.321 L24.709,27.412 L24.652,25.425 L25.089,23.486 L25.991,21.714 L27.305,20.219 L28.951,19.096 L30.824,18.413 L32.810,18.216 L34.784,18.521 L33.892,16.880 L32.892,15.148 L31.891,13.417 L30.891,11.685 L29.890,9.953 L28.890,8.221 L27.890,6.489 L26.889,4.758 L25.889,5.374 L24.888,7.106 L23.887,8.837 L22.887,10.569 L21.886,12.301 L20.886,14.033 L19.885,15.764 L18.884,17.496 L17.884,19.228 L16.883,20.959 L15.883,22.691 L14.882,24.423 L13.881,26.155 L12.881,27.886 L11.880,29.618 L10.880,31.350 L9.879,33.081 L8.879,34.813 L7.878,36.545 L6.877,38.277 L5.877,40.008 L4.876,41.740 L4.345,43.201 L6.345,43.201 L8.345,43.201 L10.345,43.201 L12.345,43.201 L14.345,43.201 L16.345,43.201 L18.345,43.201 L20.345,43.201 L22.345,43.201 L24.345,43.201 L26.345,43.201 L28.345,43.201 L30.345,43.201 L32.345,43.201 L34.345,43.201 L36.345,43.201 L38.345,43.201 L40.345,43.201 L42.345,43.201 L44.345,43.201 L46.345,43.201 L48.345,43.201 L48.480,42.125 L47.479,40.393 L46.479,38.662 L45.478,36.930 L44.477,35.199 L43.477,33.467 L42.476,31.735 L41.475,30.004 L40.474,28.272 L40.341,28.041 L40.498,29.913 L39.450,31.603 L38.055,33.018 L36.379,34.090 L34.503,34.770 L32.518,34.998 L30.534,34.753 L28.664,34.053 L27.001,32.958 L25.624,31.525 L24.598,29.822 L23.971,27.933 L23.780,25.946 L24.058,23.966 L24.794,22.108 L25.935,20.472 L27.407,19.133 L29.136,18.153 L31.040,17.578 L33.027,17.438 L32.454,15.992 L31.454,14.260 L30.453,12.528 L29.453,10.797 L28.453,9.065 L27.452,7.333 L26.452,5.999 L25.451,7.731 L24.451,9.462 L23.450,11.194 L22.449,12.926 L21.449,14.658 L20.448,16.389 L19.448,18.121 L18.447,19.853 L17.446,21.584 L16.446,23.316 L15.445,25.048 L14.445,26.779 L13.444,28.511 L12.443,30.243 L11.443,31.974 L10.442,33.706 L9.441,35.438 L8.441,37.170 L7.440,38.901 L6.440,40.633 L5.439,42.365 L7.376,42.401 L9.376,42.401 L11.376,42.401 L13.376,42.401 L15.376,42.401 L17.376,42.401 L19.376,42.401 L21.376,42.401 L23.376,42.401 L25.376,42.401 L27.376,42.401 L29.376,42.401 L31.376,42.401 L33.376,42.401 L35.376,42.401 L37.376,42.401 L39.376,42.401 L41.376,42.401 L43.376,42.401 L45.376,42.401 L47.376,42.401 L46.885,40.964 L45.884,39.232 L44.884,37.501 L43.883,35.769 L42.882,34.038 L41.881,32.306 L40.880,30.574 L40.498,29.913 L40.510,31.534 L39.254,33.082 L37.682,34.310 L35.880,35.163 L33.954,35.649 L31.966,35.753 L29.994,35.446 L28.139,34.701 L26.493,33.577 L25.106,32.164 L24.013,30.500 L23.284,28.639 L22.997,26.663 L23.137,24.674 L23.658,22.760 L24.540,20.976 L25.779,19.415 L27.341,18.175 L29.126,17.292 L31.043,16.771 L31.351,15.685 L30.351,13.953 L29.351,12.221 L28.351,10.489 L27.351,8.757 L26.350,7.775 L25.350,9.506 L24.349,11.238 L23.348,12.970 L22.348,14.702 L21.347,16.433 L20.346,18.165 L19.346,19.897 L18.345,21.628 L17.345,23.360 L16.344,25.092 L15.343,26.823 L14.343,28.555 L13.342,30.287 L12.341,32.018 L11.341,33.750 L10.340,35.482 L9.339,37.213 L8.339,38.945 L7.338,40.677 L7.736,41.601 L9.736,41.601 L11.736,41.601 L13.736,41.601 L15.736,41.601 L17.736,41.601 L19.736,41.601 L21.736,41.601 L23.736,41.601 L25.736,41.601 L27.736,41.601 L29.736,41.601 L31.736,41.601 L33.736,41.601 L35.736,41.601 L37.736,41.601 L39.736,41.601 L41.736,41.601 L43.736,41.601 L45.736,41.601 L45.625,40.382 L44.624,38.651 L43.623,36.919 L42.622,35.188 L41.621,33.456 L40.620,31.725 L40.510,31.534 L40.416,32.971 L38.968,34.335 L37.310,35.437 L35.458,36.186 L33.492,36.516 L31.506,36.499 L29.545,36.144 L27.699,35.381 L26.056,34.251 L24.632,32.862 L23.475,31.237 L22.691,29.398 L22.293,27.446 L22.228,25.457 L22.531,23.483 L23.264,21.627 L24.323,19.944 L25.652,18.461 L27.253,17.267 L29.074,16.448 L30.428,15.688 L29.428,13.956 L28.428,12.224 L27.428,10.492 L26.428,9.240 L25.427,10.972 L24.427,12.704 L23.426,14.435 L22.425,16.167 L21.425,17.899 L20.424,19.630 L19.423,21.362 L18.423,23.094 L17.422,24.825 L16.421,26.557 L15.421,28.289 L14.420,30.020 L13.419,31.752 L12.419,33.484 L11.418,35.215 L10.417,36.947 L9.416,38.679 L8.416,40.410 L9.739,40.801 L11.739,40.801 L13.739,40.801 L15.739,40.801 L17.739,40.801 L19.739,40.801 L21.739,40.801 L23.739,40.801 L25.739,40.801 L27.739,40.801 L29.739,40.801 L31.739,40.801 L33.739,40.801 L35.739,40.801 L37.739,40.801 L39.739,40.801 L41.739,40.801 L43.739,40.801 L44.543,40.111 L43.542,38.380 L42.542,36.648 L41.541,34.917 L40.540,33.185 L40.416,32.971 L40.272,34.321 L38.696,35.551 L36.930,36.460 L35.051,37.111 L33.075,37.376 L31.087,37.250 L29.139,36.846 L27.296,36.075 L25.654,34.950 L24.193,33.603 L22.993,32.004 L22.155,30.194 L21.597,28.284 L21.370,26.298 L21.571,24.312 L22.079,22.389 L22.891,20.566 L24.072,18.956 L25.495,17.573 L27.121,16.420 L28.956,15.631 L28.604,14.130 L27.605,12.398 L26.605,10.665 L25.604,12.266 L24.603,13.998 L23.603,15.729 L22.602,17.461 L21.601,19.193 L20.600,20.924 L19.600,22.656 L18.599,24.388 L17.598,26.119 L16.598,27.851 L15.597,29.583 L14.596,31.314 L13.595,33.046 L12.595,34.777 L11.594,36.509 L10.593,38.241 L9.592,39.972 L11.543,40.001 L13.543,40.001 L15.543,40.001 L17.543,40.001 L19.543,40.001 L21.543,40.001 L23.543,40.001 L25.543,40.001 L27.543,40.001 L29.543,40.001 L31.543,40.001 L33.543,40.001 L35.543,40.001 L37.543,40.001 L39.543,40.001 L41.543,40.001 L43.543,40.001 L42.560,38.280 L41.559,36.548 L40.558,34.817 L40.272,34.321 L40.044,35.526 L38.413,36.676 L36.580,37.471 L34.662,37.974 L32.680,38.198 L30.693,38.004 L28.755,37.555 L26.912,36.778 L25.263,35.659 L23.766,34.344 L22.542,32.762 L21.622,30.997 L20.932,29.124 L20.642,27.146 L20.654,25.156 L20.956,23.181 L21.661,21.316 L22.599,19.564 L23.827,17.988 L25.335,16.688 L26.991,15.586 L27.890,14.493 L26.891,12.761 L25.890,13.371 L24.889,15.102 L23.889,16.834 L22.888,18.566 L21.887,20.297 L20.886,22.029 L19.886,23.761 L18.885,25.492 L17.884,27.224 L16.883,28.955 L15.883,30.687 L14.882,32.419 L13.881,34.150 L12.880,35.882 L11.879,37.613 L11.128,39.201 L13.128,39.201 L15.128,39.201 L17.128,39.201 L19.128,39.201 L21.128,39.201 L23.128,39.201 L25.128,39.201 L27.128,39.201 L29.128,39.201 L31.128,39.201 L33.128,39.201 L35.128,39.201 L37.128,39.201 L39.128,39.201 L41.128,39.201 L41.687,38.370 L40.687,36.638 L40.044,35.526 L40.394,36.132 L40.044,35.526 L40.394,36.132 L40.044,35.526 M25.591,15.489 L26.137,15.051 L25.591,15.489 L26.137,15.051 L25.591,15.489 L26.923,14.419 L25.923,14.915 L25.591,15.489 L25.923,14.915 L25.591,15.489 L25.923,14.915 L25.591,15.489 M28.714,38.397 L28.066,38.131 L28.714,38.397 L28.066,38.131 L28.714,38.397 L26.865,37.638 L25.169,36.596 L23.612,35.345 L22.335,33.811 L21.241,32.146 L20.467,30.302 L19.995,28.366 L19.770,26.380 L19.241,26.477 L18.240,28.209 L17.239,29.940 L16.239,31.672 L15.238,33.403 L14.237,35.135 L13.236,36.866 L12.576,38.401 L14.576,38.401 L16.576,38.401 L18.576,38.401 L20.576,38.401 L22.576,38.401 L24.576,38.401 L26.576,38.401 L28.576,38.401 L28.714,38.397 M39.807,36.716 L39.201,37.067 L39.807,36.716 L39.201,37.067 L39.807,36.716 L38.083,37.714 L36.598,38.401 L38.598,38.401 L40.598,38.401 L39.872,36.828 L39.807,36.716 M25.167,37.594 L24.611,37.169 L25.167,37.594 L24.611,37.169 L25.167,37.594 L23.581,36.382 L22.198,34.948 L21.002,33.346 L20.123,31.559 L19.424,29.688 L18.923,28.629 L17.922,30.360 L16.921,32.092 L15.920,33.823 L14.919,35.555 L13.918,37.286 L15.372,37.601 L17.372,37.601 L19.372,37.601 L21.372,37.601 L23.372,37.601 L25.167,37.594 M22.774,36.749 L21.437,35.271 L20.255,33.659 L19.384,31.865 L18.583,30.814 L17.583,32.546 L16.582,34.277 L15.581,36.009 L16.208,36.801 L18.208,36.801 L20.208,36.801 L22.208,36.801 L22.774,36.749 M20.071,34.803 L19.037,33.100 L18.139,33.182 L17.138,34.914 L17.254,36.001 L19.254,36.001 L20.828,35.790 L20.071,34.803 L19.368,35.199 L18.313,34.481 L19.065,35.201 L19.368,35.199 L19.065,35.201 L19.368,35.199 L19.065,35.201 L19.368,35.199"/>
</svg>
