<svg xmlns="http://www.w3.org/2000/svg" viewBox="0 0 88 88" width="256" height="256">
  <title>contour</title>
  <rect x="0" y="0" width="88" height="88" fill="#f5efe4"/>
  <path fill="none" stroke="#31604f" stroke-width="0.4" stroke-linecap="round" stroke-linejoin="round" d="M43.273,80.630 L43.273,80.630 L44.805,81.090 M45.593,81.327 L47.191,81.389 M48.490,81.440 L48.778,81.451 L49.396,80.630 M45.593,80.043 L44.041,80.435 L44.720,80.264 L44.041,80.435 L44.720,80.264 L44.041,80.435 M48.778,79.282 L48.097,79.445 L48.778,79.282 L48.097,79.445 L48.778,79.282 L47.222,79.654 M45.957,79.956 L45.593,80.043 M49.396,80.630 L48.778,79.282 L49.070,79.919 L48.778,79.282 L49.070,79.919 L48.778,79.282 M57.760,58.333 L58.225,58.857 L57.760,58.333 L58.225,58.857 L57.760,58.333 L58.333,58.979 L59.479,58.333 L58.869,58.677 L59.479,58.333 L58.869,58.677 L59.479,58.333 M4.185,55.860 L4.295,55.169 L4.185,55.860 L4.295,55.169 L4.185,55.860 L4.298,55.148 L4.188,55.839 L4.298,55.148 L4.188,55.839 L4.298,55.148 M58.329,55.148 L58.206,55.837 L58.329,55.148 L58.206,55.837 L58.329,55.148 L58.048,56.723 M57.819,58.003 L57.760,58.333 M59.479,58.333 L58.938,56.827 M58.499,55.604 L58.335,55.148 L58.499,55.604 L58.335,55.148 L58.499,55.604 L58.335,55.148 M4.185,54.799 L3.908,54.156 L4.185,54.799 L3.908,54.156 L4.185,54.799 L3.552,53.329 L3.829,53.972 L3.552,53.329 L3.829,53.972 L3.552,53.329 M4.298,55.148 L4.185,54.799 L4.298,55.148 L4.185,54.799 L4.298,55.148 L4.185,54.799 L4.298,55.148 L4.185,54.799 L4.298,55.148 L4.185,54.799 M54.900,51.963 L55.148,52.558 L54.900,51.963 L55.148,52.558 L54.900,51.963 L55.148,52.558 L56.389,53.568 M57.397,54.389 L58.329,55.148 M58.335,55.148 L59.057,53.720 M59.644,52.560 L59.946,51.963 L59.644,52.560 L59.946,51.963 L59.644,52.560 L59.946,51.963 M55.148,51.276 L54.910,51.934 L55.148,51.276 L54.910,51.934 L55.148,51.276 L54.900,51.963 L55.138,51.305 L54.900,51.963 L55.138,51.305 L54.900,51.963 M57.656,48.778 L57.160,49.272 L57.656,48.778 L57.160,49.272 L57.656,48.778 L56.523,49.907 M55.602,50.824 L55.148,51.276 L55.602,50.824 L55.148,51.276 L55.602,50.824 L55.148,51.276 M59.946,51.963 L59.714,51.303 L59.946,51.963 L59.714,51.303 L59.946,51.963 L59.416,50.453 M58.985,49.227 L58.827,48.778 M58.333,48.263 L57.656,48.778 M58.827,48.778 L58.333,48.263 L58.818,48.768 L58.333,48.263 L58.818,48.768 L58.333,48.263 M44.681,42.407 L45.019,43.020 L44.681,42.407 L45.019,43.020 L44.681,42.407 L45.454,43.808 M45.593,44.060 L47.182,43.877 M48.473,43.727 L48.778,43.692 L49.847,42.502 L49.379,43.022 L49.847,42.502 L49.379,43.022 L49.847,42.502 M43.684,39.222 L43.893,39.890 L43.684,39.222 L43.893,39.890 L43.684,39.222 L44.162,40.749 M44.550,41.990 L44.681,42.407 L44.550,41.990 L44.681,42.407 L44.550,41.990 L44.681,42.407 M49.932,42.407 L49.708,41.744 L49.932,42.407 L49.708,41.744 L49.932,42.407 L49.419,40.892 M49.003,39.660 L48.855,39.222 L49.003,39.660 L48.855,39.222 L49.003,39.660 L48.855,39.222 M80.119,39.222 L80.630,39.475 L80.119,39.222 L80.630,39.475 L80.119,39.222 L80.630,39.475 L80.797,39.222 L80.630,39.475 L80.797,39.222 L80.630,39.475 L80.797,39.222 M45.068,36.037 L44.789,36.679 L45.068,36.037 L44.789,36.679 L45.068,36.037 L44.430,37.505 M43.912,38.697 L43.684,39.222 L43.912,38.697 L43.684,39.222 L43.912,38.697 L43.684,39.222 M48.778,38.804 L48.375,38.232 L48.778,38.804 L48.375,38.232 L48.778,38.804 L47.858,37.495 M47.111,36.432 L46.834,36.037 M48.855,39.222 L48.778,38.804 L48.855,39.222 L48.778,38.804 L48.855,39.222 L48.778,38.804 M80.630,38.231 L80.309,38.853 L80.630,38.231 L80.309,38.853 L80.630,38.231 L80.119,39.222 M80.797,39.222 L80.630,38.231 L80.746,38.921 L80.630,38.231 L80.746,38.921 L80.630,38.231 M13.518,32.852 L13.741,33.122 L13.518,32.852 L13.741,33.122 L13.518,32.852 L13.741,33.122 L14.329,32.852 L13.741,33.122 L14.329,32.852 L13.741,33.122 L14.329,32.852 M45.593,35.635 L45.068,36.037 L45.593,35.635 L45.068,36.037 L45.593,35.635 L45.068,36.037 M46.834,36.037 L45.593,35.635 L46.258,35.851 L45.593,35.635 L46.258,35.851 L45.593,35.635 M77.380,32.852 L77.943,33.268 L77.380,32.852 L77.943,33.268 L77.380,32.852 L78.793,33.897 M79.889,34.596 L80.630,35.068 L82.229,35.023 M83.528,34.986 L83.815,34.978 L83.528,34.986 L83.815,34.978 L83.528,34.986 L83.815,34.978 M13.741,31.258 L13.644,31.952 L13.741,31.258 L13.644,31.952 L13.741,31.258 L13.520,32.843 M14.329,32.852 L13.775,31.351 L14.018,32.008 L13.775,31.351 L14.018,32.008 L13.775,31.351 M75.082,29.667 L75.492,30.234 L75.082,29.667 L75.492,30.234 L75.082,29.667 L76.018,30.964 M76.779,32.018 L77.380,32.852 L76.971,32.284 L77.380,32.852 L76.971,32.284 L77.380,32.852 M83.815,31.565 L83.260,31.138 L83.815,31.565 L83.260,31.138 L83.815,31.565 L82.547,30.590 M81.516,29.797 L81.347,29.667 M77.444,29.277 L75.866,29.537 L76.556,29.424 L75.866,29.537 L76.556,29.424 L75.866,29.537 M80.630,27.841 L79.991,28.129 L80.630,27.841 L79.991,28.129 L80.630,27.841 L79.171,28.499 M77.986,29.033 L77.444,29.277 M81.347,29.667 L80.762,28.178 L81.018,28.829 L80.762,28.178 L81.018,28.829 L80.762,28.178 M13.206,23.296 L13.415,23.964 L13.206,23.296 L13.415,23.964 L13.206,23.296 L13.685,24.823 M13.741,24.999 L14.218,23.472 L14.009,24.140 L14.218,23.472 L14.009,24.140 L14.218,23.472 M68.911,23.296 L69.543,23.597 L68.911,23.296 L69.543,23.597 L68.911,23.296 L70.356,23.983 M71.074,24.324 L72.304,23.300 L71.766,23.748 L72.304,23.300 L71.766,23.748 L72.304,23.300 M79.926,23.296 L80.307,23.884 L79.926,23.296 L80.307,23.884 L79.926,23.296 L80.630,24.382 L80.249,23.795 L80.630,24.382 L80.249,23.795 L80.630,24.382 M13.741,21.267 L13.562,21.944 L13.741,21.267 L13.562,21.944 L13.741,21.267 L13.333,22.814 M14.273,23.296 L13.867,21.749 L14.045,22.426 L13.867,21.749 L14.045,22.426 L13.867,21.749 M71.074,21.967 L70.478,22.333 L71.074,21.967 L70.478,22.333 L71.074,21.967 L69.711,22.804 M72.308,23.296 L71.220,22.123 L71.696,22.637 L71.220,22.123 L71.696,22.637 L71.220,22.123 M47.264,10.556 L47.834,10.961 L47.264,10.556 L47.834,10.961 L47.264,10.556 L48.568,11.483 M48.778,11.632 L49.714,10.556 L49.255,11.084 L49.714,10.556 L49.255,11.084 L49.714,10.556 M45.198,7.370 L45.589,7.952 L45.198,7.370 L45.589,7.952 L45.198,7.370 L45.593,7.958 L46.458,9.303 M49.714,10.556 L50.787,9.368 M51.658,8.404 L51.963,8.067 L52.620,7.370 L52.140,7.880 L52.620,7.370 L52.140,7.880 L52.620,7.370 M41.834,4.185 L42.249,4.749 L41.834,4.185 L42.249,4.749 L41.834,4.185 L42.407,4.963 L43.619,6.008 M44.603,6.857 L45.198,7.370 L44.668,6.913 L45.198,7.370 L44.668,6.913 L45.198,7.370 M52.620,7.370 L52.855,6.711 L52.620,7.370 L52.855,6.711 L52.620,7.370 L53.157,5.863 M53.593,4.639 L53.755,4.185 L53.593,4.639 L53.755,4.185 L53.593,4.639 L53.755,4.185 M48.778,3.096 L48.092,2.954 L48.778,3.096 L48.092,2.954 L48.778,3.096 L47.211,2.771 M45.938,2.506 L45.593,2.434 L45.938,2.506 L45.593,2.434 L45.938,2.506 L45.593,2.434 M51.963,3.652 L51.273,3.532 L51.963,3.652 L51.273,3.532 L51.963,3.652 L50.387,3.377 M49.106,3.153 L48.778,3.096 L49.106,3.153 L48.778,3.096 L49.106,3.153 L48.778,3.096 M53.755,4.185 L53.084,3.986 L53.755,4.185 L53.084,3.986 L53.755,4.185 L52.221,3.729 L52.892,3.929 L52.221,3.729 L52.892,3.929 L52.221,3.729 M41.125,83.815 L41.696,84.220 L41.125,83.815 L41.696,84.220 L41.125,83.815 L42.407,84.725 L41.837,84.320 L42.407,84.725 L41.837,84.320 L42.407,84.725 M38.256,80.630 L38.668,81.196 L38.256,80.630 L38.668,81.196 L38.256,80.630 L39.222,81.959 L40.174,82.887 L41.125,83.815 L40.624,83.326 L41.125,83.815 L40.624,83.326 L41.125,83.815 M49.462,83.815 L49.854,83.235 L49.462,83.815 L49.854,83.235 L49.462,83.815 L50.179,82.753 L50.896,81.691 L51.614,80.630 L51.222,81.210 L51.614,80.630 L51.222,81.210 L51.614,80.630 M39.222,79.300 L38.811,79.866 L39.222,79.300 L38.811,79.866 L39.222,79.300 L38.256,80.630 L38.668,80.063 L38.256,80.630 L38.668,80.063 L38.256,80.630 M42.407,78.424 L41.732,78.610 L42.407,78.424 L41.732,78.610 L42.407,78.424 L40.815,78.862 L39.222,79.300 L39.897,79.115 L39.222,79.300 L39.897,79.115 L39.222,79.300 M44.262,77.444 L43.643,77.771 L44.262,77.444 L43.643,77.771 L44.262,77.444 L43.335,77.934 L42.407,78.424 L43.026,78.097 L42.407,78.424 L43.026,78.097 L42.407,78.424 M51.614,80.630 L51.578,79.931 L51.614,80.630 L51.578,79.931 L51.614,80.630 L51.532,79.037 L51.450,77.444 M52.999,77.444 L54.074,77.999 L55.148,78.553 L56.598,77.999 L58.048,77.444 L57.394,77.694 L58.048,77.444 L57.394,77.694 L58.048,77.444 M18.870,77.444 L19.186,76.820 L18.870,77.444 L19.186,76.820 L18.870,77.444 L19.490,76.218 L20.111,74.991 M18.768,74.259 L17.847,74.589 L16.926,74.920 M20.111,74.991 L20.531,74.259 L20.183,74.866 L20.531,74.259 L20.183,74.866 L20.531,74.259 M27.904,74.259 L28.530,74.574 L27.904,74.259 L28.530,74.574 L27.904,74.259 L28.785,74.702 L29.667,75.145 L30.482,74.702 L31.297,74.259 L30.682,74.594 L31.297,74.259 L30.682,74.594 L31.297,74.259 M45.593,76.681 L44.986,77.029 L45.593,76.681 L44.986,77.029 L45.593,76.681 L44.262,77.444 L44.869,77.096 L44.262,77.444 L44.869,77.096 L44.262,77.444 M48.778,76.559 L48.078,76.586 L48.778,76.559 L48.078,76.586 L48.778,76.559 L47.185,76.620 L45.593,76.681 L46.292,76.654 L45.593,76.681 L46.292,76.654 L45.593,76.681 M51.450,77.444 L50.786,77.224 L51.450,77.444 L50.786,77.224 L51.450,77.444 L50.114,77.002 L48.778,76.559 L49.442,76.779 L48.778,76.559 L49.442,76.779 L48.778,76.559 M55.148,76.763 L54.481,76.975 L55.148,76.763 L54.481,76.975 L55.148,76.763 L54.074,77.104 L52.999,77.444 L53.667,77.233 L52.999,77.444 L53.667,77.233 L52.999,77.444 M58.048,77.444 L57.367,77.284 L58.048,77.444 L57.367,77.284 L58.048,77.444 L56.598,77.104 L55.148,76.763 L55.830,76.923 L55.148,76.763 L55.830,76.923 L55.148,76.763 M20.111,73.916 L19.433,74.089 L20.111,73.916 L19.433,74.089 L20.111,73.916 L18.768,74.259 M20.531,74.259 L20.111,73.916 L20.531,74.259 L20.111,73.916 L20.531,74.259 L20.111,73.916 M27.228,71.074 L27.374,71.759 L27.228,71.074 L27.374,71.759 L27.228,71.074 L27.566,72.667 L27.904,74.259 M31.297,74.259 L31.043,72.667 L30.790,71.074 M29.667,68.012 L28.854,69.033 L28.041,70.054 L27.228,71.074 M30.790,71.074 L30.228,69.543 L29.667,68.012 L29.908,68.670 L29.667,68.012 L29.908,68.670 L29.667,68.012 M7.370,61.197 L7.607,60.538 L7.370,61.197 L7.607,60.538 L7.370,61.197 L7.885,59.765 L8.399,58.333 L8.162,58.992 L8.399,58.333 L8.162,58.992 L8.399,58.333 M55.573,58.333 L56.038,58.857 L55.573,58.333 L56.038,58.857 L55.573,58.333 L56.493,59.369 L57.413,60.406 L58.333,61.442 L59.926,61.145 L61.519,60.848 L62.316,59.591 L63.113,58.333 L62.738,58.924 L63.113,58.333 L62.738,58.924 L63.113,58.333 M8.399,58.333 L8.309,57.639 L8.399,58.333 L8.309,57.639 L8.399,58.333 L8.193,56.741 L7.988,55.148 L8.077,55.842 L7.988,55.148 L8.077,55.842 L7.988,55.148 M54.460,55.148 L54.694,55.808 L54.460,55.148 L54.694,55.808 L54.460,55.148 L54.804,56.115 L55.148,57.082 L55.573,58.333 L55.348,57.670 L55.573,58.333 L55.348,57.670 L55.573,58.333 M61.519,56.421 L61.135,55.836 L61.519,56.421 L61.135,55.836 L61.519,56.421 L60.685,55.148 L61.068,55.734 L60.685,55.148 L61.068,55.734 L60.685,55.148 M63.113,58.333 L62.665,57.796 L63.113,58.333 L62.665,57.796 L63.113,58.333 L62.316,57.377 L61.519,56.421 L61.967,56.959 L61.519,56.421 L61.967,56.959 L61.519,56.421 M7.370,54.024 L6.987,53.438 L7.370,54.024 L6.987,53.438 L7.370,54.024 L6.696,52.993 L6.022,51.963 M7.988,55.148 L7.370,54.024 L7.707,54.637 L7.370,54.024 L7.707,54.637 L7.370,54.024 M53.354,51.963 L53.584,52.624 L53.354,51.963 L53.584,52.624 L53.354,51.963 L53.907,53.556 L54.460,55.148 L54.230,54.487 L54.460,55.148 L54.230,54.487 L54.460,55.148 M60.685,55.148 L61.057,54.555 L60.685,55.148 L61.057,54.555 L60.685,55.148 L61.519,53.819 L62.050,52.891 L62.582,51.963 L62.234,52.570 L62.582,51.963 L62.234,52.570 L62.582,51.963 M6.022,51.963 L5.405,51.632 L6.022,51.963 L5.405,51.632 L6.022,51.963 L5.104,51.470 L4.185,50.977 L4.802,51.308 L4.185,50.977 L4.802,51.308 L4.185,50.977 M45.182,48.778 L45.593,49.092 L45.182,48.778 L45.593,49.092 L45.182,48.778 L45.593,49.092 L47.185,49.129 L48.778,49.166 L49.290,48.778 L48.778,49.166 L49.290,48.778 L48.778,49.166 L49.290,48.778 M53.890,48.778 L53.774,49.468 L53.890,48.778 L53.774,49.468 L53.890,48.778 L53.622,50.370 L53.354,51.963 L53.470,51.273 L53.354,51.963 L53.470,51.273 L53.354,51.963 M62.582,51.963 L62.422,51.282 L62.582,51.963 L62.422,51.282 L62.582,51.963 L62.207,50.370 L61.831,48.778 L61.992,49.459 L61.831,48.778 L61.992,49.459 L61.831,48.778 M42.222,45.593 L42.407,46.137 L42.222,45.593 L42.407,46.137 L42.222,45.593 L42.407,46.137 L43.332,47.017 L44.257,47.898 L45.182,48.778 L44.675,48.295 L45.182,48.778 L44.675,48.295 L45.182,48.778 M49.290,48.778 L49.670,48.190 L49.290,48.778 L49.670,48.190 L49.290,48.778 L49.977,47.716 L50.664,46.654 L51.351,45.593 M53.288,45.593 L53.589,47.185 L53.890,48.778 L53.760,48.090 L53.890,48.778 L53.760,48.090 L53.890,48.778 M61.519,48.405 L61.032,47.902 L61.519,48.405 L61.032,47.902 L61.519,48.405 L60.613,47.468 L59.707,46.530 L58.800,45.593 L59.287,46.096 L58.800,45.593 L59.287,46.096 L58.800,45.593 M61.831,48.778 L61.519,48.405 L61.831,48.778 L61.519,48.405 L61.831,48.778 L61.519,48.405 L61.831,48.778 L61.519,48.405 L61.831,48.778 L61.519,48.405 M42.368,42.407 L42.336,43.107 L42.368,42.407 L42.336,43.107 L42.368,42.407 L42.295,44.000 L42.222,45.593 L42.254,44.893 L42.222,45.593 L42.254,44.893 L42.222,45.593 M51.351,45.593 L51.815,45.069 L51.351,45.593 L51.815,45.069 L51.351,45.593 L51.963,44.902 L53.288,45.593 M55.148,44.918 L54.207,43.662 L53.266,42.407 L53.686,42.967 L53.266,42.407 L53.686,42.967 L53.266,42.407 M58.333,45.264 L57.637,45.188 L58.333,45.264 L57.637,45.188 L58.333,45.264 L56.741,45.091 L55.148,44.918 M58.800,45.593 L58.333,45.264 L58.800,45.593 L58.333,45.264 L58.800,45.593 L58.333,45.264 M79.429,42.407 L80.046,42.738 L79.429,42.407 L80.046,42.738 L79.429,42.407 L80.630,43.052 L81.493,42.407 L80.932,42.826 L81.493,42.407 L80.932,42.826 L81.493,42.407 M41.550,39.222 L41.724,39.900 L41.550,39.222 L41.724,39.900 L41.550,39.222 L41.959,40.815 L42.368,42.407 L42.194,41.729 L42.368,42.407 L42.194,41.729 L42.368,42.407 M51.963,41.536 L51.538,40.980 L51.963,41.536 L51.538,40.980 L51.963,41.536 L51.080,40.379 L50.196,39.222 L50.621,39.779 L50.196,39.222 L50.621,39.779 L50.196,39.222 M53.266,42.407 L52.684,42.018 L53.266,42.407 L52.684,42.018 L53.266,42.407 L51.963,41.536 L52.545,41.925 L51.963,41.536 L52.545,41.925 L51.963,41.536 M75.950,39.222 L76.346,39.799 L75.950,39.222 L76.346,39.799 L75.950,39.222 L76.697,40.310 L77.444,41.398 L78.437,41.903 L79.429,42.407 M81.493,42.407 L82.319,40.815 L83.145,39.222 L82.823,39.844 L83.145,39.222 L82.823,39.844 L83.145,39.222 M13.194,36.037 L13.738,36.478 L13.194,36.037 L13.738,36.478 L13.194,36.037 L13.741,36.480 L15.333,36.908 L16.926,37.336 L17.942,36.037 L17.511,36.588 L17.942,36.037 L17.511,36.588 L17.942,36.037 M42.407,37.321 L42.120,37.959 L42.407,37.321 L42.120,37.959 L42.407,37.321 L41.979,38.272 L41.550,39.222 M42.902,36.037 L42.407,37.321 L42.659,36.668 L42.407,37.321 L42.659,36.668 L42.407,37.321 M50.196,39.222 L50.068,38.534 L50.196,39.222 L50.068,38.534 L50.196,39.222 L49.900,37.630 L49.604,36.037 L49.732,36.725 L49.604,36.037 L49.732,36.725 L49.604,36.037 M75.415,36.037 L75.531,36.727 L75.415,36.037 L75.531,36.727 L75.415,36.037 L75.682,37.630 L75.950,39.222 L75.834,38.532 L75.950,39.222 L75.834,38.532 L75.950,39.222 M83.145,39.222 L83.569,38.665 L83.145,39.222 L83.569,38.665 L83.145,39.222 L83.815,38.343 L83.391,38.900 L83.815,38.343 L83.391,38.900 L83.815,38.343 M6.965,32.852 L7.370,33.183 L6.965,32.852 L7.370,33.183 L6.965,32.852 L7.370,33.183 L8.482,33.017 L9.593,32.852 M10.664,32.852 L11.507,33.914 L12.351,34.975 L13.194,36.037 L12.759,35.489 L13.194,36.037 L12.759,35.489 L13.194,36.037 M17.942,36.037 L18.123,35.361 L17.942,36.037 L18.123,35.361 L17.942,36.037 L18.368,34.444 L18.794,32.852 L18.613,33.528 L18.794,32.852 L18.613,33.528 L18.794,32.852 M45.593,33.974 L45.037,34.400 L45.593,33.974 L45.037,34.400 L45.593,33.974 L44.247,35.006 L42.902,36.037 L43.457,35.611 L42.902,36.037 L43.457,35.611 L42.902,36.037 M48.778,34.858 L48.103,34.671 L48.778,34.858 L48.103,34.671 L48.778,34.858 L47.185,34.416 L45.593,33.974 L46.267,34.162 L45.593,33.974 L46.267,34.162 L45.593,33.974 M49.604,36.037 L49.202,35.464 L49.604,36.037 L49.202,35.464 L49.604,36.037 L48.778,34.858 L49.179,35.431 L48.778,34.858 L49.179,35.431 L48.778,34.858 M62.670,32.852 L63.066,33.429 L62.670,32.852 L63.066,33.429 L62.670,32.852 L63.687,34.335 L64.704,35.817 L66.296,35.336 L67.889,34.854 L68.394,33.853 L68.898,32.852 L68.583,33.477 L68.898,32.852 L68.583,33.477 L68.898,32.852 M73.201,32.852 L73.765,33.266 L73.201,32.852 L73.765,33.266 L73.201,32.852 L74.259,33.627 L74.837,34.832 L75.415,36.037 L75.112,35.406 L75.415,36.037 L75.112,35.406 L75.415,36.037 M7.357,29.667 L7.271,30.361 L7.357,29.667 L7.271,30.361 L7.357,29.667 L7.161,31.259 L6.965,32.852 M9.593,32.852 L10.556,32.719 L9.862,32.815 L10.556,32.719 L9.862,32.815 L10.556,32.719 M18.794,32.852 L18.644,32.168 L18.794,32.852 L18.644,32.168 L18.794,32.852 L18.445,31.259 L18.097,29.667 L18.247,30.350 L18.097,29.667 L18.247,30.350 L18.097,29.667 M22.179,29.667 L22.769,30.045 L22.179,29.667 L22.769,30.045 L22.179,29.667 L23.296,30.383 L24.358,30.953 L25.420,31.523 L26.481,32.093 L28.074,31.468 L29.667,30.842 L30.754,30.255 L31.841,29.667 L31.225,30.000 L31.841,29.667 L31.225,30.000 L31.841,29.667 M61.150,29.667 L61.393,30.323 L61.150,29.667 L61.393,30.323 L61.150,29.667 L61.519,30.660 L62.094,31.756 L62.670,32.852 L62.345,32.232 L62.670,32.852 L62.345,32.232 L62.670,32.852 M68.898,32.852 L69.395,32.359 L68.898,32.852 L69.395,32.359 L68.898,32.852 L69.986,31.773 L71.074,30.695 L72.137,31.773 L73.201,32.852 L72.709,32.353 L73.201,32.852 L72.709,32.353 L73.201,32.852 M7.067,26.481 L7.130,27.179 L7.067,26.481 L7.130,27.179 L7.067,26.481 L7.212,28.074 L7.357,29.667 L7.293,28.970 L7.357,29.667 L7.293,28.970 L7.357,29.667 M18.097,29.667 L18.291,28.994 L18.097,29.667 L18.291,28.994 L18.097,29.667 L18.556,28.074 L19.016,26.481 M22.196,26.481 L22.188,28.074 L22.179,29.667 L22.183,28.967 L22.179,29.667 L22.183,28.967 L22.179,29.667 M29.667,28.322 L29.289,27.733 L29.667,28.322 L29.289,27.733 L29.667,28.322 L29.076,27.402 L28.486,26.481 L28.864,27.071 L28.486,26.481 L28.864,27.071 L28.486,26.481 M31.841,29.667 L31.246,29.298 L31.841,29.667 L31.246,29.298 L31.841,29.667 L30.754,28.994 L29.667,28.322 L30.262,28.690 L29.667,28.322 L30.262,28.690 L29.667,28.322 M61.519,29.306 L61.150,29.667 L61.519,29.306 L61.150,29.667 L61.519,29.306 L61.150,29.667 L61.519,29.306 L61.150,29.667 L61.519,29.306 L61.150,29.667 M64.208,26.481 L63.725,26.988 L64.208,26.481 L63.725,26.988 L64.208,26.481 L63.311,27.423 L62.415,28.365 L61.519,29.306 L62.001,28.799 L61.519,29.306 L62.001,28.799 L61.519,29.306 M74.259,26.672 L73.568,26.562 L74.259,26.672 L73.568,26.562 L74.259,26.672 L73.069,26.481 M74.940,26.481 L74.259,26.672 L74.933,26.483 L74.259,26.672 L74.933,26.483 L74.259,26.672 M8.773,23.296 L8.408,23.893 L8.773,23.296 L8.408,23.893 L8.773,23.296 L8.072,24.443 L7.370,25.590 L7.736,24.993 L7.370,25.590 L7.736,24.993 L7.370,25.590 M19.016,26.481 L19.504,25.980 L19.016,26.481 L19.504,25.980 L19.016,26.481 L20.111,25.358 L21.154,25.920 L22.196,26.481 M23.296,25.309 L22.770,24.303 L22.243,23.296 M24.194,23.296 L23.745,24.303 L23.296,25.309 L23.581,24.670 L23.296,25.309 L23.581,24.670 L23.296,25.309 M28.486,26.481 L28.321,25.801 L28.486,26.481 L28.321,25.801 L28.486,26.481 L28.099,24.889 L27.713,23.296 L27.878,23.977 L27.713,23.296 L27.878,23.977 L27.713,23.296 M64.704,24.719 L64.514,25.393 L64.704,24.719 L64.514,25.393 L64.704,24.719 L64.456,25.600 L64.208,26.481 M65.389,23.296 L64.704,24.719 L65.007,24.088 L64.704,24.719 L65.007,24.088 L64.704,24.719 M73.069,26.481 L73.713,26.207 L73.069,26.481 L73.713,26.207 L73.069,26.481 L74.259,25.974 L74.940,26.481 L74.379,26.063 L74.940,26.481 L74.379,26.063 L74.940,26.481 M22.243,23.296 L22.148,22.603 L22.243,23.296 L22.148,22.603 L22.243,23.296 L22.025,21.704 L21.806,20.111 M25.536,20.111 L24.865,21.704 L24.194,23.296 M27.713,23.296 L28.690,21.890 L29.667,20.484 L29.986,20.111 L29.667,20.484 L29.986,20.111 L29.667,20.484 L29.986,20.111 M64.170,20.111 L64.389,20.776 L64.170,20.111 L64.389,20.776 L64.170,20.111 L64.704,21.733 L65.389,23.296 L65.108,22.655 L65.389,23.296 L65.108,22.655 L65.389,23.296 M20.111,18.352 L19.499,18.013 L20.111,18.352 L19.499,18.013 L20.111,18.352 L18.826,17.639 L17.540,16.926 L18.152,17.266 L17.540,16.926 L18.152,17.266 L17.540,16.926 M21.806,20.111 L21.320,19.607 L21.806,20.111 L21.320,19.607 L21.806,20.111 L20.959,19.232 L20.111,18.352 L20.597,18.856 L20.111,18.352 L20.597,18.856 L20.111,18.352 M26.481,19.070 L26.011,19.588 L26.481,19.070 L26.011,19.588 L26.481,19.070 L25.536,20.111 M27.078,16.926 L26.780,17.998 L26.481,19.070 M29.986,20.111 L30.941,19.221 L31.897,18.331 L32.852,17.441 L33.206,16.926 L32.852,17.441 L33.206,16.926 L32.852,17.441 L33.206,16.926 M64.704,18.384 L64.497,19.053 L64.704,18.384 L64.497,19.053 L64.704,18.384 L64.437,19.248 L64.170,20.111 M67.889,19.240 L66.296,18.812 L64.704,18.384 L65.380,18.566 L64.704,18.384 L65.380,18.566 L64.704,18.384 M71.074,18.734 L70.383,18.844 L71.074,18.734 L70.383,18.844 L71.074,18.734 L69.481,18.987 L67.889,19.240 L68.580,19.130 L67.889,19.240 L68.580,19.130 L67.889,19.240 M74.259,19.654 L73.587,19.460 L74.259,19.654 L73.587,19.460 L74.259,19.654 L72.667,19.194 L71.074,18.734 L71.747,18.929 L71.074,18.734 L71.747,18.929 L71.074,18.734 M16.926,15.888 L16.260,16.104 L16.926,15.888 L16.260,16.104 L16.926,15.888 L15.333,16.404 L13.741,16.920 M17.540,16.926 L16.926,15.888 L17.282,16.490 L16.926,15.888 L17.282,16.490 L16.926,15.888 M29.667,15.022 L29.103,15.437 L29.667,15.022 L29.103,15.437 L29.667,15.022 L28.373,15.974 L27.078,16.926 L27.642,16.511 L27.078,16.926 L27.642,16.511 L27.078,16.926 M32.852,16.114 L32.190,15.887 L32.852,16.114 L32.190,15.887 L32.852,16.114 L31.259,15.568 L29.667,15.022 L30.329,15.249 L29.667,15.022 L30.329,15.249 L29.667,15.022 M33.206,16.926 L32.926,16.284 L33.206,16.926 L32.926,16.284 L33.206,16.926 L32.852,16.114 L33.132,16.756 L32.852,16.114 L33.132,16.756 L32.852,16.114 M48.231,13.741 L48.778,14.069 L48.231,13.741 L48.778,14.069 L48.231,13.741 L48.778,14.069 L49.253,13.741 L48.778,14.069 L49.253,13.741 L48.778,14.069 L49.253,13.741 M44.739,10.556 L45.093,11.159 L44.739,10.556 L45.093,11.159 L44.739,10.556 L45.593,12.011 L46.912,12.876 L48.231,13.741 M49.253,13.741 L50.104,12.679 L50.956,11.617 L51.807,10.556 L51.369,11.102 L51.807,10.556 L51.369,11.102 L51.807,10.556 M32.481,7.370 L32.852,7.666 L32.481,7.370 L32.852,7.666 L32.481,7.370 L32.852,7.666 L33.827,7.370 L33.158,7.573 L33.827,7.370 L33.158,7.573 L33.827,7.370 M42.021,7.370 L42.407,7.791 L42.021,7.370 L42.407,7.791 L42.021,7.370 L42.407,7.791 L43.185,8.712 L43.962,9.634 L44.739,10.556 L44.288,10.020 L44.739,10.556 L44.288,10.020 L44.739,10.556 M51.807,10.556 L51.963,10.383 L51.807,10.556 L51.963,10.383 L51.807,10.556 L51.963,10.383 L52.911,9.379 L53.858,8.375 L54.806,7.370 L54.325,7.880 L54.806,7.370 L54.325,7.880 L54.806,7.370 M33.827,7.370 L34.462,7.075 L33.827,7.370 L34.462,7.075 L33.827,7.370 L34.932,6.857 L36.037,6.344 L37.329,5.265 L38.621,4.185 M39.590,4.185 L40.400,5.247 L41.210,6.309 L42.021,7.370 L41.596,6.814 L42.021,7.370 L41.596,6.814 L42.021,7.370 M54.806,7.370 L55.148,6.837 L54.806,7.370 L55.148,6.837 L54.806,7.370 L55.148,6.837 L55.929,5.511 L56.710,4.185 L56.355,4.788 L56.710,4.185 L56.355,4.788 L56.710,4.185 M38.621,4.185 L39.077,3.654 L38.621,4.185 L39.077,3.654 L38.621,4.185 L39.222,3.485 L39.590,4.185 L39.264,3.565 L39.590,4.185 L39.264,3.565 L39.590,4.185 M37.843,83.815 L38.383,84.260 L37.843,83.815 L38.383,84.260 L37.843,83.815 L39.079,84.831 L38.538,84.387 L39.079,84.831 L38.538,84.387 L39.079,84.831 M33.648,80.630 L34.298,80.890 L33.648,80.630 L34.298,80.890 L33.648,80.630 L35.133,81.225 M36.037,81.588 L37.045,82.831 L36.604,82.287 L37.045,82.831 L36.604,82.287 L37.045,82.831 M29.667,77.996 L28.977,77.877 L29.667,77.996 L28.977,77.877 L29.667,77.996 L28.090,77.723 M26.809,77.502 L26.481,77.445 L26.809,77.502 L26.481,77.445 L26.809,77.502 L26.481,77.445 M32.154,80.630 L32.602,80.092 L32.154,80.630 L32.602,80.092 L32.154,80.630 L32.852,79.792 M30.337,77.444 L29.667,77.996 M32.852,79.792 L33.648,80.630 L33.166,80.122 L33.648,80.630 L33.166,80.122 L33.648,80.630 M62.564,80.630 L62.792,79.968 L62.564,80.630 L62.792,79.968 L62.564,80.630 L63.085,79.117 M63.509,77.888 L63.662,77.444 L63.509,77.888 L63.662,77.444 L63.509,77.888 L63.662,77.444 M26.480,77.444 L27.179,77.405 L26.480,77.444 L27.179,77.405 L26.480,77.444 L28.079,77.355 M29.377,77.283 L29.667,77.267 L30.337,77.444 L29.667,77.267 L30.337,77.444 L29.667,77.267 L30.337,77.444 M36.037,74.776 L35.641,74.259 L36.037,74.776 L35.641,74.259 L36.037,74.776 L35.641,74.259 L36.037,74.776 L35.641,74.259 L36.037,74.776 L35.641,74.259 M39.222,76.242 L38.586,75.949 L39.222,76.242 L38.586,75.949 L39.222,76.242 L37.769,75.573 M36.588,75.029 L36.037,74.776 L36.588,75.029 L36.037,74.776 L36.588,75.029 L36.037,74.776 M42.407,76.131 L41.708,76.155 L42.407,76.131 L41.708,76.155 L42.407,76.131 L40.808,76.186 M39.509,76.232 L39.222,76.242 L39.509,76.232 L39.222,76.242 L39.509,76.232 L39.222,76.242 M45.413,74.259 L44.819,74.629 L45.413,74.259 L44.819,74.629 L45.413,74.259 L44.055,75.105 M42.952,75.792 L42.407,76.131 L42.952,75.792 L42.407,76.131 L42.952,75.792 L42.407,76.131 M48.778,75.131 L48.107,74.932 L48.778,75.131 L48.107,74.932 L48.778,75.131 L47.243,74.677 L47.915,74.875 L47.243,74.677 L47.915,74.875 L47.243,74.677 M51.963,75.630 L51.271,75.521 L51.963,75.630 L51.271,75.521 L51.963,75.630 L50.382,75.382 M49.098,75.181 L48.778,75.131 L49.098,75.181 L48.778,75.131 L49.098,75.181 L48.778,75.131 M54.753,74.259 L54.125,74.568 L54.753,74.259 L54.125,74.568 L54.753,74.259 L53.317,74.965 M52.150,75.538 L51.963,75.630 L52.150,75.538 L51.963,75.630 L52.150,75.538 L51.963,75.630 M63.662,77.444 L64.153,76.945 L63.662,77.444 L64.153,76.945 L63.662,77.444 L64.704,76.382 L65.706,75.135 L65.267,75.681 L65.706,75.135 L65.267,75.681 L65.706,75.135 M16.926,71.363 L16.313,71.701 L16.926,71.363 L16.313,71.701 L16.926,71.363 L15.524,72.135 M14.386,72.762 L13.741,73.117 L14.354,72.779 L13.741,73.117 L14.354,72.779 L13.741,73.117 M17.793,71.074 L17.129,71.295 L17.793,71.074 L17.129,71.295 L17.793,71.074 L16.926,71.363 L17.590,71.142 L16.926,71.363 L17.590,71.142 L16.926,71.363 M35.641,74.259 L35.223,73.697 L35.641,74.259 L35.223,73.697 L35.641,74.259 L34.686,72.975 M33.911,71.931 L33.274,71.074 L33.691,71.636 L33.274,71.074 L33.691,71.636 L33.274,71.074 M45.593,74.165 L45.413,74.259 L45.593,74.165 L45.413,74.259 L45.593,74.165 L45.413,74.259 M45.831,74.259 L45.593,74.165 L45.831,74.259 L45.593,74.165 L45.831,74.259 L45.593,74.165 M55.148,74.092 L54.753,74.259 L55.148,74.092 L54.753,74.259 L55.148,74.092 L54.753,74.259 M58.333,72.593 L56.886,73.274 M55.710,73.828 L55.148,74.092 L55.710,73.828 L55.148,74.092 L55.710,73.828 L55.148,74.092 M61.519,73.840 L60.867,73.585 L61.519,73.840 L60.867,73.585 L61.519,73.840 L60.029,73.257 M58.818,72.783 L58.333,72.593 L58.818,72.783 L58.333,72.593 L58.818,72.783 L58.333,72.593 M64.197,71.074 L63.710,71.577 L64.197,71.074 L63.710,71.577 L64.197,71.074 L63.084,72.224 M62.180,73.158 L61.519,73.840 L62.005,73.337 L61.519,73.840 L62.005,73.337 L61.519,73.840 M66.409,74.259 L66.426,73.559 L66.409,74.259 L66.426,73.559 L66.409,74.259 L66.449,72.660 M66.481,71.360 L66.488,71.074 L66.481,71.360 L66.488,71.074 L66.481,71.360 L66.488,71.074 M71.074,71.147 L70.620,71.680 L71.074,71.147 L70.620,71.680 L71.074,71.147 L70.035,72.364 M69.191,73.353 L68.418,74.259 L68.872,73.727 L68.418,74.259 L68.872,73.727 L68.418,74.259 M20.111,70.064 L19.469,70.343 L20.111,70.064 L19.469,70.343 L20.111,70.064 L18.644,70.703 M21.244,67.889 L20.505,69.308 L20.828,68.687 L20.505,69.308 L20.828,68.687 L20.505,69.308 M32.852,69.591 L32.737,68.900 L32.852,69.591 L32.737,68.900 L32.852,69.591 L32.589,68.013 M33.274,71.074 L32.852,69.591 L33.043,70.264 L32.852,69.591 L33.043,70.264 L32.852,69.591 M64.638,67.889 L64.542,68.582 L64.638,67.889 L64.542,68.582 L64.638,67.889 L64.419,69.474 M64.240,70.761 L64.197,71.074 M66.488,71.074 L67.579,69.903 M67.889,69.570 L69.359,70.200 M70.554,70.713 L71.074,70.936 L70.554,70.713 L71.074,70.936 L70.554,70.713 L71.074,70.936 M22.606,64.704 L22.331,65.347 L22.606,64.704 L22.331,65.347 L22.606,64.704 L21.977,66.175 M21.466,67.370 L21.244,67.889 L21.466,67.370 L21.244,67.889 L21.466,67.370 L21.244,67.889 M26.481,65.746 L25.931,65.314 L26.481,65.746 L25.931,65.314 L26.481,65.746 L25.223,64.758 L25.773,65.190 L25.223,64.758 L25.773,65.190 L25.223,64.758 M29.667,66.179 L28.973,66.085 L29.667,66.179 L28.973,66.085 L29.667,66.179 L28.081,65.964 M26.793,65.788 L26.481,65.746 L26.793,65.788 L26.481,65.746 L26.793,65.788 L26.481,65.746 M32.569,67.889 L31.965,67.534 L32.569,67.889 L31.965,67.534 L32.569,67.889 L31.190,67.077 M30.070,66.417 L29.667,66.179 L30.070,66.417 L29.667,66.179 L30.070,66.417 L29.667,66.179 M59.543,64.704 L60.161,65.032 L59.543,64.704 L60.161,65.032 L59.543,64.704 L60.955,65.455 M61.519,65.755 L62.839,66.658 M63.912,67.392 L64.638,67.889 L64.061,67.494 L64.638,67.889 L64.061,67.494 L64.638,67.889 M77.444,65.314 L76.825,64.988 L77.444,65.314 L76.825,64.988 L77.444,65.314 L76.284,64.704 L76.904,65.029 L76.284,64.704 L76.904,65.029 L76.284,64.704 M7.370,63.953 L7.909,63.506 L7.370,63.953 L7.909,63.506 L7.370,63.953 L8.601,62.931 M9.602,62.101 L10.303,61.519 L9.764,61.966 L10.303,61.519 L9.764,61.966 L10.303,61.519 M23.296,63.714 L22.896,64.288 L23.296,63.714 L22.896,64.288 L23.296,63.714 L22.606,64.704 M25.153,64.704 L23.741,63.951 L24.358,64.280 L23.741,63.951 L24.358,64.280 L23.741,63.951 M54.670,61.519 L55.075,62.089 L54.670,61.519 L55.075,62.089 L54.670,61.519 L55.148,62.192 L56.519,63.017 M57.634,63.687 L58.333,64.107 L59.543,64.704 L58.915,64.394 L59.543,64.704 L58.915,64.394 L59.543,64.704 M71.074,63.133 L70.560,62.658 L71.074,63.133 L70.560,62.658 L71.074,63.133 L69.899,62.048 L70.413,62.523 L69.899,62.048 L70.413,62.523 L69.899,62.048 M74.259,64.031 L73.586,63.841 L74.259,64.031 L73.586,63.841 L74.259,64.031 L72.719,63.597 M71.468,63.244 L71.074,63.133 L71.468,63.244 L71.074,63.133 L71.468,63.244 L71.074,63.133 M76.284,64.704 L75.620,64.483 L76.284,64.704 L75.620,64.483 L76.284,64.704 L74.766,64.199 L75.430,64.420 L74.766,64.199 L75.430,64.420 L74.766,64.199 M10.303,61.519 L10.241,60.821 L10.303,61.519 L10.241,60.821 L10.303,61.519 L10.161,59.925 M10.046,58.630 L10.019,58.333 L10.046,58.630 L10.019,58.333 L10.046,58.630 L10.019,58.333 M53.145,58.333 L53.448,58.965 L53.145,58.333 L53.448,58.965 L53.145,58.333 L53.836,59.777 M54.397,60.949 L54.670,61.519 L54.397,60.949 L54.670,61.519 L54.397,60.949 L54.670,61.519 M69.325,61.519 L69.079,60.863 L69.325,61.519 L69.079,60.863 L69.325,61.519 L68.762,60.021 M68.305,58.804 L68.128,58.333 L68.305,58.804 L68.128,58.333 L68.305,58.804 L68.128,58.333 M10.019,58.333 L9.998,57.634 L10.019,58.333 L9.998,57.634 L10.019,58.333 L9.971,56.734 M9.932,55.435 L9.923,55.148 L9.932,55.435 L9.923,55.148 L9.932,55.435 L9.923,55.148 M52.167,55.148 L52.372,55.817 L52.167,55.148 L52.372,55.817 L52.167,55.148 L52.637,56.678 M53.018,57.920 L53.145,58.333 L53.018,57.920 L53.145,58.333 L53.018,57.920 L53.145,58.333 M67.889,56.860 L67.638,56.206 L67.889,56.860 L67.638,56.206 L67.889,56.860 L67.316,55.366 M68.128,58.333 L67.889,56.860 L68.001,57.551 L67.889,56.860 L68.001,57.551 L67.889,56.860 M9.923,55.148 L9.624,54.515 L9.923,55.148 L9.624,54.515 L9.923,55.148 L9.239,53.702 M8.682,52.527 L8.415,51.963 L8.682,52.527 L8.415,51.963 L8.682,52.527 L8.415,51.963 M42.862,51.963 L43.549,52.098 L42.862,51.963 L43.549,52.098 L42.862,51.963 L44.432,52.271 M45.593,52.498 L47.189,52.389 M48.486,52.300 L48.778,52.280 L50.248,52.911 M51.443,53.424 L51.963,53.647 L52.167,55.148 L52.072,54.454 L52.167,55.148 L52.072,54.454 L52.167,55.148 M67.232,55.148 L66.803,54.595 L67.232,55.148 L66.803,54.595 L67.232,55.148 L66.251,53.885 M65.453,52.858 L64.758,51.963 L65.187,52.516 L64.758,51.963 L65.187,52.516 L64.758,51.963 M7.370,51.111 L6.728,50.834 L7.370,51.111 L6.728,50.834 L7.370,51.111 L5.901,50.478 M4.707,49.963 L4.185,49.738 L4.707,49.963 L4.185,49.738 L4.707,49.963 L4.185,49.738 M8.415,51.963 L7.873,51.521 L8.415,51.963 L7.873,51.521 L8.415,51.963 L7.370,51.111 L7.913,51.553 L7.370,51.111 L7.913,51.553 L7.370,51.111 M41.696,48.778 L41.862,49.458 L41.696,48.778 L41.862,49.458 L41.696,48.778 L42.076,50.332 M42.385,51.595 L42.862,51.963 L42.385,51.595 L42.862,51.963 L42.385,51.595 L42.862,51.963 M64.704,51.835 L64.562,51.149 L64.704,51.835 L64.562,51.149 L64.704,51.835 L64.380,50.268 M64.116,48.995 L64.072,48.778 L64.116,48.995 L64.072,48.778 L64.116,48.995 L64.072,48.778 M82.010,48.778 L82.658,49.043 L82.010,48.778 L82.658,49.043 L82.010,48.778 L83.491,49.384 M83.815,49.517 L85.255,48.819 L84.625,49.124 L85.255,48.819 L84.625,49.124 L85.255,48.819 M40.579,45.593 L40.810,46.253 L40.579,45.593 L40.810,46.253 L40.579,45.593 L41.108,47.102 M41.539,48.329 L41.696,48.778 L41.539,48.329 L41.696,48.778 L41.539,48.329 L41.696,48.778 M64.072,48.778 L64.402,48.161 L64.072,48.778 L64.402,48.161 L64.072,48.778 L64.704,47.598 M61.840,45.593 L61.519,45.736 M64.704,47.598 L66.206,48.148 M67.427,48.596 L67.889,48.765 L68.356,47.235 M68.736,45.991 L68.858,45.593 L68.736,45.991 L68.858,45.593 L68.736,45.991 L68.858,45.593 M79.801,45.593 L80.056,46.245 L79.801,45.593 L80.056,46.245 L79.801,45.593 L80.383,47.083 M80.630,47.717 L81.899,48.692 L81.343,48.265 L81.899,48.692 L81.343,48.265 L81.899,48.692 M19.735,42.407 L20.111,42.666 L19.735,42.407 L20.111,42.666 L19.735,42.407 L20.111,42.666 L21.704,42.817 M22.998,42.940 L23.296,42.968 L23.316,42.407 L23.296,42.968 L23.316,42.407 L23.296,42.968 L23.316,42.407 M40.256,42.407 L40.327,43.104 L40.256,42.407 L40.327,43.104 L40.256,42.407 L40.417,43.999 M40.548,45.293 L40.579,45.593 L40.548,45.293 L40.579,45.593 L40.548,45.293 L40.579,45.593 M58.333,43.450 L57.705,43.142 L58.333,43.450 L57.705,43.142 L58.333,43.450 L56.896,42.747 L57.525,43.055 L56.896,42.747 L57.525,43.055 L56.896,42.747 M61.380,45.593 L60.807,45.190 L61.380,45.593 L60.807,45.190 L61.380,45.593 L60.071,44.672 M59.008,43.924 L58.333,43.450 L58.906,43.853 L58.333,43.450 L58.906,43.853 L58.333,43.450 M64.704,43.055 L64.180,43.519 L64.704,43.055 L64.180,43.519 L64.704,43.055 L63.506,44.116 M62.533,44.978 L61.840,45.593 L62.364,45.128 L61.840,45.593 L62.364,45.128 L61.840,45.593 M65.263,42.407 L64.806,42.937 L65.263,42.407 L64.806,42.937 L65.263,42.407 L64.704,43.055 L65.161,42.525 L64.704,43.055 L65.161,42.525 L64.704,43.055 M68.858,45.593 L69.198,44.980 L68.858,45.593 L69.198,44.980 L68.858,45.593 L69.634,44.193 M70.264,43.056 L70.624,42.407 L70.284,43.020 L70.624,42.407 L70.284,43.020 L70.624,42.407 M75.741,42.407 L76.277,42.857 L75.741,42.407 L76.277,42.857 L75.741,42.407 L76.966,43.436 M77.444,43.837 L78.728,44.793 L78.166,44.374 L78.728,44.793 L78.166,44.374 L78.728,44.793 M13.685,39.222 L14.325,39.505 L13.685,39.222 L14.325,39.505 L13.685,39.222 L15.210,39.895 M16.403,40.411 L16.926,40.636 L18.279,41.490 M19.379,42.183 L19.735,42.407 M23.316,42.407 L23.410,40.810 M23.487,39.512 L23.504,39.222 L23.487,39.512 L23.504,39.222 L23.487,39.512 L23.504,39.222 M38.471,39.222 L39.069,39.586 L38.471,39.222 L39.069,39.586 L38.471,39.222 L39.222,39.679 L39.789,41.175 L39.541,40.521 L39.789,41.175 L39.541,40.521 L39.789,41.175 M51.963,39.779 L51.538,39.223 L51.963,39.779 L51.538,39.223 L51.963,39.779 L51.538,39.222 L51.963,39.779 L51.538,39.222 L51.963,39.779 L51.538,39.222 M55.148,41.675 L54.547,41.317 L55.148,41.675 L54.547,41.317 L55.148,41.675 L53.773,40.857 M52.656,40.192 L51.963,39.779 L52.564,40.137 L51.963,39.779 L52.564,40.137 L51.963,39.779 M56.202,42.407 L55.627,42.008 L56.202,42.407 L55.627,42.008 L56.202,42.407 L55.148,41.675 L55.723,42.075 L55.148,41.675 L55.723,42.075 L55.148,41.675 M62.341,39.222 L62.799,39.751 L62.341,39.222 L62.799,39.751 L62.341,39.222 L63.388,40.432 M64.239,41.415 L64.704,41.951 L65.263,42.407 L64.721,41.965 L65.263,42.407 L64.721,41.965 L65.263,42.407 M70.624,42.407 L71.074,42.006 L70.624,42.407 L71.074,42.006 L70.624,42.407 L71.074,42.006 L72.474,41.231 M73.611,40.601 L74.259,40.242 L75.163,41.563 L74.767,40.985 L75.163,41.563 L74.767,40.985 L75.163,41.563 M4.185,36.667 L4.884,36.631 L4.185,36.667 L4.884,36.631 L4.185,36.667 L5.783,36.586 M7.082,36.521 L7.370,36.507 L8.962,36.666 M10.256,36.795 L10.556,36.825 L11.826,37.798 M12.858,38.588 L13.685,39.222 L13.129,38.797 L13.685,39.222 L13.129,38.797 L13.685,39.222 M23.504,39.222 L23.755,38.569 L23.504,39.222 L23.755,38.569 L23.504,39.222 L24.078,37.729 M24.545,36.516 L24.729,36.037 L24.545,36.516 L24.729,36.037 L24.545,36.516 L24.729,36.037 M35.375,36.037 L35.673,36.670 L35.375,36.037 L35.673,36.670 L35.375,36.037 L36.037,37.444 L37.329,38.388 L36.764,37.975 L37.329,38.388 L36.764,37.975 L37.329,38.388 M51.538,39.222 L51.408,38.534 L51.538,39.222 L51.408,38.534 L51.538,39.222 L51.240,37.650 M50.998,36.373 L50.935,36.037 L50.998,36.373 L50.935,36.037 L50.998,36.373 L50.935,36.037 M62.435,36.037 L62.415,36.737 L62.435,36.037 L62.415,36.737 L62.435,36.037 L62.388,37.636 M62.349,38.936 L62.341,39.222 L62.349,38.936 L62.341,39.222 L62.349,38.936 L62.341,39.222 M24.729,36.037 L25.402,35.842 L24.729,36.037 L25.402,35.842 L24.729,36.037 L26.266,35.591 M26.481,35.528 L27.893,34.776 M29.040,34.164 L29.667,33.830 L31.260,33.974 M32.555,34.091 L32.852,34.118 L34.125,35.086 M35.160,35.873 L35.375,36.037 L35.160,35.873 L35.375,36.037 L35.160,35.873 L35.375,36.037 M39.222,34.375 L38.778,33.834 L39.222,34.375 L38.778,33.834 L39.222,34.375 L38.207,33.139 M40.475,32.852 L39.459,34.088 L39.903,33.547 L39.459,34.088 L39.903,33.547 L39.459,34.088 M48.778,32.958 L48.311,32.852 L48.778,32.958 L48.311,32.852 L48.778,32.958 L48.311,32.852 L48.778,32.958 L48.311,32.852 L48.778,32.958 L48.311,32.852 M50.935,36.037 L50.533,35.464 L50.935,36.037 L50.533,35.464 L50.935,36.037 L50.017,34.727 M49.271,33.662 L48.778,32.958 L49.179,33.531 L48.778,32.958 L49.179,33.531 L48.778,32.958 M59.517,32.852 L60.021,33.337 L59.517,32.852 L60.021,33.337 L59.517,32.852 L60.669,33.962 M61.519,34.780 L62.435,36.037 L62.023,35.471 L62.435,36.037 L62.023,35.471 L62.435,36.037 M37.971,32.852 L38.019,32.154 L37.971,32.852 L38.019,32.154 L37.971,32.852 L38.082,31.256 M38.171,29.959 L38.192,29.667 L38.171,29.959 L38.192,29.667 L38.171,29.959 L38.192,29.667 M42.407,31.665 L41.811,32.031 L42.407,31.665 L41.811,32.031 L42.407,31.665 L41.044,32.502 L41.641,32.136 L41.044,32.502 L41.641,32.136 L41.044,32.502 M45.593,32.378 L44.910,32.225 L45.593,32.378 L44.910,32.225 L45.593,32.378 L44.031,32.028 M42.763,31.744 L42.407,31.665 L42.763,31.744 L42.407,31.665 L42.763,31.744 L42.407,31.665 M48.311,32.852 L47.621,32.732 L48.311,32.852 L47.621,32.732 L48.311,32.852 L46.735,32.577 L47.424,32.697 L46.735,32.577 L47.424,32.697 L46.735,32.577 M59.181,29.667 L59.255,30.363 L59.181,29.667 L59.255,30.363 L59.181,29.667 L59.349,31.258 M59.485,32.551 L59.517,32.852 L59.485,32.551 L59.517,32.852 L59.485,32.551 L59.517,32.852 M32.852,28.256 L32.303,27.822 L32.852,28.256 L32.303,27.822 L32.852,28.256 L31.597,27.264 L32.146,27.698 L31.597,27.264 L32.146,27.698 L31.597,27.264 M36.037,28.294 L35.337,28.286 L36.037,28.294 L35.337,28.286 L36.037,28.294 L34.437,28.275 M33.137,28.260 L32.852,28.256 L33.137,28.260 L32.852,28.256 L33.137,28.260 L32.852,28.256 M38.192,29.667 L37.601,29.291 L38.192,29.667 L37.601,29.291 L38.192,29.667 L36.842,28.807 L37.433,29.183 L36.842,28.807 L37.433,29.183 L36.842,28.807 M61.519,27.383 L61.018,27.873 L61.519,27.383 L61.018,27.873 L61.519,27.383 L60.374,28.501 M59.444,29.410 L59.181,29.667 L59.444,29.410 L59.181,29.667 L59.444,29.410 L59.181,29.667 M62.377,26.481 L61.895,26.988 L62.377,26.481 L61.895,26.988 L62.377,26.481 L61.519,27.383 L62.001,26.876 L61.519,27.383 L62.001,26.876 L61.519,27.383 M30.608,26.481 L30.469,25.795 L30.608,26.481 L30.469,25.795 L30.608,26.481 L30.292,24.913 M30.035,23.639 L29.965,23.296 L30.035,23.639 L29.965,23.296 L30.035,23.639 L29.965,23.296 M62.946,23.296 L62.823,23.985 L62.946,23.296 L62.823,23.985 L62.946,23.296 L62.665,24.871 M62.436,26.151 L62.377,26.481 L62.436,26.151 L62.377,26.481 L62.436,26.151 L62.377,26.481 M29.965,23.296 L30.428,22.771 L29.965,23.296 L30.428,22.771 L29.965,23.296 L31.023,22.096 M31.883,21.120 L32.772,20.111 L32.309,20.636 L32.772,20.111 L32.309,20.636 L32.772,20.111 M61.816,20.111 L62.050,20.771 L61.816,20.111 L62.050,20.771 L61.816,20.111 L62.351,21.619 M62.786,22.844 L62.946,23.296 L62.786,22.844 L62.946,23.296 L62.786,22.844 L62.946,23.296 M32.772,20.111 L33.177,19.540 L32.772,20.111 L33.177,19.540 L32.772,20.111 L33.759,18.719 M34.496,17.648 L34.993,16.926 L34.596,17.503 L34.993,16.926 L34.596,17.503 L34.993,16.926 M52.642,16.926 L53.322,17.092 L52.642,16.926 L53.322,17.092 L52.642,16.926 L54.196,17.306 M55.148,17.538 L56.723,17.824 M58.002,18.055 L58.333,18.115 L59.904,18.420 M61.180,18.668 L61.519,18.733 L61.816,20.111 L61.668,19.427 L61.816,20.111 L61.668,19.427 L61.816,20.111 M67.889,17.029 L67.715,16.926 L67.889,17.029 L67.715,16.926 L67.889,17.029 L67.715,16.926 M68.177,16.926 L67.889,17.029 L68.177,16.926 L67.889,17.029 L68.177,16.926 L67.889,17.029 M34.993,16.926 L34.750,16.269 L34.993,16.926 L34.750,16.269 L34.993,16.926 L34.438,15.425 M33.987,14.206 L33.815,13.741 L33.987,14.206 L33.815,13.741 L33.987,14.206 L33.815,13.741 M44.822,13.741 L45.214,14.321 L44.822,13.741 L45.214,14.321 L44.822,13.741 L45.593,14.882 L46.982,15.675 M48.111,16.320 L48.778,16.700 L50.367,16.516 M51.658,16.366 L51.963,16.331 L52.642,16.926 L52.115,16.464 L52.642,16.926 L52.115,16.464 L52.642,16.926 M61.519,16.180 L60.975,15.738 L61.519,16.180 L60.975,15.738 L61.519,16.180 L60.277,15.170 M59.269,14.350 L58.519,13.741 L59.062,14.182 L58.519,13.741 L59.062,14.182 L58.519,13.741 M64.704,15.223 L64.033,15.424 L64.704,15.223 L64.033,15.424 L64.704,15.223 L63.171,15.683 M61.926,16.057 L61.519,16.180 L61.926,16.057 L61.519,16.180 L61.926,16.057 L61.519,16.180 M67.715,16.926 L67.106,16.581 L67.715,16.926 L67.106,16.581 L67.715,16.926 L66.323,16.138 M65.191,15.498 L64.704,15.223 L65.191,15.498 L64.704,15.223 L65.191,15.498 L64.704,15.223 M71.074,16.046 L70.404,16.249 L71.074,16.046 L70.404,16.249 L71.074,16.046 L69.543,16.511 L70.213,16.307 L69.543,16.511 L70.213,16.307 L69.543,16.511 M74.259,15.452 L73.571,15.581 L74.259,15.452 L73.571,15.581 L74.259,15.452 L72.686,15.745 M71.408,15.983 L71.074,16.046 L71.408,15.983 L71.074,16.046 L71.408,15.983 L71.074,16.046 M23.296,10.724 L22.810,10.556 L23.296,10.724 L22.810,10.556 L23.296,10.724 L22.810,10.556 L23.296,10.724 L22.810,10.556 L23.296,10.724 L22.810,10.556 M26.429,13.741 L25.925,13.255 L26.429,13.741 L25.925,13.255 L26.429,13.741 L25.276,12.631 M24.340,11.729 L23.296,10.724 L23.800,11.209 L23.296,10.724 L23.800,11.209 L23.296,10.724 M29.667,12.376 L29.025,12.655 L29.667,12.376 L29.025,12.655 L29.667,12.376 L28.199,13.014 M27.007,13.532 L26.527,13.741 L27.007,13.532 L26.527,13.741 L27.007,13.532 L26.527,13.741 M32.852,12.197 L32.153,12.236 L32.852,12.197 L32.153,12.236 L32.852,12.197 L31.254,12.287 M29.956,12.360 L29.667,12.376 L29.956,12.360 L29.667,12.376 L29.956,12.360 L29.667,12.376 M33.815,13.741 L33.444,13.147 L33.815,13.741 L33.444,13.147 L33.815,13.741 L32.968,12.383 L33.338,12.977 L32.968,12.383 L33.338,12.977 L32.968,12.383 M43.053,10.556 L43.393,11.168 L43.053,10.556 L43.393,11.168 L43.053,10.556 L43.830,11.954 M44.461,13.091 L44.822,13.741 L44.482,13.129 L44.822,13.741 L44.482,13.129 L44.822,13.741 M55.148,12.008 L54.876,11.364 L55.148,12.008 L54.876,11.364 L55.148,12.008 L54.534,10.556 L54.806,11.200 L54.534,10.556 L54.806,11.200 L54.534,10.556 M58.333,13.541 L57.703,13.238 L58.333,13.541 L57.703,13.238 L58.333,13.541 L56.892,12.847 M55.720,12.284 L55.148,12.008 M58.519,13.741 L58.333,13.541 L58.519,13.741 L58.333,13.541 L58.519,13.741 L58.333,13.541 M22.810,10.556 L22.118,10.450 L22.810,10.556 L22.118,10.450 L22.810,10.556 L21.228,10.314 L21.920,10.420 L21.228,10.314 L21.920,10.420 L21.228,10.314 M29.972,7.370 L30.519,7.806 L29.972,7.370 L30.519,7.806 L29.972,7.370 L31.223,8.367 M32.240,9.176 L32.852,9.663 L34.364,9.140 M35.593,8.715 L36.037,8.561 L37.369,7.674 M40.180,7.370 L41.264,8.547 M42.144,9.504 L42.407,9.790 L43.053,10.556 L42.602,10.020 L43.053,10.556 L42.602,10.020 L43.053,10.556 M54.534,10.556 L55.010,10.043 L54.534,10.556 L55.010,10.043 L54.534,10.556 L55.148,9.894 L56.169,8.662 M56.999,7.661 L57.240,7.370 L56.999,7.661 L57.240,7.370 L56.999,7.661 L57.240,7.370 M29.667,7.006 L29.972,7.370 L29.667,7.006 L29.972,7.370 L29.667,7.006 L29.972,7.370 L29.667,7.006 L29.972,7.370 L29.667,7.006 L29.972,7.370 M37.824,7.370 L38.352,6.910 L37.824,7.370 L38.352,6.910 L37.824,7.370 L39.029,6.317 M39.222,6.149 L40.180,7.370 L39.748,6.819 L40.180,7.370 L39.748,6.819 L40.180,7.370 M57.240,7.370 L57.548,6.742 L57.240,7.370 L57.548,6.742 L57.240,7.370 L57.945,5.934 L57.637,6.562 L57.945,5.934 L57.637,6.562 L57.945,5.934 M39.222,74.131 L38.914,73.502 L39.222,74.131 L38.914,73.502 L39.222,74.131 L38.474,72.603 L37.725,71.074 L38.033,71.703 L37.725,71.074 L38.033,71.703 L37.725,71.074 M42.407,73.162 L41.738,73.366 L42.407,73.162 L41.738,73.366 L42.407,73.162 L40.815,73.647 L39.222,74.131 L39.892,73.927 L39.222,74.131 L39.892,73.927 L39.222,74.131 M45.593,72.253 L44.919,72.445 L45.593,72.253 L44.919,72.445 L45.593,72.253 L44.000,72.708 L42.407,73.162 L43.081,72.970 L42.407,73.162 L43.081,72.970 L42.407,73.162 M48.778,73.431 L48.121,73.188 L48.778,73.431 L48.121,73.188 L48.778,73.431 L47.185,72.842 L45.593,72.253 L46.249,72.496 L45.593,72.253 L46.249,72.496 L45.593,72.253 M51.963,73.124 L51.266,73.191 L51.963,73.124 L51.266,73.191 L51.963,73.124 L50.370,73.278 L48.778,73.431 L49.475,73.364 L48.778,73.431 L49.475,73.364 L48.778,73.431 M55.148,72.322 L54.469,72.493 L55.148,72.322 L54.469,72.493 L55.148,72.322 L53.556,72.723 L51.963,73.124 L52.642,72.953 L51.963,73.124 L52.642,72.953 L51.963,73.124 M57.363,71.074 L56.753,71.418 L57.363,71.074 L56.753,71.418 L57.363,71.074 L56.256,71.698 L55.148,72.322 L55.758,71.979 L55.148,72.322 L55.758,71.979 L55.148,72.322 M16.926,68.347 L16.358,67.938 L16.926,68.347 L16.358,67.938 L16.926,68.347 L16.291,67.889 M17.675,67.889 L16.926,68.347 L17.523,67.982 L16.926,68.347 L17.523,67.982 L16.926,68.347 M36.037,68.626 L35.691,68.017 L36.037,68.626 L35.691,68.017 L36.037,68.626 L35.619,67.889 M37.725,71.074 L36.881,69.850 L36.037,68.626 L36.434,69.202 L36.037,68.626 L36.434,69.202 L36.037,68.626 M58.333,69.585 L57.951,70.171 L58.333,69.585 L57.951,70.171 L58.333,69.585 L57.363,71.074 L57.745,70.488 L57.363,71.074 L57.745,70.488 L57.363,71.074 M60.167,67.889 L59.653,68.364 L60.167,67.889 L59.653,68.364 L60.167,67.889 L59.250,68.737 L58.333,69.585 L58.847,69.110 L58.333,69.585 L58.847,69.110 L58.333,69.585 M13.741,65.509 L13.275,64.987 L13.741,65.509 L13.275,64.987 L13.741,65.509 L13.022,64.704 L13.488,65.226 L13.022,64.704 L13.488,65.226 L13.022,64.704 M16.291,67.889 L15.779,67.411 L16.291,67.889 L15.779,67.411 L16.291,67.889 L15.016,66.699 L13.741,65.509 L14.252,65.987 L13.741,65.509 L14.252,65.987 L13.741,65.509 M20.111,65.408 L19.621,65.908 L20.111,65.408 L19.621,65.908 L20.111,65.408 L18.893,66.649 L17.675,67.889 L18.165,67.390 L17.675,67.889 L18.165,67.390 L17.675,67.889 M20.421,64.704 L20.139,65.344 L20.421,64.704 L20.139,65.344 L20.421,64.704 L20.111,65.408 L20.393,64.768 L20.111,65.408 L20.393,64.768 L20.111,65.408 M35.619,67.889 L35.602,67.189 L35.619,67.889 L35.602,67.189 L35.619,67.889 L35.581,66.296 L35.542,64.704 L35.559,65.404 L35.542,64.704 L35.559,65.404 L35.542,64.704 M54.692,64.704 L55.148,64.873 L54.692,64.704 L55.148,64.873 L54.692,64.704 L55.148,64.873 L56.210,65.547 L57.272,66.221 L58.333,66.896 L59.250,67.392 L60.167,67.889 L59.551,67.556 L60.167,67.889 L59.551,67.556 L60.167,67.889 M13.022,64.704 L13.111,64.009 L13.022,64.704 L13.111,64.009 L13.022,64.704 L13.228,63.111 L13.433,61.519 L13.344,62.213 L13.433,61.519 L13.344,62.213 L13.433,61.519 M22.169,61.519 L21.832,62.132 L22.169,61.519 L21.832,62.132 L22.169,61.519 L21.586,62.580 L21.004,63.642 L20.421,64.704 L20.758,64.090 L20.421,64.704 L20.758,64.090 L20.421,64.704 M26.481,63.167 L25.909,62.764 L26.481,63.167 L25.909,62.764 L26.481,63.167 L25.310,62.343 L24.139,61.519 L24.712,61.921 L24.139,61.519 L24.712,61.921 L24.139,61.519 M29.667,64.234 L29.003,64.012 L29.667,64.234 L29.003,64.012 L29.667,64.234 L28.074,63.700 L26.481,63.167 L27.145,63.389 L26.481,63.167 L27.145,63.389 L26.481,63.167 M32.852,61.705 L32.304,62.140 L32.852,61.705 L32.304,62.140 L32.852,61.705 L31.790,62.548 L30.728,63.391 L29.667,64.234 L30.215,63.799 L29.667,64.234 L30.215,63.799 L29.667,64.234 M35.542,64.704 L35.075,64.183 L35.542,64.704 L35.075,64.183 L35.542,64.704 L34.646,63.704 L33.749,62.704 L32.852,61.705 L33.319,62.226 L32.852,61.705 L33.319,62.226 L32.852,61.705 M37.123,61.519 L37.694,61.924 L37.123,61.519 L37.694,61.924 L37.123,61.519 L38.173,62.264 L39.222,63.009 L40.583,62.264 L41.943,61.519 L41.329,61.855 L41.943,61.519 L41.329,61.855 L41.943,61.519 M52.759,61.519 L53.122,62.117 L52.759,61.519 L53.122,62.117 L52.759,61.519 L53.403,62.580 L54.047,63.642 L54.692,64.704 L54.329,64.105 L54.692,64.704 L54.329,64.105 L54.692,64.704 M74.259,62.038 L73.609,61.778 L74.259,62.038 L73.609,61.778 L74.259,62.038 L72.959,61.519 L73.609,61.778 L72.959,61.519 L73.609,61.778 L72.959,61.519 M77.444,63.340 L76.796,63.075 L77.444,63.340 L76.796,63.075 L77.444,63.340 L75.852,62.689 L74.259,62.038 L74.907,62.303 L74.259,62.038 L74.907,62.303 L74.259,62.038 M80.630,64.313 L79.960,64.108 L80.630,64.313 L79.960,64.108 L80.630,64.313 L79.037,63.826 L77.444,63.340 L78.114,63.545 L77.444,63.340 L78.114,63.545 L77.444,63.340 M13.433,61.519 L13.741,60.911 L13.433,61.519 L13.741,60.911 L13.433,61.519 L13.741,60.911 L14.379,59.622 L15.018,58.333 L14.707,58.961 L15.018,58.333 L14.707,58.961 L15.018,58.333 M23.296,61.054 L22.649,61.321 L23.296,61.054 L22.649,61.321 L23.296,61.054 L22.169,61.519 M24.139,61.519 L23.296,61.054 L23.910,61.392 L23.296,61.054 L23.910,61.392 L23.296,61.054 M38.836,58.333 L38.505,58.950 L38.836,58.333 L38.505,58.950 L38.836,58.333 L38.265,59.395 L37.694,60.457 L37.123,61.519 L37.455,60.902 L37.123,61.519 L37.455,60.902 L37.123,61.519 M41.943,61.519 L42.242,60.886 L41.943,61.519 L42.242,60.886 L41.943,61.519 L42.407,60.536 L42.616,59.435 L42.824,58.333 L42.694,59.021 L42.824,58.333 L42.694,59.021 L42.824,58.333 M49.959,58.333 L50.483,58.797 L49.959,58.333 L50.483,58.797 L49.959,58.333 L50.961,59.221 L51.963,60.108 L52.759,61.519 L52.415,60.909 L52.759,61.519 L52.415,60.909 L52.759,61.519 M72.959,61.519 L73.113,60.836 L72.959,61.519 L73.113,60.836 L72.959,61.519 L73.317,59.926 L73.675,58.333 L73.522,59.016 L73.675,58.333 L73.522,59.016 L73.675,58.333 M15.018,58.333 L14.763,57.681 L15.018,58.333 L14.763,57.681 L15.018,58.333 L14.395,56.741 L13.773,55.148 L14.027,55.800 L13.773,55.148 L14.027,55.800 L13.773,55.148 M39.222,57.688 L38.863,58.288 L39.222,57.688 L38.863,58.288 L39.222,57.688 L38.836,58.333 M42.407,56.604 L40.815,57.146 L39.222,57.688 M42.824,58.333 L42.407,56.604 L42.571,57.285 L42.407,56.604 L42.571,57.285 L42.407,56.604 M49.088,55.148 L49.273,55.823 L49.088,55.148 L49.273,55.823 L49.088,55.148 L49.523,56.741 L49.959,58.333 L49.774,57.658 L49.959,58.333 L49.774,57.658 L49.959,58.333 M73.675,58.333 L73.267,57.764 L73.675,58.333 L73.267,57.764 L73.675,58.333 L72.914,57.272 L72.153,56.210 L71.393,55.148 L71.800,55.717 L71.393,55.148 L71.800,55.717 L71.393,55.148 M80.899,55.148 L81.550,55.406 L80.899,55.148 L81.550,55.406 L80.899,55.148 L82.357,55.726 L83.815,56.305 L83.164,56.047 L83.815,56.305 L83.164,56.047 L83.815,56.305 M13.741,55.043 L13.318,54.484 L13.741,55.043 L13.318,54.484 L13.741,55.043 L12.964,54.016 L12.188,52.990 L11.411,51.963 L11.833,52.521 L11.411,51.963 L11.833,52.521 L11.411,51.963 M40.124,51.963 L40.552,52.517 L40.124,51.963 L40.552,52.517 L40.124,51.963 L40.885,52.948 L41.646,53.932 L42.407,54.917 L44.000,54.734 L45.593,54.550 L47.185,54.721 L48.778,54.891 L49.088,55.148 L48.778,54.891 L49.088,55.148 L48.778,54.891 L49.088,55.148 M71.393,55.148 L71.589,54.476 L71.393,55.148 L71.589,54.476 L71.393,55.148 L71.859,53.556 L72.326,51.963 L72.129,52.635 L72.326,51.963 L72.129,52.635 L72.326,51.963 M81.966,51.963 L81.744,52.627 L81.966,51.963 L81.744,52.627 L81.966,51.963 L81.433,53.556 L80.899,55.148 L81.122,54.484 L80.899,55.148 L81.122,54.484 L80.899,55.148 M7.370,49.060 L6.689,48.901 L7.370,49.060 L6.689,48.901 L7.370,49.060 L6.161,48.778 L6.842,48.937 L6.161,48.778 L6.842,48.937 L6.161,48.778 M10.556,51.391 L9.991,50.978 L10.556,51.391 L9.991,50.978 L10.556,51.391 L9.494,50.614 L8.432,49.837 L7.370,49.060 L7.935,49.473 L7.370,49.060 L7.935,49.473 L7.370,49.060 M11.411,51.963 L10.829,51.574 L11.411,51.963 L10.829,51.574 L11.411,51.963 L10.556,51.391 L11.137,51.780 L10.556,51.391 L11.137,51.780 L10.556,51.391 M22.656,48.778 L23.100,49.319 L22.656,48.778 L23.100,49.319 L22.656,48.778 L23.296,49.557 L24.889,49.221 L26.481,48.884 L25.797,49.029 L26.481,48.884 L25.797,49.029 L26.481,48.884 M40.126,48.778 L40.126,49.478 L40.126,48.778 L40.126,49.478 L40.126,48.778 L40.125,50.370 L40.124,51.963 L40.124,51.263 L40.124,51.963 L40.124,51.263 L40.124,51.963 M72.326,51.963 L72.218,51.271 L72.326,51.963 L72.218,51.271 L72.326,51.963 L72.078,50.370 L71.830,48.778 L71.937,49.469 L71.830,48.778 L71.937,49.469 L71.830,48.778 M77.937,48.778 L78.453,49.251 L77.937,48.778 L78.453,49.251 L77.937,48.778 L78.835,49.601 L79.732,50.425 L80.630,51.248 L81.966,51.963 L81.349,51.633 L81.966,51.963 L81.349,51.633 L81.966,51.963 M4.185,47.396 L3.886,46.763 L4.185,47.396 L3.886,46.763 L4.185,47.396 L3.759,46.494 L3.332,45.593 L3.631,46.225 L3.332,45.593 L3.631,46.225 L3.332,45.593 M6.161,48.778 L5.587,48.377 L6.161,48.778 L5.587,48.377 L6.161,48.778 L5.173,48.087 L4.185,47.396 L4.759,47.797 L4.185,47.396 L4.759,47.797 L4.185,47.396 M16.185,45.593 L16.711,46.055 L16.185,45.593 L16.711,46.055 L16.185,45.593 L16.926,46.244 L18.519,46.167 L20.111,46.089 L20.959,46.986 L21.808,47.882 L22.656,48.778 M26.558,48.778 L27.204,47.716 L27.851,46.654 L28.497,45.593 L28.133,46.190 L28.497,45.593 L28.133,46.190 L28.497,45.593 M38.839,45.593 L39.161,46.215 L38.839,45.593 L39.161,46.215 L38.839,45.593 L39.222,46.334 L39.674,47.556 L40.126,48.778 L39.883,48.121 L40.126,48.778 L39.883,48.121 L40.126,48.778 M71.074,47.191 L70.828,46.536 L71.074,47.191 L70.828,46.536 L71.074,47.191 L70.475,45.593 M71.830,48.778 L71.074,47.191 L71.375,47.823 L71.074,47.191 L71.375,47.823 L71.074,47.191 M76.903,45.593 L77.149,46.248 L76.903,45.593 L77.149,46.248 L76.903,45.593 L77.444,47.038 L77.691,47.908 L77.937,48.778 L77.746,48.104 L77.937,48.778 L77.746,48.104 L77.937,48.778 M3.332,45.593 L3.212,44.903 L3.332,45.593 L3.212,44.903 L3.332,45.593 L3.055,44.000 L2.779,42.407 L2.899,43.097 L2.779,42.407 L2.899,43.097 L2.779,42.407 M13.768,42.407 L14.191,42.965 L13.768,42.407 L14.191,42.965 L13.768,42.407 L14.574,43.469 L15.379,44.531 L16.185,45.593 L15.762,45.035 L16.185,45.593 L15.762,45.035 L16.185,45.593 M26.481,43.981 L26.050,43.429 L26.481,43.981 L26.050,43.429 L26.481,43.981 L25.866,43.194 L25.251,42.407 L25.682,42.959 L25.251,42.407 L25.682,42.959 L25.251,42.407 M28.497,45.593 L27.950,45.155 L28.497,45.593 L27.950,45.155 L28.497,45.593 L27.489,44.787 L26.481,43.981 L27.028,44.418 L26.481,43.981 L27.028,44.418 L26.481,43.981 M35.368,42.407 L36.026,42.646 L35.368,42.407 L36.026,42.646 L35.368,42.407 L36.037,42.650 L36.971,43.631 L37.905,44.612 L38.839,45.593 L38.357,45.086 L38.839,45.593 L38.357,45.086 L38.839,45.593 M70.475,45.593 L70.856,45.005 L70.475,45.593 L70.856,45.005 L70.475,45.593 L71.074,44.668 L72.667,44.140 L74.259,43.613 L75.581,44.603 L76.903,45.593 L76.343,45.173 L76.903,45.593 L76.343,45.173 L76.903,45.593 M2.779,42.407 L3.282,41.920 L2.779,42.407 L3.282,41.920 L2.779,42.407 L3.482,41.726 L4.185,41.045 L4.991,40.134 L5.797,39.222 M9.219,39.222 L10.556,39.970 L11.617,40.778 L12.679,41.586 L13.741,42.394 L13.184,41.970 L13.741,42.394 L13.184,41.970 L13.741,42.394 M25.251,42.407 L25.575,41.787 L25.251,42.407 L25.575,41.787 L25.251,42.407 L25.866,41.230 L26.481,40.053 L27.472,39.222 L26.936,39.672 L27.472,39.222 L26.936,39.672 L27.472,39.222 M33.078,39.222 L33.487,39.791 L33.078,39.222 L33.487,39.791 L33.078,39.222 L33.842,40.284 L34.605,41.346 L35.368,42.407 L34.959,41.839 L35.368,42.407 L34.959,41.839 L35.368,42.407 M58.333,40.043 L57.671,39.818 L58.333,40.043 L57.671,39.818 L58.333,40.043 L57.127,39.633 L55.921,39.222 M58.860,39.222 L58.333,40.043 L58.711,39.454 L58.333,40.043 L58.711,39.454 L58.333,40.043 M5.797,39.222 L6.421,38.905 L5.797,39.222 L6.421,38.905 L5.797,39.222 L7.370,38.424 L8.295,38.823 L9.219,39.222 L8.576,38.945 L9.219,39.222 L8.576,38.945 L9.219,39.222 M27.472,39.222 L28.009,38.773 L27.472,39.222 L28.009,38.773 L27.472,39.222 L28.569,38.304 L29.667,37.385 L31.259,37.953 L32.852,38.520 L33.078,39.222 L32.863,38.556 L33.078,39.222 L32.863,38.556 L33.078,39.222 M55.148,38.967 L54.722,38.412 L55.148,38.967 L54.722,38.412 L55.148,38.967 L54.400,37.991 L53.652,37.014 L52.904,36.037 L53.329,36.593 L52.904,36.037 L53.329,36.593 L52.904,36.037 M55.921,39.222 L56.502,38.833 L55.921,39.222 L56.502,38.833 L55.921,39.222 L57.127,38.415 L58.333,37.607 M57.668,36.037 L56.828,37.014 L55.988,37.991 L55.148,38.967 M58.333,37.607 L58.860,39.222 L58.643,38.557 L58.860,39.222 L58.643,38.557 L58.860,39.222 M51.963,35.058 L51.646,34.434 L51.963,35.058 L51.646,34.434 L51.963,35.058 L51.402,33.955 L50.841,32.852 M52.904,36.037 L51.963,35.058 L52.448,35.563 L51.963,35.058 L52.448,35.563 L51.963,35.058 M57.062,32.852 L57.193,33.540 L57.062,32.852 L57.193,33.540 L57.062,32.852 L57.365,34.444 L57.668,36.037 L57.537,35.349 L57.668,36.037 L57.537,35.349 L57.668,36.037 M45.593,30.916 L44.996,30.550 L45.593,30.916 L44.996,30.550 L45.593,30.916 L44.575,30.291 L43.558,29.667 L44.155,30.033 L43.558,29.667 L44.155,30.033 L43.558,29.667 M48.778,31.611 L48.094,31.462 L48.778,31.611 L48.094,31.462 L48.778,31.611 L47.185,31.264 L45.593,30.916 L46.276,31.065 L45.593,30.916 L46.276,31.065 L45.593,30.916 M50.841,32.852 L50.242,32.491 L50.841,32.852 L50.242,32.491 L50.841,32.852 L49.810,32.232 L48.778,31.611 L49.378,31.972 L48.778,31.611 L49.378,31.972 L48.778,31.611 M57.397,29.667 L57.323,30.363 L57.397,29.667 L57.323,30.363 L57.397,29.667 L57.229,31.259 L57.062,32.852 L57.135,32.156 L57.062,32.852 L57.135,32.156 L57.062,32.852 M33.082,26.481 L32.852,26.504 L33.082,26.481 L32.852,26.504 L33.082,26.481 L32.852,26.504 L33.082,26.481 L32.852,26.504 L33.082,26.481 L32.852,26.504 M39.222,27.736 L38.605,27.406 L39.222,27.736 L38.605,27.406 L39.222,27.736 L38.048,27.109 L36.874,26.481 L37.491,26.811 L36.874,26.481 L37.491,26.811 L36.874,26.481 M42.407,28.811 L41.744,28.587 L42.407,28.811 L41.744,28.587 L42.407,28.811 L40.815,28.274 L39.222,27.736 L39.885,27.960 L39.222,27.736 L39.885,27.960 L39.222,27.736 M43.558,29.667 L42.997,29.249 L43.558,29.667 L42.997,29.249 L43.558,29.667 L42.407,28.811 L42.969,29.229 L42.407,28.811 L42.969,29.229 L42.407,28.811 M58.333,28.300 L57.938,28.877 L58.333,28.300 L57.938,28.877 L58.333,28.300 L57.397,29.667 L57.792,29.089 L57.397,29.667 L57.792,29.089 L57.397,29.667 M60.206,26.481 L59.704,26.969 L60.206,26.481 L59.704,26.969 L60.206,26.481 L59.270,27.391 L58.333,28.300 L58.836,27.812 L58.333,28.300 L58.836,27.812 L58.333,28.300 M32.824,26.481 L32.681,25.796 L32.824,26.481 L32.681,25.796 L32.824,26.481 L32.492,24.889 L32.159,23.296 L32.302,23.982 L32.159,23.296 L32.302,23.982 L32.159,23.296 M36.037,26.048 L35.344,26.150 L36.037,26.048 L35.344,26.150 L36.037,26.048 L34.560,26.265 L33.082,26.481 M36.874,26.481 L36.037,26.048 L36.659,26.370 L36.037,26.048 L36.659,26.370 L36.037,26.048 M60.355,23.296 L60.322,23.996 L60.355,23.296 L60.322,23.996 L60.355,23.296 L60.281,24.889 L60.206,26.481 L60.239,25.782 L60.206,26.481 L60.239,25.782 L60.206,26.481 M32.159,23.296 L32.624,22.772 L32.159,23.296 L32.624,22.772 L32.159,23.296 L32.852,22.515 L33.783,21.714 L34.713,20.912 L35.644,20.111 L35.113,20.568 L35.644,20.111 L35.113,20.568 L35.644,20.111 M47.612,20.111 L48.261,20.372 L47.612,20.111 L48.261,20.372 L47.612,20.111 L48.778,20.580 L50.370,20.682 L51.963,20.783 L53.242,20.447 L54.521,20.111 M55.504,20.111 L56.919,20.557 L58.333,21.002 L59.344,22.149 L60.355,23.296 L59.892,22.771 L60.355,23.296 L59.892,22.771 L60.355,23.296 M35.644,20.111 L35.956,19.485 L35.644,20.111 L35.956,19.485 L35.644,20.111 L36.037,19.322 L36.858,18.124 L37.678,16.926 L37.283,17.503 L37.678,16.926 L37.283,17.503 L37.678,16.926 M44.451,16.926 L44.905,17.459 L44.451,16.926 L44.905,17.459 L44.451,16.926 L45.593,18.267 L46.602,19.189 L47.612,20.111 L47.095,19.639 L47.612,20.111 L47.095,19.639 L47.612,20.111 M54.521,20.111 L55.148,20.034 L54.521,20.111 L55.148,20.034 L54.521,20.111 L55.148,20.034 L55.504,20.111 L55.148,20.034 L55.504,20.111 L55.148,20.034 L55.504,20.111 M37.678,16.926 L37.387,16.289 L37.678,16.926 L37.387,16.289 L37.678,16.926 L36.950,15.333 L36.222,13.741 L36.513,14.377 L36.222,13.741 L36.513,14.377 L36.222,13.741 M42.888,13.741 L43.196,14.369 L42.888,13.741 L43.196,14.369 L42.888,13.741 L43.669,15.333 L44.451,16.926 L44.142,16.297 L44.451,16.926 L44.142,16.297 L44.451,16.926 M67.889,14.666 L67.266,14.347 L67.889,14.666 L67.266,14.347 L67.889,14.666 L66.984,14.203 L66.079,13.741 L66.702,14.059 L66.079,13.741 L66.702,14.059 L66.079,13.741 M71.074,14.171 L70.382,14.278 L71.074,14.171 L70.382,14.278 L71.074,14.171 L69.481,14.418 L67.889,14.666 L68.581,14.558 L67.889,14.666 L68.581,14.558 L67.889,14.666 M72.123,13.741 L71.475,14.006 L72.123,13.741 L71.475,14.006 L72.123,13.741 L71.074,14.171 L71.722,13.905 L71.074,14.171 L71.722,13.905 L71.074,14.171 M26.481,10.721 L26.313,10.556 L26.481,10.721 L26.313,10.556 L26.481,10.721 L26.313,10.556 M27.019,10.556 L26.481,10.721 L27.019,10.556 L26.481,10.721 L27.019,10.556 L26.481,10.721 M36.037,13.062 L35.889,12.378 L36.037,13.062 L35.889,12.378 L36.037,13.062 L35.765,11.809 L35.493,10.556 M36.222,13.741 L36.037,13.062 L36.221,13.738 L36.037,13.062 L36.221,13.738 L36.037,13.062 M40.983,10.556 L41.355,11.148 L40.983,10.556 L41.355,11.148 L40.983,10.556 L41.695,11.691 L42.407,12.826 L42.888,13.741 L42.563,13.121 L42.888,13.741 L42.563,13.121 L42.888,13.741 M64.704,12.407 L64.340,11.809 L64.704,12.407 L64.340,11.809 L64.704,12.407 L64.141,11.481 L63.578,10.556 L63.942,11.154 L63.578,10.556 L63.942,11.154 L63.578,10.556 M66.079,13.741 L65.576,13.253 L66.079,13.741 L65.576,13.253 L66.079,13.741 L65.391,13.074 L64.704,12.407 L65.206,12.894 L64.704,12.407 L65.206,12.894 L64.704,12.407 M26.313,10.556 L25.772,10.111 L26.313,10.556 L25.772,10.111 L26.313,10.556 L25.308,9.729 L24.302,8.903 L23.296,8.077 M27.032,7.370 L27.025,8.963 L27.019,10.556 L27.022,9.856 L27.019,10.556 L27.022,9.856 L27.019,10.556 M35.493,10.556 L36.037,10.352 L35.493,10.556 L36.037,10.352 L35.493,10.556 L36.037,10.352 L37.099,9.768 L38.160,9.184 L39.222,8.601 L40.102,9.578 L40.983,10.556 L40.514,10.035 L40.983,10.556 L40.514,10.035 L40.983,10.556 M61.519,8.520 L60.981,8.071 L61.519,8.520 L60.981,8.071 L61.519,8.520 L60.143,7.370 L60.680,7.819 L60.143,7.370 L60.680,7.819 L60.143,7.370 M63.578,10.556 L63.080,10.064 L63.578,10.556 L63.080,10.064 L63.578,10.556 L62.548,9.538 L61.519,8.520 L62.016,9.012 L61.519,8.520 L62.016,9.012 L61.519,8.520 M26.481,6.695 L26.923,7.238 L26.481,6.695 L26.923,7.238 L26.481,6.695 L27.032,7.370 L26.590,6.828 L27.032,7.370 L26.590,6.828 L27.032,7.370 M48.778,71.309 L48.113,71.090 L48.778,71.309 L48.113,71.090 L48.778,71.309 L48.063,71.074 M49.474,71.074 L48.778,71.309 L49.441,71.085 L48.778,71.309 L49.441,71.085 L48.778,71.309 M45.593,68.666 L45.179,68.101 L45.593,68.666 L45.179,68.101 L45.593,68.666 L45.024,67.889 L45.437,68.454 L45.024,67.889 L45.437,68.454 L45.024,67.889 M48.063,71.074 L47.562,70.586 L48.063,71.074 L47.562,70.586 L48.063,71.074 L46.917,69.957 M45.986,69.050 L45.593,68.666 L45.986,69.050 L45.593,68.666 L45.986,69.050 L45.593,68.666 M51.963,68.114 L51.512,68.650 L51.963,68.114 L51.512,68.650 L51.963,68.114 L50.933,69.339 M50.097,70.334 L49.474,71.074 L49.925,70.538 L49.474,71.074 L49.925,70.538 L49.474,71.074 M55.148,69.148 L54.482,68.932 L55.148,69.148 L54.482,68.932 L55.148,69.148 L53.626,68.654 M52.390,68.253 L51.963,68.114 M55.878,67.889 L55.148,69.148 L55.499,68.543 L55.148,69.148 L55.499,68.543 L55.148,69.148 M45.024,67.889 L44.815,67.221 L45.024,67.889 L44.815,67.221 L45.024,67.889 L44.547,66.362 M44.159,65.121 L44.029,64.704 L44.159,65.121 L44.029,64.704 L44.159,65.121 L44.029,64.704 M50.313,64.704 L50.648,65.319 L50.313,64.704 L50.648,65.319 L50.313,64.704 L51.078,66.109 M51.699,67.251 L51.963,67.737 L53.554,67.569 M54.847,67.433 L55.148,67.402 L55.878,67.889 L55.296,67.500 L55.878,67.889 L55.296,67.500 L55.878,67.889 M44.029,64.704 L44.062,64.005 L44.029,64.704 L44.062,64.005 L44.029,64.704 L44.105,63.106 M44.168,61.807 L44.181,61.519 L44.168,61.807 L44.181,61.519 L44.168,61.807 L44.181,61.519 M50.443,61.519 L50.415,62.218 L50.443,61.519 L50.415,62.218 L50.443,61.519 L50.378,63.117 M50.325,64.416 L50.313,64.704 L50.325,64.416 L50.313,64.704 L50.325,64.416 L50.313,64.704 M77.444,61.650 L77.142,61.519 L77.444,61.650 L77.142,61.519 L77.444,61.650 L77.142,61.519 M78.102,61.519 L77.444,61.650 L78.102,61.519 L77.444,61.650 L78.102,61.519 L77.444,61.650 M23.296,59.502 L22.642,59.253 L23.296,59.502 L22.642,59.253 L23.296,59.502 L21.801,58.933 M20.586,58.471 L20.224,58.333 L20.586,58.471 L20.224,58.333 L20.586,58.471 L20.224,58.333 M26.481,61.048 L25.852,60.742 L26.481,61.048 L25.852,60.742 L26.481,61.048 L25.042,60.349 M23.873,59.782 L23.296,59.502 L23.873,59.782 L23.296,59.502 L23.873,59.782 L23.296,59.502 M29.667,60.849 L28.968,60.893 L29.667,60.849 L28.968,60.893 L29.667,60.849 L28.070,60.949 M26.772,61.030 L26.481,61.048 L26.772,61.030 L26.481,61.048 L26.772,61.030 L26.481,61.048 M30.618,58.333 L30.371,58.988 L30.618,58.333 L30.371,58.988 L30.618,58.333 L30.052,59.830 L30.300,59.175 L30.052,59.830 L30.300,59.175 L30.052,59.830 M44.181,61.519 L44.575,60.940 L44.181,61.519 L44.575,60.940 L44.181,61.519 L45.081,60.196 M45.593,59.444 L47.170,59.713 M48.451,59.932 L48.778,59.988 L49.956,61.071 L49.440,60.597 L49.956,61.071 L49.440,60.597 L49.956,61.071 M77.142,61.519 L77.444,61.187 L77.142,61.519 L77.444,61.187 L77.142,61.519 L77.444,61.187 L78.102,61.519 L77.477,61.203 L78.102,61.519 L77.477,61.203 L78.102,61.519 M16.926,56.744 L16.592,56.129 L16.926,56.744 L16.592,56.129 L16.926,56.744 L16.163,55.338 L16.497,55.953 L16.163,55.338 L16.497,55.953 L16.163,55.338 M20.111,58.238 L19.477,57.941 L20.111,58.238 L19.477,57.941 L20.111,58.238 L18.663,57.559 M17.486,57.007 L16.926,56.744 L17.486,57.007 L16.926,56.744 L17.486,57.007 L16.926,56.744 M32.852,55.163 L32.449,55.735 L32.852,55.163 L32.449,55.735 L32.852,55.163 L31.930,56.471 M31.182,57.533 L30.618,58.333 L31.021,57.761 L30.618,58.333 L31.021,57.761 L30.618,58.333 M16.060,55.148 L16.406,54.539 L16.060,55.148 L16.406,54.539 L16.060,55.148 L16.851,53.757 M16.926,53.624 L17.929,52.378 L17.490,52.923 L17.929,52.378 L17.490,52.923 L17.929,52.378 M23.487,51.963 L24.177,52.081 L23.487,51.963 L24.177,52.081 L23.487,51.963 L25.065,52.232 M26.346,52.450 L28.059,52.206 L27.366,52.305 L28.059,52.206 L27.366,52.305 L28.059,52.206 M36.037,53.648 L35.405,53.949 L36.037,53.648 L35.405,53.949 L36.037,53.648 L34.592,54.336 M33.419,54.895 L32.887,55.148 L33.419,54.895 L32.887,55.148 L33.419,54.895 L32.887,55.148 M37.356,51.963 L36.924,52.514 L37.356,51.963 L36.924,52.514 L37.356,51.963 L36.370,53.223 L36.801,52.672 L36.370,53.223 L36.801,52.672 L36.370,53.223 M13.741,49.782 L13.163,49.387 L13.741,49.782 L13.163,49.387 L13.741,49.782 L12.419,48.879 L12.997,49.274 L12.419,48.879 L12.997,49.274 L12.419,48.879 M16.583,48.778 L15.923,49.011 L16.583,48.778 L15.923,49.011 L16.583,48.778 L15.075,49.311 L15.735,49.077 L15.075,49.311 L15.735,49.077 L15.075,49.311 M18.262,51.963 L18.048,51.296 L18.262,51.963 L18.048,51.296 L18.262,51.963 L17.773,50.439 M17.376,49.202 L17.240,48.778 M20.701,48.778 L21.716,50.014 M22.541,51.019 L23.296,51.938 L22.852,51.397 L23.296,51.938 L22.852,51.397 L23.296,51.938 M29.497,51.963 L29.433,51.266 L29.497,51.963 L29.433,51.266 L29.497,51.963 L29.351,50.370 M29.231,49.075 L29.204,48.778 L29.231,49.075 L29.204,48.778 L29.231,49.075 L29.204,48.778 M38.238,48.778 L38.051,49.452 L38.238,48.778 L38.051,49.452 L38.238,48.778 L37.811,50.320 M37.464,51.572 L37.356,51.963 L37.464,51.572 L37.356,51.963 L37.464,51.572 L37.356,51.963 M74.259,49.953 L74.046,49.286 L74.259,49.953 L74.046,49.286 L74.259,49.953 L73.884,48.778 M74.826,48.778 L74.259,49.953 L74.563,49.322 L74.259,49.953 L74.563,49.322 L74.259,49.953 M10.556,47.355 L10.125,46.804 L10.556,47.355 L10.125,46.804 L10.556,47.355 L9.570,46.095 M12.271,48.778 L13.242,47.506 M12.747,45.593 L11.500,46.595 M13.741,46.854 L15.066,47.751 M16.142,48.479 L16.583,48.778 M17.240,48.778 L18.803,48.439 M20.074,48.163 L20.701,48.778 L20.201,48.288 L20.701,48.778 L20.201,48.288 L20.701,48.778 M29.204,48.778 L29.590,48.194 L29.204,48.778 L29.590,48.194 L29.204,48.778 L29.667,48.079 L30.657,46.822 M31.461,45.800 L31.624,45.593 L31.461,45.800 L31.624,45.593 L31.461,45.800 L31.624,45.593 M36.647,45.593 L36.960,46.219 L36.647,45.593 L36.960,46.219 L36.647,45.593 L37.362,47.024 M37.943,48.187 L38.238,48.778 L37.943,48.187 L38.238,48.778 L37.943,48.187 L38.238,48.778 M73.884,48.778 L74.119,48.118 L73.884,48.778 L74.119,48.118 L73.884,48.778 L74.259,47.725 L74.826,48.778 L74.494,48.161 L74.826,48.778 L74.494,48.161 L74.826,48.778 M9.178,45.593 L9.466,44.955 L9.178,45.593 L9.466,44.955 L9.178,45.593 L9.837,44.135 M10.373,42.950 L10.556,42.546 L11.490,43.845 M12.249,44.901 L12.747,45.593 L12.338,45.024 L12.747,45.593 L12.338,45.024 L12.747,45.593 M31.624,45.593 L32.115,45.093 L31.624,45.593 L32.115,45.093 L31.624,45.593 L32.745,44.451 M32.852,44.343 L34.423,44.643 M35.700,44.888 L36.037,44.952 L36.647,45.593 L36.164,45.086 L36.647,45.593 L36.164,45.086 L36.647,45.593 M48.778,30.298 L48.100,30.123 L48.778,30.298 L48.100,30.123 L48.778,30.298 L47.229,29.898 L47.906,30.073 L47.229,29.898 L47.906,30.073 L47.229,29.898 M51.963,30.597 L51.266,30.531 L51.963,30.597 L51.266,30.531 L51.963,30.597 L50.370,30.447 M49.076,30.326 L48.778,30.298 L49.076,30.326 L48.778,30.298 L49.076,30.326 L48.778,30.298 M55.148,32.715 L54.565,32.327 L55.148,32.715 L54.565,32.327 L55.148,32.715 L53.816,31.829 M52.733,31.109 L51.963,30.597 M55.751,29.667 L55.441,31.236 M55.188,32.512 L55.148,32.715 L55.188,32.512 L55.148,32.715 L55.188,32.512 L55.148,32.715 M42.407,27.042 L41.776,26.739 L42.407,27.042 L41.776,26.739 L42.407,27.042 L41.240,26.481 L41.871,26.785 L41.240,26.481 L41.871,26.785 L41.240,26.481 M45.593,28.856 L44.984,28.510 L45.593,28.856 L44.984,28.510 L45.593,28.856 L44.202,28.065 M43.073,27.421 L42.407,27.042 L43.016,27.389 L42.407,27.042 L43.016,27.389 L42.407,27.042 M46.333,29.667 L45.861,29.150 L46.333,29.667 L45.861,29.150 L46.333,29.667 L45.593,28.856 L46.065,29.373 L45.593,28.856 L46.065,29.373 L45.593,28.856 M57.820,26.481 L57.439,27.069 L57.820,26.481 L57.439,27.069 L57.820,26.481 L56.948,27.823 M56.240,28.914 L55.751,29.667 L56.132,29.080 L55.751,29.667 L56.132,29.080 L55.751,29.667 M39.222,24.205 L38.546,24.026 L39.222,24.205 L38.546,24.026 L39.222,24.205 L37.676,23.795 M36.419,23.462 L36.037,23.360 L36.419,23.462 L36.037,23.360 L36.419,23.462 L36.037,23.360 M41.240,26.481 L41.698,25.953 L41.240,26.481 L41.698,25.953 L41.240,26.481 L42.288,25.273 M40.291,23.296 L39.222,24.205 M42.407,25.135 L44.004,25.029 M45.301,24.942 L45.593,24.923 L46.797,23.869 M49.975,23.296 L51.164,24.367 M51.963,25.086 L53.312,24.225 M54.407,23.526 L54.767,23.296 M55.671,23.296 L56.566,24.623 M57.293,25.700 L57.820,26.481 L57.428,25.901 L57.820,26.481 L57.428,25.901 L57.820,26.481 M35.930,23.296 L36.479,22.862 L35.930,23.296 L36.479,22.862 L35.930,23.296 L37.292,22.218 M38.312,21.412 L39.222,20.692 L39.830,22.172 L39.564,21.525 L39.830,22.172 L39.564,21.525 L39.830,22.172 M47.452,23.296 L48.080,22.987 L47.452,23.296 L48.080,22.987 L47.452,23.296 L48.778,22.642 L49.975,23.296 L49.360,22.961 L49.975,23.296 L49.360,22.961 L49.975,23.296 M54.767,23.296 L55.148,23.077 L54.767,23.296 L55.148,23.077 L54.767,23.296 L55.148,23.077 L55.671,23.296 L55.148,23.077 L55.671,23.296 L55.148,23.077 L55.671,23.296 M64.704,8.168 L64.204,7.677 L64.704,8.168 L64.204,7.677 L64.704,8.168 L63.892,7.370 L64.391,7.861 L63.892,7.370 L64.391,7.861 L63.892,7.370 M67.889,10.076 L67.288,9.716 L67.889,10.076 L67.288,9.716 L67.889,10.076 L66.516,9.253 M65.401,8.585 L64.704,8.168 L65.304,8.527 L64.704,8.168 L65.304,8.527 L64.704,8.168 M69.204,10.556 L68.547,10.316 L69.204,10.556 L68.547,10.316 L69.204,10.556 L67.889,10.076 L68.546,10.316 L67.889,10.076 L68.546,10.316 L67.889,10.076 M29.667,55.998 L29.023,55.723 L29.667,55.998 L29.023,55.723 L29.667,55.998 L28.671,55.573 L27.676,55.148 M30.233,55.148 L29.667,55.998 M27.676,55.148 L28.671,54.864 L29.667,54.580 L30.233,55.148 L29.739,54.652 L30.233,55.148 L29.739,54.652 L30.233,55.148 M55.148,27.411 L54.641,26.928 L55.148,27.411 L54.641,26.928 L55.148,27.411 L54.171,26.481 M55.701,26.481 L55.148,27.411 L55.506,26.809 L55.148,27.411 L55.506,26.809 L55.148,27.411 M54.171,26.481 L54.740,26.074 L54.171,26.481 L54.740,26.074 L54.171,26.481 L55.148,25.783 L55.701,26.481 L55.267,25.933 L55.701,26.481 L55.267,25.933 L55.701,26.481 M87.000,44.000 L86.989,43.300 L87.000,44.000 L86.989,43.300 L87.000,44.000 L86.979,42.649 L86.915,41.300 L86.809,39.953 L86.661,38.611 L86.471,37.273 L86.238,35.943 L85.964,34.620 L85.649,33.306 L85.293,32.003 L84.895,30.712 L84.458,29.434 L83.980,28.171 L83.463,26.923 L82.908,25.691 L82.313,24.478 L81.681,23.285 L81.012,22.111 L80.306,20.959 L79.564,19.830 L78.788,18.725 L77.977,17.645 L77.132,16.591 L76.255,15.564 L75.346,14.564 L74.406,13.594 L73.436,12.654 L72.436,11.745 L71.409,10.868 L70.355,10.023 L69.275,9.212 L68.170,8.436 L67.041,7.694 L65.889,6.988 L64.715,6.319 L63.522,5.687 L62.309,5.092 L61.077,4.537 L59.829,4.020 L58.566,3.542 L57.288,3.105 L55.997,2.707 L54.694,2.351 L53.380,2.036 L52.057,1.762 L50.727,1.529 L49.389,1.339 L48.047,1.191 L46.700,1.085 L45.351,1.021 L44.000,1.000 L42.649,1.021 L41.300,1.085 L39.953,1.191 L38.611,1.339 L37.273,1.529 L35.943,1.762 L34.620,2.036 L33.306,2.351 L32.003,2.707 L30.712,3.105 L29.434,3.542 L28.171,4.020 L26.923,4.537 L25.691,5.092 L24.478,5.687 L23.285,6.319 L22.111,6.988 L20.959,7.694 L19.830,8.436 L18.725,9.212 L17.645,10.023 L16.591,10.868 L15.564,11.745 L14.564,12.654 L13.594,13.594 L12.654,14.564 L11.745,15.564 L10.868,16.591 L10.023,17.645 L9.212,18.725 L8.436,19.830 L7.694,20.959 L6.988,22.111 L6.319,23.285 L5.687,24.478 L5.092,25.691 L4.537,26.923 L4.020,28.171 L3.542,29.434 L3.105,30.712 L2.707,32.003 L2.351,33.306 L2.036,34.620 L1.762,35.943 L1.529,37.273 L1.339,38.611 L1.191,39.953 L1.085,41.300 L1.021,42.649 L1.000,44.000 L1.021,45.351 L1.085,46.700 L1.191,48.047 L1.339,49.389 L1.529,50.727 L1.762,52.057 L2.036,53.380 L2.351,54.694 L2.707,55.997 L3.105,57.288 L3.542,58.566 L4.020,59.829 L4.537,61.077 L5.092,62.309 L5.687,63.522 L6.319,64.715 L6.988,65.889 L7.694,67.041 L8.436,68.170 L9.212,69.275 L10.023,70.355 L10.868,71.409 L11.745,72.436 L12.654,73.436 L13.594,74.406 L14.564,75.346 L15.564,76.255 L16.591,77.132 L17.645,77.977 L18.725,78.788 L19.830,79.564 L20.959,80.306 L22.111,81.012 L23.285,81.681 L24.478,82.313 L25.691,82.908 L26.923,83.463 L28.171,83.980 L29.434,84.458 L30.712,84.895 L32.003,85.293 L33.306,85.649 L34.620,85.964 L35.943,86.238 L37.273,86.471 L38.611,86.661 L39.953,86.809 L41.300,86.915 L42.649,86.979 L44.000,87.000 L45.351,86.979 L46.700,86.915 L48.047,86.809 L49.389,86.661 L50.727,86.471 L52.057,86.238 L53.380,85.964 L54.694,85.649 L55.997,85.293 L57.288,84.895 L58.566,84.458 L59.829,83.980 L61.077,83.463 L62.309,82.908 L63.522,82.313 L64.715,81.681 L65.889,81.012 L67.041,80.306 L68.170,79.564 L69.275,78.788 L70.355,77.977 L71.409,77.132 L72.436,76.255 L73.436,75.346 L74.406,74.406 L75.346,73.436 L76.255,72.436 L77.132,71.409 L77.977,70.355 L78.788,69.275 L79.564,68.170 L80.306,67.041 L81.012,65.889 L81.681,64.715 L82.313,63.522 L82.908,62.309 L83.463,61.077 L83.980,59.829 L84.458,58.566 L84.895,57.288 L85.293,55.997 L85.649,54.694 L85.964,53.380 L86.238,52.057 L86.471,50.727 L86.661,49.389 L86.809,48.047 L86.915,46.700 L86.979,45.351 L87.000,44.000 L86.989,44.700 L87.000,44.000 L86.989,44.700 L87.000,44.000"/>
</svg>
