<svg xmlns="http://www.w3.org/2000/svg" viewBox="0 -0.345 77.969 77.969" width="256" height="256">
  <title>crossings</title>
  <rect x="0" y="-0.345" width="77.969" height="77.969" fill="#f5efe4"/>
  <path fill="none" stroke="#c8472f" stroke-width="0.4" stroke-linecap="round" stroke-linejoin="round" d="M3.667,52.986 L3.667,52.986 L3.458,51.218 L3.249,49.450 L3.040,47.682 L2.831,45.913 L2.621,44.145 L2.412,42.377 L2.203,40.609 L1.994,38.841 L1.785,37.072 L1.575,35.304 L1.366,33.536 L1.449,34.231 L1.366,33.536 L1.449,34.231 L1.366,33.536 M76.295,31.772 L75.679,32.103 L76.295,31.772 L75.679,32.103 L76.295,31.772 L74.737,32.609 L73.179,33.447 L71.621,34.285 L70.063,35.123 L68.505,35.961 L66.947,36.799 L65.389,37.637 L63.831,38.474 L62.273,39.312 L60.715,40.150 L59.157,40.988 L57.599,41.826 L56.042,42.664 L54.484,43.501 L52.926,44.339 L51.368,45.177 L49.810,46.015 L48.252,46.853 L46.694,47.691 L45.136,48.529 L43.578,49.366 L42.020,50.204 L40.462,51.042 L38.904,51.880 L37.346,52.718 L35.788,53.556 L34.230,54.394 L32.672,55.231 L31.114,56.069 L29.556,56.907 L27.998,57.745 L26.440,58.583 L24.882,59.421 L23.324,60.258 L21.766,61.096 L20.208,61.934 L18.650,62.772 L17.092,63.610 L15.534,64.448 L13.976,65.286 L12.418,66.123 L13.035,65.792 L12.418,66.123 L13.035,65.792 L12.418,66.123 M58.351,6.256 L57.981,6.850 L58.351,6.256 L57.981,6.850 L58.351,6.256 L57.417,7.756 L56.482,9.256 L55.548,10.756 L54.614,12.256 L53.680,13.756 L52.746,15.256 L51.812,16.755 L50.878,18.255 L49.944,19.755 L49.009,21.255 L48.075,22.755 L47.141,24.255 L46.207,25.755 L45.273,27.255 L44.339,28.755 L43.405,30.255 L42.470,31.755 L41.536,33.254 L40.602,34.754 L39.668,36.254 L38.734,37.754 L37.800,39.254 L36.866,40.754 L35.932,42.254 L34.997,43.754 L34.063,45.254 L33.129,46.754 L32.195,48.254 L31.261,49.753 L30.327,51.253 L29.393,52.753 L28.458,54.253 L27.524,55.753 L26.590,57.253 L25.656,58.753 L24.722,60.253 L23.788,61.753 L22.854,63.253 L21.920,64.753 L20.985,66.252 L20.051,67.752 L19.117,69.252 L18.183,70.752 L18.553,70.158 L18.183,70.752 L18.553,70.158 L18.183,70.752 M1.647,46.044 L2.241,46.416 L1.647,46.044 L2.241,46.416 L1.647,46.044 L3.171,46.999 L4.694,47.953 L6.217,48.908 L7.740,49.863 L9.264,50.817 L10.787,51.772 L12.310,52.727 L13.833,53.681 L15.356,54.636 L16.880,55.591 L18.403,56.545 L19.926,57.500 L21.449,58.455 L22.972,59.409 L24.496,60.364 L26.019,61.319 L27.542,62.273 L29.065,63.228 L30.588,64.183 L32.112,65.137 L33.635,66.092 L35.158,67.047 L36.681,68.001 L38.204,68.956 L39.728,69.911 L41.251,70.865 L42.774,71.820 L44.297,72.775 L45.820,73.729 L47.344,74.684 L48.867,75.639 L48.274,75.267 L48.867,75.639 L48.274,75.267 L48.867,75.639 M17.743,7.435 L18.381,7.724 L17.743,7.435 L18.381,7.724 L17.743,7.435 L19.379,8.175 L21.016,8.914 L22.653,9.653 L24.289,10.393 L25.926,11.132 L27.563,11.871 L29.199,12.610 L30.836,13.350 L32.473,14.089 L34.109,14.828 L35.746,15.568 L37.382,16.307 L39.019,17.046 L40.656,17.785 L42.292,18.525 L43.929,19.264 L45.566,20.003 L47.202,20.743 L48.839,21.482 L50.476,22.221 L52.112,22.960 L53.749,23.700 L55.386,24.439 L57.022,25.178 L58.659,25.918 L60.296,26.657 L61.932,27.396 L63.569,28.135 L65.205,28.875 L66.842,29.614 L68.479,30.353 L70.115,31.093 L71.752,31.832 L73.389,32.571 L75.025,33.310 L76.662,34.050 L76.024,33.762 L76.662,34.050 L76.024,33.762 L76.662,34.050 M1.646,31.859 L1.601,32.558 L1.646,31.859 L1.601,32.558 L1.646,31.859 L1.546,33.414 L1.446,34.969 L1.345,36.523 L1.245,38.078 L1.145,39.633 L1.045,41.188 L1.090,40.489 L1.045,41.188 L1.090,40.489 L1.045,41.188 M6.823,59.196 L7.188,58.598 L6.823,59.196 L7.188,58.598 L6.823,59.196 L7.756,57.667 L8.689,56.138 L9.622,54.609 L10.555,53.080 L11.488,51.551 L12.421,50.022 L13.354,48.492 L14.287,46.963 L15.220,45.434 L16.152,43.905 L17.085,42.376 L18.018,40.847 L18.951,39.318 L19.884,37.789 L20.817,36.260 L21.750,34.731 L22.683,33.202 L23.616,31.673 L24.549,30.143 L25.482,28.614 L26.415,27.085 L27.348,25.556 L28.281,24.027 L29.214,22.498 L30.147,20.969 L31.080,19.440 L32.012,17.911 L32.945,16.382 L33.878,14.853 L34.811,13.324 L35.744,11.794 L36.677,10.265 L37.610,8.736 L38.543,7.207 L39.476,5.678 L40.409,4.149 L41.342,2.620 L42.275,1.091 L41.910,1.688 L42.275,1.091 L41.910,1.688 L42.275,1.091 M47.175,76.053 L47.694,75.584 L47.175,76.053 L47.694,75.584 L47.175,76.053 L48.504,74.850 L49.833,73.648 L51.162,72.445 L52.491,71.242 L53.820,70.039 L55.149,68.836 L56.478,67.633 L57.807,66.431 L59.136,65.228 L60.466,64.025 L61.795,62.822 L63.124,61.619 L64.453,60.416 L65.782,59.213 L67.111,58.011 L68.440,56.808 L69.769,55.605 L71.098,54.402 L72.427,53.199 L73.756,51.996 L75.085,50.794 L74.566,51.263 L75.085,50.794 L74.566,51.263 L75.085,50.794 M15.982,8.696 L16.567,9.080 L15.982,8.696 L16.567,9.080 L15.982,8.696 L17.480,9.678 L18.978,10.660 L20.475,11.641 L21.973,12.623 L23.471,13.605 L24.969,14.586 L26.467,15.568 L27.964,16.549 L29.462,17.531 L30.960,18.513 L32.458,19.494 L33.956,20.476 L35.454,21.458 L36.951,22.439 L38.449,23.421 L39.947,24.402 L41.445,25.384 L42.943,26.366 L44.440,27.347 L45.938,28.329 L47.436,29.311 L48.934,30.292 L50.432,31.274 L51.929,32.255 L53.427,33.237 L54.925,34.219 L56.423,35.200 L57.921,36.182 L59.418,37.164 L60.916,38.145 L62.414,39.127 L63.912,40.108 L65.410,41.090 L66.908,42.072 L68.405,43.053 L69.903,44.035 L71.401,45.017 L72.899,45.998 L74.397,46.980 L75.894,47.961 L75.309,47.578 L75.894,47.961 L75.309,47.578 L75.894,47.961 M1.000,37.683 L1.047,38.382 L1.000,37.683 L1.047,38.382 L1.000,37.683 L1.101,39.196 L1.202,40.710 L1.303,42.223 L1.404,43.736 L1.505,45.250 L1.459,44.551 L1.505,45.250 L1.459,44.551 L1.505,45.250 M76.969,39.802 L76.511,39.273 L76.969,39.802 L76.511,39.273 L76.969,39.802 L75.816,38.471 L74.662,37.141 L73.508,35.810 L72.354,34.480 L71.200,33.150 L70.047,31.819 L68.893,30.489 L67.739,29.158 L66.585,27.828 L65.431,26.497 L64.277,25.167 L63.124,23.836 L61.970,22.506 L60.816,21.175 L59.662,19.845 L58.508,18.515 L57.355,17.184 L56.201,15.854 L55.047,14.523 L53.893,13.193 L52.739,11.862 L51.586,10.532 L50.432,9.201 L49.278,7.871 L48.124,6.540 L46.970,5.210 L45.817,3.880 L44.663,2.549 L43.509,1.219 L43.968,1.747 L43.509,1.219 L43.968,1.747 L43.509,1.219 M2.390,28.688 L3.090,28.692 L2.390,28.688 L3.090,28.692 L2.390,28.688 L4.178,28.699 L5.965,28.709 L7.753,28.719 L9.540,28.729 L11.328,28.739 L13.116,28.749 L14.903,28.759 L16.691,28.769 L18.478,28.779 L20.266,28.789 L22.054,28.799 L23.841,28.809 L25.629,28.820 L27.416,28.830 L29.204,28.840 L30.992,28.850 L32.779,28.860 L34.567,28.870 L36.354,28.880 L38.142,28.890 L39.929,28.900 L41.717,28.910 L43.505,28.920 L45.292,28.930 L47.080,28.941 L48.867,28.951 L50.655,28.961 L52.443,28.971 L54.230,28.981 L56.018,28.991 L57.805,29.001 L59.593,29.011 L61.381,29.021 L63.168,29.031 L64.956,29.041 L66.743,29.052 L68.531,29.062 L70.319,29.072 L72.106,29.082 L73.894,29.092 L75.681,29.102 L74.981,29.098 L75.681,29.102 L74.981,29.098 L75.681,29.102 M76.596,44.330 L76.371,43.667 L76.596,44.330 L76.371,43.667 L76.596,44.330 L76.044,42.703 L75.492,41.076 L74.940,39.448 L74.387,37.821 L73.835,36.194 L73.283,34.567 L72.731,32.940 L72.179,31.312 L71.627,29.685 L71.075,28.058 L70.523,26.431 L69.971,24.803 L69.419,23.176 L68.867,21.549 L68.314,19.922 L67.762,18.295 L67.210,16.667 L66.658,15.040 L66.106,13.413 L65.554,11.786 L65.779,12.449 L65.554,11.786 L65.779,12.449 L65.554,11.786 M46.081,76.278 L45.997,75.583 L46.081,76.278 L45.997,75.583 L46.081,76.278 L45.870,74.527 L45.658,72.777 L45.447,71.026 L45.235,69.275 L45.023,67.525 L44.812,65.774 L44.600,64.023 L44.389,62.273 L44.177,60.522 L43.966,58.772 L43.754,57.021 L43.543,55.270 L43.331,53.520 L43.120,51.769 L42.908,50.018 L42.696,48.268 L42.485,46.517 L42.273,44.766 L42.062,43.016 L41.850,41.265 L41.639,39.514 L41.427,37.764 L41.216,36.013 L41.004,34.262 L40.793,32.512 L40.581,30.761 L40.369,29.010 L40.158,27.260 L39.946,25.509 L39.735,23.758 L39.523,22.008 L39.312,20.257 L39.100,18.507 L38.889,16.756 L38.677,15.005 L38.465,13.255 L38.254,11.504 L38.042,9.753 L37.831,8.003 L37.619,6.252 L37.408,4.501 L37.196,2.751 L36.985,1.000 L37.069,1.695 L36.985,1.000 L37.069,1.695 L36.985,1.000"/>
  <path fill="none" stroke="#3a4e8c" stroke-width="0.4" stroke-linecap="round" stroke-linejoin="round" d="M2.942,46.855 L2.976,46.597 L2.942,46.855 L2.976,46.597 L2.942,46.855 L2.976,46.597 L3.076,46.355 L3.235,46.148 L3.442,45.989 L3.683,45.890 L3.942,45.855 L4.201,45.890 L4.442,45.989 L4.649,46.148 L4.808,46.355 L4.908,46.597 L4.942,46.855 L4.908,47.114 L4.808,47.355 L4.649,47.563 L4.442,47.721 L4.201,47.821 L3.942,47.855 L3.683,47.821 L3.442,47.721 L3.235,47.563 L3.076,47.355 L2.976,47.114 L2.942,46.855 L2.976,47.114 L2.942,46.855 L2.976,47.114 L2.942,46.855 M1.477,34.475 L1.511,34.216 L1.477,34.475 L1.511,34.216 L1.477,34.475 L1.511,34.216 L1.611,33.975 L1.770,33.768 L1.977,33.609 L2.219,33.509 L2.477,33.475 L2.736,33.509 L2.977,33.609 L3.185,33.768 L3.343,33.975 L3.443,34.216 L3.477,34.475 L3.443,34.734 L3.343,34.975 L3.185,35.182 L2.977,35.341 L2.736,35.441 L2.477,35.475 L2.219,35.441 L1.977,35.341 L1.770,35.182 L1.611,34.975 L1.511,34.734 L1.477,34.475 L1.511,34.734 L1.477,34.475 L1.511,34.734 L1.477,34.475 M25.421,59.131 L25.455,58.872 L25.421,59.131 L25.455,58.872 L25.421,59.131 L25.455,58.872 L25.555,58.631 L25.714,58.424 L25.921,58.265 L26.162,58.165 L26.421,58.131 L26.679,58.165 L26.921,58.265 L27.128,58.424 L27.287,58.631 L27.387,58.872 L27.421,59.131 L27.387,59.390 L27.287,59.631 L27.128,59.838 L26.921,59.997 L26.679,60.097 L26.421,60.131 L26.162,60.097 L25.921,59.997 L25.714,59.838 L25.555,59.631 L25.455,59.390 L25.421,59.131 L25.455,59.390 L25.421,59.131 L25.455,59.390 L25.421,59.131 M23.864,59.968 L23.898,59.709 L23.864,59.968 L23.898,59.709 L23.864,59.968 L23.898,59.709 L23.998,59.468 L24.157,59.261 L24.364,59.102 L24.605,59.002 L24.864,58.968 L25.123,59.002 L25.364,59.102 L25.571,59.261 L25.730,59.468 L25.830,59.709 L25.864,59.968 L25.830,60.227 L25.730,60.468 L25.571,60.675 L25.364,60.834 L25.123,60.934 L24.864,60.968 L24.605,60.934 L24.364,60.834 L24.157,60.675 L23.998,60.468 L23.898,60.227 L23.864,59.968 L23.898,60.227 L23.864,59.968 L23.898,60.227 L23.864,59.968 M74.160,32.920 L74.194,32.661 L74.160,32.920 L74.194,32.661 L74.160,32.920 L74.194,32.661 L74.294,32.420 L74.453,32.213 L74.660,32.054 L74.901,31.954 L75.160,31.920 L75.419,31.954 L75.660,32.054 L75.867,32.213 L76.026,32.420 L76.126,32.661 L76.160,32.920 L76.126,33.179 L76.026,33.420 L75.867,33.627 L75.660,33.786 L75.419,33.886 L75.160,33.920 L74.901,33.886 L74.660,33.786 L74.453,33.627 L74.294,33.420 L74.194,33.179 L74.160,32.920 L74.194,33.179 L74.160,32.920 L74.194,33.179 L74.160,32.920 M62.506,39.187 L62.540,38.928 L62.506,39.187 L62.540,38.928 L62.506,39.187 L62.540,38.928 L62.640,38.687 L62.799,38.480 L63.006,38.321 L63.247,38.221 L63.506,38.187 L63.765,38.221 L64.006,38.321 L64.213,38.480 L64.372,38.687 L64.472,38.928 L64.506,39.187 L64.472,39.446 L64.372,39.687 L64.213,39.894 L64.006,40.053 L63.765,40.153 L63.506,40.187 L63.247,40.153 L63.006,40.053 L62.799,39.894 L62.640,39.687 L62.540,39.446 L62.506,39.187 L62.540,39.446 L62.506,39.187 L62.540,39.446 L62.506,39.187 M72.006,34.078 L72.040,33.820 L72.006,34.078 L72.040,33.820 L72.006,34.078 L72.040,33.820 L72.140,33.578 L72.299,33.371 L72.506,33.212 L72.747,33.112 L73.006,33.078 L73.265,33.112 L73.506,33.212 L73.713,33.371 L73.872,33.578 L73.972,33.820 L74.006,34.078 L73.972,34.337 L73.872,34.578 L73.713,34.785 L73.506,34.944 L73.265,35.044 L73.006,35.078 L72.747,35.044 L72.506,34.944 L72.299,34.785 L72.140,34.578 L72.040,34.337 L72.006,34.078 L72.040,34.337 L72.006,34.078 L72.040,34.337 L72.006,34.078 M72.946,33.573 L72.980,33.314 L72.946,33.573 L72.980,33.314 L72.946,33.573 L72.980,33.314 L73.080,33.073 L73.239,32.866 L73.446,32.707 L73.687,32.607 L73.946,32.573 L74.205,32.607 L74.446,32.707 L74.653,32.866 L74.812,33.073 L74.912,33.314 L74.946,33.573 L74.912,33.832 L74.812,34.073 L74.653,34.280 L74.446,34.439 L74.205,34.539 L73.946,34.573 L73.687,34.539 L73.446,34.439 L73.239,34.280 L73.080,34.073 L72.980,33.832 L72.946,33.573 L72.980,33.832 L72.946,33.573 L72.980,33.832 L72.946,33.573 M42.875,49.744 L42.909,49.486 L42.875,49.744 L42.909,49.486 L42.875,49.744 L42.909,49.486 L43.009,49.244 L43.168,49.037 L43.375,48.878 L43.616,48.778 L43.875,48.744 L44.134,48.778 L44.375,48.878 L44.582,49.037 L44.741,49.244 L44.841,49.486 L44.875,49.744 L44.841,50.003 L44.741,50.244 L44.582,50.451 L44.375,50.610 L44.134,50.710 L43.875,50.744 L43.616,50.710 L43.375,50.610 L43.168,50.451 L43.009,50.244 L42.909,50.003 L42.875,49.744 L42.909,50.003 L42.875,49.744 L42.909,50.003 L42.875,49.744 M24.609,60.435 L24.643,60.176 L24.609,60.435 L24.643,60.176 L24.609,60.435 L24.643,60.176 L24.743,59.935 L24.901,59.728 L25.109,59.569 L25.350,59.469 L25.609,59.435 L25.867,59.469 L26.109,59.569 L26.316,59.728 L26.475,59.935 L26.574,60.176 L26.609,60.435 L26.574,60.694 L26.475,60.935 L26.316,61.142 L26.109,61.301 L25.867,61.401 L25.609,61.435 L25.350,61.401 L25.109,61.301 L24.901,61.142 L24.743,60.935 L24.643,60.694 L24.609,60.435 L24.643,60.694 L24.609,60.435 L24.643,60.694 L24.609,60.435 M48.862,21.492 L48.896,21.233 L48.862,21.492 L48.896,21.233 L48.862,21.492 L48.896,21.233 L48.996,20.992 L49.155,20.785 L49.362,20.626 L49.603,20.526 L49.862,20.492 L50.121,20.526 L50.362,20.626 L50.569,20.785 L50.728,20.992 L50.828,21.233 L50.862,21.492 L50.828,21.751 L50.728,21.992 L50.569,22.199 L50.362,22.358 L50.121,22.458 L49.862,22.492 L49.603,22.458 L49.362,22.358 L49.155,22.199 L48.996,21.992 L48.896,21.751 L48.862,21.492 L48.896,21.751 L48.862,21.492 L48.896,21.751 L48.862,21.492 M44.991,27.708 L45.025,27.449 L44.991,27.708 L45.025,27.449 L44.991,27.708 L45.025,27.449 L45.125,27.208 L45.284,27.001 L45.491,26.842 L45.732,26.742 L45.991,26.708 L46.249,26.742 L46.491,26.842 L46.698,27.001 L46.857,27.208 L46.957,27.449 L46.991,27.708 L46.957,27.967 L46.857,28.208 L46.698,28.415 L46.491,28.574 L46.249,28.674 L45.991,28.708 L45.732,28.674 L45.491,28.574 L45.284,28.415 L45.125,28.208 L45.025,27.967 L44.991,27.708 L45.025,27.967 L44.991,27.708 L45.025,27.967 L44.991,27.708 M53.973,13.285 L54.007,13.026 L53.973,13.285 L54.007,13.026 L53.973,13.285 L54.007,13.026 L54.107,12.785 L54.266,12.578 L54.473,12.419 L54.714,12.319 L54.973,12.285 L55.232,12.319 L55.473,12.419 L55.680,12.578 L55.839,12.785 L55.939,13.026 L55.973,13.285 L55.939,13.544 L55.839,13.785 L55.680,13.992 L55.473,14.151 L55.232,14.251 L54.973,14.285 L54.714,14.251 L54.473,14.151 L54.266,13.992 L54.107,13.785 L54.007,13.544 L53.973,13.285 L54.007,13.544 L53.973,13.285 L54.007,13.544 L53.973,13.285 M44.233,28.925 L44.267,28.666 L44.233,28.925 L44.267,28.666 L44.233,28.925 L44.267,28.666 L44.367,28.425 L44.526,28.217 L44.733,28.058 L44.974,27.959 L45.233,27.925 L45.492,27.959 L45.733,28.058 L45.940,28.217 L46.099,28.425 L46.199,28.666 L46.233,28.925 L46.199,29.183 L46.099,29.425 L45.940,29.632 L45.733,29.791 L45.492,29.890 L45.233,29.925 L44.974,29.890 L44.733,29.791 L44.526,29.632 L44.367,29.425 L44.267,29.183 L44.233,28.925 L44.267,29.183 L44.233,28.925 L44.267,29.183 L44.233,28.925 M40.989,34.134 L41.023,33.875 L40.989,34.134 L41.023,33.875 L40.989,34.134 L41.023,33.875 L41.123,33.634 L41.281,33.427 L41.489,33.268 L41.730,33.168 L41.989,33.134 L42.247,33.168 L42.489,33.268 L42.696,33.427 L42.855,33.634 L42.954,33.875 L42.989,34.134 L42.954,34.393 L42.855,34.634 L42.696,34.841 L42.489,35.000 L42.247,35.100 L41.989,35.134 L41.730,35.100 L41.489,35.000 L41.281,34.841 L41.123,34.634 L41.023,34.393 L40.989,34.134 L41.023,34.393 L40.989,34.134 L41.023,34.393 L40.989,34.134 M11.196,52.029 L11.230,51.770 L11.196,52.029 L11.230,51.770 L11.196,52.029 L11.230,51.770 L11.330,51.529 L11.489,51.322 L11.696,51.163 L11.937,51.063 L12.196,51.029 L12.455,51.063 L12.696,51.163 L12.903,51.322 L13.062,51.529 L13.162,51.770 L13.196,52.029 L13.162,52.287 L13.062,52.529 L12.903,52.736 L12.696,52.895 L12.455,52.995 L12.196,53.029 L11.937,52.995 L11.696,52.895 L11.489,52.736 L11.330,52.529 L11.230,52.287 L11.196,52.029 L11.230,52.287 L11.196,52.029 L11.230,52.287 L11.196,52.029 M48.138,75.182 L48.172,74.923 L48.138,75.182 L48.172,74.923 L48.138,75.182 L48.172,74.923 L48.272,74.682 L48.431,74.475 L48.638,74.316 L48.879,74.216 L49.138,74.182 L49.397,74.216 L49.638,74.316 L49.845,74.475 L50.004,74.682 L50.104,74.923 L50.138,75.182 L50.104,75.441 L50.004,75.682 L49.845,75.889 L49.638,76.048 L49.397,76.148 L49.138,76.182 L48.879,76.148 L48.638,76.048 L48.431,75.889 L48.272,75.682 L48.172,75.441 L48.138,75.182 L48.172,75.441 L48.138,75.182 L48.172,75.441 L48.138,75.182 M45.769,73.697 L45.803,73.438 L45.769,73.697 L45.803,73.438 L45.769,73.697 L45.803,73.438 L45.903,73.197 L46.062,72.990 L46.269,72.831 L46.511,72.731 L46.769,72.697 L47.028,72.731 L47.269,72.831 L47.476,72.990 L47.635,73.197 L47.735,73.438 L47.769,73.697 L47.735,73.956 L47.635,74.197 L47.476,74.404 L47.269,74.563 L47.028,74.663 L46.769,74.697 L46.511,74.663 L46.269,74.563 L46.062,74.404 L45.903,74.197 L45.803,73.956 L45.769,73.697 L45.803,73.956 L45.769,73.697 L45.803,73.956 L45.769,73.697 M33.940,14.752 L33.974,14.493 L33.940,14.752 L33.974,14.493 L33.940,14.752 L33.974,14.493 L34.074,14.252 L34.233,14.045 L34.440,13.886 L34.681,13.786 L34.940,13.752 L35.199,13.786 L35.440,13.886 L35.647,14.045 L35.806,14.252 L35.906,14.493 L35.940,14.752 L35.906,15.011 L35.806,15.252 L35.647,15.459 L35.440,15.618 L35.199,15.718 L34.940,15.752 L34.681,15.718 L34.440,15.618 L34.233,15.459 L34.074,15.252 L33.974,15.011 L33.940,14.752 L33.974,15.011 L33.940,14.752 L33.974,15.011 L33.940,14.752 M68.966,30.574 L69.000,30.315 L68.966,30.574 L69.000,30.315 L68.966,30.574 L69.000,30.315 L69.100,30.074 L69.259,29.866 L69.466,29.708 L69.707,29.608 L69.966,29.574 L70.225,29.608 L70.466,29.708 L70.673,29.866 L70.832,30.074 L70.932,30.315 L70.966,30.574 L70.932,30.832 L70.832,31.074 L70.673,31.281 L70.466,31.440 L70.225,31.539 L69.966,31.574 L69.707,31.539 L69.466,31.440 L69.259,31.281 L69.100,31.074 L69.000,30.832 L68.966,30.574 L69.000,30.832 L68.966,30.574 L69.000,30.832 L68.966,30.574 M65.582,29.045 L65.616,28.786 L65.582,29.045 L65.616,28.786 L65.582,29.045 L65.616,28.786 L65.716,28.545 L65.875,28.338 L66.082,28.179 L66.323,28.079 L66.582,28.045 L66.841,28.079 L67.082,28.179 L67.289,28.338 L67.448,28.545 L67.548,28.786 L67.582,29.045 L67.548,29.304 L67.448,29.545 L67.289,29.752 L67.082,29.911 L66.841,30.011 L66.582,30.045 L66.323,30.011 L66.082,29.911 L65.875,29.752 L65.716,29.545 L65.616,29.304 L65.582,29.045 L65.616,29.304 L65.582,29.045 L65.616,29.304 L65.582,29.045 M72.465,32.154 L72.499,31.895 L72.465,32.154 L72.499,31.895 L72.465,32.154 L72.499,31.895 L72.599,31.654 L72.757,31.447 L72.965,31.288 L73.206,31.188 L73.465,31.154 L73.723,31.188 L73.965,31.288 L74.172,31.447 L74.331,31.654 L74.430,31.895 L74.465,32.154 L74.430,32.413 L74.331,32.654 L74.172,32.861 L73.965,33.020 L73.723,33.120 L73.465,33.154 L73.206,33.120 L72.965,33.020 L72.757,32.861 L72.599,32.654 L72.499,32.413 L72.465,32.154 L72.499,32.413 L72.465,32.154 L72.499,32.413 L72.465,32.154 M38.918,17.001 L38.952,16.742 L38.918,17.001 L38.952,16.742 L38.918,17.001 L38.952,16.742 L39.052,16.501 L39.211,16.293 L39.418,16.135 L39.659,16.035 L39.918,16.001 L40.177,16.035 L40.418,16.135 L40.625,16.293 L40.784,16.501 L40.884,16.742 L40.918,17.001 L40.884,17.259 L40.784,17.501 L40.625,17.708 L40.418,17.867 L40.177,17.966 L39.918,18.001 L39.659,17.966 L39.418,17.867 L39.211,17.708 L39.052,17.501 L38.952,17.259 L38.918,17.001 L38.952,17.259 L38.918,17.001 L38.952,17.259 L38.918,17.001 M1.138,39.747 L1.172,39.489 L1.138,39.747 L1.172,39.489 L1.138,39.747 L1.172,39.489 L1.272,39.247 L1.431,39.040 L1.638,38.881 L1.879,38.781 L2.138,38.747 L2.397,38.781 L2.638,38.881 L2.845,39.040 L3.004,39.247 L3.104,39.489 L3.138,39.747 L3.104,40.006 L3.004,40.247 L2.845,40.454 L2.638,40.613 L2.397,40.713 L2.138,40.747 L1.879,40.713 L1.638,40.613 L1.431,40.454 L1.272,40.247 L1.172,40.006 L1.138,39.747 L1.172,40.006 L1.138,39.747 L1.172,40.006 L1.138,39.747 M31.450,18.833 L31.484,18.575 L31.450,18.833 L31.484,18.575 L31.450,18.833 L31.484,18.575 L31.583,18.333 L31.742,18.126 L31.950,17.967 L32.191,17.867 L32.450,17.833 L32.708,17.867 L32.950,17.967 L33.157,18.126 L33.316,18.333 L33.415,18.575 L33.450,18.833 L33.415,19.092 L33.316,19.333 L33.157,19.541 L32.950,19.699 L32.708,19.799 L32.450,19.833 L32.191,19.799 L31.950,19.699 L31.742,19.541 L31.583,19.333 L31.484,19.092 L31.450,18.833 L31.484,19.092 L31.450,18.833 L31.484,19.092 L31.450,18.833 M25.358,28.818 L25.392,28.559 L25.358,28.818 L25.392,28.559 L25.358,28.818 L25.392,28.559 L25.492,28.318 L25.650,28.111 L25.858,27.952 L26.099,27.852 L26.358,27.818 L26.616,27.852 L26.858,27.952 L27.065,28.111 L27.224,28.318 L27.324,28.559 L27.358,28.818 L27.324,29.077 L27.224,29.318 L27.065,29.525 L26.858,29.684 L26.616,29.784 L26.358,29.818 L26.099,29.784 L25.858,29.684 L25.650,29.525 L25.492,29.318 L25.392,29.077 L25.358,28.818 L25.392,29.077 L25.358,28.818 L25.392,29.077 L25.358,28.818 M37.868,8.313 L37.902,8.054 L37.868,8.313 L37.902,8.054 L37.868,8.313 L37.902,8.054 L38.002,7.813 L38.161,7.606 L38.368,7.447 L38.610,7.347 L38.868,7.313 L39.127,7.347 L39.368,7.447 L39.575,7.606 L39.734,7.813 L39.834,8.054 L39.868,8.313 L39.834,8.572 L39.734,8.813 L39.575,9.020 L39.368,9.179 L39.127,9.279 L38.868,9.313 L38.610,9.279 L38.368,9.179 L38.161,9.020 L38.002,8.813 L37.902,8.572 L37.868,8.313 L37.902,8.572 L37.868,8.313 L37.902,8.572 L37.868,8.313 M46.870,28.939 L46.904,28.681 L46.870,28.939 L46.904,28.681 L46.870,28.939 L46.904,28.681 L47.004,28.439 L47.163,28.232 L47.370,28.073 L47.611,27.973 L47.870,27.939 L48.128,27.973 L48.370,28.073 L48.577,28.232 L48.736,28.439 L48.836,28.681 L48.870,28.939 L48.836,29.198 L48.736,29.439 L48.577,29.646 L48.370,29.805 L48.128,29.905 L47.870,29.939 L47.611,29.905 L47.370,29.805 L47.163,29.646 L47.004,29.439 L46.904,29.198 L46.870,28.939 L46.904,29.198 L46.870,28.939 L46.904,29.198 L46.870,28.939 M39.801,24.307 L39.835,24.048 L39.801,24.307 L39.835,24.048 L39.801,24.307 L39.835,24.048 L39.935,23.807 L40.094,23.600 L40.301,23.441 L40.542,23.341 L40.801,23.307 L41.060,23.341 L41.301,23.441 L41.508,23.600 L41.667,23.807 L41.767,24.048 L41.801,24.307 L41.767,24.566 L41.667,24.807 L41.508,25.014 L41.301,25.173 L41.060,25.273 L40.801,25.307 L40.542,25.273 L40.301,25.173 L40.094,25.014 L39.935,24.807 L39.835,24.566 L39.801,24.307 L39.835,24.566 L39.801,24.307 L39.835,24.566 L39.801,24.307 M67.651,29.057 L67.685,28.798 L67.651,29.057 L67.685,28.798 L67.651,29.057 L67.685,28.798 L67.785,28.557 L67.944,28.350 L68.151,28.191 L68.392,28.091 L68.651,28.057 L68.910,28.091 L69.151,28.191 L69.358,28.350 L69.517,28.557 L69.617,28.798 L69.651,29.057 L69.617,29.315 L69.517,29.557 L69.358,29.764 L69.151,29.923 L68.910,30.023 L68.651,30.057 L68.392,30.023 L68.151,29.923 L67.944,29.764 L67.785,29.557 L67.685,29.315 L67.651,29.057 L67.685,29.315 L67.651,29.057 L67.685,29.315 L67.651,29.057 M73.832,36.184 L73.866,35.925 L73.832,36.184 L73.866,35.925 L73.832,36.184 L73.866,35.925 L73.966,35.684 L74.125,35.477 L74.332,35.318 L74.573,35.218 L74.832,35.184 L75.091,35.218 L75.332,35.318 L75.539,35.477 L75.698,35.684 L75.798,35.925 L75.832,36.184 L75.798,36.443 L75.698,36.684 L75.539,36.891 L75.332,37.050 L75.091,37.150 L74.832,37.184 L74.573,37.150 L74.332,37.050 L74.125,36.891 L73.966,36.684 L73.866,36.443 L73.832,36.184 L73.866,36.443 L73.832,36.184 L73.866,36.443 L73.832,36.184 M71.421,29.078 L71.455,28.819 L71.421,29.078 L71.455,28.819 L71.421,29.078 L71.455,28.819 L71.555,28.578 L71.714,28.371 L71.921,28.212 L72.162,28.112 L72.421,28.078 L72.680,28.112 L72.921,28.212 L73.128,28.371 L73.287,28.578 L73.387,28.819 L73.421,29.078 L73.387,29.337 L73.287,29.578 L73.128,29.785 L72.921,29.944 L72.680,30.044 L72.421,30.078 L72.162,30.044 L71.921,29.944 L71.714,29.785 L71.555,29.578 L71.455,29.337 L71.421,29.078 L71.455,29.337 L71.421,29.078 L71.455,29.337 L71.421,29.078 M40.356,28.903 L40.390,28.644 L40.356,28.903 L40.390,28.644 L40.356,28.903 L40.390,28.644 L40.490,28.403 L40.649,28.196 L40.856,28.037 L41.098,27.937 L41.356,27.903 L41.615,27.937 L41.856,28.037 L42.064,28.196 L42.222,28.403 L42.322,28.644 L42.356,28.903 L42.322,29.161 L42.222,29.403 L42.064,29.610 L41.856,29.769 L41.615,29.869 L41.356,29.903 L41.098,29.869 L40.856,29.769 L40.649,29.610 L40.490,29.403 L40.390,29.161 L40.356,28.903 L40.390,29.161 L40.356,28.903 L40.390,29.161 L40.356,28.903"/>
</svg>
