<svg xmlns="http://www.w3.org/2000/svg" viewBox="0 -11.525 71.049 71.049" width="256" height="256">
  <title>customsatin</title>
  <rect x="0" y="-11.525" width="71.049" height="71.049" fill="#f5efe4"/>
  <path fill="none" stroke="#c8472f" stroke-width="0.4" stroke-linecap="round" stroke-linejoin="round" d="M3.274,47.000 L3.274,47.000 M3.274,47.000 L3.349,46.550 L3.199,46.100 L3.484,45.650 L3.064,45.200 L3.619,44.750 L2.929,44.300 L3.753,43.850 L2.796,43.400 L3.885,42.950 L2.664,42.500 L4.015,42.050 L2.534,41.600 L4.142,41.150 L2.406,40.700 L4.267,40.250 L2.282,39.800 L4.388,39.350 L2.160,38.900 L4.505,38.450 L2.043,38.000 L4.618,37.550 L1.930,37.100 L4.726,36.650 L1.822,36.200 L4.829,35.750 L1.720,35.300 L4.926,34.850 L1.622,34.400 L5.017,33.950 L1.531,33.500 L5.102,33.050 L1.446,32.600 L5.180,32.150 L1.368,31.700 L5.252,31.250 L1.296,30.800 L5.316,30.350 L1.232,29.900 L5.373,29.450 L1.175,29.000 L5.422,28.550 L1.126,28.100 L5.463,27.650 L1.085,27.200 L5.497,26.750 L1.052,26.300 L5.522,25.850 L1.026,25.400 L5.539,24.950 L1.009,24.500 L5.548,24.050 L1.000,23.600 L5.548,23.150 L1.000,22.700 L5.541,22.250 L1.008,21.800 L5.524,21.350 L1.024,20.900 L5.500,20.450 L1.048,20.000 L5.468,19.550 L1.081,19.100 L5.427,18.650 L1.121,18.200 L5.379,17.750 L1.170,17.300 L5.323,16.850 L1.226,16.400 L5.259,15.950 L1.289,15.500 L5.189,15.050 L1.360,14.600 L5.111,14.150 L1.437,13.700 L5.027,13.250 L1.521,12.800 L4.936,12.350 L1.612,11.900 L4.840,11.450 L1.709,11.000 L4.738,10.550 L1.811,10.100 L4.630,9.650 L1.918,9.200 L4.518,8.750 L2.031,8.300 L4.401,7.850 L2.147,7.400 L4.280,6.950 L2.268,6.500 L4.156,6.050 L2.392,5.600 L4.029,5.150 L2.519,4.700 L3.899,4.250 L2.649,3.800 L3.767,3.350 L2.781,2.900 L3.634,2.450 L2.915,2.000 L3.499,1.550 L3.049,1.100 L3.499,1.550 L3.049,1.100 L3.499,1.550 L3.049,1.100"/>
  <path fill="none" stroke="#31604f" stroke-width="0.4" stroke-linecap="round" stroke-linejoin="round" d="M25.274,47.000 L25.654,46.412 L25.274,47.000 L25.654,46.412 L25.274,47.000 M25.274,47.000 L23.199,47.000 L27.349,45.300 L23.199,44.900 L27.349,46.300 L23.199,45.900 L27.349,43.700 L23.199,43.300 L27.349,44.700 L23.199,44.300 L27.349,42.100 L23.199,41.700 L27.349,43.100 L23.199,42.700 L27.349,40.500 L23.199,40.100 L27.349,41.500 L23.199,41.100 L27.349,38.900 L23.199,38.500 L27.349,39.900 L23.199,39.500 L27.349,37.300 L23.199,36.900 L27.349,38.300 L23.199,37.900 L27.349,35.700 L23.199,35.300 L27.349,36.700 L23.199,36.300 L27.349,34.100 L23.199,33.700 L27.349,35.100 L23.199,34.700 L27.349,32.500 L23.199,32.100 L27.349,33.500 L23.199,33.100 L27.349,30.900 L23.199,30.500 L27.349,31.900 L23.199,31.500 L27.349,29.300 L23.199,28.900 L27.349,30.300 L23.199,29.900 L27.349,27.700 L23.199,27.300 L27.349,28.700 L23.199,28.300 L27.349,26.100 L23.199,25.700 L27.349,27.100 L23.199,26.700 L27.349,24.500 L23.199,24.100 L27.349,25.500 L23.199,25.100 L27.349,22.900 L23.199,22.500 L27.349,23.900 L23.199,23.500 L27.349,21.300 L23.199,20.900 L27.349,22.300 L23.199,21.900 L27.349,19.700 L23.199,19.300 L27.349,20.700 L23.199,20.300 L27.349,18.100 L23.199,17.700 L27.349,19.100 L23.199,18.700 L27.349,16.500 L23.199,16.100 L27.349,17.500 L23.199,17.100 L27.349,14.900 L23.199,14.500 L27.349,15.900 L23.199,15.500 L27.349,13.300 L23.199,12.900 L27.349,14.300 L23.199,13.900 L27.349,11.700 L23.199,11.300 L27.349,12.700 L23.199,12.300 L27.349,10.100 L23.199,9.700 L27.349,11.100 L23.199,10.700 L27.349,8.500 L23.199,8.100 L27.349,9.500 L23.199,9.100 L27.349,6.900 L23.199,6.500 L27.349,7.900 L23.199,7.500 L27.349,5.300 L23.199,4.900 L27.349,6.300 L23.199,5.900 L27.349,3.700 L23.199,3.300 L27.349,4.700 L23.199,4.300 L27.349,2.100 L23.199,1.700 L27.349,3.100 L23.199,2.700 L27.349,1.000 L23.199,1.000 L23.899,1.000 L23.199,1.000 L23.899,1.000 L23.199,1.000"/>
  <path fill="none" stroke="#3a4e8c" stroke-width="0.4" stroke-linecap="round" stroke-linejoin="round" d="M47.274,47.000 L47.770,46.506 L47.274,47.000 L47.770,46.506 L47.274,47.000 M47.274,47.000 L45.399,46.600 L49.149,46.200 L44.725,45.800 L49.824,45.400 L44.217,45.000 L50.331,44.600 L44.002,44.200 L50.546,43.800 L44.132,43.400 L50.416,43.000 L44.576,42.600 L49.972,42.200 L45.224,41.800 L49.325,41.400 L45.915,41.000 L48.634,40.600 L46.478,40.200 L48.070,39.800 L46.774,39.400 L47.774,39.000 L46.731,38.600 L47.818,38.200 L46.358,37.800 L48.191,37.400 L45.747,37.000 L48.801,36.600 L45.051,36.200 L49.497,35.800 L44.441,35.400 L50.108,35.000 L44.068,34.600 L50.481,34.200 L44.024,33.800 L50.524,33.400 L44.320,33.000 L50.228,32.600 L44.884,32.200 L49.665,31.800 L45.575,31.400 L48.974,31.000 L46.222,30.600 L48.326,30.200 L46.666,29.800 L47.882,29.400 L46.796,29.000 L47.752,28.600 L46.581,28.200 L47.967,27.800 L46.074,27.400 L48.475,27.000 L45.399,26.600 L49.149,26.200 L44.725,25.800 L49.824,25.400 L44.217,25.000 L50.331,24.600 L44.002,24.200 L50.546,23.800 L44.132,23.400 L50.416,23.000 L44.576,22.600 L49.972,22.200 L45.224,21.800 L49.325,21.400 L45.915,21.000 L48.634,20.600 L46.478,20.200 L48.070,19.800 L46.774,19.400 L47.774,19.000 L46.731,18.600 L47.818,18.200 L46.358,17.800 L48.191,17.400 L45.747,17.000 L48.801,16.600 L45.051,16.200 L49.497,15.800 L44.441,15.400 L50.108,15.000 L44.068,14.600 L50.481,14.200 L44.024,13.800 L50.524,13.400 L44.320,13.000 L50.228,12.600 L44.884,12.200 L49.665,11.800 L45.575,11.400 L48.974,11.000 L46.222,10.600 L48.326,10.200 L46.666,9.800 L47.882,9.400 L46.796,9.000 L47.752,8.600 L46.581,8.200 L47.967,7.800 L46.074,7.400 L48.475,7.000 L45.399,6.600 L49.149,6.200 L44.725,5.800 L49.824,5.400 L44.217,5.000 L50.331,4.600 L44.002,4.200 L50.546,3.800 L44.132,3.400 L50.416,3.000 L44.576,2.600 L49.972,2.200 L45.224,1.800 L49.325,1.400 L45.915,1.000 L46.610,1.082 L45.915,1.000 L46.610,1.082 L45.915,1.000"/>
  <path fill="none" stroke="#d9a441" stroke-width="0.4" stroke-linecap="round" stroke-linejoin="round" d="M69.274,47.000 L69.274,46.300 L69.274,47.000 L69.274,46.300 L69.274,47.000 M69.274,47.000 L68.599,46.600 L70.049,46.200 L68.577,45.800 L70.049,45.400 L68.554,45.000 L70.049,44.600 L68.531,44.200 L70.049,43.800 L68.509,43.400 L70.049,43.000 L68.486,42.600 L70.049,42.200 L68.464,41.800 L70.049,41.400 L68.441,41.000 L70.049,40.600 L68.418,40.200 L70.049,39.800 L68.396,39.400 L70.049,39.000 L68.373,38.600 L70.049,38.200 L68.350,37.800 L70.049,37.400 L68.328,37.000 L70.049,36.600 L68.305,36.200 L70.049,35.800 L68.283,35.400 L70.049,35.000 L68.260,34.600 L70.049,34.200 L68.237,33.800 L70.049,33.400 L68.215,33.000 L70.049,32.600 L68.192,32.200 L70.049,31.800 L68.170,31.400 L70.049,31.000 L68.147,30.600 L70.049,30.200 L68.124,29.800 L70.049,29.400 L68.102,29.000 L70.049,28.600 L68.079,28.200 L70.049,27.800 L68.057,27.400 L70.049,27.000 L68.034,26.600 L70.049,26.200 L68.011,25.800 L70.049,25.400 L67.989,25.000 L70.049,24.600 L67.966,24.200 L70.049,23.800 L67.944,23.400 L70.049,23.000 L67.921,22.600 L70.049,22.200 L67.898,21.800 L70.049,21.400 L67.876,21.000 L70.049,20.600 L67.853,20.200 L70.049,19.800 L67.830,19.400 L70.049,19.000 L67.808,18.600 L70.049,18.200 L67.785,17.800 L70.049,17.400 L67.763,17.000 L70.049,16.600 L67.740,16.200 L70.049,15.800 L67.717,15.400 L70.049,15.000 L67.695,14.600 L70.049,14.200 L67.672,13.800 L70.049,13.400 L67.650,13.000 L70.049,12.600 L67.627,12.200 L70.049,11.800 L67.604,11.400 L70.049,11.000 L67.582,10.600 L70.049,10.200 L67.559,9.800 L70.049,9.400 L67.537,9.000 L70.049,8.600 L67.514,8.200 L70.049,7.800 L67.491,7.400 L70.049,7.000 L67.469,6.600 L70.049,6.200 L67.446,5.800 L70.049,5.400 L67.424,5.000 L70.049,4.600 L67.401,4.200 L70.049,3.800 L67.378,3.400 L70.049,3.000 L67.356,2.600 L70.049,2.200 L67.333,1.800 L70.049,1.400 L67.310,1.000 L68.003,1.101 L67.310,1.000 L68.003,1.101 L67.310,1.000"/>
</svg>
