<svg xmlns="http://www.w3.org/2000/svg" viewBox="0 -10.743 69.46 69.46" width="256" height="256">
  <title>customfill</title>
  <rect x="0" y="-10.743" width="69.46" height="69.46" fill="#f5efe4"/>
  <path fill="none" stroke="#c8472f" stroke-width="0.4" stroke-linecap="round" stroke-linejoin="round" d="M1.289,12.188 L1.973,12.038 L1.289,12.188 L1.973,12.038 L1.289,12.188 L3.437,11.714 L5.608,11.358 L7.795,11.122 L9.992,11.007 L12.191,11.012 L14.387,11.139 L16.573,11.385 L18.742,11.752 L20.694,12.188 L20.853,12.951 L19.785,12.691 L17.628,12.259 L15.450,11.948 L13.259,11.759 L11.060,11.694 L8.861,11.752 L6.669,11.933 L4.490,12.236 L2.332,12.660 L1.117,12.955 L1.122,11.509 L3.270,11.033 L5.440,10.675 L7.627,10.433 L9.823,10.311 L12.023,10.307 L14.220,10.422 L16.407,10.656 L18.578,11.008 L20.728,11.476 L20.873,11.512 L20.680,13.630 L19.611,13.369 L17.454,12.939 L15.276,12.633 L13.084,12.451 L10.885,12.394 L8.686,12.463 L6.495,12.657 L4.318,12.975 L2.163,13.417 L1.290,13.633 L1.301,10.744 L3.453,10.286 L5.626,9.944 L7.814,9.716 L10.011,9.606 L12.210,9.612 L14.407,9.735 L16.593,9.975 L18.764,10.330 L20.719,10.753 M20.848,14.398 L19.782,14.128 L17.628,13.680 L15.452,13.358 L13.261,13.162 L11.062,13.094 L8.864,13.154 L6.672,13.341 L4.495,13.655 L2.339,14.095 L1.127,14.400 L1.806,14.229 L1.127,14.400 L1.806,14.229 L1.127,14.400 M1.140,10.063 L1.825,9.917 L1.140,10.063 L1.825,9.917 L1.140,10.063 L3.292,9.604 L5.464,9.259 L7.652,9.027 L9.848,8.910 L12.048,8.908 L14.245,9.020 L16.433,9.247 L18.606,9.589 L20.758,10.043 L20.904,10.078 M20.680,15.078 L20.002,14.906 L20.680,15.078 L20.002,14.906 L20.680,15.078 L19.614,14.807 L17.460,14.361 L15.284,14.043 L13.092,13.853 L10.893,13.794 L8.695,13.865 L6.504,14.066 L4.330,14.395 L2.178,14.853 L1.306,15.077 L1.984,14.903 L1.306,15.077 L1.984,14.903 L1.306,15.077 M1.326,9.300 L2.011,9.159 L1.326,9.300 L2.011,9.159 L1.326,9.300 L3.481,8.858 L5.656,8.528 L7.844,8.310 L10.042,8.205 L12.241,8.213 L14.438,8.333 L16.625,8.566 L18.798,8.912 L20.755,9.322 L20.070,9.179 L20.755,9.322 L20.070,9.179 L20.755,9.322 M20.854,15.852 L20.177,15.673 L20.854,15.852 L20.177,15.673 L20.854,15.852 L19.790,15.571 L17.640,15.105 L15.467,14.770 L13.276,14.566 L11.078,14.494 L8.879,14.556 L6.688,14.749 L4.512,15.074 L2.360,15.529 L1.151,15.845 L1.828,15.668 L1.151,15.845 L1.828,15.668 L1.151,15.845 M1.170,8.617 L1.856,8.476 L1.170,8.617 L1.856,8.476 L1.170,8.617 L3.325,8.175 L5.500,7.842 L7.688,7.620 L9.885,7.508 L12.085,7.508 L14.282,7.619 L16.470,7.840 L18.645,8.173 L20.800,8.615 L20.946,8.648 M20.693,16.533 L20.016,16.354 L20.693,16.533 L20.016,16.354 L20.693,16.533 L19.629,16.252 L17.479,15.787 L15.305,15.455 L13.114,15.257 L10.916,15.194 L8.717,15.267 L6.527,15.474 L4.354,15.815 L2.206,16.289 L1.000,16.616 L1.676,16.433 L1.000,16.616 L1.676,16.433 L1.000,16.616 M1.012,7.935 L1.698,7.794 L1.012,7.935 L1.698,7.794 L1.012,7.935 L3.167,7.492 L5.341,7.157 L7.529,6.930 L9.726,6.812 L11.925,6.804 L14.123,6.905 L16.313,7.115 L18.489,7.435 L20.647,7.862 L20.793,7.895 M20.875,17.314 L20.200,17.128 L20.875,17.314 L20.200,17.128 L20.875,17.314 L19.814,17.021 L17.669,16.535 L15.498,16.185 L13.308,15.970 L11.110,15.894 L8.911,15.956 L6.721,16.155 L4.547,16.491 L2.398,16.962 L1.192,17.290 L1.868,17.106 L1.192,17.290 L1.868,17.106 L1.192,17.290 M1.204,7.174 L1.890,7.038 L1.204,7.174 L1.890,7.038 L1.204,7.174 L3.362,6.747 L5.538,6.427 L7.727,6.213 L9.925,6.107 L12.124,6.109 L14.321,6.218 L16.510,6.434 L18.686,6.759 L20.844,7.189 L20.990,7.221 M20.724,17.999 L20.049,17.812 L20.724,17.999 L20.049,17.812 L20.724,17.999 L19.664,17.705 L17.518,17.219 L15.346,16.871 L13.157,16.662 L10.958,16.594 L8.760,16.667 L6.570,16.879 L4.399,17.232 L2.255,17.722 L1.052,18.061 L1.726,17.871 L1.052,18.061 L1.726,17.871 L1.052,18.061 M1.054,6.490 L1.740,6.354 L1.054,6.490 L1.740,6.354 L1.054,6.490 L3.212,6.063 L5.388,5.740 L7.577,5.522 L9.773,5.410 L11.973,5.405 L14.171,5.505 L16.361,5.711 L18.538,6.023 L20.698,6.439 L20.845,6.471 M20.911,18.787 L20.238,18.592 L20.911,18.787 L20.238,18.592 L20.911,18.787 L19.854,18.480 L17.714,17.972 L15.546,17.603 L13.358,17.377 L11.160,17.295 L8.961,17.356 L6.771,17.559 L4.599,17.906 L2.454,18.394 L1.251,18.732 L1.925,18.543 L1.251,18.732 L1.925,18.543 L1.251,18.732 M1.251,5.730 L1.939,5.599 L1.251,5.730 L1.939,5.599 L1.251,5.730 L3.412,5.319 L5.590,5.010 L7.780,4.806 L9.978,4.705 L12.177,4.710 L14.375,4.818 L16.564,5.031 L18.741,5.347 L20.705,5.724 L20.017,5.592 L20.705,5.724 L20.017,5.592 L20.705,5.724 M20.766,19.475 L20.094,19.279 L20.766,19.475 L20.094,19.279 L20.766,19.475 L19.710,19.167 L17.571,18.657 L15.402,18.290 L13.213,18.069 L11.015,17.994 L8.817,18.066 L6.628,18.284 L4.459,18.647 L2.318,19.155 L1.119,19.505 L1.790,19.309 L1.119,19.505 L1.790,19.309 L1.119,19.505 M1.106,5.045 L1.794,4.914 L1.106,5.045 L1.794,4.914 L1.106,5.045 L3.267,4.633 L5.445,4.323 L7.635,4.114 L9.832,4.008 L12.032,4.006 L14.229,4.106 L16.420,4.309 L18.598,4.614 L20.760,5.021 L20.907,5.052 M20.959,20.270 L20.289,20.066 L20.959,20.270 L20.289,20.066 L20.959,20.270 L19.907,19.949 L17.773,19.414 L15.608,19.026 L13.422,18.785 L11.224,18.695 L9.025,18.754 L6.836,18.963 L4.665,19.320 L2.524,19.824 L1.324,20.174 L1.996,19.978 L1.324,20.174 L1.996,19.978 L1.324,20.174 M1.309,4.287 L1.998,4.161 L1.309,4.287 L1.998,4.161 L1.309,4.287 L3.473,3.891 L5.653,3.594 L7.844,3.398 L10.041,3.304 L12.241,3.311 L14.438,3.419 L16.628,3.628 L18.806,3.939 L20.772,4.307 L20.084,4.178 L20.772,4.307 L20.084,4.178 L20.772,4.307 M20.821,20.962 L20.152,20.756 L20.821,20.962 L20.152,20.756 L20.821,20.962 L19.770,20.638 L17.637,20.101 L15.472,19.713 L13.285,19.477 L11.087,19.394 L8.888,19.464 L6.700,19.687 L4.533,20.061 L2.397,20.586 L1.201,20.949 L1.870,20.746 L1.201,20.949 L1.870,20.746 L1.201,20.949 M1.170,3.601 L1.858,3.475 L1.170,3.601 L1.858,3.475 L1.170,3.601 L3.333,3.204 L5.513,2.905 L7.703,2.706 L9.901,2.606 L12.101,2.607 L14.298,2.707 L16.489,2.907 L18.668,3.207 L20.832,3.605 L20.979,3.636 M18.280,20.966 L17.597,20.813 L18.280,20.966 L17.597,20.813 L18.280,20.966 L17.206,20.726 L15.037,20.360 L12.848,20.150 L10.649,20.096 L8.452,20.199 L6.268,20.458 L4.107,20.871 L3.718,20.962 L4.107,20.871 L3.718,20.962 L4.107,20.871 L3.718,20.962 M1.027,2.916 L1.716,2.789 L1.027,2.916 L1.716,2.789 L1.027,2.916 L3.191,2.518 L5.370,2.217 L7.561,2.014 L9.758,1.910 L11.958,1.904 L14.156,1.996 L16.347,2.187 L18.528,2.476 L20.694,2.862 L20.841,2.892 M14.218,20.967 L13.521,20.905 L14.218,20.967 L13.521,20.905 L14.218,20.967 L13.123,20.869 L10.924,20.794 L8.726,20.879 L7.582,20.987 L8.279,20.921 L7.582,20.987 L8.279,20.921 L7.582,20.987 M1.236,2.159 L1.925,2.037 L1.236,2.159 L1.925,2.037 L1.236,2.159 L3.402,1.776 L5.583,1.489 L7.775,1.298 L9.972,1.205 L12.172,1.208 L14.370,1.309 L16.561,1.506 L18.741,1.801 L20.710,2.151 L20.020,2.029 L20.710,2.151 L20.020,2.029 L20.710,2.151 M3.861,1.000 L3.169,1.106 L3.861,1.000 L3.169,1.106 L3.861,1.000 L2.773,1.167 L1.101,1.472 L1.790,1.347 L1.101,1.472 L1.790,1.347 L1.101,1.472 M18.401,1.041 L19.091,1.158 L18.401,1.041 L19.091,1.158 L18.401,1.041 L20.569,1.411 L20.815,1.459 L20.569,1.411 L20.815,1.459 L20.569,1.411 L20.815,1.459"/>
  <path fill="none" stroke="#3a4e8c" stroke-width="0.4" stroke-linecap="round" stroke-linejoin="round" d="M36.691,20.982 L36.349,20.372 L36.691,20.982 L36.349,20.372 L36.691,20.982 L35.647,19.119 L36.733,17.290 L38.564,16.074 L39.242,14.178 L37.580,12.813 L35.567,11.939 L35.484,10.104 L37.472,9.177 L38.341,7.371 L37.396,5.390 L37.241,3.229 L37.890,1.286 L37.668,1.950 L37.890,1.286 L37.668,1.950 L37.890,1.286 M40.105,20.968 L39.521,20.582 L40.105,20.968 L39.521,20.582 L40.105,20.968 L39.187,20.362 L37.273,20.311 L37.192,20.844 L36.762,20.396 L38.187,19.514 M34.614,20.974 L35.706,20.904 L36.001,20.959 L36.476,19.640 L37.583,18.992 L36.979,19.345 L37.583,18.992 L36.979,19.345 L37.583,18.992 M36.787,9.116 L36.089,9.167 L36.787,9.116 L36.089,9.167 L36.787,9.116 L35.692,9.196 L33.496,9.085 L31.519,9.925 L30.687,11.884 L31.576,13.864 L33.063,15.481 L34.170,17.321 L34.440,19.471 L35.773,20.498 L35.283,19.786 L34.834,17.690 L33.990,15.972 L34.298,16.600 L33.990,15.972 L34.298,16.600 L33.990,15.972 M39.200,19.947 L38.742,19.417 L39.200,19.947 L38.742,19.417 L39.200,19.947 L38.481,19.115 L36.541,18.705 L36.105,19.463 L35.312,18.842 L35.580,16.678 L33.878,15.467 L33.413,15.283 L33.878,15.467 L33.413,15.283 L33.878,15.467 L33.413,15.283 M38.524,18.652 L37.968,18.228 L38.524,18.652 L37.968,18.228 L38.524,18.652 L37.664,17.997 L36.150,18.508 L36.029,17.208 L35.229,15.503 L34.641,15.389 L35.229,15.503 L34.641,15.389 L35.229,15.503 L34.641,15.389 M38.672,18.272 L38.112,17.852 L38.672,18.272 L38.112,17.852 L38.672,18.272 L37.811,17.626 L37.167,17.605 L36.462,17.040 L36.058,15.238 L35.122,15.115 L35.816,15.206 L35.122,15.115 L35.816,15.206 L35.122,15.115 M40.528,20.825 L40.096,20.274 L40.528,20.825 L40.096,20.274 L40.528,20.825 L39.854,19.965 L39.074,17.915 L37.391,17.247 L37.051,16.640 L36.634,14.870 L35.696,14.781 L36.392,14.847 L35.696,14.781 L36.392,14.847 L35.696,14.781 M44.780,18.389 L44.249,18.845 L44.780,18.389 L44.249,18.845 L44.780,18.389 L43.947,19.104 L42.449,20.697 L40.670,19.954 L40.047,17.850 L38.275,16.809 L38.026,16.835 L37.802,16.007 L36.831,14.432 L36.233,14.412 L36.831,14.432 L36.233,14.412 L36.831,14.432 L36.233,14.412 M44.866,17.153 L44.209,16.910 L44.866,17.153 L44.209,16.910 L44.866,17.153 L43.834,16.772 L41.694,16.292 L39.499,16.265 L38.712,16.407 L38.341,15.359 L36.953,14.077 L37.467,14.552 L36.953,14.077 L37.467,14.552 L36.953,14.077 M38.762,7.600 L39.010,8.254 L38.762,7.600 L39.010,8.254 L38.762,7.600 L39.150,8.623 L39.060,10.812 L39.965,12.784 L40.343,14.855 L39.392,15.853 L40.002,14.722 L39.242,12.740 L38.319,10.812 L38.793,9.345 L38.578,10.011 L38.793,9.345 L38.578,10.011 L38.793,9.345 M32.326,14.225 L32.988,14.452 L32.326,14.225 L32.988,14.452 L32.326,14.225 L33.356,14.579 L35.457,14.009 L37.602,13.791 L38.734,15.091 L39.516,13.688 L38.035,12.070 L37.891,10.064 L38.730,8.390 L37.957,9.293 L37.125,10.012 L37.092,11.937 L37.794,12.497 L38.184,13.527 L36.049,13.188 L33.962,13.865 L31.887,13.525 L31.590,13.259 L31.887,13.525 L31.590,13.259 L31.887,13.525 L31.590,13.259 M36.460,10.299 L36.334,10.987 L36.460,10.299 L36.334,10.987 L36.460,10.299 L36.271,11.334 L36.626,11.873 L35.778,12.859 L33.595,13.120 L31.658,12.303 L31.497,10.509 M35.011,9.599 L33.998,10.008 L33.871,11.874 L35.684,12.515 L36.098,11.805 L36.040,10.242 L34.906,9.985 L34.265,10.835 L34.850,11.967 L34.528,11.345 L34.850,11.967 L34.528,11.345 L34.850,11.967 M25.034,7.880 L25.536,7.392 L25.034,7.880 L25.536,7.392 L25.034,7.880 L26.530,6.427 L28.711,6.588 L30.903,6.526 L33.028,6.939 L34.900,8.094 L36.997,8.601 L37.960,8.035 L37.829,7.285 L37.089,8.027 L35.028,7.473 L33.366,6.037 L31.537,4.890 L29.427,5.429 L27.268,5.824 L26.123,6.161 L26.795,5.963 L26.123,6.161 L26.795,5.963 L26.123,6.161 M44.799,6.854 L44.335,6.330 L44.799,6.854 L44.335,6.330 L44.799,6.854 L43.341,5.207 L41.488,4.151 L40.161,5.712 L38.487,6.510 L38.115,5.843 L39.149,5.734 L40.439,3.983 L41.293,3.772 L40.613,3.940 L41.293,3.772 L40.613,3.940 L41.293,3.772 M27.984,5.399 L28.598,5.062 L27.984,5.399 L28.598,5.062 L27.984,5.399 L29.894,4.351 L31.711,3.183 L33.314,4.474 L34.576,6.265 L36.519,7.120 L37.319,6.289 L37.817,5.217 L38.851,5.188 L39.986,3.931 L39.517,4.450 L39.986,3.931 L39.517,4.450 L39.986,3.931 M31.244,2.845 L31.944,2.851 L31.244,2.845 L31.944,2.851 L31.244,2.845 L33.169,2.861 L34.075,4.859 L35.613,6.360 L37.007,5.650 L37.640,4.604 L38.661,4.731 L39.179,4.342 L38.661,4.731 L39.179,4.342 L38.661,4.731 L39.179,4.342 M31.931,2.092 L32.617,2.233 L31.931,2.092 L32.617,2.233 L31.931,2.092 L33.786,2.474 L34.530,4.538 L36.290,5.472 L36.778,4.925 L37.593,4.000 L38.573,4.295 L40.548,3.393 L41.093,3.449 L40.548,3.393 L41.093,3.449 L40.548,3.393 L41.093,3.449 M32.707,1.483 L33.315,1.830 L32.707,1.483 L33.315,1.830 L32.707,1.483 L34.384,2.440 L35.348,4.373 L36.694,4.146 L37.663,3.396 L38.529,3.867 L37.914,3.533 L38.529,3.867 L37.914,3.533 L38.529,3.867 M33.895,1.187 L34.304,1.755 L33.895,1.187 L34.304,1.755 L33.895,1.187 L35.145,2.925 L36.758,3.360 L37.832,2.785 L38.651,3.406 L39.635,3.250 L38.944,3.360 L39.635,3.250 L38.944,3.360 L39.635,3.250 M34.556,1.191 L35.036,1.701 L34.556,1.191 L35.036,1.701 L34.556,1.191 L36.041,2.770 L36.929,2.598 L38.073,2.158 L38.755,2.946 L39.049,3.006 L38.755,2.946 L39.049,3.006 L38.755,2.946 L39.049,3.006 M35.080,1.196 L35.723,1.472 L35.080,1.196 L35.723,1.472 L35.080,1.196 L36.940,1.995 L37.403,1.618 L38.366,1.167 L38.597,2.217 L40.466,2.944 L39.814,2.690 L40.466,2.944 L39.814,2.690 L40.466,2.944 M35.486,1.077 L36.186,1.105 L35.486,1.077 L36.186,1.105 L35.486,1.077 L37.389,1.153 L36.690,1.125 L37.389,1.153 L36.690,1.125 L37.389,1.153 M38.838,20.544 L38.170,20.755 L38.838,20.544 L38.170,20.755 L38.838,20.544 L37.892,20.843 L38.854,20.980 L39.204,20.971 L38.854,20.980 L39.204,20.971 L38.854,20.980 L39.204,20.971 M33.812,17.186 L33.739,17.882 L33.812,17.186 L33.739,17.882 L33.812,17.186 L33.697,18.278 L34.317,20.195 L34.829,20.392 L34.317,20.195 L34.829,20.392 L34.317,20.195 L34.829,20.392 M27.629,20.863 L27.918,20.225 L27.629,20.863 L27.918,20.225 L27.629,20.863 L28.505,18.927 L30.602,19.120 L32.625,18.705 L33.423,16.735 L33.365,16.440 L32.697,15.628 L32.861,16.695 L31.146,17.644 L28.999,17.310 L27.694,18.923 L27.633,19.268 L28.280,17.231 L30.315,16.597 L31.918,15.492 L31.745,14.668 L30.595,12.859 L30.900,13.916 L30.135,15.757 L28.419,16.656 L28.325,16.291 L29.905,14.773 L30.180,12.636 L30.311,11.448 L30.722,10.261 L30.032,11.115 L29.138,13.118 L28.242,15.125 L27.622,17.226 L27.533,18.272 L27.592,17.574 L27.533,18.272 L27.592,17.574 L27.533,18.272 M33.761,12.772 L33.158,12.417 L33.761,12.772 L33.158,12.417 L33.761,12.772 L31.961,11.710 L32.549,9.774 L32.977,9.519 L32.533,8.878 L31.496,9.235 L29.515,10.186 L27.338,10.400 L25.533,11.419 L25.414,13.569 L26.506,15.466 L27.263,17.194 L26.982,16.553 L27.263,17.194 L26.982,16.553 L27.263,17.194 M33.843,12.396 L33.425,11.835 L33.843,12.396 L33.425,11.835 L33.843,12.396 L32.649,10.793 L34.057,9.541 L34.544,8.755 L33.484,8.463 L31.308,8.531 L29.139,8.666 L27.126,7.791 L25.238,8.455 L25.012,9.009 L26.300,6.880 L28.434,7.268 L30.595,7.553 L32.780,7.593 L34.799,8.458 L35.077,8.571 L34.799,8.458 L35.077,8.571 L34.799,8.458 L35.077,8.571 M33.940,14.899 L34.632,14.788 L33.940,14.899 L34.632,14.788 L33.940,14.899 L35.025,14.725 L35.317,14.656 L35.025,14.725 L35.317,14.656 L35.025,14.725 L35.317,14.656 M39.480,16.635 L40.020,17.081 L39.480,16.635 L40.020,17.081 L39.480,16.635 L41.124,17.994 L42.542,19.552 L43.033,19.507 L42.719,20.044 L41.691,19.861 L40.908,18.374 M43.777,20.918 L43.561,20.268 L44.037,19.684 L44.620,20.492 L44.919,20.509 L44.620,20.492 L44.919,20.509 L44.620,20.492 L44.919,20.509 M41.606,18.208 L42.239,18.506 L41.606,18.208 L42.239,18.506 L41.606,18.208 L43.412,19.058 L43.643,18.962 L44.518,19.185 L44.923,20.063 L44.630,19.428 L44.923,20.063 L44.630,19.428 L44.923,20.063 M40.583,16.764 L41.124,17.208 L40.583,16.764 L41.124,17.208 L40.583,16.764 L42.277,18.152 L44.140,18.438 L44.737,17.979 L43.644,18.032 L41.702,17.038 L41.217,16.779 L40.182,15.823 L41.847,14.468 L41.431,12.443 L40.166,10.654 L39.602,8.946 L40.537,10.611 L41.254,11.442 L42.947,12.841 L42.815,14.781 L41.225,15.699 L42.281,15.659 L44.385,15.021 L44.930,14.770 L44.043,17.663 L43.009,17.295 L42.103,16.870 L42.712,15.961 L44.776,16.260 L44.083,16.160 L44.776,16.260 L44.083,16.160 L44.776,16.260 M39.670,10.403 L39.887,11.068 L39.670,10.403 L39.887,11.068 L39.670,10.403 L40.011,11.444 L41.099,13.348 L40.709,15.162 L40.856,14.477 L40.709,15.162 L40.856,14.477 L40.709,15.162 M44.743,7.772 L44.047,7.844 L44.743,7.772 L44.047,7.844 L44.743,7.772 L42.614,7.992 L40.507,8.389 L39.166,7.640 L38.747,6.995 L39.781,7.296 L41.207,5.775 L42.439,4.945 L41.858,5.336 L42.439,4.945 L41.858,5.336 L42.439,4.945 M37.325,11.732 L37.276,11.034 L37.325,11.732 L37.276,11.034 L37.325,11.732 L37.233,10.405 L37.281,11.103 L37.233,10.405 L37.281,11.103 L37.233,10.405 M31.899,8.081 L31.206,8.184 L31.899,8.081 L31.206,8.184 L31.899,8.081 L30.811,8.242 L28.655,8.016 L26.596,7.292 L25.827,7.474 L25.130,6.752 L26.506,5.077 L27.693,3.336 L26.343,1.750 L25.321,1.343 L25.972,1.602 L25.321,1.343 L25.972,1.602 L25.321,1.343 M33.461,6.578 L32.891,6.171 L33.461,6.578 L32.891,6.171 L33.461,6.578 L32.567,5.940 L30.443,5.675 L28.873,5.977 L26.444,5.555 L28.332,4.452 L28.454,2.484 L27.114,1.738 L27.726,2.079 L27.114,1.738 L27.726,2.079 L27.114,1.738 M33.559,5.688 L33.116,5.147 L33.559,5.688 L33.116,5.147 L33.559,5.688 L32.862,4.838 L30.928,4.170 L30.428,4.398 L30.928,4.170 L30.428,4.398 L30.928,4.170 L30.428,4.398 M36.606,7.462 L37.236,7.181 L36.606,7.462 L37.236,7.181 L36.606,7.462 L37.236,7.181 L36.606,7.462 L37.236,7.181 L36.606,7.462 L37.236,7.181 M41.990,7.857 L42.608,7.528 L41.990,7.857 L42.608,7.528 L41.990,7.857 L42.960,7.342 L44.284,7.329 L44.938,6.223 L44.979,5.197 L44.951,5.897 L44.979,5.197 L44.951,5.897 L44.979,5.197 M40.645,8.003 L41.295,7.741 L40.645,8.003 L41.295,7.741 L40.645,8.003 L41.654,7.596 L43.601,6.751 L44.126,6.908 L44.443,5.687 L44.921,4.478 L44.664,5.129 L44.921,4.478 L44.664,5.129 L44.921,4.478 M41.321,7.427 L41.828,6.944 L41.321,7.427 L41.828,6.944 L41.321,7.427 L42.117,6.669 L43.686,6.363 L44.033,5.471 L44.895,3.977 L44.545,4.584 L44.895,3.977 L44.545,4.584 L44.895,3.977 M41.532,6.711 L42.019,6.207 L41.532,6.711 L42.019,6.207 L41.532,6.711 L42.291,5.926 L43.576,5.980 L43.381,4.595 L44.713,3.581 L44.156,4.005 L44.713,3.581 L44.156,4.005 L44.713,3.581 M41.251,6.494 L41.657,5.923 L41.251,6.494 L41.657,5.923 L41.251,6.494 L41.885,5.602 L42.818,5.357 L42.741,4.084 L43.910,2.945 L44.468,3.164 L43.910,2.945 L44.468,3.164 L43.910,2.945 L44.468,3.164 M40.337,1.105 L40.479,1.790 L40.337,1.105 L40.479,1.790 L40.337,1.105 L40.557,2.164 L41.918,3.687 L41.769,4.671 L41.020,5.365 L41.534,4.889 L41.020,5.365 L41.534,4.889 L41.020,5.365 M28.825,2.365 L29.085,3.015 L28.825,2.365 L29.085,3.015 L28.825,2.365 L29.220,3.352 L28.856,4.268 L29.342,4.315 L29.818,2.316 L27.825,1.585 L27.676,1.567 L28.986,1.372 L30.072,1.471 L30.379,3.230 L31.485,2.103 L31.870,1.138 L32.534,1.112 L32.305,1.376 L32.879,2.161 L33.180,2.339 L32.879,2.161 L33.180,2.339 L32.879,2.161 L33.180,2.339 M39.428,1.185 L39.774,1.793 L39.428,1.185 L39.774,1.793 L39.428,1.185 L39.965,2.129 L40.184,2.334 L39.443,2.140 L38.916,1.253 L39.274,1.855 L38.916,1.253 L39.274,1.855 L38.916,1.253 M33.278,18.702 L33.155,19.391 L33.278,18.702 L33.155,19.391 L33.278,18.702 L33.086,19.777 L34.218,20.800 L33.699,20.331 L34.218,20.800 L33.699,20.331 L34.218,20.800 M28.323,20.956 L28.989,20.739 L28.323,20.956 L28.989,20.739 L28.323,20.956 L30.311,20.306 L32.282,19.530 L32.386,19.422 M25.220,19.851 L25.910,19.967 L25.220,19.851 L25.910,19.967 L25.220,19.851 L26.286,20.030 L26.936,20.770 L28.416,20.365 L29.710,19.959 L29.042,20.169 L29.710,19.959 L29.042,20.169 L29.710,19.959 M25.071,19.114 L25.770,19.076 L25.071,19.114 L25.770,19.076 L25.071,19.114 L26.151,19.055 L27.181,20.312 L28.209,20.017 L30.226,19.637 L31.510,19.715 L32.109,18.618 L31.028,18.609 L28.936,18.062 L28.175,18.508 L30.297,17.771 L32.396,17.958 L33.019,17.262 L32.552,17.784 L33.019,17.262 L32.552,17.784 L33.019,17.262 M25.197,17.197 L25.892,17.286 L25.197,17.197 L25.892,17.286 L25.197,17.197 L26.270,17.334 L27.310,19.011 M30.634,16.965 L32.340,16.027 L32.289,15.434 L31.311,14.690 L30.964,15.693 L30.408,16.022 L28.692,15.115 L29.594,13.135 L29.706,12.545 L29.573,11.070 L28.796,11.849 L27.607,13.675 L27.432,15.856 L27.447,16.305 L27.827,14.649 L28.674,12.627 L28.803,12.414 L29.774,10.499 L28.817,11.041 L26.943,12.162 L26.479,14.218 L26.840,15.309 L26.620,14.644 L26.840,15.309 L26.620,14.644 L26.840,15.309 M33.678,13.467 L32.989,13.344 L33.678,13.467 L32.989,13.344 L33.678,13.467 L31.999,13.167 L32.689,13.290 L31.999,13.167 L32.689,13.290 L31.999,13.167 M25.114,16.359 L25.792,16.536 L25.114,16.359 L25.792,16.536 L25.114,16.359 L26.169,16.635 L26.893,17.310 L26.173,16.253 L25.213,15.838 L25.206,15.374 L25.823,15.705 L26.014,15.367 L24.993,14.410 M27.039,11.571 L26.297,12.365 L26.068,13.330 L25.728,13.092 L26.740,11.262 L28.318,10.805 L28.831,10.005 L27.742,9.863 L25.672,10.146 L25.053,11.591 L25.038,10.257 L26.516,8.884 L28.617,9.502 L30.484,9.365 L30.278,9.081 L29.184,9.100 L27.151,8.279 L25.931,8.232 M29.906,7.960 L30.952,7.896 L30.254,7.939 L30.952,7.896 L30.254,7.939 L30.952,7.896 M44.339,17.337 L43.681,17.098 L44.339,17.337 L43.681,17.098 L44.339,17.337 L43.352,16.979 L42.395,14.650 L42.308,12.728 L40.899,10.574 L41.764,11.247 L43.872,11.787 L44.768,11.716 L44.070,11.771 L44.768,11.716 L44.070,11.771 L44.768,11.716 M40.675,10.034 L40.265,9.466 L40.675,10.034 L40.265,9.466 L40.675,10.034 L40.060,9.183 L40.264,8.717 L41.246,9.201 L43.387,8.940 L44.934,8.563 L44.254,8.729 L44.934,8.563 L44.254,8.729 L44.934,8.563 M43.223,14.963 L43.466,14.306 L43.223,14.963 L43.466,14.306 L43.223,14.963 L43.896,13.144 L42.905,12.322 L40.998,10.225 L41.938,10.784 L44.079,10.676 L44.880,10.266 L44.256,10.585 L44.880,10.266 L44.256,10.585 L44.880,10.266 M44.165,15.692 L44.860,15.772 L44.165,15.692 L44.860,15.772 L44.165,15.692 L44.860,15.772 L43.991,12.677 L44.667,13.510 L44.168,14.680 L44.443,14.036 L44.168,14.680 L44.443,14.036 L44.168,14.680 M44.065,8.346 L43.395,8.548 L44.065,8.346 L43.395,8.548 L44.065,8.346 L42.058,8.953 L40.024,7.647 L41.026,7.256 L41.242,7.047 L41.026,7.256 L41.242,7.047 L41.026,7.256 L41.242,7.047 M30.989,8.978 L31.321,8.868 L30.989,8.978 L31.321,8.868 L30.989,8.978 L31.321,8.868 L30.989,8.978 L31.321,8.868 L30.989,8.978 L31.321,8.868 M25.016,1.957 L25.451,2.505 L25.016,1.957 L25.451,2.505 L25.016,1.957 L25.693,2.810 L25.457,4.931 L25.043,6.110 L25.988,4.593 L26.136,2.528 L25.468,1.862 L26.381,2.174 L26.927,3.105 L26.143,4.917 L28.372,3.712 L28.209,2.702 L25.935,1.186 L27.030,1.293 L27.330,1.296 L27.030,1.293 L27.330,1.296 L27.030,1.293 L27.330,1.296 M33.896,6.030 L34.131,6.289 L33.896,6.030 L34.131,6.289 L33.896,6.030 L34.131,6.289 L33.896,6.030 L34.131,6.289 L33.896,6.030 L34.131,6.289 M29.208,2.307 L29.539,2.914 L29.208,2.307 L29.539,2.914 L29.208,2.307 L29.539,2.914 L28.042,3.300 L27.968,2.958 L27.722,1.216 L28.404,1.063 L27.722,1.216 L28.404,1.063 L27.722,1.216 L28.404,1.063 M36.435,6.783 L36.758,6.649 L36.435,6.783 L36.758,6.649 L36.435,6.783 L36.758,6.649 L36.435,6.783 L36.758,6.649 L36.435,6.783 L36.758,6.649 M44.816,2.888 L44.379,2.341 L44.816,2.888 L44.379,2.341 L44.816,2.888 L44.132,2.031 L43.654,1.152 L43.989,1.767 L43.654,1.152 L43.989,1.767 L43.654,1.152 M40.773,5.817 L40.489,6.456 L40.773,5.817 L40.489,6.456 L40.773,5.817 L40.489,6.456 L40.773,5.817 L40.489,6.456 L40.773,5.817 L40.489,6.456 M43.683,3.294 L43.135,3.697 L43.683,3.294 L43.135,3.697 L43.683,3.294 L43.135,3.697 L42.273,3.698 L43.195,2.347 L43.752,2.564 L43.444,2.004 L42.461,1.542 L41.444,2.573 L41.084,2.102 L42.560,1.155 L41.971,1.533 L42.560,1.155 L41.971,1.533 L42.560,1.155 M30.931,1.096 L31.231,1.708 L30.931,1.096 L31.231,1.708 L30.931,1.096 L31.231,1.708 L30.931,1.096 L31.231,1.708 L30.931,1.096 L31.231,1.708 M32.505,20.736 L32.615,20.045 L32.505,20.736 L32.615,20.045 L32.505,20.736 L32.668,19.707 L30.994,20.675 L29.924,20.924 L29.632,20.993 L31.839,20.731 L32.199,20.131 L31.839,20.731 L32.199,20.131 L31.839,20.731 L32.199,20.131 M24.992,20.409 L25.668,20.590 L24.992,20.409 L25.668,20.590 L24.992,20.409 L26.045,20.691 L26.294,20.860 L28.906,20.866 L29.223,20.717 L28.906,20.866 L29.223,20.717 L28.906,20.866 L29.223,20.717 M25.302,18.116 L25.999,18.174 L25.302,18.116 L25.999,18.174 L25.302,18.116 L26.373,18.206 L26.864,18.624 M26.960,14.715 L27.326,12.609 L28.265,11.719 L27.757,12.201 L28.265,11.719 L27.757,12.201 L28.265,11.719 M25.092,16.809 L25.789,16.838 L25.092,16.809 L25.789,16.838 L25.092,16.809 L25.789,16.838 L25.092,16.809 L25.789,16.838 L25.092,16.809 L25.789,16.838 M30.523,7.241 L30.872,7.210 L30.523,7.241 L30.872,7.210 L30.523,7.241 L30.872,7.210 L30.523,7.241 L30.872,7.210 L30.523,7.241 L30.872,7.210 M42.973,11.351 L43.669,11.281 L42.973,11.351 L43.669,11.281 L42.973,11.351 L44.062,11.242 L44.989,10.871 L44.862,12.409 L43.841,12.164 L41.407,10.092 L42.464,10.362 L44.538,9.706 L44.718,9.619 L44.887,9.011 L42.815,9.742 L41.204,9.576 L42.193,8.574 L43.222,8.184 L44.199,7.995 L43.512,8.128 L44.199,7.995 L43.512,8.128 L44.199,7.995 M25.012,4.964 L25.027,4.265 L25.012,4.964 L25.027,4.265 L25.012,4.964 L25.042,3.570 L25.027,4.270 L25.042,3.570 L25.027,4.270 L25.042,3.570 M44.942,2.401 L44.706,1.742 L44.942,2.401 L44.706,1.742 L44.942,2.401 L44.573,1.369 L44.505,1.077 L43.720,4.200 L43.953,3.939 L43.720,4.200 L43.953,3.939 L43.720,4.200 L43.953,3.939 M25.296,17.559 L25.645,17.523 L25.296,17.559 L25.645,17.523 L25.296,17.559 L25.645,17.523 L25.296,17.559 L25.645,17.523 L25.296,17.559 L25.645,17.523"/>
  <path fill="none" stroke="#d9a441" stroke-width="0.4" stroke-linecap="round" stroke-linejoin="round" d="M58.991,20.894 L58.991,20.194 L58.991,20.894 L58.991,20.194 L58.991,20.894 L58.991,18.694 L58.991,16.494 L58.991,14.294 L58.991,12.094 L58.991,9.894 L58.991,7.694 L58.991,5.494 L58.991,3.294 L58.991,1.094 L59.441,1.206 L59.441,2.306 L59.441,4.506 L59.441,6.706 L59.441,8.906 L59.441,11.106 L59.441,13.306 L59.441,15.506 L59.441,17.706 L59.441,19.906 L59.441,20.894 L58.541,20.894 L58.541,18.694 L58.541,16.494 L58.541,14.294 L58.541,12.094 L58.541,9.894 L58.541,7.694 L58.541,5.494 L58.541,3.294 L58.541,1.150 L59.910,1.150 L59.910,2.250 L59.910,4.450 L59.910,6.650 L59.910,8.850 L59.910,11.050 L59.910,13.250 L59.910,15.450 L59.910,17.650 L59.910,19.850 L59.910,20.894 L58.054,20.894 L58.054,18.694 L58.054,16.494 L58.054,14.294 L58.054,12.094 L58.054,9.894 L58.054,7.694 L58.054,5.494 L58.054,3.294 L58.054,1.206 L60.416,1.047 L60.416,2.147 L60.416,4.347 L60.416,6.547 L60.416,8.747 L60.416,10.947 L60.416,13.147 L60.416,15.347 L60.416,17.547 L60.416,19.747 L60.416,20.894 L57.529,20.894 L57.529,18.694 L57.529,16.494 L57.529,14.294 L57.529,12.094 L57.529,9.894 L57.529,7.694 L57.529,5.494 L57.529,3.294 L57.529,1.206 M60.960,1.131 L60.960,2.231 L60.960,4.431 L60.960,6.631 L60.960,8.831 L60.960,11.031 L60.960,13.231 L60.960,15.431 L60.960,17.631 L60.960,19.831 L60.960,20.894 M56.966,20.894 L56.966,18.694 L56.966,16.494 L56.966,14.294 L56.966,12.094 L56.966,9.894 L56.966,7.694 L56.966,5.494 L56.966,3.294 L56.966,1.094 L56.966,1.794 L56.966,1.094 L56.966,1.794 L56.966,1.094 M61.541,1.094 L61.541,1.794 L61.541,1.094 L61.541,1.794 L61.541,1.094 L61.541,2.194 L61.541,4.394 L61.541,6.594 L61.541,8.794 L61.541,10.994 L61.541,13.194 L61.541,15.394 L61.541,17.594 L61.541,19.794 L61.541,20.894 L61.541,20.194 L61.541,20.894 L61.541,20.194 L61.541,20.894 M56.366,20.894 L56.366,20.194 L56.366,20.894 L56.366,20.194 L56.366,20.894 L56.366,18.694 L56.366,16.494 L56.366,14.294 L56.366,12.094 L56.366,9.894 L56.366,7.694 L56.366,5.494 L56.366,3.294 L56.366,1.131 L56.366,1.831 L56.366,1.131 L56.366,1.831 L56.366,1.131 M62.160,1.206 L62.160,1.906 L62.160,1.206 L62.160,1.906 L62.160,1.206 L62.160,2.306 L62.160,4.506 L62.160,6.706 L62.160,8.906 L62.160,11.106 L62.160,13.306 L62.160,15.506 L62.160,17.706 L62.160,19.906 L62.160,20.894 L62.160,20.194 L62.160,20.894 L62.160,20.194 L62.160,20.894 M55.729,20.894 L55.729,20.194 L55.729,20.894 L55.729,20.194 L55.729,20.894 L55.729,18.694 L55.729,16.494 L55.729,14.294 L55.729,12.094 L55.729,9.894 L55.729,7.694 L55.729,5.494 L55.729,3.294 L55.729,1.319 L55.729,2.019 L55.729,1.319 L55.729,2.019 L55.729,1.319 M62.816,1.122 L62.816,1.822 L62.816,1.122 L62.816,1.822 L62.816,1.122 L62.816,2.222 L62.816,4.422 L62.816,6.622 L62.816,8.822 L62.816,11.022 L62.816,13.222 L62.816,15.422 L62.816,17.622 L62.816,19.822 L62.816,20.894 L62.816,20.194 L62.816,20.894 L62.816,20.194 L62.816,20.894 M55.054,20.894 L55.054,20.194 L55.054,20.894 L55.054,20.194 L55.054,20.894 L55.054,18.694 L55.054,16.494 L55.054,14.294 L55.054,12.094 L55.054,9.894 L55.054,7.694 L55.054,5.494 L55.054,3.294 L55.054,1.300 L55.054,2.000 L55.054,1.300 L55.054,2.000 L55.054,1.300 M63.510,1.150 L63.510,1.850 L63.510,1.150 L63.510,1.850 L63.510,1.150 L63.510,2.250 L63.510,4.450 L63.510,6.650 L63.510,8.850 L63.510,11.050 L63.510,13.250 L63.510,15.450 L63.510,17.650 L63.510,19.850 L63.510,20.894 L63.510,20.194 L63.510,20.894 L63.510,20.194 L63.510,20.894 M54.341,20.894 L54.341,20.194 L54.341,20.894 L54.341,20.194 L54.341,20.894 L54.341,18.694 L54.341,16.494 L54.341,14.294 L54.341,12.094 L54.341,9.894 L54.341,7.694 L54.341,5.494 L54.341,3.294 L54.341,1.094 L54.341,1.019 M64.241,1.291 L64.241,1.991 L64.241,1.291 L64.241,1.991 L64.241,1.291 L64.241,2.391 L64.241,4.591 L64.241,6.791 L64.241,8.991 L64.241,11.191 L64.241,13.391 L64.241,15.591 L64.241,17.791 L64.241,19.991 L64.241,20.894 L64.241,20.194 L64.241,20.894 L64.241,20.194 L64.241,20.894 M53.591,20.894 L53.591,20.194 L53.591,20.894 L53.591,20.194 L53.591,20.894 L53.591,18.694 L53.591,16.494 L53.591,14.294 L53.591,12.094 L53.591,9.894 L53.591,7.694 L53.591,5.494 L53.591,3.294 L53.591,1.206 L53.591,1.906 L53.591,1.206 L53.591,1.906 L53.591,1.206 M65.010,1.141 L65.010,1.841 L65.010,1.141 L65.010,1.841 L65.010,1.141 L65.010,2.241 L65.010,4.441 L65.010,6.641 L65.010,8.841 L65.010,11.041 L65.010,13.241 L65.010,15.441 L65.010,17.641 L65.010,19.841 L65.010,20.894 L65.010,20.194 L65.010,20.894 L65.010,20.194 L65.010,20.894 M52.804,20.894 L52.804,20.194 L52.804,20.894 L52.804,20.194 L52.804,20.894 L52.804,18.694 L52.804,16.494 L52.804,14.294 L52.804,12.094 L52.804,9.894 L52.804,7.694 L52.804,5.494 L52.804,3.294 L52.804,1.094 L52.804,1.794 L52.804,1.094 L52.804,1.794 L52.804,1.094 M65.816,1.066 L65.816,1.766 L65.816,1.066 L65.816,1.766 L65.816,1.066 L65.816,2.166 L65.816,4.366 L65.816,6.566 L65.816,8.766 L65.816,10.966 L65.816,13.166 L65.816,15.366 L65.816,17.566 L65.816,19.766 L65.816,20.894 L65.816,20.194 L65.816,20.894 L65.816,20.194 L65.816,20.894 M51.979,20.894 L51.979,20.194 L51.979,20.894 L51.979,20.194 L51.979,20.894 L51.979,18.694 L51.979,16.494 L51.979,14.294 L51.979,12.094 L51.979,9.894 L51.979,7.694 L51.979,5.494 L51.979,3.294 L51.979,1.094 L51.979,1.056 M66.660,1.066 L66.660,1.766 L66.660,1.066 L66.660,1.766 L66.660,1.066 L66.660,2.166 L66.660,4.366 L66.660,6.566 L66.660,8.766 L66.660,10.966 L66.660,13.166 L66.660,15.366 L66.660,17.566 L66.660,19.766 L66.660,20.894 L66.660,20.194 L66.660,20.894 L66.660,20.194 L66.660,20.894 M51.116,20.894 L51.116,20.194 L51.116,20.894 L51.116,20.194 L51.116,20.894 L51.116,18.694 L51.116,16.494 L51.116,14.294 L51.116,12.094 L51.116,9.894 L51.116,7.694 L51.116,5.494 L51.116,3.294 L51.116,1.094 L51.116,1.794 L51.116,1.094 L51.116,1.794 L51.116,1.094 M67.541,1.141 L67.541,1.841 L67.541,1.141 L67.541,1.841 L67.541,1.141 L67.541,2.241 L67.541,4.441 L67.541,6.641 L67.541,8.841 L67.541,11.041 L67.541,13.241 L67.541,15.441 L67.541,17.641 L67.541,19.841 L67.541,20.894 L67.541,20.194 L67.541,20.894 L67.541,20.194 L67.541,20.894 M50.216,20.894 L50.216,20.194 L50.216,20.894 L50.216,20.194 L50.216,20.894 L50.216,18.694 L50.216,16.494 L50.216,14.294 L50.216,12.094 L50.216,9.894 L50.216,7.694 L50.216,5.494 L50.216,3.294 L50.216,1.206 L50.216,1.906 L50.216,1.206 L50.216,1.906 L50.216,1.206 M68.460,1.291 L68.460,1.991 L68.460,1.291 L68.460,1.991 L68.460,1.291 L68.460,2.391 L68.460,4.591 L68.460,6.791 L68.460,8.991 L68.460,11.191 L68.460,13.391 L68.460,15.591 L68.460,17.791 L68.460,19.991 L68.460,20.894 L68.460,20.194 L68.460,20.894 L68.460,20.194 L68.460,20.894 M49.279,20.894 L49.279,20.194 L49.279,20.894 L49.279,20.194 L49.279,20.894 L49.279,18.694 L49.279,16.494 L49.279,14.294 L49.279,12.094 L49.279,9.894 L49.279,7.694 L49.279,5.494 L49.279,3.294 L49.279,1.394 L49.279,2.094 L49.279,1.394 L49.279,2.094 L49.279,1.394"/>
  <path fill="none" stroke="#31604f" stroke-width="0.4" stroke-linecap="round" stroke-linejoin="round" d="M12.991,27.244 L13.691,27.244 L12.991,27.244 L13.691,27.244 L12.991,27.244 L15.191,27.244 L17.391,27.244 L19.591,27.244 L21.791,27.244 L23.991,27.244 L26.191,27.244 L28.391,27.244 L30.591,27.244 L31.791,27.244 L32.991,27.244 L32.991,27.744 L32.058,27.744 L29.858,27.744 L27.658,27.744 L25.458,27.744 L23.258,27.744 L21.058,27.744 L18.858,27.744 L16.658,27.744 L14.458,27.744 L12.991,27.744 L12.991,28.244 L13.725,28.244 L15.925,28.244 L18.125,28.244 L20.325,28.244 L22.525,28.244 L24.725,28.244 L26.925,28.244 L29.125,28.244 L31.325,28.244 L32.991,28.244 L32.991,28.744 L31.791,28.744 L30.591,28.744 L28.391,28.744 L26.191,28.744 L23.991,28.744 L21.791,28.744 L19.591,28.744 L17.391,28.744 L15.191,28.744 L12.991,28.744 L12.991,29.244 L14.458,29.244 L16.658,29.244 L18.858,29.244 L21.058,29.244 L23.258,29.244 L25.458,29.244 L27.658,29.244 L29.858,29.244 L32.058,29.244 L32.991,29.244 L32.991,29.744 L31.325,29.744 L29.125,29.744 L26.925,29.744 L24.725,29.744 L22.525,29.744 L20.325,29.744 L18.125,29.744 L15.925,29.744 L13.725,29.744 L12.991,29.744 L12.991,30.244 L15.191,30.244 L17.391,30.244 L19.591,30.244 L21.791,30.244 L23.991,30.244 L26.191,30.244 L28.391,30.244 L30.591,30.244 L31.791,30.244 L32.991,30.244 L32.991,30.744 L32.058,30.744 L29.858,30.744 L27.658,30.744 L25.458,30.744 L23.258,30.744 L21.058,30.744 L18.858,30.744 L16.658,30.744 L14.458,30.744 L12.991,30.744 L12.991,31.244 L13.725,31.244 L15.925,31.244 L18.125,31.244 L20.325,31.244 L22.525,31.244 L24.725,31.244 L26.925,31.244 L29.125,31.244 L31.325,31.244 L32.991,31.244 L32.991,31.744 L31.791,31.744 L30.591,31.744 L28.391,31.744 L26.191,31.744 L23.991,31.744 L21.791,31.744 L19.591,31.744 L17.391,31.744 L15.191,31.744 L12.991,31.744 L12.991,32.244 L14.458,32.244 L16.658,32.244 L18.858,32.244 L21.058,32.244 L23.258,32.244 L25.458,32.244 L27.658,32.244 L29.858,32.244 L32.058,32.244 L32.991,32.244 L32.991,32.744 L31.325,32.744 L29.125,32.744 L26.925,32.744 L24.725,32.744 L22.525,32.744 L20.325,32.744 L18.125,32.744 L15.925,32.744 L13.725,32.744 L12.991,32.744 L12.991,33.244 L15.191,33.244 L17.391,33.244 L19.591,33.244 L21.791,33.244 L23.991,33.244 L26.191,33.244 L28.391,33.244 L30.591,33.244 L31.791,33.244 L32.991,33.244 L32.991,33.744 L32.058,33.744 L29.858,33.744 L27.658,33.744 L25.458,33.744 L23.258,33.744 L21.058,33.744 L18.858,33.744 L16.658,33.744 L14.458,33.744 L12.991,33.744 L12.991,34.244 L13.725,34.244 L15.925,34.244 L18.125,34.244 L20.325,34.244 L22.525,34.244 L24.725,34.244 L26.925,34.244 L29.125,34.244 L31.325,34.244 L32.991,34.244 L32.991,34.744 L31.791,34.744 L30.591,34.744 L28.391,34.744 L26.191,34.744 L23.991,34.744 L21.791,34.744 L19.591,34.744 L17.391,34.744 L15.191,34.744 L12.991,34.744 L12.991,35.244 L14.458,35.244 L16.658,35.244 L18.858,35.244 L21.058,35.244 L23.258,35.244 L25.458,35.244 L27.658,35.244 L29.858,35.244 L32.058,35.244 L32.991,35.244 L32.991,35.744 L31.325,35.744 L29.125,35.744 L26.925,35.744 L24.725,35.744 L22.525,35.744 L20.325,35.744 L18.125,35.744 L15.925,35.744 L13.725,35.744 L12.991,35.744 L12.991,36.244 L15.191,36.244 L17.391,36.244 L19.591,36.244 L21.791,36.244 L23.991,36.244 L26.191,36.244 L28.391,36.244 L30.591,36.244 L31.791,36.244 L32.991,36.244 L32.991,36.744 L32.058,36.744 L29.858,36.744 L27.658,36.744 L25.458,36.744 L23.258,36.744 L21.058,36.744 L18.858,36.744 L16.658,36.744 L14.458,36.744 L12.991,36.744 L12.991,37.244 L13.725,37.244 L15.925,37.244 L18.125,37.244 L20.325,37.244 L22.525,37.244 L24.725,37.244 L26.925,37.244 L29.125,37.244 L31.325,37.244 L32.991,37.244 L32.991,37.744 L31.791,37.744 L30.591,37.744 L28.391,37.744 L26.191,37.744 L23.991,37.744 L21.791,37.744 L19.591,37.744 L17.391,37.744 L15.191,37.744 L12.991,37.744 L12.991,38.244 L14.458,38.244 L16.658,38.244 L18.858,38.244 L21.058,38.244 L23.258,38.244 L25.458,38.244 L27.658,38.244 L29.858,38.244 L32.058,38.244 L32.991,38.244 L32.991,38.744 L31.325,38.744 L29.125,38.744 L26.925,38.744 L24.725,38.744 L22.525,38.744 L20.325,38.744 L18.125,38.744 L15.925,38.744 L13.725,38.744 L12.991,38.744 L12.991,39.244 L15.191,39.244 L17.391,39.244 L19.591,39.244 L21.791,39.244 L23.991,39.244 L26.191,39.244 L28.391,39.244 L30.591,39.244 L31.791,39.244 L32.991,39.244 L32.991,39.744 L32.058,39.744 L29.858,39.744 L27.658,39.744 L25.458,39.744 L23.258,39.744 L21.058,39.744 L18.858,39.744 L16.658,39.744 L14.458,39.744 L12.991,39.744 L12.991,40.244 L13.725,40.244 L15.925,40.244 L18.125,40.244 L20.325,40.244 L22.525,40.244 L24.725,40.244 L26.925,40.244 L29.125,40.244 L31.325,40.244 L32.991,40.244 L32.991,40.744 L31.791,40.744 L30.591,40.744 L28.391,40.744 L26.191,40.744 L23.991,40.744 L21.791,40.744 L19.591,40.744 L17.391,40.744 L15.191,40.744 L12.991,40.744 L12.991,41.244 L14.458,41.244 L16.658,41.244 L18.858,41.244 L21.058,41.244 L23.258,41.244 L25.458,41.244 L27.658,41.244 L29.858,41.244 L32.058,41.244 L32.991,41.244 L32.991,41.744 L31.325,41.744 L29.125,41.744 L26.925,41.744 L24.725,41.744 L22.525,41.744 L20.325,41.744 L18.125,41.744 L15.925,41.744 L13.725,41.744 L12.991,41.744 L12.991,42.244 L15.191,42.244 L17.391,42.244 L19.591,42.244 L21.791,42.244 L23.991,42.244 L26.191,42.244 L28.391,42.244 L30.591,42.244 L31.791,42.244 L32.991,42.244 L32.991,42.744 L32.058,42.744 L29.858,42.744 L27.658,42.744 L25.458,42.744 L23.258,42.744 L21.058,42.744 L18.858,42.744 L16.658,42.744 L14.458,42.744 L12.991,42.744 L12.991,43.244 L13.725,43.244 L15.925,43.244 L18.125,43.244 L20.325,43.244 L22.525,43.244 L24.725,43.244 L26.925,43.244 L29.125,43.244 L31.325,43.244 L32.991,43.244 L32.991,43.744 L31.791,43.744 L30.591,43.744 L28.391,43.744 L26.191,43.744 L23.991,43.744 L21.791,43.744 L19.591,43.744 L17.391,43.744 L15.191,43.744 L12.991,43.744 L12.991,44.244 L14.458,44.244 L16.658,44.244 L18.858,44.244 L21.058,44.244 L23.258,44.244 L25.458,44.244 L27.658,44.244 L29.858,44.244 L32.058,44.244 L32.991,44.244 L32.991,44.744 L31.325,44.744 L29.125,44.744 L26.925,44.744 L24.725,44.744 L22.525,44.744 L20.325,44.744 L18.125,44.744 L15.925,44.744 L13.725,44.744 L12.991,44.744 L12.991,45.244 L15.191,45.244 L17.391,45.244 L19.591,45.244 L21.791,45.244 L23.991,45.244 L26.191,45.244 L28.391,45.244 L30.591,45.244 L31.791,45.244 L32.991,45.244 L32.991,45.744 L32.058,45.744 L29.858,45.744 L27.658,45.744 L25.458,45.744 L23.258,45.744 L21.058,45.744 L18.858,45.744 L16.658,45.744 L14.458,45.744 L12.991,45.744 L12.991,46.244 L13.725,46.244 L15.925,46.244 L18.125,46.244 L20.325,46.244 L22.525,46.244 L24.725,46.244 L26.925,46.244 L29.125,46.244 L31.325,46.244 L32.991,46.244 L32.991,46.744 L31.791,46.744 L30.591,46.744 L28.391,46.744 L26.191,46.744 L23.991,46.744 L21.791,46.744 L19.591,46.744 L17.391,46.744 L15.191,46.744 L12.991,46.744 L13.691,46.744 L12.991,46.744 L13.691,46.744 L12.991,46.744"/>
  <path fill="none" stroke="#8c4a6b" stroke-width="0.4" stroke-linecap="round" stroke-linejoin="round" d="M47.019,46.548 L47.332,45.922 L47.019,46.548 L47.332,45.922 L47.019,46.548 L47.987,44.614 L49.738,43.293 L51.497,41.986 L52.033,39.961 L50.520,38.469 L48.436,37.769 L46.636,36.577 L46.603,34.509 L48.386,33.291 L50.481,32.620 L52.283,31.400 L52.893,29.368 L51.739,27.529 L51.336,27.020 L51.739,27.529 L51.336,27.020 L51.739,27.529 L51.336,27.020 M56.639,42.659 L56.008,42.962 L56.639,42.659 L56.008,42.962 L56.639,42.659 L55.648,43.135 L53.572,43.856 L51.408,44.242 L49.321,44.894 L47.957,46.545 L47.901,46.728 L46.160,46.796 L46.454,44.636 L47.234,42.588 L46.449,40.628 L44.982,38.992 L44.016,37.028 L43.985,34.857 L45.147,33.026 L47.155,32.201 L49.344,31.988 L51.363,31.193 L52.163,29.253 L52.021,28.677 L52.163,29.253 L52.021,28.677 L52.163,29.253 L52.021,28.677 M46.873,40.404 L47.385,40.881 L46.873,40.404 L47.385,40.881 L46.873,40.404 L47.674,41.150 L47.699,43.218 L46.849,44.684 L47.569,44.245 L48.838,42.460 L48.242,40.538 L46.286,39.539 L45.405,38.893 L45.969,39.307 L45.405,38.893 L45.969,39.307 L45.405,38.893 M55.640,42.698 L54.980,42.931 L55.640,42.698 L54.980,42.931 L55.640,42.698 L54.603,43.065 L52.468,43.586 L50.309,44.002 L48.389,45.031 L47.446,46.903 L47.761,46.277 L47.446,46.903 L47.761,46.277 L47.446,46.903 M49.137,42.793 L49.201,42.096 L49.137,42.793 L49.201,42.096 L49.137,42.793 L49.322,40.769 L47.968,39.918 L48.409,39.677 L49.423,40.093 L50.072,41.988 L49.879,42.351 L49.934,43.591 L51.988,42.804 L53.988,41.888 L56.036,41.096 L56.962,40.841 L56.287,41.027 L56.962,40.841 L56.287,41.027 L56.962,40.841 M49.174,39.561 L49.793,39.889 L49.174,39.561 L49.793,39.889 L49.174,39.561 L50.139,40.073 L50.509,41.918 L51.850,42.446 L53.536,41.045 L55.198,39.622 L56.811,39.205 L56.134,39.380 L56.811,39.205 L56.134,39.380 L56.811,39.205 M50.293,39.766 L50.720,40.322 L50.293,39.766 L50.720,40.322 L50.293,39.766 L50.950,40.623 L50.975,41.467 L52.134,41.907 L53.223,40.026 L53.527,37.850 L54.090,35.734 L55.312,33.915 L56.813,32.752 L56.259,33.180 L56.813,32.752 L56.259,33.180 L56.813,32.752 M52.146,27.106 L52.763,27.437 L52.146,27.106 L52.763,27.437 L52.146,27.106 L53.115,27.626 L54.401,29.274 L53.747,31.339 L52.384,33.062 L51.090,34.822 L51.435,36.902 L52.600,38.760 L52.721,40.527 L51.311,41.354 L50.486,39.488 L48.390,38.876 L46.267,38.341 L44.762,36.798 L44.684,34.656 L46.104,33.039 L48.215,32.472 L50.375,32.075 L52.118,30.805 L52.442,29.322 L52.172,27.421 L53.053,28.079 L53.837,30.019 L52.870,31.965 L51.274,33.474 L49.994,35.209 L50.802,37.151 L52.291,38.758 L52.314,38.796 L52.373,40.909 L52.007,38.826 L50.296,37.464 L48.909,35.833 L49.787,33.948 L51.611,32.720 L53.105,31.128 L53.357,29.018 L52.928,28.347 L53.305,28.937 L52.928,28.347 L53.305,28.937 L52.928,28.347 M49.776,33.623 L49.215,34.043 L49.776,33.623 L49.215,34.043 L49.776,33.623 L48.898,34.280 L48.539,36.288 L49.927,37.511 L49.110,37.283 L47.876,35.575 L49.020,33.819 L49.280,33.663 M45.381,33.923 L44.878,34.892 L45.206,37.000 L46.941,38.281 L49.097,38.710 L51.098,39.550 L51.469,41.562 L51.254,41.923 L51.469,41.562 L51.254,41.923 L51.469,41.562 L51.254,41.923 M48.376,37.025 L48.109,36.378 L48.376,37.025 L48.109,36.378 L48.376,37.025 L47.587,35.115 L48.396,34.005 L49.346,32.543 L48.263,32.733 L46.204,33.458 L45.059,35.260 L45.752,37.269 L47.245,38.144 L47.447,36.281 L47.524,34.628 L46.637,33.484 L45.826,34.217 L45.526,36.302 L47.055,37.801 L49.176,38.368 L51.196,39.188 L51.668,39.712 L51.199,39.192 L51.668,39.712 L51.199,39.192 L51.668,39.712 M37.131,41.552 L37.806,41.368 L37.131,41.552 L37.806,41.368 L37.131,41.552 L39.238,40.976 L41.412,40.660 L43.059,39.320 L43.269,37.150 L43.454,34.967 L44.465,33.034 L46.319,31.919 L48.506,31.713 L50.638,31.249 L51.865,29.540 L51.249,27.461 L51.084,27.130 L50.749,27.133 L50.951,28.213 L50.117,30.132 L48.014,30.663 L45.823,30.818 L43.979,31.933 L42.896,33.840 L42.063,35.877 L40.778,37.617 L38.671,38.146 L37.123,38.210 L37.822,38.181 L37.123,38.210 L37.822,38.181 L37.123,38.210 M48.759,46.912 L49.202,46.371 L48.759,46.912 L49.202,46.371 L48.759,46.912 L50.108,45.266 L52.201,44.615 L54.319,44.026 L55.776,43.391 L55.134,43.671 L55.776,43.391 L55.134,43.671 L55.776,43.391 M51.373,45.136 L50.745,45.445 L51.373,45.136 L50.745,45.445 L51.373,45.136 L50.389,45.621 L49.427,46.897 L51.903,45.111 L52.802,44.818 L52.136,45.035 L52.802,44.818 L52.136,45.035 L52.802,44.818 M56.917,41.695 L56.262,41.940 L56.917,41.695 L56.262,41.940 L56.917,41.695 L55.887,42.079 L53.800,42.775 L51.673,43.337 L51.311,43.423 M50.791,46.902 L52.317,45.403 L54.326,44.505 L56.261,43.462 L56.954,43.015 L56.623,43.651 L55.736,44.302 L53.976,45.620 L53.057,46.884 L53.469,46.317 L53.057,46.884 L53.469,46.317 L53.057,46.884 M45.306,46.842 L45.194,46.151 L45.306,46.842 L45.194,46.151 L45.306,46.842 L44.954,44.681 L45.329,42.516 L45.075,40.357 L44.439,38.802 L45.659,40.921 L45.943,41.979 L45.595,44.139 L45.478,46.023 L46.864,45.641 L47.384,44.622 M46.190,41.330 L46.396,42.402 L45.919,44.388 L46.083,43.708 L45.919,44.388 L46.083,43.708 L45.919,44.388 M48.072,39.452 L47.406,39.236 L48.072,39.452 L47.406,39.236 L48.072,39.452 L45.991,38.777 L44.919,37.823 L43.705,37.713 L43.905,38.795 L43.634,40.938 L42.181,42.576 L41.413,44.529 L42.697,46.263 L43.388,46.873 L42.864,46.410 L43.388,46.873 L42.864,46.410 L43.388,46.873 M37.373,39.329 L38.072,39.293 L37.373,39.329 L38.072,39.293 L37.373,39.329 L39.569,39.214 L41.617,38.538 L42.570,36.602 L43.142,34.481 L44.226,32.579 L46.073,31.459 L48.262,31.284 L50.393,30.834 L51.413,29.609 L50.966,30.147 L51.413,29.609 L50.966,30.147 L51.413,29.609 M56.700,40.023 L56.018,40.183 L56.700,40.023 L56.018,40.183 L56.700,40.023 L55.630,40.274 L54.268,40.962 L53.676,40.111 L54.992,38.371 L56.708,37.729 L56.955,38.426 L55.874,38.621 L54.845,39.119 L54.094,38.528 L55.579,36.951 L56.851,36.369 L56.214,36.660 L56.851,36.369 L56.214,36.660 L56.851,36.369 M56.575,30.335 L55.974,30.695 L56.575,30.335 L55.974,30.695 L56.575,30.335 L55.636,30.898 L54.158,32.521 L52.961,34.362 L52.638,36.503 L52.994,38.216 L54.045,37.724 L55.347,35.974 L56.821,34.857 M56.559,31.478 L55.610,32.023 L54.151,33.658 L53.259,35.653 L53.153,36.445 L54.301,36.469 L55.674,34.759 L56.754,33.871 L56.587,32.085 L55.658,32.667 L54.249,34.343 L54.097,34.602 L52.303,37.247 L51.900,35.125 L52.933,33.205 L54.248,31.442 L55.373,29.554 L55.526,27.467 L55.014,27.004 L53.579,27.381 L54.506,27.950 L54.878,29.439 L54.708,28.760 L54.878,29.439 L54.708,28.760 L54.878,29.439 M49.420,35.825 L49.485,35.128 L49.420,35.825 L49.485,35.128 L49.420,35.825 L49.502,34.938 L46.754,35.494 L46.807,35.941 L46.754,35.494 L46.807,35.941 L46.754,35.494 L46.807,35.941 M37.019,42.309 L37.622,41.954 L37.019,42.309 L37.622,41.954 L37.019,42.309 L38.176,41.629 L38.767,40.576 L37.683,40.751 L37.019,40.972 L38.741,41.586 L39.620,41.394 L42.242,39.689 L41.265,40.177 L39.234,40.408 L40.340,41.409 L41.646,41.071 L43.224,39.974 L42.487,40.778 L42.282,40.920 L42.515,39.221 L42.742,38.833 L42.830,37.419 L42.623,38.293 L42.784,37.612 L42.623,38.293 L42.784,37.612 L42.623,38.293 M37.165,38.771 L37.864,38.735 L37.165,38.771 L37.864,38.735 L37.165,38.771 L39.361,38.657 L41.383,37.909 L41.971,37.108 L41.238,36.432 L40.404,37.138 L38.280,37.613 L37.081,37.650 L37.780,37.628 L37.081,37.650 L37.780,37.628 L37.081,37.650 M41.418,35.947 L41.765,35.339 L41.418,35.947 L41.765,35.339 L41.418,35.947 L41.863,35.165 L41.517,35.773 L41.863,35.165 L41.517,35.773 L41.863,35.165 M50.352,27.445 L50.178,28.123 L50.352,27.445 L50.178,28.123 L50.352,27.445 L50.080,28.501 L48.303,29.639 L46.109,29.770 L44.065,30.472 L42.917,32.321 L42.067,34.350 L42.047,34.396 M43.999,31.143 L45.952,30.231 L48.148,30.116 L50.115,29.278 L50.431,28.772 L50.115,29.278 L50.431,28.772 L50.115,29.278 L50.431,28.772 M50.682,45.975 L50.272,46.543 L50.682,45.975 L50.272,46.543 L50.682,45.975 L50.158,46.701 L51.604,46.761 L52.127,46.035 L53.397,45.536 L52.588,46.274 L52.243,46.879 L53.912,46.703 L54.368,45.930 L56.282,44.484 L55.503,45.261 L54.606,46.575 L55.001,45.997 L54.606,46.575 L55.001,45.997 L54.606,46.575 M44.617,46.729 L44.373,46.073 L44.617,46.729 L44.373,46.073 L44.617,46.729 L43.855,44.677 L44.251,42.539 L44.615,40.687 L44.311,43.906 L44.295,44.804 L44.091,46.803 L42.941,44.937 L43.228,42.832 L44.108,41.152 L41.830,41.574 L40.822,42.013 L39.046,43.253 L39.171,45.283 L41.018,46.437 L42.213,46.947 L42.560,45.175 L42.448,43.435 L42.171,41.932 L41.271,42.563 L40.326,44.419 L41.657,46.086 L41.949,46.279 L41.657,46.086 L41.949,46.279 L41.657,46.086 L41.949,46.279 M37.036,40.295 L37.728,40.193 L37.036,40.295 L37.728,40.193 L37.036,40.295 L38.811,40.034 L38.118,40.136 L38.811,40.034 L38.118,40.136 L38.811,40.034 M56.658,29.535 L56.092,29.946 L56.658,29.535 L56.092,29.946 L56.658,29.535 L55.771,30.179 L55.589,30.351 L55.998,29.397 L56.928,28.419 L56.512,27.411 L56.324,28.287 L56.471,27.602 L56.324,28.287 L56.471,27.602 L56.324,28.287 M40.942,46.923 L40.269,46.730 L40.942,46.923 L40.269,46.730 L40.942,46.923 L38.831,46.316 L37.300,44.828 L37.765,42.794 L39.008,41.981 L39.793,42.056 L38.825,42.571 L37.932,44.448 L38.807,45.794 L38.425,45.207 L38.807,45.794 L38.425,45.207 L38.807,45.794 M37.030,36.751 L37.727,36.690 L37.030,36.751 L37.727,36.690 L37.030,36.751 L39.216,36.559 L41.019,35.372 L41.571,34.540 L41.184,35.124 L41.571,34.540 L41.184,35.124 L41.571,34.540 M46.432,27.034 L45.734,27.095 L46.432,27.034 L45.734,27.095 L46.432,27.034 L45.336,27.130 L43.197,27.575 L41.941,29.269 L41.876,31.465 L41.429,33.605 L40.132,35.355 L38.094,36.099 L37.096,36.165 L37.795,36.119 L37.096,36.165 L37.795,36.119 L37.096,36.165 M42.174,32.839 L42.345,32.160 L42.174,32.839 L42.345,32.160 L42.174,32.839 L42.712,30.707 L44.048,29.048 L46.201,28.695 L48.374,28.436 L49.752,27.084 L49.569,28.436 L48.652,29.022 L46.478,29.279 L44.333,29.667 L43.396,30.475 L43.926,30.018 L43.396,30.475 L43.926,30.018 L43.396,30.475 M55.415,46.968 L55.736,46.346 L55.415,46.968 L55.736,46.346 L55.415,46.968 L56.413,45.032 L56.728,44.643 L56.904,45.134 L56.389,46.105 L56.158,46.765 L56.389,46.105 L56.158,46.765 L56.389,46.105 L56.158,46.765 M43.396,44.845 L43.408,44.145 L43.396,44.845 L43.408,44.145 L43.396,44.845 L43.419,43.510 L40.257,42.952 L39.746,43.905 L40.214,45.368 L40.001,44.701 L40.214,45.368 L40.001,44.701 L40.214,45.368 M56.208,31.005 L56.626,30.839 L56.208,31.005 L56.626,30.839 L56.208,31.005 L56.626,30.839 L56.208,31.005 L56.626,30.839 L56.208,31.005 L56.626,30.839 M37.073,46.413 L37.702,46.719 L37.073,46.413 L37.702,46.719 L37.073,46.413 L38.059,46.893 L38.296,46.973 L38.059,46.893 L38.296,46.973 L38.059,46.893 L38.296,46.973 M37.056,35.266 L37.718,35.040 L37.056,35.266 L37.718,35.040 L37.056,35.266 L39.121,34.562 L40.325,32.789 L39.851,30.708 L38.064,29.501 L37.433,29.348 L37.299,28.639 L38.372,28.868 L40.139,30.117 L40.861,32.154 L40.627,33.373 L41.336,32.272 L40.987,30.117 L40.054,28.127 L39.581,27.246 L39.912,27.863 L39.581,27.246 L39.912,27.863 L39.581,27.246 M49.068,27.364 L48.471,27.730 L49.068,27.364 L48.471,27.730 L49.068,27.364 L48.138,27.934 L45.965,28.194 L43.805,28.522 L42.631,29.693 L41.065,29.042 L41.017,27.255 L41.905,27.130 L41.450,28.121 L41.398,28.365 L41.450,28.121 L41.398,28.365 L41.450,28.121 L41.398,28.365 M40.948,44.830 L40.953,44.130 L40.948,44.830 L40.953,44.130 L40.948,44.830 L40.958,43.516 L40.952,44.216 L40.958,43.516 L40.952,44.216 L40.958,43.516 M37.044,30.172 L37.662,30.500 L37.044,30.172 L37.662,30.500 L37.044,30.172 L38.012,30.686 L38.916,32.569 L37.645,34.255 L37.333,34.414 L39.304,33.050 L39.148,31.312 L38.003,29.909 L38.954,30.451 L39.895,32.352 L39.584,33.496 L39.767,32.821 L39.584,33.496 L39.767,32.821 L39.584,33.496 M39.983,29.046 L39.428,28.619 L39.983,29.046 L39.428,28.619 L39.983,29.046 L38.253,27.716 L37.353,27.417 L38.018,27.638 L37.353,27.417 L38.018,27.638 L37.353,27.417 M47.791,27.080 L47.112,27.248 L47.791,27.080 L47.112,27.248 L47.791,27.080 L46.919,27.296 L47.598,27.128 L46.919,27.296 L47.598,27.128 L46.919,27.296 M37.325,33.570 L37.427,32.878 L37.325,33.570 L37.427,32.878 L37.325,33.570 L37.623,31.544 L36.995,30.840 L38.326,31.679 L38.403,32.756 L38.340,32.998 L40.135,34.239 L40.400,33.876 L40.135,34.239 L40.400,33.876 L40.135,34.239 L40.400,33.876"/>
</svg>
