<svg xmlns="http://www.w3.org/2000/svg" viewBox="0 -22.619 76.576 76.576" width="256" height="256">
  <title>cutbar</title>
  <rect x="0" y="-22.619" width="76.576" height="76.576" fill="#f5efe4"/>
  <path fill="none" stroke="#31604f" stroke-width="0.4" stroke-linecap="round" stroke-linejoin="round" d="M32.256,29.859 L32.446,29.185 L32.256,29.859 L32.446,29.185 L32.256,29.859 M32.256,29.859 L31.556,29.860 L32.256,29.859 L31.556,29.860 L32.256,29.859 M41.755,3.854 L41.516,3.196 L41.755,3.854 L41.516,3.196 L41.755,3.854 M1.393,23.942 L1.633,24.599 L1.393,23.942 L1.633,24.599 L1.393,23.942 M1.015,1.312 L1.673,1.072 L1.015,1.312 L1.673,1.072 L1.015,1.312 L1.872,1.000 L1.005,2.167 L2.171,1.742 L4.209,1.000 L6.545,1.000 L5.278,1.462 L4.011,1.923 L1.662,2.779 L1.000,3.021 L1.000,3.872 L2.251,3.416 L3.502,2.960 L5.851,2.104 L8.200,1.249 L8.882,1.000 L11.219,1.000 L10.040,1.430 L7.691,2.286 L5.342,3.141 L2.993,3.997 L1.000,4.723 L1.000,5.575 L2.484,5.034 L4.833,4.178 L7.182,3.323 L9.531,2.467 L11.880,1.611 L13.556,1.000 L15.893,1.000 L13.719,1.792 L11.370,2.648 L9.022,3.504 L6.673,4.359 L4.324,5.215 L1.975,6.071 L1.000,6.426 L1.000,7.278 L1.466,7.108 L3.815,6.252 L6.164,5.396 L8.512,4.541 L10.861,3.685 L13.210,2.829 L15.559,1.973 L17.908,1.117 L18.230,1.000 L20.566,1.000 L19.748,1.298 L17.399,2.154 L15.050,3.010 L12.701,3.866 L10.352,4.722 L8.003,5.577 L5.654,6.433 L3.305,7.289 L1.000,8.129 L1.000,8.981 L2.796,8.326 L5.145,7.470 L7.494,6.614 L9.843,5.759 L12.192,4.903 L14.541,4.047 L16.890,3.191 L19.239,2.335 L21.588,1.479 L22.903,1.000 L25.240,1.000 L23.428,1.660 L21.079,2.516 L18.730,3.372 L16.381,4.228 L14.032,5.084 L11.683,5.940 L9.334,6.796 L6.985,7.651 L4.636,8.507 L2.287,9.363 L1.000,9.832 L1.000,10.684 L1.778,10.400 L4.127,9.544 L6.476,8.688 L8.825,7.832 L11.174,6.977 L13.523,6.121 L15.872,5.265 L18.221,4.409 L20.570,3.553 L22.919,2.697 L25.268,1.841 L27.577,1.000 L29.914,1.000 L29.456,1.167 L27.107,2.023 L24.758,2.878 L22.409,3.734 L20.061,4.590 L17.712,5.446 L15.363,6.302 L13.014,7.158 L10.665,8.014 L8.316,8.869 L5.967,9.725 L3.618,10.581 L2.309,11.058 L1.000,11.535 L1.000,12.386 L3.109,11.618 L5.458,10.762 L7.807,9.906 L10.156,9.051 L12.505,8.195 L14.854,7.339 L17.203,6.483 L19.551,5.627 L21.900,4.771 L24.249,3.915 L26.598,3.059 L28.947,2.204 L31.296,1.348 L32.251,1.000 L34.587,1.000 L33.136,1.529 L30.787,2.385 L28.438,3.241 L26.089,4.096 L23.740,4.952 L21.391,5.808 L19.042,6.664 L16.693,7.520 L14.344,8.376 L11.996,9.232 L9.647,10.087 L7.298,10.943 L4.949,11.799 L2.600,12.655 L1.000,13.238 L1.000,14.089 L2.091,13.692 L4.440,12.836 L6.789,11.980 L9.138,11.124 L11.486,10.269 L13.835,9.413 L16.184,8.557 L18.533,7.701 L20.882,6.845 L23.231,5.989 L25.580,5.133 L27.929,4.277 L30.278,3.422 L32.627,2.566 L34.976,1.710 L36.924,1.000 L39.261,1.000 L38.038,1.445 L36.816,1.891 L34.467,2.747 L32.118,3.603 L29.769,4.459 L27.420,5.314 L25.071,6.170 L22.722,7.026 L20.373,7.882 L18.024,8.738 L15.675,9.594 L13.326,10.450 L10.977,11.305 L8.628,12.161 L6.279,13.017 L3.931,13.873 L1.582,14.729 L1.000,14.941 L1.000,15.792 L2.211,15.351 L3.421,14.910 L5.770,14.054 L8.119,13.198 L10.468,12.342 L12.817,11.487 L15.166,10.631 L17.515,9.775 L19.864,8.919 L22.213,8.063 L24.562,7.207 L26.911,6.351 L29.260,5.496 L31.609,4.640 L33.958,3.784 L36.307,2.928 L38.655,2.072 L41.004,1.216 L41.598,1.000 L42.475,1.532 L40.495,2.253 L38.146,3.109 L35.797,3.965 L33.448,4.821 L31.100,5.677 L28.751,6.532 L26.402,7.388 L24.053,8.244 L21.704,9.100 L19.355,9.956 L17.006,10.812 L14.657,11.668 L12.308,12.524 L9.959,13.379 L7.610,14.235 L5.261,15.091 L2.912,15.947 L1.000,16.644 L1.000,17.495 L2.403,16.984 L4.752,16.128 L7.101,15.272 L9.450,14.416 L11.799,13.560 L14.148,12.705 L16.497,11.849 L18.846,10.993 L21.195,10.137 L23.544,9.281 L25.893,8.425 L28.242,7.569 L30.590,6.714 L32.939,5.858 L35.288,5.002 L37.637,4.146 L39.986,3.290 L42.335,2.434 L42.925,2.219 L42.567,3.201 L41.826,3.471 L39.477,4.327 L37.128,5.183 L34.779,6.039 L32.430,6.895 L30.081,7.751 L27.732,8.606 L25.383,9.462 L23.035,10.318 L20.686,11.174 L18.337,12.030 L15.988,12.886 L13.639,13.742 L11.290,14.597 L8.941,15.453 L6.592,16.309 L4.243,17.165 L1.894,18.021 L1.000,18.347 L1.000,19.198 L1.385,19.058 L3.734,18.202 L6.083,17.346 L8.432,16.490 L10.781,15.634 L13.130,14.778 L15.479,13.923 L17.828,13.067 L20.177,12.211 L22.525,11.355 L24.874,10.499 L27.223,9.643 L29.572,8.787 L31.921,7.932 L34.270,7.076 L36.619,6.220 L38.968,5.364 L41.317,4.508 L42.209,4.183 L41.852,5.165 L40.808,5.545 L38.459,6.401 L36.110,7.257 L33.761,8.113 L31.412,8.969 L29.063,9.824 L26.714,10.680 L24.365,11.536 L22.016,12.392 L19.667,13.248 L17.318,14.104 L14.970,14.960 L12.621,15.815 L10.272,16.671 L7.923,17.527 L5.574,18.383 L3.225,19.239 L1.000,20.050 L1.000,20.901 L2.716,20.276 L5.065,19.420 L7.414,18.564 L9.763,17.708 L12.111,16.852 L14.460,15.997 L16.809,15.141 L19.158,14.285 L21.507,13.429 L23.856,12.573 L26.205,11.717 L28.554,10.861 L30.903,10.005 L33.252,9.150 L35.601,8.294 L37.950,7.438 L40.299,6.582 L41.494,6.147 L41.136,7.128 L39.790,7.619 L37.441,8.475 L35.092,9.331 L32.743,10.187 L30.394,11.042 L28.045,11.898 L25.696,12.754 L23.347,13.610 L20.998,14.466 L18.649,15.322 L16.300,16.178 L13.951,17.033 L11.602,17.889 L9.253,18.745 L6.905,19.601 L4.556,20.457 L2.207,21.313 L1.000,21.752 L1.000,22.604 L1.698,22.350 L4.046,21.494 L6.395,20.638 L8.744,19.782 L11.093,18.926 L13.442,18.070 L15.791,17.215 L18.140,16.359 L20.489,15.503 L22.838,14.647 L25.187,13.791 L27.536,12.935 L29.885,12.079 L32.234,11.224 L34.583,10.368 L36.932,9.512 L39.281,8.656 L40.779,8.110 L40.421,9.092 L38.771,9.693 L36.422,10.549 L34.074,11.405 L31.725,12.260 L29.376,13.116 L27.027,13.972 L24.678,14.828 L22.329,15.684 L19.980,16.540 L17.631,17.396 L15.282,18.252 L12.933,19.107 L10.584,19.963 L8.235,20.819 L5.886,21.675 L3.537,22.531 L2.269,22.993 L1.000,23.455 L1.000,24.307 L3.028,23.568 L5.377,22.712 L7.726,21.856 L10.075,21.000 L12.424,20.144 L14.773,19.288 L17.122,18.433 L19.471,17.577 L21.820,16.721 L24.169,15.865 L26.518,15.009 L28.867,14.153 L31.216,13.297 L33.564,12.442 L35.913,11.586 L38.262,10.730 L40.063,10.074 L39.705,11.055 L37.753,11.767 L35.404,12.623 L33.055,13.478 L30.706,14.334 L28.357,15.190 L26.009,16.046 L23.660,16.902 L21.311,17.758 L18.962,18.614 L16.613,19.470 L14.264,20.325 L11.915,21.181 L9.566,22.037 L7.217,22.893 L4.868,23.749 L2.519,24.605 L1.000,25.158 L1.000,26.010 L2.010,25.642 L4.359,24.786 L6.708,23.930 L9.057,23.074 L11.406,22.218 L13.755,21.362 L16.104,20.506 L18.453,19.651 L20.802,18.795 L23.150,17.939 L25.499,17.083 L27.848,16.227 L30.197,15.371 L32.546,14.515 L34.895,13.660 L37.244,12.804 L39.348,12.037 L38.990,13.019 L36.735,13.841 L34.386,14.697 L32.037,15.552 L29.688,16.408 L27.339,17.264 L24.990,18.120 L22.641,18.976 L20.292,19.832 L17.944,20.688 L15.595,21.543 L13.246,22.399 L10.897,23.255 L8.548,24.111 L6.199,24.967 L3.850,25.823 L1.501,26.679 L1.000,26.861 L1.000,27.713 L3.341,26.860 L5.690,26.004 L8.039,25.148 L10.388,24.292 L12.737,23.436 L15.085,22.580 L17.434,21.725 L19.783,20.869 L22.132,20.013 L24.481,19.157 L26.830,18.301 L29.179,17.445 L31.528,16.589 L33.877,15.733 L36.226,14.878 L37.429,14.439 L38.632,14.001 L38.275,14.983 L36.996,15.449 L35.717,15.915 L33.368,16.770 L31.019,17.626 L28.670,18.482 L26.321,19.338 L23.972,20.194 L21.623,21.050 L19.274,21.906 L16.925,22.761 L14.576,23.617 L12.227,24.473 L9.879,25.329 L7.530,26.185 L5.181,27.041 L2.832,27.897 L1.000,28.564 L1.000,29.415 L2.323,28.934 L4.672,28.078 L7.020,27.222 L9.369,26.366 L11.718,25.510 L14.067,24.654 L16.416,23.798 L18.765,22.943 L21.114,22.087 L23.463,21.231 L25.812,20.375 L28.161,19.519 L30.510,18.663 L32.859,17.807 L35.208,16.952 L37.557,16.096 L37.917,15.964 L37.559,16.946 L37.048,17.133 L34.699,17.988 L32.350,18.844 L30.001,19.700 L27.652,20.556 L25.303,21.412 L22.954,22.268 L20.605,23.124 L18.256,23.979 L15.907,24.835 L13.558,25.691 L11.209,26.547 L8.860,27.403 L6.511,28.259 L4.162,29.115 L1.813,29.971 L1.000,30.267 L3.145,30.337 L3.653,30.152 L6.002,29.296 L8.351,28.440 L10.700,27.584 L13.049,26.728 L15.398,25.872 L17.747,25.016 L20.096,24.161 L22.445,23.305 L24.794,22.449 L27.143,21.593 L29.492,20.737 L31.841,19.881 L34.189,19.025 L36.538,18.170 L37.202,17.928 L36.844,18.910 L36.029,19.206 L33.680,20.062 L31.331,20.918 L28.983,21.774 L26.634,22.630 L24.285,23.486 L21.936,24.342 L19.587,25.198 L17.238,26.053 L14.889,26.909 L12.540,27.765 L10.191,28.621 L7.842,29.477 L6.662,29.907 L5.482,30.337 L7.818,30.337 L9.682,29.658 L12.031,28.802 L14.380,27.946 L16.729,27.090 L19.078,26.234 L21.427,25.379 L23.776,24.523 L26.124,23.667 L28.473,22.811 L30.822,21.955 L33.171,21.099 L35.520,20.243 L36.486,19.891 L36.129,20.873 L35.011,21.280 L32.662,22.136 L30.313,22.992 L27.964,23.848 L25.615,24.704 L23.266,25.560 L20.918,26.416 L18.569,27.271 L16.220,28.127 L13.871,28.983 L11.522,29.839 L10.155,30.337 L12.492,30.337 L13.362,30.020 L15.711,29.164 L18.059,28.308 L20.408,27.453 L22.757,26.597 L25.106,25.741 L27.455,24.885 L29.804,24.029 L32.153,23.173 L34.502,22.317 L35.771,21.855 L35.413,22.837 L33.993,23.354 L31.644,24.210 L29.295,25.066 L26.946,25.922 L24.597,26.778 L22.248,27.634 L19.899,28.489 L17.550,29.345 L15.201,30.201 L14.829,30.337 L17.166,30.337 L19.390,29.526 L21.739,28.671 L24.088,27.815 L26.437,26.959 L28.786,26.103 L31.135,25.247 L33.484,24.391 L35.056,23.818 L34.698,24.800 L32.975,25.428 L30.626,26.284 L28.277,27.140 L25.928,27.996 L23.579,28.852 L21.230,29.707 L19.502,30.337 L21.839,30.337 L23.070,29.889 L25.419,29.033 L27.768,28.177 L30.117,27.321 L32.466,26.465 L34.340,25.782 L33.983,26.764 L31.957,27.502 L29.608,28.358 L27.259,29.214 L24.910,30.070 L24.176,30.337 L26.513,30.337 L27.806,29.866 L29.098,29.395 L31.447,28.539 L33.625,27.746 L33.267,28.727 L30.938,29.576 L28.850,30.337 L31.187,30.337 L32.910,29.709 L32.252,29.949 L32.910,29.709 L32.252,29.949 L32.910,29.709"/>
  <path fill="none" stroke="#8c4a6b" stroke-width="0.4" stroke-linecap="round" stroke-linejoin="round" d="M75.388,30.268 L75.034,29.915 L75.388,30.268 L75.034,29.915 L75.388,30.268 M46.655,1.632 L46.416,2.290 L46.655,1.632 L46.416,2.290 L46.655,1.632 M73.413,1.000 L74.071,1.240 L73.413,1.000 L74.071,1.240 L73.413,1.000 L75.276,1.679 L75.576,2.639 L74.097,2.100 L72.587,1.550 L71.076,1.000 L68.740,1.000 L70.064,1.483 L72.883,2.510 L75.576,3.491 L75.576,4.342 L74.488,3.946 L71.670,2.919 L68.851,1.892 L66.403,1.000 L64.066,1.000 L64.819,1.274 L67.638,2.301 L70.456,3.328 L73.275,4.355 L75.576,5.194 L75.576,6.045 L74.880,5.792 L72.062,4.765 L69.243,3.738 L66.424,2.711 L63.605,1.684 L61.729,1.000 L59.392,1.000 L60.892,1.546 L62.392,2.093 L65.211,3.120 L68.029,4.147 L70.848,5.174 L73.667,6.201 L75.576,6.897 L75.576,7.748 L75.272,7.637 L72.453,6.610 L69.635,5.583 L66.816,4.556 L63.997,3.529 L61.178,2.502 L58.360,1.475 L57.056,1.000 L54.719,1.000 L57.146,1.885 L59.965,2.912 L62.784,3.939 L65.602,4.966 L68.421,5.993 L71.240,7.020 L74.059,8.047 L75.576,8.600 L75.576,9.451 L72.845,8.456 L70.026,7.429 L67.208,6.402 L64.389,5.375 L61.570,4.348 L58.752,3.321 L55.933,2.294 L53.114,1.267 L52.382,1.000 L50.045,1.000 L51.901,1.676 L54.719,2.703 L57.538,3.730 L60.357,4.757 L63.176,5.784 L65.994,6.811 L68.813,7.838 L71.632,8.865 L74.450,9.892 L75.576,10.302 L75.576,11.154 L73.237,10.302 L70.418,9.275 L67.600,8.248 L64.781,7.221 L61.962,6.194 L59.143,5.167 L56.325,4.139 L53.506,3.112 L50.687,2.085 L49.198,1.543 L47.708,1.000 L45.371,1.000 L46.655,1.468 L49.474,2.495 L52.293,3.522 L55.111,4.549 L57.930,5.576 L60.749,6.603 L63.567,7.630 L66.386,8.657 L69.205,9.684 L72.024,10.711 L74.842,11.738 L75.576,12.005 L75.576,12.857 L73.629,12.147 L70.810,11.120 L67.991,10.093 L65.173,9.066 L62.354,8.039 L59.535,7.012 L56.717,5.985 L53.898,4.958 L51.079,3.931 L48.260,2.904 L45.442,1.877 L43.770,1.268 L43.483,2.015 L44.228,2.286 L47.047,3.313 L49.866,4.340 L52.684,5.367 L55.503,6.394 L58.322,7.422 L61.141,8.449 L63.959,9.476 L66.778,10.503 L69.597,11.530 L72.415,12.557 L75.234,13.584 L75.576,13.708 L75.576,14.560 L74.021,13.993 L71.202,12.966 L68.383,11.939 L65.564,10.912 L62.746,9.885 L59.927,8.858 L57.108,7.831 L54.290,6.804 L51.471,5.777 L48.652,4.750 L45.833,3.723 L43.202,2.764 L42.928,3.516 L44.620,4.132 L47.439,5.159 L50.257,6.186 L53.076,7.213 L55.895,8.240 L58.714,9.267 L61.532,10.294 L64.351,11.321 L67.170,12.348 L69.988,13.375 L72.807,14.402 L75.576,15.411 L75.576,16.263 L74.412,15.839 L71.594,14.812 L68.775,13.785 L65.956,12.758 L63.138,11.731 L60.319,10.704 L57.500,9.676 L54.681,8.649 L51.863,7.622 L49.044,6.595 L46.225,5.568 L43.407,4.541 L42.655,4.267 L42.381,5.019 L45.012,5.978 L47.831,7.005 L50.649,8.032 L53.468,9.059 L56.287,10.086 L59.105,11.113 L61.924,12.140 L64.743,13.167 L67.562,14.194 L70.380,15.221 L73.199,16.248 L75.576,17.114 L75.576,17.965 L74.804,17.684 L71.986,16.657 L69.167,15.630 L66.348,14.603 L63.529,13.576 L60.711,12.549 L57.892,11.522 L55.073,10.495 L52.255,9.468 L49.436,8.441 L46.617,7.414 L43.798,6.387 L42.107,5.771 L41.833,6.522 L42.585,6.796 L45.404,7.823 L48.222,8.850 L51.041,9.877 L53.860,10.904 L56.679,11.931 L59.497,12.959 L62.316,13.986 L65.135,15.013 L67.953,16.040 L70.772,17.067 L73.591,18.094 L75.576,18.817 L75.576,19.668 L75.196,19.530 L72.377,18.503 L69.559,17.476 L66.740,16.449 L63.921,15.422 L61.103,14.395 L58.284,13.368 L55.465,12.341 L52.646,11.314 L49.828,10.287 L47.009,9.260 L44.190,8.233 L41.559,7.274 L41.285,8.026 L42.977,8.642 L45.795,9.669 L48.614,10.696 L51.433,11.723 L54.252,12.750 L57.070,13.777 L59.889,14.804 L62.708,15.831 L65.527,16.858 L68.345,17.885 L71.164,18.912 L73.983,19.939 L75.576,20.520 L75.576,21.371 L72.769,20.349 L69.951,19.322 L67.132,18.295 L64.313,17.268 L61.494,16.241 L58.676,15.213 L55.857,14.186 L53.038,13.159 L50.219,12.132 L47.401,11.105 L44.582,10.078 L41.763,9.051 L41.012,8.777 L40.738,9.529 L43.369,10.488 L46.187,11.515 L49.006,12.542 L51.825,13.569 L54.643,14.596 L57.462,15.623 L60.281,16.650 L63.100,17.677 L65.918,18.704 L68.737,19.731 L71.556,20.758 L74.375,21.785 L75.576,22.223 L75.576,23.074 L73.161,22.194 L70.342,21.167 L67.524,20.140 L64.705,19.113 L61.886,18.086 L59.067,17.059 L56.249,16.032 L53.430,15.005 L50.611,13.978 L47.793,12.951 L44.974,11.924 L42.155,10.897 L40.464,10.281 L40.190,11.032 L40.942,11.306 L43.760,12.333 L46.579,13.360 L49.398,14.387 L52.217,15.414 L55.035,16.441 L57.854,17.468 L60.673,18.495 L63.491,19.523 L66.310,20.550 L69.129,21.577 L71.948,22.604 L74.766,23.631 L75.576,23.926 L75.576,24.777 L73.553,24.040 L70.734,23.013 L67.915,21.986 L65.097,20.959 L62.278,19.932 L59.459,18.905 L56.641,17.878 L53.822,16.851 L51.003,15.824 L48.184,14.797 L45.366,13.770 L42.547,12.743 L39.916,11.784 L39.642,12.536 L41.333,13.152 L44.152,14.179 L46.971,15.206 L49.790,16.233 L52.608,17.260 L55.427,18.287 L58.246,19.314 L61.065,20.341 L63.883,21.368 L66.702,22.395 L69.521,23.422 L72.339,24.449 L75.158,25.476 L75.576,25.629 L75.576,26.480 L73.945,25.886 L71.126,24.859 L68.307,23.832 L65.489,22.805 L62.670,21.778 L59.851,20.750 L57.032,19.723 L54.214,18.696 L51.395,17.669 L48.576,16.642 L45.757,15.615 L42.939,14.588 L40.120,13.561 L39.369,13.287 L39.095,14.039 L41.725,14.998 L44.544,16.025 L47.363,17.052 L50.181,18.079 L53.000,19.106 L55.819,20.133 L58.638,21.160 L61.456,22.187 L64.275,23.214 L67.094,24.241 L69.913,25.268 L72.731,26.295 L74.154,26.813 L75.576,27.331 L75.576,28.183 L74.337,27.731 L71.518,26.704 L68.699,25.677 L65.880,24.650 L63.062,23.623 L60.243,22.596 L57.424,21.569 L54.605,20.542 L51.787,19.515 L48.968,18.488 L46.149,17.461 L43.331,16.434 L40.512,15.407 L38.821,14.791 L38.547,15.542 L39.298,15.816 L42.117,16.843 L44.936,17.870 L47.755,18.897 L50.573,19.924 L53.392,20.951 L56.211,21.978 L59.029,23.005 L61.848,24.032 L64.667,25.060 L67.486,26.087 L70.304,27.114 L73.123,28.141 L75.576,29.034 L75.576,29.886 L74.728,29.577 L71.910,28.550 L69.091,27.523 L66.272,26.496 L63.453,25.469 L60.635,24.442 L57.816,23.415 L54.997,22.388 L52.179,21.361 L49.360,20.334 L46.541,19.307 L43.722,18.280 L40.904,17.253 L38.273,16.294 L37.999,17.046 L39.690,17.662 L42.509,18.689 L45.328,19.716 L48.146,20.743 L50.965,21.770 L53.784,22.797 L56.603,23.824 L59.421,24.851 L62.240,25.878 L65.059,26.905 L67.877,27.932 L70.696,28.959 L73.515,29.986 L74.477,30.337 L72.140,30.337 L69.483,29.369 L66.664,28.342 L63.845,27.314 L61.027,26.287 L58.208,25.260 L55.389,24.233 L52.570,23.206 L49.752,22.179 L46.933,21.152 L44.114,20.125 L41.295,19.098 L38.477,18.071 L37.725,17.797 L37.452,18.549 L40.082,19.508 L42.901,20.535 L45.719,21.562 L48.538,22.589 L51.357,23.616 L54.176,24.643 L56.994,25.670 L59.813,26.697 L62.632,27.724 L65.451,28.751 L68.269,29.778 L69.804,30.337 L67.467,30.337 L67.056,30.187 L64.237,29.160 L61.418,28.133 L58.600,27.106 L55.781,26.079 L52.962,25.052 L50.143,24.025 L47.325,22.998 L44.506,21.971 L41.687,20.944 L38.869,19.917 L37.178,19.301 L36.904,20.052 L37.655,20.326 L40.474,21.353 L43.293,22.380 L46.111,23.407 L48.930,24.434 L51.749,25.461 L54.567,26.488 L57.386,27.515 L60.205,28.542 L63.024,29.569 L65.130,30.337 L62.793,30.337 L61.810,29.979 L58.991,28.952 L56.173,27.925 L53.354,26.898 L50.535,25.871 L47.717,24.844 L44.898,23.817 L42.079,22.790 L39.260,21.763 L36.630,20.804 L36.356,21.556 L38.047,22.172 L40.866,23.199 L43.684,24.226 L46.503,25.253 L49.322,26.280 L52.141,27.307 L54.959,28.334 L57.778,29.361 L60.456,30.337 L58.119,30.337 L56.565,29.770 L53.746,28.743 L50.927,27.716 L48.108,26.689 L45.290,25.662 L42.471,24.635 L39.652,23.608 L36.834,22.581 L36.082,22.307 L35.809,23.059 L38.439,24.017 L41.258,25.045 L44.076,26.072 L46.895,27.099 L49.714,28.126 L52.532,29.153 L55.351,30.180 L55.783,30.337 L53.446,30.337 L51.319,29.562 L48.500,28.535 L45.682,27.508 L42.863,26.481 L40.044,25.454 L37.225,24.427 L35.535,23.811 L35.261,24.562 L36.012,24.836 L38.831,25.863 L41.649,26.890 L44.468,27.917 L47.287,28.944 L50.106,29.971 L51.109,30.337 L48.772,30.337 L46.073,29.354 L43.255,28.327 L40.436,27.300 L37.617,26.272 L34.987,25.314 L34.713,26.066 L36.404,26.682 L39.222,27.709 L42.041,28.736 L44.860,29.763 L46.435,30.337 L44.099,30.337 L43.646,30.172 L40.828,29.145 L38.009,28.118 L35.190,27.091 L34.439,26.817 L34.165,27.569 L36.796,28.527 L39.614,29.554 L41.762,30.337 L39.425,30.337 L38.401,29.964 L35.582,28.937 L33.892,28.321 L33.618,29.072 L34.369,29.346 L37.088,30.337 L34.751,30.337 L33.344,29.824 L34.002,30.064 L33.344,29.824 L34.002,30.064 L33.344,29.824"/>
</svg>
