<svg xmlns="http://www.w3.org/2000/svg" viewBox="0 -24 82 82" width="256" height="256">
  <title>distancebands</title>
  <rect x="0" y="-24" width="82" height="82" fill="#f5efe4"/>
  <path fill="none" stroke="#c8472f" stroke-width="0.4" stroke-linecap="round" stroke-linejoin="round" d="M39.800,17.000 L39.100,17.000 L39.800,17.000 L39.100,17.000 L39.800,17.000 L38.133,17.000 L36.467,17.000 L34.800,17.000 L33.133,17.000 L31.467,17.000 L29.800,17.000 L28.133,17.000 L26.467,17.000 L24.800,17.000 L23.133,17.000 L21.467,17.000 L19.800,17.000 L21.539,17.000 L23.278,17.000 L25.017,17.000 L26.757,17.000 L28.496,17.000 L30.235,17.000 L31.974,17.000 L33.713,17.000 L35.452,17.000 L37.191,17.000 L38.930,17.000 L40.670,17.000 L42.409,17.000 L44.148,17.000 L45.887,17.000 L47.626,17.000 L49.365,17.000 L51.104,17.000 L52.843,17.000 L54.583,17.000 L56.322,17.000 L58.061,17.000 L59.800,17.000 L59.100,17.000 L59.800,17.000 L59.100,17.000 L59.800,17.000"/>
  <path fill="none" stroke="#3a4e8c" stroke-width="0.4" stroke-linecap="round" stroke-linejoin="round" d="M17.000,17.000 L17.700,17.000 L17.000,17.000 L17.700,17.000 L17.000,17.000 L18.778,17.000 L20.556,17.000 L22.333,17.000 L24.111,17.000 L25.889,17.000 L27.667,17.000 L29.444,17.000 L31.222,17.000 L33.000,17.000 L34.778,17.000 L36.556,17.000 L38.333,17.000 L40.111,17.000 L41.889,17.000 L43.667,17.000 L45.444,17.000 L47.222,17.000 L49.000,17.000 L50.778,17.000 L52.556,17.000 L54.333,17.000 L56.111,17.000 L57.889,17.000 L59.667,17.000 L61.444,17.000 L63.222,17.000 L65.000,17.000 L64.300,17.000 L65.000,17.000 L64.300,17.000 L65.000,17.000 M13.800,21.000 L14.500,21.000 L13.800,21.000 L14.500,21.000 L13.800,21.000 L15.555,21.000 L17.310,21.000 L19.065,21.000 L20.819,21.000 L22.574,21.000 L24.329,21.000 L26.084,21.000 L27.839,21.000 L29.594,21.000 L31.348,21.000 L33.103,21.000 L34.858,21.000 L36.613,21.000 L38.368,21.000 L40.123,21.000 L41.877,21.000 L43.632,21.000 L45.387,21.000 L47.142,21.000 L48.897,21.000 L50.652,21.000 L52.406,21.000 L54.161,21.000 L55.916,21.000 L57.671,21.000 L59.426,21.000 L61.181,21.000 L62.935,21.000 L64.690,21.000 L66.445,21.000 L68.200,21.000 L67.500,21.000 L68.200,21.000 L67.500,21.000 L68.200,21.000 M12.200,17.000 L12.900,17.000 L12.200,17.000 L12.900,17.000 L12.200,17.000 L13.800,17.000 L15.400,17.000 L17.000,17.000 L16.300,17.000 L17.000,17.000 L16.300,17.000 L17.000,17.000 M65.000,17.000 L65.700,17.000 L65.000,17.000 L65.700,17.000 L65.000,17.000 L66.600,17.000 L68.200,17.000 L67.500,17.000 L68.200,17.000 L67.500,17.000 L68.200,17.000 M13.800,13.000 L14.500,13.000 L13.800,13.000 L14.500,13.000 L13.800,13.000 L15.555,13.000 L17.310,13.000 L19.065,13.000 L20.819,13.000 L22.574,13.000 L24.329,13.000 L26.084,13.000 L27.839,13.000 L29.594,13.000 L31.348,13.000 L33.103,13.000 L34.858,13.000 L36.613,13.000 L38.368,13.000 L40.123,13.000 L41.877,13.000 L43.632,13.000 L45.387,13.000 L47.142,13.000 L48.897,13.000 L50.652,13.000 L52.406,13.000 L54.161,13.000 L55.916,13.000 L57.671,13.000 L59.426,13.000 L61.181,13.000 L62.935,13.000 L64.690,13.000 L66.445,13.000 L68.200,13.000 L67.500,13.000 L68.200,13.000 L67.500,13.000 L68.200,13.000 M12.200,25.000 L12.900,25.000 L12.200,25.000 L12.900,25.000 L12.200,25.000 L13.945,25.000 L15.691,25.000 L17.436,25.000 L19.182,25.000 L20.927,25.000 L22.673,25.000 L24.418,25.000 L26.164,25.000 L27.909,25.000 L29.655,25.000 L31.400,25.000 L33.145,25.000 L34.891,25.000 L36.636,25.000 L38.382,25.000 L40.127,25.000 L41.873,25.000 L43.618,25.000 L45.364,25.000 L47.109,25.000 L48.855,25.000 L50.600,25.000 L52.345,25.000 L54.091,25.000 L55.836,25.000 L57.582,25.000 L59.327,25.000 L61.073,25.000 L62.818,25.000 L64.564,25.000 L66.309,25.000 L68.055,25.000 L69.800,25.000 L69.100,25.000 L69.800,25.000 L69.100,25.000 L69.800,25.000 M9.000,21.000 L9.700,21.000 L9.000,21.000 L9.700,21.000 L9.000,21.000 L10.600,21.000 L12.200,21.000 L13.800,21.000 L13.100,21.000 L13.800,21.000 L13.100,21.000 L13.800,21.000 M68.200,21.000 L68.900,21.000 L68.200,21.000 L68.900,21.000 L68.200,21.000 L69.800,21.000 L71.400,21.000 L70.700,21.000 L71.400,21.000 L70.700,21.000 L71.400,21.000 M9.000,17.000 L9.700,17.000 L9.000,17.000 L9.700,17.000 L9.000,17.000 L10.600,17.000 L12.200,17.000 L11.500,17.000 L12.200,17.000 L11.500,17.000 L12.200,17.000 M68.200,17.000 L68.900,17.000 L68.200,17.000 L68.900,17.000 L68.200,17.000 L69.800,17.000 L71.400,17.000 L73.000,17.000 L72.300,17.000 L73.000,17.000 L72.300,17.000 L73.000,17.000 M9.000,13.000 L9.700,13.000 L9.000,13.000 L9.700,13.000 L9.000,13.000 L10.600,13.000 L12.200,13.000 L13.800,13.000 L13.100,13.000 L13.800,13.000 L13.100,13.000 L13.800,13.000 M68.200,13.000 L68.900,13.000 L68.200,13.000 L68.900,13.000 L68.200,13.000 L69.800,13.000 L71.400,13.000 L70.700,13.000 L71.400,13.000 L70.700,13.000 L71.400,13.000 M12.200,9.000 L12.900,9.000 L12.200,9.000 L12.900,9.000 L12.200,9.000 L13.945,9.000 L15.691,9.000 L17.436,9.000 L19.182,9.000 L20.927,9.000 L22.673,9.000 L24.418,9.000 L26.164,9.000 L27.909,9.000 L29.655,9.000 L31.400,9.000 L33.145,9.000 L34.891,9.000 L36.636,9.000 L38.382,9.000 L40.127,9.000 L41.873,9.000 L43.618,9.000 L45.364,9.000 L47.109,9.000 L48.855,9.000 L50.600,9.000 L52.345,9.000 L54.091,9.000 L55.836,9.000 L57.582,9.000 L59.327,9.000 L61.073,9.000 L62.818,9.000 L64.564,9.000 L66.309,9.000 L68.055,9.000 L69.800,9.000 L69.100,9.000 L69.800,9.000 L69.100,9.000 L69.800,9.000 M10.600,29.000 L11.300,29.000 L10.600,29.000 L11.300,29.000 L10.600,29.000 L12.388,29.000 L14.176,29.000 L15.965,29.000 L17.753,29.000 L19.541,29.000 L21.329,29.000 L23.118,29.000 L24.906,29.000 L26.694,29.000 L28.482,29.000 L30.271,29.000 L32.059,29.000 L33.847,29.000 L35.635,29.000 L37.424,29.000 L39.212,29.000 L41.000,29.000 L42.788,29.000 L44.576,29.000 L46.365,29.000 L48.153,29.000 L49.941,29.000 L51.729,29.000 L53.518,29.000 L55.306,29.000 L57.094,29.000 L58.882,29.000 L60.671,29.000 L62.459,29.000 L64.247,29.000 L66.035,29.000 L67.824,29.000 L69.612,29.000 L71.400,29.000 L70.700,29.000 L71.400,29.000 L70.700,29.000 L71.400,29.000 M7.400,25.000 L8.100,25.000 L7.400,25.000 L8.100,25.000 L7.400,25.000 L9.000,25.000 L10.600,25.000 L12.200,25.000 L11.500,25.000 L12.200,25.000 L11.500,25.000 L12.200,25.000 M69.800,25.000 L70.500,25.000 L69.800,25.000 L70.500,25.000 L69.800,25.000 L71.400,25.000 L73.000,25.000 L74.600,25.000 L73.900,25.000 L74.600,25.000 L73.900,25.000 L74.600,25.000 M5.800,21.000 L6.500,21.000 L5.800,21.000 L6.500,21.000 L5.800,21.000 L7.400,21.000 L9.000,21.000 L8.300,21.000 L9.000,21.000 L8.300,21.000 L9.000,21.000 M71.400,21.000 L72.100,21.000 L71.400,21.000 L72.100,21.000 L71.400,21.000 L73.000,21.000 L74.600,21.000 L76.200,21.000 L75.500,21.000 L76.200,21.000 L75.500,21.000 L76.200,21.000 M4.200,17.000 L4.900,17.000 L4.200,17.000 L4.900,17.000 L4.200,17.000 L5.800,17.000 L7.400,17.000 L9.000,17.000 L8.300,17.000 L9.000,17.000 L8.300,17.000 L9.000,17.000 M73.000,17.000 L73.700,17.000 L73.000,17.000 L73.700,17.000 L73.000,17.000 L74.600,17.000 L76.200,17.000 L75.500,17.000 L76.200,17.000 L75.500,17.000 L76.200,17.000 M5.800,13.000 L6.500,13.000 L5.800,13.000 L6.500,13.000 L5.800,13.000 L7.400,13.000 L9.000,13.000 L8.300,13.000 L9.000,13.000 L8.300,13.000 L9.000,13.000 M71.400,13.000 L72.100,13.000 L71.400,13.000 L72.100,13.000 L71.400,13.000 L73.000,13.000 L74.600,13.000 L76.200,13.000 L75.500,13.000 L76.200,13.000 L75.500,13.000 L76.200,13.000 M7.400,9.000 L8.100,9.000 L7.400,9.000 L8.100,9.000 L7.400,9.000 L9.000,9.000 L10.600,9.000 L12.200,9.000 L11.500,9.000 L12.200,9.000 L11.500,9.000 L12.200,9.000 M69.800,9.000 L70.500,9.000 L69.800,9.000 L70.500,9.000 L69.800,9.000 L71.400,9.000 L73.000,9.000 L74.600,9.000 L73.900,9.000 L74.600,9.000 L73.900,9.000 L74.600,9.000 M10.600,5.000 L11.300,5.000 L10.600,5.000 L11.300,5.000 L10.600,5.000 L12.388,5.000 L14.176,5.000 L15.965,5.000 L17.753,5.000 L19.541,5.000 L21.329,5.000 L23.118,5.000 L24.906,5.000 L26.694,5.000 L28.482,5.000 L30.271,5.000 L32.059,5.000 L33.847,5.000 L35.635,5.000 L37.424,5.000 L39.212,5.000 L41.000,5.000 L42.788,5.000 L44.576,5.000 L46.365,5.000 L48.153,5.000 L49.941,5.000 L51.729,5.000 L53.518,5.000 L55.306,5.000 L57.094,5.000 L58.882,5.000 L60.671,5.000 L62.459,5.000 L64.247,5.000 L66.035,5.000 L67.824,5.000 L69.612,5.000 L71.400,5.000 L70.700,5.000 L71.400,5.000 L70.700,5.000 L71.400,5.000 M9.000,33.000 L9.700,33.000 L9.000,33.000 L9.700,33.000 L9.000,33.000 L10.778,33.000 L12.556,33.000 L14.333,33.000 L16.111,33.000 L17.889,33.000 L19.667,33.000 L21.444,33.000 L23.222,33.000 L25.000,33.000 L26.778,33.000 L28.556,33.000 L30.333,33.000 L32.111,33.000 L33.889,33.000 L35.667,33.000 L37.444,33.000 L39.222,33.000 L41.000,33.000 L42.778,33.000 L44.556,33.000 L46.333,33.000 L48.111,33.000 L49.889,33.000 L51.667,33.000 L53.444,33.000 L55.222,33.000 L57.000,33.000 L58.778,33.000 L60.556,33.000 L62.333,33.000 L64.111,33.000 L65.889,33.000 L67.667,33.000 L69.444,33.000 L71.222,33.000 L73.000,33.000 L72.300,33.000 L73.000,33.000 L72.300,33.000 L73.000,33.000 M4.200,29.000 L4.900,29.000 L4.200,29.000 L4.900,29.000 L4.200,29.000 L5.800,29.000 L7.400,29.000 L9.000,29.000 L10.600,29.000 L9.900,29.000 L10.600,29.000 L9.900,29.000 L10.600,29.000 M71.400,29.000 L72.100,29.000 L71.400,29.000 L72.100,29.000 L71.400,29.000 L73.000,29.000 L74.600,29.000 L76.200,29.000 L75.500,29.000 L76.200,29.000 L75.500,29.000 L76.200,29.000 M2.600,25.000 L3.300,25.000 L2.600,25.000 L3.300,25.000 L2.600,25.000 L4.200,25.000 L5.800,25.000 L7.400,25.000 L6.700,25.000 L7.400,25.000 L6.700,25.000 L7.400,25.000 M74.600,25.000 L75.300,25.000 L74.600,25.000 L75.300,25.000 L74.600,25.000 L76.200,25.000 L77.800,25.000 L79.400,25.000 L78.700,25.000 L79.400,25.000 L78.700,25.000 L79.400,25.000 M1.000,21.000 L1.700,21.000 L1.000,21.000 L1.700,21.000 L1.000,21.000 L2.600,21.000 L4.200,21.000 L5.800,21.000 L5.100,21.000 L5.800,21.000 L5.100,21.000 L5.800,21.000 M76.200,21.000 L76.900,21.000 L76.200,21.000 L76.900,21.000 L76.200,21.000 L77.800,21.000 L79.400,21.000 L78.700,21.000 L79.400,21.000 L78.700,21.000 L79.400,21.000 M1.000,17.000 L1.700,17.000 L1.000,17.000 L1.700,17.000 L1.000,17.000 L2.600,17.000 L4.200,17.000 L3.500,17.000 L4.200,17.000 L3.500,17.000 L4.200,17.000 M76.200,17.000 L76.900,17.000 L76.200,17.000 L76.900,17.000 L76.200,17.000 L77.800,17.000 L79.400,17.000 L81.000,17.000 L80.300,17.000 L81.000,17.000 L80.300,17.000 L81.000,17.000 M1.000,13.000 L1.700,13.000 L1.000,13.000 L1.700,13.000 L1.000,13.000 L2.600,13.000 L4.200,13.000 L5.800,13.000 L5.100,13.000 L5.800,13.000 L5.100,13.000 L5.800,13.000 M76.200,13.000 L76.900,13.000 L76.200,13.000 L76.900,13.000 L76.200,13.000 L77.800,13.000 L79.400,13.000 L78.700,13.000 L79.400,13.000 L78.700,13.000 L79.400,13.000 M2.600,9.000 L3.300,9.000 L2.600,9.000 L3.300,9.000 L2.600,9.000 L4.200,9.000 L5.800,9.000 L7.400,9.000 L6.700,9.000 L7.400,9.000 L6.700,9.000 L7.400,9.000 M74.600,9.000 L75.300,9.000 L74.600,9.000 L75.300,9.000 L74.600,9.000 L76.200,9.000 L77.800,9.000 L79.400,9.000 L78.700,9.000 L79.400,9.000 L78.700,9.000 L79.400,9.000 M4.200,5.000 L4.900,5.000 L4.200,5.000 L4.900,5.000 L4.200,5.000 L5.800,5.000 L7.400,5.000 L9.000,5.000 L10.600,5.000 L9.900,5.000 L10.600,5.000 L9.900,5.000 L10.600,5.000 M71.400,5.000 L72.100,5.000 L71.400,5.000 L72.100,5.000 L71.400,5.000 L73.000,5.000 L74.600,5.000 L76.200,5.000 L75.500,5.000 L76.200,5.000 L75.500,5.000 L76.200,5.000 M9.000,1.000 L9.700,1.000 L9.000,1.000 L9.700,1.000 L9.000,1.000 L10.778,1.000 L12.556,1.000 L14.333,1.000 L16.111,1.000 L17.889,1.000 L19.667,1.000 L21.444,1.000 L23.222,1.000 L25.000,1.000 L26.778,1.000 L28.556,1.000 L30.333,1.000 L32.111,1.000 L33.889,1.000 L35.667,1.000 L37.444,1.000 L39.222,1.000 L41.000,1.000 L42.778,1.000 L44.556,1.000 L46.333,1.000 L48.111,1.000 L49.889,1.000 L51.667,1.000 L53.444,1.000 L55.222,1.000 L57.000,1.000 L58.778,1.000 L60.556,1.000 L62.333,1.000 L64.111,1.000 L65.889,1.000 L67.667,1.000 L69.444,1.000 L71.222,1.000 L73.000,1.000 L72.300,1.000 L73.000,1.000 L72.300,1.000 L73.000,1.000"/>
</svg>
