<svg xmlns="http://www.w3.org/2000/svg" viewBox="0 -1.012 87.976 87.976" width="256" height="256">
  <title>disturbance</title>
  <rect x="0" y="-1.012" width="87.976" height="87.976" fill="#f5efe4"/>
  <path fill="none" stroke="#31604f" stroke-width="0.4" stroke-linecap="round" stroke-linejoin="round" d="M34.660,84.952 L34.660,84.952 L36.060,84.952 L37.460,84.952 L38.860,84.952 L40.260,84.952 L41.660,84.952 L43.060,84.952 L44.460,84.952 L45.860,84.952 L47.260,84.952 L48.660,84.952 L50.060,84.952 L51.460,84.952 L52.860,84.952 L53.315,84.952 L52.860,84.952 L53.315,84.952 L52.860,84.952 L53.315,84.952 M28.028,82.905 L28.728,82.905 L28.028,82.905 L28.728,82.905 L28.028,82.905 L29.428,82.905 L30.828,82.905 L32.228,82.905 L33.628,82.905 L35.028,82.905 L36.428,82.905 L37.828,82.905 L39.228,82.905 L40.628,82.905 L42.028,82.905 L43.428,82.905 L44.828,82.905 L46.228,82.905 L47.628,82.905 L49.028,82.905 L50.428,82.905 L51.828,82.905 L53.228,82.905 L54.628,82.905 L56.028,82.905 L57.428,82.905 L58.828,82.905 L59.947,82.905 L59.247,82.905 L59.947,82.905 L59.247,82.905 L59.947,82.905 M23.640,80.857 L24.340,80.857 L23.640,80.857 L24.340,80.857 L23.640,80.857 L25.040,80.857 L26.440,80.857 L27.840,80.857 L29.240,80.857 L30.640,80.857 L32.040,80.857 L33.440,80.857 L34.840,80.857 L36.240,80.857 L37.640,80.857 L39.040,80.857 L40.440,80.857 L41.840,80.857 L43.240,80.857 L44.640,80.857 L46.040,80.857 L47.440,80.857 L48.840,80.857 L50.240,80.857 L51.640,80.857 L53.040,80.857 L54.440,80.857 L55.840,80.857 L57.240,80.857 L58.640,80.857 L60.040,80.857 L61.440,80.857 L62.840,80.857 L64.240,80.857 L63.540,80.857 L64.240,80.857 L63.540,80.857 L64.240,80.857 M20.219,78.810 L20.919,78.810 L20.219,78.810 L20.919,78.810 L20.219,78.810 L21.619,78.810 L23.019,78.810 L24.419,78.810 L25.819,78.810 L27.219,78.810 L28.619,78.810 L30.019,78.810 L31.419,78.810 L32.819,78.810 L34.219,78.810 L35.619,78.810 L37.019,78.810 L38.419,78.810 L39.819,78.810 L41.219,78.810 L42.619,78.810 L44.019,78.810 L45.419,78.810 L46.819,78.810 L48.219,78.810 L49.619,78.810 L51.019,78.810 L52.419,78.810 L53.819,78.810 L55.219,78.810 L56.619,78.810 L58.019,78.810 L59.419,78.810 L60.819,78.810 L62.219,78.810 L63.619,78.810 L65.019,78.810 L66.419,78.810 L67.757,78.810 L67.057,78.810 L67.757,78.810 L67.057,78.810 L67.757,78.810 M17.388,76.762 L18.088,76.762 L17.388,76.762 L18.088,76.762 L17.388,76.762 L18.788,76.762 L20.188,76.762 L21.588,76.762 L22.988,76.762 L24.388,76.762 L25.788,76.762 L27.188,76.762 L28.588,76.762 L29.988,76.762 L31.388,76.762 L32.788,76.762 L34.188,76.762 L35.588,76.762 L36.988,76.762 L38.388,76.762 L39.788,76.762 L41.188,76.762 L42.588,76.762 L43.988,76.762 L45.388,76.762 L46.788,76.762 L48.188,76.762 L49.588,76.762 L50.988,76.762 L52.388,76.762 L53.788,76.762 L55.188,76.762 L56.588,76.762 L57.988,76.762 L59.388,76.762 L60.788,76.762 L62.188,76.762 L63.588,76.762 L64.988,76.762 L66.388,76.762 L67.788,76.762 L69.188,76.762 L70.587,76.762 L69.887,76.762 L70.587,76.762 L69.887,76.762 L70.587,76.762 M14.976,74.714 L15.676,74.714 L14.976,74.714 L15.676,74.714 L14.976,74.714 L16.376,74.714 L17.776,74.714 L19.176,74.714 L20.576,74.714 L21.976,74.714 L23.376,74.714 L24.776,74.714 L26.176,74.714 L27.576,74.714 L28.976,74.714 L30.376,74.714 L31.776,74.714 L33.176,74.714 L34.576,74.714 L35.976,74.714 L37.376,74.714 L38.776,74.714 L40.176,74.714 L41.576,74.714 L42.976,74.714 L44.376,74.714 L45.776,74.714 L47.176,74.714 L48.576,74.714 L49.976,74.714 L51.376,74.714 L52.776,74.714 L54.176,74.714 L55.576,74.714 L56.976,74.714 L58.376,74.714 L59.776,74.714 L61.176,74.714 L62.576,74.714 L63.976,74.714 L65.376,74.714 L66.776,74.714 L68.176,74.714 L69.576,74.714 L70.976,74.714 L72.376,74.714 L73.000,74.714 L72.376,74.714 L73.000,74.714 L72.376,74.714 L73.000,74.714 M12.884,72.667 L13.584,72.667 L12.884,72.667 L13.584,72.667 L12.884,72.667 L14.284,72.667 L15.684,72.667 L17.084,72.667 L18.484,72.667 L19.884,72.667 L21.284,72.667 L22.684,72.667 L24.084,72.667 L25.484,72.667 L26.884,72.667 L28.284,72.667 L29.684,72.667 L31.084,72.667 L32.484,72.667 L33.884,72.667 L35.284,72.667 L36.684,72.667 L38.084,72.667 L39.484,72.667 L40.884,72.667 L42.284,72.667 L43.684,72.667 L45.084,72.667 L46.484,72.668 L47.884,72.661 L49.284,72.662 L50.684,72.665 L52.084,72.680 L53.484,72.662 L54.884,72.664 L56.284,72.657 L57.684,72.662 L59.084,72.667 L60.484,72.667 L61.884,72.667 L63.284,72.667 L64.684,72.667 L66.084,72.667 L67.484,72.667 L68.884,72.667 L70.284,72.667 L71.684,72.667 L73.084,72.667 L74.484,72.667 L75.092,72.667 L74.484,72.667 L75.092,72.667 L74.484,72.667 L75.092,72.667 M11.050,70.619 L11.750,70.619 L11.050,70.619 L11.750,70.619 L11.050,70.619 L12.450,70.619 L13.850,70.619 L15.250,70.619 L16.650,70.619 L18.050,70.619 L19.450,70.619 L20.850,70.619 L22.250,70.619 L23.650,70.619 L25.050,70.619 L26.450,70.619 L27.850,70.619 L29.250,70.619 L30.650,70.619 L32.050,70.619 L33.450,70.619 L34.850,70.619 L36.250,70.619 L37.650,70.619 L39.050,70.619 L40.450,70.619 L41.850,70.621 L43.250,70.630 L44.650,70.644 L46.050,70.607 L47.450,70.553 L48.850,70.632 L50.250,70.613 L51.650,70.691 L53.050,70.697 L54.450,70.643 L55.850,70.571 L57.250,70.709 L58.650,70.608 L60.050,70.611 L61.450,70.608 L62.850,70.626 L64.250,70.618 L65.650,70.619 L67.050,70.619 L68.450,70.619 L69.850,70.619 L71.250,70.619 L72.650,70.619 L74.050,70.619 L75.450,70.619 L76.850,70.619 L76.150,70.619 L76.850,70.619 L76.150,70.619 L76.850,70.619 M9.435,68.571 L10.135,68.571 L9.435,68.571 L10.135,68.571 L9.435,68.571 L10.835,68.571 L12.235,68.571 L13.635,68.571 L15.035,68.571 L16.435,68.571 L17.835,68.571 L19.235,68.571 L20.635,68.571 L22.035,68.571 L23.435,68.571 L24.835,68.571 L26.235,68.571 L27.635,68.571 L29.035,68.571 L30.435,68.571 L31.835,68.571 L33.235,68.571 L34.635,68.571 L36.035,68.571 L37.435,68.572 L38.835,68.568 L40.235,68.553 L41.635,68.526 L43.035,68.636 L44.435,68.508 L45.835,68.428 L47.235,68.329 L48.635,68.593 L50.035,68.636 L51.435,68.853 L52.835,68.450 L54.235,68.370 L55.635,68.627 L57.035,68.538 L58.435,68.350 L59.835,68.487 L61.235,68.556 L62.635,68.615 L64.035,68.555 L65.435,68.592 L66.835,68.559 L68.235,68.571 L69.635,68.571 L71.035,68.571 L72.435,68.571 L73.835,68.571 L75.235,68.571 L76.635,68.571 L78.035,68.571 L78.540,68.571 L78.035,68.571 L78.540,68.571 L78.035,68.571 L78.540,68.571 M8.009,66.524 L8.709,66.524 L8.009,66.524 L8.709,66.524 L8.009,66.524 L9.409,66.524 L10.809,66.524 L12.209,66.524 L13.609,66.524 L15.009,66.524 L16.409,66.524 L17.809,66.524 L19.209,66.524 L20.609,66.524 L22.009,66.524 L23.409,66.524 L24.809,66.524 L26.209,66.524 L27.609,66.524 L29.009,66.524 L30.409,66.524 L31.809,66.524 L33.209,66.524 L34.609,66.524 L36.009,66.520 L37.409,66.540 L38.809,66.499 L40.209,66.449 L41.609,66.539 L43.009,66.570 L44.409,66.464 L45.809,66.553 L47.209,66.551 L48.609,66.656 L50.009,66.239 L51.409,66.523 L52.809,66.339 L54.209,66.371 L55.609,66.757 L57.009,66.125 L58.409,66.374 L59.809,66.830 L61.209,66.688 L62.609,66.642 L64.009,66.676 L65.409,66.463 L66.809,66.452 L68.209,66.535 L69.609,66.530 L71.009,66.524 L72.409,66.524 L73.809,66.524 L75.209,66.524 L76.609,66.524 L78.009,66.524 L79.409,66.524 L79.967,66.524 L79.409,66.524 L79.967,66.524 L79.409,66.524 L79.967,66.524 M6.749,64.476 L7.449,64.476 L6.749,64.476 L7.449,64.476 L6.749,64.476 L8.149,64.476 L9.549,64.476 L10.949,64.476 L12.349,64.476 L13.749,64.476 L15.149,64.476 L16.549,64.476 L17.949,64.476 L19.349,64.476 L20.749,64.476 L22.149,64.476 L23.549,64.476 L24.949,64.476 L26.349,64.476 L27.749,64.476 L29.149,64.476 L30.549,64.476 L31.949,64.476 L33.349,64.477 L34.749,64.466 L36.149,64.533 L37.549,64.497 L38.949,64.444 L40.349,64.236 L41.749,64.685 L43.149,64.456 L44.549,64.630 L45.949,64.683 L47.349,64.878 L48.749,64.283 L50.149,64.332 L51.549,64.780 L52.949,64.884 L54.349,64.934 L55.749,64.025 L57.149,64.608 L58.549,65.006 L59.949,64.300 L61.349,64.513 L62.749,64.151 L64.149,64.459 L65.549,64.575 L66.949,64.519 L68.349,64.453 L69.749,64.414 L71.149,64.488 L72.549,64.477 L73.949,64.476 L75.349,64.476 L76.749,64.476 L78.149,64.476 L79.549,64.476 L80.949,64.476 L81.227,64.476 L80.949,64.476 L81.227,64.476 L80.949,64.476 L81.227,64.476 M5.639,62.429 L6.339,62.429 L5.639,62.429 L6.339,62.429 L5.639,62.429 L7.039,62.429 L8.439,62.429 L9.839,62.429 L11.239,62.429 L12.639,62.429 L14.039,62.429 L15.439,62.429 L16.839,62.429 L18.239,62.429 L19.639,62.429 L21.039,62.429 L22.439,62.429 L23.839,62.429 L25.239,62.429 L26.639,62.429 L28.039,62.429 L29.439,62.429 L30.839,62.429 L32.239,62.429 L33.639,62.437 L35.039,62.446 L36.439,62.511 L37.839,62.419 L39.239,62.210 L40.639,62.289 L42.039,62.626 L43.439,62.014 L44.839,62.850 L46.239,63.001 L47.639,62.644 L49.039,62.140 L50.439,62.495 L51.839,61.799 L53.239,62.273 L54.639,62.669 L56.039,63.007 L57.439,62.907 L58.839,63.063 L60.239,62.536 L61.639,61.933 L63.039,62.875 L64.439,62.346 L65.839,62.577 L67.239,62.359 L68.639,62.323 L70.039,62.478 L71.439,62.474 L72.839,62.430 L74.239,62.429 L75.639,62.429 L77.039,62.429 L78.439,62.429 L79.839,62.429 L81.239,62.429 L82.336,62.429 L81.636,62.429 L82.336,62.429 L81.636,62.429 L82.336,62.429 M4.668,60.381 L5.368,60.381 L4.668,60.381 L5.368,60.381 L4.668,60.381 L6.068,60.381 L7.468,60.381 L8.868,60.381 L10.268,60.381 L11.668,60.381 L13.068,60.381 L14.468,60.381 L15.868,60.381 L17.268,60.381 L18.668,60.381 L20.068,60.381 L21.468,60.381 L22.868,60.381 L24.268,60.381 L25.668,60.381 L27.068,60.381 L28.468,60.381 L29.868,60.381 L31.268,60.380 L32.668,60.430 L34.068,60.405 L35.468,60.228 L36.868,60.266 L38.268,60.240 L39.668,60.735 L41.068,60.516 L42.468,60.304 L43.868,60.284 L45.268,59.620 L46.668,60.852 L48.068,60.539 L49.468,60.318 L50.868,61.257 L52.268,60.402 L53.668,61.039 L54.368,60.249 L55.068,59.459 L55.768,60.341 L56.468,61.222 L57.168,60.530 L57.868,59.838 L59.268,60.302 L60.668,59.970 L62.068,60.939 L63.468,60.265 L64.868,60.992 L66.268,60.652 L67.668,60.710 L69.068,60.455 L70.468,60.588 L71.868,60.455 L73.268,60.389 L74.668,60.378 L76.068,60.381 L77.468,60.381 L78.868,60.381 L80.268,60.381 L81.668,60.381 L83.068,60.381 L83.308,60.381 L83.068,60.381 L83.308,60.381 L83.068,60.381 L83.308,60.381 M3.824,58.333 L4.524,58.333 L3.824,58.333 L4.524,58.333 L3.824,58.333 L5.224,58.333 L6.624,58.333 L8.024,58.333 L9.424,58.333 L10.824,58.333 L12.224,58.333 L13.624,58.333 L15.024,58.333 L16.424,58.333 L17.824,58.333 L19.224,58.333 L20.624,58.333 L22.024,58.333 L23.424,58.333 L24.824,58.333 L26.224,58.333 L27.624,58.333 L29.024,58.333 L30.424,58.341 L31.824,58.280 L33.224,58.438 L34.624,58.197 L36.024,58.570 L37.424,58.645 L38.824,58.150 L40.224,58.100 L41.624,58.527 L43.024,58.103 L44.424,58.732 L45.824,59.593 L47.224,58.812 L48.624,59.389 L50.024,59.305 L51.424,59.136 L52.124,58.120 L52.824,57.104 L53.524,57.756 L54.224,58.407 L55.624,57.714 L57.024,57.881 L58.424,57.662 L59.124,58.690 L59.824,59.718 L60.524,58.826 L61.224,57.935 L62.624,58.998 L64.024,57.915 L65.424,58.339 L66.824,58.926 L68.224,58.384 L69.624,58.047 L71.024,58.288 L72.424,58.216 L73.824,58.364 L75.224,58.320 L76.624,58.334 L78.024,58.333 L79.424,58.333 L80.824,58.333 L82.224,58.333 L83.624,58.333 L84.152,58.333 L83.624,58.333 L84.152,58.333 L83.624,58.333 L84.152,58.333 M3.099,56.286 L3.799,56.286 L3.099,56.286 L3.799,56.286 L3.099,56.286 L4.499,56.286 L5.899,56.286 L7.299,56.286 L8.699,56.286 L10.099,56.286 L11.499,56.286 L12.899,56.286 L14.299,56.286 L15.699,56.286 L17.099,56.286 L18.499,56.286 L19.899,56.286 L21.299,56.286 L22.699,56.286 L24.099,56.286 L25.499,56.286 L26.899,56.286 L28.299,56.286 L29.699,56.286 L31.099,56.235 L32.499,56.192 L33.899,56.384 L35.299,56.198 L36.699,56.515 L38.099,56.847 L38.799,56.183 L39.499,55.520 L40.199,56.419 L40.899,57.318 L42.299,56.664 L43.699,56.671 L44.399,55.935 L45.099,55.198 L45.799,55.943 L46.499,56.688 L47.899,56.516 L49.299,56.112 L50.699,56.015 L52.099,56.457 L53.499,55.780 L54.899,55.800 L56.299,55.610 L57.699,56.890 L59.099,56.986 L59.799,56.018 L60.499,55.050 L61.199,55.958 L61.899,56.865 L63.299,57.132 L63.999,56.369 L64.699,55.607 L66.099,56.626 L67.499,55.668 L68.899,56.054 L70.299,56.369 L71.699,56.128 L73.099,56.355 L74.499,56.294 L75.899,56.274 L77.299,56.286 L78.699,56.286 L80.099,56.286 L81.499,56.286 L82.899,56.286 L84.299,56.286 L84.876,56.286 L84.299,56.286 L84.876,56.286 L84.299,56.286 L84.876,56.286 M2.489,54.238 L3.189,54.238 L2.489,54.238 L3.189,54.238 L2.489,54.238 L3.889,54.238 L5.289,54.238 L6.689,54.238 L8.089,54.238 L9.489,54.238 L10.889,54.238 L12.289,54.238 L13.689,54.238 L15.089,54.238 L16.489,54.238 L17.889,54.238 L19.289,54.238 L20.689,54.238 L22.089,54.238 L23.489,54.238 L24.889,54.238 L26.289,54.238 L27.689,54.238 L29.089,54.251 L30.489,54.291 L31.889,54.159 L33.289,54.277 L34.689,54.079 L36.089,53.956 L37.489,53.614 L38.889,54.515 L40.289,53.723 L41.689,53.210 L42.389,54.037 L43.089,54.863 L44.489,55.894 L45.889,55.483 L47.289,55.165 L47.989,54.294 L48.689,53.424 L50.089,53.381 L51.489,52.968 L52.189,54.078 L52.889,55.189 L53.589,54.331 L54.289,53.473 L55.689,53.655 L57.089,53.544 L57.789,54.631 L58.489,55.717 L59.889,54.479 L61.289,55.406 L61.989,54.701 L62.689,53.997 L64.089,54.270 L65.489,54.798 L66.889,54.493 L68.289,54.606 L69.689,54.521 L71.089,54.292 L72.489,53.937 L73.889,54.407 L75.289,54.264 L76.689,54.224 L78.089,54.238 L79.489,54.238 L80.889,54.238 L82.289,54.238 L83.689,54.238 L85.089,54.238 L85.487,54.238 L85.089,54.238 L85.487,54.238 L85.089,54.238 L85.487,54.238 M1.987,52.190 L2.687,52.190 L1.987,52.190 L2.687,52.190 L1.987,52.190 L3.387,52.190 L4.787,52.190 L6.187,52.190 L7.587,52.190 L8.987,52.190 L10.387,52.190 L11.787,52.190 L13.187,52.190 L14.587,52.190 L15.987,52.190 L17.387,52.190 L18.787,52.190 L20.187,52.190 L21.587,52.190 L22.987,52.190 L24.387,52.190 L25.787,52.190 L27.187,52.190 L28.587,52.201 L29.987,52.150 L31.387,52.130 L32.787,52.348 L34.187,51.748 L35.587,52.315 L36.987,51.568 L38.387,52.405 L39.787,52.358 L41.187,53.165 L41.887,52.481 L42.587,51.797 L43.987,52.605 L45.387,52.973 L46.087,51.959 L46.787,50.945 L48.187,51.975 L48.887,52.802 L49.587,53.629 L50.287,52.095 L50.987,50.562 L52.387,50.766 L53.087,51.446 L53.787,52.126 L55.187,53.162 L55.887,52.074 L56.587,50.985 L57.987,50.892 L58.687,51.715 L59.387,52.538 L60.087,51.376 L60.787,50.215 L62.187,50.948 L62.887,52.238 L63.587,53.529 L64.287,52.492 L64.987,51.456 L66.387,51.503 L67.787,52.687 L69.187,51.635 L70.587,52.343 L71.987,51.963 L73.387,52.171 L74.787,52.212 L76.187,52.181 L77.587,52.194 L78.987,52.190 L80.387,52.190 L81.787,52.190 L83.187,52.190 L84.587,52.190 L85.987,52.190 L85.287,52.190 L85.987,52.190 L85.287,52.190 L85.987,52.190 M1.589,50.143 L2.289,50.143 L1.589,50.143 L2.289,50.143 L1.589,50.143 L2.989,50.143 L4.389,50.143 L5.789,50.143 L7.189,50.143 L8.589,50.143 L9.989,50.143 L11.389,50.143 L12.789,50.143 L14.189,50.143 L15.589,50.143 L16.989,50.143 L18.389,50.143 L19.789,50.143 L21.189,50.143 L22.589,50.143 L23.989,50.143 L25.389,50.143 L26.789,50.143 L28.189,50.150 L29.589,50.159 L30.989,50.237 L32.389,49.989 L33.789,50.204 L35.189,50.291 L36.589,50.066 L37.989,49.692 L39.389,49.747 L40.789,50.820 L42.189,50.474 L42.889,51.230 L43.589,51.986 L44.289,51.301 L44.989,50.617 L46.389,49.370 L47.789,49.517 L48.489,50.260 L49.189,51.002 L49.889,51.736 L50.589,52.470 L51.056,51.042 L51.523,49.615 L51.989,48.188 L52.456,49.531 L52.923,50.874 L53.389,52.216 L53.856,51.023 L54.323,49.829 L54.789,48.635 L55.489,49.684 L56.189,50.733 L57.589,50.650 L58.289,49.772 L58.989,48.894 L60.389,48.935 L61.789,49.567 L62.489,50.289 L63.189,51.011 L64.589,50.447 L65.989,50.693 L67.389,49.545 L68.789,50.666 L70.189,50.260 L71.589,50.065 L72.989,50.425 L74.389,50.142 L75.789,50.194 L77.189,50.138 L78.589,50.143 L79.989,50.143 L81.389,50.143 L82.789,50.143 L84.189,50.143 L85.589,50.143 L86.386,50.143 L85.686,50.143 L86.386,50.143 L85.686,50.143 L86.386,50.143 M1.294,48.095 L1.994,48.095 L1.294,48.095 L1.994,48.095 L1.294,48.095 L2.694,48.095 L4.094,48.095 L5.494,48.095 L6.894,48.095 L8.294,48.095 L9.694,48.095 L11.094,48.095 L12.494,48.095 L13.894,48.095 L15.294,48.095 L16.694,48.095 L18.094,48.095 L19.494,48.095 L20.894,48.095 L22.294,48.095 L23.694,48.095 L25.094,48.095 L26.494,48.095 L27.894,48.093 L29.294,48.072 L30.694,48.224 L32.094,48.160 L33.494,47.809 L34.894,48.014 L36.294,47.848 L37.694,48.065 L39.094,47.527 L40.494,48.729 L41.894,48.476 L43.294,47.491 L44.694,48.633 L45.394,47.691 L46.094,46.749 L46.794,48.148 L47.494,49.547 L48.194,48.150 L48.894,46.752 L50.294,47.848 L50.994,48.674 L51.694,49.500 L53.094,49.436 L54.494,50.174 L55.194,49.519 L55.894,48.865 L57.294,48.731 L58.694,47.546 L60.094,47.967 L61.494,48.232 L62.894,48.959 L64.294,48.100 L65.694,47.331 L67.094,47.992 L68.494,48.045 L69.894,48.593 L71.294,47.911 L72.694,48.281 L74.094,47.926 L75.494,47.961 L76.894,48.098 L78.294,48.098 L79.694,48.095 L81.094,48.095 L82.494,48.095 L83.894,48.095 L85.294,48.095 L86.682,48.095 L85.982,48.095 L86.682,48.095 L85.982,48.095 L86.682,48.095 M1.098,46.048 L1.798,46.048 L1.098,46.048 L1.798,46.048 L1.098,46.048 L2.498,46.048 L3.898,46.048 L5.298,46.048 L6.698,46.048 L8.098,46.048 L9.498,46.048 L10.898,46.048 L12.298,46.048 L13.698,46.048 L15.098,46.048 L16.498,46.048 L17.898,46.048 L19.298,46.048 L20.698,46.048 L22.098,46.048 L23.498,46.048 L24.898,46.048 L26.298,46.048 L27.698,46.045 L29.098,46.035 L30.498,45.968 L31.898,46.016 L33.298,45.854 L34.698,46.338 L36.098,46.160 L37.498,45.979 L38.898,45.780 L40.298,45.848 L41.698,46.401 L43.098,46.571 L43.798,47.244 L44.498,47.917 L45.198,46.666 L45.898,45.415 L46.598,46.714 L47.298,48.012 L47.998,46.283 L48.698,44.553 L49.398,45.893 L50.098,47.233 L51.498,46.480 L52.898,47.070 L53.598,46.148 L54.298,45.226 L55.698,45.515 L57.098,45.456 L57.798,46.438 L58.498,47.419 L59.198,46.592 L59.898,45.766 L60.598,46.544 L61.298,47.323 L61.998,46.109 L62.698,44.896 L63.398,46.004 L64.098,47.112 L65.498,46.545 L66.898,47.013 L68.298,45.983 L69.698,46.771 L71.098,46.346 L72.498,45.790 L73.898,45.987 L75.298,46.127 L76.698,46.012 L78.098,46.049 L79.498,46.048 L80.898,46.048 L82.298,46.048 L83.698,46.048 L85.098,46.048 L86.498,46.048 L86.878,46.048 L86.498,46.048 L86.878,46.048 L86.498,46.048 L86.878,46.048 M1.000,44.000 L1.700,44.000 L1.000,44.000 L1.700,44.000 L1.000,44.000 L2.400,44.000 L3.800,44.000 L5.200,44.000 L6.600,44.000 L8.000,44.000 L9.400,44.000 L10.800,44.000 L12.200,44.000 L13.600,44.000 L15.000,44.000 L16.400,44.000 L17.800,44.000 L19.200,44.000 L20.600,44.000 L22.000,44.000 L23.400,44.000 L24.800,44.000 L26.200,44.000 L27.600,44.001 L29.000,44.021 L30.400,43.967 L31.800,43.966 L33.200,44.115 L34.600,44.291 L36.000,43.831 L37.400,43.981 L38.800,44.287 L40.200,44.171 L41.600,44.685 L42.300,43.543 L43.000,42.401 L43.700,43.057 L44.400,43.712 L45.100,42.807 L45.800,41.901 L47.200,42.941 L48.600,41.681 L49.300,42.785 L50.000,43.889 L51.400,42.682 L52.100,43.709 L52.800,44.737 L53.500,43.808 L54.200,42.880 L54.900,44.157 L55.600,45.435 L56.300,44.761 L57.000,44.087 L58.400,42.898 L59.800,43.489 L61.200,42.892 L62.600,43.959 L64.000,43.924 L65.400,44.324 L66.800,43.336 L68.200,43.529 L69.600,43.593 L71.000,44.274 L72.400,43.877 L73.800,44.031 L75.200,44.028 L76.600,44.033 L78.000,43.999 L79.400,44.000 L80.800,44.000 L82.200,44.000 L83.600,44.000 L85.000,44.000 L86.400,44.000 L86.976,44.000 L86.400,44.000 L86.976,44.000 L86.400,44.000 L86.976,44.000 M1.000,41.952 L1.700,41.952 L1.000,41.952 L1.700,41.952 L1.000,41.952 L2.400,41.952 L3.800,41.952 L5.200,41.952 L6.600,41.952 L8.000,41.952 L9.400,41.952 L10.800,41.952 L12.200,41.952 L13.600,41.952 L15.000,41.952 L16.400,41.952 L17.800,41.952 L19.200,41.952 L20.600,41.952 L22.000,41.952 L23.400,41.952 L24.800,41.952 L26.200,41.952 L27.600,41.952 L29.000,41.959 L30.400,41.998 L31.800,42.058 L33.200,42.126 L34.600,42.067 L36.000,42.015 L37.400,42.343 L38.800,41.802 L40.200,41.678 L41.600,41.648 L42.300,42.296 L43.000,42.943 L44.400,42.286 L45.800,42.711 L47.200,43.150 L48.600,42.874 L50.000,42.950 L50.700,41.736 L51.400,40.523 L52.800,41.051 L54.200,42.048 L55.600,42.712 L56.300,41.686 L57.000,40.661 L58.400,41.874 L59.800,41.958 L60.500,42.718 L61.200,43.478 L61.900,42.565 L62.600,41.652 L64.000,42.919 L65.400,42.259 L66.800,41.251 L68.200,41.935 L69.600,41.554 L71.000,42.073 L72.400,41.715 L73.800,41.939 L75.200,41.897 L76.600,41.946 L78.000,41.952 L79.400,41.952 L80.800,41.952 L82.200,41.952 L83.600,41.952 L85.000,41.952 L86.400,41.952 L86.976,41.952 L86.400,41.952 L86.976,41.952 L86.400,41.952 L86.976,41.952 M1.098,39.905 L1.798,39.905 L1.098,39.905 L1.798,39.905 L1.098,39.905 L2.498,39.905 L3.898,39.905 L5.298,39.905 L6.698,39.905 L8.098,39.905 L9.498,39.905 L10.898,39.905 L12.298,39.905 L13.698,39.905 L15.098,39.905 L16.498,39.905 L17.898,39.905 L19.298,39.905 L20.698,39.905 L22.098,39.905 L23.498,39.905 L24.898,39.905 L26.298,39.905 L27.698,39.905 L29.098,39.908 L30.498,39.911 L31.898,39.931 L33.298,39.981 L34.698,39.678 L36.098,39.545 L37.498,40.279 L38.898,39.616 L39.598,40.261 L40.298,40.907 L41.698,39.896 L43.098,40.104 L44.498,41.068 L45.198,39.966 L45.898,38.864 L47.298,38.864 L48.698,39.646 L50.098,40.201 L51.498,40.166 L52.898,40.324 L54.298,40.047 L55.698,41.043 L56.398,40.148 L57.098,39.253 L58.498,38.748 L59.198,39.816 L59.898,40.883 L60.598,39.971 L61.298,39.059 L61.998,39.974 L62.698,40.889 L64.098,39.759 L65.498,40.642 L66.898,40.091 L68.298,39.556 L69.698,39.434 L71.098,40.031 L72.498,39.788 L73.898,40.004 L75.298,39.922 L76.698,39.895 L78.098,39.905 L79.498,39.905 L80.898,39.905 L82.298,39.905 L83.698,39.905 L85.098,39.905 L86.498,39.905 L86.878,39.905 L86.498,39.905 L86.878,39.905 L86.498,39.905 L86.878,39.905 M1.294,37.857 L1.994,37.857 L1.294,37.857 L1.994,37.857 L1.294,37.857 L2.694,37.857 L4.094,37.857 L5.494,37.857 L6.894,37.857 L8.294,37.857 L9.694,37.857 L11.094,37.857 L12.494,37.857 L13.894,37.857 L15.294,37.857 L16.694,37.857 L18.094,37.857 L19.494,37.857 L20.894,37.857 L22.294,37.857 L23.694,37.857 L25.094,37.857 L26.494,37.857 L27.894,37.857 L29.294,37.857 L30.694,37.873 L32.094,37.895 L33.494,37.752 L34.894,37.988 L36.294,37.848 L37.694,37.815 L39.094,37.594 L40.494,37.533 L41.894,36.972 L43.294,38.081 L44.694,38.343 L46.094,38.046 L47.494,37.901 L48.194,37.079 L48.894,36.257 L50.294,37.481 L51.694,36.980 L52.394,38.221 L53.094,39.462 L53.794,38.803 L54.494,38.143 L55.894,38.792 L57.294,37.837 L58.694,37.818 L60.094,38.251 L61.494,37.542 L62.894,37.171 L64.294,37.698 L65.694,38.268 L67.094,37.593 L68.494,37.545 L69.894,37.938 L71.294,38.124 L72.694,37.950 L74.094,37.808 L75.494,37.859 L76.894,37.857 L78.294,37.857 L79.694,37.857 L81.094,37.857 L82.494,37.857 L83.894,37.857 L85.294,37.857 L86.682,37.857 L85.982,37.857 L86.682,37.857 L85.982,37.857 L86.682,37.857 M1.589,35.810 L2.289,35.810 L1.589,35.810 L2.289,35.810 L1.589,35.810 L2.989,35.810 L4.389,35.810 L5.789,35.810 L7.189,35.810 L8.589,35.810 L9.989,35.810 L11.389,35.810 L12.789,35.810 L14.189,35.810 L15.589,35.810 L16.989,35.810 L18.389,35.810 L19.789,35.810 L21.189,35.810 L22.589,35.810 L23.989,35.810 L25.389,35.810 L26.789,35.810 L28.189,35.810 L29.589,35.810 L30.989,35.819 L32.389,35.783 L33.789,35.917 L35.189,35.753 L36.589,35.819 L37.989,35.498 L39.389,35.257 L40.789,35.988 L42.189,35.958 L43.589,35.794 L44.989,35.744 L46.389,35.301 L47.789,35.246 L49.189,34.687 L50.589,34.982 L51.989,35.536 L53.389,36.331 L54.789,36.539 L56.189,35.704 L57.589,35.894 L58.989,35.989 L60.389,36.121 L61.789,35.867 L63.189,36.349 L64.589,36.509 L65.989,36.403 L67.389,36.158 L68.789,35.748 L70.189,35.782 L71.589,35.830 L72.989,35.742 L74.389,35.827 L75.789,35.810 L77.189,35.810 L78.589,35.810 L79.989,35.810 L81.389,35.810 L82.789,35.810 L84.189,35.810 L85.589,35.810 L86.386,35.810 L85.686,35.810 L86.386,35.810 L85.686,35.810 L86.386,35.810 M1.987,33.762 L2.687,33.762 L1.987,33.762 L2.687,33.762 L1.987,33.762 L3.387,33.762 L4.787,33.762 L6.187,33.762 L7.587,33.762 L8.987,33.762 L10.387,33.762 L11.787,33.762 L13.187,33.762 L14.587,33.762 L15.987,33.762 L17.387,33.762 L18.787,33.762 L20.187,33.762 L21.587,33.762 L22.987,33.762 L24.387,33.762 L25.787,33.762 L27.187,33.762 L28.587,33.762 L29.987,33.762 L31.387,33.762 L32.787,33.754 L34.187,33.713 L35.587,33.775 L36.987,33.594 L38.387,33.574 L39.787,33.854 L41.187,33.720 L42.587,33.475 L43.987,33.377 L45.387,34.049 L46.787,33.121 L48.187,33.737 L49.587,34.325 L50.287,33.638 L50.987,32.952 L51.687,33.748 L52.387,34.544 L53.787,33.953 L55.187,33.235 L56.587,34.298 L57.987,34.242 L59.387,33.251 L60.787,33.337 L62.187,33.985 L63.587,33.316 L64.987,33.717 L66.387,33.720 L67.787,33.791 L69.187,33.637 L70.587,33.680 L71.987,33.734 L73.387,33.753 L74.787,33.762 L76.187,33.762 L77.587,33.762 L78.987,33.762 L80.387,33.762 L81.787,33.762 L83.187,33.762 L84.587,33.762 L85.987,33.762 L85.287,33.762 L85.987,33.762 L85.287,33.762 L85.987,33.762 M2.489,31.714 L3.189,31.714 L2.489,31.714 L3.189,31.714 L2.489,31.714 L3.889,31.714 L5.289,31.714 L6.689,31.714 L8.089,31.714 L9.489,31.714 L10.889,31.714 L12.289,31.714 L13.689,31.714 L15.089,31.714 L16.489,31.714 L17.889,31.714 L19.289,31.714 L20.689,31.714 L22.089,31.714 L23.489,31.714 L24.889,31.714 L26.289,31.714 L27.689,31.714 L29.089,31.714 L30.489,31.714 L31.889,31.714 L33.289,31.716 L34.689,31.737 L36.089,31.752 L37.489,31.635 L38.889,31.823 L40.289,31.800 L41.689,32.045 L43.089,31.398 L44.489,31.569 L45.889,32.177 L47.289,31.297 L48.689,31.393 L50.089,31.861 L51.489,31.718 L52.889,31.104 L54.289,31.970 L55.689,31.829 L57.089,31.615 L58.489,31.267 L59.889,32.054 L61.289,31.492 L62.689,31.225 L64.089,31.448 L65.489,31.563 L66.889,31.592 L68.289,31.618 L69.689,31.754 L71.089,31.727 L72.489,31.717 L73.889,31.714 L75.289,31.714 L76.689,31.714 L78.089,31.714 L79.489,31.714 L80.889,31.714 L82.289,31.714 L83.689,31.714 L85.089,31.714 L85.487,31.714 L85.089,31.714 L85.487,31.714 L85.089,31.714 L85.487,31.714 M3.099,29.667 L3.799,29.667 L3.099,29.667 L3.799,29.667 L3.099,29.667 L4.499,29.667 L5.899,29.667 L7.299,29.667 L8.699,29.667 L10.099,29.667 L11.499,29.667 L12.899,29.667 L14.299,29.667 L15.699,29.667 L17.099,29.667 L18.499,29.667 L19.899,29.667 L21.299,29.667 L22.699,29.667 L24.099,29.667 L25.499,29.667 L26.899,29.667 L28.299,29.667 L29.699,29.667 L31.099,29.667 L32.499,29.667 L33.899,29.667 L35.299,29.665 L36.699,29.692 L38.099,29.646 L39.499,29.671 L40.899,29.679 L42.299,29.772 L43.699,29.640 L45.099,29.681 L46.499,29.580 L47.899,29.624 L49.299,29.374 L50.699,29.337 L52.099,29.488 L53.499,29.256 L54.899,29.846 L56.299,29.780 L57.699,29.807 L59.099,29.459 L60.499,29.840 L61.899,29.792 L63.299,29.660 L64.699,29.652 L66.099,29.760 L67.499,29.686 L68.899,29.648 L70.299,29.669 L71.699,29.667 L73.099,29.667 L74.499,29.667 L75.899,29.667 L77.299,29.667 L78.699,29.667 L80.099,29.667 L81.499,29.667 L82.899,29.667 L84.299,29.667 L84.876,29.667 L84.299,29.667 L84.876,29.667 L84.299,29.667 L84.876,29.667 M3.824,27.619 L4.524,27.619 L3.824,27.619 L4.524,27.619 L3.824,27.619 L5.224,27.619 L6.624,27.619 L8.024,27.619 L9.424,27.619 L10.824,27.619 L12.224,27.619 L13.624,27.619 L15.024,27.619 L16.424,27.619 L17.824,27.619 L19.224,27.619 L20.624,27.619 L22.024,27.619 L23.424,27.619 L24.824,27.619 L26.224,27.619 L27.624,27.619 L29.024,27.619 L30.424,27.619 L31.824,27.619 L33.224,27.619 L34.624,27.619 L36.024,27.619 L37.424,27.619 L38.824,27.629 L40.224,27.600 L41.624,27.549 L43.024,27.691 L44.424,27.505 L45.824,27.751 L47.224,27.715 L48.624,27.640 L50.024,27.548 L51.424,27.803 L52.824,27.758 L54.224,27.741 L55.624,27.690 L57.024,27.517 L58.424,27.717 L59.824,27.601 L61.224,27.556 L62.624,27.609 L64.024,27.616 L65.424,27.611 L66.824,27.629 L68.224,27.622 L69.624,27.619 L71.024,27.619 L72.424,27.619 L73.824,27.619 L75.224,27.619 L76.624,27.619 L78.024,27.619 L79.424,27.619 L80.824,27.619 L82.224,27.619 L83.624,27.619 L84.152,27.619 L83.624,27.619 L84.152,27.619 L83.624,27.619 L84.152,27.619 M4.668,25.571 L5.368,25.571 L4.668,25.571 L5.368,25.571 L4.668,25.571 L6.068,25.571 L7.468,25.571 L8.868,25.571 L10.268,25.571 L11.668,25.571 L13.068,25.571 L14.468,25.571 L15.868,25.571 L17.268,25.571 L18.668,25.571 L20.068,25.571 L21.468,25.571 L22.868,25.571 L24.268,25.571 L25.668,25.571 L27.068,25.571 L28.468,25.571 L29.868,25.571 L31.268,25.571 L32.668,25.571 L34.068,25.571 L35.468,25.571 L36.868,25.571 L38.268,25.571 L39.668,25.571 L41.068,25.572 L42.468,25.581 L43.868,25.551 L45.268,25.601 L46.668,25.594 L48.068,25.538 L49.468,25.525 L50.868,25.632 L52.268,25.563 L53.668,25.565 L55.068,25.585 L56.468,25.615 L57.868,25.473 L59.268,25.576 L60.668,25.516 L62.068,25.586 L63.468,25.565 L64.868,25.575 L66.268,25.571 L67.668,25.571 L69.068,25.571 L70.468,25.571 L71.868,25.571 L73.268,25.571 L74.668,25.571 L76.068,25.571 L77.468,25.571 L78.868,25.571 L80.268,25.571 L81.668,25.571 L83.068,25.571 L83.308,25.571 L83.068,25.571 L83.308,25.571 L83.068,25.571 L83.308,25.571 M5.639,23.524 L6.339,23.524 L5.639,23.524 L6.339,23.524 L5.639,23.524 L7.039,23.524 L8.439,23.524 L9.839,23.524 L11.239,23.524 L12.639,23.524 L14.039,23.524 L15.439,23.524 L16.839,23.524 L18.239,23.524 L19.639,23.524 L21.039,23.524 L22.439,23.524 L23.839,23.524 L25.239,23.524 L26.639,23.524 L28.039,23.524 L29.439,23.524 L30.839,23.524 L32.239,23.524 L33.639,23.524 L35.039,23.524 L36.439,23.524 L37.839,23.524 L39.239,23.524 L40.639,23.524 L42.039,23.524 L43.439,23.524 L44.839,23.524 L46.239,23.527 L47.639,23.520 L49.039,23.532 L50.439,23.507 L51.839,23.529 L53.239,23.512 L54.639,23.529 L56.039,23.522 L57.439,23.528 L58.839,23.525 L60.239,23.523 L61.639,23.524 L63.039,23.524 L64.439,23.524 L65.839,23.524 L67.239,23.524 L68.639,23.524 L70.039,23.524 L71.439,23.524 L72.839,23.524 L74.239,23.524 L75.639,23.524 L77.039,23.524 L78.439,23.524 L79.839,23.524 L81.239,23.524 L82.336,23.524 L81.636,23.524 L82.336,23.524 L81.636,23.524 L82.336,23.524 M6.749,21.476 L7.449,21.476 L6.749,21.476 L7.449,21.476 L6.749,21.476 L8.149,21.476 L9.549,21.476 L10.949,21.476 L12.349,21.476 L13.749,21.476 L15.149,21.476 L16.549,21.476 L17.949,21.476 L19.349,21.476 L20.749,21.476 L22.149,21.476 L23.549,21.476 L24.949,21.476 L26.349,21.476 L27.749,21.476 L29.149,21.476 L30.549,21.476 L31.949,21.476 L33.349,21.476 L34.749,21.476 L36.149,21.476 L37.549,21.476 L38.949,21.476 L40.349,21.476 L41.749,21.476 L43.149,21.476 L44.549,21.476 L45.949,21.476 L47.349,21.476 L48.749,21.476 L50.149,21.476 L51.549,21.476 L52.949,21.476 L54.349,21.476 L55.749,21.476 L57.149,21.476 L58.549,21.476 L59.949,21.476 L61.349,21.476 L62.749,21.476 L64.149,21.476 L65.549,21.476 L66.949,21.476 L68.349,21.476 L69.749,21.476 L71.149,21.476 L72.549,21.476 L73.949,21.476 L75.349,21.476 L76.749,21.476 L78.149,21.476 L79.549,21.476 L80.949,21.476 L81.227,21.476 L80.949,21.476 L81.227,21.476 L80.949,21.476 L81.227,21.476 M8.009,19.429 L8.709,19.429 L8.009,19.429 L8.709,19.429 L8.009,19.429 L9.409,19.429 L10.809,19.429 L12.209,19.429 L13.609,19.429 L15.009,19.429 L16.409,19.429 L17.809,19.429 L19.209,19.429 L20.609,19.429 L22.009,19.429 L23.409,19.429 L24.809,19.429 L26.209,19.429 L27.609,19.429 L29.009,19.429 L30.409,19.429 L31.809,19.429 L33.209,19.429 L34.609,19.429 L36.009,19.429 L37.409,19.429 L38.809,19.429 L40.209,19.429 L41.609,19.429 L43.009,19.429 L44.409,19.429 L45.809,19.429 L47.209,19.429 L48.609,19.429 L50.009,19.429 L51.409,19.429 L52.809,19.429 L54.209,19.429 L55.609,19.429 L57.009,19.429 L58.409,19.429 L59.809,19.429 L61.209,19.429 L62.609,19.429 L64.009,19.429 L65.409,19.429 L66.809,19.429 L68.209,19.429 L69.609,19.429 L71.009,19.429 L72.409,19.429 L73.809,19.429 L75.209,19.429 L76.609,19.429 L78.009,19.429 L79.409,19.429 L79.967,19.429 L79.409,19.429 L79.967,19.429 L79.409,19.429 L79.967,19.429 M9.435,17.381 L10.135,17.381 L9.435,17.381 L10.135,17.381 L9.435,17.381 L10.835,17.381 L12.235,17.381 L13.635,17.381 L15.035,17.381 L16.435,17.381 L17.835,17.381 L19.235,17.381 L20.635,17.381 L22.035,17.381 L23.435,17.381 L24.835,17.381 L26.235,17.381 L27.635,17.381 L29.035,17.381 L30.435,17.381 L31.835,17.381 L33.235,17.381 L34.635,17.381 L36.035,17.381 L37.435,17.381 L38.835,17.381 L40.235,17.381 L41.635,17.381 L43.035,17.381 L44.435,17.381 L45.835,17.381 L47.235,17.381 L48.635,17.381 L50.035,17.381 L51.435,17.381 L52.835,17.381 L54.235,17.381 L55.635,17.381 L57.035,17.381 L58.435,17.381 L59.835,17.381 L61.235,17.381 L62.635,17.381 L64.035,17.381 L65.435,17.381 L66.835,17.381 L68.235,17.381 L69.635,17.381 L71.035,17.381 L72.435,17.381 L73.835,17.381 L75.235,17.381 L76.635,17.381 L78.035,17.381 L78.540,17.381 L78.035,17.381 L78.540,17.381 L78.035,17.381 L78.540,17.381 M11.050,15.333 L11.750,15.333 L11.050,15.333 L11.750,15.333 L11.050,15.333 L12.450,15.333 L13.850,15.333 L15.250,15.333 L16.650,15.333 L18.050,15.333 L19.450,15.333 L20.850,15.333 L22.250,15.333 L23.650,15.333 L25.050,15.333 L26.450,15.333 L27.850,15.333 L29.250,15.333 L30.650,15.333 L32.050,15.333 L33.450,15.333 L34.850,15.333 L36.250,15.333 L37.650,15.333 L39.050,15.333 L40.450,15.333 L41.850,15.333 L43.250,15.333 L44.650,15.333 L46.050,15.333 L47.450,15.333 L48.850,15.333 L50.250,15.333 L51.650,15.333 L53.050,15.333 L54.450,15.333 L55.850,15.333 L57.250,15.333 L58.650,15.333 L60.050,15.333 L61.450,15.333 L62.850,15.333 L64.250,15.333 L65.650,15.333 L67.050,15.333 L68.450,15.333 L69.850,15.333 L71.250,15.333 L72.650,15.333 L74.050,15.333 L75.450,15.333 L76.850,15.333 L76.150,15.333 L76.850,15.333 L76.150,15.333 L76.850,15.333 M12.884,13.286 L13.584,13.286 L12.884,13.286 L13.584,13.286 L12.884,13.286 L14.284,13.286 L15.684,13.286 L17.084,13.286 L18.484,13.286 L19.884,13.286 L21.284,13.286 L22.684,13.286 L24.084,13.286 L25.484,13.286 L26.884,13.286 L28.284,13.286 L29.684,13.286 L31.084,13.286 L32.484,13.286 L33.884,13.286 L35.284,13.286 L36.684,13.286 L38.084,13.286 L39.484,13.286 L40.884,13.286 L42.284,13.286 L43.684,13.286 L45.084,13.286 L46.484,13.286 L47.884,13.286 L49.284,13.286 L50.684,13.286 L52.084,13.286 L53.484,13.286 L54.884,13.286 L56.284,13.286 L57.684,13.286 L59.084,13.286 L60.484,13.286 L61.884,13.286 L63.284,13.286 L64.684,13.286 L66.084,13.286 L67.484,13.286 L68.884,13.286 L70.284,13.286 L71.684,13.286 L73.084,13.286 L74.484,13.286 L75.092,13.286 L74.484,13.286 L75.092,13.286 L74.484,13.286 L75.092,13.286 M14.976,11.238 L15.676,11.238 L14.976,11.238 L15.676,11.238 L14.976,11.238 L16.376,11.238 L17.776,11.238 L19.176,11.238 L20.576,11.238 L21.976,11.238 L23.376,11.238 L24.776,11.238 L26.176,11.238 L27.576,11.238 L28.976,11.238 L30.376,11.238 L31.776,11.238 L33.176,11.238 L34.576,11.238 L35.976,11.238 L37.376,11.238 L38.776,11.238 L40.176,11.238 L41.576,11.238 L42.976,11.238 L44.376,11.238 L45.776,11.238 L47.176,11.238 L48.576,11.238 L49.976,11.238 L51.376,11.238 L52.776,11.238 L54.176,11.238 L55.576,11.238 L56.976,11.238 L58.376,11.238 L59.776,11.238 L61.176,11.238 L62.576,11.238 L63.976,11.238 L65.376,11.238 L66.776,11.238 L68.176,11.238 L69.576,11.238 L70.976,11.238 L72.376,11.238 L73.000,11.238 L72.376,11.238 L73.000,11.238 L72.376,11.238 L73.000,11.238 M17.388,9.190 L18.088,9.190 L17.388,9.190 L18.088,9.190 L17.388,9.190 L18.788,9.190 L20.188,9.190 L21.588,9.190 L22.988,9.190 L24.388,9.190 L25.788,9.190 L27.188,9.190 L28.588,9.190 L29.988,9.190 L31.388,9.190 L32.788,9.190 L34.188,9.190 L35.588,9.190 L36.988,9.190 L38.388,9.190 L39.788,9.190 L41.188,9.190 L42.588,9.190 L43.988,9.190 L45.388,9.190 L46.788,9.190 L48.188,9.190 L49.588,9.190 L50.988,9.190 L52.388,9.190 L53.788,9.190 L55.188,9.190 L56.588,9.190 L57.988,9.190 L59.388,9.190 L60.788,9.190 L62.188,9.190 L63.588,9.190 L64.988,9.190 L66.388,9.190 L67.788,9.190 L69.188,9.190 L70.587,9.190 L69.887,9.190 L70.587,9.190 L69.887,9.190 L70.587,9.190 M20.219,7.143 L20.919,7.143 L20.219,7.143 L20.919,7.143 L20.219,7.143 L21.619,7.143 L23.019,7.143 L24.419,7.143 L25.819,7.143 L27.219,7.143 L28.619,7.143 L30.019,7.143 L31.419,7.143 L32.819,7.143 L34.219,7.143 L35.619,7.143 L37.019,7.143 L38.419,7.143 L39.819,7.143 L41.219,7.143 L42.619,7.143 L44.019,7.143 L45.419,7.143 L46.819,7.143 L48.219,7.143 L49.619,7.143 L51.019,7.143 L52.419,7.143 L53.819,7.143 L55.219,7.143 L56.619,7.143 L58.019,7.143 L59.419,7.143 L60.819,7.143 L62.219,7.143 L63.619,7.143 L65.019,7.143 L66.419,7.143 L67.757,7.143 L67.057,7.143 L67.757,7.143 L67.057,7.143 L67.757,7.143 M23.640,5.095 L24.340,5.095 L23.640,5.095 L24.340,5.095 L23.640,5.095 L25.040,5.095 L26.440,5.095 L27.840,5.095 L29.240,5.095 L30.640,5.095 L32.040,5.095 L33.440,5.095 L34.840,5.095 L36.240,5.095 L37.640,5.095 L39.040,5.095 L40.440,5.095 L41.840,5.095 L43.240,5.095 L44.640,5.095 L46.040,5.095 L47.440,5.095 L48.840,5.095 L50.240,5.095 L51.640,5.095 L53.040,5.095 L54.440,5.095 L55.840,5.095 L57.240,5.095 L58.640,5.095 L60.040,5.095 L61.440,5.095 L62.840,5.095 L64.240,5.095 L63.540,5.095 L64.240,5.095 L63.540,5.095 L64.240,5.095 M28.028,3.048 L28.728,3.048 L28.028,3.048 L28.728,3.048 L28.028,3.048 L29.428,3.048 L30.828,3.048 L32.228,3.048 L33.628,3.048 L35.028,3.048 L36.428,3.048 L37.828,3.048 L39.228,3.048 L40.628,3.048 L42.028,3.048 L43.428,3.048 L44.828,3.048 L46.228,3.048 L47.628,3.048 L49.028,3.048 L50.428,3.048 L51.828,3.048 L53.228,3.048 L54.628,3.048 L56.028,3.048 L57.428,3.048 L58.828,3.048 L59.947,3.048 L59.247,3.048 L59.947,3.048 L59.247,3.048 L59.947,3.048 M34.660,1.000 L35.360,1.000 L34.660,1.000 L35.360,1.000 L34.660,1.000 L36.060,1.000 L37.460,1.000 L38.860,1.000 L40.260,1.000 L41.660,1.000 L43.060,1.000 L44.460,1.000 L45.860,1.000 L47.260,1.000 L48.660,1.000 L50.060,1.000 L51.460,1.000 L52.860,1.000 L53.315,1.000 L52.860,1.000 L53.315,1.000 L52.860,1.000 L53.315,1.000"/>
</svg>
