<svg xmlns="http://www.w3.org/2000/svg" viewBox="0 -4.23 61.86 61.86" width="256" height="256">
  <title>easing</title>
  <rect x="0" y="-4.23" width="61.86" height="61.86" fill="#f5efe4"/>
  <path fill="none" stroke="#c8472f" stroke-width="0.4" stroke-linecap="round" stroke-linejoin="round" d="M1.000,2.700 L1.000,2.700 M1.000,2.700 L1.350,4.400 L1.700,1.000 L2.099,4.400 L2.498,1.000 L2.954,4.400 L3.409,1.000 L3.929,4.400 L4.448,1.000 L5.040,4.400 L5.633,1.000 L6.309,4.400 L6.984,1.000 L7.755,4.400 L8.526,1.000 L9.405,4.400 L10.284,1.000 L11.287,4.400 L12.290,1.000 L13.434,4.400 L14.577,1.000 L15.882,4.400 L17.187,1.000 L18.675,4.400 L20.163,1.000 L21.860,4.400 L23.558,1.000 L25.258,4.400 L26.958,1.000 L28.658,4.400 L30.358,1.000 L32.058,4.400 L33.758,1.000 L35.458,4.400 L37.158,1.000 L38.858,4.400 L40.558,1.000 L42.258,4.400 L43.958,1.000 L45.506,4.400 L47.054,1.000 L48.385,4.400 L49.715,1.000 L50.859,4.400 L52.002,1.000 L52.985,4.400 L53.968,1.000 L54.812,4.400 L55.657,1.000 L56.382,4.400 L57.108,1.000 L57.732,4.400 L58.355,1.000 L58.891,4.400 L59.427,1.000 L59.888,4.400 L60.348,1.000 L60.744,4.400 L60.663,3.705 L60.744,4.400 L60.663,3.705 L60.744,4.400 M1.000,14.700 L1.700,14.700 L1.000,14.700 L1.700,14.700 L1.000,14.700 M1.000,14.700 L1.350,13.000 L1.700,16.400 L2.054,13.000 L2.409,16.400 L2.777,13.000 L3.145,16.400 L3.536,13.000 L3.927,16.400 L4.353,13.000 L4.779,16.400 L5.254,13.000 L5.729,16.400 L6.271,13.000 L6.813,16.400 L7.446,13.000 L8.079,16.400 L8.833,13.000 L9.588,16.400 L10.501,13.000 L11.415,16.400 L12.530,13.000 L13.645,16.400 L14.992,13.000 L16.340,16.400 L17.909,13.000 L19.479,16.400 L21.175,13.000 L22.870,16.400 L24.570,13.000 L26.270,16.400 L27.970,13.000 L29.670,16.400 L31.370,13.000 L33.070,16.400 L34.770,13.000 L36.470,16.400 L38.170,13.000 L39.870,16.400 L41.570,13.000 L43.270,16.400 L44.950,13.000 L46.631,16.400 L48.131,13.000 L49.631,16.400 L50.848,13.000 L52.066,16.400 L53.018,13.000 L53.969,16.400 L54.719,13.000 L55.468,16.400 L56.076,13.000 L56.685,16.400 L57.196,13.000 L57.707,16.400 L58.153,13.000 L58.599,16.400 L59.000,13.000 L59.401,16.400 L59.774,13.000 L60.147,16.400 L60.504,13.000 L60.860,16.400 L60.787,15.704 L60.860,16.400 L60.787,15.704 L60.860,16.400 M1.000,26.700 L1.700,26.700 L1.000,26.700 L1.700,26.700 L1.000,26.700 M1.000,26.700 L1.350,25.000 L1.700,28.400 L2.050,25.000 L2.401,28.400 L2.753,25.000 L3.105,28.400 L3.462,25.000 L3.819,28.400 L4.186,25.000 L4.553,28.400 L4.937,25.000 L5.322,28.400 L5.733,25.000 L6.145,28.400 L6.599,25.000 L7.053,28.400 L7.572,25.000 L8.091,28.400 L8.713,25.000 L9.335,28.400 L10.127,25.000 L10.918,28.400 L12.008,25.000 L13.098,28.400 L14.525,25.000 L15.952,28.400 L17.593,25.000 L19.235,28.400 L20.934,25.000 L22.633,28.400 L24.333,25.000 L26.033,28.400 L27.733,25.000 L29.433,28.400 L31.133,25.000 L32.833,28.400 L34.533,25.000 L36.233,28.400 L37.933,25.000 L39.633,28.400 L41.333,25.000 L43.033,28.400 L44.732,25.000 L46.430,28.400 L48.055,25.000 L49.679,28.400 L51.006,25.000 L52.333,28.400 L53.179,25.000 L54.026,28.400 L54.635,25.000 L55.244,28.400 L55.739,25.000 L56.235,28.400 L56.667,25.000 L57.100,28.400 L57.495,25.000 L57.890,28.400 L58.263,25.000 L58.636,28.400 L58.996,25.000 L59.356,28.400 L59.710,25.000 L60.063,28.400 L60.414,25.000 L60.764,28.400 L60.693,27.704 L60.764,28.400 L60.693,27.704 L60.764,28.400 M1.000,38.700 L1.700,38.700 L1.000,38.700 L1.700,38.700 L1.000,38.700 M1.000,38.700 L1.350,37.000 L1.700,40.400 L2.147,37.000 L2.593,40.400 L3.158,37.000 L3.723,40.400 L4.429,37.000 L5.134,40.400 L6.003,37.000 L6.872,40.400 L7.921,37.000 L8.971,40.400 L10.209,37.000 L11.447,40.400 L12.867,37.000 L14.286,40.400 L15.858,37.000 L17.430,40.400 L19.102,37.000 L20.774,40.400 L22.474,37.000 L24.174,40.400 L25.874,37.000 L27.574,40.400 L29.274,37.000 L30.974,40.400 L32.674,37.000 L34.374,40.400 L36.074,37.000 L37.774,40.400 L39.474,37.000 L41.174,40.400 L42.874,37.000 L44.574,40.400 L46.246,37.000 L47.917,40.400 L49.480,37.000 L51.043,40.400 L52.430,37.000 L53.818,40.400 L54.989,37.000 L56.160,40.400 L57.105,37.000 L58.050,40.400 L58.783,37.000 L59.516,40.400 L60.066,37.000 L60.617,40.400 L60.505,39.709 L60.617,40.400 L60.505,39.709 L60.617,40.400 M1.000,50.700 L1.700,50.700 L1.000,50.700 L1.700,50.700 L1.000,50.700 M1.000,50.700 L1.350,49.000 L1.700,52.400 L2.643,49.000 L3.585,52.400 L5.789,49.000 L7.993,52.400 L9.668,49.000 L11.344,52.400 L13.035,49.000 L14.726,52.400 L16.433,49.000 L18.140,52.400 L19.837,49.000 L21.534,52.400 L23.234,49.000 L24.934,52.400 L26.634,49.000 L28.334,52.400 L30.034,49.000 L31.734,52.400 L33.434,49.000 L35.134,52.400 L36.834,49.000 L38.534,52.400 L40.234,49.000 L41.934,52.400 L43.635,49.000 L45.335,52.400 L47.036,49.000 L48.737,52.400 L50.426,49.000 L52.115,52.400 L53.868,49.000 L55.620,52.400 L57.143,49.000 L58.666,52.400 L60.847,49.000 L60.469,49.589 L60.847,49.000 L60.469,49.589 L60.847,49.000"/>
</svg>
