<svg xmlns="http://www.w3.org/2000/svg" viewBox="0 -5.237 71.879 71.879" width="256" height="256">
  <title>echo</title>
  <rect x="0" y="-5.237" width="71.879" height="71.879" fill="#f5efe4"/>
  <path fill="none" stroke="#c8472f" stroke-width="0.4" stroke-linecap="round" stroke-linejoin="round" d="M6.189,4.186 L6.189,4.186 L7.695,3.643 L8.460,2.238 L9.878,1.497 L11.477,1.561 L13.076,1.506 L14.673,1.410 L16.264,1.241 L17.846,1.000 L19.382,1.448 L19.768,3.000 L19.579,4.589 L19.575,6.189 L19.587,7.789 L19.613,9.389 L19.667,10.988 L19.769,12.585 L19.918,14.178 L19.985,15.776 L19.844,17.370 L19.283,18.868 L17.961,19.770 L16.534,19.046 L15.601,17.746 L14.280,16.844 L12.724,16.469 L11.137,16.272 L9.552,16.050 L7.994,15.686 L6.498,15.120 L4.902,15.004 L3.992,16.321 L3.736,17.900 L3.117,19.376 L2.264,20.729 L1.447,22.105 L1.000,23.641 L1.170,25.232 L2.030,26.581 L3.405,27.399 L5.005,27.403 L6.385,26.593 L7.646,25.608 L9.161,25.095 L10.751,25.274 L12.038,26.225 L12.971,27.525 L13.502,29.035 L13.591,30.632 L13.838,32.213 L14.402,33.710 L15.489,34.884 L17.005,35.397 L18.572,35.719 L20.053,36.326 L21.273,37.361 L22.140,38.705 L22.626,40.229 L22.719,41.827 L22.527,43.415 L22.280,44.996 L22.103,46.586 L21.654,48.122 L20.972,49.570 L20.290,51.017 L19.776,52.532 L19.581,54.120 L19.520,55.719 L19.407,57.315 L19.160,58.896 L18.629,60.405 L18.861,59.745 L18.629,60.405 L18.861,59.745 L18.629,60.405"/>
  <path fill="none" stroke="#3a4e8c" stroke-width="0.4" stroke-linecap="round" stroke-linejoin="round" d="M56.684,3.643 L56.349,3.029 L56.684,3.643 L56.349,3.029 L56.684,3.643 L55.919,2.238 L54.501,1.497 L52.902,1.561 L51.303,1.506 L49.706,1.410 L48.115,1.241 L46.533,1.000 L44.997,1.448 L44.611,3.000 L44.800,4.589 L44.804,6.189 L44.792,7.789 L44.765,9.389 L44.712,10.988 L44.610,12.585 L44.461,14.178 L44.394,15.776 L44.534,17.370 L45.096,18.868 L46.418,19.770 L47.844,19.046 L48.777,17.746 L50.099,16.844 L51.654,16.469 L53.242,16.272 L54.827,16.050 L56.385,15.686 L57.881,15.120 L59.477,15.004 L60.386,16.321 L60.643,17.900 L61.262,19.376 L62.115,20.729 L62.932,22.105 L63.379,23.641 L63.209,25.232 L62.349,26.581 L60.974,27.399 L59.374,27.403 L57.994,26.593 L56.733,25.608 L55.218,25.095 L53.628,25.274 L52.341,26.225 L51.408,27.525 L50.877,29.035 L50.788,30.632 L50.541,32.213 L49.977,33.710 L48.890,34.884 L47.374,35.397 L45.807,35.719 L44.326,36.326 L43.106,37.361 L42.239,38.705 L41.752,40.229 L41.660,41.827 L41.852,43.415 L42.099,44.996 L42.276,46.586 L42.725,48.122 L43.406,49.570 L44.089,51.017 L44.603,52.532 L44.798,54.120 L44.859,55.719 L44.972,57.315 L45.219,58.896 L45.750,60.405 L45.518,59.745 L45.750,60.405 L45.518,59.745 L45.750,60.405"/>
  <path fill="none" stroke="#2b2b2b" stroke-width="0.4" stroke-linecap="round" stroke-linejoin="round" d="M59.184,3.643 L58.849,3.029 L59.184,3.643 L58.849,3.029 L59.184,3.643 L58.419,2.238 L57.001,1.497 L55.402,1.561 L53.803,1.506 L52.206,1.410 L50.615,1.241 L49.033,1.000 L47.497,1.448 L47.111,3.000 L47.300,4.589 L47.304,6.189 L47.292,7.789 L47.265,9.389 L47.212,10.988 L47.110,12.585 L46.961,14.178 L46.894,15.776 L47.034,17.370 L47.596,18.868 L48.918,19.770 L50.344,19.046 L51.277,17.746 L52.599,16.844 L54.154,16.469 L55.742,16.272 L57.327,16.050 L58.885,15.686 L60.381,15.120 L61.977,15.004 L62.886,16.321 L63.143,17.900 L63.762,19.376 L64.615,20.729 L65.432,22.105 L65.879,23.641 L65.709,25.232 L64.849,26.581 L63.474,27.399 L61.874,27.403 L60.494,26.593 L59.233,25.608 L57.718,25.095 L56.128,25.274 L54.841,26.225 L53.908,27.525 L53.377,29.035 L53.288,30.632 L53.041,32.213 L52.477,33.710 L51.390,34.884 L49.874,35.397 L48.307,35.719 L46.826,36.326 L45.606,37.361 L44.739,38.705 L44.252,40.229 L44.160,41.827 L44.352,43.415 L44.599,44.996 L44.776,46.586 L45.225,48.122 L45.906,49.570 L46.589,51.017 L47.103,52.532 L47.298,54.120 L47.359,55.719 L47.472,57.315 L47.719,58.896 L48.250,60.405 L48.018,59.745 L48.250,60.405 L48.018,59.745 L48.250,60.405"/>
  <path fill="none" stroke="#b8651b" stroke-width="0.4" stroke-linecap="round" stroke-linejoin="round" d="M61.684,3.643 L61.349,3.029 L61.684,3.643 L61.349,3.029 L61.684,3.643 L60.919,2.238 L59.501,1.497 L57.902,1.561 L56.303,1.506 L54.706,1.410 L53.115,1.241 L51.533,1.000 L49.997,1.448 L49.611,3.000 L49.800,4.589 L49.804,6.189 L49.792,7.789 L49.765,9.389 L49.712,10.988 L49.610,12.585 L49.461,14.178 L49.394,15.776 L49.534,17.370 L50.096,18.868 L51.418,19.770 L52.844,19.046 L53.777,17.746 L55.099,16.844 L56.654,16.469 L58.242,16.272 L59.827,16.050 L61.385,15.686 L62.881,15.120 L64.477,15.004 L65.386,16.321 L65.643,17.900 L66.262,19.376 L67.115,20.729 L67.932,22.105 L68.379,23.641 L68.209,25.232 L67.349,26.581 L65.974,27.399 L64.374,27.403 L62.994,26.593 L61.733,25.608 L60.218,25.095 L58.628,25.274 L57.341,26.225 L56.408,27.525 L55.877,29.035 L55.788,30.632 L55.541,32.213 L54.977,33.710 L53.890,34.884 L52.374,35.397 L50.807,35.719 L49.326,36.326 L48.106,37.361 L47.239,38.705 L46.752,40.229 L46.660,41.827 L46.852,43.415 L47.099,44.996 L47.276,46.586 L47.725,48.122 L48.406,49.570 L49.089,51.017 L49.603,52.532 L49.798,54.120 L49.859,55.719 L49.972,57.315 L50.219,58.896 L50.750,60.405 L50.518,59.745 L50.750,60.405 L50.518,59.745 L50.750,60.405"/>
  <path fill="none" stroke="#d9a441" stroke-width="0.4" stroke-linecap="round" stroke-linejoin="round" d="M64.184,3.643 L63.849,3.029 L64.184,3.643 L63.849,3.029 L64.184,3.643 L63.419,2.238 L62.001,1.497 L60.402,1.561 L58.803,1.506 L57.206,1.410 L55.615,1.241 L54.033,1.000 L52.497,1.448 L52.111,3.000 L52.300,4.589 L52.304,6.189 L52.292,7.789 L52.265,9.389 L52.212,10.988 L52.110,12.585 L51.961,14.178 L51.894,15.776 L52.034,17.370 L52.596,18.868 L53.918,19.770 L55.344,19.046 L56.277,17.746 L57.599,16.844 L59.154,16.469 L60.742,16.272 L62.327,16.050 L63.885,15.686 L65.381,15.120 L66.977,15.004 L67.886,16.321 L68.143,17.900 L68.762,19.376 L69.615,20.729 L70.432,22.105 L70.879,23.641 L70.709,25.232 L69.849,26.581 L68.474,27.399 L66.874,27.403 L65.494,26.593 L64.233,25.608 L62.718,25.095 L61.128,25.274 L59.841,26.225 L58.908,27.525 L58.377,29.035 L58.288,30.632 L58.041,32.213 L57.477,33.710 L56.390,34.884 L54.874,35.397 L53.307,35.719 L51.826,36.326 L50.606,37.361 L49.739,38.705 L49.252,40.229 L49.160,41.827 L49.352,43.415 L49.599,44.996 L49.776,46.586 L50.225,48.122 L50.906,49.570 L51.589,51.017 L52.103,52.532 L52.298,54.120 L52.359,55.719 L52.472,57.315 L52.719,58.896 L53.250,60.405 L53.018,59.745 L53.250,60.405 L53.018,59.745 L53.250,60.405"/>
</svg>
