<svg xmlns="http://www.w3.org/2000/svg" viewBox="0 -3.6 54.2 54.2" width="256" height="256">
  <title>echofill</title>
  <rect x="0" y="-3.6" width="54.2" height="54.2" fill="#f5efe4"/>
  <path fill="none" stroke="#3a4e8c" stroke-width="0.4" stroke-linecap="round" stroke-linejoin="round" d="M1.000,46.000 L1.000,46.000 L2.933,46.000 L4.867,46.000 L6.800,46.000 L8.733,46.000 L10.667,46.000 L12.600,46.000 L14.533,46.000 L16.467,46.000 L18.400,46.000 L20.333,46.000 L22.267,46.000 L24.200,46.000 L26.133,46.000 L28.067,46.000 L30.000,46.000 L31.933,46.000 L33.867,46.000 L35.800,46.000 L37.733,46.000 L39.667,46.000 L41.600,46.000 L43.533,46.000 L45.467,46.000 L47.400,46.000 L49.333,46.000 L51.267,46.000 L53.200,46.000 L52.233,44.333 L51.267,42.667 L50.300,41.000 L49.333,39.333 L48.367,37.667 L47.400,36.000 L46.433,34.333 L45.467,32.667 L44.500,31.000 L43.533,29.333 L42.567,27.667 L41.600,26.000 L40.633,24.333 L39.667,22.667 L38.700,21.000 L37.733,19.333 L36.767,17.667 L35.800,16.000 L34.833,14.333 L33.867,12.667 L32.900,11.000 L31.933,9.333 L30.967,7.667 L30.000,6.000 L29.033,4.333 L28.067,2.667 L27.100,1.000 L26.133,2.667 L25.167,4.333 L24.200,6.000 L23.233,7.667 L22.267,9.333 L21.300,11.000 L20.333,12.667 L19.367,14.333 L18.400,16.000 L17.433,17.667 L16.467,19.333 L15.500,21.000 L14.533,22.667 L13.567,24.333 L12.600,26.000 L11.633,27.667 L10.667,29.333 L9.700,31.000 L8.733,32.667 L7.767,34.333 L6.800,36.000 L5.833,37.667 L4.867,39.333 L3.900,41.000 L2.933,42.667 L1.967,44.333 L1.000,46.000 L1.351,45.394 L1.000,46.000 L1.351,45.394 L1.000,46.000 M51.811,45.200 L51.460,44.594 L51.811,45.200 L51.460,44.594 L51.811,45.200 L50.823,43.496 L49.834,41.792 L48.846,40.087 L47.857,38.383 L46.869,36.679 L45.880,34.975 L44.892,33.271 L43.903,31.566 L42.915,29.862 L41.927,28.158 L40.938,26.454 L39.950,24.750 L38.961,23.045 L37.973,21.341 L36.984,19.637 L35.996,17.933 L35.008,16.229 L34.019,14.524 L33.031,12.820 L32.042,11.116 L31.054,9.412 L30.065,7.708 L29.077,6.003 L28.088,4.299 L27.100,2.595 L26.112,4.299 L25.123,6.003 L24.135,7.708 L23.146,9.412 L22.158,11.116 L21.169,12.820 L20.181,14.524 L19.192,16.229 L18.204,17.933 L17.216,19.637 L16.227,21.341 L15.239,23.045 L14.250,24.750 L13.262,26.454 L12.273,28.158 L11.285,29.862 L10.297,31.566 L9.308,33.271 L8.320,34.975 L7.331,36.679 L6.343,38.383 L5.354,40.087 L4.366,41.792 L3.377,43.496 L2.389,45.200 L4.366,45.200 L6.343,45.200 L8.320,45.200 L10.297,45.200 L12.273,45.200 L14.250,45.200 L16.227,45.200 L18.204,45.200 L20.181,45.200 L22.158,45.200 L24.135,45.200 L26.112,45.200 L28.088,45.200 L30.065,45.200 L32.042,45.200 L34.019,45.200 L35.996,45.200 L37.973,45.200 L39.950,45.200 L41.927,45.200 L43.903,45.200 L45.880,45.200 L47.857,45.200 L49.834,45.200 L51.811,45.200 M50.422,44.400 L49.450,42.725 L48.478,41.049 L47.507,39.374 L46.535,37.698 L45.563,36.023 L44.591,34.347 L43.620,32.672 L42.648,30.997 L41.676,29.321 L40.705,27.646 L39.733,25.970 L38.761,24.295 L37.789,22.620 L36.818,20.944 L35.846,19.269 L34.874,17.593 L33.902,15.918 L32.931,14.242 L31.959,12.567 L30.987,10.892 L30.015,9.216 L29.044,7.541 L28.072,5.865 L27.100,4.190 L26.128,5.865 L25.157,7.541 L24.185,9.216 L23.213,10.892 L22.241,12.567 L21.270,14.242 L20.298,15.918 L19.326,17.593 L18.354,19.269 L17.383,20.944 L16.411,22.620 L15.439,24.295 L14.467,25.970 L13.496,27.646 L12.524,29.321 L11.552,30.997 L10.580,32.672 L9.609,34.347 L8.637,36.023 L7.665,37.698 L6.693,39.374 L5.722,41.049 L4.750,42.725 L3.778,44.400 L5.722,44.400 L7.665,44.400 L9.609,44.400 L11.552,44.400 L13.496,44.400 L15.439,44.400 L17.383,44.400 L19.326,44.400 L21.270,44.400 L23.213,44.400 L25.157,44.400 L27.100,44.400 L29.043,44.400 L30.987,44.400 L32.931,44.400 L34.874,44.400 L36.818,44.400 L38.761,44.400 L40.704,44.400 L42.648,44.400 L44.591,44.400 L46.535,44.400 L48.478,44.400 L50.422,44.400 M49.033,43.600 L48.036,41.881 L47.039,40.162 L46.042,38.443 L45.045,36.725 L44.048,35.006 L43.051,33.287 L42.054,31.568 L41.057,29.849 L40.060,28.130 L39.063,26.411 L38.067,24.693 L37.070,22.974 L36.073,21.255 L35.076,19.536 L34.079,17.817 L33.082,16.098 L32.085,14.379 L31.088,12.660 L30.091,10.942 L29.094,9.223 L28.097,7.504 L27.100,5.785 L26.103,7.504 L25.106,9.223 L24.109,10.942 L23.112,12.660 L22.115,14.379 L21.118,16.098 L20.121,17.817 L19.124,19.536 L18.127,21.255 L17.130,22.974 L16.134,24.692 L15.137,26.411 L14.140,28.130 L13.143,29.849 L12.146,31.568 L11.149,33.287 L10.152,35.006 L9.155,36.725 L8.158,38.443 L7.161,40.162 L6.164,41.881 L5.167,43.600 L7.161,43.600 L9.155,43.600 L11.149,43.600 L13.143,43.600 L15.137,43.600 L17.130,43.600 L19.124,43.600 L21.118,43.600 L23.112,43.600 L25.106,43.600 L27.100,43.600 L29.094,43.600 L31.088,43.600 L33.082,43.600 L35.076,43.600 L37.070,43.600 L39.063,43.600 L41.057,43.600 L43.051,43.600 L45.045,43.600 L47.039,43.600 L49.033,43.600 M47.644,42.800 L46.666,41.113 L45.687,39.427 L44.709,37.740 L43.731,36.053 L42.753,34.367 L41.774,32.680 L40.796,30.993 L39.818,29.307 L38.839,27.620 L37.861,25.933 L36.883,24.247 L35.905,22.560 L34.926,20.873 L33.948,19.187 L32.970,17.500 L31.991,15.813 L31.013,14.127 L30.035,12.440 L29.057,10.753 L28.078,9.067 L27.100,7.380 L26.122,9.067 L25.143,10.753 L24.165,12.440 L23.187,14.127 L22.209,15.813 L21.230,17.500 L20.252,19.187 L19.274,20.873 L18.295,22.560 L17.317,24.247 L16.339,25.933 L15.361,27.620 L14.382,29.307 L13.404,30.993 L12.426,32.680 L11.447,34.367 L10.469,36.053 L9.491,37.740 L8.513,39.427 L7.534,41.113 L6.556,42.800 L8.513,42.800 L10.469,42.800 L12.426,42.800 L14.382,42.800 L16.339,42.800 L18.295,42.800 L20.252,42.800 L22.209,42.800 L24.165,42.800 L26.122,42.800 L28.078,42.800 L30.035,42.800 L31.991,42.800 L33.948,42.800 L35.905,42.800 L37.861,42.800 L39.818,42.800 L41.774,42.800 L43.731,42.800 L45.687,42.800 L47.644,42.800 M46.255,42.000 L45.297,40.349 L44.340,38.697 L43.382,37.046 L42.424,35.395 L41.466,33.744 L40.508,32.093 L39.551,30.441 L38.593,28.790 L37.635,27.139 L36.678,25.488 L35.720,23.836 L34.762,22.185 L33.804,20.534 L32.847,18.883 L31.889,17.231 L30.931,15.580 L29.973,13.929 L29.015,12.277 L28.058,10.626 L27.100,8.975 L26.142,10.626 L25.184,12.278 L24.227,13.929 L23.269,15.580 L22.311,17.231 L21.354,18.883 L20.396,20.534 L19.438,22.185 L18.480,23.836 L17.523,25.488 L16.565,27.139 L15.607,28.790 L14.649,30.441 L13.692,32.093 L12.734,33.744 L11.776,35.395 L10.818,37.046 L9.860,38.698 L8.903,40.349 L7.945,42.000 L9.861,42.000 L11.776,42.000 L13.692,42.000 L15.607,42.000 L17.523,42.000 L19.438,42.000 L21.354,42.000 L23.269,42.000 L25.185,42.000 L27.100,42.000 L29.016,42.000 L30.931,42.000 L32.847,42.000 L34.762,42.000 L36.678,42.000 L38.593,42.000 L40.508,42.000 L42.424,42.000 L44.340,42.000 L46.255,42.000 M44.866,41.200 L43.879,39.498 L42.892,37.797 L41.905,36.095 L40.918,34.393 L39.931,32.692 L38.944,30.990 L37.957,29.288 L36.970,27.587 L35.983,25.885 L34.996,24.183 L34.009,22.482 L33.022,20.780 L32.035,19.078 L31.048,17.377 L30.061,15.675 L29.074,13.973 L28.087,12.272 L27.100,10.570 L26.113,12.272 L25.126,13.973 L24.139,15.675 L23.152,17.377 L22.165,19.078 L21.178,20.780 L20.191,22.482 L19.204,24.183 L18.217,25.885 L17.230,27.587 L16.243,29.288 L15.256,30.990 L14.269,32.692 L13.282,34.393 L12.295,36.095 L11.308,37.797 L10.321,39.498 L9.334,41.200 L11.308,41.200 L13.282,41.200 L15.256,41.200 L17.230,41.200 L19.204,41.200 L21.178,41.200 L23.152,41.200 L25.126,41.200 L27.100,41.200 L29.074,41.200 L31.048,41.200 L33.022,41.200 L34.996,41.200 L36.970,41.200 L38.944,41.200 L40.918,41.200 L42.892,41.200 L44.866,41.200 M43.477,40.400 L42.514,38.739 L41.550,37.078 L40.587,35.417 L39.624,33.756 L38.660,32.096 L37.697,30.435 L36.734,28.774 L35.770,27.113 L34.807,25.452 L33.843,23.791 L32.880,22.130 L31.917,20.469 L30.953,18.809 L29.990,17.148 L29.027,15.487 L28.063,13.826 L27.100,12.165 L26.137,13.826 L25.173,15.487 L24.210,17.148 L23.247,18.809 L22.283,20.469 L21.320,22.130 L20.357,23.791 L19.393,25.452 L18.430,27.113 L17.466,28.774 L16.503,30.435 L15.540,32.096 L14.576,33.756 L13.613,35.417 L12.650,37.078 L11.686,38.739 L10.723,40.400 L12.650,40.400 L14.576,40.400 L16.503,40.400 L18.430,40.400 L20.357,40.400 L22.283,40.400 L24.210,40.400 L26.137,40.400 L28.063,40.400 L29.990,40.400 L31.917,40.400 L33.843,40.400 L35.770,40.400 L37.697,40.400 L39.624,40.400 L41.550,40.400 L43.477,40.400 M42.088,39.600 L41.089,37.877 L40.090,36.155 L39.090,34.432 L38.091,32.709 L37.092,30.987 L36.093,29.264 L35.094,27.541 L34.094,25.819 L33.095,24.096 L32.096,22.373 L31.097,20.651 L30.098,18.928 L29.098,17.205 L28.099,15.483 L27.100,13.760 L26.101,15.483 L25.102,17.205 L24.102,18.928 L23.103,20.651 L22.104,22.373 L21.105,24.096 L20.106,25.819 L19.106,27.541 L18.107,29.264 L17.108,30.987 L16.109,32.709 L15.110,34.432 L14.110,36.155 L13.111,37.877 L12.112,39.600 L14.110,39.600 L16.109,39.600 L18.107,39.600 L20.106,39.600 L22.104,39.600 L24.102,39.600 L26.101,39.600 L28.099,39.600 L30.098,39.600 L32.096,39.600 L34.094,39.600 L36.093,39.600 L38.091,39.600 L40.090,39.600 L42.088,39.600 M40.699,38.800 L39.728,37.125 L38.756,35.451 L37.785,33.776 L36.814,32.101 L35.842,30.427 L34.871,28.752 L33.900,27.078 L32.928,25.403 L31.957,23.728 L30.985,22.054 L30.014,20.379 L29.043,18.704 L28.071,17.030 L27.100,15.355 L26.129,17.030 L25.157,18.704 L24.186,20.379 L23.215,22.054 L22.243,23.728 L21.272,25.403 L20.300,27.078 L19.329,28.752 L18.358,30.427 L17.386,32.101 L16.415,33.776 L15.444,35.451 L14.472,37.125 L13.501,38.800 L15.444,38.800 L17.386,38.800 L19.329,38.800 L21.272,38.800 L23.215,38.800 L25.157,38.800 L27.100,38.800 L29.043,38.800 L30.985,38.800 L32.928,38.800 L34.871,38.800 L36.814,38.800 L38.756,38.800 L40.699,38.800 M39.310,38.000 L38.371,36.381 L37.432,34.762 L36.492,33.142 L35.553,31.523 L34.614,29.904 L33.675,28.285 L32.735,26.665 L31.796,25.046 L30.857,23.427 L29.918,21.808 L28.978,20.188 L28.039,18.569 L27.100,16.950 L26.161,18.569 L25.222,20.188 L24.282,21.808 L23.343,23.427 L22.404,25.046 L21.465,26.665 L20.525,28.285 L19.586,29.904 L18.647,31.523 L17.708,33.142 L16.768,34.762 L15.829,36.381 L14.890,38.000 L16.768,38.000 L18.647,38.000 L20.525,38.000 L22.404,38.000 L24.282,38.000 L26.161,38.000 L28.039,38.000 L29.918,38.000 L31.796,38.000 L33.675,38.000 L35.553,38.000 L37.432,38.000 L39.310,38.000 M37.921,37.200 L36.937,35.504 L35.954,33.808 L34.970,32.112 L33.986,30.416 L33.002,28.720 L32.019,27.025 L31.035,25.329 L30.051,23.633 L29.067,21.937 L28.084,20.241 L27.100,18.545 L26.116,20.241 L25.133,21.937 L24.149,23.633 L23.165,25.329 L22.181,27.025 L21.198,28.720 L20.214,30.416 L19.230,32.112 L18.246,33.808 L17.263,35.504 L16.279,37.200 L18.246,37.200 L20.214,37.200 L22.181,37.200 L24.149,37.200 L26.116,37.200 L28.084,37.200 L30.051,37.200 L32.019,37.200 L33.986,37.200 L35.954,37.200 L37.921,37.200 M36.532,36.400 L35.589,34.774 L34.646,33.148 L33.702,31.522 L32.759,29.896 L31.816,28.270 L30.873,26.643 L29.930,25.017 L28.986,23.391 L28.043,21.765 L27.100,20.139 L26.157,21.765 L25.214,23.391 L24.270,25.017 L23.327,26.643 L22.384,28.270 L21.441,29.896 L20.498,31.522 L19.554,33.148 L18.611,34.774 L17.668,36.400 L19.554,36.400 L21.441,36.400 L23.327,36.400 L25.214,36.400 L27.100,36.400 L28.986,36.400 L30.873,36.400 L32.759,36.400 L34.646,36.400 L36.532,36.400 M35.143,35.600 L34.249,34.059 L33.356,32.519 L32.462,30.978 L31.568,29.437 L30.675,27.897 L29.781,26.356 L28.887,24.815 L27.994,23.275 L27.100,21.734 L26.206,23.275 L25.313,24.815 L24.419,26.356 L23.525,27.897 L22.632,29.437 L21.738,30.978 L20.844,32.519 L19.951,34.059 L19.057,35.600 L20.844,35.600 L22.632,35.600 L24.419,35.600 L26.206,35.600 L27.994,35.600 L29.781,35.600 L31.568,35.600 L33.356,35.600 L35.143,35.600 M33.754,34.800 L32.803,33.161 L31.853,31.522 L30.902,29.883 L29.952,28.245 L29.001,26.606 L28.051,24.967 L27.100,23.328 L26.149,24.967 L25.199,26.606 L24.248,28.245 L23.298,29.883 L22.347,31.522 L21.397,33.161 L20.446,34.800 L22.347,34.800 L24.248,34.800 L26.149,34.800 L28.051,34.800 L29.952,34.800 L31.853,34.800 L33.754,34.800 M32.365,34.000 L31.488,32.487 L30.610,30.974 L29.733,29.462 L28.855,27.949 L27.977,26.436 L27.100,24.923 L26.223,26.436 L25.345,27.949 L24.468,29.462 L23.590,30.974 L22.713,32.487 L21.835,34.000 L23.590,34.000 L25.345,34.000 L27.100,34.000 L28.855,34.000 L30.610,34.000 L32.365,34.000 M30.976,33.200 L30.007,31.529 L29.038,29.859 L28.069,28.189 L27.100,26.518 L26.131,28.189 L25.162,29.859 L24.193,31.529 L23.224,33.200 L25.162,33.200 L27.100,33.200 L29.038,33.200 L30.976,33.200 M29.587,32.400 L28.758,30.971 L27.929,29.541 L27.100,28.112 L26.271,29.541 L25.442,30.971 L24.613,32.400 L26.271,32.400 L27.929,32.400 L29.587,32.400 M28.198,31.600 L27.649,30.654 L27.100,29.707 L26.551,30.654 L26.002,31.600 L27.100,31.600 L28.198,31.600 L27.498,31.600 L28.198,31.600 L27.498,31.600 L28.198,31.600"/>
</svg>
