<svg xmlns="http://www.w3.org/2000/svg" viewBox="0 -0.001 85.997 85.997" width="256" height="256">
  <title>eclipse</title>
  <rect x="0" y="-0.001" width="85.997" height="85.997" fill="#f5efe4"/>
  <path fill="none" stroke="#8c4a6b" stroke-width="0.4" stroke-linecap="round" stroke-linejoin="round" d="M42.911,34.999 L42.911,34.999 L42.894,33.454 L42.877,31.909 L42.861,30.363 L42.844,28.818 L42.827,27.272 L42.810,25.727 L42.793,24.182 L42.776,22.636 L42.759,21.091 L42.743,19.546 L42.726,18.000 L42.709,16.455 L42.692,14.910 L42.675,13.364 L42.658,11.819 L42.642,10.273 L42.625,8.728 L42.608,7.183 L42.591,5.637 L42.574,4.092 L42.557,2.547 L42.540,1.001 L42.548,1.701 L42.540,1.001 L42.548,1.701 L42.540,1.001 M43.059,34.999 L43.064,34.299 L43.059,34.999 L43.064,34.299 L43.059,34.999 L43.070,33.454 L43.082,31.908 L43.093,30.363 L43.105,28.817 L43.117,27.272 L43.128,25.727 L43.140,24.181 L43.152,22.636 L43.163,21.090 L43.175,19.545 L43.187,18.000 L43.198,16.454 L43.210,14.909 L43.221,13.363 L43.233,11.818 L43.245,10.272 L43.256,8.727 L43.268,7.182 L43.280,5.636 L43.291,4.091 L43.303,2.545 L43.315,1.000 L43.309,1.700 L43.315,1.000 L43.309,1.700 L43.315,1.000 M43.249,35.003 L43.271,34.303 L43.249,35.003 L43.271,34.303 L43.249,35.003 L43.297,33.458 L43.346,31.913 L43.394,30.369 L43.442,28.824 L43.491,27.279 L43.539,25.735 L43.588,24.190 L43.636,22.645 L43.684,21.100 L43.733,19.556 L43.781,18.011 L43.830,16.466 L43.878,14.922 L43.926,13.377 L43.975,11.832 L44.023,10.288 L44.071,8.743 L44.120,7.198 L44.168,5.653 L44.217,4.109 L44.265,2.564 L44.313,1.019 L44.292,1.719 L44.313,1.019 L44.292,1.719 L44.313,1.019 M43.492,35.014 L43.536,34.315 L43.492,35.014 L43.536,34.315 L43.492,35.014 L43.588,33.472 L43.683,31.929 L43.779,30.387 L43.874,28.844 L43.969,27.302 L44.065,25.759 L44.160,24.217 L44.256,22.674 L44.351,21.132 L44.447,19.589 L44.542,18.047 L44.637,16.504 L44.733,14.961 L44.828,13.419 L44.924,11.876 L45.019,10.334 L45.115,8.791 L45.210,7.249 L45.305,5.706 L45.401,4.164 L45.496,2.621 L45.592,1.079 L45.548,1.778 L45.592,1.079 L45.548,1.778 L45.592,1.079 M43.788,35.038 L43.857,34.341 L43.788,35.038 L43.857,34.341 L43.788,35.038 L43.941,33.500 L44.093,31.962 L44.246,30.424 L44.398,28.886 L44.551,27.348 L44.704,25.810 L44.856,24.273 L45.009,22.735 L45.161,21.197 L45.314,19.659 L45.467,18.121 L45.619,16.583 L45.772,15.045 L45.924,13.507 L46.077,11.969 L46.229,10.431 L46.382,8.894 L46.535,7.356 L46.687,5.818 L46.840,4.280 L46.992,2.742 L47.145,1.204 L47.076,1.901 L47.145,1.204 L47.076,1.901 L47.145,1.204 M44.126,35.079 L44.224,34.386 L44.126,35.079 L44.224,34.386 L44.126,35.079 L44.343,33.549 L44.561,32.019 L44.779,30.489 L44.997,28.958 L45.214,27.428 L45.432,25.898 L45.650,24.368 L45.868,22.838 L46.085,21.308 L46.303,19.778 L46.521,18.248 L46.739,16.718 L46.956,15.188 L47.174,13.658 L47.392,12.128 L47.610,10.598 L47.827,9.068 L48.045,7.538 L48.263,6.008 L48.481,4.478 L48.698,2.948 L48.916,1.418 L48.818,2.111 L48.916,1.418 L48.818,2.111 L48.916,1.418 M44.490,35.139 L44.621,34.451 L44.490,35.139 L44.621,34.451 L44.490,35.139 L44.778,33.621 L45.066,32.102 L45.355,30.584 L45.643,29.066 L45.931,27.547 L46.219,26.029 L46.507,24.511 L46.795,22.992 L47.084,21.474 L47.372,19.956 L47.660,18.437 L47.948,16.919 L48.236,15.401 L48.524,13.882 L48.813,12.364 L49.101,10.846 L49.389,9.327 L49.677,7.809 L49.965,6.290 L50.253,4.772 L50.542,3.254 L50.830,1.735 L50.699,2.423 L50.830,1.735 L50.699,2.423 L50.830,1.735 M44.869,35.221 L45.033,34.540 L44.869,35.221 L45.033,34.540 L44.869,35.221 L45.231,33.718 L45.592,32.215 L45.954,30.713 L46.315,29.210 L46.676,27.708 L47.038,26.205 L47.399,24.702 L47.761,23.200 L48.122,21.697 L48.484,20.195 L48.845,18.692 L49.206,17.189 L49.568,15.687 L49.929,14.184 L50.291,12.682 L50.652,11.179 L51.014,9.676 L51.375,8.174 L51.736,6.671 L52.098,5.169 L52.459,3.666 L52.821,2.164 L52.657,2.844 L52.821,2.164 L52.657,2.844 L52.821,2.164 M45.250,35.322 L45.447,34.650 L45.250,35.322 L45.447,34.650 L45.250,35.322 L45.685,33.839 L46.120,32.356 L46.555,30.873 L46.989,29.390 L47.424,27.907 L47.859,26.424 L48.294,24.941 L48.729,23.458 L49.164,21.975 L49.599,20.492 L50.034,19.009 L50.469,17.526 L50.904,16.043 L51.339,14.560 L51.774,13.077 L52.209,11.594 L52.644,10.111 L53.079,8.628 L53.514,7.145 L53.948,5.662 L54.383,4.179 L54.818,2.696 L54.621,3.368 L54.818,2.696 L54.621,3.368 L54.818,2.696 M45.618,35.440 L45.847,34.778 L45.618,35.440 L45.847,34.778 L45.618,35.440 L46.124,33.980 L46.630,32.519 L47.136,31.059 L47.642,29.599 L48.148,28.139 L48.654,26.678 L49.160,25.218 L49.666,23.758 L50.172,22.298 L50.678,20.837 L51.185,19.377 L51.691,17.917 L52.197,16.457 L52.703,14.996 L53.209,13.536 L53.715,12.076 L54.221,10.616 L54.727,9.155 L55.233,7.695 L55.739,6.235 L56.245,4.775 L56.751,3.314 L56.522,3.976 L56.751,3.314 L56.522,3.976 L56.751,3.314 M45.962,35.568 L46.221,34.918 L45.962,35.568 L46.221,34.918 L45.962,35.568 L46.535,34.133 L47.107,32.697 L47.680,31.262 L48.252,29.826 L48.825,28.391 L49.397,26.955 L49.970,25.520 L50.542,24.084 L51.115,22.649 L51.687,21.213 L52.260,19.778 L52.832,18.342 L53.405,16.907 L53.977,15.471 L54.550,14.036 L55.122,12.600 L55.695,11.165 L56.267,9.729 L56.840,8.294 L57.412,6.858 L57.985,5.423 L58.557,3.987 L58.298,4.637 L58.557,3.987 L58.298,4.637 L58.557,3.987 M46.274,35.700 L46.560,35.061 L46.274,35.700 L46.560,35.061 L46.274,35.700 L46.906,34.290 L47.539,32.880 L48.172,31.470 L48.805,30.060 L49.437,28.650 L50.070,27.240 L50.703,25.830 L51.335,24.420 L51.968,23.010 L52.601,21.600 L53.234,20.190 L53.866,18.780 L54.499,17.370 L55.132,15.960 L55.765,14.550 L56.397,13.140 L57.030,11.730 L57.663,10.320 L58.295,8.910 L58.928,7.500 L59.561,6.090 L60.194,4.680 L59.907,5.319 L60.194,4.680 L59.907,5.319 L60.194,4.680 M46.548,35.830 L46.859,35.202 L46.548,35.830 L46.859,35.202 L46.548,35.830 L47.234,34.445 L47.920,33.060 L48.606,31.675 L49.291,30.290 L49.977,28.905 L50.663,27.520 L51.349,26.135 L52.035,24.750 L52.720,23.365 L53.406,21.980 L54.092,20.595 L54.778,19.210 L55.464,17.825 L56.149,16.440 L56.835,15.055 L57.521,13.670 L58.207,12.285 L58.892,10.900 L59.578,9.515 L60.264,8.130 L60.950,6.745 L61.636,5.360 L61.325,5.988 L61.636,5.360 L61.325,5.988 L61.636,5.360 M46.786,35.953 L47.118,35.336 L46.786,35.953 L47.118,35.336 L46.786,35.953 L47.518,34.591 L48.250,33.230 L48.982,31.869 L49.714,30.508 L50.446,29.146 L51.177,27.785 L51.909,26.424 L52.641,25.063 L53.373,23.702 L54.105,22.340 L54.836,20.979 L55.568,19.618 L56.300,18.257 L57.032,16.896 L57.764,15.534 L58.495,14.173 L59.227,12.812 L59.959,11.451 L60.691,10.090 L61.423,8.728 L62.154,7.367 L62.886,6.006 L62.555,6.622 L62.886,6.006 L62.555,6.622 L62.886,6.006 M46.994,36.068 L47.344,35.462 L46.994,36.068 L47.344,35.462 L46.994,36.068 L47.766,34.729 L48.538,33.391 L49.310,32.052 L50.082,30.713 L50.854,29.374 L51.626,28.035 L52.398,26.696 L53.170,25.357 L53.942,24.019 L54.714,22.680 L55.486,21.341 L56.258,20.002 L57.030,18.663 L57.802,17.324 L58.574,15.986 L59.346,14.647 L60.117,13.308 L60.889,11.969 L61.661,10.630 L62.433,9.291 L63.205,7.952 L63.977,6.614 L63.628,7.220 L63.977,6.614 L63.628,7.220 L63.977,6.614 M47.183,36.180 L47.549,35.584 L47.183,36.180 L47.549,35.584 L47.183,36.180 L47.991,34.863 L48.799,33.546 L49.607,32.229 L50.416,30.911 L51.224,29.594 L52.032,28.277 L52.841,26.960 L53.649,25.643 L54.457,24.325 L55.266,23.008 L56.074,21.691 L56.882,20.374 L57.691,19.056 L58.499,17.739 L59.307,16.422 L60.115,15.105 L60.924,13.788 L61.732,12.470 L62.540,11.153 L63.349,9.836 L64.157,8.519 L64.965,7.201 L64.599,7.798 L64.965,7.201 L64.599,7.798 L64.965,7.201 M47.364,36.295 L47.746,35.709 L47.364,36.295 L47.746,35.709 L47.364,36.295 L48.208,35.000 L49.051,33.705 L49.895,32.410 L50.738,31.115 L51.582,29.820 L52.425,28.525 L53.268,27.230 L54.112,25.935 L54.955,24.640 L55.799,23.345 L56.642,22.050 L57.486,20.755 L58.329,19.460 L59.172,18.165 L60.016,16.870 L60.859,15.575 L61.703,14.280 L62.546,12.985 L63.390,11.690 L64.233,10.395 L65.076,9.100 L65.920,7.805 L65.538,8.392 L65.920,7.805 L65.538,8.392 L65.920,7.805 M47.553,36.422 L47.951,35.846 L47.553,36.422 L47.951,35.846 L47.553,36.422 L48.432,35.151 L49.312,33.881 L50.192,32.610 L51.072,31.339 L51.952,30.069 L52.831,28.798 L53.711,27.528 L54.591,26.257 L55.471,24.986 L56.351,23.716 L57.230,22.445 L58.110,21.175 L58.990,19.904 L59.870,18.634 L60.750,17.363 L61.629,16.092 L62.509,14.822 L63.389,13.551 L64.269,12.281 L65.149,11.010 L66.028,9.739 L66.908,8.469 L66.510,9.044 L66.908,8.469 L66.510,9.044 L66.908,8.469 M47.757,36.568 L48.173,36.005 L47.757,36.568 L48.173,36.005 L47.757,36.568 L48.676,35.325 L49.595,34.083 L50.514,32.841 L51.434,31.598 L52.353,30.356 L53.272,29.114 L54.191,27.871 L55.111,26.629 L56.030,25.387 L56.949,24.144 L57.868,22.902 L58.787,21.660 L59.707,20.417 L60.626,19.175 L61.545,17.932 L62.464,16.690 L63.384,15.448 L64.303,14.205 L65.222,12.963 L66.141,11.721 L67.060,10.478 L67.980,9.236 L67.563,9.799 L67.980,9.236 L67.563,9.799 L67.980,9.236 M47.980,36.739 L48.416,36.192 L47.980,36.739 L48.416,36.192 L47.980,36.739 L48.943,35.530 L49.905,34.321 L50.867,33.112 L51.830,31.902 L52.792,30.693 L53.755,29.484 L54.717,28.275 L55.679,27.066 L56.642,25.856 L57.604,24.647 L58.567,23.438 L59.529,22.229 L60.491,21.019 L61.454,19.810 L62.416,18.601 L63.379,17.392 L64.341,16.183 L65.303,14.973 L66.266,13.764 L67.228,12.555 L68.191,11.346 L69.153,10.137 L68.717,10.684 L69.153,10.137 L68.717,10.684 L69.153,10.137 M48.220,36.938 L48.677,36.407 L48.220,36.938 L48.677,36.407 L48.220,36.938 L49.229,35.767 L50.237,34.596 L51.246,33.425 L52.255,32.254 L53.263,31.083 L54.272,29.912 L55.281,28.742 L56.289,27.571 L57.298,26.400 L58.307,25.229 L59.315,24.058 L60.324,22.887 L61.333,21.716 L62.342,20.545 L63.350,19.375 L64.359,18.204 L65.368,17.033 L66.376,15.862 L67.385,14.691 L68.394,13.520 L69.402,12.349 L70.411,11.178 L69.954,11.709 L70.411,11.178 L69.954,11.709 L70.411,11.178 M48.467,37.159 L48.945,36.648 L48.467,37.159 L48.945,36.648 L48.467,37.159 L49.523,36.031 L50.579,34.903 L51.636,33.775 L52.692,32.647 L53.748,31.519 L54.805,30.391 L55.861,29.263 L56.917,28.135 L57.974,27.007 L59.030,25.879 L60.086,24.751 L61.143,23.622 L62.199,22.494 L63.255,21.366 L64.312,20.238 L65.368,19.110 L66.424,17.982 L67.481,16.854 L68.537,15.726 L69.594,14.598 L70.650,13.470 L71.706,12.342 L71.228,12.853 L71.706,12.342 L71.228,12.853 L71.706,12.342 M48.709,37.396 L49.208,36.906 L48.709,37.396 L49.208,36.906 L48.709,37.396 L49.812,36.314 L50.915,35.231 L52.018,34.149 L53.121,33.066 L54.224,31.984 L55.327,30.902 L56.431,29.819 L57.534,28.737 L58.637,27.655 L59.740,26.572 L60.843,25.490 L61.946,24.407 L63.049,23.325 L64.152,22.243 L65.256,21.160 L66.359,20.078 L67.462,18.995 L68.565,17.913 L69.668,16.831 L70.771,15.748 L71.874,14.666 L72.977,13.584 L72.478,14.074 L72.977,13.584 L72.478,14.074 L72.977,13.584 M48.937,37.638 L49.457,37.169 L48.937,37.638 L49.457,37.169 L48.937,37.638 L50.084,36.603 L51.231,35.567 L52.379,34.532 L53.526,33.496 L54.673,32.461 L55.820,31.425 L56.967,30.390 L58.115,29.354 L59.262,28.319 L60.409,27.283 L61.556,26.248 L62.704,25.212 L63.851,24.177 L64.998,23.141 L66.145,22.106 L67.293,21.070 L68.440,20.035 L69.587,18.999 L70.734,17.964 L71.881,16.928 L73.029,15.893 L74.176,14.857 L73.656,15.326 L74.176,14.857 L73.656,15.326 L74.176,14.857 M49.146,37.879 L49.684,37.431 L49.146,37.879 L49.684,37.431 L49.146,37.879 L50.333,36.890 L51.521,35.901 L52.709,34.912 L53.896,33.924 L55.084,32.935 L56.271,31.946 L57.459,30.957 L58.647,29.968 L59.834,28.979 L61.022,27.990 L62.209,27.001 L63.397,26.012 L64.584,25.023 L65.772,24.034 L66.960,23.045 L68.147,22.056 L69.335,21.067 L70.522,20.078 L71.710,19.089 L72.898,18.100 L74.085,17.111 L75.273,16.122 L74.735,16.570 L75.273,16.122 L74.735,16.570 L75.273,16.122 M49.331,38.111 L49.885,37.683 L49.331,38.111 L49.885,37.683 L49.331,38.111 L50.555,37.166 L51.778,36.222 L53.001,35.278 L54.225,34.333 L55.448,33.389 L56.672,32.445 L57.895,31.500 L59.118,30.556 L60.342,29.612 L61.565,28.667 L62.788,27.723 L64.012,26.779 L65.235,25.834 L66.459,24.890 L67.682,23.946 L68.905,23.001 L70.129,22.057 L71.352,21.113 L72.576,20.168 L73.799,19.224 L75.022,18.280 L76.246,17.335 L75.692,17.763 L76.246,17.335 L75.692,17.763 L76.246,17.335 M49.490,38.324 L50.059,37.915 L49.490,38.324 L50.059,37.915 L49.490,38.324 L50.745,37.421 L51.999,36.518 L53.253,35.615 L54.507,34.712 L55.761,33.809 L57.015,32.906 L58.270,32.003 L59.524,31.100 L60.778,30.197 L62.032,29.294 L63.286,28.391 L64.540,27.487 L65.795,26.584 L67.049,25.681 L68.303,24.778 L69.557,23.875 L70.811,22.972 L72.065,22.069 L73.320,21.166 L74.574,20.263 L75.828,19.360 L77.082,18.457 L76.514,18.866 L77.082,18.457 L76.514,18.866 L77.082,18.457 M49.624,38.516 L50.204,38.124 L49.624,38.516 L50.204,38.124 L49.624,38.516 L50.904,37.650 L52.184,36.784 L53.464,35.918 L54.744,35.052 L56.024,34.186 L57.304,33.320 L58.584,32.454 L59.865,31.588 L61.145,30.722 L62.425,29.856 L63.705,28.990 L64.985,28.124 L66.265,27.258 L67.545,26.392 L68.825,25.526 L70.105,24.660 L71.385,23.794 L72.665,22.928 L73.945,22.062 L75.225,21.196 L76.505,20.330 L77.785,19.464 L77.205,19.856 L77.785,19.464 L77.205,19.856 L77.785,19.464 M49.737,38.687 L50.326,38.310 L49.737,38.687 L50.326,38.310 L49.737,38.687 L51.039,37.854 L52.340,37.021 L53.642,36.188 L54.944,35.355 L56.246,34.522 L57.547,33.689 L58.849,32.856 L60.151,32.023 L61.453,31.190 L62.754,30.357 L64.056,29.524 L65.358,28.691 L66.660,27.858 L67.962,27.025 L69.263,26.192 L70.565,25.359 L71.867,24.526 L73.169,23.693 L74.470,22.860 L75.772,22.027 L77.074,21.195 L78.376,20.362 L77.786,20.739 L78.376,20.362 L77.786,20.739 L78.376,20.362 M49.835,38.844 L50.433,38.481 L49.835,38.844 L50.433,38.481 L49.835,38.844 L51.156,38.042 L52.476,37.239 L53.797,36.436 L55.118,35.634 L56.438,34.831 L57.759,34.028 L59.080,33.226 L60.401,32.423 L61.721,31.621 L63.042,30.818 L64.363,30.015 L65.683,29.213 L67.004,28.410 L68.325,27.608 L69.645,26.805 L70.966,26.002 L72.287,25.200 L73.608,24.397 L74.928,23.595 L76.249,22.792 L77.570,21.989 L78.890,21.187 L78.292,21.550 L78.890,21.187 L78.292,21.550 L78.890,21.187 M49.927,38.999 L50.533,38.649 L49.927,38.999 L50.533,38.649 L49.927,38.999 L51.265,38.226 L52.604,37.454 L53.942,36.681 L55.280,35.908 L56.619,35.136 L57.957,34.363 L59.296,33.590 L60.634,32.818 L61.973,32.045 L63.311,31.272 L64.650,30.500 L65.988,29.727 L67.326,28.955 L68.665,28.182 L70.003,27.409 L71.342,26.637 L72.680,25.864 L74.019,25.091 L75.357,24.319 L76.696,23.546 L78.034,22.773 L79.372,22.001 L78.766,22.350 L79.372,22.001 L78.766,22.350 L79.372,22.001 M50.020,39.166 L50.635,38.830 L50.020,39.166 L50.635,38.830 L50.020,39.166 L51.377,38.425 L52.733,37.685 L54.090,36.944 L55.446,36.204 L56.803,35.464 L58.159,34.723 L59.516,33.983 L60.873,33.242 L62.229,32.502 L63.586,31.761 L64.942,31.021 L66.299,30.280 L67.655,29.540 L69.012,28.799 L70.368,28.059 L71.725,27.319 L73.081,26.578 L74.438,25.838 L75.794,25.097 L77.151,24.357 L78.507,23.616 L79.864,22.876 L79.249,23.211 L79.864,22.876 L79.249,23.211 L79.864,22.876 M50.121,39.357 L50.745,39.039 L50.121,39.357 L50.745,39.039 L50.121,39.357 L51.498,38.654 L52.874,37.950 L54.250,37.247 L55.626,36.543 L57.002,35.840 L58.378,35.136 L59.754,34.433 L61.130,33.729 L62.506,33.026 L63.882,32.323 L65.258,31.619 L66.634,30.916 L68.010,30.212 L69.386,29.509 L70.762,28.805 L72.139,28.102 L73.515,27.398 L74.891,26.695 L76.267,25.991 L77.643,25.288 L79.019,24.584 L80.395,23.881 L79.772,24.199 L80.395,23.881 L79.772,24.199 L80.395,23.881 M50.232,39.582 L50.865,39.283 L50.232,39.582 L50.865,39.283 L50.232,39.582 L51.630,38.922 L53.027,38.262 L54.424,37.602 L55.822,36.942 L57.219,36.282 L58.617,35.622 L60.014,34.962 L61.412,34.302 L62.809,33.642 L64.206,32.982 L65.604,32.322 L67.001,31.662 L68.399,31.002 L69.796,30.342 L71.194,29.682 L72.591,29.022 L73.988,28.362 L75.386,27.702 L76.783,27.042 L78.181,26.382 L79.578,25.722 L80.976,25.062 L80.343,25.361 L80.976,25.062 L80.343,25.361 L80.976,25.062 M50.350,39.843 L50.993,39.567 L50.350,39.843 L50.993,39.567 L50.350,39.843 L51.770,39.234 L53.190,38.624 L54.610,38.015 L56.030,37.405 L57.450,36.795 L58.871,36.186 L60.291,35.576 L61.711,34.967 L63.131,34.357 L64.551,33.747 L65.971,33.138 L67.392,32.528 L68.812,31.919 L70.232,31.309 L71.652,30.700 L73.072,30.090 L74.492,29.480 L75.913,28.871 L77.333,28.261 L78.753,27.652 L80.173,27.042 L81.593,26.432 L80.950,26.709 L81.593,26.432 L80.950,26.709 L81.593,26.432 M50.469,40.137 L51.122,39.886 L50.469,40.137 L51.122,39.886 L50.469,40.137 L51.912,39.584 L53.355,39.031 L54.798,38.478 L56.241,37.925 L57.685,37.372 L59.128,36.819 L60.571,36.266 L62.014,35.713 L63.457,35.160 L64.900,34.607 L66.344,34.054 L67.787,33.501 L69.230,32.949 L70.673,32.396 L72.116,31.843 L73.559,31.290 L75.002,30.737 L76.446,30.184 L77.889,29.631 L79.332,29.078 L80.775,28.525 L82.218,27.972 L81.565,28.223 L82.218,27.972 L81.565,28.223 L82.218,27.972 M50.583,40.456 L51.247,40.233 L50.583,40.456 L51.247,40.233 L50.583,40.456 L52.049,39.964 L53.514,39.473 L54.979,38.982 L56.444,38.490 L57.910,37.999 L59.375,37.508 L60.840,37.016 L62.306,36.525 L63.771,36.034 L65.236,35.543 L66.701,35.051 L68.167,34.560 L69.632,34.069 L71.097,33.577 L72.563,33.086 L74.028,32.595 L75.493,32.103 L76.958,31.612 L78.424,31.121 L79.889,30.630 L81.354,30.138 L82.820,29.647 L82.156,29.869 L82.820,29.647 L82.156,29.869 L82.820,29.647 M50.689,40.795 L51.362,40.602 L50.689,40.795 L51.362,40.602 L50.689,40.795 L52.174,40.369 L53.660,39.943 L55.146,39.517 L56.631,39.091 L58.117,38.666 L59.603,38.240 L61.088,37.814 L62.574,37.388 L64.059,36.962 L65.545,36.537 L67.031,36.111 L68.516,35.685 L70.002,35.259 L71.488,34.833 L72.973,34.408 L74.459,33.982 L75.945,33.556 L77.430,33.130 L78.916,32.704 L80.401,32.278 L81.887,31.853 L83.373,31.427 L82.700,31.620 L83.373,31.427 L82.700,31.620 L83.373,31.427 M50.781,41.146 L51.462,40.984 L50.781,41.146 L51.462,40.984 L50.781,41.146 L52.284,40.788 L53.788,40.430 L55.291,40.072 L56.795,39.714 L58.298,39.356 L59.801,38.998 L61.305,38.640 L62.808,38.282 L64.312,37.924 L65.815,37.566 L67.319,37.208 L68.822,36.850 L70.325,36.492 L71.829,36.134 L73.332,35.777 L74.836,35.419 L76.339,35.061 L77.843,34.703 L79.346,34.345 L80.849,33.987 L82.353,33.629 L83.856,33.271 L83.175,33.433 L83.856,33.271 L83.175,33.433 L83.856,33.271 M50.857,41.499 L51.544,41.368 L50.857,41.499 L51.544,41.368 L50.857,41.499 L52.375,41.210 L53.893,40.920 L55.411,40.630 L56.929,40.341 L58.447,40.051 L59.965,39.761 L61.483,39.472 L63.001,39.182 L64.519,38.892 L66.037,38.603 L67.555,38.313 L69.073,38.023 L70.591,37.734 L72.109,37.444 L73.628,37.154 L75.146,36.865 L76.664,36.575 L78.182,36.285 L79.700,35.996 L81.218,35.706 L82.736,35.416 L84.254,35.127 L83.566,35.258 L84.254,35.127 L83.566,35.258 L84.254,35.127 M50.915,41.844 L51.607,41.743 L50.915,41.844 L51.607,41.743 L50.915,41.844 L52.444,41.621 L53.973,41.398 L55.502,41.175 L57.032,40.952 L58.561,40.729 L60.090,40.506 L61.620,40.283 L63.149,40.060 L64.678,39.837 L66.207,39.614 L67.737,39.391 L69.266,39.169 L70.795,38.946 L72.325,38.723 L73.854,38.500 L75.383,38.277 L76.912,38.054 L78.442,37.831 L79.971,37.608 L81.500,37.385 L83.030,37.162 L84.559,36.939 L83.866,37.040 L84.559,36.939 L83.866,37.040 L84.559,36.939 M50.956,42.173 L51.652,42.101 L50.956,42.173 L51.652,42.101 L50.956,42.173 L52.493,42.013 L54.030,41.854 L55.567,41.694 L57.104,41.535 L58.642,41.375 L60.179,41.215 L61.716,41.056 L63.253,40.896 L64.790,40.737 L66.328,40.577 L67.865,40.418 L69.402,40.258 L70.939,40.098 L72.476,39.939 L74.014,39.779 L75.551,39.620 L77.088,39.460 L78.625,39.301 L80.162,39.141 L81.699,38.981 L83.237,38.822 L84.774,38.662 L84.078,38.735 L84.774,38.662 L84.078,38.735 L84.774,38.662 M50.982,42.483 L51.680,42.438 L50.982,42.483 L51.680,42.438 L50.982,42.483 L52.524,42.384 L54.066,42.284 L55.608,42.185 L57.151,42.085 L58.693,41.986 L60.235,41.886 L61.777,41.786 L63.320,41.687 L64.862,41.587 L66.404,41.488 L67.946,41.388 L69.489,41.288 L71.031,41.189 L72.573,41.089 L74.115,40.990 L75.658,40.890 L77.200,40.791 L78.742,40.691 L80.284,40.591 L81.827,40.492 L83.369,40.392 L84.911,40.293 L84.213,40.338 L84.911,40.293 L84.213,40.338 L84.911,40.293 M50.995,42.780 L51.695,42.761 L50.995,42.780 L51.695,42.761 L50.995,42.780 L52.540,42.738 L54.085,42.695 L55.630,42.653 L57.175,42.611 L58.720,42.568 L60.265,42.526 L61.809,42.484 L63.354,42.442 L64.899,42.399 L66.444,42.357 L67.989,42.315 L69.534,42.272 L71.079,42.230 L72.624,42.188 L74.168,42.146 L75.713,42.103 L77.258,42.061 L78.803,42.019 L80.348,41.976 L81.893,41.934 L83.438,41.892 L84.983,41.849 L84.283,41.869 L84.983,41.849 L84.283,41.869 L84.983,41.849 M50.998,43.066 L51.698,43.072 L50.998,43.066 L51.698,43.072 L50.998,43.066 L52.543,43.079 L54.089,43.092 L55.634,43.105 L57.180,43.118 L58.725,43.131 L60.270,43.144 L61.816,43.157 L63.361,43.170 L64.907,43.183 L66.452,43.196 L67.997,43.209 L69.543,43.222 L71.088,43.235 L72.634,43.248 L74.179,43.261 L75.724,43.274 L77.270,43.287 L78.815,43.300 L80.361,43.313 L81.906,43.326 L83.451,43.340 L84.997,43.353 L84.297,43.347 L84.997,43.353 L84.297,43.347 L84.997,43.353 M50.991,43.344 L51.690,43.375 L50.991,43.344 L51.690,43.375 L50.991,43.344 L52.535,43.411 L54.079,43.478 L55.623,43.545 L57.167,43.612 L58.711,43.678 L60.255,43.745 L61.799,43.812 L63.343,43.879 L64.887,43.945 L66.431,44.012 L67.975,44.079 L69.519,44.146 L71.063,44.213 L72.607,44.279 L74.151,44.346 L75.695,44.413 L77.239,44.480 L78.783,44.546 L80.327,44.613 L81.871,44.680 L83.415,44.747 L84.959,44.813 L84.260,44.783 L84.959,44.813 L84.260,44.783 L84.959,44.813 M50.975,43.615 L51.672,43.669 L50.975,43.615 L51.672,43.669 L50.975,43.615 L52.515,43.734 L54.056,43.854 L55.597,43.973 L57.138,44.092 L58.679,44.211 L60.220,44.330 L61.761,44.449 L63.301,44.568 L64.842,44.687 L66.383,44.806 L67.924,44.926 L69.465,45.045 L71.006,45.164 L72.547,45.283 L74.087,45.402 L75.628,45.521 L77.169,45.640 L78.710,45.759 L80.251,45.878 L81.792,45.998 L83.333,46.117 L84.873,46.236 L84.175,46.182 L84.873,46.236 L84.175,46.182 L84.873,46.236 M50.950,43.879 L51.646,43.956 L50.950,43.879 L51.646,43.956 L50.950,43.879 L52.486,44.049 L54.022,44.219 L55.558,44.389 L57.094,44.559 L58.630,44.729 L60.166,44.899 L61.702,45.069 L63.238,45.239 L64.775,45.409 L66.311,45.579 L67.847,45.749 L69.383,45.919 L70.919,46.089 L72.455,46.259 L73.991,46.429 L75.527,46.598 L77.063,46.768 L78.599,46.938 L80.135,47.108 L81.671,47.278 L83.207,47.448 L84.744,47.618 L84.048,47.541 L84.744,47.618 L84.048,47.541 L84.744,47.618 M50.917,44.134 L51.610,44.233 L50.917,44.134 L51.610,44.233 L50.917,44.134 L52.447,44.353 L53.977,44.572 L55.507,44.792 L57.037,45.011 L58.567,45.230 L60.096,45.449 L61.626,45.669 L63.156,45.888 L64.686,46.107 L66.216,46.327 L67.745,46.546 L69.275,46.765 L70.805,46.984 L72.335,47.204 L73.865,47.423 L75.395,47.642 L76.924,47.861 L78.454,48.081 L79.984,48.300 L81.514,48.519 L83.044,48.739 L84.573,48.958 L83.881,48.859 L84.573,48.958 L83.881,48.859 L84.573,48.958 M50.878,44.380 L51.568,44.501 L50.878,44.380 L51.568,44.501 L50.878,44.380 L52.401,44.646 L53.923,44.913 L55.445,45.180 L56.967,45.447 L58.490,45.714 L60.012,45.980 L61.534,46.247 L63.056,46.514 L64.579,46.781 L66.101,47.047 L67.623,47.314 L69.145,47.581 L70.668,47.848 L72.190,48.114 L73.712,48.381 L75.234,48.648 L76.757,48.915 L78.279,49.181 L79.801,49.448 L81.323,49.715 L82.846,49.982 L84.368,50.248 L83.678,50.128 L84.368,50.248 L83.678,50.128 L84.368,50.248 M50.833,44.615 L51.519,44.756 L50.833,44.615 L51.519,44.756 L50.833,44.615 L52.347,44.927 L53.861,45.239 L55.374,45.551 L56.888,45.863 L58.401,46.175 L59.915,46.487 L61.429,46.800 L62.942,47.112 L64.456,47.424 L65.970,47.736 L67.483,48.048 L68.997,48.360 L70.510,48.672 L72.024,48.985 L73.538,49.297 L75.051,49.609 L76.565,49.921 L78.078,50.233 L79.592,50.545 L81.106,50.857 L82.619,51.170 L84.133,51.482 L83.447,51.340 L84.133,51.482 L83.447,51.340 L84.133,51.482 M50.784,44.837 L51.466,44.997 L50.784,44.837 L51.466,44.997 L50.784,44.837 L52.289,45.192 L53.793,45.547 L55.297,45.902 L56.801,46.257 L58.305,46.612 L59.809,46.967 L61.313,47.322 L62.817,47.677 L64.322,48.032 L65.826,48.387 L67.330,48.742 L68.834,49.097 L70.338,49.452 L71.842,49.807 L73.346,50.162 L74.850,50.517 L76.355,50.872 L77.859,51.227 L79.363,51.582 L80.867,51.937 L82.371,52.292 L83.875,52.647 L83.194,52.486 L83.875,52.647 L83.194,52.486 L83.875,52.647 M50.732,45.045 L51.409,45.224 L50.732,45.045 L51.409,45.224 L50.732,45.045 L52.226,45.440 L53.720,45.836 L55.214,46.231 L56.708,46.626 L58.202,47.021 L59.697,47.417 L61.191,47.812 L62.685,48.207 L64.179,48.603 L65.673,48.998 L67.167,49.393 L68.661,49.789 L70.155,50.184 L71.649,50.579 L73.143,50.974 L74.637,51.370 L76.131,51.765 L77.625,52.160 L79.119,52.556 L80.613,52.951 L82.107,53.346 L83.601,53.741 L82.925,53.562 L83.601,53.741 L82.925,53.562 L83.601,53.741 M50.677,45.245 L51.348,45.441 L50.677,45.245 L51.348,45.441 L50.677,45.245 L52.160,45.678 L53.643,46.112 L55.127,46.546 L56.610,46.980 L58.093,47.414 L59.576,47.848 L61.060,48.282 L62.543,48.715 L64.026,49.149 L65.510,49.583 L66.993,50.017 L68.476,50.451 L69.960,50.885 L71.443,51.318 L72.926,51.752 L74.410,52.186 L75.893,52.620 L77.376,53.054 L78.860,53.488 L80.343,53.922 L81.826,54.355 L83.309,54.789 L82.638,54.593 L83.309,54.789 L82.638,54.593 L83.309,54.789 M50.615,45.445 L51.282,45.659 L50.615,45.445 L51.282,45.659 L50.615,45.445 L52.087,45.917 L53.558,46.390 L55.030,46.862 L56.501,47.335 L57.972,47.807 L59.444,48.280 L60.915,48.753 L62.387,49.225 L63.858,49.698 L65.330,50.170 L66.801,50.643 L68.273,51.115 L69.744,51.588 L71.215,52.060 L72.687,52.533 L74.158,53.005 L75.630,53.478 L77.101,53.950 L78.573,54.423 L80.044,54.895 L81.516,55.368 L82.987,55.840 L82.321,55.626 L82.987,55.840 L82.321,55.626 L82.987,55.840 M50.545,45.653 L51.205,45.886 L50.545,45.653 L51.205,45.886 L50.545,45.653 L52.003,46.166 L53.461,46.679 L54.919,47.192 L56.377,47.704 L57.835,48.217 L59.293,48.730 L60.750,49.243 L62.208,49.756 L63.666,50.268 L65.124,50.781 L66.582,51.294 L68.040,51.807 L69.498,52.320 L70.956,52.832 L72.414,53.345 L73.872,53.858 L75.329,54.371 L76.787,54.883 L78.245,55.396 L79.703,55.909 L81.161,56.422 L82.619,56.935 L81.959,56.702 L82.619,56.935 L81.959,56.702 L82.619,56.935 M50.464,45.874 L51.117,46.126 L50.464,45.874 L51.117,46.126 L50.464,45.874 L51.906,46.430 L53.348,46.985 L54.790,47.541 L56.232,48.096 L57.675,48.652 L59.117,49.207 L60.559,49.762 L62.001,50.318 L63.443,50.873 L64.886,51.429 L66.328,51.984 L67.770,52.540 L69.212,53.095 L70.654,53.651 L72.096,54.206 L73.539,54.762 L74.981,55.317 L76.423,55.873 L77.865,56.428 L79.307,56.984 L80.750,57.539 L82.192,58.094 L81.538,57.843 L82.192,58.094 L81.538,57.843 L82.192,58.094 M50.369,46.109 L51.014,46.381 L50.369,46.109 L51.014,46.381 L50.369,46.109 L51.793,46.710 L53.217,47.311 L54.640,47.912 L56.064,48.513 L57.488,49.114 L58.912,49.715 L60.336,50.316 L61.760,50.916 L63.184,51.517 L64.607,52.118 L66.031,52.719 L67.455,53.320 L68.879,53.921 L70.303,54.522 L71.727,55.123 L73.151,55.724 L74.574,56.324 L75.998,56.925 L77.422,57.526 L78.846,58.127 L80.270,58.728 L81.694,59.329 L81.049,59.057 L81.694,59.329 L81.049,59.057 L81.694,59.329 M50.259,46.358 L50.894,46.652 L50.259,46.358 L50.894,46.652 L50.259,46.358 L51.662,47.007 L53.064,47.655 L54.467,48.304 L55.870,48.953 L57.272,49.602 L58.675,50.251 L60.077,50.900 L61.480,51.549 L62.883,52.198 L64.285,52.846 L65.688,53.495 L67.091,54.144 L68.493,54.793 L69.896,55.442 L71.299,56.091 L72.701,56.740 L74.104,57.389 L75.506,58.037 L76.909,58.686 L78.312,59.335 L79.714,59.984 L81.117,60.633 L80.482,60.339 L81.117,60.633 L80.482,60.339 L81.117,60.633 M50.134,46.616 L50.758,46.932 L50.134,46.616 L50.758,46.932 L50.134,46.616 L51.512,47.315 L52.891,48.014 L54.269,48.712 L55.648,49.411 L57.026,50.110 L58.405,50.809 L59.783,51.507 L61.162,52.206 L62.540,52.905 L63.918,53.604 L65.297,54.302 L66.675,55.001 L68.054,55.700 L69.432,56.399 L70.811,57.098 L72.189,57.796 L73.568,58.495 L74.946,59.194 L76.325,59.893 L77.703,60.591 L79.082,61.290 L80.460,61.989 L79.836,61.672 L80.460,61.989 L79.836,61.672 L80.460,61.989 M49.995,46.879 L50.607,47.218 L49.995,46.879 L50.607,47.218 L49.995,46.879 L51.346,47.628 L52.698,48.378 L54.049,49.127 L55.401,49.877 L56.752,50.626 L58.104,51.376 L59.455,52.125 L60.807,52.875 L62.158,53.624 L63.510,54.374 L64.861,55.123 L66.213,55.873 L67.564,56.623 L68.916,57.372 L70.268,58.122 L71.619,58.871 L72.971,59.621 L74.322,60.370 L75.674,61.120 L77.025,61.869 L78.377,62.619 L79.728,63.368 L79.116,63.029 L79.728,63.368 L79.116,63.029 L79.728,63.368 M49.843,47.140 L50.442,47.502 L49.843,47.140 L50.442,47.502 L49.843,47.140 L51.166,47.940 L52.488,48.740 L53.810,49.540 L55.133,50.340 L56.455,51.139 L57.777,51.939 L59.099,52.739 L60.422,53.539 L61.744,54.339 L63.066,55.139 L64.389,55.939 L65.711,56.739 L67.033,57.539 L68.356,58.339 L69.678,59.139 L71.000,59.939 L72.323,60.739 L73.645,61.539 L74.967,62.339 L76.290,63.139 L77.612,63.939 L78.934,64.739 L78.335,64.376 L78.934,64.739 L78.335,64.376 L78.934,64.739 M49.683,47.394 L50.268,47.778 L49.683,47.394 L50.268,47.778 L49.683,47.394 L50.974,48.243 L52.266,49.092 L53.557,49.941 L54.848,50.790 L56.140,51.639 L57.431,52.488 L58.723,53.337 L60.014,54.186 L61.305,55.035 L62.597,55.884 L63.888,56.733 L65.179,57.582 L66.471,58.431 L67.762,59.280 L69.053,60.129 L70.345,60.978 L71.636,61.827 L72.927,62.676 L74.219,63.525 L75.510,64.374 L76.802,65.223 L78.093,66.072 L77.508,65.687 L78.093,66.072 L77.508,65.687 L78.093,66.072 M49.516,47.637 L50.087,48.043 L49.516,47.637 L50.087,48.043 L49.516,47.637 L50.775,48.534 L52.034,49.430 L53.294,50.326 L54.553,51.222 L55.812,52.118 L57.071,53.014 L58.330,53.910 L59.589,54.806 L60.848,55.702 L62.108,56.599 L63.367,57.495 L64.626,58.391 L65.885,59.287 L67.144,60.183 L68.403,61.079 L69.662,61.975 L70.921,62.871 L72.181,63.767 L73.440,64.664 L74.699,65.560 L75.958,66.456 L77.217,67.352 L76.647,66.946 L77.217,67.352 L76.647,66.946 L77.217,67.352 M49.344,47.871 L49.899,48.297 L49.344,47.871 L49.899,48.297 L49.344,47.871 L50.570,48.812 L51.795,49.753 L53.021,50.694 L54.247,51.635 L55.473,52.577 L56.699,53.518 L57.924,54.459 L59.150,55.400 L60.376,56.341 L61.602,57.283 L62.828,58.224 L64.053,59.165 L65.279,60.106 L66.505,61.047 L67.731,61.988 L68.957,62.930 L70.183,63.871 L71.408,64.812 L72.634,65.753 L73.860,66.694 L75.086,67.635 L76.312,68.577 L75.756,68.150 L76.312,68.577 L75.756,68.150 L76.312,68.577 M49.165,48.095 L49.704,48.541 L49.165,48.095 L49.704,48.541 L49.165,48.095 L50.356,49.080 L51.547,50.064 L52.739,51.049 L53.930,52.033 L55.121,53.018 L56.312,54.003 L57.504,54.987 L58.695,55.972 L59.886,56.956 L61.077,57.941 L62.269,58.925 L63.460,59.910 L64.651,60.894 L65.843,61.879 L67.034,62.863 L68.225,63.848 L69.416,64.833 L70.608,65.817 L71.799,66.802 L72.990,67.786 L74.181,68.771 L75.373,69.755 L74.833,69.309 L75.373,69.755 L74.833,69.309 L75.373,69.755 M48.979,48.312 L49.502,48.777 L48.979,48.312 L49.502,48.777 L48.979,48.312 L50.134,49.339 L51.290,50.365 L52.445,51.391 L53.600,52.418 L54.756,53.444 L55.911,54.471 L57.067,55.497 L58.222,56.524 L59.377,57.550 L60.533,58.577 L61.688,59.603 L62.843,60.629 L63.999,61.656 L65.154,62.682 L66.309,63.709 L67.465,64.735 L68.620,65.762 L69.775,66.788 L70.931,67.814 L72.086,68.841 L73.242,69.867 L74.397,70.894 L73.874,70.429 L74.397,70.894 L73.874,70.429 L74.397,70.894 M48.787,48.520 L49.294,49.003 L48.787,48.520 L49.294,49.003 L48.787,48.520 L49.906,49.587 L51.024,50.654 L52.142,51.720 L53.261,52.787 L54.379,53.854 L55.497,54.920 L56.616,55.987 L57.734,57.054 L58.852,58.120 L59.971,59.187 L61.089,60.254 L62.207,61.320 L63.326,62.387 L64.444,63.454 L65.562,64.520 L66.681,65.587 L67.799,66.654 L68.917,67.720 L70.036,68.787 L71.154,69.854 L72.272,70.920 L73.391,71.987 L72.884,71.504 L73.391,71.987 L72.884,71.504 L73.391,71.987 M48.591,48.719 L49.081,49.220 L48.591,48.719 L49.081,49.220 L48.591,48.719 L49.672,49.824 L50.752,50.929 L51.832,52.034 L52.913,53.139 L53.993,54.244 L55.074,55.349 L56.154,56.454 L57.235,57.559 L58.315,58.664 L59.395,59.769 L60.476,60.874 L61.556,61.979 L62.637,63.085 L63.717,64.190 L64.798,65.295 L65.878,66.400 L66.958,67.505 L68.039,68.610 L69.119,69.715 L70.200,70.820 L71.280,71.925 L72.360,73.030 L71.871,72.529 L72.360,73.030 L71.871,72.529 L72.360,73.030 M48.391,48.908 L48.863,49.425 L48.391,48.908 L48.863,49.425 L48.391,48.908 L49.433,50.050 L50.474,51.191 L51.516,52.333 L52.558,53.475 L53.600,54.616 L54.641,55.758 L55.683,56.899 L56.725,58.041 L57.766,59.182 L58.808,60.324 L59.850,61.466 L60.892,62.607 L61.933,63.749 L62.975,64.890 L64.017,66.032 L65.059,67.174 L66.100,68.315 L67.142,69.457 L68.184,70.598 L69.226,71.740 L70.267,72.881 L71.309,74.023 L70.837,73.506 L71.309,74.023 L70.837,73.506 L71.309,74.023 M48.186,49.089 L48.640,49.622 L48.186,49.089 L48.640,49.622 L48.186,49.089 L49.188,50.265 L50.191,51.442 L51.193,52.618 L52.195,53.794 L53.197,54.971 L54.199,56.147 L55.202,57.324 L56.204,58.500 L57.206,59.677 L58.208,60.853 L59.210,62.030 L60.213,63.206 L61.215,64.382 L62.217,65.559 L63.219,66.735 L64.221,67.912 L65.224,69.088 L66.226,70.265 L67.228,71.441 L68.230,72.618 L69.232,73.794 L70.235,74.970 L69.781,74.438 L70.235,74.970 L69.781,74.438 L70.235,74.970 M47.977,49.261 L48.413,49.809 L47.977,49.261 L48.413,49.809 L47.977,49.261 L48.939,50.470 L49.901,51.680 L50.863,52.890 L51.825,54.099 L52.786,55.309 L53.748,56.519 L54.710,57.728 L55.672,58.938 L56.634,60.148 L57.596,61.357 L58.557,62.567 L59.519,63.777 L60.481,64.986 L61.443,66.196 L62.405,67.406 L63.367,68.615 L64.329,69.825 L65.290,71.035 L66.252,72.244 L67.214,73.454 L68.176,74.664 L69.138,75.873 L68.702,75.325 L69.138,75.873 L68.702,75.325 L69.138,75.873 M47.769,49.420 L48.187,49.982 L47.769,49.420 L48.187,49.982 L47.769,49.420 L48.691,50.661 L49.613,51.901 L50.535,53.142 L51.456,54.382 L52.378,55.623 L53.300,56.864 L54.221,58.104 L55.143,59.345 L56.065,60.585 L56.986,61.826 L57.908,63.066 L58.830,64.307 L59.751,65.547 L60.673,66.788 L61.595,68.028 L62.517,69.269 L63.438,70.509 L64.360,71.750 L65.282,72.990 L66.203,74.231 L67.125,75.472 L68.047,76.712 L67.629,76.150 L68.047,76.712 L67.629,76.150 L68.047,76.712 M47.570,49.564 L47.970,50.138 L47.570,49.564 L47.970,50.138 L47.570,49.564 L48.453,50.832 L49.336,52.100 L50.219,53.369 L51.102,54.637 L51.986,55.905 L52.869,57.174 L53.752,58.442 L54.635,59.710 L55.518,60.978 L56.401,62.247 L57.284,63.515 L58.168,64.783 L59.051,66.051 L59.934,67.320 L60.817,68.588 L61.700,69.856 L62.583,71.124 L63.466,72.393 L64.350,73.661 L65.233,74.929 L66.116,76.198 L66.999,77.466 L66.599,76.891 L66.999,77.466 L66.599,76.891 L66.999,77.466 M47.382,49.691 L47.765,50.277 L47.382,49.691 L47.765,50.277 L47.382,49.691 L48.229,50.984 L49.075,52.277 L49.922,53.569 L50.769,54.862 L51.616,56.155 L52.463,57.448 L53.309,58.741 L54.156,60.033 L55.003,61.326 L55.850,62.619 L56.697,63.912 L57.543,65.205 L58.390,66.497 L59.237,67.790 L60.084,69.083 L60.931,70.376 L61.777,71.669 L62.624,72.962 L63.471,74.254 L64.318,75.547 L65.165,76.840 L66.011,78.133 L65.628,77.547 L66.011,78.133 L65.628,77.547 L66.011,78.133 M47.203,49.805 L47.570,50.401 L47.203,49.805 L47.570,50.401 L47.203,49.805 L48.015,51.120 L48.827,52.435 L49.639,53.749 L50.451,55.064 L51.264,56.379 L52.076,57.694 L52.888,59.009 L53.700,60.324 L54.512,61.638 L55.324,62.953 L56.137,64.268 L56.949,65.583 L57.761,66.898 L58.573,68.213 L59.385,69.527 L60.198,70.842 L61.010,72.157 L61.822,73.472 L62.634,74.787 L63.446,76.102 L64.259,77.416 L65.071,78.731 L64.703,78.136 L65.071,78.731 L64.703,78.136 L65.071,78.731 M47.025,49.912 L47.377,50.517 L47.025,49.912 L47.377,50.517 L47.025,49.912 L47.803,51.247 L48.580,52.583 L49.358,53.918 L50.136,55.253 L50.914,56.589 L51.692,57.924 L52.470,59.260 L53.247,60.595 L54.025,61.931 L54.803,63.266 L55.581,64.602 L56.359,65.937 L57.136,67.272 L57.914,68.608 L58.692,69.943 L59.470,71.279 L60.248,72.614 L61.026,73.950 L61.803,75.285 L62.581,76.621 L63.359,77.956 L64.137,79.292 L63.785,78.687 L64.137,79.292 L63.785,78.687 L64.137,79.292 M46.838,50.017 L47.174,50.631 L46.838,50.017 L47.174,50.631 L46.838,50.017 L47.580,51.373 L48.321,52.729 L49.063,54.085 L49.805,55.441 L50.547,56.796 L51.288,58.152 L52.030,59.508 L52.772,60.864 L53.513,62.220 L54.255,63.575 L54.997,64.931 L55.739,66.287 L56.480,67.643 L57.222,68.999 L57.964,70.355 L58.706,71.710 L59.447,73.066 L60.189,74.422 L60.931,75.778 L61.673,77.134 L62.414,78.490 L63.156,79.845 L62.820,79.231 L63.156,79.845 L62.820,79.231 L63.156,79.845 M46.632,50.126 L46.950,50.750 L46.632,50.126 L46.950,50.750 L46.632,50.126 L47.334,51.503 L48.035,52.880 L48.737,54.257 L49.439,55.634 L50.141,57.011 L50.843,58.387 L51.545,59.764 L52.247,61.141 L52.949,62.518 L53.651,63.895 L54.352,65.272 L55.054,66.649 L55.756,68.026 L56.458,69.402 L57.160,70.779 L57.862,72.156 L58.564,73.533 L59.266,74.910 L59.967,76.287 L60.669,77.664 L61.371,79.041 L62.073,80.417 L61.755,79.794 L62.073,80.417 L61.755,79.794 L62.073,80.417 M46.398,50.241 L46.695,50.874 L46.398,50.241 L46.695,50.874 L46.398,50.241 L47.054,51.640 L47.711,53.039 L48.368,54.438 L49.024,55.837 L49.681,57.236 L50.338,58.635 L50.994,60.034 L51.651,61.433 L52.308,62.832 L52.964,64.231 L53.621,65.630 L54.278,67.029 L54.934,68.428 L55.591,69.827 L56.248,71.226 L56.904,72.625 L57.561,74.024 L58.218,75.423 L58.874,76.822 L59.531,78.221 L60.188,79.620 L60.844,81.019 L60.547,80.385 L60.844,81.019 L60.547,80.385 L60.844,81.019 M46.131,50.360 L46.405,51.004 L46.131,50.360 L46.405,51.004 L46.131,50.360 L46.736,51.782 L47.341,53.204 L47.946,54.626 L48.551,56.048 L49.156,57.471 L49.761,58.893 L50.366,60.315 L50.971,61.737 L51.576,63.159 L52.181,64.581 L52.787,66.003 L53.392,67.425 L53.997,68.847 L54.602,70.269 L55.207,71.691 L55.812,73.113 L56.417,74.535 L57.022,75.957 L57.627,77.380 L58.232,78.802 L58.837,80.224 L59.443,81.646 L59.169,81.002 L59.443,81.646 L59.169,81.002 L59.443,81.646 M45.830,50.481 L46.077,51.136 L45.830,50.481 L46.077,51.136 L45.830,50.481 L46.377,51.926 L46.924,53.372 L47.471,54.817 L48.017,56.263 L48.564,57.708 L49.111,59.154 L49.658,60.599 L50.205,62.044 L50.752,63.490 L51.299,64.935 L51.846,66.381 L52.393,67.826 L52.940,69.272 L53.487,70.717 L54.034,72.162 L54.581,73.608 L55.128,75.053 L55.675,76.499 L56.222,77.944 L56.769,79.390 L57.316,80.835 L57.863,82.281 L57.615,81.626 L57.863,82.281 L57.615,81.626 L57.863,82.281 M45.498,50.598 L45.717,51.263 L45.498,50.598 L45.717,51.263 L45.498,50.598 L45.981,52.066 L46.464,53.534 L46.947,55.002 L47.430,56.471 L47.913,57.939 L48.396,59.407 L48.878,60.875 L49.361,62.343 L49.844,63.811 L50.327,65.279 L50.810,66.747 L51.293,68.215 L51.776,69.683 L52.259,71.151 L52.742,72.619 L53.225,74.087 L53.708,75.555 L54.191,77.023 L54.673,78.492 L55.156,79.960 L55.639,81.428 L56.122,82.896 L55.903,82.231 L56.122,82.896 L55.903,82.231 L56.122,82.896 M45.145,50.706 L45.332,51.380 L45.145,50.706 L45.332,51.380 L45.145,50.706 L45.559,52.194 L45.974,53.683 L46.388,55.172 L46.803,56.661 L47.218,58.150 L47.632,59.638 L48.047,61.127 L48.461,62.616 L48.876,64.105 L49.291,65.594 L49.705,67.082 L50.120,68.571 L50.534,70.060 L50.949,71.549 L51.364,73.038 L51.778,74.526 L52.193,76.015 L52.608,77.504 L53.022,78.993 L53.437,80.482 L53.851,81.970 L54.266,83.459 L54.078,82.785 L54.266,83.459 L54.078,82.785 L54.266,83.459 M44.782,50.797 L44.938,51.480 L44.782,50.797 L44.938,51.480 L44.782,50.797 L45.126,52.304 L45.471,53.811 L45.815,55.317 L46.160,56.824 L46.504,58.330 L46.849,59.837 L47.194,61.343 L47.538,62.850 L47.883,64.357 L48.227,65.863 L48.572,67.370 L48.916,68.876 L49.261,70.383 L49.605,71.889 L49.950,73.396 L50.294,74.902 L50.639,76.409 L50.983,77.916 L51.328,79.422 L51.672,80.929 L52.017,82.435 L52.362,83.942 L52.205,83.259 L52.362,83.942 L52.205,83.259 L52.362,83.942 M44.423,50.871 L44.548,51.560 L44.423,50.871 L44.548,51.560 L44.423,50.871 L44.698,52.392 L44.974,53.912 L45.249,55.433 L45.524,56.954 L45.800,58.475 L46.075,59.995 L46.350,61.516 L46.625,63.037 L46.901,64.558 L47.176,66.078 L47.451,67.599 L47.726,69.120 L48.002,70.641 L48.277,72.161 L48.552,73.682 L48.827,75.203 L49.103,76.724 L49.378,78.244 L49.653,79.765 L49.928,81.286 L50.204,82.807 L50.479,84.327 L50.354,83.638 L50.479,84.327 L50.354,83.638 L50.479,84.327 M44.080,50.925 L44.174,51.619 L44.080,50.925 L44.174,51.619 L44.080,50.925 L44.289,52.457 L44.497,53.988 L44.706,55.519 L44.915,57.050 L45.124,58.582 L45.333,60.113 L45.542,61.644 L45.751,63.176 L45.960,64.707 L46.169,66.238 L46.377,67.769 L46.586,69.301 L46.795,70.832 L47.004,72.363 L47.213,73.894 L47.422,75.426 L47.631,76.957 L47.840,78.488 L48.049,80.020 L48.257,81.551 L48.466,83.082 L48.675,84.613 L48.581,83.920 L48.675,84.613 L48.581,83.920 L48.675,84.613 M43.757,50.963 L43.824,51.660 L43.757,50.963 L43.824,51.660 L43.757,50.963 L43.904,52.501 L44.051,54.040 L44.197,55.578 L44.344,57.117 L44.491,58.655 L44.637,60.194 L44.784,61.732 L44.931,63.271 L45.077,64.809 L45.224,66.348 L45.371,67.886 L45.517,69.424 L45.664,70.963 L45.810,72.501 L45.957,74.040 L46.104,75.578 L46.250,77.117 L46.397,78.655 L46.544,80.194 L46.690,81.732 L46.837,83.271 L46.984,84.809 L46.917,84.112 L46.984,84.809 L46.917,84.112 L46.984,84.809 M43.458,50.986 L43.498,51.684 L43.458,50.986 L43.498,51.684 L43.458,50.986 L43.546,52.529 L43.635,54.071 L43.724,55.614 L43.813,57.157 L43.901,58.700 L43.990,60.243 L44.079,61.786 L44.168,63.329 L44.256,64.872 L44.345,66.415 L44.434,67.958 L44.523,69.500 L44.611,71.043 L44.700,72.586 L44.789,74.129 L44.877,75.672 L44.966,77.215 L45.055,78.758 L45.144,80.301 L45.232,81.844 L45.321,83.387 L45.410,84.930 L45.370,84.231 L45.410,84.930 L45.370,84.231 L45.410,84.930 M43.177,50.997 L43.193,51.697 L43.177,50.997 L43.193,51.697 L43.177,50.997 L43.211,52.542 L43.246,54.087 L43.280,55.632 L43.315,57.177 L43.349,58.722 L43.384,60.267 L43.418,61.812 L43.453,63.357 L43.487,64.902 L43.522,66.448 L43.556,67.993 L43.591,69.538 L43.625,71.083 L43.660,72.628 L43.694,74.173 L43.729,75.718 L43.763,77.263 L43.798,78.808 L43.832,80.353 L43.867,81.898 L43.901,83.443 L43.936,84.988 L43.920,84.289 L43.936,84.988 L43.920,84.289 L43.936,84.988 M42.908,50.998 L42.901,51.698 L42.908,50.998 L42.901,51.698 L42.908,50.998 L42.891,52.544 L42.874,54.089 L42.856,55.634 L42.839,57.180 L42.822,58.725 L42.804,60.270 L42.787,61.816 L42.770,63.361 L42.752,64.907 L42.735,66.452 L42.718,67.997 L42.700,69.543 L42.683,71.088 L42.665,72.633 L42.648,74.179 L42.631,75.724 L42.613,77.269 L42.596,78.815 L42.579,80.360 L42.561,81.905 L42.544,83.451 L42.527,84.996 L42.534,84.296 L42.527,84.996 L42.534,84.296 L42.527,84.996 M42.645,50.991 L42.614,51.690 L42.645,50.991 L42.614,51.690 L42.645,50.991 L42.577,52.535 L42.509,54.079 L42.440,55.623 L42.372,57.167 L42.304,58.711 L42.236,60.255 L42.167,61.799 L42.099,63.343 L42.031,64.887 L41.963,66.430 L41.894,67.974 L41.826,69.518 L41.758,71.062 L41.690,72.606 L41.622,74.150 L41.553,75.694 L41.485,77.238 L41.417,78.782 L41.349,80.326 L41.280,81.870 L41.212,83.414 L41.144,84.958 L41.175,84.259 L41.144,84.958 L41.175,84.259 L41.144,84.958 M42.381,50.975 L42.327,51.673 L42.381,50.975 L42.327,51.673 L42.381,50.975 L42.262,52.516 L42.142,54.057 L42.023,55.597 L41.904,57.138 L41.785,58.679 L41.665,60.220 L41.546,61.761 L41.427,63.302 L41.307,64.843 L41.188,66.383 L41.069,67.924 L40.950,69.465 L40.830,71.006 L40.711,72.547 L40.592,74.088 L40.473,75.628 L40.353,77.169 L40.234,78.710 L40.115,80.251 L39.995,81.792 L39.876,83.333 L39.757,84.874 L39.811,84.176 L39.757,84.874 L39.811,84.176 L39.757,84.874 M42.114,50.950 L42.036,51.645 L42.114,50.950 L42.036,51.645 L42.114,50.950 L41.943,52.486 L41.772,54.022 L41.601,55.558 L41.430,57.094 L41.259,58.630 L41.088,60.166 L40.917,61.702 L40.747,63.238 L40.576,64.774 L40.405,66.310 L40.234,67.845 L40.063,69.381 L39.892,70.917 L39.721,72.453 L39.550,73.989 L39.379,75.525 L39.209,77.061 L39.038,78.597 L38.867,80.133 L38.696,81.669 L38.525,83.205 L38.354,84.741 L38.432,84.046 L38.354,84.741 L38.432,84.046 L38.354,84.741 M41.846,50.915 L41.745,51.608 L41.846,50.915 L41.745,51.608 L41.846,50.915 L41.623,52.445 L41.400,53.974 L41.178,55.503 L40.955,57.033 L40.732,58.562 L40.510,60.091 L40.287,61.621 L40.064,63.150 L39.842,64.679 L39.619,66.209 L39.396,67.738 L39.174,69.267 L38.951,70.797 L38.728,72.326 L38.506,73.855 L38.283,75.385 L38.060,76.914 L37.838,78.443 L37.615,79.973 L37.392,81.502 L37.170,83.031 L36.947,84.561 L37.048,83.868 L36.947,84.561 L37.048,83.868 L36.947,84.561 M41.582,50.872 L41.458,51.561 L41.582,50.872 L41.458,51.561 L41.582,50.872 L41.309,52.394 L41.035,53.915 L40.761,55.436 L40.488,56.957 L40.214,58.478 L39.941,59.999 L39.667,61.520 L39.394,63.041 L39.120,64.562 L38.846,66.083 L38.573,67.604 L38.299,69.125 L38.026,70.646 L37.752,72.167 L37.478,73.688 L37.205,75.209 L36.931,76.730 L36.658,78.251 L36.384,79.772 L36.111,81.293 L35.837,82.814 L35.563,84.335 L35.687,83.647 L35.563,84.335 L35.687,83.647 L35.563,84.335 M41.327,50.822 L41.181,51.507 L41.327,50.822 L41.181,51.507 L41.327,50.822 L41.005,52.334 L40.682,53.845 L40.359,55.356 L40.036,56.868 L39.713,58.379 L39.390,59.891 L39.068,61.402 L38.745,62.913 L38.422,64.425 L38.099,65.936 L37.776,67.447 L37.454,68.959 L37.131,70.470 L36.808,71.981 L36.485,73.493 L36.162,75.004 L35.840,76.516 L35.517,78.027 L35.194,79.538 L34.871,81.050 L34.548,82.561 L34.226,84.072 L34.372,83.388 L34.226,84.072 L34.372,83.388 L34.226,84.072 M41.081,50.766 L40.913,51.445 L41.081,50.766 L40.913,51.445 L41.081,50.766 L40.710,52.266 L40.340,53.766 L39.970,55.267 L39.599,56.767 L39.229,58.268 L38.858,59.768 L38.488,61.268 L38.118,62.769 L37.747,64.269 L37.377,65.770 L37.006,67.270 L36.636,68.771 L36.266,70.271 L35.895,71.771 L35.525,73.272 L35.154,74.772 L34.784,76.273 L34.413,77.773 L34.043,79.273 L33.673,80.774 L33.302,82.274 L32.932,83.775 L33.100,83.095 L32.932,83.775 L33.100,83.095 L32.932,83.775 M40.841,50.702 L40.652,51.376 L40.841,50.702 L40.652,51.376 L40.841,50.702 L40.424,52.190 L40.007,53.679 L39.590,55.167 L39.173,56.655 L38.756,58.143 L38.340,59.631 L37.923,61.120 L37.506,62.608 L37.089,64.096 L36.672,65.584 L36.255,67.072 L35.838,68.560 L35.422,70.049 L35.005,71.537 L34.588,73.025 L34.171,74.513 L33.754,76.001 L33.337,77.490 L32.921,78.978 L32.504,80.466 L32.087,81.954 L31.670,83.442 L31.859,82.768 L31.670,83.442 L31.859,82.768 L31.670,83.442 M40.603,50.632 L40.393,51.300 L40.603,50.632 L40.393,51.300 L40.603,50.632 L40.140,52.106 L39.678,53.581 L39.215,55.055 L38.752,56.530 L38.289,58.005 L37.827,59.479 L37.364,60.954 L36.901,62.428 L36.439,63.903 L35.976,65.377 L35.513,66.852 L35.050,68.326 L34.588,69.801 L34.125,71.276 L33.662,72.750 L33.199,74.225 L32.737,75.699 L32.274,77.174 L31.811,78.648 L31.349,80.123 L30.886,81.597 L30.423,83.072 L30.633,82.404 L30.423,83.072 L30.633,82.404 L30.423,83.072 M40.365,50.553 L40.134,51.214 L40.365,50.553 L40.134,51.214 L40.365,50.553 L39.856,52.012 L39.347,53.472 L38.838,54.931 L38.330,56.390 L37.821,57.849 L37.312,59.309 L36.803,60.768 L36.295,62.227 L35.786,63.687 L35.277,65.146 L34.768,66.605 L34.260,68.065 L33.751,69.524 L33.242,70.983 L32.733,72.443 L32.225,73.902 L31.716,75.361 L31.207,76.821 L30.698,78.280 L30.190,79.739 L29.681,81.198 L29.172,82.658 L29.402,81.997 L29.172,82.658 L29.402,81.997 L29.172,82.658 M40.121,50.463 L39.869,51.117 L40.121,50.463 L39.869,51.117 L40.121,50.463 L39.565,51.906 L39.009,53.348 L38.454,54.790 L37.898,56.232 L37.342,57.674 L36.786,59.116 L36.230,60.558 L35.674,62.000 L35.119,63.442 L34.563,64.884 L34.007,66.326 L33.451,67.768 L32.895,69.210 L32.339,70.652 L31.784,72.094 L31.228,73.536 L30.672,74.978 L30.116,76.420 L29.560,77.862 L29.004,79.304 L28.449,80.746 L27.893,82.188 L28.145,81.535 L27.893,82.188 L28.145,81.535 L27.893,82.188 M39.863,50.359 L39.589,51.003 L39.863,50.359 L39.589,51.003 L39.863,50.359 L39.258,51.781 L38.652,53.203 L38.046,54.624 L37.441,56.046 L36.835,57.468 L36.229,58.890 L35.624,60.312 L35.018,61.734 L34.412,63.155 L33.807,64.577 L33.201,65.999 L32.596,67.421 L31.990,68.843 L31.384,70.265 L30.779,71.687 L30.173,73.108 L29.567,74.530 L28.962,75.952 L28.356,77.374 L27.750,78.796 L27.145,80.218 L26.539,81.639 L26.813,80.995 L26.539,81.639 L26.813,80.995 L26.539,81.639 M39.584,50.233 L39.285,50.866 L39.584,50.233 L39.285,50.866 L39.584,50.233 L38.924,51.631 L38.264,53.029 L37.605,54.426 L36.945,55.824 L36.285,57.221 L35.626,58.619 L34.966,60.017 L34.306,61.414 L33.647,62.812 L32.987,64.209 L32.327,65.607 L31.668,67.005 L31.008,68.402 L30.348,69.800 L29.689,71.197 L29.029,72.595 L28.370,73.993 L27.710,75.390 L27.050,76.788 L26.391,78.185 L25.731,79.583 L25.071,80.981 L25.370,80.348 L25.071,80.981 L25.370,80.348 L25.071,80.981 M39.282,50.083 L38.957,50.703 L39.282,50.083 L38.957,50.703 L39.282,50.083 L38.564,51.452 L37.846,52.820 L37.128,54.189 L36.410,55.558 L35.693,56.926 L34.975,58.295 L34.257,59.663 L33.539,61.032 L32.821,62.401 L32.103,63.769 L31.385,65.138 L30.667,66.506 L29.949,67.875 L29.231,69.244 L28.514,70.612 L27.796,71.981 L27.078,73.349 L26.360,74.718 L25.642,76.086 L24.924,77.455 L24.206,78.824 L23.488,80.192 L23.813,79.572 L23.488,80.192 L23.813,79.572 L23.488,80.192 M38.967,49.909 L38.614,50.513 L38.967,49.909 L38.614,50.513 L38.967,49.909 L38.188,51.244 L37.409,52.579 L36.631,53.914 L35.852,55.248 L35.073,56.583 L34.294,57.918 L33.516,59.253 L32.737,60.588 L31.958,61.923 L31.179,63.258 L30.400,64.593 L29.622,65.928 L28.843,67.262 L28.064,68.597 L27.285,69.932 L26.507,71.267 L25.728,72.602 L24.949,73.937 L24.170,75.272 L23.392,76.607 L22.613,77.942 L21.834,79.276 L22.187,78.672 L21.834,79.276 L22.187,78.672 L21.834,79.276 M38.653,49.716 L38.273,50.304 L38.653,49.716 L38.273,50.304 L38.653,49.716 L37.814,51.013 L36.974,52.311 L36.135,53.609 L35.295,54.906 L34.456,56.204 L33.616,57.501 L32.777,58.799 L31.937,60.097 L31.098,61.394 L30.259,62.692 L29.419,63.989 L28.580,65.287 L27.740,66.585 L26.901,67.882 L26.061,69.180 L25.222,70.477 L24.382,71.775 L23.543,73.073 L22.704,74.370 L21.864,75.668 L21.025,76.965 L20.185,78.263 L20.565,77.675 L20.185,78.263 L20.565,77.675 L20.185,78.263 M38.356,49.514 L37.950,50.084 L38.356,49.514 L37.950,50.084 L38.356,49.514 L37.460,50.773 L36.563,52.032 L35.666,53.290 L34.769,54.549 L33.873,55.808 L32.976,57.067 L32.079,58.325 L31.183,59.584 L30.286,60.843 L29.389,62.101 L28.492,63.360 L27.596,64.619 L26.699,65.877 L25.802,67.136 L24.905,68.395 L24.009,69.653 L23.112,70.912 L22.215,72.171 L21.319,73.429 L20.422,74.688 L19.525,75.947 L18.628,77.206 L19.034,76.635 L18.628,77.206 L19.034,76.635 L18.628,77.206 M38.091,49.317 L37.662,49.870 L38.091,49.317 L37.662,49.870 L38.091,49.317 L37.143,50.538 L36.195,51.758 L35.247,52.979 L34.299,54.199 L33.351,55.420 L32.403,56.640 L31.455,57.861 L30.507,59.082 L29.559,60.302 L28.611,61.523 L27.664,62.743 L26.716,63.964 L25.768,65.184 L24.820,66.405 L23.872,67.626 L22.924,68.846 L21.976,70.067 L21.028,71.287 L20.080,72.508 L19.132,73.728 L18.184,74.949 L17.236,76.169 L17.665,75.617 L17.236,76.169 L17.665,75.617 L17.236,76.169 M37.865,49.135 L37.416,49.672 L37.865,49.135 L37.416,49.672 L37.865,49.135 L36.874,50.320 L35.882,51.506 L34.890,52.691 L33.899,53.876 L32.907,55.062 L31.915,56.247 L30.924,57.432 L29.932,58.618 L28.941,59.803 L27.949,60.989 L26.957,62.174 L25.966,63.359 L24.974,64.545 L23.982,65.730 L22.991,66.915 L21.999,68.101 L21.008,69.286 L20.016,70.472 L19.024,71.657 L18.033,72.842 L17.041,74.028 L16.049,75.213 L16.499,74.676 L16.049,75.213 L16.499,74.676 L16.049,75.213 M37.679,48.974 L37.214,49.497 L37.679,48.974 L37.214,49.497 L37.679,48.974 L36.651,50.129 L35.624,51.283 L34.596,52.437 L33.569,53.592 L32.541,54.746 L31.514,55.900 L30.486,57.055 L29.458,58.209 L28.431,59.363 L27.403,60.518 L26.376,61.672 L25.348,62.826 L24.320,63.981 L23.293,65.135 L22.265,66.289 L21.238,67.444 L20.210,68.598 L19.183,69.752 L18.155,70.907 L17.127,72.061 L16.100,73.215 L15.072,74.370 L15.538,73.847 L15.072,74.370 L15.538,73.847 L15.072,74.370 M37.526,48.835 L37.047,49.345 L37.526,48.835 L37.047,49.345 L37.526,48.835 L36.469,49.962 L35.412,51.089 L34.355,52.217 L33.298,53.344 L32.241,54.471 L31.184,55.599 L30.127,56.726 L29.069,57.854 L28.012,58.981 L26.955,60.108 L25.898,61.236 L24.841,62.363 L23.784,63.490 L22.727,64.618 L21.670,65.745 L20.613,66.873 L19.556,68.000 L18.498,69.127 L17.441,70.255 L16.384,71.382 L15.327,72.509 L14.270,73.637 L14.749,73.126 L14.270,73.637 L14.749,73.126 L14.270,73.637 M37.395,48.709 L36.905,49.209 L37.395,48.709 L36.905,49.209 L37.395,48.709 L36.313,49.812 L35.231,50.915 L34.148,52.018 L33.066,53.122 L31.983,54.225 L30.901,55.328 L29.819,56.431 L28.736,57.534 L27.654,58.637 L26.571,59.740 L25.489,60.843 L24.407,61.946 L23.324,63.050 L22.242,64.153 L21.160,65.256 L20.077,66.359 L18.995,67.462 L17.912,68.565 L16.830,69.668 L15.748,70.771 L14.665,71.874 L13.583,72.978 L14.073,72.478 L13.583,72.978 L14.073,72.478 L13.583,72.978 M37.274,48.587 L36.773,49.076 L37.274,48.587 L36.773,49.076 L37.274,48.587 L36.168,49.667 L35.062,50.746 L33.956,51.826 L32.850,52.905 L31.744,53.985 L30.638,55.064 L29.532,56.144 L28.426,57.223 L27.320,58.303 L26.215,59.382 L25.109,60.462 L24.003,61.541 L22.897,62.621 L21.791,63.700 L20.685,64.780 L19.579,65.859 L18.473,66.939 L17.367,68.019 L16.261,69.098 L15.155,70.178 L14.049,71.257 L12.944,72.337 L13.444,71.848 L12.944,72.337 L13.444,71.848 L12.944,72.337 M37.150,48.457 L36.638,48.935 L37.150,48.457 L36.638,48.935 L37.150,48.457 L36.020,49.512 L34.890,50.566 L33.760,51.621 L32.630,52.675 L31.501,53.730 L30.371,54.784 L29.241,55.838 L28.111,56.893 L26.981,57.947 L25.851,59.002 L24.722,60.056 L23.592,61.111 L22.462,62.165 L21.332,63.220 L20.202,64.274 L19.072,65.329 L17.943,66.383 L16.813,67.438 L15.683,68.492 L14.553,69.547 L13.423,70.601 L12.293,71.655 L12.805,71.178 L12.293,71.655 L12.805,71.178 L12.293,71.655 M37.016,48.310 L36.493,48.775 L37.016,48.310 L36.493,48.775 L37.016,48.310 L35.860,49.337 L34.705,50.363 L33.549,51.389 L32.394,52.415 L31.238,53.441 L30.082,54.467 L28.927,55.493 L27.771,56.519 L26.615,57.545 L25.460,58.572 L24.304,59.598 L23.148,60.624 L21.993,61.650 L20.837,62.676 L19.681,63.702 L18.526,64.728 L17.370,65.754 L16.214,66.780 L15.059,67.806 L13.903,68.833 L12.747,69.859 L11.592,70.885 L12.115,70.420 L11.592,70.885 L12.115,70.420 L11.592,70.885 M36.869,48.140 L36.333,48.590 L36.869,48.140 L36.333,48.590 L36.869,48.140 L35.685,49.134 L34.501,50.127 L33.317,51.120 L32.133,52.113 L30.949,53.107 L29.765,54.100 L28.581,55.093 L27.397,56.086 L26.213,57.080 L25.029,58.073 L23.845,59.066 L22.661,60.059 L21.477,61.053 L20.293,62.046 L19.109,63.039 L17.925,64.032 L16.741,65.026 L15.557,66.019 L14.373,67.012 L13.189,68.005 L12.005,68.999 L10.821,69.992 L11.357,69.542 L10.821,69.992 L11.357,69.542 L10.821,69.992 M36.710,47.944 L36.159,48.376 L36.710,47.944 L36.159,48.376 L36.710,47.944 L35.495,48.899 L34.280,49.854 L33.065,50.810 L31.850,51.765 L30.635,52.720 L29.421,53.676 L28.206,54.631 L26.991,55.586 L25.776,56.541 L24.561,57.497 L23.346,58.452 L22.132,59.407 L20.917,60.363 L19.702,61.318 L18.487,62.273 L17.272,63.228 L16.057,64.184 L14.842,65.139 L13.628,66.094 L12.413,67.050 L11.198,68.005 L9.983,68.960 L10.533,68.527 L9.983,68.960 L10.533,68.527 L9.983,68.960 M36.541,47.721 L35.975,48.134 L36.541,47.721 L35.975,48.134 L36.541,47.721 L35.293,48.633 L34.045,49.545 L32.798,50.457 L31.550,51.369 L30.303,52.282 L29.055,53.194 L27.808,54.106 L26.560,55.018 L25.313,55.930 L24.065,56.843 L22.818,57.755 L21.570,58.667 L20.323,59.579 L19.075,60.491 L17.828,61.404 L16.580,62.316 L15.332,63.228 L14.085,64.140 L12.837,65.052 L11.590,65.965 L10.342,66.877 L9.095,67.789 L9.660,67.376 L9.095,67.789 L9.660,67.376 L9.095,67.789 M36.367,47.475 L35.787,47.866 L36.367,47.475 L35.787,47.866 L36.367,47.475 L35.087,48.339 L33.806,49.204 L32.525,50.068 L31.244,50.933 L29.963,51.798 L28.682,52.662 L27.401,53.527 L26.120,54.391 L24.839,55.256 L23.558,56.121 L22.277,56.985 L20.996,57.850 L19.715,58.715 L18.434,59.579 L17.153,60.444 L15.872,61.308 L14.591,62.173 L13.310,63.038 L12.029,63.902 L10.748,64.767 L9.467,65.632 L8.186,66.496 L8.767,66.105 L8.186,66.496 L8.767,66.105 L8.186,66.496 M36.197,47.211 L35.602,47.580 L36.197,47.211 L35.602,47.580 L36.197,47.211 L34.883,48.025 L33.570,48.839 L32.256,49.653 L30.942,50.467 L29.628,51.280 L28.314,52.094 L27.000,52.908 L25.687,53.722 L24.373,54.536 L23.059,55.349 L21.745,56.163 L20.431,56.977 L19.117,57.791 L17.804,58.605 L16.490,59.418 L15.176,60.232 L13.862,61.046 L12.548,61.860 L11.234,62.674 L9.921,63.487 L8.607,64.301 L7.293,65.115 L7.888,64.746 L7.293,65.115 L7.888,64.746 L7.293,65.115 M36.036,46.939 L35.427,47.284 L36.036,46.939 L35.427,47.284 L36.036,46.939 L34.691,47.700 L33.346,48.462 L32.001,49.223 L30.656,49.984 L29.311,50.745 L27.966,51.506 L26.621,52.268 L25.276,53.029 L23.931,53.790 L22.586,54.551 L21.241,55.312 L19.896,56.074 L18.551,56.835 L17.206,57.596 L15.861,58.357 L14.516,59.118 L13.171,59.880 L11.826,60.641 L10.481,61.402 L9.136,62.163 L7.791,62.925 L6.446,63.686 L7.055,63.341 L6.446,63.686 L7.055,63.341 L6.446,63.686 M35.888,46.665 L35.265,46.985 L35.888,46.665 L35.265,46.985 L35.888,46.665 L34.514,47.373 L33.140,48.081 L31.767,48.789 L30.393,49.497 L29.019,50.205 L27.646,50.914 L26.272,51.622 L24.898,52.330 L23.525,53.038 L22.151,53.746 L20.777,54.454 L19.404,55.163 L18.030,55.871 L16.656,56.579 L15.283,57.287 L13.909,57.995 L12.536,58.703 L11.162,59.412 L9.788,60.120 L8.415,60.828 L7.041,61.536 L5.667,62.244 L6.289,61.924 L5.667,62.244 L6.289,61.924 L5.667,62.244 M35.753,46.391 L35.119,46.688 L35.753,46.391 L35.119,46.688 L35.753,46.391 L34.354,47.046 L32.954,47.702 L31.554,48.357 L30.155,49.012 L28.755,49.668 L27.355,50.323 L25.956,50.978 L24.556,51.634 L23.156,52.289 L21.757,52.944 L20.357,53.600 L18.958,54.255 L17.558,54.910 L16.158,55.566 L14.759,56.221 L13.359,56.876 L11.959,57.532 L10.560,58.187 L9.160,58.842 L7.761,59.498 L6.361,60.153 L4.961,60.808 L5.595,60.512 L4.961,60.808 L5.595,60.512 L4.961,60.808 M35.631,46.117 L34.986,46.390 L35.631,46.117 L34.986,46.390 L35.631,46.117 L34.208,46.719 L32.785,47.322 L31.361,47.924 L29.938,48.527 L28.515,49.129 L27.092,49.731 L25.669,50.334 L24.245,50.936 L22.822,51.539 L21.399,52.141 L19.976,52.743 L18.552,53.346 L17.129,53.948 L15.706,54.550 L14.283,55.153 L12.860,55.755 L11.436,56.358 L10.013,56.960 L8.590,57.562 L7.167,58.165 L5.743,58.767 L4.320,59.370 L4.965,59.097 L4.320,59.370 L4.965,59.097 L4.320,59.370 M35.519,45.837 L34.864,46.085 L35.519,45.837 L34.864,46.085 L35.519,45.837 L34.074,46.385 L32.629,46.934 L31.184,47.482 L29.739,48.030 L28.294,48.579 L26.849,49.127 L25.404,49.675 L23.959,50.223 L22.514,50.772 L21.070,51.320 L19.625,51.868 L18.180,52.417 L16.735,52.965 L15.290,53.513 L13.845,54.062 L12.400,54.610 L10.955,55.158 L9.510,55.706 L8.065,56.255 L6.620,56.803 L5.175,57.351 L3.730,57.900 L4.385,57.651 L3.730,57.900 L4.385,57.651 L3.730,57.900 M35.415,45.548 L34.752,45.771 L35.415,45.548 L34.752,45.771 L35.415,45.548 L33.950,46.040 L32.485,46.532 L31.020,47.025 L29.556,47.517 L28.091,48.009 L26.626,48.502 L25.161,48.994 L23.696,49.486 L22.231,49.979 L20.766,50.471 L19.301,50.964 L17.836,51.456 L16.371,51.948 L14.906,52.441 L13.441,52.933 L11.976,53.425 L10.511,53.918 L9.047,54.410 L7.582,54.903 L6.117,55.395 L4.652,55.887 L3.187,56.380 L3.850,56.157 L3.187,56.380 L3.850,56.157 L3.187,56.380 M35.322,45.251 L34.650,45.448 L35.322,45.251 L34.650,45.448 L35.322,45.251 L33.839,45.686 L32.356,46.121 L30.873,46.556 L29.390,46.992 L27.907,47.427 L26.424,47.862 L24.941,48.297 L23.458,48.732 L21.975,49.167 L20.493,49.602 L19.010,50.037 L17.527,50.472 L16.044,50.908 L14.561,51.343 L13.078,51.778 L11.595,52.213 L10.112,52.648 L8.629,53.083 L7.146,53.518 L5.663,53.953 L4.180,54.388 L2.697,54.824 L3.369,54.626 L2.697,54.824 L3.369,54.626 L2.697,54.824 M35.240,44.952 L34.562,45.123 L35.240,44.952 L34.562,45.123 L35.240,44.952 L33.742,45.329 L32.243,45.707 L30.744,46.084 L29.246,46.461 L27.747,46.839 L26.248,47.216 L24.750,47.594 L23.251,47.971 L21.752,48.348 L20.254,48.726 L18.755,49.103 L17.256,49.480 L15.758,49.858 L14.259,50.235 L12.760,50.612 L11.262,50.990 L9.763,51.367 L8.264,51.744 L6.766,52.122 L5.267,52.499 L3.768,52.876 L2.269,53.254 L2.948,53.083 L2.269,53.254 L2.948,53.083 L2.269,53.254 M35.172,44.654 L34.487,44.799 L35.172,44.654 L34.487,44.799 L35.172,44.654 L33.660,44.974 L32.148,45.294 L30.636,45.614 L29.124,45.934 L27.612,46.254 L26.100,46.573 L24.588,46.893 L23.076,47.213 L21.564,47.533 L20.052,47.853 L18.540,48.172 L17.028,48.492 L15.516,48.812 L14.004,49.132 L12.492,49.452 L10.980,49.772 L9.468,50.091 L7.956,50.411 L6.444,50.731 L4.932,51.051 L3.420,51.371 L1.908,51.691 L2.592,51.546 L1.908,51.691 L2.592,51.546 L1.908,51.691 M35.115,44.361 L34.425,44.480 L35.115,44.361 L34.425,44.480 L35.115,44.361 L33.592,44.624 L32.069,44.887 L30.547,45.150 L29.024,45.414 L27.501,45.677 L25.978,45.940 L24.455,46.203 L22.932,46.466 L21.409,46.729 L19.886,46.992 L18.363,47.256 L16.841,47.519 L15.318,47.782 L13.795,48.045 L12.272,48.308 L10.749,48.571 L9.226,48.834 L7.703,49.098 L6.180,49.361 L4.657,49.624 L3.135,49.887 L1.612,50.150 L2.301,50.031 L1.612,50.150 L2.301,50.031 L1.612,50.150 M35.071,44.073 L34.377,44.167 L35.071,44.073 L34.377,44.167 L35.071,44.073 L33.539,44.281 L32.008,44.488 L30.476,44.696 L28.945,44.904 L27.414,45.111 L25.882,45.319 L24.351,45.526 L22.819,45.734 L21.288,45.941 L19.756,46.149 L18.225,46.357 L16.693,46.564 L15.162,46.772 L13.631,46.979 L12.099,47.187 L10.568,47.394 L9.036,47.602 L7.505,47.810 L5.973,48.017 L4.442,48.225 L2.910,48.432 L1.379,48.640 L2.073,48.546 L1.379,48.640 L2.073,48.546 L1.379,48.640 M35.038,43.790 L34.341,43.859 L35.038,43.790 L34.341,43.859 L35.038,43.790 L33.500,43.943 L31.962,44.095 L30.424,44.248 L28.886,44.401 L27.348,44.554 L25.810,44.707 L24.272,44.859 L22.734,45.012 L21.197,45.165 L19.659,45.318 L18.121,45.471 L16.583,45.623 L15.045,45.776 L13.507,45.929 L11.969,46.082 L10.431,46.235 L8.894,46.387 L7.356,46.540 L5.818,46.693 L4.280,46.846 L2.742,46.999 L1.204,47.151 L1.901,47.082 L1.204,47.151 L1.901,47.082 L1.204,47.151 M35.014,43.507 L34.316,43.551 L35.014,43.507 L34.316,43.551 L35.014,43.507 L33.472,43.605 L31.930,43.703 L30.387,43.801 L28.845,43.899 L27.303,43.997 L25.760,44.095 L24.218,44.194 L22.676,44.292 L21.133,44.390 L19.591,44.488 L18.049,44.586 L16.506,44.684 L14.964,44.782 L13.422,44.880 L11.879,44.979 L10.337,45.077 L8.795,45.175 L7.252,45.273 L5.710,45.371 L4.168,45.469 L2.625,45.567 L1.083,45.665 L1.782,45.621 L1.083,45.665 L1.782,45.621 L1.083,45.665 M35.001,43.220 L34.302,43.240 L35.001,43.220 L34.302,43.240 L35.001,43.220 L33.457,43.263 L31.912,43.306 L30.367,43.349 L28.822,43.392 L27.277,43.434 L25.732,43.477 L24.187,43.520 L22.643,43.563 L21.098,43.606 L19.553,43.648 L18.008,43.691 L16.463,43.734 L14.918,43.777 L13.373,43.820 L11.828,43.862 L10.284,43.905 L8.739,43.948 L7.194,43.991 L5.649,44.034 L4.104,44.076 L2.559,44.119 L1.014,44.162 L1.714,44.143 L1.014,44.162 L1.714,44.143 L1.014,44.162 M34.999,42.928 L34.299,42.921 L34.999,42.928 L34.299,42.921 L34.999,42.928 L33.453,42.914 L31.908,42.900 L30.362,42.887 L28.817,42.873 L27.272,42.859 L25.726,42.845 L24.181,42.832 L22.636,42.818 L21.090,42.804 L19.545,42.790 L17.999,42.777 L16.454,42.763 L14.909,42.749 L13.363,42.735 L11.818,42.722 L10.272,42.708 L8.727,42.694 L7.182,42.680 L5.636,42.667 L4.091,42.653 L2.545,42.639 L1.000,42.626 L1.700,42.632 L1.000,42.626 L1.700,42.632 L1.000,42.626 M35.007,42.627 L34.308,42.594 L35.007,42.627 L34.308,42.594 L35.007,42.627 L33.463,42.555 L31.919,42.483 L30.376,42.411 L28.832,42.340 L27.288,42.268 L25.744,42.196 L24.201,42.124 L22.657,42.052 L21.113,41.980 L19.569,41.908 L18.025,41.837 L16.482,41.765 L14.938,41.693 L13.394,41.621 L11.850,41.549 L10.306,41.477 L8.763,41.406 L7.219,41.334 L5.675,41.262 L4.131,41.190 L2.588,41.118 L1.044,41.046 L1.743,41.079 L1.044,41.046 L1.743,41.079 L1.044,41.046 M35.027,42.318 L34.330,42.258 L35.027,42.318 L34.330,42.258 L35.027,42.318 L33.488,42.186 L31.948,42.055 L30.408,41.923 L28.868,41.792 L27.328,41.660 L25.788,41.528 L24.248,41.397 L22.709,41.265 L21.169,41.134 L19.629,41.002 L18.089,40.871 L16.549,40.739 L15.009,40.607 L13.470,40.476 L11.930,40.344 L10.390,40.213 L8.850,40.081 L7.310,39.950 L5.770,39.818 L4.230,39.686 L2.691,39.555 L1.151,39.423 L1.848,39.483 L1.151,39.423 L1.848,39.483 L1.151,39.423 M35.061,42.002 L34.366,41.915 L35.061,42.002 L34.366,41.915 L35.061,42.002 L33.527,41.809 L31.994,41.617 L30.460,41.424 L28.927,41.231 L27.394,41.039 L25.860,40.846 L24.327,40.654 L22.793,40.461 L21.260,40.269 L19.727,40.076 L18.193,39.883 L16.660,39.691 L15.126,39.498 L13.593,39.306 L12.060,39.113 L10.526,38.920 L8.993,38.728 L7.459,38.535 L5.926,38.343 L4.393,38.150 L2.859,37.957 L1.326,37.765 L2.020,37.852 L1.326,37.765 L2.020,37.852 L1.326,37.765 M35.107,41.682 L34.417,41.567 L35.107,41.682 L34.417,41.567 L35.107,41.682 L33.583,41.428 L32.059,41.174 L30.534,40.920 L29.010,40.665 L27.485,40.411 L25.961,40.157 L24.437,39.902 L22.912,39.648 L21.388,39.394 L19.864,39.139 L18.339,38.885 L16.815,38.631 L15.290,38.376 L13.766,38.122 L12.242,37.868 L10.717,37.614 L9.193,37.359 L7.668,37.105 L6.144,36.851 L4.620,36.596 L3.095,36.342 L1.571,36.088 L2.261,36.203 L1.571,36.088 L2.261,36.203 L1.571,36.088 M35.167,41.364 L34.482,41.221 L35.167,41.364 L34.482,41.221 L35.167,41.364 L33.654,41.048 L32.141,40.732 L30.629,40.416 L29.116,40.101 L27.603,39.785 L26.090,39.469 L24.577,39.153 L23.064,38.837 L21.552,38.522 L20.039,38.206 L18.526,37.890 L17.013,37.574 L15.500,37.258 L13.987,36.942 L12.475,36.627 L10.962,36.311 L9.449,35.995 L7.936,35.679 L6.423,35.363 L4.910,35.048 L3.398,34.732 L1.885,34.416 L2.570,34.559 L1.885,34.416 L2.570,34.559 L1.885,34.416 M35.239,41.052 L34.560,40.881 L35.239,41.052 L34.560,40.881 L35.239,41.052 L33.740,40.675 L32.241,40.299 L30.742,39.923 L29.243,39.547 L27.744,39.171 L26.245,38.795 L24.746,38.418 L23.247,38.042 L21.748,37.666 L20.249,37.290 L18.750,36.914 L17.251,36.538 L15.752,36.161 L14.253,35.785 L12.754,35.409 L11.255,35.033 L9.756,34.657 L8.257,34.281 L6.758,33.904 L5.259,33.528 L3.760,33.152 L2.261,32.776 L2.940,32.946 L2.261,32.776 L2.940,32.946 L2.261,32.776 M35.321,40.750 L34.649,40.553 L35.321,40.750 L34.649,40.553 L35.321,40.750 L33.838,40.316 L32.355,39.881 L30.871,39.447 L29.388,39.013 L27.905,38.578 L26.422,38.144 L24.939,37.709 L23.456,37.275 L21.973,36.841 L20.489,36.406 L19.006,35.972 L17.523,35.537 L16.040,35.103 L14.557,34.669 L13.074,34.234 L11.591,33.800 L10.107,33.365 L8.624,32.931 L7.141,32.497 L5.658,32.062 L4.175,31.628 L2.692,31.193 L3.363,31.390 L2.692,31.193 L3.363,31.390 L2.692,31.193 M35.411,40.464 L34.747,40.242 L35.411,40.464 L34.747,40.242 L35.411,40.464 L33.945,39.974 L32.479,39.484 L31.013,38.995 L29.547,38.505 L28.082,38.015 L26.616,37.525 L25.150,37.036 L23.684,36.546 L22.218,36.056 L20.753,35.567 L19.287,35.077 L17.821,34.587 L16.355,34.097 L14.889,33.608 L13.423,33.118 L11.958,32.628 L10.492,32.138 L9.026,31.649 L7.560,31.159 L6.094,30.669 L4.629,30.180 L3.163,29.690 L3.827,29.912 L3.163,29.690 L3.827,29.912 L3.163,29.690 M35.505,40.196 L34.850,39.951 L35.505,40.196 L34.850,39.951 L35.505,40.196 L34.058,39.655 L32.610,39.113 L31.163,38.572 L29.715,38.030 L28.268,37.489 L26.820,36.947 L25.373,36.406 L23.925,35.865 L22.478,35.323 L21.030,34.782 L19.583,34.240 L18.135,33.699 L16.688,33.157 L15.240,32.616 L13.793,32.075 L12.345,31.533 L10.898,30.992 L9.450,30.450 L8.003,29.909 L6.555,29.367 L5.108,28.826 L3.660,28.285 L4.316,28.530 L3.660,28.285 L4.316,28.530 L3.660,28.285 M35.600,39.955 L34.953,39.688 L35.600,39.955 L34.953,39.688 L35.600,39.955 L34.171,39.367 L32.742,38.779 L31.312,38.191 L29.883,37.603 L28.454,37.015 L27.025,36.426 L25.596,35.838 L24.166,35.250 L22.737,34.662 L21.308,34.074 L19.879,33.486 L18.450,32.898 L17.020,32.310 L15.591,31.722 L14.162,31.134 L12.733,30.546 L11.304,29.958 L9.874,29.370 L8.445,28.782 L7.016,28.194 L5.587,27.606 L4.158,27.018 L4.805,27.284 L4.158,27.018 L4.805,27.284 L4.158,27.018 M35.688,39.749 L35.049,39.465 L35.688,39.749 L35.049,39.465 L35.688,39.749 L34.276,39.121 L32.864,38.493 L31.452,37.865 L30.039,37.238 L28.627,36.610 L27.215,35.982 L25.803,35.354 L24.391,34.726 L22.979,34.098 L21.566,33.471 L20.154,32.843 L18.742,32.215 L17.330,31.587 L15.918,30.959 L14.505,30.332 L13.093,29.704 L11.681,29.076 L10.269,28.448 L8.857,27.820 L7.444,27.192 L6.032,26.565 L4.620,25.937 L5.260,26.221 L4.620,25.937 L5.260,26.221 L4.620,25.937 M35.765,39.582 L35.132,39.283 L35.765,39.582 L35.132,39.283 L35.765,39.582 L34.367,38.922 L32.970,38.262 L31.573,37.601 L30.175,36.941 L28.778,36.281 L27.381,35.621 L25.983,34.961 L24.586,34.301 L23.188,33.641 L21.791,32.981 L20.394,32.320 L18.996,31.660 L17.599,31.000 L16.201,30.340 L14.804,29.680 L13.407,29.020 L12.009,28.360 L10.612,27.700 L9.215,27.040 L7.817,26.379 L6.420,25.719 L5.022,25.059 L5.655,25.358 L5.022,25.059 L5.655,25.358 L5.022,25.059 M35.830,39.448 L35.202,39.137 L35.830,39.448 L35.202,39.137 L35.830,39.448 L34.445,38.762 L33.060,38.076 L31.675,37.390 L30.290,36.704 L28.905,36.018 L27.520,35.332 L26.135,34.646 L24.751,33.960 L23.366,33.274 L21.981,32.588 L20.596,31.902 L19.211,31.216 L17.826,30.530 L16.441,29.844 L15.056,29.159 L13.672,28.473 L12.287,27.787 L10.902,27.101 L9.517,26.415 L8.132,25.729 L6.747,25.043 L5.362,24.357 L5.990,24.667 L5.362,24.357 L5.990,24.667 L5.362,24.357 M35.887,39.334 L35.265,39.013 L35.887,39.334 L35.265,39.013 L35.887,39.334 L34.513,38.626 L33.140,37.918 L31.766,37.210 L30.392,36.502 L29.018,35.794 L27.645,35.086 L26.271,34.378 L24.897,33.670 L23.523,32.962 L22.150,32.254 L20.776,31.546 L19.402,30.838 L18.028,30.130 L16.655,29.422 L15.281,28.714 L13.907,28.006 L12.533,27.298 L11.160,26.590 L9.786,25.882 L8.412,25.174 L7.038,24.466 L5.665,23.758 L6.287,24.079 L5.665,23.758 L6.287,24.079 L5.665,23.758 M35.947,39.221 L35.330,38.890 L35.947,39.221 L35.330,38.890 L35.947,39.221 L34.584,38.491 L33.222,37.761 L31.860,37.031 L30.497,36.302 L29.135,35.572 L27.773,34.842 L26.411,34.112 L25.048,33.382 L23.686,32.653 L22.324,31.923 L20.962,31.193 L19.599,30.463 L18.237,29.733 L16.875,29.003 L15.512,28.274 L14.150,27.544 L12.788,26.814 L11.426,26.084 L10.063,25.354 L8.701,24.625 L7.339,23.895 L5.977,23.165 L6.594,23.495 L5.977,23.165 L6.594,23.495 L5.977,23.165 M36.019,39.088 L35.408,38.746 L36.019,39.088 L35.408,38.746 L36.019,39.088 L34.671,38.333 L33.323,37.578 L31.974,36.822 L30.626,36.067 L29.278,35.311 L27.930,34.556 L26.581,33.801 L25.233,33.045 L23.885,32.290 L22.537,31.534 L21.188,30.779 L19.840,30.024 L18.492,29.268 L17.144,28.513 L15.795,27.757 L14.447,27.002 L13.099,26.247 L11.751,25.491 L10.402,24.736 L9.054,23.980 L7.706,23.225 L6.357,22.470 L6.968,22.812 L6.357,22.470 L6.968,22.812 L6.357,22.470 M36.116,38.920 L35.514,38.563 L36.116,38.920 L35.514,38.563 L36.116,38.920 L34.787,38.132 L33.457,37.344 L32.128,36.556 L30.799,35.768 L29.469,34.980 L28.140,34.192 L26.810,33.404 L25.481,32.616 L24.151,31.828 L22.822,31.040 L21.492,30.252 L20.163,29.464 L18.833,28.676 L17.504,27.888 L16.174,27.100 L14.845,26.312 L13.516,25.524 L12.186,24.736 L10.857,23.948 L9.527,23.160 L8.198,22.372 L6.868,21.583 L7.470,21.940 L6.868,21.583 L7.470,21.940 L6.868,21.583 M36.248,38.705 L35.658,38.329 L36.248,38.705 L35.658,38.329 L36.248,38.705 L34.944,37.875 L33.640,37.046 L32.336,36.216 L31.032,35.387 L29.728,34.558 L28.424,33.728 L27.120,32.899 L25.816,32.069 L24.512,31.240 L23.208,30.410 L21.904,29.581 L20.601,28.751 L19.297,27.922 L17.993,27.092 L16.689,26.263 L15.385,25.433 L14.081,24.604 L12.777,23.774 L11.473,22.945 L10.169,22.115 L8.865,21.286 L7.561,20.456 L8.151,20.832 L7.561,20.456 L8.151,20.832 L7.561,20.456 M36.421,38.444 L35.846,38.046 L36.421,38.444 L35.846,38.046 L36.421,38.444 L35.151,37.565 L33.880,36.685 L32.610,35.805 L31.339,34.925 L30.068,34.045 L28.798,33.165 L27.527,32.286 L26.257,31.406 L24.986,30.526 L23.716,29.646 L22.445,28.766 L21.175,27.886 L19.904,27.007 L18.633,26.127 L17.363,25.247 L16.092,24.367 L14.822,23.487 L13.551,22.608 L12.281,21.728 L11.010,20.848 L9.739,19.968 L8.469,19.088 L9.044,19.487 L8.469,19.088 L9.044,19.487 L8.469,19.088 M36.637,38.147 L36.081,37.723 L36.637,38.147 L36.081,37.723 L36.637,38.147 L35.408,37.210 L34.180,36.273 L32.951,35.336 L31.722,34.398 L30.493,33.461 L29.264,32.524 L28.035,31.587 L26.807,30.649 L25.578,29.712 L24.349,28.775 L23.120,27.838 L21.891,26.901 L20.662,25.963 L19.434,25.026 L18.205,24.089 L16.976,23.152 L15.747,22.214 L14.518,21.277 L13.289,20.340 L12.061,19.403 L10.832,18.466 L9.603,17.528 L10.160,17.953 L9.603,17.528 L10.160,17.953 L9.603,17.528 M36.894,37.828 L36.360,37.376 L36.894,37.828 L36.360,37.376 L36.894,37.828 L35.715,36.829 L34.536,35.830 L33.356,34.831 L32.177,33.832 L30.998,32.833 L29.819,31.835 L28.639,30.836 L27.460,29.837 L26.281,28.838 L25.102,27.839 L23.922,26.840 L22.743,25.841 L21.564,24.842 L20.385,23.843 L19.205,22.844 L18.026,21.846 L16.847,20.847 L15.668,19.848 L14.488,18.849 L13.309,17.850 L12.130,16.851 L10.951,15.852 L11.485,16.305 L10.951,15.852 L11.485,16.305 L10.951,15.852 M37.186,37.502 L36.677,37.021 L37.186,37.502 L36.677,37.021 L37.186,37.502 L36.063,36.440 L34.940,35.378 L33.817,34.317 L32.694,33.255 L31.571,32.193 L30.448,31.131 L29.325,30.069 L28.202,29.007 L27.080,27.946 L25.957,26.884 L24.834,25.822 L23.711,24.760 L22.588,23.698 L21.465,22.636 L20.342,21.574 L19.219,20.513 L18.096,19.451 L16.973,18.389 L15.851,17.327 L14.728,16.265 L13.605,15.203 L12.482,14.142 L12.990,14.623 L12.482,14.142 L12.990,14.623 L12.482,14.142 M37.502,37.186 L37.021,36.678 L37.502,37.186 L37.021,36.678 L37.502,37.186 L36.440,36.063 L35.378,34.940 L34.316,33.817 L33.254,32.695 L32.192,31.572 L31.131,30.449 L30.069,29.326 L29.007,28.203 L27.945,27.080 L26.883,25.957 L25.821,24.834 L24.760,23.711 L23.698,22.588 L22.636,21.465 L21.574,20.343 L20.512,19.220 L19.450,18.097 L18.388,16.974 L17.327,15.851 L16.265,14.728 L15.203,13.605 L14.141,12.482 L14.622,12.991 L14.141,12.482 L14.622,12.991 L14.141,12.482 M37.828,36.894 L37.375,36.360 L37.828,36.894 L37.375,36.360 L37.828,36.894 L36.829,35.715 L35.830,34.536 L34.831,33.357 L33.832,32.177 L32.833,30.998 L31.834,29.819 L30.835,28.640 L29.836,27.461 L28.837,26.281 L27.839,25.102 L26.840,23.923 L25.841,22.744 L24.842,21.564 L23.843,20.385 L22.844,19.206 L21.845,18.027 L20.846,16.847 L19.847,15.668 L18.848,14.489 L17.849,13.310 L16.851,12.130 L15.852,10.951 L16.304,11.485 L15.852,10.951 L16.304,11.485 L15.852,10.951 M38.147,36.638 L37.722,36.081 L38.147,36.638 L37.722,36.081 L38.147,36.638 L37.210,35.409 L36.272,34.180 L35.335,32.951 L34.398,31.722 L33.461,30.494 L32.523,29.265 L31.586,28.036 L30.649,26.807 L29.712,25.578 L28.775,24.349 L27.837,23.121 L26.900,21.892 L25.963,20.663 L25.026,19.434 L24.088,18.205 L23.151,16.976 L22.214,15.748 L21.277,14.519 L20.340,13.290 L19.402,12.061 L18.465,10.832 L17.528,9.603 L17.952,10.160 L17.528,9.603 L17.952,10.160 L17.528,9.603 M38.445,36.421 L38.046,35.846 L38.445,36.421 L38.046,35.846 L38.445,36.421 L37.565,35.151 L36.685,33.880 L35.806,32.609 L34.926,31.339 L34.046,30.068 L33.167,28.797 L32.287,27.527 L31.407,26.256 L30.528,24.985 L29.648,23.715 L28.768,22.444 L27.889,21.173 L27.009,19.903 L26.129,18.632 L25.249,17.361 L24.370,16.091 L23.490,14.820 L22.610,13.549 L21.731,12.279 L20.851,11.008 L19.971,9.737 L19.092,8.467 L19.490,9.042 L19.092,8.467 L19.490,9.042 L19.092,8.467 M38.711,36.245 L38.336,35.654 L38.711,36.245 L38.336,35.654 L38.711,36.245 L37.883,34.940 L37.055,33.635 L36.226,32.330 L35.398,31.025 L34.570,29.721 L33.742,28.416 L32.914,27.111 L32.085,25.806 L31.257,24.501 L30.429,23.197 L29.601,21.892 L28.772,20.587 L27.944,19.282 L27.116,17.978 L26.288,16.673 L25.460,15.368 L24.631,14.063 L23.803,12.758 L22.975,11.454 L22.147,10.149 L21.318,8.844 L20.490,7.539 L20.865,8.130 L20.490,7.539 L20.865,8.130 L20.490,7.539 M38.943,36.103 L38.588,35.499 L38.943,36.103 L38.588,35.499 L38.943,36.103 L38.160,34.771 L37.376,33.438 L36.593,32.106 L35.809,30.774 L35.026,29.442 L34.243,28.110 L33.459,26.778 L32.676,25.445 L31.892,24.113 L31.109,22.781 L30.326,21.449 L29.542,20.117 L28.759,18.784 L27.975,17.452 L27.192,16.120 L26.409,14.788 L25.625,13.456 L24.842,12.123 L24.058,10.791 L23.275,9.459 L22.492,8.127 L21.708,6.795 L22.063,7.398 L21.708,6.795 L22.063,7.398 L21.708,6.795 M39.146,35.987 L38.809,35.374 L39.146,35.987 L38.809,35.374 L39.146,35.987 L38.402,34.633 L37.658,33.278 L36.914,31.924 L36.169,30.569 L35.425,29.215 L34.681,27.860 L33.937,26.506 L33.193,25.152 L32.448,23.797 L31.704,22.443 L30.960,21.088 L30.216,19.734 L29.472,18.379 L28.728,17.025 L27.983,15.670 L27.239,14.316 L26.495,12.961 L25.751,11.607 L25.007,10.252 L24.262,8.898 L23.518,7.543 L22.774,6.189 L23.111,6.802 L22.774,6.189 L23.111,6.802 L22.774,6.189 M39.333,35.888 L39.012,35.266 L39.333,35.888 L39.012,35.266 L39.333,35.888 L38.624,34.514 L37.916,33.141 L37.208,31.767 L36.500,30.393 L35.792,29.020 L35.084,27.646 L34.375,26.272 L33.667,24.899 L32.959,23.525 L32.251,22.152 L31.543,20.778 L30.835,19.404 L30.126,18.031 L29.418,16.657 L28.710,15.283 L28.002,13.910 L27.294,12.536 L26.586,11.162 L25.878,9.789 L25.169,8.415 L24.461,7.041 L23.753,5.668 L24.074,6.290 L23.753,5.668 L24.074,6.290 L23.753,5.668 M39.519,35.795 L39.215,35.165 L39.519,35.795 L39.215,35.165 L39.519,35.795 L38.847,34.403 L38.175,33.012 L37.503,31.620 L36.831,30.228 L36.159,28.837 L35.487,27.445 L34.815,26.053 L34.142,24.662 L33.470,23.270 L32.798,21.878 L32.126,20.487 L31.454,19.095 L30.782,17.703 L30.110,16.312 L29.438,14.920 L28.766,13.528 L28.094,12.137 L27.421,10.745 L26.749,9.353 L26.077,7.962 L25.405,6.570 L24.733,5.178 L25.037,5.809 L24.733,5.178 L25.037,5.809 L24.733,5.178 M39.723,35.700 L39.437,35.061 L39.723,35.700 L39.437,35.061 L39.723,35.700 L39.091,34.290 L38.458,32.880 L37.825,31.470 L37.193,30.060 L36.560,28.650 L35.927,27.240 L35.295,25.830 L34.662,24.420 L34.030,23.010 L33.397,21.600 L32.764,20.190 L32.132,18.780 L31.499,17.369 L30.866,15.959 L30.234,14.549 L29.601,13.139 L28.968,11.729 L28.336,10.319 L27.703,8.909 L27.070,7.499 L26.438,6.089 L25.805,4.679 L26.092,5.318 L25.805,4.679 L26.092,5.318 L25.805,4.679 M39.959,35.599 L39.693,34.951 L39.959,35.599 L39.693,34.951 L39.959,35.599 L39.372,34.169 L38.785,32.739 L38.198,31.310 L37.610,29.880 L37.023,28.451 L36.436,27.021 L35.849,25.592 L35.262,24.162 L34.675,22.732 L34.088,21.303 L33.500,19.873 L32.913,18.444 L32.326,17.014 L31.739,15.585 L31.152,14.155 L30.565,12.725 L29.978,11.296 L29.390,9.866 L28.803,8.437 L28.216,7.007 L27.629,5.577 L27.042,4.148 L27.308,4.795 L27.042,4.148 L27.308,4.795 L27.042,4.148 M40.233,35.492 L39.991,34.835 L40.233,35.492 L39.991,34.835 L40.233,35.492 L39.698,34.042 L39.164,32.592 L38.630,31.142 L38.096,29.691 L37.561,28.241 L37.027,26.791 L36.493,25.341 L35.959,23.891 L35.424,22.441 L34.890,20.990 L34.356,19.540 L33.822,18.090 L33.287,16.640 L32.753,15.190 L32.219,13.739 L31.685,12.289 L31.150,10.839 L30.616,9.389 L30.082,7.939 L29.548,6.489 L29.013,5.038 L28.479,3.588 L28.721,4.245 L28.479,3.588 L28.721,4.245 L28.479,3.588 M40.542,35.385 L40.327,34.719 L40.542,35.385 L40.327,34.719 L40.542,35.385 L40.067,33.915 L39.593,32.444 L39.118,30.973 L38.643,29.502 L38.169,28.031 L37.694,26.561 L37.220,25.090 L36.745,23.619 L36.271,22.148 L35.796,20.677 L35.322,19.207 L34.847,17.736 L34.372,16.265 L33.898,14.794 L33.423,13.324 L32.949,11.853 L32.474,10.382 L32.000,8.911 L31.525,7.440 L31.050,5.970 L30.576,4.499 L30.101,3.028 L30.316,3.694 L30.101,3.028 L30.316,3.694 L30.101,3.028 M40.873,35.286 L40.688,34.611 L40.873,35.286 L40.688,34.611 L40.873,35.286 L40.463,33.796 L40.052,32.306 L39.642,30.816 L39.231,29.326 L38.821,27.836 L38.411,26.347 L38.000,24.857 L37.590,23.367 L37.179,21.877 L36.769,20.387 L36.358,18.897 L35.948,17.407 L35.537,15.917 L35.127,14.427 L34.716,12.937 L34.306,11.447 L33.895,9.957 L33.485,8.467 L33.074,6.977 L32.664,5.487 L32.253,3.997 L31.843,2.507 L32.029,3.182 L31.843,2.507 L32.029,3.182 L31.843,2.507 M41.209,35.201 L41.053,34.519 L41.209,35.201 L41.053,34.519 L41.209,35.201 L40.864,33.695 L40.518,32.189 L40.173,30.682 L39.827,29.176 L39.481,27.670 L39.136,26.163 L38.790,24.657 L38.445,23.151 L38.099,21.645 L37.753,20.138 L37.408,18.632 L37.062,17.126 L36.717,15.619 L36.371,14.113 L36.026,12.607 L35.680,11.100 L35.334,9.594 L34.989,8.088 L34.643,6.581 L34.298,5.075 L33.952,3.569 L33.606,2.062 L33.763,2.745 L33.606,2.062 L33.763,2.745 L33.606,2.062 M41.534,35.134 L41.406,34.446 L41.534,35.134 L41.406,34.446 L41.534,35.134 L41.251,33.615 L40.968,32.095 L40.685,30.576 L40.402,29.057 L40.119,27.537 L39.836,26.018 L39.553,24.499 L39.270,22.979 L38.988,21.460 L38.705,19.941 L38.422,18.421 L38.139,16.902 L37.856,15.383 L37.573,13.863 L37.290,12.344 L37.007,10.825 L36.724,9.305 L36.441,7.786 L36.158,6.267 L35.875,4.747 L35.592,3.228 L35.310,1.709 L35.438,2.397 L35.310,1.709 L35.438,2.397 L35.310,1.709 M41.837,35.084 L41.735,34.391 L41.837,35.084 L41.735,34.391 L41.837,35.084 L41.612,33.554 L41.388,32.025 L41.164,30.496 L40.939,28.967 L40.715,27.438 L40.491,25.909 L40.266,24.380 L40.042,22.851 L39.817,21.322 L39.593,19.793 L39.369,18.264 L39.144,16.735 L38.920,15.206 L38.696,13.676 L38.471,12.147 L38.247,10.618 L38.022,9.089 L37.798,7.560 L37.574,6.031 L37.349,4.502 L37.125,2.973 L36.901,1.444 L37.002,2.136 L36.901,1.444 L37.002,2.136 L36.901,1.444 M42.108,35.049 L42.030,34.353 L42.108,35.049 L42.030,34.353 L42.108,35.049 L41.935,33.513 L41.763,31.977 L41.591,30.441 L41.419,28.905 L41.247,27.369 L41.075,25.834 L40.903,24.298 L40.731,22.762 L40.559,21.226 L40.387,19.690 L40.215,18.154 L40.042,16.618 L39.870,15.083 L39.698,13.547 L39.526,12.011 L39.354,10.475 L39.182,8.939 L39.010,7.403 L38.838,5.868 L38.666,4.332 L38.494,2.796 L38.322,1.260 L38.400,1.956 L38.322,1.260 L38.400,1.956 L38.322,1.260 M42.336,35.026 L42.278,34.329 L42.336,35.026 L42.278,34.329 L42.336,35.026 L42.208,33.486 L42.080,31.946 L41.952,30.406 L41.824,28.866 L41.696,27.326 L41.568,25.785 L41.440,24.245 L41.312,22.705 L41.184,21.165 L41.056,19.625 L40.928,18.085 L40.800,16.545 L40.672,15.004 L40.544,13.464 L40.416,11.924 L40.288,10.384 L40.160,8.844 L40.032,7.304 L39.904,5.764 L39.776,4.223 L39.648,2.683 L39.520,1.143 L39.578,1.841 L39.520,1.143 L39.578,1.841 L39.520,1.143 M42.519,35.013 L42.477,34.314 L42.519,35.013 L42.477,34.314 L42.519,35.013 L42.426,33.471 L42.334,31.928 L42.241,30.385 L42.149,28.842 L42.056,27.300 L41.963,25.757 L41.871,24.214 L41.778,22.672 L41.685,21.129 L41.593,19.586 L41.500,18.044 L41.408,16.501 L41.315,14.958 L41.222,13.416 L41.130,11.873 L41.037,10.330 L40.945,8.788 L40.852,7.245 L40.759,5.702 L40.667,4.160 L40.574,2.617 L40.482,1.074 L40.523,1.773 L40.482,1.074 L40.523,1.773 L40.482,1.074 M42.664,35.006 L42.635,34.306 L42.664,35.006 L42.635,34.306 L42.664,35.006 L42.599,33.462 L42.535,31.918 L42.470,30.373 L42.406,28.829 L42.341,27.285 L42.277,25.741 L42.212,24.197 L42.147,22.653 L42.083,21.109 L42.018,19.565 L41.954,18.021 L41.889,16.477 L41.824,14.932 L41.760,13.388 L41.695,11.844 L41.631,10.300 L41.566,8.756 L41.502,7.212 L41.437,5.668 L41.372,4.124 L41.308,2.580 L41.243,1.035 L41.272,1.735 L41.243,1.035 L41.272,1.735 L41.243,1.035 M42.787,35.002 L42.769,34.302 L42.787,35.002 L42.769,34.302 L42.787,35.002 L42.747,33.457 L42.706,31.912 L42.665,30.367 L42.624,28.822 L42.584,27.277 L42.543,25.732 L42.502,24.187 L42.461,22.642 L42.421,21.097 L42.380,19.552 L42.339,18.008 L42.298,16.463 L42.258,14.918 L42.217,13.373 L42.176,11.828 L42.135,10.283 L42.095,8.738 L42.054,7.193 L42.013,5.648 L41.972,4.103 L41.931,2.558 L41.891,1.013 L41.909,1.713 L41.891,1.013 L41.909,1.713 L41.891,1.013"/>
</svg>
