<svg xmlns="http://www.w3.org/2000/svg" viewBox="-12.817 0 73.946 73.946" width="256" height="256">
  <title>editable-leaf</title>
  <rect x="-12.817" y="0" width="73.946" height="73.946" fill="#f3efe1"/>
  <path fill="none" stroke="#78a85a" stroke-width="0.4" stroke-linecap="round" stroke-linejoin="round" d="M24.155,1.500 L24.846,1.612 L24.155,1.500 L24.846,1.612 L24.155,1.500 M24.155,1.500 L23.464,1.612 L24.155,1.500 L23.464,1.612 L24.155,1.500 M2.014,45.951 L2.014,45.251 L2.014,45.951 L2.014,45.251 L2.014,45.951 M46.014,31.160 L46.014,31.860 L46.014,31.160 L46.014,31.860 L46.014,31.160 M21.403,72.671 L22.103,72.671 L21.403,72.671 L22.103,72.671 L21.403,72.671 L22.779,72.671 L24.155,72.671 L25.532,72.671 L26.908,72.671 L28.745,72.121 L27.622,72.121 L25.022,72.121 L22.422,72.121 L20.994,72.121 L19.566,72.121 L18.248,71.571 L20.689,71.571 L23.289,71.571 L25.889,71.571 L27.189,71.571 L28.489,71.571 L30.063,71.571 L31.083,71.021 L29.355,71.021 L26.755,71.021 L24.155,71.021 L21.555,71.021 L18.955,71.021 L17.227,71.021 L16.321,70.471 L17.222,70.471 L19.822,70.471 L22.422,70.471 L25.022,70.471 L27.622,70.471 L30.222,70.471 L31.990,70.471 L32.765,69.921 L31.089,69.921 L29.789,69.921 L28.489,69.921 L25.889,69.921 L23.289,69.921 L20.689,69.921 L18.089,69.921 L15.546,69.921 L14.789,69.371 L16.355,69.371 L18.955,69.371 L21.555,69.371 L24.155,69.371 L26.755,69.371 L29.355,69.371 L31.955,69.371 L33.522,69.371 L34.174,68.821 L32.822,68.821 L30.222,68.821 L27.622,68.821 L25.022,68.821 L22.422,68.821 L19.822,68.821 L17.222,68.821 L14.622,68.821 L14.137,68.821 L13.485,68.271 L15.489,68.271 L18.089,68.271 L20.689,68.271 L23.289,68.271 L25.889,68.271 L28.489,68.271 L31.089,68.271 L33.689,68.271 L34.825,68.271 L35.413,67.721 L34.555,67.721 L31.955,67.721 L29.355,67.721 L26.755,67.721 L24.155,67.721 L21.555,67.721 L18.955,67.721 L16.355,67.721 L13.755,67.721 L12.897,67.721 L12.359,67.171 L14.622,67.171 L17.222,67.171 L19.822,67.171 L22.422,67.171 L25.022,67.171 L27.622,67.171 L30.222,67.171 L32.822,67.171 L35.422,67.171 L35.952,67.171 L36.491,66.621 L35.090,66.621 L33.689,66.621 L31.089,66.621 L28.489,66.621 L25.889,66.621 L23.289,66.621 L20.689,66.621 L18.089,66.621 L15.489,66.621 L12.889,66.621 L11.820,66.621 L11.333,66.071 L13.755,66.071 L16.355,66.071 L18.955,66.071 L21.555,66.071 L24.155,66.071 L26.755,66.071 L29.355,66.071 L31.955,66.071 L34.555,66.071 L36.978,66.071 L37.442,65.521 L35.422,65.521 L32.822,65.521 L30.222,65.521 L27.622,65.521 L25.022,65.521 L22.422,65.521 L19.822,65.521 L17.222,65.521 L14.622,65.521 L12.022,65.521 L10.869,65.521 L10.405,64.971 L12.889,64.971 L15.489,64.971 L18.089,64.971 L20.689,64.971 L23.289,64.971 L25.889,64.971 L28.489,64.971 L31.089,64.971 L33.689,64.971 L36.289,64.971 L37.906,64.971 L38.337,64.421 L37.155,64.421 L34.555,64.421 L31.955,64.421 L29.355,64.421 L26.755,64.421 L24.155,64.421 L21.555,64.421 L18.955,64.421 L16.355,64.421 L13.755,64.421 L11.155,64.421 L9.974,64.421 L9.562,63.871 L12.022,63.871 L14.622,63.871 L17.222,63.871 L19.822,63.871 L22.422,63.871 L25.022,63.871 L27.622,63.871 L30.222,63.871 L32.822,63.871 L35.422,63.871 L38.022,63.871 L38.748,63.871 L39.160,63.321 L37.724,63.321 L36.289,63.321 L33.689,63.321 L31.089,63.321 L28.489,63.321 L25.889,63.321 L23.289,63.321 L20.689,63.321 L18.089,63.321 L15.489,63.321 L12.889,63.321 L10.289,63.321 L9.151,63.321 L8.758,62.771 L11.155,62.771 L13.755,62.771 L16.355,62.771 L18.955,62.771 L21.555,62.771 L24.155,62.771 L26.755,62.771 L29.355,62.771 L31.955,62.771 L34.555,62.771 L37.155,62.771 L39.553,62.771 L39.921,62.221 L38.022,62.221 L35.422,62.221 L32.822,62.221 L30.222,62.221 L27.622,62.221 L25.022,62.221 L22.422,62.221 L19.822,62.221 L17.222,62.221 L14.622,62.221 L12.022,62.221 L9.422,62.221 L8.389,62.221 L8.021,61.671 L10.289,61.671 L12.889,61.671 L15.489,61.671 L18.089,61.671 L20.689,61.671 L23.289,61.671 L25.889,61.671 L28.489,61.671 L31.089,61.671 L33.689,61.671 L36.289,61.671 L38.889,61.671 L40.290,61.671 L40.654,61.121 L39.755,61.121 L37.155,61.121 L34.555,61.121 L31.955,61.121 L29.355,61.121 L26.755,61.121 L24.155,61.121 L21.555,61.121 L18.955,61.121 L16.355,61.121 L13.755,61.121 L11.155,61.121 L8.555,61.121 L7.657,61.121 L7.331,60.571 L9.422,60.571 L12.022,60.571 L14.622,60.571 L17.222,60.571 L19.822,60.571 L22.422,60.571 L25.022,60.571 L27.622,60.571 L30.222,60.571 L32.822,60.571 L35.422,60.571 L38.022,60.571 L39.322,60.571 L40.622,60.571 L40.980,60.571 L41.306,60.021 L38.889,60.021 L36.289,60.021 L33.689,60.021 L31.089,60.021 L28.489,60.021 L25.889,60.021 L23.289,60.021 L20.689,60.021 L18.089,60.021 L15.489,60.021 L12.889,60.021 L10.289,60.021 L7.689,60.021 L7.005,60.021 L6.679,59.471 L8.555,59.471 L11.155,59.471 L13.755,59.471 L16.355,59.471 L18.955,59.471 L21.555,59.471 L24.155,59.471 L26.755,59.471 L29.355,59.471 L31.955,59.471 L34.555,59.471 L37.155,59.471 L39.755,59.471 L41.632,59.471 L41.930,58.921 L40.622,58.921 L38.022,58.921 L35.422,58.921 L32.822,58.921 L30.222,58.921 L27.622,58.921 L25.022,58.921 L22.422,58.921 L19.822,58.921 L17.222,58.921 L14.622,58.921 L12.022,58.921 L9.422,58.921 L6.822,58.921 L6.381,58.921 L6.098,58.371 L7.689,58.371 L10.289,58.371 L12.889,58.371 L15.489,58.371 L18.089,58.371 L20.689,58.371 L23.289,58.371 L25.889,58.371 L28.489,58.371 L31.089,58.371 L33.689,58.371 L36.289,58.371 L38.889,58.371 L41.489,58.371 L42.212,58.371 L42.495,57.821 L41.125,57.821 L39.755,57.821 L37.155,57.821 L34.555,57.821 L31.955,57.821 L29.355,57.821 L26.755,57.821 L24.155,57.821 L21.555,57.821 L18.955,57.821 L16.355,57.821 L13.755,57.821 L11.155,57.821 L8.555,57.821 L7.185,57.821 L5.816,57.821 L5.535,57.271 L6.822,57.271 L9.422,57.271 L12.022,57.271 L14.622,57.271 L17.222,57.271 L19.822,57.271 L22.422,57.271 L25.022,57.271 L27.622,57.271 L30.222,57.271 L32.822,57.271 L35.422,57.271 L38.022,57.271 L40.622,57.271 L42.776,57.271 L43.030,56.721 L41.489,56.721 L38.889,56.721 L36.289,56.721 L33.689,56.721 L31.089,56.721 L28.489,56.721 L25.889,56.721 L23.289,56.721 L20.689,56.721 L18.089,56.721 L15.489,56.721 L12.889,56.721 L10.289,56.721 L7.689,56.721 L5.281,56.721 L5.026,56.171 L5.955,56.171 L8.555,56.171 L11.155,56.171 L13.755,56.171 L16.355,56.171 L18.955,56.171 L21.555,56.171 L24.155,56.171 L26.755,56.171 L29.355,56.171 L31.955,56.171 L34.555,56.171 L37.155,56.171 L39.755,56.171 L41.055,56.171 L42.355,56.171 L43.285,56.171 L43.540,55.621 L43.222,55.621 L41.922,55.621 L40.622,55.621 L38.022,55.621 L35.422,55.621 L32.822,55.621 L30.222,55.621 L27.622,55.621 L25.022,55.621 L22.422,55.621 L19.822,55.621 L17.222,55.621 L14.622,55.621 L12.022,55.621 L9.422,55.621 L6.822,55.621 L4.771,55.621 L4.528,55.071 L5.089,55.071 L6.389,55.071 L7.689,55.071 L10.289,55.071 L12.889,55.071 L15.489,55.071 L18.089,55.071 L20.689,55.071 L23.289,55.071 L25.889,55.071 L28.489,55.071 L31.089,55.071 L33.689,55.071 L36.289,55.071 L38.889,55.071 L41.489,55.071 L43.783,55.071 L44.011,54.521 L42.355,54.521 L41.055,54.521 L39.755,54.521 L37.155,54.521 L34.555,54.521 L31.955,54.521 L29.355,54.521 L26.755,54.521 L24.155,54.521 L21.555,54.521 L18.955,54.521 L16.355,54.521 L13.755,54.521 L11.155,54.521 L8.555,54.521 L5.955,54.521 L4.300,54.521 L4.071,53.971 L5.447,53.971 L6.822,53.971 L9.422,53.971 L12.022,53.971 L14.622,53.971 L17.222,53.971 L19.822,53.971 L22.422,53.971 L25.022,53.971 L27.622,53.971 L30.222,53.971 L32.822,53.971 L35.422,53.971 L38.022,53.971 L40.622,53.971 L41.922,53.971 L43.222,53.971 L44.239,53.971 L44.468,53.421 L44.089,53.421 L42.789,53.421 L41.489,53.421 L38.889,53.421 L36.289,53.421 L33.689,53.421 L31.089,53.421 L28.489,53.421 L25.889,53.421 L23.289,53.421 L20.689,53.421 L18.089,53.421 L15.489,53.421 L12.889,53.421 L10.289,53.421 L7.689,53.421 L6.389,53.421 L5.089,53.421 L3.843,53.421 L3.642,52.871 L5.955,52.871 L8.555,52.871 L11.155,52.871 L13.755,52.871 L16.355,52.871 L18.955,52.871 L21.555,52.871 L24.155,52.871 L26.755,52.871 L29.355,52.871 L31.955,52.871 L34.555,52.871 L37.155,52.871 L39.755,52.871 L41.055,52.871 L42.355,52.871 L44.669,52.871 L44.862,52.321 L43.222,52.321 L41.922,52.321 L40.622,52.321 L38.022,52.321 L35.422,52.321 L32.822,52.321 L30.222,52.321 L27.622,52.321 L25.022,52.321 L22.422,52.321 L19.822,52.321 L17.222,52.321 L14.622,52.321 L12.022,52.321 L9.422,52.321 L6.822,52.321 L5.522,52.321 L4.222,52.321 L3.449,52.321 L3.257,51.771 L5.089,51.771 L6.389,51.771 L7.689,51.771 L10.289,51.771 L12.889,51.771 L15.489,51.771 L18.089,51.771 L20.689,51.771 L23.289,51.771 L25.889,51.771 L28.489,51.771 L31.089,51.771 L33.689,51.771 L36.289,51.771 L38.889,51.771 L41.489,51.771 L42.789,51.771 L44.089,51.771 L45.054,51.771 L45.246,51.221 L43.801,51.221 L42.355,51.221 L41.055,51.221 L39.755,51.221 L37.155,51.221 L34.555,51.221 L31.955,51.221 L29.355,51.221 L26.755,51.221 L24.155,51.221 L21.555,51.221 L18.955,51.221 L16.355,51.221 L13.755,51.221 L11.155,51.221 L8.555,51.221 L5.955,51.221 L4.510,51.221 L3.065,51.221 L2.901,50.671 L4.222,50.671 L5.522,50.671 L6.822,50.671 L9.422,50.671 L12.022,50.671 L14.622,50.671 L17.222,50.671 L19.822,50.671 L22.422,50.671 L25.022,50.671 L27.622,50.671 L30.222,50.671 L32.822,50.671 L35.422,50.671 L38.022,50.671 L40.622,50.671 L41.922,50.671 L43.222,50.671 L45.410,50.671 L45.573,50.121 L44.089,50.121 L42.789,50.121 L41.489,50.121 L38.889,50.121 L36.289,50.121 L33.689,50.121 L31.089,50.121 L28.489,50.121 L25.889,50.121 L23.289,50.121 L20.689,50.121 L18.089,50.121 L15.489,50.121 L12.889,50.121 L10.289,50.121 L7.689,50.121 L6.389,50.121 L5.089,50.121 L2.738,50.121 L2.575,49.571 L3.355,49.571 L4.655,49.571 L5.955,49.571 L8.555,49.571 L11.155,49.571 L13.755,49.571 L16.355,49.571 L18.955,49.571 L21.555,49.571 L24.155,49.571 L26.755,49.571 L29.355,49.571 L31.955,49.571 L34.555,49.571 L37.155,49.571 L39.755,49.571 L41.055,49.571 L42.355,49.571 L43.655,49.571 L44.955,49.571 L45.736,49.571 L45.896,49.021 L44.559,49.021 L43.222,49.021 L41.922,49.021 L40.622,49.021 L38.022,49.021 L35.422,49.021 L32.822,49.021 L30.222,49.021 L27.622,49.021 L25.022,49.021 L22.422,49.021 L19.822,49.021 L17.222,49.021 L14.622,49.021 L12.022,49.021 L9.422,49.021 L6.822,49.021 L5.522,49.021 L4.222,49.021 L2.415,49.021 L2.277,48.471 L3.683,48.471 L5.089,48.471 L6.389,48.471 L7.689,48.471 L10.289,48.471 L12.889,48.471 L15.489,48.471 L18.089,48.471 L20.689,48.471 L23.289,48.471 L25.889,48.471 L28.489,48.471 L31.089,48.471 L33.689,48.471 L36.289,48.471 L38.889,48.471 L41.489,48.471 L42.789,48.471 L44.089,48.471 L46.034,48.471 L46.172,47.921 L44.955,47.921 L43.655,47.921 L42.355,47.921 L41.055,47.921 L39.755,47.921 L37.155,47.921 L34.555,47.921 L31.955,47.921 L29.355,47.921 L26.755,47.921 L24.155,47.921 L21.555,47.921 L18.955,47.921 L16.355,47.921 L13.755,47.921 L11.155,47.921 L8.555,47.921 L5.955,47.921 L4.655,47.921 L3.355,47.921 L2.139,47.921 L2.001,47.371 L4.222,47.371 L5.522,47.371 L6.822,47.371 L9.422,47.371 L12.022,47.371 L14.622,47.371 L17.222,47.371 L19.822,47.371 L22.422,47.371 L25.022,47.371 L27.622,47.371 L30.222,47.371 L32.822,47.371 L35.422,47.371 L38.022,47.371 L40.622,47.371 L41.922,47.371 L43.222,47.371 L44.522,47.371 L45.822,47.371 L46.310,47.371 L46.442,46.821 L44.089,46.821 L42.789,46.821 L41.489,46.821 L38.889,46.821 L36.289,46.821 L33.689,46.821 L31.089,46.821 L28.489,46.821 L25.889,46.821 L23.289,46.821 L20.689,46.821 L18.089,46.821 L15.489,46.821 L12.889,46.821 L10.289,46.821 L7.689,46.821 L6.389,46.821 L5.089,46.821 L3.789,46.821 L2.489,46.821 L1.869,46.821 L1.757,46.271 L3.355,46.271 L4.655,46.271 L5.955,46.271 L8.555,46.271 L11.155,46.271 L13.755,46.271 L16.355,46.271 L18.955,46.271 L21.555,46.271 L24.155,46.271 L26.755,46.271 L29.355,46.271 L31.955,46.271 L34.555,46.271 L37.155,46.271 L39.755,46.271 L41.055,46.271 L42.355,46.271 L43.655,46.271 L44.955,46.271 L46.553,46.271 L46.665,45.721 L45.822,45.721 L44.522,45.721 L43.222,45.721 L41.922,45.721 L40.622,45.721 L38.022,45.721 L35.422,45.721 L32.822,45.721 L30.222,45.721 L27.622,45.721 L25.022,45.721 L22.422,45.721 L19.822,45.721 L17.222,45.721 L14.622,45.721 L12.022,45.721 L9.422,45.721 L6.822,45.721 L5.522,45.721 L4.222,45.721 L1.645,45.721 L1.534,45.171 L2.489,45.171 L3.789,45.171 L5.089,45.171 L6.389,45.171 L7.689,45.171 L10.289,45.171 L12.889,45.171 L15.489,45.171 L18.089,45.171 L20.689,45.171 L23.289,45.171 L25.889,45.171 L28.489,45.171 L31.089,45.171 L33.689,45.171 L36.289,45.171 L38.889,45.171 L41.489,45.171 L42.789,45.171 L44.089,45.171 L45.433,45.171 L46.777,45.171 L46.877,44.621 L44.955,44.621 L43.655,44.621 L42.355,44.621 L41.055,44.621 L39.755,44.621 L37.155,44.621 L34.555,44.621 L31.955,44.621 L29.355,44.621 L26.755,44.621 L24.155,44.621 L21.555,44.621 L18.955,44.621 L16.355,44.621 L13.755,44.621 L11.155,44.621 L8.555,44.621 L5.955,44.621 L4.655,44.621 L3.355,44.621 L1.434,44.621 L1.364,44.071 L2.793,44.071 L4.222,44.071 L5.522,44.071 L6.822,44.071 L9.422,44.071 L12.022,44.071 L14.622,44.071 L17.222,44.071 L19.822,44.071 L22.422,44.071 L25.022,44.071 L27.622,44.071 L30.222,44.071 L32.822,44.071 L35.422,44.071 L38.022,44.071 L40.622,44.071 L41.922,44.071 L43.222,44.071 L44.522,44.071 L45.822,44.071 L46.947,44.071 L47.017,43.521 L46.689,43.521 L45.389,43.521 L44.089,43.521 L42.789,43.521 L41.489,43.521 L38.889,43.521 L36.289,43.521 L33.689,43.521 L31.089,43.521 L28.489,43.521 L25.889,43.521 L23.289,43.521 L20.689,43.521 L18.089,43.521 L15.489,43.521 L12.889,43.521 L10.289,43.521 L7.689,43.521 L6.389,43.521 L5.089,43.521 L3.789,43.521 L2.489,43.521 L1.294,43.521 L1.224,42.971 L3.355,42.971 L4.655,42.971 L5.955,42.971 L8.555,42.971 L11.155,42.971 L13.755,42.971 L16.355,42.971 L18.955,42.971 L21.555,42.971 L24.155,42.971 L26.755,42.971 L29.355,42.971 L31.955,42.971 L34.555,42.971 L37.155,42.971 L39.755,42.971 L41.055,42.971 L42.355,42.971 L43.655,42.971 L44.955,42.971 L47.087,42.971 L47.147,42.421 L45.822,42.421 L44.522,42.421 L43.222,42.421 L41.922,42.421 L40.622,42.421 L38.022,42.421 L35.422,42.421 L32.822,42.421 L30.222,42.421 L27.622,42.421 L25.022,42.421 L22.422,42.421 L19.822,42.421 L17.222,42.421 L14.622,42.421 L12.022,42.421 L9.422,42.421 L6.822,42.421 L5.522,42.421 L4.222,42.421 L2.922,42.421 L1.622,42.421 L1.164,42.421 L1.124,41.871 L2.489,41.871 L3.789,41.871 L5.089,41.871 L6.389,41.871 L7.689,41.871 L10.289,41.871 L12.889,41.871 L15.489,41.871 L18.089,41.871 L20.689,41.871 L23.289,41.871 L25.889,41.871 L28.489,41.871 L31.089,41.871 L33.689,41.871 L36.289,41.871 L38.889,41.871 L41.489,41.871 L42.789,41.871 L44.089,41.871 L45.389,41.871 L46.689,41.871 L47.187,41.871 L47.227,41.321 L44.955,41.321 L43.655,41.321 L42.355,41.321 L41.055,41.321 L39.755,41.321 L37.155,41.321 L34.555,41.321 L31.955,41.321 L29.355,41.321 L26.755,41.321 L24.155,41.321 L21.555,41.321 L18.955,41.321 L16.355,41.321 L13.755,41.321 L11.155,41.321 L8.555,41.321 L5.955,41.321 L4.655,41.321 L3.355,41.321 L1.084,41.321 L1.044,40.771 L1.622,40.771 L2.922,40.771 L4.222,40.771 L5.522,40.771 L6.822,40.771 L9.422,40.771 L12.022,40.771 L14.622,40.771 L17.222,40.771 L19.822,40.771 L22.422,40.771 L25.022,40.771 L27.622,40.771 L30.222,40.771 L32.822,40.771 L35.422,40.771 L38.022,40.771 L40.622,40.771 L41.922,40.771 L43.222,40.771 L44.522,40.771 L45.822,40.771 L47.267,40.771 L47.295,40.221 L46.689,40.221 L45.389,40.221 L44.089,40.221 L42.789,40.221 L41.489,40.221 L38.889,40.221 L36.289,40.221 L33.689,40.221 L31.089,40.221 L28.489,40.221 L25.889,40.221 L23.289,40.221 L20.689,40.221 L18.089,40.221 L15.489,40.221 L12.889,40.221 L10.289,40.221 L7.689,40.221 L6.389,40.221 L5.089,40.221 L3.789,40.221 L2.489,40.221 L1.016,40.221 L1.011,39.671 L3.355,39.671 L4.655,39.671 L5.955,39.671 L8.555,39.671 L11.155,39.671 L13.755,39.671 L16.355,39.671 L18.955,39.671 L21.555,39.671 L24.155,39.671 L26.755,39.671 L29.355,39.671 L31.955,39.671 L34.555,39.671 L37.155,39.671 L39.755,39.671 L41.055,39.671 L42.355,39.671 L43.655,39.671 L44.955,39.671 L47.300,39.671 L47.306,39.121 L45.822,39.121 L44.522,39.121 L43.222,39.121 L41.922,39.121 L40.622,39.121 L38.022,39.121 L35.422,39.121 L32.822,39.121 L30.222,39.121 L27.622,39.121 L25.022,39.121 L22.422,39.121 L19.822,39.121 L17.222,39.121 L14.622,39.121 L12.022,39.121 L9.422,39.121 L6.822,39.121 L5.522,39.121 L4.222,39.121 L2.922,39.121 L1.622,39.121 L1.005,39.121 L1.000,38.571 L2.489,38.571 L3.789,38.571 L5.089,38.571 L6.389,38.571 L7.689,38.571 L10.289,38.571 L12.889,38.571 L15.489,38.571 L18.089,38.571 L20.689,38.571 L23.289,38.571 L25.889,38.571 L28.489,38.571 L31.089,38.571 L33.689,38.571 L36.289,38.571 L38.889,38.571 L41.489,38.571 L42.789,38.571 L44.089,38.571 L45.389,38.571 L46.689,38.571 L47.311,38.571 L47.305,38.021 L44.955,38.021 L43.655,38.021 L42.355,38.021 L41.055,38.021 L39.755,38.021 L37.155,38.021 L34.555,38.021 L31.955,38.021 L29.355,38.021 L26.755,38.021 L24.155,38.021 L21.555,38.021 L18.955,38.021 L16.355,38.021 L13.755,38.021 L11.155,38.021 L8.555,38.021 L5.955,38.021 L4.655,38.021 L3.355,38.021 L1.006,38.021 L1.037,37.471 L1.622,37.471 L2.922,37.471 L4.222,37.471 L5.522,37.471 L6.822,37.471 L9.422,37.471 L12.022,37.471 L14.622,37.471 L17.222,37.471 L19.822,37.471 L22.422,37.471 L25.022,37.471 L27.622,37.471 L30.222,37.471 L32.822,37.471 L35.422,37.471 L38.022,37.471 L40.622,37.471 L41.922,37.471 L43.222,37.471 L44.522,37.471 L45.822,37.471 L47.274,37.471 L47.243,36.921 L46.689,36.921 L45.389,36.921 L44.089,36.921 L42.789,36.921 L41.489,36.921 L38.889,36.921 L36.289,36.921 L33.689,36.921 L31.089,36.921 L28.489,36.921 L25.889,36.921 L23.289,36.921 L20.689,36.921 L18.089,36.921 L15.489,36.921 L12.889,36.921 L10.289,36.921 L7.689,36.921 L6.389,36.921 L5.089,36.921 L3.789,36.921 L2.489,36.921 L1.067,36.921 L1.098,36.371 L3.355,36.371 L4.655,36.371 L5.955,36.371 L8.555,36.371 L11.155,36.371 L13.755,36.371 L16.355,36.371 L18.955,36.371 L21.555,36.371 L24.155,36.371 L26.755,36.371 L29.355,36.371 L31.955,36.371 L34.555,36.371 L37.155,36.371 L39.755,36.371 L41.055,36.371 L42.355,36.371 L43.655,36.371 L44.955,36.371 L47.213,36.371 L47.167,35.821 L45.822,35.821 L44.522,35.821 L43.222,35.821 L41.922,35.821 L40.622,35.821 L38.022,35.821 L35.422,35.821 L32.822,35.821 L30.222,35.821 L27.622,35.821 L25.022,35.821 L22.422,35.821 L19.822,35.821 L17.222,35.821 L14.622,35.821 L12.022,35.821 L9.422,35.821 L6.822,35.821 L5.522,35.821 L4.222,35.821 L2.922,35.821 L1.622,35.821 L1.143,35.821 L1.221,35.271 L2.489,35.271 L3.789,35.271 L5.089,35.271 L6.389,35.271 L7.689,35.271 L10.289,35.271 L12.889,35.271 L15.489,35.271 L18.089,35.271 L20.689,35.271 L23.289,35.271 L25.889,35.271 L28.489,35.271 L31.089,35.271 L33.689,35.271 L36.289,35.271 L38.889,35.271 L41.489,35.271 L42.789,35.271 L44.089,35.271 L45.389,35.271 L46.689,35.271 L47.090,35.271 L47.012,34.721 L44.955,34.721 L43.655,34.721 L42.355,34.721 L41.055,34.721 L39.755,34.721 L37.155,34.721 L34.555,34.721 L31.955,34.721 L29.355,34.721 L26.755,34.721 L24.155,34.721 L21.555,34.721 L18.955,34.721 L16.355,34.721 L13.755,34.721 L11.155,34.721 L8.555,34.721 L5.955,34.721 L4.655,34.721 L3.355,34.721 L1.299,34.721 L1.377,34.171 L2.799,34.171 L4.222,34.171 L5.522,34.171 L6.822,34.171 L9.422,34.171 L12.022,34.171 L14.622,34.171 L17.222,34.171 L19.822,34.171 L22.422,34.171 L25.022,34.171 L27.622,34.171 L30.222,34.171 L32.822,34.171 L35.422,34.171 L38.022,34.171 L40.622,34.171 L41.922,34.171 L43.222,34.171 L44.522,34.171 L45.822,34.171 L46.934,34.171 L46.847,33.621 L45.468,33.621 L44.089,33.621 L42.789,33.621 L41.489,33.621 L38.889,33.621 L36.289,33.621 L33.689,33.621 L31.089,33.621 L28.489,33.621 L25.889,33.621 L23.289,33.621 L20.689,33.621 L18.089,33.621 L15.489,33.621 L12.889,33.621 L10.289,33.621 L7.689,33.621 L6.389,33.621 L5.089,33.621 L3.789,33.621 L2.489,33.621 L1.464,33.621 L1.570,33.071 L3.355,33.071 L4.655,33.071 L5.955,33.071 L8.555,33.071 L11.155,33.071 L13.755,33.071 L16.355,33.071 L18.955,33.071 L21.555,33.071 L24.155,33.071 L26.755,33.071 L29.355,33.071 L31.955,33.071 L34.555,33.071 L37.155,33.071 L39.755,33.071 L41.055,33.071 L42.355,33.071 L43.655,33.071 L44.955,33.071 L46.741,33.071 L46.635,32.521 L45.822,32.521 L44.522,32.521 L43.222,32.521 L41.922,32.521 L40.622,32.521 L38.022,32.521 L35.422,32.521 L32.822,32.521 L30.222,32.521 L27.622,32.521 L25.022,32.521 L22.422,32.521 L19.822,32.521 L17.222,32.521 L14.622,32.521 L12.022,32.521 L9.422,32.521 L6.822,32.521 L5.522,32.521 L4.222,32.521 L1.675,32.521 L1.781,31.971 L2.489,31.971 L3.789,31.971 L5.089,31.971 L6.389,31.971 L7.689,31.971 L10.289,31.971 L12.889,31.971 L15.489,31.971 L18.089,31.971 L20.689,31.971 L23.289,31.971 L25.889,31.971 L28.489,31.971 L31.089,31.971 L33.689,31.971 L36.289,31.971 L38.889,31.971 L41.489,31.971 L42.789,31.971 L44.089,31.971 L46.530,31.971 L46.415,31.421 L44.955,31.421 L43.655,31.421 L42.355,31.421 L41.055,31.421 L39.755,31.421 L37.155,31.421 L34.555,31.421 L31.955,31.421 L29.355,31.421 L26.755,31.421 L24.155,31.421 L21.555,31.421 L18.955,31.421 L16.355,31.421 L13.755,31.421 L11.155,31.421 L8.555,31.421 L5.955,31.421 L4.655,31.421 L3.355,31.421 L1.896,31.421 L2.024,30.871 L4.222,30.871 L5.522,30.871 L6.822,30.871 L9.422,30.871 L12.022,30.871 L14.622,30.871 L17.222,30.871 L19.822,30.871 L22.422,30.871 L25.022,30.871 L27.622,30.871 L30.222,30.871 L32.822,30.871 L35.422,30.871 L38.022,30.871 L40.622,30.871 L41.922,30.871 L43.222,30.871 L44.522,30.871 L45.822,30.871 L46.287,30.871 L46.159,30.321 L44.089,30.321 L42.789,30.321 L41.489,30.321 L38.889,30.321 L36.289,30.321 L33.689,30.321 L31.089,30.321 L28.489,30.321 L25.889,30.321 L23.289,30.321 L20.689,30.321 L18.089,30.321 L15.489,30.321 L12.889,30.321 L10.289,30.321 L7.689,30.321 L6.389,30.321 L5.089,30.321 L3.789,30.321 L2.489,30.321 L2.152,30.321 L2.280,29.771 L3.355,29.771 L4.655,29.771 L5.955,29.771 L8.555,29.771 L11.155,29.771 L13.755,29.771 L16.355,29.771 L18.955,29.771 L21.555,29.771 L24.155,29.771 L26.755,29.771 L29.355,29.771 L31.955,29.771 L34.555,29.771 L37.155,29.771 L39.755,29.771 L41.055,29.771 L42.355,29.771 L43.655,29.771 L44.955,29.771 L46.031,29.771 L45.887,29.221 L44.554,29.221 L43.222,29.221 L41.922,29.221 L40.622,29.221 L38.022,29.221 L35.422,29.221 L32.822,29.221 L30.222,29.221 L27.622,29.221 L25.022,29.221 L22.422,29.221 L19.822,29.221 L17.222,29.221 L14.622,29.221 L12.022,29.221 L9.422,29.221 L6.822,29.221 L5.522,29.221 L4.222,29.221 L2.424,29.221 L2.583,28.671 L5.089,28.671 L6.389,28.671 L7.689,28.671 L10.289,28.671 L12.889,28.671 L15.489,28.671 L18.089,28.671 L20.689,28.671 L23.289,28.671 L25.889,28.671 L28.489,28.671 L31.089,28.671 L33.689,28.671 L36.289,28.671 L38.889,28.671 L41.489,28.671 L42.789,28.671 L44.089,28.671 L45.728,28.671 L45.569,28.121 L44.955,28.121 L43.655,28.121 L42.355,28.121 L41.055,28.121 L39.755,28.121 L37.155,28.121 L34.555,28.121 L31.955,28.121 L29.355,28.121 L26.755,28.121 L24.155,28.121 L21.555,28.121 L18.955,28.121 L16.355,28.121 L13.755,28.121 L11.155,28.121 L8.555,28.121 L5.955,28.121 L4.655,28.121 L3.355,28.121 L2.742,28.121 L2.901,27.571 L4.222,27.571 L5.522,27.571 L6.822,27.571 L9.422,27.571 L12.022,27.571 L14.622,27.571 L17.222,27.571 L19.822,27.571 L22.422,27.571 L25.022,27.571 L27.622,27.571 L30.222,27.571 L32.822,27.571 L35.422,27.571 L38.022,27.571 L40.622,27.571 L41.922,27.571 L43.222,27.571 L45.410,27.571 L45.234,27.021 L44.089,27.021 L42.789,27.021 L41.489,27.021 L38.889,27.021 L36.289,27.021 L33.689,27.021 L31.089,27.021 L28.489,27.021 L25.889,27.021 L23.289,27.021 L20.689,27.021 L18.089,27.021 L15.489,27.021 L12.889,27.021 L10.289,27.021 L7.689,27.021 L6.389,27.021 L5.089,27.021 L3.076,27.021 L3.260,26.471 L4.608,26.471 L5.955,26.471 L8.555,26.471 L11.155,26.471 L13.755,26.471 L16.355,26.471 L18.955,26.471 L21.555,26.471 L24.155,26.471 L26.755,26.471 L29.355,26.471 L31.955,26.471 L34.555,26.471 L37.155,26.471 L39.755,26.471 L41.055,26.471 L42.355,26.471 L43.703,26.471 L45.051,26.471 L44.867,25.921 L43.222,25.921 L41.922,25.921 L40.622,25.921 L38.022,25.921 L35.422,25.921 L32.822,25.921 L30.222,25.921 L27.622,25.921 L25.022,25.921 L22.422,25.921 L19.822,25.921 L17.222,25.921 L14.622,25.921 L12.022,25.921 L9.422,25.921 L6.822,25.921 L5.522,25.921 L4.222,25.921 L3.444,25.921 L3.628,25.371 L5.089,25.371 L6.389,25.371 L7.689,25.371 L10.289,25.371 L12.889,25.371 L15.489,25.371 L18.089,25.371 L20.689,25.371 L23.289,25.371 L25.889,25.371 L28.489,25.371 L31.089,25.371 L33.689,25.371 L36.289,25.371 L38.889,25.371 L41.489,25.371 L42.789,25.371 L44.089,25.371 L44.683,25.371 L44.485,24.821 L42.355,24.821 L41.055,24.821 L39.755,24.821 L37.155,24.821 L34.555,24.821 L31.955,24.821 L29.355,24.821 L26.755,24.821 L24.155,24.821 L21.555,24.821 L18.955,24.821 L16.355,24.821 L13.755,24.821 L11.155,24.821 L8.555,24.821 L5.955,24.821 L3.826,24.821 L4.026,24.271 L5.424,24.271 L6.822,24.271 L9.422,24.271 L12.022,24.271 L14.622,24.271 L17.222,24.271 L19.822,24.271 L22.422,24.271 L25.022,24.271 L27.622,24.271 L30.222,24.271 L32.822,24.271 L35.422,24.271 L38.022,24.271 L40.622,24.271 L41.922,24.271 L43.222,24.271 L44.284,24.271 L44.084,23.721 L41.489,23.721 L38.889,23.721 L36.289,23.721 L33.689,23.721 L31.089,23.721 L28.489,23.721 L25.889,23.721 L23.289,23.721 L20.689,23.721 L18.089,23.721 L15.489,23.721 L12.889,23.721 L10.289,23.721 L7.689,23.721 L6.389,23.721 L5.089,23.721 L4.227,23.721 L4.430,23.171 L5.955,23.171 L8.555,23.171 L11.155,23.171 L13.755,23.171 L16.355,23.171 L18.955,23.171 L21.555,23.171 L24.155,23.171 L26.755,23.171 L29.355,23.171 L31.955,23.171 L34.555,23.171 L37.155,23.171 L39.755,23.171 L41.055,23.171 L42.355,23.171 L43.881,23.171 L43.651,22.621 L43.222,22.621 L41.922,22.621 L40.622,22.621 L38.022,22.621 L35.422,22.621 L32.822,22.621 L30.222,22.621 L27.622,22.621 L25.022,22.621 L22.422,22.621 L19.822,22.621 L17.222,22.621 L14.622,22.621 L12.022,22.621 L9.422,22.621 L6.822,22.621 L4.660,22.621 L4.890,22.071 L6.290,22.071 L7.689,22.071 L10.289,22.071 L12.889,22.071 L15.489,22.071 L18.089,22.071 L20.689,22.071 L23.289,22.071 L25.889,22.071 L28.489,22.071 L31.089,22.071 L33.689,22.071 L36.289,22.071 L38.889,22.071 L41.489,22.071 L43.420,22.071 L43.190,21.521 L42.355,21.521 L41.055,21.521 L39.755,21.521 L37.155,21.521 L34.555,21.521 L31.955,21.521 L29.355,21.521 L26.755,21.521 L24.155,21.521 L21.555,21.521 L18.955,21.521 L16.355,21.521 L13.755,21.521 L11.155,21.521 L8.555,21.521 L5.955,21.521 L5.121,21.521 L5.359,20.971 L6.822,20.971 L9.422,20.971 L12.022,20.971 L14.622,20.971 L17.222,20.971 L19.822,20.971 L22.422,20.971 L25.022,20.971 L27.622,20.971 L30.222,20.971 L32.822,20.971 L35.422,20.971 L38.022,20.971 L40.622,20.971 L42.952,20.971 L42.700,20.421 L41.489,20.421 L38.889,20.421 L36.289,20.421 L33.689,20.421 L31.089,20.421 L28.489,20.421 L25.889,20.421 L23.289,20.421 L20.689,20.421 L18.089,20.421 L15.489,20.421 L12.889,20.421 L10.289,20.421 L7.689,20.421 L5.611,20.421 L5.862,19.871 L7.209,19.871 L8.555,19.871 L11.155,19.871 L13.755,19.871 L16.355,19.871 L18.955,19.871 L21.555,19.871 L24.155,19.871 L26.755,19.871 L29.355,19.871 L31.955,19.871 L34.555,19.871 L37.155,19.871 L39.755,19.871 L41.102,19.871 L42.448,19.871 L42.197,19.321 L40.622,19.321 L38.022,19.321 L35.422,19.321 L32.822,19.321 L30.222,19.321 L27.622,19.321 L25.022,19.321 L22.422,19.321 L19.822,19.321 L17.222,19.321 L14.622,19.321 L12.022,19.321 L9.422,19.321 L6.822,19.321 L6.114,19.321 L6.378,18.771 L7.689,18.771 L10.289,18.771 L12.889,18.771 L15.489,18.771 L18.089,18.771 L20.689,18.771 L23.289,18.771 L25.889,18.771 L28.489,18.771 L31.089,18.771 L33.689,18.771 L36.289,18.771 L38.889,18.771 L41.489,18.771 L41.933,18.771 L41.665,18.221 L39.755,18.221 L37.155,18.221 L34.555,18.221 L31.955,18.221 L29.355,18.221 L26.755,18.221 L24.155,18.221 L21.555,18.221 L18.955,18.221 L16.355,18.221 L13.755,18.221 L11.155,18.221 L8.555,18.221 L6.646,18.221 L6.914,17.671 L9.422,17.671 L12.022,17.671 L14.622,17.671 L17.222,17.671 L19.822,17.671 L22.422,17.671 L25.022,17.671 L27.622,17.671 L30.222,17.671 L32.822,17.671 L35.422,17.671 L38.022,17.671 L39.322,17.671 L40.622,17.671 L41.397,17.671 L41.123,17.121 L38.889,17.121 L36.289,17.121 L33.689,17.121 L31.089,17.121 L28.489,17.121 L25.889,17.121 L23.289,17.121 L20.689,17.121 L18.089,17.121 L15.489,17.121 L12.889,17.121 L10.289,17.121 L7.689,17.121 L7.187,17.121 L7.491,16.571 L8.555,16.571 L11.155,16.571 L13.755,16.571 L16.355,16.571 L18.955,16.571 L21.555,16.571 L24.155,16.571 L26.755,16.571 L29.355,16.571 L31.955,16.571 L34.555,16.571 L37.155,16.571 L39.755,16.571 L40.819,16.571 L40.515,16.021 L38.022,16.021 L35.422,16.021 L32.822,16.021 L30.222,16.021 L27.622,16.021 L25.022,16.021 L22.422,16.021 L19.822,16.021 L17.222,16.021 L14.622,16.021 L12.022,16.021 L9.422,16.021 L7.796,16.021 L8.100,15.471 L10.289,15.471 L12.889,15.471 L15.489,15.471 L18.089,15.471 L20.689,15.471 L23.289,15.471 L25.889,15.471 L28.489,15.471 L31.089,15.471 L33.689,15.471 L36.289,15.471 L38.889,15.471 L40.211,15.471 L39.893,14.921 L38.524,14.921 L37.155,14.921 L34.555,14.921 L31.955,14.921 L29.355,14.921 L26.755,14.921 L24.155,14.921 L21.555,14.921 L18.955,14.921 L16.355,14.921 L13.755,14.921 L11.155,14.921 L9.787,14.921 L8.418,14.921 L8.744,14.371 L9.422,14.371 L12.022,14.371 L14.622,14.371 L17.222,14.371 L19.822,14.371 L22.422,14.371 L25.022,14.371 L27.622,14.371 L30.222,14.371 L32.822,14.371 L35.422,14.371 L38.022,14.371 L39.566,14.371 L39.240,13.821 L38.889,13.821 L36.289,13.821 L33.689,13.821 L31.089,13.821 L28.489,13.821 L25.889,13.821 L23.289,13.821 L20.689,13.821 L18.089,13.821 L15.489,13.821 L12.889,13.821 L10.289,13.821 L9.071,13.821 L9.402,13.271 L11.155,13.271 L13.755,13.271 L16.355,13.271 L18.955,13.271 L21.555,13.271 L24.155,13.271 L26.755,13.271 L29.355,13.271 L31.955,13.271 L34.555,13.271 L37.155,13.271 L38.909,13.271 L38.560,12.721 L38.022,12.721 L35.422,12.721 L32.822,12.721 L30.222,12.721 L27.622,12.721 L25.022,12.721 L22.422,12.721 L19.822,12.721 L17.222,12.721 L14.622,12.721 L12.022,12.721 L9.751,12.721 L10.100,12.171 L11.495,12.171 L12.889,12.171 L15.489,12.171 L18.089,12.171 L20.689,12.171 L23.289,12.171 L25.889,12.171 L28.489,12.171 L31.089,12.171 L33.689,12.171 L36.289,12.171 L38.210,12.171 L37.861,11.621 L37.155,11.621 L34.555,11.621 L31.955,11.621 L29.355,11.621 L26.755,11.621 L24.155,11.621 L21.555,11.621 L18.955,11.621 L16.355,11.621 L13.755,11.621 L11.155,11.621 L10.450,11.621 L10.838,11.071 L12.022,11.071 L14.622,11.071 L17.222,11.071 L19.822,11.071 L22.422,11.071 L25.022,11.071 L27.622,11.071 L30.222,11.071 L32.822,11.071 L35.422,11.071 L37.473,11.071 L37.076,10.521 L36.289,10.521 L33.689,10.521 L31.089,10.521 L28.489,10.521 L25.889,10.521 L23.289,10.521 L20.689,10.521 L18.089,10.521 L15.489,10.521 L12.889,10.521 L11.235,10.521 L11.632,9.971 L13.755,9.971 L16.355,9.971 L18.955,9.971 L21.555,9.971 L24.155,9.971 L26.755,9.971 L29.355,9.971 L31.955,9.971 L34.555,9.971 L36.679,9.971 L36.260,9.421 L35.422,9.421 L32.822,9.421 L30.222,9.421 L27.622,9.421 L25.022,9.421 L22.422,9.421 L19.822,9.421 L17.222,9.421 L14.622,9.421 L12.051,9.421 L12.487,8.871 L12.889,8.871 L15.489,8.871 L18.089,8.871 L20.689,8.871 L23.289,8.871 L25.889,8.871 L28.489,8.871 L31.089,8.871 L33.689,8.871 L35.824,8.871 L35.387,8.321 L34.555,8.321 L31.955,8.321 L29.355,8.321 L26.755,8.321 L24.155,8.321 L21.555,8.321 L18.955,8.321 L16.355,8.321 L13.755,8.321 L12.924,8.321 L13.380,7.771 L14.622,7.771 L17.222,7.771 L19.822,7.771 L22.422,7.771 L25.022,7.771 L27.622,7.771 L30.222,7.771 L32.822,7.771 L34.931,7.771 L34.447,7.221 L33.689,7.221 L31.089,7.221 L28.489,7.221 L25.889,7.221 L23.289,7.221 L20.689,7.221 L18.089,7.221 L15.489,7.221 L13.864,7.221 L14.348,6.671 L16.355,6.671 L18.955,6.671 L21.555,6.671 L24.155,6.671 L26.755,6.671 L29.355,6.671 L31.955,6.671 L33.963,6.671 L33.453,6.121 L32.822,6.121 L30.222,6.121 L27.622,6.121 L25.022,6.121 L22.422,6.121 L19.822,6.121 L17.222,6.121 L14.858,6.121 L15.408,5.571 L16.748,5.571 L18.089,5.571 L20.689,5.571 L23.289,5.571 L25.889,5.571 L28.489,5.571 L29.789,5.571 L31.089,5.571 L32.903,5.571 L32.354,5.021 L31.955,5.021 L29.355,5.021 L26.755,5.021 L24.155,5.021 L21.555,5.021 L18.955,5.021 L16.355,5.021 L15.957,5.021 L16.577,4.471 L17.222,4.471 L19.822,4.471 L22.422,4.471 L25.022,4.471 L27.622,4.471 L30.222,4.471 L31.734,4.471 L31.061,3.921 L28.489,3.921 L25.889,3.921 L23.289,3.921 L20.689,3.921 L18.089,3.921 L17.249,3.921 L17.928,3.371 L18.955,3.371 L21.555,3.371 L24.155,3.371 L26.755,3.371 L29.355,3.371 L30.383,3.371 L29.519,2.821 L27.622,2.821 L25.022,2.821 L22.422,2.821 L19.822,2.821 L18.792,2.821 L19.655,2.271 L20.689,2.271 L23.289,2.271 L25.889,2.271 L27.272,2.271 L28.656,2.271 L27.407,1.721 L26.755,1.721 L24.155,1.721 L21.555,1.721 L20.904,1.721 L22.890,1.171 L25.022,1.171 L25.421,1.171 L25.022,1.171 L25.421,1.171 L25.022,1.171 L25.421,1.171"/>
  <path fill="none" stroke="#274c3a" stroke-width="0.4" stroke-linecap="round" stroke-linejoin="round" d="M24.847,1.111 L24.155,1.000 L24.847,1.111 L24.155,1.000 L26.325,1.348 L27.338,1.777 L28.352,2.205 L29.281,2.797 L30.210,3.388 L31.063,4.086 L31.916,4.784 L32.696,5.564 L33.475,6.344 L34.203,7.171 L34.931,7.998 L35.616,8.861 L36.301,9.724 L36.946,10.618 L37.592,11.512 L38.183,12.443 L38.774,13.374 L39.337,14.322 L39.900,15.269 L40.433,16.234 L40.967,17.199 L41.450,18.191 L41.933,19.182 L42.392,20.184 L42.850,21.186 L43.276,22.204 L43.702,23.221 L44.079,24.257 L44.457,25.292 L44.806,26.338 L45.155,27.383 L45.462,28.443 L45.768,29.502 L46.018,30.575 L46.268,31.649 L46.476,32.731 L46.684,33.813 L46.838,34.905 L46.992,35.997 L47.053,37.098 L47.114,38.199 L47.104,39.300 L47.093,40.402 L47.014,41.501 L46.934,42.600 L46.795,43.693 L46.655,44.787 L46.435,45.868 L46.216,46.948 L45.948,48.017 L45.680,49.086 L45.367,50.143 L45.054,51.200 L44.690,52.241 L44.326,53.282 L43.903,54.300 L43.480,55.318 L43.017,56.318 L42.554,57.318 L42.050,58.299 L41.546,59.279 L40.984,60.228 L40.421,61.176 L39.808,62.092 L39.195,63.008 L38.534,63.890 L37.874,64.772 L37.163,65.614 L36.452,66.456 L35.681,67.244 L34.909,68.032 L34.067,68.743 L33.224,69.453 L32.326,70.091 L31.428,70.728 L30.458,71.250 L29.488,71.773 L28.455,72.154 L27.421,72.536 L26.339,72.741 L25.257,72.946 L24.155,72.946 L23.054,72.946 L21.972,72.741 L20.890,72.536 L19.856,72.154 L18.823,71.773 L17.853,71.250 L16.883,70.728 L15.985,70.091 L15.087,69.453 L14.244,68.743 L13.402,68.032 L12.630,67.244 L11.858,66.456 L11.147,65.614 L10.437,64.772 L9.776,63.890 L9.116,63.008 L8.503,62.092 L7.889,61.176 L7.327,60.228 L6.765,59.279 L6.261,58.299 L5.757,57.318 L5.294,56.318 L4.831,55.318 L4.408,54.300 L3.985,53.282 L3.621,52.241 L3.257,51.200 L2.944,50.143 L2.631,49.086 L2.363,48.017 L2.095,46.948 L1.875,45.868 L1.655,44.787 L1.516,43.693 L1.376,42.600 L1.297,41.501 L1.218,40.402 L1.207,39.300 L1.196,38.199 L1.258,37.098 L1.319,35.997 L1.473,34.905 L1.627,33.813 L1.835,32.731 L2.043,31.649 L2.293,30.575 L2.543,29.502 L2.849,28.443 L3.155,27.383 L3.505,26.338 L3.854,25.292 L4.232,24.257 L4.609,23.221 L5.035,22.204 L5.461,21.186 L5.919,20.184 L6.378,19.182 L6.861,18.191 L7.344,17.199 L7.878,16.234 L8.411,15.269 L8.974,14.322 L9.536,13.374 L10.128,12.443 L10.719,11.512 L11.364,10.618 L12.010,9.724 L12.695,8.861 L13.380,7.998 L14.108,7.171 L14.836,6.344 L15.615,5.564 L16.394,4.784 L17.248,4.086 L18.101,3.388 L19.030,2.797 L19.959,2.205 L20.972,1.777 L21.986,1.348 L24.155,1.000 L23.464,1.111 L24.155,1.000 L23.464,1.111 L24.155,1.000 M2.933,50.102 L3.569,49.809 L2.933,50.102 L3.569,49.809 L2.933,50.102 L4.568,49.348 L6.202,48.593 L7.836,47.839 L9.471,47.085 L11.105,46.331 L12.739,45.576 L14.374,44.822 L16.008,44.068 L17.495,43.054 L18.966,42.016 L20.437,40.978 L21.907,39.940 L23.378,38.902 L24.848,37.864 L26.319,36.826 L27.789,35.788 L29.260,34.750 L30.730,33.712 L32.201,32.674 L33.741,31.742 L35.389,31.017 L37.036,30.293 L38.684,29.568 L40.332,28.843 L41.979,28.118 L43.627,27.393 L44.961,26.806 L44.321,27.088 L44.961,26.806 L44.321,27.088 L44.961,26.806"/>
  <path fill="none" stroke="#d7c66a" stroke-width="0.4" stroke-linecap="round" stroke-linejoin="round" d="M24.560,71.340 L24.416,70.861 L24.560,71.340 L24.416,70.861 L24.560,71.340 M24.416,70.861 L23.939,70.874 L24.416,70.861 L23.939,70.874 L24.416,70.861 M26.819,51.300 L26.819,50.600 L26.819,51.300 L26.819,50.600 L26.819,51.300 M24.619,37.488 L24.619,36.788 L24.619,37.488 L24.619,36.788 L24.619,37.488 M24.619,48.790 L24.619,49.490 L24.619,48.790 L24.619,49.490 L24.619,48.790 M22.419,60.729 L22.419,61.429 L22.419,60.729 L22.419,61.429 L22.419,60.729 M23.043,3.984 L23.743,3.984 L23.043,3.984 L23.743,3.984 L23.043,3.984 L25.318,3.984 L25.651,4.534 L25.022,4.534 L22.680,4.534 L22.595,5.084 L24.155,5.084 L25.833,5.084 L25.988,5.634 L24.639,5.634 L23.289,5.634 L22.680,5.634 L22.835,6.184 L25.022,6.184 L26.144,6.184 L26.273,6.734 L24.155,6.734 L22.991,6.734 L23.128,7.284 L24.508,7.284 L25.889,7.284 L26.382,7.284 L26.490,7.834 L25.022,7.834 L23.236,7.834 L23.345,8.384 L24.155,8.384 L26.597,8.384 L26.660,8.934 L25.889,8.934 L23.445,8.934 L23.504,9.484 L25.022,9.484 L26.718,9.484 L26.777,10.034 L25.466,10.034 L24.155,10.034 L23.562,10.034 L23.620,10.584 L25.889,10.584 L26.835,10.584 L26.893,11.134 L25.022,11.134 L23.679,11.134 L23.737,11.684 L24.155,11.684 L25.554,11.684 L26.952,11.684 L27.010,12.234 L25.889,12.234 L23.795,12.234 L23.854,12.784 L25.022,12.784 L27.055,12.784 L27.071,13.334 L26.755,13.334 L25.313,13.334 L23.871,13.334 L23.887,13.884 L25.889,13.884 L27.087,13.884 L27.103,14.434 L25.022,14.434 L23.903,14.434 L23.919,14.984 L25.337,14.984 L26.755,14.984 L27.119,14.984 L27.135,15.534 L25.889,15.534 L23.934,15.534 L23.950,16.084 L25.022,16.084 L27.151,16.084 L27.167,16.634 L26.755,16.634 L25.361,16.634 L23.966,16.634 L23.978,17.184 L25.889,17.184 L27.178,17.184 L27.172,17.734 L25.022,17.734 L23.972,17.734 L23.966,18.284 L25.361,18.284 L26.755,18.284 L27.167,18.284 L27.161,18.834 L25.889,18.834 L23.960,18.834 L23.954,19.384 L25.022,19.384 L27.155,19.384 L27.149,19.934 L26.755,19.934 L25.352,19.934 L23.948,19.934 L23.942,20.484 L25.889,20.484 L27.143,20.484 L27.137,21.034 L25.022,21.034 L23.937,21.034 L23.931,21.584 L25.343,21.584 L26.755,21.584 L27.131,21.584 L27.120,22.134 L25.889,22.134 L23.919,22.134 L23.908,22.684 L25.022,22.684 L27.109,22.684 L27.097,23.234 L26.755,23.234 L25.326,23.234 L23.896,23.234 L23.885,23.784 L25.889,23.784 L27.086,23.784 L27.074,24.334 L25.022,24.334 L23.873,24.334 L23.862,24.884 L25.309,24.884 L26.755,24.884 L27.063,24.884 L27.051,25.434 L25.889,25.434 L23.850,25.434 L23.839,25.984 L25.022,25.984 L27.040,25.984 L27.034,26.534 L25.594,26.534 L24.155,26.534 L23.833,26.534 L23.832,27.084 L25.889,27.084 L27.032,27.084 L27.030,27.634 L25.022,27.634 L23.830,27.634 L23.829,28.184 L24.155,28.184 L25.592,28.184 L27.029,28.184 L27.027,28.734 L25.889,28.734 L23.827,28.734 L23.826,29.284 L25.022,29.284 L27.026,29.284 L27.024,29.834 L25.590,29.834 L24.155,29.834 L23.824,29.834 L23.822,30.384 L25.889,30.384 L27.022,30.384 L27.032,30.934 L25.022,30.934 L23.829,30.934 L23.854,31.484 L24.155,31.484 L26.755,31.484 L27.057,31.484 L27.083,32.034 L25.889,32.034 L23.879,32.034 L23.904,32.584 L25.022,32.584 L27.108,32.584 L27.133,33.134 L26.755,33.134 L25.342,33.134 L23.929,33.134 L23.955,33.684 L25.889,33.684 L27.158,33.684 L27.183,34.234 L25.022,34.234 L23.980,34.234 L24.005,34.784 L25.380,34.784 L26.755,34.784 L27.208,34.784 L27.271,35.334 L25.889,35.334 L24.046,35.334 L24.121,35.884 L25.022,35.884 L27.345,35.884 L27.420,36.434 L26.755,36.434 L24.195,36.434 L24.270,36.984 L25.889,36.984 L27.494,36.984 L27.569,37.534 L25.022,37.534 L24.344,37.534 L24.419,38.084 L26.755,38.084 L27.643,38.084 L27.718,38.634 L25.889,38.634 L24.493,38.634 L24.568,39.184 L25.022,39.184 L26.409,39.184 L27.797,39.184 L27.876,39.734 L26.755,39.734 L24.646,39.734 L24.726,40.284 L25.889,40.284 L27.956,40.284 L28.028,40.834 L27.622,40.834 L26.214,40.834 L24.805,40.834 L24.851,41.384 L26.755,41.384 L28.053,41.384 L28.079,41.934 L25.889,41.934 L24.877,41.934 L24.903,42.484 L26.262,42.484 L27.622,42.484 L28.105,42.484 L28.114,43.034 L26.755,43.034 L24.913,43.034 L24.895,43.584 L25.889,43.584 L28.096,43.584 L28.079,44.134 L27.622,44.134 L26.250,44.134 L24.877,44.134 L24.859,44.684 L26.755,44.684 L28.061,44.684 L28.022,45.234 L25.889,45.234 L24.807,45.234 L24.754,45.784 L26.188,45.784 L27.622,45.784 L27.969,45.784 L27.916,46.334 L26.755,46.334 L24.701,46.334 L24.631,46.884 L25.889,46.884 L27.863,46.884 L27.779,47.434 L26.401,47.434 L25.022,47.434 L24.542,47.434 L24.453,47.984 L26.755,47.984 L27.690,47.984 L27.601,48.534 L25.889,48.534 L24.364,48.534 L24.274,49.084 L25.022,49.084 L27.512,49.084 L27.423,49.634 L26.755,49.634 L24.185,49.634 L24.096,50.184 L25.889,50.184 L27.333,50.184 L27.244,50.734 L25.022,50.734 L24.001,50.734 L23.888,51.284 L25.322,51.284 L26.755,51.284 L27.146,51.284 L27.033,51.834 L25.889,51.834 L23.775,51.834 L23.662,52.384 L25.022,52.384 L26.920,52.384 L26.807,52.934 L25.481,52.934 L24.155,52.934 L23.550,52.934 L23.437,53.484 L25.889,53.484 L26.694,53.484 L26.581,54.034 L25.022,54.034 L23.324,54.034 L23.211,54.584 L24.155,54.584 L26.468,54.584 L26.355,55.134 L25.889,55.134 L24.496,55.134 L23.103,55.134 L22.995,55.684 L25.022,55.684 L26.249,55.684 L26.141,56.234 L24.155,56.234 L22.888,56.234 L22.780,56.784 L23.289,56.784 L24.661,56.784 L26.033,56.784 L25.925,57.334 L25.022,57.334 L22.672,57.334 L22.564,57.884 L24.155,57.884 L25.818,57.884 L25.710,58.434 L23.289,58.434 L22.457,58.434 L22.371,58.984 L23.696,58.984 L25.022,58.984 L25.602,58.984 L25.522,59.534 L24.155,59.534 L22.298,59.534 L22.225,60.084 L23.289,60.084 L25.449,60.084 L25.377,60.634 L25.022,60.634 L23.587,60.634 L22.153,60.634 L22.080,61.184 L24.155,61.184 L25.304,61.184 L25.231,61.734 L23.289,61.734 L22.007,61.734 L21.935,62.284 L22.422,62.284 L23.790,62.284 L25.159,62.284 L25.086,62.834 L24.155,62.834 L21.878,62.834 L21.853,63.384 L23.289,63.384 L25.057,63.384 L25.032,63.934 L23.727,63.934 L22.422,63.934 L21.828,63.934 L21.803,64.484 L24.155,64.484 L25.007,64.484 L25.011,65.034 L23.289,65.034 L21.810,65.034 L21.830,65.584 L22.422,65.584 L23.726,65.584 L25.031,65.584 L25.050,66.134 L24.155,66.134 L21.849,66.134 L21.876,66.684 L23.289,66.684 L25.100,66.684 L25.175,67.234 L23.799,67.234 L22.422,67.234 L21.950,67.234 L22.025,67.784 L24.155,67.784 L25.250,67.784 L25.366,68.334 L23.289,68.334 L22.100,68.334 L22.217,68.884 L23.620,68.884 L25.022,68.884 L25.510,68.884 L25.654,69.434 L24.155,69.434 L22.361,69.434 L22.505,69.984 L23.289,69.984 L25.718,69.984 L25.599,70.534 L25.022,70.534 L22.705,70.534 L23.128,71.084 L24.155,71.084 L25.167,71.084 L24.467,71.084 L25.167,71.084 L24.467,71.084 L25.167,71.084"/>
</svg>
