<svg xmlns="http://www.w3.org/2000/svg" viewBox="-1.275 0 29.55 29.55" width="256" height="256">
  <title>extrude</title>
  <rect x="-1.275" y="0" width="29.55" height="29.55" fill="#f5efe4"/>
  <path fill="none" stroke="#31604f" stroke-width="0.4" stroke-linecap="round" stroke-linejoin="round" d="M10.000,23.000 L10.000,23.000 L12.000,23.000 L14.000,23.000 L16.000,23.000 L18.000,23.000 L20.000,23.000 L22.000,23.000 L24.000,23.000 L26.000,23.000 L26.000,21.000 L26.000,19.000 L26.000,17.000 L24.000,17.000 L22.000,17.000 L20.000,17.000 L18.000,17.000 L16.000,17.000 L16.000,15.000 L16.000,13.000 L16.000,11.000 L16.000,9.000 L16.000,7.000 L16.000,5.000 L16.000,3.000 L16.000,1.000 L14.000,1.000 L12.000,1.000 L10.000,1.000 L10.000,3.000 L10.000,5.000 L10.000,7.000 L10.000,9.000 L10.000,11.000 L10.000,13.000 L10.000,15.000 L10.000,17.000 L10.000,19.000 L10.000,21.000 L10.000,23.000 L11.000,23.600 L13.000,23.600 L15.000,23.600 L17.000,23.600 L19.000,23.600 L21.000,23.600 L23.000,23.600 L25.000,23.600 L25.000,21.600 L25.000,19.600 L25.000,17.600 L23.000,17.600 L21.000,17.600 L19.000,17.600 L17.000,17.600 L15.000,17.600 L15.000,15.600 L15.000,13.600 L15.000,11.600 L15.000,9.600 L15.000,7.600 L15.000,5.600 L15.000,3.600 L15.000,1.600 L13.000,1.600 L11.000,1.600 L9.000,1.600 L9.000,3.600 L9.000,5.600 L9.000,7.600 L9.000,9.600 L9.000,11.600 L9.000,13.600 L9.000,15.600 L9.000,17.600 L9.000,19.600 L9.000,21.600 L9.000,23.600 L10.000,24.200 L12.000,24.200 L14.000,24.200 L16.000,24.200 L18.000,24.200 L20.000,24.200 L22.000,24.200 L24.000,24.200 L24.000,22.200 L24.000,20.200 L24.000,18.200 L22.000,18.200 L20.000,18.200 L18.000,18.200 L16.000,18.200 L14.000,18.200 L14.000,16.200 L14.000,14.200 L14.000,12.200 L14.000,10.200 L14.000,8.200 L14.000,6.200 L14.000,4.200 L14.000,2.200 L12.000,2.200 L10.000,2.200 L8.000,2.200 L8.000,4.200 L8.000,6.200 L8.000,8.200 L8.000,10.200 L8.000,12.200 L8.000,14.200 L8.000,16.200 L8.000,18.200 L8.000,20.200 L8.000,22.200 L8.000,24.200 L9.000,24.800 L11.000,24.800 L13.000,24.800 L15.000,24.800 L17.000,24.800 L19.000,24.800 L21.000,24.800 L23.000,24.800 L23.000,22.800 L23.000,20.800 L23.000,18.800 L21.000,18.800 L19.000,18.800 L17.000,18.800 L15.000,18.800 L13.000,18.800 L13.000,16.800 L13.000,14.800 L13.000,12.800 L13.000,10.800 L13.000,8.800 L13.000,6.800 L13.000,4.800 L13.000,2.800 L11.000,2.800 L9.000,2.800 L7.000,2.800 L7.000,4.800 L7.000,6.800 L7.000,8.800 L7.000,10.800 L7.000,12.800 L7.000,14.800 L7.000,16.800 L7.000,18.800 L7.000,20.800 L7.000,22.800 L7.000,24.800 L8.000,25.400 L10.000,25.400 L12.000,25.400 L14.000,25.400 L16.000,25.400 L18.000,25.400 L20.000,25.400 L22.000,25.400 L22.000,23.400 L22.000,21.400 L22.000,19.400 L20.000,19.400 L18.000,19.400 L16.000,19.400 L14.000,19.400 L12.000,19.400 L12.000,17.400 L12.000,15.400 L12.000,13.400 L12.000,11.400 L12.000,9.400 L12.000,7.400 L12.000,5.400 L12.000,3.400 L10.000,3.400 L8.000,3.400 L6.000,3.400 L6.000,5.400 L6.000,7.400 L6.000,9.400 L6.000,11.400 L6.000,13.400 L6.000,15.400 L6.000,17.400 L6.000,19.400 L6.000,21.400 L6.000,23.400 L6.000,25.400 L7.000,26.000 L9.000,26.000 L11.000,26.000 L13.000,26.000 L15.000,26.000 L17.000,26.000 L19.000,26.000 L21.000,26.000 L21.000,24.000 L21.000,22.000 L21.000,20.000 L19.000,20.000 L17.000,20.000 L15.000,20.000 L13.000,20.000 L11.000,20.000 L11.000,18.000 L11.000,16.000 L11.000,14.000 L11.000,12.000 L11.000,10.000 L11.000,8.000 L11.000,6.000 L11.000,4.000 L9.000,4.000 L7.000,4.000 L5.000,4.000 L5.000,6.000 L5.000,8.000 L5.000,10.000 L5.000,12.000 L5.000,14.000 L5.000,16.000 L5.000,18.000 L5.000,20.000 L5.000,22.000 L5.000,24.000 L5.000,26.000 L6.000,26.600 L8.000,26.600 L10.000,26.600 L12.000,26.600 L14.000,26.600 L16.000,26.600 L18.000,26.600 L20.000,26.600 L20.000,24.600 L20.000,22.600 L20.000,20.600 L18.000,20.600 L16.000,20.600 L14.000,20.600 L12.000,20.600 L10.000,20.600 L10.000,18.600 L10.000,16.600 L10.000,14.600 L10.000,12.600 L10.000,10.600 L10.000,8.600 L10.000,6.600 L10.000,4.600 L8.000,4.600 L6.000,4.600 L4.000,4.600 L4.000,6.600 L4.000,8.600 L4.000,10.600 L4.000,12.600 L4.000,14.600 L4.000,16.600 L4.000,18.600 L4.000,20.600 L4.000,22.600 L4.000,24.600 L4.000,26.600 L5.000,27.200 L7.000,27.200 L9.000,27.200 L11.000,27.200 L13.000,27.200 L15.000,27.200 L17.000,27.200 L19.000,27.200 L19.000,25.700 L19.000,24.200 L19.000,22.700 L19.000,21.200 L17.000,21.200 L15.000,21.200 L13.000,21.200 L11.000,21.200 L9.000,21.200 L9.000,19.200 L9.000,17.200 L9.000,15.200 L9.000,13.200 L9.000,11.200 L9.000,9.200 L9.000,7.200 L9.000,5.200 L7.000,5.200 L5.000,5.200 L3.000,5.200 L3.000,7.200 L3.000,9.200 L3.000,11.200 L3.000,13.200 L3.000,15.200 L3.000,17.200 L3.000,19.200 L3.000,21.200 L3.000,23.200 L3.000,25.200 L3.000,27.200 L4.000,27.800 L6.000,27.800 L8.000,27.800 L10.000,27.800 L12.000,27.800 L14.000,27.800 L16.000,27.800 L18.000,27.800 L18.000,25.800 L18.000,23.800 L18.000,21.800 L16.000,21.800 L14.000,21.800 L12.000,21.800 L10.000,21.800 L8.000,21.800 L8.000,19.800 L8.000,17.800 L8.000,15.800 L8.000,13.800 L8.000,11.800 L8.000,9.800 L8.000,7.800 L8.000,5.800 L6.000,5.800 L4.000,5.800 L2.000,5.800 L2.000,7.800 L2.000,9.800 L2.000,11.800 L2.000,13.800 L2.000,15.800 L2.000,17.800 L2.000,19.800 L2.000,21.800 L2.000,23.800 L2.000,25.800 L2.000,27.800 L3.000,28.400 L5.000,28.400 L7.000,28.400 L9.000,28.400 L11.000,28.400 L13.000,28.400 L15.000,28.400 L17.000,28.400 L17.000,26.400 L17.000,24.400 L17.000,22.400 L15.000,22.400 L13.000,22.400 L11.000,22.400 L9.000,22.400 L7.000,22.400 L7.000,20.400 L7.000,18.400 L7.000,16.400 L7.000,14.400 L7.000,12.400 L7.000,10.400 L7.000,8.400 L7.000,6.400 L5.000,6.400 L3.000,6.400 L1.000,6.400 L1.000,8.400 L1.000,10.400 L1.000,12.400 L1.000,14.400 L1.000,16.400 L1.000,18.400 L1.000,20.400 L1.000,22.400 L1.000,24.400 L1.000,26.400 L1.000,28.400 L1.000,27.700 L1.000,28.400 L1.000,27.700 L1.000,28.400"/>
  <path fill="none" stroke="#3a4e8c" stroke-width="0.4" stroke-linecap="round" stroke-linejoin="round" d="M1.354,28.046 L1.000,28.400 L1.354,28.046 L1.000,28.400 M1.354,28.046 L1.354,27.346 L1.354,28.046 L1.354,27.346 L1.354,28.046 M6.400,7.300 L5.700,7.300 L6.400,7.300 L5.700,7.300 L6.400,7.300 M16.400,27.100 L16.775,28.550 L16.775,27.400 L16.775,25.400 L16.775,23.400 L16.775,22.250 L16.325,22.250 L16.325,22.733 L16.325,24.733 L16.325,26.733 L16.325,28.550 L15.875,28.550 L15.875,28.067 L15.875,26.067 L15.875,24.067 L15.875,22.250 L15.425,22.250 L15.425,23.400 L15.425,25.400 L15.425,27.400 L15.425,28.550 L14.975,28.550 L14.975,26.733 L14.975,24.733 L14.975,22.733 L14.975,22.250 L14.525,22.250 L14.525,24.067 L14.525,26.067 L14.525,28.067 L14.525,28.550 L14.075,28.550 L14.075,27.400 L14.075,25.400 L14.075,23.400 L14.075,22.250 L13.625,22.250 L13.625,22.733 L13.625,24.733 L13.625,26.733 L13.625,28.550 L13.175,28.550 L13.175,28.067 L13.175,26.067 L13.175,24.067 L13.175,22.250 L12.725,22.250 L12.725,23.400 L12.725,25.400 L12.725,27.400 L12.725,28.550 L12.275,28.550 L12.275,26.733 L12.275,24.733 L12.275,22.733 L12.275,22.250 L11.825,22.250 L11.825,24.067 L11.825,26.067 L11.825,28.067 L11.825,28.550 L11.375,28.550 L11.375,27.400 L11.375,25.400 L11.375,23.400 L11.375,22.250 L10.925,22.250 L10.925,22.733 L10.925,24.733 L10.925,26.733 L10.925,28.550 L10.475,28.550 L10.475,28.067 L10.475,26.067 L10.475,24.067 L10.475,22.250 L10.025,22.250 L10.025,23.400 L10.025,25.400 L10.025,27.400 L10.025,28.550 L9.575,28.550 L9.575,26.733 L9.575,24.733 L9.575,22.733 L9.575,22.250 L9.125,22.250 L9.125,24.067 L9.125,26.067 L9.125,28.067 L9.125,28.550 L8.675,28.550 L8.675,27.400 L8.675,25.400 L8.675,23.400 L8.675,22.250 L8.225,22.250 L8.225,22.733 L8.225,24.733 L8.225,26.733 L8.225,28.550 L7.775,28.550 L7.775,28.067 L7.775,26.067 L7.775,24.067 L7.775,22.250 L7.325,22.250 L7.325,23.400 L7.325,25.400 L7.325,27.400 L7.325,28.550 L6.875,28.550 L6.875,26.733 L6.875,24.733 L6.875,22.733 L6.875,20.733 L6.875,18.733 L6.875,16.733 L6.875,14.733 L6.875,12.733 L6.875,10.733 L6.875,8.733 L6.875,6.733 L6.875,6.250 L6.425,6.250 L6.425,8.067 L6.425,10.067 L6.425,12.067 L6.425,14.067 L6.425,16.067 L6.425,18.067 L6.425,20.067 L6.425,22.067 L6.425,24.067 L6.425,26.067 L6.425,28.067 L6.425,28.550 L5.975,28.550 L5.975,27.400 L5.975,25.400 L5.975,23.400 L5.975,21.400 L5.975,19.400 L5.975,17.400 L5.975,15.400 L5.975,13.400 L5.975,11.400 L5.975,9.400 L5.975,7.400 L5.975,6.250 L5.525,6.250 L5.525,6.733 L5.525,8.733 L5.525,10.733 L5.525,12.733 L5.525,14.733 L5.525,16.733 L5.525,18.733 L5.525,20.733 L5.525,22.733 L5.525,24.733 L5.525,26.733 L5.525,28.550 L5.075,28.550 L5.075,28.067 L5.075,26.067 L5.075,24.067 L5.075,22.067 L5.075,20.067 L5.075,18.067 L5.075,16.067 L5.075,14.067 L5.075,12.067 L5.075,10.067 L5.075,8.067 L5.075,6.250 L4.625,6.250 L4.625,7.400 L4.625,9.400 L4.625,11.400 L4.625,13.400 L4.625,15.400 L4.625,17.400 L4.625,19.400 L4.625,21.400 L4.625,23.400 L4.625,25.400 L4.625,27.400 L4.625,28.550 L4.175,28.550 L4.175,26.733 L4.175,24.733 L4.175,22.733 L4.175,20.733 L4.175,18.733 L4.175,16.733 L4.175,14.733 L4.175,12.733 L4.175,10.733 L4.175,8.733 L4.175,6.733 L4.175,6.250 L3.725,6.250 L3.725,8.067 L3.725,10.067 L3.725,12.067 L3.725,14.067 L3.725,16.067 L3.725,18.067 L3.725,20.067 L3.725,22.067 L3.725,24.067 L3.725,26.067 L3.725,28.067 L3.725,28.550 L3.275,28.550 L3.275,27.400 L3.275,25.400 L3.275,23.400 L3.275,21.400 L3.275,19.400 L3.275,17.400 L3.275,15.400 L3.275,13.400 L3.275,11.400 L3.275,9.400 L3.275,7.400 L3.275,6.250 L2.825,6.250 L2.825,6.733 L2.825,8.733 L2.825,10.733 L2.825,12.733 L2.825,14.733 L2.825,16.733 L2.825,18.733 L2.825,20.733 L2.825,22.733 L2.825,24.733 L2.825,26.733 L2.825,28.550 L2.375,28.550 L2.375,28.067 L2.375,26.067 L2.375,24.067 L2.375,22.067 L2.375,20.067 L2.375,18.067 L2.375,16.067 L2.375,14.067 L2.375,12.067 L2.375,10.067 L2.375,8.067 L2.375,6.250 L1.925,6.250 L1.925,7.400 L1.925,9.400 L1.925,11.400 L1.925,13.400 L1.925,15.400 L1.925,17.400 L1.925,19.400 L1.925,21.400 L1.925,23.400 L1.925,25.400 L1.925,27.400 L1.925,28.550 L1.475,28.550 L1.475,26.733 L1.475,24.733 L1.475,22.733 L1.475,20.733 L1.475,18.733 L1.475,16.733 L1.475,14.733 L1.475,12.733 L1.475,10.733 L1.475,8.733 L1.475,6.733 L1.475,6.250 L1.025,6.250 L1.025,8.067 L1.025,10.067 L1.025,12.067 L1.025,14.067 L1.025,16.067 L1.025,18.067 L1.025,20.067 L1.025,22.067 L1.025,24.067 L1.025,26.067 L1.025,28.067 L1.025,28.550 L3.000,28.400 L5.000,28.400 L7.000,28.400 L9.000,28.400 L11.000,28.400 L13.000,28.400 L15.000,28.400 L17.000,28.400 L17.000,26.400 L17.000,24.400 L17.000,22.400 L15.000,22.400 L13.000,22.400 L11.000,22.400 L9.000,22.400 L7.000,22.400 L7.000,20.400 L7.000,18.400 L7.000,16.400 L7.000,14.400 L7.000,12.400 L7.000,10.400 L7.000,8.400 L7.000,6.400 L5.000,6.400 L3.000,6.400 L1.000,6.400 L1.000,8.400 L1.000,10.400 L1.000,12.400 L1.000,14.400 L1.000,16.400 L1.000,18.400 L1.000,20.400 L1.000,22.400 L1.000,24.400 L1.000,26.400 L1.000,28.400 L1.000,27.700 L1.000,28.400 L1.000,27.700 L1.000,28.400"/>
</svg>
