<svg xmlns="http://www.w3.org/2000/svg" viewBox="-0.803 0 89.347 89.347" width="256" height="256">
  <title>fermat</title>
  <rect x="-0.803" y="0" width="89.347" height="89.347" fill="#f5efe4"/>
  <path fill="none" stroke="#c8472f" stroke-width="0.4" stroke-linecap="round" stroke-linejoin="round" d="M43.871,44.674 L43.928,43.976 L43.871,44.674 L43.928,43.976 L43.871,44.674 L43.944,43.777 L44.017,42.880 L44.872,41.296 L45.680,40.899 L46.488,40.502 L48.284,40.623 L49.086,41.031 L49.888,41.439 L50.518,42.081 L51.148,42.724 L51.572,43.518 L51.996,44.312 L52.210,45.186 L52.423,46.060 L52.436,47.860 L52.250,48.741 L52.064,49.621 L51.347,51.272 L50.836,52.014 L50.326,52.755 L49.049,54.023 L47.569,55.048 L46.752,55.427 L45.936,55.806 L45.068,56.045 L44.201,56.284 L42.411,56.478 L41.512,56.435 L40.613,56.392 L38.849,56.034 L38.005,55.723 L37.160,55.413 L36.369,54.984 L35.578,54.555 L34.132,53.483 L32.855,52.214 L32.307,51.500 L31.759,50.786 L31.315,50.003 L30.872,49.220 L30.194,47.553 L29.748,45.809 L29.524,44.023 L29.528,43.123 L29.532,42.223 L29.766,40.438 L30.216,38.695 L30.547,37.858 L30.878,37.021 L31.309,36.231 L31.739,35.441 L32.260,34.707 L32.781,33.973 L33.987,32.636 L34.664,32.043 L35.341,31.451 L36.825,30.433 L37.621,30.011 L38.416,29.590 L40.091,28.932 L40.961,28.699 L41.830,28.465 L43.609,28.194 L45.408,28.121 L47.204,28.244 L48.976,28.561 L49.839,28.813 L50.703,29.066 L51.535,29.409 L52.367,29.752 L53.158,30.181 L53.949,30.610 L55.433,31.630 L56.802,32.798 L58.044,34.101 L59.145,35.525 L60.096,37.053 L60.889,38.669 L61.515,40.357 L61.972,42.098 L62.113,42.987 L62.254,43.876 L62.362,45.672 L62.288,47.471 L62.040,49.254 L61.623,51.005 L61.040,52.708 L60.670,53.528 L60.300,54.349 L59.854,55.130 L59.408,55.912 L58.367,57.381 L57.781,58.064 L57.195,58.747 L55.903,59.999 L54.501,61.129 L53.750,61.624 L52.998,62.119 L52.204,62.543 L51.410,62.967 L49.753,63.671 L48.041,64.224 L47.161,64.417 L46.282,64.610 L44.497,64.841 L42.699,64.916 L41.800,64.870 L40.901,64.825 L39.119,64.574 L38.241,64.373 L37.364,64.173 L35.653,63.615 L34.825,63.261 L33.997,62.908 L33.202,62.486 L32.407,62.065 L31.653,61.574 L30.899,61.083 L29.481,59.974 L28.819,59.363 L28.158,58.753 L26.953,57.416 L26.407,56.700 L25.861,55.985 L25.377,55.226 L24.893,54.467 L24.478,53.669 L24.063,52.870 L23.713,52.041 L23.362,51.212 L23.086,50.355 L22.810,49.499 L22.400,47.746 L22.267,46.856 L22.135,45.966 L22.024,44.169 L22.051,42.369 L22.240,40.579 L22.565,38.809 L23.039,37.072 L23.344,36.226 L23.649,35.379 L24.023,34.560 L24.396,33.741 L24.834,32.955 L25.273,32.169 L26.271,30.671 L26.831,29.967 L27.390,29.262 L28.002,28.601 L28.613,27.941 L29.943,26.728 L31.360,25.618 L32.113,25.124 L32.865,24.631 L33.652,24.194 L34.439,23.757 L36.080,23.018 L37.772,22.402 L38.640,22.165 L39.508,21.928 L40.391,21.755 L41.275,21.583 L43.063,21.382 L43.963,21.349 L44.862,21.316 L45.761,21.354 L46.661,21.392 L48.448,21.604 L50.214,21.952 L51.948,22.437 L53.641,23.046 L55.280,23.791 L56.864,24.646 L58.370,25.632 L59.087,26.176 L59.805,26.719 L61.149,27.916 L61.776,28.562 L62.402,29.208 L62.980,29.898 L63.557,30.588 L64.601,32.055 L65.072,32.822 L65.542,33.589 L65.949,34.392 L66.355,35.195 L67.056,36.853 L67.343,37.706 L67.630,38.559 L67.852,39.431 L68.075,40.303 L68.401,42.074 L68.581,43.865 L68.640,45.664 L68.604,46.563 L68.568,47.462 L68.360,49.250 L68.033,51.020 L67.569,52.759 L67.277,53.611 L66.985,54.462 L66.287,56.121 L65.459,57.719 L64.527,59.259 L64.008,59.995 L63.489,60.730 L62.342,62.117 L61.724,62.771 L61.106,63.426 L59.779,64.642 L59.073,65.200 L58.366,65.757 L56.883,66.777 L55.330,67.687 L54.522,68.084 L53.715,68.482 L52.883,68.826 L52.052,69.170 L50.343,69.736 L48.598,70.178 L46.828,70.505 L45.039,70.706 L44.140,70.741 L43.241,70.777 L41.441,70.731 L39.649,70.563 L37.874,70.262 L36.123,69.848 L34.402,69.320 L32.726,68.662 L31.096,67.898 L30.308,67.464 L29.519,67.030 L28.009,66.051 L27.289,65.511 L26.569,64.971 L25.885,64.386 L25.201,63.801 L24.558,63.172 L23.914,62.543 L22.723,61.194 L22.171,60.482 L21.620,59.771 L21.115,59.026 L20.610,58.281 L19.708,56.723 L19.312,55.915 L18.915,55.107 L18.225,53.445 L17.934,52.593 L17.643,51.742 L17.186,50.000 L17.015,49.117 L16.843,48.233 L16.613,46.448 L16.497,44.652 L16.512,42.852 L16.641,41.057 L16.882,39.273 L17.237,37.508 L17.478,36.641 L17.718,35.774 L18.307,34.073 L18.655,33.243 L19.002,32.412 L19.799,30.798 L20.254,30.022 L20.710,29.246 L21.717,27.754 L22.265,27.040 L22.814,26.327 L23.999,24.972 L25.273,23.701 L26.628,22.516 L28.054,21.417 L29.545,20.409 L31.097,19.497 L31.903,19.096 L32.709,18.696 L34.367,17.995 L36.065,17.398 L36.931,17.152 L37.797,16.907 L39.557,16.530 L41.338,16.271 L43.132,16.122 L44.032,16.102 L44.931,16.082 L46.730,16.153 L48.520,16.342 L49.407,16.495 L50.294,16.647 L52.046,17.060 L52.908,17.319 L53.770,17.578 L55.459,18.201 L56.282,18.565 L57.105,18.930 L58.699,19.765 L60.239,20.696 L60.980,21.207 L61.721,21.719 L63.138,22.829 L63.811,23.426 L64.485,24.022 L65.117,24.663 L65.749,25.304 L66.340,25.983 L66.932,26.661 L68.031,28.086 L69.043,29.575 L69.963,31.122 L70.376,31.922 L70.788,32.722 L71.504,34.373 L72.121,36.064 L72.635,37.789 L73.045,39.542 L73.350,41.316 L73.549,43.105 L73.589,44.004 L73.629,44.903 L73.601,46.703 L73.466,48.498 L73.346,49.390 L73.226,50.282 L72.880,52.048 L72.655,52.919 L72.430,53.791 L72.152,54.647 L71.874,55.503 L71.211,57.176 L70.830,57.992 L70.450,58.807 L70.022,59.599 L69.594,60.391 L68.647,61.922 L67.611,63.394 L67.051,64.098 L66.491,64.803 L65.890,65.473 L65.288,66.142 L64.003,67.403 L63.325,67.994 L62.646,68.585 L61.935,69.136 L61.223,69.687 L59.738,70.704 L58.195,71.632 L57.399,72.050 L56.602,72.469 L54.962,73.211 L53.281,73.854 L51.563,74.392 L49.817,74.829 L48.048,75.165 L46.264,75.397 L44.468,75.526 L43.568,75.539 L42.668,75.551 L41.769,75.512 L40.870,75.473 L39.079,75.290 L38.191,75.145 L37.303,74.999 L36.425,74.801 L35.547,74.603 L33.817,74.107 L32.967,73.810 L32.118,73.513 L31.287,73.168 L30.455,72.822 L29.646,72.430 L28.836,72.038 L27.263,71.161 L25.743,70.197 L25.012,69.672 L24.281,69.147 L22.881,68.016 L21.553,66.802 L20.296,65.513 L19.705,64.834 L19.115,64.155 L18.563,63.443 L18.012,62.732 L16.992,61.249 L16.058,59.710 L15.212,58.121 L14.835,57.304 L14.458,56.487 L14.127,55.650 L13.796,54.813 L13.514,53.958 L13.231,53.104 L12.997,52.235 L12.762,51.366 L12.395,49.604 L12.132,47.823 L11.969,46.030 L11.907,44.232 L11.946,42.432 L12.085,40.637 L12.325,38.853 L12.663,37.086 L12.882,36.213 L13.101,35.339 L13.367,34.480 L13.634,33.620 L14.263,31.934 L14.624,31.109 L14.984,30.285 L15.797,28.678 L16.697,27.120 L17.683,25.614 L18.755,24.168 L19.330,23.475 L19.905,22.783 L21.129,21.464 L22.425,20.214 L23.106,19.626 L23.788,19.038 L24.500,18.489 L25.213,17.939 L25.955,17.430 L26.697,16.920 L28.235,15.984 L29.821,15.134 L31.452,14.373 L33.123,13.702 L33.975,13.413 L34.827,13.124 L36.561,12.640 L38.319,12.251 L39.207,12.105 L40.095,11.959 L40.989,11.862 L41.884,11.765 L43.682,11.668 L45.482,11.670 L47.279,11.769 L49.068,11.967 L50.843,12.264 L52.600,12.657 L53.466,12.901 L54.332,13.145 L56.036,13.726 L56.871,14.062 L57.706,14.398 L59.337,15.159 L60.925,16.007 L62.465,16.939 L63.208,17.446 L63.952,17.953 L64.667,18.500 L65.382,19.046 L66.067,19.630 L66.752,20.214 L68.057,21.454 L69.293,22.762 L69.876,23.448 L70.458,24.134 L71.003,24.850 L71.548,25.567 L72.559,27.056 L73.024,27.826 L73.489,28.597 L74.336,30.185 L75.096,31.817 L75.433,32.652 L75.769,33.486 L76.060,34.338 L76.352,35.189 L76.843,36.921 L77.042,37.799 L77.242,38.676 L77.394,39.563 L77.546,40.450 L77.652,41.344 L77.757,42.238 L77.872,44.034 L77.882,44.934 L77.892,45.834 L77.817,47.633 L77.732,48.529 L77.647,49.425 L77.382,51.205 L77.203,52.087 L77.024,52.969 L76.574,54.712 L76.033,56.429 L75.401,58.114 L74.683,59.765 L74.281,60.570 L73.878,61.375 L73.435,62.158 L72.991,62.941 L72.507,63.699 L72.022,64.458 L71.499,65.190 L70.976,65.923 L70.415,66.626 L69.854,67.330 L69.257,68.004 L68.660,68.678 L68.029,69.319 L67.398,69.961 L66.734,70.569 L66.070,71.176 L64.681,72.321 L63.235,73.392 L62.485,73.889 L61.734,74.386 L60.959,74.844 L60.184,75.302 L59.387,75.718 L58.589,76.135 L56.952,76.885 L56.116,77.216 L55.279,77.548 L53.574,78.125 L52.708,78.369 L51.841,78.612 L50.086,79.010 L48.312,79.316 L47.418,79.423 L46.525,79.531 L45.627,79.592 L44.729,79.653 L42.929,79.682 L41.130,79.620 L40.234,79.542 L39.337,79.464 L38.446,79.341 L37.554,79.218 L36.670,79.049 L35.786,78.880 L34.038,78.452 L32.313,77.935 L31.466,77.633 L30.618,77.331 L29.787,76.986 L28.955,76.641 L27.330,75.867 L26.538,75.439 L25.747,75.011 L24.978,74.543 L24.209,74.076 L23.464,73.570 L22.720,73.064 L22.003,72.521 L21.285,71.977 L20.596,71.398 L19.907,70.819 L19.248,70.206 L18.589,69.593 L17.335,68.302 L16.742,67.625 L16.148,66.949 L15.590,66.243 L15.031,65.537 L13.987,64.071 L13.020,62.553 L12.576,61.770 L12.132,60.987 L11.323,59.379 L10.597,57.732 L9.954,56.051 L9.397,54.339 L8.926,52.602 L8.735,51.722 L8.544,50.843 L8.396,49.955 L8.249,49.067 L8.147,48.173 L8.044,47.279 L7.929,45.483 L7.904,43.683 L7.968,41.884 L8.045,40.987 L8.122,40.091 L8.244,39.199 L8.365,38.307 L8.697,36.538 L8.907,35.663 L9.117,34.787 L9.369,33.924 L9.622,33.060 L10.213,31.360 L10.551,30.525 L10.888,29.691 L11.644,28.057 L12.480,26.463 L13.395,24.913 L13.892,24.163 L14.389,23.413 L14.923,22.688 L15.456,21.963 L16.593,20.568 L17.798,19.230 L19.067,17.953 L20.397,16.741 L21.785,15.595 L22.506,15.056 L23.228,14.518 L23.975,14.016 L24.721,13.514 L26.263,12.584 L27.848,11.731 L28.660,11.344 L29.472,10.956 L30.303,10.609 L31.133,10.262 L32.826,9.650 L34.546,9.121 L35.418,8.898 L36.290,8.676 L38.055,8.320 L38.945,8.186 L39.835,8.053 L40.731,7.964 L41.626,7.874 L42.525,7.828 L43.424,7.782 L45.224,7.777 L47.022,7.859 L48.814,8.028 L49.705,8.156 L50.596,8.284 L52.363,8.626 L54.111,9.053 L55.837,9.564 L56.687,9.860 L57.537,10.157 L58.371,10.494 L59.206,10.832 L60.840,11.586 L62.435,12.420 L63.986,13.334 L65.491,14.321 L66.947,15.380 L68.350,16.507 L69.698,17.700 L70.987,18.956 L72.214,20.273 L72.796,20.960 L73.378,21.646 L74.474,23.074 L74.988,23.813 L75.502,24.552 L76.457,26.077 L76.898,26.862 L77.339,27.646 L77.739,28.453 L78.139,29.259 L78.860,30.908 L79.181,31.749 L79.502,32.590 L79.783,33.445 L80.064,34.300 L80.544,36.035 L80.941,37.790 L81.255,39.563 L81.370,40.455 L81.485,41.348 L81.630,43.142 L81.660,44.042 L81.690,44.941 L81.666,46.741 L81.552,48.537 L81.450,49.432 L81.349,50.326 L81.062,52.103 L80.877,52.984 L80.692,53.864 L80.240,55.607 L79.706,57.326 L79.093,59.018 L78.401,60.680 L78.017,61.494 L77.632,62.307 L76.788,63.897 L75.871,65.446 L75.372,66.195 L74.874,66.945 L74.341,67.670 L73.808,68.395 L72.676,69.795 L71.480,71.140 L70.222,72.428 L68.907,73.656 L68.221,74.239 L67.536,74.822 L66.112,75.924 L64.638,76.958 L63.878,77.439 L63.118,77.921 L61.550,78.805 L60.746,79.210 L59.943,79.615 L58.300,80.351 L57.462,80.681 L56.625,81.010 L55.773,81.301 L54.921,81.591 L54.057,81.843 L53.193,82.094 L51.443,82.516 L50.559,82.687 L49.676,82.857 L47.895,83.117 L46.102,83.285 L45.203,83.327 L44.304,83.369 L43.404,83.369 L42.504,83.370 L40.706,83.289 L39.810,83.208 L38.914,83.127 L38.022,83.004 L37.130,82.882 L36.245,82.719 L35.360,82.556 L34.483,82.353 L33.606,82.150 L31.873,81.664 L30.168,81.089 L29.329,80.762 L28.490,80.436 L26.844,79.708 L25.232,78.906 L23.659,78.032 L22.127,77.087 L21.383,76.581 L20.639,76.074 L19.198,74.995 L17.813,73.846 L17.149,73.238 L16.485,72.631 L15.212,71.358 L14.605,70.693 L13.998,70.029 L13.422,69.337 L12.846,68.646 L12.301,67.930 L11.757,67.213 L11.245,66.473 L10.733,65.733 L10.255,64.970 L9.777,64.208 L9.336,63.423 L8.896,62.638 L8.494,61.833 L8.092,61.027 L7.361,59.382 L6.705,57.706 L6.125,56.002 L5.621,54.274 L5.195,52.525 L5.021,51.642 L4.847,50.759 L4.587,48.978 L4.500,48.082 L4.412,47.187 L4.364,46.288 L4.317,45.389 L4.301,43.589 L4.366,41.790 L4.438,40.893 L4.511,39.996 L4.735,38.210 L5.038,36.436 L5.236,35.558 L5.433,34.680 L5.670,33.812 L5.906,32.943 L6.455,31.229 L7.079,29.541 L7.777,27.881 L8.162,27.068 L8.547,26.255 L9.389,24.663 L9.849,23.890 L10.308,23.116 L11.299,21.613 L11.827,20.884 L12.354,20.155 L12.914,19.450 L13.473,18.745 L14.063,18.065 L14.652,17.385 L15.271,16.732 L15.890,16.078 L16.537,15.453 L17.184,14.827 L18.537,13.639 L19.945,12.518 L21.401,11.459 L22.151,10.962 L22.901,10.465 L24.444,9.537 L25.234,9.107 L26.025,8.677 L26.834,8.282 L27.642,7.887 L28.469,7.532 L29.296,7.176 L30.139,6.860 L30.981,6.544 L32.693,5.986 L33.560,5.745 L34.427,5.503 L35.303,5.299 L36.180,5.095 L37.064,4.930 L37.949,4.764 L38.840,4.637 L39.731,4.510 L40.627,4.427 L41.523,4.345 L42.422,4.303 L43.321,4.261 L45.121,4.256 L46.920,4.328 L48.714,4.478 L50.499,4.704 L52.273,5.009 L53.151,5.207 L54.029,5.405 L55.767,5.875 L56.625,6.148 L57.482,6.420 L59.173,7.038 L60.836,7.728 L62.467,8.488 L63.264,8.907 L64.060,9.326 L64.836,9.782 L65.612,10.238 L67.124,11.216 L67.858,11.736 L68.592,12.256 L70.015,13.359 L70.702,13.940 L71.390,14.521 L72.711,15.743 L73.969,17.030 L75.172,18.370 L75.744,19.064 L76.316,19.759 L76.859,20.477 L77.401,21.195 L78.424,22.677 L79.383,24.200 L80.262,25.771 L81.073,27.378 L81.815,29.017 L82.151,29.852 L82.487,30.687 L82.788,31.535 L83.089,32.384 L83.354,33.244 L83.618,34.104 L83.840,34.976 L84.061,35.849 L84.426,37.611 L84.716,39.388 L84.932,41.175 L85.072,42.969 L85.137,44.768 L85.113,46.568 L85.008,48.365 L84.919,49.261 L84.829,50.156 L84.702,51.047 L84.575,51.938 L84.410,52.823 L84.246,53.708 L83.844,55.462 L83.600,56.329 L83.355,57.195 L82.790,58.904 L82.155,60.588 L81.450,62.244 L81.063,63.057 L80.677,63.870 L79.837,65.462 L78.916,67.008 L78.423,67.761 L77.930,68.514 L76.883,69.979 L76.330,70.689 L75.777,71.398 L75.195,72.085 L74.613,72.771 L73.390,74.092 L72.103,75.350 L70.764,76.554 L69.378,77.702 L67.945,78.791 L67.207,79.306 L66.468,79.821 L65.707,80.301 L64.945,80.780 L64.162,81.224 L63.379,81.668 L61.778,82.490 L60.145,83.246 L58.482,83.935 L56.792,84.555 L55.932,84.821 L55.072,85.087 L54.202,85.317 L53.332,85.547 L52.453,85.742 L51.575,85.936 L49.803,86.253 L48.911,86.375 L48.019,86.497 L46.227,86.660 L45.328,86.699 L44.428,86.737 L43.528,86.739 L42.628,86.741 L40.830,86.672 L39.933,86.601 L39.035,86.530 L37.248,86.316 L35.475,86.009 L33.715,85.630 L31.972,85.180 L30.249,84.660 L28.548,84.070 L27.713,83.736 L26.877,83.401 L26.058,83.029 L25.238,82.657 L23.631,81.847 L22.844,81.410 L22.057,80.974 L20.520,80.037 L19.772,79.536 L19.024,79.036 L18.302,78.498 L17.580,77.961 L16.880,77.395 L16.180,76.830 L15.503,76.236 L14.827,75.643 L14.174,75.023 L13.522,74.403 L12.268,73.112 L11.082,71.757 L10.518,71.056 L9.953,70.356 L8.880,68.910 L7.865,67.423 L6.911,65.897 L6.033,64.326 L5.224,62.718 L4.478,61.080 L3.799,59.413 L3.186,57.721 L2.920,56.861 L2.654,56.001 L2.199,54.259 L1.814,52.501 L1.498,50.729 L1.253,48.946 L1.091,47.153 L1.010,45.355 L1.005,44.455 L1.000,43.555 L1.061,41.756 L1.193,39.961 L1.407,38.174 L1.703,36.398 L1.885,35.517 L2.068,34.635 L2.502,32.889 L2.753,32.024 L3.004,31.160 L3.295,30.308 L3.585,29.456 L3.914,28.619 L4.244,27.781 L4.605,26.957 L4.967,26.133 L5.754,24.514 L6.179,23.720 L6.603,22.927 L7.065,22.154 L7.526,21.381 L8.517,19.879 L9.041,19.147 L9.565,18.416 L10.670,16.995 L11.829,15.618 L12.441,14.958 L13.053,14.298 L14.333,13.032 L14.997,12.424 L15.661,11.817 L17.035,10.654 L17.744,10.100 L18.453,9.545 L19.189,9.027 L19.925,8.509 L20.681,8.021 L21.438,7.534 L22.212,7.076 L22.987,6.618 L24.571,5.762 L26.187,4.969 L27.841,4.261 L29.522,3.617 L31.227,3.038 L32.089,2.782 L32.952,2.525 L33.825,2.305 L34.698,2.085 L36.462,1.731 L37.351,1.588 L38.239,1.444 L39.133,1.335 L40.026,1.226 L40.923,1.152 L41.820,1.077 L43.619,1.009 L43.871,1.000 L43.619,1.009 L43.871,1.000 L43.619,1.009 L43.871,1.000"/>
  <path fill="none" stroke="#31604f" stroke-width="0.4" stroke-linecap="round" stroke-linejoin="round" d="M43.871,44.674 L43.814,45.371 L43.871,44.674 L43.814,45.371 L43.871,44.674 L43.724,46.468 L42.869,48.052 L41.253,48.845 L40.355,48.785 L39.457,48.724 L38.655,48.317 L37.853,47.909 L36.593,46.623 L35.745,45.036 L35.318,43.287 L35.305,41.487 L35.677,39.726 L36.036,38.901 L36.394,38.075 L36.905,37.334 L37.415,36.593 L38.054,35.958 L38.692,35.324 L40.172,34.299 L41.805,33.542 L43.540,33.063 L45.330,32.869 L47.128,32.955 L48.010,33.134 L48.892,33.313 L50.581,33.935 L52.164,34.792 L52.887,35.328 L53.610,35.864 L54.886,37.133 L55.434,37.847 L55.982,38.561 L56.869,40.127 L57.547,41.795 L57.993,43.538 L58.218,45.324 L58.209,47.124 L58.092,48.017 L57.975,48.909 L57.525,50.652 L56.863,52.326 L56.002,53.907 L55.481,54.641 L54.961,55.375 L53.755,56.711 L52.400,57.897 L50.916,58.915 L50.120,59.336 L49.325,59.757 L48.487,60.086 L47.650,60.415 L46.781,60.649 L45.911,60.882 L44.132,61.153 L42.333,61.227 L41.435,61.165 L40.538,61.104 L39.652,60.945 L38.766,60.787 L37.038,60.282 L36.206,59.938 L35.374,59.595 L34.583,59.166 L33.792,58.737 L33.050,58.227 L32.308,57.718 L30.939,56.549 L29.697,55.246 L29.147,54.534 L28.596,53.822 L28.120,53.058 L27.645,52.294 L27.249,51.486 L26.852,50.678 L26.226,48.991 L25.998,48.120 L25.770,47.249 L25.628,46.360 L25.487,45.472 L25.380,43.675 L25.453,41.876 L25.701,40.094 L26.119,38.343 L26.701,36.639 L27.071,35.819 L27.441,34.999 L27.887,34.217 L28.333,33.435 L28.853,32.701 L29.374,31.967 L29.960,31.284 L30.546,30.601 L31.192,29.974 L31.839,29.348 L33.240,28.218 L33.991,27.723 L34.743,27.228 L36.331,26.380 L37.988,25.677 L39.701,25.123 L41.459,24.737 L43.244,24.506 L45.042,24.431 L45.941,24.477 L46.840,24.523 L48.622,24.773 L49.500,24.974 L50.377,25.175 L52.088,25.732 L52.916,26.086 L53.744,26.440 L55.334,27.283 L56.088,27.774 L56.843,28.265 L57.552,28.819 L58.260,29.374 L59.583,30.594 L60.186,31.263 L60.788,31.931 L61.880,33.363 L62.848,34.880 L63.678,36.477 L64.379,38.135 L64.655,38.992 L64.931,39.849 L65.341,41.601 L65.606,43.382 L65.662,44.280 L65.717,45.178 L65.704,46.078 L65.690,46.978 L65.595,47.873 L65.501,48.768 L65.177,50.539 L64.702,52.275 L64.397,53.122 L64.092,53.968 L63.345,55.606 L62.907,56.392 L62.468,57.178 L61.470,58.676 L60.351,60.086 L59.739,60.746 L59.128,61.406 L58.463,62.013 L57.798,62.619 L56.381,63.730 L54.876,64.717 L54.089,65.154 L53.302,65.591 L51.661,66.329 L50.815,66.637 L49.970,66.946 L48.233,67.419 L46.466,67.765 L44.678,67.965 L42.879,68.032 L41.980,67.994 L41.080,67.956 L39.293,67.743 L37.527,67.396 L35.793,66.911 L34.100,66.301 L32.461,65.556 L30.877,64.701 L30.124,64.208 L29.371,63.715 L28.654,63.172 L27.937,62.628 L27.264,62.030 L26.592,61.431 L25.339,60.139 L24.184,58.759 L23.140,57.292 L22.669,56.525 L22.199,55.758 L21.386,54.152 L21.036,53.323 L20.685,52.494 L20.111,50.788 L19.666,49.044 L19.503,48.159 L19.341,47.274 L19.250,46.378 L19.160,45.483 L19.130,44.583 L19.101,43.684 L19.173,41.885 L19.381,40.097 L19.545,39.212 L19.709,38.327 L20.172,36.588 L20.757,34.885 L21.454,33.226 L22.282,31.628 L22.748,30.858 L23.214,30.088 L24.252,28.617 L24.826,27.924 L25.399,27.230 L26.017,26.576 L26.635,25.922 L27.962,24.705 L28.669,24.148 L29.375,23.590 L30.858,22.570 L32.411,21.661 L34.026,20.865 L35.690,20.177 L36.544,19.895 L37.398,19.612 L39.143,19.170 L40.028,19.006 L40.913,18.842 L42.702,18.642 L43.601,18.606 L44.501,18.570 L46.300,18.616 L47.196,18.700 L48.092,18.785 L48.979,18.935 L49.867,19.085 L51.618,19.500 L52.479,19.763 L53.339,20.027 L55.015,20.685 L56.645,21.449 L57.433,21.883 L58.222,22.317 L58.977,22.806 L59.732,23.296 L61.172,24.376 L62.540,25.546 L63.183,26.175 L63.827,26.804 L64.423,27.479 L65.018,28.154 L65.570,28.865 L66.121,29.576 L67.131,31.067 L68.033,32.624 L68.430,33.432 L68.826,34.240 L69.516,35.903 L70.099,37.606 L70.327,38.476 L70.555,39.347 L70.898,41.114 L71.013,42.006 L71.128,42.899 L71.245,44.695 L71.229,46.495 L71.100,48.291 L70.859,50.074 L70.504,51.839 L70.263,52.706 L70.023,53.574 L69.434,55.274 L68.739,56.935 L68.341,57.742 L67.942,58.549 L67.487,59.325 L67.031,60.102 L66.025,61.594 L65.476,62.307 L64.927,63.020 L63.742,64.375 L62.468,65.647 L61.113,66.832 L60.400,67.381 L59.687,67.930 L58.942,68.434 L58.196,68.938 L56.644,69.850 L55.838,70.251 L55.032,70.652 L54.203,71.002 L53.374,71.352 L51.676,71.949 L50.810,72.195 L49.944,72.441 L48.184,72.817 L46.403,73.076 L44.609,73.226 L43.709,73.245 L42.810,73.265 L41.910,73.230 L41.011,73.194 L40.116,73.100 L39.221,73.005 L37.447,72.700 L35.695,72.288 L33.971,71.769 L33.127,71.458 L32.282,71.147 L30.636,70.418 L29.042,69.582 L27.502,68.651 L26.020,67.629 L25.312,67.074 L24.603,66.519 L23.930,65.922 L23.256,65.325 L21.992,64.043 L20.809,62.687 L20.259,61.974 L19.710,61.261 L18.698,59.773 L18.238,58.999 L17.778,58.226 L17.365,57.426 L16.953,56.626 L16.595,55.800 L16.237,54.974 L15.620,53.283 L15.363,52.421 L15.106,51.558 L14.696,49.806 L14.391,48.032 L14.192,46.243 L14.112,44.444 L14.140,42.645 L14.275,40.850 L14.515,39.066 L14.861,37.299 L15.311,35.556 L15.867,33.844 L16.531,32.171 L16.911,31.355 L17.291,30.540 L17.719,29.748 L18.147,28.956 L18.621,28.191 L19.094,27.426 L20.130,25.953 L20.690,25.249 L21.250,24.545 L21.851,23.875 L22.453,23.205 L23.738,21.945 L24.416,21.353 L25.095,20.762 L25.806,20.211 L26.518,19.660 L28.004,18.644 L29.546,17.715 L30.343,17.297 L31.139,16.879 L32.779,16.136 L34.460,15.493 L36.178,14.955 L37.924,14.518 L39.693,14.183 L41.478,13.950 L43.273,13.821 L45.073,13.796 L45.972,13.835 L46.871,13.875 L48.662,14.057 L50.438,14.348 L52.194,14.744 L53.059,14.992 L53.924,15.240 L54.774,15.537 L55.623,15.834 L56.455,16.180 L57.286,16.525 L58.906,17.310 L60.478,18.186 L61.238,18.668 L61.998,19.150 L63.460,20.200 L64.860,21.331 L66.189,22.546 L66.817,23.190 L67.445,23.835 L68.036,24.514 L68.627,25.193 L69.178,25.904 L69.729,26.616 L70.239,27.357 L70.749,28.099 L71.683,29.637 L72.529,31.226 L72.906,32.043 L73.284,32.860 L73.945,34.535 L74.510,36.243 L74.744,37.112 L74.979,37.981 L75.346,39.744 L75.609,41.524 L75.772,43.317 L75.803,44.216 L75.834,45.116 L75.815,46.016 L75.795,46.915 L75.656,48.710 L75.417,50.494 L75.247,51.378 L75.078,52.262 L74.641,54.008 L74.374,54.867 L74.107,55.727 L73.478,57.414 L73.117,58.238 L72.757,59.063 L72.351,59.866 L71.944,60.669 L71.494,61.448 L71.044,62.228 L70.058,63.733 L68.986,65.180 L68.411,65.872 L67.836,66.564 L66.612,67.884 L65.964,68.508 L65.316,69.133 L64.635,69.721 L63.953,70.309 L63.241,70.859 L62.528,71.408 L61.786,71.918 L61.044,72.427 L60.275,72.895 L59.507,73.363 L58.713,73.788 L57.920,74.213 L56.289,74.974 L54.618,75.645 L53.766,75.934 L52.914,76.224 L52.047,76.466 L51.180,76.708 L50.301,76.902 L49.423,77.096 L47.646,77.388 L45.857,77.582 L44.060,77.679 L42.260,77.678 L40.462,77.578 L39.568,77.479 L38.673,77.380 L36.898,77.083 L35.141,76.690 L33.409,76.202 L31.705,75.622 L30.870,75.286 L30.035,74.950 L28.404,74.189 L26.816,73.341 L26.046,72.874 L25.277,72.408 L23.789,71.394 L23.074,70.848 L22.359,70.301 L21.674,69.717 L20.989,69.134 L19.684,67.894 L18.448,66.586 L17.283,65.213 L16.738,64.497 L16.194,63.780 L15.182,62.291 L14.252,60.750 L13.829,59.956 L13.406,59.162 L12.645,57.530 L12.309,56.696 L11.972,55.861 L11.681,55.009 L11.390,54.158 L11.144,53.292 L10.898,52.426 L10.500,50.671 L10.347,49.784 L10.195,48.897 L10.090,48.003 L9.984,47.109 L9.927,46.211 L9.869,45.313 L9.859,44.413 L9.849,43.513 L9.887,42.614 L9.924,41.715 L10.094,39.923 L10.359,38.142 L10.538,37.260 L10.717,36.378 L10.942,35.507 L11.167,34.635 L11.438,33.777 L11.709,32.919 L12.024,32.076 L12.340,31.233 L13.058,29.583 L13.863,27.972 L14.750,26.407 L15.235,25.648 L15.719,24.889 L16.765,23.425 L17.326,22.721 L17.887,22.017 L18.484,21.343 L19.081,20.670 L19.712,20.028 L20.343,19.387 L21.007,18.779 L21.671,18.171 L23.060,17.026 L24.506,15.955 L25.257,15.458 L26.007,14.961 L27.557,14.046 L29.152,13.212 L30.789,12.463 L32.462,11.799 L33.314,11.511 L34.167,11.222 L35.900,10.735 L36.778,10.536 L37.655,10.338 L39.429,10.031 L41.216,9.817 L43.012,9.695 L43.912,9.680 L44.812,9.665 L46.611,9.728 L48.404,9.883 L49.296,10.006 L50.187,10.130 L51.071,10.299 L51.955,10.468 L53.703,10.896 L55.428,11.412 L56.275,11.715 L57.123,12.017 L57.954,12.362 L58.786,12.707 L59.598,13.094 L60.411,13.481 L61.203,13.908 L61.994,14.336 L62.763,14.804 L63.533,15.271 L64.277,15.777 L65.021,16.284 L66.456,17.370 L67.834,18.528 L69.152,19.754 L70.406,21.045 L70.999,21.722 L71.593,22.399 L72.152,23.104 L72.710,23.810 L73.754,25.276 L74.238,26.035 L74.721,26.795 L75.165,27.577 L75.609,28.360 L76.014,29.164 L76.418,29.968 L77.144,31.615 L77.787,33.297 L78.065,34.152 L78.344,35.008 L78.815,36.746 L79.198,38.504 L79.492,40.280 L79.697,42.068 L79.812,43.865 L79.825,44.765 L79.838,45.665 L79.805,46.564 L79.773,47.463 L79.696,48.360 L79.619,49.257 L79.497,50.149 L79.376,51.040 L79.210,51.925 L79.044,52.809 L78.834,53.685 L78.625,54.560 L78.119,56.287 L77.528,57.988 L77.191,58.822 L76.853,59.656 L76.475,60.473 L76.097,61.290 L75.679,62.087 L75.261,62.884 L74.346,64.434 L73.849,65.184 L73.352,65.935 L72.285,67.384 L71.716,68.082 L71.148,68.780 L70.546,69.449 L69.943,70.117 L68.675,71.394 L67.344,72.607 L66.650,73.180 L65.956,73.753 L64.514,74.829 L63.020,75.833 L62.249,76.298 L61.478,76.763 L60.686,77.190 L59.893,77.616 L59.081,78.004 L58.269,78.391 L56.608,79.085 L54.915,79.698 L53.195,80.227 L51.451,80.671 L49.686,81.028 L47.906,81.294 L46.115,81.474 L44.317,81.566 L42.517,81.571 L40.719,81.488 L39.823,81.404 L38.927,81.319 L38.036,81.191 L37.146,81.063 L36.262,80.892 L35.378,80.721 L33.630,80.294 L31.904,79.784 L31.054,79.487 L30.204,79.190 L29.370,78.853 L28.535,78.516 L27.718,78.139 L26.901,77.762 L26.103,77.345 L25.306,76.928 L24.531,76.471 L23.755,76.014 L23.003,75.520 L22.250,75.026 L20.795,73.967 L20.093,73.404 L19.391,72.840 L18.043,71.647 L16.754,70.391 L15.527,69.074 L14.945,68.388 L14.363,67.701 L13.815,66.987 L13.267,66.273 L12.753,65.534 L12.240,64.795 L11.284,63.270 L10.402,61.701 L10.002,60.895 L9.602,60.088 L9.241,59.264 L8.881,58.439 L8.239,56.758 L7.677,55.047 L7.197,53.313 L6.999,52.435 L6.800,51.557 L6.486,49.785 L6.371,48.892 L6.257,47.999 L6.184,47.102 L6.111,46.205 L6.051,44.406 L6.063,43.506 L6.075,42.606 L6.190,40.810 L6.291,39.916 L6.392,39.021 L6.679,37.244 L6.864,36.364 L7.049,35.483 L7.502,33.741 L7.768,32.881 L8.035,32.021 L8.648,30.329 L9.340,28.667 L10.109,27.040 L10.953,25.450 L11.412,24.676 L11.870,23.901 L12.369,23.152 L12.867,22.403 L13.933,20.952 L14.499,20.252 L15.065,19.553 L15.663,18.880 L16.261,18.208 L17.519,16.919 L18.176,16.305 L18.834,15.691 L20.206,14.525 L21.629,13.424 L23.103,12.390 L24.623,11.427 L26.191,10.543 L27.798,9.732 L29.441,8.996 L31.116,8.337 L31.968,8.046 L32.820,7.756 L34.548,7.254 L35.423,7.043 L36.298,6.831 L37.182,6.661 L38.065,6.490 L38.956,6.360 L39.847,6.230 L41.639,6.063 L42.538,6.021 L43.437,5.979 L45.237,5.977 L47.035,6.058 L47.931,6.139 L48.828,6.221 L49.719,6.343 L50.611,6.465 L52.381,6.791 L53.258,6.994 L54.135,7.197 L55.868,7.683 L57.573,8.259 L58.412,8.585 L59.251,8.911 L60.074,9.275 L60.897,9.639 L61.703,10.040 L62.509,10.441 L64.082,11.315 L65.614,12.260 L66.358,12.767 L67.102,13.273 L68.543,14.352 L69.928,15.502 L70.592,16.109 L71.257,16.716 L72.529,17.989 L73.136,18.654 L73.743,19.319 L74.895,20.701 L75.440,21.418 L75.985,22.134 L76.496,22.874 L77.008,23.615 L77.486,24.377 L77.964,25.140 L78.405,25.925 L78.845,26.709 L79.247,27.515 L79.649,28.320 L80.380,29.965 L80.708,30.803 L81.036,31.641 L81.326,32.493 L81.616,33.345 L81.868,34.209 L82.120,35.073 L82.547,36.822 L82.894,38.588 L83.154,40.369 L83.329,42.161 L83.377,43.059 L83.425,43.958 L83.440,45.758 L83.375,47.557 L83.231,49.351 L83.119,50.244 L83.007,51.137 L82.703,52.911 L82.308,54.667 L82.071,55.536 L81.835,56.404 L81.286,58.118 L80.974,58.963 L80.662,59.807 L80.313,60.636 L79.964,61.466 L79.194,63.093 L78.773,63.888 L78.352,64.684 L77.433,66.231 L76.442,67.734 L75.915,68.463 L75.387,69.192 L74.827,69.897 L74.268,70.603 L73.089,71.962 L72.470,72.616 L71.851,73.269 L71.204,73.895 L70.557,74.520 L69.204,75.708 L67.796,76.829 L67.068,77.359 L66.340,77.888 L64.840,78.882 L63.298,79.810 L62.507,80.240 L61.716,80.670 L60.908,81.065 L60.099,81.460 L58.445,82.171 L56.760,82.803 L55.049,83.361 L53.315,83.844 L52.438,84.048 L51.561,84.252 L50.677,84.418 L49.792,84.583 L48.901,84.710 L48.010,84.838 L47.114,84.920 L46.218,85.003 L44.420,85.086 L43.520,85.089 L42.620,85.091 L40.821,85.019 L39.924,84.944 L39.027,84.870 L37.242,84.643 L35.468,84.338 L33.712,83.943 L32.843,83.707 L31.974,83.472 L31.117,83.199 L30.259,82.927 L28.568,82.309 L26.906,81.619 L26.090,81.239 L25.274,80.859 L23.681,80.021 L22.129,79.109 L20.618,78.132 L19.883,77.611 L19.149,77.091 L17.726,75.988 L16.352,74.826 L15.030,73.604 L14.401,72.961 L13.772,72.317 L12.569,70.978 L11.997,70.283 L11.425,69.588 L10.882,68.870 L10.340,68.152 L9.829,67.411 L9.317,66.671 L8.358,65.147 L7.479,63.577 L6.668,61.970 L5.926,60.330 L5.254,58.660 L4.652,56.964 L4.123,55.243 L3.902,54.371 L3.680,53.498 L3.498,52.617 L3.316,51.736 L3.025,49.959 L2.810,48.172 L2.669,46.378 L2.637,45.478 L2.604,44.579 L2.616,43.679 L2.628,42.779 L2.681,41.881 L2.733,40.982 L2.823,40.087 L2.912,39.191 L3.039,38.300 L3.167,37.409 L3.495,35.639 L3.897,33.885 L4.141,33.019 L4.386,32.153 L4.951,30.444 L5.586,28.759 L5.939,27.931 L6.291,27.103 L7.064,25.478 L7.904,23.886 L8.365,23.112 L8.825,22.339 L9.318,21.586 L9.811,20.833 L10.334,20.101 L10.858,19.369 L11.411,18.659 L11.964,17.949 L13.128,16.576 L13.740,15.916 L14.351,15.255 L15.639,13.997 L16.977,12.793 L17.670,12.220 L18.364,11.646 L19.080,11.101 L19.796,10.556 L20.535,10.041 L21.273,9.527 L22.034,9.047 L22.796,8.567 L23.579,8.123 L24.362,7.680 L25.162,7.268 L25.963,6.857 L27.596,6.101 L29.259,5.412 L30.949,4.792 L32.669,4.260 L34.409,3.800 L35.288,3.606 L36.166,3.411 L37.938,3.095 L38.830,2.973 L39.722,2.851 L41.514,2.687 L43.313,2.610 L44.213,2.608 L45.113,2.606 L46.911,2.675 L48.706,2.817 L49.599,2.924 L50.493,3.031 L51.380,3.185 L52.267,3.338 L53.146,3.528 L54.026,3.717 L55.769,4.167 L56.631,4.428 L57.492,4.688 L58.343,4.982 L59.193,5.277 L60.864,5.946 L61.684,6.318 L62.503,6.690 L64.111,7.500 L64.897,7.937 L65.684,8.374 L66.453,8.842 L67.221,9.310 L68.717,10.312 L70.161,11.386 L71.561,12.518 L72.238,13.111 L72.915,13.704 L73.567,14.324 L74.219,14.944 L75.473,16.236 L76.066,16.913 L76.659,17.590 L77.224,18.291 L77.788,18.992 L78.861,20.437 L79.369,21.180 L79.876,21.924 L80.830,23.450 L81.269,24.236 L81.708,25.022 L82.518,26.629 L82.890,27.448 L83.263,28.268 L83.942,29.934 L84.555,31.627 L85.087,33.346 L85.542,35.088 L85.927,36.846 L86.243,38.618 L86.488,40.402 L86.651,42.194 L86.731,43.992 L86.736,44.892 L86.741,45.792 L86.711,46.692 L86.680,47.591 L86.548,49.387 L86.441,50.280 L86.334,51.174 L86.038,52.949 L85.856,53.831 L85.673,54.712 L85.239,56.459 L84.988,57.323 L84.737,58.187 L84.156,59.891 L83.827,60.729 L83.498,61.566 L83.136,62.390 L82.774,63.215 L81.987,64.833 L81.563,65.627 L81.138,66.420 L80.677,67.193 L80.215,67.966 L79.224,69.469 L78.700,70.200 L78.176,70.932 L77.623,71.642 L77.071,72.353 L76.491,73.041 L75.912,73.730 L75.300,74.390 L74.688,75.050 L74.048,75.682 L73.408,76.315 L72.080,77.530 L71.393,78.112 L70.706,78.693 L69.997,79.248 L69.288,79.802 L68.552,80.320 L67.816,80.838 L67.060,81.326 L66.303,81.814 L65.529,82.272 L64.754,82.730 L63.170,83.585 L61.555,84.379 L59.900,85.087 L59.059,85.409 L58.219,85.731 L56.514,86.309 L55.652,86.566 L54.789,86.822 L53.044,87.262 L51.279,87.617 L49.502,87.903 L48.608,88.012 L47.715,88.121 L45.921,88.270 L44.122,88.338 L43.871,88.347 L44.122,88.338 L43.871,88.347 L44.122,88.338 L43.871,88.347"/>
</svg>
