<svg xmlns="http://www.w3.org/2000/svg" viewBox="-4.694 0 39.135 39.135" width="256" height="256">
  <title>fern</title>
  <rect x="-4.694" y="0" width="39.135" height="39.135" fill="#f5efe4"/>
  <path fill="none" stroke="#c8472f" stroke-width="0.4" stroke-linecap="round" stroke-linejoin="round" d="M14.873,38.135 L14.873,38.135 L14.873,36.385 L14.873,34.635 L14.873,32.885 L14.873,31.135 L14.873,29.385 L14.873,27.635 L14.873,25.885 L14.873,24.135 L13.748,22.794 L12.623,21.454 L11.498,20.113 L10.373,18.773 L8.650,18.469 L6.926,18.165 L5.411,19.040 L4.962,20.273 L4.513,21.507 M5.411,19.040 L4.118,18.812 L2.826,18.584 M5.411,19.040 L4.471,19.582 L3.915,21.112 M4.471,19.582 L2.868,19.300 M4.471,19.582 L3.597,20.087 L2.724,20.592 L3.330,20.242 L2.724,20.592 L3.330,20.242 L2.724,20.592 M6.926,18.165 L6.476,17.629 L6.926,18.165 L6.476,17.629 L6.926,18.165 L5.802,16.824 L4.509,16.597 L3.216,16.369 M5.802,16.824 L5.802,15.512 L5.802,14.199 M5.802,16.824 L5.104,15.993 L3.501,15.711 M5.104,15.993 L5.104,14.366 M5.104,15.993 L4.456,15.220 L3.807,14.447 L4.257,14.984 L3.807,14.447 L4.257,14.984 L3.807,14.447 M6.926,18.165 L6.237,18.043 L6.926,18.165 L6.237,18.043 L6.926,18.165 L5.858,17.977 L4.789,17.788 L3.850,18.331 L3.293,19.860 M3.850,18.331 L2.247,18.048 M3.850,18.331 L2.976,18.835 L2.102,19.340 M4.789,17.788 L4.092,16.957 L2.489,16.674 M4.092,16.957 L4.092,15.330 M4.092,16.957 L3.443,16.184 L2.795,15.411 M4.789,17.788 L3.464,17.555 L2.591,18.059 L1.717,18.564 M3.464,17.555 L2.816,16.782 L2.167,16.009 M3.464,17.555 L2.232,17.337 L1.000,17.120 L1.689,17.242 L1.000,17.120 L1.689,17.242 L1.000,17.120 M10.373,18.773 L10.373,18.073 L10.373,18.773 L10.373,18.073 L10.373,18.773 L10.373,17.023 L10.373,15.273 L9.248,13.932 L7.956,13.704 L6.663,13.476 M9.248,13.932 L9.248,12.620 L9.248,11.307 M9.248,13.932 L8.551,13.101 L6.948,12.818 M8.551,13.101 L8.551,11.474 M8.551,13.101 L7.902,12.328 L7.254,11.555 L7.704,12.091 L7.254,11.555 L7.704,12.091 L7.254,11.555 M10.373,15.273 L10.823,14.737 L10.373,15.273 L10.823,14.737 L10.373,15.273 L11.498,13.932 L11.498,12.620 L11.498,11.307 M11.498,13.932 L12.791,13.704 L14.083,13.476 M11.498,13.932 L12.196,13.101 L12.196,11.474 M12.196,13.101 L13.798,12.818 M12.196,13.101 L12.844,12.328 L13.493,11.555 L13.043,12.091 L13.493,11.555 L13.043,12.091 L13.493,11.555 M10.373,15.273 L10.373,14.573 L10.373,15.273 L10.373,14.573 L10.373,15.273 L10.373,14.188 L10.373,13.103 L9.676,12.272 L8.073,11.989 M9.676,12.272 L9.676,10.644 M9.676,12.272 L9.027,11.499 L8.379,10.726 M10.373,13.103 L11.071,12.272 L11.071,10.644 M11.071,12.272 L12.673,11.989 M11.071,12.272 L11.719,11.499 L12.368,10.726 M10.373,13.103 L10.373,11.757 L9.725,10.984 L9.076,10.211 M10.373,11.757 L11.022,10.984 L11.670,10.211 M10.373,11.757 L10.373,10.506 L10.373,9.255 L10.373,9.955 L10.373,9.255 L10.373,9.955 L10.373,9.255 M10.373,18.773 L9.923,18.237 L10.373,18.773 L9.923,18.237 L10.373,18.773 L9.443,17.665 L8.513,16.556 L7.584,15.448 L6.515,15.260 L5.447,15.071 L4.507,15.614 L3.950,17.143 M4.507,15.614 L2.904,15.331 M4.507,15.614 L3.633,16.118 L2.759,16.623 M5.447,15.071 L4.749,14.240 L3.146,13.958 M4.749,14.240 L4.749,12.613 M4.749,14.240 L4.100,13.467 L3.452,12.694 M5.447,15.071 L4.122,14.838 L3.248,15.342 L2.374,15.847 M4.122,14.838 L3.473,14.065 L2.824,13.292 M4.122,14.838 L2.889,14.620 L1.657,14.403 L2.346,14.525 L1.657,14.403 L2.346,14.525 L1.657,14.403 M7.584,15.448 L7.584,14.748 L7.584,15.448 L7.584,14.748 L7.584,15.448 L7.584,14.363 L7.584,13.278 L6.886,12.447 L5.283,12.164 M6.886,12.447 L6.886,10.819 M6.886,12.447 L6.238,11.674 L5.589,10.901 M7.584,13.278 L8.281,12.447 L8.281,10.819 M8.281,12.447 L9.884,12.164 M8.281,12.447 L8.930,11.674 L9.578,10.901 M7.584,13.278 L7.584,11.933 L6.935,11.160 L6.286,10.387 M7.584,11.933 L8.232,11.160 L8.881,10.387 M7.584,11.933 L7.584,10.682 L7.584,9.430 L7.584,10.130 L7.584,9.430 L7.584,10.130 L7.584,9.430 M7.584,15.448 L7.134,14.912 L7.584,15.448 L7.134,14.912 L7.584,15.448 L6.719,14.417 L5.854,13.387 L4.529,13.153 L3.655,13.658 L2.781,14.162 M4.529,13.153 L3.880,12.380 L3.232,11.607 M4.529,13.153 L3.297,12.936 L2.065,12.719 M5.854,13.387 L5.854,12.041 L5.205,11.268 L4.557,10.496 M5.854,12.041 L6.503,11.268 L7.151,10.496 M5.854,12.041 L5.854,10.790 L5.854,9.539 M5.854,13.387 L4.782,12.109 L3.549,11.892 L2.317,11.674 M4.782,12.109 L4.782,10.858 L4.782,9.606 M4.782,12.109 L4.117,11.317 L2.589,11.047 M4.117,11.317 L4.117,9.765 M4.117,11.317 L3.498,10.580 L2.880,9.843 L3.330,10.379 L2.880,9.843 L3.330,10.379 L2.880,9.843 M14.873,24.135 L15.323,23.599 L14.873,24.135 L15.323,23.599 L14.873,24.135 L15.998,22.794 L17.123,21.454 L18.247,20.113 L19.372,18.773 L19.372,17.023 L19.372,15.273 L18.247,13.932 L16.955,13.704 L15.662,13.476 M18.247,13.932 L18.247,12.620 L18.247,11.307 M18.247,13.932 L17.550,13.101 L15.947,12.818 M17.550,13.101 L17.550,11.474 M17.550,13.101 L16.901,12.328 L16.253,11.555 L16.703,12.091 L16.253,11.555 L16.703,12.091 L16.253,11.555 M19.372,15.273 L19.822,14.737 L19.372,15.273 L19.822,14.737 L19.372,15.273 L20.497,13.932 L20.497,12.620 L20.497,11.307 M20.497,13.932 L21.790,13.704 L23.082,13.476 M20.497,13.932 L21.195,13.101 L21.195,11.474 M21.195,13.101 L22.797,12.818 M21.195,13.101 L21.843,12.328 L22.492,11.555 L22.042,12.091 L22.492,11.555 L22.042,12.091 L22.492,11.555 M19.372,15.273 L19.372,14.573 L19.372,15.273 L19.372,14.573 L19.372,15.273 L19.372,14.188 L19.372,13.103 L18.675,12.272 L17.072,11.989 M18.675,12.272 L18.675,10.644 M18.675,12.272 L18.026,11.499 L17.378,10.726 M19.372,13.103 L20.070,12.272 L20.070,10.644 M20.070,12.272 L21.672,11.989 M20.070,12.272 L20.718,11.499 L21.367,10.726 M19.372,13.103 L19.372,11.757 L18.724,10.984 L18.075,10.211 M19.372,11.757 L20.021,10.984 L20.669,10.211 M19.372,11.757 L19.372,10.506 L19.372,9.255 L19.372,9.955 L19.372,9.255 L19.372,9.955 L19.372,9.255 M19.372,18.773 L20.062,18.651 L19.372,18.773 L20.062,18.651 L19.372,18.773 L21.096,18.469 L22.819,18.165 L23.944,16.824 L23.944,15.512 L23.944,14.199 M23.944,16.824 L25.237,16.597 L26.529,16.369 M23.944,16.824 L24.641,15.993 L24.641,14.366 M24.641,15.993 L26.244,15.711 M24.641,15.993 L25.290,15.220 L25.939,14.447 L25.489,14.984 L25.939,14.447 L25.489,14.984 L25.939,14.447 M22.819,18.165 L23.425,18.515 L22.819,18.165 L23.425,18.515 L22.819,18.165 L24.335,19.040 L25.627,18.812 L26.920,18.584 M24.335,19.040 L24.784,20.273 L25.232,21.507 M24.335,19.040 L25.274,19.582 L26.877,19.300 M25.274,19.582 L25.831,21.112 M25.274,19.582 L26.148,20.087 L27.022,20.592 L26.416,20.242 L27.022,20.592 L26.416,20.242 L27.022,20.592 M22.819,18.165 L23.508,18.043 L22.819,18.165 L23.508,18.043 L22.819,18.165 L23.888,17.977 L24.956,17.788 L25.654,16.957 L25.654,15.330 M25.654,16.957 L27.256,16.674 M25.654,16.957 L26.302,16.184 L26.951,15.411 M24.956,17.788 L25.896,18.331 L27.499,18.048 M25.896,18.331 L26.452,19.860 M25.896,18.331 L26.770,18.835 L27.643,19.340 M24.956,17.788 L26.281,17.555 L26.930,16.782 L27.578,16.009 M26.281,17.555 L27.155,18.059 L28.029,18.564 M26.281,17.555 L27.513,17.337 L28.746,17.120 L28.056,17.242 L28.746,17.120 L28.056,17.242 L28.746,17.120 M19.372,18.773 L19.822,18.237 L19.372,18.773 L19.822,18.237 L19.372,18.773 L20.302,17.665 L21.232,16.556 L22.162,15.448 L22.162,14.363 L22.162,13.278 L21.465,12.447 L19.862,12.164 M21.465,12.447 L21.465,10.819 M21.465,12.447 L20.816,11.674 L20.167,10.901 M22.162,13.278 L22.859,12.447 L22.859,10.819 M22.859,12.447 L24.462,12.164 M22.859,12.447 L23.508,11.674 L24.157,10.901 M22.162,13.278 L22.162,11.933 L21.513,11.160 L20.865,10.387 M22.162,11.933 L22.811,11.160 L23.459,10.387 M22.162,11.933 L22.162,10.682 L22.162,9.430 L22.162,10.130 L22.162,9.430 L22.162,10.130 L22.162,9.430 M22.162,15.448 L22.851,15.327 L22.162,15.448 L22.851,15.327 L22.162,15.448 L23.230,15.260 L24.299,15.071 L24.996,14.240 L24.996,12.613 M24.996,14.240 L26.599,13.958 M24.996,14.240 L25.645,13.467 L26.294,12.694 M24.299,15.071 L25.239,15.614 L26.841,15.331 M25.239,15.614 L25.795,17.143 M25.239,15.614 L26.113,16.118 L26.986,16.623 M24.299,15.071 L25.624,14.838 L26.273,14.065 L26.921,13.292 M25.624,14.838 L26.498,15.342 L27.372,15.847 M25.624,14.838 L26.856,14.620 L28.088,14.403 L27.399,14.525 L28.088,14.403 L27.399,14.525 L28.088,14.403 M22.162,15.448 L22.612,14.912 L22.162,15.448 L22.612,14.912 L22.162,15.448 L23.027,14.417 L23.892,13.387 L23.892,12.041 L23.243,11.268 L22.594,10.496 M23.892,12.041 L24.540,11.268 L25.189,10.496 M23.892,12.041 L23.892,10.790 L23.892,9.539 M23.892,13.387 L25.217,13.153 L25.865,12.380 L26.514,11.607 M25.217,13.153 L26.090,13.658 L26.964,14.162 M25.217,13.153 L26.449,12.936 L27.681,12.719 M23.892,13.387 L24.964,12.109 L24.964,10.858 L24.964,9.606 M24.964,12.109 L26.196,11.892 L27.428,11.674 M24.964,12.109 L25.629,11.317 L25.629,9.765 M25.629,11.317 L27.157,11.047 M25.629,11.317 L26.247,10.580 L26.865,9.843 L26.416,10.379 L26.865,9.843 L26.416,10.379 L26.865,9.843 M14.873,24.135 L14.873,23.435 L14.873,24.135 L14.873,23.435 L14.873,24.135 L14.873,22.399 L14.873,20.663 L14.873,18.927 L14.873,17.191 L14.873,15.455 L13.943,14.347 L13.013,13.239 L12.083,12.130 L11.015,11.942 L9.946,11.754 L9.006,12.296 L8.450,13.825 M9.006,12.296 L7.404,12.014 M9.006,12.296 L8.133,12.801 L7.259,13.305 M9.946,11.754 L9.249,10.922 L7.646,10.640 M9.249,10.922 L9.249,9.295 M9.249,10.922 L8.600,10.149 L7.951,9.377 M9.946,11.754 L8.621,11.520 L7.747,12.025 L6.873,12.529 M8.621,11.520 L7.972,10.747 L7.324,9.974 M8.621,11.520 L7.389,11.303 L6.157,11.085 L6.846,11.207 L6.157,11.085 L6.846,11.207 L6.157,11.085 M12.083,12.130 L12.083,11.430 L12.083,12.130 L12.083,11.430 L12.083,12.130 L12.083,11.045 L12.083,9.960 L11.386,9.129 L9.783,8.847 M11.386,9.129 L11.386,7.502 M11.386,9.129 L10.737,8.356 L10.088,7.583 M12.083,9.960 L12.780,9.129 L12.780,7.502 M12.780,9.129 L14.383,8.847 M12.780,9.129 L13.429,8.356 L14.078,7.583 M12.083,9.960 L12.083,8.615 L11.434,7.842 L10.786,7.069 M12.083,8.615 L12.732,7.842 L13.380,7.069 M12.083,8.615 L12.083,7.364 L12.083,6.113 L12.083,6.813 L12.083,6.113 L12.083,6.813 L12.083,6.113 M12.083,12.130 L11.633,11.594 L12.083,12.130 L11.633,11.594 L12.083,12.130 L11.218,11.100 L10.353,10.069 L9.028,9.836 L8.155,10.340 L7.281,10.845 M9.028,9.836 L8.380,9.063 L7.731,8.290 M9.028,9.836 L7.796,9.618 L6.564,9.401 M10.353,10.069 L10.353,8.724 L9.705,7.951 L9.056,7.178 M10.353,8.724 L11.002,7.951 L11.651,7.178 M10.353,8.724 L10.353,7.473 L10.353,6.221 M10.353,10.069 L9.281,8.791 L8.049,8.574 L6.817,8.357 M9.281,8.791 L9.281,7.540 L9.281,6.289 M9.281,8.791 L8.616,7.999 L7.088,7.729 M8.616,7.999 L8.616,6.447 M8.616,7.999 L7.998,7.262 L7.380,6.525 L7.830,7.061 L7.380,6.525 L7.830,7.061 L7.380,6.525 M14.873,15.455 L15.323,14.919 L14.873,15.455 L15.323,14.919 L14.873,15.455 L15.803,14.347 L16.733,13.239 L17.662,12.130 L17.662,11.045 L17.662,9.960 L16.965,9.129 L15.362,8.847 M16.965,9.129 L16.965,7.502 M16.965,9.129 L16.316,8.356 L15.668,7.583 M17.662,9.960 L18.360,9.129 L18.360,7.502 M18.360,9.129 L19.963,8.847 M18.360,9.129 L19.008,8.356 L19.657,7.583 M17.662,9.960 L17.662,8.615 L17.014,7.842 L16.365,7.069 M17.662,8.615 L18.311,7.842 L18.960,7.069 M17.662,8.615 L17.662,7.364 L17.662,6.113 L17.662,6.813 L17.662,6.113 L17.662,6.813 L17.662,6.113 M17.662,12.130 L18.352,12.009 L17.662,12.130 L18.352,12.009 L17.662,12.130 L18.731,11.942 L19.799,11.754 L20.497,10.922 L20.497,9.295 M20.497,10.922 L22.100,10.640 M20.497,10.922 L21.146,10.149 L21.794,9.377 M19.799,11.754 L20.739,12.296 L22.342,12.014 M20.739,12.296 L21.296,13.825 M20.739,12.296 L21.613,12.801 L22.487,13.305 M19.799,11.754 L21.124,11.520 L21.773,10.747 L22.422,9.974 M21.124,11.520 L21.998,12.025 L22.872,12.529 M21.124,11.520 L22.357,11.303 L23.589,11.085 L22.900,11.207 L23.589,11.085 L22.900,11.207 L23.589,11.085 M17.662,12.130 L18.112,11.594 L17.662,12.130 L18.112,11.594 L17.662,12.130 L18.527,11.100 L19.392,10.069 L19.392,8.724 L18.743,7.951 L18.095,7.178 M19.392,8.724 L20.041,7.951 L20.689,7.178 M19.392,8.724 L19.392,7.473 L19.392,6.221 M19.392,10.069 L20.717,9.836 L21.366,9.063 L22.014,8.290 M20.717,9.836 L21.591,10.340 L22.465,10.845 M20.717,9.836 L21.949,9.618 L23.181,9.401 M19.392,10.069 L20.464,8.791 L20.464,7.540 L20.464,6.289 M20.464,8.791 L21.697,8.574 L22.929,8.357 M20.464,8.791 L21.129,7.999 L21.129,6.447 M21.129,7.999 L22.657,7.729 M21.129,7.999 L21.748,7.262 L22.366,6.525 L21.916,7.061 L22.366,6.525 L21.916,7.061 L22.366,6.525 M14.873,15.455 L14.873,14.755 L14.873,15.455 L14.873,14.755 L14.873,15.455 L14.873,13.661 L14.873,11.867 L14.873,10.073 L14.008,9.043 L13.143,8.012 L11.818,7.779 L10.944,8.283 L10.070,8.788 M11.818,7.779 L11.170,7.006 L10.521,6.233 M11.818,7.779 L10.586,7.561 L9.354,7.344 M13.143,8.012 L13.143,6.667 L12.495,5.894 L11.846,5.121 M13.143,6.667 L13.792,5.894 L14.440,5.121 M13.143,6.667 L13.143,5.416 L13.143,4.164 M13.143,8.012 L12.071,6.734 L10.839,6.517 L9.606,6.300 M12.071,6.734 L12.071,5.483 L12.071,4.232 M12.071,6.734 L11.406,5.942 L9.878,5.672 M11.406,5.942 L11.406,4.390 M11.406,5.942 L10.788,5.205 L10.169,4.468 L10.619,5.004 L10.169,4.468 L10.619,5.004 L10.169,4.468 M14.873,10.073 L15.323,9.537 L14.873,10.073 L15.323,9.537 L14.873,10.073 L15.738,9.043 L16.602,8.012 L16.602,6.667 L15.954,5.894 L15.305,5.121 M16.602,6.667 L17.251,5.894 L17.900,5.121 M16.602,6.667 L16.602,5.416 L16.602,4.164 M16.602,8.012 L17.927,7.779 L18.576,7.006 L19.225,6.233 M17.927,7.779 L18.801,8.283 L19.675,8.788 M17.927,7.779 L19.160,7.561 L20.392,7.344 M16.602,8.012 L17.675,6.734 L17.675,5.483 L17.675,4.232 M17.675,6.734 L18.907,6.517 L20.139,6.300 M17.675,6.734 L18.340,5.942 L18.340,4.390 M18.340,5.942 L19.868,5.672 M18.340,5.942 L18.958,5.205 L19.576,4.468 L19.126,5.004 L19.576,4.468 L19.126,5.004 L19.576,4.468 M14.873,10.073 L14.873,9.373 L14.873,10.073 L14.873,9.373 L14.873,10.073 L14.873,8.405 L14.873,6.737 L13.800,5.459 L12.568,5.242 L11.336,5.024 M13.800,5.459 L13.800,4.208 L13.800,2.956 M13.800,5.459 L13.136,4.667 L11.608,4.397 M13.136,4.667 L13.136,3.115 M13.136,4.667 L12.517,3.930 L11.899,3.193 L12.349,3.729 L11.899,3.193 L12.349,3.729 L11.899,3.193 M14.873,6.737 L15.323,6.201 L14.873,6.737 L15.323,6.201 L14.873,6.737 L15.945,5.459 L15.945,4.208 L15.945,2.956 M15.945,5.459 L17.177,5.242 L18.410,5.024 M15.945,5.459 L16.610,4.667 L16.610,3.115 M16.610,4.667 L18.138,4.397 M16.610,4.667 L17.228,3.930 L17.847,3.193 L17.397,3.729 L17.847,3.193 L17.397,3.729 L17.847,3.193 M14.873,6.737 L14.873,6.037 L14.873,6.737 L14.873,6.037 L14.873,6.737 L14.873,5.703 L14.873,4.668 L14.208,3.876 L12.680,3.606 M14.208,3.876 L14.208,2.324 M14.208,3.876 L13.590,3.139 L12.971,2.402 M14.873,4.668 L15.538,3.876 L15.538,2.324 M15.538,3.876 L17.066,3.606 M15.538,3.876 L16.156,3.139 L16.774,2.402 M14.873,4.668 L14.873,3.386 L14.254,2.649 L13.636,1.912 M14.873,3.386 L15.491,2.649 L16.109,1.912 M14.873,3.386 L14.873,2.193 L14.873,1.000 L14.873,1.700 L14.873,1.000 L14.873,1.700 L14.873,1.000"/>
</svg>
