<svg xmlns="http://www.w3.org/2000/svg" viewBox="0 -10 68.6 68.6" width="256" height="256">
  <title>fill-and-border</title>
  <rect x="0" y="-10" width="68.6" height="68.6" fill="#f7f1df"/>
  <path fill="none" stroke="#2f7d8c" stroke-width="0.4" stroke-linecap="round" stroke-linejoin="round" d="M3.100,3.540 L3.100,3.540 L4.044,3.100 M3.100,4.423 L5.366,3.366 L5.937,3.100 M7.830,3.100 L5.564,4.157 L3.298,5.213 L3.100,5.305 M3.100,6.188 L5.366,5.132 L7.632,4.075 L9.723,3.100 M11.616,3.100 L9.350,4.157 L7.084,5.213 L4.818,6.270 L3.100,7.071 M3.100,7.954 L5.366,6.897 L7.632,5.840 L8.764,5.312 L9.897,4.784 L12.163,3.727 L13.509,3.100 M15.401,3.100 L13.136,4.157 L10.870,5.213 L8.604,6.270 L6.338,7.326 L4.073,8.383 L3.100,8.836 M3.100,9.719 L5.366,8.662 L7.632,7.606 L9.897,6.549 L12.163,5.493 L14.429,4.436 L15.562,3.908 L16.695,3.380 L17.294,3.100 M19.187,3.100 L16.922,4.157 L14.656,5.213 L12.390,6.270 L10.124,7.326 L7.859,8.383 L5.593,9.439 L3.327,10.496 L3.100,10.602 M3.100,11.484 L5.366,10.428 L7.632,9.371 L9.897,8.315 L12.163,7.258 L14.429,6.202 L16.695,5.145 L18.960,4.089 L21.080,3.100 M22.973,3.100 L20.708,4.157 L18.442,5.213 L17.309,5.741 L16.176,6.270 L13.910,7.326 L11.644,8.383 L9.379,9.439 L7.113,10.496 L4.847,11.552 L3.100,12.367 M3.100,13.250 L5.366,12.193 L7.632,11.137 L9.897,10.080 L12.163,9.024 L14.429,7.967 L16.695,6.911 L18.960,5.854 L21.226,4.797 L22.359,4.269 L23.492,3.741 L24.866,3.100 M26.759,3.100 L24.493,4.157 L22.228,5.213 L19.962,6.270 L18.829,6.798 L17.696,7.326 L15.430,8.383 L13.165,9.439 L10.899,10.496 L8.633,11.552 L6.367,12.609 L4.102,13.665 L3.100,14.132 M3.100,15.015 L5.366,13.959 L7.632,12.902 L9.897,11.846 L12.163,10.789 L14.429,9.732 L16.695,8.676 L18.960,7.619 L21.226,6.563 L23.492,5.506 L25.758,4.450 L26.891,3.921 L28.023,3.393 L28.652,3.100 M30.545,3.100 L28.279,4.157 L26.014,5.213 L23.748,6.270 L21.482,7.326 L19.216,8.383 L16.951,9.439 L14.685,10.496 L12.419,11.552 L10.153,12.609 L7.887,13.665 L5.622,14.722 L3.356,15.779 L3.100,15.898 M3.100,16.781 L5.366,15.724 L7.632,14.668 L9.897,13.611 L12.163,12.554 L14.429,11.498 L16.695,10.441 L18.960,9.385 L21.226,8.328 L23.492,7.272 L25.758,6.215 L28.023,5.159 L30.289,4.102 L32.438,3.100 M34.331,3.100 L32.065,4.157 L29.800,5.213 L27.534,6.270 L25.268,7.326 L23.002,8.383 L20.736,9.439 L18.471,10.496 L16.205,11.552 L13.939,12.609 L11.673,13.665 L9.408,14.722 L7.142,15.779 L4.876,16.835 L3.100,17.663 M3.100,18.546 L5.366,17.489 L7.632,16.433 L9.897,15.376 L12.163,14.320 L14.429,13.263 L16.695,12.207 L18.960,11.150 L21.226,10.094 L23.492,9.037 L25.758,7.981 L28.023,6.924 L30.289,5.867 L31.422,5.339 L32.555,4.811 L34.821,3.754 L36.224,3.100 M38.117,3.100 L35.851,4.157 L33.585,5.213 L31.320,6.270 L29.054,7.326 L26.788,8.383 L24.522,9.439 L22.257,10.496 L19.991,11.552 L17.725,12.609 L15.459,13.665 L13.194,14.722 L10.928,15.779 L8.662,16.835 L6.396,17.892 L4.130,18.948 L3.100,19.429 M3.100,20.311 L5.366,19.255 L7.632,18.198 L9.897,17.142 L12.163,16.085 L14.429,15.029 L16.695,13.972 L18.960,12.916 L21.226,11.859 L23.492,10.802 L25.758,9.746 L28.023,8.689 L30.289,7.633 L32.555,6.576 L34.821,5.520 L37.087,4.463 L38.219,3.935 L39.352,3.407 L40.010,3.100 M41.903,3.100 L39.637,4.157 L37.371,5.213 L35.106,6.270 L32.840,7.326 L30.574,8.383 L28.308,9.439 L26.043,10.496 L23.777,11.552 L21.511,12.609 L19.245,13.665 L18.112,14.194 L16.979,14.722 L14.714,15.779 L12.448,16.835 L10.182,17.892 L7.916,18.948 L5.651,20.005 L3.385,21.061 L3.100,21.194 M3.100,22.077 L5.366,21.020 L7.632,19.964 L9.897,18.907 L12.163,17.851 L14.429,16.794 L16.695,15.738 L18.960,14.681 L21.226,13.624 L23.492,12.568 L25.758,11.511 L28.023,10.455 L30.289,9.398 L32.555,8.342 L34.821,7.285 L37.087,6.229 L39.352,5.172 L41.618,4.116 L43.796,3.100 M45.500,3.188 L43.234,4.245 L40.968,5.301 L38.703,6.358 L36.437,7.414 L34.171,8.471 L31.905,9.527 L29.640,10.584 L27.374,11.640 L25.108,12.697 L22.842,13.754 L20.577,14.810 L18.311,15.867 L16.045,16.923 L13.779,17.980 L11.513,19.036 L9.248,20.093 L6.982,21.149 L4.716,22.206 L3.100,22.960 M3.100,23.842 L5.366,22.786 L7.632,21.729 L9.897,20.673 L12.163,19.616 L14.429,18.559 L16.695,17.503 L18.960,16.446 L21.226,15.390 L23.492,14.333 L25.758,13.277 L28.023,12.220 L30.289,11.164 L32.555,10.107 L33.688,9.579 L34.821,9.051 L37.087,7.994 L39.352,6.937 L41.618,5.881 L43.884,4.824 L45.500,4.071 M45.500,4.953 L43.234,6.010 L40.968,7.067 L38.703,8.123 L36.437,9.180 L34.171,10.236 L31.905,11.293 L29.640,12.349 L27.374,13.406 L25.108,14.462 L22.842,15.519 L20.577,16.575 L18.311,17.632 L16.045,18.689 L13.779,19.745 L11.513,20.802 L9.248,21.858 L6.982,22.915 L4.716,23.971 L3.100,24.725 M3.100,25.608 L5.366,24.551 L7.632,23.495 L9.897,22.438 L12.163,21.381 L14.429,20.325 L16.695,19.268 L18.960,18.212 L21.226,17.155 L23.492,16.099 L25.758,15.042 L28.023,13.986 L30.289,12.929 L32.555,11.873 L33.688,11.344 L34.821,10.816 L37.087,9.759 L38.219,9.231 L39.352,8.703 L41.618,7.646 L43.884,6.590 L45.500,5.836 M45.500,6.719 L43.234,7.775 L40.968,8.832 L38.703,9.889 L36.437,10.945 L34.171,12.002 L31.905,13.058 L29.640,14.115 L27.374,15.171 L25.108,16.228 L22.842,17.284 L20.577,18.341 L18.311,19.397 L16.045,20.454 L13.779,21.511 L11.513,22.567 L9.248,23.624 L6.982,24.680 L4.716,25.737 L3.100,26.490 M3.100,27.373 L5.366,26.316 L7.632,25.260 L9.897,24.203 L12.163,23.147 L14.429,22.090 L16.695,21.034 L18.960,19.977 L21.226,18.921 L23.492,17.864 L25.758,16.808 L28.023,15.751 L30.289,14.694 L32.555,13.638 L34.821,12.581 L35.954,12.053 L37.087,11.525 L39.352,10.468 L41.618,9.412 L43.884,8.355 L45.500,7.602 M45.500,8.484 L43.234,9.541 L40.968,10.597 L38.703,11.654 L36.437,12.710 L35.304,13.239 L34.171,13.767 L31.905,14.824 L29.640,15.880 L27.374,16.937 L26.241,17.465 L25.108,17.993 L22.842,19.050 L20.577,20.106 L18.311,21.163 L16.045,22.219 L13.779,23.276 L11.513,24.332 L9.248,25.389 L6.982,26.446 L4.716,27.502 L3.100,28.256 M3.100,29.138 L5.366,28.082 L7.632,27.025 L9.897,25.969 L12.163,24.912 L14.429,23.856 L16.695,22.799 L18.960,21.743 L21.226,20.686 L23.492,19.630 L25.758,18.573 L28.023,17.516 L30.289,16.460 L32.555,15.403 L34.821,14.347 L37.087,13.290 L39.352,12.234 L41.618,11.177 L43.884,10.121 L45.500,9.367 M45.500,10.250 L43.234,11.306 L40.968,12.363 L38.703,13.419 L36.437,14.476 L35.304,15.004 L34.171,15.532 L31.905,16.589 L29.640,17.646 L27.374,18.702 L25.108,19.759 L22.842,20.815 L20.577,21.872 L18.311,22.928 L17.178,23.457 L16.045,23.985 L13.779,25.041 L11.513,26.098 L9.248,27.154 L6.982,28.211 L4.716,29.268 L3.100,30.021 M3.100,30.904 L5.366,29.847 L7.632,28.791 L9.897,27.734 L12.163,26.678 L14.429,25.621 L16.695,24.565 L18.960,23.508 L21.226,22.451 L23.492,21.395 L25.758,20.338 L28.023,19.282 L30.289,18.225 L32.555,17.169 L34.821,16.112 L37.087,15.056 L39.352,13.999 L41.618,12.943 L43.884,11.886 L45.500,11.132 M45.500,12.015 L43.234,13.072 L40.968,14.128 L38.703,15.185 L36.437,16.241 L34.171,17.298 L31.905,18.354 L29.640,19.411 L27.374,20.467 L25.108,21.524 L22.842,22.581 L20.577,23.637 L18.311,24.694 L16.045,25.750 L13.779,26.807 L11.513,27.863 L9.248,28.920 L6.982,29.976 L4.716,31.033 L3.100,31.787 M3.100,32.669 L5.366,31.613 L7.632,30.556 L9.897,29.500 L12.163,28.443 L14.429,27.387 L16.695,26.330 L18.960,25.273 L21.226,24.217 L23.492,23.160 L25.758,22.104 L28.023,21.047 L30.289,19.991 L32.555,18.934 L34.821,17.878 L37.087,16.821 L39.352,15.765 L41.618,14.708 L43.884,13.651 L45.500,12.898 M45.500,13.780 L43.234,14.837 L40.968,15.894 L38.703,16.950 L36.437,18.007 L34.171,19.063 L31.905,20.120 L29.640,21.176 L28.507,21.705 L27.374,22.233 L25.108,23.289 L22.842,24.346 L20.577,25.402 L18.311,26.459 L17.178,26.987 L16.045,27.516 L13.779,28.572 L11.513,29.629 L9.248,30.685 L6.982,31.742 L4.716,32.798 L3.100,33.552 M3.100,34.435 L5.366,33.378 L7.632,32.322 L9.897,31.265 L12.163,30.208 L14.429,29.152 L16.695,28.095 L18.960,27.039 L21.226,25.982 L23.492,24.926 L25.758,23.869 L28.023,22.813 L30.289,21.756 L32.555,20.700 L34.821,19.643 L37.087,18.586 L39.352,17.530 L41.618,16.473 L43.884,15.417 L45.500,14.663 M45.500,15.546 L43.234,16.602 L40.968,17.659 L38.703,18.716 L36.437,19.772 L34.171,20.829 L31.905,21.885 L29.640,22.942 L27.374,23.998 L25.108,25.055 L22.842,26.111 L20.577,27.168 L18.311,28.224 L16.045,29.281 L13.779,30.338 L11.513,31.394 L9.248,32.451 L6.982,33.507 L4.716,34.564 L3.100,35.317 M3.100,36.200 L5.366,35.144 L7.632,34.087 L9.897,33.030 L12.163,31.974 L14.429,30.917 L16.695,29.861 L18.960,28.804 L21.226,27.748 L23.492,26.691 L25.758,25.635 L28.023,24.578 L30.289,23.521 L32.555,22.465 L34.821,21.408 L37.087,20.352 L38.219,19.824 L39.352,19.295 L41.618,18.239 L43.884,17.182 L45.500,16.429 M45.500,17.311 L43.234,18.368 L40.968,19.424 L38.703,20.481 L36.437,21.537 L34.171,22.594 L31.905,23.651 L29.640,24.707 L27.374,25.764 L25.108,26.820 L22.842,27.877 L20.577,28.933 L18.311,29.990 L17.178,30.518 L16.045,31.046 L13.779,32.103 L11.513,33.159 L9.248,34.216 L6.982,35.273 L4.716,36.329 L3.100,37.083 M3.100,37.965 L5.366,36.909 L7.632,35.852 L9.897,34.796 L12.163,33.739 L14.429,32.683 L16.695,31.626 L18.960,30.570 L21.226,29.513 L23.492,28.457 L25.758,27.400 L28.023,26.343 L30.289,25.287 L32.555,24.230 L34.821,23.174 L37.087,22.117 L38.219,21.589 L39.352,21.061 L41.618,20.004 L43.884,18.948 L45.500,18.194 M45.500,19.077 L43.234,20.133 L40.968,21.190 L38.703,22.246 L36.437,23.303 L34.171,24.359 L31.905,25.416 L29.640,26.473 L27.374,27.529 L25.108,28.586 L22.842,29.642 L20.577,30.699 L18.311,31.755 L16.045,32.812 L13.779,33.868 L11.513,34.925 L9.248,35.981 L6.982,37.038 L4.716,38.095 L3.100,38.848 M3.100,39.731 L5.366,38.674 L7.632,37.618 L9.897,36.561 L12.163,35.505 L14.429,34.448 L16.695,33.392 L18.960,32.335 L21.226,31.278 L23.492,30.222 L25.758,29.165 L28.023,28.109 L30.289,27.052 L32.555,25.996 L34.821,24.939 L37.087,23.883 L38.219,23.354 L39.352,22.826 L41.618,21.770 L43.884,20.713 L45.500,19.959 M45.500,20.842 L43.234,21.899 L40.968,22.955 L38.703,24.012 L36.437,25.068 L34.171,26.125 L31.905,27.181 L29.640,28.238 L27.374,29.294 L25.108,30.351 L22.842,31.408 L20.577,32.464 L18.311,33.521 L16.045,34.577 L13.779,35.634 L11.513,36.690 L9.248,37.747 L6.982,38.803 L4.716,39.860 L3.100,40.614 M3.100,41.496 L5.366,40.440 L7.632,39.383 L9.897,38.327 L12.163,37.270 L14.429,36.214 L16.695,35.157 L18.960,34.100 L21.226,33.044 L23.492,31.987 L25.758,30.931 L28.023,29.874 L30.289,28.818 L32.555,27.761 L34.821,26.705 L37.087,25.648 L38.219,25.120 L39.352,24.592 L41.618,23.535 L43.884,22.478 L45.500,21.725 M45.500,22.608 L43.234,23.664 L40.968,24.721 L38.703,25.777 L36.437,26.834 L34.171,27.890 L31.905,28.947 L29.640,30.003 L27.374,31.060 L25.108,32.116 L22.842,33.173 L20.577,34.230 L18.311,35.286 L16.045,36.343 L13.779,37.399 L11.513,38.456 L9.248,39.512 L6.982,40.569 L4.716,41.625 L3.100,42.379 M3.100,43.262 L5.366,42.205 L7.632,41.149 L9.897,40.092 L12.163,39.035 L14.429,37.979 L16.695,36.922 L18.960,35.866 L21.226,34.809 L23.492,33.753 L25.758,32.696 L28.023,31.640 L30.289,30.583 L32.555,29.527 L34.821,28.470 L37.087,27.413 L39.352,26.357 L41.618,25.300 L43.884,24.244 L45.500,23.490 M45.500,24.373 L43.234,25.429 L40.968,26.486 L38.703,27.543 L36.437,28.599 L34.171,29.656 L31.905,30.712 L29.640,31.769 L27.374,32.825 L25.108,33.882 L22.842,34.938 L20.577,35.995 L18.311,37.051 L17.178,37.580 L16.045,38.108 L13.779,39.165 L11.513,40.221 L9.248,41.278 L6.982,42.334 L4.716,43.391 L3.100,44.144 M3.100,45.027 L5.366,43.971 L7.632,42.914 L9.897,41.857 L12.163,40.801 L14.429,39.744 L16.695,38.688 L18.960,37.631 L21.226,36.575 L23.492,35.518 L25.758,34.462 L28.023,33.405 L30.289,32.349 L32.555,31.292 L34.821,30.235 L37.087,29.179 L39.352,28.122 L41.618,27.066 L43.884,26.009 L45.500,25.256 M45.500,26.138 L43.234,27.195 L40.968,28.251 L38.703,29.308 L36.437,30.365 L34.171,31.421 L31.905,32.478 L29.640,33.534 L27.374,34.591 L25.108,35.647 L22.842,36.704 L20.577,37.760 L18.311,38.817 L17.178,39.345 L16.045,39.873 L13.779,40.930 L11.513,41.987 L9.248,43.043 L8.115,43.571 L6.982,44.100 L5.849,44.628 L4.716,45.156 L3.979,45.500 M5.872,45.500 L8.137,44.443 L10.403,43.387 L12.669,42.330 L14.935,41.274 L17.201,40.217 L19.466,39.161 L21.732,38.104 L23.998,37.048 L26.264,35.991 L28.529,34.935 L30.795,33.878 L33.061,32.821 L35.327,31.765 L37.592,30.708 L39.858,29.652 L42.124,28.595 L44.390,27.539 L45.500,27.021 M45.500,27.904 L43.234,28.960 L40.968,30.017 L38.703,31.073 L36.437,32.130 L34.171,33.186 L31.905,34.243 L30.772,34.771 L29.640,35.300 L28.507,35.828 L27.374,36.356 L25.108,37.413 L22.842,38.469 L20.577,39.526 L18.311,40.582 L17.178,41.111 L16.045,41.639 L13.779,42.695 L12.646,43.224 L11.513,43.752 L9.248,44.808 L7.765,45.500 M9.658,45.500 L11.923,44.443 L14.189,43.387 L16.455,42.330 L18.721,41.274 L20.986,40.217 L23.252,39.161 L25.518,38.104 L27.784,37.048 L30.050,35.991 L31.182,35.463 L32.315,34.935 L34.581,33.878 L35.714,33.350 L36.847,32.821 L39.113,31.765 L40.246,31.237 L41.378,30.708 L43.644,29.652 L45.669,28.708 M46.721,29.100 L44.455,30.157 L42.189,31.213 L39.923,32.270 L38.790,32.798 L37.657,33.326 L35.392,34.383 L33.126,35.439 L30.860,36.496 L28.594,37.552 L26.329,38.609 L24.063,39.665 L21.797,40.722 L19.531,41.779 L18.398,42.307 L17.266,42.835 L16.133,43.363 L15.000,43.892 L12.734,44.948 L11.551,45.500 M13.444,45.500 L15.709,44.443 L17.975,43.387 L20.241,42.330 L22.507,41.274 L24.772,40.217 L27.038,39.161 L29.304,38.104 L30.437,37.576 L31.570,37.048 L33.835,35.991 L36.101,34.935 L38.367,33.878 L40.633,32.821 L42.899,31.765 L45.164,30.708 L47.430,29.652 L48.613,29.100 M50.506,29.100 L48.241,30.157 L45.975,31.213 L43.709,32.270 L41.443,33.326 L39.178,34.383 L36.912,35.439 L34.646,36.496 L32.380,37.552 L31.247,38.081 L30.115,38.609 L27.849,39.665 L25.583,40.722 L23.317,41.779 L21.051,42.835 L19.919,43.363 L18.786,43.892 L17.653,44.420 L16.520,44.948 L15.337,45.500 M17.229,45.500 L19.495,44.443 L21.761,43.387 L24.027,42.330 L26.293,41.274 L28.558,40.217 L30.824,39.161 L33.090,38.104 L35.356,37.048 L37.621,35.991 L38.754,35.463 L39.887,34.935 L42.153,33.878 L44.419,32.821 L46.684,31.765 L48.950,30.708 L51.216,29.652 L52.399,29.100 M54.292,29.100 L52.027,30.157 L49.761,31.213 L47.495,32.270 L45.229,33.326 L42.964,34.383 L40.698,35.439 L38.432,36.496 L36.166,37.552 L33.900,38.609 L32.768,39.137 L31.635,39.665 L30.502,40.194 L29.369,40.722 L27.103,41.779 L24.837,42.835 L22.572,43.892 L20.306,44.948 L19.122,45.500 M21.015,45.500 L23.281,44.443 L25.547,43.387 L27.813,42.330 L30.078,41.274 L31.211,40.746 L32.344,40.217 L34.610,39.161 L36.876,38.104 L39.142,37.048 L41.407,35.991 L42.540,35.463 L43.673,34.935 L45.939,33.878 L48.205,32.821 L49.338,32.293 L50.470,31.765 L52.736,30.708 L55.002,29.652 L56.185,29.100 M58.078,29.100 L55.813,30.157 L53.547,31.213 L51.281,32.270 L49.015,33.326 L46.749,34.383 L44.484,35.439 L42.218,36.496 L39.952,37.552 L37.686,38.609 L36.553,39.137 L35.421,39.665 L34.288,40.194 L33.155,40.722 L30.889,41.779 L28.623,42.835 L26.358,43.892 L24.092,44.948 L22.908,45.500 M24.801,45.500 L27.067,44.443 L29.333,43.387 L31.599,42.330 L33.864,41.274 L36.130,40.217 L38.396,39.161 L40.662,38.104 L42.927,37.048 L45.193,35.991 L47.459,34.935 L49.725,33.878 L51.991,32.821 L54.256,31.765 L56.522,30.708 L58.788,29.652 L59.971,29.100 M61.864,29.100 L59.598,30.157 L57.333,31.213 L55.067,32.270 L52.801,33.326 L50.535,34.383 L48.270,35.439 L46.004,36.496 L43.738,37.552 L41.472,38.609 L39.207,39.665 L36.941,40.722 L34.675,41.779 L32.409,42.835 L31.276,43.363 L30.143,43.892 L27.878,44.948 L26.694,45.500 M28.587,45.500 L30.853,44.443 L33.119,43.387 L35.385,42.330 L37.650,41.274 L38.783,40.746 L39.916,40.217 L42.182,39.161 L44.448,38.104 L46.713,37.048 L48.979,35.991 L51.245,34.935 L53.511,33.878 L55.776,32.821 L58.042,31.765 L60.308,30.708 L62.574,29.652 L63.757,29.100 M65.500,29.170 L63.234,30.227 L60.968,31.283 L58.703,32.340 L56.437,33.396 L54.171,34.453 L51.905,35.509 L49.640,36.566 L47.374,37.622 L45.108,38.679 L42.842,39.735 L40.577,40.792 L38.311,41.849 L36.045,42.905 L33.779,43.962 L32.646,44.490 L31.513,45.018 L30.480,45.500 M32.373,45.500 L34.639,44.443 L36.905,43.387 L39.170,42.330 L41.436,41.274 L43.702,40.217 L45.968,39.161 L48.234,38.104 L49.366,37.576 L50.499,37.048 L52.765,35.991 L55.031,34.935 L57.297,33.878 L59.562,32.821 L61.828,31.765 L64.094,30.708 L65.500,30.053 M65.500,30.935 L63.234,31.992 L60.968,33.049 L58.703,34.105 L56.437,35.162 L54.171,36.218 L51.905,37.275 L49.640,38.331 L47.374,39.388 L45.108,40.444 L42.842,41.501 L40.577,42.557 L38.311,43.614 L37.178,44.142 L36.045,44.671 L34.266,45.500 M36.159,45.500 L38.425,44.443 L40.691,43.387 L42.956,42.330 L45.222,41.274 L47.488,40.217 L49.754,39.161 L50.887,38.632 L52.019,38.104 L54.285,37.048 L56.551,35.991 L58.817,34.935 L61.083,33.878 L63.348,32.821 L65.500,31.818 M65.500,32.701 L63.234,33.757 L60.968,34.814 L58.703,35.870 L56.437,36.927 L54.171,37.984 L51.905,39.040 L49.640,40.097 L47.374,41.153 L45.108,42.210 L43.975,42.738 L42.842,43.266 L40.577,44.323 L38.311,45.379 L38.052,45.500 M39.945,45.500 L42.211,44.443 L44.477,43.387 L46.742,42.330 L49.008,41.274 L50.141,40.746 L51.274,40.217 L53.540,39.161 L55.805,38.104 L58.071,37.048 L60.337,35.991 L62.603,34.935 L64.868,33.878 L65.500,33.584 M65.500,34.466 L63.234,35.523 L60.968,36.579 L58.703,37.636 L56.437,38.692 L54.171,39.749 L51.905,40.805 L49.640,41.862 L47.374,42.919 L46.241,43.447 L45.108,43.975 L42.842,45.032 L41.838,45.500 M43.731,45.500 L45.997,44.443 L48.262,43.387 L50.528,42.330 L52.794,41.274 L55.060,40.217 L57.326,39.161 L59.591,38.104 L61.857,37.048 L64.123,35.991 L65.500,35.349 M65.500,36.232 L63.234,37.288 L60.968,38.345 L58.703,39.401 L56.437,40.458 L54.171,41.514 L51.905,42.571 L49.640,43.627 L48.507,44.156 L47.374,44.684 L45.624,45.500 M47.517,45.500 L49.783,44.443 L52.048,43.387 L54.314,42.330 L56.580,41.274 L58.846,40.217 L61.111,39.161 L63.377,38.104 L65.500,37.114 M65.500,37.997 L63.234,39.054 L60.968,40.110 L58.703,41.167 L56.437,42.223 L54.171,43.280 L51.905,44.336 L50.772,44.865 L49.640,45.393 L49.410,45.500 M51.303,45.500 L53.569,44.443 L55.834,43.387 L58.100,42.330 L59.233,41.802 L60.366,41.274 L62.632,40.217 L64.897,39.161 L65.500,38.880 M65.500,39.762 L63.234,40.819 L60.968,41.876 L58.703,42.932 L57.570,43.460 L56.437,43.989 L54.171,45.045 L53.196,45.500 M55.089,45.500 L57.354,44.443 L59.620,43.387 L60.753,42.859 L61.886,42.330 L64.152,41.274 L65.500,40.645 M65.500,41.528 L63.234,42.584 L60.968,43.641 L59.836,44.169 L58.703,44.697 L56.982,45.500 M58.875,45.500 L61.140,44.443 L63.406,43.387 L65.500,42.411 M65.500,43.293 L63.234,44.350 L62.101,44.878 L60.968,45.406 L60.768,45.500 M62.661,45.500 L63.793,44.972 L64.926,44.443 L65.500,44.176 M65.500,45.059 L64.554,45.500 L65.188,45.204 L64.554,45.500 L65.188,45.204 L64.554,45.500"/>
  <path fill="none" stroke="#f4d35e" stroke-width="0.4" stroke-linecap="round" stroke-linejoin="round" d="M2.300,46.300 L2.551,46.953 L2.300,46.300 L2.551,46.953 L2.300,46.300 L2.800,47.600 L3.300,45.000 L3.800,47.600 L4.300,45.000 L4.800,47.600 L5.300,45.000 L5.800,47.600 L6.300,45.000 L6.800,47.600 L7.300,45.000 L7.800,47.600 L8.300,45.000 L8.800,47.600 L9.300,45.000 L9.800,47.600 L10.300,45.000 L10.800,47.600 L11.300,45.000 L11.800,47.600 L12.300,45.000 L12.800,47.600 L13.300,45.000 L13.800,47.600 L14.300,45.000 L14.800,47.600 L15.300,45.000 L15.800,47.600 L16.300,45.000 L16.800,47.600 L17.300,45.000 L17.800,47.600 L18.300,45.000 L18.800,47.600 L19.300,45.000 L19.800,47.600 L20.300,45.000 L20.800,47.600 L21.300,45.000 L21.800,47.600 L22.300,45.000 L22.800,47.600 L23.300,45.000 L23.800,47.600 L24.300,45.000 L24.800,47.600 L25.300,45.000 L25.800,47.600 L26.300,45.000 L26.800,47.600 L27.300,45.000 L27.800,47.600 L28.300,45.000 L28.800,47.600 L29.300,45.000 L29.800,47.600 L30.300,45.000 L30.800,47.600 L31.300,45.000 L31.800,47.600 L32.300,45.000 L32.800,47.600 L33.300,45.000 L33.800,47.600 L34.300,45.000 L34.800,47.600 L35.300,45.000 L35.800,47.600 L36.300,45.000 L36.800,47.600 L37.300,45.000 L37.800,47.600 L38.300,45.000 L38.800,47.600 L39.300,45.000 L39.800,47.600 L40.300,45.000 L40.800,47.600 L41.300,45.000 L41.800,47.600 L42.300,45.000 L42.800,47.600 L43.300,45.000 L43.800,47.600 L44.300,45.000 L44.800,47.600 L45.300,45.000 L45.800,47.600 L46.300,45.000 L46.800,47.600 L47.300,45.000 L47.800,47.600 L48.300,45.000 L48.800,47.600 L49.300,45.000 L49.800,47.600 L50.300,45.000 L50.800,47.600 L51.300,45.000 L51.800,47.600 L52.300,45.000 L52.800,47.600 L53.300,45.000 L53.800,47.600 L54.300,45.000 L54.800,47.600 L55.300,45.000 L55.800,47.600 L56.300,45.000 L56.800,47.600 L57.300,45.000 L57.800,47.600 L58.300,45.000 L58.800,47.600 L59.300,45.000 L59.800,47.600 L60.300,45.000 L60.800,47.600 L61.300,45.000 L61.800,47.600 L62.300,45.000 L62.800,47.600 L63.300,45.000 L63.800,47.600 L64.300,45.000 L64.800,47.600 L65.300,45.000 L65.800,47.600 L66.300,45.000 L67.600,45.800 L65.000,45.300 L67.600,44.800 L65.000,44.300 L67.600,43.800 L65.000,43.300 L67.600,42.800 L65.000,42.300 L67.600,41.800 L65.000,41.300 L67.600,40.800 L65.000,40.300 L67.600,39.800 L65.000,39.300 L67.600,38.800 L65.000,38.300 L67.600,37.800 L65.000,37.300 L67.600,36.800 L65.000,36.300 L67.600,35.800 L65.000,35.300 L67.600,34.800 L65.000,34.300 L67.600,33.800 L65.000,33.300 L67.600,32.800 L65.000,32.300 L67.600,31.800 L65.000,31.300 L67.600,30.800 L65.000,30.300 L67.600,29.800 L65.000,29.300 L67.600,28.800 L65.000,28.300 L65.800,27.000 L65.300,29.600 L64.800,27.000 L64.300,29.600 L63.800,27.000 L63.300,29.600 L62.800,27.000 L62.300,29.600 L61.800,27.000 L61.300,29.600 L60.800,27.000 L60.300,29.600 L59.800,27.000 L59.300,29.600 L58.800,27.000 L58.300,29.600 L57.800,27.000 L57.300,29.600 L56.800,27.000 L56.300,29.600 L55.800,27.000 L55.300,29.600 L54.800,27.000 L54.300,29.600 L53.800,27.000 L53.300,29.600 L52.800,27.000 L52.300,29.600 L51.800,27.000 L51.300,29.600 L50.800,27.000 L50.300,29.600 L49.800,27.000 L49.300,29.600 L48.800,27.000 L48.300,29.600 L47.800,27.000 L47.300,29.600 L46.800,27.000 L46.300,29.600 L47.600,27.800 L45.000,27.300 L47.600,26.800 L45.000,26.300 L47.600,25.800 L45.000,25.300 L47.600,24.800 L45.000,24.300 L47.600,23.800 L45.000,23.300 L47.600,22.800 L45.000,22.300 L47.600,21.800 L45.000,21.300 L47.600,20.800 L45.000,20.300 L47.600,19.800 L45.000,19.300 L47.600,18.800 L45.000,18.300 L47.600,17.800 L45.000,17.300 L47.600,16.800 L45.000,16.300 L47.600,15.800 L45.000,15.300 L47.600,14.800 L45.000,14.300 L47.600,13.800 L45.000,13.300 L47.600,12.800 L45.000,12.300 L47.600,11.800 L45.000,11.300 L47.600,10.800 L45.000,10.300 L47.600,9.800 L45.000,9.300 L47.600,8.800 L45.000,8.300 L47.600,7.800 L45.000,7.300 L47.600,6.800 L45.000,6.300 L47.600,5.800 L45.000,5.300 L47.600,4.800 L45.000,4.300 L47.600,3.800 L45.000,3.300 L47.600,2.800 L45.000,2.300 L45.800,1.000 L45.300,3.600 L44.800,1.000 L44.300,3.600 L43.800,1.000 L43.300,3.600 L42.800,1.000 L42.300,3.600 L41.800,1.000 L41.300,3.600 L40.800,1.000 L40.300,3.600 L39.800,1.000 L39.300,3.600 L38.800,1.000 L38.300,3.600 L37.800,1.000 L37.300,3.600 L36.800,1.000 L36.300,3.600 L35.800,1.000 L35.300,3.600 L34.800,1.000 L34.300,3.600 L33.800,1.000 L33.300,3.600 L32.800,1.000 L32.300,3.600 L31.800,1.000 L31.300,3.600 L30.800,1.000 L30.300,3.600 L29.800,1.000 L29.300,3.600 L28.800,1.000 L28.300,3.600 L27.800,1.000 L27.300,3.600 L26.800,1.000 L26.300,3.600 L25.800,1.000 L25.300,3.600 L24.800,1.000 L24.300,3.600 L23.800,1.000 L23.300,3.600 L22.800,1.000 L22.300,3.600 L21.800,1.000 L21.300,3.600 L20.800,1.000 L20.300,3.600 L19.800,1.000 L19.300,3.600 L18.800,1.000 L18.300,3.600 L17.800,1.000 L17.300,3.600 L16.800,1.000 L16.300,3.600 L15.800,1.000 L15.300,3.600 L14.800,1.000 L14.300,3.600 L13.800,1.000 L13.300,3.600 L12.800,1.000 L12.300,3.600 L11.800,1.000 L11.300,3.600 L10.800,1.000 L10.300,3.600 L9.800,1.000 L9.300,3.600 L8.800,1.000 L8.300,3.600 L7.800,1.000 L7.300,3.600 L6.800,1.000 L6.300,3.600 L5.800,1.000 L5.300,3.600 L4.800,1.000 L4.300,3.600 L3.800,1.000 L3.300,3.600 L2.800,1.000 L2.300,3.600 L1.000,2.800 L3.600,3.300 L1.000,3.800 L3.600,4.300 L1.000,4.800 L3.600,5.300 L1.000,5.800 L3.600,6.300 L1.000,6.800 L3.600,7.300 L1.000,7.800 L3.600,8.300 L1.000,8.800 L3.600,9.300 L1.000,9.800 L3.600,10.300 L1.000,10.800 L3.600,11.300 L1.000,11.800 L3.600,12.300 L1.000,12.800 L3.600,13.300 L1.000,13.800 L3.600,14.300 L1.000,14.800 L3.600,15.300 L1.000,15.800 L3.600,16.300 L1.000,16.800 L3.600,17.300 L1.000,17.800 L3.600,18.300 L1.000,18.800 L3.600,19.300 L1.000,19.800 L3.600,20.300 L1.000,20.800 L3.600,21.300 L1.000,21.800 L3.600,22.300 L1.000,22.800 L3.600,23.300 L1.000,23.800 L3.600,24.300 L1.000,24.800 L3.600,25.300 L1.000,25.800 L3.600,26.300 L1.000,26.800 L3.600,27.300 L1.000,27.800 L3.600,28.300 L1.000,28.800 L3.600,29.300 L1.000,29.800 L3.600,30.300 L1.000,30.800 L3.600,31.300 L1.000,31.800 L3.600,32.300 L1.000,32.800 L3.600,33.300 L1.000,33.800 L3.600,34.300 L1.000,34.800 L3.600,35.300 L1.000,35.800 L3.600,36.300 L1.000,36.800 L3.600,37.300 L1.000,37.800 L3.600,38.300 L1.000,38.800 L3.600,39.300 L1.000,39.800 L3.600,40.300 L1.000,40.800 L3.600,41.300 L1.000,41.800 L3.600,42.300 L1.000,42.800 L3.600,43.300 L1.000,43.800 L3.600,44.300 L1.000,44.800 L3.600,45.300 L1.000,45.800 L3.600,46.300 L2.913,46.168 L3.600,46.300 L2.913,46.168 L3.600,46.300"/>
</svg>
