<svg xmlns="http://www.w3.org/2000/svg" viewBox="0 -18.147 78.276 78.276" width="256" height="256">
  <title>fish</title>
  <rect x="0" y="-18.147" width="78.276" height="78.276" fill="#f5efe4"/>
  <path fill="none" stroke="#8c4a6b" stroke-width="0.4" stroke-linecap="round" stroke-linejoin="round" d="M1.000,22.200 L1.000,22.200 L1.000,21.000 L1.000,19.800 L1.000,20.500 L1.000,19.800 L1.000,20.500 L1.000,19.800 M3.786,24.608 L3.786,23.908 L3.786,24.608 L3.786,23.908 L3.786,24.608 L3.786,22.804 L3.786,21.000 L3.786,19.196 L3.786,17.392 M6.343,15.015 L6.343,17.010 L6.343,19.005 L6.343,21.000 L6.343,22.995 L6.343,24.990 L6.343,26.985 M8.675,29.075 L8.675,27.280 L8.675,25.486 L8.675,23.691 L8.675,21.897 L8.675,20.103 L8.675,18.308 L8.675,16.514 L8.675,14.719 L8.675,12.925 M10.808,11.101 L10.808,13.080 L10.808,15.060 L10.808,17.040 L10.808,19.020 L10.808,21.000 L10.808,22.980 L10.808,24.959 L10.808,26.939 L10.808,28.919 L10.808,30.899 M12.767,32.484 L12.767,30.570 L12.767,28.656 L12.767,26.742 L12.767,24.828 L12.767,22.914 L12.767,21.000 L12.767,19.086 L12.767,17.172 L12.767,15.257 L12.767,13.343 L12.767,11.429 L12.767,9.515 M14.576,8.141 L14.576,10.119 L14.576,12.098 L14.576,14.076 L14.576,16.054 L14.576,18.032 L14.576,20.011 L14.576,21.989 L14.576,23.967 L14.576,25.945 L14.576,27.924 L14.576,29.902 L14.576,31.880 L14.576,33.859 M16.255,35.047 L16.255,33.174 L16.255,31.301 L16.255,29.428 L16.255,27.555 L16.255,25.682 L16.255,23.809 L16.255,21.936 L16.255,20.063 L16.255,18.190 L16.255,16.317 L16.255,14.444 L16.255,12.571 L16.255,10.698 L16.255,8.825 L16.255,6.952 M17.820,5.925 L17.820,7.809 L17.820,9.694 L17.820,11.578 L17.820,13.462 L17.820,15.347 L17.820,17.231 L17.820,19.115 L17.820,21.000 L17.820,22.884 L17.820,24.768 L17.820,26.653 L17.820,28.537 L17.820,30.422 L17.820,32.306 L17.820,34.190 L17.820,36.075 M19.288,36.961 L19.288,34.966 L19.288,32.971 L19.288,30.976 L19.288,28.980 L19.288,26.985 L19.288,24.990 L19.288,22.995 L19.288,21.000 L19.288,19.005 L19.288,17.009 L19.288,15.014 L19.288,13.019 L19.288,11.024 L19.288,9.029 L19.288,7.034 L19.288,5.039 M20.672,4.275 L20.672,6.243 L20.672,8.210 L20.672,10.178 L20.672,12.146 L20.672,14.113 L20.672,16.081 L20.672,18.048 L20.672,20.016 L20.672,21.984 L20.672,23.951 L20.672,25.919 L20.672,27.886 L20.672,29.854 L20.672,31.821 L20.672,33.789 L20.672,35.757 L20.672,37.724 M21.983,38.380 L21.983,36.449 L21.983,34.518 L21.983,32.586 L21.983,30.655 L21.983,28.724 L21.983,26.793 L21.983,24.862 L21.983,22.931 L21.983,21.000 L21.983,19.069 L21.983,17.138 L21.983,15.206 L21.983,13.275 L21.983,11.344 L21.983,9.413 L21.983,7.482 L21.983,5.551 L21.983,3.620 M23.232,3.059 L23.232,5.052 L23.232,7.046 L23.232,9.039 L23.232,11.033 L23.232,13.026 L23.232,15.020 L23.232,17.013 L23.232,19.006 L23.232,21.000 L23.232,22.993 L23.232,24.987 L23.232,26.980 L23.232,28.973 L23.232,30.967 L23.232,32.960 L23.232,34.954 L23.232,36.947 L23.232,38.940 M24.427,39.417 L24.427,37.478 L24.427,35.540 L24.427,33.601 L24.427,31.662 L24.427,29.724 L24.427,27.785 L24.427,25.846 L24.427,23.908 L24.427,21.969 L24.427,20.030 L24.427,18.092 L24.427,16.153 L24.427,14.214 L24.427,12.276 L24.427,10.337 L24.427,8.398 L24.427,6.460 L24.427,4.521 L24.427,2.582 M25.578,2.181 L25.578,4.162 L25.578,6.143 L25.578,8.124 L25.578,10.105 L25.578,12.086 L25.578,14.066 L25.578,16.047 L25.578,18.028 L25.578,20.009 L25.578,21.990 L25.578,23.971 L25.578,25.952 L25.578,27.933 L25.578,29.914 L25.578,31.895 L25.578,33.876 L25.578,35.857 L25.578,37.838 L25.578,39.819 M26.690,40.153 L26.690,38.237 L26.690,36.322 L26.690,34.407 L26.690,32.491 L26.690,30.576 L26.690,28.661 L26.690,26.746 L26.690,24.830 L26.690,22.915 L26.690,21.000 L26.690,19.084 L26.690,17.169 L26.690,15.254 L26.690,13.339 L26.690,11.423 L26.690,9.508 L26.690,7.593 L26.690,5.678 L26.690,3.762 L26.690,1.847 M27.770,1.575 L27.770,3.517 L27.770,5.460 L27.770,7.402 L27.770,9.345 L27.770,11.287 L27.770,13.230 L27.770,15.172 L27.770,17.115 L27.770,19.057 L27.770,21.000 L27.770,22.942 L27.770,24.885 L27.770,26.827 L27.770,28.770 L27.770,30.712 L27.770,32.655 L27.770,34.597 L27.770,36.540 L27.770,38.482 L27.770,40.425 M28.825,40.641 L28.825,38.676 L28.825,36.712 L28.825,34.748 L28.825,32.784 L28.825,30.820 L28.825,28.856 L28.825,26.892 L28.825,24.928 L28.825,22.964 L28.825,21.000 L28.825,19.036 L28.825,17.072 L28.825,15.108 L28.825,13.143 L28.825,11.179 L28.825,9.215 L28.825,7.251 L28.825,5.287 L28.825,3.323 L28.825,1.359 M29.859,1.196 L29.859,3.177 L29.859,5.157 L29.859,7.137 L29.859,9.118 L29.859,11.098 L29.859,13.078 L29.859,15.059 L29.859,17.039 L29.859,19.019 L29.859,21.000 L29.859,22.980 L29.859,24.960 L29.859,26.941 L29.859,28.921 L29.859,30.902 L29.859,32.882 L29.859,34.862 L29.859,36.843 L29.859,38.823 L29.859,40.803 M30.878,40.916 L30.878,38.925 L30.878,36.933 L30.878,34.941 L30.878,32.950 L30.878,30.958 L30.878,28.966 L30.878,26.975 L30.878,24.983 L30.878,22.991 L30.878,21.000 L30.878,19.008 L30.878,17.016 L30.878,15.025 L30.878,13.033 L30.878,11.042 L30.878,9.050 L30.878,7.058 L30.878,5.067 L30.878,3.075 L30.878,1.083 M31.886,1.018 L31.886,3.017 L31.886,5.015 L31.886,7.013 L31.886,9.011 L31.886,11.009 L31.886,13.007 L31.886,15.005 L31.886,17.003 L31.886,19.002 L31.886,21.000 L31.886,22.998 L31.886,24.996 L31.886,26.994 L31.886,28.992 L31.886,30.990 L31.886,32.989 L31.886,34.987 L31.886,36.985 L31.886,38.983 L31.886,40.981 M32.887,41.000 L32.887,39.000 L32.887,37.000 L32.887,35.000 L32.887,33.000 L32.887,31.000 L32.887,29.000 L32.887,27.000 L32.887,25.000 L32.887,23.000 L32.887,21.000 L32.887,19.000 L32.887,17.000 L32.887,15.000 L32.887,13.000 L32.887,11.000 L32.887,9.000 L32.887,7.000 L32.887,5.000 L32.887,3.000 L32.887,1.000 M33.887,1.028 L33.887,3.025 L33.887,5.022 L33.887,7.019 L33.887,9.016 L33.887,11.014 L33.887,13.011 L33.887,15.008 L33.887,17.005 L33.887,19.003 L33.887,21.000 L33.887,22.997 L33.887,24.994 L33.887,26.991 L33.887,28.989 L33.887,30.986 L33.887,32.983 L33.887,34.980 L33.887,36.978 L33.887,38.975 L33.887,40.972 M34.890,40.898 L34.890,38.908 L34.890,36.919 L34.890,34.929 L34.890,32.939 L34.890,30.949 L34.890,28.959 L34.890,26.969 L34.890,24.979 L34.890,22.990 L34.890,21.000 L34.890,19.010 L34.890,17.020 L34.890,15.030 L34.890,13.040 L34.890,11.050 L34.890,9.061 L34.890,7.071 L34.890,5.081 L34.890,3.091 L34.890,1.101 M35.900,1.222 L35.900,3.200 L35.900,5.177 L35.900,7.155 L35.900,9.133 L35.900,11.111 L35.900,13.089 L35.900,15.066 L35.900,17.044 L35.900,19.022 L35.900,21.000 L35.900,22.978 L35.900,24.955 L35.900,26.933 L35.900,28.911 L35.900,30.889 L35.900,32.867 L35.900,34.844 L35.900,36.822 L35.900,38.800 L35.900,40.778 M36.921,40.609 L36.921,38.648 L36.921,36.687 L36.921,34.726 L36.921,32.765 L36.921,30.804 L36.921,28.843 L36.921,26.882 L36.921,24.922 L36.921,22.961 L36.921,21.000 L36.921,19.039 L36.921,17.078 L36.921,15.117 L36.921,13.156 L36.921,11.195 L36.921,9.234 L36.921,7.273 L36.921,5.313 L36.921,3.352 L36.921,1.391 M37.958,1.610 L37.958,3.549 L37.958,5.488 L37.958,7.427 L37.958,9.366 L37.958,11.305 L37.958,13.244 L37.958,15.183 L37.958,17.122 L37.958,19.061 L37.958,21.000 L37.958,22.939 L37.958,24.878 L37.958,26.817 L37.958,28.756 L37.958,30.694 L37.958,32.633 L37.958,34.572 L37.958,36.511 L37.958,38.450 L37.958,40.389 M39.016,40.116 L39.016,38.204 L39.016,36.293 L39.016,34.381 L39.016,32.469 L39.016,30.558 L39.016,28.646 L39.016,26.735 L39.016,24.823 L39.016,22.911 L39.016,21.000 L39.016,19.088 L39.016,17.177 L39.016,15.265 L39.016,13.353 L39.016,11.442 L39.016,9.530 L39.016,7.619 L39.016,5.707 L39.016,3.795 L39.016,1.884 M40.100,2.215 L40.100,4.192 L40.100,6.170 L40.100,8.147 L40.100,10.124 L40.100,12.102 L40.100,14.079 L40.100,16.056 L40.100,18.034 L40.100,20.011 L40.100,21.988 L40.100,23.966 L40.100,25.943 L40.100,27.921 L40.100,29.898 L40.100,31.875 L40.100,33.853 L40.100,35.830 L40.100,37.807 L40.100,39.785 M41.215,39.391 L41.215,37.455 L41.215,35.519 L41.215,33.583 L41.215,31.647 L41.215,29.712 L41.215,27.776 L41.215,25.840 L41.215,23.904 L41.215,21.968 L41.215,20.032 L41.215,18.096 L41.215,16.160 L41.215,14.224 L41.215,12.288 L41.215,10.352 L41.215,8.416 L41.215,6.480 L41.215,4.544 L41.215,2.608 M42.368,3.070 L42.368,5.062 L42.368,7.055 L42.368,9.047 L42.368,11.039 L42.368,13.031 L42.368,15.023 L42.368,17.015 L42.368,19.008 L42.368,21.000 L42.368,22.992 L42.368,24.984 L42.368,26.976 L42.368,28.968 L42.368,30.961 L42.368,32.953 L42.368,34.945 L42.368,36.937 L42.368,38.929 M43.565,38.392 L43.565,36.460 L43.565,34.527 L43.565,32.595 L43.565,30.662 L43.565,28.730 L43.565,26.797 L43.565,24.865 L43.565,22.932 L43.565,21.000 L43.565,19.067 L43.565,17.135 L43.565,15.202 L43.565,13.270 L43.565,11.337 L43.565,9.405 L43.565,7.472 L43.565,5.540 L43.565,3.607 M44.813,4.228 L44.813,6.201 L44.813,8.175 L44.813,10.148 L44.813,12.121 L44.813,14.094 L44.813,16.067 L44.813,18.040 L44.813,20.013 L44.813,21.986 L44.813,23.959 L44.813,25.933 L44.813,27.906 L44.813,29.879 L44.813,31.852 L44.813,33.825 L44.813,35.798 L44.813,37.771 M46.119,37.057 L46.119,35.168 L46.119,33.279 L46.119,31.389 L46.119,29.500 L46.119,27.611 L46.119,25.722 L46.119,23.833 L46.119,21.944 L46.119,20.055 L46.119,18.166 L46.119,16.277 L46.119,14.388 L46.119,12.499 L46.119,10.610 L46.119,8.721 L46.119,6.832 L46.119,4.943 M47.494,5.762 L47.494,7.667 L47.494,9.572 L47.494,11.476 L47.494,13.381 L47.494,15.286 L47.494,17.190 L47.494,19.095 L47.494,21.000 L47.494,22.904 L47.494,24.809 L47.494,26.714 L47.494,28.618 L47.494,30.523 L47.494,32.428 L47.494,34.332 L47.494,36.237 M48.946,35.300 L48.946,33.393 L48.946,31.486 L48.946,29.580 L48.946,27.673 L48.946,25.766 L48.946,23.860 L48.946,21.953 L48.946,20.046 L48.946,18.140 L48.946,16.233 L48.946,14.327 L48.946,12.420 L48.946,10.513 L48.946,8.607 L48.946,6.700 M50.488,7.771 L50.488,9.661 L50.488,11.550 L50.488,13.440 L50.488,15.330 L50.488,17.220 L50.488,19.110 L50.488,21.000 L50.488,22.890 L50.488,24.779 L50.488,26.669 L50.488,28.559 L50.488,30.449 L50.488,32.339 L50.488,34.229 M52.131,33.008 L52.131,31.161 L52.131,29.313 L52.131,27.466 L52.131,25.618 L52.131,23.771 L52.131,21.923 L52.131,20.076 L52.131,18.229 L52.131,16.381 L52.131,14.534 L52.131,12.686 L52.131,10.839 L52.131,8.991 M53.890,10.380 L53.890,12.311 L53.890,14.242 L53.890,16.173 L53.890,18.104 L53.890,20.034 L53.890,21.965 L53.890,23.896 L53.890,25.827 L53.890,27.758 L53.890,29.688 L53.890,31.619 M55.782,30.042 L55.782,28.234 L55.782,26.425 L55.782,24.617 L55.782,22.808 L55.782,21.000 L55.782,19.191 L55.782,17.383 L55.782,15.574 L55.782,13.766 L55.782,11.957 M57.822,13.742 L57.822,15.557 L57.822,17.371 L57.822,19.185 L57.822,21.000 L57.822,22.814 L57.822,24.629 L57.822,26.443 L57.822,28.257 M60.033,26.247 L60.033,24.498 L60.033,22.749 L60.033,21.000 L60.033,19.251 L60.033,17.502 L60.033,15.753 L60.033,16.453 L60.033,15.753 L60.033,16.453 L60.033,15.753 M62.435,23.996 L62.435,23.296 L62.435,23.996 L62.435,23.296 L62.435,23.996 L62.435,21.999 L62.435,20.001 L62.435,18.003 L62.435,18.703 L62.435,18.003 L62.435,18.703 L62.435,18.003 M65.050,22.200 L65.050,21.500 L65.050,22.200 L65.050,21.500 L65.050,22.200 L65.050,21.000 L65.050,19.800 L65.050,20.500 L65.050,19.800 L65.050,20.500 L65.050,19.800 M67.836,23.163 L67.836,22.463 L67.836,23.163 L67.836,22.463 L67.836,23.163 L67.836,21.721 L67.836,20.279 L67.836,18.836 M70.530,16.295 L70.530,18.177 L70.530,20.059 L70.530,21.941 L70.530,23.823 L70.530,25.705 M72.983,27.951 L72.983,25.965 L72.983,23.979 L72.983,21.993 L72.983,20.007 L72.983,18.020 L72.983,16.034 L72.983,14.048 M75.223,12.080 L75.223,14.062 L75.223,16.044 L75.223,18.026 L75.223,20.009 L75.223,21.991 L75.223,23.973 L75.223,25.955 L75.223,27.938 L75.223,29.920 M77.276,31.634 L77.276,29.701 L77.276,27.767 L77.276,25.834 L77.276,23.900 L77.276,21.967 L77.276,20.033 L77.276,18.099 L77.276,16.166 L77.276,14.232 L77.276,12.299 L77.276,10.365 L77.276,11.065 L77.276,10.365 L77.276,11.065 L77.276,10.365"/>
</svg>
