<svg xmlns="http://www.w3.org/2000/svg" viewBox="0 -1.168 55.61 55.61" width="256" height="256">
  <title>flow</title>
  <rect x="0" y="-1.168" width="55.61" height="55.61" fill="#f5efe4"/>
  <path fill="none" stroke="#c8472f" stroke-width="0.4" stroke-linecap="round" stroke-linejoin="round" d="M11.413,8.336 L11.413,8.336 L10.874,10.054 L11.084,9.386 L10.874,10.054 L11.084,9.386 L10.874,10.054 M7.767,10.227 L7.517,10.880 L7.767,10.227 L7.517,10.880 L7.767,10.227 L7.124,11.908 L7.374,11.254 L7.124,11.908 L7.374,11.254 L7.124,11.908 M45.018,18.726 L44.653,19.324 L45.018,18.726 L44.653,19.324 L45.018,18.726 L44.079,20.262 L44.444,19.665 L44.079,20.262 L44.444,19.665 L44.079,20.262 M15.508,3.968 L15.097,3.401 L15.508,3.968 L15.097,3.401 L15.508,3.968 L14.452,2.511 L14.863,3.078 L14.452,2.511 L14.863,3.078 L14.452,2.511 M7.069,22.347 L6.471,22.710 L7.069,22.347 L6.471,22.710 L7.069,22.347 L5.531,23.282 L6.129,22.918 L5.531,23.282 L6.129,22.918 L5.531,23.282 M43.367,25.227 L44.067,25.246 L43.367,25.227 L44.067,25.246 L43.367,25.227 L45.166,25.274 L44.467,25.256 L45.166,25.274 L44.467,25.256 L45.166,25.274 M16.834,2.793 L16.773,2.096 L16.834,2.793 L16.773,2.096 L16.834,2.793 L16.678,1.000 L16.738,1.697 L16.678,1.000 L16.738,1.697 L16.678,1.000 M17.063,16.076 L17.744,15.913 L17.063,16.076 L17.744,15.913 L17.063,16.076 L18.814,15.656 L18.133,15.820 L18.814,15.656 L18.133,15.820 L18.814,15.656 M39.780,39.330 L39.512,38.683 L39.780,39.330 L39.512,38.683 L39.780,39.330 L39.091,37.667 L39.359,38.313 L39.091,37.667 L39.359,38.313 L39.091,37.667 M32.969,5.377 L32.778,4.704 L32.969,5.377 L32.778,4.704 L32.969,5.377 L32.478,3.646 L32.669,4.319 L32.478,3.646 L32.669,4.319 L32.478,3.646 M54.090,33.673 L53.738,34.278 L54.090,33.673 L53.738,34.278 L54.090,33.673 L53.185,35.228 L53.537,34.623 L53.185,35.228 L53.537,34.623 L53.185,35.228 M54.610,50.665 L54.296,51.291 L54.610,50.665 L54.296,51.291 L54.610,50.665 L53.802,52.274 L54.116,51.648 L53.802,52.274 L54.116,51.648 L53.802,52.274 M42.040,41.466 L41.555,41.970 L42.040,41.466 L41.555,41.970 L42.040,41.466 L40.792,42.762 L41.277,42.258 L40.792,42.762 L41.277,42.258 L40.792,42.762 M1.772,6.730 L1.472,6.097 L1.772,6.730 L1.472,6.097 L1.772,6.730 L1.000,5.104 L1.300,5.736 L1.000,5.104 L1.300,5.736 L1.000,5.104"/>
</svg>
