<svg xmlns="http://www.w3.org/2000/svg" viewBox="0 -0.737 66.53 66.53" width="256" height="256">
  <title>flower</title>
  <rect x="0" y="-0.737" width="66.53" height="66.53" fill="#f5efe4"/>
  <path fill="none" stroke="#31604f" stroke-width="0.4" stroke-linecap="round" stroke-linejoin="round" d="M33.338,34.095 L33.378,33.396 L33.338,34.095 L33.378,33.396 L33.338,34.095 L33.473,31.718 L33.877,29.371 L34.543,27.085 L35.464,24.889 L36.627,22.812 L38.018,20.879 L39.619,19.117 L41.410,17.547 L43.366,16.189 L45.464,15.062 L47.675,14.180 L49.972,13.554 L52.326,13.191 L54.705,13.098 L57.080,13.274 L59.419,13.719 L59.284,16.096 L58.881,18.443 L58.214,20.729 L57.294,22.924 L56.130,25.002 L54.739,26.934 L53.138,28.697 L51.348,30.267 L49.391,31.624 L47.294,32.751 L45.082,33.633 L42.785,34.260 L40.432,34.622 L38.052,34.715 L35.678,34.539 L33.338,34.095 L35.281,32.718 L37.367,31.570 L39.570,30.666 L41.861,30.017 L44.211,29.631 L46.589,29.514 L48.965,29.667 L51.309,30.087 L53.590,30.771 L55.779,31.708 L57.847,32.887 L59.769,34.293 L61.520,35.907 L63.076,37.709 L64.419,39.675 L65.530,41.781 L63.587,43.158 L61.501,44.305 L59.298,45.210 L57.008,45.859 L54.658,46.245 L52.280,46.362 L49.904,46.209 L47.560,45.788 L45.279,45.105 L43.090,44.168 L41.021,42.989 L39.099,41.583 L37.349,39.969 L35.792,38.167 L34.450,36.201 L33.338,34.095 L35.626,34.755 L37.824,35.671 L39.905,36.829 L41.841,38.215 L43.607,39.812 L45.181,41.598 L46.544,43.551 L47.676,45.646 L48.564,47.855 L49.196,50.151 L49.564,52.503 L49.663,54.882 L49.493,57.257 L49.054,59.598 L48.354,61.874 L47.400,64.055 L45.113,63.395 L42.915,62.479 L40.834,61.321 L38.898,59.935 L37.132,58.338 L35.557,56.552 L34.195,54.599 L33.063,52.504 L32.175,50.295 L31.543,47.999 L31.175,45.647 L31.076,43.268 L31.246,40.893 L31.685,38.552 L32.385,36.277 L33.338,34.095 L34.248,36.295 L34.903,38.584 L35.295,40.933 L35.418,43.311 L35.271,45.688 L34.856,48.032 L34.178,50.315 L33.247,52.506 L32.073,54.578 L30.672,56.503 L29.062,58.258 L27.264,59.819 L25.301,61.166 L23.198,62.283 L20.982,63.154 L18.682,63.769 L17.772,61.569 L17.117,59.279 L16.726,56.931 L16.602,54.553 L16.749,52.176 L17.164,49.831 L17.842,47.549 L18.774,45.358 L19.947,43.286 L21.348,41.360 L22.958,39.606 L24.756,38.045 L26.719,36.697 L28.822,35.581 L31.038,34.710 L33.338,34.095 L32.185,36.178 L30.804,38.117 L29.212,39.888 L27.429,41.467 L25.480,42.834 L23.388,43.971 L21.181,44.865 L18.887,45.502 L16.535,45.876 L14.156,45.982 L11.781,45.817 L9.439,45.385 L7.162,44.690 L4.978,43.742 L2.915,42.552 L1.000,41.137 L2.153,39.054 L3.535,37.115 L5.127,35.344 L6.909,33.765 L8.859,32.398 L10.951,31.261 L13.158,30.368 L15.452,29.730 L17.803,29.356 L20.182,29.250 L22.558,29.415 L24.899,29.848 L27.177,30.542 L29.361,31.490 L31.424,32.680 L33.338,34.095 L30.991,34.492 L28.613,34.621 L26.236,34.480 L23.891,34.071 L21.606,33.399 L19.413,32.473 L17.338,31.304 L15.409,29.908 L13.651,28.303 L12.085,26.509 L10.733,24.549 L9.611,22.449 L8.734,20.235 L8.114,17.936 L7.757,15.582 L7.670,13.202 L10.017,12.805 L12.395,12.676 L14.772,12.817 L17.118,13.226 L19.402,13.898 L21.596,14.824 L23.670,15.993 L25.599,17.389 L27.358,18.994 L28.923,20.788 L30.275,22.748 L31.397,24.848 L32.274,27.062 L32.895,29.361 L33.251,31.715 L33.338,34.095 L31.564,32.507 L29.981,30.729 L28.609,28.782 L27.466,26.693 L26.567,24.489 L25.924,22.196 L25.544,19.845 L25.433,17.467 L25.592,15.091 L26.018,12.749 L26.707,10.469 L27.650,8.283 L28.834,6.217 L30.244,4.299 L31.863,2.552 L33.669,1.000 L35.443,2.588 L37.026,4.366 L38.398,6.312 L39.541,8.401 L40.440,10.606 L41.083,12.899 L41.463,15.249 L41.574,17.628 L41.416,20.004 L40.989,22.346 L40.300,24.625 L39.357,26.812 L38.173,28.878 L36.763,30.796 L35.144,32.543 L33.338,34.095 L33.869,33.639 L33.338,34.095 L33.869,33.639 L33.338,34.095"/>
  <path fill="none" stroke="#3a4e8c" stroke-width="0.4" stroke-linecap="round" stroke-linejoin="round" d="M33.689,33.489 L33.338,34.095 L33.689,33.489 L33.338,34.095 L34.578,31.952 L36.126,30.021 L37.948,28.345 L40.001,26.962 L42.239,25.905 L44.611,25.197 L47.062,24.854 L49.538,24.885 L51.980,25.289 L54.333,26.056 L56.544,27.168 L58.563,28.602 L57.323,30.744 L55.775,32.676 L53.953,34.352 L51.900,35.734 L49.662,36.792 L47.290,37.500 L44.839,37.842 L42.363,37.811 L39.921,37.408 L37.568,36.641 L35.357,35.528 L33.338,34.095 L35.786,33.728 L38.262,33.734 L40.708,34.113 L43.069,34.857 L45.291,35.947 L47.323,37.360 L49.120,39.063 L50.639,41.018 L51.846,43.179 L52.714,45.497 L53.222,47.919 L53.360,50.391 L50.912,50.758 L48.437,50.752 L45.991,50.372 L43.630,49.629 L41.408,48.538 L39.375,47.125 L37.579,45.422 L36.060,43.468 L34.853,41.307 L33.985,38.989 L33.476,36.566 L33.338,34.095 L35.152,35.780 L36.690,37.719 L37.919,39.868 L38.810,42.177 L39.343,44.595 L39.505,47.065 L39.293,49.531 L38.712,51.937 L37.776,54.228 L36.504,56.352 L34.927,58.260 L33.081,59.909 L31.268,58.224 L29.729,56.284 L28.501,54.136 L27.610,51.826 L27.077,49.409 L26.915,46.939 L27.126,44.473 L27.707,42.067 L28.644,39.775 L29.915,37.651 L31.492,35.743 L33.338,34.095 L33.151,36.563 L32.595,38.975 L31.681,41.275 L30.431,43.412 L28.873,45.335 L27.043,47.002 L24.983,48.375 L22.740,49.421 L20.364,50.117 L17.911,50.447 L15.436,50.404 L12.996,49.988 L13.183,47.520 L13.740,45.108 L14.654,42.808 L15.904,40.671 L17.461,38.748 L19.291,37.081 L21.351,35.708 L23.595,34.662 L25.970,33.966 L28.423,33.636 L30.898,33.679 L33.338,34.095 L31.292,35.487 L29.059,36.556 L26.691,37.276 L24.241,37.630 L21.766,37.612 L19.322,37.221 L16.964,36.465 L14.748,35.364 L12.723,33.941 L10.935,32.229 L9.426,30.267 L8.229,28.100 L10.275,26.707 L12.508,25.639 L14.877,24.919 L17.326,24.564 L19.802,24.583 L22.246,24.974 L24.603,25.729 L26.820,26.831 L28.845,28.254 L30.633,29.966 L32.142,31.928 L33.338,34.095 L30.974,33.363 L28.746,32.284 L26.707,30.881 L24.902,29.187 L23.373,27.240 L22.155,25.085 L21.276,22.771 L20.755,20.351 L20.605,17.880 L20.829,15.415 L21.422,13.012 L22.370,10.726 L24.735,11.457 L26.962,12.537 L29.002,13.940 L30.807,15.634 L32.335,17.580 L33.553,19.735 L34.433,22.049 L34.953,24.469 L35.103,26.940 L34.880,29.405 L34.287,31.808 L33.338,34.095 L32.436,31.790 L31.891,29.375 L31.717,26.906 L31.916,24.439 L32.485,22.030 L33.410,19.734 L34.671,17.604 L36.238,15.688 L38.076,14.030 L40.143,12.668 L42.392,11.633 L44.771,10.949 L45.673,13.254 L46.218,15.669 L46.393,18.138 L46.193,20.605 L45.624,23.014 L44.699,25.310 L43.438,27.440 L41.871,29.356 L40.033,31.014 L37.966,32.376 L35.717,33.411 L33.338,34.095 L34.011,33.901 L33.338,34.095 L34.011,33.901 L33.338,34.095"/>
  <path fill="none" stroke="#d9a441" stroke-width="0.4" stroke-linecap="round" stroke-linejoin="round" d="M33.409,33.398 L33.338,34.095 L33.409,33.398 L33.338,34.095 L33.577,31.739 L34.282,29.479 L35.426,27.406 L36.962,25.604 L38.828,24.146 L40.948,23.092 L43.236,22.483 L45.600,22.346 L47.944,22.684 L47.705,25.040 L47.000,27.300 L45.856,29.373 L44.320,31.175 L42.454,32.633 L40.334,33.687 L38.046,34.296 L35.682,34.433 L33.338,34.095 L35.329,32.812 L37.536,31.955 L39.870,31.556 L42.236,31.634 L44.539,32.184 L46.686,33.184 L48.588,34.593 L50.169,36.356 L51.366,38.399 L49.375,39.681 L47.168,40.539 L44.834,40.937 L42.468,40.860 L40.165,40.310 L38.019,39.310 L36.116,37.900 L34.535,36.138 L33.338,34.095 L35.582,34.851 L37.629,36.042 L39.395,37.619 L40.810,39.517 L41.816,41.661 L42.373,43.962 L42.457,46.328 L42.065,48.663 L41.213,50.873 L38.970,50.116 L36.923,48.925 L35.156,47.349 L33.741,45.450 L32.735,43.307 L32.179,41.006 L32.095,38.639 L32.487,36.304 L33.338,34.095 L34.146,36.321 L34.491,38.663 L34.360,41.027 L33.758,43.317 L32.709,45.440 L31.257,47.310 L29.459,48.851 L27.389,50.001 L25.131,50.712 L24.323,48.486 L23.978,46.144 L24.109,43.780 L24.711,41.490 L25.760,39.367 L27.213,37.497 L29.010,35.956 L31.080,34.806 L33.338,34.095 L32.102,36.114 L30.485,37.844 L28.555,39.216 L26.390,40.173 L24.076,40.677 L21.708,40.707 L19.383,40.262 L17.193,39.360 L15.229,38.039 L16.466,36.020 L18.082,34.289 L20.012,32.918 L22.178,31.961 L24.491,31.457 L26.859,31.427 L29.185,31.871 L31.374,32.773 L33.338,34.095 L30.989,34.387 L28.628,34.202 L26.353,33.548 L24.254,32.451 L22.418,30.957 L20.918,29.125 L19.816,27.029 L19.155,24.755 L18.964,22.395 L21.314,22.103 L23.674,22.288 L25.950,22.942 L28.049,24.038 L29.885,25.533 L31.385,27.365 L32.487,29.461 L33.147,31.735 L33.338,34.095 L31.645,32.440 L30.318,30.479 L29.410,28.292 L28.959,25.968 L28.983,23.600 L29.480,21.285 L30.431,19.117 L31.797,17.183 L33.523,15.562 L35.217,17.217 L36.544,19.178 L37.451,21.365 L37.903,23.689 L37.879,26.057 L37.382,28.371 L36.430,30.540 L35.064,32.474 L33.338,34.095 L33.849,33.616 L33.338,34.095 L33.849,33.616 L33.338,34.095"/>
  <path fill="none" stroke="#8c4a6b" stroke-width="0.4" stroke-linecap="round" stroke-linejoin="round" d="M33.721,33.509 L33.338,34.095 L33.721,33.509 L33.338,34.095 L34.348,32.549 L35.720,31.314 L37.363,30.471 L39.167,30.078 L41.011,30.161 L42.773,30.714 L44.334,31.700 L43.324,33.246 L41.952,34.482 L40.309,35.324 L38.505,35.717 L36.661,35.634 L34.899,35.081 L33.338,34.095 L35.176,33.920 L36.998,34.223 L38.681,34.982 L40.113,36.147 L41.198,37.641 L41.864,39.363 L42.066,41.198 L40.228,41.373 L38.407,41.070 L36.724,40.311 L35.292,39.146 L34.207,37.652 L33.541,35.930 L33.338,34.095 L34.621,35.423 L35.520,37.035 L35.976,38.825 L35.957,40.671 L35.466,42.451 L34.535,44.045 L33.226,45.347 L31.944,44.019 L31.045,42.406 L30.589,40.617 L30.607,38.771 L31.099,36.991 L32.030,35.397 L33.338,34.095 L33.100,35.926 L32.400,37.634 L31.285,39.106 L29.830,40.242 L28.132,40.968 L26.305,41.234 L24.471,41.023 L24.710,39.192 L25.410,37.484 L26.525,36.012 L27.980,34.875 L29.677,34.150 L31.504,33.884 L33.338,34.095 L31.758,35.050 L29.986,35.567 L28.140,35.613 L26.345,35.185 L24.719,34.310 L23.372,33.047 L22.393,31.482 L23.974,30.527 L25.746,30.009 L27.591,29.963 L29.387,30.392 L31.013,31.267 L32.360,32.529 L33.338,34.095 L31.607,33.455 L30.097,32.392 L28.910,30.978 L28.126,29.306 L27.796,27.490 L27.943,25.649 L28.557,23.908 L30.289,24.548 L31.799,25.611 L32.986,27.025 L33.770,28.697 L34.100,30.513 L33.953,32.354 L33.338,34.095 L32.759,32.342 L32.649,30.499 L33.015,28.689 L33.832,27.034 L35.047,25.643 L36.578,24.611 L38.322,24.006 L38.901,25.759 L39.011,27.602 L38.646,29.411 L37.828,31.067 L36.613,32.457 L35.083,33.489 L33.338,34.095 L34.000,33.865 L33.338,34.095 L34.000,33.865 L33.338,34.095"/>
</svg>
