<svg xmlns="http://www.w3.org/2000/svg" viewBox="0 -7.415 68.604 68.604" width="256" height="256">
  <title>functional</title>
  <rect x="0" y="-7.415" width="68.604" height="68.604" fill="#f5efe4"/>
  <path fill="none" stroke="#31604f" stroke-width="0.4" stroke-linecap="round" stroke-linejoin="round" d="M3.375,8.000 L3.375,8.000 M3.375,8.000 L4.175,9.325 L4.975,6.675 L5.775,9.325 L6.575,6.675 L7.375,9.325 L8.175,6.675 L8.975,9.325 L9.775,6.675 L10.575,9.325 L11.375,6.675 L12.175,9.325 L12.975,6.675 L13.775,9.325 L14.575,6.675 L15.375,9.325 L15.173,8.655 L15.375,9.325 L15.173,8.655 L15.375,9.325 M3.375,8.000 L4.075,8.000 L3.375,8.000 L4.075,8.000 L3.375,8.000 M3.375,8.000 L3.675,6.675 L3.975,9.325 L4.275,6.675 L4.575,9.325 L4.875,6.675 L5.175,9.325 L5.475,6.675 L5.775,9.325 L6.075,6.675 L6.375,9.325 L6.675,6.675 L6.975,9.325 L7.275,6.675 L7.575,9.325 L7.875,6.675 L8.175,9.325 L8.475,6.675 L8.775,9.325 L9.075,6.675 L9.375,9.325 L9.675,6.675 L9.975,9.325 L10.275,6.675 L10.575,9.325 L10.875,6.675 L11.175,9.325 L11.475,6.675 L11.775,9.325 L12.075,6.675 L12.375,9.325 L12.675,6.675 L12.975,9.325 L13.275,6.675 L13.575,9.325 L13.875,6.675 L14.175,9.325 L14.475,6.675 L14.775,9.325 L15.075,6.675 L15.375,9.325 L15.296,8.629 L15.375,9.325 L15.296,8.629 L15.375,9.325 M20.375,15.000 L21.075,15.000 L20.375,15.000 L21.075,15.000 L20.375,15.000 L22.375,15.000 L20.375,15.000 L22.375,15.000 L24.375,15.000 L22.375,15.000 L24.375,15.000 L26.375,15.000 L24.375,15.000 L26.375,15.000 L28.375,15.000 L26.375,15.000 L28.375,15.000 L30.375,15.000 L28.375,15.000 L30.375,15.000 L32.375,15.000 L30.375,15.000 L32.375,15.000 L34.375,15.000 L32.375,15.000 L34.375,15.000 L34.375,13.000 L34.375,15.000 L34.375,13.000 L34.375,11.000 L34.375,13.000 L34.375,11.000 L34.375,9.000 L34.375,11.000 L34.375,9.000 L34.375,7.000 L34.375,9.000 L34.375,7.000 L34.375,5.000 L34.375,7.000 L34.375,5.000 L34.375,3.000 L34.375,5.000 L34.375,3.000 L34.375,1.000 L34.375,3.000 L34.375,1.000 L32.375,1.000 L34.375,1.000 L32.375,1.000 L30.375,1.000 L32.375,1.000 L30.375,1.000 L28.375,1.000 L30.375,1.000 L28.375,1.000 L26.375,1.000 L28.375,1.000 L26.375,1.000 L24.375,1.000 L26.375,1.000 L24.375,1.000 L22.375,1.000 L24.375,1.000 L22.375,1.000 L20.375,1.000 L22.375,1.000 L20.375,1.000 L20.375,3.000 L20.375,1.000 L20.375,3.000 L20.375,5.000 L20.375,3.000 L20.375,5.000 L20.375,7.000 L20.375,5.000 L20.375,7.000 L20.375,9.000 L20.375,7.000 L20.375,9.000 L20.375,11.000 L20.375,9.000 L20.375,11.000 L20.375,13.000 L20.375,11.000 L20.375,13.000 L20.375,15.000 L20.375,13.000 L20.375,15.000 L21.775,13.600 L20.375,15.000 L21.775,13.600 L23.175,12.200 L21.775,13.600 L23.175,12.200 L24.575,10.800 L23.175,12.200 L24.575,10.800 L25.975,9.400 L24.575,10.800 L25.975,9.400 L27.375,8.000 L25.975,9.400 L27.375,8.000 L28.775,6.600 L27.375,8.000 L28.775,6.600 L30.175,5.200 L28.775,6.600 L30.175,5.200 L31.575,3.800 L30.175,5.200 L31.575,3.800 L32.975,2.400 L31.575,3.800 L32.975,2.400 L34.375,1.000 L32.975,2.400 L34.375,1.000 L34.375,3.000 L34.375,1.000 L34.375,3.000 L34.375,5.000 L34.375,3.000 L34.375,5.000 L34.375,7.000 L34.375,5.000 L34.375,7.000 L34.375,9.000 L34.375,7.000 L34.375,9.000 L34.375,11.000 L34.375,9.000 L34.375,11.000 L34.375,13.000 L34.375,11.000 L34.375,13.000 L34.375,15.000 L34.375,13.000 L34.375,15.000 L32.975,13.600 L34.375,15.000 L32.975,13.600 L31.575,12.200 L32.975,13.600 L31.575,12.200 L30.175,10.800 L31.575,12.200 L30.175,10.800 L28.775,9.400 L30.175,10.800 L28.775,9.400 L27.375,8.000 L28.775,9.400 L27.375,8.000 L25.975,6.600 L27.375,8.000 L25.975,6.600 L24.575,5.200 L25.975,6.600 L24.575,5.200 L23.175,3.800 L24.575,5.200 L23.175,3.800 L21.775,2.400 L23.175,3.800 L21.775,2.400 L20.375,1.000 L21.775,2.400 L20.375,1.000 L20.870,1.495 L20.375,1.000 L20.870,1.495 L20.375,1.000 M56.375,8.000 L56.466,7.306 L56.375,8.000 L56.466,7.306 L56.375,8.000 M56.375,8.000 L55.352,7.536 L57.526,7.493 L55.437,6.889 L57.611,6.846 L55.677,5.993 L57.391,6.350 L55.927,5.390 L58.038,5.911 L56.391,4.587 L57.954,5.375 L56.788,4.069 L58.692,5.119 L57.444,3.413 L58.750,4.579 L57.962,3.016 L59.529,4.523 L58.765,2.552 L59.725,4.016 L59.368,2.302 L60.492,4.164 L60.264,2.062 L60.812,3.725 L60.911,1.977 L61.515,4.066 L61.839,1.977 L61.938,3.725 L62.486,2.062 L62.529,4.236 L63.382,2.302 L63.025,4.016 L63.985,2.552 L63.464,4.663 L64.788,3.016 L64.000,4.579 L65.306,3.413 L64.256,5.317 L65.962,4.069 L64.796,5.375 L66.359,4.587 L64.852,6.154 L66.823,5.390 L65.359,6.350 L67.073,5.993 L65.211,7.117 L67.313,6.889 L65.650,7.437 L67.398,7.536 L65.309,8.140 L67.398,8.464 L65.650,8.563 L67.313,9.111 L65.139,9.154 L67.073,10.007 L65.359,9.650 L66.823,10.610 L64.712,10.089 L66.359,11.413 L64.796,10.625 L65.962,11.931 L64.058,10.881 L65.306,12.587 L64.000,11.421 L64.788,12.984 L63.221,11.477 L63.985,13.448 L63.025,11.984 L63.382,13.698 L62.258,11.836 L62.486,13.938 L61.938,12.275 L61.839,14.023 L61.235,11.934 L60.911,14.023 L60.812,12.275 L60.264,13.938 L60.221,11.764 L59.368,13.698 L59.725,11.984 L58.765,13.448 L59.286,11.337 L57.962,12.984 L58.750,11.421 L57.444,12.587 L58.494,10.683 L56.788,11.931 L57.954,10.625 L56.391,11.413 L57.898,9.846 L55.927,10.610 L57.391,9.650 L55.677,10.007 L57.539,8.883 L55.437,9.111 L57.100,8.563 L55.352,8.464 L57.441,7.860 M59.875,8.000 L59.146,7.597 L60.723,7.497 L59.226,6.993 L60.540,6.991 L59.511,6.235 L61.060,6.547 L59.914,5.537 L61.084,6.050 L60.285,5.053 L61.614,5.955 L60.912,4.539 L61.908,5.338 L61.610,4.136 L62.484,5.452 L62.173,3.903 L62.832,5.041 L62.972,3.771 L63.476,5.268 L63.778,3.771 L63.918,5.041 L64.382,3.851 L64.266,5.452 L65.140,4.136 L64.947,5.399 L65.838,4.539 L65.136,5.955 L66.322,4.910 L65.666,6.050 L66.836,5.537 L65.791,6.722 L67.239,6.235 L66.210,6.991 L67.472,6.798 L66.027,7.497 L67.604,7.597 L66.414,8.061 L67.604,8.403 L66.027,8.503 L67.524,9.007 L66.210,9.009 L67.239,9.765 L65.690,9.453 L66.836,10.463 L65.666,9.950 L66.465,10.947 L65.136,10.045 L65.838,11.461 L64.842,10.662 L65.140,11.864 L64.266,10.548 L64.577,12.097 L63.918,10.959 L63.778,12.229 L63.274,10.732 L62.972,12.229 L62.832,10.959 L62.368,12.149 L62.484,10.548 L61.610,11.864 L61.803,10.601 L60.912,11.461 L61.614,10.045 L60.428,11.090 L61.084,9.950 L59.914,10.463 L60.959,9.278 L59.511,9.765 L60.540,9.009 L59.278,9.202 L60.723,8.503 L59.146,8.403 L60.336,7.939 L59.684,8.194 L60.336,7.939 L59.684,8.194 L60.336,7.939"/>
  <path fill="none" stroke="#3a4e8c" stroke-width="0.4" stroke-linecap="round" stroke-linejoin="round" d="M1.875,44.000 L1.875,43.300 L1.875,44.000 L1.875,43.300 L1.875,44.000 M1.875,44.000 L1.000,43.704 L2.750,43.407 L1.000,43.111 L2.750,42.815 L1.000,42.519 L2.750,42.222 L1.000,41.926 L2.750,41.630 L1.000,41.333 L2.750,41.037 L1.000,40.741 L2.750,40.444 L1.000,40.148 L2.750,39.852 L1.000,39.556 L2.750,39.259 L1.000,38.963 L2.750,38.667 L1.000,38.370 L2.750,38.074 L1.000,37.778 L2.750,37.481 L1.000,37.185 L2.750,36.889 L1.000,36.593 L2.750,36.296 L1.000,36.000 L2.750,35.704 L1.000,35.407 L2.750,35.111 L1.000,34.815 L2.750,34.519 L1.000,34.222 L2.750,33.926 L1.000,33.630 L2.750,33.333 L1.000,33.037 L2.750,32.741 L1.000,32.444 L2.750,32.148 L1.000,31.852 L2.750,31.556 L1.000,31.259 L2.750,30.963 L1.000,30.667 L2.750,30.370 L1.000,30.074 L2.750,29.778 L1.000,29.481 L2.750,29.185 L1.000,28.889 L2.750,28.593 L1.000,28.296 L2.750,28.000 L2.060,28.117 L2.750,28.000 L2.060,28.117 L2.750,28.000 M3.375,20.000 L3.375,20.700 L3.375,20.000 L3.375,20.700 L3.375,20.000 M3.375,20.000 L4.250,20.296 L2.500,20.593 L4.250,20.889 L2.500,21.185 L4.250,21.481 L2.500,21.778 L4.250,22.074 L2.500,22.370 L4.250,22.667 L2.500,22.963 L4.250,23.259 L2.500,23.556 L4.250,23.852 L2.500,24.148 L4.250,24.444 L2.500,24.741 L4.250,25.037 L2.500,25.333 L4.250,25.630 L2.500,25.926 L4.250,26.222 L2.500,26.519 L4.250,26.815 L2.500,27.111 L4.250,27.407 L2.500,27.704 L4.250,28.000 L2.500,28.296 L4.250,28.593 L2.500,28.889 L4.250,29.185 L2.500,29.481 L4.250,29.778 L2.500,30.074 L4.250,30.370 L2.500,30.667 L4.250,30.963 L2.500,31.259 L4.250,31.556 L2.500,31.852 L4.250,32.148 L2.500,32.444 L4.250,32.741 L2.500,33.037 L4.250,33.333 L2.500,33.630 L4.250,33.926 L2.500,34.222 L4.250,34.519 L2.500,34.815 L4.250,35.111 L2.500,35.407 L4.250,35.704 L2.500,36.000 M0.875,36.000 L1.169,35.225 L1.463,36.775 L1.757,35.225 L2.051,36.775 L2.346,35.225 L2.640,36.775 L2.934,35.225 L3.228,36.775 L3.522,35.225 L3.816,36.775 L4.110,35.225 L4.404,36.775 L4.699,35.225 L4.993,36.775 L5.287,35.225 L5.581,36.775 L5.875,35.225 L5.745,35.913 L5.875,35.225 L5.745,35.913 L5.875,35.225 M3.375,52.000 L4.075,52.000 L3.375,52.000 L4.075,52.000 L3.375,52.000 M3.375,52.000 L3.669,52.775 L3.963,51.225 L4.257,52.775 L4.551,51.225 L4.846,52.775 L5.140,51.225 L5.434,52.775 L5.728,51.225 L6.022,52.775 L6.316,51.225 L6.610,52.775 L6.904,51.225 L7.199,52.775 L7.493,51.225 L7.787,52.775 L8.081,51.225 L8.375,52.775 L8.245,52.087 L8.375,52.775 L8.245,52.087 L8.375,52.775 M36.375,36.000 L36.451,35.304 L36.375,36.000 L36.451,35.304 L36.375,36.000 L36.585,34.065 L33.603,33.741 L36.585,34.065 L37.207,32.221 L34.364,31.263 L37.207,32.221 L38.210,30.553 L35.640,29.007 L38.210,30.553 L39.549,29.141 L37.371,27.077 L39.549,29.141 L41.159,28.048 L39.476,25.565 L41.159,28.048 L42.967,27.328 L41.857,24.541 L42.967,27.328 L44.888,27.013 L44.402,24.053 L44.888,27.013 L46.831,27.119 L46.993,24.123 L46.831,27.119 L48.706,27.639 L49.509,24.749 L48.706,27.639 L50.426,28.551 L51.831,25.900 L50.426,28.551 L51.909,29.811 L53.851,27.524 L51.909,29.811 L53.087,31.360 L55.475,29.544 L53.087,31.360 L53.904,33.126 L56.627,31.867 L53.904,33.126 L54.322,35.027 L57.252,34.382 L54.322,35.027 L54.322,36.973 L57.322,36.973 L54.322,36.973 L53.904,38.874 L56.834,39.519 L53.904,38.874 L53.087,40.640 L55.809,41.900 L53.087,40.640 L51.909,42.189 L54.297,44.005 L51.909,42.189 L50.426,43.449 L52.368,45.736 L50.426,43.449 L48.706,44.361 L50.111,47.011 L48.706,44.361 L46.831,44.881 L47.634,47.772 L46.831,44.881 L44.888,44.987 L45.050,47.982 L44.888,44.987 L42.967,44.672 L42.482,47.632 L42.967,44.672 L41.159,43.952 L40.049,46.739 L41.159,43.952 L39.549,42.859 L37.865,45.343 L39.549,42.859 L38.210,41.447 L36.032,43.510 L38.210,41.447 L37.207,39.779 L34.636,41.326 L37.207,39.779 L36.585,37.935 L33.742,38.893 L36.585,37.935 L36.375,36.000 L33.393,36.324 L36.375,36.000 L35.679,36.076 L36.375,36.000 L35.679,36.076 L36.375,36.000 M51.375,45.000 L51.375,44.300 L51.375,45.000 L51.375,44.300 L51.375,45.000 L51.375,43.000 L51.375,45.000 L51.375,43.000 L51.375,41.000 L51.375,43.000 L51.375,41.000 L51.375,39.000 L51.375,41.000 L51.375,39.000 L51.375,37.000 L51.375,39.000 L51.375,37.000 L51.375,35.000 L51.375,37.000 L51.375,35.000 L51.375,33.000 L51.375,35.000 L51.375,33.000 L51.375,31.000 L51.375,33.000 L51.375,31.000 L51.375,29.000 L51.375,31.000 L51.375,29.000 L51.375,27.000 L51.375,29.000 L51.375,27.000 L51.375,27.700 L51.375,27.000 L51.375,27.700 L51.375,27.000"/>
</svg>
