<svg xmlns="http://www.w3.org/2000/svg" viewBox="0 -9.3 77.6 77.6" width="256" height="256">
  <title>gradientfill</title>
  <rect x="0" y="-9.3" width="77.6" height="77.6" fill="#f4efe6"/>
  <path fill="none" stroke="#1b6ca8" stroke-width="0.4" stroke-linecap="round" stroke-linejoin="round" d="M76.600,58.000 L76.600,58.000 L76.600,55.500 L76.600,53.000 L76.600,50.500 L76.600,48.000 L76.600,45.500 L76.600,43.000 L76.600,40.500 L76.600,38.000 L76.600,35.500 L76.600,33.000 L76.600,30.500 L76.600,28.000 L76.600,25.500 L76.600,23.000 L76.600,20.500 L76.600,18.000 L76.600,15.500 L76.600,13.000 L76.600,10.500 L76.600,8.000 L76.600,5.500 L76.600,3.000 L76.600,1.000 M76.200,1.000 L76.200,3.500 L76.200,6.000 L76.200,8.500 L76.200,11.000 L76.200,13.500 L76.200,16.000 L76.200,18.500 L76.200,21.000 L76.200,23.500 L76.200,26.000 L76.200,28.500 L76.200,31.000 L76.200,33.500 L76.200,36.000 L76.200,38.500 L76.200,41.000 L76.200,43.500 L76.200,46.000 L76.200,48.500 L76.200,51.000 L76.200,53.500 L76.200,56.000 L76.200,58.000 M75.800,58.000 L75.800,55.500 L75.800,53.000 L75.800,50.500 L75.800,48.000 L75.800,45.500 L75.800,43.000 L75.800,40.500 L75.800,38.000 L75.800,35.500 L75.800,33.000 L75.800,30.500 L75.800,28.000 L75.800,25.500 L75.800,23.000 L75.800,20.500 L75.800,18.000 L75.800,15.500 L75.800,13.000 L75.800,10.500 L75.800,8.000 L75.800,5.500 L75.800,3.000 L75.800,1.000 M75.400,1.000 L75.400,3.500 L75.400,6.000 L75.400,8.500 L75.400,11.000 L75.400,13.500 L75.400,16.000 L75.400,18.500 L75.400,21.000 L75.400,23.500 L75.400,26.000 L75.400,28.500 L75.400,31.000 L75.400,33.500 L75.400,36.000 L75.400,38.500 L75.400,41.000 L75.400,43.500 L75.400,46.000 L75.400,48.500 L75.400,51.000 L75.400,53.500 L75.400,56.000 L75.400,58.000 M75.000,58.000 L75.000,55.500 L75.000,53.000 L75.000,50.500 L75.000,48.000 L75.000,45.500 L75.000,43.000 L75.000,40.500 L75.000,38.000 L75.000,35.500 L75.000,33.000 L75.000,30.500 L75.000,28.000 L75.000,25.500 L75.000,23.000 L75.000,20.500 L75.000,18.000 L75.000,15.500 L75.000,13.000 L75.000,10.500 L75.000,8.000 L75.000,5.500 L75.000,3.000 L75.000,1.000 M74.600,1.000 L74.600,3.500 L74.600,6.000 L74.600,8.500 L74.600,11.000 L74.600,13.500 L74.600,16.000 L74.600,18.500 L74.600,21.000 L74.600,23.500 L74.600,26.000 L74.600,28.500 L74.600,31.000 L74.600,33.500 L74.600,36.000 L74.600,38.500 L74.600,41.000 L74.600,43.500 L74.600,46.000 L74.600,48.500 L74.600,51.000 L74.600,53.500 L74.600,56.000 L74.600,58.000 M74.200,58.000 L74.200,55.500 L74.200,53.000 L74.200,50.500 L74.200,48.000 L74.200,45.500 L74.200,43.000 L74.200,40.500 L74.200,38.000 L74.200,35.500 L74.200,33.000 L74.200,30.500 L74.200,28.000 L74.200,25.500 L74.200,23.000 L74.200,20.500 L74.200,18.000 L74.200,15.500 L74.200,13.000 L74.200,10.500 L74.200,8.000 L74.200,5.500 L74.200,3.000 L74.200,1.000 M73.800,1.000 L73.800,3.500 L73.800,6.000 L73.800,8.500 L73.800,11.000 L73.800,13.500 L73.800,16.000 L73.800,18.500 L73.800,21.000 L73.800,23.500 L73.800,26.000 L73.800,28.500 L73.800,31.000 L73.800,33.500 L73.800,36.000 L73.800,38.500 L73.800,41.000 L73.800,43.500 L73.800,46.000 L73.800,48.500 L73.800,51.000 L73.800,53.500 L73.800,56.000 L73.800,58.000 M73.400,58.000 L73.400,55.500 L73.400,53.000 L73.400,50.500 L73.400,48.000 L73.400,45.500 L73.400,43.000 L73.400,40.500 L73.400,38.000 L73.400,35.500 L73.400,33.000 L73.400,30.500 L73.400,28.000 L73.400,25.500 L73.400,23.000 L73.400,20.500 L73.400,18.000 L73.400,15.500 L73.400,13.000 L73.400,10.500 L73.400,8.000 L73.400,5.500 L73.400,3.000 L73.400,1.000 M73.000,1.000 L73.000,3.500 L73.000,6.000 L73.000,8.500 L73.000,11.000 L73.000,13.500 L73.000,16.000 L73.000,18.500 L73.000,21.000 L73.000,23.500 L73.000,26.000 L73.000,28.500 L73.000,31.000 L73.000,33.500 L73.000,36.000 L73.000,38.500 L73.000,41.000 L73.000,43.500 L73.000,46.000 L73.000,48.500 L73.000,51.000 L73.000,53.500 L73.000,56.000 L73.000,58.000 M72.600,58.000 L72.600,55.500 L72.600,53.000 L72.600,50.500 L72.600,48.000 L72.600,45.500 L72.600,43.000 L72.600,40.500 L72.600,38.000 L72.600,35.500 L72.600,33.000 L72.600,30.500 L72.600,28.000 L72.600,25.500 L72.600,23.000 L72.600,20.500 L72.600,18.000 L72.600,15.500 L72.600,13.000 L72.600,10.500 L72.600,8.000 L72.600,5.500 L72.600,3.000 L72.600,1.000 M72.200,1.000 L72.200,3.500 L72.200,6.000 L72.200,8.500 L72.200,11.000 L72.200,13.500 L72.200,16.000 L72.200,18.500 L72.200,21.000 L72.200,23.500 L72.200,26.000 L72.200,28.500 L72.200,31.000 L72.200,33.500 L72.200,36.000 L72.200,38.500 L72.200,41.000 L72.200,43.500 L72.200,46.000 L72.200,48.500 L72.200,51.000 L72.200,53.500 L72.200,56.000 L72.200,58.000 M71.800,58.000 L71.800,55.500 L71.800,53.000 L71.800,50.500 L71.800,48.000 L71.800,45.500 L71.800,43.000 L71.800,40.500 L71.800,38.000 L71.800,35.500 L71.800,33.000 L71.800,30.500 L71.800,28.000 L71.800,25.500 L71.800,23.000 L71.800,20.500 L71.800,18.000 L71.800,15.500 L71.800,13.000 L71.800,10.500 L71.800,8.000 L71.800,5.500 L71.800,3.000 L71.800,1.000 M71.400,1.000 L71.400,3.500 L71.400,6.000 L71.400,8.500 L71.400,11.000 L71.400,13.500 L71.400,16.000 L71.400,18.500 L71.400,21.000 L71.400,23.500 L71.400,26.000 L71.400,28.500 L71.400,31.000 L71.400,33.500 L71.400,36.000 L71.400,38.500 L71.400,41.000 L71.400,43.500 L71.400,46.000 L71.400,48.500 L71.400,51.000 L71.400,53.500 L71.400,56.000 L71.400,58.000 M71.000,58.000 L71.000,55.500 L71.000,53.000 L71.000,50.500 L71.000,48.000 L71.000,45.500 L71.000,43.000 L71.000,40.500 L71.000,38.000 L71.000,35.500 L71.000,33.000 L71.000,30.500 L71.000,28.000 L71.000,25.500 L71.000,23.000 L71.000,20.500 L71.000,18.000 L71.000,15.500 L71.000,13.000 L71.000,10.500 L71.000,8.000 L71.000,5.500 L71.000,3.000 L71.000,1.000 M70.600,1.000 L70.600,3.500 L70.600,6.000 L70.600,8.500 L70.600,11.000 L70.600,13.500 L70.600,16.000 L70.600,18.500 L70.600,21.000 L70.600,23.500 L70.600,26.000 L70.600,28.500 L70.600,31.000 L70.600,33.500 L70.600,36.000 L70.600,38.500 L70.600,41.000 L70.600,43.500 L70.600,46.000 L70.600,48.500 L70.600,51.000 L70.600,53.500 L70.600,56.000 L70.600,58.000 M70.200,58.000 L70.200,55.500 L70.200,53.000 L70.200,50.500 L70.200,48.000 L70.200,45.500 L70.200,43.000 L70.200,40.500 L70.200,38.000 L70.200,35.500 L70.200,33.000 L70.200,30.500 L70.200,28.000 L70.200,25.500 L70.200,23.000 L70.200,20.500 L70.200,18.000 L70.200,15.500 L70.200,13.000 L70.200,10.500 L70.200,8.000 L70.200,5.500 L70.200,3.000 L70.200,1.000 M69.800,1.000 L69.800,3.500 L69.800,6.000 L69.800,8.500 L69.800,11.000 L69.800,13.500 L69.800,16.000 L69.800,18.500 L69.800,21.000 L69.800,23.500 L69.800,26.000 L69.800,28.500 L69.800,31.000 L69.800,33.500 L69.800,36.000 L69.800,38.500 L69.800,41.000 L69.800,43.500 L69.800,46.000 L69.800,48.500 L69.800,51.000 L69.800,53.500 L69.800,56.000 L69.800,58.000 M69.400,58.000 L69.400,55.500 L69.400,53.000 L69.400,50.500 L69.400,48.000 L69.400,45.500 L69.400,43.000 L69.400,40.500 L69.400,38.000 L69.400,35.500 L69.400,33.000 L69.400,30.500 L69.400,28.000 L69.400,25.500 L69.400,23.000 L69.400,20.500 L69.400,18.000 L69.400,15.500 L69.400,13.000 L69.400,10.500 L69.400,8.000 L69.400,5.500 L69.400,3.000 L69.400,1.000 M69.000,1.000 L69.000,3.500 L69.000,6.000 L69.000,8.500 L69.000,11.000 L69.000,13.500 L69.000,16.000 L69.000,18.500 L69.000,21.000 L69.000,23.500 L69.000,26.000 L69.000,28.500 L69.000,31.000 L69.000,33.500 L69.000,36.000 L69.000,38.500 L69.000,41.000 L69.000,43.500 L69.000,46.000 L69.000,48.500 L69.000,51.000 L69.000,53.500 L69.000,56.000 L69.000,58.000 M68.600,58.000 L68.600,55.500 L68.600,53.000 L68.600,50.500 L68.600,48.000 L68.600,45.500 L68.600,43.000 L68.600,40.500 L68.600,38.000 L68.600,35.500 L68.600,33.000 L68.600,30.500 L68.600,28.000 L68.600,25.500 L68.600,23.000 L68.600,20.500 L68.600,18.000 L68.600,15.500 L68.600,13.000 L68.600,10.500 L68.600,8.000 L68.600,5.500 L68.600,3.000 L68.600,1.000 M68.200,1.000 L68.200,3.500 L68.200,6.000 L68.200,8.500 L68.200,11.000 L68.200,13.500 L68.200,16.000 L68.200,18.500 L68.200,21.000 L68.200,23.500 L68.200,26.000 L68.200,28.500 L68.200,31.000 L68.200,33.500 L68.200,36.000 L68.200,38.500 L68.200,41.000 L68.200,43.500 L68.200,46.000 L68.200,48.500 L68.200,51.000 L68.200,53.500 L68.200,56.000 L68.200,58.000 M67.800,58.000 L67.800,55.500 L67.800,53.000 L67.800,50.500 L67.800,48.000 L67.800,45.500 L67.800,43.000 L67.800,40.500 L67.800,38.000 L67.800,35.500 L67.800,33.000 L67.800,30.500 L67.800,28.000 L67.800,25.500 L67.800,23.000 L67.800,20.500 L67.800,18.000 L67.800,15.500 L67.800,13.000 L67.800,10.500 L67.800,8.000 L67.800,5.500 L67.800,3.000 L67.800,1.000 M67.400,1.000 L67.400,3.500 L67.400,6.000 L67.400,8.500 L67.400,11.000 L67.400,13.500 L67.400,16.000 L67.400,18.500 L67.400,21.000 L67.400,23.500 L67.400,26.000 L67.400,28.500 L67.400,31.000 L67.400,33.500 L67.400,36.000 L67.400,38.500 L67.400,41.000 L67.400,43.500 L67.400,46.000 L67.400,48.500 L67.400,51.000 L67.400,53.500 L67.400,56.000 L67.400,58.000 M67.000,58.000 L67.000,55.500 L67.000,53.000 L67.000,50.500 L67.000,48.000 L67.000,45.500 L67.000,43.000 L67.000,40.500 L67.000,38.000 L67.000,35.500 L67.000,33.000 L67.000,30.500 L67.000,28.000 L67.000,25.500 L67.000,23.000 L67.000,20.500 L67.000,18.000 L67.000,15.500 L67.000,13.000 L67.000,10.500 L67.000,8.000 L67.000,5.500 L67.000,3.000 L67.000,1.000 M66.600,1.000 L66.600,3.500 L66.600,6.000 L66.600,8.500 L66.600,11.000 L66.600,13.500 L66.600,16.000 L66.600,18.500 L66.600,21.000 L66.600,23.500 L66.600,26.000 L66.600,28.500 L66.600,31.000 L66.600,33.500 L66.600,36.000 L66.600,38.500 L66.600,41.000 L66.600,43.500 L66.600,46.000 L66.600,48.500 L66.600,51.000 L66.600,53.500 L66.600,56.000 L66.600,58.000 M66.200,58.000 L66.200,55.500 L66.200,53.000 L66.200,50.500 L66.200,48.000 L66.200,45.500 L66.200,43.000 L66.200,40.500 L66.200,38.000 L66.200,35.500 L66.200,33.000 L66.200,30.500 L66.200,28.000 L66.200,25.500 L66.200,23.000 L66.200,20.500 L66.200,18.000 L66.200,15.500 L66.200,13.000 L66.200,10.500 L66.200,8.000 L66.200,5.500 L66.200,3.000 L66.200,1.000 M65.800,1.000 L65.800,3.500 L65.800,6.000 L65.800,8.500 L65.800,11.000 L65.800,13.500 L65.800,16.000 L65.800,18.500 L65.800,21.000 L65.800,23.500 L65.800,26.000 L65.800,28.500 L65.800,31.000 L65.800,33.500 L65.800,36.000 L65.800,38.500 L65.800,41.000 L65.800,43.500 L65.800,46.000 L65.800,48.500 L65.800,51.000 L65.800,53.500 L65.800,56.000 L65.800,58.000 M65.400,58.000 L65.400,55.500 L65.400,53.000 L65.400,50.500 L65.400,48.000 L65.400,45.500 L65.400,43.000 L65.400,40.500 L65.400,38.000 L65.400,35.500 L65.400,33.000 L65.400,30.500 L65.400,28.000 L65.400,25.500 L65.400,23.000 L65.400,20.500 L65.400,18.000 L65.400,15.500 L65.400,13.000 L65.400,10.500 L65.400,8.000 L65.400,5.500 L65.400,3.000 L65.400,1.000 M65.000,1.000 L65.000,3.500 L65.000,6.000 L65.000,8.500 L65.000,11.000 L65.000,13.500 L65.000,16.000 L65.000,18.500 L65.000,21.000 L65.000,23.500 L65.000,26.000 L65.000,28.500 L65.000,31.000 L65.000,33.500 L65.000,36.000 L65.000,38.500 L65.000,41.000 L65.000,43.500 L65.000,46.000 L65.000,48.500 L65.000,51.000 L65.000,53.500 L65.000,56.000 L65.000,58.000 L65.000,57.300 L65.000,58.000 L65.000,57.300 L65.000,58.000 M64.200,1.000 L64.200,1.700 L64.200,1.000 L64.200,1.700 L64.200,1.000 L64.200,3.500 L64.200,6.000 L64.200,8.500 L64.200,11.000 L64.200,13.500 L64.200,16.000 L64.200,18.500 L64.200,21.000 L64.200,23.500 L64.200,26.000 L64.200,28.500 L64.200,31.000 L64.200,33.500 L64.200,36.000 L64.200,38.500 L64.200,41.000 L64.200,43.500 L64.200,46.000 L64.200,48.500 L64.200,51.000 L64.200,53.500 L64.200,56.000 L64.200,58.000 M63.800,58.000 L63.800,55.500 L63.800,53.000 L63.800,50.500 L63.800,48.000 L63.800,45.500 L63.800,43.000 L63.800,40.500 L63.800,38.000 L63.800,35.500 L63.800,33.000 L63.800,30.500 L63.800,28.000 L63.800,25.500 L63.800,23.000 L63.800,20.500 L63.800,18.000 L63.800,15.500 L63.800,13.000 L63.800,10.500 L63.800,8.000 L63.800,5.500 L63.800,3.000 L63.800,1.000 M63.400,1.000 L63.400,3.500 L63.400,6.000 L63.400,8.500 L63.400,11.000 L63.400,13.500 L63.400,16.000 L63.400,18.500 L63.400,21.000 L63.400,23.500 L63.400,26.000 L63.400,28.500 L63.400,31.000 L63.400,33.500 L63.400,36.000 L63.400,38.500 L63.400,41.000 L63.400,43.500 L63.400,46.000 L63.400,48.500 L63.400,51.000 L63.400,53.500 L63.400,56.000 L63.400,58.000 M63.000,58.000 L63.000,55.500 L63.000,53.000 L63.000,50.500 L63.000,48.000 L63.000,45.500 L63.000,43.000 L63.000,40.500 L63.000,38.000 L63.000,35.500 L63.000,33.000 L63.000,30.500 L63.000,28.000 L63.000,25.500 L63.000,23.000 L63.000,20.500 L63.000,18.000 L63.000,15.500 L63.000,13.000 L63.000,10.500 L63.000,8.000 L63.000,5.500 L63.000,3.000 L63.000,1.000 M62.600,1.000 L62.600,3.500 L62.600,6.000 L62.600,8.500 L62.600,11.000 L62.600,13.500 L62.600,16.000 L62.600,18.500 L62.600,21.000 L62.600,23.500 L62.600,26.000 L62.600,28.500 L62.600,31.000 L62.600,33.500 L62.600,36.000 L62.600,38.500 L62.600,41.000 L62.600,43.500 L62.600,46.000 L62.600,48.500 L62.600,51.000 L62.600,53.500 L62.600,56.000 L62.600,58.000 M62.200,58.000 L62.200,55.500 L62.200,53.000 L62.200,50.500 L62.200,48.000 L62.200,45.500 L62.200,43.000 L62.200,40.500 L62.200,38.000 L62.200,35.500 L62.200,33.000 L62.200,30.500 L62.200,28.000 L62.200,25.500 L62.200,23.000 L62.200,20.500 L62.200,18.000 L62.200,15.500 L62.200,13.000 L62.200,10.500 L62.200,8.000 L62.200,5.500 L62.200,3.000 L62.200,1.000 M61.800,1.000 L61.800,3.500 L61.800,6.000 L61.800,8.500 L61.800,11.000 L61.800,13.500 L61.800,16.000 L61.800,18.500 L61.800,21.000 L61.800,23.500 L61.800,26.000 L61.800,28.500 L61.800,31.000 L61.800,33.500 L61.800,36.000 L61.800,38.500 L61.800,41.000 L61.800,43.500 L61.800,46.000 L61.800,48.500 L61.800,51.000 L61.800,53.500 L61.800,56.000 L61.800,58.000 M61.400,58.000 L61.400,55.500 L61.400,53.000 L61.400,50.500 L61.400,48.000 L61.400,45.500 L61.400,43.000 L61.400,40.500 L61.400,38.000 L61.400,35.500 L61.400,33.000 L61.400,30.500 L61.400,28.000 L61.400,25.500 L61.400,23.000 L61.400,20.500 L61.400,18.000 L61.400,15.500 L61.400,13.000 L61.400,10.500 L61.400,8.000 L61.400,5.500 L61.400,3.000 L61.400,1.000 M61.000,1.000 L61.000,3.500 L61.000,6.000 L61.000,8.500 L61.000,11.000 L61.000,13.500 L61.000,16.000 L61.000,18.500 L61.000,21.000 L61.000,23.500 L61.000,26.000 L61.000,28.500 L61.000,31.000 L61.000,33.500 L61.000,36.000 L61.000,38.500 L61.000,41.000 L61.000,43.500 L61.000,46.000 L61.000,48.500 L61.000,51.000 L61.000,53.500 L61.000,56.000 L61.000,58.000 M60.600,58.000 L60.600,55.500 L60.600,53.000 L60.600,50.500 L60.600,48.000 L60.600,45.500 L60.600,43.000 L60.600,40.500 L60.600,38.000 L60.600,35.500 L60.600,33.000 L60.600,30.500 L60.600,28.000 L60.600,25.500 L60.600,23.000 L60.600,20.500 L60.600,18.000 L60.600,15.500 L60.600,13.000 L60.600,10.500 L60.600,8.000 L60.600,5.500 L60.600,3.000 L60.600,1.000 M60.200,1.000 L60.200,3.500 L60.200,6.000 L60.200,8.500 L60.200,11.000 L60.200,13.500 L60.200,16.000 L60.200,18.500 L60.200,21.000 L60.200,23.500 L60.200,26.000 L60.200,28.500 L60.200,31.000 L60.200,33.500 L60.200,36.000 L60.200,38.500 L60.200,41.000 L60.200,43.500 L60.200,46.000 L60.200,48.500 L60.200,51.000 L60.200,53.500 L60.200,56.000 L60.200,58.000 M59.800,58.000 L59.800,55.500 L59.800,53.000 L59.800,50.500 L59.800,48.000 L59.800,45.500 L59.800,43.000 L59.800,40.500 L59.800,38.000 L59.800,35.500 L59.800,33.000 L59.800,30.500 L59.800,28.000 L59.800,25.500 L59.800,23.000 L59.800,20.500 L59.800,18.000 L59.800,15.500 L59.800,13.000 L59.800,10.500 L59.800,8.000 L59.800,5.500 L59.800,3.000 L59.800,1.000 M59.400,1.000 L59.400,3.500 L59.400,6.000 L59.400,8.500 L59.400,11.000 L59.400,13.500 L59.400,16.000 L59.400,18.500 L59.400,21.000 L59.400,23.500 L59.400,26.000 L59.400,28.500 L59.400,31.000 L59.400,33.500 L59.400,36.000 L59.400,38.500 L59.400,41.000 L59.400,43.500 L59.400,46.000 L59.400,48.500 L59.400,51.000 L59.400,53.500 L59.400,56.000 L59.400,58.000 M59.000,58.000 L59.000,55.500 L59.000,53.000 L59.000,50.500 L59.000,48.000 L59.000,45.500 L59.000,43.000 L59.000,40.500 L59.000,38.000 L59.000,35.500 L59.000,33.000 L59.000,30.500 L59.000,28.000 L59.000,25.500 L59.000,23.000 L59.000,20.500 L59.000,18.000 L59.000,15.500 L59.000,13.000 L59.000,10.500 L59.000,8.000 L59.000,5.500 L59.000,3.000 L59.000,1.000 M58.600,1.000 L58.600,3.500 L58.600,6.000 L58.600,8.500 L58.600,11.000 L58.600,13.500 L58.600,16.000 L58.600,18.500 L58.600,21.000 L58.600,23.500 L58.600,26.000 L58.600,28.500 L58.600,31.000 L58.600,33.500 L58.600,36.000 L58.600,38.500 L58.600,41.000 L58.600,43.500 L58.600,46.000 L58.600,48.500 L58.600,51.000 L58.600,53.500 L58.600,56.000 L58.600,58.000 L58.600,57.300 L58.600,58.000 L58.600,57.300 L58.600,58.000 M57.800,1.000 L57.800,1.700 L57.800,1.000 L57.800,1.700 L57.800,1.000 L57.800,3.500 L57.800,6.000 L57.800,8.500 L57.800,11.000 L57.800,13.500 L57.800,16.000 L57.800,18.500 L57.800,21.000 L57.800,23.500 L57.800,26.000 L57.800,28.500 L57.800,31.000 L57.800,33.500 L57.800,36.000 L57.800,38.500 L57.800,41.000 L57.800,43.500 L57.800,46.000 L57.800,48.500 L57.800,51.000 L57.800,53.500 L57.800,56.000 L57.800,58.000 M57.400,58.000 L57.400,55.500 L57.400,53.000 L57.400,50.500 L57.400,48.000 L57.400,45.500 L57.400,43.000 L57.400,40.500 L57.400,38.000 L57.400,35.500 L57.400,33.000 L57.400,30.500 L57.400,28.000 L57.400,25.500 L57.400,23.000 L57.400,20.500 L57.400,18.000 L57.400,15.500 L57.400,13.000 L57.400,10.500 L57.400,8.000 L57.400,5.500 L57.400,3.000 L57.400,1.000 M57.000,1.000 L57.000,3.500 L57.000,6.000 L57.000,8.500 L57.000,11.000 L57.000,13.500 L57.000,16.000 L57.000,18.500 L57.000,21.000 L57.000,23.500 L57.000,26.000 L57.000,28.500 L57.000,31.000 L57.000,33.500 L57.000,36.000 L57.000,38.500 L57.000,41.000 L57.000,43.500 L57.000,46.000 L57.000,48.500 L57.000,51.000 L57.000,53.500 L57.000,56.000 L57.000,58.000 M56.600,58.000 L56.600,55.500 L56.600,53.000 L56.600,50.500 L56.600,48.000 L56.600,45.500 L56.600,43.000 L56.600,40.500 L56.600,38.000 L56.600,35.500 L56.600,33.000 L56.600,30.500 L56.600,28.000 L56.600,25.500 L56.600,23.000 L56.600,20.500 L56.600,18.000 L56.600,15.500 L56.600,13.000 L56.600,10.500 L56.600,8.000 L56.600,5.500 L56.600,3.000 L56.600,1.000 M56.200,1.000 L56.200,3.500 L56.200,6.000 L56.200,8.500 L56.200,11.000 L56.200,13.500 L56.200,16.000 L56.200,18.500 L56.200,21.000 L56.200,23.500 L56.200,26.000 L56.200,28.500 L56.200,31.000 L56.200,33.500 L56.200,36.000 L56.200,38.500 L56.200,41.000 L56.200,43.500 L56.200,46.000 L56.200,48.500 L56.200,51.000 L56.200,53.500 L56.200,56.000 L56.200,58.000 M55.800,58.000 L55.800,55.500 L55.800,53.000 L55.800,50.500 L55.800,48.000 L55.800,45.500 L55.800,43.000 L55.800,40.500 L55.800,38.000 L55.800,35.500 L55.800,33.000 L55.800,30.500 L55.800,28.000 L55.800,25.500 L55.800,23.000 L55.800,20.500 L55.800,18.000 L55.800,15.500 L55.800,13.000 L55.800,10.500 L55.800,8.000 L55.800,5.500 L55.800,3.000 L55.800,1.000 M55.400,1.000 L55.400,3.500 L55.400,6.000 L55.400,8.500 L55.400,11.000 L55.400,13.500 L55.400,16.000 L55.400,18.500 L55.400,21.000 L55.400,23.500 L55.400,26.000 L55.400,28.500 L55.400,31.000 L55.400,33.500 L55.400,36.000 L55.400,38.500 L55.400,41.000 L55.400,43.500 L55.400,46.000 L55.400,48.500 L55.400,51.000 L55.400,53.500 L55.400,56.000 L55.400,58.000 M55.000,58.000 L55.000,55.500 L55.000,53.000 L55.000,50.500 L55.000,48.000 L55.000,45.500 L55.000,43.000 L55.000,40.500 L55.000,38.000 L55.000,35.500 L55.000,33.000 L55.000,30.500 L55.000,28.000 L55.000,25.500 L55.000,23.000 L55.000,20.500 L55.000,18.000 L55.000,15.500 L55.000,13.000 L55.000,10.500 L55.000,8.000 L55.000,5.500 L55.000,3.000 L55.000,1.000 L55.000,1.700 L55.000,1.000 L55.000,1.700 L55.000,1.000 M54.200,58.000 L54.200,57.300 L54.200,58.000 L54.200,57.300 L54.200,58.000 L54.200,55.500 L54.200,53.000 L54.200,50.500 L54.200,48.000 L54.200,45.500 L54.200,43.000 L54.200,40.500 L54.200,38.000 L54.200,35.500 L54.200,33.000 L54.200,30.500 L54.200,28.000 L54.200,25.500 L54.200,23.000 L54.200,20.500 L54.200,18.000 L54.200,15.500 L54.200,13.000 L54.200,10.500 L54.200,8.000 L54.200,5.500 L54.200,3.000 L54.200,1.000 M53.800,1.000 L53.800,3.500 L53.800,6.000 L53.800,8.500 L53.800,11.000 L53.800,13.500 L53.800,16.000 L53.800,18.500 L53.800,21.000 L53.800,23.500 L53.800,26.000 L53.800,28.500 L53.800,31.000 L53.800,33.500 L53.800,36.000 L53.800,38.500 L53.800,41.000 L53.800,43.500 L53.800,46.000 L53.800,48.500 L53.800,51.000 L53.800,53.500 L53.800,56.000 L53.800,58.000 M53.400,58.000 L53.400,55.500 L53.400,53.000 L53.400,50.500 L53.400,48.000 L53.400,45.500 L53.400,43.000 L53.400,40.500 L53.400,38.000 L53.400,35.500 L53.400,33.000 L53.400,30.500 L53.400,28.000 L53.400,25.500 L53.400,23.000 L53.400,20.500 L53.400,18.000 L53.400,15.500 L53.400,13.000 L53.400,10.500 L53.400,8.000 L53.400,5.500 L53.400,3.000 L53.400,1.000 M53.000,1.000 L53.000,3.500 L53.000,6.000 L53.000,8.500 L53.000,11.000 L53.000,13.500 L53.000,16.000 L53.000,18.500 L53.000,21.000 L53.000,23.500 L53.000,26.000 L53.000,28.500 L53.000,31.000 L53.000,33.500 L53.000,36.000 L53.000,38.500 L53.000,41.000 L53.000,43.500 L53.000,46.000 L53.000,48.500 L53.000,51.000 L53.000,53.500 L53.000,56.000 L53.000,58.000 M52.600,58.000 L52.600,55.500 L52.600,53.000 L52.600,50.500 L52.600,48.000 L52.600,45.500 L52.600,43.000 L52.600,40.500 L52.600,38.000 L52.600,35.500 L52.600,33.000 L52.600,30.500 L52.600,28.000 L52.600,25.500 L52.600,23.000 L52.600,20.500 L52.600,18.000 L52.600,15.500 L52.600,13.000 L52.600,10.500 L52.600,8.000 L52.600,5.500 L52.600,3.000 L52.600,1.000 M52.200,1.000 L52.200,3.500 L52.200,6.000 L52.200,8.500 L52.200,11.000 L52.200,13.500 L52.200,16.000 L52.200,18.500 L52.200,21.000 L52.200,23.500 L52.200,26.000 L52.200,28.500 L52.200,31.000 L52.200,33.500 L52.200,36.000 L52.200,38.500 L52.200,41.000 L52.200,43.500 L52.200,46.000 L52.200,48.500 L52.200,51.000 L52.200,53.500 L52.200,56.000 L52.200,58.000 L52.200,57.300 L52.200,58.000 L52.200,57.300 L52.200,58.000 M51.400,1.000 L51.400,1.700 L51.400,1.000 L51.400,1.700 L51.400,1.000 L51.400,3.500 L51.400,6.000 L51.400,8.500 L51.400,11.000 L51.400,13.500 L51.400,16.000 L51.400,18.500 L51.400,21.000 L51.400,23.500 L51.400,26.000 L51.400,28.500 L51.400,31.000 L51.400,33.500 L51.400,36.000 L51.400,38.500 L51.400,41.000 L51.400,43.500 L51.400,46.000 L51.400,48.500 L51.400,51.000 L51.400,53.500 L51.400,56.000 L51.400,58.000 M51.000,58.000 L51.000,55.500 L51.000,53.000 L51.000,50.500 L51.000,48.000 L51.000,45.500 L51.000,43.000 L51.000,40.500 L51.000,38.000 L51.000,35.500 L51.000,33.000 L51.000,30.500 L51.000,28.000 L51.000,25.500 L51.000,23.000 L51.000,20.500 L51.000,18.000 L51.000,15.500 L51.000,13.000 L51.000,10.500 L51.000,8.000 L51.000,5.500 L51.000,3.000 L51.000,1.000 M50.600,1.000 L50.600,3.500 L50.600,6.000 L50.600,8.500 L50.600,11.000 L50.600,13.500 L50.600,16.000 L50.600,18.500 L50.600,21.000 L50.600,23.500 L50.600,26.000 L50.600,28.500 L50.600,31.000 L50.600,33.500 L50.600,36.000 L50.600,38.500 L50.600,41.000 L50.600,43.500 L50.600,46.000 L50.600,48.500 L50.600,51.000 L50.600,53.500 L50.600,56.000 L50.600,58.000 M50.200,58.000 L50.200,55.500 L50.200,53.000 L50.200,50.500 L50.200,48.000 L50.200,45.500 L50.200,43.000 L50.200,40.500 L50.200,38.000 L50.200,35.500 L50.200,33.000 L50.200,30.500 L50.200,28.000 L50.200,25.500 L50.200,23.000 L50.200,20.500 L50.200,18.000 L50.200,15.500 L50.200,13.000 L50.200,10.500 L50.200,8.000 L50.200,5.500 L50.200,3.000 L50.200,1.000 M49.800,1.000 L49.800,3.500 L49.800,6.000 L49.800,8.500 L49.800,11.000 L49.800,13.500 L49.800,16.000 L49.800,18.500 L49.800,21.000 L49.800,23.500 L49.800,26.000 L49.800,28.500 L49.800,31.000 L49.800,33.500 L49.800,36.000 L49.800,38.500 L49.800,41.000 L49.800,43.500 L49.800,46.000 L49.800,48.500 L49.800,51.000 L49.800,53.500 L49.800,56.000 L49.800,58.000 L49.800,57.300 L49.800,58.000 L49.800,57.300 L49.800,58.000 M49.000,1.000 L49.000,1.700 L49.000,1.000 L49.000,1.700 L49.000,1.000 L49.000,3.500 L49.000,6.000 L49.000,8.500 L49.000,11.000 L49.000,13.500 L49.000,16.000 L49.000,18.500 L49.000,21.000 L49.000,23.500 L49.000,26.000 L49.000,28.500 L49.000,31.000 L49.000,33.500 L49.000,36.000 L49.000,38.500 L49.000,41.000 L49.000,43.500 L49.000,46.000 L49.000,48.500 L49.000,51.000 L49.000,53.500 L49.000,56.000 L49.000,58.000 M48.600,58.000 L48.600,55.500 L48.600,53.000 L48.600,50.500 L48.600,48.000 L48.600,45.500 L48.600,43.000 L48.600,40.500 L48.600,38.000 L48.600,35.500 L48.600,33.000 L48.600,30.500 L48.600,28.000 L48.600,25.500 L48.600,23.000 L48.600,20.500 L48.600,18.000 L48.600,15.500 L48.600,13.000 L48.600,10.500 L48.600,8.000 L48.600,5.500 L48.600,3.000 L48.600,1.000 M48.200,1.000 L48.200,3.500 L48.200,6.000 L48.200,8.500 L48.200,11.000 L48.200,13.500 L48.200,16.000 L48.200,18.500 L48.200,21.000 L48.200,23.500 L48.200,26.000 L48.200,28.500 L48.200,31.000 L48.200,33.500 L48.200,36.000 L48.200,38.500 L48.200,41.000 L48.200,43.500 L48.200,46.000 L48.200,48.500 L48.200,51.000 L48.200,53.500 L48.200,56.000 L48.200,58.000 M47.800,58.000 L47.800,55.500 L47.800,53.000 L47.800,50.500 L47.800,48.000 L47.800,45.500 L47.800,43.000 L47.800,40.500 L47.800,38.000 L47.800,35.500 L47.800,33.000 L47.800,30.500 L47.800,28.000 L47.800,25.500 L47.800,23.000 L47.800,20.500 L47.800,18.000 L47.800,15.500 L47.800,13.000 L47.800,10.500 L47.800,8.000 L47.800,5.500 L47.800,3.000 L47.800,1.000 M47.400,1.000 L47.400,3.500 L47.400,6.000 L47.400,8.500 L47.400,11.000 L47.400,13.500 L47.400,16.000 L47.400,18.500 L47.400,21.000 L47.400,23.500 L47.400,26.000 L47.400,28.500 L47.400,31.000 L47.400,33.500 L47.400,36.000 L47.400,38.500 L47.400,41.000 L47.400,43.500 L47.400,46.000 L47.400,48.500 L47.400,51.000 L47.400,53.500 L47.400,56.000 L47.400,58.000 L47.400,57.300 L47.400,58.000 L47.400,57.300 L47.400,58.000 M46.600,1.000 L46.600,1.700 L46.600,1.000 L46.600,1.700 L46.600,1.000 L46.600,3.500 L46.600,6.000 L46.600,8.500 L46.600,11.000 L46.600,13.500 L46.600,16.000 L46.600,18.500 L46.600,21.000 L46.600,23.500 L46.600,26.000 L46.600,28.500 L46.600,31.000 L46.600,33.500 L46.600,36.000 L46.600,38.500 L46.600,41.000 L46.600,43.500 L46.600,46.000 L46.600,48.500 L46.600,51.000 L46.600,53.500 L46.600,56.000 L46.600,58.000 M46.200,58.000 L46.200,55.500 L46.200,53.000 L46.200,50.500 L46.200,48.000 L46.200,45.500 L46.200,43.000 L46.200,40.500 L46.200,38.000 L46.200,35.500 L46.200,33.000 L46.200,30.500 L46.200,28.000 L46.200,25.500 L46.200,23.000 L46.200,20.500 L46.200,18.000 L46.200,15.500 L46.200,13.000 L46.200,10.500 L46.200,8.000 L46.200,5.500 L46.200,3.000 L46.200,1.000 M45.800,1.000 L45.800,3.500 L45.800,6.000 L45.800,8.500 L45.800,11.000 L45.800,13.500 L45.800,16.000 L45.800,18.500 L45.800,21.000 L45.800,23.500 L45.800,26.000 L45.800,28.500 L45.800,31.000 L45.800,33.500 L45.800,36.000 L45.800,38.500 L45.800,41.000 L45.800,43.500 L45.800,46.000 L45.800,48.500 L45.800,51.000 L45.800,53.500 L45.800,56.000 L45.800,58.000 L45.800,57.300 L45.800,58.000 L45.800,57.300 L45.800,58.000 M45.000,1.000 L45.000,1.700 L45.000,1.000 L45.000,1.700 L45.000,1.000 L45.000,3.500 L45.000,6.000 L45.000,8.500 L45.000,11.000 L45.000,13.500 L45.000,16.000 L45.000,18.500 L45.000,21.000 L45.000,23.500 L45.000,26.000 L45.000,28.500 L45.000,31.000 L45.000,33.500 L45.000,36.000 L45.000,38.500 L45.000,41.000 L45.000,43.500 L45.000,46.000 L45.000,48.500 L45.000,51.000 L45.000,53.500 L45.000,56.000 L45.000,58.000 M44.600,58.000 L44.600,55.500 L44.600,53.000 L44.600,50.500 L44.600,48.000 L44.600,45.500 L44.600,43.000 L44.600,40.500 L44.600,38.000 L44.600,35.500 L44.600,33.000 L44.600,30.500 L44.600,28.000 L44.600,25.500 L44.600,23.000 L44.600,20.500 L44.600,18.000 L44.600,15.500 L44.600,13.000 L44.600,10.500 L44.600,8.000 L44.600,5.500 L44.600,3.000 L44.600,1.000 M44.200,1.000 L44.200,3.500 L44.200,6.000 L44.200,8.500 L44.200,11.000 L44.200,13.500 L44.200,16.000 L44.200,18.500 L44.200,21.000 L44.200,23.500 L44.200,26.000 L44.200,28.500 L44.200,31.000 L44.200,33.500 L44.200,36.000 L44.200,38.500 L44.200,41.000 L44.200,43.500 L44.200,46.000 L44.200,48.500 L44.200,51.000 L44.200,53.500 L44.200,56.000 L44.200,58.000 M43.800,58.000 L43.800,55.500 L43.800,53.000 L43.800,50.500 L43.800,48.000 L43.800,45.500 L43.800,43.000 L43.800,40.500 L43.800,38.000 L43.800,35.500 L43.800,33.000 L43.800,30.500 L43.800,28.000 L43.800,25.500 L43.800,23.000 L43.800,20.500 L43.800,18.000 L43.800,15.500 L43.800,13.000 L43.800,10.500 L43.800,8.000 L43.800,5.500 L43.800,3.000 L43.800,1.000 L43.800,1.700 L43.800,1.000 L43.800,1.700 L43.800,1.000 M43.000,58.000 L43.000,57.300 L43.000,58.000 L43.000,57.300 L43.000,58.000 L43.000,55.500 L43.000,53.000 L43.000,50.500 L43.000,48.000 L43.000,45.500 L43.000,43.000 L43.000,40.500 L43.000,38.000 L43.000,35.500 L43.000,33.000 L43.000,30.500 L43.000,28.000 L43.000,25.500 L43.000,23.000 L43.000,20.500 L43.000,18.000 L43.000,15.500 L43.000,13.000 L43.000,10.500 L43.000,8.000 L43.000,5.500 L43.000,3.000 L43.000,1.000 M42.600,1.000 L42.600,3.500 L42.600,6.000 L42.600,8.500 L42.600,11.000 L42.600,13.500 L42.600,16.000 L42.600,18.500 L42.600,21.000 L42.600,23.500 L42.600,26.000 L42.600,28.500 L42.600,31.000 L42.600,33.500 L42.600,36.000 L42.600,38.500 L42.600,41.000 L42.600,43.500 L42.600,46.000 L42.600,48.500 L42.600,51.000 L42.600,53.500 L42.600,56.000 L42.600,58.000 M42.200,58.000 L42.200,55.500 L42.200,53.000 L42.200,50.500 L42.200,48.000 L42.200,45.500 L42.200,43.000 L42.200,40.500 L42.200,38.000 L42.200,35.500 L42.200,33.000 L42.200,30.500 L42.200,28.000 L42.200,25.500 L42.200,23.000 L42.200,20.500 L42.200,18.000 L42.200,15.500 L42.200,13.000 L42.200,10.500 L42.200,8.000 L42.200,5.500 L42.200,3.000 L42.200,1.000 L42.200,1.700 L42.200,1.000 L42.200,1.700 L42.200,1.000 M41.400,58.000 L41.400,57.300 L41.400,58.000 L41.400,57.300 L41.400,58.000 L41.400,55.500 L41.400,53.000 L41.400,50.500 L41.400,48.000 L41.400,45.500 L41.400,43.000 L41.400,40.500 L41.400,38.000 L41.400,35.500 L41.400,33.000 L41.400,30.500 L41.400,28.000 L41.400,25.500 L41.400,23.000 L41.400,20.500 L41.400,18.000 L41.400,15.500 L41.400,13.000 L41.400,10.500 L41.400,8.000 L41.400,5.500 L41.400,3.000 L41.400,1.000 M41.000,1.000 L41.000,3.500 L41.000,6.000 L41.000,8.500 L41.000,11.000 L41.000,13.500 L41.000,16.000 L41.000,18.500 L41.000,21.000 L41.000,23.500 L41.000,26.000 L41.000,28.500 L41.000,31.000 L41.000,33.500 L41.000,36.000 L41.000,38.500 L41.000,41.000 L41.000,43.500 L41.000,46.000 L41.000,48.500 L41.000,51.000 L41.000,53.500 L41.000,56.000 L41.000,58.000 L41.000,57.300 L41.000,58.000 L41.000,57.300 L41.000,58.000 M40.200,1.000 L40.200,1.700 L40.200,1.000 L40.200,1.700 L40.200,1.000 L40.200,3.500 L40.200,6.000 L40.200,8.500 L40.200,11.000 L40.200,13.500 L40.200,16.000 L40.200,18.500 L40.200,21.000 L40.200,23.500 L40.200,26.000 L40.200,28.500 L40.200,31.000 L40.200,33.500 L40.200,36.000 L40.200,38.500 L40.200,41.000 L40.200,43.500 L40.200,46.000 L40.200,48.500 L40.200,51.000 L40.200,53.500 L40.200,56.000 L40.200,58.000 M39.800,58.000 L39.800,55.500 L39.800,53.000 L39.800,50.500 L39.800,48.000 L39.800,45.500 L39.800,43.000 L39.800,40.500 L39.800,38.000 L39.800,35.500 L39.800,33.000 L39.800,30.500 L39.800,28.000 L39.800,25.500 L39.800,23.000 L39.800,20.500 L39.800,18.000 L39.800,15.500 L39.800,13.000 L39.800,10.500 L39.800,8.000 L39.800,5.500 L39.800,3.000 L39.800,1.000 M39.400,1.000 L39.400,3.500 L39.400,6.000 L39.400,8.500 L39.400,11.000 L39.400,13.500 L39.400,16.000 L39.400,18.500 L39.400,21.000 L39.400,23.500 L39.400,26.000 L39.400,28.500 L39.400,31.000 L39.400,33.500 L39.400,36.000 L39.400,38.500 L39.400,41.000 L39.400,43.500 L39.400,46.000 L39.400,48.500 L39.400,51.000 L39.400,53.500 L39.400,56.000 L39.400,58.000 L39.400,57.300 L39.400,58.000 L39.400,57.300 L39.400,58.000 M38.600,1.000 L38.600,1.700 L38.600,1.000 L38.600,1.700 L38.600,1.000 L38.600,3.500 L38.600,6.000 L38.600,8.500 L38.600,11.000 L38.600,13.500 L38.600,16.000 L38.600,18.500 L38.600,21.000 L38.600,23.500 L38.600,26.000 L38.600,28.500 L38.600,31.000 L38.600,33.500 L38.600,36.000 L38.600,38.500 L38.600,41.000 L38.600,43.500 L38.600,46.000 L38.600,48.500 L38.600,51.000 L38.600,53.500 L38.600,56.000 L38.600,58.000 M38.200,58.000 L38.200,55.500 L38.200,53.000 L38.200,50.500 L38.200,48.000 L38.200,45.500 L38.200,43.000 L38.200,40.500 L38.200,38.000 L38.200,35.500 L38.200,33.000 L38.200,30.500 L38.200,28.000 L38.200,25.500 L38.200,23.000 L38.200,20.500 L38.200,18.000 L38.200,15.500 L38.200,13.000 L38.200,10.500 L38.200,8.000 L38.200,5.500 L38.200,3.000 L38.200,1.000 L38.200,1.700 L38.200,1.000 L38.200,1.700 L38.200,1.000 M37.400,58.000 L37.400,57.300 L37.400,58.000 L37.400,57.300 L37.400,58.000 L37.400,55.500 L37.400,53.000 L37.400,50.500 L37.400,48.000 L37.400,45.500 L37.400,43.000 L37.400,40.500 L37.400,38.000 L37.400,35.500 L37.400,33.000 L37.400,30.500 L37.400,28.000 L37.400,25.500 L37.400,23.000 L37.400,20.500 L37.400,18.000 L37.400,15.500 L37.400,13.000 L37.400,10.500 L37.400,8.000 L37.400,5.500 L37.400,3.000 L37.400,1.000 M37.000,1.000 L37.000,3.500 L37.000,6.000 L37.000,8.500 L37.000,11.000 L37.000,13.500 L37.000,16.000 L37.000,18.500 L37.000,21.000 L37.000,23.500 L37.000,26.000 L37.000,28.500 L37.000,31.000 L37.000,33.500 L37.000,36.000 L37.000,38.500 L37.000,41.000 L37.000,43.500 L37.000,46.000 L37.000,48.500 L37.000,51.000 L37.000,53.500 L37.000,56.000 L37.000,58.000 L37.000,57.300 L37.000,58.000 L37.000,57.300 L37.000,58.000 M36.200,1.000 L36.200,1.700 L36.200,1.000 L36.200,1.700 L36.200,1.000 L36.200,3.500 L36.200,6.000 L36.200,8.500 L36.200,11.000 L36.200,13.500 L36.200,16.000 L36.200,18.500 L36.200,21.000 L36.200,23.500 L36.200,26.000 L36.200,28.500 L36.200,31.000 L36.200,33.500 L36.200,36.000 L36.200,38.500 L36.200,41.000 L36.200,43.500 L36.200,46.000 L36.200,48.500 L36.200,51.000 L36.200,53.500 L36.200,56.000 L36.200,58.000 M35.800,58.000 L35.800,55.500 L35.800,53.000 L35.800,50.500 L35.800,48.000 L35.800,45.500 L35.800,43.000 L35.800,40.500 L35.800,38.000 L35.800,35.500 L35.800,33.000 L35.800,30.500 L35.800,28.000 L35.800,25.500 L35.800,23.000 L35.800,20.500 L35.800,18.000 L35.800,15.500 L35.800,13.000 L35.800,10.500 L35.800,8.000 L35.800,5.500 L35.800,3.000 L35.800,1.000 L35.800,1.700 L35.800,1.000 L35.800,1.700 L35.800,1.000 M35.000,58.000 L35.000,57.300 L35.000,58.000 L35.000,57.300 L35.000,58.000 L35.000,55.500 L35.000,53.000 L35.000,50.500 L35.000,48.000 L35.000,45.500 L35.000,43.000 L35.000,40.500 L35.000,38.000 L35.000,35.500 L35.000,33.000 L35.000,30.500 L35.000,28.000 L35.000,25.500 L35.000,23.000 L35.000,20.500 L35.000,18.000 L35.000,15.500 L35.000,13.000 L35.000,10.500 L35.000,8.000 L35.000,5.500 L35.000,3.000 L35.000,1.000 L35.000,1.700 L35.000,1.000 L35.000,1.700 L35.000,1.000 M34.200,58.000 L34.200,57.300 L34.200,58.000 L34.200,57.300 L34.200,58.000 L34.200,55.500 L34.200,53.000 L34.200,50.500 L34.200,48.000 L34.200,45.500 L34.200,43.000 L34.200,40.500 L34.200,38.000 L34.200,35.500 L34.200,33.000 L34.200,30.500 L34.200,28.000 L34.200,25.500 L34.200,23.000 L34.200,20.500 L34.200,18.000 L34.200,15.500 L34.200,13.000 L34.200,10.500 L34.200,8.000 L34.200,5.500 L34.200,3.000 L34.200,1.000 M33.800,1.000 L33.800,3.500 L33.800,6.000 L33.800,8.500 L33.800,11.000 L33.800,13.500 L33.800,16.000 L33.800,18.500 L33.800,21.000 L33.800,23.500 L33.800,26.000 L33.800,28.500 L33.800,31.000 L33.800,33.500 L33.800,36.000 L33.800,38.500 L33.800,41.000 L33.800,43.500 L33.800,46.000 L33.800,48.500 L33.800,51.000 L33.800,53.500 L33.800,56.000 L33.800,58.000 L33.800,57.300 L33.800,58.000 L33.800,57.300 L33.800,58.000 M33.000,1.000 L33.000,1.700 L33.000,1.000 L33.000,1.700 L33.000,1.000 L33.000,3.500 L33.000,6.000 L33.000,8.500 L33.000,11.000 L33.000,13.500 L33.000,16.000 L33.000,18.500 L33.000,21.000 L33.000,23.500 L33.000,26.000 L33.000,28.500 L33.000,31.000 L33.000,33.500 L33.000,36.000 L33.000,38.500 L33.000,41.000 L33.000,43.500 L33.000,46.000 L33.000,48.500 L33.000,51.000 L33.000,53.500 L33.000,56.000 L33.000,58.000 M32.600,58.000 L32.600,55.500 L32.600,53.000 L32.600,50.500 L32.600,48.000 L32.600,45.500 L32.600,43.000 L32.600,40.500 L32.600,38.000 L32.600,35.500 L32.600,33.000 L32.600,30.500 L32.600,28.000 L32.600,25.500 L32.600,23.000 L32.600,20.500 L32.600,18.000 L32.600,15.500 L32.600,13.000 L32.600,10.500 L32.600,8.000 L32.600,5.500 L32.600,3.000 L32.600,1.000 L32.600,1.700 L32.600,1.000 L32.600,1.700 L32.600,1.000 M31.800,58.000 L31.800,57.300 L31.800,58.000 L31.800,57.300 L31.800,58.000 L31.800,55.500 L31.800,53.000 L31.800,50.500 L31.800,48.000 L31.800,45.500 L31.800,43.000 L31.800,40.500 L31.800,38.000 L31.800,35.500 L31.800,33.000 L31.800,30.500 L31.800,28.000 L31.800,25.500 L31.800,23.000 L31.800,20.500 L31.800,18.000 L31.800,15.500 L31.800,13.000 L31.800,10.500 L31.800,8.000 L31.800,5.500 L31.800,3.000 L31.800,1.000 L31.800,1.700 L31.800,1.000 L31.800,1.700 L31.800,1.000 M31.000,58.000 L31.000,57.300 L31.000,58.000 L31.000,57.300 L31.000,58.000 L31.000,55.500 L31.000,53.000 L31.000,50.500 L31.000,48.000 L31.000,45.500 L31.000,43.000 L31.000,40.500 L31.000,38.000 L31.000,35.500 L31.000,33.000 L31.000,30.500 L31.000,28.000 L31.000,25.500 L31.000,23.000 L31.000,20.500 L31.000,18.000 L31.000,15.500 L31.000,13.000 L31.000,10.500 L31.000,8.000 L31.000,5.500 L31.000,3.000 L31.000,1.000 L31.000,1.700 L31.000,1.000 L31.000,1.700 L31.000,1.000 M30.200,58.000 L30.200,57.300 L30.200,58.000 L30.200,57.300 L30.200,58.000 L30.200,55.500 L30.200,53.000 L30.200,50.500 L30.200,48.000 L30.200,45.500 L30.200,43.000 L30.200,40.500 L30.200,38.000 L30.200,35.500 L30.200,33.000 L30.200,30.500 L30.200,28.000 L30.200,25.500 L30.200,23.000 L30.200,20.500 L30.200,18.000 L30.200,15.500 L30.200,13.000 L30.200,10.500 L30.200,8.000 L30.200,5.500 L30.200,3.000 L30.200,1.000 M29.800,1.000 L29.800,3.500 L29.800,6.000 L29.800,8.500 L29.800,11.000 L29.800,13.500 L29.800,16.000 L29.800,18.500 L29.800,21.000 L29.800,23.500 L29.800,26.000 L29.800,28.500 L29.800,31.000 L29.800,33.500 L29.800,36.000 L29.800,38.500 L29.800,41.000 L29.800,43.500 L29.800,46.000 L29.800,48.500 L29.800,51.000 L29.800,53.500 L29.800,56.000 L29.800,58.000 L29.800,57.300 L29.800,58.000 L29.800,57.300 L29.800,58.000 M29.000,1.000 L29.000,1.700 L29.000,1.000 L29.000,1.700 L29.000,1.000 L29.000,3.500 L29.000,6.000 L29.000,8.500 L29.000,11.000 L29.000,13.500 L29.000,16.000 L29.000,18.500 L29.000,21.000 L29.000,23.500 L29.000,26.000 L29.000,28.500 L29.000,31.000 L29.000,33.500 L29.000,36.000 L29.000,38.500 L29.000,41.000 L29.000,43.500 L29.000,46.000 L29.000,48.500 L29.000,51.000 L29.000,53.500 L29.000,56.000 L29.000,58.000 L29.000,57.300 L29.000,58.000 L29.000,57.300 L29.000,58.000 M28.200,1.000 L28.200,1.700 L28.200,1.000 L28.200,1.700 L28.200,1.000 L28.200,3.500 L28.200,6.000 L28.200,8.500 L28.200,11.000 L28.200,13.500 L28.200,16.000 L28.200,18.500 L28.200,21.000 L28.200,23.500 L28.200,26.000 L28.200,28.500 L28.200,31.000 L28.200,33.500 L28.200,36.000 L28.200,38.500 L28.200,41.000 L28.200,43.500 L28.200,46.000 L28.200,48.500 L28.200,51.000 L28.200,53.500 L28.200,56.000 L28.200,58.000 L28.200,57.300 L28.200,58.000 L28.200,57.300 L28.200,58.000 M27.400,1.000 L27.400,1.700 L27.400,1.000 L27.400,1.700 L27.400,1.000 L27.400,3.500 L27.400,6.000 L27.400,8.500 L27.400,11.000 L27.400,13.500 L27.400,16.000 L27.400,18.500 L27.400,21.000 L27.400,23.500 L27.400,26.000 L27.400,28.500 L27.400,31.000 L27.400,33.500 L27.400,36.000 L27.400,38.500 L27.400,41.000 L27.400,43.500 L27.400,46.000 L27.400,48.500 L27.400,51.000 L27.400,53.500 L27.400,56.000 L27.400,58.000 L27.400,57.300 L27.400,58.000 L27.400,57.300 L27.400,58.000 M26.600,1.000 L26.600,1.700 L26.600,1.000 L26.600,1.700 L26.600,1.000 L26.600,3.500 L26.600,6.000 L26.600,8.500 L26.600,11.000 L26.600,13.500 L26.600,16.000 L26.600,18.500 L26.600,21.000 L26.600,23.500 L26.600,26.000 L26.600,28.500 L26.600,31.000 L26.600,33.500 L26.600,36.000 L26.600,38.500 L26.600,41.000 L26.600,43.500 L26.600,46.000 L26.600,48.500 L26.600,51.000 L26.600,53.500 L26.600,56.000 L26.600,58.000 L26.600,57.300 L26.600,58.000 L26.600,57.300 L26.600,58.000 M25.800,1.000 L25.800,1.700 L25.800,1.000 L25.800,1.700 L25.800,1.000 L25.800,3.500 L25.800,6.000 L25.800,8.500 L25.800,11.000 L25.800,13.500 L25.800,16.000 L25.800,18.500 L25.800,21.000 L25.800,23.500 L25.800,26.000 L25.800,28.500 L25.800,31.000 L25.800,33.500 L25.800,36.000 L25.800,38.500 L25.800,41.000 L25.800,43.500 L25.800,46.000 L25.800,48.500 L25.800,51.000 L25.800,53.500 L25.800,56.000 L25.800,58.000 L25.800,57.300 L25.800,58.000 L25.800,57.300 L25.800,58.000 M25.000,1.000 L25.000,1.700 L25.000,1.000 L25.000,1.700 L25.000,1.000 L25.000,3.500 L25.000,6.000 L25.000,8.500 L25.000,11.000 L25.000,13.500 L25.000,16.000 L25.000,18.500 L25.000,21.000 L25.000,23.500 L25.000,26.000 L25.000,28.500 L25.000,31.000 L25.000,33.500 L25.000,36.000 L25.000,38.500 L25.000,41.000 L25.000,43.500 L25.000,46.000 L25.000,48.500 L25.000,51.000 L25.000,53.500 L25.000,56.000 L25.000,58.000 L25.000,57.300 L25.000,58.000 L25.000,57.300 L25.000,58.000 M24.200,1.000 L24.200,1.700 L24.200,1.000 L24.200,1.700 L24.200,1.000 L24.200,3.500 L24.200,6.000 L24.200,8.500 L24.200,11.000 L24.200,13.500 L24.200,16.000 L24.200,18.500 L24.200,21.000 L24.200,23.500 L24.200,26.000 L24.200,28.500 L24.200,31.000 L24.200,33.500 L24.200,36.000 L24.200,38.500 L24.200,41.000 L24.200,43.500 L24.200,46.000 L24.200,48.500 L24.200,51.000 L24.200,53.500 L24.200,56.000 L24.200,58.000 L24.200,57.300 L24.200,58.000 L24.200,57.300 L24.200,58.000 M23.400,1.000 L23.400,1.700 L23.400,1.000 L23.400,1.700 L23.400,1.000 L23.400,3.500 L23.400,6.000 L23.400,8.500 L23.400,11.000 L23.400,13.500 L23.400,16.000 L23.400,18.500 L23.400,21.000 L23.400,23.500 L23.400,26.000 L23.400,28.500 L23.400,31.000 L23.400,33.500 L23.400,36.000 L23.400,38.500 L23.400,41.000 L23.400,43.500 L23.400,46.000 L23.400,48.500 L23.400,51.000 L23.400,53.500 L23.400,56.000 L23.400,58.000 M22.200,58.000 L22.200,55.500 L22.200,53.000 L22.200,50.500 L22.200,48.000 L22.200,45.500 L22.200,43.000 L22.200,40.500 L22.200,38.000 L22.200,35.500 L22.200,33.000 L22.200,30.500 L22.200,28.000 L22.200,25.500 L22.200,23.000 L22.200,20.500 L22.200,18.000 L22.200,15.500 L22.200,13.000 L22.200,10.500 L22.200,8.000 L22.200,5.500 L22.200,3.000 L22.200,1.000 L22.200,1.700 L22.200,1.000 L22.200,1.700 L22.200,1.000 M21.400,58.000 L21.400,57.300 L21.400,58.000 L21.400,57.300 L21.400,58.000 L21.400,55.500 L21.400,53.000 L21.400,50.500 L21.400,48.000 L21.400,45.500 L21.400,43.000 L21.400,40.500 L21.400,38.000 L21.400,35.500 L21.400,33.000 L21.400,30.500 L21.400,28.000 L21.400,25.500 L21.400,23.000 L21.400,20.500 L21.400,18.000 L21.400,15.500 L21.400,13.000 L21.400,10.500 L21.400,8.000 L21.400,5.500 L21.400,3.000 L21.400,1.000 L21.400,1.700 L21.400,1.000 L21.400,1.700 L21.400,1.000 M20.600,58.000 L20.600,57.300 L20.600,58.000 L20.600,57.300 L20.600,58.000 L20.600,55.500 L20.600,53.000 L20.600,50.500 L20.600,48.000 L20.600,45.500 L20.600,43.000 L20.600,40.500 L20.600,38.000 L20.600,35.500 L20.600,33.000 L20.600,30.500 L20.600,28.000 L20.600,25.500 L20.600,23.000 L20.600,20.500 L20.600,18.000 L20.600,15.500 L20.600,13.000 L20.600,10.500 L20.600,8.000 L20.600,5.500 L20.600,3.000 L20.600,1.000 M19.400,1.000 L19.400,3.500 L19.400,6.000 L19.400,8.500 L19.400,11.000 L19.400,13.500 L19.400,16.000 L19.400,18.500 L19.400,21.000 L19.400,23.500 L19.400,26.000 L19.400,28.500 L19.400,31.000 L19.400,33.500 L19.400,36.000 L19.400,38.500 L19.400,41.000 L19.400,43.500 L19.400,46.000 L19.400,48.500 L19.400,51.000 L19.400,53.500 L19.400,56.000 L19.400,58.000 M18.200,58.000 L18.200,55.500 L18.200,53.000 L18.200,50.500 L18.200,48.000 L18.200,45.500 L18.200,43.000 L18.200,40.500 L18.200,38.000 L18.200,35.500 L18.200,33.000 L18.200,30.500 L18.200,28.000 L18.200,25.500 L18.200,23.000 L18.200,20.500 L18.200,18.000 L18.200,15.500 L18.200,13.000 L18.200,10.500 L18.200,8.000 L18.200,5.500 L18.200,3.000 L18.200,1.000 M17.000,1.000 L17.000,3.500 L17.000,6.000 L17.000,8.500 L17.000,11.000 L17.000,13.500 L17.000,16.000 L17.000,18.500 L17.000,21.000 L17.000,23.500 L17.000,26.000 L17.000,28.500 L17.000,31.000 L17.000,33.500 L17.000,36.000 L17.000,38.500 L17.000,41.000 L17.000,43.500 L17.000,46.000 L17.000,48.500 L17.000,51.000 L17.000,53.500 L17.000,56.000 L17.000,58.000 M15.800,58.000 L15.800,55.500 L15.800,53.000 L15.800,50.500 L15.800,48.000 L15.800,45.500 L15.800,43.000 L15.800,40.500 L15.800,38.000 L15.800,35.500 L15.800,33.000 L15.800,30.500 L15.800,28.000 L15.800,25.500 L15.800,23.000 L15.800,20.500 L15.800,18.000 L15.800,15.500 L15.800,13.000 L15.800,10.500 L15.800,8.000 L15.800,5.500 L15.800,3.000 L15.800,1.000 M14.600,1.000 L14.600,3.500 L14.600,6.000 L14.600,8.500 L14.600,11.000 L14.600,13.500 L14.600,16.000 L14.600,18.500 L14.600,21.000 L14.600,23.500 L14.600,26.000 L14.600,28.500 L14.600,31.000 L14.600,33.500 L14.600,36.000 L14.600,38.500 L14.600,41.000 L14.600,43.500 L14.600,46.000 L14.600,48.500 L14.600,51.000 L14.600,53.500 L14.600,56.000 L14.600,58.000 L14.600,57.300 L14.600,58.000 L14.600,57.300 L14.600,58.000 M13.000,1.000 L13.000,1.700 L13.000,1.000 L13.000,1.700 L13.000,1.000 L13.000,3.500 L13.000,6.000 L13.000,8.500 L13.000,11.000 L13.000,13.500 L13.000,16.000 L13.000,18.500 L13.000,21.000 L13.000,23.500 L13.000,26.000 L13.000,28.500 L13.000,31.000 L13.000,33.500 L13.000,36.000 L13.000,38.500 L13.000,41.000 L13.000,43.500 L13.000,46.000 L13.000,48.500 L13.000,51.000 L13.000,53.500 L13.000,56.000 L13.000,58.000 L13.000,57.300 L13.000,58.000 L13.000,57.300 L13.000,58.000 M11.400,1.000 L11.400,1.700 L11.400,1.000 L11.400,1.700 L11.400,1.000 L11.400,3.500 L11.400,6.000 L11.400,8.500 L11.400,11.000 L11.400,13.500 L11.400,16.000 L11.400,18.500 L11.400,21.000 L11.400,23.500 L11.400,26.000 L11.400,28.500 L11.400,31.000 L11.400,33.500 L11.400,36.000 L11.400,38.500 L11.400,41.000 L11.400,43.500 L11.400,46.000 L11.400,48.500 L11.400,51.000 L11.400,53.500 L11.400,56.000 L11.400,58.000 M9.400,58.000 L9.400,55.500 L9.400,53.000 L9.400,50.500 L9.400,48.000 L9.400,45.500 L9.400,43.000 L9.400,40.500 L9.400,38.000 L9.400,35.500 L9.400,33.000 L9.400,30.500 L9.400,28.000 L9.400,25.500 L9.400,23.000 L9.400,20.500 L9.400,18.000 L9.400,15.500 L9.400,13.000 L9.400,10.500 L9.400,8.000 L9.400,5.500 L9.400,3.000 L9.400,1.000 L9.400,1.700 L9.400,1.000 L9.400,1.700 L9.400,1.000 M7.000,58.000 L7.000,57.300 L7.000,58.000 L7.000,57.300 L7.000,58.000 L7.000,55.500 L7.000,53.000 L7.000,50.500 L7.000,48.000 L7.000,45.500 L7.000,43.000 L7.000,40.500 L7.000,38.000 L7.000,35.500 L7.000,33.000 L7.000,30.500 L7.000,28.000 L7.000,25.500 L7.000,23.000 L7.000,20.500 L7.000,18.000 L7.000,15.500 L7.000,13.000 L7.000,10.500 L7.000,8.000 L7.000,5.500 L7.000,3.000 L7.000,1.000 L7.000,1.700 L7.000,1.000 L7.000,1.700 L7.000,1.000"/>
  <path fill="none" stroke="#e94560" stroke-width="0.4" stroke-linecap="round" stroke-linejoin="round" d="M1.000,1.000 L1.000,1.700 L1.000,1.000 L1.000,1.700 L1.000,1.000 L1.000,3.500 L1.000,6.000 L1.000,8.500 L1.000,11.000 L1.000,13.500 L1.000,16.000 L1.000,18.500 L1.000,21.000 L1.000,23.500 L1.000,26.000 L1.000,28.500 L1.000,31.000 L1.000,33.500 L1.000,36.000 L1.000,38.500 L1.000,41.000 L1.000,43.500 L1.000,46.000 L1.000,48.500 L1.000,51.000 L1.000,53.500 L1.000,56.000 L1.000,58.000 M1.400,58.000 L1.400,55.500 L1.400,53.000 L1.400,50.500 L1.400,48.000 L1.400,45.500 L1.400,43.000 L1.400,40.500 L1.400,38.000 L1.400,35.500 L1.400,33.000 L1.400,30.500 L1.400,28.000 L1.400,25.500 L1.400,23.000 L1.400,20.500 L1.400,18.000 L1.400,15.500 L1.400,13.000 L1.400,10.500 L1.400,8.000 L1.400,5.500 L1.400,3.000 L1.400,1.000 M1.800,1.000 L1.800,3.500 L1.800,6.000 L1.800,8.500 L1.800,11.000 L1.800,13.500 L1.800,16.000 L1.800,18.500 L1.800,21.000 L1.800,23.500 L1.800,26.000 L1.800,28.500 L1.800,31.000 L1.800,33.500 L1.800,36.000 L1.800,38.500 L1.800,41.000 L1.800,43.500 L1.800,46.000 L1.800,48.500 L1.800,51.000 L1.800,53.500 L1.800,56.000 L1.800,58.000 M2.200,58.000 L2.200,55.500 L2.200,53.000 L2.200,50.500 L2.200,48.000 L2.200,45.500 L2.200,43.000 L2.200,40.500 L2.200,38.000 L2.200,35.500 L2.200,33.000 L2.200,30.500 L2.200,28.000 L2.200,25.500 L2.200,23.000 L2.200,20.500 L2.200,18.000 L2.200,15.500 L2.200,13.000 L2.200,10.500 L2.200,8.000 L2.200,5.500 L2.200,3.000 L2.200,1.000 M2.600,1.000 L2.600,3.500 L2.600,6.000 L2.600,8.500 L2.600,11.000 L2.600,13.500 L2.600,16.000 L2.600,18.500 L2.600,21.000 L2.600,23.500 L2.600,26.000 L2.600,28.500 L2.600,31.000 L2.600,33.500 L2.600,36.000 L2.600,38.500 L2.600,41.000 L2.600,43.500 L2.600,46.000 L2.600,48.500 L2.600,51.000 L2.600,53.500 L2.600,56.000 L2.600,58.000 M3.000,58.000 L3.000,55.500 L3.000,53.000 L3.000,50.500 L3.000,48.000 L3.000,45.500 L3.000,43.000 L3.000,40.500 L3.000,38.000 L3.000,35.500 L3.000,33.000 L3.000,30.500 L3.000,28.000 L3.000,25.500 L3.000,23.000 L3.000,20.500 L3.000,18.000 L3.000,15.500 L3.000,13.000 L3.000,10.500 L3.000,8.000 L3.000,5.500 L3.000,3.000 L3.000,1.000 M3.400,1.000 L3.400,3.500 L3.400,6.000 L3.400,8.500 L3.400,11.000 L3.400,13.500 L3.400,16.000 L3.400,18.500 L3.400,21.000 L3.400,23.500 L3.400,26.000 L3.400,28.500 L3.400,31.000 L3.400,33.500 L3.400,36.000 L3.400,38.500 L3.400,41.000 L3.400,43.500 L3.400,46.000 L3.400,48.500 L3.400,51.000 L3.400,53.500 L3.400,56.000 L3.400,58.000 M3.800,58.000 L3.800,55.500 L3.800,53.000 L3.800,50.500 L3.800,48.000 L3.800,45.500 L3.800,43.000 L3.800,40.500 L3.800,38.000 L3.800,35.500 L3.800,33.000 L3.800,30.500 L3.800,28.000 L3.800,25.500 L3.800,23.000 L3.800,20.500 L3.800,18.000 L3.800,15.500 L3.800,13.000 L3.800,10.500 L3.800,8.000 L3.800,5.500 L3.800,3.000 L3.800,1.000 M4.200,1.000 L4.200,3.500 L4.200,6.000 L4.200,8.500 L4.200,11.000 L4.200,13.500 L4.200,16.000 L4.200,18.500 L4.200,21.000 L4.200,23.500 L4.200,26.000 L4.200,28.500 L4.200,31.000 L4.200,33.500 L4.200,36.000 L4.200,38.500 L4.200,41.000 L4.200,43.500 L4.200,46.000 L4.200,48.500 L4.200,51.000 L4.200,53.500 L4.200,56.000 L4.200,58.000 M4.600,58.000 L4.600,55.500 L4.600,53.000 L4.600,50.500 L4.600,48.000 L4.600,45.500 L4.600,43.000 L4.600,40.500 L4.600,38.000 L4.600,35.500 L4.600,33.000 L4.600,30.500 L4.600,28.000 L4.600,25.500 L4.600,23.000 L4.600,20.500 L4.600,18.000 L4.600,15.500 L4.600,13.000 L4.600,10.500 L4.600,8.000 L4.600,5.500 L4.600,3.000 L4.600,1.000 M5.000,1.000 L5.000,3.500 L5.000,6.000 L5.000,8.500 L5.000,11.000 L5.000,13.500 L5.000,16.000 L5.000,18.500 L5.000,21.000 L5.000,23.500 L5.000,26.000 L5.000,28.500 L5.000,31.000 L5.000,33.500 L5.000,36.000 L5.000,38.500 L5.000,41.000 L5.000,43.500 L5.000,46.000 L5.000,48.500 L5.000,51.000 L5.000,53.500 L5.000,56.000 L5.000,58.000 M5.400,58.000 L5.400,55.500 L5.400,53.000 L5.400,50.500 L5.400,48.000 L5.400,45.500 L5.400,43.000 L5.400,40.500 L5.400,38.000 L5.400,35.500 L5.400,33.000 L5.400,30.500 L5.400,28.000 L5.400,25.500 L5.400,23.000 L5.400,20.500 L5.400,18.000 L5.400,15.500 L5.400,13.000 L5.400,10.500 L5.400,8.000 L5.400,5.500 L5.400,3.000 L5.400,1.000 M5.800,1.000 L5.800,3.500 L5.800,6.000 L5.800,8.500 L5.800,11.000 L5.800,13.500 L5.800,16.000 L5.800,18.500 L5.800,21.000 L5.800,23.500 L5.800,26.000 L5.800,28.500 L5.800,31.000 L5.800,33.500 L5.800,36.000 L5.800,38.500 L5.800,41.000 L5.800,43.500 L5.800,46.000 L5.800,48.500 L5.800,51.000 L5.800,53.500 L5.800,56.000 L5.800,58.000 M6.200,58.000 L6.200,55.500 L6.200,53.000 L6.200,50.500 L6.200,48.000 L6.200,45.500 L6.200,43.000 L6.200,40.500 L6.200,38.000 L6.200,35.500 L6.200,33.000 L6.200,30.500 L6.200,28.000 L6.200,25.500 L6.200,23.000 L6.200,20.500 L6.200,18.000 L6.200,15.500 L6.200,13.000 L6.200,10.500 L6.200,8.000 L6.200,5.500 L6.200,3.000 L6.200,1.000 M6.600,1.000 L6.600,3.500 L6.600,6.000 L6.600,8.500 L6.600,11.000 L6.600,13.500 L6.600,16.000 L6.600,18.500 L6.600,21.000 L6.600,23.500 L6.600,26.000 L6.600,28.500 L6.600,31.000 L6.600,33.500 L6.600,36.000 L6.600,38.500 L6.600,41.000 L6.600,43.500 L6.600,46.000 L6.600,48.500 L6.600,51.000 L6.600,53.500 L6.600,56.000 L6.600,58.000 L6.600,57.300 L6.600,58.000 L6.600,57.300 L6.600,58.000 M7.400,1.000 L7.400,1.700 L7.400,1.000 L7.400,1.700 L7.400,1.000 L7.400,3.500 L7.400,6.000 L7.400,8.500 L7.400,11.000 L7.400,13.500 L7.400,16.000 L7.400,18.500 L7.400,21.000 L7.400,23.500 L7.400,26.000 L7.400,28.500 L7.400,31.000 L7.400,33.500 L7.400,36.000 L7.400,38.500 L7.400,41.000 L7.400,43.500 L7.400,46.000 L7.400,48.500 L7.400,51.000 L7.400,53.500 L7.400,56.000 L7.400,58.000 M7.800,58.000 L7.800,55.500 L7.800,53.000 L7.800,50.500 L7.800,48.000 L7.800,45.500 L7.800,43.000 L7.800,40.500 L7.800,38.000 L7.800,35.500 L7.800,33.000 L7.800,30.500 L7.800,28.000 L7.800,25.500 L7.800,23.000 L7.800,20.500 L7.800,18.000 L7.800,15.500 L7.800,13.000 L7.800,10.500 L7.800,8.000 L7.800,5.500 L7.800,3.000 L7.800,1.000 M8.200,1.000 L8.200,3.500 L8.200,6.000 L8.200,8.500 L8.200,11.000 L8.200,13.500 L8.200,16.000 L8.200,18.500 L8.200,21.000 L8.200,23.500 L8.200,26.000 L8.200,28.500 L8.200,31.000 L8.200,33.500 L8.200,36.000 L8.200,38.500 L8.200,41.000 L8.200,43.500 L8.200,46.000 L8.200,48.500 L8.200,51.000 L8.200,53.500 L8.200,56.000 L8.200,58.000 M8.600,58.000 L8.600,55.500 L8.600,53.000 L8.600,50.500 L8.600,48.000 L8.600,45.500 L8.600,43.000 L8.600,40.500 L8.600,38.000 L8.600,35.500 L8.600,33.000 L8.600,30.500 L8.600,28.000 L8.600,25.500 L8.600,23.000 L8.600,20.500 L8.600,18.000 L8.600,15.500 L8.600,13.000 L8.600,10.500 L8.600,8.000 L8.600,5.500 L8.600,3.000 L8.600,1.000 M9.000,1.000 L9.000,3.500 L9.000,6.000 L9.000,8.500 L9.000,11.000 L9.000,13.500 L9.000,16.000 L9.000,18.500 L9.000,21.000 L9.000,23.500 L9.000,26.000 L9.000,28.500 L9.000,31.000 L9.000,33.500 L9.000,36.000 L9.000,38.500 L9.000,41.000 L9.000,43.500 L9.000,46.000 L9.000,48.500 L9.000,51.000 L9.000,53.500 L9.000,56.000 L9.000,58.000 L9.000,57.300 L9.000,58.000 L9.000,57.300 L9.000,58.000 M9.800,1.000 L9.800,1.700 L9.800,1.000 L9.800,1.700 L9.800,1.000 L9.800,3.500 L9.800,6.000 L9.800,8.500 L9.800,11.000 L9.800,13.500 L9.800,16.000 L9.800,18.500 L9.800,21.000 L9.800,23.500 L9.800,26.000 L9.800,28.500 L9.800,31.000 L9.800,33.500 L9.800,36.000 L9.800,38.500 L9.800,41.000 L9.800,43.500 L9.800,46.000 L9.800,48.500 L9.800,51.000 L9.800,53.500 L9.800,56.000 L9.800,58.000 M10.200,58.000 L10.200,55.500 L10.200,53.000 L10.200,50.500 L10.200,48.000 L10.200,45.500 L10.200,43.000 L10.200,40.500 L10.200,38.000 L10.200,35.500 L10.200,33.000 L10.200,30.500 L10.200,28.000 L10.200,25.500 L10.200,23.000 L10.200,20.500 L10.200,18.000 L10.200,15.500 L10.200,13.000 L10.200,10.500 L10.200,8.000 L10.200,5.500 L10.200,3.000 L10.200,1.000 M10.600,1.000 L10.600,3.500 L10.600,6.000 L10.600,8.500 L10.600,11.000 L10.600,13.500 L10.600,16.000 L10.600,18.500 L10.600,21.000 L10.600,23.500 L10.600,26.000 L10.600,28.500 L10.600,31.000 L10.600,33.500 L10.600,36.000 L10.600,38.500 L10.600,41.000 L10.600,43.500 L10.600,46.000 L10.600,48.500 L10.600,51.000 L10.600,53.500 L10.600,56.000 L10.600,58.000 M11.000,58.000 L11.000,55.500 L11.000,53.000 L11.000,50.500 L11.000,48.000 L11.000,45.500 L11.000,43.000 L11.000,40.500 L11.000,38.000 L11.000,35.500 L11.000,33.000 L11.000,30.500 L11.000,28.000 L11.000,25.500 L11.000,23.000 L11.000,20.500 L11.000,18.000 L11.000,15.500 L11.000,13.000 L11.000,10.500 L11.000,8.000 L11.000,5.500 L11.000,3.000 L11.000,1.000 L11.000,1.700 L11.000,1.000 L11.000,1.700 L11.000,1.000 M11.800,58.000 L11.800,57.300 L11.800,58.000 L11.800,57.300 L11.800,58.000 L11.800,55.500 L11.800,53.000 L11.800,50.500 L11.800,48.000 L11.800,45.500 L11.800,43.000 L11.800,40.500 L11.800,38.000 L11.800,35.500 L11.800,33.000 L11.800,30.500 L11.800,28.000 L11.800,25.500 L11.800,23.000 L11.800,20.500 L11.800,18.000 L11.800,15.500 L11.800,13.000 L11.800,10.500 L11.800,8.000 L11.800,5.500 L11.800,3.000 L11.800,1.000 M12.200,1.000 L12.200,3.500 L12.200,6.000 L12.200,8.500 L12.200,11.000 L12.200,13.500 L12.200,16.000 L12.200,18.500 L12.200,21.000 L12.200,23.500 L12.200,26.000 L12.200,28.500 L12.200,31.000 L12.200,33.500 L12.200,36.000 L12.200,38.500 L12.200,41.000 L12.200,43.500 L12.200,46.000 L12.200,48.500 L12.200,51.000 L12.200,53.500 L12.200,56.000 L12.200,58.000 M12.600,58.000 L12.600,55.500 L12.600,53.000 L12.600,50.500 L12.600,48.000 L12.600,45.500 L12.600,43.000 L12.600,40.500 L12.600,38.000 L12.600,35.500 L12.600,33.000 L12.600,30.500 L12.600,28.000 L12.600,25.500 L12.600,23.000 L12.600,20.500 L12.600,18.000 L12.600,15.500 L12.600,13.000 L12.600,10.500 L12.600,8.000 L12.600,5.500 L12.600,3.000 L12.600,1.000 L12.600,1.700 L12.600,1.000 L12.600,1.700 L12.600,1.000 M13.400,58.000 L13.400,57.300 L13.400,58.000 L13.400,57.300 L13.400,58.000 L13.400,55.500 L13.400,53.000 L13.400,50.500 L13.400,48.000 L13.400,45.500 L13.400,43.000 L13.400,40.500 L13.400,38.000 L13.400,35.500 L13.400,33.000 L13.400,30.500 L13.400,28.000 L13.400,25.500 L13.400,23.000 L13.400,20.500 L13.400,18.000 L13.400,15.500 L13.400,13.000 L13.400,10.500 L13.400,8.000 L13.400,5.500 L13.400,3.000 L13.400,1.000 M13.800,1.000 L13.800,3.500 L13.800,6.000 L13.800,8.500 L13.800,11.000 L13.800,13.500 L13.800,16.000 L13.800,18.500 L13.800,21.000 L13.800,23.500 L13.800,26.000 L13.800,28.500 L13.800,31.000 L13.800,33.500 L13.800,36.000 L13.800,38.500 L13.800,41.000 L13.800,43.500 L13.800,46.000 L13.800,48.500 L13.800,51.000 L13.800,53.500 L13.800,56.000 L13.800,58.000 M14.200,58.000 L14.200,55.500 L14.200,53.000 L14.200,50.500 L14.200,48.000 L14.200,45.500 L14.200,43.000 L14.200,40.500 L14.200,38.000 L14.200,35.500 L14.200,33.000 L14.200,30.500 L14.200,28.000 L14.200,25.500 L14.200,23.000 L14.200,20.500 L14.200,18.000 L14.200,15.500 L14.200,13.000 L14.200,10.500 L14.200,8.000 L14.200,5.500 L14.200,3.000 L14.200,1.000 L14.200,1.700 L14.200,1.000 L14.200,1.700 L14.200,1.000 M15.000,58.000 L15.000,57.300 L15.000,58.000 L15.000,57.300 L15.000,58.000 L15.000,55.500 L15.000,53.000 L15.000,50.500 L15.000,48.000 L15.000,45.500 L15.000,43.000 L15.000,40.500 L15.000,38.000 L15.000,35.500 L15.000,33.000 L15.000,30.500 L15.000,28.000 L15.000,25.500 L15.000,23.000 L15.000,20.500 L15.000,18.000 L15.000,15.500 L15.000,13.000 L15.000,10.500 L15.000,8.000 L15.000,5.500 L15.000,3.000 L15.000,1.000 M15.400,1.000 L15.400,3.500 L15.400,6.000 L15.400,8.500 L15.400,11.000 L15.400,13.500 L15.400,16.000 L15.400,18.500 L15.400,21.000 L15.400,23.500 L15.400,26.000 L15.400,28.500 L15.400,31.000 L15.400,33.500 L15.400,36.000 L15.400,38.500 L15.400,41.000 L15.400,43.500 L15.400,46.000 L15.400,48.500 L15.400,51.000 L15.400,53.500 L15.400,56.000 L15.400,58.000 L15.400,57.300 L15.400,58.000 L15.400,57.300 L15.400,58.000 M16.200,1.000 L16.200,1.700 L16.200,1.000 L16.200,1.700 L16.200,1.000 L16.200,3.500 L16.200,6.000 L16.200,8.500 L16.200,11.000 L16.200,13.500 L16.200,16.000 L16.200,18.500 L16.200,21.000 L16.200,23.500 L16.200,26.000 L16.200,28.500 L16.200,31.000 L16.200,33.500 L16.200,36.000 L16.200,38.500 L16.200,41.000 L16.200,43.500 L16.200,46.000 L16.200,48.500 L16.200,51.000 L16.200,53.500 L16.200,56.000 L16.200,58.000 M16.600,58.000 L16.600,55.500 L16.600,53.000 L16.600,50.500 L16.600,48.000 L16.600,45.500 L16.600,43.000 L16.600,40.500 L16.600,38.000 L16.600,35.500 L16.600,33.000 L16.600,30.500 L16.600,28.000 L16.600,25.500 L16.600,23.000 L16.600,20.500 L16.600,18.000 L16.600,15.500 L16.600,13.000 L16.600,10.500 L16.600,8.000 L16.600,5.500 L16.600,3.000 L16.600,1.000 L16.600,1.700 L16.600,1.000 L16.600,1.700 L16.600,1.000 M17.400,58.000 L17.400,57.300 L17.400,58.000 L17.400,57.300 L17.400,58.000 L17.400,55.500 L17.400,53.000 L17.400,50.500 L17.400,48.000 L17.400,45.500 L17.400,43.000 L17.400,40.500 L17.400,38.000 L17.400,35.500 L17.400,33.000 L17.400,30.500 L17.400,28.000 L17.400,25.500 L17.400,23.000 L17.400,20.500 L17.400,18.000 L17.400,15.500 L17.400,13.000 L17.400,10.500 L17.400,8.000 L17.400,5.500 L17.400,3.000 L17.400,1.000 M17.800,1.000 L17.800,3.500 L17.800,6.000 L17.800,8.500 L17.800,11.000 L17.800,13.500 L17.800,16.000 L17.800,18.500 L17.800,21.000 L17.800,23.500 L17.800,26.000 L17.800,28.500 L17.800,31.000 L17.800,33.500 L17.800,36.000 L17.800,38.500 L17.800,41.000 L17.800,43.500 L17.800,46.000 L17.800,48.500 L17.800,51.000 L17.800,53.500 L17.800,56.000 L17.800,58.000 L17.800,57.300 L17.800,58.000 L17.800,57.300 L17.800,58.000 M18.600,1.000 L18.600,1.700 L18.600,1.000 L18.600,1.700 L18.600,1.000 L18.600,3.500 L18.600,6.000 L18.600,8.500 L18.600,11.000 L18.600,13.500 L18.600,16.000 L18.600,18.500 L18.600,21.000 L18.600,23.500 L18.600,26.000 L18.600,28.500 L18.600,31.000 L18.600,33.500 L18.600,36.000 L18.600,38.500 L18.600,41.000 L18.600,43.500 L18.600,46.000 L18.600,48.500 L18.600,51.000 L18.600,53.500 L18.600,56.000 L18.600,58.000 M19.000,58.000 L19.000,55.500 L19.000,53.000 L19.000,50.500 L19.000,48.000 L19.000,45.500 L19.000,43.000 L19.000,40.500 L19.000,38.000 L19.000,35.500 L19.000,33.000 L19.000,30.500 L19.000,28.000 L19.000,25.500 L19.000,23.000 L19.000,20.500 L19.000,18.000 L19.000,15.500 L19.000,13.000 L19.000,10.500 L19.000,8.000 L19.000,5.500 L19.000,3.000 L19.000,1.000 L19.000,1.700 L19.000,1.000 L19.000,1.700 L19.000,1.000 M19.800,58.000 L19.800,57.300 L19.800,58.000 L19.800,57.300 L19.800,58.000 L19.800,55.500 L19.800,53.000 L19.800,50.500 L19.800,48.000 L19.800,45.500 L19.800,43.000 L19.800,40.500 L19.800,38.000 L19.800,35.500 L19.800,33.000 L19.800,30.500 L19.800,28.000 L19.800,25.500 L19.800,23.000 L19.800,20.500 L19.800,18.000 L19.800,15.500 L19.800,13.000 L19.800,10.500 L19.800,8.000 L19.800,5.500 L19.800,3.000 L19.800,1.000 M20.200,1.000 L20.200,3.500 L20.200,6.000 L20.200,8.500 L20.200,11.000 L20.200,13.500 L20.200,16.000 L20.200,18.500 L20.200,21.000 L20.200,23.500 L20.200,26.000 L20.200,28.500 L20.200,31.000 L20.200,33.500 L20.200,36.000 L20.200,38.500 L20.200,41.000 L20.200,43.500 L20.200,46.000 L20.200,48.500 L20.200,51.000 L20.200,53.500 L20.200,56.000 L20.200,58.000 L20.200,57.300 L20.200,58.000 L20.200,57.300 L20.200,58.000 M21.000,1.000 L21.000,1.700 L21.000,1.000 L21.000,1.700 L21.000,1.000 L21.000,3.500 L21.000,6.000 L21.000,8.500 L21.000,11.000 L21.000,13.500 L21.000,16.000 L21.000,18.500 L21.000,21.000 L21.000,23.500 L21.000,26.000 L21.000,28.500 L21.000,31.000 L21.000,33.500 L21.000,36.000 L21.000,38.500 L21.000,41.000 L21.000,43.500 L21.000,46.000 L21.000,48.500 L21.000,51.000 L21.000,53.500 L21.000,56.000 L21.000,58.000 L21.000,57.300 L21.000,58.000 L21.000,57.300 L21.000,58.000 M21.800,1.000 L21.800,1.700 L21.800,1.000 L21.800,1.700 L21.800,1.000 L21.800,3.500 L21.800,6.000 L21.800,8.500 L21.800,11.000 L21.800,13.500 L21.800,16.000 L21.800,18.500 L21.800,21.000 L21.800,23.500 L21.800,26.000 L21.800,28.500 L21.800,31.000 L21.800,33.500 L21.800,36.000 L21.800,38.500 L21.800,41.000 L21.800,43.500 L21.800,46.000 L21.800,48.500 L21.800,51.000 L21.800,53.500 L21.800,56.000 L21.800,58.000 L21.800,57.300 L21.800,58.000 L21.800,57.300 L21.800,58.000 M22.600,1.000 L22.600,1.700 L22.600,1.000 L22.600,1.700 L22.600,1.000 L22.600,3.500 L22.600,6.000 L22.600,8.500 L22.600,11.000 L22.600,13.500 L22.600,16.000 L22.600,18.500 L22.600,21.000 L22.600,23.500 L22.600,26.000 L22.600,28.500 L22.600,31.000 L22.600,33.500 L22.600,36.000 L22.600,38.500 L22.600,41.000 L22.600,43.500 L22.600,46.000 L22.600,48.500 L22.600,51.000 L22.600,53.500 L22.600,56.000 L22.600,58.000 M23.000,58.000 L23.000,55.500 L23.000,53.000 L23.000,50.500 L23.000,48.000 L23.000,45.500 L23.000,43.000 L23.000,40.500 L23.000,38.000 L23.000,35.500 L23.000,33.000 L23.000,30.500 L23.000,28.000 L23.000,25.500 L23.000,23.000 L23.000,20.500 L23.000,18.000 L23.000,15.500 L23.000,13.000 L23.000,10.500 L23.000,8.000 L23.000,5.500 L23.000,3.000 L23.000,1.000 L23.000,1.700 L23.000,1.000 L23.000,1.700 L23.000,1.000 M23.800,58.000 L23.800,57.300 L23.800,58.000 L23.800,57.300 L23.800,58.000 L23.800,55.500 L23.800,53.000 L23.800,50.500 L23.800,48.000 L23.800,45.500 L23.800,43.000 L23.800,40.500 L23.800,38.000 L23.800,35.500 L23.800,33.000 L23.800,30.500 L23.800,28.000 L23.800,25.500 L23.800,23.000 L23.800,20.500 L23.800,18.000 L23.800,15.500 L23.800,13.000 L23.800,10.500 L23.800,8.000 L23.800,5.500 L23.800,3.000 L23.800,1.000 L23.800,1.700 L23.800,1.000 L23.800,1.700 L23.800,1.000 M24.600,58.000 L24.600,57.300 L24.600,58.000 L24.600,57.300 L24.600,58.000 L24.600,55.500 L24.600,53.000 L24.600,50.500 L24.600,48.000 L24.600,45.500 L24.600,43.000 L24.600,40.500 L24.600,38.000 L24.600,35.500 L24.600,33.000 L24.600,30.500 L24.600,28.000 L24.600,25.500 L24.600,23.000 L24.600,20.500 L24.600,18.000 L24.600,15.500 L24.600,13.000 L24.600,10.500 L24.600,8.000 L24.600,5.500 L24.600,3.000 L24.600,1.000 L24.600,1.700 L24.600,1.000 L24.600,1.700 L24.600,1.000 M25.400,58.000 L25.400,57.300 L25.400,58.000 L25.400,57.300 L25.400,58.000 L25.400,55.500 L25.400,53.000 L25.400,50.500 L25.400,48.000 L25.400,45.500 L25.400,43.000 L25.400,40.500 L25.400,38.000 L25.400,35.500 L25.400,33.000 L25.400,30.500 L25.400,28.000 L25.400,25.500 L25.400,23.000 L25.400,20.500 L25.400,18.000 L25.400,15.500 L25.400,13.000 L25.400,10.500 L25.400,8.000 L25.400,5.500 L25.400,3.000 L25.400,1.000 L25.400,1.700 L25.400,1.000 L25.400,1.700 L25.400,1.000 M26.200,58.000 L26.200,57.300 L26.200,58.000 L26.200,57.300 L26.200,58.000 L26.200,55.500 L26.200,53.000 L26.200,50.500 L26.200,48.000 L26.200,45.500 L26.200,43.000 L26.200,40.500 L26.200,38.000 L26.200,35.500 L26.200,33.000 L26.200,30.500 L26.200,28.000 L26.200,25.500 L26.200,23.000 L26.200,20.500 L26.200,18.000 L26.200,15.500 L26.200,13.000 L26.200,10.500 L26.200,8.000 L26.200,5.500 L26.200,3.000 L26.200,1.000 L26.200,1.700 L26.200,1.000 L26.200,1.700 L26.200,1.000 M27.000,58.000 L27.000,57.300 L27.000,58.000 L27.000,57.300 L27.000,58.000 L27.000,55.500 L27.000,53.000 L27.000,50.500 L27.000,48.000 L27.000,45.500 L27.000,43.000 L27.000,40.500 L27.000,38.000 L27.000,35.500 L27.000,33.000 L27.000,30.500 L27.000,28.000 L27.000,25.500 L27.000,23.000 L27.000,20.500 L27.000,18.000 L27.000,15.500 L27.000,13.000 L27.000,10.500 L27.000,8.000 L27.000,5.500 L27.000,3.000 L27.000,1.000 L27.000,1.700 L27.000,1.000 L27.000,1.700 L27.000,1.000 M27.800,58.000 L27.800,57.300 L27.800,58.000 L27.800,57.300 L27.800,58.000 L27.800,55.500 L27.800,53.000 L27.800,50.500 L27.800,48.000 L27.800,45.500 L27.800,43.000 L27.800,40.500 L27.800,38.000 L27.800,35.500 L27.800,33.000 L27.800,30.500 L27.800,28.000 L27.800,25.500 L27.800,23.000 L27.800,20.500 L27.800,18.000 L27.800,15.500 L27.800,13.000 L27.800,10.500 L27.800,8.000 L27.800,5.500 L27.800,3.000 L27.800,1.000 L27.800,1.700 L27.800,1.000 L27.800,1.700 L27.800,1.000 M28.600,58.000 L28.600,57.300 L28.600,58.000 L28.600,57.300 L28.600,58.000 L28.600,55.500 L28.600,53.000 L28.600,50.500 L28.600,48.000 L28.600,45.500 L28.600,43.000 L28.600,40.500 L28.600,38.000 L28.600,35.500 L28.600,33.000 L28.600,30.500 L28.600,28.000 L28.600,25.500 L28.600,23.000 L28.600,20.500 L28.600,18.000 L28.600,15.500 L28.600,13.000 L28.600,10.500 L28.600,8.000 L28.600,5.500 L28.600,3.000 L28.600,1.000 L28.600,1.700 L28.600,1.000 L28.600,1.700 L28.600,1.000 M29.400,58.000 L29.400,57.300 L29.400,58.000 L29.400,57.300 L29.400,58.000 L29.400,55.500 L29.400,53.000 L29.400,50.500 L29.400,48.000 L29.400,45.500 L29.400,43.000 L29.400,40.500 L29.400,38.000 L29.400,35.500 L29.400,33.000 L29.400,30.500 L29.400,28.000 L29.400,25.500 L29.400,23.000 L29.400,20.500 L29.400,18.000 L29.400,15.500 L29.400,13.000 L29.400,10.500 L29.400,8.000 L29.400,5.500 L29.400,3.000 L29.400,1.000 M30.600,1.000 L30.600,3.500 L30.600,6.000 L30.600,8.500 L30.600,11.000 L30.600,13.500 L30.600,16.000 L30.600,18.500 L30.600,21.000 L30.600,23.500 L30.600,26.000 L30.600,28.500 L30.600,31.000 L30.600,33.500 L30.600,36.000 L30.600,38.500 L30.600,41.000 L30.600,43.500 L30.600,46.000 L30.600,48.500 L30.600,51.000 L30.600,53.500 L30.600,56.000 L30.600,58.000 L30.600,57.300 L30.600,58.000 L30.600,57.300 L30.600,58.000 M31.400,1.000 L31.400,1.700 L31.400,1.000 L31.400,1.700 L31.400,1.000 L31.400,3.500 L31.400,6.000 L31.400,8.500 L31.400,11.000 L31.400,13.500 L31.400,16.000 L31.400,18.500 L31.400,21.000 L31.400,23.500 L31.400,26.000 L31.400,28.500 L31.400,31.000 L31.400,33.500 L31.400,36.000 L31.400,38.500 L31.400,41.000 L31.400,43.500 L31.400,46.000 L31.400,48.500 L31.400,51.000 L31.400,53.500 L31.400,56.000 L31.400,58.000 L31.400,57.300 L31.400,58.000 L31.400,57.300 L31.400,58.000 M32.200,1.000 L32.200,1.700 L32.200,1.000 L32.200,1.700 L32.200,1.000 L32.200,3.500 L32.200,6.000 L32.200,8.500 L32.200,11.000 L32.200,13.500 L32.200,16.000 L32.200,18.500 L32.200,21.000 L32.200,23.500 L32.200,26.000 L32.200,28.500 L32.200,31.000 L32.200,33.500 L32.200,36.000 L32.200,38.500 L32.200,41.000 L32.200,43.500 L32.200,46.000 L32.200,48.500 L32.200,51.000 L32.200,53.500 L32.200,56.000 L32.200,58.000 M33.400,58.000 L33.400,55.500 L33.400,53.000 L33.400,50.500 L33.400,48.000 L33.400,45.500 L33.400,43.000 L33.400,40.500 L33.400,38.000 L33.400,35.500 L33.400,33.000 L33.400,30.500 L33.400,28.000 L33.400,25.500 L33.400,23.000 L33.400,20.500 L33.400,18.000 L33.400,15.500 L33.400,13.000 L33.400,10.500 L33.400,8.000 L33.400,5.500 L33.400,3.000 L33.400,1.000 M34.600,1.000 L34.600,3.500 L34.600,6.000 L34.600,8.500 L34.600,11.000 L34.600,13.500 L34.600,16.000 L34.600,18.500 L34.600,21.000 L34.600,23.500 L34.600,26.000 L34.600,28.500 L34.600,31.000 L34.600,33.500 L34.600,36.000 L34.600,38.500 L34.600,41.000 L34.600,43.500 L34.600,46.000 L34.600,48.500 L34.600,51.000 L34.600,53.500 L34.600,56.000 L34.600,58.000 L34.600,57.300 L34.600,58.000 L34.600,57.300 L34.600,58.000 M35.400,1.000 L35.400,1.700 L35.400,1.000 L35.400,1.700 L35.400,1.000 L35.400,3.500 L35.400,6.000 L35.400,8.500 L35.400,11.000 L35.400,13.500 L35.400,16.000 L35.400,18.500 L35.400,21.000 L35.400,23.500 L35.400,26.000 L35.400,28.500 L35.400,31.000 L35.400,33.500 L35.400,36.000 L35.400,38.500 L35.400,41.000 L35.400,43.500 L35.400,46.000 L35.400,48.500 L35.400,51.000 L35.400,53.500 L35.400,56.000 L35.400,58.000 M36.600,58.000 L36.600,55.500 L36.600,53.000 L36.600,50.500 L36.600,48.000 L36.600,45.500 L36.600,43.000 L36.600,40.500 L36.600,38.000 L36.600,35.500 L36.600,33.000 L36.600,30.500 L36.600,28.000 L36.600,25.500 L36.600,23.000 L36.600,20.500 L36.600,18.000 L36.600,15.500 L36.600,13.000 L36.600,10.500 L36.600,8.000 L36.600,5.500 L36.600,3.000 L36.600,1.000 M37.800,1.000 L37.800,3.500 L37.800,6.000 L37.800,8.500 L37.800,11.000 L37.800,13.500 L37.800,16.000 L37.800,18.500 L37.800,21.000 L37.800,23.500 L37.800,26.000 L37.800,28.500 L37.800,31.000 L37.800,33.500 L37.800,36.000 L37.800,38.500 L37.800,41.000 L37.800,43.500 L37.800,46.000 L37.800,48.500 L37.800,51.000 L37.800,53.500 L37.800,56.000 L37.800,58.000 M39.000,58.000 L39.000,55.500 L39.000,53.000 L39.000,50.500 L39.000,48.000 L39.000,45.500 L39.000,43.000 L39.000,40.500 L39.000,38.000 L39.000,35.500 L39.000,33.000 L39.000,30.500 L39.000,28.000 L39.000,25.500 L39.000,23.000 L39.000,20.500 L39.000,18.000 L39.000,15.500 L39.000,13.000 L39.000,10.500 L39.000,8.000 L39.000,5.500 L39.000,3.000 L39.000,1.000 L39.000,1.700 L39.000,1.000 L39.000,1.700 L39.000,1.000 M40.600,58.000 L40.600,57.300 L40.600,58.000 L40.600,57.300 L40.600,58.000 L40.600,55.500 L40.600,53.000 L40.600,50.500 L40.600,48.000 L40.600,45.500 L40.600,43.000 L40.600,40.500 L40.600,38.000 L40.600,35.500 L40.600,33.000 L40.600,30.500 L40.600,28.000 L40.600,25.500 L40.600,23.000 L40.600,20.500 L40.600,18.000 L40.600,15.500 L40.600,13.000 L40.600,10.500 L40.600,8.000 L40.600,5.500 L40.600,3.000 L40.600,1.000 M41.800,1.000 L41.800,3.500 L41.800,6.000 L41.800,8.500 L41.800,11.000 L41.800,13.500 L41.800,16.000 L41.800,18.500 L41.800,21.000 L41.800,23.500 L41.800,26.000 L41.800,28.500 L41.800,31.000 L41.800,33.500 L41.800,36.000 L41.800,38.500 L41.800,41.000 L41.800,43.500 L41.800,46.000 L41.800,48.500 L41.800,51.000 L41.800,53.500 L41.800,56.000 L41.800,58.000 L41.800,57.300 L41.800,58.000 L41.800,57.300 L41.800,58.000 M43.400,1.000 L43.400,1.700 L43.400,1.000 L43.400,1.700 L43.400,1.000 L43.400,3.500 L43.400,6.000 L43.400,8.500 L43.400,11.000 L43.400,13.500 L43.400,16.000 L43.400,18.500 L43.400,21.000 L43.400,23.500 L43.400,26.000 L43.400,28.500 L43.400,31.000 L43.400,33.500 L43.400,36.000 L43.400,38.500 L43.400,41.000 L43.400,43.500 L43.400,46.000 L43.400,48.500 L43.400,51.000 L43.400,53.500 L43.400,56.000 L43.400,58.000 M45.400,58.000 L45.400,55.500 L45.400,53.000 L45.400,50.500 L45.400,48.000 L45.400,45.500 L45.400,43.000 L45.400,40.500 L45.400,38.000 L45.400,35.500 L45.400,33.000 L45.400,30.500 L45.400,28.000 L45.400,25.500 L45.400,23.000 L45.400,20.500 L45.400,18.000 L45.400,15.500 L45.400,13.000 L45.400,10.500 L45.400,8.000 L45.400,5.500 L45.400,3.000 L45.400,1.000 L45.400,1.700 L45.400,1.000 L45.400,1.700 L45.400,1.000 M47.000,58.000 L47.000,57.300 L47.000,58.000 L47.000,57.300 L47.000,58.000 L47.000,55.500 L47.000,53.000 L47.000,50.500 L47.000,48.000 L47.000,45.500 L47.000,43.000 L47.000,40.500 L47.000,38.000 L47.000,35.500 L47.000,33.000 L47.000,30.500 L47.000,28.000 L47.000,25.500 L47.000,23.000 L47.000,20.500 L47.000,18.000 L47.000,15.500 L47.000,13.000 L47.000,10.500 L47.000,8.000 L47.000,5.500 L47.000,3.000 L47.000,1.000 L47.000,1.700 L47.000,1.000 L47.000,1.700 L47.000,1.000 M49.400,58.000 L49.400,57.300 L49.400,58.000 L49.400,57.300 L49.400,58.000 L49.400,55.500 L49.400,53.000 L49.400,50.500 L49.400,48.000 L49.400,45.500 L49.400,43.000 L49.400,40.500 L49.400,38.000 L49.400,35.500 L49.400,33.000 L49.400,30.500 L49.400,28.000 L49.400,25.500 L49.400,23.000 L49.400,20.500 L49.400,18.000 L49.400,15.500 L49.400,13.000 L49.400,10.500 L49.400,8.000 L49.400,5.500 L49.400,3.000 L49.400,1.000 L49.400,1.700 L49.400,1.000 L49.400,1.700 L49.400,1.000 M51.800,58.000 L51.800,57.300 L51.800,58.000 L51.800,57.300 L51.800,58.000 L51.800,55.500 L51.800,53.000 L51.800,50.500 L51.800,48.000 L51.800,45.500 L51.800,43.000 L51.800,40.500 L51.800,38.000 L51.800,35.500 L51.800,33.000 L51.800,30.500 L51.800,28.000 L51.800,25.500 L51.800,23.000 L51.800,20.500 L51.800,18.000 L51.800,15.500 L51.800,13.000 L51.800,10.500 L51.800,8.000 L51.800,5.500 L51.800,3.000 L51.800,1.000 M54.600,1.000 L54.600,3.500 L54.600,6.000 L54.600,8.500 L54.600,11.000 L54.600,13.500 L54.600,16.000 L54.600,18.500 L54.600,21.000 L54.600,23.500 L54.600,26.000 L54.600,28.500 L54.600,31.000 L54.600,33.500 L54.600,36.000 L54.600,38.500 L54.600,41.000 L54.600,43.500 L54.600,46.000 L54.600,48.500 L54.600,51.000 L54.600,53.500 L54.600,56.000 L54.600,58.000 M58.200,58.000 L58.200,55.500 L58.200,53.000 L58.200,50.500 L58.200,48.000 L58.200,45.500 L58.200,43.000 L58.200,40.500 L58.200,38.000 L58.200,35.500 L58.200,33.000 L58.200,30.500 L58.200,28.000 L58.200,25.500 L58.200,23.000 L58.200,20.500 L58.200,18.000 L58.200,15.500 L58.200,13.000 L58.200,10.500 L58.200,8.000 L58.200,5.500 L58.200,3.000 L58.200,1.000 L58.200,1.700 L58.200,1.000 L58.200,1.700 L58.200,1.000 M64.600,58.000 L64.600,57.300 L64.600,58.000 L64.600,57.300 L64.600,58.000 L64.600,55.500 L64.600,53.000 L64.600,50.500 L64.600,48.000 L64.600,45.500 L64.600,43.000 L64.600,40.500 L64.600,38.000 L64.600,35.500 L64.600,33.000 L64.600,30.500 L64.600,28.000 L64.600,25.500 L64.600,23.000 L64.600,20.500 L64.600,18.000 L64.600,15.500 L64.600,13.000 L64.600,10.500 L64.600,8.000 L64.600,5.500 L64.600,3.000 L64.600,1.000 L64.600,1.700 L64.600,1.000 L64.600,1.700 L64.600,1.000"/>
</svg>
