<svg xmlns="http://www.w3.org/2000/svg" viewBox="0 0 64 64" width="256" height="256">
  <title>hilbert2</title>
  <rect x="0" y="0" width="64" height="64" fill="#f5efe4"/>
  <path fill="none" stroke="#31604f" stroke-width="0.4" stroke-linecap="round" stroke-linejoin="round" d="M1.000,63.000 L1.000,63.000 L1.400,63.000 L1.800,63.000 L2.200,62.989 L2.583,62.875 L2.868,62.595 L2.987,62.213 L2.991,61.813 L2.882,61.428 L2.606,61.138 L2.225,61.014 L1.826,60.993 L1.440,60.889 L1.146,60.618 L1.016,60.239 L1.000,59.840 L1.000,59.440 L1.000,59.040 L1.000,58.640 L1.000,58.240 L1.005,57.840 L1.104,57.452 L1.370,57.153 L1.746,57.018 L2.146,57.003 L2.535,57.096 L2.839,57.356 L2.979,57.731 L3.001,58.130 L3.090,58.520 L3.342,58.830 L3.715,58.977 L4.114,59.000 L4.505,58.915 L4.822,58.672 L4.975,58.302 L5.000,57.903 L5.080,57.511 L5.314,57.187 L5.681,57.028 L6.080,57.000 L6.473,57.074 L6.802,57.302 L6.970,57.665 L7.000,58.064 L7.000,58.464 L7.000,58.864 L7.000,59.264 L7.000,59.664 L7.000,60.064 L6.931,60.458 L6.709,60.791 L6.350,60.967 L5.951,61.000 L5.556,61.065 L5.220,61.280 L5.038,61.637 L5.000,62.035 L5.060,62.430 L5.271,62.771 L5.624,62.958 L6.022,63.000 L6.422,63.000 L6.822,63.000 L7.222,63.000 L7.622,63.000 L8.022,63.000 L8.418,62.944 L8.761,62.739 L8.954,62.388 L9.000,61.991 L9.052,61.594 L9.252,61.248 L9.600,61.050 L9.996,61.000 L10.394,61.048 L10.743,61.243 L10.946,61.587 L11.000,61.984 L11.044,62.381 L11.234,62.734 L11.575,62.942 L11.971,63.000 L12.371,63.000 L12.771,63.000 L13.171,63.000 L13.571,63.000 L13.971,63.000 L14.369,62.960 L14.724,62.776 L14.937,62.438 L15.000,62.043 L14.965,61.644 L14.786,61.286 L14.452,61.067 L14.057,61.000 L13.659,60.969 L13.297,60.797 L13.072,60.467 L13.000,60.073 L13.029,59.674 L13.191,59.309 L13.518,59.077 L13.910,59.000 L14.309,58.974 L14.678,58.818 L14.917,58.498 L15.000,58.107 L14.976,57.707 L14.827,57.336 L14.513,57.088 L14.123,57.000 L13.723,57.000 L13.323,57.000 L12.923,57.000 L12.523,57.000 L12.123,57.000 L11.724,57.022 L11.350,57.165 L11.093,57.471 L11.002,57.861 L10.981,58.260 L10.844,58.636 L10.543,58.899 L10.154,58.996 L9.755,58.983 L9.377,58.851 L9.108,58.555 L9.006,58.168 L9.000,57.768 L9.000,57.368 L9.000,56.968 L9.000,56.568 L9.000,56.168 L9.000,55.768 L9.000,55.368 L9.000,54.968 L9.000,54.568 L9.000,54.168 L9.015,53.769 L9.142,53.389 L9.433,53.115 L9.818,53.008 L10.218,53.013 L10.600,53.135 L10.878,53.422 L10.990,53.806 L11.011,54.205 L11.128,54.588 L11.410,54.871 L11.793,54.988 L12.193,55.000 L12.593,55.000 L12.993,55.000 L13.393,55.000 L13.793,55.000 L14.192,54.990 L14.577,54.879 L14.864,54.601 L14.986,54.220 L14.992,53.820 L14.886,53.435 L14.612,53.142 L14.233,53.015 L13.834,52.994 L13.447,52.893 L13.150,52.625 L13.017,52.247 L13.004,51.848 L13.099,51.459 L13.362,51.158 L13.738,51.020 L14.137,50.998 L14.527,50.908 L14.834,50.652 L14.978,50.279 L15.000,49.879 L14.913,49.489 L14.666,49.174 L14.295,49.024 L13.896,49.000 L13.496,49.000 L13.096,49.000 L12.696,49.000 L12.296,49.000 L11.896,49.000 L11.504,49.082 L11.183,49.320 L11.027,49.689 L11.000,50.088 L10.923,50.480 L10.693,50.807 L10.328,50.971 L9.929,51.000 L9.535,50.928 L9.204,50.704 L9.031,50.344 L9.000,49.945 L8.933,49.550 L8.715,49.215 L8.358,49.036 L7.959,49.000 L7.559,49.000 L7.159,49.000 L6.759,49.000 L6.359,49.000 L5.959,49.000 L5.564,49.062 L5.225,49.275 L5.040,49.629 L5.000,50.027 L5.058,50.423 L5.265,50.765 L5.617,50.956 L6.014,51.000 L6.411,51.054 L6.756,51.256 L6.952,51.605 L7.000,52.002 L7.000,52.402 L7.000,52.802 L7.000,53.202 L7.000,53.602 L7.000,54.002 L6.950,54.399 L6.753,54.747 L6.407,54.948 L6.011,55.000 L5.613,54.954 L5.262,54.762 L5.057,54.420 L5.000,54.024 L4.959,53.626 L4.772,53.272 L4.432,53.061 L4.037,53.000 L3.639,53.037 L3.282,53.218 L3.065,53.554 L3.000,53.949 L2.967,54.348 L2.793,54.707 L2.460,54.930 L2.066,55.000 L1.667,54.970 L1.304,54.804 L1.075,54.476 L1.000,54.083 L1.000,53.683 L1.000,53.283 L1.000,52.883 L1.000,52.483 L1.000,52.083 L1.027,51.684 L1.185,51.316 L1.509,51.080 L1.900,51.000 L2.300,50.975 L2.670,50.823 L2.914,50.507 L3.000,50.116 L2.977,49.717 L2.832,49.344 L2.522,49.091 L2.132,49.001 L1.733,48.980 L1.358,48.840 L1.097,48.537 L1.003,48.148 L1.000,47.748 L1.000,47.348 L1.000,46.948 L1.000,46.548 L1.000,46.148 L1.018,45.748 L1.152,45.372 L1.450,45.105 L1.838,45.005 L2.237,45.016 L2.616,45.145 L2.888,45.438 L2.993,45.824 L3.014,46.224 L3.138,46.604 L3.426,46.881 L3.811,46.991 L4.211,47.000 L4.611,47.000 L5.011,47.000 L5.411,47.000 L5.811,47.000 L6.211,46.988 L6.593,46.869 L6.874,46.585 L6.989,46.202 L6.990,45.802 L6.876,45.418 L6.596,45.133 L6.214,45.013 L5.815,44.991 L5.430,44.883 L5.140,44.608 L5.015,44.228 L5.007,43.828 L5.110,43.441 L5.381,43.147 L5.759,43.017 L6.158,42.995 L6.546,42.897 L6.846,42.632 L6.981,42.256 L6.997,41.856 L6.905,41.467 L6.646,41.163 L6.272,41.021 L5.872,41.000 L5.472,41.000 L5.072,41.000 L4.672,41.000 L4.272,41.000 L3.872,41.000 L3.482,41.089 L3.171,41.340 L3.023,41.712 L3.000,42.111 L2.916,42.502 L2.674,42.821 L2.304,42.974 L1.905,43.000 L1.513,42.921 L1.188,42.688 L1.028,42.321 L1.000,41.922 L1.000,41.522 L1.000,41.122 L1.000,40.722 L1.000,40.322 L1.000,39.922 L1.074,39.529 L1.300,39.200 L1.663,39.030 L2.062,39.000 L2.456,38.931 L2.789,38.711 L2.966,38.352 L3.000,37.953 L2.936,37.558 L2.721,37.221 L2.365,37.038 L1.967,37.000 L1.572,36.941 L1.231,36.731 L1.043,36.378 L1.000,35.980 L1.000,35.580 L1.000,35.180 L1.000,34.780 L1.000,34.380 L1.000,33.980 L1.055,33.584 L1.260,33.240 L1.610,33.047 L2.007,33.000 L2.404,33.051 L2.751,33.251 L2.949,33.598 L3.000,33.994 L3.047,34.392 L3.241,34.741 L3.586,34.945 L3.982,35.000 L4.379,34.957 L4.732,34.768 L4.941,34.427 L5.000,34.031 L5.039,33.633 L5.222,33.278 L5.560,33.063 L5.955,33.000 L6.353,33.034 L6.712,33.212 L6.932,33.546 L7.000,33.940 L7.000,34.340 L7.000,34.740 L7.000,35.140 L7.000,35.540 L7.000,35.940 L6.969,36.339 L6.799,36.701 L6.469,36.927 L6.076,37.000 L5.677,37.028 L5.311,37.189 L5.078,37.515 L5.000,37.907 L5.026,38.306 L5.180,38.675 L5.499,38.916 L5.891,39.000 L6.291,39.000 L6.691,39.000 L7.091,39.000 L7.491,39.000 L7.891,39.000 L8.291,39.000 L8.691,39.000 L9.091,39.000 L9.491,39.000 L9.891,39.000 L10.290,38.976 L10.661,38.828 L10.911,38.516 L11.000,38.126 L10.979,37.726 L10.836,37.352 L10.531,37.094 L10.142,37.002 L9.743,36.981 L9.366,36.845 L9.102,36.545 L9.005,36.157 L9.000,35.757 L9.000,35.357 L9.000,34.957 L9.000,34.557 L9.000,34.157 L9.017,33.757 L9.147,33.379 L9.443,33.109 L9.829,33.007 L10.229,33.015 L10.609,33.140 L10.884,33.431 L10.992,33.816 L11.013,34.216 L11.133,34.597 L11.420,34.877 L11.803,34.990 L12.203,34.989 L12.586,34.873 L12.870,34.592 L12.988,34.209 L13.009,33.810 L13.120,33.425 L13.397,33.137 L13.777,33.014 L14.177,33.007 L14.563,33.113 L14.856,33.385 L14.984,33.764 L15.000,34.164 L15.000,34.564 L15.000,34.964 L15.000,35.364 L15.000,35.764 L14.994,36.164 L14.894,36.551 L14.627,36.849 L14.250,36.982 L13.850,37.004 L13.462,37.098 L13.159,37.360 L13.020,37.735 L13.001,38.134 L13.091,38.524 L13.346,38.832 L13.719,38.978 L14.118,39.000 L14.509,39.086 L14.824,39.332 L14.975,39.702 L15.000,40.102 L15.000,40.502 L15.000,40.902 L15.000,41.302 L15.000,41.702 L15.000,42.102 L14.919,42.493 L14.682,42.816 L14.314,42.973 L13.915,43.000 L13.523,42.924 L13.195,42.695 L13.029,42.331 L13.000,41.932 L12.929,41.538 L12.706,41.206 L12.346,41.032 L11.947,41.000 L11.547,41.000 L11.147,41.000 L10.747,41.000 L10.347,41.000 L9.947,41.000 L9.553,41.066 L9.217,41.283 L9.037,41.640 L9.000,42.038 L9.061,42.434 L9.273,42.773 L9.627,42.959 L10.025,43.000 L10.421,43.057 L10.764,43.264 L10.955,43.615 L11.000,44.012 L10.947,44.409 L10.746,44.754 L10.397,44.951 L10.000,45.000 L9.603,45.049 L9.255,45.245 L9.053,45.591 L9.000,45.987 L9.045,46.385 L9.236,46.736 L9.578,46.943 L9.974,47.000 L10.374,47.000 L10.774,47.000 L11.174,47.000 L11.574,47.000 L11.974,47.000 L12.372,46.959 L12.726,46.774 L12.939,46.434 L13.000,46.039 L13.036,45.641 L13.216,45.284 L13.552,45.066 L13.946,45.000 L14.345,45.032 L14.705,45.205 L14.929,45.537 L15.000,45.931 L15.029,46.330 L15.194,46.694 L15.522,46.924 L15.914,47.000 L16.313,46.973 L16.681,46.816 L16.919,46.494 L17.000,46.103 L17.025,45.703 L17.175,45.333 L17.491,45.086 L17.881,45.000 L18.280,45.022 L18.653,45.167 L18.908,45.475 L18.999,45.865 L19.020,46.264 L19.159,46.639 L19.461,46.901 L19.849,46.996 L20.249,47.000 L20.649,47.000 L21.049,47.000 L21.449,47.000 L21.849,47.000 L22.249,46.982 L22.626,46.849 L22.894,46.552 L22.994,46.165 L22.984,45.765 L22.857,45.386 L22.564,45.113 L22.178,45.008 L21.779,44.986 L21.398,44.864 L21.120,44.576 L21.009,44.191 L21.012,43.791 L21.130,43.409 L21.413,43.127 L21.796,43.011 L22.196,42.990 L22.580,42.877 L22.866,42.598 L22.987,42.217 L22.992,41.817 L22.884,41.432 L22.610,41.141 L22.230,41.015 L21.830,41.000 L21.430,41.000 L21.030,41.000 L20.630,41.000 L20.230,41.000 L19.830,41.006 L19.444,41.109 L19.148,41.378 L19.017,41.756 L18.996,42.156 L18.899,42.544 L18.635,42.844 L18.259,42.981 L17.859,42.998 L17.469,42.906 L17.164,42.648 L17.021,42.275 L17.000,41.875 L17.000,41.475 L17.000,41.075 L17.000,40.675 L17.000,40.275 L17.000,39.875 L17.088,39.485 L17.338,39.172 L17.709,39.024 L18.108,39.000 L18.500,38.917 L18.819,38.676 L18.974,38.307 L19.000,37.908 L18.922,37.516 L18.690,37.190 L18.324,37.028 L17.925,37.000 L17.532,36.927 L17.202,36.702 L17.031,36.340 L17.000,35.941 L17.000,35.541 L17.000,35.141 L17.000,34.741 L17.000,34.341 L17.000,33.941 L17.068,33.547 L17.287,33.213 L17.646,33.035 L18.044,33.000 L18.439,33.063 L18.777,33.277 L18.961,33.632 L19.000,34.031 L19.059,34.426 L19.267,34.767 L19.620,34.957 L20.018,35.000 L20.414,34.945 L20.758,34.742 L20.953,34.392 L21.000,33.995 L21.051,33.598 L21.249,33.251 L21.596,33.051 L21.992,33.000 L22.390,33.047 L22.740,33.240 L22.944,33.583 L23.000,33.980 L23.000,34.380 L23.000,34.780 L23.000,35.180 L23.000,35.580 L23.000,35.980 L22.958,36.377 L22.770,36.730 L22.429,36.940 L22.034,37.000 L21.635,37.038 L21.279,37.221 L21.064,37.558 L21.000,37.953 L21.034,38.351 L21.210,38.710 L21.543,38.931 L21.938,39.000 L22.338,39.000 L22.738,39.000 L23.138,39.000 L23.538,39.000 L23.938,39.000 L24.338,39.000 L24.738,39.000 L25.138,39.000 L25.538,39.000 L25.938,39.000 L26.336,38.970 L26.699,38.801 L26.926,38.472 L27.000,38.079 L26.972,37.680 L26.813,37.313 L26.488,37.079 L26.096,37.000 L25.697,36.975 L25.327,36.821 L25.084,36.503 L25.000,36.112 L25.000,35.712 L25.000,35.312 L25.000,34.912 L25.000,34.512 L25.000,34.112 L25.023,33.713 L25.170,33.341 L25.481,33.090 L25.871,33.001 L26.271,33.021 L26.645,33.162 L26.905,33.466 L26.997,33.855 L27.019,34.255 L27.154,34.631 L27.453,34.897 L27.841,34.995 L28.241,34.983 L28.619,34.854 L28.890,34.559 L28.993,34.173 L29.015,33.773 L29.139,33.393 L29.429,33.118 L29.814,33.009 L30.214,33.013 L30.596,33.132 L30.876,33.418 L30.989,33.801 L31.000,34.201 L31.000,34.601 L31.000,35.001 L31.000,35.401 L31.000,35.801 L30.989,36.201 L30.874,36.584 L30.593,36.869 L30.211,36.988 L29.812,37.009 L29.427,37.119 L29.138,37.395 L29.014,37.775 L29.007,38.175 L29.112,38.561 L29.383,38.855 L29.762,38.984 L30.161,39.005 L30.549,39.104 L30.847,39.371 L30.982,39.747 L31.000,40.147 L31.000,40.547 L31.000,40.947 L31.000,41.347 L31.000,41.747 L30.997,42.147 L30.903,42.536 L30.643,42.839 L30.268,42.980 L29.869,42.999 L29.479,42.910 L29.169,42.657 L29.023,42.284 L29.000,41.885 L28.915,41.494 L28.671,41.177 L28.301,41.025 L27.901,41.000 L27.501,41.000 L27.101,41.000 L26.701,41.000 L26.301,41.000 L25.901,41.000 L25.510,41.080 L25.186,41.315 L25.028,41.682 L25.000,42.082 L25.075,42.474 L25.303,42.803 L25.666,42.970 L26.065,43.000 L26.459,43.070 L26.792,43.292 L26.967,43.651 L27.000,44.050 L26.935,44.445 L26.719,44.781 L26.362,44.963 L25.964,45.000 L25.569,45.060 L25.229,45.271 L25.042,45.625 L25.000,46.023 L25.056,46.419 L25.262,46.762 L25.613,46.954 L26.010,47.000 L26.410,47.000 L26.810,47.000 L27.210,47.000 L27.610,47.000 L28.010,47.000 L28.406,46.948 L28.753,46.747 L28.950,46.400 L29.000,46.003 L29.048,45.606 L29.243,45.257 L29.588,45.054 L29.985,45.000 L30.382,45.044 L30.734,45.234 L30.942,45.576 L31.000,45.972 L31.000,46.372 L31.000,46.772 L31.000,47.172 L31.000,47.572 L31.000,47.972 L30.960,48.370 L30.775,48.725 L30.437,48.938 L30.042,49.000 L29.643,49.036 L29.286,49.214 L29.067,49.549 L29.000,49.944 L29.031,50.343 L29.203,50.703 L29.534,50.928 L29.928,51.000 L30.327,51.029 L30.692,51.192 L30.923,51.519 L31.000,51.911 L31.000,52.311 L31.000,52.711 L31.000,53.111 L31.000,53.511 L31.000,53.911 L30.974,54.310 L30.818,54.679 L30.497,54.918 L30.106,55.000 L29.706,54.976 L29.335,54.826 L29.087,54.512 L29.000,54.122 L28.978,53.723 L28.835,53.349 L28.528,53.093 L28.138,53.002 L27.739,53.019 L27.363,53.157 L27.100,53.459 L27.004,53.847 L26.983,54.246 L26.851,54.624 L26.554,54.892 L26.167,54.994 L25.767,54.985 L25.388,54.858 L25.115,54.566 L25.008,54.180 L25.000,53.781 L25.000,53.381 L25.000,52.981 L25.000,52.581 L25.000,52.181 L25.013,51.781 L25.135,51.400 L25.423,51.121 L25.807,51.010 L26.206,50.988 L26.589,50.872 L26.872,50.589 L26.988,50.206 L26.990,49.806 L26.878,49.422 L26.600,49.135 L26.219,49.013 L25.819,49.000 L25.419,49.000 L25.019,49.000 L24.619,49.000 L24.219,49.000 L23.819,49.008 L23.434,49.115 L23.142,49.388 L23.015,49.768 L22.994,50.167 L22.893,50.554 L22.624,50.851 L22.247,50.983 L21.847,50.996 L21.458,50.900 L21.157,50.637 L21.019,50.261 L20.998,49.862 L20.907,49.472 L20.651,49.166 L20.278,49.022 L19.878,49.000 L19.478,49.000 L19.078,49.000 L18.678,49.000 L18.278,49.000 L17.878,49.000 L17.488,49.087 L17.174,49.335 L17.024,49.706 L17.000,50.105 L17.082,50.497 L17.321,50.818 L17.690,50.974 L18.089,51.000 L18.481,51.077 L18.808,51.308 L18.971,51.673 L19.000,52.072 L18.928,52.465 L18.704,52.796 L18.343,52.969 L17.944,53.000 L17.549,53.067 L17.215,53.285 L17.036,53.643 L17.000,54.042 L17.062,54.437 L17.275,54.775 L17.630,54.960 L18.028,55.000 L18.428,55.000 L18.828,55.000 L19.228,55.000 L19.628,55.000 L20.028,55.000 L20.424,54.942 L20.766,54.734 L20.956,54.382 L21.000,53.985 L21.054,53.588 L21.256,53.244 L21.605,53.048 L22.003,53.000 L22.399,53.050 L22.747,53.247 L22.948,53.593 L23.000,53.990 L23.000,54.390 L23.000,54.790 L23.000,55.190 L23.000,55.590 L23.000,55.990 L23.000,56.390 L23.000,56.790 L23.000,57.190 L23.000,57.590 L23.000,57.990 L22.954,58.387 L22.762,58.738 L22.419,58.944 L22.023,59.000 L21.625,58.958 L21.271,58.771 L21.060,58.431 L21.000,58.036 L20.963,57.638 L20.781,57.281 L20.445,57.065 L20.050,57.000 L19.650,57.000 L19.250,57.000 L18.850,57.000 L18.450,57.000 L18.050,57.000 L17.651,57.033 L17.292,57.208 L17.070,57.541 L17.000,57.935 L17.030,58.334 L17.197,58.697 L17.525,58.925 L17.918,59.000 L18.317,59.027 L18.685,59.186 L18.920,59.509 L19.000,59.901 L18.975,60.301 L18.823,60.670 L18.506,60.915 L18.115,61.000 L17.716,61.023 L17.343,61.169 L17.090,61.479 L17.001,61.869 L17.020,62.268 L17.161,62.643 L17.464,62.903 L17.853,62.997 L18.253,63.000 L18.653,63.000 L19.053,63.000 L19.453,63.000 L19.853,63.000 L20.253,62.982 L20.629,62.847 L20.896,62.549 L20.995,62.161 L21.016,61.762 L21.145,61.383 L21.439,61.112 L21.825,61.007 L22.225,61.014 L22.605,61.138 L22.881,61.427 L22.991,61.812 L23.012,62.211 L23.131,62.593 L23.416,62.874 L23.799,62.989 L24.199,63.000 L24.599,63.000 L24.999,63.000 L25.399,63.000 L25.799,63.000 L26.199,62.989 L26.582,62.876 L26.868,62.596 L26.987,62.214 L26.991,61.814 L26.882,61.429 L26.607,61.139 L26.227,61.015 L25.827,60.993 L25.441,60.890 L25.146,60.619 L25.017,60.241 L25.000,59.841 L25.000,59.441 L25.000,59.041 L25.000,58.641 L25.000,58.241 L25.005,57.841 L25.103,57.453 L25.368,57.154 L25.745,57.019 L26.144,57.003 L26.534,57.095 L26.838,57.355 L26.979,57.729 L27.000,58.128 L27.089,58.518 L27.341,58.830 L27.713,58.977 L28.112,59.000 L28.503,58.916 L28.821,58.673 L28.974,58.304 L29.000,57.904 L29.079,57.512 L29.313,57.187 L29.679,57.028 L30.078,57.000 L30.472,57.074 L30.801,57.301 L30.970,57.663 L31.000,58.062 L31.000,58.462 L31.000,58.862 L31.000,59.262 L31.000,59.662 L31.000,60.062 L30.931,60.456 L30.710,60.790 L30.351,60.966 L29.953,61.000 L29.558,61.064 L29.221,61.279 L29.038,61.635 L29.000,62.033 L29.060,62.429 L29.270,62.770 L29.623,62.958 L30.020,63.000 L30.420,63.000 L30.820,63.000 L31.220,63.000 L31.620,63.000 L32.020,63.000 L32.416,62.945 L32.760,62.740 L32.953,62.390 L33.000,61.992 L33.051,61.596 L33.251,61.249 L33.598,61.051 L33.995,61.000 L34.392,61.047 L34.742,61.242 L34.945,61.586 L35.000,61.982 L35.043,62.380 L35.232,62.732 L35.574,62.941 L35.969,63.000 L36.369,63.000 L36.769,63.000 L37.169,63.000 L37.569,63.000 L37.969,63.000 L38.367,62.961 L38.723,62.777 L38.937,62.439 L39.000,62.044 L38.965,61.646 L38.788,61.288 L38.453,61.068 L38.059,61.000 L37.660,60.969 L37.299,60.799 L37.073,60.468 L37.000,60.075 L37.028,59.676 L37.190,59.310 L37.516,59.078 L37.908,59.000 L38.307,58.974 L38.676,58.819 L38.917,58.500 L39.000,58.109 L38.976,57.709 L38.828,57.338 L38.515,57.088 L38.125,57.000 L37.725,57.000 L37.325,57.000 L36.925,57.000 L36.525,57.000 L36.125,57.000 L35.726,57.021 L35.352,57.164 L35.094,57.469 L35.002,57.859 L34.981,58.258 L34.844,58.634 L34.544,58.898 L34.156,58.996 L33.756,58.983 L33.378,58.852 L33.109,58.556 L33.006,58.170 L33.000,57.770 L33.000,57.370 L33.000,56.970 L33.000,56.570 L33.000,56.170 L33.015,55.770 L33.141,55.390 L33.432,55.116 L33.817,55.008 L34.216,54.987 L34.598,54.866 L34.877,54.580 L34.990,54.196 L34.989,53.796 L34.873,53.413 L34.591,53.130 L34.209,53.012 L33.809,52.991 L33.425,52.880 L33.137,52.603 L33.014,52.222 L33.000,51.822 L33.000,51.422 L33.000,51.022 L33.000,50.622 L33.000,50.222 L33.008,49.822 L33.113,49.436 L33.386,49.144 L33.765,49.016 L34.165,49.006 L34.552,49.106 L34.849,49.374 L34.982,49.751 L35.004,50.150 L35.098,50.539 L35.360,50.841 L35.735,50.980 L36.135,50.999 L36.525,50.908 L36.833,50.654 L36.978,50.281 L37.000,49.881 L37.086,49.491 L37.333,49.175 L37.703,49.025 L38.102,49.000 L38.494,49.081 L38.816,49.318 L38.973,49.686 L39.000,50.085 L39.000,50.485 L39.000,50.885 L39.000,51.285 L39.000,51.685 L39.000,52.085 L38.924,52.478 L38.694,52.806 L38.330,52.971 L37.931,53.000 L37.537,53.071 L37.206,53.294 L37.032,53.655 L37.000,54.053 L37.066,54.448 L37.283,54.783 L37.641,54.964 L38.039,55.000 L38.439,55.000 L38.839,55.000 L39.239,55.000 L39.639,55.000 L40.039,55.000 L40.439,55.000 L40.839,55.000 L41.239,55.000 L41.639,55.000 L42.039,55.000 L42.434,54.939 L42.773,54.727 L42.959,54.372 L43.000,53.974 L42.943,53.579 L42.736,53.236 L42.385,53.045 L41.987,53.000 L41.591,52.947 L41.245,52.745 L41.049,52.397 L41.000,52.000 L41.000,51.600 L41.000,51.200 L41.000,50.800 L41.000,50.400 L41.000,50.000 L41.049,49.603 L41.246,49.254 L41.591,49.053 L41.988,49.000 L42.385,49.045 L42.736,49.236 L42.943,49.579 L43.000,49.975 L43.041,50.373 L43.227,50.727 L43.566,50.939 L43.961,51.000 L44.360,50.963 L44.717,50.783 L44.934,50.447 L45.000,50.053 L45.032,49.654 L45.206,49.294 L45.538,49.071 L45.931,49.000 L46.330,49.029 L46.695,49.195 L46.924,49.522 L47.000,49.915 L47.000,50.315 L47.000,50.715 L47.000,51.115 L47.000,51.515 L47.000,51.915 L46.973,52.314 L46.816,52.682 L46.494,52.919 L46.102,53.000 L45.703,53.025 L45.332,53.176 L45.086,53.491 L45.000,53.882 L45.022,54.281 L45.167,54.654 L45.476,54.909 L45.865,54.999 L46.265,55.020 L46.640,55.159 L46.902,55.461 L46.996,55.850 L47.000,56.250 L47.000,56.650 L47.000,57.050 L47.000,57.450 L47.000,57.850 L46.982,58.250 L46.849,58.627 L46.551,58.894 L46.164,58.994 L45.764,58.984 L45.385,58.856 L45.113,58.563 L45.007,58.177 L44.986,57.778 L44.863,57.397 L44.575,57.120 L44.191,57.009 L43.791,57.000 L43.391,57.000 L42.991,57.000 L42.591,57.000 L42.191,57.000 L41.791,57.012 L41.409,57.130 L41.127,57.414 L41.011,57.797 L41.010,58.197 L41.123,58.580 L41.403,58.867 L41.784,58.987 L42.183,59.008 L42.569,59.116 L42.859,59.391 L42.985,59.770 L42.994,60.170 L42.891,60.557 L42.621,60.852 L42.243,60.983 L41.844,61.004 L41.456,61.102 L41.155,61.366 L41.019,61.742 L41.002,62.142 L41.094,62.531 L41.352,62.836 L41.726,62.979 L42.125,63.000 L42.525,63.000 L42.925,63.000 L43.325,63.000 L43.725,63.000 L44.125,63.000 L44.516,62.911 L44.828,62.662 L44.976,62.290 L45.000,61.891 L45.083,61.500 L45.324,61.180 L45.693,61.026 L46.092,61.000 L46.485,61.078 L46.810,61.310 L46.972,61.677 L47.000,62.075 L47.073,62.469 L47.299,62.799 L47.661,62.969 L48.060,63.000 L48.460,63.000 L48.860,63.000 L49.260,63.000 L49.660,63.000 L50.060,63.000 L50.454,62.932 L50.788,62.712 L50.965,62.354 L51.000,61.955 L50.937,61.560 L50.722,61.222 L50.367,61.039 L49.969,61.000 L49.573,60.941 L49.232,60.732 L49.043,60.380 L49.000,59.982 L49.000,59.582 L49.000,59.182 L49.000,58.782 L49.000,58.382 L49.000,57.982 L49.055,57.586 L49.258,57.242 L49.608,57.047 L50.005,57.000 L50.402,57.051 L50.749,57.249 L50.949,57.596 L51.000,57.993 L51.047,58.390 L51.240,58.740 L51.584,58.945 L51.980,59.000 L52.378,58.957 L52.731,58.769 L52.940,58.429 L53.000,58.033 L53.038,57.635 L53.221,57.279 L53.558,57.064 L53.953,57.000 L54.352,57.034 L54.711,57.211 L54.931,57.544 L55.000,57.938 L55.000,58.338 L55.000,58.738 L55.000,59.138 L55.000,59.538 L55.000,59.938 L54.970,60.337 L54.801,60.699 L54.471,60.926 L54.078,61.000 L53.679,61.028 L53.312,61.188 L53.079,61.513 L53.000,61.905 L53.026,62.304 L53.179,62.673 L53.497,62.916 L53.888,63.000 L54.288,63.000 L54.688,63.000 L55.088,63.000 L55.488,63.000 L55.888,63.000 L56.288,62.977 L56.659,62.829 L56.911,62.518 L57.000,62.128 L57.021,61.729 L57.162,61.354 L57.467,61.095 L57.856,61.003 L58.256,61.019 L58.632,61.154 L58.897,61.454 L58.995,61.841 L59.017,62.241 L59.147,62.619 L59.441,62.890 L59.828,62.993 L60.228,63.000 L60.628,63.000 L61.028,63.000 L61.428,63.000 L61.828,63.000 L62.227,62.985 L62.607,62.861 L62.883,62.571 L62.991,62.186 L62.987,61.786 L62.867,61.404 L62.582,61.124 L62.198,61.010 L61.799,60.989 L61.416,60.874 L61.131,60.593 L61.012,60.211 L61.009,59.811 L61.119,59.427 L61.396,59.138 L61.776,59.014 L62.175,58.993 L62.562,58.888 L62.855,58.616 L62.984,58.238 L62.995,57.838 L62.895,57.450 L62.629,57.152 L62.252,57.018 L61.852,57.000 L61.452,57.000 L61.052,57.000 L60.652,57.000 L60.252,57.000 L59.852,57.003 L59.463,57.097 L59.160,57.358 L59.020,57.733 L58.999,58.132 L58.909,58.522 L58.656,58.831 L58.284,58.977 L57.884,59.000 L57.493,58.914 L57.177,58.670 L57.025,58.300 L57.000,57.901 L57.000,57.501 L57.000,57.101 L57.000,56.701 L57.000,56.301 L57.000,55.901 L57.000,55.501 L57.000,55.101 L57.000,54.701 L57.000,54.301 L57.000,53.901 L57.080,53.509 L57.316,53.185 L57.683,53.027 L58.082,53.000 L58.475,53.075 L58.804,53.304 L58.970,53.667 L59.000,54.066 L59.070,54.460 L59.292,54.792 L59.652,54.967 L60.051,55.000 L60.451,55.000 L60.851,55.000 L61.251,55.000 L61.651,55.000 L62.051,55.000 L62.445,54.935 L62.782,54.718 L62.963,54.362 L63.000,53.963 L62.939,53.568 L62.728,53.228 L62.375,53.042 L61.977,53.000 L61.581,52.944 L61.238,52.738 L61.046,52.387 L61.000,51.989 L61.052,51.593 L61.253,51.247 L61.601,51.050 L61.998,51.000 L62.395,50.952 L62.744,50.756 L62.946,50.411 L63.000,50.015 L62.956,49.617 L62.765,49.265 L62.423,49.058 L62.028,49.000 L61.628,49.000 L61.228,49.000 L60.828,49.000 L60.428,49.000 L60.028,49.000 L59.630,49.040 L59.275,49.225 L59.062,49.564 L59.000,49.959 L58.964,50.357 L58.785,50.715 L58.450,50.933 L58.056,51.000 L57.657,50.969 L57.296,50.796 L57.072,50.465 L57.000,50.071 L56.971,49.672 L56.807,49.307 L56.481,49.077 L56.088,49.000 L55.688,49.000 L55.288,49.000 L54.888,49.000 L54.488,49.000 L54.088,49.000 L53.689,49.027 L53.321,49.183 L53.082,49.504 L53.000,49.895 L53.024,50.295 L53.174,50.665 L53.488,50.913 L53.879,51.000 L54.278,51.022 L54.651,51.166 L54.908,51.473 L54.998,51.863 L55.000,52.263 L55.000,52.663 L55.000,53.063 L55.000,53.463 L55.000,53.863 L54.980,54.262 L54.842,54.638 L54.541,54.900 L54.153,54.996 L53.753,54.983 L53.375,54.850 L53.107,54.553 L53.006,54.166 L52.985,53.767 L52.858,53.388 L52.566,53.114 L52.180,53.008 L51.780,53.014 L51.399,53.136 L51.121,53.423 L51.010,53.807 L50.988,54.207 L50.871,54.589 L50.588,54.872 L50.206,54.988 L49.806,54.990 L49.422,54.878 L49.135,54.599 L49.013,54.218 L49.000,53.819 L49.000,53.419 L49.000,53.019 L49.000,52.619 L49.000,52.219 L49.008,51.819 L49.115,51.433 L49.389,51.142 L49.768,51.015 L50.168,50.994 L50.555,50.892 L50.851,50.623 L50.983,50.246 L50.996,49.846 L50.900,49.458 L50.636,49.157 L50.261,49.019 L49.861,48.998 L49.472,48.907 L49.165,48.650 L49.022,48.277 L49.000,47.877 L49.088,47.487 L49.336,47.173 L49.707,47.024 L50.106,47.000 L50.498,46.917 L50.818,46.678 L50.974,46.310 L51.000,45.910 L50.923,45.518 L50.692,45.192 L50.326,45.029 L49.927,45.000 L49.534,44.928 L49.203,44.703 L49.031,44.342 L49.000,43.943 L49.000,43.543 L49.000,43.143 L49.000,42.743 L49.000,42.343 L49.000,41.943 L49.067,41.549 L49.286,41.214 L49.644,41.035 L50.042,41.000 L50.437,41.062 L50.776,41.276 L50.960,41.631 L51.000,42.029 L51.058,42.425 L51.266,42.766 L51.618,42.956 L52.016,43.000 L52.412,42.946 L52.757,42.743 L52.952,42.394 L53.000,41.997 L53.050,41.600 L53.248,41.252 L53.594,41.052 L53.991,41.000 L54.388,41.046 L54.739,41.239 L54.944,41.582 L55.000,41.978 L55.000,42.378 L55.000,42.778 L55.000,43.178 L55.000,43.578 L55.000,43.978 L54.958,44.376 L54.771,44.729 L54.431,44.940 L54.035,45.000 L53.637,45.038 L53.281,45.219 L53.065,45.556 L53.000,45.951 L53.033,46.349 L53.209,46.709 L53.542,46.931 L53.935,47.000 L54.335,47.000 L54.735,47.000 L55.135,47.000 L55.535,47.000 L55.935,47.000 L56.334,46.970 L56.698,46.802 L56.925,46.474 L57.000,46.081 L57.028,45.682 L57.186,45.315 L57.510,45.080 L57.902,45.000 L58.301,45.025 L58.671,45.178 L58.915,45.495 L59.000,45.886 L59.023,46.285 L59.169,46.657 L59.480,46.910 L59.869,46.999 L60.269,47.000 L60.669,47.000 L61.069,47.000 L61.469,47.000 L61.869,47.000 L62.269,46.979 L62.643,46.839 L62.904,46.535 L62.997,46.146 L62.982,45.747 L62.847,45.370 L62.548,45.104 L62.161,45.005 L61.761,44.984 L61.383,44.855 L61.111,44.561 L61.007,44.174 L61.014,43.775 L61.138,43.394 L61.428,43.118 L61.813,43.009 L62.212,42.988 L62.594,42.869 L62.875,42.584 L62.989,42.200 L62.989,41.800 L62.875,41.417 L62.595,41.132 L62.213,41.013 L61.813,41.000 L61.413,41.000 L61.013,41.000 L60.613,41.000 L60.213,41.000 L59.813,41.009 L59.428,41.118 L59.139,41.394 L59.014,41.774 L58.993,42.173 L58.889,42.560 L58.618,42.854 L58.240,42.984 L57.840,42.995 L57.452,42.896 L57.153,42.631 L57.018,42.254 L57.000,41.855 L57.000,41.455 L57.000,41.055 L57.000,40.655 L57.000,40.255 L57.000,39.855 L57.000,39.455 L57.000,39.055 L57.000,38.655 L57.000,38.255 L57.003,37.855 L57.096,37.465 L57.356,37.162 L57.730,37.021 L58.130,37.001 L58.520,37.090 L58.830,37.342 L58.977,37.714 L59.000,38.113 L59.085,38.504 L59.328,38.822 L59.698,38.975 L60.097,39.000 L60.497,39.000 L60.897,39.000 L61.297,39.000 L61.697,39.000 L62.097,39.000 L62.489,38.920 L62.813,38.686 L62.972,38.319 L63.000,37.920 L62.926,37.527 L62.698,37.198 L62.335,37.030 L61.936,37.000 L61.542,36.931 L61.209,36.709 L61.033,36.350 L61.000,35.952 L61.064,35.557 L61.280,35.220 L61.636,35.038 L62.034,35.000 L62.430,34.940 L62.770,34.730 L62.958,34.376 L63.000,33.979 L62.944,33.583 L62.739,33.239 L62.389,33.046 L61.991,33.000 L61.591,33.000 L61.191,33.000 L60.791,33.000 L60.391,33.000 L59.991,33.000 L59.595,33.052 L59.248,33.252 L59.050,33.599 L59.000,33.996 L58.952,34.393 L58.758,34.742 L58.413,34.946 L58.017,35.000 L57.619,34.956 L57.267,34.767 L57.058,34.425 L57.000,34.030 L56.961,33.632 L56.776,33.276 L56.438,33.063 L56.043,33.000 L55.643,33.000 L55.243,33.000 L54.843,33.000 L54.443,33.000 L54.043,33.000 L53.645,33.035 L53.287,33.213 L53.067,33.548 L53.000,33.942 L53.031,34.341 L53.202,34.702 L53.533,34.928 L53.926,35.000 L54.325,35.029 L54.691,35.191 L54.922,35.517 L55.000,35.909 L55.000,36.309 L55.000,36.709 L55.000,37.109 L55.000,37.509 L55.000,37.909 L54.974,38.308 L54.819,38.677 L54.499,38.917 L54.107,39.000 L53.708,38.976 L53.337,38.827 L53.088,38.514 L53.000,38.124 L52.978,37.724 L52.835,37.351 L52.529,37.093 L52.140,37.002 L51.740,37.019 L51.365,37.156 L51.101,37.457 L51.004,37.845 L50.983,38.245 L50.852,38.622 L50.556,38.892 L50.169,38.994 L49.769,38.985 L49.389,38.859 L49.115,38.567 L49.008,38.182 L49.000,37.782 L49.000,37.382 L49.000,36.982 L49.000,36.582 L49.000,36.182 L49.013,35.782 L49.134,35.401 L49.421,35.122 L49.805,35.010 L50.205,34.989 L50.587,34.873 L50.871,34.590 L50.988,34.208 L50.990,33.808 L50.879,33.424 L50.601,33.136 L50.221,33.014 L49.821,33.000 L49.421,33.000 L49.021,33.000 L48.621,33.000 L48.221,33.000 L47.821,33.008 L47.435,33.114 L47.143,33.387 L47.016,33.766 L46.994,34.166 L46.893,34.553 L46.626,34.850 L46.248,34.982 L45.848,34.996 L45.460,34.901 L45.158,34.639 L45.020,34.263 L44.998,33.864 L44.908,33.474 L44.652,33.166 L44.279,33.022 L43.880,33.000 L43.480,33.000 L43.080,33.000 L42.680,33.000 L42.280,33.000 L41.880,33.000 L41.490,33.087 L41.175,33.334 L41.024,33.704 L41.000,34.104 L41.082,34.495 L41.320,34.817 L41.688,34.973 L42.087,35.000 L42.479,35.076 L42.807,35.307 L42.971,35.671 L43.000,36.070 L42.929,36.464 L42.705,36.795 L42.344,36.969 L41.945,37.000 L41.551,37.066 L41.216,37.284 L41.036,37.642 L41.000,38.040 L41.062,38.435 L41.274,38.774 L41.629,38.960 L42.027,39.000 L42.427,39.000 L42.827,39.000 L43.227,39.000 L43.627,39.000 L44.027,39.000 L44.423,38.942 L44.765,38.735 L44.955,38.384 L45.000,37.986 L45.053,37.590 L45.255,37.245 L45.604,37.049 L46.001,37.000 L46.398,37.049 L46.746,37.246 L46.947,37.592 L47.000,37.989 L47.000,38.389 L47.000,38.789 L47.000,39.189 L47.000,39.589 L47.000,39.989 L46.955,40.386 L46.763,40.737 L46.420,40.943 L46.024,41.000 L45.626,41.041 L45.272,41.228 L45.061,41.567 L45.000,41.962 L45.037,42.361 L45.218,42.718 L45.554,42.935 L45.948,43.000 L46.347,43.032 L46.707,43.207 L46.930,43.539 L47.000,43.933 L47.000,44.333 L47.000,44.733 L47.000,45.133 L47.000,45.533 L47.000,45.933 L46.970,46.332 L46.804,46.696 L46.476,46.925 L46.084,47.000 L45.684,46.973 L45.317,46.815 L45.081,46.492 L45.000,46.100 L44.975,45.701 L44.824,45.331 L44.508,45.086 L44.117,45.000 L43.718,45.022 L43.345,45.168 L43.091,45.477 L43.001,45.867 L42.980,46.266 L42.840,46.641 L42.537,46.903 L42.149,46.997 L41.749,46.982 L41.372,46.848 L41.105,46.550 L41.005,46.163 L41.000,45.763 L41.000,45.363 L41.000,44.963 L41.000,44.563 L41.000,44.163 L41.016,43.763 L41.144,43.384 L41.438,43.112 L41.824,43.007 L42.223,42.986 L42.604,42.863 L42.880,42.574 L42.991,42.190 L42.988,41.790 L42.870,41.408 L42.585,41.126 L42.202,41.011 L41.802,41.000 L41.402,41.000 L41.002,41.000 L40.602,41.000 L40.202,41.000 L39.802,41.000 L39.402,41.000 L39.002,41.000 L38.602,41.000 L38.202,41.000 L37.802,41.010 L37.419,41.124 L37.133,41.403 L37.013,41.785 L37.009,42.185 L37.117,42.570 L37.392,42.860 L37.772,42.985 L38.172,43.007 L38.558,43.110 L38.853,43.380 L38.983,43.758 L39.000,44.158 L39.000,44.558 L39.000,44.958 L39.000,45.358 L39.000,45.758 L38.995,46.158 L38.898,46.546 L38.633,46.845 L38.257,46.981 L37.857,46.997 L37.468,46.906 L37.163,46.646 L37.021,46.272 L37.000,45.873 L36.911,45.483 L36.660,45.171 L36.289,45.023 L35.889,45.000 L35.498,45.084 L35.180,45.326 L35.026,45.695 L35.000,46.094 L34.921,46.486 L34.688,46.812 L34.322,46.972 L33.923,47.000 L33.530,46.927 L33.200,46.700 L33.030,46.338 L33.000,45.939 L33.000,45.539 L33.000,45.139 L33.000,44.739 L33.000,44.339 L33.000,43.939 L33.068,43.545 L33.289,43.211 L33.648,43.034 L34.046,43.000 L34.441,42.936 L34.778,42.722 L34.961,42.366 L35.000,41.968 L34.941,41.572 L34.731,41.231 L34.378,41.043 L33.981,41.000 L33.585,40.945 L33.241,40.741 L33.047,40.391 L33.000,39.993 L33.000,39.593 L33.000,39.193 L33.000,38.793 L33.000,38.393 L33.000,37.993 L33.051,37.597 L33.250,37.250 L33.597,37.051 L33.994,37.000 L34.391,37.047 L34.741,37.241 L34.945,37.585 L35.000,37.981 L35.043,38.379 L35.232,38.732 L35.573,38.941 L35.968,39.000 L36.368,39.000 L36.768,39.000 L37.168,39.000 L37.568,39.000 L37.968,39.000 L38.366,38.961 L38.722,38.778 L38.937,38.440 L39.000,38.046 L38.966,37.647 L38.788,37.288 L38.455,37.068 L38.060,37.000 L37.662,36.970 L37.299,36.799 L37.073,36.470 L37.000,36.076 L37.028,35.677 L37.189,35.311 L37.514,35.079 L37.907,35.000 L38.306,34.974 L38.675,34.820 L38.916,34.501 L39.000,34.110 L38.977,33.711 L38.828,33.339 L38.516,33.089 L38.126,33.000 L37.726,33.000 L37.326,33.000 L36.926,33.000 L36.526,33.000 L36.126,33.000 L35.727,33.021 L35.353,33.163 L35.094,33.468 L35.002,33.858 L34.981,34.257 L34.845,34.633 L34.545,34.898 L34.157,34.995 L33.758,34.983 L33.379,34.853 L33.109,34.557 L33.007,34.171 L33.000,33.771 L33.000,33.371 L33.000,32.971 L33.000,32.571 L33.000,32.171 L33.000,31.771 L33.000,31.371 L33.000,30.971 L33.000,30.571 L33.000,30.171 L33.015,29.771 L33.140,29.391 L33.431,29.117 L33.816,29.008 L34.216,29.013 L34.597,29.133 L34.877,29.420 L34.990,29.803 L35.011,30.203 L35.126,30.586 L35.408,30.870 L35.790,30.988 L36.190,31.000 L36.590,31.000 L36.990,31.000 L37.390,31.000 L37.790,31.000 L38.190,30.991 L38.574,30.880 L38.863,30.603 L38.986,30.223 L38.993,29.823 L38.887,29.437 L38.615,29.144 L38.236,29.016 L37.837,28.995 L37.449,28.895 L37.151,28.627 L37.018,28.250 L37.003,27.851 L37.098,27.462 L37.359,27.159 L37.734,27.020 L38.134,26.999 L38.524,26.909 L38.832,26.654 L38.978,26.282 L39.000,25.882 L38.914,25.492 L38.668,25.176 L38.298,25.025 L37.899,25.000 L37.499,25.000 L37.099,25.000 L36.699,25.000 L36.299,25.000 L35.899,25.000 L35.507,25.081 L35.185,25.317 L35.027,25.685 L35.000,26.084 L34.924,26.477 L34.695,26.805 L34.331,26.971 L33.932,27.000 L33.538,26.929 L33.206,26.706 L33.032,26.346 L33.000,25.948 L33.000,25.548 L33.000,25.148 L33.000,24.748 L33.000,24.348 L33.000,23.948 L33.066,23.553 L33.283,23.217 L33.640,23.037 L34.038,23.000 L34.433,22.939 L34.773,22.727 L34.959,22.373 L35.000,21.975 L34.943,21.579 L34.737,21.237 L34.386,21.045 L33.988,21.000 L33.592,20.947 L33.246,20.746 L33.049,20.398 L33.000,20.001 L33.000,19.601 L33.000,19.201 L33.000,18.801 L33.000,18.401 L33.000,18.001 L33.049,17.604 L33.245,17.255 L33.590,17.053 L33.987,17.000 L34.384,17.045 L34.736,17.236 L34.943,17.578 L35.000,17.974 L35.041,18.372 L35.226,18.726 L35.565,18.938 L35.960,19.000 L36.359,18.964 L36.716,18.784 L36.934,18.448 L37.000,18.054 L37.032,17.655 L37.205,17.295 L37.537,17.071 L37.930,17.000 L38.329,17.029 L38.694,17.194 L38.924,17.521 L39.000,17.914 L39.000,18.314 L39.000,18.714 L39.000,19.114 L39.000,19.514 L39.000,19.914 L38.973,20.313 L38.816,20.681 L38.495,20.918 L38.103,21.000 L37.704,21.024 L37.333,21.175 L37.087,21.490 L37.000,21.881 L37.022,22.280 L37.167,22.653 L37.475,22.908 L37.864,22.998 L38.264,23.000 L38.664,23.000 L39.064,23.000 L39.464,23.000 L39.864,23.000 L40.264,23.000 L40.664,23.000 L41.064,23.000 L41.464,23.000 L41.864,23.000 L42.264,22.980 L42.639,22.842 L42.901,22.539 L42.996,22.151 L42.982,21.751 L42.849,21.374 L42.552,21.106 L42.165,21.006 L41.765,20.984 L41.386,20.857 L41.114,20.564 L41.008,20.179 L41.000,19.779 L41.000,19.379 L41.000,18.979 L41.000,18.579 L41.000,18.179 L41.014,17.779 L41.136,17.398 L41.424,17.120 L41.809,17.009 L42.209,17.012 L42.591,17.130 L42.873,17.413 L42.989,17.796 L43.010,18.195 L43.123,18.579 L43.402,18.866 L43.783,18.987 L44.183,18.992 L44.568,18.884 L44.859,18.610 L44.985,18.230 L45.006,17.831 L45.109,17.444 L45.378,17.148 L45.756,17.017 L46.156,17.004 L46.544,17.101 L46.844,17.365 L46.981,17.741 L47.000,18.141 L47.000,18.541 L47.000,18.941 L47.000,19.341 L47.000,19.741 L46.998,20.141 L46.907,20.530 L46.649,20.836 L46.275,20.979 L45.875,21.000 L45.485,21.088 L45.172,21.338 L45.024,21.709 L45.000,22.108 L45.083,22.499 L45.324,22.819 L45.692,22.974 L46.091,23.000 L46.484,23.078 L46.810,23.310 L46.972,23.676 L47.000,24.075 L47.000,24.475 L47.000,24.875 L47.000,25.275 L47.000,25.675 L47.000,26.075 L46.927,26.468 L46.702,26.798 L46.340,26.969 L45.941,27.000 L45.547,26.932 L45.213,26.713 L45.035,26.355 L45.000,25.956 L44.937,25.561 L44.723,25.223 L44.368,25.039 L43.970,25.000 L43.570,25.000 L43.170,25.000 L42.770,25.000 L42.370,25.000 L41.970,25.000 L41.574,25.059 L41.233,25.267 L41.043,25.620 L41.000,26.017 L41.055,26.414 L41.258,26.758 L41.607,26.952 L42.005,27.000 L42.401,27.050 L42.749,27.249 L42.948,27.595 L43.000,27.992 L42.954,28.389 L42.760,28.740 L42.417,28.944 L42.021,29.000 L41.623,29.042 L41.270,29.230 L41.060,29.571 L41.000,29.966 L41.038,30.364 L41.220,30.720 L41.557,30.936 L41.952,31.000 L42.352,31.000 L42.752,31.000 L43.152,31.000 L43.552,31.000 L43.952,31.000 L44.351,30.966 L44.710,30.790 L44.931,30.457 L45.000,30.063 L45.030,29.664 L45.199,29.301 L45.528,29.074 L45.921,29.000 L46.320,29.028 L46.687,29.187 L46.921,29.512 L47.000,29.904 L47.025,30.303 L47.179,30.673 L47.496,30.915 L47.887,31.000 L48.287,31.000 L48.687,31.000 L49.087,31.000 L49.487,31.000 L49.887,31.000 L50.287,30.977 L50.659,30.830 L50.910,30.519 L50.999,30.129 L50.979,29.729 L50.838,29.355 L50.534,29.095 L50.145,29.003 L49.745,28.981 L49.369,28.846 L49.103,28.547 L49.005,28.159 L49.000,27.759 L49.000,27.359 L49.000,26.959 L49.000,26.559 L49.000,26.159 L49.016,25.760 L49.146,25.381 L49.441,25.111 L49.827,25.007 L50.227,25.015 L50.607,25.139 L50.882,25.429 L50.991,25.814 L51.013,26.213 L51.132,26.595 L51.417,26.875 L51.801,26.989 L52.201,26.989 L52.584,26.875 L52.869,26.594 L52.988,26.212 L53.009,25.812 L53.118,25.428 L53.395,25.138 L53.775,25.014 L54.175,25.007 L54.561,25.112 L54.855,25.383 L54.984,25.762 L55.000,26.161 L55.000,26.561 L55.000,26.961 L55.000,27.361 L55.000,27.761 L54.995,28.161 L54.896,28.549 L54.629,28.847 L54.253,28.982 L53.853,29.003 L53.464,29.096 L53.161,29.357 L53.020,29.732 L53.001,30.131 L53.090,30.521 L53.343,30.831 L53.716,30.977 L54.115,31.000 L54.515,31.000 L54.915,31.000 L55.315,31.000 L55.715,31.000 L56.115,31.000 L56.506,30.915 L56.823,30.671 L56.975,30.301 L57.000,29.902 L57.080,29.510 L57.315,29.186 L57.682,29.028 L58.081,29.000 L58.474,29.075 L58.803,29.303 L58.970,29.666 L59.000,30.065 L59.070,30.459 L59.292,30.792 L59.651,30.967 L60.050,31.000 L60.450,31.000 L60.850,31.000 L61.250,31.000 L61.650,31.000 L62.050,31.000 L62.445,30.935 L62.781,30.719 L62.963,30.362 L63.000,29.964 L62.940,29.569 L62.729,29.229 L62.375,29.042 L61.977,29.000 L61.581,28.944 L61.238,28.738 L61.046,28.388 L61.000,27.990 L61.052,27.594 L61.253,27.247 L61.600,27.050 L61.997,27.000 L62.394,26.952 L62.743,26.757 L62.946,26.412 L63.000,26.015 L62.956,25.618 L62.766,25.266 L62.424,25.058 L62.028,25.000 L61.628,25.000 L61.228,25.000 L60.828,25.000 L60.428,25.000 L60.028,25.000 L59.630,25.040 L59.275,25.225 L59.062,25.563 L59.000,25.958 L58.964,26.357 L58.786,26.714 L58.451,26.933 L58.056,27.000 L57.658,26.969 L57.297,26.797 L57.072,26.466 L57.000,26.072 L57.000,25.672 L57.000,25.272 L57.000,24.872 L57.000,24.472 L57.000,24.072 L57.000,23.672 L57.000,23.272 L57.000,22.872 L57.000,22.472 L57.000,22.072 L57.029,21.673 L57.192,21.308 L57.519,21.077 L57.911,21.000 L58.310,21.026 L58.679,21.182 L58.918,21.503 L59.000,21.894 L59.024,22.294 L59.174,22.665 L59.488,22.913 L59.878,23.000 L60.278,23.000 L60.678,23.000 L61.078,23.000 L61.478,23.000 L61.878,23.000 L62.277,22.978 L62.651,22.835 L62.907,22.528 L62.998,22.138 L62.981,21.739 L62.843,21.363 L62.542,21.100 L62.153,21.004 L61.754,20.983 L61.376,20.851 L61.108,20.554 L61.006,20.167 L61.015,19.768 L61.142,19.388 L61.434,19.115 L61.819,19.008 L62.219,18.987 L62.600,18.865 L62.878,18.578 L62.990,18.194 L62.988,17.794 L62.872,17.411 L62.589,17.128 L62.206,17.012 L61.806,17.000 L61.406,17.000 L61.006,17.000 L60.606,17.000 L60.206,17.000 L59.807,17.010 L59.422,17.122 L59.135,17.400 L59.013,17.781 L58.992,18.180 L58.886,18.566 L58.612,18.858 L58.233,18.985 L57.833,18.994 L57.446,18.893 L57.149,18.624 L57.017,18.246 L56.996,17.847 L56.900,17.459 L56.637,17.157 L56.262,17.020 L55.862,17.000 L55.462,17.000 L55.062,17.000 L54.662,17.000 L54.262,17.000 L53.862,17.002 L53.473,17.092 L53.166,17.349 L53.022,17.722 L53.000,18.122 L53.087,18.512 L53.335,18.826 L53.706,18.976 L54.105,19.000 L54.497,19.082 L54.818,19.321 L54.973,19.689 L55.000,20.088 L55.000,20.488 L55.000,20.888 L55.000,21.288 L55.000,21.688 L55.000,22.088 L54.923,22.481 L54.692,22.808 L54.327,22.971 L53.928,23.000 L53.535,22.928 L53.204,22.704 L53.031,22.343 L53.000,21.944 L52.933,21.550 L52.715,21.215 L52.357,21.036 L51.958,21.000 L51.563,21.062 L51.225,21.275 L51.040,21.630 L51.000,22.028 L50.942,22.424 L50.734,22.766 L50.383,22.956 L49.985,23.000 L49.589,22.946 L49.244,22.744 L49.048,22.395 L49.000,21.998 L49.000,21.598 L49.000,21.198 L49.000,20.798 L49.000,20.398 L49.000,19.998 L49.050,19.601 L49.247,19.253 L49.593,19.052 L49.990,19.000 L50.387,18.954 L50.738,18.762 L50.944,18.419 L51.000,18.023 L50.958,17.625 L50.771,17.271 L50.432,17.061 L50.036,17.000 L49.638,16.963 L49.281,16.781 L49.065,16.445 L49.000,16.050 L49.033,15.652 L49.208,15.292 L49.541,15.070 L49.934,15.000 L50.333,14.970 L50.697,14.803 L50.925,14.475 L51.000,14.082 L50.973,13.683 L50.814,13.315 L50.491,13.080 L50.099,13.000 L49.700,12.975 L49.330,12.823 L49.085,12.506 L49.000,12.115 L49.000,11.715 L49.000,11.315 L49.000,10.915 L49.000,10.515 L49.000,10.115 L49.023,9.716 L49.169,9.344 L49.479,9.090 L49.868,9.001 L50.268,9.020 L50.643,9.161 L50.903,9.464 L50.997,9.853 L51.018,10.252 L51.152,10.629 L51.451,10.895 L51.838,10.995 L52.238,10.984 L52.617,10.855 L52.888,10.561 L52.993,10.175 L53.014,9.776 L53.138,9.395 L53.427,9.119 L53.812,9.009 L54.212,9.012 L54.594,9.131 L54.875,9.416 L54.989,9.799 L55.000,10.199 L55.000,10.599 L55.000,10.999 L55.000,11.399 L55.000,11.799 L54.989,12.199 L54.876,12.582 L54.595,12.868 L54.214,12.987 L53.814,13.009 L53.429,13.117 L53.139,13.393 L53.015,13.773 L53.007,14.173 L53.110,14.559 L53.381,14.854 L53.759,14.983 L54.159,15.000 L54.559,15.000 L54.959,15.000 L55.359,15.000 L55.759,15.000 L56.159,14.995 L56.547,14.897 L56.846,14.632 L56.981,14.255 L57.003,13.856 L57.095,13.466 L57.355,13.162 L57.729,13.021 L58.128,13.000 L58.518,13.089 L58.830,13.341 L58.977,13.713 L59.000,14.112 L59.084,14.503 L59.327,14.821 L59.696,14.974 L60.096,15.000 L60.496,15.000 L60.896,15.000 L61.296,15.000 L61.696,15.000 L62.096,15.000 L62.488,14.921 L62.813,14.687 L62.972,14.321 L63.000,13.922 L62.926,13.529 L62.699,13.199 L62.337,13.030 L61.938,13.000 L61.544,12.931 L61.210,12.710 L61.034,12.351 L61.000,11.953 L61.064,11.558 L61.279,11.221 L61.635,11.038 L62.033,11.000 L62.429,10.940 L62.769,10.731 L62.958,10.377 L63.000,9.980 L62.945,9.584 L62.740,9.240 L62.390,9.047 L61.992,9.000 L61.592,9.000 L61.192,9.000 L60.792,9.000 L60.392,9.000 L59.992,9.000 L59.596,9.051 L59.249,9.251 L59.051,9.598 L59.000,9.995 L58.953,10.392 L58.758,10.742 L58.414,10.945 L58.018,11.000 L57.620,10.957 L57.268,10.768 L57.059,10.426 L57.000,10.031 L57.000,9.631 L57.000,9.231 L57.000,8.831 L57.000,8.431 L57.000,8.031 L57.000,7.631 L57.000,7.231 L57.000,6.831 L57.000,6.431 L57.000,6.031 L57.039,5.633 L57.223,5.277 L57.561,5.063 L57.956,5.000 L58.354,5.035 L58.712,5.212 L58.932,5.547 L59.000,5.941 L59.031,6.340 L59.201,6.701 L59.532,6.927 L59.925,7.000 L60.325,7.000 L60.725,7.000 L61.125,7.000 L61.525,7.000 L61.925,7.000 L62.324,6.972 L62.690,6.810 L62.922,6.484 L63.000,6.092 L62.974,5.693 L62.819,5.324 L62.500,5.083 L62.109,5.000 L61.709,4.976 L61.338,4.828 L61.088,4.515 L61.000,4.125 L61.021,3.726 L61.164,3.352 L61.469,3.094 L61.859,3.002 L62.258,2.981 L62.634,2.845 L62.898,2.544 L62.996,2.156 L62.983,1.756 L62.852,1.378 L62.557,1.109 L62.170,1.006 L61.770,1.000 L61.370,1.000 L60.970,1.000 L60.570,1.000 L60.170,1.000 L59.770,1.015 L59.390,1.141 L59.116,1.432 L59.008,1.817 L58.987,2.216 L58.866,2.598 L58.580,2.877 L58.196,2.990 L57.796,2.989 L57.413,2.873 L57.130,2.591 L57.012,2.209 L56.991,1.809 L56.880,1.425 L56.603,1.137 L56.222,1.014 L55.822,1.000 L55.422,1.000 L55.022,1.000 L54.622,1.000 L54.222,1.000 L53.822,1.008 L53.437,1.113 L53.144,1.386 L53.016,1.765 L53.006,2.164 L53.106,2.552 L53.373,2.849 L53.751,2.982 L54.150,3.004 L54.539,3.098 L54.841,3.360 L54.980,3.735 L55.000,4.135 L55.000,4.535 L55.000,4.935 L55.000,5.335 L55.000,5.735 L54.999,6.135 L54.909,6.524 L54.654,6.833 L54.281,6.978 L53.882,7.000 L53.491,6.914 L53.176,6.668 L53.025,6.297 L53.000,5.898 L52.919,5.506 L52.682,5.184 L52.314,5.027 L51.915,5.000 L51.522,5.076 L51.195,5.305 L51.029,5.670 L51.000,6.069 L50.929,6.462 L50.706,6.794 L50.346,6.968 L49.947,7.000 L49.552,6.934 L49.217,6.717 L49.036,6.359 L49.000,5.961 L49.000,5.561 L49.000,5.161 L49.000,4.761 L49.000,4.361 L49.000,3.961 L49.061,3.566 L49.273,3.227 L49.628,3.041 L50.025,3.000 L50.421,2.943 L50.764,2.736 L50.955,2.385 L51.000,1.987 L50.947,1.591 L50.745,1.245 L50.397,1.049 L50.000,1.000 L49.600,1.000 L49.200,1.000 L48.800,1.000 L48.400,1.000 L48.000,1.000 L47.603,1.049 L47.255,1.245 L47.053,1.591 L47.000,1.987 L46.955,2.385 L46.764,2.736 L46.421,2.943 L46.025,3.000 L45.628,2.959 L45.273,2.773 L45.061,2.434 L45.000,2.039 L44.963,1.640 L44.783,1.283 L44.448,1.066 L44.053,1.000 L43.653,1.000 L43.253,1.000 L42.853,1.000 L42.453,1.000 L42.053,1.000 L41.654,1.032 L41.294,1.206 L41.071,1.538 L41.000,1.931 L41.029,2.330 L41.195,2.695 L41.522,2.924 L41.915,3.000 L42.314,3.027 L42.682,3.184 L42.919,3.506 L43.000,3.898 L42.975,4.297 L42.824,4.668 L42.509,4.914 L42.118,5.000 L41.719,5.022 L41.346,5.167 L41.091,5.476 L41.001,5.865 L41.020,6.265 L41.159,6.640 L41.461,6.902 L41.850,6.996 L42.250,7.000 L42.650,7.000 L43.050,7.000 L43.450,7.000 L43.850,7.000 L44.250,6.982 L44.627,6.849 L44.894,6.551 L44.994,6.164 L45.016,5.765 L45.144,5.386 L45.436,5.113 L45.822,5.008 L46.222,5.014 L46.603,5.137 L46.880,5.425 L46.991,5.809 L47.000,6.209 L47.000,6.609 L47.000,7.009 L47.000,7.409 L47.000,7.809 L46.988,8.209 L46.870,8.591 L46.586,8.873 L46.203,8.989 L45.804,9.010 L45.420,9.123 L45.134,9.402 L45.013,9.783 L45.008,10.183 L45.116,10.569 L45.391,10.859 L45.771,10.985 L46.170,11.006 L46.557,11.109 L46.852,11.379 L46.983,11.756 L47.000,12.156 L47.000,12.556 L47.000,12.956 L47.000,13.356 L47.000,13.756 L46.996,14.156 L46.899,14.544 L46.634,14.844 L46.258,14.981 L45.859,14.998 L45.469,14.906 L45.164,14.648 L45.021,14.274 L45.000,13.875 L44.912,13.485 L44.662,13.172 L44.291,13.024 L43.891,13.000 L43.500,13.083 L43.181,13.324 L43.026,13.693 L43.000,14.092 L42.922,14.484 L42.690,14.810 L42.324,14.972 L41.925,15.000 L41.531,14.927 L41.201,14.701 L41.031,14.340 L41.000,13.941 L41.000,13.541 L41.000,13.141 L41.000,12.741 L41.000,12.341 L41.000,11.941 L41.068,11.547 L41.288,11.212 L41.646,11.035 L42.045,11.000 L42.439,10.937 L42.777,10.723 L42.961,10.367 L43.000,9.969 L42.941,9.574 L42.732,9.232 L42.380,9.043 L41.982,9.000 L41.582,9.000 L41.182,9.000 L40.782,9.000 L40.382,9.000 L39.982,9.000 L39.582,9.000 L39.182,9.000 L38.782,9.000 L38.382,9.000 L37.982,9.000 L37.586,9.055 L37.242,9.258 L37.047,9.608 L37.000,10.005 L37.051,10.402 L37.249,10.749 L37.596,10.949 L37.993,11.000 L38.390,11.047 L38.740,11.240 L38.945,11.584 L39.000,11.980 L39.000,12.380 L39.000,12.780 L39.000,13.180 L39.000,13.580 L39.000,13.980 L38.957,14.378 L38.769,14.731 L38.429,14.940 L38.033,15.000 L37.635,14.962 L37.279,14.779 L37.064,14.442 L37.000,14.047 L36.966,13.649 L36.790,13.290 L36.456,13.069 L36.062,13.000 L35.663,13.030 L35.301,13.199 L35.074,13.529 L35.000,13.922 L34.972,14.321 L34.812,14.688 L34.488,14.921 L34.095,15.000 L33.696,14.974 L33.327,14.821 L33.084,14.503 L33.000,14.112 L33.000,13.712 L33.000,13.312 L33.000,12.912 L33.000,12.512 L33.000,12.112 L33.023,11.713 L33.171,11.341 L33.482,11.089 L33.872,11.000 L34.271,10.979 L34.645,10.838 L34.905,10.533 L34.997,10.144 L34.981,9.745 L34.846,9.368 L34.547,9.103 L34.159,9.005 L33.759,8.983 L33.381,8.854 L33.110,8.559 L33.007,8.173 L33.000,7.773 L33.000,7.373 L33.000,6.973 L33.000,6.573 L33.000,6.173 L33.015,5.773 L33.139,5.393 L33.429,5.117 L33.814,5.009 L34.214,5.013 L34.596,5.132 L34.876,5.418 L34.990,5.802 L35.011,6.201 L35.126,6.584 L35.407,6.869 L35.789,6.988 L36.188,7.000 L36.588,7.000 L36.988,7.000 L37.388,7.000 L37.788,7.000 L38.188,6.991 L38.573,6.881 L38.862,6.605 L38.986,6.225 L38.993,5.825 L38.888,5.439 L38.616,5.145 L38.238,5.016 L37.838,4.995 L37.451,4.896 L37.152,4.629 L37.018,4.252 L37.003,3.853 L37.097,3.464 L37.358,3.160 L37.732,3.020 L38.132,2.999 L38.522,2.909 L38.831,2.656 L38.977,2.284 L39.000,1.885 L38.915,1.494 L38.670,1.177 L38.300,1.025 L37.901,1.000 L37.501,1.000 L37.101,1.000 L36.701,1.000 L36.301,1.000 L35.901,1.000 L35.509,1.080 L35.186,1.316 L35.027,1.683 L35.000,2.082 L34.925,2.475 L34.697,2.803 L34.333,2.970 L33.934,3.000 L33.540,2.930 L33.208,2.708 L33.033,2.348 L33.000,1.950 L32.935,1.555 L32.719,1.219 L32.362,1.037 L31.964,1.000 L31.564,1.000 L31.164,1.000 L30.764,1.000 L30.364,1.000 L29.964,1.000 L29.568,1.061 L29.228,1.272 L29.042,1.625 L29.000,2.023 L29.056,2.419 L29.262,2.762 L29.613,2.954 L30.010,3.000 L30.407,3.052 L30.753,3.253 L30.950,3.601 L31.000,3.998 L31.000,4.398 L31.000,4.798 L31.000,5.198 L31.000,5.598 L31.000,5.998 L30.952,6.395 L30.756,6.744 L30.411,6.946 L30.015,7.000 L29.617,6.956 L29.266,6.766 L29.058,6.424 L29.000,6.028 L28.960,5.630 L28.775,5.275 L28.437,5.062 L28.041,5.000 L27.643,5.036 L27.285,5.215 L27.067,5.550 L27.000,5.944 L26.969,6.343 L26.796,6.704 L26.465,6.928 L26.072,7.000 L25.673,6.971 L25.308,6.808 L25.077,6.481 L25.000,6.088 L25.000,5.688 L25.000,5.288 L25.000,4.888 L25.000,4.488 L25.000,4.088 L25.027,3.689 L25.182,3.321 L25.503,3.082 L25.895,3.000 L26.294,2.976 L26.665,2.826 L26.913,2.512 L27.000,2.121 L26.978,1.722 L26.834,1.349 L26.527,1.092 L26.138,1.002 L25.738,1.000 L25.338,1.000 L24.938,1.000 L24.538,1.000 L24.138,1.000 L23.738,1.020 L23.363,1.157 L23.100,1.459 L23.004,1.847 L22.983,2.247 L22.851,2.624 L22.554,2.893 L22.167,2.994 L21.767,2.985 L21.388,2.858 L21.114,2.566 L21.008,2.180 L20.987,1.781 L20.865,1.400 L20.577,1.121 L20.193,1.010 L19.793,1.000 L19.393,1.000 L18.993,1.000 L18.593,1.000 L18.193,1.000 L17.794,1.012 L17.411,1.128 L17.128,1.411 L17.012,1.794 L17.010,2.194 L17.122,2.578 L17.400,2.865 L17.781,2.987 L18.181,3.008 L18.566,3.115 L18.858,3.388 L18.985,3.768 L18.994,4.168 L18.892,4.554 L18.624,4.851 L18.246,4.983 L17.847,5.004 L17.458,5.100 L17.157,5.363 L17.019,5.739 L17.002,6.138 L17.093,6.528 L17.349,6.835 L17.723,6.978 L18.122,7.000 L18.522,7.000 L18.922,7.000 L19.322,7.000 L19.722,7.000 L20.122,7.000 L20.513,6.912 L20.826,6.664 L20.976,6.293 L21.000,5.894 L21.082,5.503 L21.321,5.182 L21.690,5.026 L22.089,5.000 L22.482,5.077 L22.808,5.308 L22.971,5.673 L23.000,6.072 L23.000,6.472 L23.000,6.872 L23.000,7.272 L23.000,7.672 L23.000,8.072 L23.000,8.472 L23.000,8.872 L23.000,9.272 L23.000,9.672 L23.000,10.072 L22.928,10.466 L22.703,10.797 L22.342,10.969 L21.943,11.000 L21.549,10.933 L21.214,10.714 L21.035,10.356 L21.000,9.958 L20.938,9.563 L20.724,9.224 L20.370,9.040 L19.972,9.000 L19.572,9.000 L19.172,9.000 L18.772,9.000 L18.372,9.000 L17.972,9.000 L17.576,9.058 L17.234,9.266 L17.044,9.618 L17.000,10.015 L17.054,10.412 L17.257,10.757 L17.606,10.952 L18.003,11.000 L18.400,11.050 L18.748,11.248 L18.948,11.594 L19.000,11.990 L18.954,12.388 L18.762,12.738 L18.419,12.944 L18.022,13.000 L17.625,13.042 L17.271,13.229 L17.060,13.569 L17.000,13.964 L17.038,14.363 L17.219,14.719 L17.556,14.935 L17.950,15.000 L18.350,15.000 L18.750,15.000 L19.150,15.000 L19.550,15.000 L19.950,15.000 L20.349,14.967 L20.708,14.792 L20.930,14.459 L21.000,14.065 L21.030,13.666 L21.197,13.303 L21.526,13.075 L21.919,13.000 L22.318,13.028 L22.685,13.186 L22.920,13.510 L23.000,13.902 L23.025,14.301 L23.177,14.671 L23.494,14.915 L23.885,15.000 L24.285,15.000 L24.685,15.000 L25.085,15.000 L25.485,15.000 L25.885,15.000 L26.285,14.977 L26.657,14.831 L26.910,14.521 L26.999,14.131 L26.980,13.732 L26.839,13.357 L26.536,13.096 L26.147,13.003 L25.747,12.982 L25.371,12.847 L25.104,12.549 L25.005,12.161 L25.000,11.761 L25.000,11.361 L25.000,10.961 L25.000,10.561 L25.000,10.161 L25.016,9.762 L25.145,9.383 L25.439,9.112 L25.825,9.007 L26.225,9.014 L26.605,9.138 L26.882,9.428 L26.991,9.812 L27.012,10.212 L27.131,10.594 L27.416,10.875 L27.799,10.989 L28.199,10.989 L28.583,10.875 L28.868,10.595 L28.987,10.213 L29.009,9.814 L29.118,9.429 L29.393,9.139 L29.773,9.015 L30.173,9.007 L30.560,9.111 L30.854,9.382 L30.984,9.760 L31.000,10.160 L31.000,10.560 L31.000,10.960 L31.000,11.360 L31.000,11.760 L30.995,12.160 L30.897,12.547 L30.631,12.846 L30.255,12.981 L29.855,13.003 L29.466,13.095 L29.162,13.355 L29.021,13.730 L29.001,14.129 L29.090,14.519 L29.341,14.830 L29.713,14.977 L30.113,15.000 L30.504,15.085 L30.821,15.327 L30.975,15.697 L31.000,16.096 L31.000,16.496 L31.000,16.896 L31.000,17.296 L31.000,17.696 L31.000,18.096 L30.921,18.488 L30.687,18.813 L30.320,18.972 L29.921,19.000 L29.528,18.926 L29.199,18.699 L29.030,18.336 L29.000,17.937 L28.931,17.543 L28.710,17.210 L28.351,17.034 L27.952,17.000 L27.552,17.000 L27.152,17.000 L26.752,17.000 L26.352,17.000 L25.952,17.000 L25.557,17.064 L25.220,17.280 L25.038,17.636 L25.000,18.034 L25.060,18.429 L25.270,18.770 L25.623,18.958 L26.021,19.000 L26.417,19.056 L26.760,19.260 L26.954,19.611 L27.000,20.008 L26.948,20.405 L26.749,20.751 L26.401,20.950 L26.005,21.000 L25.607,21.048 L25.258,21.242 L25.054,21.587 L25.000,21.983 L25.043,22.380 L25.233,22.733 L25.574,22.941 L25.970,23.000 L26.370,23.000 L26.770,23.000 L27.170,23.000 L27.570,23.000 L27.970,23.000 L28.368,22.961 L28.723,22.777 L28.937,22.439 L29.000,22.044 L29.035,21.645 L29.213,21.287 L29.547,21.068 L29.941,21.000 L30.340,21.031 L30.702,21.202 L30.927,21.532 L31.000,21.926 L31.000,22.326 L31.000,22.726 L31.000,23.126 L31.000,23.526 L31.000,23.926 L30.971,24.325 L30.810,24.690 L30.484,24.922 L30.091,25.000 L29.692,25.026 L29.323,25.181 L29.083,25.501 L29.000,25.892 L29.024,26.291 L29.173,26.663 L29.485,26.912 L29.876,27.000 L30.275,27.021 L30.649,27.164 L30.907,27.470 L30.998,27.859 L31.000,28.259 L31.000,28.659 L31.000,29.059 L31.000,29.459 L31.000,29.859 L30.981,30.259 L30.844,30.635 L30.544,30.899 L30.155,30.996 L29.756,30.983 L29.378,30.852 L29.109,30.556 L29.006,30.169 L28.985,29.770 L28.859,29.390 L28.568,29.116 L28.183,29.008 L27.783,29.013 L27.401,29.134 L27.123,29.421 L27.010,29.805 L26.989,30.204 L26.873,30.587 L26.591,30.871 L26.208,30.988 L25.808,30.990 L25.424,30.879 L25.136,30.602 L25.014,30.221 L25.000,29.821 L25.000,29.421 L25.000,29.021 L25.000,28.621 L25.000,28.221 L25.008,27.821 L25.114,27.436 L25.386,27.143 L25.766,27.016 L26.165,26.994 L26.552,26.894 L26.849,26.626 L26.982,26.249 L26.996,25.849 L26.901,25.460 L26.639,25.158 L26.264,25.020 L25.864,25.000 L25.464,25.000 L25.064,25.000 L24.664,25.000 L24.264,25.000 L23.864,25.000 L23.464,25.000 L23.064,25.000 L22.664,25.000 L22.264,25.000 L21.864,25.002 L21.475,25.092 L21.167,25.347 L21.022,25.720 L21.000,26.119 L21.087,26.510 L21.333,26.825 L21.704,26.976 L22.103,27.000 L22.495,27.082 L22.816,27.319 L22.973,27.687 L23.000,28.086 L23.000,28.486 L23.000,28.886 L23.000,29.286 L23.000,29.686 L23.000,30.086 L22.924,30.479 L22.694,30.806 L22.329,30.971 L21.930,31.000 L21.537,30.929 L21.205,30.705 L21.032,30.345 L21.000,29.946 L20.934,29.551 L20.716,29.216 L20.359,29.036 L19.960,29.000 L19.565,29.062 L19.226,29.274 L19.041,29.628 L19.000,30.026 L18.943,30.422 L18.736,30.764 L18.384,30.955 L17.987,31.000 L17.590,30.947 L17.245,30.745 L17.049,30.396 L17.000,29.999 L17.000,29.599 L17.000,29.199 L17.000,28.799 L17.000,28.399 L17.000,27.999 L17.049,27.602 L17.246,27.254 L17.592,27.053 L17.988,27.000 L18.386,26.955 L18.737,26.763 L18.943,26.421 L19.000,26.025 L18.959,25.627 L18.773,25.273 L18.433,25.061 L18.038,25.000 L17.640,24.963 L17.283,24.783 L17.066,24.447 L17.000,24.052 L17.000,23.652 L17.000,23.252 L17.000,22.852 L17.000,22.452 L17.000,22.052 L17.032,21.653 L17.207,21.293 L17.539,21.070 L17.932,21.000 L18.331,21.029 L18.695,21.195 L18.924,21.523 L19.000,21.916 L19.027,22.315 L19.185,22.683 L19.507,22.919 L19.899,23.000 L20.299,23.000 L20.699,23.000 L21.099,23.000 L21.499,23.000 L21.899,23.000 L22.298,22.975 L22.669,22.824 L22.914,22.508 L23.000,22.117 L22.978,21.718 L22.832,21.345 L22.523,21.091 L22.134,21.001 L21.734,20.980 L21.359,20.841 L21.098,20.538 L21.003,20.149 L21.018,19.749 L21.152,19.372 L21.449,19.105 L21.837,19.005 L22.236,18.984 L22.615,18.856 L22.887,18.563 L22.993,18.177 L22.986,17.777 L22.863,17.396 L22.574,17.120 L22.190,17.009 L21.790,17.000 L21.390,17.000 L20.990,17.000 L20.590,17.000 L20.190,17.000 L19.790,17.012 L19.408,17.130 L19.126,17.414 L19.011,17.797 L18.990,18.197 L18.877,18.581 L18.597,18.867 L18.216,18.987 L17.816,18.992 L17.431,18.883 L17.140,18.608 L17.015,18.229 L16.993,17.829 L16.891,17.443 L16.621,17.147 L16.243,17.017 L15.843,17.005 L15.455,17.102 L15.155,17.367 L15.019,17.743 L14.998,18.142 L14.906,18.532 L14.647,18.837 L14.273,18.979 L13.874,19.000 L13.484,18.911 L13.172,18.661 L13.023,18.289 L13.000,17.890 L12.916,17.499 L12.675,17.180 L12.306,17.026 L11.907,17.000 L11.507,17.000 L11.107,17.000 L10.707,17.000 L10.307,17.000 L9.907,17.000 L9.515,17.078 L9.189,17.311 L9.028,17.677 L9.000,18.076 L9.073,18.469 L9.299,18.799 L9.661,18.969 L10.060,19.000 L10.454,19.068 L10.788,19.288 L10.966,19.647 L11.000,20.045 L10.937,20.440 L10.722,20.778 L10.366,20.961 L9.968,21.000 L9.573,21.059 L9.232,21.268 L9.043,21.621 L9.000,22.019 L9.055,22.415 L9.259,22.759 L9.609,22.953 L10.006,23.000 L10.406,23.000 L10.806,23.000 L11.206,23.000 L11.606,23.000 L12.006,23.000 L12.403,22.949 L12.750,22.750 L12.949,22.403 L13.000,22.007 L13.047,21.609 L13.241,21.259 L13.584,21.055 L13.981,21.000 L14.378,21.043 L14.731,21.231 L14.941,21.572 L15.000,21.968 L15.000,22.368 L15.000,22.768 L15.000,23.168 L15.000,23.568 L15.000,23.968 L14.961,24.366 L14.779,24.721 L14.441,24.936 L14.046,25.000 L13.648,25.034 L13.289,25.211 L13.068,25.545 L13.000,25.939 L13.030,26.338 L13.200,26.700 L13.530,26.927 L13.923,27.000 L14.322,27.028 L14.688,27.188 L14.921,27.514 L15.000,27.906 L15.000,28.306 L15.000,28.706 L15.000,29.106 L15.000,29.506 L15.000,29.906 L14.974,30.305 L14.821,30.674 L14.502,30.916 L14.111,31.000 L13.712,30.977 L13.340,30.829 L13.089,30.517 L13.000,30.127 L12.979,29.728 L12.837,29.354 L12.533,29.095 L12.143,29.003 L11.744,29.019 L11.367,29.155 L11.102,29.454 L11.005,29.842 L10.983,30.242 L10.853,30.620 L10.558,30.890 L10.172,30.993 L9.772,30.985 L9.392,30.860 L9.117,30.570 L9.009,30.185 L9.000,29.785 L9.000,29.385 L9.000,28.985 L9.000,28.585 L9.000,28.185 L9.013,27.785 L9.133,27.403 L9.419,27.124 L9.802,27.010 L10.202,26.989 L10.585,26.874 L10.869,26.593 L10.988,26.211 L10.991,25.811 L10.881,25.426 L10.604,25.137 L10.223,25.014 L9.824,25.000 L9.424,25.000 L9.024,25.000 L8.624,25.000 L8.224,25.000 L7.824,25.000 L7.424,25.000 L7.024,25.000 L6.624,25.000 L6.224,25.000 L5.824,25.007 L5.438,25.112 L5.144,25.384 L5.016,25.763 L5.005,26.163 L5.105,26.550 L5.372,26.848 L5.749,26.982 L6.149,27.003 L6.537,27.097 L6.840,27.359 L6.980,27.733 L7.000,28.133 L7.000,28.533 L7.000,28.933 L7.000,29.333 L7.000,29.733 L6.999,30.133 L6.909,30.523 L6.655,30.832 L6.283,30.977 L5.883,31.000 L5.493,30.914 L5.176,30.669 L5.025,30.299 L5.000,29.900 L4.919,29.508 L4.683,29.185 L4.316,29.027 L3.917,29.000 L3.524,29.075 L3.196,29.304 L3.030,29.668 L3.000,30.067 L2.930,30.461 L2.707,30.793 L2.347,30.968 L1.948,31.000 L1.554,30.935 L1.218,30.718 L1.037,30.361 L1.000,29.963 L1.000,29.563 L1.000,29.163 L1.000,28.763 L1.000,28.363 L1.000,27.963 L1.061,27.567 L1.272,27.228 L1.626,27.041 L2.024,27.000 L2.420,26.943 L2.763,26.737 L2.955,26.386 L3.000,25.989 L2.947,25.592 L2.746,25.246 L2.398,25.049 L2.001,25.000 L1.604,24.951 L1.256,24.756 L1.053,24.410 L1.000,24.014 L1.000,23.614 L1.000,23.214 L1.000,22.814 L1.000,22.414 L1.000,22.014 L1.045,21.616 L1.235,21.265 L1.577,21.058 L1.973,21.000 L2.371,21.040 L2.726,21.226 L2.938,21.565 L3.000,21.960 L3.036,22.358 L3.216,22.716 L3.551,22.934 L3.945,23.000 L4.345,23.000 L4.745,23.000 L5.145,23.000 L5.545,23.000 L5.945,23.000 L6.344,22.969 L6.705,22.795 L6.929,22.464 L7.000,22.070 L6.971,21.671 L6.807,21.307 L6.480,21.077 L6.087,21.000 L5.688,20.973 L5.320,20.817 L5.082,20.495 L5.000,20.104 L5.024,19.705 L5.175,19.334 L5.489,19.087 L5.880,19.000 L6.279,18.978 L6.652,18.834 L6.908,18.526 L6.998,18.136 L6.980,17.737 L6.842,17.362 L6.540,17.099 L6.152,17.004 L5.752,17.000 L5.352,17.000 L4.952,17.000 L4.552,17.000 L4.152,17.000 L3.752,17.018 L3.375,17.150 L3.107,17.447 L3.006,17.834 L2.984,18.234 L2.857,18.613 L2.565,18.886 L2.179,18.992 L1.779,18.986 L1.398,18.864 L1.121,18.576 L1.010,18.192 L1.000,17.792 L1.000,17.392 L1.000,16.992 L1.000,16.592 L1.000,16.192 L1.012,15.792 L1.129,15.410 L1.412,15.128 L1.795,15.011 L2.195,14.990 L2.579,14.878 L2.866,14.599 L2.987,14.218 L2.992,13.818 L2.885,13.433 L2.611,13.141 L2.231,13.015 L1.832,12.994 L1.445,12.892 L1.149,12.623 L1.017,12.245 L1.000,11.845 L1.000,11.445 L1.000,11.045 L1.000,10.645 L1.000,10.245 L1.004,9.845 L1.101,9.457 L1.364,9.156 L1.740,9.019 L2.140,9.002 L2.529,9.093 L2.835,9.351 L2.978,9.724 L3.000,10.123 L3.088,10.514 L3.337,10.827 L3.708,10.976 L4.107,11.000 L4.498,10.917 L4.819,10.677 L4.974,10.309 L5.000,9.910 L5.078,9.517 L5.309,9.191 L5.675,9.029 L6.074,9.000 L6.467,9.072 L6.798,9.298 L6.969,9.659 L7.000,10.058 L7.000,10.458 L7.000,10.858 L7.000,11.258 L7.000,11.658 L7.000,12.058 L6.933,12.452 L6.713,12.787 L6.355,12.965 L5.957,13.000 L5.562,13.063 L5.224,13.276 L5.040,13.631 L5.000,14.029 L5.058,14.425 L5.267,14.767 L5.619,14.956 L6.016,15.000 L6.416,15.000 L6.816,15.000 L7.216,15.000 L7.616,15.000 L8.016,15.000 L8.413,14.946 L8.757,14.743 L8.952,14.393 L9.000,13.996 L9.050,13.599 L9.248,13.252 L9.595,13.052 L9.991,13.000 L10.389,13.046 L10.739,13.239 L10.944,13.582 L11.000,13.979 L11.042,14.376 L11.230,14.730 L11.570,14.940 L11.965,15.000 L12.365,15.000 L12.765,15.000 L13.165,15.000 L13.565,15.000 L13.965,15.000 L14.364,14.962 L14.720,14.780 L14.936,14.443 L15.000,14.049 L14.967,13.650 L14.791,13.291 L14.458,13.069 L14.064,13.000 L13.665,12.970 L13.302,12.802 L13.074,12.473 L13.000,12.080 L13.028,11.681 L13.187,11.314 L13.511,11.080 L13.903,11.000 L14.302,10.975 L14.672,10.822 L14.915,10.504 L15.000,10.114 L14.977,9.714 L14.830,9.342 L14.520,9.090 L14.130,9.001 L13.730,9.000 L13.330,9.000 L12.930,9.000 L12.530,9.000 L12.130,9.000 L11.730,9.021 L11.356,9.161 L11.096,9.465 L11.003,9.854 L10.982,10.254 L10.847,10.630 L10.548,10.896 L10.160,10.995 L9.760,10.984 L9.382,10.854 L9.111,10.560 L9.007,10.174 L9.000,9.774 L9.000,9.374 L9.000,8.974 L9.000,8.574 L9.000,8.174 L9.000,7.774 L9.000,7.374 L9.000,6.974 L9.000,6.574 L9.000,6.174 L9.014,5.774 L9.139,5.394 L9.428,5.118 L9.813,5.009 L10.213,5.013 L10.595,5.132 L10.875,5.417 L10.989,5.801 L11.011,6.200 L11.125,6.583 L11.406,6.868 L11.788,6.988 L12.187,7.000 L12.587,7.000 L12.987,7.000 L13.387,7.000 L13.787,7.000 L14.187,6.991 L14.572,6.882 L14.862,6.606 L14.986,6.226 L14.993,5.826 L14.889,5.439 L14.617,5.145 L14.239,5.016 L13.839,4.995 L13.452,4.896 L13.153,4.630 L13.018,4.254 L13.003,3.854 L13.096,3.465 L13.356,3.161 L13.731,3.021 L14.130,2.999 L14.520,2.910 L14.831,2.657 L14.977,2.285 L15.000,1.886 L14.915,1.495 L14.671,1.178 L14.302,1.025 L13.902,1.000 L13.502,1.000 L13.102,1.000 L12.702,1.000 L12.302,1.000 L11.902,1.000 L11.510,1.080 L11.186,1.314 L11.028,1.682 L11.000,2.081 L10.925,2.474 L10.698,2.802 L10.335,2.970 L9.936,3.000 L9.542,2.931 L9.209,2.709 L9.033,2.349 L9.000,1.951 L8.935,1.556 L8.719,1.219 L8.363,1.038 L7.965,1.000 L7.565,1.000 L7.165,1.000 L6.765,1.000 L6.365,1.000 L5.965,1.000 L5.569,1.060 L5.229,1.271 L5.042,1.624 L5.000,2.022 L5.056,2.418 L5.261,2.761 L5.612,2.954 L6.009,3.000 L6.406,3.052 L6.752,3.252 L6.950,3.600 L7.000,3.997 L7.000,4.397 L7.000,4.797 L7.000,5.197 L7.000,5.597 L7.000,5.997 L6.952,6.394 L6.757,6.743 L6.412,6.946 L6.016,7.000 L5.618,6.956 L5.266,6.766 L5.058,6.425 L5.000,6.029 L4.960,5.631 L4.776,5.276 L4.438,5.063 L4.043,5.000 L3.644,5.035 L3.286,5.214 L3.067,5.549 L3.000,5.943 L2.969,6.342 L2.797,6.703 L2.466,6.928 L2.073,7.000 L1.674,6.971 L1.309,6.809 L1.077,6.482 L1.000,6.090 L1.000,5.690 L1.000,5.290 L1.000,4.890 L1.000,4.490 L1.000,4.090 L1.026,3.691 L1.182,3.322 L1.502,3.083 L1.894,3.000 L2.293,2.976 L2.664,2.827 L2.912,2.513 L3.000,2.123 L2.978,1.723 L2.835,1.350 L2.529,1.093 L2.139,1.002 L1.739,1.000 L1.339,1.000 L1.000,1.000 L1.339,1.000 L1.000,1.000 L1.339,1.000 L1.000,1.000"/>
</svg>
