<svg xmlns="http://www.w3.org/2000/svg" viewBox="0 0 64 64" width="256" height="256">
  <title>hilbert1</title>
  <rect x="0" y="0" width="64" height="64" fill="#f5efe4"/>
  <path fill="none" stroke="#31604f" stroke-width="0.4" stroke-linecap="round" stroke-linejoin="round" d="M1.000,63.000 L1.000,63.000 L3.000,63.000 L3.000,61.000 L1.000,61.000 L1.000,59.000 L1.000,57.000 L3.000,57.000 L3.000,59.000 L5.000,59.000 L5.000,57.000 L7.000,57.000 L7.000,59.000 L7.000,61.000 L5.000,61.000 L5.000,63.000 L7.000,63.000 L9.000,63.000 L9.000,61.000 L11.000,61.000 L11.000,63.000 L13.000,63.000 L15.000,63.000 L15.000,61.000 L13.000,61.000 L13.000,59.000 L15.000,59.000 L15.000,57.000 L13.000,57.000 L11.000,57.000 L11.000,59.000 L9.000,59.000 L9.000,57.000 L9.000,55.000 L9.000,53.000 L11.000,53.000 L11.000,55.000 L13.000,55.000 L15.000,55.000 L15.000,53.000 L13.000,53.000 L13.000,51.000 L15.000,51.000 L15.000,49.000 L13.000,49.000 L11.000,49.000 L11.000,51.000 L9.000,51.000 L9.000,49.000 L7.000,49.000 L5.000,49.000 L5.000,51.000 L7.000,51.000 L7.000,53.000 L7.000,55.000 L5.000,55.000 L5.000,53.000 L3.000,53.000 L3.000,55.000 L1.000,55.000 L1.000,53.000 L1.000,51.000 L3.000,51.000 L3.000,49.000 L1.000,49.000 L1.000,47.000 L1.000,45.000 L3.000,45.000 L3.000,47.000 L5.000,47.000 L7.000,47.000 L7.000,45.000 L5.000,45.000 L5.000,43.000 L7.000,43.000 L7.000,41.000 L5.000,41.000 L3.000,41.000 L3.000,43.000 L1.000,43.000 L1.000,41.000 L1.000,39.000 L3.000,39.000 L3.000,37.000 L1.000,37.000 L1.000,35.000 L1.000,33.000 L3.000,33.000 L3.000,35.000 L5.000,35.000 L5.000,33.000 L7.000,33.000 L7.000,35.000 L7.000,37.000 L5.000,37.000 L5.000,39.000 L7.000,39.000 L9.000,39.000 L11.000,39.000 L11.000,37.000 L9.000,37.000 L9.000,35.000 L9.000,33.000 L11.000,33.000 L11.000,35.000 L13.000,35.000 L13.000,33.000 L15.000,33.000 L15.000,35.000 L15.000,37.000 L13.000,37.000 L13.000,39.000 L15.000,39.000 L15.000,41.000 L15.000,43.000 L13.000,43.000 L13.000,41.000 L11.000,41.000 L9.000,41.000 L9.000,43.000 L11.000,43.000 L11.000,45.000 L9.000,45.000 L9.000,47.000 L11.000,47.000 L13.000,47.000 L13.000,45.000 L15.000,45.000 L15.000,47.000 L17.000,47.000 L17.000,45.000 L19.000,45.000 L19.000,47.000 L21.000,47.000 L23.000,47.000 L23.000,45.000 L21.000,45.000 L21.000,43.000 L23.000,43.000 L23.000,41.000 L21.000,41.000 L19.000,41.000 L19.000,43.000 L17.000,43.000 L17.000,41.000 L17.000,39.000 L19.000,39.000 L19.000,37.000 L17.000,37.000 L17.000,35.000 L17.000,33.000 L19.000,33.000 L19.000,35.000 L21.000,35.000 L21.000,33.000 L23.000,33.000 L23.000,35.000 L23.000,37.000 L21.000,37.000 L21.000,39.000 L23.000,39.000 L25.000,39.000 L27.000,39.000 L27.000,37.000 L25.000,37.000 L25.000,35.000 L25.000,33.000 L27.000,33.000 L27.000,35.000 L29.000,35.000 L29.000,33.000 L31.000,33.000 L31.000,35.000 L31.000,37.000 L29.000,37.000 L29.000,39.000 L31.000,39.000 L31.000,41.000 L31.000,43.000 L29.000,43.000 L29.000,41.000 L27.000,41.000 L25.000,41.000 L25.000,43.000 L27.000,43.000 L27.000,45.000 L25.000,45.000 L25.000,47.000 L27.000,47.000 L29.000,47.000 L29.000,45.000 L31.000,45.000 L31.000,47.000 L31.000,49.000 L29.000,49.000 L29.000,51.000 L31.000,51.000 L31.000,53.000 L31.000,55.000 L29.000,55.000 L29.000,53.000 L27.000,53.000 L27.000,55.000 L25.000,55.000 L25.000,53.000 L25.000,51.000 L27.000,51.000 L27.000,49.000 L25.000,49.000 L23.000,49.000 L23.000,51.000 L21.000,51.000 L21.000,49.000 L19.000,49.000 L17.000,49.000 L17.000,51.000 L19.000,51.000 L19.000,53.000 L17.000,53.000 L17.000,55.000 L19.000,55.000 L21.000,55.000 L21.000,53.000 L23.000,53.000 L23.000,55.000 L23.000,57.000 L23.000,59.000 L21.000,59.000 L21.000,57.000 L19.000,57.000 L17.000,57.000 L17.000,59.000 L19.000,59.000 L19.000,61.000 L17.000,61.000 L17.000,63.000 L19.000,63.000 L21.000,63.000 L21.000,61.000 L23.000,61.000 L23.000,63.000 L25.000,63.000 L27.000,63.000 L27.000,61.000 L25.000,61.000 L25.000,59.000 L25.000,57.000 L27.000,57.000 L27.000,59.000 L29.000,59.000 L29.000,57.000 L31.000,57.000 L31.000,59.000 L31.000,61.000 L29.000,61.000 L29.000,63.000 L31.000,63.000 L33.000,63.000 L33.000,61.000 L35.000,61.000 L35.000,63.000 L36.000,63.000 L37.000,63.000 L39.000,63.000 L39.000,61.000 L37.000,61.000 L37.000,59.000 L39.000,59.000 L39.000,57.000 L37.000,57.000 L35.000,57.000 L35.000,59.000 L33.000,59.000 L33.000,57.000 L33.000,55.000 L35.000,55.000 L35.000,53.000 L33.000,53.000 L33.000,51.000 L33.000,49.000 L35.000,49.000 L35.000,51.000 L37.000,51.000 L37.000,49.000 L39.000,49.000 L39.000,51.000 L39.000,53.000 L37.000,53.000 L37.000,55.000 L39.000,55.000 L41.000,55.000 L43.000,55.000 L43.000,53.000 L41.000,53.000 L41.000,51.000 L41.000,49.000 L43.000,49.000 L43.000,51.000 L45.000,51.000 L45.000,49.000 L47.000,49.000 L47.000,51.000 L47.000,53.000 L45.000,53.000 L45.000,55.000 L47.000,55.000 L47.000,57.000 L47.000,59.000 L45.000,59.000 L45.000,57.000 L43.000,57.000 L41.000,57.000 L41.000,59.000 L43.000,59.000 L43.000,61.000 L41.000,61.000 L41.000,63.000 L43.000,63.000 L45.000,63.000 L45.000,61.000 L47.000,61.000 L47.000,63.000 L48.000,63.000 L49.000,63.000 L51.000,63.000 L51.000,61.000 L49.000,61.000 L49.000,59.000 L49.000,57.000 L51.000,57.000 L51.000,59.000 L53.000,59.000 L53.000,57.000 L55.000,57.000 L55.000,59.000 L55.000,61.000 L53.000,61.000 L53.000,63.000 L55.000,63.000 L57.000,63.000 L57.000,61.000 L59.000,61.000 L59.000,63.000 L61.000,63.000 L63.000,63.000 L63.000,61.000 L61.000,61.000 L61.000,59.000 L63.000,59.000 L63.000,57.000 L61.000,57.000 L59.000,57.000 L59.000,59.000 L57.000,59.000 L57.000,57.000 L57.000,55.000 L57.000,53.000 L59.000,53.000 L59.000,55.000 L61.000,55.000 L63.000,55.000 L63.000,53.000 L61.000,53.000 L61.000,51.000 L63.000,51.000 L63.000,49.000 L61.000,49.000 L59.000,49.000 L59.000,51.000 L57.000,51.000 L57.000,49.000 L55.000,49.000 L53.000,49.000 L53.000,51.000 L55.000,51.000 L55.000,53.000 L55.000,55.000 L53.000,55.000 L53.000,53.000 L51.000,53.000 L51.000,55.000 L49.000,55.000 L49.000,53.000 L49.000,51.000 L51.000,51.000 L51.000,49.000 L49.000,49.000 L49.000,47.000 L51.000,47.000 L51.000,45.000 L49.000,45.000 L49.000,43.000 L49.000,41.000 L51.000,41.000 L51.000,43.000 L53.000,43.000 L53.000,41.000 L55.000,41.000 L55.000,43.000 L55.000,45.000 L53.000,45.000 L53.000,47.000 L55.000,47.000 L57.000,47.000 L57.000,45.000 L59.000,45.000 L59.000,47.000 L61.000,47.000 L63.000,47.000 L63.000,45.000 L61.000,45.000 L61.000,43.000 L63.000,43.000 L63.000,41.000 L61.000,41.000 L59.000,41.000 L59.000,43.000 L57.000,43.000 L57.000,41.000 L57.000,39.000 L57.000,37.000 L59.000,37.000 L59.000,39.000 L61.000,39.000 L63.000,39.000 L63.000,37.000 L61.000,37.000 L61.000,35.000 L63.000,35.000 L63.000,33.000 L61.000,33.000 L59.000,33.000 L59.000,35.000 L57.000,35.000 L57.000,33.000 L55.000,33.000 L53.000,33.000 L53.000,35.000 L55.000,35.000 L55.000,37.000 L55.000,39.000 L53.000,39.000 L53.000,37.000 L51.000,37.000 L51.000,39.000 L49.000,39.000 L49.000,37.000 L49.000,35.000 L51.000,35.000 L51.000,33.000 L49.000,33.000 L47.000,33.000 L47.000,35.000 L45.000,35.000 L45.000,33.000 L43.000,33.000 L41.000,33.000 L41.000,35.000 L43.000,35.000 L43.000,37.000 L41.000,37.000 L41.000,39.000 L43.000,39.000 L45.000,39.000 L45.000,37.000 L47.000,37.000 L47.000,39.000 L47.000,41.000 L45.000,41.000 L45.000,43.000 L47.000,43.000 L47.000,45.000 L47.000,47.000 L45.000,47.000 L45.000,45.000 L43.000,45.000 L43.000,47.000 L41.000,47.000 L41.000,45.000 L41.000,43.000 L43.000,43.000 L43.000,41.000 L41.000,41.000 L39.000,41.000 L37.000,41.000 L37.000,43.000 L39.000,43.000 L39.000,45.000 L39.000,47.000 L37.000,47.000 L37.000,45.000 L35.000,45.000 L35.000,47.000 L33.000,47.000 L33.000,45.000 L33.000,43.000 L35.000,43.000 L35.000,41.000 L33.000,41.000 L33.000,39.000 L33.000,37.000 L35.000,37.000 L35.000,39.000 L37.000,39.000 L39.000,39.000 L39.000,37.000 L37.000,37.000 L37.000,35.000 L39.000,35.000 L39.000,33.000 L37.000,33.000 L35.000,33.000 L35.000,35.000 L33.000,35.000 L33.000,33.000 L33.000,31.000 L33.000,29.000 L35.000,29.000 L35.000,31.000 L37.000,31.000 L39.000,31.000 L39.000,29.000 L37.000,29.000 L37.000,27.000 L39.000,27.000 L39.000,25.000 L37.000,25.000 L35.000,25.000 L35.000,27.000 L33.000,27.000 L33.000,25.000 L33.000,23.000 L35.000,23.000 L35.000,21.000 L33.000,21.000 L33.000,19.000 L33.000,17.000 L35.000,17.000 L35.000,19.000 L37.000,19.000 L37.000,17.000 L39.000,17.000 L39.000,19.000 L39.000,21.000 L37.000,21.000 L37.000,23.000 L39.000,23.000 L41.000,23.000 L43.000,23.000 L43.000,21.000 L41.000,21.000 L41.000,19.000 L41.000,17.000 L43.000,17.000 L43.000,19.000 L45.000,19.000 L45.000,17.000 L47.000,17.000 L47.000,19.000 L47.000,21.000 L45.000,21.000 L45.000,23.000 L47.000,23.000 L47.000,25.000 L47.000,27.000 L45.000,27.000 L45.000,25.000 L43.000,25.000 L41.000,25.000 L41.000,27.000 L43.000,27.000 L43.000,29.000 L41.000,29.000 L41.000,31.000 L43.000,31.000 L45.000,31.000 L45.000,29.000 L47.000,29.000 L47.000,31.000 L49.000,31.000 L51.000,31.000 L51.000,29.000 L49.000,29.000 L49.000,27.000 L49.000,25.000 L51.000,25.000 L51.000,27.000 L53.000,27.000 L53.000,25.000 L55.000,25.000 L55.000,27.000 L55.000,29.000 L53.000,29.000 L53.000,31.000 L55.000,31.000 L57.000,31.000 L57.000,29.000 L59.000,29.000 L59.000,31.000 L61.000,31.000 L63.000,31.000 L63.000,29.000 L61.000,29.000 L61.000,27.000 L63.000,27.000 L63.000,25.000 L61.000,25.000 L59.000,25.000 L59.000,27.000 L57.000,27.000 L57.000,25.000 L57.000,24.000 L57.000,23.000 L57.000,21.000 L59.000,21.000 L59.000,23.000 L61.000,23.000 L63.000,23.000 L63.000,21.000 L61.000,21.000 L61.000,19.000 L63.000,19.000 L63.000,17.000 L61.000,17.000 L59.000,17.000 L59.000,19.000 L57.000,19.000 L57.000,17.000 L55.000,17.000 L53.000,17.000 L53.000,19.000 L55.000,19.000 L55.000,21.000 L55.000,23.000 L53.000,23.000 L53.000,21.000 L51.000,21.000 L51.000,23.000 L49.000,23.000 L49.000,21.000 L49.000,19.000 L51.000,19.000 L51.000,17.000 L49.000,17.000 L49.000,15.000 L51.000,15.000 L51.000,13.000 L49.000,13.000 L49.000,11.000 L49.000,9.000 L51.000,9.000 L51.000,11.000 L53.000,11.000 L53.000,9.000 L55.000,9.000 L55.000,11.000 L55.000,13.000 L53.000,13.000 L53.000,15.000 L55.000,15.000 L57.000,15.000 L57.000,13.000 L59.000,13.000 L59.000,15.000 L61.000,15.000 L63.000,15.000 L63.000,13.000 L61.000,13.000 L61.000,11.000 L63.000,11.000 L63.000,9.000 L61.000,9.000 L59.000,9.000 L59.000,11.000 L57.000,11.000 L57.000,9.000 L57.000,7.000 L57.000,5.000 L59.000,5.000 L59.000,7.000 L61.000,7.000 L63.000,7.000 L63.000,5.000 L61.000,5.000 L61.000,3.000 L63.000,3.000 L63.000,1.000 L61.000,1.000 L59.000,1.000 L59.000,3.000 L57.000,3.000 L57.000,1.000 L55.000,1.000 L53.000,1.000 L53.000,3.000 L55.000,3.000 L55.000,5.000 L55.000,7.000 L53.000,7.000 L53.000,5.000 L51.000,5.000 L51.000,7.000 L49.000,7.000 L49.000,5.000 L49.000,3.000 L51.000,3.000 L51.000,1.000 L49.000,1.000 L47.000,1.000 L47.000,3.000 L45.000,3.000 L45.000,1.000 L43.000,1.000 L41.000,1.000 L41.000,3.000 L43.000,3.000 L43.000,5.000 L41.000,5.000 L41.000,7.000 L43.000,7.000 L45.000,7.000 L45.000,5.000 L47.000,5.000 L47.000,7.000 L47.000,9.000 L45.000,9.000 L45.000,11.000 L47.000,11.000 L47.000,13.000 L47.000,15.000 L45.000,15.000 L45.000,13.000 L43.000,13.000 L43.000,15.000 L41.000,15.000 L41.000,13.000 L41.000,11.000 L43.000,11.000 L43.000,9.000 L41.000,9.000 L39.000,9.000 L37.000,9.000 L37.000,11.000 L39.000,11.000 L39.000,13.000 L39.000,15.000 L37.000,15.000 L37.000,13.000 L35.000,13.000 L35.000,15.000 L33.000,15.000 L33.000,13.000 L33.000,11.000 L35.000,11.000 L35.000,9.000 L33.000,9.000 L33.000,7.000 L33.000,5.000 L35.000,5.000 L35.000,7.000 L37.000,7.000 L39.000,7.000 L39.000,5.000 L37.000,5.000 L37.000,3.000 L39.000,3.000 L39.000,1.000 L37.000,1.000 L35.000,1.000 L35.000,3.000 L33.000,3.000 L33.000,1.000 L31.000,1.000 L29.000,1.000 L29.000,3.000 L31.000,3.000 L31.000,5.000 L31.000,7.000 L29.000,7.000 L29.000,5.000 L28.000,5.000 L27.000,5.000 L27.000,7.000 L25.000,7.000 L25.000,5.000 L25.000,3.000 L27.000,3.000 L27.000,1.000 L25.000,1.000 L23.000,1.000 L23.000,3.000 L21.000,3.000 L21.000,1.000 L19.000,1.000 L17.000,1.000 L17.000,3.000 L19.000,3.000 L19.000,5.000 L17.000,5.000 L17.000,7.000 L19.000,7.000 L21.000,7.000 L21.000,5.000 L23.000,5.000 L23.000,7.000 L23.000,9.000 L23.000,11.000 L21.000,11.000 L21.000,9.000 L19.000,9.000 L17.000,9.000 L17.000,11.000 L19.000,11.000 L19.000,13.000 L17.000,13.000 L17.000,15.000 L19.000,15.000 L21.000,15.000 L21.000,13.000 L23.000,13.000 L23.000,15.000 L25.000,15.000 L27.000,15.000 L27.000,13.000 L25.000,13.000 L25.000,11.000 L25.000,9.000 L27.000,9.000 L27.000,11.000 L29.000,11.000 L29.000,9.000 L31.000,9.000 L31.000,11.000 L31.000,13.000 L29.000,13.000 L29.000,15.000 L31.000,15.000 L31.000,17.000 L31.000,19.000 L29.000,19.000 L29.000,17.000 L27.000,17.000 L25.000,17.000 L25.000,19.000 L27.000,19.000 L27.000,21.000 L25.000,21.000 L25.000,23.000 L27.000,23.000 L29.000,23.000 L29.000,21.000 L31.000,21.000 L31.000,23.000 L31.000,25.000 L29.000,25.000 L29.000,27.000 L31.000,27.000 L31.000,29.000 L31.000,31.000 L29.000,31.000 L29.000,29.000 L27.000,29.000 L27.000,31.000 L25.000,31.000 L25.000,29.000 L25.000,28.000 L25.000,27.000 L27.000,27.000 L27.000,25.000 L25.000,25.000 L23.000,25.000 L21.000,25.000 L21.000,27.000 L23.000,27.000 L23.000,29.000 L23.000,31.000 L21.000,31.000 L21.000,29.000 L19.000,29.000 L19.000,31.000 L17.000,31.000 L17.000,29.000 L17.000,27.000 L19.000,27.000 L19.000,25.000 L17.000,25.000 L17.000,23.000 L17.000,21.000 L19.000,21.000 L19.000,23.000 L21.000,23.000 L23.000,23.000 L23.000,21.000 L21.000,21.000 L21.000,19.000 L23.000,19.000 L23.000,17.000 L21.000,17.000 L19.000,17.000 L19.000,19.000 L17.000,19.000 L17.000,17.000 L16.000,17.000 L15.000,17.000 L15.000,19.000 L13.000,19.000 L13.000,17.000 L11.000,17.000 L9.000,17.000 L9.000,19.000 L11.000,19.000 L11.000,21.000 L9.000,21.000 L9.000,23.000 L11.000,23.000 L13.000,23.000 L13.000,21.000 L15.000,21.000 L15.000,23.000 L15.000,25.000 L13.000,25.000 L13.000,27.000 L15.000,27.000 L15.000,29.000 L15.000,31.000 L13.000,31.000 L13.000,29.000 L11.000,29.000 L11.000,31.000 L9.000,31.000 L9.000,29.000 L9.000,28.000 L9.000,27.000 L11.000,27.000 L11.000,25.000 L9.000,25.000 L7.000,25.000 L5.000,25.000 L5.000,27.000 L7.000,27.000 L7.000,29.000 L7.000,31.000 L5.000,31.000 L5.000,29.000 L3.000,29.000 L3.000,31.000 L1.000,31.000 L1.000,29.000 L1.000,27.000 L3.000,27.000 L3.000,25.000 L1.000,25.000 L1.000,23.000 L1.000,21.000 L3.000,21.000 L3.000,23.000 L5.000,23.000 L7.000,23.000 L7.000,21.000 L5.000,21.000 L5.000,19.000 L7.000,19.000 L7.000,17.000 L5.000,17.000 L3.000,17.000 L3.000,19.000 L1.000,19.000 L1.000,17.000 L1.000,15.000 L3.000,15.000 L3.000,13.000 L1.000,13.000 L1.000,11.000 L1.000,9.000 L3.000,9.000 L3.000,11.000 L5.000,11.000 L5.000,9.000 L7.000,9.000 L7.000,11.000 L7.000,13.000 L5.000,13.000 L5.000,15.000 L7.000,15.000 L9.000,15.000 L9.000,13.000 L11.000,13.000 L11.000,15.000 L13.000,15.000 L15.000,15.000 L15.000,13.000 L13.000,13.000 L13.000,11.000 L15.000,11.000 L15.000,9.000 L13.000,9.000 L11.000,9.000 L11.000,11.000 L9.000,11.000 L9.000,9.000 L9.000,7.000 L9.000,5.000 L11.000,5.000 L11.000,7.000 L13.000,7.000 L15.000,7.000 L15.000,5.000 L13.000,5.000 L13.000,3.000 L15.000,3.000 L15.000,1.000 L13.000,1.000 L11.000,1.000 L11.000,3.000 L9.000,3.000 L9.000,1.000 L7.000,1.000 L5.000,1.000 L5.000,3.000 L7.000,3.000 L7.000,5.000 L7.000,7.000 L5.000,7.000 L5.000,5.000 L3.000,5.000 L3.000,7.000 L1.000,7.000 L1.000,5.000 L1.000,3.000 L3.000,3.000 L3.000,1.000 L1.000,1.000 L1.700,1.000 L1.000,1.000 L1.700,1.000 L1.000,1.000"/>
</svg>
