<svg xmlns="http://www.w3.org/2000/svg" viewBox="-3.809 0 42.354 42.354" width="256" height="256">
  <title>humanize</title>
  <rect x="-3.809" y="0" width="42.354" height="42.354" fill="#f5efe4"/>
  <path fill="none" stroke="#3a4e8c" stroke-width="0.4" stroke-linecap="round" stroke-linejoin="round" d="M1.389,1.152 L1.389,1.152 L4.233,1.287 L6.534,1.388 L8.886,1.125 L11.447,1.002 L13.987,1.173 L16.362,1.350 L18.789,1.404 L21.290,1.437 L23.554,1.448 L25.710,1.388 L28.114,1.418 L30.714,1.337 L33.382,1.061 L32.686,1.133 L33.382,1.061 L32.686,1.133 L33.382,1.061 M33.389,5.152 L32.689,5.167 L33.389,5.152 L32.689,5.167 L33.389,5.152 L30.601,5.209 L28.160,5.308 L25.613,5.389 L23.288,5.400 L20.911,5.333 L18.466,5.393 L16.189,5.425 L13.882,5.180 L11.217,4.901 L8.517,4.995 L6.220,5.413 L4.077,5.544 L1.664,5.338 M1.389,9.152 L3.684,9.438 L5.940,9.434 L8.458,9.258 L11.324,9.120 L13.967,9.250 L16.192,9.354 L18.372,9.217 L20.748,9.033 L23.147,8.947 L25.621,8.957 L28.337,9.087 L30.963,9.293 L33.275,9.256 M33.389,13.152 L31.298,13.493 L28.798,13.318 L26.047,13.183 L23.431,13.051 L20.989,12.999 L18.523,13.163 L16.141,13.447 L13.722,13.556 L11.086,13.346 L8.479,13.120 L6.047,13.072 L3.728,13.077 L1.353,13.100 L2.053,13.093 L1.353,13.100 L2.053,13.093 L1.353,13.100 M1.389,17.152 L2.085,17.082 L1.389,17.152 L2.085,17.082 L1.389,17.152 L3.895,16.898 L6.392,16.868 L8.868,16.934 L11.295,17.168 L13.603,17.241 L15.933,16.984 L18.537,16.761 L21.252,16.886 L23.763,17.182 L26.105,17.309 L28.471,17.318 L30.840,17.266 L33.357,17.135 L32.658,17.171 L33.357,17.135 L32.658,17.171 L33.357,17.135 M33.389,21.152 L32.691,21.102 L33.389,21.152 L32.691,21.102 L33.389,21.152 L30.767,20.962 L28.328,20.887 L26.006,20.900 L23.762,21.035 L21.269,21.173 L18.529,21.187 L15.929,21.134 L13.693,20.935 L11.481,20.751 L9.050,20.844 L6.475,21.113 L3.770,21.141 L1.124,20.907 L1.821,20.969 L1.124,20.907 L1.821,20.969 L1.124,20.907 M1.389,25.152 L2.085,25.226 L1.389,25.152 L2.085,25.226 L1.389,25.152 L3.883,25.417 L6.242,25.536 L8.764,25.299 L11.492,25.048 L14.096,25.210 L16.377,25.516 L18.769,25.429 L21.337,25.121 L23.726,24.980 L26.138,25.106 L28.702,25.172 L31.206,25.092 L33.574,25.017 L32.875,25.039 L33.574,25.017 L32.875,25.039 L33.574,25.017 M33.389,29.152 L32.689,29.132 L33.389,29.152 L32.689,29.132 L33.389,29.152 L31.110,29.087 L28.508,29.388 L25.851,29.331 L23.554,28.909 L21.394,28.753 L19.000,28.966 L16.418,29.165 L13.774,29.154 L11.022,29.208 L8.379,29.367 L6.102,29.409 L3.941,29.287 L1.594,29.009 L2.289,29.092 L1.594,29.009 L2.289,29.092 L1.594,29.009 M1.389,33.152 L2.080,33.261 L1.389,33.152 L2.080,33.261 L1.389,33.152 L3.920,33.548 L6.483,33.487 L8.733,33.405 L11.030,33.165 L13.468,32.913 L15.993,32.907 L18.583,32.944 L20.937,32.995 L23.160,33.203 L25.692,33.372 L28.580,33.310 L31.192,33.137 L33.385,33.055 L32.686,33.081 L33.385,33.055 L32.686,33.081 L33.385,33.055 M33.389,37.152 L32.692,37.216 L33.389,37.152 L32.692,37.216 L33.389,37.152 L30.991,37.371 L28.302,37.360 L25.679,37.443 L23.323,37.307 L20.945,36.984 L18.306,36.847 L15.791,36.875 L13.588,36.952 L11.388,37.163 L9.039,37.357 L6.582,37.362 L3.932,37.450 L1.187,37.537 M1.389,41.152 L3.740,41.273 L6.195,41.033 L8.844,41.108 L11.598,41.245 L14.024,41.162 L16.216,41.014 L18.620,40.926 L21.299,41.052 L23.714,41.273 L25.857,41.330 L28.154,41.183 L30.907,41.088 L33.735,41.069 L33.035,41.074 L33.735,41.069 L33.035,41.074 L33.735,41.069"/>
  <path fill="none" stroke="#8c4a6b" stroke-width="0.4" stroke-linecap="round" stroke-linejoin="round" d="M1.389,1.152 L1.433,1.851 L1.389,1.152 L1.433,1.851 L1.389,1.152 L1.546,3.638 L1.632,6.320 L1.316,8.923 L1.176,11.159 L1.411,13.385 L1.609,15.908 L1.457,18.484 L1.165,20.893 L1.083,23.398 L1.107,26.086 L1.011,28.702 L1.000,31.172 L1.223,33.709 L1.392,36.329 L1.201,38.740 L1.107,40.949 L1.137,40.250 L1.107,40.949 L1.137,40.250 L1.107,40.949 M5.389,41.152 L5.359,40.453 L5.389,41.152 L5.359,40.453 L5.389,41.152 L5.287,38.784 L5.604,36.553 L5.688,33.946 L5.521,31.159 L5.333,28.566 L5.268,26.181 L5.258,23.749 L5.324,21.252 L5.527,18.701 L5.621,16.043 L5.411,13.471 L5.165,11.139 L5.186,8.839 L5.416,6.354 L5.469,3.704 L5.343,1.122 L5.377,1.821 L5.343,1.122 L5.377,1.821 L5.343,1.122 M9.389,1.152 L9.437,1.851 L9.389,1.152 L9.437,1.851 L9.389,1.152 L9.566,3.727 L9.301,6.437 L9.137,8.776 L9.206,10.981 L9.254,13.362 L9.218,15.928 L9.285,18.662 L9.508,21.331 L9.666,23.767 L9.653,26.090 L9.593,28.333 L9.664,30.753 L9.613,33.477 L9.299,36.242 L9.102,38.724 L9.319,41.064 L9.255,40.367 L9.319,41.064 L9.255,40.367 L9.319,41.064 M13.389,41.152 L13.307,40.457 L13.389,41.152 L13.307,40.457 L13.389,41.152 L13.110,38.775 L13.092,36.311 L13.326,33.710 L13.650,31.024 L13.736,28.451 L13.608,25.904 L13.447,23.422 L13.349,21.042 L13.272,18.668 L13.244,16.232 L13.279,13.746 L13.228,11.219 L13.141,8.766 L13.298,6.344 L13.574,3.716 L13.630,1.000 M17.389,1.152 L17.422,3.869 L17.524,6.446 L17.556,8.894 L17.573,11.369 L17.615,13.934 L17.675,16.445 L17.625,18.831 L17.380,21.285 L17.119,23.846 L17.222,26.359 L17.552,28.808 L17.694,31.425 L17.638,34.032 L17.551,36.327 L17.370,38.533 L17.234,41.050 L17.271,40.351 L17.234,41.050 L17.271,40.351 L17.234,41.050 M21.389,41.152 L21.384,40.452 L21.389,41.152 L21.384,40.452 L21.389,41.152 L21.369,38.240 L21.639,35.878 L21.586,33.619 L21.358,31.110 L21.175,28.543 L21.072,26.151 L21.337,23.762 L21.674,21.322 L21.650,18.891 L21.492,16.406 L21.449,13.804 L21.501,11.166 L21.543,8.591 L21.514,6.070 L21.335,3.588 L21.045,1.082 L21.125,1.777 L21.045,1.082 L21.125,1.777 L21.045,1.082 M25.389,1.152 L25.378,1.852 L25.389,1.152 L25.378,1.852 L25.389,1.152 L25.353,3.552 L25.176,5.963 L25.106,8.580 L25.182,11.145 L25.173,13.546 L25.108,15.954 L25.306,18.466 L25.623,21.045 L25.676,23.566 L25.494,26.007 L25.270,28.482 L25.041,31.034 L25.076,33.549 L25.323,35.914 L25.303,38.328 L25.182,40.899 L25.215,40.200 L25.182,40.899 L25.215,40.200 L25.182,40.899 M29.389,41.152 L29.340,40.454 L29.389,41.152 L29.340,40.454 L29.389,41.152 L29.211,38.614 L29.205,36.129 L29.186,33.698 L29.414,31.335 L29.709,28.928 L29.716,26.366 L29.525,23.616 L29.304,20.905 L29.083,18.389 L29.165,15.989 L29.405,13.672 L29.342,11.364 L29.207,8.917 L29.405,6.343 L29.648,3.871 L29.503,1.441 M33.389,1.152 L33.552,3.665 L33.268,6.020 L33.115,8.456 L33.368,10.990 L33.651,13.650 L33.638,16.305 L33.557,18.655 L33.649,20.846 L33.666,23.304 L33.663,26.140 L33.685,28.836 L33.605,31.190 L33.429,33.594 L33.409,36.267 L33.545,38.924 L33.623,41.354 L33.600,40.654 L33.623,41.354 L33.600,40.654 L33.623,41.354"/>
</svg>
