<svg xmlns="http://www.w3.org/2000/svg" viewBox="0 0 62 62" width="256" height="256">
  <title>japan2</title>
  <rect x="0" y="0" width="62" height="62" fill="#f5efe4"/>
  <path fill="none" stroke="#c8472f" stroke-width="0.4" stroke-linecap="round" stroke-linejoin="round" d="M1.000,1.000 L1.000,1.000 L3.000,1.000 L5.000,1.000 L7.000,1.000 L9.000,1.000 L11.000,1.000 L13.000,1.000 L15.000,1.000 L17.000,1.000 L19.000,1.000 L21.000,1.000 L23.000,1.000 L25.000,1.000 L27.000,1.000 L29.000,1.000 L31.000,1.000 L33.000,1.000 L35.000,1.000 L37.000,1.000 L39.000,1.000 L41.000,1.000 L43.000,1.000 L45.000,1.000 L47.000,1.000 L49.000,1.000 L51.000,1.000 L53.000,1.000 L55.000,1.000 L57.000,1.000 L59.000,1.000 L61.000,1.000 L60.300,1.000 L61.000,1.000 L60.300,1.000 L61.000,1.000 M61.000,2.200 L60.300,2.200 L61.000,2.200 L60.300,2.200 L61.000,2.200 L59.000,2.200 L57.000,2.200 L55.000,2.200 L53.000,2.200 L51.000,2.200 L49.000,2.200 L47.000,2.200 L45.000,2.200 L43.000,2.200 L41.000,2.200 L39.000,2.200 L37.000,2.200 L35.000,2.200 L33.000,2.200 L31.000,2.200 L29.000,2.200 L27.000,2.200 L25.000,2.200 L23.000,2.200 L21.000,2.200 L19.000,2.200 L17.000,2.200 L15.000,2.200 L13.000,2.200 L11.000,2.200 L9.000,2.200 L7.000,2.200 L5.000,2.200 L3.000,2.200 L1.000,2.200 L1.700,2.200 L1.000,2.200 L1.700,2.200 L1.000,2.200 M1.000,3.400 L1.700,3.400 L1.000,3.400 L1.700,3.400 L1.000,3.400 L3.000,3.400 L5.000,3.400 L7.000,3.400 L9.000,3.400 L11.000,3.400 L13.000,3.400 L15.000,3.400 L17.000,3.400 L19.000,3.400 L21.000,3.400 L23.000,3.400 L25.000,3.400 L27.000,3.400 L29.000,3.400 L31.000,3.400 L33.000,3.400 L35.000,3.400 L37.000,3.400 L39.000,3.400 L41.000,3.400 L43.000,3.400 L45.000,3.400 L47.000,3.400 L49.000,3.400 L51.000,3.400 L53.000,3.400 L55.000,3.400 L57.000,3.400 L59.000,3.400 L61.000,3.400 L60.300,3.400 L61.000,3.400 L60.300,3.400 L61.000,3.400 M61.000,4.600 L60.300,4.600 L61.000,4.600 L60.300,4.600 L61.000,4.600 L59.000,4.600 L57.000,4.600 L55.000,4.600 L53.000,4.600 L51.000,4.600 L49.000,4.600 L47.000,4.600 L45.000,4.600 L43.000,4.600 L41.000,4.600 L39.000,4.600 L37.000,4.600 L35.000,4.600 L33.000,4.600 L31.000,4.600 L29.000,4.600 L27.000,4.600 L25.000,4.600 L23.000,4.600 L21.000,4.600 L19.000,4.600 L17.000,4.600 L15.000,4.600 L13.000,4.600 L11.000,4.600 L9.000,4.600 L7.000,4.600 L5.000,4.600 L3.000,4.600 L1.000,4.600 L1.700,4.600 L1.000,4.600 L1.700,4.600 L1.000,4.600 M1.000,5.800 L1.700,5.800 L1.000,5.800 L1.700,5.800 L1.000,5.800 L3.000,5.800 L5.000,5.800 L7.000,5.800 L9.000,5.800 L11.000,5.800 L13.000,5.800 L15.000,5.800 L17.000,5.800 L19.000,5.800 L21.000,5.800 L23.000,5.800 L25.000,5.800 L27.000,5.800 L29.000,5.800 L31.000,5.800 L33.000,5.800 L35.000,5.800 L37.000,5.800 L39.000,5.800 L41.000,5.800 L43.000,5.800 L45.000,5.800 L47.000,5.800 L49.000,5.800 L51.000,5.800 L53.000,5.800 L55.000,5.800 L57.000,5.800 L59.000,5.800 L61.000,5.800 L60.300,5.800 L61.000,5.800 L60.300,5.800 L61.000,5.800 M61.000,7.000 L60.300,7.000 L61.000,7.000 L60.300,7.000 L61.000,7.000 L59.000,7.000 L57.000,7.000 L55.000,7.000 L53.000,7.000 L51.000,7.000 L49.000,7.000 L47.000,7.000 L45.000,7.000 L43.000,7.000 L41.000,7.000 L39.000,7.000 L37.000,7.000 L35.000,7.000 L33.000,7.000 L31.000,7.000 L29.000,7.000 L27.000,7.000 L25.000,7.000 L23.000,7.000 L21.000,7.000 L19.000,7.000 L17.000,7.000 L15.000,7.000 L13.000,7.000 L11.000,7.000 L9.000,7.000 L7.000,7.000 L5.000,7.000 L3.000,7.000 L1.000,7.000 L1.700,7.000 L1.000,7.000 L1.700,7.000 L1.000,7.000 M1.000,8.200 L1.700,8.200 L1.000,8.200 L1.700,8.200 L1.000,8.200 L3.000,8.200 L5.000,8.200 L7.000,8.200 L9.000,8.200 L11.000,8.200 L13.000,8.200 L15.000,8.200 L17.000,8.200 L19.000,8.200 L21.000,8.200 L23.000,8.200 L25.000,8.200 L27.000,8.200 L29.000,8.200 L31.000,8.200 L33.000,8.200 L35.000,8.200 L37.000,8.200 L39.000,8.200 L41.000,8.200 L43.000,8.200 L45.000,8.200 L47.000,8.200 L49.000,8.200 L51.000,8.200 L53.000,8.200 L55.000,8.200 L57.000,8.200 L59.000,8.200 L61.000,8.200 L60.300,8.200 L61.000,8.200 L60.300,8.200 L61.000,8.200 M61.000,9.400 L60.300,9.400 L61.000,9.400 L60.300,9.400 L61.000,9.400 L59.000,9.400 L57.000,9.400 L55.000,9.400 L53.000,9.400 L51.000,9.400 L49.000,9.400 L47.000,9.400 L45.000,9.400 L43.000,9.400 L41.000,9.400 L39.000,9.400 L37.000,9.400 L35.000,9.400 L33.000,9.400 L31.000,9.400 L29.000,9.400 L27.000,9.400 L25.000,9.400 L23.000,9.400 L21.000,9.400 L19.000,9.400 L17.000,9.400 L15.000,9.400 L13.000,9.400 L11.000,9.400 L9.000,9.400 L7.000,9.400 L5.000,9.400 L3.000,9.400 L1.000,9.400 L1.700,9.400 L1.000,9.400 L1.700,9.400 L1.000,9.400 M1.000,10.600 L1.700,10.600 L1.000,10.600 L1.700,10.600 L1.000,10.600 L3.000,10.600 L5.000,10.600 L7.000,10.600 L9.000,10.600 L11.000,10.600 L13.000,10.600 L15.000,10.600 L17.000,10.600 L19.000,10.600 L21.000,10.600 L23.000,10.600 L25.000,10.600 L27.000,10.600 L29.000,10.600 L31.000,10.600 L33.000,10.600 L35.000,10.600 L37.000,10.600 L39.000,10.600 L41.000,10.600 L43.000,10.600 L45.000,10.600 L47.000,10.600 L49.000,10.600 L51.000,10.600 L53.000,10.600 L55.000,10.600 L57.000,10.600 L59.000,10.600 L61.000,10.600 L60.300,10.600 L61.000,10.600 L60.300,10.600 L61.000,10.600 M61.000,11.800 L60.300,11.800 L61.000,11.800 L60.300,11.800 L61.000,11.800 L59.000,11.800 L57.000,11.800 L55.000,11.800 L53.000,11.800 L51.000,11.800 L49.000,11.800 L47.000,11.800 L45.000,11.800 L43.000,11.800 L41.000,11.800 L39.000,11.800 L37.000,11.800 L35.000,11.800 L33.000,11.800 L31.000,11.800 L29.000,11.800 L27.000,11.800 L25.000,11.800 L23.000,11.800 L21.000,11.800 L19.000,11.800 L17.000,11.800 L15.000,11.800 L13.000,11.800 L11.000,11.800 L9.000,11.800 L7.000,11.800 L5.000,11.800 L3.000,11.800 L1.000,11.800 L1.700,11.800 L1.000,11.800 L1.700,11.800 L1.000,11.800 M1.000,13.000 L1.700,13.000 L1.000,13.000 L1.700,13.000 L1.000,13.000 L3.000,13.000 L5.000,13.000 L7.000,13.000 L9.000,13.000 L11.000,13.000 L13.000,13.000 L15.000,13.000 L17.000,13.000 L19.000,13.000 L21.000,13.000 L23.000,13.000 L25.000,13.000 L27.000,13.000 L29.000,13.000 L31.000,13.000 L33.000,13.000 L35.000,13.000 L37.000,13.000 L39.000,13.000 L41.000,13.000 L43.000,13.000 L45.000,13.000 L47.000,13.000 L49.000,13.000 L51.000,13.000 L53.000,13.000 L55.000,13.000 L57.000,13.000 L59.000,13.000 L61.000,13.000 L60.300,13.000 L61.000,13.000 L60.300,13.000 L61.000,13.000 M61.000,14.200 L60.300,14.200 L61.000,14.200 L60.300,14.200 L61.000,14.200 L59.000,14.200 L57.000,14.200 L55.000,14.200 L53.000,14.200 L51.000,14.200 L49.000,14.200 L47.000,14.200 L45.000,14.200 L43.000,14.200 L41.000,14.200 L39.000,14.200 L37.000,14.200 L35.000,14.200 L33.000,14.200 L31.000,14.200 L29.000,14.200 L27.000,14.200 L25.000,14.200 L23.000,14.200 L21.000,14.200 L19.000,14.200 L17.000,14.200 L15.000,14.200 L13.000,14.200 L11.000,14.200 L9.000,14.200 L7.000,14.200 L5.000,14.200 L3.000,14.200 L1.000,14.200 L1.700,14.200 L1.000,14.200 L1.700,14.200 L1.000,14.200 M1.000,15.400 L1.700,15.400 L1.000,15.400 L1.700,15.400 L1.000,15.400 L3.000,15.400 L5.000,15.400 L7.000,15.400 L9.000,15.400 L11.000,15.400 L13.000,15.400 L15.000,15.400 L17.000,15.400 L19.000,15.400 L21.000,15.400 L23.000,15.400 L25.000,15.400 L27.000,15.400 L29.000,15.400 L31.000,15.400 L33.000,15.400 L35.000,15.400 L37.000,15.400 L39.000,15.400 L41.000,15.400 L43.000,15.400 L45.000,15.400 L47.000,15.400 L49.000,15.400 L51.000,15.400 L53.000,15.400 L55.000,15.400 L57.000,15.400 L59.000,15.400 L61.000,15.400 L60.300,15.400 L61.000,15.400 L60.300,15.400 L61.000,15.400 M61.000,16.600 L60.300,16.600 L61.000,16.600 L60.300,16.600 L61.000,16.600 L59.000,16.600 L57.000,16.600 L55.000,16.600 L53.000,16.600 L51.000,16.600 L49.000,16.600 L47.000,16.600 L45.000,16.600 L43.000,16.600 L41.000,16.600 L39.000,16.600 L37.000,16.600 L35.000,16.600 L33.000,16.600 L31.000,16.600 L29.000,16.600 L27.000,16.600 L25.000,16.600 L23.000,16.600 L21.000,16.600 L19.000,16.600 L17.000,16.600 L15.000,16.600 L13.000,16.600 L11.000,16.600 L9.000,16.600 L7.000,16.600 L5.000,16.600 L3.000,16.600 L1.000,16.600 L1.700,16.600 L1.000,16.600 L1.700,16.600 L1.000,16.600 M1.000,17.800 L1.700,17.800 L1.000,17.800 L1.700,17.800 L1.000,17.800 L3.000,17.800 L5.000,17.800 L7.000,17.800 L9.000,17.800 L11.000,17.800 L13.000,17.800 L15.000,17.800 L17.000,17.800 L19.000,17.800 L21.000,17.800 L23.000,17.800 L25.000,17.800 L27.000,17.800 L29.000,17.800 L31.000,17.800 L33.000,17.800 L35.000,17.800 L37.000,17.800 L39.000,17.800 L41.000,17.800 L43.000,17.800 L45.000,17.800 L47.000,17.800 L49.000,17.800 L51.000,17.800 L53.000,17.800 L55.000,17.800 L57.000,17.800 L59.000,17.800 L61.000,17.800 L60.300,17.800 L61.000,17.800 L60.300,17.800 L61.000,17.800 M61.000,19.000 L60.300,19.000 L61.000,19.000 L60.300,19.000 L61.000,19.000 L59.000,19.000 L57.000,19.000 L55.000,19.000 L53.000,19.000 L51.000,19.000 L49.000,19.000 L47.000,19.000 L45.000,19.000 L43.000,19.000 L41.000,19.000 L39.000,19.000 L37.000,19.000 L35.000,19.000 L33.000,19.000 L31.000,19.000 L29.000,19.000 L27.000,19.000 L25.000,19.000 L23.000,19.000 L21.000,19.000 L19.000,19.000 L17.000,19.000 L15.000,19.000 L13.000,19.000 L11.000,19.000 L9.000,19.000 L7.000,19.000 L5.000,19.000 L3.000,19.000 L1.000,19.000 L1.700,19.000 L1.000,19.000 L1.700,19.000 L1.000,19.000 M1.000,20.200 L1.700,20.200 L1.000,20.200 L1.700,20.200 L1.000,20.200 L3.000,20.200 L5.000,20.200 L7.000,20.200 L9.000,20.200 L11.000,20.200 L13.000,20.200 L15.000,20.200 L17.000,20.200 L19.000,20.200 L21.000,20.200 L23.000,20.200 L25.000,20.200 L27.000,20.200 L29.000,20.200 L31.000,20.200 L33.000,20.200 L35.000,20.200 L37.000,20.200 L39.000,20.200 L41.000,20.200 L43.000,20.200 L45.000,20.200 L47.000,20.200 L49.000,20.200 L51.000,20.200 L53.000,20.200 L55.000,20.200 L57.000,20.200 L59.000,20.200 L61.000,20.200 L60.300,20.200 L61.000,20.200 L60.300,20.200 L61.000,20.200 M61.000,21.400 L60.300,21.400 L61.000,21.400 L60.300,21.400 L61.000,21.400 L59.000,21.400 L57.000,21.400 L55.000,21.400 L53.000,21.400 L51.000,21.400 L49.000,21.400 L47.000,21.400 L45.000,21.400 L43.000,21.400 L41.000,21.400 L39.000,21.400 L37.000,21.400 L35.000,21.400 L33.000,21.400 L31.000,21.400 L29.000,21.400 L27.000,21.400 L25.000,21.400 L23.000,21.400 L21.000,21.400 L19.000,21.400 L17.000,21.400 L15.000,21.400 L13.000,21.400 L11.000,21.400 L9.000,21.400 L7.000,21.400 L5.000,21.400 L3.000,21.400 L1.000,21.400 L1.700,21.400 L1.000,21.400 L1.700,21.400 L1.000,21.400 M1.000,22.600 L1.700,22.600 L1.000,22.600 L1.700,22.600 L1.000,22.600 L3.000,22.600 L5.000,22.600 L7.000,22.600 L9.000,22.600 L11.000,22.600 L13.000,22.600 L15.000,22.600 L17.000,22.600 L19.000,22.600 L21.000,22.600 L23.000,22.600 L25.000,22.600 L27.000,22.600 L29.000,22.600 L31.000,22.600 L33.000,22.600 L35.000,22.600 L37.000,22.600 L39.000,22.600 L41.000,22.600 L43.000,22.600 L45.000,22.600 L47.000,22.600 L49.000,22.600 L51.000,22.600 L53.000,22.600 L55.000,22.600 L57.000,22.600 L59.000,22.600 L61.000,22.600 L60.300,22.600 L61.000,22.600 L60.300,22.600 L61.000,22.600 M61.000,23.800 L60.300,23.800 L61.000,23.800 L60.300,23.800 L61.000,23.800 L59.000,23.800 L57.000,23.800 L55.000,23.800 L53.000,23.800 L51.000,23.800 L49.000,23.800 L47.000,23.800 L45.000,23.800 L43.000,23.800 L41.000,23.800 L39.000,23.800 L37.000,23.800 L35.000,23.800 L33.000,23.800 L31.000,23.800 L29.000,23.800 L27.000,23.800 L25.000,23.800 L23.000,23.800 L21.000,23.800 L19.000,23.800 L17.000,23.800 L15.000,23.800 L13.000,23.800 L11.000,23.800 L9.000,23.800 L7.000,23.800 L5.000,23.800 L3.000,23.800 L1.000,23.800 L1.700,23.800 L1.000,23.800 L1.700,23.800 L1.000,23.800 M1.000,25.000 L1.700,25.000 L1.000,25.000 L1.700,25.000 L1.000,25.000 L3.000,25.000 L5.000,25.000 L7.000,25.000 L9.000,25.000 L11.000,25.000 L13.000,25.000 L15.000,25.000 L17.000,25.000 L19.000,25.000 L21.000,25.000 L23.000,25.000 L25.000,25.000 L27.000,25.000 L29.000,25.000 L31.000,25.000 L33.000,25.000 L35.000,25.000 L37.000,25.000 L39.000,25.000 L41.000,25.000 L43.000,25.000 L45.000,25.000 L47.000,25.000 L49.000,25.000 L51.000,25.000 L53.000,25.000 L55.000,25.000 L57.000,25.000 L59.000,25.000 L61.000,25.000 L60.300,25.000 L61.000,25.000 L60.300,25.000 L61.000,25.000 M61.000,26.200 L60.300,26.200 L61.000,26.200 L60.300,26.200 L61.000,26.200 L59.000,26.200 L57.000,26.200 L55.000,26.200 L53.000,26.200 L51.000,26.200 L49.000,26.200 L47.000,26.200 L45.000,26.200 L43.000,26.200 L41.000,26.200 L39.000,26.200 L37.000,26.200 L35.000,26.200 L33.000,26.200 L31.000,26.200 L29.000,26.200 L27.000,26.200 L25.000,26.200 L23.000,26.200 L21.000,26.200 L19.000,26.200 L17.000,26.200 L15.000,26.200 L13.000,26.200 L11.000,26.200 L9.000,26.200 L7.000,26.200 L5.000,26.200 L3.000,26.200 L1.000,26.200 L1.700,26.200 L1.000,26.200 L1.700,26.200 L1.000,26.200 M1.000,27.400 L1.700,27.400 L1.000,27.400 L1.700,27.400 L1.000,27.400 L3.000,27.400 L5.000,27.400 L7.000,27.400 L9.000,27.400 L11.000,27.400 L13.000,27.400 L15.000,27.400 L17.000,27.400 L19.000,27.400 L21.000,27.400 L23.000,27.400 L25.000,27.400 L27.000,27.400 L29.000,27.400 L31.000,27.400 L33.000,27.400 L35.000,27.400 L37.000,27.400 L39.000,27.400 L41.000,27.400 L43.000,27.400 L45.000,27.400 L47.000,27.400 L49.000,27.400 L51.000,27.400 L53.000,27.400 L55.000,27.400 L57.000,27.400 L59.000,27.400 L61.000,27.400 L60.300,27.400 L61.000,27.400 L60.300,27.400 L61.000,27.400 M61.000,28.600 L60.300,28.600 L61.000,28.600 L60.300,28.600 L61.000,28.600 L59.000,28.600 L57.000,28.600 L55.000,28.600 L53.000,28.600 L51.000,28.600 L49.000,28.600 L47.000,28.600 L45.000,28.600 L43.000,28.600 L41.000,28.600 L39.000,28.600 L37.000,28.600 L35.000,28.600 L33.000,28.600 L31.000,28.600 L29.000,28.600 L27.000,28.600 L25.000,28.600 L23.000,28.600 L21.000,28.600 L19.000,28.600 L17.000,28.600 L15.000,28.600 L13.000,28.600 L11.000,28.600 L9.000,28.600 L7.000,28.600 L5.000,28.600 L3.000,28.600 L1.000,28.600 L1.700,28.600 L1.000,28.600 L1.700,28.600 L1.000,28.600 M1.000,29.800 L1.700,29.800 L1.000,29.800 L1.700,29.800 L1.000,29.800 L3.000,29.800 L5.000,29.800 L7.000,29.800 L9.000,29.800 L11.000,29.800 L13.000,29.800 L15.000,29.800 L17.000,29.800 L19.000,29.800 L21.000,29.800 L23.000,29.800 L25.000,29.800 L27.000,29.800 L29.000,29.800 L31.000,29.800 L33.000,29.800 L35.000,29.800 L37.000,29.800 L39.000,29.800 L41.000,29.800 L43.000,29.800 L45.000,29.800 L47.000,29.800 L49.000,29.800 L51.000,29.800 L53.000,29.800 L55.000,29.800 L57.000,29.800 L59.000,29.800 L61.000,29.800 L60.300,29.800 L61.000,29.800 L60.300,29.800 L61.000,29.800 M61.000,31.000 L60.300,31.000 L61.000,31.000 L60.300,31.000 L61.000,31.000 L59.000,31.000 L57.000,31.000 L55.000,31.000 L53.000,31.000 L51.000,31.000 L49.000,31.000 L47.000,31.000 L45.000,31.000 L43.000,31.000 L41.000,31.000 L39.000,31.000 L37.000,31.000 L35.000,31.000 L33.000,31.000 L31.000,31.000 L29.000,31.000 L27.000,31.000 L25.000,31.000 L23.000,31.000 L21.000,31.000 L19.000,31.000 L17.000,31.000 L15.000,31.000 L13.000,31.000 L11.000,31.000 L9.000,31.000 L7.000,31.000 L5.000,31.000 L3.000,31.000 L1.000,31.000 L1.700,31.000 L1.000,31.000 L1.700,31.000 L1.000,31.000 M1.000,32.200 L1.700,32.200 L1.000,32.200 L1.700,32.200 L1.000,32.200 L3.000,32.200 L5.000,32.200 L7.000,32.200 L9.000,32.200 L11.000,32.200 L13.000,32.200 L15.000,32.200 L17.000,32.200 L19.000,32.200 L21.000,32.200 L23.000,32.200 L25.000,32.200 L27.000,32.200 L29.000,32.200 L31.000,32.200 L33.000,32.200 L35.000,32.200 L37.000,32.200 L39.000,32.200 L41.000,32.200 L43.000,32.200 L45.000,32.200 L47.000,32.200 L49.000,32.200 L51.000,32.200 L53.000,32.200 L55.000,32.200 L57.000,32.200 L59.000,32.200 L61.000,32.200 L60.300,32.200 L61.000,32.200 L60.300,32.200 L61.000,32.200 M61.000,33.400 L60.300,33.400 L61.000,33.400 L60.300,33.400 L61.000,33.400 L59.000,33.400 L57.000,33.400 L55.000,33.400 L53.000,33.400 L51.000,33.400 L49.000,33.400 L47.000,33.400 L45.000,33.400 L43.000,33.400 L41.000,33.400 L39.000,33.400 L37.000,33.400 L35.000,33.400 L33.000,33.400 L31.000,33.400 L29.000,33.400 L27.000,33.400 L25.000,33.400 L23.000,33.400 L21.000,33.400 L19.000,33.400 L17.000,33.400 L15.000,33.400 L13.000,33.400 L11.000,33.400 L9.000,33.400 L7.000,33.400 L5.000,33.400 L3.000,33.400 L1.000,33.400 L1.700,33.400 L1.000,33.400 L1.700,33.400 L1.000,33.400 M1.000,34.600 L1.700,34.600 L1.000,34.600 L1.700,34.600 L1.000,34.600 L3.000,34.600 L5.000,34.600 L7.000,34.600 L9.000,34.600 L11.000,34.600 L13.000,34.600 L15.000,34.600 L17.000,34.600 L19.000,34.600 L21.000,34.600 L23.000,34.600 L25.000,34.600 L27.000,34.600 L29.000,34.600 L31.000,34.600 L33.000,34.600 L35.000,34.600 L37.000,34.600 L39.000,34.600 L41.000,34.600 L43.000,34.600 L45.000,34.600 L47.000,34.600 L49.000,34.600 L51.000,34.600 L53.000,34.600 L55.000,34.600 L57.000,34.600 L59.000,34.600 L61.000,34.600 L60.300,34.600 L61.000,34.600 L60.300,34.600 L61.000,34.600 M61.000,35.800 L60.300,35.800 L61.000,35.800 L60.300,35.800 L61.000,35.800 L59.000,35.800 L57.000,35.800 L55.000,35.800 L53.000,35.800 L51.000,35.800 L49.000,35.800 L47.000,35.800 L45.000,35.800 L43.000,35.800 L41.000,35.800 L39.000,35.800 L37.000,35.800 L35.000,35.800 L33.000,35.800 L31.000,35.800 L29.000,35.800 L27.000,35.800 L25.000,35.800 L23.000,35.800 L21.000,35.800 L19.000,35.800 L17.000,35.800 L15.000,35.800 L13.000,35.800 L11.000,35.800 L9.000,35.800 L7.000,35.800 L5.000,35.800 L3.000,35.800 L1.000,35.800 L1.700,35.800 L1.000,35.800 L1.700,35.800 L1.000,35.800 M1.000,37.000 L1.700,37.000 L1.000,37.000 L1.700,37.000 L1.000,37.000 L3.000,37.000 L5.000,37.000 L7.000,37.000 L9.000,37.000 L11.000,37.000 L13.000,37.000 L15.000,37.000 L17.000,37.000 L19.000,37.000 L21.000,37.000 L23.000,37.000 L25.000,37.000 L27.000,37.000 L29.000,37.000 L31.000,37.000 L33.000,37.000 L35.000,37.000 L37.000,37.000 L39.000,37.000 L41.000,37.000 L43.000,37.000 L45.000,37.000 L47.000,37.000 L49.000,37.000 L51.000,37.000 L53.000,37.000 L55.000,37.000 L57.000,37.000 L59.000,37.000 L61.000,37.000 L60.300,37.000 L61.000,37.000 L60.300,37.000 L61.000,37.000 M61.000,38.200 L60.300,38.200 L61.000,38.200 L60.300,38.200 L61.000,38.200 L59.000,38.200 L57.000,38.200 L55.000,38.200 L53.000,38.200 L51.000,38.200 L49.000,38.200 L47.000,38.200 L45.000,38.200 L43.000,38.200 L41.000,38.200 L39.000,38.200 L37.000,38.200 L35.000,38.200 L33.000,38.200 L31.000,38.200 L29.000,38.200 L27.000,38.200 L25.000,38.200 L23.000,38.200 L21.000,38.200 L19.000,38.200 L17.000,38.200 L15.000,38.200 L13.000,38.200 L11.000,38.200 L9.000,38.200 L7.000,38.200 L5.000,38.200 L3.000,38.200 L1.000,38.200 L1.700,38.200 L1.000,38.200 L1.700,38.200 L1.000,38.200 M1.000,39.400 L1.700,39.400 L1.000,39.400 L1.700,39.400 L1.000,39.400 L3.000,39.400 L5.000,39.400 L7.000,39.400 L9.000,39.400 L11.000,39.400 L13.000,39.400 L15.000,39.400 L17.000,39.400 L19.000,39.400 L21.000,39.400 L23.000,39.400 L25.000,39.400 L27.000,39.400 L29.000,39.400 L31.000,39.400 L33.000,39.400 L35.000,39.400 L37.000,39.400 L39.000,39.400 L41.000,39.400 L43.000,39.400 L45.000,39.400 L47.000,39.400 L49.000,39.400 L51.000,39.400 L53.000,39.400 L55.000,39.400 L57.000,39.400 L59.000,39.400 L61.000,39.400 L60.300,39.400 L61.000,39.400 L60.300,39.400 L61.000,39.400 M61.000,40.600 L60.300,40.600 L61.000,40.600 L60.300,40.600 L61.000,40.600 L59.000,40.600 L57.000,40.600 L55.000,40.600 L53.000,40.600 L51.000,40.600 L49.000,40.600 L47.000,40.600 L45.000,40.600 L43.000,40.600 L41.000,40.600 L39.000,40.600 L37.000,40.600 L35.000,40.600 L33.000,40.600 L31.000,40.600 L29.000,40.600 L27.000,40.600 L25.000,40.600 L23.000,40.600 L21.000,40.600 L19.000,40.600 L17.000,40.600 L15.000,40.600 L13.000,40.600 L11.000,40.600 L9.000,40.600 L7.000,40.600 L5.000,40.600 L3.000,40.600 L1.000,40.600 L1.700,40.600 L1.000,40.600 L1.700,40.600 L1.000,40.600 M1.000,41.800 L1.700,41.800 L1.000,41.800 L1.700,41.800 L1.000,41.800 L3.000,41.800 L5.000,41.800 L7.000,41.800 L9.000,41.800 L11.000,41.800 L13.000,41.800 L15.000,41.800 L17.000,41.800 L19.000,41.800 L21.000,41.800 L23.000,41.800 L25.000,41.800 L27.000,41.800 L29.000,41.800 L31.000,41.800 L33.000,41.800 L35.000,41.800 L37.000,41.800 L39.000,41.800 L41.000,41.800 L43.000,41.800 L45.000,41.800 L47.000,41.800 L49.000,41.800 L51.000,41.800 L53.000,41.800 L55.000,41.800 L57.000,41.800 L59.000,41.800 L61.000,41.800 L60.300,41.800 L61.000,41.800 L60.300,41.800 L61.000,41.800 M61.000,43.000 L60.300,43.000 L61.000,43.000 L60.300,43.000 L61.000,43.000 L59.000,43.000 L57.000,43.000 L55.000,43.000 L53.000,43.000 L51.000,43.000 L49.000,43.000 L47.000,43.000 L45.000,43.000 L43.000,43.000 L41.000,43.000 L39.000,43.000 L37.000,43.000 L35.000,43.000 L33.000,43.000 L31.000,43.000 L29.000,43.000 L27.000,43.000 L25.000,43.000 L23.000,43.000 L21.000,43.000 L19.000,43.000 L17.000,43.000 L15.000,43.000 L13.000,43.000 L11.000,43.000 L9.000,43.000 L7.000,43.000 L5.000,43.000 L3.000,43.000 L1.000,43.000 L1.700,43.000 L1.000,43.000 L1.700,43.000 L1.000,43.000 M1.000,44.200 L1.700,44.200 L1.000,44.200 L1.700,44.200 L1.000,44.200 L3.000,44.200 L5.000,44.200 L7.000,44.200 L9.000,44.200 L11.000,44.200 L13.000,44.200 L15.000,44.200 L17.000,44.200 L19.000,44.200 L21.000,44.200 L23.000,44.200 L25.000,44.200 L27.000,44.200 L29.000,44.200 L31.000,44.200 L33.000,44.200 L35.000,44.200 L37.000,44.200 L39.000,44.200 L41.000,44.200 L43.000,44.200 L45.000,44.200 L47.000,44.200 L49.000,44.200 L51.000,44.200 L53.000,44.200 L55.000,44.200 L57.000,44.200 L59.000,44.200 L61.000,44.200 L60.300,44.200 L61.000,44.200 L60.300,44.200 L61.000,44.200 M61.000,45.400 L60.300,45.400 L61.000,45.400 L60.300,45.400 L61.000,45.400 L59.000,45.400 L57.000,45.400 L55.000,45.400 L53.000,45.400 L51.000,45.400 L49.000,45.400 L47.000,45.400 L45.000,45.400 L43.000,45.400 L41.000,45.400 L39.000,45.400 L37.000,45.400 L35.000,45.400 L33.000,45.400 L31.000,45.400 L29.000,45.400 L27.000,45.400 L25.000,45.400 L23.000,45.400 L21.000,45.400 L19.000,45.400 L17.000,45.400 L15.000,45.400 L13.000,45.400 L11.000,45.400 L9.000,45.400 L7.000,45.400 L5.000,45.400 L3.000,45.400 L1.000,45.400 L1.700,45.400 L1.000,45.400 L1.700,45.400 L1.000,45.400 M1.000,46.600 L1.700,46.600 L1.000,46.600 L1.700,46.600 L1.000,46.600 L3.000,46.600 L5.000,46.600 L7.000,46.600 L9.000,46.600 L11.000,46.600 L13.000,46.600 L15.000,46.600 L17.000,46.600 L19.000,46.600 L21.000,46.600 L23.000,46.600 L25.000,46.600 L27.000,46.600 L29.000,46.600 L31.000,46.600 L33.000,46.600 L35.000,46.600 L37.000,46.600 L39.000,46.600 L41.000,46.600 L43.000,46.600 L45.000,46.600 L47.000,46.600 L49.000,46.600 L51.000,46.600 L53.000,46.600 L55.000,46.600 L57.000,46.600 L59.000,46.600 L61.000,46.600 L60.300,46.600 L61.000,46.600 L60.300,46.600 L61.000,46.600 M61.000,47.800 L60.300,47.800 L61.000,47.800 L60.300,47.800 L61.000,47.800 L59.000,47.800 L57.000,47.800 L55.000,47.800 L53.000,47.800 L51.000,47.800 L49.000,47.800 L47.000,47.800 L45.000,47.800 L43.000,47.800 L41.000,47.800 L39.000,47.800 L37.000,47.800 L35.000,47.800 L33.000,47.800 L31.000,47.800 L29.000,47.800 L27.000,47.800 L25.000,47.800 L23.000,47.800 L21.000,47.800 L19.000,47.800 L17.000,47.800 L15.000,47.800 L13.000,47.800 L11.000,47.800 L9.000,47.800 L7.000,47.800 L5.000,47.800 L3.000,47.800 L1.000,47.800 L1.700,47.800 L1.000,47.800 L1.700,47.800 L1.000,47.800 M1.000,49.000 L1.700,49.000 L1.000,49.000 L1.700,49.000 L1.000,49.000 L3.000,49.000 L5.000,49.000 L7.000,49.000 L9.000,49.000 L11.000,49.000 L13.000,49.000 L15.000,49.000 L17.000,49.000 L19.000,49.000 L21.000,49.000 L23.000,49.000 L25.000,49.000 L27.000,49.000 L29.000,49.000 L31.000,49.000 L33.000,49.000 L35.000,49.000 L37.000,49.000 L39.000,49.000 L41.000,49.000 L43.000,49.000 L45.000,49.000 L47.000,49.000 L49.000,49.000 L51.000,49.000 L53.000,49.000 L55.000,49.000 L57.000,49.000 L59.000,49.000 L61.000,49.000 L60.300,49.000 L61.000,49.000 L60.300,49.000 L61.000,49.000 M61.000,50.200 L60.300,50.200 L61.000,50.200 L60.300,50.200 L61.000,50.200 L59.000,50.200 L57.000,50.200 L55.000,50.200 L53.000,50.200 L51.000,50.200 L49.000,50.200 L47.000,50.200 L45.000,50.200 L43.000,50.200 L41.000,50.200 L39.000,50.200 L37.000,50.200 L35.000,50.200 L33.000,50.200 L31.000,50.200 L29.000,50.200 L27.000,50.200 L25.000,50.200 L23.000,50.200 L21.000,50.200 L19.000,50.200 L17.000,50.200 L15.000,50.200 L13.000,50.200 L11.000,50.200 L9.000,50.200 L7.000,50.200 L5.000,50.200 L3.000,50.200 L1.000,50.200 L1.700,50.200 L1.000,50.200 L1.700,50.200 L1.000,50.200 M1.000,51.400 L1.700,51.400 L1.000,51.400 L1.700,51.400 L1.000,51.400 L3.000,51.400 L5.000,51.400 L7.000,51.400 L9.000,51.400 L11.000,51.400 L13.000,51.400 L15.000,51.400 L17.000,51.400 L19.000,51.400 L21.000,51.400 L23.000,51.400 L25.000,51.400 L27.000,51.400 L29.000,51.400 L31.000,51.400 L33.000,51.400 L35.000,51.400 L37.000,51.400 L39.000,51.400 L41.000,51.400 L43.000,51.400 L45.000,51.400 L47.000,51.400 L49.000,51.400 L51.000,51.400 L53.000,51.400 L55.000,51.400 L57.000,51.400 L59.000,51.400 L61.000,51.400 L60.300,51.400 L61.000,51.400 L60.300,51.400 L61.000,51.400 M61.000,52.600 L60.300,52.600 L61.000,52.600 L60.300,52.600 L61.000,52.600 L59.000,52.600 L57.000,52.600 L55.000,52.600 L53.000,52.600 L51.000,52.600 L49.000,52.600 L47.000,52.600 L45.000,52.600 L43.000,52.600 L41.000,52.600 L39.000,52.600 L37.000,52.600 L35.000,52.600 L33.000,52.600 L31.000,52.600 L29.000,52.600 L27.000,52.600 L25.000,52.600 L23.000,52.600 L21.000,52.600 L19.000,52.600 L17.000,52.600 L15.000,52.600 L13.000,52.600 L11.000,52.600 L9.000,52.600 L7.000,52.600 L5.000,52.600 L3.000,52.600 L1.000,52.600 L1.700,52.600 L1.000,52.600 L1.700,52.600 L1.000,52.600 M1.000,53.800 L1.700,53.800 L1.000,53.800 L1.700,53.800 L1.000,53.800 L3.000,53.800 L5.000,53.800 L7.000,53.800 L9.000,53.800 L11.000,53.800 L13.000,53.800 L15.000,53.800 L17.000,53.800 L19.000,53.800 L21.000,53.800 L23.000,53.800 L25.000,53.800 L27.000,53.800 L29.000,53.800 L31.000,53.800 L33.000,53.800 L35.000,53.800 L37.000,53.800 L39.000,53.800 L41.000,53.800 L43.000,53.800 L45.000,53.800 L47.000,53.800 L49.000,53.800 L51.000,53.800 L53.000,53.800 L55.000,53.800 L57.000,53.800 L59.000,53.800 L61.000,53.800 L60.300,53.800 L61.000,53.800 L60.300,53.800 L61.000,53.800 M61.000,55.000 L60.300,55.000 L61.000,55.000 L60.300,55.000 L61.000,55.000 L59.000,55.000 L57.000,55.000 L55.000,55.000 L53.000,55.000 L51.000,55.000 L49.000,55.000 L47.000,55.000 L45.000,55.000 L43.000,55.000 L41.000,55.000 L39.000,55.000 L37.000,55.000 L35.000,55.000 L33.000,55.000 L31.000,55.000 L29.000,55.000 L27.000,55.000 L25.000,55.000 L23.000,55.000 L21.000,55.000 L19.000,55.000 L17.000,55.000 L15.000,55.000 L13.000,55.000 L11.000,55.000 L9.000,55.000 L7.000,55.000 L5.000,55.000 L3.000,55.000 L1.000,55.000 L1.700,55.000 L1.000,55.000 L1.700,55.000 L1.000,55.000 M1.000,56.200 L1.700,56.200 L1.000,56.200 L1.700,56.200 L1.000,56.200 L3.000,56.200 L5.000,56.200 L7.000,56.200 L9.000,56.200 L11.000,56.200 L13.000,56.200 L15.000,56.200 L17.000,56.200 L19.000,56.200 L21.000,56.200 L23.000,56.200 L25.000,56.200 L27.000,56.200 L29.000,56.200 L31.000,56.200 L33.000,56.200 L35.000,56.200 L37.000,56.200 L39.000,56.200 L41.000,56.200 L43.000,56.200 L45.000,56.200 L47.000,56.200 L49.000,56.200 L51.000,56.200 L53.000,56.200 L55.000,56.200 L57.000,56.200 L59.000,56.200 L61.000,56.200 L60.300,56.200 L61.000,56.200 L60.300,56.200 L61.000,56.200 M61.000,57.400 L60.300,57.400 L61.000,57.400 L60.300,57.400 L61.000,57.400 L59.000,57.400 L57.000,57.400 L55.000,57.400 L53.000,57.400 L51.000,57.400 L49.000,57.400 L47.000,57.400 L45.000,57.400 L43.000,57.400 L41.000,57.400 L39.000,57.400 L37.000,57.400 L35.000,57.400 L33.000,57.400 L31.000,57.400 L29.000,57.400 L27.000,57.400 L25.000,57.400 L23.000,57.400 L21.000,57.400 L19.000,57.400 L17.000,57.400 L15.000,57.400 L13.000,57.400 L11.000,57.400 L9.000,57.400 L7.000,57.400 L5.000,57.400 L3.000,57.400 L1.000,57.400 L1.700,57.400 L1.000,57.400 L1.700,57.400 L1.000,57.400 M1.000,58.600 L1.700,58.600 L1.000,58.600 L1.700,58.600 L1.000,58.600 L3.000,58.600 L5.000,58.600 L7.000,58.600 L9.000,58.600 L11.000,58.600 L13.000,58.600 L15.000,58.600 L17.000,58.600 L19.000,58.600 L21.000,58.600 L23.000,58.600 L25.000,58.600 L27.000,58.600 L29.000,58.600 L31.000,58.600 L33.000,58.600 L35.000,58.600 L37.000,58.600 L39.000,58.600 L41.000,58.600 L43.000,58.600 L45.000,58.600 L47.000,58.600 L49.000,58.600 L51.000,58.600 L53.000,58.600 L55.000,58.600 L57.000,58.600 L59.000,58.600 L61.000,58.600 L60.300,58.600 L61.000,58.600 L60.300,58.600 L61.000,58.600 M61.000,59.800 L60.300,59.800 L61.000,59.800 L60.300,59.800 L61.000,59.800 L59.000,59.800 L57.000,59.800 L55.000,59.800 L53.000,59.800 L51.000,59.800 L49.000,59.800 L47.000,59.800 L45.000,59.800 L43.000,59.800 L41.000,59.800 L39.000,59.800 L37.000,59.800 L35.000,59.800 L33.000,59.800 L31.000,59.800 L29.000,59.800 L27.000,59.800 L25.000,59.800 L23.000,59.800 L21.000,59.800 L19.000,59.800 L17.000,59.800 L15.000,59.800 L13.000,59.800 L11.000,59.800 L9.000,59.800 L7.000,59.800 L5.000,59.800 L3.000,59.800 L1.000,59.800 L1.700,59.800 L1.000,59.800 L1.700,59.800 L1.000,59.800 M1.000,61.000 L1.700,61.000 L1.000,61.000 L1.700,61.000 L1.000,61.000 L3.000,61.000 L5.000,61.000 L7.000,61.000 L9.000,61.000 L11.000,61.000 L13.000,61.000 L15.000,61.000 L17.000,61.000 L19.000,61.000 L21.000,61.000 L23.000,61.000 L25.000,61.000 L27.000,61.000 L29.000,61.000 L31.000,61.000 L33.000,61.000 L35.000,61.000 L37.000,61.000 L39.000,61.000 L41.000,61.000 L43.000,61.000 L45.000,61.000 L47.000,61.000 L49.000,61.000 L51.000,61.000 L53.000,61.000 L55.000,61.000 L57.000,61.000 L59.000,61.000 L61.000,61.000 L60.300,61.000 L61.000,61.000 L60.300,61.000 L61.000,61.000 M25.897,9.600 L26.597,9.600 L25.897,9.600 L26.597,9.600 L25.897,9.600 L27.598,9.600 L29.299,9.600 L31.000,9.600 L32.701,9.600 L34.402,9.600 L36.103,9.600 L35.403,9.600 L36.103,9.600 L35.403,9.600 L36.103,9.600 M38.167,10.200 L37.467,10.200 L38.167,10.200 L37.467,10.200 L38.167,10.200 L36.375,10.200 L34.583,10.200 L32.792,10.200 L31.000,10.200 L29.208,10.200 L27.417,10.200 L25.625,10.200 L23.833,10.200 L24.533,10.200 L23.833,10.200 L24.533,10.200 L23.833,10.200 M22.284,10.800 L22.984,10.800 L22.284,10.800 L22.984,10.800 L22.284,10.800 L24.221,10.800 L26.158,10.800 L28.095,10.800 L30.032,10.800 L31.968,10.800 L33.905,10.800 L35.842,10.800 L37.779,10.800 L39.716,10.800 L39.016,10.800 L39.716,10.800 L39.016,10.800 L39.716,10.800 M40.992,11.400 L40.292,11.400 L40.992,11.400 L40.292,11.400 L40.992,11.400 L38.994,11.400 L36.995,11.400 L34.997,11.400 L32.998,11.400 L31.000,11.400 L29.002,11.400 L27.003,11.400 L25.005,11.400 L23.006,11.400 L21.008,11.400 L21.708,11.400 L21.008,11.400 L21.708,11.400 L21.008,11.400 M19.909,12.000 L20.609,12.000 L19.909,12.000 L20.609,12.000 L19.909,12.000 L21.758,12.000 L23.606,12.000 L25.455,12.000 L27.303,12.000 L29.152,12.000 L31.000,12.000 L32.848,12.000 L34.697,12.000 L36.545,12.000 L38.394,12.000 L40.242,12.000 L42.091,12.000 L41.391,12.000 L42.091,12.000 L41.391,12.000 L42.091,12.000 M43.060,12.600 L42.360,12.600 L43.060,12.600 L42.360,12.600 L43.060,12.600 L41.204,12.600 L39.349,12.600 L37.494,12.600 L35.638,12.600 L33.783,12.600 L31.928,12.600 L30.072,12.600 L28.217,12.600 L26.362,12.600 L24.506,12.600 L22.651,12.600 L20.796,12.600 L18.940,12.600 L19.640,12.600 L18.940,12.600 L19.640,12.600 L18.940,12.600 M18.071,13.200 L18.771,13.200 L18.071,13.200 L18.771,13.200 L18.071,13.200 L20.060,13.200 L22.049,13.200 L24.038,13.200 L26.027,13.200 L28.016,13.200 L30.005,13.200 L31.995,13.200 L33.984,13.200 L35.973,13.200 L37.962,13.200 L39.951,13.200 L41.940,13.200 L43.929,13.200 L43.229,13.200 L43.929,13.200 L43.229,13.200 L43.929,13.200 M44.717,13.800 L44.017,13.800 L44.717,13.800 L44.017,13.800 L44.717,13.800 L42.758,13.800 L40.798,13.800 L38.838,13.800 L36.879,13.800 L34.919,13.800 L32.960,13.800 L31.000,13.800 L29.040,13.800 L27.081,13.800 L25.121,13.800 L23.162,13.800 L21.202,13.800 L19.242,13.800 L17.283,13.800 L17.983,13.800 L17.283,13.800 L17.983,13.800 L17.283,13.800 M16.563,14.400 L17.263,14.400 L16.563,14.400 L17.263,14.400 L16.563,14.400 L18.488,14.400 L20.413,14.400 L22.338,14.400 L24.263,14.400 L26.188,14.400 L28.113,14.400 L30.038,14.400 L31.962,14.400 L33.887,14.400 L35.812,14.400 L37.737,14.400 L39.662,14.400 L41.587,14.400 L43.512,14.400 L45.437,14.400 L44.737,14.400 L45.437,14.400 L44.737,14.400 L45.437,14.400 M46.100,15.000 L45.400,15.000 L46.100,15.000 L45.400,15.000 L46.100,15.000 L44.212,15.000 L42.325,15.000 L40.437,15.000 L38.550,15.000 L36.662,15.000 L34.775,15.000 L32.887,15.000 L31.000,15.000 L29.113,15.000 L27.225,15.000 L25.338,15.000 L23.450,15.000 L21.563,15.000 L19.675,15.000 L17.788,15.000 L15.900,15.000 L16.600,15.000 L15.900,15.000 L16.600,15.000 L15.900,15.000 M15.289,15.600 L15.989,15.600 L15.289,15.600 L15.989,15.600 L15.289,15.600 L17.253,15.600 L19.217,15.600 L21.181,15.600 L23.144,15.600 L25.108,15.600 L27.072,15.600 L29.036,15.600 L31.000,15.600 L32.964,15.600 L34.928,15.600 L36.892,15.600 L38.856,15.600 L40.819,15.600 L42.783,15.600 L44.747,15.600 L46.711,15.600 L46.011,15.600 L46.711,15.600 L46.011,15.600 L46.711,15.600 M47.278,16.200 L46.578,16.200 L47.278,16.200 L46.578,16.200 L47.278,16.200 L45.363,16.200 L43.448,16.200 L41.533,16.200 L39.618,16.200 L37.703,16.200 L35.788,16.200 L33.873,16.200 L31.958,16.200 L30.042,16.200 L28.127,16.200 L26.212,16.200 L24.297,16.200 L22.382,16.200 L20.467,16.200 L18.552,16.200 L16.637,16.200 L14.722,16.200 L15.422,16.200 L14.722,16.200 L15.422,16.200 L14.722,16.200 M14.196,16.800 L14.896,16.800 L14.196,16.800 L14.896,16.800 L14.196,16.800 L16.173,16.800 L18.150,16.800 L20.127,16.800 L22.104,16.800 L24.081,16.800 L26.058,16.800 L28.035,16.800 L30.012,16.800 L31.988,16.800 L33.965,16.800 L35.942,16.800 L37.919,16.800 L39.896,16.800 L41.873,16.800 L43.850,16.800 L45.827,16.800 L47.804,16.800 L47.104,16.800 L47.804,16.800 L47.104,16.800 L47.804,16.800 M48.293,17.400 L47.593,17.400 L48.293,17.400 L47.593,17.400 L48.293,17.400 L46.371,17.400 L44.450,17.400 L42.529,17.400 L40.607,17.400 L38.686,17.400 L36.764,17.400 L34.843,17.400 L32.921,17.400 L31.000,17.400 L29.079,17.400 L27.157,17.400 L25.236,17.400 L23.314,17.400 L21.393,17.400 L19.471,17.400 L17.550,17.400 L15.629,17.400 L13.707,17.400 L14.407,17.400 L13.707,17.400 L14.407,17.400 L13.707,17.400 M13.252,18.000 L13.952,18.000 L13.252,18.000 L13.952,18.000 L13.252,18.000 L15.224,18.000 L17.196,18.000 L19.168,18.000 L21.140,18.000 L23.112,18.000 L25.084,18.000 L27.056,18.000 L29.028,18.000 L31.000,18.000 L32.972,18.000 L34.944,18.000 L36.916,18.000 L38.888,18.000 L40.860,18.000 L42.832,18.000 L44.804,18.000 L46.776,18.000 L48.748,18.000 L48.048,18.000 L48.748,18.000 L48.048,18.000 L48.748,18.000 M49.173,18.600 L48.473,18.600 L49.173,18.600 L48.473,18.600 L49.173,18.600 L47.260,18.600 L45.347,18.600 L43.434,18.600 L41.521,18.600 L39.608,18.600 L37.695,18.600 L35.782,18.600 L33.869,18.600 L31.956,18.600 L30.044,18.600 L28.131,18.600 L26.218,18.600 L24.305,18.600 L22.392,18.600 L20.479,18.600 L18.566,18.600 L16.653,18.600 L14.740,18.600 L12.827,18.600 L13.527,18.600 L12.827,18.600 L13.527,18.600 L12.827,18.600 M12.432,19.200 L13.132,19.200 L12.432,19.200 L13.132,19.200 L12.432,19.200 L14.387,19.200 L16.341,19.200 L18.296,19.200 L20.250,19.200 L22.205,19.200 L24.159,19.200 L26.114,19.200 L28.068,19.200 L30.023,19.200 L31.977,19.200 L33.932,19.200 L35.886,19.200 L37.841,19.200 L39.795,19.200 L41.750,19.200 L43.704,19.200 L45.659,19.200 L47.613,19.200 L49.568,19.200 L48.868,19.200 L49.568,19.200 L48.868,19.200 L49.568,19.200 M49.936,19.800 L49.236,19.800 L49.936,19.800 L49.236,19.800 L49.936,19.800 L47.942,19.800 L45.949,19.800 L43.956,19.800 L41.963,19.800 L39.970,19.800 L37.976,19.800 L35.983,19.800 L33.990,19.800 L31.997,19.800 L30.003,19.800 L28.010,19.800 L26.017,19.800 L24.024,19.800 L22.030,19.800 L20.037,19.800 L18.044,19.800 L16.051,19.800 L14.058,19.800 L12.064,19.800 L12.764,19.800 L12.064,19.800 L12.764,19.800 L12.064,19.800 M11.722,20.400 L12.422,20.400 L11.722,20.400 L12.422,20.400 L11.722,20.400 L13.650,20.400 L15.578,20.400 L17.505,20.400 L19.433,20.400 L21.361,20.400 L23.289,20.400 L25.217,20.400 L27.144,20.400 L29.072,20.400 L31.000,20.400 L32.928,20.400 L34.856,20.400 L36.783,20.400 L38.711,20.400 L40.639,20.400 L42.567,20.400 L44.495,20.400 L46.422,20.400 L48.350,20.400 L50.278,20.400 L49.578,20.400 L50.278,20.400 L49.578,20.400 L50.278,20.400 M50.596,21.000 L49.896,21.000 L50.596,21.000 L49.896,21.000 L50.596,21.000 L48.636,21.000 L46.677,21.000 L44.717,21.000 L42.758,21.000 L40.798,21.000 L38.838,21.000 L36.879,21.000 L34.919,21.000 L32.960,21.000 L31.000,21.000 L29.040,21.000 L27.081,21.000 L25.121,21.000 L23.162,21.000 L21.202,21.000 L19.242,21.000 L17.283,21.000 L15.323,21.000 L13.364,21.000 L11.404,21.000 L12.104,21.000 L11.404,21.000 L12.104,21.000 L11.404,21.000 M11.109,21.600 L11.809,21.600 L11.109,21.600 L11.809,21.600 L11.109,21.600 L13.098,21.600 L15.087,21.600 L17.077,21.600 L19.066,21.600 L21.055,21.600 L23.044,21.600 L25.033,21.600 L27.022,21.600 L29.011,21.600 L31.000,21.600 L32.989,21.600 L34.978,21.600 L36.967,21.600 L38.956,21.600 L40.945,21.600 L42.934,21.600 L44.923,21.600 L46.913,21.600 L48.902,21.600 L50.891,21.600 L50.191,21.600 L50.891,21.600 L50.191,21.600 L50.891,21.600 M51.163,22.200 L50.463,22.200 L51.163,22.200 L50.463,22.200 L51.163,22.200 L49.243,22.200 L47.323,22.200 L45.402,22.200 L43.482,22.200 L41.562,22.200 L39.641,22.200 L37.721,22.200 L35.801,22.200 L33.880,22.200 L31.960,22.200 L30.040,22.200 L28.120,22.200 L26.199,22.200 L24.279,22.200 L22.359,22.200 L20.438,22.200 L18.518,22.200 L16.598,22.200 L14.677,22.200 L12.757,22.200 L10.837,22.200 L11.537,22.200 L10.837,22.200 L11.537,22.200 L10.837,22.200 M10.585,22.800 L11.285,22.800 L10.585,22.800 L11.285,22.800 L10.585,22.800 L12.530,22.800 L14.474,22.800 L16.418,22.800 L18.362,22.800 L20.307,22.800 L22.251,22.800 L24.195,22.800 L26.139,22.800 L28.084,22.800 L30.028,22.800 L31.972,22.800 L33.916,22.800 L35.861,22.800 L37.805,22.800 L39.749,22.800 L41.693,22.800 L43.638,22.800 L45.582,22.800 L47.526,22.800 L49.470,22.800 L51.415,22.800 L50.715,22.800 L51.415,22.800 L50.715,22.800 L51.415,22.800 M51.646,23.400 L50.946,23.400 L51.646,23.400 L50.946,23.400 L51.646,23.400 L49.679,23.400 L47.713,23.400 L45.747,23.400 L43.781,23.400 L41.814,23.400 L39.848,23.400 L37.882,23.400 L35.916,23.400 L33.949,23.400 L31.983,23.400 L30.017,23.400 L28.051,23.400 L26.084,23.400 L24.118,23.400 L22.152,23.400 L20.186,23.400 L18.219,23.400 L16.253,23.400 L14.287,23.400 L12.321,23.400 L10.354,23.400 L11.054,23.400 L10.354,23.400 L11.054,23.400 L10.354,23.400 M10.143,24.000 L10.843,24.000 L10.143,24.000 L10.843,24.000 L10.143,24.000 L12.130,24.000 L14.116,24.000 L16.102,24.000 L18.089,24.000 L20.075,24.000 L22.061,24.000 L24.048,24.000 L26.034,24.000 L28.020,24.000 L30.007,24.000 L31.993,24.000 L33.980,24.000 L35.966,24.000 L37.952,24.000 L39.939,24.000 L41.925,24.000 L43.911,24.000 L45.898,24.000 L47.884,24.000 L49.870,24.000 L51.857,24.000 L51.157,24.000 L51.857,24.000 L51.157,24.000 L51.857,24.000 M52.049,24.600 L51.349,24.600 L52.049,24.600 L51.349,24.600 L52.049,24.600 L50.135,24.600 L48.222,24.600 L46.308,24.600 L44.395,24.600 L42.481,24.600 L40.568,24.600 L38.654,24.600 L36.741,24.600 L34.827,24.600 L32.914,24.600 L31.000,24.600 L29.086,24.600 L27.173,24.600 L25.259,24.600 L23.346,24.600 L21.432,24.600 L19.519,24.600 L17.605,24.600 L15.692,24.600 L13.778,24.600 L11.865,24.600 L9.951,24.600 L10.651,24.600 L9.951,24.600 L10.651,24.600 L9.951,24.600 M9.778,25.200 L10.478,25.200 L9.778,25.200 L10.478,25.200 L9.778,25.200 L11.708,25.200 L13.637,25.200 L15.566,25.200 L17.495,25.200 L19.425,25.200 L21.354,25.200 L23.283,25.200 L25.212,25.200 L27.142,25.200 L29.071,25.200 L31.000,25.200 L32.929,25.200 L34.858,25.200 L36.788,25.200 L38.717,25.200 L40.646,25.200 L42.575,25.200 L44.505,25.200 L46.434,25.200 L48.363,25.200 L50.292,25.200 L52.222,25.200 L51.522,25.200 L52.222,25.200 L51.522,25.200 L52.222,25.200 M52.377,25.800 L51.677,25.800 L52.377,25.800 L51.677,25.800 L52.377,25.800 L50.433,25.800 L48.490,25.800 L46.547,25.800 L44.603,25.800 L42.660,25.800 L40.717,25.800 L38.773,25.800 L36.830,25.800 L34.887,25.800 L32.943,25.800 L31.000,25.800 L29.057,25.800 L27.113,25.800 L25.170,25.800 L23.227,25.800 L21.283,25.800 L19.340,25.800 L17.397,25.800 L15.453,25.800 L13.510,25.800 L11.567,25.800 L9.623,25.800 L10.323,25.800 L9.623,25.800 L10.323,25.800 L9.623,25.800 M9.486,26.400 L10.186,26.400 L9.486,26.400 L10.186,26.400 L9.486,26.400 L11.442,26.400 L13.398,26.400 L15.354,26.400 L17.309,26.400 L19.265,26.400 L21.221,26.400 L23.177,26.400 L25.133,26.400 L27.088,26.400 L29.044,26.400 L31.000,26.400 L32.956,26.400 L34.912,26.400 L36.867,26.400 L38.823,26.400 L40.779,26.400 L42.735,26.400 L44.691,26.400 L46.646,26.400 L48.602,26.400 L50.558,26.400 L52.514,26.400 L51.814,26.400 L52.514,26.400 L51.814,26.400 L52.514,26.400 M52.633,27.000 L51.933,27.000 L52.633,27.000 L51.933,27.000 L52.633,27.000 L50.667,27.000 L48.700,27.000 L46.733,27.000 L44.767,27.000 L42.800,27.000 L40.833,27.000 L38.867,27.000 L36.900,27.000 L34.933,27.000 L32.967,27.000 L31.000,27.000 L29.033,27.000 L27.067,27.000 L25.100,27.000 L23.133,27.000 L21.167,27.000 L19.200,27.000 L17.233,27.000 L15.267,27.000 L13.300,27.000 L11.333,27.000 L9.367,27.000 L10.067,27.000 L9.367,27.000 L10.067,27.000 L9.367,27.000 M9.264,27.600 L9.964,27.600 L9.264,27.600 L9.964,27.600 L9.264,27.600 L11.240,27.600 L13.216,27.600 L15.192,27.600 L17.168,27.600 L19.144,27.600 L21.120,27.600 L23.096,27.600 L25.072,27.600 L27.048,27.600 L29.024,27.600 L31.000,27.600 L32.976,27.600 L34.952,27.600 L36.928,27.600 L38.904,27.600 L40.880,27.600 L42.856,27.600 L44.832,27.600 L46.808,27.600 L48.784,27.600 L50.760,27.600 L52.736,27.600 L52.036,27.600 L52.736,27.600 L52.036,27.600 L52.736,27.600 M52.821,28.200 L52.121,28.200 L52.821,28.200 L52.121,28.200 L52.821,28.200 L50.837,28.200 L48.854,28.200 L46.870,28.200 L44.886,28.200 L42.902,28.200 L40.919,28.200 L38.935,28.200 L36.951,28.200 L34.967,28.200 L32.984,28.200 L31.000,28.200 L29.016,28.200 L27.033,28.200 L25.049,28.200 L23.065,28.200 L21.081,28.200 L19.098,28.200 L17.114,28.200 L15.130,28.200 L13.146,28.200 L11.163,28.200 L9.179,28.200 L9.879,28.200 L9.179,28.200 L9.879,28.200 L9.179,28.200 M9.110,28.800 L9.810,28.800 L9.110,28.800 L9.810,28.800 L9.110,28.800 L11.100,28.800 L13.090,28.800 L15.080,28.800 L17.070,28.800 L19.060,28.800 L21.050,28.800 L23.040,28.800 L25.030,28.800 L27.020,28.800 L29.010,28.800 L31.000,28.800 L32.990,28.800 L34.980,28.800 L36.970,28.800 L38.960,28.800 L40.950,28.800 L42.940,28.800 L44.930,28.800 L46.920,28.800 L48.910,28.800 L50.900,28.800 L52.890,28.800 L52.190,28.800 L52.890,28.800 L52.190,28.800 L52.890,28.800 M52.942,29.400 L52.242,29.400 L52.942,29.400 L52.242,29.400 L52.942,29.400 L50.947,29.400 L48.952,29.400 L46.958,29.400 L44.963,29.400 L42.968,29.400 L40.974,29.400 L38.979,29.400 L36.984,29.400 L34.989,29.400 L32.995,29.400 L31.000,29.400 L29.005,29.400 L27.011,29.400 L25.016,29.400 L23.021,29.400 L21.026,29.400 L19.032,29.400 L17.037,29.400 L15.042,29.400 L13.048,29.400 L11.053,29.400 L9.058,29.400 L9.758,29.400 L9.058,29.400 L9.758,29.400 L9.058,29.400 M9.023,30.000 L9.723,30.000 L9.023,30.000 L9.723,30.000 L9.023,30.000 L11.021,30.000 L13.019,30.000 L15.017,30.000 L17.014,30.000 L19.012,30.000 L21.010,30.000 L23.008,30.000 L25.006,30.000 L27.004,30.000 L29.002,30.000 L31.000,30.000 L32.998,30.000 L34.996,30.000 L36.994,30.000 L38.992,30.000 L40.990,30.000 L42.988,30.000 L44.986,30.000 L46.983,30.000 L48.981,30.000 L50.979,30.000 L52.977,30.000 L52.277,30.000 L52.977,30.000 L52.277,30.000 L52.977,30.000 M52.996,30.600 L52.296,30.600 L52.996,30.600 L52.296,30.600 L52.996,30.600 L50.997,30.600 L48.997,30.600 L46.997,30.600 L44.998,30.600 L42.998,30.600 L40.998,30.600 L38.999,30.600 L36.999,30.600 L34.999,30.600 L33.000,30.600 L31.000,30.600 L29.000,30.600 L27.001,30.600 L25.001,30.600 L23.001,30.600 L21.002,30.600 L19.002,30.600 L17.002,30.600 L15.003,30.600 L13.003,30.600 L11.003,30.600 L9.004,30.600 L9.704,30.600 L9.004,30.600 L9.704,30.600 L9.004,30.600 M9.001,31.200 L9.701,31.200 L9.001,31.200 L9.701,31.200 L9.001,31.200 L11.001,31.200 L13.001,31.200 L15.001,31.200 L17.001,31.200 L19.000,31.200 L21.000,31.200 L23.000,31.200 L25.000,31.200 L27.000,31.200 L29.000,31.200 L31.000,31.200 L33.000,31.200 L35.000,31.200 L37.000,31.200 L39.000,31.200 L41.000,31.200 L43.000,31.200 L44.999,31.200 L46.999,31.200 L48.999,31.200 L50.999,31.200 L52.999,31.200 L52.299,31.200 L52.999,31.200 L52.299,31.200 L52.999,31.200 M52.985,31.800 L52.285,31.800 L52.985,31.800 L52.285,31.800 L52.985,31.800 L50.987,31.800 L48.988,31.800 L46.989,31.800 L44.991,31.800 L42.992,31.800 L40.993,31.800 L38.995,31.800 L36.996,31.800 L34.997,31.800 L32.999,31.800 L31.000,31.800 L29.001,31.800 L27.003,31.800 L25.004,31.800 L23.005,31.800 L21.007,31.800 L19.008,31.800 L17.009,31.800 L15.011,31.800 L13.012,31.800 L11.013,31.800 L9.015,31.800 L9.715,31.800 L9.015,31.800 L9.715,31.800 L9.015,31.800 M9.045,32.400 L9.745,32.400 L9.045,32.400 L9.745,32.400 L9.045,32.400 L11.041,32.400 L13.036,32.400 L15.032,32.400 L17.028,32.400 L19.024,32.400 L21.020,32.400 L23.016,32.400 L25.012,32.400 L27.008,32.400 L29.004,32.400 L31.000,32.400 L32.996,32.400 L34.992,32.400 L36.988,32.400 L38.984,32.400 L40.980,32.400 L42.976,32.400 L44.972,32.400 L46.968,32.400 L48.964,32.400 L50.959,32.400 L52.955,32.400 L52.255,32.400 L52.955,32.400 L52.255,32.400 L52.955,32.400 M52.909,33.000 L52.209,33.000 L52.909,33.000 L52.209,33.000 L52.909,33.000 L50.917,33.000 L48.925,33.000 L46.934,33.000 L44.942,33.000 L42.950,33.000 L40.959,33.000 L38.967,33.000 L36.975,33.000 L34.983,33.000 L32.992,33.000 L31.000,33.000 L29.008,33.000 L27.017,33.000 L25.025,33.000 L23.033,33.000 L21.041,33.000 L19.050,33.000 L17.058,33.000 L15.066,33.000 L13.075,33.000 L11.083,33.000 L9.091,33.000 L9.791,33.000 L9.091,33.000 L9.791,33.000 L9.091,33.000 M9.154,33.600 L9.854,33.600 L9.154,33.600 L9.854,33.600 L9.154,33.600 L11.140,33.600 L13.126,33.600 L15.112,33.600 L17.098,33.600 L19.084,33.600 L21.070,33.600 L23.056,33.600 L25.042,33.600 L27.028,33.600 L29.014,33.600 L31.000,33.600 L32.986,33.600 L34.972,33.600 L36.958,33.600 L38.944,33.600 L40.930,33.600 L42.916,33.600 L44.902,33.600 L46.888,33.600 L48.874,33.600 L50.860,33.600 L52.846,33.600 L52.146,33.600 L52.846,33.600 L52.146,33.600 L52.846,33.600 M52.766,34.200 L52.066,34.200 L52.766,34.200 L52.066,34.200 L52.766,34.200 L50.787,34.200 L48.809,34.200 L46.830,34.200 L44.851,34.200 L42.872,34.200 L40.894,34.200 L38.915,34.200 L36.936,34.200 L34.957,34.200 L32.979,34.200 L31.000,34.200 L29.021,34.200 L27.043,34.200 L25.064,34.200 L23.085,34.200 L21.106,34.200 L19.128,34.200 L17.149,34.200 L15.170,34.200 L13.191,34.200 L11.213,34.200 L9.234,34.200 L9.934,34.200 L9.234,34.200 L9.934,34.200 L9.234,34.200 M9.331,34.800 L10.031,34.800 L9.331,34.800 L10.031,34.800 L9.331,34.800 L11.301,34.800 L13.271,34.800 L15.240,34.800 L17.210,34.800 L19.180,34.800 L21.150,34.800 L23.120,34.800 L25.090,34.800 L27.060,34.800 L29.030,34.800 L31.000,34.800 L32.970,34.800 L34.940,34.800 L36.910,34.800 L38.880,34.800 L40.850,34.800 L42.820,34.800 L44.790,34.800 L46.760,34.800 L48.729,34.800 L50.699,34.800 L52.669,34.800 L51.969,34.800 L52.669,34.800 L51.969,34.800 L52.669,34.800 M52.556,35.400 L51.856,35.400 L52.556,35.400 L51.856,35.400 L52.556,35.400 L50.596,35.400 L48.636,35.400 L46.677,35.400 L44.717,35.400 L42.758,35.400 L40.798,35.400 L38.838,35.400 L36.879,35.400 L34.919,35.400 L32.960,35.400 L31.000,35.400 L29.040,35.400 L27.081,35.400 L25.121,35.400 L23.162,35.400 L21.202,35.400 L19.242,35.400 L17.283,35.400 L15.323,35.400 L13.364,35.400 L11.404,35.400 L9.444,35.400 L10.144,35.400 L9.444,35.400 L10.144,35.400 L9.444,35.400 M9.576,36.000 L10.276,36.000 L9.576,36.000 L10.276,36.000 L9.576,36.000 L11.523,36.000 L13.471,36.000 L15.419,36.000 L17.366,36.000 L19.314,36.000 L21.262,36.000 L23.209,36.000 L25.157,36.000 L27.105,36.000 L29.052,36.000 L31.000,36.000 L32.948,36.000 L34.895,36.000 L36.843,36.000 L38.791,36.000 L40.738,36.000 L42.686,36.000 L44.634,36.000 L46.581,36.000 L48.529,36.000 L50.477,36.000 L52.424,36.000 L51.724,36.000 L52.424,36.000 L51.724,36.000 L52.424,36.000 M52.275,36.600 L51.575,36.600 L52.275,36.600 L51.575,36.600 L52.275,36.600 L50.341,36.600 L48.407,36.600 L46.473,36.600 L44.539,36.600 L42.605,36.600 L40.671,36.600 L38.736,36.600 L36.802,36.600 L34.868,36.600 L32.934,36.600 L31.000,36.600 L29.066,36.600 L27.132,36.600 L25.198,36.600 L23.264,36.600 L21.329,36.600 L19.395,36.600 L17.461,36.600 L15.527,36.600 L13.593,36.600 L11.659,36.600 L9.725,36.600 L10.425,36.600 L9.725,36.600 L10.425,36.600 L9.725,36.600 M9.892,37.200 L10.592,37.200 L9.892,37.200 L10.592,37.200 L9.892,37.200 L11.811,37.200 L13.730,37.200 L15.649,37.200 L17.567,37.200 L19.486,37.200 L21.405,37.200 L23.324,37.200 L25.243,37.200 L27.162,37.200 L29.081,37.200 L31.000,37.200 L32.919,37.200 L34.838,37.200 L36.757,37.200 L38.676,37.200 L40.595,37.200 L42.514,37.200 L44.433,37.200 L46.351,37.200 L48.270,37.200 L50.189,37.200 L52.108,37.200 L51.408,37.200 L52.108,37.200 L51.408,37.200 L52.108,37.200 M51.923,37.800 L51.223,37.800 L51.923,37.800 L51.223,37.800 L51.923,37.800 L49.930,37.800 L47.937,37.800 L45.945,37.800 L43.952,37.800 L41.960,37.800 L39.967,37.800 L37.974,37.800 L35.982,37.800 L33.989,37.800 L31.996,37.800 L30.004,37.800 L28.011,37.800 L26.018,37.800 L24.026,37.800 L22.033,37.800 L20.040,37.800 L18.048,37.800 L16.055,37.800 L14.063,37.800 L12.070,37.800 L10.077,37.800 L10.777,37.800 L10.077,37.800 L10.777,37.800 L10.077,37.800 M10.282,38.400 L10.982,38.400 L10.282,38.400 L10.982,38.400 L10.282,38.400 L12.255,38.400 L14.228,38.400 L16.201,38.400 L18.175,38.400 L20.148,38.400 L22.121,38.400 L24.094,38.400 L26.067,38.400 L28.040,38.400 L30.013,38.400 L31.987,38.400 L33.960,38.400 L35.933,38.400 L37.906,38.400 L39.879,38.400 L41.852,38.400 L43.825,38.400 L45.799,38.400 L47.772,38.400 L49.745,38.400 L51.718,38.400 L51.018,38.400 L51.718,38.400 L51.018,38.400 L51.718,38.400 M51.494,39.000 L50.794,39.000 L51.494,39.000 L50.794,39.000 L51.494,39.000 L49.542,39.000 L47.590,39.000 L45.639,39.000 L43.687,39.000 L41.735,39.000 L39.783,39.000 L37.831,39.000 L35.880,39.000 L33.928,39.000 L31.976,39.000 L30.024,39.000 L28.072,39.000 L26.120,39.000 L24.169,39.000 L22.217,39.000 L20.265,39.000 L18.313,39.000 L16.361,39.000 L14.410,39.000 L12.458,39.000 L10.506,39.000 L11.206,39.000 L10.506,39.000 L11.206,39.000 L10.506,39.000 M10.751,39.600 L11.451,39.600 L10.751,39.600 L11.451,39.600 L10.751,39.600 L12.679,39.600 L14.608,39.600 L16.536,39.600 L18.465,39.600 L20.393,39.600 L22.322,39.600 L24.250,39.600 L26.179,39.600 L28.107,39.600 L30.036,39.600 L31.964,39.600 L33.893,39.600 L35.821,39.600 L37.750,39.600 L39.678,39.600 L41.607,39.600 L43.535,39.600 L45.464,39.600 L47.392,39.600 L49.321,39.600 L51.249,39.600 L50.549,39.600 L51.249,39.600 L50.549,39.600 L51.249,39.600 M50.984,40.200 L50.284,40.200 L50.984,40.200 L50.284,40.200 L50.984,40.200 L48.986,40.200 L46.987,40.200 L44.989,40.200 L42.990,40.200 L40.992,40.200 L38.994,40.200 L36.995,40.200 L34.997,40.200 L32.998,40.200 L31.000,40.200 L29.002,40.200 L27.003,40.200 L25.005,40.200 L23.006,40.200 L21.008,40.200 L19.010,40.200 L17.011,40.200 L15.013,40.200 L13.014,40.200 L11.016,40.200 L11.716,40.200 L11.016,40.200 L11.716,40.200 L11.016,40.200 M11.303,40.800 L12.003,40.800 L11.303,40.800 L12.003,40.800 L11.303,40.800 L13.273,40.800 L15.243,40.800 L17.212,40.800 L19.182,40.800 L21.152,40.800 L23.121,40.800 L25.091,40.800 L27.061,40.800 L29.030,40.800 L31.000,40.800 L32.970,40.800 L34.939,40.800 L36.909,40.800 L38.879,40.800 L40.848,40.800 L42.818,40.800 L44.788,40.800 L46.757,40.800 L48.727,40.800 L50.697,40.800 L49.997,40.800 L50.697,40.800 L49.997,40.800 L50.697,40.800 M50.387,41.400 L49.687,41.400 L50.387,41.400 L49.687,41.400 L50.387,41.400 L48.448,41.400 L46.509,41.400 L44.571,41.400 L42.632,41.400 L40.693,41.400 L38.755,41.400 L36.816,41.400 L34.877,41.400 L32.939,41.400 L31.000,41.400 L29.061,41.400 L27.123,41.400 L25.184,41.400 L23.245,41.400 L21.307,41.400 L19.368,41.400 L17.429,41.400 L15.491,41.400 L13.552,41.400 L11.613,41.400 L12.313,41.400 L11.613,41.400 L12.313,41.400 L11.613,41.400 M11.947,42.000 L12.647,42.000 L11.947,42.000 L12.647,42.000 L11.947,42.000 L13.853,42.000 L15.758,42.000 L17.663,42.000 L19.568,42.000 L21.474,42.000 L23.379,42.000 L25.284,42.000 L27.189,42.000 L29.095,42.000 L31.000,42.000 L32.905,42.000 L34.811,42.000 L36.716,42.000 L38.621,42.000 L40.526,42.000 L42.432,42.000 L44.337,42.000 L46.242,42.000 L48.147,42.000 L50.053,42.000 L49.353,42.000 L50.053,42.000 L49.353,42.000 L50.053,42.000 M49.693,42.600 L48.993,42.600 L49.693,42.600 L48.993,42.600 L49.693,42.600 L47.726,42.600 L45.758,42.600 L43.790,42.600 L41.822,42.600 L39.855,42.600 L37.887,42.600 L35.919,42.600 L33.952,42.600 L31.984,42.600 L30.016,42.600 L28.048,42.600 L26.081,42.600 L24.113,42.600 L22.145,42.600 L20.178,42.600 L18.210,42.600 L16.242,42.600 L14.274,42.600 L12.307,42.600 L13.007,42.600 L12.307,42.600 L13.007,42.600 L12.307,42.600 M12.693,43.200 L13.393,43.200 L12.693,43.200 L13.393,43.200 L12.693,43.200 L14.620,43.200 L16.547,43.200 L18.474,43.200 L20.401,43.200 L22.328,43.200 L24.255,43.200 L26.182,43.200 L28.109,43.200 L30.036,43.200 L31.964,43.200 L33.891,43.200 L35.818,43.200 L37.745,43.200 L39.672,43.200 L41.599,43.200 L43.526,43.200 L45.453,43.200 L47.380,43.200 L49.307,43.200 L48.607,43.200 L49.307,43.200 L48.607,43.200 L49.307,43.200 M48.893,43.800 L48.193,43.800 L48.893,43.800 L48.193,43.800 L48.893,43.800 L46.905,43.800 L44.917,43.800 L42.929,43.800 L40.941,43.800 L38.952,43.800 L36.964,43.800 L34.976,43.800 L32.988,43.800 L31.000,43.800 L29.012,43.800 L27.024,43.800 L25.036,43.800 L23.048,43.800 L21.059,43.800 L19.071,43.800 L17.083,43.800 L15.095,43.800 L13.107,43.800 L13.807,43.800 L13.107,43.800 L13.807,43.800 L13.107,43.800 M13.552,44.400 L14.252,44.400 L13.552,44.400 L14.252,44.400 L13.552,44.400 L15.490,44.400 L17.429,44.400 L19.368,44.400 L21.307,44.400 L23.245,44.400 L25.184,44.400 L27.123,44.400 L29.061,44.400 L31.000,44.400 L32.939,44.400 L34.877,44.400 L36.816,44.400 L38.755,44.400 L40.693,44.400 L42.632,44.400 L44.571,44.400 L46.510,44.400 L48.448,44.400 L47.748,44.400 L48.448,44.400 L47.748,44.400 L48.448,44.400 M47.971,45.000 L47.271,45.000 L47.971,45.000 L47.271,45.000 L47.971,45.000 L45.974,45.000 L43.977,45.000 L41.981,45.000 L39.984,45.000 L37.988,45.000 L35.991,45.000 L33.995,45.000 L31.998,45.000 L30.002,45.000 L28.005,45.000 L26.009,45.000 L24.012,45.000 L22.016,45.000 L20.019,45.000 L18.023,45.000 L16.026,45.000 L14.029,45.000 L14.729,45.000 L14.029,45.000 L14.729,45.000 L14.029,45.000 M14.543,45.600 L15.243,45.600 L14.543,45.600 L15.243,45.600 L14.543,45.600 L16.479,45.600 L18.415,45.600 L20.351,45.600 L22.287,45.600 L24.223,45.600 L26.160,45.600 L28.096,45.600 L30.032,45.600 L31.968,45.600 L33.904,45.600 L35.840,45.600 L37.777,45.600 L39.713,45.600 L41.649,45.600 L43.585,45.600 L45.521,45.600 L47.457,45.600 L46.757,45.600 L47.457,45.600 L46.757,45.600 L47.457,45.600 M46.905,46.200 L46.205,46.200 L46.905,46.200 L46.205,46.200 L46.905,46.200 L44.917,46.200 L42.929,46.200 L40.940,46.200 L38.952,46.200 L36.964,46.200 L34.976,46.200 L32.988,46.200 L31.000,46.200 L29.012,46.200 L27.024,46.200 L25.036,46.200 L23.048,46.200 L21.060,46.200 L19.071,46.200 L17.083,46.200 L15.095,46.200 L15.795,46.200 L15.095,46.200 L15.795,46.200 L15.095,46.200 M15.691,46.800 L16.391,46.800 L15.691,46.800 L16.391,46.800 L15.691,46.800 L17.605,46.800 L19.518,46.800 L21.432,46.800 L23.346,46.800 L25.259,46.800 L27.173,46.800 L29.086,46.800 L31.000,46.800 L32.914,46.800 L34.827,46.800 L36.741,46.800 L38.654,46.800 L40.568,46.800 L42.482,46.800 L44.395,46.800 L46.309,46.800 L45.609,46.800 L46.309,46.800 L45.609,46.800 L46.309,46.800 M45.664,47.400 L44.964,47.400 L45.664,47.400 L44.964,47.400 L45.664,47.400 L43.709,47.400 L41.754,47.400 L39.799,47.400 L37.843,47.400 L35.888,47.400 L33.933,47.400 L31.978,47.400 L30.022,47.400 L28.067,47.400 L26.112,47.400 L24.157,47.400 L22.201,47.400 L20.246,47.400 L18.291,47.400 L16.336,47.400 L17.036,47.400 L16.336,47.400 L17.036,47.400 L16.336,47.400 M17.036,48.000 L17.736,48.000 L17.036,48.000 L17.736,48.000 L17.036,48.000 L19.031,48.000 L21.026,48.000 L23.020,48.000 L25.015,48.000 L27.010,48.000 L29.005,48.000 L31.000,48.000 L32.995,48.000 L34.990,48.000 L36.985,48.000 L38.980,48.000 L40.974,48.000 L42.969,48.000 L44.964,48.000 L44.264,48.000 L44.964,48.000 L44.264,48.000 L44.964,48.000 M44.200,48.600 L43.500,48.600 L44.200,48.600 L43.500,48.600 L44.200,48.600 L42.314,48.600 L40.429,48.600 L38.543,48.600 L36.657,48.600 L34.771,48.600 L32.886,48.600 L31.000,48.600 L29.114,48.600 L27.229,48.600 L25.343,48.600 L23.457,48.600 L21.571,48.600 L19.686,48.600 L17.800,48.600 L18.500,48.600 L17.800,48.600 L18.500,48.600 L17.800,48.600 M18.640,49.200 L19.340,49.200 L18.640,49.200 L19.340,49.200 L18.640,49.200 L20.542,49.200 L22.443,49.200 L24.345,49.200 L26.246,49.200 L28.148,49.200 L30.049,49.200 L31.951,49.200 L33.852,49.200 L35.754,49.200 L37.655,49.200 L39.557,49.200 L41.458,49.200 L43.360,49.200 L42.660,49.200 L43.360,49.200 L42.660,49.200 L43.360,49.200 M42.426,49.800 L41.726,49.800 L42.426,49.800 L41.726,49.800 L42.426,49.800 L40.522,49.800 L38.618,49.800 L36.713,49.800 L34.809,49.800 L32.904,49.800 L31.000,49.800 L29.096,49.800 L27.191,49.800 L25.287,49.800 L23.382,49.800 L21.478,49.800 L19.574,49.800 L20.274,49.800 L19.574,49.800 L20.274,49.800 L19.574,49.800 M20.625,50.400 L21.325,50.400 L20.625,50.400 L21.325,50.400 L20.625,50.400 L22.511,50.400 L24.398,50.400 L26.284,50.400 L28.170,50.400 L30.057,50.400 L31.943,50.400 L33.830,50.400 L35.716,50.400 L37.602,50.400 L39.489,50.400 L41.375,50.400 L40.675,50.400 L41.375,50.400 L40.675,50.400 L41.375,50.400 M40.165,51.000 L39.465,51.000 L40.165,51.000 L39.465,51.000 L40.165,51.000 L38.332,51.000 L36.499,51.000 L34.666,51.000 L32.833,51.000 L31.000,51.000 L29.167,51.000 L27.334,51.000 L25.501,51.000 L23.668,51.000 L21.835,51.000 L22.535,51.000 L21.835,51.000 L22.535,51.000 L21.835,51.000 M23.277,51.600 L23.977,51.600 L23.277,51.600 L23.977,51.600 L23.277,51.600 L25.208,51.600 L27.139,51.600 L29.069,51.600 L31.000,51.600 L32.931,51.600 L34.861,51.600 L36.792,51.600 L38.723,51.600 L38.023,51.600 L38.723,51.600 L38.023,51.600 L38.723,51.600 M36.879,52.200 L36.179,52.200 L36.879,52.200 L36.179,52.200 L36.879,52.200 L34.919,52.200 L32.960,52.200 L31.000,52.200 L29.040,52.200 L27.081,52.200 L25.121,52.200 L25.821,52.200 L25.121,52.200 L25.821,52.200 L25.121,52.200 M28.040,52.800 L28.740,52.800 L28.040,52.800 L28.740,52.800 L28.040,52.800 L30.013,52.800 L31.987,52.800 L33.960,52.800 L33.260,52.800 L33.960,52.800 L33.260,52.800 L33.960,52.800"/>
</svg>
