<svg xmlns="http://www.w3.org/2000/svg" viewBox="0 -24.931 84.262 84.262" width="256" height="256">
  <title>kantha-bands</title>
  <rect x="0" y="-24.931" width="84.262" height="84.262" fill="#f5efe4"/>
  <path fill="none" stroke="#c8472f" stroke-width="0.4" stroke-linecap="round" stroke-linejoin="round" d="M41.262,27.270 L41.262,23.770 L41.262,22.770 L41.262,19.270 L41.262,18.270 L41.262,14.770 L41.262,13.770 L41.262,10.270 L41.262,9.270 L41.262,7.130 L41.682,7.340 L41.682,9.090 L41.682,10.090 L41.682,13.590 L41.682,14.590 L41.682,18.090 L41.682,19.090 L41.682,22.590 L41.682,23.590 L41.682,27.060 L40.842,27.060 L40.842,23.560 L40.842,22.560 L40.842,19.060 L40.842,18.060 L40.842,14.560 L40.842,13.560 L40.842,10.060 L40.842,9.060 L40.842,7.340 L42.102,7.550 L42.102,9.300 L42.102,10.300 L42.102,13.800 L42.102,14.800 L42.102,18.300 L42.102,19.300 L42.102,22.800 L42.102,23.800 L42.102,26.850 L40.422,26.850 L40.422,23.350 L40.422,22.350 L40.422,18.850 L40.422,17.850 L40.422,14.350 L40.422,13.350 L40.422,9.850 L40.422,8.850 L40.422,7.550 L42.522,7.970 L42.522,9.720 L42.522,10.720 L42.522,14.220 L42.522,15.220 L42.522,18.720 L42.522,19.720 L42.522,23.220 L42.522,24.220 L42.522,26.430 L40.002,26.430 L40.002,22.930 L40.002,21.930 L40.002,18.430 L40.002,17.430 L40.002,13.930 L40.002,12.930 L40.002,9.430 L40.002,8.430 L40.002,7.970 L42.942,8.180 L42.942,9.930 L42.942,10.930 L42.942,14.430 L42.942,15.430 L42.942,18.930 L42.942,19.930 L42.942,23.430 L42.942,24.430 L42.942,26.220 L39.582,26.220 L39.582,22.720 L39.582,21.720 L39.582,18.220 L39.582,17.220 L39.582,13.720 L39.582,12.720 L39.582,9.220 L39.582,8.220 L39.582,8.180 M43.362,8.390 L43.362,10.140 L43.362,11.140 L43.362,14.640 L43.362,15.640 L43.362,19.140 L43.362,20.140 L43.362,23.640 L43.362,24.640 L43.362,26.010 M39.162,26.010 L39.162,22.510 L39.162,21.510 L39.162,18.010 L39.162,17.010 L39.162,13.510 L39.162,12.510 L39.162,9.010 L39.162,8.390 M43.782,8.600 L43.782,10.350 L43.782,11.350 L43.782,14.850 L43.782,15.850 L43.782,19.350 L43.782,20.350 L43.782,23.850 L43.782,24.850 L43.782,25.800 M38.742,25.800 L38.742,22.300 L38.742,21.300 L38.742,17.800 L38.742,16.800 L38.742,13.300 L38.742,12.300 L38.742,8.800 L38.742,8.600 M44.202,9.020 L44.202,10.770 L44.202,11.770 L44.202,15.270 L44.202,16.270 L44.202,19.770 L44.202,20.770 L44.202,24.270 L44.202,25.270 L44.202,25.380 M38.322,25.380 L38.322,21.880 L38.322,20.880 L38.322,17.380 L38.322,16.380 L38.322,12.880 L38.322,11.880 L38.322,9.020 M44.622,9.230 L44.622,10.980 L44.622,11.980 L44.622,15.480 L44.622,16.480 L44.622,19.980 L44.622,20.980 L44.622,24.480 L44.622,25.170 M37.902,25.170 L37.902,21.670 L37.902,20.670 L37.902,17.170 L37.902,16.170 L37.902,12.670 L37.902,11.670 L37.902,9.230 M45.042,9.440 L45.042,11.190 L45.042,12.190 L45.042,15.690 L45.042,16.690 L45.042,20.190 L45.042,21.190 L45.042,24.690 L45.042,24.960 M37.482,24.960 L37.482,21.460 L37.482,20.460 L37.482,16.960 L37.482,15.960 L37.482,12.460 L37.482,11.460 L37.482,9.440 M45.462,9.650 L45.462,11.400 L45.462,12.400 L45.462,15.900 L45.462,16.900 L45.462,20.400 L45.462,21.400 L45.462,24.750 M37.062,24.750 L37.062,21.250 L37.062,20.250 L37.062,16.750 L37.062,15.750 L37.062,12.250 L37.062,11.250 L37.062,9.650 M45.882,10.070 L45.882,11.820 L45.882,12.820 L45.882,16.320 L45.882,17.320 L45.882,20.820 L45.882,21.820 L45.882,24.330 M36.642,24.330 L36.642,20.830 L36.642,19.830 L36.642,16.330 L36.642,15.330 L36.642,11.830 L36.642,10.830 L36.642,10.070 M46.302,10.280 L46.302,12.030 L46.302,13.030 L46.302,16.530 L46.302,17.530 L46.302,21.030 L46.302,22.030 L46.302,24.120 M36.222,24.120 L36.222,20.620 L36.222,19.620 L36.222,16.120 L36.222,15.120 L36.222,11.620 L36.222,10.620 L36.222,10.280 M46.722,10.490 L46.722,12.240 L46.722,13.240 L46.722,16.740 L46.722,17.740 L46.722,21.240 L46.722,22.240 L46.722,23.910 M35.802,23.910 L35.802,20.410 L35.802,19.410 L35.802,15.910 L35.802,14.910 L35.802,11.410 L35.802,10.490 M47.142,10.700 L47.142,12.450 L47.142,13.450 L47.142,16.950 L47.142,17.950 L47.142,21.450 L47.142,22.450 L47.142,23.700 M35.382,23.700 L35.382,20.200 L35.382,19.200 L35.382,15.700 L35.382,14.700 L35.382,11.200 L35.382,10.700 M47.562,11.120 L47.562,12.870 L47.562,13.870 L47.562,17.370 L47.562,18.370 L47.562,21.870 L47.562,22.870 L47.562,23.280 M34.962,23.280 L34.962,19.780 L34.962,18.780 L34.962,15.280 L34.962,14.280 L34.962,11.120 M47.982,11.330 L47.982,13.080 L47.982,14.080 L47.982,17.580 L47.982,18.580 L47.982,22.080 L47.982,23.070 M34.542,23.070 L34.542,19.570 L34.542,18.570 L34.542,15.070 L34.542,14.070 L34.542,11.330 M48.402,11.540 L48.402,13.290 L48.402,14.290 L48.402,17.790 L48.402,18.790 L48.402,22.290 L48.402,22.860 M34.122,22.860 L34.122,19.360 L34.122,18.360 L34.122,14.860 L34.122,13.860 L34.122,11.540 M48.822,11.750 L48.822,13.500 L48.822,14.500 L48.822,18.000 L48.822,19.000 L48.822,22.500 L48.822,22.650 M33.702,22.650 L33.702,19.150 L33.702,18.150 L33.702,14.650 L33.702,13.650 L33.702,11.750 M49.242,12.170 L49.242,13.920 L49.242,14.920 L49.242,18.420 L49.242,19.420 L49.242,22.230 M33.282,22.230 L33.282,18.730 L33.282,17.730 L33.282,14.230 L33.282,13.230 L33.282,12.170 M49.662,12.380 L49.662,14.130 L49.662,15.130 L49.662,18.630 L49.662,19.630 L49.662,22.020 M32.862,22.020 L32.862,18.520 L32.862,17.520 L32.862,14.020 L32.862,13.020 L32.862,12.380 M50.082,12.590 L50.082,14.340 L50.082,15.340 L50.082,18.840 L50.082,19.840 L50.082,21.810 M32.442,21.810 L32.442,18.310 L32.442,17.310 L32.442,13.810 L32.442,12.810 L32.442,12.590 M50.502,12.800 L50.502,14.550 L50.502,15.550 L50.502,19.050 L50.502,20.050 L50.502,21.600 M32.022,21.600 L32.022,18.100 L32.022,17.100 L32.022,13.600 L32.022,12.800 M50.922,13.220 L50.922,14.970 L50.922,15.970 L50.922,19.470 L50.922,20.470 L50.922,21.180 M31.602,21.180 L31.602,17.680 L31.602,16.680 L31.602,13.220 M51.342,13.430 L51.342,15.180 L51.342,16.180 L51.342,19.680 L51.342,20.680 L51.342,20.970 M31.182,20.970 L31.182,17.470 L31.182,16.470 L31.182,13.430 M51.762,13.640 L51.762,15.390 L51.762,16.390 L51.762,19.890 L51.762,20.760 M30.762,20.760 L30.762,17.260 L30.762,16.260 L30.762,13.640 M52.182,13.850 L52.182,15.600 L52.182,16.600 L52.182,20.100 L52.182,20.550 M30.342,20.550 L30.342,17.050 L30.342,16.050 L30.342,13.850 M52.602,14.270 L52.602,16.020 L52.602,17.020 L52.602,20.130 M29.922,20.130 L29.922,16.630 L29.922,15.630 L29.922,14.270 M53.022,14.480 L53.022,16.230 L53.022,17.230 L53.022,19.920 M29.502,19.920 L29.502,16.420 L29.502,15.420 L29.502,14.480 M53.442,14.690 L53.442,16.440 L53.442,17.440 L53.442,19.710 M29.082,19.710 L29.082,16.210 L29.082,15.210 L29.082,14.690 M53.862,14.900 L53.862,16.650 L53.862,17.650 L53.862,19.500 M28.662,19.500 L28.662,16.000 L28.662,15.000 L28.662,14.900 M54.282,15.320 L54.282,17.070 L54.282,18.070 L54.282,19.080 M28.242,19.080 L28.242,15.580 L28.242,15.320 M54.702,15.530 L54.702,17.280 L54.702,18.280 L54.702,18.870 M27.822,18.870 L27.822,15.530 M55.122,15.740 L55.122,17.490 L55.122,18.490 L55.122,18.660 M27.402,18.660 L27.402,15.740 M55.542,15.950 L55.542,17.700 L55.542,18.450 M26.982,18.450 L26.982,15.950 M55.962,16.370 L55.962,18.030 M26.562,18.030 L26.562,16.370 M56.382,16.580 L56.382,17.820 M26.142,17.820 L26.142,16.580 M56.802,16.790 L56.802,17.610 M25.722,17.610 L25.722,16.790 M-0.738,15.400 L1.304,15.400 L4.248,15.400 L7.544,15.400 L9.106,15.400 L10.654,15.400 L12.884,15.400 L15.989,15.400 L18.684,15.400 L20.368,15.400 L21.806,15.400 L23.426,15.400 L25.547,15.400 L28.542,15.400 L32.641,15.400 L35.125,15.400 L37.004,15.400 L39.225,15.400 L41.451,15.400 L43.471,15.400 L45.812,15.400 L48.973,15.400 L51.743,15.400 L54.181,15.400 L58.061,15.400 L62.049,15.400 L64.893,15.400 L67.918,15.400 L70.954,15.400 L74.233,15.400 L78.746,15.400 L81.766,15.400 L83.262,15.400 M-0.738,19.000 L1.300,19.000 L4.133,19.000 L8.633,19.000 L11.699,19.000 L15.657,19.000 L18.493,19.000 L20.262,19.000 L21.910,19.000 L23.338,19.000 L24.711,19.000 L26.478,19.000 L29.157,19.000 L32.667,19.000 L35.932,19.000 L39.311,19.000 L43.117,19.000 L46.922,19.000 L49.813,19.000 L52.366,19.000 L54.964,19.000 L58.029,19.000 L62.027,19.000 L66.031,19.000 L70.082,19.000 L73.698,19.000 L77.334,19.000 L79.225,19.000 L80.757,19.000 L83.115,19.000 M-0.738,13.600 L1.124,13.600 L3.503,13.600 L6.332,13.600 L8.042,13.600 L9.440,13.600 L10.988,13.600 L12.873,13.600 L15.003,13.600 L17.337,13.600 L19.429,13.600 L20.863,13.600 L22.352,13.600 L24.508,13.600 L27.834,13.600 L31.971,13.600 L34.865,13.600 L36.824,13.600 L39.274,13.600 L41.733,13.600 L43.809,13.600 L46.712,13.600 L51.027,13.600 L54.017,13.600 L58.175,13.600 L61.345,13.600 L63.489,13.600 L65.837,13.600 L67.963,13.600 L70.039,13.600 L72.384,13.600 L75.204,13.600 L78.732,13.600 L81.629,13.600 L83.262,13.600 M-0.738,20.800 L1.000,20.800 L2.594,20.800 L5.074,20.800 L8.980,20.800 L12.754,20.800 L16.826,20.800 L19.129,20.800 L20.943,20.800 L22.523,20.800 L24.061,20.800 L26.083,20.800 L29.328,20.800 L33.131,20.800 L37.111,20.800 L41.031,20.800 L45.270,20.800 L48.814,20.800 L52.344,20.800 L55.908,20.800 L59.259,20.800 L63.072,20.800 L66.651,20.800 L70.443,20.800 L73.424,20.800 L76.192,20.800 L78.165,20.800 L79.546,20.800 L81.269,20.800 L83.262,20.800 M-0.738,11.800 L1.301,11.800 L3.648,11.800 L6.440,11.800 L8.849,11.800 L10.966,11.800 L13.004,11.800 L14.912,11.800 L17.053,11.800 L19.270,11.800 L21.225,11.800 L23.749,11.800 L27.765,11.800 L31.646,11.800 L34.664,11.800 L37.226,11.800 L40.773,11.800 L44.036,11.800 L47.936,11.800 L51.957,11.800 L54.691,11.800 L58.338,11.800 L60.317,11.800 L61.807,11.800 L63.624,11.800 L65.888,11.800 L67.963,11.800 L69.943,11.800 L72.035,11.800 L74.070,11.800 L76.101,11.800 L78.492,11.800 L80.809,11.800 L82.703,11.800 L83.262,11.800 M-0.738,22.600 L1.573,22.600 L3.126,22.600 L5.135,22.600 L8.154,22.600 L12.230,22.600 L16.502,22.600 L19.246,22.600 L21.552,22.600 L23.760,22.600 L26.702,22.600 L31.153,22.600 L34.798,22.600 L38.666,22.600 L42.302,22.600 L46.795,22.600 L50.301,22.600 L54.434,22.600 L57.870,22.600 L60.716,22.600 L63.505,22.600 L66.506,22.600 L70.344,22.600 L73.013,22.600 L75.160,22.600 L77.345,22.600 L79.029,22.600 L80.712,22.600 L83.197,22.600 M-0.738,10.000 L1.435,10.000 L3.713,10.000 L6.796,10.000 L10.256,10.000 L13.086,10.000 L15.822,10.000 L18.622,10.000 L21.292,10.000 L24.819,10.000 L29.324,10.000 L31.906,10.000 L34.535,10.000 L37.616,10.000 L41.631,10.000 L45.355,10.000 L49.413,10.000 L51.515,10.000 L53.356,10.000 L56.018,10.000 L58.692,10.000 L60.193,10.000 L61.573,10.000 L63.314,10.000 L65.750,10.000 L68.597,10.000 L71.346,10.000 L73.713,10.000 L75.816,10.000 L78.064,10.000 L80.359,10.000 L82.252,10.000 L83.262,10.000 M-0.738,24.400 L2.699,24.400 L4.794,24.400 L7.057,24.400 L10.140,24.400 L14.720,24.400 L18.256,24.400 L21.061,24.400 L23.591,24.400 L27.117,24.400 L31.615,24.400 L34.529,24.400 L37.351,24.400 L40.335,24.400 L44.618,24.400 L48.299,24.400 L51.440,24.400 L54.943,24.400 L58.123,24.400 L60.343,24.400 L62.269,24.400 L64.460,24.400 L67.666,24.400 L71.696,24.400 L73.650,24.400 L75.593,24.400 L77.762,24.400 L79.617,24.400 L81.446,24.400 L83.262,24.400 M-0.738,8.200 L1.445,8.200 L3.484,8.200 L6.532,8.200 L10.611,8.200 L14.238,8.200 L17.974,8.200 L21.364,8.200 L25.365,8.200 L28.840,8.200 L30.725,8.200 L32.739,8.200 L35.248,8.200 L38.343,8.200 L41.641,8.200 L44.864,8.200 L48.179,8.200 L50.120,8.200 L51.518,8.200 L53.350,8.200 L56.338,8.200 L59.448,8.200 L61.412,8.200 L63.251,8.200 L65.641,8.200 L69.095,8.200 L72.611,8.200 L75.736,8.200 L78.856,8.200 L81.519,8.200 L83.262,8.200 M-0.738,26.200 L3.323,26.200 L5.585,26.200 L7.324,26.200 L9.492,26.200 L12.986,26.200 L17.112,26.200 L20.490,26.200 L22.683,26.200 L25.455,26.200 L29.084,26.200 L32.385,26.200 L34.579,26.200 L36.524,26.200 L38.771,26.200 L42.136,26.200 L46.314,26.200 L48.389,26.200 L50.499,26.200 L52.916,26.200 L55.850,26.200 L59.291,26.200 L61.502,26.200 L63.709,26.200 L66.490,26.200 L70.437,26.200 L72.992,26.200 L74.976,26.200 L77.352,26.200 L79.767,26.200 L82.086,26.200 L83.262,26.200 M-0.738,6.400 L1.495,6.400 L3.503,6.400 L6.566,6.400 L10.676,6.400 L14.349,6.400 L18.381,6.400 L22.370,6.400 L26.332,6.400 L28.974,6.400 L31.251,6.400 L33.673,6.400 L36.343,6.400 L38.771,6.400 L40.979,6.400 L43.359,6.400 L45.901,6.400 L48.262,6.400 L50.153,6.400 L52.167,6.400 L55.247,6.400 L59.357,6.400 L62.035,6.400 L63.907,6.400 L66.481,6.400 L70.480,6.400 L74.194,6.400 L78.241,6.400 L81.695,6.400 L83.262,6.400 M-0.738,28.000 L3.159,28.000 L5.564,28.000 L6.961,28.000 L8.344,28.000 L10.226,28.000 L13.102,28.000 L17.041,28.000 L20.597,28.000 L22.452,28.000 L24.468,28.000 L26.873,28.000 L29.784,28.000 L33.234,28.000 L35.492,28.000 L37.894,28.000 L41.042,28.000 L44.613,28.000 L46.384,28.000 L47.775,28.000 L49.281,28.000 L50.977,28.000 L52.934,28.000 L55.737,28.000 L59.761,28.000 L62.965,28.000 L65.775,28.000 L68.807,28.000 L72.035,28.000 L74.287,28.000 L76.976,28.000 L80.297,28.000 L83.262,28.000 M-0.738,4.600 L1.666,4.600 L3.958,4.600 L7.201,4.600 L10.516,4.600 L13.092,4.600 L16.278,4.600 L19.923,4.600 L23.949,4.600 L27.327,4.600 L30.640,4.600 L33.986,4.600 L36.828,4.600 L38.760,4.600 L40.524,4.600 L42.383,4.600 L44.113,4.600 L45.796,4.600 L47.705,4.600 L50.050,4.600 L52.882,4.600 L56.419,4.600 L60.104,4.600 L62.536,4.600 L64.579,4.600 L67.577,4.600 L71.536,4.600 L74.858,4.600 L78.845,4.600 L82.554,4.600 L83.262,4.600 M-0.738,29.800 L2.972,29.800 L5.394,29.800 L7.024,29.800 L8.591,29.800 L10.333,29.800 L12.549,29.800 L15.746,29.800 L19.733,29.800 L21.840,29.800 L23.629,29.800 L25.422,29.800 L27.468,29.800 L30.505,29.800 L34.493,29.800 L37.849,29.800 L41.760,29.800 L44.580,29.800 L46.344,29.800 L48.116,29.800 L50.017,29.800 L51.850,29.800 L54.038,29.800 L57.521,29.800 L61.737,29.800 L65.227,29.800 L67.386,29.800 L69.947,29.800 L72.369,29.800 L74.418,29.800 L77.064,29.800 L80.866,29.800 L83.262,29.800 M-0.738,2.800 L1.556,2.800 L3.767,2.800 L6.601,2.800 L9.443,2.800 L11.364,2.800 L13.335,2.800 L15.774,2.800 L18.721,2.800 L21.804,2.800 L24.876,2.800 L28.172,2.800 L32.227,2.800 L35.842,2.800 L37.859,2.800 L39.424,2.800 L41.145,2.800 L42.834,2.800 L44.194,2.800 L45.592,2.800 L47.517,2.800 L50.451,2.800 L53.646,2.800 L56.336,2.800 L59.013,2.800 L61.781,2.800 L64.309,2.800 L67.280,2.800 L70.423,2.800 L72.407,2.800 L74.958,2.800 L78.453,2.800 L82.508,2.800 L83.262,2.800 M-0.738,31.600 L3.243,31.600 L5.381,31.600 L7.197,31.600 L8.897,31.600 L10.426,31.600 L12.133,31.600 L14.552,31.600 L18.083,31.600 L21.097,31.600 L23.490,31.600 L25.425,31.600 L27.404,31.600 L30.403,31.600 L34.559,31.600 L38.329,31.600 L42.248,31.600 L45.324,31.600 L48.537,31.600 L51.281,31.600 L53.547,31.600 L56.665,31.600 L60.600,31.600 L64.679,31.600 L66.649,31.600 L68.584,31.600 L70.834,31.600 L72.794,31.600 L74.664,31.600 L77.026,31.600 L80.385,31.600 L83.262,31.600 M-0.738,1.000 L1.240,1.000 L3.096,1.000 L5.296,1.000 L8.019,1.000 L10.621,1.000 L13.076,1.000 L15.711,1.000 L18.332,1.000 L20.507,1.000 L22.601,1.000 L24.969,1.000 L27.884,1.000 L31.757,1.000 L35.493,1.000 L37.652,1.000 L39.029,1.000 L40.458,1.000 L42.082,1.000 L43.776,1.000 L45.667,1.000 L48.549,1.000 L52.610,1.000 L54.873,1.000 L56.742,1.000 L58.820,1.000 L61.671,1.000 L65.224,1.000 L68.489,1.000 L70.135,1.000 L71.569,1.000 L73.544,1.000 L76.566,1.000 L80.609,1.000 L83.262,1.000 M-0.738,33.400 L3.356,33.400 L5.383,33.400 L7.071,33.400 L8.577,33.400 L9.915,33.400 L11.396,33.400 L13.543,33.400 L16.784,33.400 L20.267,33.400 L23.820,33.400 L26.371,33.400 L28.916,33.400 L32.578,33.400 L35.936,33.400 L39.056,33.400 L42.156,33.400 L45.964,33.400 L50.216,33.400 L52.736,33.400 L55.408,33.400 L58.252,33.400 L61.709,33.400 L65.245,33.400 L67.277,33.400 L69.557,33.400 L72.149,33.400 L74.601,33.400 L77.215,33.400 L79.744,33.400 L81.618,33.400 L83.262,33.400"/>
  <path fill="none" stroke="#31604f" stroke-width="0.4" stroke-linecap="round" stroke-linejoin="round" d="M-0.738,17.200 L4.262,17.200 L5.762,17.200 L10.762,17.200 L12.262,17.200 L17.262,17.200 L18.762,17.200 L23.762,17.200 L25.262,17.200 L30.262,17.200 L31.762,17.200 L36.762,17.200 L38.262,17.200 L43.262,17.200 L44.762,17.200 L49.762,17.200 L51.262,17.200 L56.262,17.200 L57.762,17.200 L62.762,17.200 L64.262,17.200 L69.262,17.200 L70.762,17.200 L75.762,17.200 L77.262,17.200 L82.262,17.200 L83.262,17.200"/>
</svg>
