<svg xmlns="http://www.w3.org/2000/svg" viewBox="0 -11 74 74" width="256" height="256">
  <title>knockdown-fleece</title>
  <rect x="0" y="-11" width="74" height="74" fill="#eee6dc"/>
  <path fill="none" stroke="#d8c8b8" stroke-width="0.4" stroke-linecap="round" stroke-linejoin="round" d="M1.000,2.503 L1.000,2.503 L2.301,1.751 L3.603,1.000 L3.083,1.300 L3.603,1.000 L3.083,1.300 L3.603,1.000 M1.000,7.121 L1.520,6.821 L1.000,7.121 L1.520,6.821 L1.000,7.121 L2.516,6.246 L4.031,5.371 L5.547,4.496 L7.062,3.621 L8.578,2.746 L10.093,1.871 L11.603,1.000 L11.083,1.300 L11.603,1.000 L11.083,1.300 L11.603,1.000 M19.603,1.000 L19.083,1.300 L19.603,1.000 L19.083,1.300 L19.603,1.000 L18.087,1.875 L16.571,2.750 L15.056,3.625 L13.540,4.500 L12.025,5.375 L10.509,6.250 L8.994,7.125 L7.478,8.000 L5.963,8.875 L4.447,9.750 L2.932,10.625 L1.416,11.500 L1.000,11.740 L1.416,11.500 L1.000,11.740 L1.416,11.500 L1.000,11.740 M1.000,16.359 L1.520,16.059 L1.000,16.359 L1.520,16.059 L1.000,16.359 L2.516,15.484 L4.031,14.609 L5.547,13.734 L7.062,12.859 L8.578,11.984 L10.093,11.109 L11.609,10.234 L13.124,9.359 L14.640,8.484 L16.155,7.609 L17.671,6.734 L19.187,5.859 L20.702,4.984 L22.218,4.109 L23.733,3.234 L25.249,2.359 L26.426,1.679 L27.603,1.000 L27.083,1.300 L27.603,1.000 L27.083,1.300 L27.603,1.000 M35.603,1.000 L35.083,1.300 L35.603,1.000 L35.083,1.300 L35.603,1.000 L34.087,1.875 L32.571,2.750 L31.056,3.625 L29.540,4.500 L28.025,5.375 L26.509,6.250 L24.994,7.125 L23.478,8.000 L21.963,8.875 L20.447,9.750 L18.932,10.625 L17.416,11.500 L15.900,12.375 L14.385,13.250 L12.869,14.125 L11.354,15.000 L9.838,15.875 L8.323,16.750 L6.807,17.625 L5.292,18.500 L3.776,19.375 L2.261,20.250 L1.000,20.978 L1.520,20.678 L1.000,20.978 L1.520,20.678 L1.000,20.978 M1.000,25.597 L1.520,25.297 L1.000,25.597 L1.520,25.297 L1.000,25.597 L2.516,24.722 L4.031,23.847 L5.547,22.972 L7.062,22.097 L8.578,21.222 L10.093,20.347 L11.609,19.472 L13.124,18.597 L14.640,17.722 L16.155,16.847 L17.671,15.972 L19.187,15.097 L20.702,14.222 L22.218,13.347 L23.733,12.472 L25.249,11.597 L26.764,10.722 L28.280,9.847 L29.795,8.972 L31.311,8.097 L32.826,7.222 L34.342,6.347 L35.858,5.472 L37.373,4.597 L38.889,3.722 L40.404,2.847 L41.920,1.972 L43.435,1.097 L42.916,1.397 L43.435,1.097 L42.916,1.397 L43.435,1.097 M51.603,1.000 L51.083,1.300 L51.603,1.000 L51.083,1.300 L51.603,1.000 L50.087,1.875 L48.571,2.750 L47.056,3.625 L45.540,4.500 L44.025,5.375 L42.509,6.250 L40.994,7.125 L39.478,8.000 L37.963,8.875 L36.447,9.750 L34.932,10.625 L33.416,11.500 L31.900,12.375 L30.385,13.250 L28.869,14.125 L27.354,15.000 L25.838,15.875 L24.323,16.750 L22.807,17.625 L21.292,18.500 L19.776,19.375 L18.261,20.250 L16.745,21.125 L15.229,22.000 L13.714,22.875 L12.198,23.750 L10.683,24.625 L9.167,25.500 L7.652,26.375 L6.136,27.250 L4.621,28.125 L3.105,29.000 L1.000,30.215 L1.520,29.915 L1.000,30.215 L1.520,29.915 L1.000,30.215 M1.000,34.834 L1.520,34.534 L1.000,34.834 L1.520,34.534 L1.000,34.834 L2.516,33.959 L4.031,33.084 L5.547,32.209 L7.062,31.334 L8.578,30.459 L10.093,29.584 L11.609,28.709 L13.124,27.834 L14.640,26.959 L16.155,26.084 L17.671,25.209 L19.187,24.334 L20.702,23.459 L22.218,22.584 L23.733,21.709 L25.249,20.834 L26.764,19.959 L28.280,19.084 L29.795,18.209 L31.311,17.334 L32.826,16.459 L34.342,15.584 L35.858,14.709 L37.373,13.834 L38.889,12.959 L40.404,12.084 L41.920,11.209 L43.435,10.334 L44.951,9.459 L46.466,8.584 L47.982,7.709 L49.497,6.834 L51.013,5.959 L52.529,5.084 L54.044,4.209 L55.560,3.334 L57.075,2.459 L58.591,1.584 L59.603,1.000 L59.083,1.300 L59.603,1.000 L59.083,1.300 L59.603,1.000 M67.603,1.000 L67.083,1.300 L67.603,1.000 L67.083,1.300 L67.603,1.000 L66.087,1.875 L64.571,2.750 L63.056,3.625 L61.540,4.500 L60.025,5.375 L58.509,6.250 L56.994,7.125 L55.478,8.000 L53.963,8.875 L52.447,9.750 L50.932,10.625 L49.416,11.500 L47.900,12.375 L46.385,13.250 L44.869,14.125 L43.354,15.000 L41.838,15.875 L40.323,16.750 L38.807,17.625 L37.292,18.500 L35.776,19.375 L34.261,20.250 L32.745,21.125 L31.229,22.000 L29.714,22.875 L28.198,23.750 L26.683,24.625 L25.167,25.500 L23.652,26.375 L22.136,27.250 L20.621,28.125 L19.105,29.000 L17.590,29.875 L16.074,30.750 L14.558,31.625 L13.043,32.500 L11.527,33.375 L10.012,34.250 L8.496,35.125 L6.981,36.000 L5.465,36.875 L3.950,37.750 L2.475,38.601 L1.000,39.453 L1.520,39.153 L1.000,39.453 L1.520,39.153 L1.000,39.453 M1.000,44.072 L1.520,43.772 L1.000,44.072 L1.520,43.772 L1.000,44.072 L2.516,43.197 L4.031,42.322 L5.547,41.447 L7.062,40.572 L8.578,39.697 L10.093,38.822 L11.609,37.947 L13.124,37.072 L14.640,36.197 L16.155,35.322 L17.671,34.447 L19.187,33.572 L20.702,32.697 L22.218,31.822 L23.733,30.947 L25.249,30.072 L26.764,29.197 L28.280,28.322 L29.795,27.447 L31.311,26.572 L32.826,25.697 L34.342,24.822 L35.858,23.947 L37.373,23.072 L38.889,22.197 L40.404,21.322 L41.920,20.447 L43.435,19.572 L44.951,18.697 L46.466,17.822 L47.982,16.947 L49.497,16.072 L51.013,15.197 L52.529,14.322 L54.044,13.447 L55.560,12.572 L57.075,11.697 L58.591,10.822 L60.106,9.947 L61.622,9.072 L63.137,8.197 L64.653,7.322 L66.168,6.447 L67.684,5.572 L69.200,4.697 L70.715,3.822 L71.858,3.162 L73.000,2.503 L72.480,2.803 L73.000,2.503 L72.480,2.803 L73.000,2.503 M73.000,7.121 L72.480,7.421 L73.000,7.121 L72.480,7.421 L73.000,7.121 L71.484,7.996 L69.969,8.871 L68.453,9.746 L66.938,10.621 L65.422,11.496 L63.907,12.371 L62.391,13.246 L60.876,14.121 L59.360,14.996 L57.845,15.871 L56.329,16.746 L54.813,17.621 L53.298,18.496 L51.782,19.371 L50.267,20.246 L48.751,21.121 L47.236,21.996 L45.720,22.871 L44.205,23.746 L42.689,24.621 L41.174,25.496 L39.658,26.371 L38.142,27.246 L36.627,28.121 L35.111,28.996 L33.596,29.871 L32.080,30.746 L30.565,31.621 L29.049,32.496 L27.534,33.371 L26.018,34.246 L24.503,35.121 L22.987,35.996 L21.471,36.871 L19.956,37.746 L18.440,38.621 L16.925,39.496 L15.409,40.371 L13.894,41.246 L12.378,42.121 L10.863,42.996 L9.347,43.871 L7.832,44.746 L6.316,45.621 L4.800,46.496 L3.285,47.371 L2.142,48.031 L1.000,48.691 L1.520,48.391 L1.000,48.691 L1.520,48.391 L1.000,48.691 M5.000,51.000 L5.520,50.700 L5.000,51.000 L5.520,50.700 L5.000,51.000 L6.516,50.125 L8.031,49.250 L9.547,48.375 L11.062,47.500 L12.578,46.625 L14.093,45.750 L15.609,44.875 L17.124,44.000 L18.640,43.125 L20.155,42.250 L21.671,41.375 L23.187,40.500 L24.702,39.625 L26.218,38.750 L27.733,37.875 L29.249,37.000 L30.764,36.125 L32.280,35.250 L33.795,34.375 L35.311,33.500 L36.826,32.625 L38.342,31.750 L39.858,30.875 L41.373,30.000 L42.889,29.125 L44.404,28.250 L45.920,27.375 L47.435,26.500 L48.951,25.625 L50.466,24.750 L51.982,23.875 L53.497,23.000 L55.013,22.125 L56.529,21.250 L58.044,20.375 L59.560,19.500 L61.075,18.625 L62.591,17.750 L64.106,16.875 L65.622,16.000 L67.137,15.125 L68.653,14.250 L70.168,13.375 L71.684,12.500 L73.000,11.740 L72.480,12.040 L73.000,11.740 L72.480,12.040 L73.000,11.740 M73.000,16.359 L72.480,16.659 L73.000,16.359 L72.480,16.659 L73.000,16.359 L71.484,17.234 L69.969,18.109 L68.453,18.984 L66.938,19.859 L65.422,20.734 L63.907,21.609 L62.391,22.484 L60.876,23.359 L59.360,24.234 L57.845,25.109 L56.329,25.984 L54.813,26.859 L53.298,27.734 L51.782,28.609 L50.267,29.484 L48.751,30.359 L47.236,31.234 L45.720,32.109 L44.205,32.984 L42.689,33.859 L41.174,34.734 L39.658,35.609 L38.142,36.484 L36.627,37.359 L35.111,38.234 L33.596,39.109 L32.080,39.984 L30.565,40.859 L29.049,41.734 L27.534,42.609 L26.018,43.484 L24.503,44.359 L22.987,45.234 L21.471,46.109 L19.956,46.984 L18.440,47.859 L16.925,48.734 L15.409,49.609 L14.205,50.304 L13.000,51.000 L13.520,50.700 L13.000,51.000 L13.520,50.700 L13.000,51.000 M21.000,51.000 L21.520,50.700 L21.000,51.000 L21.520,50.700 L21.000,51.000 L22.516,50.125 L24.031,49.250 L25.547,48.375 L27.062,47.500 L28.578,46.625 L30.093,45.750 L31.609,44.875 L33.124,44.000 L34.640,43.125 L36.155,42.250 L37.671,41.375 L39.187,40.500 L40.702,39.625 L42.218,38.750 L43.733,37.875 L45.249,37.000 L46.764,36.125 L48.280,35.250 L49.795,34.375 L51.311,33.500 L52.826,32.625 L54.342,31.750 L55.858,30.875 L57.373,30.000 L58.889,29.125 L60.404,28.250 L61.920,27.375 L63.435,26.500 L64.951,25.625 L66.466,24.750 L67.982,23.875 L69.497,23.000 L71.013,22.125 L72.529,21.250 L73.000,20.978 L72.529,21.250 L73.000,20.978 L72.529,21.250 L73.000,20.978 M73.000,25.597 L72.480,25.897 L73.000,25.597 L72.480,25.897 L73.000,25.597 L71.484,26.472 L69.969,27.347 L68.453,28.222 L66.938,29.097 L65.422,29.972 L63.907,30.847 L62.391,31.722 L60.876,32.597 L59.360,33.472 L57.845,34.347 L56.329,35.222 L54.813,36.097 L53.298,36.972 L51.782,37.847 L50.267,38.722 L48.751,39.597 L47.236,40.472 L45.720,41.347 L44.205,42.222 L42.689,43.097 L41.174,43.972 L39.658,44.847 L38.142,45.722 L36.627,46.597 L35.111,47.472 L33.596,48.347 L32.080,49.222 L30.565,50.097 L29.000,51.000 L29.520,50.700 L29.000,51.000 L29.520,50.700 L29.000,51.000 M37.000,51.000 L37.520,50.700 L37.000,51.000 L37.520,50.700 L37.000,51.000 L38.516,50.125 L40.031,49.250 L41.547,48.375 L43.062,47.500 L44.578,46.625 L46.093,45.750 L47.609,44.875 L49.124,44.000 L50.640,43.125 L52.155,42.250 L53.671,41.375 L55.187,40.500 L56.702,39.625 L58.218,38.750 L59.733,37.875 L61.249,37.000 L62.764,36.125 L64.280,35.250 L65.795,34.375 L67.311,33.500 L68.826,32.625 L70.342,31.750 L71.671,30.983 L73.000,30.215 L72.480,30.515 L73.000,30.215 L72.480,30.515 L73.000,30.215 M73.000,34.834 L72.480,35.134 L73.000,34.834 L72.480,35.134 L73.000,34.834 L71.484,35.709 L69.969,36.584 L68.453,37.459 L66.938,38.334 L65.422,39.209 L63.907,40.084 L62.391,40.959 L60.876,41.834 L59.360,42.709 L57.845,43.584 L56.329,44.459 L54.813,45.334 L53.298,46.209 L51.782,47.084 L50.267,47.959 L48.751,48.834 L47.236,49.709 L45.720,50.584 L45.000,51.000 L45.520,50.700 L45.000,51.000 L45.520,50.700 L45.000,51.000 M53.000,51.000 L53.520,50.700 L53.000,51.000 L53.520,50.700 L53.000,51.000 L54.516,50.125 L56.031,49.250 L57.547,48.375 L59.062,47.500 L60.578,46.625 L62.093,45.750 L63.609,44.875 L65.124,44.000 L66.640,43.125 L68.155,42.250 L69.671,41.375 L71.187,40.500 L73.000,39.453 L72.480,39.753 L73.000,39.453 L72.480,39.753 L73.000,39.453 M73.000,44.072 L72.480,44.372 L73.000,44.072 L72.480,44.372 L73.000,44.072 L71.484,44.947 L69.969,45.822 L68.453,46.697 L66.938,47.572 L65.422,48.447 L63.907,49.322 L62.453,50.161 L61.000,51.000 L61.520,50.700 L61.000,51.000 L61.520,50.700 L61.000,51.000 M69.000,51.000 L69.520,50.700 L69.000,51.000 L69.520,50.700 L69.000,51.000 L70.516,50.125 L72.031,49.250 L73.000,48.691 L72.480,48.991 L73.000,48.691 L72.480,48.991 L73.000,48.691"/>
  <path fill="none" stroke="#2f7d8c" stroke-width="0.4" stroke-linecap="round" stroke-linejoin="round" d="M60.842,28.936 L60.842,28.336 L60.842,28.936 L60.842,28.336 L60.842,28.936 L60.842,26.436 L60.842,23.936 L60.842,23.064 M59.742,20.889 L59.742,23.389 L59.742,25.889 L59.742,28.389 L59.742,30.889 L59.742,31.111 M58.642,32.471 L58.642,29.971 L58.642,27.471 L58.642,24.971 L58.642,22.471 L58.642,19.971 L58.642,19.529 M57.542,18.294 L57.542,20.794 L57.542,23.294 L57.542,25.794 L57.542,27.044 L57.542,28.294 L57.542,30.794 L57.542,33.294 L57.542,33.706 M56.442,34.574 L56.442,32.074 L56.442,29.574 L56.442,27.074 L56.442,24.574 L56.442,22.074 L56.442,20.824 L56.442,19.574 L56.442,17.426 M55.342,16.622 L55.342,19.122 L55.342,21.622 L55.342,24.122 L55.342,26.622 L55.342,29.122 L55.342,30.372 L55.342,31.622 L55.342,34.122 L55.342,35.378 M54.242,36.152 L54.242,33.652 L54.242,31.152 L54.242,29.902 L54.242,28.652 L54.242,26.152 L54.242,23.652 L54.242,21.152 L54.242,18.652 L54.242,16.152 L54.242,15.848 M53.142,15.306 L53.142,17.806 L53.142,20.306 L53.142,21.556 L53.142,22.806 L53.142,25.306 L53.142,27.806 L53.142,30.306 L53.142,32.806 L53.142,35.306 L53.142,36.694 M52.042,37.235 L52.042,34.735 L52.042,32.235 L52.042,30.985 L52.042,29.735 L52.042,27.235 L52.042,25.985 L52.042,24.735 L52.042,22.235 L52.042,19.735 L52.042,17.235 L52.042,14.765 M50.942,14.223 L50.942,16.723 L50.942,19.223 L50.942,21.723 L50.942,24.223 L50.942,25.473 L50.942,26.723 L50.942,29.223 L50.942,31.723 L50.942,34.223 L50.942,36.723 L50.942,37.777 M49.842,38.177 L49.842,35.677 L49.842,33.177 L49.842,30.677 L49.842,28.177 L49.842,25.677 L49.842,23.177 L49.842,20.677 L49.842,18.177 L49.842,15.677 L49.842,13.823 M48.742,13.470 L48.742,15.970 L48.742,18.470 L48.742,20.970 L48.742,23.470 L48.742,25.970 L48.742,28.470 L48.742,29.720 L48.742,30.970 L48.742,33.470 L48.742,35.970 L48.742,38.470 M47.642,38.883 L47.642,36.383 L47.642,33.883 L47.642,31.383 L47.642,30.133 L47.642,28.883 L47.642,27.633 L47.642,26.383 L47.642,23.883 L47.642,21.383 L47.642,20.133 L47.642,18.883 L47.642,16.383 L47.642,13.883 L47.642,13.117 M46.542,12.764 L46.542,15.264 L46.542,17.764 L46.542,20.264 L46.542,21.514 L46.542,22.764 L46.542,25.264 L46.542,27.764 L46.542,30.264 L46.542,32.764 L46.542,35.264 L46.542,37.764 L46.542,39.236 M45.442,39.453 L45.442,36.953 L45.442,34.453 L45.442,31.953 L45.442,29.453 L45.442,26.953 L45.442,25.703 L45.442,24.453 L45.442,21.953 L45.442,19.453 L45.442,16.953 L45.442,14.453 L45.442,12.547 M44.342,12.347 L44.342,14.847 L44.342,17.347 L44.342,19.847 L44.342,21.097 L44.342,22.347 L44.342,24.847 L44.342,27.347 L44.342,29.847 L44.342,32.347 L44.342,34.847 L44.342,37.347 L44.342,39.653 M43.242,39.853 L43.242,37.353 L43.242,34.853 L43.242,32.353 L43.242,31.103 L43.242,29.853 L43.242,27.353 L43.242,24.853 L43.242,22.353 L43.242,19.853 L43.242,17.353 L43.242,14.853 L43.242,12.353 L43.242,12.147 M42.142,11.947 L42.142,14.447 L42.142,16.947 L42.142,19.447 L42.142,21.947 L42.142,24.447 L42.142,26.947 L42.142,29.447 L42.142,31.947 L42.142,34.447 L42.142,36.947 L42.142,39.447 L42.142,40.053 M41.042,40.159 L41.042,37.659 L41.042,35.159 L41.042,32.659 L41.042,30.159 L41.042,27.659 L41.042,25.159 L41.042,22.659 L41.042,20.159 L41.042,18.909 L41.042,17.659 L41.042,15.159 L41.042,12.659 L41.042,11.841 M39.942,11.776 L39.942,14.276 L39.942,16.776 L39.942,19.276 L39.942,21.776 L39.942,24.276 L39.942,26.776 L39.942,29.276 L39.942,31.776 L39.942,34.276 L39.942,36.776 L39.942,39.276 L39.942,40.224 M38.842,40.289 L38.842,37.789 L38.842,35.289 L38.842,32.789 L38.842,30.289 L38.842,27.789 L38.842,25.289 L38.842,22.789 L38.842,21.539 L38.842,20.289 L38.842,17.789 L38.842,15.289 L38.842,12.789 L38.842,11.711 M37.742,11.646 L37.742,14.146 L37.742,16.646 L37.742,19.146 L37.742,21.646 L37.742,24.146 L37.742,26.646 L37.742,29.146 L37.742,31.646 L37.742,34.146 L37.742,36.646 L37.742,39.146 L37.742,40.354 M36.642,40.377 L36.642,37.877 L36.642,35.377 L36.642,32.877 L36.642,30.377 L36.642,27.877 L36.642,25.377 L36.642,24.127 L36.642,22.877 L36.642,20.377 L36.642,17.877 L36.642,15.377 L36.642,12.877 L36.642,11.623 M35.542,11.688 L35.542,14.188 L35.542,16.688 L35.542,19.188 L35.542,21.688 L35.542,22.938 L35.542,24.188 L35.542,26.688 L35.542,29.188 L35.542,31.688 L35.542,34.188 L35.542,36.688 L35.542,39.188 L35.542,40.312 M34.442,40.247 L34.442,37.747 L34.442,35.247 L34.442,32.747 L34.442,30.247 L34.442,27.747 L34.442,25.247 L34.442,22.747 L34.442,20.247 L34.442,17.747 L34.442,15.247 L34.442,12.747 L34.442,11.753 M33.342,11.818 L33.342,14.318 L33.342,16.818 L33.342,19.318 L33.342,21.818 L33.342,24.318 L33.342,26.818 L33.342,29.318 L33.342,30.568 L33.342,31.818 L33.342,34.318 L33.342,36.818 L33.342,39.318 L33.342,40.182 M32.242,40.117 L32.242,37.617 L32.242,35.117 L32.242,32.617 L32.242,30.117 L32.242,27.617 L32.242,25.117 L32.242,22.617 L32.242,20.117 L32.242,17.617 L32.242,15.117 L32.242,12.617 L32.242,11.883 M31.142,12.077 L31.142,14.577 L31.142,17.077 L31.142,19.577 L31.142,22.077 L31.142,24.577 L31.142,25.827 L31.142,27.077 L31.142,29.577 L31.142,32.077 L31.142,34.577 L31.142,37.077 L31.142,39.577 L31.142,39.923 M30.042,39.723 L30.042,37.223 L30.042,34.723 L30.042,32.223 L30.042,29.723 L30.042,27.223 L30.042,24.723 L30.042,23.473 L30.042,22.223 L30.042,19.723 L30.042,17.223 L30.042,14.723 L30.042,12.277 M28.942,12.477 L28.942,14.977 L28.942,17.477 L28.942,19.977 L28.942,22.477 L28.942,24.977 L28.942,27.477 L28.942,29.977 L28.942,31.227 L28.942,32.477 L28.942,34.977 L28.942,37.477 L28.942,39.523 M27.842,39.323 L27.842,36.823 L27.842,34.323 L27.842,31.823 L27.842,29.323 L27.842,26.823 L27.842,25.573 L27.842,24.323 L27.842,21.823 L27.842,19.323 L27.842,16.823 L27.842,14.323 L27.842,12.677 M26.742,12.994 L26.742,15.494 L26.742,17.994 L26.742,20.494 L26.742,22.994 L26.742,25.494 L26.742,27.994 L26.742,30.494 L26.742,32.994 L26.742,35.494 L26.742,37.994 L26.742,39.006 M25.642,38.654 L25.642,36.154 L25.642,33.654 L25.642,31.154 L25.642,28.654 L25.642,26.154 L25.642,23.654 L25.642,21.154 L25.642,18.654 L25.642,16.154 L25.642,13.654 L25.642,13.346 M24.542,13.699 L24.542,16.199 L24.542,18.699 L24.542,21.199 L24.542,23.699 L24.542,24.949 L24.542,26.199 L24.542,28.699 L24.542,31.199 L24.542,33.699 L24.542,36.199 L24.542,38.301 M23.442,37.948 L23.442,35.448 L23.442,32.948 L23.442,30.448 L23.442,29.198 L23.442,27.948 L23.442,26.698 L23.442,25.448 L23.442,22.948 L23.442,20.448 L23.442,17.948 L23.442,15.448 L23.442,14.052 M22.342,14.576 L22.342,17.076 L22.342,19.576 L22.342,22.076 L22.342,24.576 L22.342,27.076 L22.342,29.576 L22.342,32.076 L22.342,34.576 L22.342,37.076 L22.342,37.424 M21.242,36.883 L21.242,34.383 L21.242,31.883 L21.242,29.383 L21.242,28.133 L21.242,26.883 L21.242,24.383 L21.242,23.133 L21.242,21.883 L21.242,20.633 L21.242,19.383 L21.242,16.883 L21.242,15.117 M20.142,15.659 L20.142,18.159 L20.142,20.659 L20.142,23.159 L20.142,25.659 L20.142,28.159 L20.142,29.409 L20.142,30.659 L20.142,33.159 L20.142,35.659 L20.142,36.341 M19.042,35.658 L19.042,33.158 L19.042,30.658 L19.042,28.158 L19.042,25.658 L19.042,23.158 L19.042,20.658 L19.042,18.158 L19.042,16.342 M17.942,17.146 L17.942,19.646 L17.942,22.146 L17.942,24.646 L17.942,27.146 L17.942,28.396 L17.942,29.646 L17.942,32.146 L17.942,34.646 L17.942,34.854 M16.842,34.050 L16.842,31.550 L16.842,30.300 L16.842,29.050 L16.842,26.550 L16.842,24.050 L16.842,21.550 L16.842,19.050 L16.842,17.950 M15.742,19.098 L15.742,21.598 L15.742,24.098 L15.742,26.598 L15.742,29.098 L15.742,31.598 L15.742,32.902 M14.642,31.666 L14.642,29.166 L14.642,26.666 L14.642,25.416 L14.642,24.166 L14.642,21.666 L14.642,20.334 M13.542,22.305 L13.542,24.805 L13.542,27.305 L13.542,29.695 L13.542,29.095 L13.542,29.695 L13.542,29.095 L13.542,29.695"/>
  <path fill="none" stroke="#f4d35e" stroke-width="0.4" stroke-linecap="round" stroke-linejoin="round" d="M37.000,11.000 L37.224,11.557 L37.000,11.000 L37.224,11.557 L37.000,11.000 L37.474,12.180 L38.152,9.916 L38.558,12.244 L39.236,9.980 L39.642,12.308 L40.319,10.044 L40.726,12.372 L41.403,10.108 L41.809,12.436 L42.669,10.264 L42.844,12.633 L43.842,10.477 L44.016,12.846 L45.014,10.690 L45.189,13.060 L46.187,10.904 L46.361,13.273 L47.459,11.220 L47.296,13.583 L48.539,11.567 L48.377,13.930 L49.620,11.913 L49.458,14.276 L50.700,12.260 L50.538,14.623 L51.871,12.729 L51.328,15.026 L52.818,13.196 L52.275,15.492 L53.765,13.662 L53.223,15.959 L54.712,14.129 L54.170,16.425 L55.801,14.790 L54.887,16.971 L56.689,15.439 L55.776,17.621 L57.577,16.089 L56.664,18.270 L58.465,16.738 L57.313,18.864 L59.416,17.766 L58.083,19.728 L60.186,18.630 L58.853,20.592 L60.956,19.495 L59.308,21.248 L61.597,20.679 L59.782,22.186 L62.072,21.617 L60.256,23.124 L62.546,22.555 L60.481,23.845 L62.847,24.058 L60.673,25.016 L63.039,25.228 L60.865,26.186 L63.039,26.772 L60.673,26.984 L62.847,27.942 L60.481,28.155 L62.654,29.113 L60.256,28.876 L62.072,30.383 L59.782,29.814 L61.597,31.321 L59.308,30.752 L61.123,32.259 L58.853,31.408 L60.186,33.370 L58.083,32.272 L59.416,34.234 L57.313,33.136 L58.645,35.099 L56.664,33.730 L57.577,35.911 L55.776,34.379 L56.689,36.561 L54.887,35.029 L55.801,37.210 L53.999,35.678 L54.712,37.871 L53.223,36.041 L53.765,38.338 L52.275,36.508 L52.818,38.804 L51.328,36.974 L51.871,39.271 L50.381,37.440 L50.700,39.740 L49.458,37.724 L49.620,40.087 L48.377,38.070 L48.539,40.433 L47.296,38.417 L47.459,40.780 L46.216,38.763 L46.187,41.096 L45.189,38.940 L45.014,41.310 L44.016,39.154 L43.842,41.523 L42.844,39.367 L42.669,41.736 L41.671,39.580 L41.403,41.892 L40.726,39.628 L40.319,41.956 L39.642,39.692 L39.236,42.020 L38.558,39.756 L38.152,42.084 L37.474,39.820 L37.068,42.148 L36.526,39.820 L35.848,42.084 L35.442,39.756 L34.764,42.020 L34.358,39.692 L33.681,41.956 L33.274,39.628 L32.597,41.892 L32.191,39.564 L31.331,41.736 L31.156,39.367 L30.158,41.523 L29.984,39.154 L28.986,41.310 L28.811,38.940 L27.813,41.096 L27.639,38.727 L26.541,40.780 L26.704,38.417 L25.461,40.433 L25.623,38.070 L24.380,40.087 L24.542,37.724 L23.300,39.740 L23.462,37.377 L22.129,39.271 L22.672,36.974 L21.182,38.804 L21.725,36.508 L20.235,38.338 L20.777,36.041 L19.288,37.871 L19.830,35.575 L18.199,37.210 L19.113,35.029 L17.311,36.561 L18.224,34.379 L16.423,35.911 L17.336,33.730 L15.535,35.262 L16.687,33.136 L14.584,34.234 L15.917,32.272 L13.814,33.370 L15.147,31.408 L13.044,32.505 L14.692,30.752 L12.403,31.321 L14.218,29.814 L11.928,30.383 L13.744,28.876 L11.454,29.445 L13.519,28.155 L11.153,27.942 L13.327,26.984 L10.961,26.772 L13.135,25.814 L10.961,25.228 L13.327,25.016 L11.153,24.058 L13.519,23.845 L11.346,22.887 L13.744,23.124 L11.928,21.617 L14.218,22.186 L12.403,20.679 L14.692,21.248 L12.877,19.741 L15.147,20.592 L13.814,18.630 L15.917,19.728 L14.584,17.766 L16.687,18.864 L15.355,16.901 L17.336,18.270 L16.423,16.089 L18.224,17.621 L17.311,15.439 L19.113,16.971 L18.199,14.790 L20.001,16.322 L19.288,14.129 L20.777,15.959 L20.235,13.662 L21.725,15.492 L21.182,13.196 L22.672,15.026 L22.129,12.729 L23.619,14.560 L23.300,12.260 L24.542,14.276 L24.380,11.913 L25.623,13.930 L25.461,11.567 L26.704,13.583 L26.541,11.220 L27.784,13.237 L27.813,10.904 L28.811,13.060 L28.986,10.690 L29.984,12.846 L30.158,10.477 L31.156,12.633 L31.331,10.264 L32.329,12.420 L32.597,10.108 L33.274,12.372 L33.681,10.044 L34.358,12.308 L34.764,9.980 L35.442,12.244 L35.848,9.916 L36.526,12.180 L36.932,9.852 L36.829,10.443 L36.932,9.852 L36.829,10.443 L36.932,9.852"/>
</svg>
