<svg xmlns="http://www.w3.org/2000/svg" viewBox="0 -1.589 89.984 89.984" width="256" height="256">
  <title>lfowaves</title>
  <rect x="0" y="-1.589" width="89.984" height="89.984" fill="#f5efe4"/>
  <path fill="none" stroke="#31604f" stroke-width="0.4" stroke-linecap="round" stroke-linejoin="round" d="M28.961,85.806 L28.961,85.806 L31.429,85.806 L33.896,85.806 L36.364,85.806 L38.831,85.806 L41.299,85.806 L43.766,85.806 L46.234,85.806 L48.701,85.806 L51.168,85.806 L53.636,85.806 L56.103,85.806 L58.571,85.806 L61.038,85.806 L60.338,85.806 L61.038,85.806 L60.338,85.806 L61.038,85.806 M66.872,83.012 L66.172,83.012 L66.872,83.012 L66.172,83.012 L66.872,83.012 L64.441,83.012 L62.011,83.012 L59.581,83.012 L57.151,83.012 L54.721,83.012 L52.290,83.012 L49.860,83.012 L47.430,83.012 L45.000,83.012 L42.570,83.012 L40.139,83.012 L37.709,83.012 L35.279,83.012 L32.849,83.012 L30.419,83.012 L27.988,83.012 L25.558,83.012 L23.128,83.012 L23.828,83.012 L23.128,83.012 L23.828,83.012 L23.128,83.012 M19.544,80.722 L20.244,80.722 L19.544,80.722 L20.244,80.722 L19.544,80.722 L21.968,80.722 L24.392,80.722 L26.817,80.722 L29.241,80.722 L31.666,80.722 L34.090,80.722 L36.514,80.722 L38.939,80.722 L41.363,80.722 L43.788,80.722 L46.212,80.722 L48.636,80.722 L51.061,80.722 L53.485,80.722 L55.910,80.722 L58.334,80.722 L60.758,80.722 L63.183,80.722 L65.607,80.722 L68.032,80.722 L70.456,80.722 M72.798,78.940 L70.380,78.940 L67.963,78.940 L65.546,78.940 L63.129,78.940 L60.712,78.940 L58.294,78.940 L55.877,78.940 L53.460,78.940 L51.043,78.940 L48.626,78.940 L46.208,78.940 L43.791,78.940 L41.374,78.940 L38.957,78.940 L36.540,78.940 L34.122,78.940 L31.705,78.940 L29.288,78.940 L26.871,78.940 L24.454,78.940 L22.036,78.940 L19.619,78.940 L17.202,78.940 M15.465,77.448 L17.927,77.448 L20.388,77.448 L22.849,77.448 L25.310,77.448 L27.771,77.448 L30.233,77.448 L32.694,77.448 L35.155,77.448 L37.616,77.448 L40.077,77.448 L42.539,77.448 L45.000,77.448 L47.461,77.448 L49.922,77.448 L52.383,77.448 L54.845,77.448 L57.306,77.448 L59.767,77.448 L62.228,77.448 L64.689,77.448 L67.151,77.448 L69.612,77.448 L72.073,77.448 L74.534,77.448 M76.122,75.937 L73.632,75.937 L71.142,75.937 L68.652,75.937 L66.163,75.937 L63.673,75.937 L61.183,75.937 L58.693,75.937 L56.204,75.937 L53.714,75.937 L51.224,75.937 L48.734,75.937 L46.245,75.937 L43.755,75.937 L41.265,75.937 L38.775,75.937 L36.286,75.937 L33.796,75.937 L31.306,75.937 L28.816,75.937 L26.327,75.937 L23.837,75.937 L21.347,75.937 L18.857,75.937 L16.368,75.937 L13.878,75.937 M12.212,74.175 L14.641,74.175 L17.069,74.175 L19.498,74.175 L21.927,74.175 L24.355,74.175 L26.784,74.175 L29.213,74.175 L31.642,74.175 L34.070,74.175 L36.499,74.175 L38.928,74.175 L41.357,74.175 L43.785,74.175 L46.214,74.175 L48.643,74.175 L51.072,74.175 L53.500,74.175 L55.929,74.175 L58.358,74.175 L60.787,74.175 L63.215,74.175 L65.644,74.175 L68.073,74.175 L70.502,74.175 L72.930,74.175 L75.359,74.175 L77.788,74.175 M79.507,72.133 L77.042,72.133 L74.577,72.133 L72.112,72.133 L69.648,72.133 L67.183,72.133 L64.718,72.133 L62.253,72.133 L59.789,72.133 L57.324,72.133 L54.859,72.133 L52.394,72.133 L49.929,72.133 L47.465,72.133 L45.000,72.133 L42.535,72.133 L40.070,72.133 L37.605,72.133 L35.141,72.133 L32.676,72.133 L30.211,72.133 L27.746,72.133 L25.282,72.133 L22.817,72.133 L20.352,72.133 L17.887,72.133 L15.422,72.133 L12.958,72.133 L10.493,72.133 M8.914,70.008 L11.402,70.008 L13.891,70.008 L16.380,70.008 L18.868,70.008 L21.357,70.008 L23.846,70.008 L26.335,70.008 L28.823,70.008 L31.312,70.008 L33.801,70.008 L36.289,70.008 L38.778,70.008 L41.267,70.008 L43.755,70.008 L46.244,70.008 L48.733,70.008 L51.222,70.008 L53.710,70.008 L56.199,70.008 L58.688,70.008 L61.176,70.008 L63.665,70.008 L66.154,70.008 L68.642,70.008 L71.131,70.008 L73.620,70.008 L76.109,70.008 L78.597,70.008 L81.086,70.008 M82.316,68.146 L79.829,68.146 L77.341,68.146 L74.853,68.146 L72.365,68.146 L69.877,68.146 L67.390,68.146 L64.902,68.146 L62.414,68.146 L59.926,68.146 L57.439,68.146 L54.951,68.146 L52.463,68.146 L49.975,68.146 L47.488,68.146 L45.000,68.146 L42.512,68.146 L40.024,68.146 L37.536,68.146 L35.049,68.146 L32.561,68.146 L30.073,68.146 L27.585,68.146 L25.098,68.146 L22.610,68.146 L20.122,68.146 L17.634,68.146 L15.147,68.146 L12.659,68.146 L10.171,68.146 L7.683,68.146 M6.919,66.875 L9.376,66.875 L11.833,66.875 L14.289,66.875 L16.746,66.875 L19.203,66.875 L21.660,66.875 L24.117,66.875 L26.574,66.875 L29.030,66.875 L31.487,66.875 L33.944,66.875 L36.401,66.875 L38.858,66.875 L41.315,66.875 L43.771,66.875 L46.228,66.875 L48.685,66.875 L51.142,66.875 L53.599,66.875 L56.056,66.875 L58.512,66.875 L60.969,66.875 L63.426,66.875 L65.883,66.875 L68.340,66.875 L70.797,66.875 L73.253,66.875 L75.710,66.875 L78.167,66.875 L80.624,66.875 L83.081,66.875 M83.422,66.275 L80.943,66.275 L78.464,66.275 L75.985,66.275 L73.506,66.275 L71.028,66.275 L68.549,66.275 L66.070,66.275 L63.591,66.275 L61.112,66.275 L58.633,66.275 L56.155,66.275 L53.676,66.275 L51.197,66.275 L48.718,66.275 L46.239,66.275 L43.760,66.275 L41.282,66.275 L38.803,66.275 L36.324,66.275 L33.845,66.275 L31.366,66.275 L28.887,66.275 L26.409,66.275 L23.930,66.275 L21.451,66.275 L18.972,66.275 L16.493,66.275 L14.014,66.275 L11.535,66.275 L9.057,66.275 L6.578,66.275 M6.249,65.675 L8.671,65.675 L11.093,65.675 L13.515,65.675 L15.937,65.675 L18.359,65.675 L20.781,65.675 L23.203,65.675 L25.624,65.675 L28.046,65.675 L30.468,65.675 L32.890,65.675 L35.312,65.675 L37.734,65.675 L40.156,65.675 L42.578,65.675 L45.000,65.675 L47.422,65.675 L49.844,65.675 L52.266,65.675 L54.687,65.675 L57.109,65.675 L59.531,65.675 L61.953,65.675 L64.375,65.675 L66.797,65.675 L69.219,65.675 L71.641,65.675 L74.063,65.675 L76.485,65.675 L78.907,65.675 L81.329,65.675 L83.751,65.675 M84.067,65.075 L81.626,65.075 L79.184,65.075 L76.742,65.075 L74.300,65.075 L71.859,65.075 L69.417,65.075 L66.975,65.075 L64.534,65.075 L62.092,65.075 L59.650,65.075 L57.208,65.075 L54.767,65.075 L52.325,65.075 L49.883,65.075 L47.442,65.075 L45.000,65.075 L42.558,65.075 L40.116,65.075 L37.675,65.075 L35.233,65.075 L32.791,65.075 L30.349,65.075 L27.908,65.075 L25.466,65.075 L23.024,65.075 L20.583,65.075 L18.141,65.075 L15.699,65.075 L13.257,65.075 L10.816,65.075 L8.374,65.075 L5.932,65.075 M5.627,64.475 L8.088,64.475 L10.549,64.475 L13.010,64.475 L15.470,64.475 L17.931,64.475 L20.392,64.475 L22.853,64.475 L25.314,64.475 L27.774,64.475 L30.235,64.475 L32.696,64.475 L35.157,64.475 L37.617,64.475 L40.078,64.475 L42.539,64.475 L45.000,64.475 L47.461,64.475 L49.921,64.475 L52.382,64.475 L54.843,64.475 L57.304,64.475 L59.765,64.475 L62.225,64.475 L64.686,64.475 L67.147,64.475 L69.608,64.475 L72.068,64.475 L74.529,64.475 L76.990,64.475 L79.451,64.475 L81.912,64.475 L84.372,64.475 M84.869,63.447 L82.377,63.447 L79.885,63.447 L77.393,63.447 L74.902,63.447 L72.410,63.447 L69.918,63.447 L67.426,63.447 L64.934,63.447 L62.442,63.447 L59.951,63.447 L57.459,63.447 L54.967,63.447 L52.475,63.447 L49.983,63.447 L47.492,63.447 L45.000,63.447 L42.508,63.447 L40.016,63.447 L37.524,63.447 L35.033,63.447 L32.541,63.447 L30.049,63.447 L27.557,63.447 L25.065,63.447 L22.574,63.447 L20.082,63.447 L17.590,63.447 L15.098,63.447 L12.606,63.447 L10.114,63.447 L7.623,63.447 L5.131,63.447 M4.177,61.250 L6.651,61.250 L9.125,61.250 L11.599,61.250 L14.073,61.250 L16.548,61.250 L19.022,61.250 L21.496,61.250 L23.970,61.250 L26.444,61.250 L28.918,61.250 L31.392,61.250 L33.866,61.250 L36.340,61.250 L38.815,61.250 L41.289,61.250 L43.763,61.250 L46.237,61.250 L48.711,61.250 L51.185,61.250 L53.659,61.250 L56.133,61.250 L58.607,61.250 L61.082,61.250 L63.556,61.250 L66.030,61.250 L68.504,61.250 L70.978,61.250 L73.452,61.250 L75.926,61.250 L78.400,61.250 L80.874,61.250 L83.348,61.250 L85.823,61.250 M86.992,57.973 L84.522,57.973 L82.052,57.973 L79.581,57.973 L77.111,57.973 L74.641,57.973 L72.171,57.973 L69.701,57.973 L67.231,57.973 L64.761,57.973 L62.291,57.973 L59.821,57.973 L57.350,57.973 L54.880,57.973 L52.410,57.973 L49.940,57.973 L47.470,57.973 L45.000,57.973 L42.530,57.973 L40.060,57.973 L37.589,57.973 L35.119,57.973 L32.649,57.973 L30.179,57.973 L27.709,57.973 L25.239,57.973 L22.769,57.973 L20.299,57.973 L17.828,57.973 L15.358,57.973 L12.888,57.973 L10.418,57.973 L7.948,57.973 L5.478,57.973 L3.008,57.973 L3.708,57.973 L3.008,57.973 L3.708,57.973 L3.008,57.973 M1.977,54.057 L2.677,54.057 L1.977,54.057 L2.677,54.057 L1.977,54.057 L4.436,54.057 L6.894,54.057 L9.353,54.057 L11.811,54.057 L14.270,54.057 L16.728,54.057 L19.186,54.057 L21.645,54.057 L24.103,54.057 L26.562,54.057 L29.020,54.057 L31.478,54.057 L33.937,54.057 L36.395,54.057 L38.854,54.057 L41.312,54.057 L43.771,54.057 L46.229,54.057 L48.687,54.057 L51.146,54.057 L53.604,54.057 L56.063,54.057 L58.521,54.057 L60.980,54.057 L63.438,54.057 L65.896,54.057 L68.355,54.057 L70.813,54.057 L73.272,54.057 L75.730,54.057 L78.189,54.057 L80.647,54.057 L83.105,54.057 L85.564,54.057 L88.022,54.057 M88.678,50.147 L86.182,50.147 L83.686,50.147 L81.190,50.147 L78.694,50.147 L76.198,50.147 L73.702,50.147 L71.207,50.147 L68.711,50.147 L66.215,50.147 L63.719,50.147 L61.223,50.147 L58.727,50.147 L56.231,50.147 L53.735,50.147 L51.240,50.147 L48.744,50.147 L46.248,50.147 L43.752,50.147 L41.256,50.147 L38.760,50.147 L36.264,50.147 L33.768,50.147 L31.272,50.147 L28.777,50.147 L26.281,50.147 L23.785,50.147 L21.289,50.147 L18.793,50.147 L16.297,50.147 L13.801,50.147 L11.305,50.147 L8.810,50.147 L6.314,50.147 L3.818,50.147 L1.322,50.147 M1.048,46.887 L3.490,46.887 L5.931,46.887 L8.373,46.887 L10.815,46.887 L13.257,46.887 L15.698,46.887 L18.140,46.887 L20.582,46.887 L23.024,46.887 L25.466,46.887 L27.907,46.887 L30.349,46.887 L32.791,46.887 L35.233,46.887 L37.674,46.887 L40.116,46.887 L42.558,46.887 L45.000,46.887 L47.442,46.887 L49.883,46.887 L52.325,46.887 L54.767,46.887 L57.209,46.887 L59.650,46.887 L62.092,46.887 L64.534,46.887 L66.976,46.887 L69.418,46.887 L71.859,46.887 L74.301,46.887 L76.743,46.887 L79.185,46.887 L81.626,46.887 L84.068,46.887 L86.510,46.887 L88.952,46.887 M89.000,44.700 L86.555,44.700 L84.111,44.700 L81.666,44.700 L79.222,44.700 L76.777,44.700 L74.333,44.700 L71.889,44.700 L69.444,44.700 L67.000,44.700 L64.555,44.700 L62.111,44.700 L59.666,44.700 L57.222,44.700 L54.778,44.700 L52.333,44.700 L49.889,44.700 L47.444,44.700 L45.000,44.700 L42.555,44.700 L40.111,44.700 L37.666,44.700 L35.222,44.700 L32.778,44.700 L30.333,44.700 L27.889,44.700 L25.444,44.700 L23.000,44.700 L20.555,44.700 L18.111,44.700 L15.667,44.700 L13.222,44.700 L10.778,44.700 L8.333,44.700 L5.889,44.700 L3.444,44.700 L1.000,44.700 M1.015,43.658 L3.459,43.658 L5.903,43.658 L8.346,43.658 L10.790,43.658 L13.233,43.658 L15.677,43.658 L18.120,43.658 L20.564,43.658 L23.008,43.658 L25.451,43.658 L27.895,43.658 L30.338,43.658 L32.782,43.658 L35.226,43.658 L37.669,43.658 L40.113,43.658 L42.556,43.658 L45.000,43.658 L47.443,43.658 L49.887,43.658 L52.331,43.658 L54.774,43.658 L57.218,43.658 L59.661,43.658 L62.105,43.658 L64.548,43.658 L66.992,43.658 L69.436,43.658 L71.879,43.658 L74.323,43.658 L76.766,43.658 L79.210,43.658 L81.653,43.658 L84.097,43.658 L86.541,43.658 L88.984,43.658 M88.964,43.058 L86.522,43.058 L84.079,43.058 L81.637,43.058 L79.194,43.058 L76.752,43.058 L74.309,43.058 L71.867,43.058 L69.424,43.058 L66.982,43.058 L64.539,43.058 L62.097,43.058 L59.655,43.058 L57.212,43.058 L54.770,43.058 L52.327,43.058 L49.885,43.058 L47.442,43.058 L45.000,43.058 L42.557,43.058 L40.115,43.058 L37.672,43.058 L35.230,43.058 L32.788,43.058 L30.345,43.058 L27.903,43.058 L25.460,43.058 L23.018,43.058 L20.575,43.058 L18.133,43.058 L15.690,43.058 L13.248,43.058 L10.805,43.058 L8.363,43.058 L5.921,43.058 L3.478,43.058 L1.036,43.058 M1.064,42.458 L3.505,42.458 L5.946,42.458 L8.387,42.458 L10.827,42.458 L13.268,42.458 L15.709,42.458 L18.150,42.458 L20.591,42.458 L23.032,42.458 L25.473,42.458 L27.914,42.458 L30.355,42.458 L32.795,42.458 L35.236,42.458 L37.677,42.458 L40.118,42.458 L42.559,42.458 L45.000,42.458 L47.441,42.458 L49.882,42.458 L52.322,42.458 L54.763,42.458 L57.204,42.458 L59.645,42.458 L62.086,42.458 L64.527,42.458 L66.968,42.458 L69.409,42.458 L71.849,42.458 L74.290,42.458 L76.731,42.458 L79.172,42.458 L81.613,42.458 L84.054,42.458 L86.495,42.458 L88.936,42.458 M88.899,41.858 L86.460,41.858 L84.021,41.858 L81.583,41.858 L79.144,41.858 L76.705,41.858 L74.266,41.858 L71.827,41.858 L69.388,41.858 L66.949,41.858 L64.511,41.858 L62.072,41.858 L59.633,41.858 L57.194,41.858 L54.755,41.858 L52.316,41.858 L49.878,41.858 L47.439,41.858 L45.000,41.858 L42.561,41.858 L40.122,41.858 L37.683,41.858 L35.244,41.858 L32.806,41.858 L30.367,41.858 L27.928,41.858 L25.489,41.858 L23.050,41.858 L20.611,41.858 L18.172,41.858 L15.734,41.858 L13.295,41.858 L10.856,41.858 L8.417,41.858 L5.978,41.858 L3.539,41.858 L1.100,41.858 M1.145,41.256 L3.582,41.256 L6.018,41.256 L8.455,41.256 L10.891,41.256 L13.327,41.256 L15.764,41.256 L18.200,41.256 L20.636,41.256 L23.073,41.256 L25.509,41.256 L27.945,41.256 L30.382,41.256 L32.818,41.256 L35.254,41.256 L37.691,41.256 L40.127,41.256 L42.563,41.256 L45.000,41.256 L47.436,41.256 L49.873,41.256 L52.309,41.256 L54.745,41.256 L57.182,41.256 L59.618,41.256 L62.054,41.256 L64.491,41.256 L66.927,41.256 L69.363,41.256 L71.800,41.256 L74.236,41.256 L76.672,41.256 L79.109,41.256 L81.545,41.256 L83.981,41.256 L86.418,41.256 L88.854,41.256 M88.729,39.957 L86.230,39.957 L83.731,39.957 L81.232,39.957 L78.734,39.957 L76.235,39.957 L73.736,39.957 L71.237,39.957 L68.738,39.957 L66.240,39.957 L63.741,39.957 L61.242,39.957 L58.743,39.957 L56.244,39.957 L53.746,39.957 L51.247,39.957 L48.748,39.957 L46.249,39.957 L43.750,39.957 L41.252,39.957 L38.753,39.957 L36.254,39.957 L33.755,39.957 L31.256,39.957 L28.758,39.957 L26.259,39.957 L23.760,39.957 L21.261,39.957 L18.762,39.957 L16.264,39.957 L13.765,39.957 L11.266,39.957 L8.767,39.957 L6.268,39.957 L3.770,39.957 L1.271,39.957 M1.514,38.124 L3.999,38.124 L6.484,38.124 L8.969,38.124 L11.454,38.124 L13.939,38.124 L16.424,38.124 L18.908,38.124 L21.393,38.124 L23.878,38.124 L26.363,38.124 L28.848,38.124 L31.333,38.124 L33.818,38.124 L36.303,38.124 L38.788,38.124 L41.272,38.124 L43.757,38.124 L46.242,38.124 L48.727,38.124 L51.212,38.124 L53.697,38.124 L56.182,38.124 L58.667,38.124 L61.152,38.124 L63.636,38.124 L66.121,38.124 L68.606,38.124 L71.091,38.124 L73.576,38.124 L76.061,38.124 L78.546,38.124 L81.031,38.124 L83.516,38.124 L86.000,38.124 L88.485,38.124 M88.121,36.085 L85.657,36.085 L83.193,36.085 L80.729,36.085 L78.265,36.085 L75.801,36.085 L73.337,36.085 L70.873,36.085 L68.409,36.085 L65.945,36.085 L63.480,36.085 L61.016,36.085 L58.552,36.085 L56.088,36.085 L53.624,36.085 L51.160,36.085 L48.696,36.085 L46.232,36.085 L43.768,36.085 L41.304,36.085 L38.840,36.085 L36.375,36.085 L33.911,36.085 L31.447,36.085 L28.983,36.085 L26.519,36.085 L24.055,36.085 L21.591,36.085 L19.127,36.085 L16.663,36.085 L14.199,36.085 L11.735,36.085 L9.271,36.085 L6.806,36.085 L4.342,36.085 L1.878,36.085 M2.313,34.162 L4.753,34.162 L7.192,34.162 L9.631,34.162 L12.070,34.162 L14.509,34.162 L16.949,34.162 L19.388,34.162 L21.827,34.162 L24.266,34.162 L26.706,34.162 L29.145,34.162 L31.584,34.162 L34.023,34.162 L36.463,34.162 L38.902,34.162 L41.341,34.162 L43.780,34.162 L46.219,34.162 L48.659,34.162 L51.098,34.162 L53.537,34.162 L55.976,34.162 L58.416,34.162 L60.855,34.162 L63.294,34.162 L65.733,34.162 L68.172,34.162 L70.612,34.162 L73.051,34.162 L75.490,34.162 L77.929,34.162 L80.369,34.162 L82.808,34.162 L85.247,34.162 L87.686,34.162 M87.242,32.522 L84.757,32.522 L82.273,32.522 L79.788,32.522 L77.303,32.522 L74.818,32.522 L72.333,32.522 L69.848,32.522 L67.363,32.522 L64.879,32.522 L62.394,32.522 L59.909,32.522 L57.424,32.522 L54.939,32.522 L52.454,32.522 L49.970,32.522 L47.485,32.522 L45.000,32.522 L42.515,32.522 L40.030,32.522 L37.545,32.522 L35.060,32.522 L32.576,32.522 L30.091,32.522 L27.606,32.522 L25.121,32.522 L22.636,32.522 L20.151,32.522 L17.666,32.522 L15.182,32.522 L12.697,32.522 L10.212,32.522 L7.727,32.522 L5.242,32.522 L2.757,32.522 M3.198,31.099 L5.657,31.099 L8.116,31.099 L10.575,31.099 L13.034,31.099 L15.493,31.099 L17.952,31.099 L20.411,31.099 L22.869,31.099 L25.328,31.099 L27.787,31.099 L30.246,31.099 L32.705,31.099 L35.164,31.099 L37.623,31.099 L40.082,31.099 L42.541,31.099 L45.000,31.099 L47.459,31.099 L49.918,31.099 L52.377,31.099 L54.835,31.099 L57.294,31.099 L59.753,31.099 L62.212,31.099 L64.671,31.099 L67.130,31.099 L69.589,31.099 L72.048,31.099 L74.507,31.099 L76.966,31.099 L79.425,31.099 L81.884,31.099 L84.343,31.099 L86.801,31.099 M86.293,29.639 L83.864,29.639 L81.435,29.639 L79.006,29.639 L76.577,29.639 L74.148,29.639 L71.719,29.639 L69.290,29.639 L66.861,29.639 L64.432,29.639 L62.003,29.639 L59.574,29.639 L57.145,29.639 L54.716,29.639 L52.287,29.639 L49.858,29.639 L47.429,29.639 L45.000,29.639 L42.571,29.639 L40.142,29.639 L37.713,29.639 L35.284,29.639 L32.855,29.639 L30.426,29.639 L27.997,29.639 L25.568,29.639 L23.139,29.639 L20.710,29.639 L18.281,29.639 L15.852,29.639 L13.423,29.639 L10.994,29.639 L8.565,29.639 L6.135,29.639 L3.706,29.639 M4.419,27.827 L6.879,27.827 L9.338,27.827 L11.798,27.827 L14.257,27.827 L16.716,27.827 L19.176,27.827 L21.635,27.827 L24.095,27.827 L26.554,27.827 L29.014,27.827 L31.473,27.827 L33.932,27.827 L36.392,27.827 L38.851,27.827 L41.311,27.827 L43.770,27.827 L46.230,27.827 L48.689,27.827 L51.148,27.827 L53.608,27.827 L56.067,27.827 L58.527,27.827 L60.986,27.827 L63.445,27.827 L65.905,27.827 L68.364,27.827 L70.824,27.827 L73.283,27.827 L75.743,27.827 L78.202,27.827 L80.661,27.827 L83.121,27.827 L85.580,27.827 M84.503,25.456 L82.034,25.456 L79.565,25.456 L77.096,25.456 L74.627,25.456 L72.158,25.456 L69.690,25.456 L67.221,25.456 L64.752,25.456 L62.283,25.456 L59.814,25.456 L57.345,25.456 L54.876,25.456 L52.407,25.456 L49.938,25.456 L47.469,25.456 L45.000,25.456 L42.531,25.456 L40.062,25.456 L37.593,25.456 L35.124,25.456 L32.655,25.456 L30.186,25.456 L27.717,25.456 L25.248,25.456 L22.779,25.456 L20.310,25.456 L17.841,25.456 L15.372,25.456 L12.903,25.456 L10.434,25.456 L7.965,25.456 L5.496,25.456 M7.054,22.560 L9.502,22.560 L11.950,22.560 L14.398,22.560 L16.846,22.560 L19.294,22.560 L21.743,22.560 L24.191,22.560 L26.639,22.560 L29.087,22.560 L31.535,22.560 L33.983,22.560 L36.431,22.560 L38.879,22.560 L41.328,22.560 L43.776,22.560 L46.224,22.560 L48.672,22.560 L51.120,22.560 L53.568,22.560 L56.016,22.560 L58.464,22.560 L60.913,22.560 L63.361,22.560 L65.809,22.560 L68.257,22.560 L70.705,22.560 L73.153,22.560 L75.601,22.560 L78.050,22.560 L80.498,22.560 L82.946,22.560 M80.932,19.439 L78.454,19.439 L75.976,19.439 L73.498,19.439 L71.020,19.439 L68.542,19.439 L66.064,19.439 L63.585,19.439 L61.107,19.439 L58.629,19.439 L56.151,19.439 L53.673,19.439 L51.195,19.439 L48.717,19.439 L46.239,19.439 L43.761,19.439 L41.283,19.439 L38.805,19.439 L36.326,19.439 L33.848,19.439 L31.370,19.439 L28.892,19.439 L26.414,19.439 L23.936,19.439 L21.458,19.439 L18.980,19.439 L16.502,19.439 L14.024,19.439 L11.546,19.439 L9.067,19.439 M11.271,16.578 L13.769,16.578 L16.268,16.578 L18.766,16.578 L21.265,16.578 L23.763,16.578 L26.262,16.578 L28.760,16.578 L31.258,16.578 L33.757,16.578 L36.255,16.578 L38.754,16.578 L41.252,16.578 L43.751,16.578 L46.249,16.578 L48.747,16.578 L51.246,16.578 L53.744,16.578 L56.243,16.578 L58.741,16.578 L61.240,16.578 L63.738,16.578 L66.236,16.578 L68.735,16.578 L71.233,16.578 L73.732,16.578 L76.230,16.578 L78.729,16.578 M76.843,14.469 L74.394,14.469 L71.944,14.469 L69.495,14.469 L67.045,14.469 L64.596,14.469 L62.146,14.469 L59.697,14.469 L57.247,14.469 L54.798,14.469 L52.348,14.469 L49.899,14.469 L47.449,14.469 L45.000,14.469 L42.550,14.469 L40.101,14.469 L37.651,14.469 L35.202,14.469 L32.752,14.469 L30.303,14.469 L27.853,14.469 L25.404,14.469 L22.954,14.469 L20.505,14.469 L18.055,14.469 L15.606,14.469 L13.156,14.469 M14.193,13.417 L16.658,13.417 L19.122,13.417 L21.587,13.417 L24.051,13.417 L26.516,13.417 L28.980,13.417 L31.445,13.417 L33.909,13.417 L36.374,13.417 L38.838,13.417 L41.303,13.417 L43.768,13.417 L46.232,13.417 L48.697,13.417 L51.161,13.417 L53.626,13.417 L56.090,13.417 L58.555,13.417 L61.019,13.417 L63.484,13.417 L65.948,13.417 L68.413,13.417 L70.877,13.417 L73.342,13.417 L75.806,13.417 M75.182,12.817 L72.768,12.817 L70.353,12.817 L67.939,12.817 L65.524,12.817 L63.109,12.817 L60.695,12.817 L58.280,12.817 L55.866,12.817 L53.451,12.817 L51.036,12.817 L48.622,12.817 L46.207,12.817 L43.792,12.817 L41.378,12.817 L38.963,12.817 L36.549,12.817 L34.134,12.817 L31.719,12.817 L29.305,12.817 L26.890,12.817 L24.476,12.817 L22.061,12.817 L19.646,12.817 L17.232,12.817 L14.817,12.817 M15.467,12.217 L17.928,12.217 L20.389,12.217 L22.850,12.217 L25.311,12.217 L27.772,12.217 L30.233,12.217 L32.694,12.217 L35.155,12.217 L37.616,12.217 L40.078,12.217 L42.539,12.217 L45.000,12.217 L47.461,12.217 L49.922,12.217 L52.383,12.217 L54.844,12.217 L57.305,12.217 L59.766,12.217 L62.227,12.217 L64.689,12.217 L67.150,12.217 L69.611,12.217 L72.072,12.217 L74.533,12.217 M73.857,11.617 L71.452,11.617 L69.047,11.617 L66.642,11.617 L64.238,11.617 L61.833,11.617 L59.428,11.617 L57.023,11.617 L54.619,11.617 L52.214,11.617 L49.809,11.617 L47.405,11.617 L45.000,11.617 L42.595,11.617 L40.190,11.617 L37.786,11.617 L35.381,11.617 L32.976,11.617 L30.571,11.617 L28.167,11.617 L25.762,11.617 L23.357,11.617 L20.953,11.617 L18.548,11.617 L16.143,11.617 M16.849,11.017 L19.296,11.017 L21.744,11.017 L24.192,11.017 L26.640,11.017 L29.088,11.017 L31.536,11.017 L33.984,11.017 L36.432,11.017 L38.880,11.017 L41.328,11.017 L43.776,11.017 L46.224,11.017 L48.672,11.017 L51.120,11.017 L53.568,11.017 L56.015,11.017 L58.463,11.017 L60.911,11.017 L63.359,11.017 L65.807,11.017 L68.255,11.017 L70.703,11.017 L73.151,11.017 M71.926,10.034 L69.478,10.034 L67.030,10.034 L64.582,10.034 L62.135,10.034 L59.687,10.034 L57.239,10.034 L54.791,10.034 L52.343,10.034 L49.895,10.034 L47.448,10.034 L45.000,10.034 L42.552,10.034 L40.104,10.034 L37.656,10.034 L35.209,10.034 L32.761,10.034 L30.313,10.034 L27.865,10.034 L25.417,10.034 L22.969,10.034 L20.522,10.034 L18.074,10.034 M21.191,7.831 L23.572,7.831 L25.953,7.831 L28.334,7.831 L30.715,7.831 L33.095,7.831 L35.476,7.831 L37.857,7.831 L40.238,7.831 L42.619,7.831 L45.000,7.831 L47.381,7.831 L49.762,7.831 L52.142,7.831 L54.523,7.831 L56.904,7.831 L59.285,7.831 L61.666,7.831 L64.047,7.831 L66.428,7.831 L68.808,7.831 L68.108,7.831 L68.808,7.831 L68.108,7.831 L68.808,7.831 M62.918,4.647 L62.218,4.647 L62.918,4.647 L62.218,4.647 L62.918,4.647 L60.529,4.647 L58.140,4.647 L55.751,4.647 L53.362,4.647 L50.973,4.647 L48.583,4.647 L46.194,4.647 L43.805,4.647 L41.416,4.647 L39.027,4.647 L36.638,4.647 L34.249,4.647 L31.860,4.647 L29.471,4.647 L27.082,4.647 L27.782,4.647 L27.082,4.647 L27.782,4.647 L27.082,4.647 M41.172,1.000 L41.872,1.000 L41.172,1.000 L41.872,1.000 L41.172,1.000 L43.086,1.000 L45.000,1.000 L46.914,1.000 L48.828,1.000 L48.128,1.000 L48.828,1.000 L48.128,1.000 L48.828,1.000"/>
</svg>
