<svg xmlns="http://www.w3.org/2000/svg" viewBox="-6.817 0 68 68" width="256" height="256">
  <title>lines</title>
  <rect x="-6.817" y="0" width="68" height="68" fill="#f5efe4"/>
  <path fill="none" stroke="#31604f" stroke-width="0.4" stroke-linecap="round" stroke-linejoin="round" d="M1.048,1.000 L1.048,1.000 L2.841,1.000 L4.634,1.000 L6.428,1.000 L8.221,1.000 L10.014,1.000 L11.807,1.000 L13.600,1.000 L15.393,1.000 L17.186,1.000 L18.979,1.000 L20.772,1.000 L22.565,1.000 L24.359,1.000 L26.152,1.000 L27.945,1.000 L29.738,1.000 L31.531,1.000 L33.324,1.000 L35.117,1.000 L36.910,1.000 L38.703,1.000 L40.496,1.000 L42.290,1.000 L44.083,1.000 L45.876,1.000 L47.669,1.000 L49.462,1.000 L51.255,1.000 L53.048,1.000 L52.348,1.000 L53.048,1.000 L52.348,1.000 L53.048,1.000 M1.048,7.000 L1.748,7.000 L1.048,7.000 L1.748,7.000 L1.048,7.000 L2.841,7.000 L1.048,7.000 L2.841,7.000 L4.634,7.000 L2.841,7.000 L4.634,7.000 L6.428,7.000 L4.634,7.000 L6.428,7.000 L8.221,7.000 L6.428,7.000 L8.221,7.000 L10.014,7.000 L8.221,7.000 L10.014,7.000 L11.807,7.000 L10.014,7.000 L11.807,7.000 L13.600,7.000 L11.807,7.000 L13.600,7.000 L15.393,7.000 L13.600,7.000 L15.393,7.000 L17.186,7.000 L15.393,7.000 L17.186,7.000 L18.979,7.000 L17.186,7.000 L18.979,7.000 L20.772,7.000 L18.979,7.000 L20.772,7.000 L22.565,7.000 L20.772,7.000 L22.565,7.000 L24.359,7.000 L22.565,7.000 L24.359,7.000 L26.152,7.000 L24.359,7.000 L26.152,7.000 L27.945,7.000 L26.152,7.000 L27.945,7.000 L29.738,7.000 L27.945,7.000 L29.738,7.000 L31.531,7.000 L29.738,7.000 L31.531,7.000 L33.324,7.000 L31.531,7.000 L33.324,7.000 L35.117,7.000 L33.324,7.000 L35.117,7.000 L36.910,7.000 L35.117,7.000 L36.910,7.000 L38.703,7.000 L36.910,7.000 L38.703,7.000 L40.496,7.000 L38.703,7.000 L40.496,7.000 L42.290,7.000 L40.496,7.000 L42.290,7.000 L44.083,7.000 L42.290,7.000 L44.083,7.000 L45.876,7.000 L44.083,7.000 L45.876,7.000 L47.669,7.000 L45.876,7.000 L47.669,7.000 L49.462,7.000 L47.669,7.000 L49.462,7.000 L51.255,7.000 L49.462,7.000 L51.255,7.000 L53.048,7.000 L51.255,7.000 L53.048,7.000 L52.348,7.000 L53.048,7.000 L52.348,7.000 L53.048,7.000 M1.048,13.000 L1.229,13.676 L1.048,13.000 L1.229,13.676 L1.048,13.000 L1.448,14.500 L1.848,11.500 L2.248,14.500 L2.648,11.500 L3.048,14.500 L3.448,11.500 L3.848,14.500 L4.248,11.500 L4.648,14.500 L5.048,11.500 L5.448,14.500 L5.848,11.500 L6.248,14.500 L6.648,11.500 L7.048,14.500 L7.448,11.500 L7.848,14.500 L8.248,11.500 L8.648,14.500 L9.048,11.500 L9.448,14.500 L9.848,11.500 L10.248,14.500 L10.648,11.500 L11.048,14.500 L11.448,11.500 L11.848,14.500 L12.248,11.500 L12.648,14.500 L13.048,11.500 L13.448,14.500 L13.848,11.500 L14.248,14.500 L14.648,11.500 L15.048,14.500 L15.448,11.500 L15.848,14.500 L16.248,11.500 L16.648,14.500 L17.048,11.500 L17.448,14.500 L17.848,11.500 L18.248,14.500 L18.648,11.500 L19.048,14.500 L19.448,11.500 L19.848,14.500 L20.248,11.500 L20.648,14.500 L21.048,11.500 L21.448,14.500 L21.848,11.500 L22.248,14.500 L22.648,11.500 L23.048,14.500 L23.448,11.500 L23.848,14.500 L24.248,11.500 L24.648,14.500 L25.048,11.500 L25.448,14.500 L25.848,11.500 L26.248,14.500 L26.648,11.500 L27.048,14.500 L27.448,11.500 L27.848,14.500 L28.248,11.500 L28.648,14.500 L29.048,11.500 L29.448,14.500 L29.848,11.500 L30.248,14.500 L30.648,11.500 L31.048,14.500 L31.448,11.500 L31.848,14.500 L32.248,11.500 L32.648,14.500 L33.048,11.500 L33.448,14.500 L33.848,11.500 L34.248,14.500 L34.648,11.500 L35.048,14.500 L35.448,11.500 L35.848,14.500 L36.248,11.500 L36.648,14.500 L37.048,11.500 L37.448,14.500 L37.848,11.500 L38.248,14.500 L38.648,11.500 L39.048,14.500 L39.448,11.500 L39.848,14.500 L40.248,11.500 L40.648,14.500 L41.048,11.500 L41.448,14.500 L41.848,11.500 L42.248,14.500 L42.648,11.500 L43.048,14.500 L43.448,11.500 L43.848,14.500 L44.248,11.500 L44.648,14.500 L45.048,11.500 L45.448,14.500 L45.848,11.500 L46.248,14.500 L46.648,11.500 L47.048,14.500 L47.448,11.500 L47.848,14.500 L48.248,11.500 L48.648,14.500 L49.048,11.500 L49.448,14.500 L49.848,11.500 L50.248,14.500 L50.648,11.500 L51.048,14.500 L51.448,11.500 L51.848,14.500 L52.248,11.500 L52.648,14.500 L53.048,11.500 L52.956,12.194 L53.048,11.500 L52.956,12.194 L53.048,11.500 M1.048,19.000 L1.409,19.532 L1.048,19.000 L1.409,19.532 L1.048,19.000 L1.409,19.532 L1.770,18.468 L2.132,19.532 L2.493,18.468 L2.854,19.532 L3.215,18.468 L3.576,19.532 L3.937,18.468 L4.298,19.532 L4.659,18.208 L5.020,19.792 L5.382,18.208 L5.743,19.792 L6.104,18.208 L6.465,19.792 L6.826,18.208 L7.187,19.792 L7.548,18.208 L7.909,20.036 L8.270,17.964 L8.632,20.036 L8.993,17.964 L9.354,20.036 L9.715,17.964 L10.076,20.036 L10.437,17.964 L10.798,20.036 L11.159,17.744 L11.520,20.256 L11.882,17.744 L12.243,20.256 L12.604,17.744 L12.965,20.256 L13.326,17.744 L13.687,20.256 L14.048,17.744 L14.409,20.444 L14.770,17.556 L15.132,20.444 L15.493,17.556 L15.854,20.444 L16.215,17.556 L16.576,20.444 L16.937,17.556 L17.298,20.444 L17.659,17.409 L18.020,20.591 L18.382,17.409 L18.743,20.591 L19.104,17.409 L19.465,20.591 L19.826,17.409 L20.187,20.591 L20.548,17.409 L20.909,20.692 L21.270,17.308 L21.632,20.692 L21.993,17.308 L22.354,20.692 L22.715,17.308 L23.076,20.692 L23.437,17.308 L23.798,20.692 L24.159,17.257 L24.520,20.743 L24.882,17.257 L25.243,20.743 L25.604,17.257 L25.965,20.743 L26.326,17.257 L26.687,20.743 L27.048,17.257 L27.409,20.743 L27.770,17.257 L28.132,20.743 L28.493,17.257 L28.854,20.743 L29.215,17.257 L29.576,20.743 L29.937,17.257 L30.298,20.743 L30.659,17.308 L31.020,20.692 L31.382,17.308 L31.743,20.692 L32.104,17.308 L32.465,20.692 L32.826,17.308 L33.187,20.692 L33.548,17.308 L33.909,20.591 L34.270,17.409 L34.632,20.591 L34.993,17.409 L35.354,20.591 L35.715,17.409 L36.076,20.591 L36.437,17.409 L36.798,20.591 L37.159,17.556 L37.520,20.444 L37.882,17.556 L38.243,20.444 L38.604,17.556 L38.965,20.444 L39.326,17.556 L39.687,20.444 L40.048,17.556 L40.409,20.256 L40.770,17.744 L41.132,20.256 L41.493,17.744 L41.854,20.256 L42.215,17.744 L42.576,20.256 L42.937,17.744 L43.298,20.256 L43.659,17.964 L44.020,20.036 L44.382,17.964 L44.743,20.036 L45.104,17.964 L45.465,20.036 L45.826,17.964 L46.187,20.036 L46.548,17.964 L46.909,19.792 L47.270,18.208 L47.632,19.792 L47.993,18.208 L48.354,19.792 L48.715,18.208 L49.076,19.792 L49.437,18.208 L49.798,19.792 L50.159,18.468 L50.520,19.532 L50.882,18.468 L51.243,19.532 L51.604,18.468 L51.965,19.532 L52.326,18.468 L52.687,19.532 L53.048,18.468 L52.823,19.131 L53.048,18.468 L52.823,19.131 L53.048,18.468 M1.048,25.000 L1.748,25.000 L1.048,25.000 L1.748,25.000 L1.048,25.000 L2.841,25.000 L2.841,22.800 L2.841,25.000 L4.634,25.000 L4.634,22.800 L4.634,25.000 L6.428,25.000 L6.428,22.800 L6.428,25.000 L8.221,25.000 L8.221,22.800 L8.221,25.000 L10.014,25.000 L10.014,22.800 L10.014,25.000 L11.807,25.000 L11.807,22.800 L11.807,25.000 L13.600,25.000 L13.600,22.800 L13.600,25.000 L15.393,25.000 L15.393,22.800 L15.393,25.000 L17.186,25.000 L17.186,22.800 L17.186,25.000 L18.979,25.000 L18.979,22.800 L18.979,25.000 L20.772,25.000 L20.772,22.800 L20.772,25.000 L22.565,25.000 L22.565,22.800 L22.565,25.000 L24.359,25.000 L24.359,22.800 L24.359,25.000 L26.152,25.000 L26.152,22.800 L26.152,25.000 L27.945,25.000 L27.945,22.800 L27.945,25.000 L29.738,25.000 L29.738,22.800 L29.738,25.000 L31.531,25.000 L31.531,22.800 L31.531,25.000 L33.324,25.000 L33.324,22.800 L33.324,25.000 L35.117,25.000 L35.117,22.800 L35.117,25.000 L36.910,25.000 L36.910,22.800 L36.910,25.000 L38.703,25.000 L38.703,22.800 L38.703,25.000 L40.496,25.000 L40.496,22.800 L40.496,25.000 L42.290,25.000 L42.290,22.800 L42.290,25.000 L44.083,25.000 L44.083,22.800 L44.083,25.000 L45.876,25.000 L45.876,22.800 L45.876,25.000 L47.669,25.000 L47.669,22.800 L47.669,25.000 L49.462,25.000 L49.462,22.800 L49.462,25.000 L51.255,25.000 L51.255,22.800 L51.255,25.000 L53.048,25.000 L53.048,22.800 L53.048,25.000 L53.048,24.300 L53.048,25.000 L53.048,24.300 L53.048,25.000 M1.048,31.000 L1.619,31.405 L1.048,31.000 L1.619,31.405 L1.048,31.000 L1.909,31.610 L1.000,29.797 L2.451,31.214 L1.542,29.401 L2.887,30.973 L2.460,28.980 L3.609,30.663 L3.626,28.764 L3.907,30.380 L4.349,28.800 L4.116,30.828 L5.293,29.183 L4.839,30.747 L5.835,29.459 L5.049,31.352 L6.527,29.962 L5.591,31.762 L7.068,30.372 L6.167,32.179 L7.576,30.722 L6.708,32.554 L8.117,31.097 L7.586,32.989 L8.593,31.219 L8.309,33.235 L8.844,31.246 L9.503,33.169 L9.626,31.533 L10.487,32.834 L9.755,30.947 L11.029,32.520 L10.497,30.978 L11.679,32.081 L10.730,30.288 L12.221,31.664 L11.272,29.871 L12.692,31.332 L11.883,29.474 L13.234,30.984 L12.425,29.127 L13.567,30.850 L13.446,28.819 L14.193,30.282 L14.650,28.819 L14.530,30.850 L15.372,28.998 L15.078,30.647 L16.213,29.474 L15.404,31.332 L16.755,29.822 L15.876,31.664 L17.367,30.288 L16.417,32.081 L17.908,30.705 L17.067,32.520 L18.342,30.947 L17.609,32.834 L18.883,31.261 L18.594,33.169 L19.193,31.641 L19.316,33.278 L19.503,31.219 L20.510,32.989 L20.354,31.351 L21.388,32.554 L20.521,30.722 L21.930,32.179 L21.063,30.347 L22.506,31.762 L21.570,29.962 L23.047,31.352 L22.112,29.553 L23.439,31.104 L22.803,29.183 L23.981,30.828 L23.345,28.908 L24.210,30.779 L24.470,28.764 L24.912,30.344 L25.637,28.980 L25.210,30.973 L26.359,29.289 L25.646,31.214 L27.096,29.797 L26.188,31.610 L27.638,30.193 L26.729,32.005 L28.180,30.588 L27.271,32.401 L28.721,30.984 L28.099,32.865 L29.248,31.182 L28.821,33.175 L29.546,31.638 L29.987,33.218 L30.248,31.202 L31.022,32.955 L30.568,31.391 L31.564,32.679 L30.928,30.759 L32.256,32.243 L31.320,30.443 L32.797,31.833 L31.862,30.033 L33.305,31.465 L32.438,29.633 L33.846,31.091 L32.979,29.258 L34.232,30.904 L33.948,28.888 L34.954,30.658 L35.141,28.777 L35.264,30.413 L35.864,28.885 L35.484,30.896 L36.758,29.323 L36.226,30.864 L37.300,29.637 L36.459,31.503 L37.950,30.127 L37.001,31.920 L38.492,30.544 L37.612,32.352 L38.963,30.842 L38.154,32.699 L39.505,31.190 L39.085,33.092 L39.928,31.240 L39.808,33.271 L40.265,31.628 L41.011,33.092 L40.891,31.061 L41.942,32.699 L41.349,31.179 L42.484,32.352 L41.675,30.495 L43.096,31.920 L42.147,30.127 L43.637,31.503 L42.688,29.710 L44.071,31.210 L43.338,29.323 L44.612,30.896 L43.880,29.009 L44.832,30.413 L44.955,28.777 L45.614,30.700 L46.149,28.888 L45.993,30.525 L46.871,29.134 L46.250,31.091 L47.659,29.633 L46.792,31.465 L48.201,30.008 L47.299,31.833 L48.777,30.443 L47.841,32.243 L49.318,30.853 L48.532,32.679 L49.710,31.034 L49.074,32.955 L50.252,31.310 L50.109,33.218 L50.571,31.239 L50.831,33.254 L51.006,31.549 L51.998,32.865 L51.571,30.872 L52.826,32.401 L51.917,30.588 L53.367,32.005 L52.458,30.193 L52.772,30.818 L52.458,30.193 L52.772,30.818 L52.458,30.193 M1.048,37.000 L1.644,36.633 L1.048,37.000 L1.644,36.633 L1.048,37.000 L2.132,36.333 L1.048,37.000 L2.132,36.333 L3.215,35.667 L2.132,36.333 L3.215,35.667 L4.298,35.000 L3.215,35.667 L4.298,35.000 L5.382,36.333 L4.298,35.000 L5.382,36.333 L6.465,37.667 L5.382,36.333 L6.465,37.667 L7.548,39.000 L6.465,37.667 L7.548,39.000 L8.632,37.667 L7.548,39.000 L8.632,37.667 L9.715,36.333 L8.632,37.667 L9.715,36.333 L10.798,35.000 L9.715,36.333 L10.798,35.000 L11.882,36.333 L10.798,35.000 L11.882,36.333 L12.965,37.667 L11.882,36.333 L12.965,37.667 L14.048,39.000 L12.965,37.667 L14.048,39.000 L15.132,37.667 L14.048,39.000 L15.132,37.667 L16.215,36.333 L15.132,37.667 L16.215,36.333 L17.298,35.000 L16.215,36.333 L17.298,35.000 L18.382,36.333 L17.298,35.000 L18.382,36.333 L19.465,37.667 L18.382,36.333 L19.465,37.667 L20.548,39.000 L19.465,37.667 L20.548,39.000 L21.632,37.667 L20.548,39.000 L21.632,37.667 L22.715,36.333 L21.632,37.667 L22.715,36.333 L23.798,35.000 L22.715,36.333 L23.798,35.000 L24.882,36.333 L23.798,35.000 L24.882,36.333 L25.965,37.667 L24.882,36.333 L25.965,37.667 L27.048,39.000 L25.965,37.667 L27.048,39.000 L28.132,37.667 L27.048,39.000 L28.132,37.667 L29.215,36.333 L28.132,37.667 L29.215,36.333 L30.298,35.000 L29.215,36.333 L30.298,35.000 L31.382,36.333 L30.298,35.000 L31.382,36.333 L32.465,37.667 L31.382,36.333 L32.465,37.667 L33.548,39.000 L32.465,37.667 L33.548,39.000 L34.632,37.667 L33.548,39.000 L34.632,37.667 L35.715,36.333 L34.632,37.667 L35.715,36.333 L36.798,35.000 L35.715,36.333 L36.798,35.000 L37.882,36.333 L36.798,35.000 L37.882,36.333 L38.965,37.667 L37.882,36.333 L38.965,37.667 L40.048,39.000 L38.965,37.667 L40.048,39.000 L41.132,37.667 L40.048,39.000 L41.132,37.667 L42.215,36.333 L41.132,37.667 L42.215,36.333 L43.298,35.000 L42.215,36.333 L43.298,35.000 L44.382,36.333 L43.298,35.000 L44.382,36.333 L45.465,37.667 L44.382,36.333 L45.465,37.667 L46.548,39.000 L45.465,37.667 L46.548,39.000 L47.632,37.667 L46.548,39.000 L47.632,37.667 L48.715,36.333 L47.632,37.667 L48.715,36.333 L49.798,35.000 L48.715,36.333 L49.798,35.000 L50.882,36.333 L49.798,35.000 L50.882,36.333 L51.965,37.667 L50.882,36.333 L51.965,37.667 L53.048,39.000 L51.965,37.667 L53.048,39.000 L52.607,38.457 L53.048,39.000 L52.607,38.457 L53.048,39.000 M1.048,43.000 L1.475,42.445 L1.048,43.000 L1.475,42.445 L1.048,43.000 L2.048,41.700 L3.048,40.400 L4.048,41.700 L5.048,43.000 L6.048,41.700 L7.048,40.400 L8.048,41.700 L9.048,43.000 L10.048,41.700 L11.048,40.400 L12.048,41.700 L13.048,43.000 L14.048,41.700 L15.048,40.400 L16.048,41.700 L17.048,43.000 L18.048,41.700 L19.048,40.400 L20.048,41.700 L21.048,43.000 L22.048,41.700 L23.048,40.400 L24.048,41.700 L25.048,43.000 L26.048,41.700 L27.048,40.400 L28.048,41.700 L29.048,43.000 L30.048,41.700 L31.048,40.400 L32.048,41.700 L33.048,43.000 L34.048,41.700 L35.048,40.400 L36.048,41.700 L37.048,43.000 L38.048,41.700 L39.048,40.400 L40.048,41.700 L41.048,43.000 L42.048,41.700 L43.048,40.400 L44.048,41.700 L45.048,43.000 L46.048,41.700 L47.048,40.400 L48.048,41.700 L49.048,43.000 L50.048,41.700 L51.048,40.400 L52.048,41.700 L53.048,43.000 L52.621,42.445 L53.048,43.000 L52.621,42.445 L53.048,43.000 M1.048,49.000 L1.740,48.892 L1.048,49.000 L1.740,48.892 L1.048,49.000 L2.299,48.804 L3.371,48.258 L4.126,47.482 L4.493,46.644 L4.488,45.927 L4.204,45.488 L3.800,45.422 L3.457,45.744 L3.344,46.383 L3.582,47.200 L4.211,48.017 L5.190,48.656 L6.400,48.978 L7.671,48.912 L8.821,48.473 L9.693,47.756 L10.193,46.918 L10.304,46.142 L10.099,45.596 L9.715,45.400 L9.331,45.596 L9.125,46.142 L9.237,46.918 L9.736,47.756 L10.609,48.473 L11.759,48.912 L13.030,48.978 L14.240,48.656 L15.219,48.017 L15.848,47.200 L16.085,46.383 L15.973,45.744 L15.630,45.422 L15.225,45.488 L14.942,45.927 L14.936,46.644 L15.304,47.482 L16.059,48.258 L17.131,48.804 L18.382,49.000 L19.632,48.804 L20.704,48.258 L21.459,47.482 L21.827,46.644 L21.821,45.927 L21.538,45.488 L21.133,45.422 L20.790,45.744 L20.678,46.383 L20.915,47.200 L21.544,48.017 L22.524,48.656 L23.733,48.978 L25.004,48.912 L26.154,48.473 L27.027,47.756 L27.526,46.918 L27.638,46.142 L27.432,45.596 L27.048,45.400 L26.664,45.596 L26.459,46.142 L26.570,46.918 L27.070,47.756 L27.942,48.473 L29.092,48.912 L30.363,48.978 L31.573,48.656 L32.552,48.017 L33.182,47.200 L33.419,46.383 L33.306,45.744 L32.963,45.422 L32.559,45.488 L32.275,45.927 L32.270,46.644 L32.637,47.482 L33.392,48.258 L34.464,48.804 L35.715,49.000 L36.965,48.804 L38.038,48.258 L38.793,47.482 L39.160,46.644 L39.154,45.927 L38.871,45.488 L38.467,45.422 L38.124,45.744 L38.011,46.383 L38.248,47.200 L38.878,48.017 L39.857,48.656 L41.067,48.978 L42.338,48.912 L43.488,48.473 L44.360,47.756 L44.859,46.918 L44.971,46.142 L44.765,45.596 L44.382,45.400 L43.998,45.596 L43.792,46.142 L43.904,46.918 L44.403,47.756 L45.275,48.473 L46.425,48.912 L47.696,48.978 L48.906,48.656 L49.885,48.017 L50.515,47.200 L50.752,46.383 L50.640,45.744 L50.296,45.422 L49.892,45.488 L49.609,45.927 L49.603,46.644 L49.970,47.482 L50.725,48.258 L51.798,48.804 L53.048,49.000 L52.357,48.892 L53.048,49.000 L52.357,48.892 L53.048,49.000 M1.048,55.000 L1.502,54.467 L1.048,55.000 L1.502,54.467 L1.048,55.000 L2.132,53.727 L3.215,53.200 L4.298,53.727 L5.382,55.000 L6.465,56.273 L7.548,56.800 L8.632,56.273 L9.715,55.000 L10.798,53.727 L11.882,53.200 L12.965,53.727 L14.048,55.000 L15.132,56.273 L16.215,56.800 L17.298,56.273 L18.382,55.000 L19.465,53.727 L20.548,53.200 L21.632,53.727 L22.715,55.000 L23.798,56.273 L24.882,56.800 L25.965,56.273 L27.048,55.000 L28.132,53.727 L29.215,53.200 L30.298,53.727 L31.382,55.000 L32.465,56.273 L33.548,56.800 L34.632,56.273 L35.715,55.000 L36.798,53.727 L37.882,53.200 L38.965,53.727 L40.048,55.000 L41.132,56.273 L42.215,56.800 L43.298,56.273 L44.382,55.000 L45.465,53.727 L46.548,53.200 L47.632,53.727 L48.715,55.000 L49.798,56.273 L50.882,56.800 L51.965,56.273 L53.048,55.000 L52.595,55.533 L53.048,55.000 L52.595,55.533 L53.048,55.000 M1.048,55.000 L1.502,55.533 L1.048,55.000 L1.502,55.533 L1.048,55.000 L2.132,56.273 L3.215,56.800 L4.298,56.273 L5.382,55.000 L6.465,53.727 L7.548,53.200 L8.632,53.727 L9.715,55.000 L10.798,56.273 L11.882,56.800 L12.965,56.273 L14.048,55.000 L15.132,53.727 L16.215,53.200 L17.298,53.727 L18.382,55.000 L19.465,56.273 L20.548,56.800 L21.632,56.273 L22.715,55.000 L23.798,53.727 L24.882,53.200 L25.965,53.727 L27.048,55.000 L28.132,56.273 L29.215,56.800 L30.298,56.273 L31.382,55.000 L32.465,53.727 L33.548,53.200 L34.632,53.727 L35.715,55.000 L36.798,56.273 L37.882,56.800 L38.965,56.273 L40.048,55.000 L41.132,53.727 L42.215,53.200 L43.298,53.727 L44.382,55.000 L45.465,56.273 L46.548,56.800 L47.632,56.273 L48.715,55.000 L49.798,53.727 L50.882,53.200 L51.965,53.727 L53.048,55.000 L52.595,54.467 L53.048,55.000 L52.595,54.467 L53.048,55.000 M1.048,61.000 L1.140,60.306 L1.048,61.000 L1.140,60.306 L1.048,61.000 L1.147,60.252 L1.435,59.556 L1.894,58.957 L2.493,58.498 L3.189,58.210 L3.937,58.111 L4.685,58.210 L5.382,58.498 L5.980,58.957 L6.439,59.556 L6.728,60.252 L6.826,61.000 L6.924,60.252 L7.213,59.556 L7.672,58.957 L8.270,58.498 L8.967,58.210 L9.715,58.111 L10.463,58.210 L11.159,58.498 L11.758,58.957 L12.217,59.556 L12.505,60.252 L12.604,61.000 L12.702,60.252 L12.991,59.556 L13.450,58.957 L14.048,58.498 L14.745,58.210 L15.493,58.111 L16.240,58.210 L16.937,58.498 L17.535,58.957 L17.995,59.556 L18.283,60.252 L18.382,61.000 L18.480,60.252 L18.769,59.556 L19.228,58.957 L19.826,58.498 L20.523,58.210 L21.270,58.111 L22.018,58.210 L22.715,58.498 L23.313,58.957 L23.772,59.556 L24.061,60.252 L24.159,61.000 L24.258,60.252 L24.546,59.556 L25.005,58.957 L25.604,58.498 L26.301,58.210 L27.048,58.111 L27.796,58.210 L28.493,58.498 L29.091,58.957 L29.550,59.556 L29.839,60.252 L29.937,61.000 L30.036,60.252 L30.324,59.556 L30.783,58.957 L31.382,58.498 L32.078,58.210 L32.826,58.111 L33.574,58.210 L34.270,58.498 L34.869,58.957 L35.328,59.556 L35.616,60.252 L35.715,61.000 L35.813,60.252 L36.102,59.556 L36.561,58.957 L37.159,58.498 L37.856,58.210 L38.604,58.111 L39.351,58.210 L40.048,58.498 L40.647,58.957 L41.106,59.556 L41.394,60.252 L41.493,61.000 L41.591,60.252 L41.880,59.556 L42.339,58.957 L42.937,58.498 L43.634,58.210 L44.382,58.111 L45.129,58.210 L45.826,58.498 L46.424,58.957 L46.883,59.556 L47.172,60.252 L47.270,61.000 L47.369,60.252 L47.657,59.556 L48.117,58.957 L48.715,58.498 L49.412,58.210 L50.159,58.111 L50.907,58.210 L51.604,58.498 L52.202,58.957 L52.661,59.556 L52.950,60.252 L53.048,61.000 L52.957,60.306 L53.048,61.000 L52.957,60.306 L53.048,61.000 M1.048,67.000 L1.748,67.000 L1.048,67.000 L1.748,67.000 L1.048,67.000 L2.548,67.000 L4.048,67.000 M6.048,67.000 L7.548,67.000 L9.048,67.000 M11.048,67.000 L12.548,67.000 L14.048,67.000 M16.048,67.000 L17.548,67.000 L19.048,67.000 M21.048,67.000 L22.548,67.000 L24.048,67.000 M26.048,67.000 L27.548,67.000 L29.048,67.000 M31.048,67.000 L32.548,67.000 L34.048,67.000 M36.048,67.000 L37.548,67.000 L39.048,67.000 M41.048,67.000 L42.548,67.000 L44.048,67.000 M46.048,67.000 L47.548,67.000 L49.048,67.000 M51.048,67.000 L52.048,67.000 L53.048,67.000 L52.348,67.000 L53.048,67.000 L52.348,67.000 L53.048,67.000"/>
</svg>
