<svg xmlns="http://www.w3.org/2000/svg" viewBox="0 -0.054 49.984 49.984" width="256" height="256">
  <title>lissajous</title>
  <rect x="0" y="-0.054" width="49.984" height="49.984" fill="#f5efe4"/>
  <path fill="none" stroke="#31604f" stroke-width="0.4" stroke-linecap="round" stroke-linejoin="round" d="M48.984,24.940 L48.984,24.940 L48.903,22.942 L48.823,20.943 L48.741,18.945 L48.488,16.961 L48.361,15.969 L48.235,14.977 L47.939,12.999 L47.705,12.027 L47.471,11.055 L47.236,10.083 L47.002,9.111 L46.661,8.171 L46.320,7.231 L45.933,6.309 L45.546,5.386 L44.477,3.696 L43.859,2.910 L43.240,2.124 L41.435,1.263 L40.436,1.225 L39.437,1.186 L38.480,1.476 L37.523,1.766 L35.829,2.830 L34.311,4.133 L33.611,4.847 L32.911,5.560 L31.583,7.056 L30.380,8.653 L29.177,10.251 L28.614,11.078 L28.052,11.905 L27.512,12.747 L26.973,13.589 L26.433,14.431 L25.894,15.273 L25.373,16.127 L24.852,16.980 L23.848,18.710 L22.843,20.439 L22.343,21.305 L21.844,22.171 L20.876,23.922 L20.392,24.797 L19.909,25.672 L18.941,27.423 L17.977,29.175 L17.015,30.928 L16.534,31.805 L16.052,32.681 L15.079,34.429 L14.088,36.166 L13.097,37.903 L12.588,38.764 L12.080,39.625 L11.548,40.472 L11.015,41.318 L9.951,43.011 L8.775,44.629 L7.564,46.221 L6.851,46.923 L6.139,47.624 L4.434,48.670 L2.521,48.087 L1.682,46.272 L1.471,45.294 L1.261,44.317 L1.082,42.325 L1.024,40.326 L1.079,38.326 L1.148,36.328 L1.364,34.339 L1.581,32.351 L1.835,30.367 L2.012,29.383 L2.189,28.399 L2.543,26.430 L2.930,24.468 L3.422,22.530 L3.669,21.561 L3.915,20.591 L4.433,18.660 L5.085,16.769 L5.736,14.878 L6.431,13.002 L7.286,11.194 L8.141,9.386 L9.142,7.655 L9.707,6.830 L10.273,6.005 L10.878,5.209 L11.482,4.413 L12.232,3.751 L12.982,3.090 L14.609,1.927 L15.550,1.587 L16.491,1.247 L18.487,1.135 L19.481,1.249 L20.474,1.364 L22.227,2.327 L23.094,2.826 L23.960,3.326 L25.409,4.704 L26.858,6.083 L27.497,6.852 L28.136,7.621 L29.349,9.211 L30.562,10.801 L31.611,12.504 L32.656,14.209 L33.702,15.914 L34.644,17.679 L35.108,18.564 L35.573,19.450 L36.037,20.335 L36.502,21.221 L36.942,22.119 L37.383,23.016 L37.807,23.922 L38.231,24.828 L39.080,26.639 L39.497,27.548 L39.914,28.456 L40.311,29.374 L40.709,30.292 L41.504,32.127 L42.296,33.963 L43.061,35.811 L43.826,37.659 L44.207,38.584 L44.589,39.508 L45.346,41.359 L45.724,42.285 L46.103,43.210 L46.493,44.131 L46.883,45.052 L47.281,45.969 L47.679,46.887 L48.637,48.642 L48.689,46.643 L48.274,44.686 L47.783,42.748 L47.272,40.814 L46.992,39.854 L46.712,38.894 L46.432,37.934 L46.152,36.974 L45.848,36.021 L45.544,35.069 L45.231,34.119 L44.919,33.169 L44.294,31.269 L43.610,29.389 L42.913,27.515 L42.215,25.641 L41.460,23.789 L40.672,21.951 L39.883,20.113 L39.049,18.295 L38.142,16.513 L37.234,14.730 L36.287,12.969 L35.752,12.124 L35.218,11.279 L34.683,10.434 L34.148,9.588 L32.995,7.954 L31.703,6.428 L30.410,4.902 L28.860,3.638 L28.066,3.031 L27.271,2.424 L25.432,1.638 L23.534,1.007 L22.539,1.106 L21.544,1.205 L20.570,1.433 L19.597,1.662 L17.859,2.652 L16.255,3.847 L15.562,4.567 L14.869,5.288 L14.202,6.034 L13.536,6.779 L12.988,7.615 L12.439,8.452 L11.342,10.124 L10.367,11.870 L9.483,13.664 L9.042,14.561 L8.600,15.459 L7.818,17.299 L7.094,19.164 L6.371,21.028 L6.041,21.973 L5.712,22.917 L5.114,24.825 L4.517,26.734 L3.959,28.655 L3.714,29.624 L3.470,30.594 L2.982,32.533 L2.532,34.482 L2.151,36.446 L1.961,37.427 L1.770,38.409 L1.624,39.398 L1.477,40.387 L1.351,41.379 L1.225,42.371 L1.067,44.365 L1.017,46.365 L1.194,47.349 L1.370,48.333 L2.355,48.160 L3.340,47.987 L4.540,46.388 L5.625,44.708 L6.600,42.961 L7.084,42.086 L7.569,41.212 L8.480,39.431 L9.391,37.650 L9.843,36.759 L10.295,35.867 L11.187,34.077 L11.633,33.182 L12.080,32.287 L12.527,31.393 L12.975,30.499 L13.881,28.715 L14.787,26.932 L15.240,26.041 L15.693,25.149 L16.637,23.386 L17.585,21.625 L18.534,19.865 L19.520,18.125 L20.032,17.266 L20.544,16.407 L21.056,15.548 L21.568,14.689 L22.621,12.988 L23.764,11.347 L24.335,10.526 L24.906,9.705 L26.099,8.100 L27.420,6.598 L28.741,5.096 L30.252,3.787 L31.041,3.173 L31.831,2.558 L33.625,1.675 L35.508,1.000 L37.493,1.239 L39.352,1.978 L40.171,2.551 L40.991,3.123 L42.212,4.707 L42.800,5.517 L43.387,6.326 L44.235,8.137 L44.645,9.049 L45.055,9.962 L45.745,11.839 L46.313,13.756 L46.598,14.715 L46.882,15.674 L47.303,17.629 L47.682,19.593 L48.061,21.557 L48.310,23.541 L48.528,25.529 L48.747,27.517 L48.844,29.515 L48.876,30.514 L48.908,31.514 L48.940,32.513 L48.972,33.513 L48.884,35.511 L48.829,36.509 L48.774,37.508 L48.691,38.504 L48.609,39.501 L48.265,41.471 L47.919,43.441 L47.565,44.376 L47.210,45.311 L46.308,47.096 L44.921,48.537 L42.950,48.876 L41.138,48.030 L39.553,46.810 L38.096,45.441 L37.461,44.668 L36.826,43.896 L36.212,43.107 L35.597,42.317 L35.010,41.508 L34.422,40.699 L33.875,39.862 L33.328,39.025 L32.234,37.351 L31.176,35.653 L30.157,33.933 L29.137,32.212 L28.126,30.487 L27.140,28.746 L26.154,27.006 L25.168,25.266 L24.182,23.526 L23.196,21.786 L22.703,20.916 L22.211,20.046 L21.212,18.313 L20.702,17.453 L20.192,16.592 L19.173,14.872 L18.658,14.014 L18.143,13.157 L17.596,12.320 L17.049,11.483 L15.955,9.809 L15.393,8.982 L14.830,8.155 L14.216,7.366 L13.602,6.576 L12.374,4.998 L10.960,3.583 L9.502,2.214 L7.710,1.328 L5.712,1.221 L4.884,1.781 L4.055,2.340 L2.967,4.018 L2.257,5.888 L1.802,7.836 L1.458,9.806 L1.342,10.799 L1.226,11.792 L1.170,12.791 L1.115,13.789 L1.004,15.786 L1.040,17.786 L1.104,19.785 L1.168,21.784 L1.375,23.773 L1.484,24.767 L1.594,25.761 L1.703,26.755 L1.812,27.749 L1.994,28.733 L2.175,29.716 L2.364,30.698 L2.554,31.680 L2.743,32.662 L2.932,33.644 L3.488,35.565 L3.772,36.524 L4.056,37.482 L4.672,39.385 L5.492,41.209 L5.902,42.122 L6.312,43.034 L7.413,44.703 L8.001,45.512 L8.588,46.321 L10.147,47.575 L11.016,48.070 L11.884,48.566 L12.876,48.693 L13.868,48.821 L15.821,48.392 L17.687,47.672 L19.265,46.443 L20.844,45.215 L21.505,44.465 L22.167,43.715 L23.488,42.213 L24.110,41.430 L24.732,40.648 L25.875,39.006 L27.017,37.365 L27.561,36.525 L28.104,35.686 L29.128,33.968 L30.152,32.250 L31.160,30.523 L32.109,28.762 L33.058,27.001 L33.532,26.121 L34.006,25.240 L34.920,23.461 L35.825,21.678 L36.731,19.895 L37.631,18.109 L38.523,16.319 L38.969,15.424 L39.416,14.529 L40.315,12.742 L41.225,10.962 L42.136,9.181 L43.087,7.422 L43.574,6.548 L44.062,5.675 L44.582,4.821 L45.103,3.968 L46.231,2.316 L47.748,1.013 L48.295,1.850 L48.842,2.687 L48.921,4.686 L48.884,5.685 L48.847,6.684 L48.595,8.668 L48.343,10.653 L47.974,12.618 L47.594,14.582 L47.189,16.540 L46.944,17.510 L46.700,18.480 L46.456,19.449 L46.212,20.419 L45.699,22.352 L45.102,24.261 L44.504,26.170 L43.898,28.075 L43.174,29.940 L42.451,31.804 L41.727,33.669 L41.290,34.568 L40.852,35.468 L40.411,36.365 L39.969,37.262 L39.527,38.159 L39.085,39.056 L38.536,39.892 L37.988,40.728 L36.891,42.401 L36.284,43.195 L35.677,43.990 L34.984,44.711 L34.291,45.432 L32.842,46.811 L31.104,47.801 L30.184,48.191 L29.263,48.581 L27.276,48.805 L25.299,48.497 L23.402,47.866 L21.752,46.735 L20.163,45.521 L18.787,44.069 L17.494,42.543 L16.873,41.760 L16.251,40.976 L15.182,39.286 L14.648,38.441 L14.113,37.596 L13.607,36.733 L13.100,35.871 L12.193,34.089 L11.285,32.307 L10.403,30.512 L9.615,28.674 L9.220,27.755 L8.826,26.836 L8.038,24.998 L7.337,23.124 L6.639,21.250 L5.942,19.376 L5.301,17.481 L4.989,16.531 L4.676,15.581 L4.364,14.631 L4.052,13.681 L3.767,12.723 L3.482,11.764 L3.202,10.804 L2.922,9.844 L2.383,7.918 L1.892,5.979 L1.435,4.032 L1.246,3.050 L1.056,2.068 L1.778,2.761 L2.500,3.453 L3.282,5.293 L3.669,6.216 L4.055,7.138 L4.813,8.989 L5.570,10.840 L6.335,12.688 L7.099,14.536 L7.869,16.382 L8.664,18.217 L9.459,20.052 L10.254,21.888 L11.102,23.699 L11.950,25.510 L12.799,27.321 L13.250,28.214 L13.700,29.107 L14.165,29.992 L14.629,30.878 L15.094,31.764 L15.558,32.649 L16.530,34.397 L17.053,35.250 L17.575,36.102 L18.098,36.955 L18.621,37.807 L19.713,39.483 L20.926,41.073 L22.138,42.663 L23.478,44.149 L24.927,45.527 L26.439,46.836 L28.190,47.802 L30.033,48.579 L32.020,48.808 L33.988,48.449 L35.869,47.769 L36.620,47.110 L37.371,46.450 L38.852,45.105 L39.417,44.280 L39.983,43.455 L41.114,41.806 L42.044,40.035 L42.898,38.227 L43.744,36.415 L44.396,34.524 L44.722,33.578 L45.047,32.633 L45.366,31.685 L45.685,30.737 L45.931,29.768 L46.177,28.799 L46.669,26.860 L47.160,24.921 L47.514,22.953 L47.868,20.984 L48.222,19.016 L48.441,17.028 L48.658,15.040 L48.753,14.044 L48.848,13.049 L48.902,11.050 L48.957,9.050 L48.899,8.052 L48.840,7.054 L48.751,6.058 L48.661,5.062 L48.134,3.133 L47.595,2.290 L47.056,1.448 L46.058,1.381 L45.060,1.315 L44.276,1.935 L43.491,2.555 L42.129,4.020 L41.524,4.816 L40.918,5.611 L40.347,6.432 L39.776,7.253 L39.243,8.099 L38.711,8.946 L38.178,9.792 L37.646,10.639 L36.646,12.371 L35.655,14.108 L35.159,14.977 L34.664,15.845 L33.697,17.596 L32.734,19.349 L31.772,21.102 L30.807,22.854 L29.840,24.605 L28.872,26.355 L27.901,28.104 L26.897,29.833 L25.892,31.562 L24.888,33.292 L23.829,34.989 L23.290,35.831 L22.750,36.673 L22.211,37.515 L21.671,38.357 L20.518,39.991 L19.917,40.790 L19.315,41.589 L18.112,43.186 L16.740,44.642 L15.340,46.070 L14.548,46.680 L13.756,47.290 L12.909,47.823 L12.062,48.355 L10.103,48.754 L8.130,48.427 L7.279,47.902 L6.428,47.376 L5.192,45.804 L4.713,44.926 L4.234,44.048 L3.847,43.126 L3.460,42.204 L2.852,40.299 L2.617,39.327 L2.383,38.355 L2.154,37.381 L1.925,36.408 L1.671,34.424 L1.545,33.432 L1.418,32.440 L1.205,30.451 L1.125,28.453 L1.044,26.455 L1.003,24.455 L1.043,23.456 L1.083,22.457 L1.123,21.458 L1.163,20.458 L1.288,18.462 L1.415,17.470 L1.541,16.478 L1.794,14.494 L2.142,12.525 L2.611,10.581 L3.080,8.636 L3.457,7.710 L3.835,6.784 L4.609,4.940 L5.785,3.322 L7.190,1.899 L8.997,1.042 L10.986,1.250 L12.835,2.012 L13.682,2.544 L14.529,3.076 L15.975,4.458 L17.375,5.886 L18.658,7.420 L19.862,9.017 L21.065,10.615 L22.161,12.288 L22.700,13.130 L23.240,13.972 L23.779,14.814 L24.319,15.656 L25.343,17.373 L25.846,18.238 L26.348,19.103 L27.353,20.832 L28.344,22.569 L29.311,24.320 L29.795,25.195 L30.279,26.070 L31.246,27.821 L31.727,28.697 L32.209,29.574 L32.690,30.450 L33.171,31.327 L34.134,33.080 L35.113,34.824 L36.105,36.561 L36.600,37.429 L37.096,38.298 L38.129,40.010 L38.662,40.857 L39.194,41.703 L40.259,43.396 L40.863,44.193 L41.467,44.990 L42.678,46.582 L44.163,47.921 L45.975,48.768 L47.740,47.827 L48.066,46.882 L48.392,45.937 L48.565,44.952 L48.738,43.967 L48.917,41.975 L48.934,39.975 L48.879,37.976 L48.830,36.977 L48.782,35.978 L48.565,33.990 L48.349,32.002 L48.070,30.021 L47.893,29.037 L47.716,28.053 L47.362,26.084 L46.950,24.127 L46.458,22.189 L45.966,20.250 L45.419,18.326 L44.767,16.435 L44.116,14.544 L43.385,12.683 L42.958,11.779 L42.530,10.875 L41.675,9.067 L41.151,8.215 L40.626,7.364 L39.495,5.714 L38.217,4.176 L37.467,3.515 L36.717,2.853 L35.015,1.803 L33.134,1.123 L31.135,1.175 L30.151,1.356 L29.168,1.538 L28.292,2.022 L27.417,2.505 L25.734,3.586 L24.285,4.964 L22.836,6.343 L22.220,7.130 L21.604,7.918 L20.391,9.508 L19.206,11.119 L18.160,12.824 L17.115,14.529 L16.078,16.240 L15.149,18.011 L14.220,19.782 L13.291,21.553 L12.858,22.455 L12.426,23.356 L12.001,24.262 L11.577,25.167 L11.153,26.073 L10.728,26.978 L9.904,28.801 L9.109,30.636 L8.314,32.471 L7.921,33.390 L7.527,34.310 L7.145,35.234 L6.763,36.158 L6.380,37.082 L5.998,38.006 L5.617,38.930 L5.237,39.855 L4.479,41.706 L3.721,43.557 L2.938,45.397 L2.530,46.310 L2.122,47.223 L1.831,46.266 L1.541,45.309 L1.784,44.339 L2.026,43.369 L2.518,41.430 L2.796,40.470 L3.075,39.510 L3.355,38.550 L3.635,37.590 L4.223,35.678 L4.536,34.728 L4.848,33.778 L5.473,31.878 L6.133,29.990 L6.831,28.116 L7.180,27.179 L7.529,26.242 L7.891,25.310 L8.254,24.378 L9.043,22.540 L9.831,20.702 L10.229,19.784 L10.627,18.867 L11.081,17.976 L11.534,17.085 L11.988,16.194 L12.442,15.302 L12.895,14.411 L13.349,13.520 L14.406,11.822 L14.940,10.977 L15.475,10.132 L16.554,8.448 L17.846,6.922 L19.139,5.395 L19.868,4.711 L20.598,4.027 L22.187,2.813 L23.933,1.838 L25.831,1.207 L27.830,1.138 L29.817,1.362 L31.562,2.340 L32.414,2.862 L33.267,3.385 L34.654,4.826 L36.040,6.267 L37.176,7.914 L38.272,9.586 L38.794,10.439 L39.316,11.292 L40.200,13.087 L41.083,14.881 L41.916,16.699 L42.278,17.631 L42.640,18.564 L43.002,19.496 L43.364,20.428 L43.713,21.365 L44.063,22.302 L44.661,24.211 L45.258,26.119 L45.555,27.074 L45.851,28.029 L46.340,29.969 L46.828,31.908 L47.312,33.849 L47.693,35.812 L48.074,37.775 L48.409,39.747 L48.535,40.739 L48.661,41.731 L48.773,42.725 L48.884,43.719 L48.934,45.718 L48.732,47.708 L47.752,47.909 L46.773,48.111 L45.532,46.542 L44.983,45.706 L44.433,44.871 L43.458,43.125 L42.484,41.378 L41.573,39.598 L41.117,38.707 L40.662,37.817 L40.209,36.926 L39.756,36.034 L38.864,34.244 L37.971,32.454 L37.077,30.665 L36.624,29.774 L36.171,28.882 L35.265,27.099 L34.812,26.208 L34.359,25.316 L33.419,23.551 L32.945,22.670 L32.471,21.790 L31.996,20.910 L31.522,20.029 L30.543,18.285 L29.519,16.568 L29.007,15.709 L28.495,14.850 L27.974,13.996 L27.453,13.142 L26.311,11.501 L25.168,9.859 L23.992,8.241 L23.332,7.490 L22.672,6.739 L22.011,5.988 L21.351,5.238 L20.607,4.570 L19.862,3.902 L18.284,2.673 L16.516,1.738 L14.634,1.062 L13.637,1.140 L12.640,1.218 L10.753,1.882 L9.114,3.027 L7.849,4.577 L7.262,5.386 L6.675,6.196 L6.236,7.094 L5.797,7.993 L4.977,9.817 L4.267,11.687 L3.699,13.604 L3.130,15.522 L2.694,17.474 L2.315,19.437 L2.126,20.419 L1.937,21.401 L1.675,23.384 L1.456,25.372 L1.347,26.366 L1.238,27.360 L1.128,29.357 L1.096,30.357 L1.064,31.356 L1.032,32.355 L1.000,33.355 L1.074,35.354 L1.130,36.352 L1.185,37.351 L1.331,39.345 L1.503,40.330 L1.675,41.315 L2.019,43.286 L2.360,44.225 L2.702,45.165 L3.552,46.976 L4.883,48.469 L6.843,48.868 L7.765,48.482 L8.688,48.096 L10.302,46.915 L11.031,46.231 L11.760,45.546 L13.048,44.016 L13.662,43.227 L14.276,42.438 L14.869,41.632 L15.462,40.827 L16.556,39.153 L17.103,38.316 L17.650,37.478 L18.713,35.784 L19.733,34.064 L20.752,32.343 L21.766,30.619 L22.752,28.879 L23.738,27.139 L24.724,25.399 L25.710,23.659 L26.696,21.919 L27.189,21.049 L27.681,20.179 L28.180,19.311 L28.678,18.444 L29.697,16.724 L30.717,15.003 L31.740,13.285 L32.834,11.611 L33.929,9.936 L35.043,8.276 L36.271,6.697 L37.499,5.119 L38.198,4.403 L38.896,3.687 L39.625,3.003 L40.354,2.318 L41.240,1.854 L42.125,1.389 L43.121,1.292 L44.116,1.195 L44.969,1.717 L45.822,2.239 L46.952,3.889 L47.661,5.759 L48.141,7.701 L48.485,9.671 L48.609,10.663 L48.734,11.655 L48.789,12.654 L48.845,13.652 L48.900,14.651 L48.955,15.649 L48.943,16.649 L48.931,17.649 L48.899,18.649 L48.867,19.648 L48.835,20.648 L48.803,21.647 L48.607,23.637 L48.388,25.625 L48.170,27.613 L47.818,29.582 L47.629,30.564 L47.439,31.546 L47.250,32.528 L47.061,33.510 L46.789,34.472 L46.518,35.435 L45.949,37.352 L45.351,39.261 L44.531,41.085 L43.711,42.909 L43.172,43.751 L42.633,44.594 L42.046,45.403 L41.458,46.212 L39.928,47.500 L39.076,48.024 L38.224,48.547 L36.240,48.803 L34.274,48.438 L32.392,47.760 L31.603,47.145 L30.814,46.531 L29.236,45.302 L27.893,43.821 L27.233,43.070 L26.572,42.319 L25.315,40.763 L24.173,39.121 L23.030,37.480 L21.935,35.807 L21.423,34.948 L20.911,34.089 L19.887,32.371 L19.380,31.509 L18.874,30.646 L17.925,28.886 L16.976,27.125 L16.028,25.364 L15.570,24.475 L15.111,23.587 L14.658,22.695 L14.205,21.803 L13.752,20.912 L13.299,20.020 L12.399,18.235 L11.953,17.340 L11.507,16.445 L11.060,15.550 L10.614,14.655 L10.165,13.761 L9.717,12.868 L9.261,11.977 L8.806,11.087 L8.351,10.197 L7.895,9.306 L7.422,8.425 L6.949,7.544 L6.461,6.671 L5.974,5.798 L4.944,4.084 L3.816,2.432 L3.089,1.746 L2.362,1.059 L1.136,2.639 L1.045,4.637 L1.114,6.636 L1.366,8.620 L1.492,9.612 L1.618,10.604 L1.801,11.588 L1.984,12.571 L2.174,13.552 L2.364,14.534 L2.767,16.493 L3.255,18.433 L3.744,20.372 L4.253,22.306 L4.552,23.260 L4.851,24.215 L5.449,26.123 L6.052,28.030 L6.775,29.895 L7.137,30.827 L7.499,31.759 L8.223,33.624 L9.093,35.424 L9.535,36.321 L9.977,37.219 L10.860,39.013 L11.953,40.688 L12.501,41.524 L13.050,42.360 L14.256,43.955 L15.643,45.397 L16.362,46.091 L17.082,46.786 L17.950,47.281 L18.819,47.776 L20.653,48.575 L22.640,48.799 L24.620,48.513 L25.568,48.197 L26.517,47.882 L28.176,46.765 L29.766,45.551 L31.149,44.106 L32.442,42.580 L33.690,41.017 L34.224,40.172 L34.759,39.327 L35.294,38.482 L35.828,37.637 L36.845,35.915 L37.752,34.132 L38.660,32.350 L39.545,30.556 L40.333,28.718 L40.728,27.799 L41.122,26.880 L41.516,25.961 L41.910,25.042 L42.613,23.170 L42.962,22.233 L43.311,21.296 L43.660,20.359 L44.009,19.421 L44.330,18.474 L44.651,17.527 L45.276,15.627 L45.900,13.727 L46.472,11.811 L47.032,9.891 L47.573,7.965 L47.818,6.996 L48.064,6.027 L48.523,4.080 L48.909,2.118 L48.181,2.803 L47.453,3.488 L46.670,5.329 L45.897,7.173 L45.519,8.099 L45.140,9.025 L44.383,10.876 L43.618,12.724 L42.853,14.572 L42.083,16.418 L41.288,18.253 L40.493,20.088 L39.697,21.923 L38.849,23.734 L38.001,25.545 L37.152,27.356 L36.249,29.141 L35.320,30.912 L34.391,32.683 L33.904,33.556 L33.417,34.430 L32.372,36.135 L31.326,37.840 L30.231,39.513 L29.625,40.308 L29.018,41.104 L27.805,42.694 L26.462,44.175 L25.012,45.553 L23.494,46.855 L21.743,47.821 L20.818,48.202 L19.894,48.583 L18.900,48.698 L17.907,48.813 L15.943,48.435 L15.004,48.091 L14.065,47.746 L12.565,46.423 L11.092,45.071 L10.526,44.246 L9.961,43.421 L8.830,41.771 L8.368,40.885 L7.906,39.998 L7.478,39.094 L7.051,38.190 L6.630,37.282 L6.209,36.375 L5.558,34.484 L5.232,33.539 L4.906,32.594 L4.272,30.697 L3.780,28.758 L3.288,26.820 L2.800,24.880 L2.623,23.896 L2.446,22.912 L2.092,20.943 L1.915,19.959 L1.738,18.975 L1.630,17.981 L1.521,16.987 L1.305,14.998 L1.118,13.007 L1.064,11.008 L1.009,9.009 L1.130,7.012 L1.220,6.016 L1.310,5.020 L1.578,4.057 L1.846,3.094 L2.394,2.257 L2.942,1.421 L4.940,1.322 L6.499,2.575 L7.178,3.309 L7.856,4.044 L9.067,5.635 L10.208,7.278 L10.740,8.125 L11.273,8.971 L12.337,10.664 L12.837,11.531 L13.336,12.397 L13.832,13.266 L14.327,14.134 L14.823,15.003 L15.319,15.871 L15.802,16.747 L16.285,17.622 L17.247,19.376 L18.210,21.129 L18.692,22.005 L19.175,22.881 L20.142,24.631 L21.110,26.381 L22.081,28.130 L23.086,29.859 L24.090,31.588 L24.593,32.453 L25.095,33.318 L26.154,35.014 L27.233,36.698 L27.773,37.540 L28.312,38.382 L29.467,40.015 L30.670,41.613 L31.272,42.412 L31.873,43.210 L32.560,43.937 L33.248,44.663 L34.648,46.091 L35.442,46.699 L36.237,47.306 L37.083,47.838 L37.930,48.371 L39.892,48.758 L41.863,48.415 L43.557,47.353 L44.794,45.781 L45.744,44.022 L46.131,43.099 L46.518,42.177 L47.122,40.271 L47.357,39.299 L47.591,38.327 L47.819,37.353 L48.046,36.379 L48.173,35.387 L48.299,34.395 L48.426,33.403 L48.553,32.411 L48.764,30.422 L48.844,28.424 L48.924,26.426 L48.984,24.940 L48.956,25.640 L48.984,24.940 L48.956,25.640 L48.984,24.940"/>
</svg>
