<svg xmlns="http://www.w3.org/2000/svg" viewBox="-8.669 0 66.124 66.124" width="256" height="256">
  <title>logarithmic-spiral</title>
  <rect x="-8.669" y="0" width="66.124" height="66.124" fill="#f4efe6"/>
  <path fill="none" stroke="#173f5f" stroke-width="0.4" stroke-linecap="round" stroke-linejoin="round" d="M16.863,21.644 L16.863,21.644 L18.546,22.283 L18.957,24.036 L17.990,25.555 L17.138,25.844 L16.286,26.133 L14.548,25.663 L13.910,25.028 L13.273,24.393 L12.711,22.682 L12.904,20.893 L13.333,20.101 L13.762,19.310 L14.442,18.721 L15.122,18.131 L16.792,17.460 L18.588,17.337 L20.344,17.732 L21.926,18.591 L23.236,19.826 L23.721,20.584 L24.205,21.342 L24.501,22.192 L24.797,23.042 L25.001,24.830 L24.821,26.621 L24.286,28.340 L23.856,29.131 L23.426,29.921 L22.858,30.619 L22.289,31.317 L20.920,32.485 L19.370,33.401 L18.530,33.724 L17.690,34.046 L15.928,34.413 L14.130,34.503 L12.339,34.320 L10.594,33.880 L8.929,33.196 L7.373,32.291 L5.952,31.186 L5.319,30.547 L4.686,29.907 L3.591,28.478 L2.681,26.925 L1.963,25.275 L1.442,23.551 L1.282,22.666 L1.121,21.780 L1.000,19.984 L1.037,19.085 L1.074,18.186 L1.339,16.406 L1.563,15.534 L1.787,14.662 L2.099,13.818 L2.411,12.974 L3.199,11.356 L3.671,10.589 L4.142,9.822 L5.226,8.385 L6.440,7.057 L7.106,6.451 L7.771,5.845 L8.489,5.301 L9.206,4.757 L10.731,3.801 L12.333,2.981 L13.166,2.640 L13.999,2.300 L15.717,1.760 L17.472,1.364 L19.254,1.111 L21.051,1.000 L21.951,1.015 L22.851,1.029 L24.643,1.197 L25.530,1.348 L26.417,1.500 L27.291,1.717 L28.164,1.933 L29.875,2.494 L31.541,3.176 L32.347,3.576 L33.153,3.975 L33.930,4.430 L34.707,4.885 L36.193,5.900 L36.901,6.456 L37.608,7.013 L38.945,8.218 L39.572,8.864 L40.199,9.509 L41.366,10.879 L41.905,11.600 L42.443,12.322 L43.427,13.829 L43.871,14.612 L44.314,15.395 L44.709,16.204 L45.103,17.013 L45.448,17.844 L45.792,18.676 L46.380,20.377 L46.866,22.110 L47.058,22.990 L47.249,23.869 L47.530,25.647 L47.619,26.543 L47.709,27.438 L47.786,29.237 L47.774,30.136 L47.763,31.036 L47.640,32.832 L47.419,34.619 L47.261,35.505 L47.103,36.391 L46.898,37.267 L46.692,38.143 L46.190,39.872 L45.598,41.572 L44.920,43.239 L44.157,44.869 L43.313,46.459 L42.391,48.005 L41.892,48.754 L41.393,49.503 L40.324,50.951 L39.185,52.345 L37.981,53.683 L36.715,54.963 L35.391,56.182 L34.701,56.760 L34.011,57.337 L32.579,58.429 L31.839,58.941 L31.099,59.453 L30.337,59.932 L29.575,60.410 L28.009,61.298 L27.207,61.707 L26.406,62.116 L24.768,62.862 L23.099,63.537 L21.402,64.139 L19.682,64.668 L18.811,64.896 L17.941,65.124 L18.618,64.947 L17.941,65.124 L18.618,64.947 L17.941,65.124"/>
</svg>
