<svg xmlns="http://www.w3.org/2000/svg" viewBox="-8.22 0 73.549 73.549" width="256" height="256">
  <title>lorenz-attractor</title>
  <rect x="-8.22" y="0" width="73.549" height="73.549" fill="#f5efe4"/>
  <path fill="none" stroke="#31604f" stroke-width="0.4" stroke-linecap="round" stroke-linejoin="round" d="M27.427,72.549 L27.427,72.549 L28.321,72.442 L29.214,72.336 L30.927,71.783 L31.727,71.370 L32.527,70.957 L33.264,70.442 L34.002,69.926 L34.683,69.337 L35.363,68.748 L36.617,67.457 L37.785,66.087 L38.869,64.650 L39.892,63.169 L40.852,61.646 L41.759,60.091 L42.621,58.511 L43.032,57.711 L43.443,56.910 L43.833,56.099 L44.223,55.288 L44.967,53.649 L45.683,51.997 L46.376,50.336 L47.030,48.659 L47.664,46.975 L48.278,45.282 L48.569,44.431 L48.860,43.579 L49.147,42.726 L49.435,41.873 L49.971,40.155 L50.502,38.435 L51.000,36.705 L51.247,35.840 L51.493,34.974 L51.723,34.104 L51.953,33.234 L52.410,31.493 L52.620,30.618 L52.830,29.743 L53.041,28.868 L53.251,27.993 L53.441,27.113 L53.631,26.233 L53.821,25.353 L54.011,24.474 L54.182,23.590 L54.352,22.706 L54.688,20.938 L54.836,20.050 L54.984,19.162 L55.271,17.385 L55.391,16.493 L55.511,15.602 L55.626,14.709 L55.740,13.816 L55.822,12.920 L55.904,12.024 L56.047,10.229 L56.110,8.430 L56.101,7.530 L56.092,6.631 L55.963,4.835 L55.787,3.952 L55.612,3.070 L54.770,1.479 L53.902,1.240 L53.035,1.000 L51.374,1.693 L49.929,2.767 L49.258,3.367 L48.587,3.967 L47.306,5.231 L46.056,6.527 L45.440,7.183 L44.825,7.840 L43.606,9.165 L43.000,9.830 L42.393,10.494 L41.786,11.158 L41.178,11.822 L39.959,13.146 L38.729,14.460 L37.484,15.761 L36.226,17.048 L34.949,18.317 L34.300,18.940 L33.651,19.564 L32.987,20.171 L32.323,20.779 L31.645,21.371 L30.967,21.963 L29.579,23.109 L28.155,24.210 L27.421,24.731 L26.687,25.251 L25.175,26.229 L23.613,27.122 L21.995,27.911 L21.156,28.236 L20.317,28.562 L18.579,29.033 L17.687,29.153 L16.796,29.274 L16.014,30.895 L16.838,32.496 L17.564,34.143 L18.144,35.847 L18.327,36.728 L18.511,37.609 L18.503,39.409 L17.262,40.713 L15.750,39.736 L14.682,38.287 L14.261,37.492 L13.840,36.696 L13.165,35.027 L12.653,33.302 L12.346,31.528 L12.411,30.630 L12.475,29.733 L13.366,29.604 L14.257,29.475 L14.918,30.085 L15.579,30.696 L16.673,32.126 L17.604,33.666 L17.992,34.478 L18.381,35.290 L18.982,36.987 L19.357,38.747 L19.392,40.547 L18.700,42.208 L17.800,42.192 L16.901,42.176 L16.235,41.570 L15.570,40.964 L15.048,40.231 L14.526,39.498 L14.093,38.709 L13.660,37.920 L12.927,36.276 L12.315,34.583 L11.823,32.851 L11.476,31.085 L11.356,29.289 L11.851,27.559 L12.749,27.613 L13.648,27.667 L15.031,28.819 L15.625,29.496 L16.218,30.172 L17.275,31.629 L18.218,33.162 L18.631,33.962 L19.043,34.762 L19.738,36.423 L20.007,37.281 L20.277,38.140 L20.621,39.907 L20.709,41.705 L20.401,43.478 L19.849,44.189 L19.297,44.900 L18.401,44.813 L17.505,44.727 L16.096,43.606 L14.959,42.211 L13.993,40.692 L13.572,39.897 L13.151,39.101 L12.412,37.460 L11.760,35.782 L11.192,34.074 L10.954,33.206 L10.715,32.339 L10.337,30.579 L10.087,28.796 L10.069,27.896 L10.050,26.996 L10.292,26.130 L10.534,25.263 L12.306,24.947 L13.813,25.930 L14.466,26.549 L15.119,27.169 L15.714,27.844 L16.309,28.519 L16.860,29.231 L17.411,29.943 L18.432,31.425 L19.373,32.959 L20.227,34.544 L20.603,35.362 L20.980,36.179 L21.616,37.863 L22.115,39.592 L22.286,40.476 L22.456,41.360 L22.610,43.153 L22.573,44.053 L22.536,44.952 L22.345,45.831 L22.154,46.711 L21.712,47.495 L21.271,48.279 L20.449,48.647 L19.628,49.014 L18.773,48.731 L17.919,48.447 L17.220,47.880 L16.521,47.313 L15.931,46.634 L15.341,45.954 L14.827,45.215 L14.313,44.476 L13.854,43.702 L13.395,42.928 L12.567,41.330 L11.814,39.695 L11.470,38.863 L11.126,38.032 L10.813,37.188 L10.500,36.344 L9.934,34.635 L9.679,33.772 L9.424,32.909 L8.979,31.165 L8.596,29.406 L8.448,28.519 L8.300,27.631 L8.108,25.841 L8.093,24.941 L8.078,24.041 L8.364,22.264 L8.990,21.618 L9.616,20.972 L11.356,21.433 L12.830,22.467 L13.497,23.071 L14.163,23.676 L14.789,24.323 L15.414,24.971 L16.009,25.646 L16.604,26.321 L17.174,27.018 L17.744,27.714 L18.838,29.143 L19.885,30.608 L20.880,32.108 L21.814,33.646 L22.680,35.224 L23.462,36.846 L24.151,38.509 L24.734,40.212 L25.204,41.949 L25.381,42.832 L25.558,43.714 L25.798,45.498 L25.928,47.293 L25.940,48.193 L25.952,49.093 L25.909,49.992 L25.866,50.891 L25.760,51.785 L25.653,52.678 L25.460,53.557 L25.267,54.436 L24.935,55.273 L24.603,56.110 L23.458,57.498 L21.748,58.060 L19.999,57.633 L18.475,56.675 L17.809,56.070 L17.143,55.464 L16.549,54.788 L15.954,54.112 L14.880,52.668 L13.897,51.160 L13.441,50.385 L12.984,49.609 L12.561,48.815 L12.138,48.020 L11.741,47.213 L11.344,46.405 L10.597,44.767 L9.894,43.110 L9.563,42.273 L9.231,41.437 L8.919,40.593 L8.607,39.749 L8.017,38.048 L7.462,36.336 L7.200,35.474 L6.939,34.613 L6.447,32.882 L5.988,31.141 L5.774,30.267 L5.561,29.393 L5.175,27.635 L4.828,25.868 L4.524,24.094 L4.270,22.312 L4.079,20.522 L4.024,19.624 L3.969,18.726 L3.973,16.926 L4.186,15.138 L4.841,13.462 L5.663,13.096 L6.486,12.731 L7.327,13.052 L8.168,13.373 L9.650,14.394 L10.334,14.979 L11.017,15.565 L12.326,16.800 L13.595,18.077 L14.216,18.729 L14.837,19.380 L15.449,20.040 L16.061,20.699 L17.274,22.030 L18.478,23.367 L19.076,24.040 L19.674,24.712 L20.864,26.063 L22.047,27.420 L23.221,28.785 L24.382,30.160 L25.525,31.550 L26.644,32.961 L27.728,34.398 L28.248,35.132 L28.768,35.866 L29.754,37.373 L30.681,38.916 L31.120,39.701 L31.559,40.487 L32.431,42.062 L32.915,42.820 L33.399,43.579 L34.709,44.814 L36.502,44.974 L38.041,44.041 L39.265,42.721 L40.290,41.242 L41.178,39.676 L41.567,38.864 L41.956,38.053 L42.300,37.221 L42.643,36.389 L43.242,34.692 L43.757,32.967 L44.180,31.217 L44.334,30.330 L44.488,29.444 L44.560,28.547 L44.633,27.650 L44.543,26.754 L44.452,25.859 L43.157,24.608 L42.323,24.947 L41.489,25.285 L40.796,25.859 L40.103,26.434 L38.862,27.737 L37.718,29.127 L37.186,29.853 L36.654,30.579 L35.667,32.084 L35.214,32.862 L34.761,33.640 L33.949,35.245 L33.595,36.073 L33.242,36.901 L32.950,37.752 L32.658,38.604 L32.218,40.349 L31.944,42.128 L31.905,43.027 L31.866,43.926 L32.032,45.719 L32.287,46.582 L32.542,47.445 L33.089,48.159 L33.637,48.874 L35.404,49.213 L36.215,48.822 L37.026,48.432 L37.693,47.827 L38.360,47.223 L39.499,45.829 L40.501,44.334 L40.950,43.554 L41.399,42.774 L42.211,41.167 L42.951,39.527 L43.290,38.693 L43.629,37.859 L44.244,36.168 L44.805,34.457 L45.307,32.728 L45.749,30.984 L46.124,29.223 L46.418,27.447 L46.514,26.552 L46.610,25.658 L46.625,24.758 L46.641,23.858 L46.364,22.079 L45.160,20.741 L43.407,21.149 L42.666,21.661 L41.926,22.172 L41.254,22.771 L40.583,23.370 L39.954,24.014 L39.325,24.658 L38.726,25.330 L38.127,26.002 L37.553,26.695 L36.979,27.388 L36.427,28.099 L35.875,28.810 L35.346,29.538 L34.817,30.266 L33.809,31.757 L33.333,32.521 L32.857,33.285 L31.970,34.851 L31.163,36.460 L30.445,38.111 L30.137,38.956 L29.829,39.802 L29.321,41.529 L28.929,43.285 L28.787,44.174 L28.646,45.063 L28.557,45.959 L28.468,46.854 L28.389,48.653 L28.405,50.453 L28.522,52.249 L28.763,54.033 L28.973,54.908 L29.183,55.783 L29.911,57.429 L31.171,58.715 L32.053,58.893 L32.935,59.072 L33.793,58.799 L34.650,58.526 L36.147,57.526 L36.806,56.913 L37.465,56.300 L38.053,55.619 L38.641,54.938 L39.713,53.492 L40.697,51.984 L41.610,50.433 L42.460,48.846 L42.859,48.040 L43.259,47.233 L44.010,45.598 L44.365,44.770 L44.719,43.943 L45.388,42.272 L45.704,41.429 L46.021,40.587 L46.619,38.889 L46.903,38.035 L47.186,37.181 L47.454,36.321 L47.722,35.462 L47.975,34.599 L48.229,33.735 L48.701,31.998 L48.920,31.125 L49.139,30.252 L49.343,29.376 L49.546,28.499 L49.734,27.619 L49.921,26.738 L50.259,24.970 L50.554,23.195 L50.674,22.303 L50.794,21.411 L50.973,19.620 L51.023,18.721 L51.073,17.823 L51.067,16.923 L51.061,16.023 L50.827,14.238 L50.167,12.563 L49.348,12.190 L48.529,11.817 L46.844,12.450 L46.102,12.960 L45.360,13.470 L43.989,14.635 L43.334,15.253 L42.680,15.871 L41.408,17.145 L40.161,18.443 L39.546,19.100 L38.931,19.757 L38.322,20.419 L37.713,21.082 L37.107,21.747 L36.501,22.413 L35.897,23.081 L35.294,23.748 L34.090,25.087 L33.490,25.757 L32.890,26.428 L31.694,27.773 L30.505,29.124 L29.325,30.484 L28.744,31.171 L28.162,31.858 L27.592,32.554 L27.021,33.250 L26.467,33.959 L25.913,34.669 L24.847,36.119 L24.339,36.862 L23.832,37.605 L22.866,39.124 L21.924,40.658 L20.921,42.153 L19.635,43.412 L17.851,43.647 L17.085,43.174 L16.319,42.701 L15.123,41.356 L14.134,39.852 L13.712,39.057 L13.290,38.262 L12.559,36.617 L12.245,35.774 L11.931,34.930 L11.667,34.070 L11.404,33.209 L10.984,31.459 L10.707,29.680 L10.663,27.881 L10.957,27.030 L11.251,26.179 L12.150,26.211 L13.050,26.242 L14.486,27.327 L15.109,27.976 L15.732,28.625 L16.861,30.027 L17.894,31.502 L18.364,32.269 L18.834,33.037 L19.254,33.833 L19.674,34.629 L20.401,36.275 L20.998,37.973 L21.218,38.846 L21.438,39.719 L21.564,40.610 L21.690,41.501 L21.700,43.301 L21.535,44.186 L21.370,45.071 L20.910,45.844 L20.451,46.618 L18.707,47.066 L17.906,46.655 L17.105,46.245 L15.816,44.989 L14.726,43.556 L13.774,42.029 L12.929,40.439 L12.550,39.623 L12.171,38.807 L11.830,37.974 L11.489,37.141 L11.183,36.295 L10.877,35.448 L10.605,34.590 L10.333,33.733 L10.096,32.864 L9.859,31.996 L9.467,30.239 L9.169,28.464 L9.085,27.568 L9.000,26.672 L9.058,24.873 L9.677,23.182 L11.458,22.924 L12.997,23.857 L13.674,24.450 L14.351,25.043 L15.595,26.344 L16.181,27.027 L16.766,27.711 L17.873,29.130 L18.396,29.862 L18.920,30.595 L19.906,32.100 L20.821,33.650 L21.240,34.447 L21.658,35.244 L22.031,36.063 L22.403,36.883 L23.041,38.566 L23.559,40.290 L23.943,42.048 L24.183,43.832 L24.269,45.630 L24.179,47.428 L24.029,48.315 L23.880,49.203 L23.281,50.900 L22.738,51.617 L22.194,52.335 L21.342,52.624 L20.489,52.913 L18.768,52.387 L17.312,51.329 L16.061,50.034 L14.960,48.611 L14.463,47.860 L13.967,47.109 L13.515,46.331 L13.063,45.553 L12.230,43.957 L11.464,42.328 L10.751,40.675 L10.086,39.003 L9.473,37.310 L9.188,36.457 L8.903,35.603 L8.375,33.882 L7.892,32.148 L7.453,30.402 L7.066,28.645 L6.737,26.875 L6.605,25.985 L6.473,25.094 L6.289,23.304 L6.236,21.505 L6.308,20.607 L6.380,19.710 L6.685,18.863 L6.989,18.016 L7.831,17.698 L8.673,17.380 L10.325,18.094 L11.049,18.629 L11.774,19.163 L12.446,19.761 L13.118,20.360 L14.393,21.630 L15.627,22.941 L16.827,24.282 L17.998,25.649 L19.145,27.037 L20.264,28.446 L20.809,29.162 L21.355,29.878 L21.883,30.607 L22.412,31.335 L23.429,32.820 L24.397,34.338 L25.304,35.893 L26.138,37.488 L26.891,39.123 L27.225,39.958 L27.559,40.794 L28.143,42.497 L28.658,44.222 L28.895,45.090 L29.131,45.958 L29.367,46.827 L29.603,47.695 L30.134,49.415 L30.479,50.246 L30.824,51.078 L31.851,52.556 L32.642,52.984 L33.434,53.412 L34.325,53.285 L35.216,53.158 L36.755,52.224 L38.068,50.992 L38.644,50.301 L39.220,49.609 L39.736,48.872 L40.253,48.135 L41.189,46.598 L41.620,45.808 L42.050,45.017 L42.846,43.403 L43.216,42.582 L43.586,41.762 L44.271,40.097 L44.911,38.415 L45.209,37.566 L45.508,36.717 L46.062,35.004 L46.573,33.278 L47.039,31.540 L47.249,30.665 L47.460,29.789 L47.646,28.909 L47.832,28.028 L48.149,26.257 L48.401,24.474 L48.566,22.682 L48.601,20.882 L48.513,19.987 L48.424,19.091 L47.761,17.418 L46.898,17.161 L46.035,16.905 L44.397,17.649 L42.952,18.724 L41.611,19.924 L40.333,21.192 L39.095,22.498 L38.493,23.168 L37.892,23.837 L36.712,25.197 L35.558,26.578 L34.426,27.978 L33.320,29.397 L32.244,30.840 L31.204,32.310 L30.706,33.059 L30.208,33.809 L29.269,35.344 L28.394,36.918 L27.597,38.531 L27.239,39.357 L26.882,40.183 L26.248,41.868 L25.966,42.723 L25.684,43.577 L25.424,44.439 L25.163,45.300 L24.642,47.023 L24.348,47.874 L24.054,48.725 L23.672,49.539 L23.289,50.354 L22.140,51.740 L20.440,52.332 L19.576,52.082 L18.711,51.833 L17.251,50.780 L16.626,50.132 L16.001,49.484 L15.453,48.771 L14.904,48.058 L14.410,47.305 L13.917,46.552 L13.468,45.772 L13.018,44.993 L12.605,44.193 L12.192,43.393 L11.434,41.761 L10.728,40.105 L10.074,38.428 L9.471,36.732 L9.191,35.877 L8.911,35.021 L8.396,33.297 L7.926,31.559 L7.510,29.808 L7.147,28.045 L6.996,27.158 L6.845,26.270 L6.731,25.378 L6.617,24.485 L6.560,23.587 L6.503,22.688 L6.525,21.789 L6.547,20.889 L6.922,19.129 L8.217,17.879 L9.970,18.286 L11.476,19.273 L12.161,19.856 L12.847,20.439 L13.494,21.065 L14.142,21.690 L15.385,22.992 L16.587,24.331 L17.761,25.696 L18.333,26.391 L18.905,27.086 L20.020,28.499 L21.104,29.935 L22.153,31.398 L22.656,32.144 L23.159,32.891 L24.113,34.417 L24.559,35.199 L25.005,35.981 L25.821,37.585 L26.554,39.229 L27.197,40.910 L27.475,41.766 L27.753,42.622 L28.235,44.357 L28.449,45.231 L28.664,46.105 L29.075,47.857 L29.518,49.602 L30.063,51.317 L30.450,52.130 L30.836,52.943 L31.443,53.607 L32.051,54.271 L32.920,54.502 L33.790,54.733 L35.506,54.188 L36.239,53.667 L36.973,53.145 L38.242,51.868 L39.369,50.465 L40.387,48.980 L40.850,48.209 L41.314,47.437 L42.171,45.855 L42.966,44.240 L43.709,42.600 L44.401,40.939 L45.047,39.259 L45.350,38.411 L45.652,37.563 L45.935,36.709 L46.218,35.854 L46.744,34.133 L46.987,33.267 L47.231,32.400 L47.678,30.657 L47.880,29.779 L48.082,28.902 L48.439,27.138 L48.744,25.364 L48.866,24.473 L48.987,23.581 L49.068,22.684 L49.148,21.788 L49.183,19.988 L49.111,19.091 L49.038,18.194 L48.451,16.493 L46.842,15.685 L45.159,16.322 L43.685,17.355 L43.004,17.944 L42.323,18.532 L41.028,19.782 L39.774,21.074 L38.552,22.395 L37.953,23.067 L37.353,23.738 L36.173,25.097 L35.593,25.785 L35.013,26.473 L34.441,27.168 L33.870,27.864 L32.748,29.271 L31.652,30.699 L30.586,32.150 L29.560,33.629 L28.583,35.140 L27.669,36.691 L26.823,38.280 L26.439,39.094 L26.055,39.908 L25.360,41.568 L24.721,43.251 L24.411,44.096 L24.101,44.941 L23.434,46.613 L22.606,48.211 L22.000,48.876 L21.394,49.542 L19.650,49.985 L17.973,49.332 L17.278,48.760 L16.583,48.188 L15.992,47.509 L15.400,46.831 L14.882,46.095 L14.364,45.359 L13.899,44.589 L13.434,43.818 L12.592,42.227 L11.822,40.600 L11.117,38.944 L10.472,37.263 L10.176,36.414 L9.880,35.564 L9.343,33.846 L8.861,32.111 L8.647,31.237 L8.434,30.363 L8.077,28.598 L7.793,26.821 L7.704,25.925 L7.615,25.030 L7.592,23.230 L7.863,21.451 L9.001,20.056 L9.887,20.213 L10.773,20.370 L12.274,21.364 L13.633,22.544 L14.906,23.816 L16.120,25.145 L17.289,26.514 L17.853,27.216 L18.416,27.917 L19.503,29.352 L20.548,30.818 L21.046,31.568 L21.543,32.318 L22.013,33.085 L22.483,33.853 L23.355,35.428 L24.149,37.043 L24.851,38.701 L25.453,40.397 L25.701,41.262 L25.948,42.127 L26.342,43.884 L26.490,44.772 L26.637,45.659 L26.743,46.553 L26.848,47.447 L26.990,49.242 L27.076,51.039 L27.118,52.839 L27.126,54.639 L27.102,56.439 L27.070,57.338 L27.039,58.238 L26.917,60.034 L26.796,60.925 L26.674,61.817 L26.409,62.677 L26.144,63.537 L25.551,64.215 L24.959,64.892 L23.192,65.235 L21.459,64.748 L20.683,64.292 L19.907,63.837 L18.517,62.693 L17.260,61.404 L16.109,60.021 L15.575,59.296 L15.042,58.571 L14.549,57.818 L14.056,57.065 L13.593,56.293 L13.130,55.521 L12.694,54.734 L12.257,53.947 L11.433,52.347 L11.044,51.535 L10.654,50.724 L9.913,49.084 L9.561,48.256 L9.208,47.428 L8.870,46.593 L8.533,45.759 L7.886,44.079 L7.276,42.386 L6.983,41.535 L6.690,40.684 L6.407,39.829 L6.124,38.975 L5.857,38.116 L5.590,37.256 L5.335,36.393 L5.080,35.530 L4.585,33.799 L4.356,32.929 L4.126,32.059 L3.684,30.314 L3.475,29.438 L3.266,28.563 L2.879,26.805 L2.508,25.044 L2.342,24.159 L2.176,23.275 L2.024,22.388 L1.871,21.501 L1.731,20.612 L1.591,19.723 L1.479,18.830 L1.368,17.937 L1.276,17.041 L1.184,16.146 L1.052,14.351 L1.026,13.451 L1.000,12.552 L1.035,11.652 L1.071,10.753 L1.326,8.971 L2.032,7.315 L2.835,6.910 L3.638,6.504 L4.486,6.806 L5.334,7.108 L6.082,7.608 L6.831,8.108 L8.204,9.272 L8.859,9.889 L9.514,10.506 L10.787,11.779 L12.036,13.075 L13.271,14.384 L13.886,15.041 L14.501,15.699 L15.730,17.014 L16.962,18.326 L17.581,18.979 L18.200,19.633 L18.824,20.282 L19.447,20.931 L20.705,22.218 L21.976,23.493 L23.262,24.752 L24.563,25.996 L25.883,27.220 L27.219,28.426 L28.573,29.612 L29.943,30.779 L30.636,31.354 L31.328,31.929 L32.026,32.497 L32.725,33.065 L33.427,33.628 L34.129,34.191 L34.836,34.748 L35.543,35.304 L37.021,36.332 L38.821,36.378 L39.333,35.638 L39.846,34.898 L39.883,33.999 L39.919,33.100 L39.239,33.689 L38.558,34.278 L37.886,35.948 L39.685,36.003 L40.005,35.162 L40.324,34.321 L40.247,33.424 L40.170,32.527 L39.442,33.055 L38.713,33.583 L37.865,35.171 L37.430,36.918 L39.176,37.358 L40.087,35.805 L40.383,34.955 L40.680,34.105 L40.822,32.311 L39.045,32.598 L38.539,33.343 L38.034,34.087 L37.313,35.737 L36.947,37.499 L37.351,38.303 L37.755,39.107 L39.203,38.038 L39.676,37.272 L40.148,36.506 L40.839,34.844 L41.288,33.101 L41.282,32.201 L41.276,31.301 L39.481,31.433 L38.331,32.818 L37.880,33.596 L37.429,34.375 L37.089,35.208 L36.748,36.042 L36.548,36.919 L36.349,37.797 L36.470,39.592 L38.232,39.963 L38.846,39.305 L39.460,38.647 L40.381,37.101 L40.745,36.277 L41.108,35.454 L41.660,33.741 L41.832,32.857 L42.004,31.974 L41.963,31.075 L41.921,30.176 L41.029,30.060 L40.136,29.945 L38.847,31.201 L37.790,32.658 L37.347,33.442 L36.905,34.225 L36.190,35.877 L35.681,37.604 L35.456,39.390 L35.609,40.277 L35.763,41.163 L36.603,41.487 L37.443,41.810 L38.151,41.255 L38.858,40.699 L39.930,39.253 L40.368,38.466 L40.806,37.680 L41.536,36.034 L42.136,34.337 L42.369,33.468 L42.602,32.599 L42.748,31.711 L42.894,30.823 L42.878,29.923 L42.863,29.023 L41.452,27.905 L39.934,28.873 L38.698,30.181 L37.619,31.622 L36.667,33.150 L36.255,33.950 L35.842,34.749 L35.156,36.413 L34.639,38.138 L34.337,39.912 L34.337,40.812 L34.338,41.712 L34.875,43.430 L36.505,44.193 L38.082,43.325 L39.299,41.999 L39.803,41.253 L40.307,40.508 L41.173,38.929 L41.926,37.295 L42.580,35.618 L43.142,33.908 L43.373,33.038 L43.604,32.168 L43.951,30.402 L44.132,28.611 L43.998,26.816 L42.706,25.562 L41.063,26.296 L39.709,27.482 L38.501,28.816 L37.397,30.238 L36.890,30.981 L36.383,31.725 L35.458,33.269 L35.045,34.069 L34.631,34.868 L34.273,35.694 L33.915,36.519 L33.329,38.221 L32.897,39.969 L32.773,40.860 L32.649,41.752 L32.632,43.552 L32.780,44.439 L32.929,45.327 L33.746,46.931 L34.569,47.294 L35.393,47.657 L36.234,47.335 L37.074,47.013 L37.751,46.419 L38.427,45.826 L39.564,44.430 L40.060,43.679 L40.555,42.928 L41.433,41.356 L41.828,40.548 L42.223,39.739 L42.936,38.086 L43.581,36.406 L44.159,34.701 L44.670,32.975 L45.113,31.230 L45.296,30.349 L45.479,29.468 L45.746,27.688 L45.871,25.892 L45.811,24.994 L45.752,24.096 L44.962,22.479 L44.062,22.483 L43.162,22.487 L42.402,22.969 L41.643,23.451 L40.970,24.050 L40.298,24.648 L39.049,25.945 L37.873,27.307 L36.756,28.719 L35.694,30.172 L34.689,31.665 L34.219,32.433 L33.749,33.200 L33.315,33.988 L32.880,34.777 L32.098,36.398 L31.756,37.230 L31.414,38.063 L30.842,39.770 L30.619,40.641 L30.395,41.513 L30.080,43.285 L29.904,45.077 L29.874,46.877 L30.009,48.671 L30.347,50.440 L30.660,51.283 L30.973,52.127 L32.077,53.549 L32.928,53.841 L33.779,54.133 L34.646,53.890 L35.513,53.647 L36.251,53.133 L36.990,52.618 L37.627,51.982 L38.263,51.346 L38.827,50.645 L39.391,49.943 L39.898,49.200 L40.406,48.457 L40.869,47.685 L41.331,46.913 L42.183,45.327 L42.975,43.711 L43.710,42.068 L44.053,41.235 L44.395,40.403 L45.035,38.721 L45.334,37.872 L45.633,37.023 L46.190,35.311 L46.448,34.449 L46.706,33.587 L46.944,32.719 L47.182,31.851 L47.615,30.104 L48.002,28.346 L48.335,26.577 L48.609,24.798 L48.809,23.009 L48.914,21.212 L48.851,19.413 L48.489,17.650 L47.891,16.977 L47.294,16.304 L45.513,16.565 L44.745,17.035 L43.977,17.504 L42.586,18.646 L41.271,19.875 L40.640,20.517 L40.008,21.158 L38.780,22.474 L38.180,23.145 L37.580,23.816 L36.402,25.176 L35.245,26.555 L34.108,27.951 L32.994,29.365 L31.908,30.801 L30.857,32.261 L30.351,33.006 L29.846,33.751 L29.368,34.513 L28.889,35.275 L27.995,36.838 L27.175,38.440 L26.804,39.260 L26.434,40.080 L25.769,41.753 L25.168,43.450 L24.882,44.303 L24.596,45.157 L24.001,46.855 L23.648,47.683 L23.294,48.511 L22.310,50.018 L20.796,50.992 L19.900,50.906 L19.004,50.820 L17.467,49.883 L16.172,48.633 L15.049,47.226 L14.047,45.731 L13.595,44.952 L13.143,44.174 L12.319,42.574 L11.939,41.758 L11.559,40.942 L11.211,40.112 L10.863,39.283 L10.216,37.603 L9.921,36.752 L9.626,35.902 L9.354,35.044 L9.083,34.186 L8.835,33.321 L8.587,32.456 L8.149,30.710 L7.958,29.830 L7.766,28.951 L7.605,28.065 L7.444,27.180 L7.329,26.287 L7.213,25.395 L7.149,24.497 L7.085,23.599 L7.109,22.700 L7.134,21.800 L7.567,20.053 L9.041,19.020 L9.893,19.310 L10.745,19.601 L12.212,20.644 L13.556,21.841 L14.192,22.478 L14.827,23.115 L16.045,24.441 L17.223,25.802 L18.366,27.192 L19.475,28.610 L20.548,30.055 L21.064,30.793 L21.579,31.531 L22.071,32.285 L22.562,33.039 L23.025,33.811 L23.487,34.583 L24.346,36.165 L24.734,36.977 L25.122,37.789 L25.809,39.453 L26.104,40.303 L26.399,41.153 L26.892,42.884 L27.094,43.761 L27.297,44.638 L27.630,46.407 L27.912,48.185 L28.173,49.966 L28.311,50.855 L28.449,51.745 L28.618,52.629 L28.787,53.512 L29.264,55.248 L29.640,56.066 L30.016,56.883 L30.647,57.525 L31.278,58.167 L33.040,58.535 L33.898,58.263 L34.756,57.992 L35.503,57.489 L36.249,56.986 L37.560,55.753 L38.732,54.386 L39.797,52.935 L40.288,52.181 L40.779,51.426 L41.230,50.648 L41.681,49.869 L42.105,49.075 L42.528,48.280 L43.322,46.665 L44.067,45.027 L44.418,44.198 L44.768,43.369 L45.100,42.532 L45.431,41.695 L46.059,40.008 L46.354,39.158 L46.649,38.308 L47.205,36.596 L47.468,35.735 L47.731,34.874 L48.225,33.143 L48.456,32.274 L48.688,31.404 L49.121,29.657 L49.517,27.901 L49.694,27.019 L49.872,26.136 L50.029,25.250 L50.187,24.364 L50.456,22.584 L50.562,21.691 L50.668,20.797 L50.807,19.002 L50.846,17.203 L50.792,16.304 L50.737,15.406 L50.296,13.661 L49.057,12.356 L48.165,12.476 L47.273,12.596 L46.500,13.057 L45.727,13.519 L44.314,14.634 L42.988,15.850 L41.704,17.112 L40.450,18.404 L39.833,19.059 L39.216,19.714 L37.996,21.038 L37.391,21.704 L36.786,22.370 L35.582,23.708 L34.982,24.379 L34.383,25.051 L33.786,25.724 L33.189,26.398 L32.001,27.750 L31.411,28.430 L30.822,29.110 L29.654,30.479 L28.504,31.864 L27.379,33.269 L26.833,33.985 L26.288,34.702 L25.242,36.166 L24.250,37.668 L23.312,39.205 L22.408,40.761 L21.941,41.531 L21.474,42.300 L20.910,43.001 L20.346,43.702 L18.705,44.443 L17.008,43.843 L16.347,43.233 L15.685,42.623 L15.145,41.903 L14.606,41.182 L13.686,39.635 L12.888,38.022 L12.188,36.363 L11.886,35.515 L11.584,34.668 L11.070,32.943 L10.660,31.190 L10.517,30.301 L10.375,29.413 L10.334,28.514 L10.293,27.615 L10.684,25.858 L11.554,25.627 L12.424,25.396 L13.180,25.884 L13.937,26.372 L14.587,26.994 L15.237,27.616 L15.826,28.296 L16.415,28.977 L17.500,30.413 L18.499,31.910 L19.413,33.461 L20.230,35.065 L20.584,35.893 L20.937,36.720 L21.518,38.424 L21.732,39.298 L21.946,40.173 L22.070,41.064 L22.194,41.955 L22.224,43.755 L21.964,45.536 L21.605,46.362 L21.247,47.187 L20.498,47.686 L19.748,48.185 L17.994,47.780 L16.567,46.683 L15.971,46.009 L15.375,45.334 L14.859,44.597 L14.343,43.860 L14.123,43.515 L14.343,43.860 L14.123,43.515 L14.343,43.860 L14.123,43.515"/>
</svg>
