<svg xmlns="http://www.w3.org/2000/svg" viewBox="0 0 88.699 88.699" width="256" height="256">
  <title>meadow</title>
  <rect x="0" y="0" width="88.699" height="88.699" fill="#f5efe4"/>
  <path fill="none" stroke="#31604f" stroke-width="0.4" stroke-linecap="round" stroke-linejoin="round" d="M40.700,70.380 L40.461,69.722 L40.700,70.380 L40.461,69.722 L40.700,70.380 M37.589,75.865 L37.350,75.208 L37.589,75.865 L37.350,75.208 L37.589,75.865 M39.489,67.055 L40.147,66.816 L39.489,67.055 L40.147,66.816 L39.489,67.055 L40.709,66.611 L40.829,66.993 L40.189,67.226 L39.078,67.630 L37.966,68.035 L37.381,68.674 L38.509,68.263 L39.637,67.852 L40.950,67.375 L41.070,67.756 L39.085,68.479 L37.940,68.896 L36.796,69.312 L36.406,69.880 L37.469,69.493 L38.533,69.106 L39.566,68.730 L40.600,68.353 L41.191,68.138 L41.311,68.520 L40.048,68.980 L37.980,69.732 L36.132,70.405 L35.859,70.930 L37.428,70.359 L39.495,69.607 L41.334,68.937 L41.353,69.356 L41.010,69.481 L38.943,70.233 L36.876,70.986 L35.602,71.449 L35.500,71.912 L36.323,71.613 L38.391,70.860 L40.458,70.108 L41.371,69.775 L41.389,70.194 L39.906,70.734 L37.838,71.487 L35.771,72.239 L35.397,72.375 L35.295,72.838 L37.286,72.113 L39.353,71.361 L41.407,70.613 L41.308,71.075 L40.868,71.235 L38.801,71.988 L36.734,72.740 L35.192,73.301 L35.173,73.734 L36.181,73.367 L38.249,72.614 L40.316,71.862 L41.206,71.538 L41.103,72.001 L39.764,72.489 L37.696,73.241 L35.629,73.994 L35.192,74.153 L35.210,74.572 L37.144,73.868 L39.211,73.115 L41.000,72.464 L40.801,72.963 L39.730,73.352 L38.659,73.742 L36.592,74.494 L35.228,74.991 L35.246,75.410 L36.040,75.121 L38.107,74.369 L40.174,73.616 L40.527,73.488 L40.254,74.013 L39.622,74.243 L37.555,74.995 L36.446,75.399 L35.338,75.802 L35.458,76.184 L37.002,75.622 L39.070,74.870 L39.968,74.543 L39.382,75.181 L38.517,75.496 L36.450,76.249 L35.579,76.566 L35.699,76.948 L36.832,76.535 L37.965,76.123 L38.797,75.820 L37.599,76.682 L35.819,77.330 L36.477,77.090 L35.819,77.330 L36.477,77.090 L35.819,77.330 M59.471,76.098 L59.355,75.780 L59.471,76.098 L59.355,75.780 L59.471,76.098 M55.102,78.130 L54.389,75.278 L55.464,74.887 L57.531,74.134 L58.863,73.649 L60.109,73.622 L59.046,74.008 L56.979,74.761 L54.912,75.513 L53.535,76.014 L52.949,76.653 L54.359,76.140 L56.427,75.387 L58.494,74.635 L59.665,74.209 L60.835,73.783 L61.562,73.944 L60.009,74.509 L57.942,75.262 L55.875,76.014 L53.807,76.767 L52.556,77.222 L52.282,77.747 L53.255,77.393 L55.322,76.641 L57.390,75.888 L59.457,75.136 L60.531,74.745 L61.604,74.354 L61.331,74.880 L60.972,75.010 L58.905,75.763 L56.837,76.515 L54.770,77.268 L52.703,78.020 L52.009,78.272 L52.263,78.606 L54.218,77.894 L56.285,77.142 L58.352,76.389 L60.420,75.637 L61.057,75.405 L60.597,75.998 L59.867,76.264 L57.800,77.016 L55.733,77.768 L53.665,78.521 L52.990,78.767 L53.761,78.912 L55.180,78.395 L57.248,77.643 L59.315,76.890 L60.012,76.636 L58.951,77.448 L57.823,77.859 L56.695,78.269 L55.090,78.854 L55.748,78.614 L55.090,78.854 L55.748,78.614 L55.090,78.854 M24.350,75.815 L24.421,75.118 L24.350,75.815 L24.421,75.118 L24.350,75.815 L24.528,74.074 L24.706,72.333 L23.649,70.438 L22.438,69.851 L23.649,70.438 L23.669,69.093 L23.649,70.438 L24.706,72.333 L25.977,70.574 L25.997,69.229 L25.977,70.574 L27.204,70.023 L25.977,70.574 L24.706,72.333 L24.528,74.074 L24.350,75.815 L24.421,75.118 L24.350,75.815 L24.421,75.118 L24.350,75.815 M34.350,75.760 L34.504,75.077 L34.350,75.760 L34.504,75.077 L34.350,75.760 L34.735,74.053 L35.120,72.346 L34.298,70.338 L33.166,69.610 L34.298,70.338 L34.479,69.004 L34.298,70.338 L35.120,72.346 L36.593,70.752 L36.774,69.418 L36.593,70.752 L37.877,70.352 L36.593,70.752 L35.120,72.346 L34.735,74.053 L34.350,75.760 L34.504,75.077 L34.350,75.760 L34.504,75.077 L34.350,75.760 M44.350,75.525 L44.387,74.826 L44.350,75.525 L44.387,74.826 L44.350,75.525 L44.443,73.778 L44.537,72.030 L43.389,70.189 L42.151,69.661 L43.389,70.189 L43.344,68.844 L43.389,70.189 L44.537,72.030 L45.721,70.212 L45.675,68.867 L45.721,70.212 L46.920,69.602 L45.721,70.212 L44.537,72.030 L44.443,73.778 L44.350,75.525 L44.387,74.826 L44.350,75.525 L44.387,74.826 L44.350,75.525 M54.350,75.579 L54.211,74.893 L54.350,75.579 L54.211,74.893 L54.350,75.579 L54.004,73.864 L53.658,72.148 L52.087,70.651 L50.757,70.450 L52.087,70.651 L51.707,69.361 L52.087,70.651 L53.658,72.148 L54.350,70.091 L53.971,68.801 L54.350,70.091 L55.360,69.202 L54.350,70.091 L53.658,72.148 L54.004,73.864 L54.350,75.579 L54.211,74.893 L54.350,75.579 L54.211,74.893 L54.350,75.579 M64.350,74.797 L64.193,74.115 L64.350,74.797 L64.193,74.115 L64.350,74.797 L63.958,73.092 L63.566,71.386 L61.955,69.932 L60.619,69.767 L61.955,69.932 L61.540,68.652 L61.955,69.932 L63.566,71.386 L64.202,69.312 L63.788,68.032 L64.202,69.312 L65.187,68.395 L64.202,69.312 L63.566,71.386 L63.958,73.092 L64.350,74.797 L64.193,74.115 L64.350,74.797 L64.193,74.115 L64.350,74.797"/>
  <path fill="none" stroke="#d9a441" stroke-width="0.4" stroke-linecap="round" stroke-linejoin="round" d="M46.783,54.828 L46.083,54.832 L46.783,54.828 L46.083,54.832 L46.783,54.828 L45.366,54.837 L45.552,55.136 L45.366,54.837 L45.261,54.501 L45.366,54.837 L45.261,54.501 L45.244,54.149 L45.261,54.501 L45.244,54.149 L45.314,53.804 L45.244,54.149 L45.314,53.804 L45.468,53.488 L45.314,53.804 L45.468,53.488 L45.697,53.220 L45.468,53.488 L45.697,53.220 L45.984,53.017 L45.697,53.220 L45.984,53.017 L46.314,52.893 L45.984,53.017 L46.314,52.893 L46.664,52.855 L46.314,52.893 L46.664,52.855 L47.186,52.930 L46.664,52.855 L47.186,52.930 L47.674,53.133 L47.186,52.930 L47.674,53.133 L48.095,53.452 L47.674,53.133 L48.095,53.452 L48.423,53.865 L48.095,53.452 L48.423,53.865 L48.638,54.347 L48.423,53.865 L48.638,54.347 L48.726,54.868 L48.638,54.347 L48.726,54.868 L48.681,55.394 L48.726,54.868 L48.681,55.394 L48.506,55.892 L48.681,55.394 L48.506,55.892 L48.213,56.331 L48.506,55.892 L48.213,56.331 L47.688,56.801 L48.213,56.331 L47.688,56.801 L47.063,57.124 L47.688,56.801 L47.063,57.124 L46.377,57.281 L47.063,57.124 L46.377,57.281 L45.673,57.263 L46.377,57.281 L45.673,57.263 L44.996,57.069 L45.673,57.263 L44.996,57.069 L44.389,56.712 L44.996,57.069 L44.389,56.712 L43.890,56.215 L44.389,56.712 L43.890,56.215 L43.531,55.610 L43.890,56.215 L43.531,55.610 L43.334,54.934 L43.531,55.610 L43.334,54.934 L43.530,55.606 L43.334,54.934 L43.530,55.606 L43.334,54.934"/>
  <path fill="none" stroke="#8c4a6b" stroke-width="0.4" stroke-linecap="round" stroke-linejoin="round" d="M43.072,21.235 L43.410,21.848 L43.072,21.235 L43.410,21.848 L43.072,21.235 L44.043,23.000 L45.014,24.766 L45.985,26.531 L45.014,24.766 L44.043,23.000 L43.072,21.235 L42.849,22.003 L42.287,23.938 L41.726,25.873 L41.164,27.808 L41.726,25.873 L42.287,23.938 L42.849,22.003 L42.148,22.388 L40.383,23.359 L38.617,24.330 L36.852,25.301 L38.617,24.330 L40.383,23.359 L42.148,22.388 L41.380,22.165 L39.445,21.603 L37.510,21.042 L35.575,20.480 L37.510,21.042 L39.445,21.603 L41.380,22.165 L40.994,21.464 L40.023,19.699 L39.053,17.933 L38.082,16.168 L39.053,17.933 L40.023,19.699 L40.994,21.464 L41.217,20.696 L41.779,18.761 L42.341,16.826 L42.903,14.891 L42.341,16.826 L41.779,18.761 L41.217,20.696 L41.918,20.311 L43.684,19.340 L45.449,18.369 L47.215,17.398 L45.449,18.369 L43.684,19.340 L41.918,20.311 L42.687,20.534 L44.622,21.095 L46.557,21.657 L48.492,22.219 L46.557,21.657 L44.622,21.095 L42.687,20.534 L43.072,21.235 L42.735,20.621 L43.072,21.235 L42.735,20.621 L43.072,21.235"/>
  <path fill="none" stroke="#3a4e8c" stroke-width="0.4" stroke-linecap="round" stroke-linejoin="round" d="M22.642,50.495 L22.665,51.195 L22.642,50.495 L22.665,51.195 L22.642,50.495 L22.689,51.911 L22.983,51.717 L22.689,51.911 L22.356,52.025 L22.689,51.911 L22.356,52.025 L22.005,52.052 L22.356,52.025 L22.005,52.052 L21.658,51.992 L22.005,52.052 L21.658,51.992 L21.338,51.846 L21.658,51.992 L21.338,51.846 L21.064,51.625 L21.338,51.846 L21.064,51.625 L20.853,51.343 L21.064,51.625 L20.853,51.343 L20.720,51.017 L20.853,51.343 L20.720,51.017 L20.672,50.669 L20.720,51.017 L20.672,50.669 L20.733,50.144 L20.672,50.669 L20.733,50.144 L20.923,49.652 L20.733,50.144 L20.923,49.652 L21.229,49.222 L20.923,49.652 L21.229,49.222 L21.633,48.882 L21.229,49.222 L21.633,48.882 L22.110,48.654 L21.633,48.882 L22.110,48.654 L22.628,48.552 L22.110,48.654 L22.628,48.552 L23.155,48.582 L22.628,48.552 L23.155,48.582 L23.658,48.743 L23.155,48.582 L23.658,48.743 L24.105,49.024 L23.658,48.743 L24.105,49.024 L24.588,49.536 L24.105,49.024 L24.588,49.536 L24.929,50.152 L24.588,49.536 L24.929,50.152 L25.105,50.833 L24.929,50.152 L25.105,50.833 L25.106,51.537 L25.105,50.833 L25.106,51.537 L24.930,52.219 L25.106,51.537 L24.930,52.219 L24.591,52.836 L24.930,52.219 L24.591,52.836 L24.108,53.348 L24.591,52.836 L24.108,53.348 L23.513,53.724 L24.108,53.348 L23.513,53.724 L22.843,53.940 L23.513,53.724 L22.843,53.940 L23.509,53.726 L22.843,53.940 L23.509,53.726 L22.843,53.940"/>
  <path fill="none" stroke="#d9a441" stroke-width="0.4" stroke-linecap="round" stroke-linejoin="round" d="M49.630,52.740 L48.989,52.460 L49.630,52.740 L48.989,52.460 L49.630,52.740 L48.332,52.172 L48.380,52.521 L48.332,52.172 L48.373,51.823 L48.332,52.172 L48.373,51.823 L48.499,51.494 L48.373,51.823 L48.499,51.494 L48.704,51.208 L48.499,51.494 L48.704,51.208 L48.973,50.981 L48.704,51.208 L48.973,50.981 L49.291,50.829 L48.973,50.981 L49.291,50.829 L49.636,50.761 L49.291,50.829 L49.636,50.761 L49.988,50.781 L49.636,50.761 L49.988,50.781 L50.323,50.888 L49.988,50.781 L50.323,50.888 L50.770,51.169 L50.323,50.888 L50.770,51.169 L51.133,51.553 L50.770,51.169 L51.133,51.553 L51.388,52.015 L51.133,51.553 L51.388,52.015 L51.520,52.526 L51.388,52.015 L51.520,52.526 L51.521,53.054 L51.520,52.526 L51.521,53.054 L51.389,53.566 L51.521,53.054 L51.389,53.566 L51.135,54.028 L51.389,53.566 L51.135,54.028 L50.773,54.413 L51.135,54.028 L50.773,54.413 L50.326,54.695 L50.773,54.413 L50.326,54.695 L49.656,54.910 L50.326,54.695 L49.656,54.910 L48.953,54.952 L49.656,54.910 L48.953,54.952 L48.262,54.817 L48.953,54.952 L48.262,54.817 L47.627,54.514 L48.262,54.817 L47.627,54.514 L47.087,54.062 L47.627,54.514 L47.087,54.062 L46.677,53.489 L47.087,54.062 L46.677,53.489 L46.423,52.833 L46.677,53.489 L46.423,52.833 L46.341,52.133 L46.423,52.833 L46.341,52.133 L46.435,51.436 L46.341,52.133 L46.435,51.436 L46.341,52.129 L46.435,51.436 L46.341,52.129 L46.435,51.436"/>
  <path fill="none" stroke="#8c4a6b" stroke-width="0.4" stroke-linecap="round" stroke-linejoin="round" d="M66.382,22.913 L65.703,22.740 L66.382,22.913 L65.703,22.740 L66.382,22.913 L65.276,22.631 L64.281,22.074 L63.464,21.278 L62.882,20.297 L62.572,19.199 L62.558,18.059 L63.663,18.340 L64.658,18.898 L65.475,19.694 L66.058,20.674 L66.367,21.772 L66.382,22.913 L66.027,22.086 L65.717,20.988 L65.703,19.847 L65.984,18.742 L66.542,17.747 L67.338,16.930 L68.318,16.347 L68.628,17.445 L68.642,18.586 L68.361,19.691 L67.803,20.686 L67.007,21.503 L66.027,22.086 L66.565,21.365 L67.362,20.548 L68.342,19.965 L69.440,19.656 L70.580,19.641 L71.686,19.922 L72.681,20.480 L71.885,21.297 L70.904,21.880 L69.806,22.189 L68.666,22.203 L67.560,21.922 L66.565,21.365 L67.459,21.471 L68.564,21.752 L69.559,22.310 L70.376,23.106 L70.959,24.086 L71.268,25.184 L71.283,26.325 L70.177,26.043 L69.182,25.486 L68.366,24.690 L67.783,23.709 L67.474,22.611 L67.459,21.471 L67.814,22.298 L68.123,23.396 L68.138,24.536 L67.857,25.642 L67.299,26.637 L66.503,27.453 L65.522,28.036 L65.213,26.938 L65.199,25.798 L65.480,24.692 L66.037,23.697 L66.834,22.881 L67.814,22.298 L67.275,23.019 L66.479,23.835 L65.499,24.418 L64.401,24.728 L63.260,24.742 L62.155,24.461 L61.160,23.903 L61.956,23.087 L62.936,22.504 L64.034,22.194 L65.175,22.180 L66.280,22.461 L67.275,23.019 L66.382,22.913 L66.013,22.819 L65.681,22.633 L65.409,22.368 L65.215,22.041 L65.112,21.675 L65.107,21.295 L65.201,20.926 L65.387,20.594 L65.652,20.322 L65.979,20.128 L66.345,20.025 L66.725,20.020 L67.093,20.114 L67.425,20.300 L67.697,20.565 L67.892,20.892 L67.995,21.258 L68.000,21.638 L67.906,22.006 L67.720,22.338 L67.455,22.610 L67.128,22.805 L66.762,22.908 L66.382,22.913 L66.762,22.908 L66.382,22.913 L66.762,22.908 L66.382,22.913"/>
  <path fill="none" stroke="#3a4e8c" stroke-width="0.4" stroke-linecap="round" stroke-linejoin="round" d="M28.457,55.875 L27.758,55.915 L28.457,55.875 L27.758,55.915 L28.457,55.875 L26.829,55.968 L25.202,56.061 L23.574,56.154 L25.202,56.061 L26.829,55.968 L28.457,55.875 L27.860,55.343 L26.643,54.258 L25.427,53.173 L24.210,52.088 L25.427,53.173 L26.643,54.258 L27.860,55.343 L27.814,54.544 L27.721,52.917 L27.628,51.289 L27.535,49.662 L27.628,51.289 L27.721,52.917 L27.814,54.544 L28.347,53.947 L29.432,52.730 L30.517,51.514 L31.602,50.297 L30.517,51.514 L29.432,52.730 L28.347,53.947 L29.145,53.901 L30.773,53.808 L32.400,53.715 L34.028,53.622 L32.400,53.715 L30.773,53.808 L29.145,53.901 L29.743,54.434 L30.959,55.519 L32.176,56.604 L33.392,57.689 L32.176,56.604 L30.959,55.519 L29.743,54.434 L29.788,55.233 L29.881,56.860 L29.974,58.488 L30.067,60.115 L29.974,58.488 L29.881,56.860 L29.788,55.233 L29.256,55.830 L28.171,57.046 L27.086,58.263 L26.001,59.479 L27.086,58.263 L28.171,57.046 L29.256,55.830 L28.457,55.875 L29.156,55.835 L28.457,55.875 L29.156,55.835 L28.457,55.875"/>
  <path fill="none" stroke="#d9a441" stroke-width="0.4" stroke-linecap="round" stroke-linejoin="round" d="M21.728,25.633 L21.446,26.274 L21.728,25.633 L21.446,26.274 L21.728,25.633 L21.159,26.930 L21.507,26.883 L21.159,26.930 L20.809,26.890 L21.159,26.930 L20.809,26.890 L20.481,26.763 L20.809,26.890 L20.481,26.763 L20.194,26.558 L20.481,26.763 L20.194,26.558 L19.968,26.289 L20.194,26.558 L19.968,26.289 L19.816,25.971 L19.968,26.289 L19.816,25.971 L19.748,25.626 L19.816,25.971 L19.748,25.626 L19.769,25.274 L19.748,25.626 L19.769,25.274 L19.876,24.939 L19.769,25.274 L19.876,24.939 L20.158,24.492 L19.876,24.939 L20.158,24.492 L20.542,24.130 L20.158,24.492 L20.542,24.130 L21.004,23.875 L20.542,24.130 L21.004,23.875 L21.515,23.743 L21.004,23.875 L21.515,23.743 L22.043,23.743 L21.515,23.743 L22.043,23.743 L22.555,23.875 L22.043,23.743 L22.555,23.875 L23.017,24.130 L22.555,23.875 L23.017,24.130 L23.401,24.492 L23.017,24.130 L23.401,24.492 L23.683,24.939 L23.401,24.492 L23.683,24.939 L23.898,25.609 L23.683,24.939 L23.898,25.609 L23.939,26.312 L23.898,25.609 L23.939,26.312 L23.803,27.003 L23.939,26.312 L23.803,27.003 L23.499,27.638 L23.803,27.003 L23.499,27.638 L23.047,28.177 L23.499,27.638 L23.047,28.177 L22.474,28.587 L23.047,28.177 L22.474,28.587 L21.817,28.840 L22.474,28.587 L21.817,28.840 L21.118,28.922 L21.817,28.840 L21.118,28.922 L20.420,28.827 L21.118,28.922 L20.420,28.827 L21.114,28.922 L20.420,28.827 L21.114,28.922 L20.420,28.827"/>
  <path fill="none" stroke="#2b2b2b" stroke-width="0.4" stroke-linecap="round" stroke-linejoin="round" d="M44.350,2.350 L45.049,2.368 L44.350,2.350 L45.049,2.368 L44.350,2.350 M44.350,2.350 L44.754,3.711 L45.264,1.023 L45.633,3.734 L46.143,1.046 L46.512,3.757 L47.092,1.096 L47.319,3.822 L47.969,1.165 L48.195,3.891 L48.846,1.234 L49.000,3.975 L49.788,1.356 L49.872,4.090 L50.660,1.471 L50.744,4.205 L51.598,1.619 L51.539,4.354 L52.463,1.780 L52.403,4.515 L53.328,1.940 L53.194,4.683 L54.252,2.160 L54.050,4.888 L55.107,2.365 L54.905,5.093 L56.025,2.611 L55.680,5.325 L56.868,2.861 L56.523,5.575 L57.712,3.111 L57.292,5.825 L58.608,3.426 L58.121,6.118 L59.437,3.720 L58.950,6.412 L60.324,4.060 L59.697,6.723 L61.137,4.397 L60.510,7.060 L61.949,4.733 L61.248,7.388 L62.808,5.141 L62.042,7.767 L63.601,5.519 L62.836,8.146 L64.448,5.951 L63.546,8.533 L65.221,6.370 L64.319,8.953 L65.994,6.790 L65.019,9.357 L66.805,7.285 L65.769,9.817 L67.555,7.745 L66.519,10.276 L68.351,8.262 L67.185,10.736 L69.076,8.760 L67.909,11.234 L69.801,9.258 L68.564,11.710 L70.556,9.835 L69.261,12.245 L71.254,10.371 L69.959,12.780 L71.992,10.968 L70.573,13.307 L72.661,11.540 L71.242,13.878 L73.330,12.111 L71.843,14.419 L74.020,12.764 L72.481,15.025 L74.658,13.369 L73.119,15.630 L75.330,14.041 L73.674,16.218 L75.935,14.679 L74.280,16.856 L76.541,15.317 L74.821,17.457 L77.159,16.038 L75.392,18.126 L77.731,16.707 L75.963,18.795 L78.328,17.445 L76.454,19.438 L78.864,18.143 L76.990,20.135 L79.399,18.841 L77.465,20.790 L79.939,19.623 L77.963,21.514 L80.437,20.348 L78.461,22.239 L80.955,21.144 L78.882,22.930 L81.414,21.894 L79.342,23.680 L81.874,22.644 L79.746,24.380 L82.329,23.478 L80.166,25.153 L82.748,24.251 L80.585,25.926 L83.180,25.098 L80.932,26.657 L83.558,25.892 L81.311,27.451 L83.937,26.685 L81.640,28.190 L84.302,27.563 L81.976,29.002 L84.639,28.375 L82.313,29.815 L84.979,29.262 L82.581,30.578 L85.273,30.091 L82.875,31.407 L85.566,30.920 L83.124,32.176 L85.838,31.831 L83.374,33.019 L86.088,32.674 L83.624,33.863 L86.334,33.592 L83.811,34.650 L86.539,34.447 L84.016,35.505 L86.744,35.302 L84.184,36.296 L86.919,36.236 L84.345,37.160 L87.080,37.101 L84.505,38.025 L87.228,38.039 L84.609,38.828 L87.343,38.911 L84.724,39.700 L87.458,39.783 L84.808,40.504 L87.534,40.730 L84.877,41.381 L87.603,41.607 L84.946,42.257 L87.653,42.556 L84.965,43.066 L87.676,43.435 L84.988,43.945 L87.699,44.314 L84.988,44.754 L87.676,45.264 L84.965,45.633 L87.653,46.143 L84.942,46.512 L87.603,47.092 L84.877,47.319 L87.534,47.969 L84.808,48.195 L87.465,48.846 L84.724,49.000 L87.343,49.788 L84.609,49.872 L87.228,50.660 L84.494,50.744 L87.080,51.598 L84.345,51.539 L86.919,52.463 L84.184,52.403 L86.759,53.328 L84.016,53.194 L86.539,54.252 L83.811,54.050 L86.334,55.107 L83.606,54.905 L86.088,56.025 L83.374,55.680 L85.838,56.868 L83.124,56.523 L85.588,57.712 L82.875,57.292 L85.273,58.608 L82.581,58.121 L84.979,59.437 L82.287,58.950 L84.639,60.324 L81.976,59.697 L84.302,61.137 L81.640,60.510 L83.966,61.949 L81.311,61.248 L83.558,62.808 L80.932,62.042 L83.180,63.601 L80.553,62.836 L82.748,64.448 L80.166,63.546 L82.329,65.221 L79.746,64.319 L81.909,65.994 L79.342,65.019 L81.414,66.805 L78.882,65.769 L80.955,67.555 L78.423,66.519 L80.437,68.351 L77.963,67.185 L79.939,69.076 L77.465,67.909 L79.441,69.801 L76.990,68.564 L78.864,70.556 L76.454,69.261 L78.328,71.254 L75.919,69.959 L77.731,71.992 L75.392,70.573 L77.159,72.661 L74.821,71.242 L76.588,73.330 L74.280,71.843 L75.935,74.020 L73.674,72.481 L75.330,74.658 L73.069,73.119 L74.658,75.330 L72.481,73.674 L74.020,75.935 L71.843,74.280 L73.382,76.541 L71.242,74.821 L72.661,77.159 L70.573,75.392 L71.992,77.731 L69.904,75.963 L71.254,78.328 L69.261,76.454 L70.556,78.864 L68.564,76.990 L69.858,79.399 L67.909,77.465 L69.076,79.939 L67.185,77.963 L68.351,80.437 L66.460,78.461 L67.555,80.955 L65.769,78.882 L66.805,81.414 L65.019,79.342 L66.055,81.874 L64.319,79.746 L65.221,82.329 L63.546,80.166 L64.448,82.748 L62.773,80.585 L63.601,83.180 L62.042,80.932 L62.808,83.558 L61.248,81.311 L62.014,83.937 L60.510,81.640 L61.137,84.302 L59.697,81.976 L60.324,84.639 L58.884,82.313 L59.437,84.979 L58.121,82.581 L58.608,85.273 L57.292,82.875 L57.779,85.566 L56.523,83.124 L56.868,85.838 L55.680,83.374 L56.025,86.088 L54.837,83.624 L55.107,86.334 L54.050,83.811 L54.252,86.539 L53.194,84.016 L53.397,86.744 L52.403,84.184 L52.463,86.919 L51.539,84.345 L51.598,87.080 L50.674,84.505 L50.660,87.228 L49.872,84.609 L49.788,87.343 L49.000,84.724 L48.916,87.458 L48.195,84.808 L47.969,87.534 L47.319,84.877 L47.092,87.603 L46.442,84.946 L46.143,87.653 L45.633,84.965 L45.264,87.676 L44.754,84.988 L44.385,87.699 L43.945,84.988 L43.435,87.676 L43.066,84.965 L42.556,87.653 L42.187,84.942 L41.607,87.603 L41.381,84.877 L40.730,87.534 L40.504,84.808 L39.853,87.465 L39.700,84.724 L38.911,87.343 L38.828,84.609 L38.039,87.228 L37.956,84.494 L37.101,87.080 L37.160,84.345 L36.236,86.919 L36.296,84.184 L35.371,86.759 L35.505,84.016 L34.447,86.539 L34.650,83.811 L33.592,86.334 L33.794,83.606 L32.674,86.088 L33.019,83.374 L31.831,85.838 L32.176,83.124 L30.987,85.588 L31.407,82.875 L30.091,85.273 L30.578,82.581 L29.262,84.979 L29.749,82.287 L28.375,84.639 L29.002,81.976 L27.563,84.302 L28.190,81.640 L26.750,83.966 L27.451,81.311 L25.892,83.558 L26.657,80.932 L25.098,83.180 L25.863,80.553 L24.251,82.748 L25.153,80.166 L23.478,82.329 L24.380,79.746 L22.705,81.909 L23.680,79.342 L21.894,81.414 L22.930,78.882 L21.144,80.955 L22.180,78.423 L20.348,80.437 L21.514,77.963 L19.623,79.939 L20.790,77.465 L18.898,79.441 L20.135,76.990 L18.143,78.864 L19.438,76.454 L17.445,78.328 L18.740,75.919 L16.707,77.731 L18.126,75.392 L16.038,77.159 L17.457,74.821 L15.369,76.588 L16.856,74.280 L14.679,75.935 L16.218,73.674 L14.041,75.330 L15.580,73.069 L13.369,74.658 L15.025,72.481 L12.764,74.020 L14.419,71.843 L12.158,73.382 L13.878,71.242 L11.540,72.661 L13.307,70.573 L10.968,71.992 L12.736,69.904 L10.371,71.254 L12.245,69.261 L9.835,70.556 L11.710,68.564 L9.300,69.858 L11.234,67.909 L8.760,69.076 L10.736,67.185 L8.262,68.351 L10.238,66.460 L7.745,67.555 L9.817,65.769 L7.285,66.805 L9.357,65.019 L6.825,66.055 L8.953,64.319 L6.370,65.221 L8.533,63.546 L5.951,64.448 L8.114,62.773 L5.519,63.601 L7.767,62.042 L5.141,62.808 L7.388,61.248 L4.762,62.014 L7.060,60.510 L4.397,61.137 L6.723,59.697 L4.060,60.324 L6.386,58.884 L3.720,59.437 L6.118,58.121 L3.426,58.608 L5.825,57.292 L3.133,57.779 L5.575,56.523 L2.861,56.868 L5.325,55.680 L2.611,56.025 L5.075,54.837 L2.365,55.107 L4.888,54.050 L2.160,54.252 L4.683,53.194 L1.955,53.397 L4.515,52.403 L1.780,52.463 L4.354,51.539 L1.619,51.598 L4.194,50.674 L1.471,50.660 L4.090,49.872 L1.356,49.788 L3.975,49.000 L1.241,48.916 L3.891,48.195 L1.165,47.969 L3.822,47.319 L1.096,47.092 L3.753,46.442 L1.046,46.143 L3.734,45.633 L1.023,45.264 L3.711,44.754 L1.000,44.385 L3.711,43.945 L1.023,43.435 L3.734,43.066 L1.046,42.556 L3.757,42.187 L1.096,41.607 L3.822,41.381 L1.165,40.730 L3.891,40.504 L1.234,39.853 L3.975,39.700 L1.356,38.911 L4.090,38.828 L1.471,38.039 L4.205,37.956 L1.619,37.101 L4.354,37.160 L1.780,36.236 L4.515,36.296 L1.940,35.371 L4.683,35.505 L2.160,34.447 L4.888,34.650 L2.365,33.592 L5.093,33.794 L2.611,32.674 L5.325,33.019 L2.861,31.831 L5.575,32.176 L3.111,30.987 L5.825,31.407 L3.426,30.091 L6.118,30.578 L3.720,29.262 L6.412,29.749 L4.060,28.375 L6.723,29.002 L4.397,27.563 L7.060,28.190 L4.733,26.750 L7.388,27.451 L5.141,25.892 L7.767,26.657 L5.519,25.098 L8.146,25.863 L5.951,24.251 L8.533,25.153 L6.370,23.478 L8.953,24.380 L6.790,22.705 L9.357,23.680 L7.285,21.894 L9.817,22.930 L7.745,21.144 L10.276,22.180 L8.262,20.348 L10.736,21.514 L8.760,19.623 L11.234,20.790 L9.258,18.898 L11.710,20.135 L9.835,18.143 L12.245,19.438 L10.371,17.445 L12.780,18.740 L10.968,16.707 L13.307,18.126 L11.540,16.038 L13.878,17.457 L12.111,15.369 L14.419,16.856 L12.764,14.679 L15.025,16.218 L13.369,14.041 L15.630,15.580 L14.041,13.369 L16.218,15.025 L14.679,12.764 L16.856,14.419 L15.317,12.158 L17.457,13.878 L16.038,11.540 L18.126,13.307 L16.707,10.968 L18.795,12.736 L17.445,10.371 L19.438,12.245 L18.143,9.835 L20.135,11.710 L18.841,9.300 L20.790,11.234 L19.623,8.760 L21.514,10.736 L20.348,8.262 L22.239,10.238 L21.144,7.745 L22.930,9.817 L21.894,7.285 L23.680,9.357 L22.644,6.825 L24.380,8.953 L23.478,6.370 L25.153,8.533 L24.251,5.951 L25.926,8.114 L25.098,5.519 L26.657,7.767 L25.892,5.141 L27.451,7.388 L26.685,4.762 L28.190,7.060 L27.563,4.397 L29.002,6.723 L28.375,4.060 L29.815,6.386 L29.262,3.720 L30.578,6.118 L30.091,3.426 L31.407,5.825 L30.920,3.133 L32.176,5.575 L31.831,2.861 L33.019,5.325 L32.674,2.611 L33.863,5.075 L33.592,2.365 L34.650,4.888 L34.447,2.160 L35.505,4.683 L35.302,1.955 L36.296,4.515 L36.236,1.780 L37.160,4.354 L37.101,1.619 L38.025,4.194 L38.039,1.471 L38.828,4.090 L38.911,1.356 L39.700,3.975 L39.783,1.241 L40.504,3.891 L40.730,1.165 L41.381,3.822 L41.607,1.096 L42.257,3.753 L42.556,1.046 L43.066,3.734 L43.435,1.023 L43.945,3.711 L44.314,1.000 L44.220,1.694 L44.314,1.000 L44.220,1.694 L44.314,1.000"/>
</svg>
