<svg xmlns="http://www.w3.org/2000/svg" viewBox="0 -3.302 82.173 82.173" width="256" height="256">
  <title>meandering-spiral</title>
  <rect x="0" y="-3.302" width="82.173" height="82.173" fill="#f5efe4"/>
  <path fill="none" stroke="#c8472f" stroke-width="0.4" stroke-linecap="round" stroke-linejoin="round" d="M39.079,37.377 L39.346,37.205 L39.079,37.377 L39.346,37.205 L39.079,37.377 L39.346,37.205 L39.658,37.642 L39.213,38.323 L38.114,38.212 L37.554,36.924 L38.443,35.591 L40.016,35.454 L41.244,36.413 L41.584,37.927 L40.999,39.356 L39.745,40.225 L38.209,40.347 L36.829,39.684 L35.872,38.512 L35.548,36.996 L35.932,35.554 L36.817,34.299 L38.137,33.558 L39.649,33.365 L41.134,33.758 L42.378,34.582 L43.202,35.888 L43.584,37.330 L43.451,38.847 L42.805,40.274 L41.798,41.400 L40.493,42.117 L38.977,42.419 L37.512,42.182 L36.026,41.642 L34.879,40.654 L34.084,39.357 L33.698,37.984 L33.651,36.474 L33.981,35.003 L34.707,33.704 L35.825,32.576 L37.135,31.856 L38.543,31.457 L40.058,31.358 L41.499,31.793 L42.743,32.478 L43.922,33.414 L44.798,34.678 L45.350,36.032 L45.557,37.527 L45.370,38.996 L44.903,40.452 L44.150,41.874 L43.152,42.928 L41.846,43.632 L40.358,44.043 L38.974,44.345 L37.447,44.353 L35.929,43.856 L34.663,42.979 L33.680,41.970 L32.811,40.900 L32.114,39.513 L31.711,38.069 L31.644,36.682 L31.892,35.238 L32.389,33.804 L33.190,32.492 L34.187,31.373 L35.252,30.362 L36.703,29.602 L38.324,29.259 L39.798,29.204 L41.305,29.499 L42.871,30.026 L44.172,30.852 L45.139,31.913 L46.091,33.030 L46.988,34.212 L47.382,35.530 L47.436,37.009 L47.372,38.633 L47.008,40.160 L46.416,41.490 L45.804,42.722 L44.949,43.751 L43.753,44.649 L42.383,45.441 L41.049,46.008 L39.607,46.303 L38.088,46.280 L36.644,46.034 L35.229,45.606 L33.791,44.987 L32.424,44.012 L31.411,42.714 L30.798,41.417 L30.289,40.200 L29.769,38.828 L29.448,37.244 L29.467,35.659 L29.761,34.152 L30.378,32.821 L31.365,31.655 L32.508,30.498 L33.551,29.305 L34.619,28.301 L35.937,27.713 L37.460,27.433 L38.990,27.369 L40.450,27.565 L41.796,28.011 L43.059,28.468 L44.315,29.024 L45.563,29.860 L46.856,30.883 L48.063,31.948 L48.888,33.119 L49.345,34.466 L49.609,36.074 L49.623,37.818 L49.363,39.326 L49.121,40.620 L48.783,41.920 L48.005,43.211 L46.924,44.421 L45.849,45.643 L44.737,46.859 L43.358,47.695 L41.801,48.001 L40.325,48.006 L38.995,48.085 L37.650,48.331 L36.077,48.255 L34.530,47.614 L33.310,46.800 L32.254,46.130 L31.148,45.417 L30.085,44.294 L29.216,42.783 L28.500,41.263 L27.816,39.853 L27.411,38.399 L27.519,36.901 L27.956,35.511 L28.394,34.234 L28.788,32.957 L29.319,31.630 L30.041,30.303 L30.857,29.001 L31.814,27.786 L32.991,26.746 L34.368,25.975 L35.868,25.461 L37.463,25.201 L39.103,25.163 L40.720,25.159 L42.241,25.311 L43.492,25.797 L44.518,26.575 L45.593,27.497 L46.835,28.490 L48.080,29.538 L49.217,30.607 L50.273,31.730 L51.229,33.011 L51.788,34.494 L51.822,36.050 L51.645,37.555 L51.597,39.074 L51.509,40.696 L51.001,42.269 L49.985,43.536 L48.879,44.532 L48.059,45.516 L47.444,46.631 L46.706,47.785 L45.654,48.828 L44.323,49.742 L42.787,50.460 L41.171,50.826 L39.604,50.738 L38.126,50.388 L36.676,49.992 L35.204,49.615 L33.701,49.142 L32.266,48.438 L31.033,47.618 L30.054,46.772 L29.214,45.901 L28.265,44.945 L27.111,43.727 L26.543,42.947 L25.974,42.167 L25.600,41.300 L25.225,40.434 L25.063,38.793 L25.340,37.327 L25.738,36.002 L26.082,34.707 L26.459,33.385 L26.900,32.053 L27.421,30.684 L28.131,29.319 L29.116,28.083 L30.296,26.991 L31.553,25.966 L32.880,25.040 L34.330,24.429 L35.803,24.148 L37.181,23.912 L38.532,23.520 L39.986,23.142 L41.528,23.050 L43.051,23.250 L44.487,23.637 L45.776,24.202 L46.892,25.033 L47.867,26.206 L48.810,27.558 L49.868,28.913 L51.053,30.179 L52.174,31.372 L53.015,32.594 L53.561,33.934 L53.899,35.447 L54.038,37.064 L54.019,38.644 L53.905,40.151 L53.702,41.575 L53.341,42.889 L52.748,44.083 L51.867,45.164 L50.688,46.111 L49.424,46.996 L48.352,47.909 L47.499,48.956 L46.601,50.145 L45.371,51.284 L44.557,51.691 L43.742,52.099 L42.833,52.303 L41.924,52.506 L40.138,52.614 L38.446,52.549 L36.897,52.309 L35.549,51.907 L34.384,51.568 L33.260,51.376 L32.025,51.084 L30.687,50.360 L29.398,49.157 L28.293,47.802 L27.340,46.640 L26.295,45.742 L25.126,44.791 L24.204,43.589 L23.819,42.203 L23.882,40.755 L24.128,39.258 L24.295,37.656 L24.192,35.907 L24.025,34.978 L23.859,34.049 L23.770,33.102 L23.681,32.155 L23.853,31.269 L24.024,30.383 L24.856,28.899 L25.924,27.768 L26.995,26.965 L27.903,26.263 L28.693,25.363 L29.602,24.172 L30.229,23.521 L30.856,22.871 L31.631,22.331 L32.406,21.792 L34.009,21.248 L35.490,21.365 L36.832,21.839 L38.082,22.157 L39.342,22.049 L40.763,21.671 L42.398,21.316 L44.170,21.303 L45.060,21.548 L45.950,21.793 L46.789,22.236 L47.628,22.680 L48.376,23.228 L49.125,23.776 L49.792,24.388 L50.459,25.000 L51.566,26.351 L52.329,27.790 L52.780,29.137 L53.015,30.288 L53.224,31.306 L53.598,32.360 L54.182,33.609 L54.837,35.112 L55.112,35.969 L55.387,36.827 L55.540,37.734 L55.692,38.642 L55.737,39.557 L55.783,40.473 L55.729,41.377 L55.674,42.282 L55.301,43.945 L54.595,45.309 L53.596,46.256 L52.509,46.864 L51.510,47.426 L50.630,48.185 L49.777,49.171 L48.812,50.346 L47.636,51.616 L46.956,52.235 L46.276,52.854 L45.564,53.423 L44.852,53.992 L43.401,54.904 L41.862,55.379 L40.262,55.274 L38.718,54.704 L37.288,54.030 L35.966,53.577 L34.666,53.373 L33.296,53.182 L31.825,52.800 L30.328,52.093 L28.929,51.069 L27.680,49.843 L26.536,48.528 L25.508,47.222 L24.612,45.974 L23.823,44.772 L23.155,43.590 L22.676,42.423 L22.403,41.204 L22.301,39.781 L22.345,38.148 L22.486,36.493 L22.643,35.034 L22.753,33.837 L22.856,32.818 L23.067,31.835 L23.544,30.784 L24.309,29.653 L25.225,28.440 L26.151,27.102 L27.058,25.627 L27.533,24.831 L28.008,24.036 L28.579,23.255 L29.150,22.473 L29.843,21.858 L30.537,21.242 L32.014,20.586 L33.382,20.491 L34.600,20.724 L35.793,20.972 L37.140,20.993 L38.696,20.714 L40.346,20.228 L41.998,19.740 L43.636,19.492 L45.212,19.595 L46.684,19.968 L47.998,20.525 L49.076,21.204 L49.961,21.920 L50.809,22.684 L51.761,23.588 L52.862,24.791 L53.434,25.586 L54.006,26.381 L54.498,27.296 L54.990,28.212 L55.342,29.093 L55.693,29.973 L56.203,31.407 L56.712,32.529 L57.295,33.545 L57.880,34.643 L58.342,35.894 L58.578,37.309 L58.553,38.824 L58.279,40.348 L57.802,41.844 L57.190,43.360 L56.489,44.956 L56.100,45.796 L55.710,46.635 L55.265,47.500 L54.819,48.365 L54.307,49.191 L53.795,50.017 L53.235,50.723 L52.675,51.430 L51.544,52.507 L50.470,53.245 L49.443,53.722 L48.427,54.141 L47.353,54.742 L46.143,55.561 L44.737,56.426 L43.109,57.086 L42.206,57.222 L41.303,57.359 L40.349,57.318 L39.394,57.277 L38.404,57.132 L37.413,56.987 L36.421,56.769 L35.429,56.552 L34.524,56.247 L33.619,55.941 L32.143,55.100 L31.064,54.068 L30.265,52.988 L29.501,52.012 L28.544,51.238 L27.255,50.735 L25.700,50.423 L24.115,50.002 L22.791,49.133 L21.977,47.749 L21.704,46.105 L21.803,44.532 L22.012,43.228 L22.032,42.222 L21.666,41.357 L20.992,40.364 L20.274,39.075 L19.777,37.549 L19.599,35.933 L19.643,34.311 L19.797,32.674 L20.089,30.966 L20.354,30.055 L20.619,29.144 L21.061,28.237 L21.502,27.330 L22.123,26.549 L22.744,25.769 L23.475,25.205 L24.206,24.641 L25.655,23.951 L26.932,23.533 L28.021,23.144 L28.989,22.523 L29.898,21.460 L30.824,19.968 L31.352,19.159 L31.879,18.351 L33.081,17.058 L34.306,16.422 L35.453,16.428 L36.570,16.834 L37.826,17.416 L39.333,17.984 L41.074,18.435 L42.004,18.634 L42.933,18.832 L43.844,19.056 L44.755,19.280 L46.464,19.832 L48.067,20.484 L49.584,21.162 L51.050,21.766 L52.447,22.302 L53.689,22.823 L54.725,23.354 L55.610,23.958 L56.462,24.725 L57.370,25.760 L58.308,27.114 L59.128,28.702 L59.676,30.377 L59.928,31.993 L59.959,33.503 L59.877,34.988 L59.761,36.549 L59.640,38.219 L59.490,39.975 L59.263,41.700 L58.951,43.249 L58.596,44.543 L58.222,45.622 L57.808,46.602 L57.309,47.612 L56.679,48.772 L55.882,50.153 L55.394,50.939 L54.905,51.725 L54.336,52.540 L53.766,53.355 L53.136,54.103 L52.507,54.852 L51.183,56.052 L49.806,56.868 L48.319,57.276 L46.736,57.366 L45.147,57.325 L43.601,57.367 L42.068,57.611 L40.453,58.030 L39.575,58.245 L38.696,58.459 L37.762,58.582 L36.828,58.704 L35.889,58.697 L34.950,58.690 L34.050,58.602 L33.149,58.514 L31.468,58.253 L29.936,57.905 L28.629,57.421 L27.615,56.739 L26.892,55.791 L26.362,54.572 L25.848,53.170 L25.176,51.696 L24.266,50.243 L23.207,48.838 L22.161,47.487 L21.242,46.219 L20.484,45.062 L19.829,43.997 L19.150,42.948 L18.359,41.799 L17.556,40.455 L16.892,38.942 L16.455,37.344 L16.275,35.718 L16.325,34.106 L16.545,32.537 L16.887,31.051 L17.353,29.706 L17.988,28.540 L18.773,27.530 L19.547,26.531 L20.184,25.360 L20.743,23.943 L21.430,22.368 L21.962,21.597 L22.494,20.826 L23.271,20.192 L24.048,19.558 L25.016,19.145 L25.983,18.733 L27.006,18.550 L28.029,18.367 L28.968,18.348 L29.906,18.328 L31.448,18.374 L32.649,18.243 L33.645,17.755 L34.643,16.908 L35.877,15.871 L36.700,15.388 L37.522,14.904 L38.530,14.576 L39.538,14.248 L40.613,14.116 L41.687,13.985 L42.685,14.016 L43.682,14.047 L45.314,14.368 L46.550,14.849 L47.502,15.362 L48.346,15.826 L49.267,16.267 L50.381,16.802 L51.654,17.536 L52.959,18.504 L54.171,19.691 L55.230,21.043 L56.151,22.486 L56.981,23.999 L57.771,25.610 L58.142,26.461 L58.514,27.313 L58.833,28.173 L59.152,29.034 L59.638,30.688 L59.962,32.178 L60.185,33.425 L60.391,34.444 L60.627,35.352 L60.892,36.312 L61.112,37.449 L61.175,38.787 L60.987,40.311 L60.487,42.030 L60.081,42.965 L59.675,43.901 L59.157,44.839 L58.639,45.778 L58.091,46.631 L57.544,47.484 L56.562,48.901 L55.807,50.020 L55.317,50.950 L55.078,51.837 L54.974,52.817 L54.798,53.959 L54.355,55.249 L53.586,56.569 L52.558,57.783 L51.372,58.805 L50.095,59.606 L48.743,60.211 L47.291,60.748 L45.643,61.307 L44.689,61.573 L43.736,61.839 L42.689,62.018 L41.643,62.197 L40.575,62.214 L39.508,62.230 L38.510,62.039 L37.512,61.848 L36.669,61.458 L35.826,61.069 L34.536,60.024 L33.582,58.947 L32.764,58.050 L31.868,57.370 L30.792,56.780 L29.537,56.157 L28.151,55.432 L26.718,54.619 L25.303,53.797 L23.907,53.078 L22.462,52.524 L20.947,52.039 L19.447,51.408 L18.130,50.461 L17.182,49.170 L16.635,47.614 L16.352,45.937 L16.126,44.230 L15.808,42.469 L15.605,41.544 L15.403,40.619 L15.236,39.666 L15.070,38.714 L15.034,37.790 L14.999,36.866 L15.274,35.217 L15.937,33.877 L16.904,32.883 L17.960,32.160 L18.870,31.530 L19.517,30.752 L19.923,29.635 L20.164,28.120 L20.243,27.195 L20.321,26.270 L20.411,25.266 L20.501,24.262 L20.656,23.304 L20.810,22.345 L21.359,20.775 L22.277,19.753 L23.591,19.294 L25.187,19.224 L26.939,19.206 L27.848,19.057 L28.757,18.908 L29.661,18.544 L30.564,18.181 L31.425,17.642 L32.286,17.103 L33.062,16.486 L33.839,15.870 L35.161,14.656 L36.260,13.614 L37.184,12.837 L38.022,12.354 L38.883,12.177 L39.874,12.296 L41.081,12.661 L42.545,13.211 L43.388,13.559 L44.231,13.907 L45.128,14.325 L46.025,14.742 L46.903,15.214 L47.781,15.685 L48.601,16.143 L49.421,16.601 L50.974,17.356 L52.502,17.963 L53.976,18.549 L55.268,19.266 L56.213,20.206 L56.702,21.338 L56.802,22.562 L56.747,23.811 L56.809,25.071 L57.176,26.354 L57.924,27.657 L59.017,28.960 L59.670,29.600 L60.324,30.239 L60.994,30.872 L61.664,31.504 L62.859,32.840 L63.768,34.333 L64.335,35.986 L64.621,37.723 L64.711,39.432 L64.619,40.992 L64.373,42.303 L64.005,43.349 L63.521,44.194 L62.974,44.978 L62.420,45.863 L61.869,46.935 L61.297,48.177 L60.642,49.532 L59.826,50.925 L58.790,52.287 L58.161,52.936 L57.531,53.586 L56.817,54.229 L56.102,54.872 L55.319,55.543 L54.537,56.214 L53.689,56.906 L52.842,57.598 L51.953,58.238 L51.065,58.879 L50.171,59.369 L49.276,59.859 L48.413,60.118 L47.549,60.377 L45.948,60.387 L44.512,60.007 L43.226,59.484 L42.010,59.082 L40.755,58.956 L39.387,59.060 L37.942,59.215 L36.554,59.276 L35.319,59.192 L34.263,58.997 L33.363,58.799 L32.529,58.754 L31.619,58.992 L30.505,59.494 L29.155,60.062 L27.619,60.457 L26.005,60.478 L24.427,60.049 L22.928,59.239 L21.499,58.153 L20.803,57.501 L20.107,56.849 L19.416,56.083 L18.724,55.317 L18.060,54.435 L17.396,53.553 L16.827,52.577 L16.258,51.601 L15.867,50.581 L15.477,49.562 L15.305,48.585 L15.133,47.607 L15.159,45.909 L15.442,44.549 L15.807,43.520 L16.062,42.735 L16.060,42.039 L15.749,41.237 L15.168,40.134 L14.440,38.628 L14.080,37.702 L13.720,36.776 L13.428,35.766 L13.135,34.756 L12.962,33.773 L12.788,32.790 L12.791,31.074 L13.265,29.733 L14.225,28.757 L15.545,28.010 L16.988,27.310 L18.318,26.448 L19.396,25.242 L19.809,24.434 L20.222,23.627 L20.562,22.652 L20.901,21.678 L21.223,20.612 L21.544,19.546 L21.898,18.479 L22.251,17.412 L22.681,16.442 L23.110,15.473 L23.645,14.687 L24.179,13.900 L25.493,12.839 L27.028,12.384 L28.665,12.478 L30.295,12.871 L31.900,13.218 L33.506,13.254 L35.147,12.899 L36.825,12.277 L38.483,11.595 L40.020,11.030 L41.342,10.800 L42.385,11.048 L43.152,11.756 L43.725,12.764 L44.255,13.837 L44.938,14.733 L45.970,15.304 L47.463,15.567 L48.419,15.625 L49.376,15.683 L50.447,15.775 L51.519,15.866 L52.585,16.065 L53.651,16.264 L54.575,16.642 L55.498,17.019 L56.176,17.616 L56.854,18.213 L57.680,19.783 L58.098,21.527 L58.308,23.146 L58.546,24.373 L59.031,25.116 L59.889,25.488 L61.143,25.735 L62.721,26.144 L63.576,26.547 L64.430,26.950 L65.218,27.610 L66.006,28.269 L66.593,29.168 L67.179,30.066 L67.459,31.120 L67.738,32.174 L67.695,33.263 L67.652,34.353 L67.381,35.375 L67.109,36.397 L66.770,37.320 L66.432,38.243 L65.936,39.964 L65.804,41.664 L66.018,43.419 L66.201,44.322 L66.384,45.225 L66.677,46.998 L66.760,48.615 L66.526,49.926 L65.913,50.817 L64.918,51.295 L63.608,51.473 L62.116,51.543 L60.602,51.737 L59.198,52.245 L57.962,53.138 L56.861,54.357 L55.812,55.740 L54.763,57.137 L53.644,58.388 L52.345,59.323 L50.803,59.870 L49.043,60.080 L48.117,60.087 L47.190,60.094 L46.261,60.114 L45.331,60.134 L44.416,60.271 L43.502,60.408 L42.615,60.720 L41.727,61.032 L40.873,61.513 L40.019,61.994 L39.200,62.581 L38.382,63.169 L37.601,63.772 L36.819,64.375 L35.352,65.405 L34.006,66.088 L32.805,66.361 L31.749,66.258 L30.789,65.835 L29.877,65.149 L29.034,64.270 L28.289,63.263 L27.643,62.162 L27.081,60.949 L26.570,59.598 L26.013,58.151 L25.271,56.678 L24.775,55.919 L24.278,55.161 L23.671,54.370 L23.064,53.579 L22.392,52.773 L21.719,51.967 L21.030,51.184 L20.342,50.401 L19.693,49.678 L19.044,48.955 L17.935,47.692 L17.105,46.708 L16.549,46.079 L16.133,45.786 L15.654,45.684 L14.994,45.526 L14.099,45.076 L12.930,44.199 L12.241,43.533 L11.552,42.867 L10.840,42.003 L10.128,41.139 L9.501,40.114 L8.874,39.089 L8.443,37.974 L8.012,36.859 L7.862,35.756 L7.712,34.653 L7.879,33.665 L8.046,32.677 L8.503,31.877 L8.959,31.077 L10.274,29.896 L11.781,29.054 L13.276,28.384 L14.600,27.691 L15.677,26.822 L16.525,25.710 L17.229,24.379 L17.919,22.923 L18.683,21.523 L19.552,20.360 L20.509,19.513 L21.510,18.923 L22.507,18.415 L23.517,17.802 L24.635,16.987 L25.956,15.936 L26.737,15.294 L27.518,14.651 L28.407,13.932 L29.296,13.212 L30.261,12.493 L31.226,11.774 L32.216,11.146 L33.207,10.517 L34.167,10.062 L35.126,9.607 L36.006,9.381 L36.885,9.155 L38.435,9.185 L39.779,9.619 L40.978,10.303 L42.135,11.050 L43.374,11.699 L44.795,12.079 L46.444,12.075 L47.361,11.896 L48.278,11.716 L49.235,11.448 L50.192,11.180 L51.132,10.958 L52.072,10.737 L53.813,10.668 L55.341,11.161 L56.606,12.259 L57.092,13.061 L57.578,13.864 L57.919,14.820 L58.260,15.775 L58.466,16.760 L58.673,17.744 L58.782,18.641 L58.890,19.539 L59.055,20.988 L59.394,21.965 L60.153,22.441 L61.462,22.548 L62.363,22.545 L63.265,22.542 L64.286,22.604 L65.308,22.666 L66.271,22.869 L67.233,23.072 L68.725,23.825 L69.612,24.908 L69.906,26.260 L69.740,27.824 L69.494,28.705 L69.248,29.587 L68.911,30.569 L68.574,31.552 L68.231,32.631 L67.888,33.709 L67.612,34.857 L67.337,36.006 L67.161,37.183 L66.985,38.360 L66.882,39.516 L66.780,40.671 L66.691,41.747 L66.601,42.823 L66.467,43.765 L66.332,44.708 L65.910,46.274 L65.336,47.540 L64.671,48.598 L64.008,49.600 L63.408,50.710 L62.860,52.038 L62.341,53.616 L62.075,54.490 L61.809,55.364 L61.505,56.235 L61.200,57.106 L60.428,58.655 L59.421,59.864 L58.191,60.632 L56.827,60.938 L55.438,60.840 L54.103,60.438 L52.878,59.867 L51.806,59.305 L50.895,58.953 L50.095,58.957 L49.291,59.308 L48.374,59.896 L47.275,60.590 L45.967,61.288 L44.444,61.926 L43.588,62.205 L42.732,62.483 L41.806,62.737 L40.880,62.990 L39.912,63.258 L38.945,63.526 L37.957,63.859 L36.969,64.192 L35.968,64.606 L34.967,65.020 L33.960,65.455 L32.954,65.891 L31.955,66.257 L30.957,66.623 L29.992,66.831 L29.028,67.039 L27.252,66.994 L25.708,66.443 L24.431,65.486 L23.378,64.320 L22.463,63.176 L21.620,62.274 L20.781,61.739 L19.887,61.541 L18.924,61.506 L17.936,61.379 L16.975,60.943 L16.133,60.024 L15.548,58.517 L15.425,57.489 L15.301,56.460 L15.334,55.240 L15.367,54.020 L15.491,52.725 L15.616,51.430 L15.742,50.176 L15.868,48.921 L15.904,47.785 L15.940,46.648 L15.819,45.667 L15.698,44.685 L15.073,43.052 L14.098,41.723 L12.889,40.637 L11.588,39.696 L10.349,38.772 L9.386,37.747 L8.959,36.567 L9.226,35.270 L10.159,33.945 L10.856,33.305 L11.553,32.665 L12.319,32.074 L13.086,31.484 L14.417,30.403 L15.296,29.352 L15.643,28.218 L15.553,26.888 L15.231,25.274 L15.068,24.300 L14.906,23.326 L14.864,22.200 L14.823,21.074 L14.994,19.867 L15.166,18.659 L15.582,17.475 L15.999,16.291 L16.642,15.240 L17.286,14.188 L18.112,13.363 L18.937,12.538 L19.874,12.001 L20.810,11.465 L21.754,11.235 L22.699,11.006 L24.361,11.110 L25.619,11.612 L26.434,12.274 L26.925,12.860 L27.320,13.202 L27.864,13.195 L28.723,12.746 L29.964,11.813 L30.768,11.146 L31.571,10.479 L32.525,9.708 L33.480,8.937 L34.553,8.188 L35.626,7.439 L36.761,6.840 L37.897,6.240 L39.010,5.884 L40.122,5.529 L41.109,5.463 L42.096,5.398 L43.657,5.832 L44.747,6.704 L45.439,7.813 L45.928,8.953 L46.464,9.993 L47.284,10.847 L48.571,11.414 L49.484,11.527 L50.397,11.640 L51.539,11.604 L52.682,11.569 L53.959,11.457 L55.236,11.345 L56.513,11.252 L57.790,11.159 L58.900,11.156 L60.009,11.152 L61.618,11.400 L62.501,11.911 L62.737,12.651 L62.540,13.588 L62.151,14.742 L61.788,16.144 L61.635,17.795 L61.722,18.723 L61.809,19.652 L62.089,20.640 L62.368,21.628 L62.832,22.626 L63.296,23.624 L63.907,24.602 L64.518,25.580 L65.217,26.516 L65.915,27.451 L66.627,28.306 L67.339,29.160 L67.996,29.887 L68.654,30.614 L69.784,31.782 L70.730,32.723 L71.547,33.582 L72.306,34.556 L73.002,35.841 L73.281,36.703 L73.560,37.565 L73.761,38.655 L73.961,39.745 L74.073,41.018 L74.186,42.291 L74.189,43.670 L74.192,45.048 L74.059,46.447 L73.926,47.846 L73.641,49.173 L73.357,50.500 L72.932,51.671 L72.506,52.841 L71.977,53.788 L71.447,54.735 L70.861,55.423 L70.275,56.111 L69.054,56.992 L67.786,57.471 L66.428,57.682 L64.961,57.798 L63.415,58.010 L61.826,58.457 L60.237,59.189 L59.473,59.677 L58.710,60.166 L58.004,60.726 L57.299,61.286 L55.998,62.457 L54.744,63.603 L53.483,64.644 L52.213,65.524 L50.979,66.234 L49.841,66.805 L48.831,67.271 L47.946,67.644 L47.164,67.940 L46.457,68.173 L45.774,68.360 L45.052,68.506 L44.214,68.614 L43.169,68.702 L41.825,68.792 L40.068,68.900 L38.949,68.959 L37.831,69.018 L36.493,69.070 L35.155,69.122 L33.674,69.152 L32.192,69.183 L30.680,69.180 L29.169,69.177 L27.752,69.135 L26.335,69.093 L25.116,69.010 L23.897,68.928 L22.928,68.822 L21.959,68.717 L20.477,68.533 L19.325,68.395 L18.382,68.261 L17.567,68.055 L16.804,67.679 L16.027,67.042 L15.203,66.077 L14.333,64.741 L13.893,63.883 L13.453,63.025 L13.048,61.996 L12.642,60.966 L12.325,59.815 L12.008,58.664 L11.813,57.479 L11.618,56.294 L11.525,55.190 L11.432,54.087 L11.394,53.155 L11.356,52.222 L11.276,50.768 L11.093,49.666 L10.752,48.766 L10.275,47.917 L9.746,47.043 L9.257,46.132 L8.851,45.177 L8.514,44.155 L8.199,43.026 L7.895,41.752 L7.627,40.312 L7.429,38.703 L7.334,36.934 L7.354,35.979 L7.375,35.024 L7.490,34.008 L7.605,32.992 L7.844,31.930 L8.084,30.869 L8.445,29.795 L8.806,28.722 L9.245,27.678 L9.683,26.634 L10.143,25.621 L10.603,24.608 L11.039,23.594 L11.474,22.580 L11.858,21.534 L12.242,20.489 L12.568,19.401 L12.894,18.314 L13.174,17.199 L13.455,16.084 L13.717,14.978 L13.979,13.872 L14.254,12.829 L14.529,11.786 L14.845,10.866 L15.161,9.946 L15.941,8.514 L16.922,7.675 L18.106,7.538 L19.457,8.069 L20.908,9.107 L21.645,9.747 L22.382,10.386 L23.100,10.990 L23.818,11.594 L25.209,12.447 L26.620,12.735 L28.158,12.388 L29.028,11.944 L29.899,11.500 L30.873,10.902 L31.847,10.303 L32.879,9.677 L33.911,9.051 L34.925,8.492 L35.939,7.932 L36.863,7.539 L37.787,7.146 L39.352,6.845 L40.596,7.054 L41.552,7.671 L42.282,8.499 L42.862,9.294 L43.393,9.831 L44.019,9.961 L44.891,9.650 L46.128,8.978 L46.954,8.535 L47.781,8.093 L48.804,7.642 L49.826,7.191 L51.001,6.839 L52.176,6.486 L53.431,6.326 L54.685,6.166 L55.928,6.263 L57.172,6.361 L58.306,6.756 L59.440,7.152 L60.380,7.850 L61.319,8.549 L62.016,9.499 L62.713,10.448 L63.162,11.536 L63.612,12.624 L63.868,13.710 L64.124,14.795 L64.294,15.749 L64.464,16.702 L64.884,18.177 L65.605,19.182 L66.739,19.817 L68.256,20.283 L69.129,20.544 L70.002,20.804 L70.900,21.169 L71.798,21.535 L72.624,22.044 L73.451,22.553 L74.096,23.212 L74.742,23.870 L75.476,25.442 L75.556,27.203 L75.274,28.135 L74.992,29.068 L74.443,30.003 L73.895,30.939 L73.169,31.837 L72.444,32.735 L71.656,33.568 L70.868,34.401 L70.140,35.170 L69.411,35.938 L68.844,36.674 L68.276,37.409 L67.563,38.906 L67.247,40.508 L67.201,42.250 L67.248,43.186 L67.295,44.122 L67.375,45.105 L67.456,46.087 L67.540,47.089 L67.625,48.091 L67.685,49.082 L67.745,50.073 L67.756,51.022 L67.766,51.970 L67.655,53.730 L67.404,55.316 L67.032,56.706 L66.577,57.907 L66.070,58.966 L65.507,59.950 L64.838,60.919 L63.987,61.906 L62.889,62.937 L61.506,64.018 L60.674,64.569 L59.843,65.120 L58.900,65.654 L57.957,66.188 L56.961,66.678 L55.965,67.169 L54.989,67.603 L54.013,68.036 L53.127,68.413 L52.240,68.790 L50.736,69.463 L49.567,70.086 L48.779,70.676 L48.345,71.257 L48.148,71.857 L48.003,72.488 L47.695,73.132 L47.034,73.742 L45.898,74.243 L44.258,74.551 L43.219,74.561 L42.179,74.570 L40.980,74.392 L39.781,74.215 L38.489,73.839 L37.197,73.464 L35.885,72.919 L34.573,72.375 L33.313,71.725 L32.054,71.076 L30.903,70.416 L29.753,69.756 L28.740,69.183 L27.727,68.610 L26.838,68.192 L25.950,67.774 L24.325,67.288 L22.758,67.093 L21.193,67.053 L19.631,66.998 L18.121,66.772 L16.728,66.292 L15.476,65.603 L14.360,64.821 L13.371,64.069 L12.496,63.427 L11.696,62.890 L10.925,62.372 L10.207,61.777 L9.623,61.029 L9.273,60.062 L9.228,58.842 L9.488,57.380 L9.985,55.711 L10.286,54.796 L10.588,53.880 L10.869,52.912 L11.149,51.944 L11.341,50.953 L11.532,49.963 L11.601,48.973 L11.669,47.983 L11.633,46.997 L11.597,46.011 L11.496,45.029 L11.396,44.047 L11.270,43.074 L11.143,42.101 L11.020,41.158 L10.896,40.214 L10.787,39.301 L10.679,38.388 L10.587,37.477 L10.494,36.565 L10.413,35.627 L10.331,34.689 L10.244,33.711 L10.156,32.732 L10.034,31.714 L9.911,30.696 L9.718,29.649 L9.525,28.603 L9.242,27.551 L8.960,26.499 L8.621,25.482 L8.282,24.465 L7.943,23.537 L7.604,22.609 L7.038,21.046 L6.702,19.861 L6.695,19.086 L7.073,18.697 L7.865,18.637 L9.072,18.821 L10.629,19.133 L11.520,19.282 L12.411,19.430 L13.333,19.501 L14.255,19.572 L16.002,19.441 L17.540,18.975 L18.811,18.186 L19.812,17.147 L20.551,15.936 L21.064,14.612 L21.450,13.249 L21.853,11.926 L22.428,10.719 L23.279,9.700 L24.423,8.931 L25.817,8.427 L27.374,8.154 L28.996,8.034 L30.599,7.978 L32.132,7.914 L33.571,7.791 L34.915,7.580 L36.177,7.270 L37.378,6.866 L38.549,6.406 L39.721,6.014 L40.912,5.834 L42.136,5.962 L43.401,6.413 L44.714,7.124 L46.105,7.986 L47.624,8.870 L48.473,9.265 L49.323,9.660 L50.278,9.964 L51.234,10.268 L52.300,10.462 L53.366,10.655 L54.528,10.743 L55.690,10.831 L56.916,10.847 L58.142,10.863 L59.384,10.859 L60.626,10.855 L61.828,10.894 L63.030,10.933 L64.136,11.075 L65.242,11.217 L66.191,11.516 L67.139,11.814 L68.610,12.791 L69.565,14.144 L69.957,15.822 L69.888,16.769 L69.820,17.716 L69.557,18.704 L69.295,19.693 L68.957,20.674 L68.620,21.655 L68.340,22.601 L68.060,23.548 L67.942,24.448 L67.824,25.348 L68.017,27.054 L68.618,28.675 L69.503,30.219 L70.532,31.663 L71.656,32.951 L72.905,34.034 L74.299,34.912 L75.805,35.633 L77.336,36.286 L78.764,36.977 L79.955,37.800 L80.790,38.845 L81.173,40.174 L81.031,41.792 L80.679,42.712 L80.326,43.633 L79.704,44.591 L79.082,45.549 L78.238,46.450 L77.394,47.351 L76.415,48.115 L75.436,48.879 L74.435,49.466 L73.434,50.052 L72.517,50.468 L71.600,50.884 L70.084,51.472 L68.940,51.973 L68.121,52.565 L67.499,53.396 L66.917,54.512 L66.263,55.829 L65.477,57.186 L64.552,58.425 L63.519,59.450 L62.439,60.246 L61.370,60.887 L60.333,61.493 L59.279,62.166 L58.111,62.976 L56.737,63.961 L55.921,64.532 L55.105,65.104 L54.158,65.717 L53.212,66.330 L52.156,66.929 L51.100,67.528 L49.974,68.045 L48.847,68.563 L47.703,68.938 L46.560,69.314 L45.458,69.509 L44.356,69.703 L43.336,69.711 L42.316,69.718 L41.387,69.563 L40.457,69.407 L38.770,68.855 L37.236,68.167 L35.839,67.457 L34.557,66.832 L33.370,66.378 L32.259,66.137 L31.229,66.070 L30.317,66.075 L29.585,66.067 L29.081,66.018 L28.774,65.943 L28.553,65.881 L28.273,65.878 L27.782,65.964 L26.950,66.134 L25.688,66.336 L23.967,66.499 L22.900,66.528 L21.833,66.558 L20.612,66.507 L19.390,66.456 L18.087,66.296 L16.785,66.136 L15.494,65.840 L14.203,65.543 L13.015,65.092 L11.828,64.642 L10.818,64.039 L9.809,63.436 L9.020,62.698 L8.231,61.961 L7.668,61.116 L7.105,60.271 L6.736,59.353 L6.368,58.436 L6.144,57.491 L5.920,56.546 L5.774,55.618 L5.629,54.691 L5.481,53.787 L5.333,52.883 L5.118,51.983 L4.902,51.083 L4.592,50.158 L4.282,49.233 L3.895,48.260 L3.508,47.286 L3.099,46.258 L2.691,45.229 L2.330,44.164 L1.969,43.098 L1.699,42.045 L1.430,40.991 L1.267,40.012 L1.105,39.032 L1.000,37.327 L1.089,35.927 L1.331,34.842 L1.696,34.053 L2.221,33.506 L2.979,33.122 L4.015,32.810 L5.322,32.467 L6.846,31.954 L7.673,31.551 L8.499,31.147 L9.336,30.565 L10.172,29.983 L10.959,29.226 L11.746,28.470 L12.427,27.576 L13.107,26.682 L13.634,25.710 L14.162,24.738 L14.502,23.756 L14.842,22.774 L14.984,21.846 L15.125,20.917 L15.075,19.283 L14.837,17.962 L14.567,16.994 L14.389,16.362 L14.357,16.012 L14.467,15.834 L14.686,15.662 L14.981,15.314 L15.341,14.653 L15.775,13.605 L16.306,12.170 L16.637,11.291 L16.967,10.412 L17.384,9.431 L17.802,8.449 L18.330,7.442 L18.858,6.435 L19.508,5.479 L20.158,4.523 L20.935,3.692 L21.712,2.861 L22.623,2.247 L23.535,1.632 L24.582,1.316 L25.629,1.000 L26.795,1.017 L27.960,1.033 L29.209,1.358 L30.457,1.683 L31.730,2.238 L33.003,2.794 L34.209,3.468 L35.415,4.141 L36.452,4.797 L37.490,5.453 L38.291,5.956 L39.092,6.458 L40.195,6.936 L39.552,6.657 L40.195,6.936 L39.552,6.657 L40.195,6.936"/>
</svg>
