<svg xmlns="http://www.w3.org/2000/svg" viewBox="-0.05 0 68.277 68.277" width="256" height="256">
  <title>morphing-medallion</title>
  <rect x="-0.05" y="0" width="68.277" height="68.277" fill="#f5efe4"/>
  <path fill="none" stroke="#3a4e8c" stroke-width="0.4" stroke-linecap="round" stroke-linejoin="round" d="M34.031,37.000 L34.031,35.400 L34.031,33.800 L34.031,32.200 L34.031,30.600 L34.031,29.000 L32.244,29.211 L30.546,29.809 L29.022,30.767 L27.757,32.047 L27.284,32.813 L26.811,33.578 L26.225,35.280 L26.130,36.175 L26.035,37.070 L26.259,38.856 L26.565,39.703 L26.871,40.549 L27.356,41.308 L27.840,42.066 L29.135,43.317 L30.673,44.251 L31.527,44.537 L32.380,44.824 L34.172,44.993 L35.956,44.755 L37.644,44.130 L38.397,43.637 L39.150,43.144 L40.390,41.840 L41.312,40.294 L41.872,38.583 L41.946,37.686 L42.021,36.789 L41.769,35.007 L41.450,34.165 L41.132,33.324 L40.630,32.576 L40.129,31.829 L38.814,30.599 L37.261,29.689 L35.545,29.147 L34.031,29.000"/>
  <path fill="none" stroke="#d9a441" stroke-width="0.4" stroke-linecap="round" stroke-linejoin="round" d="M34.031,28.309 L32.289,28.759 L31.471,29.135 L30.653,29.510 L29.843,29.902 L29.033,30.295 L27.550,31.315 L26.631,32.863 L26.146,34.596 L25.740,36.350 L25.641,37.244 L25.542,38.139 L26.004,39.878 L27.001,41.377 L28.122,42.785 L28.731,43.448 L29.340,44.111 L30.123,44.554 L30.907,44.997 L32.693,45.221 L34.493,45.206 L35.392,45.178 L36.292,45.149 L38.023,44.657 L39.373,43.466 L39.930,42.759 L40.487,42.052 L41.604,40.640 L42.414,39.033 L42.465,37.233 L42.095,35.472 L41.905,34.592 L41.715,33.712 L41.385,32.875 L41.056,32.037 L39.786,30.762 L38.998,30.327 L38.210,29.891 L36.593,29.102 L35.747,28.795 L34.901,28.487 L34.031,28.309"/>
  <path fill="none" stroke="#8c4a6b" stroke-width="0.4" stroke-linecap="round" stroke-linejoin="round" d="M34.031,27.272 L34.031,26.235 L33.276,26.724 L32.521,27.214 L31.821,27.780 L31.121,28.346 L30.343,28.798 L29.565,29.250 L27.798,29.591 L26.077,30.119 L25.766,30.964 L25.456,31.808 L25.437,33.608 L25.387,34.507 L25.336,35.405 L24.480,36.989 L23.789,38.651 L24.126,39.485 L24.464,40.319 L25.155,40.897 L25.845,41.474 L27.272,42.571 L27.961,44.234 L28.805,45.824 L30.438,46.581 L31.322,46.413 L32.206,46.246 L33.933,45.735 L34.802,45.967 L35.672,46.198 L37.436,46.556 L38.293,46.279 L39.149,46.002 L40.015,44.424 L40.711,42.764 L42.070,41.583 L43.464,40.445 L44.356,38.882 L43.692,37.209 L43.271,36.413 L42.849,35.618 L42.615,33.833 L42.623,32.033 L42.474,31.146 L42.324,30.259 L40.618,29.685 L39.738,29.496 L38.858,29.308 L37.209,28.585 L35.831,27.427 L35.084,26.924 L34.338,26.422 L34.031,26.235"/>
  <path fill="none" stroke="#3a4e8c" stroke-width="0.4" stroke-linecap="round" stroke-linejoin="round" d="M34.031,24.506 L34.031,22.778 L32.889,24.168 L31.793,25.597 L30.748,27.062 L29.356,28.204 L27.556,28.184 L25.757,28.117 L23.957,28.112 L23.609,28.942 L23.260,29.772 L23.689,31.520 L24.178,33.252 L24.272,34.147 L24.366,35.042 L23.794,35.737 L23.222,36.432 L22.633,37.112 L22.044,37.792 L20.913,39.192 L21.569,40.868 L22.386,41.247 L23.202,41.627 L24.859,42.328 L26.463,43.145 L26.640,44.028 L26.818,44.910 L27.140,46.681 L27.331,47.560 L27.523,48.440 L28.333,48.831 L29.143,49.223 L29.950,48.823 L30.757,48.424 L31.549,47.998 L32.342,47.571 L33.896,46.663 L35.512,47.455 L37.093,48.315 L37.898,48.717 L38.703,49.120 L40.466,48.754 L40.858,46.997 L41.189,45.228 L41.459,43.448 L42.946,42.434 L44.607,41.740 L46.243,40.989 L47.638,39.851 L47.089,39.138 L46.541,38.424 L45.381,37.048 L44.777,36.380 L44.174,35.713 L43.948,34.841 L43.722,33.970 L44.186,32.231 L44.411,31.359 L44.636,30.488 L44.924,28.711 L43.229,28.106 L41.430,28.145 L39.633,28.246 L37.908,27.732 L36.798,26.315 L35.724,24.870 L35.163,24.167 L34.601,23.463 L34.031,22.778"/>
  <path fill="none" stroke="#d9a441" stroke-width="0.4" stroke-linecap="round" stroke-linejoin="round" d="M34.031,21.165 L34.031,19.551 L34.031,17.938 L33.186,19.527 L32.770,20.326 L32.354,21.124 L31.538,22.728 L31.137,23.534 L30.736,24.340 L30.344,25.150 L29.952,25.960 L28.456,26.962 L26.685,26.642 L24.926,26.258 L24.045,26.074 L23.164,25.890 L22.282,25.715 L21.399,25.540 L19.630,25.208 L19.936,26.981 L20.302,27.804 L20.667,28.626 L21.416,30.263 L22.180,31.893 L22.491,32.737 L22.803,33.582 L22.517,35.359 L21.812,35.919 L21.108,36.479 L20.411,37.048 L19.714,37.618 L19.023,38.194 L18.331,38.771 L16.959,39.936 L17.083,40.827 L17.206,41.719 L18.948,42.175 L20.694,42.613 L22.444,43.033 L23.309,43.281 L24.174,43.529 L24.873,44.096 L25.571,44.664 L25.564,46.464 L25.574,47.364 L25.583,48.264 L25.619,50.064 L25.671,51.863 L26.611,53.398 L28.127,52.428 L29.563,51.342 L30.275,50.792 L30.988,50.242 L31.695,49.685 L32.402,49.128 L33.803,47.998 L34.584,48.444 L35.366,48.890 L36.071,49.449 L36.777,50.008 L38.198,51.112 L39.631,52.202 L40.353,52.739 L41.075,53.276 L41.730,52.658 L42.385,52.041 L42.412,51.141 L42.440,50.241 L42.478,48.442 L42.487,47.542 L42.496,46.642 L42.492,44.842 L43.132,44.208 L43.771,43.575 L45.496,43.062 L47.247,42.643 L48.120,42.425 L48.993,42.207 L49.864,41.979 L50.734,41.751 L51.188,40.009 L50.503,39.426 L49.817,38.843 L48.435,37.689 L47.042,36.549 L45.634,35.428 L45.250,33.670 L45.846,31.971 L46.228,31.156 L46.611,30.342 L47.360,28.705 L48.091,27.060 L48.338,26.195 L48.584,25.329 L46.793,25.516 L45.910,25.690 L45.028,25.865 L43.265,26.230 L41.506,26.612 L39.751,27.013 L38.211,26.080 L37.393,24.477 L36.593,22.864 L35.778,21.259 L34.949,19.662 L34.526,18.868 L34.103,18.073"/>
  <path fill="none" stroke="#8c4a6b" stroke-width="0.4" stroke-linecap="round" stroke-linejoin="round" d="M34.031,16.469 L34.031,15.000 L34.031,13.531 L34.031,12.062 L33.369,13.735 L32.708,15.410 L32.053,17.086 L31.727,17.925 L31.402,18.764 L31.078,19.604 L30.755,20.444 L30.114,22.126 L29.477,23.810 L28.103,24.972 L26.310,25.136 L24.597,24.583 L23.740,24.311 L22.882,24.038 L21.166,23.495 L19.447,22.960 L17.728,22.427 L16.006,21.901 L15.924,22.797 L15.841,23.693 L16.725,25.261 L17.627,26.819 L18.082,27.595 L18.536,28.372 L19.448,29.924 L20.366,31.473 L20.671,32.319 L20.976,33.166 L20.968,34.066 L20.961,34.966 L19.459,35.959 L17.960,36.955 L17.213,37.456 L16.465,37.957 L15.719,38.460 L14.972,38.964 L13.482,39.973 L11.996,40.988 L10.510,42.005 L12.065,42.911 L12.955,43.045 L13.845,43.179 L14.735,43.312 L15.626,43.445 L16.516,43.574 L17.407,43.704 L18.298,43.831 L19.189,43.959 L20.971,44.208 L22.719,44.638 L23.530,45.029 L24.340,45.420 L24.179,47.213 L24.100,48.110 L24.021,49.006 L23.871,50.800 L23.798,51.697 L23.726,52.594 L23.655,53.491 L23.585,54.389 L23.450,56.183 L23.383,57.081 L23.317,57.979 L25.099,57.726 L25.759,57.114 L26.419,56.502 L27.078,55.889 L27.736,55.275 L29.050,54.045 L29.704,53.427 L30.359,52.809 L31.666,51.572 L32.316,50.950 L32.966,50.327 L34.732,49.978 L36.032,51.223 L37.338,52.463 L38.645,53.700 L39.959,54.930 L41.274,56.160 L41.934,56.772 L42.594,57.383 L43.406,57.771 L44.218,58.159 L44.629,56.406 L44.496,54.611 L44.425,53.714 L44.355,52.817 L44.210,51.023 L44.060,49.229 L43.982,48.332 L43.904,47.436 L43.742,45.643 L44.498,45.154 L45.254,44.665 L46.998,44.221 L48.781,43.972 L50.563,43.718 L51.453,43.588 L52.344,43.458 L54.124,43.193 L55.014,43.059 L55.904,42.925 L57.497,42.087 L56.784,41.539 L56.070,40.991 L55.327,40.483 L54.584,39.976 L53.839,39.471 L53.094,38.966 L51.601,37.960 L50.106,36.958 L49.356,36.460 L48.607,35.961 L47.105,34.968 L47.086,33.168 L47.696,31.475 L48.613,29.926 L49.069,29.150 L49.525,28.374 L50.434,26.821 L50.885,26.042 L51.336,25.263 L52.221,23.695 L52.564,22.863 L52.908,22.032 L51.115,22.189 L49.394,22.718 L47.676,23.253 L45.958,23.792 L45.100,24.063 L44.242,24.335 L43.385,24.610 L42.528,24.886 L40.815,25.439 L39.270,24.516 L38.283,23.010 L37.646,21.327 L37.323,20.487 L37.001,19.647 L36.677,18.807 L36.354,17.967 L35.699,16.290 L35.370,15.452 L35.042,14.615 L34.710,13.778 L34.379,12.941 L34.031,12.062"/>
  <path fill="none" stroke="#3a4e8c" stroke-width="0.4" stroke-linecap="round" stroke-linejoin="round" d="M34.031,10.449 L34.031,8.835 L34.031,7.222 L33.743,8.075 L33.455,8.927 L33.166,9.780 L32.878,10.632 L32.591,11.485 L32.304,12.338 L31.730,14.045 L31.444,14.898 L31.158,15.751 L30.873,16.605 L30.588,17.459 L30.019,19.166 L29.453,20.875 L29.170,21.729 L28.887,22.584 L27.399,23.596 L25.618,23.862 L24.774,23.550 L23.930,23.238 L23.085,22.927 L22.241,22.616 L21.396,22.306 L20.551,21.996 L18.861,21.377 L18.015,21.069 L17.169,20.761 L16.323,20.453 L15.478,20.146 L13.785,19.532 L12.939,19.226 L12.093,18.919 L12.200,19.813 L12.308,20.707 L12.761,21.484 L13.213,22.262 L14.189,23.775 L15.166,25.286 L16.145,26.797 L16.635,27.552 L17.125,28.307 L18.107,29.815 L19.090,31.324 L19.312,32.196 L19.534,33.068 L19.458,33.965 L19.382,34.861 L18.612,35.327 L17.842,35.792 L16.301,36.723 L14.763,37.658 L13.225,38.593 L11.688,39.530 L10.920,39.999 L10.152,40.468 L9.384,40.938 L8.616,41.407 L7.082,42.348 L7.946,43.927 L8.841,44.018 L9.737,44.108 L10.632,44.198 L11.528,44.289 L12.423,44.377 L13.319,44.466 L14.215,44.555 L15.110,44.643 L16.006,44.731 L16.902,44.818 L17.798,44.904 L18.694,44.991 L20.475,45.249 L21.345,45.480 L22.214,45.712 L23.215,47.208 L22.981,48.993 L22.865,49.885 L22.750,50.778 L22.521,52.563 L22.406,53.456 L22.292,54.349 L22.067,56.135 L21.842,57.921 L21.731,58.814 L21.620,59.707 L21.510,60.600 L21.399,61.493 L23.186,61.711 L24.444,60.423 L25.702,59.136 L26.330,58.491 L26.957,57.846 L28.213,56.556 L29.466,55.264 L30.719,53.971 L31.969,52.677 L33.219,51.381 L35.010,51.553 L35.635,52.201 L36.260,52.849 L37.511,54.143 L38.763,55.436 L39.390,56.082 L40.017,56.728 L40.645,57.373 L41.272,58.017 L42.528,59.307 L43.786,60.594 L45.044,61.882 L45.822,61.429 L46.600,60.976 L46.489,60.082 L46.378,59.189 L46.155,57.403 L45.930,55.617 L45.705,53.831 L45.476,52.046 L45.247,50.261 L45.130,49.368 L45.014,48.476 L44.897,47.583 L44.780,46.691 L46.221,45.613 L47.091,45.381 L47.961,45.150 L49.750,44.954 L51.542,44.781 L53.333,44.606 L54.229,44.517 L55.125,44.429 L56.020,44.339 L56.916,44.250 L58.707,44.070 L60.484,43.785 L60.438,42.886 L60.392,41.987 L58.857,41.046 L57.321,40.108 L55.785,39.170 L54.247,38.234 L52.709,37.299 L51.939,36.832 L51.170,36.366 L50.400,35.900 L49.629,35.435 L48.966,34.827 L48.302,34.218 L48.476,33.335 L48.649,32.452 L48.987,31.618 L49.325,30.784 L50.307,29.276 L51.289,27.767 L52.268,26.256 L53.247,24.746 L54.223,23.233 L55.199,21.721 L55.618,20.925 L56.038,20.128 L55.193,19.817 L54.349,19.506 L53.503,19.813 L52.657,20.119 L51.811,20.427 L50.965,20.735 L50.119,21.043 L49.274,21.351 L47.584,21.970 L46.739,22.280 L45.893,22.589 L44.204,23.212 L43.360,23.523 L42.516,23.835 L40.727,23.638 L39.237,22.628 L38.933,21.781 L38.629,20.934 L38.346,20.079 L38.063,19.225 L37.778,18.371 L37.494,17.517 L37.209,16.663 L36.924,15.810 L36.352,14.103 L35.779,12.397 L35.491,11.544 L35.204,10.691 L34.916,9.838 L34.628,8.986 L34.339,8.133 L34.051,7.281"/>
  <path fill="none" stroke="#d9a441" stroke-width="0.4" stroke-linecap="round" stroke-linejoin="round" d="M34.031,5.494 L34.031,3.765 L33.498,5.484 L32.964,7.204 L32.697,8.063 L32.431,8.923 L31.898,10.642 L31.632,11.502 L31.366,12.362 L31.100,13.221 L30.834,14.081 L30.568,14.941 L30.303,15.801 L29.772,17.521 L29.507,18.381 L29.242,19.241 L28.978,20.102 L28.713,20.962 L27.442,22.237 L25.958,23.256 L24.271,22.631 L22.595,21.972 L21.758,21.643 L20.920,21.314 L20.082,20.985 L19.244,20.657 L17.568,20.000 L15.892,19.344 L15.054,19.016 L14.216,18.688 L13.378,18.360 L12.540,18.032 L11.701,17.705 L10.863,17.378 L10.025,17.050 L9.186,16.723 L9.688,18.452 L10.584,20.013 L11.090,20.757 L11.596,21.501 L12.102,22.246 L12.608,22.990 L13.114,23.734 L13.621,24.478 L14.634,25.966 L15.647,27.453 L16.155,28.197 L16.662,28.940 L17.169,29.683 L17.676,30.427 L18.326,32.106 L18.700,33.866 L17.507,35.214 L15.947,36.113 L15.167,36.562 L14.388,37.012 L12.829,37.912 L11.270,38.812 L9.712,39.713 L8.933,40.164 L8.154,40.615 L6.596,41.517 L5.818,41.968 L5.039,42.419 L3.482,43.322 L4.767,44.582 L6.556,44.773 L8.351,44.910 L9.249,44.978 L10.146,45.047 L11.941,45.182 L13.736,45.318 L15.531,45.452 L16.428,45.519 L17.326,45.587 L18.221,45.681 L19.116,45.776 L19.990,45.991 L20.864,46.205 L21.738,46.419 L22.612,46.634 L22.391,48.420 L22.121,50.200 L21.851,51.979 L21.583,53.759 L21.315,55.539 L21.181,56.429 L21.048,57.319 L20.781,59.099 L20.515,60.880 L20.382,61.770 L20.249,62.660 L20.117,63.550 L19.984,64.440 L20.879,64.530 L21.775,64.620 L23.001,63.303 L24.227,61.985 L25.453,60.667 L26.678,59.348 L27.903,58.029 L29.127,56.710 L30.352,55.390 L31.575,54.070 L32.186,53.409 L32.798,52.749 L33.409,52.089 L34.021,51.428 L35.255,52.738 L36.478,54.059 L37.090,54.719 L37.701,55.380 L38.313,56.039 L38.925,56.699 L39.537,57.359 L40.150,58.019 L41.375,59.338 L42.600,60.656 L43.213,61.315 L43.826,61.975 L45.052,63.292 L46.278,64.610 L47.158,64.798 L48.038,64.986 L47.893,63.192 L47.760,62.302 L47.627,61.412 L47.361,59.632 L47.094,57.852 L46.828,56.072 L46.560,54.292 L46.291,52.512 L46.023,50.732 L45.753,48.952 L45.483,47.173 L47.027,46.247 L47.901,46.033 L48.775,45.818 L50.562,45.600 L51.459,45.533 L52.357,45.466 L53.254,45.398 L54.152,45.331 L55.946,45.196 L57.741,45.060 L59.536,44.924 L61.331,44.787 L63.126,44.650 L63.955,44.299 L64.784,43.949 L63.495,42.692 L62.716,42.241 L61.938,41.790 L61.159,41.339 L60.380,40.888 L59.601,40.437 L58.822,39.986 L57.264,39.085 L56.485,38.635 L55.705,38.184 L54.926,37.734 L54.146,37.284 L52.587,36.385 L51.028,35.486 L49.468,34.587 L49.530,33.689 L49.591,32.791 L49.973,31.032 L50.988,29.546 L51.495,28.802 L52.002,28.059 L53.016,26.571 L54.029,25.084 L55.043,23.596 L56.055,22.107 L56.561,21.363 L57.067,20.619 L58.032,19.099 L58.453,18.304 L58.875,17.509 L57.976,17.467 L57.077,17.426 L55.400,18.080 L54.562,18.408 L53.724,18.736 L52.048,19.392 L51.209,19.720 L50.371,20.048 L48.696,20.705 L47.020,21.362 L46.182,21.691 L45.345,22.020 L44.507,22.350 L43.669,22.679 L42.799,22.907 L41.928,23.135 L41.186,22.625 L40.444,22.116 L39.282,20.741 L39.017,19.881 L38.752,19.021 L38.488,18.161 L38.223,17.301 L37.692,15.581 L37.426,14.721 L37.160,13.861 L36.895,13.001 L36.629,12.141 L36.363,11.282 L36.096,10.422 L35.564,8.702 L35.030,6.983 L34.497,5.264 L34.031,3.765"/>
  <path fill="none" stroke="#8c4a6b" stroke-width="0.4" stroke-linecap="round" stroke-linejoin="round" d="M34.031,2.728 L34.031,1.691 L33.519,3.417 L33.006,5.142 L32.493,6.868 L31.981,8.593 L31.468,10.319 L31.212,11.181 L30.956,12.044 L30.700,12.907 L30.444,13.770 L30.188,14.633 L29.931,15.495 L29.676,16.358 L29.420,17.221 L29.164,18.084 L28.908,18.947 L28.396,20.672 L26.966,21.765 L26.187,22.217 L25.409,22.669 L23.741,21.993 L22.072,21.317 L20.404,20.642 L19.570,20.304 L18.736,19.966 L17.067,19.291 L15.399,18.615 L13.730,17.940 L12.062,17.265 L11.227,16.927 L10.393,16.590 L9.559,16.252 L8.724,15.915 L8.576,16.803 L8.428,17.690 L9.378,19.220 L10.407,20.696 L11.437,22.173 L11.951,22.911 L12.466,23.649 L13.496,25.126 L14.526,26.602 L15.041,27.340 L15.556,28.078 L16.586,29.554 L17.043,30.330 L17.500,31.105 L17.887,32.863 L17.720,34.655 L16.935,35.096 L16.151,35.538 L15.367,35.979 L14.582,36.421 L13.014,37.304 L12.230,37.745 L11.446,38.187 L9.877,39.070 L8.309,39.954 L7.525,40.395 L6.741,40.837 L5.956,41.279 L5.172,41.721 L3.604,42.604 L2.820,43.046 L2.036,43.488 L2.511,44.253 L2.986,45.017 L4.778,45.191 L5.676,45.248 L6.574,45.306 L7.472,45.364 L8.371,45.422 L10.167,45.537 L11.963,45.653 L12.861,45.711 L13.759,45.768 L14.658,45.826 L15.556,45.883 L16.454,45.941 L17.352,45.998 L19.128,46.291 L20.880,46.703 L21.473,47.380 L22.066,48.058 L21.922,48.946 L21.778,49.835 L21.634,50.723 L21.490,51.611 L21.202,53.388 L20.915,55.165 L20.628,56.942 L20.341,58.719 L20.054,60.496 L19.767,62.273 L19.623,63.162 L19.480,64.050 L19.336,64.939 L19.193,65.827 L20.045,66.117 L20.897,66.407 L21.502,65.741 L22.107,65.075 L23.318,63.743 L24.528,62.411 L25.133,61.744 L25.739,61.078 L26.344,60.412 L26.949,59.746 L27.554,59.080 L28.159,58.413 L29.369,57.081 L29.974,56.414 L30.579,55.748 L31.184,55.082 L31.789,54.415 L32.394,53.749 L32.998,53.082 L34.769,52.757 L35.978,54.090 L37.188,55.422 L38.398,56.755 L39.003,57.421 L39.608,58.088 L40.818,59.420 L42.028,60.753 L43.239,62.085 L44.449,63.417 L45.659,64.750 L46.265,65.416 L46.870,66.082 L48.559,66.705 L48.722,64.912 L48.579,64.024 L48.435,63.135 L48.292,62.247 L48.148,61.358 L47.861,59.581 L47.574,57.804 L47.431,56.916 L47.287,56.027 L47.000,54.250 L46.712,52.474 L46.425,50.697 L46.281,49.808 L46.137,48.920 L45.849,47.143 L47.569,46.612 L49.321,46.200 L50.214,46.087 L51.107,45.973 L52.005,45.915 L52.903,45.858 L53.801,45.800 L54.699,45.743 L55.598,45.685 L56.496,45.627 L58.292,45.512 L59.190,45.454 L60.088,45.396 L60.986,45.339 L61.885,45.281 L62.783,45.223 L63.681,45.165 L65.456,44.865 L66.291,44.529 L67.126,44.194 L66.361,43.720 L65.596,43.246 L64.812,42.804 L64.028,42.362 L63.244,41.920 L62.460,41.478 L61.676,41.036 L60.891,40.595 L60.107,40.153 L59.323,39.711 L57.755,38.828 L56.971,38.386 L56.186,37.944 L55.402,37.503 L54.618,37.061 L53.050,36.178 L52.265,35.737 L51.481,35.295 L49.912,34.413 L50.225,32.640 L50.418,31.761 L50.612,30.882 L51.600,29.378 L52.115,28.639 L52.630,27.901 L53.660,26.425 L54.690,24.949 L55.205,24.211 L55.720,23.473 L56.749,21.996 L57.264,21.258 L57.779,20.520 L58.808,19.043 L59.273,18.272 L59.738,17.502 L60.172,16.714 L60.607,15.925 L58.818,16.126 L57.983,16.463 L57.149,16.801 L56.315,17.138 L55.480,17.476 L53.812,18.151 L52.143,18.826 L51.309,19.164 L50.475,19.501 L49.641,19.839 L48.806,20.177 L47.972,20.515 L47.138,20.852 L46.304,21.190 L45.470,21.528 L43.801,22.204 L42.012,22.398 L40.531,21.374 L39.990,20.655 L39.448,19.936 L38.937,18.210 L38.681,17.348 L38.425,16.485 L37.913,14.759 L37.657,13.896 L37.400,13.034 L37.144,12.171 L36.888,11.308 L36.632,10.445 L36.376,9.582 L35.863,7.857 L35.351,6.131 L35.094,5.269 L34.838,4.406 L34.325,2.681 L34.031,1.691"/>
  <path fill="none" stroke="#3a4e8c" stroke-width="0.4" stroke-linecap="round" stroke-linejoin="round" d="M34.031,1.000 L33.778,1.864 L33.525,2.727 L33.272,3.591 L33.019,4.455 L32.765,5.318 L32.512,6.182 L32.259,7.046 L32.006,7.909 L31.753,8.773 L31.499,9.637 L31.246,10.500 L30.993,11.364 L30.740,12.227 L30.487,13.091 L30.233,13.955 L29.980,14.818 L29.727,15.682 L29.474,16.546 L29.221,17.409 L28.967,18.273 L28.714,19.137 L28.461,20.000 L27.231,21.315 L25.751,22.340 L23.993,21.956 L22.327,21.275 L20.660,20.594 L18.994,19.913 L17.328,19.231 L15.662,18.550 L14.829,18.210 L13.996,17.869 L12.330,17.188 L11.496,16.848 L10.663,16.507 L9.830,16.167 L8.997,15.826 L8.164,15.486 L7.331,15.145 L7.523,16.025 L7.715,16.904 L8.626,18.456 L9.661,19.929 L10.696,21.402 L11.213,22.138 L11.731,22.875 L12.248,23.611 L12.765,24.347 L13.283,25.084 L13.800,25.820 L14.317,26.557 L14.835,27.293 L15.352,28.030 L15.869,28.766 L16.904,30.239 L17.483,31.943 L17.679,32.822 L17.874,33.700 L16.713,35.076 L15.927,35.515 L15.142,35.954 L14.356,36.393 L13.570,36.832 L12.785,37.271 L11.999,37.710 L11.214,38.149 L10.428,38.588 L9.642,39.027 L8.857,39.466 L8.071,39.905 L7.285,40.344 L6.500,40.783 L5.714,41.222 L4.143,42.100 L3.357,42.539 L2.571,42.978 L1.000,43.856 L2.283,45.119 L3.177,45.221 L4.071,45.323 L5.868,45.433 L7.665,45.542 L9.461,45.651 L11.258,45.761 L12.156,45.815 L13.055,45.870 L13.953,45.925 L14.851,45.979 L16.648,46.089 L18.436,46.298 L19.313,46.502 L20.189,46.705 L21.066,46.908 L21.943,47.112 L21.872,48.009 L21.801,48.906 L21.508,50.682 L21.361,51.570 L21.214,52.458 L21.068,53.346 L20.921,54.234 L20.775,55.122 L20.628,56.010 L20.481,56.898 L20.335,57.786 L20.188,58.674 L20.042,59.562 L19.895,60.450 L19.748,61.338 L19.602,62.226 L19.455,63.114 L19.309,64.002 L19.162,64.890 L19.015,65.778 L18.869,66.666 L19.757,66.813 L20.645,66.960 L21.850,65.623 L23.056,64.286 L23.659,63.618 L24.262,62.950 L24.864,62.282 L25.467,61.613 L26.070,60.945 L26.673,60.277 L27.879,58.940 L29.084,57.604 L29.687,56.936 L30.290,56.267 L30.893,55.599 L31.496,54.931 L32.701,53.594 L33.907,52.258 L34.575,52.861 L35.243,53.464 L35.846,54.132 L36.449,54.800 L37.655,56.137 L38.860,57.473 L40.066,58.810 L40.669,59.478 L41.272,60.146 L42.478,61.483 L43.683,62.819 L44.889,64.156 L46.095,65.492 L46.697,66.161 L47.300,66.829 L48.172,67.053 L49.044,67.277 L48.998,65.477 L48.851,64.589 L48.705,63.701 L48.558,62.813 L48.411,61.925 L48.265,61.037 L48.118,60.149 L47.972,59.261 L47.825,58.373 L47.678,57.486 L47.532,56.598 L47.385,55.710 L47.239,54.822 L47.092,53.934 L46.945,53.046 L46.799,52.158 L46.652,51.270 L46.505,50.382 L46.359,49.494 L46.212,48.606 L46.066,47.718 L47.596,46.769 L48.472,46.566 L49.349,46.363 L51.131,46.106 L52.029,46.051 L52.927,45.997 L54.724,45.887 L56.521,45.778 L58.317,45.669 L60.114,45.559 L61.012,45.505 L61.911,45.450 L63.707,45.341 L65.504,45.227 L66.341,44.897 L67.178,44.567 L65.961,43.241 L65.176,42.802 L64.390,42.363 L63.604,41.924 L62.819,41.485 L62.033,41.046 L61.247,40.607 L60.462,40.168 L59.676,39.729 L58.891,39.290 L58.105,38.851 L57.319,38.412 L56.534,37.973 L55.748,37.534 L54.962,37.094 L54.177,36.655 L53.391,36.216 L52.605,35.777 L51.820,35.338 L51.034,34.899 L50.248,34.460 L50.418,32.668 L50.809,30.911 L51.760,29.383 L52.795,27.910 L53.312,27.173 L53.829,26.437 L54.347,25.701 L54.864,24.964 L55.381,24.228 L55.899,23.491 L56.416,22.755 L56.934,22.018 L57.968,20.546 L59.003,19.073 L59.492,18.317 L59.981,17.562 L60.857,15.989 L59.961,15.908 L59.065,15.827 L58.231,16.167 L57.398,16.508 L55.732,17.189 L54.899,17.529 L54.066,17.870 L53.233,18.210 L52.400,18.551 L51.567,18.891 L50.734,19.232 L49.067,19.913 L47.401,20.594 L46.568,20.935 L45.735,21.275 L44.069,21.956 L43.189,22.147 L42.310,22.339 L40.830,21.314 L39.601,19.999 L39.348,19.135 L39.095,18.271 L38.842,17.408 L38.588,16.544 L38.335,15.680 L38.082,14.817 L37.829,13.953 L37.576,13.089 L37.322,12.226 L37.069,11.362 L36.816,10.499 L36.563,9.635 L36.310,8.771 L36.056,7.908 L35.803,7.044 L35.550,6.180 L35.297,5.317 L35.044,4.453 L34.790,3.589 L34.537,2.726 L34.031,1.000"/>
</svg>
