<svg xmlns="http://www.w3.org/2000/svg" viewBox="0 -9.377 41.35 41.35" width="256" height="256">
  <title>needlescript2</title>
  <rect x="0" y="-9.377" width="41.35" height="41.35" fill="#f5efe4"/>
  <path fill="none" stroke="#8c4a6b" stroke-width="0.4" stroke-linecap="round" stroke-linejoin="round" d="M1.350,9.350 L1.350,9.350 L1.700,8.950 L1.000,8.550 L1.700,8.150 L1.000,7.750 L1.700,7.350 L1.000,6.950 L1.700,6.550 L1.000,6.150 L1.700,5.750 L1.000,5.350 L1.700,4.950 L1.000,4.550 L1.700,4.150 L1.000,3.750 L1.700,3.350 L1.000,2.950 L1.700,2.550 L1.000,2.150 L1.700,1.750 L1.000,1.350 L1.211,1.854 L2.011,1.889 L1.559,2.550 L2.359,2.585 L1.907,3.246 L2.707,3.280 L2.254,3.941 L3.054,3.976 L2.602,4.637 L3.402,4.672 L2.950,5.333 L3.750,5.367 L3.298,6.028 L4.098,6.063 L3.646,6.724 L4.446,6.759 L3.993,7.420 L4.793,7.454 L4.341,8.115 L5.141,8.150 L4.689,8.811 L5.489,8.846 L5.037,9.507 L5.000,8.950 L5.700,8.550 L5.000,8.150 L5.700,7.750 L5.000,7.350 L5.700,6.950 L5.000,6.550 L5.700,6.150 L5.000,5.750 L5.700,5.350 L5.000,4.950 L5.700,4.550 L5.000,4.150 L5.700,3.750 L5.000,3.350 L5.700,2.950 L5.000,2.550 L5.700,2.150 L5.000,1.750 L5.700,1.350 L5.092,1.697 L5.700,1.350 L5.092,1.697 L5.700,1.350 M12.350,1.350 L11.950,1.700 L12.350,1.350 L11.950,1.700 L12.350,1.350 L11.950,1.700 L11.550,1.000 L11.150,1.700 L10.750,1.000 L10.350,1.700 L9.950,1.000 L9.550,1.700 L9.150,1.000 L8.750,1.700 L8.350,1.000 L8.700,1.750 L8.000,2.150 L8.700,2.550 L8.000,2.950 L8.700,3.350 L8.000,3.750 L8.700,4.150 L8.000,4.550 L8.700,4.950 L8.000,5.350 L8.700,5.750 L8.000,6.150 L8.700,6.550 L8.000,6.950 L8.700,7.350 L8.000,7.750 L8.700,8.150 L8.000,8.550 L8.700,8.950 L8.000,9.350 L8.750,9.000 L9.150,9.700 L9.550,9.000 L9.950,9.700 L10.350,9.000 L10.750,9.700 L11.150,9.000 L11.550,9.700 L11.950,9.000 L12.350,9.700 L12.003,9.092 L12.350,9.700 L12.003,9.092 L12.350,9.700 M8.350,5.350 L8.750,5.000 L8.350,5.350 L8.750,5.000 L8.350,5.350 L8.750,5.000 L9.150,5.700 L9.550,5.000 L9.950,5.700 L10.350,5.000 L10.750,5.700 L11.150,5.000 L11.550,5.700 L11.950,5.000 L12.350,5.700 L12.003,5.092 L12.350,5.700 L12.003,5.092 L12.350,5.700 M19.350,1.350 L18.950,1.700 L19.350,1.350 L18.950,1.700 L19.350,1.350 L18.950,1.700 L18.550,1.000 L18.150,1.700 L17.750,1.000 L17.350,1.700 L16.950,1.000 L16.550,1.700 L16.150,1.000 L15.750,1.700 L15.350,1.000 L15.700,1.750 L15.000,2.150 L15.700,2.550 L15.000,2.950 L15.700,3.350 L15.000,3.750 L15.700,4.150 L15.000,4.550 L15.700,4.950 L15.000,5.350 L15.700,5.750 L15.000,6.150 L15.700,6.550 L15.000,6.950 L15.700,7.350 L15.000,7.750 L15.700,8.150 L15.000,8.550 L15.700,8.950 L15.000,9.350 L15.750,9.000 L16.150,9.700 L16.550,9.000 L16.950,9.700 L17.350,9.000 L17.750,9.700 L18.150,9.000 L18.550,9.700 L18.950,9.000 L19.350,9.700 L19.003,9.092 L19.350,9.700 L19.003,9.092 L19.350,9.700 M15.350,5.350 L15.750,5.000 L15.350,5.350 L15.750,5.000 L15.350,5.350 L15.750,5.000 L16.150,5.700 L16.550,5.000 L16.950,5.700 L17.350,5.000 L17.750,5.700 L18.150,5.000 L18.550,5.700 L18.950,5.000 L19.350,5.700 L19.003,5.092 L19.350,5.700 L19.003,5.092 L19.350,5.700 M22.350,9.350 L22.000,8.950 L22.350,9.350 L22.000,8.950 L22.350,9.350 L22.000,8.950 L22.700,8.550 L22.000,8.150 L22.700,7.750 L22.000,7.350 L22.700,6.950 L22.000,6.550 L22.700,6.150 L22.000,5.750 L22.700,5.350 L22.000,4.950 L22.700,4.550 L22.000,4.150 L22.700,3.750 L22.000,3.350 L22.700,2.950 L22.000,2.550 L22.700,2.150 L22.000,1.750 L22.700,1.350 L22.717,1.000 L23.083,1.700 L23.450,1.000 L23.817,1.700 L24.183,1.000 L24.550,1.700 L25.051,1.509 L24.649,2.204 L25.451,2.185 L25.049,2.879 L25.851,2.861 L25.449,3.555 L26.251,3.536 L25.849,4.231 L26.651,4.212 L26.000,4.774 L26.700,5.158 L26.000,5.542 L26.700,5.926 L26.000,6.310 L26.451,6.826 L25.649,6.807 L26.051,7.502 L25.249,7.483 L25.651,8.177 L24.849,8.158 L25.251,8.853 L24.449,8.834 L24.851,9.528 L24.183,9.000 L23.817,9.700 L23.450,9.000 L23.083,9.700 L22.717,9.000 L22.350,9.700 L22.675,9.080 L22.350,9.700 L22.675,9.080 L22.350,9.700 M29.350,1.350 L29.000,1.750 L29.350,1.350 L29.000,1.750 L29.350,1.350 L29.000,1.750 L29.700,2.150 L29.000,2.550 L29.700,2.950 L29.000,3.350 L29.700,3.750 L29.000,4.150 L29.700,4.550 L29.000,4.950 L29.700,5.350 L29.000,5.750 L29.700,6.150 L29.000,6.550 L29.700,6.950 L29.000,7.350 L29.700,7.750 L29.000,8.150 L29.700,8.550 L29.000,8.950 L29.700,9.350 L29.750,9.700 L30.150,9.000 L30.550,9.700 L30.950,9.000 L31.350,9.700 L31.750,9.000 L32.150,9.700 L32.550,9.000 L32.950,9.700 L33.350,9.000 L33.003,9.608 L33.350,9.000 L33.003,9.608 L33.350,9.000 M40.350,1.350 L39.950,1.000 L40.350,1.350 L39.950,1.000 L40.350,1.350 L39.950,1.000 L39.550,1.700 L39.150,1.000 L38.750,1.700 L38.350,1.000 L37.950,1.700 L37.550,1.000 L37.150,1.700 L36.750,1.000 L36.350,1.700 L36.000,1.750 L36.700,2.150 L36.000,2.550 L36.700,2.950 L36.000,3.350 L36.700,3.750 L36.000,4.150 L36.700,4.550 L36.000,4.950 L36.700,5.350 L36.000,5.750 L36.700,6.150 L36.000,6.550 L36.700,6.950 L36.000,7.350 L36.700,7.750 L36.000,8.150 L36.700,8.550 L36.000,8.950 L36.700,9.350 L36.750,9.700 L37.150,9.000 L37.550,9.700 L37.950,9.000 L38.350,9.700 L38.750,9.000 L39.150,9.700 L39.550,9.000 L39.950,9.700 L40.350,9.000 L40.003,9.608 L40.350,9.000 L40.003,9.608 L40.350,9.000 M36.350,5.350 L36.750,5.700 L36.350,5.350 L36.750,5.700 L36.350,5.350 L36.750,5.700 L37.150,5.000 L37.550,5.700 L37.950,5.000 L38.350,5.700 L38.750,5.000 L39.150,5.700 L39.550,5.000 L39.950,5.700 L40.350,5.000 L40.003,5.608 L40.350,5.000 L40.003,5.608 L40.350,5.000 M5.350,14.550 L5.117,14.089 L5.350,14.550 L5.117,14.089 L5.350,14.550 L5.117,14.089 L4.516,14.611 L4.406,13.822 L3.805,14.344 L3.695,13.556 L3.094,14.078 L2.984,13.289 L2.383,13.811 L2.273,13.022 L2.368,13.804 L1.589,13.925 L2.139,14.489 L1.361,14.611 L1.911,15.175 L1.132,15.296 L1.682,15.861 L1.439,16.269 L2.184,15.969 L2.054,16.762 L2.799,16.461 L2.670,17.254 L3.415,16.954 L3.285,17.746 L4.030,17.446 L3.901,18.239 L4.646,17.938 L4.516,18.731 L5.261,18.431 L5.131,19.223 L5.568,19.404 L4.789,19.525 L5.339,20.089 L4.561,20.211 L5.111,20.775 L4.332,20.896 L4.882,21.461 L4.317,20.889 L3.716,21.411 L3.606,20.622 L3.005,21.144 L2.895,20.356 L2.294,20.878 L2.184,20.089 L1.583,20.611 L1.473,19.822 L1.569,20.516 L1.473,19.822 L1.569,20.516 L1.473,19.822 M12.350,14.950 L11.846,14.995 L12.350,14.950 L11.846,14.995 L12.350,14.950 L11.846,14.995 L11.997,14.220 L11.274,14.538 L11.426,13.762 L10.703,14.080 L10.854,13.305 L10.131,13.623 L9.853,13.485 L10.247,14.175 L9.453,14.125 L9.847,14.815 L9.053,14.765 L9.447,15.455 L8.653,15.405 L9.047,16.095 L8.253,16.045 L8.647,16.735 L8.000,16.950 L8.700,17.350 L8.000,17.750 L8.700,18.150 L8.253,18.655 L9.047,18.605 L8.653,19.295 L9.447,19.245 L9.053,19.935 L9.847,19.885 L9.453,20.575 L10.247,20.525 L9.853,21.215 L10.647,21.165 L10.854,21.395 L10.703,20.620 L11.426,20.938 L11.274,20.162 L11.997,20.480 L11.846,19.705 L12.569,20.023 M15.350,21.350 L15.000,20.950 L15.700,20.550 L15.000,20.150 L15.700,19.750 L15.000,19.350 L15.700,18.950 L15.000,18.550 L15.700,18.150 L15.000,17.750 L15.700,17.350 L15.000,16.950 L15.700,16.550 L15.000,16.150 L15.700,15.750 L15.000,15.350 L15.700,14.950 L15.000,14.550 L15.700,14.150 L15.000,13.750 L15.700,13.350 L15.750,13.000 L16.150,13.700 L16.550,13.000 L16.950,13.700 L17.350,13.000 L17.750,13.700 L18.263,13.467 L17.922,14.193 L18.721,14.107 L18.379,14.833 L19.178,14.747 L18.837,15.473 L19.635,15.387 L18.824,15.648 L19.076,16.412 L18.291,16.235 L18.542,16.999 L17.758,16.821 L18.009,17.585 L17.350,17.000 L16.950,17.700 L16.550,17.000 L16.150,17.700 L15.750,17.000 L15.350,17.700 L15.369,17.864 L16.131,17.636 L15.903,18.397 L16.664,18.169 L16.436,18.931 L17.197,18.703 L16.969,19.464 L17.731,19.236 L17.503,19.997 L18.264,19.769 L18.036,20.531 L18.797,20.303 L18.569,21.064 L19.331,20.836 L19.103,21.597 L19.304,20.927 L19.103,21.597 L19.304,20.927 L19.103,21.597 M24.350,21.350 L24.000,20.950 L24.350,21.350 L24.000,20.950 L24.350,21.350 L24.000,20.950 L24.700,20.550 L24.000,20.150 L24.700,19.750 L24.000,19.350 L24.700,18.950 L24.000,18.550 L24.700,18.150 L24.000,17.750 L24.700,17.350 L24.000,16.950 L24.700,16.550 L24.000,16.150 L24.700,15.750 L24.000,15.350 L24.700,14.950 L24.000,14.550 L24.700,14.150 L24.000,13.750 L24.700,13.350 L24.092,13.697 L24.700,13.350 L24.092,13.697 L24.700,13.350 M29.350,21.350 L29.000,20.950 L29.350,21.350 L29.000,20.950 L29.350,21.350 L29.000,20.950 L29.700,20.550 L29.000,20.150 L29.700,19.750 L29.000,19.350 L29.700,18.950 L29.000,18.550 L29.700,18.150 L29.000,17.750 L29.700,17.350 L29.000,16.950 L29.700,16.550 L29.000,16.150 L29.700,15.750 L29.000,15.350 L29.700,14.950 L29.000,14.550 L29.700,14.150 L29.000,13.750 L29.700,13.350 L29.693,13.000 L30.036,13.700 L30.379,13.000 L30.721,13.700 L31.064,13.000 L31.407,13.700 L31.750,13.000 L31.694,13.873 L32.492,13.787 L32.151,14.513 L32.949,14.427 L32.608,15.153 L33.406,15.067 L33.065,15.793 L33.342,16.119 L32.558,15.941 L32.809,16.705 L32.024,16.528 L32.276,17.292 L31.491,17.115 L31.407,17.700 L31.064,17.000 L30.721,17.700 L30.379,17.000 L30.036,17.700 L29.693,17.000 L29.350,17.700 L29.658,17.071 L29.350,17.700 L29.658,17.071 L29.350,17.700 M36.350,13.350 L36.750,13.700 L36.350,13.350 L36.750,13.700 L36.350,13.350 L36.750,13.700 L37.150,13.000 L37.550,13.700 L37.950,13.000 L38.350,13.700 L38.750,13.000 L39.150,13.700 L39.550,13.000 L39.950,13.700 L40.350,13.000 M38.350,13.350 L38.000,13.750 L38.700,14.150 L38.000,14.550 L38.700,14.950 L38.000,15.350 L38.700,15.750 L38.000,16.150 L38.700,16.550 L38.000,16.950 L38.700,17.350 L38.000,17.750 L38.700,18.150 L38.000,18.550 L38.700,18.950 L38.000,19.350 L38.700,19.750 L38.000,20.150 L38.700,20.550 L38.000,20.950 L38.700,21.350 L38.092,21.003 L38.700,21.350 L38.092,21.003 L38.700,21.350"/>
</svg>
