<svg xmlns="http://www.w3.org/2000/svg" viewBox="0 -36.325 83.35 83.35" width="256" height="256">
  <title>needlescript1</title>
  <rect x="0" y="-36.325" width="83.35" height="83.35" fill="#f5efe4"/>
  <path fill="none" stroke="#8c4a6b" stroke-width="0.4" stroke-linecap="round" stroke-linejoin="round" d="M1.350,9.350 L1.350,9.350 L1.700,8.950 L1.000,8.550 L1.700,8.150 L1.000,7.750 L1.700,7.350 L1.000,6.950 L1.700,6.550 L1.000,6.150 L1.700,5.750 L1.000,5.350 L1.700,4.950 L1.000,4.550 L1.700,4.150 L1.000,3.750 L1.700,3.350 L1.000,2.950 L1.700,2.550 L1.000,2.150 L1.700,1.750 L1.000,1.350 L1.211,1.854 L2.011,1.889 L1.559,2.550 L2.359,2.585 L1.907,3.246 L2.707,3.280 L2.254,3.941 L3.054,3.976 L2.602,4.637 L3.402,4.672 L2.950,5.333 L3.750,5.367 L3.298,6.028 L4.098,6.063 L3.646,6.724 L4.446,6.759 L3.993,7.420 L4.793,7.454 L4.341,8.115 L5.141,8.150 L4.689,8.811 L5.489,8.846 L5.037,9.507 L5.000,8.950 L5.700,8.550 L5.000,8.150 L5.700,7.750 L5.000,7.350 L5.700,6.950 L5.000,6.550 L5.700,6.150 L5.000,5.750 L5.700,5.350 L5.000,4.950 L5.700,4.550 L5.000,4.150 L5.700,3.750 L5.000,3.350 L5.700,2.950 L5.000,2.550 L5.700,2.150 L5.000,1.750 L5.700,1.350 L5.092,1.697 L5.700,1.350 L5.092,1.697 L5.700,1.350 M12.350,1.350 L11.950,1.700 L12.350,1.350 L11.950,1.700 L12.350,1.350 L11.950,1.700 L11.550,1.000 L11.150,1.700 L10.750,1.000 L10.350,1.700 L9.950,1.000 L9.550,1.700 L9.150,1.000 L8.750,1.700 L8.350,1.000 L8.700,1.750 L8.000,2.150 L8.700,2.550 L8.000,2.950 L8.700,3.350 L8.000,3.750 L8.700,4.150 L8.000,4.550 L8.700,4.950 L8.000,5.350 L8.700,5.750 L8.000,6.150 L8.700,6.550 L8.000,6.950 L8.700,7.350 L8.000,7.750 L8.700,8.150 L8.000,8.550 L8.700,8.950 L8.000,9.350 L8.750,9.000 L9.150,9.700 L9.550,9.000 L9.950,9.700 L10.350,9.000 L10.750,9.700 L11.150,9.000 L11.550,9.700 L11.950,9.000 L12.350,9.700 L12.003,9.092 L12.350,9.700 L12.003,9.092 L12.350,9.700 M8.350,5.350 L8.750,5.000 L8.350,5.350 L8.750,5.000 L8.350,5.350 L8.750,5.000 L9.150,5.700 L9.550,5.000 L9.950,5.700 L10.350,5.000 L10.750,5.700 L11.150,5.000 L11.550,5.700 L11.950,5.000 L12.350,5.700 L12.003,5.092 L12.350,5.700 L12.003,5.092 L12.350,5.700 M19.350,1.350 L18.950,1.700 L19.350,1.350 L18.950,1.700 L19.350,1.350 L18.950,1.700 L18.550,1.000 L18.150,1.700 L17.750,1.000 L17.350,1.700 L16.950,1.000 L16.550,1.700 L16.150,1.000 L15.750,1.700 L15.350,1.000 L15.700,1.750 L15.000,2.150 L15.700,2.550 L15.000,2.950 L15.700,3.350 L15.000,3.750 L15.700,4.150 L15.000,4.550 L15.700,4.950 L15.000,5.350 L15.700,5.750 L15.000,6.150 L15.700,6.550 L15.000,6.950 L15.700,7.350 L15.000,7.750 L15.700,8.150 L15.000,8.550 L15.700,8.950 L15.000,9.350 L15.750,9.000 L16.150,9.700 L16.550,9.000 L16.950,9.700 L17.350,9.000 L17.750,9.700 L18.150,9.000 L18.550,9.700 L18.950,9.000 L19.350,9.700 L19.003,9.092 L19.350,9.700 L19.003,9.092 L19.350,9.700 M15.350,5.350 L15.750,5.000 L15.350,5.350 L15.750,5.000 L15.350,5.350 L15.750,5.000 L16.150,5.700 L16.550,5.000 L16.950,5.700 L17.350,5.000 L17.750,5.700 L18.150,5.000 L18.550,5.700 L18.950,5.000 L19.350,5.700 L19.003,5.092 L19.350,5.700 L19.003,5.092 L19.350,5.700 M22.350,9.350 L22.000,8.950 L22.350,9.350 L22.000,8.950 L22.350,9.350 L22.000,8.950 L22.700,8.550 L22.000,8.150 L22.700,7.750 L22.000,7.350 L22.700,6.950 L22.000,6.550 L22.700,6.150 L22.000,5.750 L22.700,5.350 L22.000,4.950 L22.700,4.550 L22.000,4.150 L22.700,3.750 L22.000,3.350 L22.700,2.950 L22.000,2.550 L22.700,2.150 L22.000,1.750 L22.700,1.350 L22.717,1.000 L23.083,1.700 L23.450,1.000 L23.817,1.700 L24.183,1.000 L24.550,1.700 L25.051,1.509 L24.649,2.204 L25.451,2.185 L25.049,2.879 L25.851,2.861 L25.449,3.555 L26.251,3.536 L25.849,4.231 L26.651,4.212 L26.000,4.774 L26.700,5.158 L26.000,5.542 L26.700,5.926 L26.000,6.310 L26.451,6.826 L25.649,6.807 L26.051,7.502 L25.249,7.483 L25.651,8.177 L24.849,8.158 L25.251,8.853 L24.449,8.834 L24.851,9.528 L24.183,9.000 L23.817,9.700 L23.450,9.000 L23.083,9.700 L22.717,9.000 L22.350,9.700 L22.675,9.080 L22.350,9.700 L22.675,9.080 L22.350,9.700 M29.350,1.350 L29.000,1.750 L29.350,1.350 L29.000,1.750 L29.350,1.350 L29.000,1.750 L29.700,2.150 L29.000,2.550 L29.700,2.950 L29.000,3.350 L29.700,3.750 L29.000,4.150 L29.700,4.550 L29.000,4.950 L29.700,5.350 L29.000,5.750 L29.700,6.150 L29.000,6.550 L29.700,6.950 L29.000,7.350 L29.700,7.750 L29.000,8.150 L29.700,8.550 L29.000,8.950 L29.700,9.350 L29.750,9.700 L30.150,9.000 L30.550,9.700 L30.950,9.000 L31.350,9.700 L31.750,9.000 L32.150,9.700 L32.550,9.000 L32.950,9.700 L33.350,9.000 L33.003,9.608 L33.350,9.000 L33.003,9.608 L33.350,9.000 M40.350,1.350 L39.950,1.000 L40.350,1.350 L39.950,1.000 L40.350,1.350 L39.950,1.000 L39.550,1.700 L39.150,1.000 L38.750,1.700 L38.350,1.000 L37.950,1.700 L37.550,1.000 L37.150,1.700 L36.750,1.000 L36.350,1.700 L36.000,1.750 L36.700,2.150 L36.000,2.550 L36.700,2.950 L36.000,3.350 L36.700,3.750 L36.000,4.150 L36.700,4.550 L36.000,4.950 L36.700,5.350 L36.000,5.750 L36.700,6.150 L36.000,6.550 L36.700,6.950 L36.000,7.350 L36.700,7.750 L36.000,8.150 L36.700,8.550 L36.000,8.950 L36.700,9.350 L36.750,9.700 L37.150,9.000 L37.550,9.700 L37.950,9.000 L38.350,9.700 L38.750,9.000 L39.150,9.700 L39.550,9.000 L39.950,9.700 L40.350,9.000 L40.003,9.608 L40.350,9.000 L40.003,9.608 L40.350,9.000 M36.350,5.350 L36.750,5.700 L36.350,5.350 L36.750,5.700 L36.350,5.350 L36.750,5.700 L37.150,5.000 L37.550,5.700 L37.950,5.000 L38.350,5.700 L38.750,5.000 L39.150,5.700 L39.550,5.000 L39.950,5.700 L40.350,5.000 L40.003,5.608 L40.350,5.000 L40.003,5.608 L40.350,5.000 M47.350,2.550 L47.117,2.089 L47.350,2.550 L47.117,2.089 L47.350,2.550 L47.117,2.089 L46.516,2.611 L46.406,1.822 L45.805,2.344 L45.695,1.556 L45.094,2.078 L44.984,1.289 L44.383,1.811 L44.273,1.022 L44.368,1.804 L43.589,1.925 L44.139,2.489 L43.361,2.611 L43.911,3.175 L43.132,3.296 L43.682,3.861 L43.439,4.269 L44.184,3.969 L44.054,4.762 L44.799,4.461 L44.670,5.254 L45.415,4.954 L45.285,5.746 L46.030,5.446 L45.901,6.239 L46.646,5.938 L46.516,6.731 L47.261,6.431 L47.131,7.223 L47.568,7.404 L46.789,7.525 L47.339,8.089 L46.561,8.211 L47.111,8.775 L46.332,8.896 L46.882,9.461 L46.317,8.889 L45.716,9.411 L45.606,8.622 L45.005,9.144 L44.895,8.356 L44.294,8.878 L44.184,8.089 L43.583,8.611 L43.473,7.822 L43.569,8.516 L43.473,7.822 L43.569,8.516 L43.473,7.822 M54.350,2.950 L53.846,2.995 L54.350,2.950 L53.846,2.995 L54.350,2.950 L53.846,2.995 L53.997,2.220 L53.274,2.538 L53.426,1.762 L52.703,2.080 L52.854,1.305 L52.131,1.623 L51.853,1.485 L52.247,2.175 L51.453,2.125 L51.847,2.815 L51.053,2.765 L51.447,3.455 L50.653,3.405 L51.047,4.095 L50.253,4.045 L50.647,4.735 L50.000,4.950 L50.700,5.350 L50.000,5.750 L50.700,6.150 L50.253,6.655 L51.047,6.605 L50.653,7.295 L51.447,7.245 L51.053,7.935 L51.847,7.885 L51.453,8.575 L52.247,8.525 L51.853,9.215 L52.647,9.165 L52.854,9.395 L52.703,8.620 L53.426,8.938 L53.274,8.162 L53.997,8.480 L53.846,7.705 L54.569,8.023 M57.350,9.350 L57.000,8.950 L57.700,8.550 L57.000,8.150 L57.700,7.750 L57.000,7.350 L57.700,6.950 L57.000,6.550 L57.700,6.150 L57.000,5.750 L57.700,5.350 L57.000,4.950 L57.700,4.550 L57.000,4.150 L57.700,3.750 L57.000,3.350 L57.700,2.950 L57.000,2.550 L57.700,2.150 L57.000,1.750 L57.700,1.350 L57.750,1.000 L58.150,1.700 L58.550,1.000 L58.950,1.700 L59.350,1.000 L59.750,1.700 L60.263,1.467 L59.922,2.193 L60.721,2.107 L60.379,2.833 L61.178,2.747 L60.837,3.473 L61.635,3.387 L60.824,3.648 L61.076,4.412 L60.291,4.235 L60.542,4.999 L59.758,4.821 L60.009,5.585 L59.350,5.000 L58.950,5.700 L58.550,5.000 L58.150,5.700 L57.750,5.000 L57.350,5.700 L57.369,5.864 L58.131,5.636 L57.903,6.397 L58.664,6.169 L58.436,6.931 L59.197,6.703 L58.969,7.464 L59.731,7.236 L59.503,7.997 L60.264,7.769 L60.036,8.531 L60.797,8.303 L60.569,9.064 L61.331,8.836 L61.103,9.597 L61.304,8.927 L61.103,9.597 L61.304,8.927 L61.103,9.597 M66.350,9.350 L66.000,8.950 L66.350,9.350 L66.000,8.950 L66.350,9.350 L66.000,8.950 L66.700,8.550 L66.000,8.150 L66.700,7.750 L66.000,7.350 L66.700,6.950 L66.000,6.550 L66.700,6.150 L66.000,5.750 L66.700,5.350 L66.000,4.950 L66.700,4.550 L66.000,4.150 L66.700,3.750 L66.000,3.350 L66.700,2.950 L66.000,2.550 L66.700,2.150 L66.000,1.750 L66.700,1.350 L66.092,1.697 L66.700,1.350 L66.092,1.697 L66.700,1.350 M71.350,9.350 L71.000,8.950 L71.350,9.350 L71.000,8.950 L71.350,9.350 L71.000,8.950 L71.700,8.550 L71.000,8.150 L71.700,7.750 L71.000,7.350 L71.700,6.950 L71.000,6.550 L71.700,6.150 L71.000,5.750 L71.700,5.350 L71.000,4.950 L71.700,4.550 L71.000,4.150 L71.700,3.750 L71.000,3.350 L71.700,2.950 L71.000,2.550 L71.700,2.150 L71.000,1.750 L71.700,1.350 L71.750,1.000 L72.150,1.700 L72.550,1.000 L72.950,1.700 L73.350,1.000 L73.750,1.700 L74.263,1.467 L73.922,2.193 L74.721,2.107 L74.379,2.833 L75.178,2.747 L74.837,3.473 L75.635,3.387 L74.824,3.648 L75.076,4.412 L74.291,4.235 L74.542,4.999 L73.758,4.821 L74.009,5.585 L73.350,5.000 L72.950,5.700 L72.550,5.000 L72.150,5.700 L71.750,5.000 L71.350,5.700 L71.697,5.092 L71.350,5.700 L71.697,5.092 L71.350,5.700 M78.350,1.350 L78.750,1.700 L78.350,1.350 L78.750,1.700 L78.350,1.350 L78.750,1.700 L79.150,1.000 L79.550,1.700 L79.950,1.000 L80.350,1.700 L80.750,1.000 L81.150,1.700 L81.550,1.000 L81.950,1.700 L82.350,1.000 M80.350,1.350 L80.000,1.750 L80.700,2.150 L80.000,2.550 L80.700,2.950 L80.000,3.350 L80.700,3.750 L80.000,4.150 L80.700,4.550 L80.000,4.950 L80.700,5.350 L80.000,5.750 L80.700,6.150 L80.000,6.550 L80.700,6.950 L80.000,7.350 L80.700,7.750 L80.000,8.150 L80.700,8.550 L80.000,8.950 L80.700,9.350 L80.092,9.003 L80.700,9.350 L80.092,9.003 L80.700,9.350"/>
</svg>
