<svg xmlns="http://www.w3.org/2000/svg" viewBox="-0.122 0 89.998 89.998" width="256" height="256">
  <title>ngon</title>
  <rect x="-0.122" y="0" width="89.998" height="89.998" fill="#f5efe4"/>
  <path fill="none" stroke="#31604f" stroke-width="0.4" stroke-linecap="round" stroke-linejoin="round" d="M44.877,25.000 L44.877,25.000 L45.877,26.732 L46.377,27.598 L46.877,28.464 L47.877,30.196 L48.377,31.062 L48.877,31.928 L49.877,33.660 L50.877,35.392 L51.877,37.124 L52.377,37.990 L52.877,38.856 L53.377,39.722 L53.877,40.588 L54.877,42.321 L55.377,43.187 L55.877,44.053 L56.377,44.919 L56.877,45.785 L57.877,47.517 L58.877,49.249 L59.877,50.981 L60.877,52.713 L61.877,54.445 L59.956,55.000 L57.956,55.000 L55.956,55.000 L53.956,55.000 L51.956,55.000 L49.956,55.000 L47.956,55.000 L45.956,55.000 L43.956,55.000 L41.956,55.000 L40.956,55.000 L39.956,55.000 L37.956,55.000 L36.956,55.000 L35.956,55.000 L33.956,55.000 L31.956,55.000 L29.956,55.000 L28.956,55.000 L27.956,55.000 L28.641,53.121 L29.641,51.389 L30.641,49.657 L31.141,48.791 L31.641,47.925 L32.641,46.193 L33.641,44.461 L34.141,43.595 L34.641,42.729 L35.641,40.997 L36.641,39.265 L37.641,37.533 L38.141,36.667 L38.641,35.801 L39.641,34.069 L40.641,32.337 L41.641,30.605 L42.641,28.872 L43.641,27.140 L44.141,26.274 L44.641,25.408 L44.877,25.000 L44.641,25.408 L44.877,25.000 L44.641,25.408 L44.877,25.000 M44.877,24.385 L45.372,24.880 L44.877,24.385 L45.372,24.880 L44.877,24.385 L46.291,25.799 L46.998,26.506 L47.705,27.213 L48.413,27.920 L49.120,28.627 L49.827,29.334 L50.534,30.041 L51.948,31.456 L52.655,32.163 L53.362,32.870 L54.776,34.284 L55.484,34.991 L56.191,35.698 L56.898,36.405 L57.605,37.113 L59.019,38.527 L59.726,39.234 L60.433,39.941 L61.848,41.355 L62.555,42.062 L63.262,42.769 L63.969,43.476 L64.676,44.184 L64.507,45.169 L64.338,46.155 L62.923,47.569 L61.509,48.983 L60.802,49.690 L60.095,50.397 L59.388,51.105 L58.681,51.812 L57.974,52.519 L57.267,53.226 L56.559,53.933 L55.852,54.640 L54.438,56.054 L53.731,56.761 L53.024,57.468 L52.317,58.176 L51.610,58.883 L50.195,60.297 L48.781,61.711 L48.074,62.418 L47.367,63.125 L46.660,63.832 L45.953,64.540 L43.959,64.697 L42.545,63.283 L41.131,61.869 L39.716,60.455 L38.302,59.041 L36.888,57.626 L35.474,56.212 L34.767,55.505 L34.060,54.798 L32.645,53.384 L31.231,51.970 L30.524,51.262 L29.817,50.555 L29.110,49.848 L28.403,49.141 L26.988,47.727 L25.574,46.313 L24.788,44.474 L25.495,43.767 L26.202,43.060 L26.909,42.353 L27.616,41.645 L29.030,40.231 L30.445,38.817 L31.859,37.403 L33.273,35.989 L33.980,35.281 L34.687,34.574 L36.101,33.160 L37.516,31.746 L38.930,30.332 L40.344,28.917 L41.758,27.503 L43.173,26.089 L44.587,24.675 L44.877,24.385 L44.587,24.675 L44.877,24.385 L44.587,24.675 L44.877,24.385 M44.877,23.769 L45.443,24.181 L44.877,23.769 L45.443,24.181 L44.877,23.769 L46.495,24.945 L47.304,25.533 L48.113,26.120 L48.922,26.708 L49.731,27.296 L51.349,28.472 L52.967,29.647 L54.585,30.823 L56.203,31.998 L57.012,32.586 L57.821,33.174 L58.630,33.762 L59.439,34.349 L61.057,35.525 L61.866,36.113 L62.675,36.701 L64.293,37.876 L64.610,39.851 L64.301,40.802 L63.992,41.753 L63.683,42.704 L63.374,43.655 L62.756,45.557 L62.447,46.508 L62.138,47.459 L61.520,49.361 L60.902,51.264 L60.284,53.166 L59.666,55.068 L59.048,56.970 L58.739,57.921 L58.430,58.872 L58.121,59.823 L57.812,60.774 L56.385,62.176 L54.385,62.176 L52.385,62.176 L50.385,62.176 L48.385,62.176 L46.385,62.176 L44.385,62.176 L42.385,62.176 L40.385,62.176 L38.385,62.176 L36.385,62.176 L34.385,62.176 L33.385,62.157 L32.386,62.138 L32.077,61.187 L31.768,60.236 L31.150,58.334 L30.532,56.432 L29.913,54.530 L29.295,52.628 L28.677,50.726 L28.059,48.824 L27.441,46.922 L26.823,45.019 L26.205,43.117 L25.587,41.215 L24.969,39.313 L25.440,38.431 L25.911,37.549 L26.720,36.961 L27.529,36.373 L28.338,35.785 L29.147,35.198 L29.956,34.610 L30.765,34.022 L32.383,32.846 L34.001,31.671 L35.619,30.495 L36.428,29.908 L37.237,29.320 L38.855,28.144 L40.473,26.969 L42.091,25.793 L42.900,25.205 L43.709,24.617 L44.877,23.769 L44.311,24.181 L44.877,23.769 L44.311,24.181 L44.877,23.769 M44.877,23.154 L45.483,23.504 L44.877,23.154 L45.483,23.504 L44.877,23.154 L45.743,23.654 L46.609,24.154 L48.341,25.154 L50.073,26.154 L50.939,26.654 L51.805,27.154 L52.671,27.654 L53.537,28.154 L55.269,29.154 L57.001,30.154 L58.733,31.154 L59.599,31.654 L60.465,32.154 L61.331,32.654 L62.197,33.154 L62.997,33.755 L63.796,34.355 L63.796,36.355 L63.796,38.355 L63.796,40.355 L63.796,42.355 L63.796,44.355 L63.796,46.355 L63.796,48.355 L63.796,50.355 L63.796,52.355 L63.796,54.355 L63.203,56.265 L61.471,57.265 L59.739,58.265 L58.873,58.765 L58.007,59.265 L56.275,60.265 L54.543,61.265 L52.811,62.265 L51.945,62.765 L51.079,63.265 L49.347,64.265 L48.481,64.765 L47.615,65.265 L45.883,66.265 L43.883,66.272 L42.151,65.272 L41.285,64.772 L40.419,64.272 L38.687,63.272 L36.955,62.272 L35.222,61.272 L33.490,60.272 L32.624,59.772 L31.758,59.272 L30.892,58.772 L30.026,58.272 L28.294,57.272 L27.428,56.772 L26.562,56.272 L25.958,54.366 L25.958,52.366 L25.958,50.366 L25.958,48.366 L25.958,46.366 L25.958,44.366 L25.958,42.366 L25.958,40.366 L25.958,38.366 L25.958,36.366 L25.958,34.366 L27.551,33.157 L29.283,32.157 L31.015,31.157 L31.881,30.657 L32.747,30.157 L34.479,29.157 L36.211,28.157 L37.943,27.157 L38.809,26.657 L39.675,26.157 L41.407,25.157 L42.273,24.657 L43.140,24.157 L44.006,23.657 L44.872,23.157 L44.265,23.507 L44.872,23.157 L44.265,23.507 L44.872,23.157 M44.877,22.538 L45.508,22.842 L44.877,22.538 L45.508,22.842 L44.877,22.538 L46.679,23.406 L48.481,24.274 L50.283,25.142 L52.085,26.010 L52.986,26.443 L53.887,26.877 L55.689,27.745 L57.491,28.613 L58.392,29.047 L59.292,29.481 L60.193,29.914 L61.094,30.348 L62.593,31.673 L63.038,33.623 L63.483,35.573 L63.705,36.548 L63.928,37.523 L64.373,39.473 L64.818,41.422 L65.263,43.372 L65.708,45.322 L66.153,47.272 L66.598,49.222 L65.900,51.096 L65.276,51.878 L64.653,52.660 L63.406,54.223 L62.159,55.787 L60.912,57.351 L59.665,58.914 L58.418,60.478 L57.795,61.260 L57.171,62.042 L55.924,63.605 L54.649,65.146 L52.651,65.237 L50.651,65.237 L48.651,65.237 L46.651,65.237 L44.651,65.237 L42.651,65.237 L40.651,65.237 L38.651,65.237 L37.651,65.237 L36.651,65.237 L35.685,64.979 L34.719,64.720 L34.096,63.939 L33.472,63.157 L32.225,61.593 L31.602,60.811 L30.978,60.029 L29.731,58.466 L28.484,56.902 L27.237,55.338 L25.990,53.775 L24.743,52.211 L23.496,50.647 L23.284,48.659 L23.729,46.709 L24.174,44.759 L24.619,42.809 L25.064,40.859 L25.287,39.884 L25.510,38.909 L25.732,37.934 L25.955,36.960 L26.400,35.010 L26.622,34.035 L26.845,33.060 L27.114,32.097 L27.384,31.134 L28.249,30.632 L29.114,30.130 L30.015,29.696 L30.916,29.262 L32.717,28.394 L33.618,27.960 L34.519,27.526 L35.420,27.093 L36.321,26.659 L37.222,26.225 L38.123,25.791 L39.024,25.357 L39.925,24.923 L40.826,24.489 L41.727,24.055 L42.628,23.621 L43.529,23.188 L44.877,22.538 L44.246,22.842 L44.877,22.538 L44.246,22.842 L44.877,22.538 M44.877,21.923 L45.524,22.191 L44.877,21.923 L45.524,22.191 L44.877,21.923 L46.725,22.688 L48.572,23.454 L50.420,24.219 L51.344,24.602 L52.268,24.985 L54.116,25.750 L55.964,26.515 L57.811,27.281 L59.659,28.046 L60.512,28.569 L61.364,29.091 L62.130,30.939 L62.895,32.787 L63.660,34.634 L64.426,36.482 L64.808,37.406 L65.191,38.330 L65.956,40.178 L66.722,42.025 L67.104,42.949 L67.487,43.873 L67.593,45.870 L66.828,47.718 L66.445,48.642 L66.063,49.566 L65.297,51.414 L64.532,53.261 L63.767,55.109 L63.001,56.957 L62.236,58.805 L61.470,60.652 L59.878,61.863 L58.031,62.628 L56.183,63.394 L54.335,64.159 L52.487,64.925 L51.564,65.307 L50.640,65.690 L49.716,66.073 L48.792,66.455 L46.944,67.221 L46.020,67.603 L45.096,67.986 L43.191,67.379 L41.343,66.613 L39.495,65.848 L37.648,65.082 L36.724,64.700 L35.800,64.317 L33.952,63.552 L32.104,62.786 L30.257,62.021 L28.514,61.039 L28.102,60.128 L27.689,59.217 L26.924,57.369 L26.158,55.522 L25.393,53.674 L24.627,51.826 L23.862,49.978 L23.479,49.054 L23.097,48.131 L22.331,46.283 L22.091,44.297 L22.857,42.449 L23.239,41.526 L23.622,40.602 L24.387,38.754 L25.153,36.906 L25.918,35.058 L26.683,33.211 L27.449,31.363 L27.831,30.439 L28.214,29.515 L29.721,28.201 L31.569,27.435 L33.417,26.670 L34.341,26.287 L35.265,25.905 L37.112,25.139 L38.960,24.374 L40.808,23.608 L41.732,23.226 L42.656,22.843 L44.504,22.078 L44.877,21.923 L44.504,22.078 L44.877,21.923 L44.504,22.078 L44.877,21.923 M44.877,21.308 L45.535,21.547 L44.877,21.308 L45.535,21.547 L44.877,21.308 L45.817,21.650 L46.756,21.992 L48.636,22.676 L50.515,23.360 L52.395,24.044 L54.274,24.728 L56.153,25.412 L58.033,26.096 L59.912,26.780 L60.468,27.611 L61.025,28.442 L62.025,30.174 L63.025,31.906 L63.525,32.772 L64.025,33.638 L65.025,35.370 L66.025,37.102 L66.525,37.968 L67.025,38.834 L67.525,39.700 L68.025,40.566 L67.914,42.563 L67.566,44.533 L67.219,46.502 L66.872,48.472 L66.524,50.442 L66.177,52.411 L65.830,54.381 L65.483,56.350 L64.179,57.867 L62.646,59.153 L61.114,60.438 L60.348,61.081 L59.582,61.724 L58.816,62.366 L58.050,63.009 L56.518,64.295 L55.752,64.938 L54.986,65.580 L54.220,66.223 L53.454,66.866 L51.494,67.263 L49.494,67.263 L47.494,67.263 L45.494,67.263 L43.494,67.263 L41.494,67.263 L39.494,67.263 L37.494,67.263 L35.706,66.367 L34.940,65.725 L34.174,65.082 L33.408,64.439 L32.642,63.796 L31.876,63.153 L31.110,62.511 L30.344,61.868 L29.577,61.225 L28.045,59.940 L26.513,58.654 L24.981,57.368 L24.132,55.558 L23.784,53.588 L23.437,51.619 L23.090,49.649 L22.742,47.679 L22.395,45.710 L22.048,43.740 L21.701,41.770 L22.158,39.823 L22.658,38.957 L23.158,38.091 L23.658,37.225 L24.158,36.359 L25.158,34.627 L26.158,32.895 L27.158,31.163 L27.658,30.297 L28.158,29.431 L28.658,28.565 L29.158,27.699 L30.726,26.458 L32.606,25.774 L34.485,25.090 L36.365,24.406 L37.304,24.064 L38.244,23.722 L39.184,23.380 L40.123,23.038 L42.003,22.354 L43.882,21.670 L44.877,21.308 L44.219,21.547 L44.877,21.308 L44.219,21.547 L44.877,21.308 M44.877,20.692 L45.543,20.909 L44.877,20.692 L45.543,20.909 L44.877,20.692 L46.779,21.310 L48.681,21.928 L50.583,22.546 L52.485,23.164 L53.436,23.473 L54.388,23.782 L55.339,24.091 L56.290,24.401 L57.241,24.710 L58.192,25.019 L59.799,26.208 L60.975,27.826 L62.151,29.444 L62.738,30.253 L63.326,31.062 L64.502,32.680 L65.089,33.489 L65.677,34.298 L66.853,35.916 L67.995,37.558 L67.995,39.558 L67.995,41.558 L67.995,43.558 L67.995,45.558 L67.995,47.558 L67.995,49.558 L67.995,51.558 L67.657,52.500 L67.320,53.441 L66.732,54.250 L66.144,55.059 L65.556,55.868 L64.969,56.677 L64.381,57.486 L63.793,58.295 L62.617,59.913 L61.442,61.531 L60.266,63.149 L59.019,64.713 L57.117,65.331 L55.215,65.949 L54.264,66.258 L53.313,66.567 L52.362,66.876 L51.411,67.185 L49.509,67.803 L47.606,68.421 L45.704,69.039 L43.707,68.928 L41.805,68.310 L39.903,67.692 L38.001,67.074 L36.099,66.456 L35.148,66.147 L34.197,65.838 L33.246,65.529 L32.295,65.219 L30.443,64.464 L29.267,62.846 L28.092,61.228 L26.916,59.610 L26.328,58.801 L25.741,57.992 L25.153,57.183 L24.565,56.374 L23.390,54.756 L22.214,53.138 L21.759,51.190 L21.759,49.190 L21.759,47.190 L21.759,45.190 L21.759,43.190 L21.759,41.190 L21.759,39.190 L21.968,37.201 L22.556,36.392 L23.143,35.583 L23.731,34.774 L24.319,33.965 L24.907,33.156 L25.494,32.347 L26.082,31.538 L26.670,30.729 L27.258,29.920 L27.846,29.111 L29.021,27.493 L30.197,25.875 L31.069,25.385 L31.941,24.896 L33.843,24.278 L35.745,23.660 L36.696,23.351 L37.647,23.041 L39.549,22.423 L41.451,21.805 L42.402,21.496 L43.353,21.187 L44.877,20.692 L44.211,20.909 L44.877,20.692 L44.211,20.909 L44.877,20.692 M44.877,20.077 L45.549,20.274 L44.877,20.077 L45.549,20.274 L44.877,20.077 L46.796,20.640 L47.755,20.922 L48.715,21.204 L50.634,21.767 L52.553,22.331 L54.472,22.894 L55.431,23.176 L56.391,23.458 L58.277,24.124 L58.974,24.840 L59.672,25.557 L60.327,26.313 L60.981,27.069 L61.636,27.824 L62.291,28.580 L63.601,30.092 L64.911,31.603 L65.565,32.359 L66.220,33.115 L67.455,34.688 L67.646,35.669 L67.836,36.651 L68.121,38.631 L68.263,39.621 L68.405,40.610 L68.690,42.590 L68.832,43.580 L68.975,44.570 L69.117,45.559 L69.259,46.549 L69.507,48.534 L69.111,49.452 L68.714,50.370 L67.883,52.189 L67.052,54.008 L66.221,55.827 L65.391,57.647 L64.560,59.466 L64.091,60.349 L63.623,61.233 L62.816,61.824 L62.010,62.415 L61.169,62.956 L60.327,63.497 L59.486,64.037 L58.645,64.578 L56.962,65.659 L56.121,66.200 L55.280,66.741 L53.597,67.822 L51.876,68.841 L49.878,68.914 L47.878,68.914 L45.878,68.914 L43.878,68.914 L41.878,68.914 L39.878,68.914 L37.879,68.842 L37.019,68.332 L36.158,67.823 L35.317,67.282 L34.476,66.742 L32.793,65.660 L31.952,65.120 L31.111,64.579 L29.428,63.498 L28.587,62.957 L27.746,62.416 L26.133,61.234 L25.195,59.468 L24.364,57.648 L23.533,55.829 L22.702,54.010 L22.287,53.100 L21.872,52.191 L21.041,50.371 L20.644,49.453 L20.247,48.535 L20.495,46.551 L20.637,45.561 L20.779,44.571 L20.922,43.581 L21.064,42.592 L21.348,40.612 L21.633,38.632 L21.918,36.653 L22.298,34.689 L22.915,33.902 L23.533,33.116 L24.187,32.360 L24.842,31.604 L26.152,30.093 L27.462,28.581 L28.771,27.070 L30.081,25.558 L31.476,24.125 L32.419,23.792 L33.361,23.458 L35.280,22.895 L37.199,22.331 L39.118,21.768 L40.078,21.486 L41.037,21.204 L42.956,20.641 L44.875,20.077 L44.204,20.275 L44.875,20.077 L44.204,20.275 L44.875,20.077 M44.877,19.462 L45.553,19.643 L44.877,19.462 L45.553,19.643 L44.877,19.462 L46.809,19.979 L48.741,20.497 L50.673,21.014 L52.604,21.532 L54.536,22.050 L55.502,22.309 L56.468,22.567 L58.246,23.483 L59.660,24.897 L61.075,26.311 L61.782,27.019 L62.489,27.726 L63.903,29.140 L64.610,29.847 L65.317,30.554 L66.731,31.968 L67.079,32.906 L67.426,33.844 L67.685,34.810 L67.944,35.776 L68.461,37.707 L68.979,39.639 L69.497,41.571 L70.014,43.503 L70.286,45.485 L69.768,47.416 L69.250,49.348 L68.733,51.280 L68.215,53.212 L67.956,54.178 L67.697,55.144 L67.180,57.076 L66.611,57.898 L66.042,58.721 L64.628,60.135 L63.214,61.549 L62.507,62.256 L61.800,62.963 L60.386,64.378 L58.971,65.792 L57.507,67.154 L55.575,67.672 L54.609,67.931 L53.643,68.189 L51.712,68.707 L49.780,69.225 L47.848,69.742 L45.916,70.260 L43.916,70.281 L41.984,69.763 L40.052,69.246 L38.121,68.728 L36.189,68.210 L35.223,67.952 L34.257,67.693 L32.325,67.175 L31.579,66.509 L30.834,65.843 L30.126,65.136 L29.419,64.429 L28.005,63.014 L27.298,62.307 L26.591,61.600 L25.177,60.186 L24.470,59.479 L23.762,58.772 L22.594,57.149 L22.076,55.217 L21.558,53.285 L21.041,51.353 L20.523,49.421 L20.006,47.489 L19.488,45.558 L19.721,43.571 L20.239,41.639 L20.498,40.673 L20.757,39.708 L21.274,37.776 L21.792,35.844 L22.310,33.912 L22.639,32.968 L22.967,32.023 L24.382,30.609 L25.089,29.902 L25.796,29.195 L26.503,28.488 L27.210,27.781 L28.624,26.366 L29.331,25.659 L30.039,24.952 L31.453,23.538 L32.333,23.063 L33.212,22.587 L35.144,22.069 L37.076,21.552 L39.008,21.034 L39.974,20.775 L40.940,20.517 L42.872,19.999 L44.803,19.481 L44.127,19.662 L44.803,19.481 L44.127,19.662 L44.803,19.481 M44.877,18.846 L45.557,19.014 L44.877,18.846 L45.557,19.014 L44.877,18.846 L46.819,19.325 L47.790,19.564 L48.761,19.803 L50.703,20.282 L52.645,20.761 L53.615,21.000 L54.586,21.239 L56.523,21.737 L58.179,22.859 L59.676,24.185 L61.173,25.511 L62.670,26.838 L64.167,28.164 L64.916,28.827 L65.664,29.490 L66.223,30.319 L66.782,31.148 L67.137,32.083 L67.492,33.018 L68.201,34.888 L68.910,36.759 L69.265,37.694 L69.619,38.629 L70.329,40.499 L70.767,42.450 L70.526,44.435 L70.285,46.421 L70.044,48.406 L69.803,50.392 L69.562,52.377 L69.185,54.341 L68.652,55.187 L68.118,56.032 L66.982,57.678 L66.413,58.501 L65.845,59.324 L64.709,60.970 L64.141,61.793 L63.573,62.616 L62.437,64.262 L61.596,64.804 L60.756,65.345 L58.985,66.275 L57.214,67.204 L55.443,68.133 L53.672,69.063 L51.901,69.992 L50.921,70.193 L49.942,70.394 L47.942,70.394 L45.942,70.394 L43.942,70.394 L41.942,70.394 L39.942,70.394 L38.956,70.224 L37.971,70.054 L36.200,69.125 L34.429,68.195 L32.658,67.266 L30.887,66.336 L29.116,65.407 L27.399,64.381 L26.831,63.558 L26.263,62.735 L25.127,61.089 L24.559,60.266 L23.991,59.443 L23.423,58.621 L22.855,57.798 L21.718,56.152 L20.628,54.475 L20.210,52.519 L19.969,50.534 L19.727,48.548 L19.486,46.563 L19.245,44.578 L19.004,42.592 L19.377,40.627 L19.731,39.692 L20.086,38.757 L20.795,36.887 L21.150,35.952 L21.504,35.017 L22.213,33.147 L22.923,31.277 L23.985,29.583 L25.482,28.256 L26.979,26.930 L28.476,25.604 L29.973,24.278 L30.722,23.614 L31.470,22.951 L32.282,22.367 L33.093,21.782 L35.027,21.274 L36.969,20.795 L38.911,20.317 L40.853,19.838 L42.795,19.359 L43.766,19.120 L44.737,18.881 L44.057,19.048 L44.737,18.881 L44.057,19.048 L44.737,18.881 M44.877,18.231 L45.559,18.387 L44.877,18.231 L45.559,18.387 L44.877,18.231 L46.827,18.676 L48.777,19.121 L50.727,19.566 L52.676,20.011 L53.651,20.233 L54.626,20.456 L56.563,20.956 L58.135,22.192 L59.699,23.439 L60.481,24.063 L61.262,24.686 L62.044,25.310 L62.826,25.933 L63.608,26.557 L64.390,27.180 L65.136,27.846 L65.882,28.512 L66.767,30.305 L67.635,32.107 L68.503,33.909 L69.370,35.711 L70.238,37.513 L70.956,39.380 L70.975,41.380 L70.975,43.380 L70.975,45.380 L70.975,47.380 L70.975,49.380 L70.759,51.368 L69.906,53.177 L69.038,54.979 L68.170,56.781 L67.303,58.583 L66.435,60.385 L65.333,62.054 L64.555,62.681 L63.776,63.309 L62.212,64.556 L61.431,65.180 L60.649,65.803 L59.085,67.050 L57.521,68.297 L55.777,69.276 L53.829,69.726 L51.879,70.171 L50.904,70.394 L49.929,70.616 L47.979,71.061 L46.029,71.506 L44.030,71.576 L42.081,71.131 L40.131,70.686 L39.156,70.463 L38.181,70.241 L36.231,69.796 L34.281,69.351 L32.475,68.491 L31.694,67.867 L30.912,67.244 L29.348,65.997 L28.566,65.373 L27.785,64.750 L26.221,63.503 L24.657,62.256 L23.452,60.660 L22.584,58.858 L21.716,57.056 L20.848,55.254 L19.981,53.452 L19.113,51.650 L18.779,49.678 L18.779,47.678 L18.779,45.678 L18.779,43.678 L18.779,41.678 L18.779,39.678 L19.390,37.774 L19.824,36.873 L20.258,35.972 L21.126,34.170 L21.993,32.368 L22.861,30.566 L23.295,29.665 L23.729,28.764 L25.147,27.354 L26.710,26.107 L27.492,25.483 L28.274,24.860 L29.056,24.236 L29.838,23.613 L30.619,22.989 L31.401,22.366 L32.965,21.119 L34.871,20.514 L36.821,20.069 L37.796,19.847 L38.771,19.624 L40.721,19.179 L41.696,18.957 L42.671,18.734 L44.621,18.289 L44.877,18.231 L44.621,18.289 L44.877,18.231 L44.621,18.289 L44.877,18.231 M44.877,17.615 L45.562,17.761 L44.877,17.615 L45.562,17.761 L44.877,17.615 L46.833,18.031 L48.790,18.447 L50.746,18.863 L52.702,19.279 L54.658,19.695 L56.542,20.366 L57.351,20.954 L58.160,21.541 L59.778,22.717 L60.587,23.305 L61.396,23.893 L63.015,25.068 L64.633,26.244 L65.880,27.807 L66.880,29.539 L67.880,31.271 L68.880,33.003 L69.380,33.869 L69.880,34.735 L70.380,35.601 L70.880,36.467 L71.123,38.452 L71.227,39.447 L71.332,40.441 L71.541,42.430 L71.750,44.419 L71.959,46.408 L71.934,48.408 L71.316,50.310 L70.698,52.212 L70.080,54.115 L69.771,55.066 L69.462,56.017 L68.844,57.919 L67.770,59.606 L66.432,61.092 L65.094,62.579 L63.755,64.065 L63.086,64.808 L62.417,65.551 L61.748,66.294 L61.079,67.037 L60.179,67.473 L59.279,67.909 L58.365,68.316 L57.452,68.723 L55.625,69.536 L54.711,69.943 L53.797,70.349 L52.884,70.756 L51.970,71.163 L50.070,71.786 L48.070,71.786 L46.070,71.786 L44.070,71.786 L42.070,71.786 L40.070,71.786 L38.126,71.315 L36.299,70.502 L34.472,69.689 L32.645,68.875 L30.818,68.062 L28.991,67.248 L27.584,65.826 L26.915,65.083 L26.246,64.340 L24.908,62.853 L24.239,62.110 L23.570,61.367 L22.231,59.881 L21.028,58.283 L20.719,57.332 L20.410,56.381 L19.792,54.479 L19.483,53.528 L19.174,52.577 L18.865,51.626 L18.556,50.675 L18.247,49.724 L17.938,48.773 L17.756,46.781 L17.965,44.792 L18.174,42.803 L18.383,40.814 L18.592,38.825 L18.697,37.830 L18.801,36.836 L19.248,35.941 L19.694,35.046 L20.194,34.180 L20.694,33.314 L21.694,31.582 L22.194,30.716 L22.694,29.850 L23.694,28.118 L24.818,26.464 L25.627,25.876 L26.437,25.288 L28.055,24.113 L28.864,23.525 L29.673,22.937 L30.482,22.349 L31.291,21.762 L32.100,21.174 L32.909,20.586 L33.822,20.179 L34.735,19.771 L36.691,19.355 L38.648,18.939 L40.604,18.524 L42.560,18.108 L44.517,17.692 L44.877,17.615 L44.517,17.692 L44.877,17.615 L44.517,17.692 L44.877,17.615 M44.877,17.000 L45.564,17.137 L44.877,17.000 L45.564,17.137 L44.877,17.000 L46.839,17.390 L47.819,17.585 L48.800,17.780 L49.781,17.975 L50.762,18.171 L52.723,18.561 L54.685,18.951 L55.601,19.351 L56.518,19.750 L58.181,20.861 L59.013,21.417 L59.844,21.972 L61.507,23.084 L62.338,23.639 L63.170,24.195 L64.754,25.416 L65.910,27.048 L66.466,27.879 L67.021,28.711 L67.577,29.542 L68.132,30.374 L69.243,32.037 L69.797,32.869 L70.351,33.702 L71.006,35.592 L71.396,37.553 L71.786,39.515 L72.176,41.476 L72.566,43.438 L72.792,45.425 L72.597,46.406 L72.402,47.387 L72.012,49.348 L71.622,51.310 L71.232,53.271 L70.841,55.233 L69.892,56.993 L68.781,58.656 L67.669,60.319 L67.114,61.150 L66.558,61.982 L66.003,62.813 L65.447,63.645 L64.139,65.158 L63.308,65.713 L62.476,66.269 L61.645,66.824 L60.813,67.380 L59.982,67.936 L59.150,68.491 L57.487,69.602 L55.800,70.675 L53.872,71.211 L51.911,71.601 L50.930,71.796 L49.949,71.991 L48.969,72.186 L47.988,72.381 L46.026,72.771 L45.027,72.801 L44.027,72.831 L42.066,72.441 L40.104,72.051 L38.142,71.660 L37.162,71.465 L36.181,71.270 L34.231,70.824 L32.527,69.777 L30.864,68.665 L30.033,68.110 L29.201,67.554 L28.370,66.999 L27.539,66.443 L25.876,65.332 L25.177,64.617 L24.478,63.901 L23.923,63.070 L23.367,62.238 L22.811,61.407 L22.256,60.575 L21.145,58.912 L20.034,57.249 L19.515,56.394 L18.996,55.539 L18.584,53.582 L18.194,51.621 L17.804,49.659 L17.414,47.698 L17.023,45.736 L17.128,43.739 L17.518,41.777 L17.908,39.816 L18.103,38.835 L18.298,37.854 L18.689,35.893 L18.972,34.934 L19.256,33.975 L20.339,32.293 L21.450,30.630 L22.561,28.967 L23.117,28.136 L23.673,27.304 L24.784,25.641 L26.325,24.367 L27.157,23.812 L27.988,23.256 L28.820,22.701 L29.651,22.145 L30.483,21.590 L31.314,21.034 L32.146,20.479 L32.977,19.923 L34.758,19.013 L36.720,18.623 L38.681,18.232 L40.643,17.842 L42.604,17.452 L44.566,17.062 L44.877,17.000 L44.566,17.062 L44.877,17.000 L44.566,17.062 L44.877,17.000 M44.877,16.385 L45.565,16.513 L44.877,16.385 L45.565,16.513 L44.877,16.385 L46.843,16.752 L48.809,17.120 L50.775,17.487 L52.741,17.855 L54.704,18.234 L56.501,19.114 L57.351,19.640 L58.201,20.166 L59.051,20.693 L59.902,21.219 L61.602,22.272 L63.302,23.325 L64.040,24.001 L64.777,24.676 L65.982,26.272 L66.585,27.070 L67.187,27.868 L67.790,28.666 L68.393,29.464 L69.598,31.060 L70.119,31.914 L70.641,32.767 L71.188,34.691 L71.736,36.614 L72.283,38.538 L72.557,39.500 L72.830,40.462 L73.287,42.409 L73.181,44.406 L73.088,45.402 L72.996,46.397 L72.812,48.389 L72.719,49.385 L72.627,50.380 L72.432,52.371 L71.702,54.233 L71.256,55.128 L70.811,56.023 L70.365,56.918 L69.919,57.813 L69.473,58.709 L69.028,59.604 L68.582,60.499 L68.136,61.394 L67.524,62.185 L66.911,62.975 L65.433,64.322 L64.694,64.996 L63.955,65.670 L63.216,66.344 L62.477,67.017 L61.738,67.691 L60.999,68.365 L59.377,69.534 L58.447,69.901 L57.517,70.269 L55.652,70.991 L53.787,71.714 L52.854,72.075 L51.922,72.436 L50.974,72.757 L50.027,73.077 L49.028,73.103 L48.028,73.128 L46.028,73.128 L44.028,73.128 L42.028,73.128 L41.028,73.128 L40.028,73.128 L38.115,72.545 L36.250,71.823 L35.317,71.462 L34.385,71.100 L32.520,70.378 L30.655,69.655 L28.977,68.567 L27.499,67.220 L26.760,66.546 L26.021,65.872 L24.543,64.525 L23.065,63.178 L22.409,62.422 L21.754,61.667 L20.862,59.877 L20.417,58.982 L19.971,58.087 L19.525,57.191 L19.079,56.296 L18.634,55.401 L18.188,54.506 L17.358,52.686 L17.156,50.696 L16.972,48.705 L16.879,47.709 L16.787,46.714 L16.603,44.722 L16.455,42.728 L16.838,40.765 L17.111,39.803 L17.385,38.841 L17.932,36.917 L18.479,34.994 L19.027,33.070 L19.499,32.188 L19.970,31.306 L21.176,29.710 L21.778,28.912 L22.381,28.114 L22.983,27.316 L23.586,26.518 L24.791,24.922 L25.489,24.206 L26.186,23.489 L27.887,22.436 L29.587,21.383 L31.288,20.331 L32.988,19.278 L34.753,18.338 L36.708,17.912 L38.674,17.544 L40.639,17.177 L41.622,16.993 L42.605,16.809 L44.571,16.442 L44.877,16.385 L44.571,16.442 L44.877,16.385 L44.571,16.442 L44.877,16.385 M44.877,15.769 L45.566,15.891 L44.877,15.769 L45.566,15.891 L44.877,15.769 L46.847,16.117 L48.816,16.464 L50.786,16.811 L51.771,16.985 L52.755,17.158 L54.725,17.506 L56.482,18.460 L58.215,19.460 L59.081,19.960 L59.947,20.460 L61.679,21.460 L63.411,22.460 L64.772,23.926 L66.057,25.458 L67.343,26.990 L68.629,28.522 L69.271,29.288 L69.914,30.054 L70.735,31.878 L71.419,33.757 L72.103,35.637 L72.787,37.516 L73.471,39.395 L73.664,41.386 L73.664,43.386 L73.664,45.386 L73.664,47.386 L73.664,49.386 L73.206,51.333 L72.522,53.212 L71.838,55.092 L71.154,56.971 L70.470,58.851 L69.410,60.547 L68.125,62.079 L67.482,62.845 L66.839,63.611 L65.553,65.143 L64.268,66.675 L63.493,67.307 L62.718,67.939 L60.986,68.939 L59.254,69.939 L57.522,70.939 L55.790,71.939 L54.853,72.288 L53.916,72.637 L51.946,72.984 L49.976,73.332 L48.007,73.679 L46.037,74.026 L44.038,74.083 L43.053,73.909 L42.068,73.736 L40.099,73.388 L38.129,73.041 L37.144,72.867 L36.159,72.694 L35.204,72.399 L34.248,72.104 L33.382,71.604 L32.516,71.104 L30.784,70.104 L29.052,69.104 L28.186,68.604 L27.320,68.104 L25.700,66.930 L24.415,65.398 L23.129,63.866 L22.487,63.100 L21.844,62.334 L21.201,61.568 L20.558,60.802 L19.979,59.987 L19.401,59.171 L18.717,57.292 L18.375,56.352 L18.033,55.412 L17.349,53.533 L16.664,51.654 L16.090,49.738 L16.090,47.738 L16.090,45.738 L16.090,43.738 L16.090,41.738 L16.158,39.739 L16.842,37.859 L17.526,35.980 L18.210,34.101 L18.894,32.221 L19.593,30.348 L20.879,28.816 L22.165,27.283 L22.807,26.517 L23.450,25.751 L24.736,24.219 L26.021,22.687 L26.878,22.172 L27.735,21.657 L28.601,21.157 L29.467,20.657 L30.333,20.157 L31.199,19.657 L32.932,18.657 L34.664,17.657 L36.617,17.226 L38.586,16.878 L39.571,16.705 L40.556,16.531 L42.525,16.184 L44.495,15.837 L44.877,15.769 L44.495,15.837 L44.877,15.769 L44.495,15.837 L44.877,15.769 M44.877,15.154 L45.567,15.269 L44.877,15.154 L45.567,15.269 L44.877,15.154 L46.850,15.483 L47.836,15.648 L48.822,15.812 L50.795,16.141 L52.768,16.471 L53.743,16.693 L54.718,16.916 L56.503,17.818 L57.382,18.294 L58.262,18.770 L60.020,19.722 L61.779,20.674 L62.627,21.205 L63.474,21.735 L64.829,23.207 L65.506,23.943 L66.183,24.678 L67.538,26.150 L68.893,27.621 L69.495,28.419 L70.098,29.217 L70.501,30.133 L70.904,31.048 L71.707,32.879 L72.510,34.711 L73.314,36.542 L73.595,37.502 L73.875,38.462 L74.040,40.455 L74.206,42.448 L74.371,44.442 L74.536,46.435 L74.377,48.428 L74.132,49.398 L73.886,50.367 L73.395,52.306 L72.904,54.245 L72.411,56.183 L71.555,57.991 L70.461,59.665 L69.367,61.339 L68.820,62.176 L68.273,63.014 L67.179,64.688 L65.735,66.071 L64.946,66.685 L64.156,67.299 L62.578,68.528 L61.789,69.142 L61.000,69.756 L60.202,70.360 L59.405,70.963 L58.489,71.365 L57.573,71.767 L56.628,72.092 L55.682,72.416 L54.736,72.741 L53.790,73.066 L52.844,73.390 L51.899,73.715 L50.003,74.353 L48.005,74.439 L46.005,74.439 L44.005,74.439 L42.005,74.439 L40.006,74.375 L38.092,73.796 L36.200,73.147 L34.308,72.497 L32.417,71.848 L30.560,71.105 L28.954,69.912 L27.376,68.684 L25.798,67.455 L25.009,66.841 L24.220,66.227 L22.717,64.906 L21.623,63.232 L20.530,61.558 L19.436,59.883 L18.889,59.046 L18.342,58.209 L17.421,56.434 L16.914,54.499 L16.423,52.560 L15.932,50.621 L15.441,48.683 L15.196,46.698 L15.361,44.704 L15.527,42.711 L15.692,40.718 L15.774,39.722 L15.857,38.725 L16.335,36.783 L17.138,34.951 L17.540,34.036 L17.941,33.120 L18.745,31.288 L19.147,30.372 L19.548,29.457 L20.117,28.634 L20.686,27.812 L21.363,27.076 L22.041,26.340 L22.718,25.605 L23.395,24.869 L24.072,24.133 L24.750,23.398 L25.427,22.662 L26.104,21.926 L27.753,20.794 L29.512,19.842 L31.271,18.890 L32.150,18.414 L33.030,17.938 L34.796,17.000 L36.736,16.512 L38.708,16.183 L39.695,16.019 L40.681,15.854 L42.654,15.525 L44.627,15.196 L44.877,15.154 L44.627,15.196 L44.877,15.154 L44.627,15.196 L44.877,15.154 M44.877,14.538 L45.568,14.648 L44.877,14.538 L45.568,14.648 L44.877,14.538 L46.852,14.851 L47.840,15.008 L48.828,15.164 L50.803,15.477 L51.791,15.634 L52.778,15.790 L54.725,16.251 L55.616,16.705 L56.507,17.159 L58.289,18.067 L59.180,18.521 L60.071,18.975 L60.962,19.429 L61.853,19.883 L62.665,20.467 L63.476,21.051 L64.183,21.758 L64.891,22.465 L65.598,23.172 L66.305,23.879 L67.719,25.293 L69.133,26.707 L69.661,27.557 L70.189,28.406 L71.097,30.188 L72.005,31.970 L72.459,32.861 L72.913,33.752 L73.367,34.643 L73.821,35.534 L74.152,37.507 L74.465,39.482 L74.777,41.457 L75.090,43.433 L75.271,45.425 L74.958,47.400 L74.802,48.388 L74.646,49.375 L74.489,50.363 L74.333,51.351 L74.020,53.326 L73.428,55.237 L72.520,57.019 L72.066,57.910 L71.612,58.801 L70.704,60.583 L70.250,61.474 L69.796,62.365 L68.521,63.905 L67.814,64.612 L67.106,65.319 L66.399,66.026 L65.692,66.733 L64.278,68.148 L63.571,68.855 L62.864,69.562 L61.981,70.032 L61.098,70.502 L59.316,71.410 L58.425,71.864 L57.534,72.318 L56.643,72.772 L55.752,73.226 L54.837,73.627 L53.921,74.029 L52.933,74.186 L51.945,74.342 L49.970,74.655 L47.995,74.968 L46.019,75.281 L45.020,75.303 L44.020,75.326 L42.044,75.013 L40.069,74.700 L38.094,74.387 L37.106,74.231 L36.118,74.074 L35.186,73.714 L34.253,73.354 L33.362,72.900 L32.471,72.446 L31.580,71.992 L30.689,71.538 L29.798,71.084 L28.907,70.630 L27.125,69.722 L25.674,68.345 L24.966,67.638 L24.259,66.931 L23.552,66.224 L22.845,65.517 L22.138,64.810 L21.431,64.103 L20.088,62.620 L19.180,60.838 L18.272,59.056 L17.364,57.274 L16.910,56.383 L16.456,55.492 L15.779,53.610 L15.623,52.623 L15.466,51.635 L15.153,49.660 L14.841,47.684 L14.528,45.709 L14.620,43.711 L14.932,41.736 L15.245,39.760 L15.402,38.773 L15.558,37.785 L15.715,36.797 L15.871,35.810 L16.294,34.903 L16.716,33.997 L17.170,33.106 L17.624,32.215 L18.532,30.433 L18.986,29.542 L19.440,28.651 L19.930,27.779 L20.421,26.908 L21.128,26.201 L21.835,25.493 L22.542,24.786 L23.249,24.079 L23.956,23.372 L24.663,22.665 L25.370,21.958 L26.077,21.251 L27.648,20.012 L28.539,19.558 L29.430,19.104 L30.321,18.650 L31.212,18.196 L32.103,17.742 L32.994,17.288 L34.776,16.380 L36.700,15.834 L37.687,15.677 L38.675,15.521 L39.663,15.364 L40.650,15.208 L42.626,14.895 L44.601,14.582 L44.877,14.538 L44.601,14.582 L44.877,14.538 L44.601,14.582 L44.877,14.538 M44.877,13.923 L45.569,14.027 L44.877,13.923 L45.569,14.027 L44.877,13.923 L46.855,14.221 L48.832,14.519 L50.810,14.817 L52.788,15.115 L53.754,15.374 L54.720,15.632 L55.621,16.066 L56.522,16.500 L57.423,16.934 L58.324,17.368 L60.125,18.236 L61.927,19.104 L62.709,19.727 L63.491,20.351 L64.224,21.031 L64.957,21.711 L65.690,22.391 L66.423,23.071 L67.889,24.432 L68.592,25.143 L69.294,25.855 L70.304,27.581 L70.804,28.447 L71.304,29.313 L71.804,30.179 L72.304,31.046 L73.304,32.778 L73.668,33.709 L74.033,34.640 L74.255,35.615 L74.478,36.590 L74.923,38.540 L75.368,40.490 L75.784,42.446 L75.735,44.445 L75.585,46.440 L75.436,48.434 L75.361,49.431 L75.286,50.429 L75.128,51.416 L74.970,52.403 L74.251,54.270 L73.885,55.201 L73.520,56.131 L73.155,57.062 L72.789,57.993 L72.059,59.855 L71.523,60.700 L70.988,61.544 L70.365,62.326 L69.741,63.108 L69.118,63.890 L68.494,64.672 L67.247,66.235 L65.936,67.746 L64.326,68.932 L62.674,70.059 L61.021,71.185 L59.369,72.312 L58.480,72.771 L57.592,73.230 L55.683,73.825 L54.727,74.120 L53.772,74.415 L51.860,75.004 L49.941,75.568 L47.948,75.730 L45.948,75.730 L43.948,75.730 L41.948,75.730 L39.952,75.598 L38.030,75.046 L37.074,74.752 L36.119,74.457 L35.163,74.162 L34.208,73.867 L32.296,73.278 L31.400,72.835 L30.503,72.392 L29.677,71.829 L28.851,71.266 L27.198,70.139 L25.546,69.013 L23.921,67.846 L22.596,66.348 L21.349,64.784 L20.102,63.220 L19.479,62.439 L18.855,61.657 L17.749,59.991 L17.383,59.060 L17.018,58.129 L16.287,56.267 L15.557,54.406 L14.826,52.544 L14.479,50.574 L14.404,49.577 L14.329,48.580 L14.180,46.585 L14.030,44.591 L13.943,42.593 L14.353,40.635 L14.798,38.686 L15.243,36.736 L15.688,34.786 L16.032,33.847 L16.375,32.907 L16.875,32.041 L17.375,31.175 L17.875,30.309 L18.375,29.443 L18.875,28.577 L19.375,27.711 L20.375,25.979 L21.756,24.533 L22.489,23.853 L23.222,23.172 L23.955,22.492 L24.688,21.812 L25.421,21.132 L26.154,20.452 L27.689,19.170 L29.491,18.302 L31.293,17.434 L32.194,17.000 L33.095,16.566 L34.897,15.699 L35.857,15.418 L36.817,15.138 L38.795,14.840 L40.772,14.542 L42.750,14.244 L44.728,13.946 L44.035,14.050 L44.728,13.946 L44.035,14.050 L44.728,13.946 M44.877,13.308 L45.570,13.407 L44.877,13.308 L45.570,13.407 L44.877,13.308 L46.857,13.592 L48.836,13.877 L50.816,14.162 L52.796,14.446 L54.715,15.007 L56.535,15.838 L58.354,16.669 L60.173,17.499 L61.068,17.947 L61.962,18.394 L62.741,19.020 L63.521,19.647 L64.277,20.302 L65.032,20.957 L66.544,22.266 L67.300,22.921 L68.055,23.576 L68.712,24.331 L69.368,25.085 L70.449,26.768 L71.530,28.450 L72.071,29.291 L72.612,30.133 L73.126,30.990 L73.641,31.847 L74.267,33.747 L74.830,35.666 L75.394,37.585 L75.676,38.544 L75.957,39.504 L76.247,41.483 L76.247,43.483 L76.247,45.483 L76.247,47.483 L76.227,49.483 L75.958,50.446 L75.689,51.409 L75.126,53.328 L74.562,55.247 L73.999,57.166 L73.587,58.078 L73.176,58.989 L72.635,59.830 L72.095,60.672 L71.554,61.513 L71.013,62.354 L69.932,64.037 L69.361,64.858 L68.790,65.679 L67.334,67.049 L66.578,67.704 L65.822,68.359 L64.311,69.669 L62.799,70.978 L61.122,72.067 L59.303,72.898 L57.483,73.729 L55.664,74.560 L53.827,75.350 L51.856,75.689 L50.866,75.831 L49.876,75.974 L47.896,76.258 L46.906,76.401 L45.917,76.543 L43.917,76.554 L41.937,76.270 L39.957,75.985 L37.978,75.700 L36.991,75.540 L36.004,75.380 L34.164,74.594 L32.345,73.763 L30.526,72.932 L28.707,72.101 L27.017,71.032 L26.261,70.377 L25.505,69.722 L24.749,69.067 L23.994,68.413 L23.238,67.758 L22.482,67.103 L21.750,66.421 L21.018,65.740 L19.866,64.105 L18.785,62.423 L18.244,61.582 L17.703,60.740 L16.622,59.058 L15.778,57.245 L15.215,55.326 L14.651,53.407 L14.370,52.447 L14.088,51.488 L13.548,49.562 L13.507,47.562 L13.507,45.562 L13.507,43.562 L13.507,41.562 L13.776,39.580 L14.338,37.661 L14.620,36.701 L14.901,35.742 L15.465,33.823 L16.075,31.918 L17.099,30.200 L17.639,29.359 L18.180,28.518 L19.261,26.835 L20.343,25.153 L20.990,24.391 L21.638,23.629 L23.149,22.319 L23.905,21.664 L24.661,21.009 L25.417,20.354 L26.172,19.700 L27.726,18.440 L29.508,17.533 L30.418,17.117 L31.327,16.702 L33.147,15.871 L34.966,15.040 L36.879,14.458 L38.859,14.173 L39.849,14.031 L40.838,13.888 L42.818,13.604 L43.808,13.461 L44.798,13.319 L44.105,13.419 L44.798,13.319 L44.105,13.419 L44.798,13.319 M44.877,12.692 L45.570,12.788 L44.877,12.692 L45.570,12.788 L44.877,12.692 L45.868,12.828 L46.858,12.965 L47.849,13.101 L48.840,13.237 L50.821,13.509 L51.811,13.649 L52.802,13.788 L54.713,14.377 L55.630,14.775 L56.547,15.173 L57.465,15.572 L58.382,15.970 L60.216,16.767 L61.109,17.219 L62.001,17.670 L63.552,18.932 L65.104,20.194 L65.879,20.826 L66.655,21.457 L68.190,22.739 L69.442,24.299 L70.018,25.116 L70.595,25.933 L71.748,27.566 L72.325,28.383 L72.902,29.200 L73.855,30.959 L74.525,32.843 L74.859,33.786 L75.194,34.728 L75.529,35.670 L75.864,36.612 L76.483,38.514 L76.567,39.511 L76.651,40.507 L76.719,41.505 L76.788,42.502 L76.856,43.500 L76.924,44.498 L76.990,45.496 L77.056,46.493 L76.844,48.482 L76.437,50.440 L76.234,51.419 L76.030,52.398 L75.623,54.357 L75.080,56.281 L74.620,57.169 L74.160,58.057 L73.700,58.945 L73.239,59.833 L72.319,61.609 L71.360,63.364 L70.722,64.133 L70.083,64.903 L68.718,66.365 L67.353,67.826 L65.988,69.288 L64.445,70.561 L63.591,71.080 L62.736,71.600 L61.027,72.639 L59.319,73.678 L57.563,74.636 L55.650,75.221 L53.725,75.760 L51.799,76.300 L49.873,76.840 L47.880,77.007 L45.880,77.007 L43.880,77.007 L41.880,77.007 L39.887,76.841 L37.961,76.302 L36.035,75.762 L35.072,75.492 L34.109,75.222 L33.153,74.930 L32.196,74.638 L30.440,73.681 L28.731,72.642 L27.877,72.122 L27.023,71.603 L25.314,70.564 L23.770,69.292 L22.405,67.831 L21.040,66.369 L20.357,65.638 L19.674,64.907 L19.036,64.138 L18.397,63.369 L17.437,61.614 L16.517,59.838 L15.597,58.062 L14.677,56.287 L14.404,55.324 L14.132,54.362 L13.928,53.383 L13.725,52.404 L13.318,50.446 L13.115,49.467 L12.911,48.488 L12.697,46.499 L12.829,44.504 L12.966,42.508 L13.102,40.513 L13.270,38.520 L13.579,37.569 L13.888,36.618 L14.558,34.733 L14.893,33.791 L15.227,32.849 L15.562,31.906 L15.897,30.964 L16.849,29.205 L18.002,27.571 L19.156,25.937 L20.309,24.303 L20.934,23.523 L21.560,22.743 L23.095,21.460 L24.646,20.198 L26.197,18.936 L27.749,17.674 L29.533,16.769 L31.367,15.972 L32.284,15.574 L33.201,15.176 L35.036,14.379 L35.991,14.084 L36.947,13.789 L38.927,13.510 L40.909,13.238 L41.899,13.102 L42.890,12.965 L43.881,12.829 L44.872,12.693 L44.178,12.788 L44.872,12.693 L44.178,12.788 L44.872,12.693 M44.877,12.077 L45.571,12.168 L44.877,12.077 L45.571,12.168 L44.877,12.077 L46.860,12.338 L47.851,12.469 L48.843,12.599 L49.834,12.730 L50.826,12.860 L52.809,13.121 L54.710,13.742 L56.557,14.507 L58.405,15.273 L60.253,16.038 L62.006,17.000 L63.593,18.218 L65.180,19.435 L65.973,20.044 L66.766,20.653 L68.285,21.954 L68.910,22.735 L69.535,23.516 L70.753,25.102 L71.970,26.689 L73.188,28.276 L74.031,30.089 L74.414,31.013 L74.797,31.937 L75.562,33.785 L76.328,35.632 L76.575,36.601 L76.822,37.570 L77.083,39.553 L77.213,40.545 L77.344,41.536 L77.605,43.519 L77.732,45.515 L77.471,47.498 L77.210,49.481 L77.080,50.472 L76.949,51.464 L76.623,53.437 L75.935,55.315 L75.170,57.163 L74.404,59.010 L73.639,60.858 L72.560,62.542 L71.951,63.335 L71.343,64.129 L70.734,64.922 L70.125,65.715 L69.516,66.509 L68.908,67.302 L67.535,68.757 L65.949,69.975 L65.155,70.584 L64.362,71.192 L63.569,71.801 L62.775,72.410 L61.158,73.587 L59.311,74.352 L58.387,74.735 L57.463,75.118 L55.615,75.883 L54.687,76.255 L53.758,76.627 L51.796,77.012 L49.813,77.273 L47.830,77.534 L45.847,77.795 L43.847,77.788 L41.864,77.526 L40.873,77.396 L39.881,77.265 L37.899,77.004 L35.938,76.611 L35.011,76.236 L34.084,75.860 L32.236,75.095 L31.312,74.712 L30.388,74.329 L28.541,73.564 L26.933,72.375 L25.346,71.157 L24.553,70.548 L23.759,69.940 L22.966,69.331 L22.173,68.722 L20.812,67.257 L19.594,65.670 L18.985,64.877 L18.376,64.083 L17.768,63.290 L17.159,62.497 L16.626,61.651 L16.093,60.805 L15.327,58.957 L14.562,57.109 L13.797,55.261 L13.116,53.381 L12.797,51.406 L12.536,49.423 L12.275,47.440 L12.014,45.457 L12.156,43.463 L12.417,41.480 L12.548,40.488 L12.678,39.497 L12.809,38.505 L12.939,37.514 L13.448,35.580 L14.214,33.732 L14.979,31.884 L15.744,30.036 L16.602,28.230 L17.211,27.436 L17.819,26.643 L19.037,25.056 L20.254,23.469 L20.882,22.691 L21.510,21.913 L22.272,21.265 L23.034,20.617 L24.621,19.400 L26.207,18.182 L27.001,17.573 L27.794,16.965 L28.674,16.490 L29.555,16.016 L31.402,15.251 L32.326,14.868 L33.250,14.485 L35.098,13.720 L37.004,13.113 L38.987,12.852 L40.970,12.591 L42.952,12.330 L44.877,12.077 L44.183,12.168 L44.877,12.077 L44.183,12.168 L44.877,12.077 M44.877,11.462 L45.571,11.549 L44.877,11.462 L45.571,11.549 L44.877,11.462 L46.861,11.712 L47.853,11.838 L48.845,11.963 L49.838,12.088 L50.830,12.214 L51.822,12.339 L52.814,12.464 L53.761,12.785 L54.708,13.105 L56.568,13.842 L58.427,14.578 L60.287,15.314 L61.151,15.818 L62.014,16.322 L62.823,16.910 L63.632,17.498 L64.441,18.085 L65.250,18.673 L66.868,19.849 L67.613,20.516 L68.358,21.183 L69.633,22.724 L70.271,23.495 L70.908,24.265 L71.545,25.036 L72.183,25.806 L72.779,26.609 L73.375,27.412 L74.226,29.222 L74.652,30.127 L75.078,31.032 L75.929,32.841 L76.353,33.747 L76.777,34.653 L77.152,36.617 L77.339,37.600 L77.527,38.582 L77.714,39.564 L77.901,40.546 L78.089,41.529 L78.276,42.511 L78.248,44.511 L78.122,46.507 L77.996,48.503 L77.871,50.499 L77.656,51.476 L77.442,52.452 L77.133,53.404 L76.824,54.355 L76.206,56.257 L75.588,58.159 L75.181,59.073 L74.775,59.986 L73.704,61.675 L72.632,63.364 L71.560,65.052 L70.398,66.680 L68.940,68.049 L68.211,68.733 L67.482,69.418 L66.024,70.787 L64.560,72.150 L62.807,73.113 L61.055,74.077 L59.302,75.040 L57.550,76.004 L56.594,76.297 L55.638,76.590 L54.669,76.839 L53.700,77.088 L52.732,77.336 L51.763,77.585 L49.826,78.083 L47.835,78.274 L45.835,78.274 L43.835,78.274 L41.835,78.274 L39.847,78.062 L38.878,77.813 L37.909,77.564 L35.972,77.067 L35.004,76.818 L34.035,76.570 L32.129,75.963 L30.377,74.999 L28.624,74.036 L27.748,73.554 L26.872,73.072 L25.125,72.097 L24.396,71.413 L23.667,70.728 L22.938,70.044 L22.209,69.359 L21.480,68.674 L20.751,67.990 L19.294,66.621 L18.721,65.801 L18.148,64.981 L17.077,63.292 L16.005,61.604 L14.934,59.915 L14.140,58.079 L13.522,56.177 L13.213,55.226 L12.904,54.275 L12.595,53.324 L12.286,52.373 L11.878,50.415 L11.752,48.419 L11.627,46.423 L11.501,44.427 L11.497,43.427 L11.494,42.427 L11.869,40.462 L12.243,38.498 L12.618,36.533 L13.010,34.572 L13.862,32.762 L14.713,30.953 L15.565,29.143 L16.416,27.333 L17.021,26.537 L17.626,25.740 L18.901,24.199 L19.538,23.429 L20.175,22.658 L20.813,21.888 L21.450,21.117 L22.954,19.799 L24.572,18.623 L26.190,17.448 L26.999,16.860 L27.808,16.272 L28.677,15.777 L29.546,15.283 L31.406,14.546 L33.266,13.810 L35.125,13.074 L37.026,12.453 L39.011,12.203 L40.995,11.952 L42.979,11.701 L44.877,11.462 L44.182,11.549 L44.877,11.462 L44.182,11.549 L44.877,11.462 M44.877,10.846 L45.572,10.931 L44.877,10.846 L45.572,10.931 L44.877,10.846 L45.870,10.967 L46.862,11.087 L47.855,11.208 L48.848,11.328 L50.833,11.569 L52.817,11.826 L54.711,12.468 L56.581,13.177 L58.451,13.887 L60.314,14.615 L61.172,15.129 L62.030,15.642 L62.853,16.210 L63.676,16.778 L64.499,17.346 L65.322,17.914 L66.141,18.488 L66.960,19.062 L67.686,19.749 L68.412,20.437 L69.738,21.934 L71.065,23.431 L72.391,24.928 L72.948,25.758 L73.505,26.589 L73.970,27.474 L74.434,28.360 L75.364,30.131 L76.293,31.902 L77.027,33.762 L77.505,35.704 L77.984,37.646 L78.463,39.588 L78.622,40.575 L78.782,41.562 L78.782,43.562 L78.782,45.562 L78.782,47.562 L78.652,49.558 L78.193,51.505 L77.954,52.476 L77.715,53.447 L77.475,54.418 L77.236,55.389 L76.658,57.303 L76.214,58.199 L75.770,59.095 L74.841,60.866 L73.911,62.637 L72.926,64.378 L72.286,65.146 L71.645,65.914 L70.319,67.411 L68.993,68.908 L68.325,69.652 L67.658,70.397 L66.853,70.990 L66.048,71.584 L65.225,72.152 L64.402,72.720 L63.579,73.288 L62.756,73.856 L61.933,74.424 L61.110,74.992 L59.280,75.799 L57.410,76.508 L55.540,77.217 L54.605,77.572 L53.670,77.926 L51.710,78.324 L49.724,78.565 L48.732,78.686 L47.739,78.806 L45.754,79.047 L43.754,79.017 L41.768,78.776 L39.783,78.535 L37.798,78.294 L36.824,78.066 L35.850,77.838 L33.980,77.129 L32.110,76.419 L30.240,75.710 L28.435,74.849 L27.612,74.281 L26.789,73.712 L25.143,72.576 L24.320,72.008 L23.497,71.440 L22.708,70.827 L21.918,70.214 L21.255,69.465 L20.592,68.716 L19.928,67.968 L19.265,67.219 L17.939,65.722 L16.673,64.174 L16.199,63.294 L15.725,62.413 L15.260,61.528 L14.796,60.642 L13.866,58.871 L13.433,57.970 L12.999,57.069 L12.458,55.144 L12.218,54.173 L11.979,53.202 L11.740,52.231 L11.500,51.260 L11.285,50.283 L11.069,49.307 L10.972,47.309 L10.972,45.309 L10.972,43.309 L10.980,42.309 L10.989,41.309 L11.170,40.326 L11.352,39.343 L11.591,38.372 L11.831,37.401 L12.309,35.459 L12.788,33.517 L13.577,31.679 L14.507,29.908 L15.436,28.138 L16.366,26.367 L17.529,24.740 L18.856,23.243 L20.182,21.746 L21.508,20.249 L22.992,18.908 L24.638,17.772 L25.461,17.204 L26.284,16.636 L27.930,15.500 L28.801,15.009 L29.672,14.517 L30.605,14.157 L31.538,13.798 L33.408,13.088 L35.278,12.379 L37.190,11.791 L39.174,11.539 L41.159,11.298 L43.145,11.056 L44.877,10.846 L44.182,10.931 L44.877,10.846 L44.182,10.931 L44.877,10.846 M44.877,10.231 L45.572,10.312 L44.877,10.231 L45.572,10.312 L44.877,10.231 L46.863,10.463 L48.850,10.695 L50.836,10.927 L51.826,11.072 L52.815,11.216 L54.718,11.832 L56.598,12.516 L58.477,13.200 L59.409,13.562 L60.342,13.924 L62.051,14.962 L62.887,15.511 L63.722,16.061 L65.393,17.160 L66.229,17.709 L67.064,18.259 L67.766,18.970 L68.469,19.682 L69.841,21.137 L71.214,22.592 L72.555,24.076 L73.098,24.915 L73.642,25.754 L74.642,27.486 L75.642,29.218 L76.136,30.088 L76.630,30.957 L77.287,32.846 L77.574,33.804 L77.861,34.762 L78.147,35.720 L78.434,36.678 L79.008,38.594 L79.212,40.584 L79.329,42.580 L79.387,43.579 L79.445,44.577 L79.533,46.575 L79.316,48.563 L78.968,50.533 L78.621,52.502 L78.274,54.472 L77.932,55.412 L77.590,56.352 L76.798,58.188 L76.006,60.024 L75.214,61.861 L74.671,62.701 L74.128,63.540 L72.933,65.144 L71.739,66.749 L70.534,68.345 L69.821,69.046 L69.109,69.748 L67.577,71.034 L66.045,72.319 L64.513,73.605 L62.803,74.642 L61.015,75.540 L60.122,75.989 L59.228,76.437 L57.441,77.335 L55.542,77.963 L53.596,78.424 L52.623,78.655 L51.650,78.886 L49.704,79.347 L47.712,79.534 L45.712,79.534 L43.712,79.534 L41.712,79.534 L39.730,79.271 L37.784,78.810 L35.838,78.348 L33.892,77.887 L32.018,77.187 L30.231,76.289 L29.337,75.840 L28.444,75.392 L27.550,74.943 L26.656,74.494 L24.988,73.392 L24.221,72.749 L23.455,72.106 L21.923,70.821 L21.157,70.178 L20.391,69.535 L19.701,68.811 L19.011,68.087 L18.414,67.285 L17.817,66.483 L17.220,65.681 L16.623,64.879 L15.429,63.275 L14.918,62.415 L14.408,61.555 L13.616,59.718 L12.824,57.882 L12.031,56.045 L11.422,54.141 L11.075,52.171 L10.727,50.201 L10.554,49.216 L10.380,48.232 L10.214,46.239 L10.328,44.242 L10.445,42.245 L10.561,40.249 L10.844,38.269 L11.130,37.311 L11.417,36.353 L11.991,34.437 L12.278,33.479 L12.564,32.521 L13.283,30.654 L13.783,29.788 L14.283,28.922 L15.283,27.190 L16.283,25.458 L17.414,23.809 L18.095,23.076 L18.775,22.343 L20.147,20.888 L21.520,19.433 L22.981,18.067 L23.816,17.518 L24.652,16.968 L25.487,16.419 L26.323,15.869 L27.994,14.770 L29.723,13.765 L31.602,13.081 L33.481,12.397 L35.361,11.713 L36.320,11.431 L37.280,11.149 L38.271,11.018 L39.262,10.887 L41.249,10.655 L43.235,10.423 L44.877,10.231 L44.182,10.312 L44.877,10.231 L44.182,10.312 L44.877,10.231 M44.877,9.615 L45.573,9.694 L44.877,9.615 L45.573,9.694 L44.877,9.615 L46.864,9.839 L48.852,10.063 L50.839,10.287 L52.816,10.589 L54.723,11.193 L55.667,11.523 L56.611,11.853 L58.499,12.514 L60.373,13.211 L61.220,13.743 L62.067,14.274 L63.761,15.338 L64.607,15.870 L65.454,16.402 L67.094,17.547 L67.815,18.240 L68.536,18.933 L69.243,19.640 L69.951,20.347 L71.365,21.761 L72.044,22.495 L72.723,23.229 L73.788,24.922 L74.852,26.615 L75.384,27.462 L75.916,28.309 L76.399,29.185 L76.881,30.061 L77.221,31.001 L77.560,31.942 L78.221,33.830 L78.881,35.717 L79.431,37.641 L79.543,38.634 L79.656,39.628 L79.768,40.622 L79.880,41.615 L80.104,43.603 L80.149,44.602 L80.194,45.601 L79.970,47.588 L79.746,49.576 L79.522,51.563 L79.144,53.527 L78.485,55.415 L78.155,56.359 L77.825,57.303 L77.494,58.247 L77.164,59.191 L76.342,61.014 L75.278,62.707 L74.214,64.401 L73.150,66.094 L72.538,66.885 L71.926,67.676 L71.219,68.384 L70.513,69.091 L69.805,69.798 L69.098,70.505 L68.391,71.212 L67.684,71.920 L66.127,73.175 L64.434,74.239 L63.587,74.771 L62.740,75.303 L61.047,76.367 L59.241,77.226 L57.353,77.887 L56.409,78.217 L55.465,78.548 L53.577,79.208 L52.599,79.416 L51.621,79.625 L50.628,79.737 L49.634,79.849 L47.646,80.073 L46.653,80.185 L45.659,80.296 L43.660,80.247 L42.666,80.135 L41.672,80.024 L39.685,79.800 L38.691,79.688 L37.697,79.576 L36.731,79.320 L35.764,79.064 L34.820,78.734 L33.876,78.403 L32.932,78.073 L31.988,77.743 L31.047,77.406 L30.106,77.069 L29.221,76.602 L28.337,76.135 L27.490,75.602 L26.644,75.070 L24.950,74.006 L24.103,73.474 L23.257,72.942 L21.763,71.613 L21.056,70.905 L20.349,70.198 L19.641,69.491 L18.934,68.784 L17.541,67.350 L16.957,66.538 L16.373,65.726 L15.309,64.033 L14.777,63.186 L14.245,62.339 L13.181,60.646 L12.448,58.785 L12.118,57.841 L11.787,56.897 L11.457,55.953 L11.127,55.009 L10.817,54.059 L10.507,53.108 L10.183,51.134 L10.072,50.140 L9.960,49.147 L9.736,47.159 L9.512,45.172 L9.697,43.180 L9.809,42.187 L9.921,41.193 L10.145,39.206 L10.425,37.225 L11.014,35.314 L11.344,34.370 L11.674,33.426 L12.005,32.482 L12.335,31.538 L12.681,30.600 L13.027,29.662 L14.062,27.951 L14.595,27.104 L15.127,26.257 L16.191,24.564 L17.313,22.909 L18.002,22.184 L18.691,21.459 L20.105,20.045 L21.520,18.631 L22.250,17.948 L22.981,17.265 L24.659,16.177 L26.352,15.113 L28.046,14.049 L29.782,13.056 L30.722,12.714 L31.661,12.372 L33.549,11.711 L34.493,11.381 L35.437,11.051 L37.356,10.486 L39.340,10.239 L41.328,10.015 L42.321,9.903 L43.315,9.791 L44.877,9.615 L44.181,9.694 L44.877,9.615 L44.181,9.694 L44.877,9.615 M44.877,9.000 L45.573,9.076 L44.877,9.000 L45.573,9.076 L44.877,9.000 L46.865,9.216 L48.854,9.432 L49.848,9.541 L50.842,9.649 L52.819,9.947 L54.726,10.552 L56.621,11.191 L58.516,11.830 L60.369,12.583 L62.096,13.592 L62.952,14.108 L63.809,14.623 L65.523,15.655 L66.340,16.231 L67.157,16.808 L68.609,18.184 L70.061,19.559 L70.787,20.247 L71.513,20.934 L72.168,21.690 L72.824,22.445 L73.946,24.100 L75.068,25.755 L75.630,26.583 L76.191,27.411 L76.647,28.301 L77.103,29.191 L77.473,30.120 L77.843,31.049 L78.584,32.907 L79.324,34.765 L79.785,36.711 L80.108,38.684 L80.432,40.658 L80.585,41.646 L80.739,42.634 L80.738,44.634 L80.684,45.633 L80.630,46.631 L80.576,47.630 L80.522,48.629 L80.444,49.626 L80.367,50.623 L80.142,51.597 L79.918,52.571 L79.383,54.499 L78.847,56.426 L78.564,57.385 L78.280,58.344 L77.824,59.233 L77.367,60.123 L76.430,61.890 L75.962,62.773 L75.493,63.657 L74.496,65.391 L73.212,66.924 L71.917,68.448 L71.270,69.210 L70.622,69.972 L69.232,71.410 L67.655,72.640 L66.859,73.245 L66.063,73.851 L65.267,74.456 L64.471,75.061 L63.631,75.603 L62.791,76.146 L61.883,76.566 L60.975,76.986 L59.160,77.825 L58.253,78.245 L57.345,78.665 L55.454,79.317 L53.501,79.747 L51.548,80.177 L49.593,80.601 L48.598,80.695 L47.602,80.789 L45.602,80.789 L43.602,80.789 L41.602,80.789 L39.625,80.490 L37.672,80.060 L35.718,79.630 L33.765,79.200 L31.916,78.437 L31.009,78.017 L30.101,77.597 L29.193,77.178 L28.286,76.758 L27.389,76.315 L26.493,75.872 L25.671,75.302 L24.850,74.731 L24.054,74.126 L23.258,73.521 L22.461,72.916 L21.665,72.311 L20.887,71.683 L20.109,71.055 L19.445,70.307 L18.781,69.559 L17.486,68.035 L16.191,66.511 L14.945,64.947 L14.008,63.180 L13.539,62.296 L13.071,61.413 L12.134,59.646 L11.312,57.823 L11.036,56.861 L10.761,55.900 L10.493,54.937 L10.225,53.973 L9.958,53.009 L9.690,52.046 L9.504,51.064 L9.317,50.081 L9.203,48.084 L9.094,46.087 L9.040,45.089 L8.986,44.090 L9.087,42.093 L9.410,40.119 L9.734,38.145 L9.899,37.159 L10.065,36.173 L10.633,34.255 L11.003,33.326 L11.373,32.397 L12.113,30.539 L12.858,28.683 L13.364,27.821 L13.870,26.958 L14.431,26.130 L14.992,25.303 L16.115,23.647 L17.237,21.992 L17.936,21.277 L18.635,20.561 L20.087,19.186 L21.539,17.811 L23.022,16.469 L24.696,15.375 L26.410,14.344 L27.267,13.828 L28.124,13.312 L28.999,12.829 L29.874,12.346 L31.752,11.656 L33.647,11.018 L35.542,10.379 L37.459,9.807 L38.453,9.699 L39.447,9.591 L41.435,9.374 L43.424,9.158 L44.877,9.000 L44.181,9.076 L44.877,9.000 L44.181,9.076 L44.877,9.000 M44.877,8.385 L45.573,8.458 L44.877,8.385 L45.573,8.458 L44.877,8.385 L46.866,8.594 L48.855,8.803 L50.844,9.012 L51.834,9.153 L52.824,9.293 L53.775,9.602 L54.726,9.911 L56.628,10.529 L58.531,11.148 L59.456,11.526 L60.382,11.904 L61.248,12.404 L62.114,12.904 L63.846,13.904 L65.578,14.904 L67.189,16.089 L67.932,16.758 L68.675,17.427 L70.162,18.766 L70.905,19.435 L71.648,20.104 L72.284,20.875 L72.921,21.646 L73.509,22.455 L74.096,23.265 L75.272,24.883 L76.448,26.501 L77.306,28.307 L77.712,29.221 L78.119,30.134 L78.933,31.961 L79.328,32.880 L79.724,33.798 L80.140,35.754 L80.556,37.711 L80.972,39.667 L81.292,41.641 L81.292,43.641 L81.292,45.641 L81.292,47.641 L81.120,49.634 L80.705,51.590 L80.289,53.546 L79.873,55.503 L79.220,57.393 L78.813,58.307 L78.407,59.220 L78.000,60.134 L77.593,61.047 L76.780,62.874 L75.685,64.548 L75.098,65.357 L74.510,66.166 L73.334,67.784 L72.746,68.593 L72.159,69.402 L70.689,70.759 L69.946,71.428 L69.203,72.098 L67.717,73.436 L66.199,74.738 L64.467,75.738 L62.735,76.738 L61.003,77.738 L60.108,78.184 L59.213,78.631 L58.262,78.940 L57.311,79.249 L55.409,79.867 L54.458,80.176 L53.507,80.485 L52.530,80.699 L51.553,80.914 L49.564,81.123 L48.570,81.227 L47.575,81.332 L45.586,81.541 L43.587,81.480 L42.592,81.375 L41.598,81.271 L39.609,81.062 L37.620,80.853 L36.658,80.579 L35.696,80.306 L33.794,79.688 L32.843,79.379 L31.892,79.070 L29.990,78.452 L28.257,77.453 L27.391,76.953 L26.525,76.453 L24.793,75.453 L23.945,74.922 L23.098,74.391 L22.355,73.722 L21.612,73.053 L20.125,71.714 L19.382,71.045 L18.639,70.376 L17.947,69.655 L17.254,68.933 L16.666,68.124 L16.079,67.315 L14.903,65.697 L13.728,64.079 L13.232,63.210 L12.737,62.342 L11.924,60.515 L11.110,58.687 L10.703,57.774 L10.297,56.860 L9.760,54.934 L9.344,52.977 L8.928,51.021 L8.513,49.065 L8.462,47.065 L8.462,45.065 L8.462,43.065 L8.485,41.066 L8.901,39.109 L9.317,37.153 L9.732,35.197 L10.242,33.263 L10.649,32.349 L11.055,31.436 L11.462,30.522 L11.869,29.608 L12.682,27.781 L13.648,26.030 L14.236,25.221 L14.824,24.412 L15.999,22.794 L17.175,21.176 L17.857,20.445 L18.539,19.714 L19.282,19.044 L20.026,18.375 L20.769,17.706 L21.512,17.037 L22.998,15.699 L23.838,15.156 L24.678,14.614 L25.544,14.114 L26.410,13.614 L28.142,12.614 L29.874,11.614 L31.768,10.971 L32.719,10.662 L33.670,10.353 L34.621,10.043 L35.572,9.734 L37.488,9.161 L39.477,8.952 L41.466,8.743 L43.456,8.534 L44.877,8.385 L44.181,8.458 L44.877,8.385 L44.181,8.458 L44.877,8.385 M44.877,7.769 L45.573,7.840 L44.877,7.769 L45.573,7.840 L44.877,7.769 L45.872,7.870 L46.867,7.972 L48.856,8.174 L50.846,8.376 L51.835,8.525 L52.824,8.673 L54.732,9.272 L55.686,9.571 L56.641,9.871 L57.595,10.170 L58.549,10.470 L60.391,11.248 L62.140,12.219 L63.014,12.704 L63.888,13.189 L64.763,13.675 L65.637,14.160 L67.228,15.372 L68.746,16.674 L70.263,17.977 L71.761,19.302 L72.393,20.077 L73.025,20.852 L73.637,21.643 L74.249,22.434 L74.861,23.225 L75.474,24.016 L76.633,25.645 L77.076,26.542 L77.519,27.438 L77.959,28.336 L78.399,29.234 L79.280,31.030 L79.642,31.962 L80.004,32.894 L80.254,33.862 L80.505,34.830 L81.006,36.767 L81.497,38.706 L81.746,40.690 L81.847,42.687 L81.948,44.685 L82.007,46.684 L81.786,48.672 L81.483,50.649 L81.332,51.637 L81.181,52.626 L80.787,54.587 L80.126,56.474 L79.431,58.350 L78.737,60.225 L77.895,62.039 L76.842,63.740 L75.784,65.437 L75.251,66.283 L74.718,67.129 L73.464,68.687 L72.775,69.412 L72.086,70.137 L71.397,70.862 L70.708,71.587 L70.006,72.298 L69.303,73.009 L67.719,74.230 L66.898,74.801 L66.077,75.373 L64.436,76.515 L62.747,77.587 L60.928,78.418 L59.090,79.207 L57.252,79.996 L55.360,80.644 L53.404,81.061 L52.425,81.263 L51.445,81.464 L49.486,81.867 L47.493,82.039 L45.493,82.040 L43.493,82.040 L41.493,82.024 L39.518,81.712 L37.559,81.310 L35.600,80.907 L34.627,80.677 L33.654,80.446 L31.800,79.695 L29.962,78.906 L28.124,78.117 L26.338,77.218 L25.516,76.649 L24.693,76.080 L23.052,74.938 L22.231,74.366 L21.410,73.795 L19.899,72.485 L19.210,71.760 L18.521,71.035 L17.143,69.586 L15.765,68.136 L14.627,66.492 L14.098,65.643 L13.569,64.794 L13.040,63.946 L12.511,63.097 L11.989,62.244 L11.467,61.391 L10.757,59.522 L10.062,57.646 L9.368,55.771 L8.763,53.864 L8.460,51.887 L8.157,49.910 L8.006,48.922 L7.854,47.933 L7.798,46.935 L7.742,45.937 L7.793,44.938 L7.843,43.939 L7.945,41.942 L7.995,40.943 L8.046,39.944 L8.433,37.982 L8.934,36.046 L9.436,34.110 L9.695,33.144 L9.954,32.178 L10.800,30.366 L11.240,29.468 L11.680,28.570 L12.561,26.774 L13.035,25.894 L13.508,25.013 L14.733,23.431 L15.345,22.641 L15.957,21.850 L16.569,21.059 L17.181,20.268 L17.858,19.533 L18.536,18.797 L20.053,17.494 L21.571,16.191 L22.331,15.542 L23.092,14.893 L23.929,14.346 L24.767,13.799 L26.515,12.829 L28.264,11.858 L29.147,11.389 L30.030,10.920 L30.972,10.584 L31.914,10.247 L33.822,9.648 L34.776,9.349 L35.730,9.050 L37.662,8.533 L39.649,8.301 L40.644,8.200 L41.639,8.099 L42.633,7.997 L43.628,7.896 L44.877,7.769 L44.181,7.840 L44.877,7.769 L44.181,7.840 L44.877,7.769 M44.877,7.154 L45.574,7.222 L44.877,7.154 L45.574,7.222 L44.877,7.154 L46.867,7.350 L48.858,7.546 L49.853,7.644 L50.848,7.742 L52.824,8.052 L54.738,8.633 L56.652,9.213 L58.566,9.794 L59.483,10.192 L60.400,10.591 L61.282,11.062 L62.164,11.533 L63.928,12.476 L65.681,13.439 L66.475,14.046 L67.270,14.653 L68.816,15.922 L70.362,17.191 L71.843,18.535 L73.134,20.062 L73.769,20.835 L74.403,21.608 L75.038,22.381 L75.672,23.154 L76.230,23.984 L76.788,24.814 L77.735,26.575 L78.207,27.457 L78.678,28.339 L79.598,30.115 L80.290,31.991 L80.870,33.905 L81.451,35.819 L81.958,37.754 L82.205,39.738 L82.401,41.729 L82.597,43.719 L82.652,45.718 L82.456,47.709 L82.260,49.699 L82.055,51.689 L81.615,53.640 L81.325,54.597 L81.034,55.554 L80.454,57.467 L79.841,59.371 L79.394,60.266 L78.946,61.160 L78.003,62.924 L77.532,63.806 L77.060,64.687 L76.035,66.404 L74.766,67.950 L74.131,68.723 L73.497,69.496 L72.863,70.269 L72.228,71.042 L70.804,72.446 L69.258,73.715 L67.712,74.984 L66.939,75.618 L66.166,76.253 L65.300,76.753 L64.434,77.253 L62.670,78.196 L60.906,79.139 L59.115,80.028 L57.204,80.619 L55.290,81.200 L53.376,81.780 L51.421,82.202 L49.431,82.398 L47.440,82.594 L45.450,82.790 L44.451,82.748 L43.452,82.706 L42.457,82.608 L41.461,82.510 L39.471,82.314 L37.488,82.056 L36.523,81.794 L35.558,81.532 L33.644,80.951 L31.730,80.371 L29.861,79.659 L28.088,78.733 L26.324,77.790 L25.445,77.315 L24.565,76.840 L23.742,76.271 L22.919,75.703 L22.146,75.069 L21.373,74.434 L19.827,73.166 L18.309,71.863 L16.976,70.372 L16.341,69.599 L15.707,68.826 L15.073,68.053 L14.438,67.280 L13.841,66.478 L13.244,65.676 L12.284,63.922 L11.341,62.158 L10.870,61.276 L10.398,60.394 L10.013,59.471 L9.628,58.548 L9.048,56.634 L8.757,55.677 L8.467,54.720 L8.180,53.763 L7.893,52.805 L7.605,50.825 L7.409,48.835 L7.213,46.845 L7.129,45.848 L7.045,44.852 L7.241,42.861 L7.437,40.871 L7.536,39.876 L7.634,38.881 L7.803,37.895 L7.972,36.910 L8.553,34.996 L9.134,33.082 L9.424,32.125 L9.714,31.168 L10.126,30.257 L10.538,29.345 L11.481,27.582 L12.423,25.818 L13.389,24.066 L14.007,23.280 L14.624,22.493 L15.893,20.947 L16.527,20.174 L17.162,19.401 L17.839,18.665 L18.516,17.930 L20.053,16.649 L20.826,16.015 L21.599,15.380 L22.372,14.746 L23.145,14.112 L23.981,13.564 L24.818,13.017 L25.700,12.545 L26.581,12.072 L28.345,11.130 L29.235,10.673 L30.124,10.216 L32.008,9.545 L33.922,8.964 L35.836,8.384 L36.806,8.139 L37.775,7.894 L38.768,7.776 L39.761,7.658 L41.752,7.462 L43.742,7.266 L44.877,7.154 L44.180,7.222 L44.877,7.154 L44.180,7.222 L44.877,7.154 M44.877,6.538 L45.574,6.605 L44.877,6.538 L45.574,6.605 L44.877,6.538 L45.872,6.634 L46.868,6.729 L48.859,6.919 L50.850,7.109 L52.823,7.433 L54.743,7.993 L56.662,8.557 L58.578,9.130 L59.494,9.531 L60.410,9.932 L61.299,10.390 L62.188,10.849 L63.077,11.307 L63.966,11.765 L64.838,12.254 L65.711,12.743 L67.315,13.937 L68.887,15.173 L69.673,15.791 L70.459,16.410 L71.935,17.760 L73.244,19.271 L74.554,20.783 L75.864,22.294 L76.948,23.975 L77.948,25.707 L78.448,26.573 L78.948,27.439 L79.896,29.200 L80.575,31.081 L81.229,32.971 L81.884,34.861 L82.127,35.831 L82.371,36.801 L82.517,37.790 L82.664,38.779 L82.948,40.759 L83.204,42.742 L83.220,44.742 L83.125,46.740 L83.030,48.738 L82.949,49.734 L82.868,50.731 L82.640,51.705 L82.412,52.679 L82.176,53.650 L81.941,54.622 L81.469,56.566 L80.822,58.458 L79.991,60.278 L79.160,62.097 L78.329,63.916 L77.223,65.582 L76.643,66.397 L76.063,67.211 L75.483,68.026 L74.903,68.841 L74.283,69.625 L73.663,70.410 L72.238,71.814 L70.791,73.194 L69.340,74.570 L67.765,75.803 L66.083,76.884 L64.400,77.966 L62.702,79.023 L60.876,79.837 L59.019,80.580 L58.090,80.952 L57.162,81.323 L55.276,81.988 L54.294,82.177 L53.312,82.366 L52.330,82.556 L51.348,82.745 L49.384,83.123 L47.391,83.287 L45.391,83.287 L43.391,83.287 L41.391,83.245 L40.403,83.092 L39.415,82.939 L38.433,82.750 L37.451,82.561 L35.487,82.182 L33.550,81.686 L32.618,81.323 L31.686,80.961 L30.757,80.589 L29.829,80.217 L28.902,79.843 L27.974,79.469 L26.215,78.519 L24.532,77.437 L23.691,76.897 L22.850,76.356 L22.010,75.812 L21.171,75.268 L19.708,73.904 L18.985,73.214 L18.261,72.524 L16.814,71.144 L15.450,69.681 L14.289,68.052 L13.129,66.423 L12.549,65.608 L11.969,64.794 L11.495,63.913 L11.021,63.033 L10.190,61.214 L9.775,60.304 L9.360,59.394 L8.588,57.549 L8.056,55.621 L7.584,53.678 L7.113,51.734 L6.773,49.763 L6.678,47.765 L6.583,45.768 L6.488,43.770 L6.659,41.777 L6.802,40.787 L6.944,39.798 L7.086,38.808 L7.228,37.818 L7.554,35.845 L7.870,34.896 L8.187,33.947 L8.841,32.057 L9.495,30.167 L10.298,28.336 L11.290,26.599 L12.290,24.867 L13.311,23.147 L13.919,22.353 L14.527,21.559 L15.837,20.048 L16.492,19.292 L17.146,18.536 L18.506,17.070 L19.283,16.439 L20.059,15.809 L20.845,15.191 L21.631,14.573 L22.417,13.954 L23.203,13.336 L24.874,12.237 L26.651,11.320 L27.540,10.862 L28.429,10.404 L30.207,9.487 L32.101,8.847 L33.061,8.566 L34.020,8.284 L35.939,7.721 L36.910,7.481 L37.881,7.241 L39.869,7.017 L41.859,6.827 L43.850,6.636 L44.877,6.538 L44.180,6.605 L44.877,6.538 L44.180,6.605 L44.877,6.538 M44.877,5.923 L45.574,5.988 L44.877,5.923 L45.574,5.988 L44.877,5.923 L46.868,6.108 L48.860,6.292 L50.851,6.477 L52.822,6.816 L54.749,7.354 L56.672,7.901 L58.587,8.477 L59.505,8.875 L60.422,9.273 L61.317,9.719 L62.213,10.165 L63.108,10.611 L64.003,11.056 L64.881,11.534 L65.760,12.012 L66.558,12.614 L67.356,13.217 L68.952,14.422 L69.750,15.025 L70.548,15.627 L71.276,16.313 L72.003,17.000 L72.677,17.739 L73.351,18.478 L74.024,19.217 L74.698,19.956 L76.000,21.474 L76.553,22.307 L77.107,23.140 L77.633,23.990 L78.160,24.840 L78.686,25.690 L79.212,26.541 L80.140,28.312 L80.863,30.177 L81.585,32.042 L81.946,32.975 L82.308,33.907 L82.752,35.857 L83.120,37.823 L83.487,39.789 L83.754,41.771 L83.771,42.771 L83.787,43.771 L83.787,45.771 L83.784,47.771 L83.571,49.760 L83.388,50.743 L83.204,51.726 L82.836,53.691 L82.456,55.655 L81.752,57.527 L81.391,58.460 L81.030,59.392 L80.668,60.324 L80.307,61.257 L79.445,63.061 L78.923,63.915 L78.402,64.768 L77.349,66.469 L76.813,67.312 L76.276,68.156 L75.009,69.704 L74.335,70.443 L73.661,71.182 L72.988,71.921 L72.314,72.660 L70.919,74.093 L69.323,75.298 L68.525,75.901 L67.727,76.503 L66.131,77.709 L64.415,78.737 L62.626,79.629 L61.730,80.075 L60.835,80.521 L59.021,81.363 L57.116,81.972 L55.193,82.520 L54.231,82.793 L53.269,83.067 L52.291,83.274 L51.312,83.481 L49.321,83.665 L47.329,83.850 L45.338,84.034 L43.340,83.935 L41.349,83.750 L39.357,83.565 L38.367,83.425 L37.377,83.285 L36.411,83.028 L35.444,82.771 L34.483,82.497 L33.521,82.223 L31.597,81.676 L30.669,81.303 L29.741,80.930 L28.846,80.485 L27.951,80.039 L27.056,79.593 L26.161,79.148 L24.381,78.234 L23.572,77.647 L22.763,77.059 L21.167,75.854 L20.369,75.251 L19.571,74.648 L18.068,73.329 L16.711,71.860 L15.364,70.382 L14.028,68.893 L13.458,68.071 L12.888,67.250 L11.835,65.549 L10.783,63.849 L9.780,62.118 L9.058,60.253 L8.335,58.388 L7.613,56.523 L7.088,54.593 L6.719,52.628 L6.351,50.662 L6.190,49.675 L6.030,48.688 L5.967,46.689 L5.967,44.689 L5.967,42.689 L6.098,40.693 L6.465,38.727 L6.649,37.744 L6.833,36.761 L7.021,35.779 L7.209,34.797 L7.523,33.847 L7.837,32.898 L8.199,31.965 L8.560,31.033 L9.282,29.168 L9.684,28.252 L10.086,27.337 L11.112,25.620 L11.638,24.769 L12.165,23.919 L12.691,23.069 L13.217,22.219 L14.438,20.634 L15.785,19.156 L16.459,18.417 L17.132,17.678 L17.818,16.950 L18.504,16.223 L19.286,15.599 L20.068,14.976 L21.664,13.771 L22.462,13.168 L23.260,12.566 L24.936,11.474 L26.722,10.573 L27.617,10.127 L28.512,9.682 L30.305,8.795 L31.252,8.474 L32.199,8.153 L34.122,7.605 L35.084,7.332 L36.046,7.058 L37.017,6.817 L37.987,6.576 L39.977,6.377 L41.969,6.193 L43.960,6.008 L44.877,5.923 L44.180,5.988 L44.877,5.923 L44.180,5.988 L44.877,5.923 M44.877,5.308 L45.574,5.370 L44.877,5.308 L45.574,5.370 L44.877,5.308 L46.869,5.487 L47.865,5.577 L48.861,5.666 L50.853,5.846 L52.823,6.190 L54.753,6.715 L55.717,6.981 L56.681,7.247 L58.603,7.801 L59.517,8.207 L60.431,8.612 L61.331,9.046 L62.232,9.480 L64.034,10.348 L65.776,11.331 L67.400,12.499 L69.018,13.674 L69.819,14.273 L70.620,14.872 L71.348,15.557 L72.076,16.243 L72.767,16.965 L73.458,17.688 L74.149,18.411 L74.840,19.134 L75.501,19.884 L76.162,20.635 L77.264,22.304 L78.366,23.973 L78.911,24.811 L79.456,25.650 L79.908,26.541 L80.361,27.433 L81.147,29.272 L81.540,30.192 L81.933,31.111 L82.680,32.967 L83.125,34.917 L83.570,36.866 L83.792,37.841 L84.015,38.816 L84.137,39.809 L84.259,40.801 L84.350,42.799 L84.440,44.797 L84.477,46.797 L84.258,48.785 L83.989,50.767 L83.721,52.749 L83.506,53.725 L83.292,54.702 L82.674,56.604 L82.055,58.506 L81.394,60.394 L80.519,62.192 L79.571,63.953 L78.623,65.714 L77.567,67.413 L76.320,68.977 L75.073,70.540 L73.811,72.091 L72.368,73.477 L70.862,74.792 L70.109,75.450 L69.356,76.108 L68.575,76.733 L67.795,77.358 L66.078,78.384 L65.219,78.897 L64.361,79.410 L62.644,80.436 L61.729,80.840 L60.814,81.244 L58.942,81.946 L58.006,82.298 L57.070,82.649 L55.169,83.273 L54.189,83.469 L53.208,83.666 L52.224,83.845 L51.240,84.023 L49.273,84.381 L47.278,84.533 L45.278,84.533 L43.278,84.533 L42.279,84.500 L41.279,84.468 L40.291,84.317 L39.302,84.167 L37.334,83.809 L36.351,83.631 L35.367,83.452 L34.401,83.192 L33.436,82.931 L32.499,82.580 L31.563,82.228 L29.691,81.526 L27.828,80.799 L26.082,79.822 L24.365,78.796 L22.649,77.770 L21.825,77.203 L21.001,76.636 L20.248,75.978 L19.495,75.320 L17.989,74.004 L17.236,73.346 L16.483,72.688 L15.833,71.929 L15.182,71.169 L14.559,70.387 L13.935,69.605 L12.688,68.042 L12.111,67.225 L11.533,66.409 L11.048,65.534 L10.563,64.660 L9.616,62.899 L8.668,61.137 L7.947,59.272 L7.329,57.370 L6.711,55.467 L6.442,54.504 L6.172,53.541 L5.873,51.564 L5.604,49.582 L5.344,47.599 L5.278,45.600 L5.323,44.601 L5.367,43.602 L5.457,41.604 L5.579,39.608 L6.005,37.654 L6.227,36.679 L6.450,35.704 L6.895,33.754 L7.506,31.850 L7.899,30.930 L8.292,30.011 L9.078,28.172 L9.474,27.253 L9.870,26.335 L10.943,24.647 L11.494,23.813 L12.045,22.978 L12.596,22.144 L13.147,21.309 L14.367,19.724 L15.053,18.997 L15.740,18.270 L16.431,17.547 L17.122,16.824 L18.520,15.395 L20.084,14.148 L20.893,13.560 L21.702,12.973 L22.511,12.385 L23.320,11.797 L24.996,10.705 L26.794,9.830 L28.596,8.963 L30.407,8.113 L31.352,7.787 L32.298,7.461 L33.262,7.195 L34.226,6.929 L35.190,6.663 L36.154,6.397 L38.095,5.918 L40.087,5.739 L41.083,5.649 L42.079,5.559 L44.071,5.380 L44.877,5.308 L44.180,5.370 L44.877,5.308 L44.180,5.370 L44.877,5.308 M44.877,4.692 L45.574,4.753 L44.877,4.692 L45.574,4.753 L44.877,4.692 L46.869,4.867 L48.862,5.041 L50.854,5.215 L52.824,5.559 L54.756,6.076 L55.722,6.335 L56.688,6.594 L58.620,7.112 L60.436,7.950 L62.248,8.795 L63.155,9.218 L64.061,9.640 L65.799,10.630 L67.437,11.777 L69.075,12.925 L69.895,13.498 L70.714,14.072 L72.139,15.475 L73.553,16.889 L74.260,17.596 L74.967,18.304 L76.267,19.823 L76.841,20.642 L77.415,21.462 L78.562,23.100 L79.135,23.919 L79.709,24.738 L80.575,26.541 L81.420,28.354 L82.265,30.166 L82.974,32.036 L83.492,33.968 L83.751,34.934 L84.009,35.900 L84.268,36.866 L84.527,37.832 L84.629,38.827 L84.732,39.821 L84.819,40.818 L84.906,41.814 L85.080,43.806 L85.114,45.806 L84.940,47.798 L84.766,49.791 L84.678,50.787 L84.591,51.783 L84.110,53.724 L83.592,55.656 L83.334,56.622 L83.075,57.588 L82.430,59.481 L81.584,61.294 L81.162,62.200 L80.739,63.106 L80.317,64.013 L79.894,64.919 L78.784,66.583 L77.637,68.221 L76.490,69.859 L75.866,70.641 L75.242,71.422 L73.827,72.836 L72.413,74.251 L71.706,74.958 L70.999,75.665 L69.391,76.854 L68.572,77.428 L67.753,78.001 L66.115,79.149 L65.263,79.673 L64.411,80.196 L62.598,81.042 L60.786,81.887 L59.880,82.310 L58.973,82.732 L57.058,83.307 L55.126,83.825 L54.160,84.083 L53.194,84.342 L52.215,84.547 L51.236,84.751 L49.244,84.926 L48.248,85.013 L47.251,85.100 L45.259,85.274 L43.262,85.166 L41.270,84.992 L39.277,84.818 L37.297,84.540 L35.365,84.022 L34.399,83.763 L33.433,83.504 L31.501,82.987 L29.658,82.209 L27.846,81.364 L26.033,80.518 L25.149,80.052 L24.264,79.586 L22.626,78.439 L20.987,77.292 L19.349,76.144 L17.879,74.789 L17.172,74.081 L16.465,73.374 L15.757,72.667 L15.050,71.960 L13.701,70.484 L12.554,68.845 L11.407,67.207 L10.260,65.569 L9.798,64.682 L9.336,63.795 L8.913,62.889 L8.491,61.982 L7.645,60.170 L6.876,58.324 L6.359,56.392 L6.100,55.426 L5.841,54.460 L5.323,52.528 L5.189,51.537 L5.054,50.546 L4.880,48.554 L4.706,46.561 L4.607,44.564 L4.782,42.571 L4.869,41.575 L4.956,40.579 L5.130,38.587 L5.549,36.631 L6.066,34.699 L6.325,33.733 L6.584,32.767 L7.168,30.854 L8.013,29.042 L8.436,28.135 L8.858,27.229 L9.281,26.323 L9.704,25.416 L10.759,23.718 L11.907,22.080 L13.054,20.441 L13.652,19.640 L14.251,18.839 L14.958,18.132 L15.665,17.425 L16.372,16.718 L17.079,16.011 L17.787,15.304 L18.494,14.597 L19.278,13.976 L20.062,13.356 L21.701,12.209 L23.339,11.062 L25.008,9.960 L25.914,9.537 L26.821,9.114 L27.727,8.692 L28.633,8.269 L29.540,7.847 L30.446,7.424 L31.394,7.106 L32.342,6.788 L34.274,6.270 L36.206,5.753 L38.149,5.281 L40.142,5.107 L41.138,5.019 L42.134,4.932 L44.126,4.758 L44.877,4.692 L44.180,4.753 L44.877,4.692 L44.180,4.753 L44.877,4.692 M44.877,4.077 L45.574,4.136 L44.877,4.077 L45.574,4.136 L44.877,4.077 L45.873,4.162 L46.870,4.247 L48.863,4.416 L50.855,4.593 L52.825,4.934 L53.793,5.186 L54.761,5.438 L56.696,5.942 L58.618,6.498 L59.535,6.895 L60.453,7.293 L61.364,7.705 L62.275,8.117 L64.097,8.943 L65.828,9.945 L66.656,10.505 L67.485,11.065 L69.142,12.184 L69.946,12.779 L70.750,13.373 L71.486,14.051 L72.221,14.728 L72.943,15.420 L73.665,16.112 L75.109,17.496 L76.388,19.033 L76.983,19.837 L77.577,20.641 L78.767,22.249 L79.324,23.080 L79.881,23.910 L80.342,24.797 L80.804,25.685 L81.254,26.577 L81.704,27.470 L82.604,29.256 L83.277,31.140 L83.863,33.052 L84.449,34.964 L84.698,35.933 L84.948,36.901 L85.075,37.893 L85.202,38.885 L85.329,39.877 L85.457,40.868 L85.685,42.855 L85.696,44.855 L85.611,46.854 L85.526,48.852 L85.330,50.842 L84.908,52.797 L84.698,53.775 L84.487,54.752 L84.029,56.699 L83.363,58.585 L82.617,60.441 L81.871,62.296 L80.997,64.095 L80.476,64.949 L79.954,65.802 L79.430,66.653 L78.905,67.505 L77.835,69.194 L77.193,69.961 L76.552,70.728 L75.891,71.479 L75.231,72.230 L73.909,73.731 L73.190,74.426 L72.470,75.120 L71.694,75.751 L70.918,76.382 L69.362,77.638 L67.802,78.890 L66.061,79.873 L64.315,80.848 L63.440,81.333 L62.565,81.818 L61.654,82.229 L60.742,82.640 L58.856,83.307 L56.971,83.973 L55.067,84.586 L53.102,84.960 L51.131,85.298 L50.145,85.467 L49.160,85.636 L47.165,85.776 L45.165,85.776 L43.165,85.776 L41.166,85.693 L40.178,85.544 L39.189,85.395 L37.217,85.057 L35.246,84.719 L33.325,84.164 L32.382,83.831 L31.439,83.498 L29.553,82.832 L28.626,82.458 L27.698,82.084 L26.820,81.606 L25.941,81.129 L25.068,80.641 L24.195,80.153 L22.449,79.178 L21.642,78.587 L20.836,77.996 L19.279,76.740 L17.723,75.483 L16.973,74.822 L16.223,74.161 L14.902,72.660 L14.241,71.909 L13.580,71.158 L12.930,70.399 L12.279,69.639 L11.147,67.990 L10.099,66.287 L9.050,64.584 L8.096,62.827 L7.350,60.971 L6.977,60.043 L6.604,59.115 L5.891,57.247 L5.387,55.311 L4.966,53.356 L4.545,51.401 L4.403,50.411 L4.261,49.421 L4.167,47.423 L4.083,45.425 L4.050,44.426 L4.017,43.426 L4.225,41.437 L4.479,39.453 L4.606,38.461 L4.733,37.469 L4.938,36.491 L5.144,35.512 L5.724,33.598 L6.310,31.686 L6.907,29.777 L7.791,27.983 L8.242,27.090 L8.692,26.197 L9.145,25.306 L9.598,24.414 L10.122,23.563 L10.646,22.711 L11.835,21.103 L12.430,20.299 L13.024,19.495 L14.260,17.922 L15.675,16.509 L16.397,15.817 L17.119,15.125 L18.563,13.741 L20.136,12.506 L21.793,11.386 L22.622,10.826 L23.450,10.266 L24.301,9.741 L25.151,9.215 L26.956,8.353 L28.778,7.529 L30.601,6.705 L32.503,6.087 L33.471,5.835 L34.438,5.583 L36.374,5.079 L38.328,4.654 L39.324,4.560 L40.319,4.465 L41.316,4.380 L42.312,4.295 L44.305,4.126 L44.877,4.077 L44.305,4.126 L44.877,4.077 L44.305,4.126 L44.877,4.077 M44.877,3.462 L45.575,3.519 L44.877,3.462 L45.575,3.519 L44.877,3.462 L46.870,3.627 L48.863,3.792 L50.856,3.966 L52.826,4.310 L54.765,4.801 L56.704,5.292 L57.662,5.578 L58.620,5.864 L59.543,6.249 L60.466,6.634 L61.382,7.036 L62.297,7.437 L64.129,8.241 L64.991,8.748 L65.852,9.255 L66.690,9.802 L67.527,10.349 L68.364,10.896 L69.201,11.443 L70.011,12.030 L70.821,12.616 L71.556,13.294 L72.292,13.971 L73.028,14.648 L73.764,15.326 L75.209,16.708 L76.502,18.234 L77.116,19.023 L77.730,19.812 L78.959,21.390 L80.070,23.053 L81.022,24.812 L81.974,26.571 L82.434,27.459 L82.895,28.346 L83.574,30.228 L83.898,31.174 L84.223,32.119 L84.865,34.014 L85.101,34.985 L85.337,35.957 L85.666,37.930 L85.995,39.903 L86.251,41.886 L86.262,42.886 L86.274,43.886 L86.274,45.886 L86.274,47.886 L86.153,48.879 L86.033,49.872 L85.704,51.844 L85.375,53.817 L84.936,55.768 L84.298,57.664 L83.973,58.610 L83.648,59.555 L83.312,60.497 L82.975,61.439 L82.528,62.333 L82.082,63.228 L81.130,64.987 L80.178,66.746 L79.099,68.430 L78.484,69.219 L77.870,70.008 L76.642,71.586 L76.006,72.358 L75.369,73.129 L74.650,73.824 L73.932,74.520 L73.196,75.197 L72.460,75.874 L71.725,76.552 L70.989,77.229 L69.391,78.431 L68.554,78.979 L67.717,79.526 L66.880,80.073 L66.043,80.620 L64.339,81.667 L63.423,82.069 L62.507,82.471 L60.676,83.274 L58.837,84.060 L56.926,84.652 L54.987,85.143 L53.049,85.634 L52.066,85.820 L51.083,86.005 L50.088,86.097 L49.092,86.189 L48.095,86.272 L47.099,86.354 L45.105,86.520 L44.107,86.456 L43.110,86.392 L41.116,86.227 L39.123,86.062 L38.136,85.904 L37.148,85.746 L35.209,85.255 L34.240,85.010 L33.271,84.764 L31.349,84.210 L30.422,83.834 L29.496,83.457 L28.580,83.056 L27.664,82.654 L25.833,81.850 L24.962,81.359 L24.091,80.868 L22.416,79.774 L21.579,79.227 L20.742,78.680 L19.101,77.538 L17.629,76.183 L16.894,75.506 L16.158,74.829 L15.431,74.142 L14.704,73.455 L14.048,72.701 L13.392,71.946 L12.778,71.157 L12.163,70.367 L10.935,68.789 L9.804,67.140 L8.840,65.387 L8.364,64.508 L7.888,63.628 L7.414,62.748 L6.939,61.868 L6.255,59.989 L5.605,58.097 L5.282,57.151 L4.960,56.204 L4.455,54.269 L4.125,52.296 L3.796,50.323 L3.527,48.342 L3.480,46.342 L3.480,44.342 L3.480,42.342 L3.684,40.353 L4.013,38.380 L4.342,36.407 L4.545,35.428 L4.748,34.449 L5.382,32.552 L5.707,31.606 L6.032,30.660 L6.699,28.775 L7.564,26.972 L8.516,25.213 L8.992,24.333 L9.468,23.454 L10.515,21.750 L11.744,20.172 L12.358,19.383 L12.972,18.594 L14.225,17.034 L14.939,16.335 L15.654,15.635 L16.390,14.958 L17.125,14.281 L18.597,12.926 L19.385,12.311 L20.173,11.695 L21.846,10.599 L23.520,9.505 L25.218,8.447 L26.128,8.034 L27.039,7.621 L28.870,6.817 L30.702,6.015 L31.655,5.709 L32.607,5.404 L33.576,5.158 L34.546,4.913 L36.484,4.422 L38.444,4.024 L39.440,3.927 L40.435,3.830 L42.428,3.664 L44.421,3.499 L44.877,3.462 L44.421,3.499 L44.877,3.462 L44.421,3.499 L44.877,3.462 M44.877,2.846 L45.575,2.902 L44.877,2.846 L45.575,2.902 L44.877,2.846 L46.870,3.007 L48.864,3.168 L49.860,3.252 L50.857,3.337 L51.842,3.511 L52.826,3.685 L53.797,3.924 L54.768,4.163 L55.739,4.403 L56.710,4.642 L57.668,4.928 L58.627,5.214 L60.476,5.974 L62.316,6.758 L64.147,7.563 L65.877,8.567 L66.723,9.101 L67.568,9.635 L69.258,10.704 L70.868,11.891 L72.365,13.218 L73.862,14.544 L74.599,15.219 L75.337,15.895 L75.975,16.664 L76.613,17.434 L77.878,18.983 L79.130,20.543 L80.236,22.210 L80.736,23.076 L81.236,23.942 L81.736,24.808 L82.236,25.674 L82.687,26.566 L83.137,27.459 L83.503,28.390 L83.868,29.321 L84.577,31.191 L85.273,33.066 L85.498,34.040 L85.722,35.015 L86.122,36.974 L86.522,38.934 L86.764,40.919 L86.844,42.918 L86.925,44.916 L86.945,46.916 L86.729,48.904 L86.488,50.890 L86.225,52.872 L85.776,54.821 L85.498,55.782 L85.220,56.742 L84.664,58.664 L84.327,59.605 L83.991,60.547 L83.569,61.454 L83.147,62.360 L82.718,63.264 L82.289,64.167 L81.432,65.974 L80.872,66.802 L80.311,67.630 L79.175,69.276 L78.038,70.922 L77.399,71.691 L76.761,72.461 L75.375,73.903 L73.990,75.345 L72.546,76.729 L70.965,77.954 L69.366,79.156 L68.561,79.749 L67.755,80.341 L66.029,81.351 L64.258,82.281 L63.373,82.745 L62.487,83.210 L60.661,84.026 L58.764,84.660 L56.867,85.294 L55.916,85.603 L54.965,85.912 L52.994,86.249 L52.007,86.410 L51.020,86.570 L50.032,86.725 L49.044,86.879 L48.046,86.948 L47.049,87.017 L45.049,87.017 L43.049,87.017 L41.051,86.918 L40.062,86.771 L39.073,86.625 L37.099,86.304 L35.127,85.971 L33.209,85.402 L31.312,84.768 L29.415,84.135 L28.492,83.752 L27.568,83.368 L25.797,82.439 L24.026,81.509 L23.151,81.025 L22.277,80.540 L20.661,79.361 L19.862,78.760 L19.062,78.160 L17.474,76.944 L16.001,75.592 L14.615,74.149 L13.230,72.707 L12.578,71.948 L11.926,71.190 L11.349,70.373 L10.772,69.556 L10.204,68.733 L9.636,67.910 L8.500,66.264 L7.610,64.473 L6.752,62.667 L6.324,61.763 L5.895,60.860 L5.185,58.990 L4.907,58.029 L4.629,57.069 L4.350,56.108 L4.072,55.148 L3.582,53.209 L3.307,51.228 L3.066,49.242 L2.842,47.255 L2.815,45.255 L2.896,43.257 L2.976,41.258 L3.173,39.268 L3.564,37.307 L3.964,35.347 L4.364,33.387 L4.710,32.449 L5.055,31.511 L5.410,30.576 L5.765,29.641 L6.122,28.707 L6.479,27.773 L7.346,25.971 L7.846,25.105 L8.346,24.239 L8.846,23.373 L9.346,22.506 L10.421,20.819 L11.040,20.034 L11.659,19.249 L12.291,18.474 L12.924,17.700 L14.197,16.158 L14.917,15.464 L15.637,14.770 L17.134,13.443 L18.631,12.117 L20.208,10.887 L21.898,9.818 L23.589,8.749 L25.295,7.705 L26.209,7.299 L27.122,6.893 L28.962,6.109 L29.885,5.723 L30.807,5.337 L32.711,4.724 L33.682,4.485 L34.653,4.245 L35.624,4.006 L36.595,3.767 L38.558,3.385 L39.554,3.290 L40.549,3.196 L42.543,3.035 L44.536,2.874 L44.877,2.846 L44.536,2.874 L44.877,2.846 L44.536,2.874 L44.877,2.846 M44.877,2.231 L45.575,2.286 L44.877,2.231 L45.575,2.286 L44.877,2.231 L46.871,2.388 L47.868,2.466 L48.865,2.545 L50.858,2.704 L52.826,3.060 L54.771,3.526 L55.744,3.760 L56.716,3.993 L58.637,4.549 L59.561,4.932 L60.485,5.315 L61.409,5.697 L62.333,6.080 L63.247,6.485 L64.161,6.891 L65.901,7.877 L67.606,8.922 L68.459,9.445 L69.311,9.967 L70.913,11.165 L72.434,12.464 L73.955,13.763 L75.412,15.133 L76.727,16.640 L78.026,18.160 L78.675,18.921 L79.325,19.681 L80.401,21.367 L80.923,22.220 L81.446,23.072 L81.968,23.925 L82.491,24.777 L82.941,25.670 L83.391,26.564 L84.156,28.411 L84.921,30.259 L85.278,31.193 L85.635,32.127 L85.869,33.100 L86.102,34.072 L86.569,36.017 L86.788,36.993 L87.006,37.968 L87.249,39.954 L87.406,41.947 L87.484,42.944 L87.563,43.941 L87.567,44.941 L87.572,45.941 L87.415,47.935 L87.258,49.929 L87.141,50.922 L87.025,51.915 L86.597,53.869 L86.130,55.814 L85.896,56.786 L85.663,57.758 L84.966,59.633 L84.583,60.557 L84.201,61.481 L83.818,62.405 L83.435,63.329 L82.994,64.226 L82.552,65.123 L82.029,65.976 L81.507,66.828 L80.462,68.534 L79.932,69.381 L79.401,70.229 L78.102,71.750 L76.803,73.271 L75.495,74.784 L74.770,75.472 L74.045,76.160 L72.524,77.459 L71.003,78.758 L69.413,79.971 L68.560,80.493 L67.707,81.016 L66.855,81.538 L66.002,82.061 L64.267,83.056 L62.442,83.875 L61.518,84.257 L60.595,84.640 L58.747,85.405 L57.789,85.692 L56.831,85.979 L54.886,86.446 L52.941,86.913 L50.975,87.277 L48.982,87.446 L47.985,87.525 L46.988,87.603 L45.991,87.682 L44.994,87.760 L42.999,87.621 L41.005,87.465 L40.008,87.386 L39.011,87.308 L37.041,86.968 L35.096,86.501 L34.123,86.267 L33.151,86.034 L31.225,85.496 L29.377,84.730 L28.453,84.347 L27.529,83.965 L26.613,83.564 L25.697,83.163 L23.953,82.184 L23.100,81.662 L22.248,81.139 L20.542,80.094 L18.930,78.911 L17.409,77.612 L15.888,76.313 L14.425,74.950 L13.103,73.449 L11.804,71.928 L10.505,70.408 L9.959,69.570 L9.413,68.732 L8.368,67.026 L7.846,66.174 L7.323,65.321 L6.865,64.432 L6.407,63.543 L5.642,61.696 L4.877,59.848 L4.511,58.917 L4.146,57.986 L3.679,56.041 L3.212,54.097 L2.989,53.122 L2.766,52.147 L2.514,50.163 L2.357,48.169 L2.200,46.175 L2.173,44.175 L2.330,42.182 L2.408,41.185 L2.486,40.188 L2.711,38.200 L3.130,36.245 L3.597,34.300 L4.064,32.355 L4.404,31.415 L4.743,30.474 L5.126,29.550 L5.509,28.627 L5.891,27.703 L6.274,26.779 L7.144,24.978 L8.186,23.271 L8.709,22.418 L9.231,21.566 L10.276,19.860 L11.575,18.340 L12.874,16.819 L14.175,15.300 L15.619,13.916 L17.140,12.618 L18.661,11.319 L19.451,10.705 L20.240,10.091 L21.945,9.046 L23.651,8.001 L24.516,7.500 L25.381,6.998 L26.292,6.585 L27.202,6.171 L28.126,5.788 L29.050,5.406 L29.974,5.023 L30.897,4.640 L32.808,4.049 L33.780,3.815 L34.753,3.582 L35.725,3.348 L36.697,3.115 L37.680,2.928 L38.662,2.741 L40.654,2.563 L41.651,2.485 L42.648,2.406 L44.642,2.249 L44.877,2.231 L44.642,2.249 L44.877,2.231 L44.642,2.249 L44.877,2.231 M44.877,1.615 L45.575,1.669 L44.877,1.615 L45.575,1.669 L44.877,1.615 L45.874,1.692 L46.871,1.768 L48.865,1.922 L50.859,2.075 L51.843,2.255 L52.827,2.434 L54.774,2.890 L55.748,3.118 L56.722,3.346 L58.641,3.909 L60.496,4.656 L61.423,5.030 L62.351,5.404 L64.189,6.192 L65.923,7.188 L67.643,8.210 L69.351,9.249 L70.959,10.439 L72.502,11.712 L73.272,12.349 L74.043,12.986 L74.774,13.668 L75.505,14.351 L76.836,15.844 L78.166,17.337 L78.805,18.106 L79.444,18.876 L80.567,20.531 L81.654,22.210 L82.186,23.056 L82.718,23.903 L83.624,25.686 L84.442,27.511 L85.260,29.336 L85.942,31.216 L86.479,33.143 L87.009,35.071 L87.464,37.019 L87.729,39.001 L87.958,40.988 L88.173,42.977 L88.167,44.977 L88.090,46.975 L88.014,48.974 L87.781,50.960 L87.403,52.924 L87.023,54.887 L86.799,55.862 L86.576,56.837 L86.243,57.780 L85.911,58.723 L85.235,60.605 L84.559,62.488 L83.641,64.264 L82.685,66.021 L81.730,67.779 L81.180,68.614 L80.631,69.450 L80.025,70.245 L79.419,71.040 L78.813,71.836 L78.206,72.631 L76.940,74.179 L75.499,75.566 L74.058,76.953 L73.330,77.638 L72.602,78.324 L70.995,79.515 L70.177,80.090 L69.359,80.666 L67.719,81.810 L65.990,82.815 L64.198,83.703 L63.302,84.147 L62.406,84.590 L60.577,85.400 L58.671,86.006 L56.764,86.610 L54.844,87.168 L53.860,87.351 L52.877,87.535 L50.901,87.840 L48.922,88.131 L47.924,88.194 L46.926,88.257 L44.926,88.257 L42.926,88.257 L40.929,88.143 L38.950,87.855 L36.974,87.550 L35.007,87.189 L34.045,86.914 L33.083,86.640 L31.177,86.036 L30.224,85.733 L29.271,85.430 L27.436,84.634 L25.644,83.746 L24.748,83.303 L23.851,82.859 L22.984,82.360 L22.118,81.862 L20.474,80.722 L18.838,79.571 L17.229,78.383 L16.498,77.702 L15.766,77.020 L14.325,75.633 L12.884,74.246 L12.245,73.477 L11.606,72.708 L10.394,71.117 L9.181,69.527 L8.070,67.863 L7.593,66.985 L7.115,66.106 L6.160,64.349 L5.694,63.464 L5.228,62.579 L4.552,60.697 L3.876,58.815 L3.539,57.873 L3.202,56.932 L2.750,54.984 L2.369,53.020 L1.988,51.057 L1.866,50.064 L1.744,49.072 L1.667,47.073 L1.591,45.075 L1.571,43.075 L1.678,42.081 L1.784,41.086 L2.014,39.099 L2.271,37.116 L2.718,35.167 L3.248,33.238 L3.784,31.311 L4.119,30.369 L4.453,29.427 L4.862,28.514 L5.271,27.602 L6.090,25.777 L6.985,23.988 L7.516,23.141 L8.046,22.293 L9.133,20.614 L10.252,18.956 L11.521,17.411 L12.187,16.664 L12.852,15.918 L13.517,15.171 L14.183,14.425 L14.909,13.737 L15.635,13.049 L16.405,12.412 L17.176,11.775 L18.719,10.502 L20.321,9.305 L21.174,8.783 L22.026,8.260 L23.746,7.238 L24.612,6.739 L25.479,6.240 L27.312,5.441 L29.167,4.693 L31.022,3.946 L31.980,3.657 L32.937,3.368 L34.884,2.912 L36.832,2.457 L38.797,2.087 L40.791,1.929 L42.785,1.776 L44.779,1.623 L44.081,1.676 L44.779,1.623 L44.081,1.676 L44.779,1.623 M44.877,1.000 L45.575,1.052 L44.877,1.000 L45.575,1.052 L44.877,1.000 L45.874,1.075 L46.871,1.149 L47.869,1.224 L48.866,1.299 L50.860,1.448 L52.827,1.809 L54.777,2.254 L56.727,2.699 L58.644,3.268 L59.575,3.633 L60.506,3.999 L61.437,4.364 L62.368,4.729 L64.214,5.499 L65.946,6.499 L67.678,7.499 L68.544,7.999 L69.410,8.499 L70.205,9.106 L71.000,9.712 L71.782,10.336 L72.564,10.959 L74.128,12.206 L75.580,13.581 L76.260,14.314 L76.940,15.047 L77.620,15.780 L78.301,16.513 L78.949,17.275 L79.598,18.036 L80.161,18.862 L80.724,19.688 L81.288,20.515 L81.851,21.341 L82.414,22.167 L82.978,22.993 L83.846,24.795 L84.714,26.597 L85.582,28.399 L86.254,30.282 L86.844,32.193 L87.433,34.105 L87.900,36.049 L88.049,37.038 L88.199,38.027 L88.348,39.016 L88.497,40.005 L88.625,40.996 L88.754,41.988 L88.754,42.988 L88.754,43.988 L88.754,45.988 L88.754,47.988 L88.500,49.972 L88.202,51.949 L87.904,53.927 L87.440,55.873 L86.851,57.784 L86.556,58.739 L86.261,59.695 L85.927,60.637 L85.592,61.580 L84.725,63.382 L83.857,65.184 L82.989,66.986 L81.864,68.639 L81.301,69.466 L80.738,70.292 L80.174,71.118 L79.611,71.944 L78.964,72.707 L78.317,73.469 L77.637,74.202 L76.956,74.935 L75.596,76.401 L74.146,77.779 L73.365,78.403 L72.583,79.026 L71.019,80.273 L70.225,80.881 L69.431,81.489 L68.565,81.989 L67.699,82.489 L66.833,82.989 L65.967,83.489 L65.101,83.989 L64.235,84.489 L62.390,85.262 L61.459,85.627 L60.529,85.992 L58.667,86.723 L57.709,87.009 L56.750,87.295 L54.801,87.740 L52.851,88.185 L50.884,88.550 L48.890,88.699 L46.895,88.849 L44.901,88.998 L42.906,88.852 L40.912,88.703 L38.917,88.553 L37.934,88.375 L36.950,88.196 L35.000,87.751 L33.050,87.306 L31.131,86.741 L29.270,86.010 L27.408,85.279 L26.484,84.896 L25.561,84.513 L23.829,83.513 L22.097,82.513 L21.231,82.013 L20.365,81.513 L18.772,80.303 L17.208,79.056 L15.645,77.809 L14.190,76.436 L13.510,75.703 L12.830,74.970 L11.469,73.504 L10.820,72.744 L10.170,71.984 L9.043,70.331 L8.480,69.505 L7.916,68.679 L7.353,67.853 L6.790,67.026 L6.354,66.126 L5.918,65.226 L5.050,63.425 L4.182,61.623 L3.507,59.740 L2.917,57.829 L2.328,55.918 L2.092,54.946 L1.857,53.974 L1.559,51.996 L1.410,51.007 L1.261,50.019 L1.000,48.036 L1.000,46.036 L1.000,44.036 L1.000,42.036 L1.125,41.044 L1.250,40.051 L1.399,39.063 L1.548,38.074 L1.846,36.096 L2.307,34.150 L2.896,32.239 L3.486,30.328 L4.151,28.442 L4.585,27.541 L5.019,26.640 L5.887,24.838 L6.755,23.036 L7.876,21.380 L8.440,20.554 L9.003,19.727 L10.130,18.075 L10.776,17.311 L11.421,16.548 L12.782,15.082 L13.462,14.349 L14.142,13.616 L14.866,12.926 L15.589,12.235 L16.371,11.612 L17.153,10.988 L18.717,9.741 L19.510,9.132 L20.303,8.523 L21.169,8.023 L22.035,7.523 L22.901,7.023 L23.767,6.523 L24.633,6.023 L25.499,5.523 L26.420,5.135 L27.342,4.747 L29.204,4.016 L31.066,3.285 L32.023,2.998 L32.981,2.710 L34.931,2.265 L36.881,1.820 L38.847,1.452 L39.844,1.377 L40.841,1.302 L42.835,1.153 L44.830,1.004 L44.132,1.056 L44.830,1.004 L44.132,1.056 L44.830,1.004"/>
</svg>
