<svg xmlns="http://www.w3.org/2000/svg" viewBox="0 -28.976 85.024 85.024" width="256" height="256">
  <title>ornaline</title>
  <rect x="0" y="-28.976" width="85.024" height="85.024" fill="#f5efe4"/>
  <path fill="none" stroke="#c8472f" stroke-width="0.4" stroke-linecap="round" stroke-linejoin="round" d="M1.398,24.313 L1.398,24.313 L1.942,24.024 L1.000,23.531 L2.040,23.309 L1.098,22.817 L2.137,22.595 L1.862,21.951 L2.416,22.632 L2.559,21.766 L3.164,22.641 L3.256,21.582 L3.435,22.511 L4.215,22.132 L3.803,23.102 L3.687,22.302 L4.727,22.080 L3.785,21.588 L4.824,21.366 L3.882,20.873 L4.795,20.490 L3.743,20.343 L4.651,19.791 L3.599,19.643 L4.506,19.091 L3.455,18.943 L4.362,18.392 L4.503,18.383 L4.140,19.397 L5.102,18.913 L4.740,19.927 L5.702,19.442 L5.913,19.523 L4.967,19.038 L6.005,18.808 L5.060,18.323 L6.098,18.093 L5.818,17.452 L6.376,18.129 L6.514,17.262 L7.125,18.132 L7.209,17.072 L7.395,18.000 L8.172,17.615 L7.767,18.588 L7.645,17.790 L8.683,17.560 L7.738,17.075 L8.776,16.845 L7.830,16.359 L8.740,15.970 L7.688,15.830 L8.591,15.271 L7.538,15.131 L8.441,14.573 L7.389,14.433 L8.292,13.874 L8.433,13.864 L8.078,14.881 L9.036,14.390 L8.681,15.407 L9.640,14.915 L9.860,15.011 L8.926,14.504 L9.969,14.298 L9.035,13.791 L10.078,13.586 L9.813,12.938 L10.356,13.628 L10.513,12.764 L11.104,13.648 L11.213,12.591 L11.377,13.522 L12.163,13.156 L11.735,14.119 L11.632,13.318 L12.675,13.113 L11.741,12.605 L12.784,12.400 L11.850,11.892 L12.769,11.524 L11.720,11.359 L12.635,10.822 L11.586,10.658 L12.502,10.120 L11.453,9.956 L12.369,9.418 L12.461,9.367 L12.033,10.330 L12.953,9.816 L12.525,10.780 L13.446,10.266 L13.018,11.229 L12.939,10.405 L13.991,10.255 L13.086,9.699 L14.138,9.549 L13.232,8.993 L14.133,9.321 L14.336,8.467 L14.878,9.381 L15.044,8.331 L15.549,9.049 L16.082,8.641 L15.604,9.580 L16.550,9.116 L16.757,9.216 L15.851,8.659 L16.904,8.509 L15.998,7.953 L17.050,7.803 L16.017,7.415 L16.961,6.927 L15.922,6.707 L16.865,6.219 L15.826,5.999 L16.769,5.511 L15.730,5.291 L16.104,5.813 L17.050,5.348 L16.571,6.288 L17.518,5.823 L17.039,6.762 L17.986,6.298 L18.236,6.540 L17.670,5.869 L18.547,5.889 L17.801,5.132 L18.859,5.239 L18.793,4.542 L19.112,5.360 L19.514,4.579 L19.822,5.596 L20.234,4.616 L20.121,5.556 L20.978,5.433 L20.289,6.231 L20.424,5.434 L21.481,5.541 L20.735,4.784 L21.793,4.890 L21.046,4.133 L22.033,4.047 L21.076,3.585 L22.109,3.337 L21.153,2.875 L22.185,2.627 L21.229,2.165 L22.261,1.917 L22.399,1.952 L21.743,2.807 L22.807,2.639 L22.152,3.494 L23.216,3.327 L23.338,3.858 L23.286,2.982 L23.977,3.524 L23.833,2.471 L24.616,3.190 L24.981,2.593 L24.746,3.439 L25.535,3.054 L25.173,4.054 L26.090,3.516 L25.436,4.200 L26.196,4.616 L25.167,4.842 L25.752,4.284 L26.534,5.003 L26.391,3.950 L27.173,4.669 L27.029,3.616 L27.871,4.138 L27.382,3.195 L28.357,3.615 L27.869,2.673 L28.844,3.093 L28.355,2.150 L29.331,2.570 L29.419,2.680 L28.383,2.972 L29.335,3.475 L28.298,3.767 L29.250,4.271 L29.105,4.724 L29.479,3.930 L29.826,4.735 L30.203,3.741 L30.547,4.747 L31.153,4.397 L30.543,5.028 L31.420,5.067 L30.624,5.772 L31.686,5.738 L30.785,6.026 L31.254,6.755 L30.242,6.461 L31.022,6.251 L31.366,7.257 L31.743,6.263 L32.087,7.269 L32.464,6.275 L32.953,7.135 L32.975,6.074 L33.631,6.909 L33.652,5.847 L34.308,6.682 L34.329,5.620 L34.985,6.455 L35.011,6.594 L33.961,6.355 L34.556,7.253 L33.506,7.014 L34.102,7.911 L33.879,8.214 L34.469,7.564 L34.564,8.437 L35.216,7.597 L35.250,8.660 L35.932,8.503 L35.164,8.927 L35.990,9.222 L35.022,9.662 L36.048,9.941 L35.102,9.952 L35.336,10.787 L34.455,10.209 L35.262,10.237 L35.296,11.299 L35.948,10.460 L35.982,11.522 L36.634,10.683 L36.849,11.649 L37.181,10.641 L37.563,11.631 L37.895,10.623 L38.277,11.614 L38.609,10.605 L38.991,11.596 L39.027,11.695 L38.145,11.117 L38.504,12.108 L37.622,11.530 L37.980,12.521 L37.099,11.943 L37.924,11.997 L37.904,13.060 L38.598,12.255 L38.577,13.318 L39.271,12.512 L38.804,13.349 L39.614,13.685 L38.625,14.075 L39.635,14.406 L38.846,14.790 L39.164,15.382 L38.313,14.760 L38.620,15.768 L38.489,15.956 L39.183,15.151 L39.162,16.214 L39.856,15.409 L39.836,16.471 L40.385,15.514 L40.716,16.523 L41.099,15.532 L41.430,16.541 L41.813,15.551 L42.144,16.560 L42.527,15.569 L41.898,15.893 L42.151,16.940 L41.246,16.356 L41.499,17.403 L40.594,16.820 L41.367,16.845 L41.440,17.906 L42.060,17.043 L42.133,18.103 L42.754,17.240 L42.361,18.114 L43.198,18.379 L42.247,18.854 L43.282,19.095 L42.530,19.546 L42.899,20.108 L41.996,19.563 L42.391,20.540 L42.277,20.739 L42.897,19.876 L42.970,20.937 L43.591,20.074 L43.664,21.134 L44.126,20.132 L44.545,21.108 L44.839,20.088 L45.257,21.064 L45.552,20.044 L45.970,21.020 L46.265,20.000 L45.718,20.334 L46.112,21.312 L45.210,20.766 L45.605,21.744 L44.703,21.199 L45.097,22.176 L45.162,22.274 L45.464,21.255 L45.882,22.233 L46.184,21.214 L46.602,22.191 L47.180,21.798 L46.618,22.472 L47.495,22.447 L46.753,23.208 L47.810,23.095 L46.933,23.449 L47.454,24.142 L46.423,23.923 L47.186,23.656 L47.603,24.634 L47.906,23.615 L48.323,24.593 L48.626,23.574 L49.177,24.396 L49.120,23.336 L49.836,24.120 L49.779,23.060 L50.494,23.844 L50.438,22.784 L51.153,23.569 L51.189,23.705 L50.124,23.544 L50.784,24.395 L49.719,24.234 L50.379,25.085 L50.512,25.082 L50.318,24.037 L51.134,24.717 L50.940,23.672 L51.756,24.353 L52.093,23.740 L51.899,24.596 L52.668,24.174 L52.354,25.190 L53.244,24.609 L52.624,25.323 L53.403,25.703 L52.385,25.977 L52.943,25.392 L53.759,26.073 L53.565,25.028 L54.382,25.709 L54.188,24.664 L55.053,25.146 L54.520,24.227 L55.514,24.600 L54.981,23.682 L55.975,24.055 L55.442,23.137 L56.436,23.510 L56.530,23.615 L55.509,23.956 L56.484,24.414 L55.462,24.755 L56.437,25.213 L56.548,25.096 L55.830,24.312 L56.883,24.457 L56.164,23.674 L57.217,23.819 L57.178,23.120 L57.467,23.949 L57.896,23.184 L58.167,24.212 L58.614,23.247 L58.467,24.182 L59.329,24.091 L58.611,24.863 L58.774,24.071 L59.827,24.216 L59.109,23.433 L60.162,23.578 L59.444,22.794 L60.433,22.744 L59.494,22.248 L60.535,22.037 L59.596,21.541 L60.637,21.330 L59.699,20.834 L60.739,20.623 L60.843,20.605 L60.125,21.377 L61.163,21.190 L60.445,21.962 L61.482,21.775 L60.764,22.547 L60.840,21.809 L61.902,21.777 L61.064,21.124 L62.126,21.091 L61.287,20.438 L62.146,20.864 L62.442,20.038 L62.881,21.006 L63.161,19.981 L63.584,20.750 L64.159,20.403 L63.580,21.284 L64.571,20.927 L64.766,21.049 L63.927,20.396 L64.990,20.363 L64.151,19.710 L65.214,19.678 L64.230,19.177 L65.221,18.797 L64.213,18.463 L65.204,18.082 L64.196,17.749 L65.187,17.368 L64.179,17.035 L64.492,17.594 L65.484,17.237 L64.905,18.118 L65.897,17.761 L65.317,18.642 L66.309,18.285 L66.492,18.373 L65.617,17.770 L66.675,17.676 L65.800,17.072 L66.859,16.978 L66.664,16.306 L67.131,17.049 L67.379,16.207 L67.873,17.149 L68.093,16.109 L68.158,17.052 L68.978,16.771 L68.451,17.684 L68.433,16.876 L69.492,16.782 L68.617,16.179 L69.675,16.085 L68.800,15.482 L69.753,15.212 L68.727,14.938 L69.694,14.500 L68.669,14.226 L69.636,13.788 L68.610,13.514 L69.578,13.076 L69.719,13.085 L69.236,14.048 L70.249,13.683 L69.767,14.646 L70.780,14.282 L70.975,14.377 L70.085,13.797 L71.141,13.675 L70.250,13.095 L71.306,12.974 L71.093,12.307 L71.579,13.038 L71.805,12.190 L72.324,13.117 L72.516,12.072 L72.606,13.014 L73.418,12.711 L72.915,13.637 L72.877,12.830 L73.933,12.709 L73.042,12.129 L74.098,12.007 L73.207,11.427 L74.152,11.132 L73.120,10.885 L74.075,10.422 L73.043,10.175 L73.998,9.712 L72.965,9.465 L73.921,9.002 L74.017,8.958 L73.514,9.884 L74.472,9.445 L73.969,10.371 L74.927,9.932 L74.424,10.858 L74.391,10.047 L75.449,9.937 L74.565,9.347 L75.622,9.238 L74.739,8.647 L75.626,9.009 L75.861,8.164 L76.369,9.098 L76.574,8.055 L77.051,8.792 L77.600,8.404 L77.086,9.325 L78.049,8.897 L78.252,9.004 L77.368,8.414 L78.426,8.305 L77.542,7.714 L78.599,7.605 L77.582,7.177 L78.543,6.725 L77.514,6.466 L78.475,6.014 L77.445,5.755 L78.406,5.303 L77.377,5.044 L77.775,5.628 L78.783,5.250 L78.314,6.219 L79.322,5.841 L78.853,6.810 L78.824,6.003 L79.881,5.894 L78.998,5.303 L80.055,5.194 L79.171,4.603 L80.058,4.966 L80.294,4.120 L80.801,5.055 L81.007,4.012 L81.484,4.748 L82.033,4.361 L81.519,5.281 L82.482,4.853 L82.685,4.961 L81.801,4.370 L82.858,4.261 L81.975,3.670 L83.032,3.561 L82.015,3.133 L82.976,2.682 L81.946,2.422 L82.908,1.971 L81.878,1.711 L82.839,1.260 L81.809,1.000 L82.162,1.535 L83.126,1.108 L82.612,2.028 L83.575,1.600 L83.061,2.520 L84.024,2.093 L83.385,2.377 L84.024,2.093 L83.385,2.377 L84.024,2.093"/>
</svg>
