<svg xmlns="http://www.w3.org/2000/svg" viewBox="0 0 33.5 33.5" width="256" height="256">
  <title>patch</title>
  <rect x="0" y="0" width="33.5" height="33.5" fill="#f5efe4"/>
  <path fill="none" stroke="#c8472f" stroke-width="0.4" stroke-linecap="round" stroke-linejoin="round" d="M4.449,23.517 L4.449,22.817 L4.449,23.517 L4.449,22.817 L4.449,23.517 M4.449,23.517 L4.538,24.212 L4.449,23.517 L4.538,24.212 L4.449,23.517 M29.296,7.878 L29.080,7.414 L29.296,7.878 L29.080,7.414 L29.296,7.878 M4.204,22.213 L4.499,22.847 L4.204,22.213 L4.499,22.847 L4.204,22.213 M5.067,4.241 L5.702,3.945 L5.067,4.241 L5.702,3.945 L5.067,4.241 L6.894,3.389 L8.527,2.628 L9.664,2.539 L8.574,3.047 L6.308,4.104 L4.435,4.977 L4.040,5.603 L5.722,4.818 L7.988,3.762 L10.253,2.705 L10.611,2.539 L11.557,2.539 L9.667,3.420 L7.401,4.477 L5.136,5.533 L3.813,6.150 L3.640,6.672 L4.549,6.248 L6.815,5.191 L9.081,4.135 L11.347,3.078 L12.504,2.539 L13.450,2.539 L13.026,2.736 L10.761,3.793 L8.495,4.849 L6.229,5.906 L3.963,6.962 L3.578,7.142 L3.516,7.612 L5.643,6.621 L7.909,5.564 L10.174,4.508 L12.440,3.451 L14.397,2.539 L15.343,2.539 L14.120,3.109 L11.854,4.166 L9.588,5.222 L7.322,6.279 L5.057,7.335 L3.497,8.063 L3.497,8.504 L4.470,8.050 L6.736,6.994 L9.002,5.937 L11.268,4.880 L13.533,3.824 L15.799,2.767 L16.290,2.539 L17.236,2.539 L15.213,3.482 L12.947,4.539 L10.681,5.595 L8.416,6.652 L6.150,7.708 L3.884,8.765 L3.497,8.945 L3.497,9.387 L5.564,8.423 L7.829,7.366 L10.095,6.310 L12.361,5.253 L14.627,4.197 L16.893,3.140 L18.182,2.539 L19.129,2.539 L18.572,2.798 L16.306,3.855 L14.041,4.911 L11.775,5.968 L9.509,7.025 L7.243,8.081 L4.977,9.138 L3.497,9.828 L3.497,10.269 L4.391,9.852 L6.657,8.796 L8.923,7.739 L11.189,6.683 L13.454,5.626 L15.720,4.570 L17.986,3.513 L20.075,2.539 L21.022,2.539 L19.665,3.171 L17.400,4.228 L15.134,5.284 L12.868,6.341 L10.602,7.397 L8.337,8.454 L6.071,9.510 L3.805,10.567 L3.497,10.711 L3.497,11.152 L5.485,10.225 L7.750,9.169 L10.016,8.112 L12.282,7.056 L14.548,5.999 L16.813,4.942 L19.079,3.886 L21.345,2.829 L21.968,2.539 L22.915,2.539 L20.759,3.544 L18.493,4.601 L16.227,5.657 L13.962,6.714 L11.696,7.770 L9.430,8.827 L7.164,9.883 L4.898,10.940 L3.497,11.593 L3.497,12.035 L4.312,11.655 L6.578,10.598 L8.844,9.542 L11.110,8.485 L13.375,7.428 L15.641,6.372 L17.907,5.315 L20.173,4.259 L22.438,3.202 L23.861,2.539 L24.808,2.539 L24.118,2.860 L21.852,3.917 L19.586,4.973 L17.321,6.030 L15.055,7.087 L12.789,8.143 L10.523,9.200 L8.258,10.256 L5.992,11.313 L4.744,11.894 L3.497,12.476 L3.497,12.918 L5.406,12.027 L7.671,10.971 L9.937,9.914 L12.203,8.858 L14.469,7.801 L16.734,6.745 L19.000,5.688 L21.266,4.632 L23.532,3.575 L25.633,2.595 L26.371,2.692 L25.211,3.233 L22.946,4.290 L20.680,5.346 L18.414,6.403 L16.148,7.459 L13.882,8.516 L11.617,9.573 L9.351,10.629 L7.085,11.686 L4.819,12.742 L3.497,13.359 L3.497,13.800 L4.233,13.457 L6.499,12.400 L8.765,11.344 L11.030,10.287 L13.296,9.231 L15.562,8.174 L17.828,7.118 L20.094,6.061 L22.359,5.005 L24.625,3.948 L25.761,3.418 L26.896,2.889 L27.397,3.097 L26.305,3.606 L24.039,4.663 L21.773,5.719 L19.507,6.776 L17.242,7.832 L14.976,8.889 L12.710,9.945 L10.444,11.002 L8.178,12.058 L5.913,13.115 L4.705,13.678 L3.497,14.242 L3.497,14.683 L5.327,13.830 L7.592,12.773 L9.858,11.717 L12.124,10.660 L14.390,9.604 L16.655,8.547 L18.921,7.490 L21.187,6.434 L23.453,5.377 L25.718,4.321 L27.814,3.344 L28.172,3.618 L27.398,3.979 L25.132,5.036 L22.866,6.092 L20.601,7.149 L18.335,8.205 L16.069,9.262 L13.803,10.318 L11.538,11.375 L9.272,12.431 L7.006,13.488 L4.740,14.544 L3.497,15.124 L3.497,15.566 L4.154,15.259 L6.420,14.203 L8.686,13.146 L10.951,12.090 L13.217,11.033 L15.483,9.976 L17.749,8.920 L20.014,7.863 L22.280,6.807 L24.546,5.750 L26.812,4.694 L28.530,3.893 L28.800,4.208 L28.491,4.352 L26.226,5.408 L23.960,6.465 L21.694,7.521 L19.428,8.578 L17.162,9.635 L14.897,10.691 L12.631,11.748 L10.365,12.804 L8.099,13.861 L5.834,14.917 L4.665,15.462 L3.497,16.007 L3.497,16.448 L5.247,15.632 L7.513,14.575 L9.779,13.519 L12.045,12.462 L14.311,11.406 L16.576,10.349 L18.842,9.293 L21.108,8.236 L23.374,7.180 L25.639,6.123 L27.905,5.067 L29.049,4.533 L29.298,4.858 L27.319,5.781 L25.053,6.838 L22.787,7.894 L20.522,8.951 L18.256,10.007 L15.990,11.064 L13.724,12.121 L11.459,13.177 L9.193,14.234 L6.927,15.290 L4.661,16.347 L3.497,16.890 L3.497,17.331 L4.075,17.061 L6.341,16.005 L8.607,14.948 L10.872,13.892 L13.138,12.835 L15.404,11.779 L17.670,10.722 L19.935,9.666 L22.201,8.609 L24.467,7.553 L26.733,6.496 L28.998,5.439 L29.475,5.217 L29.629,5.587 L28.412,6.154 L26.147,7.211 L23.881,8.267 L21.615,9.324 L19.349,10.380 L17.083,11.437 L14.818,12.493 L12.552,13.550 L10.286,14.607 L8.020,15.663 L5.755,16.720 L3.497,17.772 L3.497,18.214 L5.168,17.434 L7.434,16.378 L9.700,15.321 L11.966,14.265 L14.231,13.208 L16.497,12.152 L18.763,11.095 L21.029,10.038 L23.295,8.982 L25.560,7.925 L27.826,6.869 L29.782,5.957 L29.874,6.355 L29.506,6.527 L27.240,7.584 L24.974,8.640 L22.708,9.697 L20.443,10.753 L18.177,11.810 L15.911,12.866 L13.645,13.923 L11.379,14.979 L9.114,16.036 L6.848,17.092 L4.582,18.149 L3.497,18.655 L3.497,19.096 L3.996,18.864 L6.262,17.807 L8.527,16.751 L10.793,15.694 L13.059,14.638 L15.325,13.581 L17.591,12.524 L19.856,11.468 L22.122,10.411 L24.388,9.355 L26.654,8.298 L28.919,7.242 L29.928,6.771 L29.983,7.187 L28.333,7.956 L26.067,9.013 L23.802,10.070 L21.536,11.126 L19.270,12.183 L17.004,13.239 L14.739,14.296 L12.473,15.352 L10.207,16.409 L7.941,17.465 L5.676,18.522 L3.497,19.538 L3.497,19.979 L5.089,19.237 L7.355,18.180 L9.621,17.123 L11.887,16.067 L14.152,15.010 L16.418,13.954 L18.684,12.897 L20.950,11.841 L23.215,10.784 L25.481,9.728 L27.747,8.671 L30.003,7.619 L30.003,8.060 L29.427,8.329 L27.161,9.386 L24.895,10.442 L22.629,11.499 L20.363,12.555 L18.098,13.612 L15.832,14.669 L13.566,15.725 L11.300,16.782 L9.035,17.838 L6.769,18.895 L4.503,19.951 L3.497,20.420 L3.497,20.862 L3.917,20.666 L6.183,19.609 L8.448,18.553 L10.714,17.496 L12.980,16.440 L15.246,15.383 L17.511,14.327 L19.777,13.270 L22.043,12.214 L24.309,11.157 L26.575,10.101 L28.840,9.044 L30.003,8.502 L30.003,8.943 L28.254,9.759 L25.988,10.815 L23.723,11.872 L21.457,12.928 L19.191,13.985 L16.925,15.041 L14.660,16.098 L12.394,17.155 L10.128,18.211 L7.862,19.268 L5.596,20.324 L3.497,21.303 L3.497,21.745 L5.010,21.039 L7.276,19.982 L9.542,18.926 L11.808,17.869 L14.073,16.813 L16.339,15.756 L18.605,14.700 L20.871,13.643 L23.136,12.586 L25.402,11.530 L27.668,10.473 L28.836,9.929 L30.003,9.384 L30.003,9.826 L29.347,10.132 L27.082,11.188 L24.816,12.245 L22.550,13.301 L20.284,14.358 L18.019,15.414 L15.753,16.471 L13.487,17.527 L11.221,18.584 L8.956,19.640 L6.690,20.697 L4.424,21.754 L3.497,22.186 L3.497,22.627 L3.838,22.468 L6.104,21.412 L8.369,20.355 L10.635,19.299 L12.901,18.242 L15.167,17.186 L17.432,16.129 L19.698,15.072 L21.964,14.016 L24.230,12.959 L26.496,11.903 L28.761,10.846 L30.003,10.267 L30.003,10.709 L28.175,11.561 L25.909,12.618 L23.644,13.674 L21.378,14.731 L19.112,15.787 L16.846,16.844 L14.580,17.900 L12.315,18.957 L10.049,20.013 L7.783,21.070 L5.517,22.126 L3.497,23.069 L3.497,23.510 L4.931,22.841 L7.197,21.785 L9.463,20.728 L11.728,19.671 L13.994,18.615 L16.260,17.558 L18.526,16.502 L20.792,15.445 L23.057,14.389 L25.323,13.332 L27.589,12.276 L28.796,11.713 L30.003,11.150 L30.003,11.591 L29.268,11.934 L27.003,12.990 L24.737,14.047 L22.471,15.103 L20.205,16.160 L17.940,17.217 L15.674,18.273 L13.408,19.330 L11.142,20.386 L8.876,21.443 L6.611,22.499 L4.345,23.556 L3.520,23.940 L3.575,24.356 L4.800,23.785 L6.025,23.214 L8.290,22.157 L10.556,21.101 L12.822,20.044 L15.088,18.988 L17.353,17.931 L19.619,16.875 L21.885,15.818 L24.151,14.762 L26.416,13.705 L28.682,12.649 L30.003,12.033 L30.003,12.474 L28.096,13.363 L25.830,14.420 L23.564,15.476 L21.299,16.533 L19.033,17.589 L16.767,18.646 L14.501,19.703 L12.236,20.759 L9.970,21.816 L7.704,22.872 L5.438,23.929 L3.630,24.772 L3.728,25.167 L4.852,24.643 L7.118,23.587 L9.384,22.530 L11.649,21.474 L13.915,20.417 L16.181,19.361 L18.447,18.304 L20.712,17.248 L22.978,16.191 L25.244,15.134 L27.510,14.078 L28.756,13.497 L30.003,12.915 L30.003,13.357 L29.189,13.736 L26.924,14.793 L24.658,15.849 L22.392,16.906 L20.126,17.962 L17.861,19.019 L15.595,20.075 L13.329,21.132 L11.063,22.188 L8.797,23.245 L6.532,24.302 L4.266,25.358 L3.881,25.537 L4.035,25.907 L5.945,25.016 L8.211,23.960 L10.477,22.903 L12.743,21.847 L15.009,20.790 L17.274,19.734 L19.540,18.677 L21.806,17.620 L24.072,16.564 L26.337,15.507 L28.603,14.451 L30.003,13.798 L30.003,14.239 L28.017,15.166 L25.751,16.222 L23.485,17.279 L21.220,18.335 L18.954,19.392 L16.688,20.448 L14.422,21.505 L12.157,22.561 L9.891,23.618 L7.625,24.674 L5.359,25.731 L4.218,26.263 L4.467,26.588 L4.773,26.446 L7.039,25.389 L9.305,24.333 L11.570,23.276 L13.836,22.219 L16.102,21.163 L18.368,20.106 L20.633,19.050 L22.899,17.993 L25.165,16.937 L27.431,15.880 L29.696,14.824 L30.003,14.681 L30.003,15.122 L29.110,15.538 L26.845,16.595 L24.579,17.651 L22.313,18.708 L20.047,19.765 L17.781,20.821 L15.516,21.878 L13.250,22.934 L10.984,23.991 L8.718,25.047 L6.453,26.104 L4.717,26.913 L4.994,27.225 L5.866,26.819 L8.132,25.762 L10.398,24.705 L12.664,23.649 L14.929,22.592 L17.195,21.536 L19.461,20.479 L21.727,19.423 L23.993,18.366 L26.258,17.310 L28.524,16.253 L30.003,15.563 L30.003,16.005 L27.938,16.968 L25.672,18.024 L23.406,19.081 L21.141,20.137 L18.875,21.194 L16.609,22.251 L14.343,23.307 L12.077,24.364 L9.812,25.420 L7.546,26.477 L5.352,27.500 L5.709,27.774 L6.960,27.191 L9.226,26.135 L11.491,25.078 L13.757,24.022 L16.023,22.965 L18.289,21.909 L20.554,20.852 L22.820,19.796 L25.086,18.739 L27.352,17.682 L29.617,16.626 L30.003,16.446 L30.003,16.887 L29.031,17.341 L26.765,18.397 L24.500,19.454 L22.234,20.510 L19.968,21.567 L17.702,22.623 L15.437,23.680 L13.171,24.736 L10.905,25.793 L8.639,26.850 L7.387,27.433 L6.136,28.017 L6.637,28.225 L8.053,27.564 L10.319,26.508 L12.585,25.451 L14.850,24.395 L17.116,23.338 L19.382,22.282 L21.648,21.225 L23.913,20.168 L26.179,19.112 L28.445,18.055 L30.003,17.329 L30.003,17.770 L27.859,18.770 L25.593,19.827 L23.327,20.883 L21.061,21.940 L18.796,22.996 L16.530,24.053 L14.264,25.109 L11.998,26.166 L9.733,27.222 L7.467,28.279 L7.177,28.414 L7.916,28.511 L9.146,27.937 L11.412,26.881 L13.678,25.824 L15.944,24.767 L18.210,23.711 L20.475,22.654 L22.741,21.598 L25.007,20.541 L27.273,19.485 L29.538,18.428 L30.003,18.211 L30.003,18.653 L28.952,19.143 L26.686,20.199 L24.421,21.256 L22.155,22.313 L19.889,23.369 L17.623,24.426 L15.358,25.482 L13.092,26.539 L10.826,27.595 L8.754,28.561 L9.701,28.561 L10.240,28.310 L12.506,27.253 L14.771,26.197 L17.037,25.140 L19.303,24.084 L21.569,23.027 L23.834,21.971 L26.100,20.914 L28.366,19.858 L30.003,19.094 L30.003,19.536 L27.780,20.572 L25.514,21.629 L23.248,22.685 L20.982,23.742 L18.717,24.799 L16.451,25.855 L14.185,26.912 L11.919,27.968 L10.647,28.561 L11.594,28.561 L13.599,27.626 L15.865,26.570 L18.130,25.513 L20.396,24.457 L22.662,23.400 L24.928,22.344 L27.194,21.287 L29.459,20.230 L30.003,19.977 L30.003,20.418 L28.873,20.945 L26.607,22.002 L24.342,23.058 L22.076,24.115 L19.810,25.171 L17.544,26.228 L15.278,27.284 L13.013,28.341 L12.540,28.561 L13.487,28.561 L14.692,27.999 L16.958,26.943 L19.224,25.886 L21.490,24.830 L23.755,23.773 L26.021,22.716 L28.287,21.660 L30.003,20.860 L30.003,21.301 L28.852,21.838 L27.701,22.375 L25.435,23.431 L23.169,24.488 L20.903,25.544 L18.638,26.601 L16.372,27.657 L14.433,28.561 L15.380,28.561 L15.786,28.372 L18.051,27.315 L20.317,26.259 L22.583,25.202 L24.849,24.146 L27.114,23.089 L29.380,22.033 L30.003,21.742 L30.003,22.184 L28.794,22.747 L26.528,23.804 L24.262,24.861 L21.997,25.917 L19.731,26.974 L17.465,28.030 L16.326,28.561 L17.273,28.561 L19.145,27.688 L21.410,26.632 L23.676,25.575 L25.942,24.519 L28.208,23.462 L30.003,22.625 L30.003,23.066 L28.812,23.622 L27.622,24.177 L25.356,25.233 L23.090,26.290 L20.824,27.347 L18.559,28.403 L18.219,28.561 L19.166,28.561 L20.238,28.061 L22.504,27.005 L24.770,25.948 L27.035,24.892 L29.301,23.835 L29.979,23.519 L29.918,23.989 L28.715,24.550 L26.449,25.606 L24.183,26.663 L21.918,27.719 L20.112,28.561 L21.059,28.561 L21.331,28.434 L23.597,27.378 L25.863,26.321 L28.129,25.264 L29.856,24.459 L29.672,24.986 L27.543,25.979 L25.277,27.036 L23.011,28.092 L22.005,28.561 L22.952,28.561 L24.691,27.750 L26.956,26.694 L28.201,26.114 L29.445,25.533 L29.031,26.168 L28.636,26.352 L26.370,27.409 L25.134,27.985 L23.898,28.561 L25.060,28.461 L25.784,28.123 L28.050,27.067 L28.336,26.933 L28.050,27.067 L28.336,26.933 L28.050,27.067 L28.336,26.933 M2.750,24.750 L2.750,24.050 L2.750,24.750 L2.750,24.050 L2.750,24.750 M2.750,24.750 L4.500,24.306 L1.000,23.861 L4.500,23.417 L1.000,22.972 L4.500,22.528 L1.000,22.083 L4.500,21.639 L1.000,21.194 L4.500,20.750 L1.000,20.306 L4.500,19.861 L1.000,19.417 L4.500,18.972 L1.000,18.528 L4.500,18.083 L1.000,17.639 L4.500,17.194 L1.000,16.750 L4.500,16.306 L1.000,15.861 L4.500,15.417 L1.000,14.972 L4.500,14.528 L1.000,14.083 L4.500,13.639 L1.000,13.194 L4.500,12.750 L1.000,12.306 L4.500,11.861 L1.000,11.417 L4.500,10.972 L1.000,10.528 L4.500,10.083 L1.000,9.639 L4.500,9.194 L1.000,8.750 L4.536,8.590 L1.117,7.745 L4.638,7.814 L1.219,6.969 L4.721,7.505 L1.637,5.804 L5.021,6.781 L1.937,5.080 L5.181,6.505 L2.642,4.063 L5.657,5.883 L3.119,3.442 L5.883,5.657 L4.063,2.642 L6.505,5.181 L4.685,2.165 L6.781,5.021 L5.804,1.637 L7.505,4.721 L6.527,1.338 L7.814,4.638 L7.745,1.117 L8.590,4.536 L8.522,1.015 L9.194,4.500 L9.639,1.000 L10.083,4.500 L10.528,1.000 L10.972,4.500 L11.417,1.000 L11.861,4.500 L12.306,1.000 L12.750,4.500 L13.194,1.000 L13.639,4.500 L14.083,1.000 L14.528,4.500 L14.972,1.000 L15.417,4.500 L15.861,1.000 L16.306,4.500 L16.750,1.000 L17.194,4.500 L17.639,1.000 L18.083,4.500 L18.528,1.000 L18.972,4.500 L19.417,1.000 L19.861,4.500 L20.306,1.000 L20.750,4.500 L21.194,1.000 L21.639,4.500 L22.083,1.000 L22.528,4.500 L22.972,1.000 L23.417,4.500 L23.861,1.000 L24.306,4.500 L24.750,1.000 L24.910,4.536 L25.755,1.117 L25.686,4.638 L26.531,1.219 L25.995,4.721 L27.696,1.637 L26.719,5.021 L28.420,1.937 L26.995,5.181 L29.437,2.642 L27.617,5.657 L30.058,3.119 L27.843,5.883 L30.858,4.063 L28.319,6.505 L31.335,4.685 L28.479,6.781 L31.863,5.804 L28.779,7.505 L32.162,6.527 L28.862,7.814 L32.383,7.745 L28.964,8.590 L32.485,8.522 L29.000,9.194 L32.500,9.639 L29.000,10.083 L32.500,10.528 L29.000,10.972 L32.500,11.417 L29.000,11.861 L32.500,12.306 L29.000,12.750 L32.500,13.194 L29.000,13.639 L32.500,14.083 L29.000,14.528 L32.500,14.972 L29.000,15.417 L32.500,15.861 L29.000,16.306 L32.500,16.750 L29.000,17.194 L32.500,17.639 L29.000,18.083 L32.500,18.528 L29.000,18.972 L32.500,19.417 L29.000,19.861 L32.500,20.306 L29.000,20.750 L32.500,21.194 L29.000,21.639 L32.500,22.083 L29.000,22.528 L32.500,22.972 L29.000,23.417 L32.500,23.861 L29.000,24.306 L32.500,24.750 L28.964,24.910 L32.383,25.755 L28.862,25.686 L32.281,26.531 L28.779,25.995 L31.863,27.696 L28.479,26.719 L31.563,28.420 L28.319,26.995 L30.858,29.437 L27.843,27.617 L30.381,30.058 L27.617,27.843 L29.437,30.858 L26.995,28.319 L28.815,31.335 L26.719,28.479 L27.696,31.863 L25.995,28.779 L26.973,32.162 L25.686,28.862 L25.755,32.383 L24.910,28.964 L24.978,32.485 L24.306,29.000 L23.861,32.500 L23.417,29.000 L22.972,32.500 L22.528,29.000 L22.083,32.500 L21.639,29.000 L21.194,32.500 L20.750,29.000 L20.306,32.500 L19.861,29.000 L19.417,32.500 L18.972,29.000 L18.528,32.500 L18.083,29.000 L17.639,32.500 L17.194,29.000 L16.750,32.500 L16.306,29.000 L15.861,32.500 L15.417,29.000 L14.972,32.500 L14.528,29.000 L14.083,32.500 L13.639,29.000 L13.194,32.500 L12.750,29.000 L12.306,32.500 L11.861,29.000 L11.417,32.500 L10.972,29.000 L10.528,32.500 L10.083,29.000 L9.639,32.500 L9.194,29.000 L8.750,32.500 L8.590,28.964 L7.745,32.383 L7.814,28.862 L6.969,32.281 L7.505,28.779 L5.804,31.863 L6.781,28.479 L5.080,31.563 L6.505,28.319 L4.063,30.858 L5.883,27.843 L3.442,30.381 L5.657,27.617 L2.642,29.437 L5.181,26.995 L2.165,28.815 L5.021,26.719 L1.637,27.696 L4.721,25.995 L1.338,26.973 L4.638,25.686 L1.117,25.755 L4.536,24.910 L1.015,24.978 L1.715,24.965 L1.015,24.978 L1.715,24.965 L1.015,24.978"/>
</svg>
