<svg xmlns="http://www.w3.org/2000/svg" viewBox="-1 0 26 26" width="256" height="256">
  <title>pivot</title>
  <rect x="-1" y="0" width="26" height="26" fill="#f5efe4"/>
  <path fill="none" stroke="#31604f" stroke-width="0.4" stroke-linecap="round" stroke-linejoin="round" d="M1.000,17.000 L1.000,17.000 L1.136,15.965 L1.536,15.000 L2.172,14.172 L3.000,13.536 L3.965,13.136 L5.000,13.000 L6.035,13.136 L7.000,13.536 L7.828,14.172 L8.464,15.000 L8.864,15.965 L9.000,17.000 L8.864,18.035 L8.464,19.000 L7.828,19.828 L7.000,20.464 L6.035,20.864 L5.000,21.000 L3.965,20.864 L3.000,20.464 L2.172,19.828 L1.536,19.000 L1.136,18.035 L1.000,17.000 L1.091,17.694 L1.000,17.000 L1.091,17.694 L1.000,17.000"/>
  <path fill="none" stroke="#3a4e8c" stroke-width="0.4" stroke-linecap="round" stroke-linejoin="round" d="M11.000,19.000 L11.091,18.306 L11.000,19.000 L11.091,18.306 L11.000,19.000 L11.204,17.447 L11.804,16.000 L12.757,14.757 L14.000,13.804 L15.447,13.204 L17.000,13.000 L18.553,13.204 L20.000,13.804 L21.243,14.757 L22.196,16.000 L22.796,17.447 L23.000,19.000 L22.796,20.553 L22.196,22.000 L21.243,23.243 L20.000,24.196 L18.553,24.796 L17.000,25.000 L15.447,24.796 L14.000,24.196 L12.757,23.243 L11.804,22.000 L11.204,20.553 L11.000,19.000 L11.091,19.694 L11.000,19.000 L11.091,19.694 L11.000,19.000"/>
  <path fill="none" stroke="#d9a441" stroke-width="0.4" stroke-linecap="round" stroke-linejoin="round" d="M1.000,6.000 L1.091,5.306 L1.000,6.000 L1.091,5.306 L1.000,6.000 L1.170,4.706 L1.670,3.500 L2.464,2.464 L3.500,1.670 L4.706,1.170 L6.000,1.000 L7.294,1.170 L8.500,1.670 L9.536,2.464 L10.330,3.500 L10.830,4.706 L11.000,6.000 L10.830,7.294 L10.330,8.500 L9.536,9.536 L8.500,10.330 L7.294,10.830 L6.000,11.000 L4.706,10.830 L3.500,10.330 L2.464,9.536 L1.670,8.500 L1.170,7.294 L1.000,6.000 L1.091,6.694 L1.000,6.000 L1.091,6.694 L1.000,6.000"/>
  <path fill="none" stroke="#31604f" stroke-width="0.4" stroke-linecap="round" stroke-linejoin="round" d="M1.000,13.000 L1.700,13.000 L1.000,13.000 L1.700,13.000 L1.000,13.000 L3.500,13.000 L6.000,13.000 L8.500,13.000 L11.000,13.000 L10.300,13.000 L11.000,13.000 L10.300,13.000 L11.000,13.000"/>
  <path fill="none" stroke="#3a4e8c" stroke-width="0.4" stroke-linecap="round" stroke-linejoin="round" d="M1.000,13.000 L1.000,12.300 L1.000,13.000 L1.000,12.300 L1.000,13.000 L1.000,10.600 L1.000,8.200 L1.000,5.800 L1.000,3.400 L1.000,1.000 L1.000,1.700 L1.000,1.000 L1.000,1.700 L1.000,1.000"/>
  <path fill="none" stroke="#d9a441" stroke-width="0.4" stroke-linecap="round" stroke-linejoin="round" d="M11.000,13.000 L10.552,12.462 L11.000,13.000 L10.552,12.462 L11.000,13.000 L9.571,11.286 L8.143,9.571 L6.714,7.857 L5.286,6.143 L3.857,4.429 L2.429,2.714 L1.000,1.000 L1.448,1.538 L1.000,1.000 L1.448,1.538 L1.000,1.000"/>
</svg>
