<svg xmlns="http://www.w3.org/2000/svg" viewBox="0 -2.8 49.6 49.6" width="256" height="256">
  <title>pixel-heart</title>
  <rect x="0" y="-2.8" width="49.6" height="49.6" fill="#f5efe4"/>
  <path fill="none" stroke="#e94560" stroke-width="0.4" stroke-linecap="round" stroke-linejoin="round" d="M48.600,25.000 L48.600,24.300 L48.600,25.000 L48.600,24.300 L48.600,25.000 L48.600,24.000 L48.600,23.000 L48.600,22.000 L48.600,21.000 L48.600,20.000 L48.600,19.600 L48.600,19.000 L48.600,18.000 L48.600,17.000 L48.600,16.000 L48.600,15.000 L48.600,14.000 L48.600,13.600 L48.600,13.000 L48.600,12.000 L48.600,11.000 L48.600,10.000 L48.600,9.000 L48.600,8.000 L48.600,7.000 L48.200,7.000 L48.200,7.600 L48.200,8.600 L48.200,9.200 L48.200,9.600 L48.200,10.600 L48.200,11.600 L48.200,12.600 L48.200,13.000 L48.200,13.600 L48.200,14.600 L48.200,15.600 L48.200,16.600 L48.200,17.600 L48.200,18.600 L48.200,19.000 L48.200,19.600 L48.200,20.600 L48.200,21.600 L48.200,22.600 L48.200,23.600 L48.200,24.600 L48.200,25.000 L47.800,25.000 L47.800,24.400 L47.800,23.400 L47.800,22.400 L47.800,21.400 L47.800,20.400 L47.800,19.400 L47.800,19.000 L47.800,18.400 L47.800,17.400 L47.800,16.800 L47.800,16.400 L47.800,15.400 L47.800,14.400 L47.800,13.400 L47.800,13.000 L47.800,12.400 L47.800,11.400 L47.800,10.400 L47.800,9.400 L47.800,8.400 L47.800,7.400 L47.800,7.000 L47.400,7.000 L47.400,8.000 L47.400,9.000 L47.400,10.000 L47.400,11.000 L47.400,12.000 L47.400,13.000 L47.400,13.600 L47.400,14.000 L47.400,15.000 L47.400,16.000 L47.400,17.000 L47.400,18.000 L47.400,19.000 L47.400,19.600 L47.400,20.000 L47.400,21.000 L47.400,22.000 L47.400,23.000 L47.400,24.000 L47.400,25.000 L47.000,25.000 L47.000,24.600 L47.000,23.600 L47.000,22.600 L47.000,21.600 L47.000,20.600 L47.000,19.600 L47.000,19.000 L47.000,18.600 L47.000,17.600 L47.000,16.600 L47.000,15.600 L47.000,14.600 L47.000,13.600 L47.000,13.000 L47.000,12.600 L47.000,11.600 L47.000,10.600 L47.000,9.600 L47.000,9.200 L47.000,8.600 L47.000,7.600 L47.000,7.000 L46.600,7.000 L46.600,7.400 L46.600,8.400 L46.600,9.400 L46.600,10.400 L46.600,11.400 L46.600,12.400 L46.600,13.000 L46.600,13.400 L46.600,14.400 L46.600,15.400 L46.600,16.400 L46.600,16.800 L46.600,17.400 L46.600,18.400 L46.600,19.000 L46.600,19.400 L46.600,20.400 L46.600,21.400 L46.600,22.400 L46.600,23.400 L46.600,24.400 L46.600,25.000 L46.200,25.000 L46.200,24.000 L46.200,23.000 L46.200,22.000 L46.200,21.000 L46.200,20.000 L46.200,19.600 L46.200,19.000 L46.200,18.000 L46.200,17.000 L46.200,16.000 L46.200,15.000 L46.200,14.000 L46.200,13.600 L46.200,13.000 L46.200,12.000 L46.200,11.000 L46.200,10.000 L46.200,9.000 L46.200,8.000 L46.200,7.000 L45.800,7.000 L45.800,7.600 L45.800,8.600 L45.800,9.200 L45.800,9.600 L45.800,10.600 L45.800,11.600 L45.800,12.600 L45.800,13.000 L45.800,13.600 L45.800,14.600 L45.800,15.600 L45.800,16.600 L45.800,17.600 L45.800,18.600 L45.800,19.000 L45.800,19.600 L45.800,20.600 L45.800,21.600 L45.800,22.600 L45.800,23.600 L45.800,24.600 L45.800,25.000 L45.400,25.000 L45.400,24.400 L45.400,23.400 L45.400,22.400 L45.400,21.400 L45.400,20.400 L45.400,19.400 L45.400,19.000 L45.400,18.400 L45.400,17.400 L45.400,16.800 L45.400,16.400 L45.400,15.400 L45.400,14.400 L45.400,13.400 L45.400,13.000 L45.400,12.400 L45.400,11.400 L45.400,10.400 L45.400,9.400 L45.400,8.400 L45.400,7.400 L45.400,7.000 L45.000,7.000 L45.000,8.000 L45.000,9.000 L45.000,10.000 L45.000,11.000 L45.000,12.000 L45.000,13.000 L45.000,13.600 L45.000,14.000 L45.000,15.000 L45.000,16.000 L45.000,17.000 L45.000,18.000 L45.000,19.000 L45.000,19.600 L45.000,20.000 L45.000,21.000 L45.000,22.000 L45.000,23.000 L45.000,24.000 L45.000,25.000 L44.600,25.000 L44.600,24.600 L44.600,23.600 L44.600,22.600 L44.600,21.600 L44.600,20.600 L44.600,19.600 L44.600,19.000 L44.600,18.600 L44.600,17.600 L44.600,16.600 L44.600,15.600 L44.600,14.600 L44.600,13.600 L44.600,13.000 L44.600,12.600 L44.600,11.600 L44.600,10.600 L44.600,9.600 L44.600,9.200 L44.600,8.600 L44.600,7.600 L44.600,7.000 L44.200,7.000 L44.200,7.400 L44.200,8.400 L44.200,9.400 L44.200,10.400 L44.200,11.400 L44.200,12.400 L44.200,13.000 L44.200,13.400 L44.200,14.400 L44.200,15.400 L44.200,16.400 L44.200,16.800 L44.200,17.400 L44.200,18.400 L44.200,19.000 L44.200,19.400 L44.200,20.400 L44.200,21.400 L44.200,22.400 L44.200,23.400 L44.200,24.400 L44.200,25.000 L43.800,25.000 L43.800,24.000 L43.800,23.000 L43.800,22.000 L43.800,21.000 L43.800,20.000 L43.800,19.000 L43.800,18.000 L43.800,17.000 L43.800,16.000 L43.800,15.000 L43.800,14.000 L43.800,13.000 L43.800,12.000 L43.800,11.000 L43.800,10.000 L43.800,9.000 L43.800,8.000 L43.800,7.000 L43.400,7.000 L43.400,7.600 L43.400,8.600 L43.400,9.200 L43.400,9.600 L43.400,10.600 L43.400,11.600 L43.400,12.600 L43.400,13.000 L43.400,13.600 L43.400,14.600 L43.400,15.600 L43.400,16.600 L43.400,17.600 L43.400,18.600 L43.400,19.000 L43.400,19.600 L43.400,20.600 L43.400,21.600 L43.400,22.600 L43.400,23.600 L43.400,24.600 L43.400,25.000 L43.000,25.000 L43.000,24.400 L43.000,23.400 L43.000,22.400 L43.000,21.400 L43.000,20.400 L43.000,19.400 L43.000,19.000 L43.000,18.400 L43.000,17.400 L43.000,16.800 L43.000,16.400 L43.000,15.400 L43.000,14.400 L43.000,13.400 L43.000,13.000 L43.000,12.400 L43.000,11.400 L43.000,10.400 L43.000,9.400 L43.000,8.400 L43.000,7.400 L43.000,7.000 L42.600,7.000 L42.600,8.000 L42.600,9.000 L42.600,10.000 L42.600,11.000 L42.600,12.000 L42.600,13.000 L42.600,13.600 L42.600,14.000 L42.600,15.000 L42.600,16.000 L42.600,17.000 L42.600,18.000 L42.600,19.000 L42.600,19.600 L42.600,20.000 L42.600,21.000 L42.600,22.000 L42.600,23.000 L42.600,24.000 L42.600,25.000 L42.600,25.600 L42.600,26.000 L42.600,27.000 L42.600,28.000 L42.600,29.000 L42.600,30.000 L42.600,31.000 L42.200,31.000 L42.200,30.600 L42.200,29.600 L42.200,28.600 L42.200,27.600 L42.200,26.600 L42.200,25.600 L42.200,25.000 L42.200,24.600 L42.200,23.600 L42.200,22.600 L42.200,21.600 L42.200,20.600 L42.200,19.600 L42.200,19.000 L42.200,18.600 L42.200,17.600 L42.200,16.600 L42.200,15.600 L42.200,14.600 L42.200,13.600 L42.200,13.000 L42.200,12.600 L42.200,11.600 L42.200,10.600 L42.200,9.600 L42.200,9.200 L42.200,8.600 L42.200,7.600 L42.200,7.000 L42.200,6.600 L42.200,5.600 L42.200,4.600 L42.200,3.600 L42.200,2.600 L42.200,1.600 L42.200,1.000 L42.600,1.000 L42.600,2.000 L42.600,3.000 L42.600,4.000 L42.600,5.000 L42.600,6.000 L42.600,7.000 L41.800,7.000 L41.800,7.400 L41.800,8.400 L41.800,9.400 L41.800,10.400 L41.800,11.400 L41.800,12.400 L41.800,13.000 L41.800,13.400 L41.800,14.400 L41.800,15.400 L41.800,16.400 L41.800,16.800 L41.800,17.400 L41.800,18.400 L41.800,19.000 L41.800,19.400 L41.800,20.400 L41.800,21.400 L41.800,22.400 L41.800,23.400 L41.800,24.400 L41.800,25.000 L41.800,25.400 L41.800,26.400 L41.800,27.400 L41.800,28.400 L41.800,29.400 L41.800,30.400 L41.800,31.000 L41.400,31.000 L41.400,30.000 L41.400,29.000 L41.400,28.000 L41.400,27.000 L41.400,26.000 L41.400,25.600 L41.400,25.000 L41.400,24.000 L41.400,23.000 L41.400,22.000 L41.400,21.000 L41.400,20.000 L41.400,19.600 L41.400,19.000 L41.400,18.000 L41.400,17.000 L41.400,16.000 L41.400,15.000 L41.400,14.000 L41.400,13.600 L41.400,13.000 L41.400,12.000 L41.400,11.000 L41.400,10.000 L41.400,9.000 L41.400,8.000 L41.400,7.000 L41.400,6.000 L41.400,5.000 L41.400,4.000 L41.400,3.000 L41.400,2.000 L41.400,1.000 L41.800,1.000 L41.800,1.400 L41.800,2.400 L41.800,3.400 L41.800,4.400 L41.800,5.400 L41.800,6.400 L41.800,7.000 L41.000,7.000 L41.000,7.600 L41.000,8.600 L41.000,9.200 L41.000,9.600 L41.000,10.600 L41.000,11.600 L41.000,12.600 L41.000,13.000 L41.000,13.600 L41.000,14.600 L41.000,15.600 L41.000,16.600 L41.000,17.600 L41.000,18.600 L41.000,19.000 L41.000,19.600 L41.000,20.600 L41.000,21.600 L41.000,22.600 L41.000,23.600 L41.000,24.600 L41.000,25.000 L41.000,25.600 L41.000,26.600 L41.000,27.600 L41.000,28.600 L41.000,29.600 L41.000,30.600 L41.000,31.000 L40.600,31.000 L40.600,30.400 L40.600,29.400 L40.600,28.400 L40.600,27.400 L40.600,26.400 L40.600,25.400 L40.600,25.000 L40.600,24.400 L40.600,23.400 L40.600,22.400 L40.600,21.400 L40.600,20.400 L40.600,19.400 L40.600,19.000 L40.600,18.400 L40.600,17.400 L40.600,16.800 L40.600,16.400 L40.600,15.400 L40.600,14.400 L40.600,13.400 L40.600,13.000 L40.600,12.400 L40.600,11.400 L40.600,10.400 L40.600,9.400 L40.600,8.400 L40.600,7.400 L40.600,7.000 L40.600,6.400 L40.600,5.400 L40.600,4.400 L40.600,3.400 L40.600,2.400 L40.600,1.400 L40.600,1.000 L41.000,1.000 L41.000,1.600 L41.000,2.600 L41.000,3.600 L41.000,4.600 L41.000,5.600 L41.000,6.600 L41.000,7.000 L40.200,7.000 L40.200,8.000 L40.200,9.000 L40.200,10.000 L40.200,11.000 L40.200,12.000 L40.200,13.000 L40.200,13.600 L40.200,14.000 L40.200,15.000 L40.200,16.000 L40.200,17.000 L40.200,18.000 L40.200,19.000 L40.200,19.600 L40.200,20.000 L40.200,21.000 L40.200,22.000 L40.200,23.000 L40.200,24.000 L40.200,25.000 L40.200,25.600 L40.200,26.000 L40.200,27.000 L40.200,28.000 L40.200,29.000 L40.200,30.000 L40.200,31.000 L39.800,31.000 L39.800,30.600 L39.800,29.600 L39.800,28.600 L39.800,27.600 L39.800,26.600 L39.800,25.600 L39.800,25.000 L39.800,24.600 L39.800,23.600 L39.800,22.600 L39.800,21.600 L39.800,20.600 L39.800,19.600 L39.800,19.000 L39.800,18.600 L39.800,17.600 L39.800,16.600 L39.800,15.600 L39.800,14.600 L39.800,13.600 L39.800,13.000 L39.800,12.600 L39.800,11.600 L39.800,10.600 L39.800,9.600 L39.800,9.200 L39.800,8.600 L39.800,7.600 L39.800,7.000 L39.800,6.600 L39.800,5.600 L39.800,4.600 L39.800,3.600 L39.800,2.600 L39.800,1.600 L39.800,1.000 L40.200,1.000 L40.200,2.000 L40.200,3.000 L40.200,4.000 L40.200,5.000 L40.200,6.000 L40.200,7.000 L39.400,7.000 L39.400,7.400 L39.400,8.400 L39.400,9.400 L39.400,10.400 L39.400,11.400 L39.400,12.400 L39.400,13.000 L39.400,13.400 L39.400,14.400 L39.400,15.400 L39.400,16.400 L39.400,16.800 L39.400,17.400 L39.400,18.400 L39.400,19.000 L39.400,19.400 L39.400,20.400 L39.400,21.400 L39.400,22.400 L39.400,23.400 L39.400,24.400 L39.400,25.000 L39.400,25.400 L39.400,26.400 L39.400,27.400 L39.400,28.400 L39.400,29.400 L39.400,30.400 L39.400,31.000 L39.000,31.000 L39.000,30.000 L39.000,29.000 L39.000,28.000 L39.000,27.000 L39.000,26.000 L39.000,25.600 L39.000,25.000 L39.000,24.000 L39.000,23.000 L39.000,22.000 L39.000,21.000 L39.000,20.000 L39.000,19.000 L39.000,18.000 L39.000,17.000 L39.000,16.000 L39.000,15.000 L39.000,14.000 L39.000,13.000 L39.000,12.000 L39.000,11.000 L39.000,10.000 L39.000,9.000 L39.000,8.000 L39.000,7.000 L39.000,6.000 L39.000,5.000 L39.000,4.000 L39.000,3.000 L39.000,2.000 L39.000,1.000 L39.400,1.000 L39.400,1.400 L39.400,2.400 L39.400,3.400 L39.400,4.400 L39.400,5.400 L39.400,6.400 L39.400,7.000 L38.600,7.000 L38.600,7.600 L38.600,8.600 L38.600,9.200 L38.600,9.600 L38.600,10.600 L38.600,11.600 L38.600,12.600 L38.600,13.000 L38.600,13.600 L38.600,14.600 L38.600,15.600 L38.600,16.600 L38.600,17.600 L38.600,18.600 L38.600,19.000 L38.600,19.600 L38.600,20.600 L38.600,21.600 L38.600,22.600 L38.600,23.600 L38.600,24.600 L38.600,25.000 L38.600,25.600 L38.600,26.600 L38.600,27.600 L38.600,28.600 L38.600,29.600 L38.600,30.600 L38.600,31.000 L38.200,31.000 L38.200,30.400 L38.200,29.400 L38.200,28.400 L38.200,27.400 L38.200,26.400 L38.200,25.400 L38.200,25.000 L38.200,24.400 L38.200,23.400 L38.200,22.400 L38.200,21.400 L38.200,20.400 L38.200,19.400 L38.200,19.000 L38.200,18.400 L38.200,17.400 L38.200,16.800 L38.200,16.400 L38.200,15.400 L38.200,14.400 L38.200,13.400 L38.200,13.000 L38.200,12.400 L38.200,11.400 L38.200,10.400 L38.200,9.400 L38.200,8.400 L38.200,7.400 L38.200,7.000 L38.200,6.400 L38.200,5.400 L38.200,4.400 L38.200,3.400 L38.200,2.400 L38.200,1.400 L38.200,1.000 L38.600,1.000 L38.600,1.600 L38.600,2.600 L38.600,3.600 L38.600,4.600 L38.600,5.600 L38.600,6.600 L38.600,7.000 L37.800,7.000 L37.800,8.000 L37.800,9.000 L37.800,10.000 L37.800,11.000 L37.800,12.000 L37.800,13.000 L37.800,14.000 L37.800,15.000 L37.800,16.000 L37.800,17.000 L37.800,18.000 L37.800,19.000 L37.800,19.600 L37.800,20.000 L37.800,21.000 L37.800,22.000 L37.800,23.000 L37.800,24.000 L37.800,25.000 L37.800,25.600 L37.800,26.000 L37.800,27.000 L37.800,28.000 L37.800,29.000 L37.800,30.000 L37.800,31.000 L37.400,31.000 L37.400,30.600 L37.400,29.600 L37.400,28.600 L37.400,27.600 L37.400,26.600 L37.400,25.600 L37.400,25.000 L37.400,24.600 L37.400,23.600 L37.400,22.600 L37.400,21.600 L37.400,20.600 L37.400,19.600 L37.400,19.000 L37.400,18.600 L37.400,17.600 L37.400,16.600 L37.400,15.600 L37.400,14.600 L37.400,13.600 L37.400,13.000 L37.400,12.600 L37.400,11.600 L37.400,10.600 L37.400,9.600 L37.400,9.200 L37.400,8.600 L37.400,7.600 L37.400,7.000 L37.400,6.600 L37.400,5.600 L37.400,4.600 L37.400,3.600 L37.400,2.600 L37.400,1.600 L37.400,1.000 L37.800,1.000 L37.800,2.000 L37.800,3.000 L37.800,4.000 L37.800,5.000 L37.800,6.000 L37.800,7.000 L37.000,7.000 L37.000,7.400 L37.000,8.400 L37.000,9.400 L37.000,10.400 L37.000,11.400 L37.000,12.400 L37.000,13.000 L37.000,13.400 L37.000,14.400 L37.000,15.400 L37.000,16.400 L37.000,16.800 L37.000,17.400 L37.000,18.400 L37.000,19.000 L37.000,19.400 L37.000,20.400 L37.000,21.400 L37.000,22.400 L37.000,23.400 L37.000,24.400 L37.000,25.000 L37.000,25.400 L37.000,26.400 L37.000,27.400 L37.000,28.400 L37.000,29.400 L37.000,30.400 L37.000,31.000 L36.600,31.000 L36.600,31.400 L36.600,32.000 L36.600,33.000 L36.600,34.000 L36.600,35.000 L36.600,36.000 L36.600,37.000 L36.200,37.000 L36.200,36.600 L36.200,35.600 L36.200,34.600 L36.200,33.600 L36.200,32.600 L36.200,31.600 L36.200,31.000 L36.200,30.600 L36.200,29.600 L36.200,28.600 L36.200,27.600 L36.200,26.600 L36.200,25.600 L36.200,25.000 L36.200,24.600 L36.200,23.600 L36.200,22.600 L36.200,21.600 L36.200,20.600 L36.200,19.600 L36.200,19.000 L36.600,19.000 L36.600,19.600 L36.600,20.000 L36.600,21.000 L36.600,22.000 L36.600,23.000 L36.600,24.000 L36.600,25.000 L36.600,25.600 L36.600,26.000 L36.600,27.000 L36.600,28.000 L36.600,29.000 L36.600,30.000 L36.600,31.000 L35.800,31.000 L35.800,31.400 L35.800,32.400 L35.800,33.400 L35.800,34.400 L35.800,35.400 L35.800,36.400 L35.800,37.000 L35.400,37.000 L35.400,36.000 L35.400,35.000 L35.400,34.000 L35.400,33.000 L35.400,32.000 L35.400,31.400 L35.400,31.000 L35.400,30.000 L35.400,29.000 L35.400,28.000 L35.400,27.000 L35.400,26.000 L35.400,25.600 L35.400,25.000 L35.400,24.000 L35.400,23.000 L35.400,22.000 L35.400,21.000 L35.400,20.000 L35.400,19.600 L35.400,19.000 L35.800,19.000 L35.800,19.400 L35.800,20.400 L35.800,21.400 L35.800,22.400 L35.800,23.400 L35.800,24.400 L35.800,25.000 L35.800,25.400 L35.800,26.400 L35.800,27.400 L35.800,28.400 L35.800,29.400 L35.800,30.400 L35.800,31.000 L35.000,31.000 L35.000,31.600 L35.000,32.600 L35.000,33.600 L35.000,34.600 L35.000,35.600 L35.000,36.600 L35.000,37.000 L34.600,37.000 L34.600,36.400 L34.600,35.400 L34.600,34.400 L34.600,33.400 L34.600,32.400 L34.600,31.400 L34.600,31.000 L34.600,30.400 L34.600,29.400 L34.600,28.400 L34.600,27.400 L34.600,26.400 L34.600,25.400 L34.600,25.000 L34.600,24.400 L34.600,23.400 L34.600,22.400 L34.600,21.400 L34.600,20.400 L34.600,19.400 L34.600,19.000 L35.000,19.000 L35.000,19.600 L35.000,20.600 L35.000,21.600 L35.000,22.600 L35.000,23.600 L35.000,24.600 L35.000,25.000 L35.000,25.600 L35.000,26.600 L35.000,27.600 L35.000,28.600 L35.000,29.600 L35.000,30.600 L35.000,31.000 L34.200,31.000 L34.200,32.000 L34.200,33.000 L34.200,34.000 L34.200,35.000 L34.200,36.000 L34.200,37.000 L33.800,37.000 L33.800,36.600 L33.800,35.600 L33.800,34.600 L33.800,33.600 L33.800,32.600 L33.800,31.600 L33.800,31.000 L33.800,30.600 L33.800,29.600 L33.800,28.600 L33.800,27.600 L33.800,26.600 L33.800,25.600 L33.800,25.000 L33.800,24.600 L33.800,23.600 L33.800,22.600 L33.800,21.600 L33.800,20.600 L33.800,19.600 L33.800,19.000 L34.200,19.000 L34.200,19.600 L34.200,20.000 L34.200,21.000 L34.200,22.000 L34.200,23.000 L34.200,24.000 L34.200,25.000 L34.200,25.600 L34.200,26.000 L34.200,27.000 L34.200,28.000 L34.200,29.000 L34.200,30.000 L34.200,31.000 L33.400,31.000 L33.400,31.400 L33.400,32.400 L33.400,33.400 L33.400,34.400 L33.400,35.400 L33.400,36.400 L33.400,37.000 L33.000,37.000 L33.000,36.400 L33.000,36.000 L33.000,35.000 L33.000,34.000 L33.000,33.000 L33.000,32.000 L33.000,31.000 L33.000,30.000 L33.000,29.000 L33.000,28.000 L33.000,27.000 L33.000,26.000 L33.000,25.000 L33.000,24.600 L33.000,24.000 L33.000,23.000 L33.000,22.000 L33.000,21.000 L33.000,20.000 L33.000,19.000 L33.400,19.000 L33.400,19.400 L33.400,20.400 L33.400,21.400 L33.400,22.400 L33.400,23.400 L33.400,24.400 L33.400,25.000 L33.400,25.400 L33.400,26.400 L33.400,27.400 L33.400,28.400 L33.400,29.400 L33.400,30.400 L33.400,31.000 L32.600,31.000 L32.600,31.600 L32.600,32.600 L32.600,33.600 L32.600,34.600 L32.600,35.600 L32.600,36.600 L32.600,37.000 L32.200,37.000 L32.200,36.400 L32.200,35.400 L32.200,34.400 L32.200,33.400 L32.200,32.400 L32.200,31.400 L32.200,31.000 L32.200,30.400 L32.200,29.400 L32.200,28.400 L32.200,27.400 L32.200,26.400 L32.200,25.400 L32.200,25.000 L32.200,24.400 L32.200,23.400 L32.200,22.400 L32.200,21.400 L32.200,20.400 L32.200,19.400 L32.200,19.000 L32.600,19.000 L32.600,19.600 L32.600,20.600 L32.600,21.600 L32.600,22.600 L32.600,23.600 L32.600,24.600 L32.600,25.000 L32.600,25.600 L32.600,26.600 L32.600,27.600 L32.600,28.600 L32.600,29.600 L32.600,30.600 L32.600,31.000 L31.800,31.000 L31.800,32.000 L31.800,33.000 L31.800,34.000 L31.800,35.000 L31.800,36.000 L31.800,36.400 L31.800,37.000 L31.400,37.000 L31.400,36.600 L31.400,35.600 L31.400,34.600 L31.400,33.600 L31.400,32.600 L31.400,31.600 L31.400,31.000 L31.400,30.600 L31.400,29.600 L31.400,28.600 L31.400,27.600 L31.400,26.600 L31.400,25.600 L31.400,25.000 L31.400,24.600 L31.400,23.600 L31.400,22.600 L31.400,21.600 L31.400,20.600 L31.400,19.600 L31.400,19.000 L31.800,19.000 L31.800,20.000 L31.800,21.000 L31.800,22.000 L31.800,23.000 L31.800,24.000 L31.800,25.000 L31.800,25.600 L31.800,26.000 L31.800,27.000 L31.800,28.000 L31.800,29.000 L31.800,30.000 L31.800,31.000 L31.000,31.000 L31.000,31.400 L31.000,32.400 L31.000,33.400 L31.000,34.400 L31.000,35.400 L31.000,36.400 L31.000,37.000 L30.600,37.000 L30.600,38.000 L30.600,39.000 L30.600,40.000 L30.600,41.000 L30.600,42.000 L30.600,43.000 L30.200,43.000 L30.200,42.600 L30.200,41.600 L30.200,40.600 L30.200,39.600 L30.200,38.600 L30.200,37.600 L30.200,37.000 L30.200,36.600 L30.200,35.600 L30.200,34.600 L30.200,33.600 L30.200,32.600 L30.200,31.600 L30.200,31.000 L30.200,30.600 L30.200,29.600 L30.200,28.600 L30.200,27.600 L30.200,26.600 L30.200,25.600 L30.200,25.000 L30.200,24.600 L30.200,23.600 L30.200,22.600 L30.200,21.600 L30.200,20.600 L30.200,19.600 L30.200,19.000 L30.200,18.600 L30.200,17.600 L30.200,16.600 L30.200,15.600 L30.200,14.600 L30.200,13.600 L30.200,13.000 L30.200,12.600 L30.200,11.600 L30.200,10.600 L30.200,9.600 L30.200,9.200 L30.200,8.600 L30.200,7.600 L30.200,7.000 L30.600,7.000 L30.600,8.000 L30.600,9.000 L30.600,10.000 L30.600,11.000 L30.600,12.000 L30.600,13.000 L30.600,14.000 L30.600,15.000 L30.600,16.000 L30.600,17.000 L30.600,18.000 L30.600,19.000 L30.600,20.000 L30.600,21.000 L30.600,22.000 L30.600,23.000 L30.600,24.000 L30.600,25.000 L30.600,25.400 L30.600,26.000 L30.600,27.000 L30.600,28.000 L30.600,29.000 L30.600,30.000 L30.600,31.000 L30.600,32.000 L30.600,33.000 L30.600,34.000 L30.600,35.000 L30.600,36.000 L30.600,37.000 L29.800,37.000 L29.800,37.400 L29.800,38.400 L29.800,39.400 L29.800,40.400 L29.800,41.400 L29.800,42.400 L29.800,43.000 L29.400,43.000 L29.400,42.000 L29.400,41.000 L29.400,40.000 L29.400,39.000 L29.400,38.000 L29.400,37.000 L29.400,36.000 L29.400,35.000 L29.400,34.000 L29.400,33.000 L29.400,32.000 L29.400,31.000 L29.400,30.000 L29.400,29.000 L29.400,28.000 L29.400,27.000 L29.400,26.000 L29.400,25.000 L29.400,24.000 L29.400,23.000 L29.400,22.000 L29.400,21.000 L29.400,20.000 L29.400,19.000 L29.400,18.000 L29.400,17.000 L29.400,16.000 L29.400,15.000 L29.400,14.000 L29.400,13.000 L29.400,12.000 L29.400,11.000 L29.400,10.000 L29.400,9.000 L29.400,8.000 L29.400,7.000 L29.800,7.000 L29.800,7.400 L29.800,8.400 L29.800,9.400 L29.800,10.400 L29.800,11.400 L29.800,12.400 L29.800,13.000 L29.800,13.400 L29.800,14.400 L29.800,15.400 L29.800,16.400 L29.800,16.800 L29.800,17.400 L29.800,18.400 L29.800,19.000 L29.800,19.400 L29.800,20.400 L29.800,21.400 L29.800,22.400 L29.800,23.400 L29.800,24.400 L29.800,25.000 L29.800,25.400 L29.800,26.400 L29.800,27.400 L29.800,28.400 L29.800,29.400 L29.800,30.400 L29.800,31.000 L29.800,31.400 L29.800,32.400 L29.800,33.400 L29.800,34.400 L29.800,35.400 L29.800,36.400 L29.800,37.000 L29.000,37.000 L29.000,37.600 L29.000,38.600 L29.000,39.600 L29.000,40.600 L29.000,41.600 L29.000,42.600 L29.000,43.000 L28.600,43.000 L28.600,42.400 L28.600,41.400 L28.600,40.400 L28.600,39.400 L28.600,38.400 L28.600,37.400 L28.600,37.000 L28.600,36.400 L28.600,35.400 L28.600,34.400 L28.600,33.400 L28.600,32.400 L28.600,31.400 L28.600,31.000 L28.600,30.400 L28.600,29.400 L28.600,28.400 L28.600,27.400 L28.600,26.400 L28.600,25.400 L28.600,25.000 L28.600,24.400 L28.600,23.400 L28.600,22.400 L28.600,21.400 L28.600,20.400 L28.600,19.400 L28.600,19.000 L28.600,18.400 L28.600,17.400 L28.600,16.800 L28.600,16.400 L28.600,15.400 L28.600,14.400 L28.600,13.400 L28.600,13.000 L28.600,12.400 L28.600,11.400 L28.600,10.400 L28.600,9.400 L28.600,8.400 L28.600,7.400 L28.600,7.000 L29.000,7.000 L29.000,7.600 L29.000,8.600 L29.000,9.200 L29.000,9.600 L29.000,10.600 L29.000,11.600 L29.000,12.600 L29.000,13.000 L29.000,13.600 L29.000,14.600 L29.000,15.600 L29.000,16.600 L29.000,17.600 L29.000,18.600 L29.000,19.000 L29.000,19.600 L29.000,20.600 L29.000,21.600 L29.000,22.600 L29.000,23.600 L29.000,24.600 L29.000,25.000 L29.000,25.600 L29.000,26.600 L29.000,27.600 L29.000,28.600 L29.000,29.600 L29.000,30.600 L29.000,31.000 L29.000,31.600 L29.000,32.600 L29.000,33.600 L29.000,34.600 L29.000,35.600 L29.000,36.600 L29.000,37.000 L28.200,37.000 L28.200,38.000 L28.200,39.000 L28.200,40.000 L28.200,41.000 L28.200,42.000 L28.200,43.000 L27.800,43.000 L27.800,42.600 L27.800,41.600 L27.800,40.600 L27.800,39.600 L27.800,38.600 L27.800,37.600 L27.800,37.000 L27.800,36.600 L27.800,35.600 L27.800,34.600 L27.800,33.600 L27.800,32.600 L27.800,31.600 L27.800,31.000 L27.800,30.600 L27.800,29.600 L27.800,28.600 L27.800,27.600 L27.800,26.600 L27.800,25.600 L27.800,25.000 L27.800,24.600 L27.800,23.600 L27.800,22.600 L27.800,21.600 L27.800,20.600 L27.800,19.600 L27.800,19.000 L27.800,18.600 L27.800,17.600 L27.800,16.600 L27.800,15.600 L27.800,14.600 L27.800,13.600 L27.800,13.000 L27.800,12.600 L27.800,11.600 L27.800,10.600 L27.800,9.600 L27.800,9.200 L27.800,8.600 L27.800,7.600 L27.800,7.000 L28.200,7.000 L28.200,8.000 L28.200,9.000 L28.200,10.000 L28.200,11.000 L28.200,12.000 L28.200,13.000 L28.200,14.000 L28.200,15.000 L28.200,16.000 L28.200,17.000 L28.200,18.000 L28.200,19.000 L28.200,20.000 L28.200,21.000 L28.200,22.000 L28.200,23.000 L28.200,24.000 L28.200,25.000 L28.200,25.400 L28.200,26.000 L28.200,27.000 L28.200,28.000 L28.200,29.000 L28.200,30.000 L28.200,31.000 L28.200,32.000 L28.200,33.000 L28.200,34.000 L28.200,35.000 L28.200,36.000 L28.200,37.000 L27.400,37.000 L27.400,37.400 L27.400,38.400 L27.400,39.400 L27.400,40.400 L27.400,41.400 L27.400,42.400 L27.400,43.000 L27.000,43.000 L27.000,42.000 L27.000,41.000 L27.000,40.000 L27.000,39.000 L27.000,38.000 L27.000,37.000 L27.000,36.400 L27.000,36.000 L27.000,35.000 L27.000,34.000 L27.000,33.000 L27.000,32.000 L27.000,31.000 L27.000,30.400 L27.000,30.000 L27.000,29.000 L27.000,28.000 L27.000,27.000 L27.000,26.000 L27.000,25.000 L27.000,24.600 L27.000,24.000 L27.000,23.000 L27.000,22.000 L27.000,21.000 L27.000,20.000 L27.000,19.000 L27.000,18.400 L27.000,18.000 L27.000,17.000 L27.000,16.000 L27.000,15.000 L27.000,14.000 L27.000,13.000 L27.000,12.400 L27.000,12.000 L27.000,11.000 L27.000,10.000 L27.000,9.000 L27.000,8.000 L27.000,7.000 L27.400,7.000 L27.400,7.400 L27.400,8.400 L27.400,9.400 L27.400,10.400 L27.400,11.400 L27.400,12.400 L27.400,13.000 L27.400,13.400 L27.400,14.400 L27.400,15.400 L27.400,16.400 L27.400,16.800 L27.400,17.400 L27.400,18.400 L27.400,19.000 L27.400,19.400 L27.400,20.400 L27.400,21.400 L27.400,22.400 L27.400,23.400 L27.400,24.400 L27.400,25.000 L27.400,25.400 L27.400,26.400 L27.400,27.400 L27.400,28.400 L27.400,29.400 L27.400,30.400 L27.400,31.000 L27.400,31.400 L27.400,32.400 L27.400,33.400 L27.400,34.400 L27.400,35.400 L27.400,36.400 L27.400,37.000 L26.600,37.000 L26.600,37.600 L26.600,38.600 L26.600,39.600 L26.600,40.600 L26.600,41.600 L26.600,42.600 L26.600,43.000 L26.200,43.000 L26.200,42.400 L26.200,41.400 L26.200,40.400 L26.200,39.400 L26.200,38.400 L26.200,37.400 L26.200,37.000 L26.200,36.400 L26.200,35.400 L26.200,34.400 L26.200,33.400 L26.200,32.400 L26.200,31.400 L26.200,31.000 L26.200,30.400 L26.200,29.400 L26.200,28.400 L26.200,27.400 L26.200,26.400 L26.200,25.400 L26.200,25.000 L26.200,24.400 L26.200,23.400 L26.200,22.400 L26.200,21.400 L26.200,20.400 L26.200,19.400 L26.200,19.000 L26.200,18.400 L26.200,17.400 L26.200,16.800 L26.200,16.400 L26.200,15.400 L26.200,14.400 L26.200,13.400 L26.200,13.000 L26.200,12.400 L26.200,11.400 L26.200,10.400 L26.200,9.400 L26.200,8.400 L26.200,7.400 L26.200,7.000 L26.600,7.000 L26.600,7.600 L26.600,8.600 L26.600,9.200 L26.600,9.600 L26.600,10.600 L26.600,11.600 L26.600,12.600 L26.600,13.000 L26.600,13.600 L26.600,14.600 L26.600,15.600 L26.600,16.600 L26.600,17.600 L26.600,18.600 L26.600,19.000 L26.600,19.600 L26.600,20.600 L26.600,21.600 L26.600,22.600 L26.600,23.600 L26.600,24.600 L26.600,25.000 L26.600,25.600 L26.600,26.600 L26.600,27.600 L26.600,28.600 L26.600,29.600 L26.600,30.600 L26.600,31.000 L26.600,31.600 L26.600,32.600 L26.600,33.600 L26.600,34.600 L26.600,35.600 L26.600,36.600 L26.600,37.000 L25.800,37.000 L25.800,38.000 L25.800,39.000 L25.800,40.000 L25.800,41.000 L25.800,42.000 L25.800,43.000 L25.400,43.000 L25.400,42.600 L25.400,41.600 L25.400,40.600 L25.400,39.600 L25.400,38.600 L25.400,37.600 L25.400,37.000 L25.400,36.600 L25.400,35.600 L25.400,34.600 L25.400,33.600 L25.400,32.600 L25.400,31.600 L25.400,31.000 L25.400,30.600 L25.400,29.600 L25.400,28.600 L25.400,27.600 L25.400,26.600 L25.400,25.600 L25.400,25.000 L25.400,24.600 L25.400,23.600 L25.400,22.600 L25.400,21.600 L25.400,20.600 L25.400,19.600 L25.400,19.000 L25.400,18.600 L25.400,17.600 L25.400,16.600 L25.400,15.600 L25.400,14.600 L25.400,13.600 L25.400,13.000 L25.400,12.600 L25.400,11.600 L25.400,10.600 L25.400,9.600 L25.400,9.200 L25.400,8.600 L25.400,7.600 L25.400,7.000 L25.800,7.000 L25.800,8.000 L25.800,9.000 L25.800,10.000 L25.800,11.000 L25.800,12.000 L25.800,13.000 L25.800,14.000 L25.800,15.000 L25.800,16.000 L25.800,17.000 L25.800,18.000 L25.800,19.000 L25.800,20.000 L25.800,21.000 L25.800,22.000 L25.800,23.000 L25.800,24.000 L25.800,25.000 L25.800,26.000 L25.800,27.000 L25.800,28.000 L25.800,29.000 L25.800,30.000 L25.800,31.000 L25.800,32.000 L25.800,33.000 L25.800,34.000 L25.800,35.000 L25.800,36.000 L25.800,37.000 L25.000,37.000 L25.000,37.400 L25.000,38.400 L25.000,39.400 L25.000,40.400 L25.000,41.400 L25.000,42.400 L25.000,43.000 L24.600,43.000 L24.600,42.000 L24.600,41.000 L24.600,40.000 L24.600,39.000 L24.600,38.000 L24.600,37.000 L24.600,36.000 L24.600,35.000 L24.600,34.000 L24.600,33.000 L24.600,32.000 L24.600,31.000 L24.600,30.000 L24.600,29.000 L24.600,28.000 L24.600,27.000 L24.600,26.000 L24.600,25.000 L24.600,24.000 L24.600,23.000 L24.600,22.000 L24.600,21.000 L24.600,20.000 L24.600,19.000 L24.600,18.000 L24.600,17.000 L24.600,16.000 L24.600,15.000 L24.600,14.000 L24.600,13.000 L24.600,12.000 L24.600,11.000 L24.600,10.000 L24.600,9.000 L24.600,8.000 L24.600,7.000 L25.000,7.000 L25.000,7.400 L25.000,8.400 L25.000,9.400 L25.000,10.400 L25.000,11.400 L25.000,12.400 L25.000,13.000 L25.000,13.400 L25.000,14.400 L25.000,15.400 L25.000,16.400 L25.000,16.800 L25.000,17.400 L25.000,18.400 L25.000,19.000 L25.000,19.400 L25.000,20.400 L25.000,21.400 L25.000,22.400 L25.000,23.400 L25.000,24.400 L25.000,25.000 L25.000,25.400 L25.000,26.400 L25.000,27.400 L25.000,28.400 L25.000,29.400 L25.000,30.400 L25.000,31.000 L25.000,31.400 L25.000,32.400 L25.000,33.400 L25.000,34.400 L25.000,35.400 L25.000,36.400 L25.000,37.000 L24.200,37.000 L24.200,37.600 L24.200,38.600 L24.200,39.600 L24.200,40.600 L24.200,41.600 L24.200,42.600 L24.200,43.000 L23.800,43.000 L23.800,42.400 L23.800,41.400 L23.800,40.400 L23.800,39.400 L23.800,38.400 L23.800,37.400 L23.800,37.000 L23.800,36.400 L23.800,35.400 L23.800,34.400 L23.800,33.400 L23.800,32.400 L23.800,31.400 L23.800,31.000 L23.800,30.400 L23.800,29.400 L23.800,28.400 L23.800,27.400 L23.800,26.400 L23.800,25.400 L23.800,25.000 L23.800,24.400 L23.800,23.400 L23.800,22.400 L23.800,21.400 L23.800,20.400 L23.800,19.400 L23.800,19.000 L23.800,18.400 L23.800,17.400 L23.800,16.800 L23.800,16.400 L23.800,15.400 L23.800,14.400 L23.800,13.400 L23.800,13.000 L23.800,12.400 L23.800,11.400 L23.800,10.400 L23.800,9.400 L23.800,8.400 L23.800,7.400 L23.800,7.000 L24.200,7.000 L24.200,7.600 L24.200,8.600 L24.200,9.200 L24.200,9.600 L24.200,10.600 L24.200,11.600 L24.200,12.600 L24.200,13.000 L24.200,13.600 L24.200,14.600 L24.200,15.600 L24.200,16.600 L24.200,17.600 L24.200,18.600 L24.200,19.000 L24.200,19.600 L24.200,20.600 L24.200,21.600 L24.200,22.600 L24.200,23.600 L24.200,24.600 L24.200,25.000 L24.200,25.600 L24.200,26.600 L24.200,27.600 L24.200,28.600 L24.200,29.600 L24.200,30.600 L24.200,31.000 L24.200,31.600 L24.200,32.600 L24.200,33.600 L24.200,34.600 L24.200,35.600 L24.200,36.600 L24.200,37.000 L23.400,37.000 L23.400,38.000 L23.400,39.000 L23.400,40.000 L23.400,41.000 L23.400,42.000 L23.400,43.000 L23.000,43.000 L23.000,42.600 L23.000,41.600 L23.000,40.600 L23.000,39.600 L23.000,38.600 L23.000,37.600 L23.000,37.000 L23.000,36.600 L23.000,35.600 L23.000,34.600 L23.000,33.600 L23.000,32.600 L23.000,31.600 L23.000,31.000 L23.000,30.600 L23.000,29.600 L23.000,28.600 L23.000,27.600 L23.000,26.600 L23.000,25.600 L23.000,25.000 L23.000,24.600 L23.000,23.600 L23.000,22.600 L23.000,21.600 L23.000,20.600 L23.000,19.600 L23.000,19.000 L23.000,18.600 L23.000,17.600 L23.000,16.600 L23.000,15.600 L23.000,14.600 L23.000,13.600 L23.000,13.000 L23.000,12.600 L23.000,11.600 L23.000,10.600 L23.000,9.600 L23.000,9.200 L23.000,8.600 L23.000,7.600 L23.000,7.000 L22.600,7.000 L22.600,7.400 L22.600,8.400 L22.600,9.400 L22.600,10.400 L22.600,11.400 L22.600,12.400 L22.600,13.000 L22.600,13.400 L22.600,14.400 L22.600,15.400 L22.600,16.400 L22.600,16.800 L22.600,17.400 L22.600,18.400 L22.600,19.000 L22.600,19.400 L22.600,20.400 L22.600,21.400 L22.600,22.400 L22.600,23.400 L22.600,24.400 L22.600,25.000 L22.600,25.400 L22.600,26.400 L22.600,27.400 L22.600,28.400 L22.600,29.400 L22.600,30.400 L22.600,31.000 L22.600,31.400 L22.600,32.400 L22.600,33.400 L22.600,34.400 L22.600,35.400 L22.600,36.400 L22.600,37.000 L22.600,37.400 L22.600,38.400 L22.600,39.400 L22.600,40.400 L22.600,41.400 L22.600,42.400 L22.600,43.000 L22.200,43.000 L22.200,42.000 L22.200,41.000 L22.200,40.000 L22.200,39.000 L22.200,38.000 L22.200,37.000 L22.200,36.000 L22.200,35.000 L22.200,34.000 L22.200,33.000 L22.200,32.000 L22.200,31.000 L22.200,30.000 L22.200,29.000 L22.200,28.000 L22.200,27.000 L22.200,26.000 L22.200,25.000 L22.200,24.600 L22.200,24.000 L22.200,23.000 L22.200,22.000 L22.200,21.000 L22.200,20.000 L22.200,19.000 L22.200,18.000 L22.200,17.000 L22.200,16.000 L22.200,15.000 L22.200,14.000 L22.200,13.000 L22.200,12.000 L22.200,11.000 L22.200,10.000 L22.200,9.000 L22.200,8.000 L22.200,7.000 L21.800,7.000 L21.800,7.600 L21.800,8.600 L21.800,9.200 L21.800,9.600 L21.800,10.600 L21.800,11.600 L21.800,12.600 L21.800,13.000 L21.800,13.600 L21.800,14.600 L21.800,15.600 L21.800,16.600 L21.800,17.600 L21.800,18.600 L21.800,19.000 L21.800,19.600 L21.800,20.600 L21.800,21.600 L21.800,22.600 L21.800,23.600 L21.800,24.600 L21.800,25.000 L21.800,25.600 L21.800,26.600 L21.800,27.600 L21.800,28.600 L21.800,29.600 L21.800,30.600 L21.800,31.000 L21.800,31.600 L21.800,32.600 L21.800,33.600 L21.800,34.600 L21.800,35.600 L21.800,36.600 L21.800,37.000 L21.800,37.600 L21.800,38.600 L21.800,39.600 L21.800,40.600 L21.800,41.600 L21.800,42.600 L21.800,43.000 L21.400,43.000 L21.400,42.400 L21.400,41.400 L21.400,40.400 L21.400,39.400 L21.400,38.400 L21.400,37.400 L21.400,37.000 L21.400,36.400 L21.400,35.400 L21.400,34.400 L21.400,33.400 L21.400,32.400 L21.400,31.400 L21.400,31.000 L21.400,30.400 L21.400,29.400 L21.400,28.400 L21.400,27.400 L21.400,26.400 L21.400,25.400 L21.400,25.000 L21.400,24.400 L21.400,23.400 L21.400,22.400 L21.400,21.400 L21.400,20.400 L21.400,19.400 L21.400,19.000 L21.400,18.400 L21.400,17.400 L21.400,16.800 L21.400,16.400 L21.400,15.400 L21.400,14.400 L21.400,13.400 L21.400,13.000 L21.400,12.400 L21.400,11.400 L21.400,10.400 L21.400,9.400 L21.400,8.400 L21.400,7.400 L21.400,7.000 L21.000,7.000 L21.000,8.000 L21.000,9.000 L21.000,10.000 L21.000,11.000 L21.000,12.000 L21.000,13.000 L21.000,14.000 L21.000,15.000 L21.000,16.000 L21.000,17.000 L21.000,18.000 L21.000,19.000 L21.000,20.000 L21.000,21.000 L21.000,22.000 L21.000,23.000 L21.000,24.000 L21.000,25.000 L21.000,26.000 L21.000,27.000 L21.000,28.000 L21.000,29.000 L21.000,30.000 L21.000,31.000 L21.000,32.000 L21.000,33.000 L21.000,34.000 L21.000,35.000 L21.000,36.000 L21.000,37.000 L21.000,38.000 L21.000,39.000 L21.000,40.000 L21.000,41.000 L21.000,42.000 L21.000,43.000 L20.600,43.000 L20.600,42.600 L20.600,41.600 L20.600,40.600 L20.600,39.600 L20.600,38.600 L20.600,37.600 L20.600,37.000 L20.600,36.600 L20.600,35.600 L20.600,34.600 L20.600,33.600 L20.600,32.600 L20.600,31.600 L20.600,31.000 L20.600,30.600 L20.600,29.600 L20.600,28.600 L20.600,27.600 L20.600,26.600 L20.600,25.600 L20.600,25.000 L20.600,24.600 L20.600,23.600 L20.600,22.600 L20.600,21.600 L20.600,20.600 L20.600,19.600 L20.600,19.000 L20.600,18.600 L20.600,17.600 L20.600,16.600 L20.600,15.600 L20.600,14.600 L20.600,13.600 L20.600,13.000 L20.600,12.600 L20.600,11.600 L20.600,10.600 L20.600,9.600 L20.600,9.200 L20.600,8.600 L20.600,7.600 L20.600,7.000 L20.200,7.000 L20.200,7.400 L20.200,8.400 L20.200,9.400 L20.200,10.400 L20.200,11.400 L20.200,12.400 L20.200,13.000 L20.200,13.400 L20.200,14.400 L20.200,15.400 L20.200,16.400 L20.200,16.800 L20.200,17.400 L20.200,18.400 L20.200,19.000 L20.200,19.400 L20.200,20.400 L20.200,21.400 L20.200,22.400 L20.200,23.400 L20.200,24.400 L20.200,25.000 L20.200,25.400 L20.200,26.400 L20.200,27.400 L20.200,28.400 L20.200,29.400 L20.200,30.400 L20.200,31.000 L20.200,31.400 L20.200,32.400 L20.200,33.400 L20.200,34.400 L20.200,35.400 L20.200,36.400 L20.200,37.000 L20.200,37.400 L20.200,38.400 L20.200,39.400 L20.200,40.400 L20.200,41.400 L20.200,42.400 L20.200,43.000 L19.800,43.000 L19.800,42.000 L19.800,41.000 L19.800,40.000 L19.800,39.000 L19.800,38.000 L19.800,37.000 L19.800,36.400 L19.800,36.000 L19.800,35.000 L19.800,34.000 L19.800,33.000 L19.800,32.000 L19.800,31.000 L19.800,30.400 L19.800,30.000 L19.800,29.000 L19.800,28.000 L19.800,27.000 L19.800,26.000 L19.800,25.000 L19.800,24.600 L19.800,24.000 L19.800,23.000 L19.800,22.000 L19.800,21.000 L19.800,20.000 L19.800,19.000 L19.800,18.400 L19.800,18.000 L19.800,17.000 L19.800,16.000 L19.800,15.000 L19.800,14.000 L19.800,13.000 L19.800,12.400 L19.800,12.000 L19.800,11.000 L19.800,10.000 L19.800,9.000 L19.800,8.000 L19.800,7.000 L19.400,7.000 L19.400,7.600 L19.400,8.600 L19.400,9.200 L19.400,9.600 L19.400,10.600 L19.400,11.600 L19.400,12.600 L19.400,13.000 L19.400,13.600 L19.400,14.600 L19.400,15.600 L19.400,16.600 L19.400,17.600 L19.400,18.600 L19.400,19.000 L19.400,19.600 L19.400,20.600 L19.400,21.600 L19.400,22.600 L19.400,23.600 L19.400,24.600 L19.400,25.000 L19.400,25.600 L19.400,26.600 L19.400,27.600 L19.400,28.600 L19.400,29.600 L19.400,30.600 L19.400,31.000 L19.400,31.600 L19.400,32.600 L19.400,33.600 L19.400,34.600 L19.400,35.600 L19.400,36.600 L19.400,37.000 L19.400,37.600 L19.400,38.600 L19.400,39.600 L19.400,40.600 L19.400,41.600 L19.400,42.600 L19.400,43.000 L19.000,43.000 L19.000,42.400 L19.000,41.400 L19.000,40.400 L19.000,39.400 L19.000,38.400 L19.000,37.400 L19.000,37.000 L19.000,36.400 L19.000,35.400 L19.000,34.400 L19.000,33.400 L19.000,32.400 L19.000,31.400 L19.000,31.000 L19.000,30.400 L19.000,29.400 L19.000,28.400 L19.000,27.400 L19.000,26.400 L19.000,25.400 L19.000,25.000 L19.000,24.400 L19.000,23.400 L19.000,22.400 L19.000,21.400 L19.000,20.400 L19.000,19.400 L19.000,19.000 L19.000,18.400 L19.000,17.400 L19.000,16.800 L19.000,16.400 L19.000,15.400 L19.000,14.400 L19.000,13.400 L19.000,13.000 L19.000,12.400 L19.000,11.400 L19.000,10.400 L19.000,9.400 L19.000,8.400 L19.000,7.400 L19.000,7.000 L18.600,7.000 L18.600,8.000 L18.600,9.000 L18.600,10.000 L18.600,11.000 L18.600,12.000 L18.600,13.000 L18.200,13.000 L18.200,12.600 L18.200,11.600 L18.200,10.600 L18.200,9.600 L18.200,9.200 L18.200,8.600 L18.200,7.600 L18.200,7.000 L18.200,6.600 L18.200,5.600 L18.200,4.600 L18.200,3.600 L18.200,2.600 L18.200,1.600 L18.200,1.000 L18.600,1.000 L18.600,2.000 L18.600,3.000 L18.600,4.000 L18.600,5.000 L18.600,6.000 L18.600,7.000 L17.800,7.000 L17.800,7.400 L17.800,8.400 L17.800,9.400 L17.800,10.400 L17.800,11.400 L17.800,12.400 L17.800,13.000 L17.400,13.000 L17.400,12.000 L17.400,11.000 L17.400,10.000 L17.400,9.000 L17.400,8.000 L17.400,7.000 L17.400,6.000 L17.400,5.000 L17.400,4.000 L17.400,3.000 L17.400,2.000 L17.400,1.000 L17.800,1.000 L17.800,1.400 L17.800,2.400 L17.800,3.400 L17.800,4.400 L17.800,5.400 L17.800,6.400 L17.800,7.000 L17.000,7.000 L17.000,7.600 L17.000,8.600 L17.000,9.200 L17.000,9.600 L17.000,10.600 L17.000,11.600 L17.000,12.600 L17.000,13.000 L16.600,13.000 L16.600,12.400 L16.600,11.400 L16.600,10.400 L16.600,9.400 L16.600,8.400 L16.600,7.400 L16.600,7.000 L16.600,6.400 L16.600,5.400 L16.600,4.400 L16.600,3.400 L16.600,2.400 L16.600,1.400 L16.600,1.000 L17.000,1.000 L17.000,1.600 L17.000,2.600 L17.000,3.600 L17.000,4.600 L17.000,5.600 L17.000,6.600 L17.000,7.000 L16.200,7.000 L16.200,8.000 L16.200,9.000 L16.200,10.000 L16.200,11.000 L16.200,12.000 L16.200,13.000 L15.800,13.000 L15.800,12.600 L15.800,11.600 L15.800,10.600 L15.800,9.600 L15.800,9.200 L15.800,8.600 L15.800,7.600 L15.800,7.000 L15.800,6.600 L15.800,5.600 L15.800,4.600 L15.800,3.600 L15.800,2.600 L15.800,1.600 L15.800,1.000 L16.200,1.000 L16.200,2.000 L16.200,3.000 L16.200,4.000 L16.200,5.000 L16.200,6.000 L16.200,7.000 L15.400,7.000 L15.400,7.400 L15.400,8.400 L15.400,9.400 L15.400,10.400 L15.400,11.400 L15.400,12.400 L15.400,13.000 L15.000,13.000 L15.000,12.400 L15.000,12.000 L15.000,11.000 L15.000,10.000 L15.000,9.000 L15.000,8.000 L15.000,7.000 L15.000,6.000 L15.000,5.000 L15.000,4.000 L15.000,3.000 L15.000,2.000 L15.000,1.000 L15.400,1.000 L15.400,1.400 L15.400,2.400 L15.400,3.400 L15.400,4.400 L15.400,5.400 L15.400,6.400 L15.400,7.000 L14.600,7.000 L14.600,7.600 L14.600,8.600 L14.600,9.200 L14.600,9.600 L14.600,10.600 L14.600,11.600 L14.600,12.600 L14.600,13.000 L14.200,13.000 L14.200,12.400 L14.200,11.400 L14.200,10.400 L14.200,9.400 L14.200,8.400 L14.200,7.400 L14.200,7.000 L14.200,6.400 L14.200,5.400 L14.200,4.400 L14.200,3.400 L14.200,2.400 L14.200,1.400 L14.200,1.000 L14.600,1.000 L14.600,1.600 L14.600,2.600 L14.600,3.600 L14.600,4.600 L14.600,5.600 L14.600,6.600 L14.600,7.000 L13.800,7.000 L13.800,8.000 L13.800,9.000 L13.800,10.000 L13.800,11.000 L13.800,12.000 L13.800,12.400 L13.800,13.000 L13.400,13.000 L13.400,12.600 L13.400,11.600 L13.400,10.600 L13.400,9.600 L13.400,9.200 L13.400,8.600 L13.400,7.600 L13.400,7.000 L13.400,6.600 L13.400,5.600 L13.400,4.600 L13.400,3.600 L13.400,2.600 L13.400,1.600 L13.400,1.000 L13.800,1.000 L13.800,2.000 L13.800,3.000 L13.800,4.000 L13.800,5.000 L13.800,6.000 L13.800,7.000 L13.000,7.000 L13.000,7.400 L13.000,8.400 L13.000,9.400 L13.000,10.400 L13.000,11.400 L13.000,12.400 L13.000,13.000 L12.600,13.000 L12.600,14.000 L12.600,15.000 L12.600,16.000 L12.600,17.000 L12.600,18.000 L12.600,18.400 L12.600,19.000 L12.600,20.000 L12.600,21.000 L12.600,22.000 L12.600,23.000 L12.600,24.000 L12.600,24.400 L12.600,25.000 L12.600,26.000 L12.600,27.000 L12.600,28.000 L12.600,29.000 L12.600,30.000 L12.600,30.400 L12.600,31.000 L13.000,31.000 L13.000,31.400 L13.000,32.400 L13.000,33.400 L13.000,34.400 L13.000,35.400 L13.000,36.400 L13.000,37.000 L13.400,37.000 L13.400,36.600 L13.400,35.600 L13.400,34.600 L13.400,33.600 L13.400,32.600 L13.400,31.600 L13.400,31.000 L13.400,30.600 L13.400,29.600 L13.400,28.600 L13.400,27.600 L13.400,26.600 L13.400,25.600 L13.400,25.000 L13.400,24.600 L13.400,23.600 L13.400,22.600 L13.400,21.600 L13.400,20.600 L13.400,19.600 L13.400,19.000 L13.800,19.000 L13.800,20.000 L13.800,21.000 L13.800,22.000 L13.800,23.000 L13.800,24.000 L13.800,24.400 L13.800,25.000 L13.800,26.000 L13.800,27.000 L13.800,28.000 L13.800,29.000 L13.800,30.000 L13.800,30.400 L13.800,31.000 L13.800,32.000 L13.800,33.000 L13.800,34.000 L13.800,35.000 L13.800,36.000 L13.800,36.400 L13.800,37.000 L14.200,37.000 L14.200,36.400 L14.200,35.400 L14.200,34.400 L14.200,33.400 L14.200,32.400 L14.200,31.400 L14.200,31.000 L14.200,30.400 L14.200,29.400 L14.200,28.400 L14.200,27.400 L14.200,26.400 L14.200,25.400 L14.200,25.000 L14.200,24.400 L14.200,23.400 L14.200,22.400 L14.200,21.400 L14.200,20.400 L14.200,19.400 L14.200,19.000 L14.600,19.000 L14.600,19.600 L14.600,20.600 L14.600,21.600 L14.600,22.600 L14.600,23.600 L14.600,24.600 L14.600,25.000 L14.600,25.600 L14.600,26.600 L14.600,27.600 L14.600,28.600 L14.600,29.600 L14.600,30.600 L14.600,31.000 L14.600,31.600 L14.600,32.600 L14.600,33.600 L14.600,34.600 L14.600,35.600 L14.600,36.600 L14.600,37.000 L15.000,37.000 L15.000,36.400 L15.000,36.000 L15.000,35.000 L15.000,34.000 L15.000,33.000 L15.000,32.000 L15.000,31.000 L15.000,30.400 L15.000,30.000 L15.000,29.000 L15.000,28.000 L15.000,27.000 L15.000,26.000 L15.000,25.000 L15.000,24.600 L15.000,24.000 L15.000,23.000 L15.000,22.000 L15.000,21.000 L15.000,20.000 L15.000,19.000 L15.400,19.000 L15.400,19.400 L15.400,20.400 L15.400,21.400 L15.400,22.400 L15.400,23.400 L15.400,24.400 L15.400,25.000 L15.400,25.400 L15.400,26.400 L15.400,27.400 L15.400,28.400 L15.400,29.400 L15.400,30.400 L15.400,31.000 L15.400,31.400 L15.400,32.400 L15.400,33.400 L15.400,34.400 L15.400,35.400 L15.400,36.400 L15.400,37.000 L15.800,37.000 L15.800,36.600 L15.800,35.600 L15.800,34.600 L15.800,33.600 L15.800,32.600 L15.800,31.600 L15.800,31.000 L15.800,30.600 L15.800,29.600 L15.800,28.600 L15.800,27.600 L15.800,26.600 L15.800,25.600 L15.800,25.000 L15.800,24.600 L15.800,23.600 L15.800,22.600 L15.800,21.600 L15.800,20.600 L15.800,19.600 L15.800,19.000 L16.200,19.000 L16.200,20.000 L16.200,21.000 L16.200,22.000 L16.200,23.000 L16.200,24.000 L16.200,24.400 L16.200,25.000 L16.200,26.000 L16.200,27.000 L16.200,28.000 L16.200,29.000 L16.200,30.000 L16.200,31.000 L16.200,32.000 L16.200,33.000 L16.200,34.000 L16.200,35.000 L16.200,36.000 L16.200,37.000 L16.600,37.000 L16.600,36.400 L16.600,35.400 L16.600,34.400 L16.600,33.400 L16.600,32.400 L16.600,31.400 L16.600,31.000 L16.600,30.400 L16.600,29.400 L16.600,28.400 L16.600,27.400 L16.600,26.400 L16.600,25.400 L16.600,25.000 L16.600,24.400 L16.600,23.400 L16.600,22.400 L16.600,21.400 L16.600,20.400 L16.600,19.400 L16.600,19.000 L17.000,19.000 L17.000,19.600 L17.000,20.600 L17.000,21.600 L17.000,22.600 L17.000,23.600 L17.000,24.600 L17.000,25.000 L17.000,25.600 L17.000,26.600 L17.000,27.600 L17.000,28.600 L17.000,29.600 L17.000,30.600 L17.000,31.000 L17.000,31.600 L17.000,32.600 L17.000,33.600 L17.000,34.600 L17.000,35.600 L17.000,36.600 L17.000,37.000 L17.400,37.000 L17.400,36.000 L17.400,35.000 L17.400,34.000 L17.400,33.000 L17.400,32.000 L17.400,31.000 L17.400,30.000 L17.400,29.000 L17.400,28.000 L17.400,27.000 L17.400,26.000 L17.400,25.000 L17.400,24.400 L17.400,24.000 L17.400,23.000 L17.400,22.000 L17.400,21.000 L17.400,20.000 L17.400,19.000 L17.800,19.000 L17.800,19.400 L17.800,20.400 L17.800,21.400 L17.800,22.400 L17.800,23.400 L17.800,24.400 L17.800,25.000 L17.800,25.400 L17.800,26.400 L17.800,27.400 L17.800,28.400 L17.800,29.400 L17.800,30.400 L17.800,31.000 L17.800,31.400 L17.800,32.400 L17.800,33.400 L17.800,34.400 L17.800,35.400 L17.800,36.400 L17.800,37.000 L18.200,37.000 L18.200,36.600 L18.200,35.600 L18.200,34.600 L18.200,33.600 L18.200,32.600 L18.200,31.600 L18.200,31.000 L18.200,30.600 L18.200,29.600 L18.200,28.600 L18.200,27.600 L18.200,26.600 L18.200,25.600 L18.200,25.000 L18.200,24.600 L18.200,23.600 L18.200,22.600 L18.200,21.600 L18.200,20.600 L18.200,19.600 L18.200,19.000 L18.600,19.000 L18.600,20.000 L18.600,21.000 L18.600,22.000 L18.600,23.000 L18.600,24.000 L18.600,25.000 L18.600,26.000 L18.600,27.000 L18.600,28.000 L18.600,29.000 L18.600,30.000 L18.600,31.000 L18.600,32.000 L18.600,33.000 L18.600,34.000 L18.600,35.000 L18.600,36.000 L18.600,37.000 L19.600,37.000 L20.600,37.000 L21.400,37.000 L22.400,37.000 L23.400,37.000 L23.400,36.000 L23.400,35.000 L23.400,34.000 L23.400,33.000 L23.400,32.000 L23.400,31.000 L23.400,30.000 L23.400,29.000 L23.400,28.000 L23.400,27.000 L23.400,26.000 L23.400,25.000 L23.400,24.400 L23.400,24.000 L23.400,23.000 L23.400,22.000 L23.400,21.000 L23.400,20.000 L23.400,19.000 L23.400,18.000 L23.400,17.000 L23.400,16.000 L23.400,15.000 L23.400,14.000 L23.400,13.000 L23.400,12.000 L23.400,11.000 L23.400,10.000 L23.400,9.000 L23.400,8.000 L23.400,7.000 L23.400,7.700 L23.400,7.000 L23.400,7.700 L23.400,7.000 M31.000,7.000 L31.000,7.400 L31.000,7.000 L31.000,7.400 L31.000,7.000 L31.000,7.400 L31.000,8.400 L31.000,9.400 L31.000,10.400 L31.000,11.400 L31.000,12.400 L31.000,13.000 L31.400,13.000 L31.400,12.600 L31.400,11.600 L31.400,10.600 L31.400,9.600 L31.400,9.200 L31.400,8.600 L31.400,7.600 L31.400,7.000 L31.400,6.600 L31.400,5.600 L31.400,4.600 L31.400,3.600 L31.400,2.600 L31.400,1.600 L31.400,1.000 L31.800,1.000 L31.800,2.000 L31.800,3.000 L31.800,4.000 L31.800,5.000 L31.800,6.000 L31.800,7.000 L31.800,8.000 L31.800,9.000 L31.800,10.000 L31.800,11.000 L31.800,12.000 L31.800,12.400 L31.800,13.000 L32.200,13.000 L32.200,12.400 L32.200,11.400 L32.200,10.400 L32.200,9.400 L32.200,8.400 L32.200,7.400 L32.200,7.000 L32.200,6.400 L32.200,5.400 L32.200,4.400 L32.200,3.400 L32.200,2.400 L32.200,1.400 L32.200,1.000 L32.600,1.000 L32.600,1.600 L32.600,2.600 L32.600,3.600 L32.600,4.600 L32.600,5.600 L32.600,6.600 L32.600,7.000 L32.600,7.600 L32.600,8.600 L32.600,9.200 L32.600,9.600 L32.600,10.600 L32.600,11.600 L32.600,12.600 L32.600,13.000 L33.000,13.000 L33.000,12.400 L33.000,12.000 L33.000,11.000 L33.000,10.000 L33.000,9.000 L33.000,8.000 L33.000,7.000 L33.000,6.000 L33.000,5.000 L33.000,4.000 L33.000,3.000 L33.000,2.000 L33.000,1.000 L33.400,1.000 L33.400,1.400 L33.400,2.400 L33.400,3.400 L33.400,4.400 L33.400,5.400 L33.400,6.400 L33.400,7.000 L33.400,7.400 L33.400,8.400 L33.400,9.400 L33.400,10.400 L33.400,11.400 L33.400,12.400 L33.400,13.000 L33.800,13.000 L33.800,12.600 L33.800,11.600 L33.800,10.600 L33.800,9.600 L33.800,9.200 L33.800,8.600 L33.800,7.600 L33.800,7.000 L33.800,6.600 L33.800,5.600 L33.800,4.600 L33.800,3.600 L33.800,2.600 L33.800,1.600 L33.800,1.000 L34.200,1.000 L34.200,2.000 L34.200,3.000 L34.200,4.000 L34.200,5.000 L34.200,6.000 L34.200,7.000 L34.200,8.000 L34.200,9.000 L34.200,10.000 L34.200,11.000 L34.200,12.000 L34.200,13.000 L34.600,13.000 L34.600,12.400 L34.600,11.400 L34.600,10.400 L34.600,9.400 L34.600,8.400 L34.600,7.400 L34.600,7.000 L34.600,6.400 L34.600,5.400 L34.600,4.400 L34.600,3.400 L34.600,2.400 L34.600,1.400 L34.600,1.000 L35.000,1.000 L35.000,1.600 L35.000,2.600 L35.000,3.600 L35.000,4.600 L35.000,5.600 L35.000,6.600 L35.000,7.000 L35.000,7.600 L35.000,8.600 L35.000,9.200 L35.000,9.600 L35.000,10.600 L35.000,11.600 L35.000,12.600 L35.000,13.000 L35.400,13.000 L35.400,12.000 L35.400,11.000 L35.400,10.000 L35.400,9.000 L35.400,8.000 L35.400,7.000 L35.400,6.000 L35.400,5.000 L35.400,4.000 L35.400,3.000 L35.400,2.000 L35.400,1.000 L35.800,1.000 L35.800,1.400 L35.800,2.400 L35.800,3.400 L35.800,4.400 L35.800,5.400 L35.800,6.400 L35.800,7.000 L35.800,7.400 L35.800,8.400 L35.800,9.400 L35.800,10.400 L35.800,11.400 L35.800,12.400 L35.800,13.000 L36.200,13.000 L36.200,12.600 L36.200,11.600 L36.200,10.600 L36.200,9.600 L36.200,9.200 L36.200,8.600 L36.200,7.600 L36.200,7.000 L36.200,6.600 L36.200,5.600 L36.200,4.600 L36.200,3.600 L36.200,2.600 L36.200,1.600 L36.200,1.000 L36.600,1.000 L36.600,2.000 L36.600,3.000 L36.600,4.000 L36.600,5.000 L36.600,6.000 L36.600,7.000 L36.600,8.000 L36.600,9.000 L36.600,10.000 L36.600,11.000 L36.600,12.000 L36.600,13.000 L36.600,12.200 L36.800,11.200 L36.800,10.400 L36.800,9.600 L36.800,8.800 L37.000,7.800 L37.000,7.000 L37.000,6.400 L37.000,5.400 L37.000,4.400 L37.000,3.400 L37.000,2.400 L37.000,1.400 L37.000,1.000 L37.000,1.400 L37.000,1.000 L37.000,1.400 L37.000,1.000 M31.000,1.000 L31.000,1.400 L31.000,1.000 L31.000,1.400 L31.000,1.000 L31.000,1.400 L31.000,2.400 L31.000,3.400 L31.000,4.400 L31.000,5.400 L31.000,6.400 L31.000,7.000 L31.000,6.400 L31.000,7.000 L31.000,6.400 L31.000,7.000 M31.000,19.000 L31.000,19.400 L31.000,19.000 L31.000,19.400 L31.000,19.000 L31.000,19.400 L31.000,20.400 L31.000,21.400 L31.000,22.400 L31.000,23.400 L31.000,24.400 L31.000,25.000 L31.000,25.400 L31.000,26.400 L31.000,27.400 L31.000,28.400 L31.000,29.400 L31.000,30.400 L31.000,31.000 L31.000,30.400 L31.000,31.000 L31.000,30.400 L31.000,31.000 M13.000,31.000 L13.000,30.400 L13.000,31.000 L13.000,30.400 L13.000,31.000 L13.000,30.400 L13.000,29.400 L13.000,28.400 L13.000,27.400 L13.000,26.400 L13.000,25.400 L13.000,25.000 L13.000,24.400 L13.000,23.400 L13.000,22.400 L13.000,21.400 L13.000,20.400 L13.000,19.400 L13.000,19.000 L12.200,19.000 L12.200,19.600 L12.200,20.600 L12.200,21.600 L12.200,22.600 L12.200,23.600 L12.200,24.600 L12.200,25.000 L12.200,25.600 L12.200,26.600 L12.200,27.600 L12.200,28.600 L12.200,29.600 L12.200,30.600 L12.200,31.000 L11.800,31.000 L11.800,30.400 L11.800,29.400 L11.800,28.400 L11.800,27.400 L11.800,26.400 L11.800,25.400 L11.800,25.000 L11.800,24.400 L11.800,23.400 L11.800,22.400 L11.800,21.400 L11.800,20.400 L11.800,19.400 L11.800,19.000 L11.800,18.400 L11.800,17.400 L11.800,16.800 L11.800,16.400 L11.800,15.400 L11.800,14.400 L11.800,13.400 L11.800,13.000 L11.800,12.400 L11.800,11.400 L11.800,10.400 L11.800,9.400 L11.800,8.400 L11.800,7.400 L11.800,7.000 L11.800,6.400 L11.800,5.400 L11.800,4.400 L11.800,3.400 L11.800,2.400 L11.800,1.400 L11.800,1.000 L12.200,1.000 L12.200,1.600 L12.200,2.600 L12.200,3.600 L12.200,4.600 L12.200,5.600 L12.200,6.600 L12.200,7.000 L12.200,7.600 L12.200,8.600 L12.200,9.200 L12.200,9.600 L12.200,10.600 L12.200,11.600 L12.200,12.600 L12.200,13.000 L12.200,13.600 L12.200,14.600 L12.200,15.600 L12.200,16.600 L12.200,17.600 L12.200,18.600 L12.200,19.000 L11.400,19.000 L11.400,20.000 L11.400,21.000 L11.400,22.000 L11.400,23.000 L11.400,24.000 L11.400,24.400 L11.400,25.000 L11.400,26.000 L11.400,27.000 L11.400,28.000 L11.400,29.000 L11.400,30.000 L11.400,30.400 L11.400,31.000 L11.000,31.000 L11.000,30.600 L11.000,29.600 L11.000,28.600 L11.000,27.600 L11.000,26.600 L11.000,25.600 L11.000,25.000 L11.000,24.600 L11.000,23.600 L11.000,22.600 L11.000,21.600 L11.000,20.600 L11.000,19.600 L11.000,19.000 L11.000,18.600 L11.000,17.600 L11.000,16.600 L11.000,15.600 L11.000,14.600 L11.000,13.600 L11.000,13.000 L11.000,12.600 L11.000,11.600 L11.000,10.600 L11.000,9.600 L11.000,9.200 L11.000,8.600 L11.000,7.600 L11.000,7.000 L11.000,6.600 L11.000,5.600 L11.000,4.600 L11.000,3.600 L11.000,2.600 L11.000,1.600 L11.000,1.000 L11.400,1.000 L11.400,2.000 L11.400,3.000 L11.400,4.000 L11.400,5.000 L11.400,6.000 L11.400,7.000 L11.400,8.000 L11.400,9.000 L11.400,10.000 L11.400,11.000 L11.400,12.000 L11.400,13.000 L11.400,14.000 L11.400,15.000 L11.400,16.000 L11.400,17.000 L11.400,18.000 L11.400,18.400 L11.400,19.000 L10.600,19.000 L10.600,19.400 L10.600,20.400 L10.600,21.400 L10.600,22.400 L10.600,23.400 L10.600,24.400 L10.600,25.000 L10.600,25.400 L10.600,26.400 L10.600,27.400 L10.600,28.400 L10.600,29.400 L10.600,30.400 L10.600,31.000 L10.200,31.000 L10.200,30.400 L10.200,30.000 L10.200,29.000 L10.200,28.000 L10.200,27.000 L10.200,26.000 L10.200,25.000 L10.200,24.400 L10.200,24.000 L10.200,23.000 L10.200,22.000 L10.200,21.000 L10.200,20.000 L10.200,19.000 L10.200,18.400 L10.200,18.000 L10.200,17.000 L10.200,16.000 L10.200,15.000 L10.200,14.000 L10.200,13.000 L10.200,12.400 L10.200,12.000 L10.200,11.000 L10.200,10.000 L10.200,9.000 L10.200,8.000 L10.200,7.000 L10.200,6.000 L10.200,5.000 L10.200,4.000 L10.200,3.000 L10.200,2.000 L10.200,1.000 L10.600,1.000 L10.600,1.400 L10.600,2.400 L10.600,3.400 L10.600,4.400 L10.600,5.400 L10.600,6.400 L10.600,7.000 L10.600,7.400 L10.600,8.400 L10.600,9.400 L10.600,10.400 L10.600,11.400 L10.600,12.400 L10.600,13.000 L10.600,13.400 L10.600,14.400 L10.600,15.400 L10.600,16.400 L10.600,16.800 L10.600,17.400 L10.600,18.400 L10.600,19.000 L9.800,19.000 L9.800,19.600 L9.800,20.600 L9.800,21.600 L9.800,22.600 L9.800,23.600 L9.800,24.600 L9.800,25.000 L9.800,25.600 L9.800,26.600 L9.800,27.600 L9.800,28.600 L9.800,29.600 L9.800,30.600 L9.800,31.000 L9.400,31.000 L9.400,30.400 L9.400,29.400 L9.400,28.400 L9.400,27.400 L9.400,26.400 L9.400,25.400 L9.400,25.000 L9.400,24.400 L9.400,23.400 L9.400,22.400 L9.400,21.400 L9.400,20.400 L9.400,19.400 L9.400,19.000 L9.400,18.400 L9.400,17.400 L9.400,16.800 L9.400,16.400 L9.400,15.400 L9.400,14.400 L9.400,13.400 L9.400,13.000 L9.400,12.400 L9.400,11.400 L9.400,10.400 L9.400,9.400 L9.400,8.400 L9.400,7.400 L9.400,7.000 L9.400,6.400 L9.400,5.400 L9.400,4.400 L9.400,3.400 L9.400,2.400 L9.400,1.400 L9.400,1.000 L9.800,1.000 L9.800,1.600 L9.800,2.600 L9.800,3.600 L9.800,4.600 L9.800,5.600 L9.800,6.600 L9.800,7.000 L9.800,7.600 L9.800,8.600 L9.800,9.200 L9.800,9.600 L9.800,10.600 L9.800,11.600 L9.800,12.600 L9.800,13.000 L9.800,13.600 L9.800,14.600 L9.800,15.600 L9.800,16.600 L9.800,17.600 L9.800,18.600 L9.800,19.000 L9.000,19.000 L9.000,20.000 L9.000,21.000 L9.000,22.000 L9.000,23.000 L9.000,24.000 L9.000,24.400 L9.000,25.000 L9.000,26.000 L9.000,27.000 L9.000,28.000 L9.000,29.000 L9.000,30.000 L9.000,30.400 L9.000,31.000 L8.600,31.000 L8.600,30.600 L8.600,29.600 L8.600,28.600 L8.600,27.600 L8.600,26.600 L8.600,25.600 L8.600,25.000 L8.600,24.600 L8.600,23.600 L8.600,22.600 L8.600,21.600 L8.600,20.600 L8.600,19.600 L8.600,19.000 L8.600,18.600 L8.600,17.600 L8.600,16.600 L8.600,15.600 L8.600,14.600 L8.600,13.600 L8.600,13.000 L8.600,12.600 L8.600,11.600 L8.600,10.600 L8.600,9.600 L8.600,9.200 L8.600,8.600 L8.600,7.600 L8.600,7.000 L8.600,6.600 L8.600,5.600 L8.600,4.600 L8.600,3.600 L8.600,2.600 L8.600,1.600 L8.600,1.000 L8.200,1.000 L8.200,1.400 L8.200,2.400 L8.200,3.400 L8.200,4.400 L8.200,5.400 L8.200,6.400 L8.200,7.000 L8.200,7.400 L8.200,8.400 L8.200,9.400 L8.200,10.400 L8.200,11.400 L8.200,12.400 L8.200,13.000 L8.200,13.400 L8.200,14.400 L8.200,15.400 L8.200,16.400 L8.200,16.800 L8.200,17.400 L8.200,18.400 L8.200,19.000 L8.200,19.400 L8.200,20.400 L8.200,21.400 L8.200,22.400 L8.200,23.400 L8.200,24.400 L8.200,25.000 L8.200,25.400 L8.200,26.400 L8.200,27.400 L8.200,28.400 L8.200,29.400 L8.200,30.400 L8.200,31.000 L7.800,31.000 L7.800,30.400 L7.800,30.000 L7.800,29.000 L7.800,28.000 L7.800,27.000 L7.800,26.000 L7.800,25.000 L7.800,24.400 L7.800,24.000 L7.800,23.000 L7.800,22.000 L7.800,21.000 L7.800,20.000 L7.800,19.000 L7.800,18.400 L7.800,18.000 L7.800,17.000 L7.800,16.000 L7.800,15.000 L7.800,14.000 L7.800,13.000 L7.800,12.400 L7.800,12.000 L7.800,11.000 L7.800,10.000 L7.800,9.000 L7.800,8.000 L7.800,7.000 L7.800,6.000 L7.800,5.000 L7.800,4.000 L7.800,3.000 L7.800,2.000 L7.800,1.000 L7.400,1.000 L7.400,1.600 L7.400,2.600 L7.400,3.600 L7.400,4.600 L7.400,5.600 L7.400,6.600 L7.400,7.000 L7.400,7.600 L7.400,8.600 L7.400,9.200 L7.400,9.600 L7.400,10.600 L7.400,11.600 L7.400,12.600 L7.400,13.000 L7.400,13.600 L7.400,14.600 L7.400,15.600 L7.400,16.600 L7.400,17.600 L7.400,18.600 L7.400,19.000 L7.400,19.600 L7.400,20.600 L7.400,21.600 L7.400,22.600 L7.400,23.600 L7.400,24.600 L7.400,25.000 L7.400,25.600 L7.400,26.600 L7.400,27.600 L7.400,28.600 L7.400,29.600 L7.400,30.600 L7.400,31.000 L7.000,31.000 L7.000,30.400 L7.000,29.400 L7.000,28.400 L7.000,27.400 L7.000,26.400 L7.000,25.400 L7.000,25.000 L7.000,24.400 L7.000,23.400 L7.000,22.400 L7.000,21.400 L7.000,20.400 L7.000,19.400 L7.000,19.000 L7.000,18.400 L7.000,17.400 L7.000,16.800 L7.000,16.400 L7.000,15.400 L7.000,14.400 L7.000,13.400 L7.000,13.000 L7.000,12.400 L7.000,11.400 L7.000,10.400 L7.000,9.400 L7.000,8.400 L7.000,7.400 L7.000,7.000 L7.000,6.400 L7.000,5.400 L7.000,4.400 L7.000,3.400 L7.000,2.400 L7.000,1.400 L7.000,1.000 M9.000,1.000 L9.000,2.000 L9.000,3.000 L9.000,4.000 L9.000,5.000 L9.000,6.000 L9.000,7.000 L9.000,8.000 L9.000,9.000 L9.000,10.000 L9.000,11.000 L9.000,12.000 L9.000,12.400 L9.000,13.000 L9.000,14.000 L9.000,15.000 L9.000,16.000 L9.000,17.000 L9.000,18.000 L9.000,18.400 L9.000,19.000 L8.200,19.000 L7.400,19.000 L6.600,19.000 L6.600,20.000 L6.600,21.000 L6.600,22.000 L6.600,23.000 L6.600,24.000 L6.600,24.400 L6.600,25.000 L6.200,25.000 L6.200,24.600 L6.200,23.600 L6.200,22.600 L6.200,21.600 L6.200,20.600 L6.200,19.600 L6.200,19.000 L6.200,18.600 L6.200,17.600 L6.200,16.600 L6.200,15.600 L6.200,14.600 L6.200,13.600 L6.200,13.000 L6.200,12.600 L6.200,11.600 L6.200,10.600 L6.200,9.600 L6.200,9.200 L6.200,8.600 L6.200,7.600 L6.200,7.000 L6.600,7.000 L6.600,8.000 L6.600,9.000 L6.600,10.000 L6.600,11.000 L6.600,12.000 L6.600,12.400 L6.600,13.000 L6.600,14.000 L6.600,15.000 L6.600,16.000 L6.600,17.000 L6.600,18.000 L6.600,18.400 L6.600,19.000 L5.800,19.000 L5.800,19.400 L5.800,20.400 L5.800,21.400 L5.800,22.400 L5.800,23.400 L5.800,24.400 L5.800,25.000 L5.400,25.000 L5.400,24.400 L5.400,24.000 L5.400,23.000 L5.400,22.000 L5.400,21.000 L5.400,20.000 L5.400,19.000 L5.400,18.400 L5.400,18.000 L5.400,17.000 L5.400,16.000 L5.400,15.000 L5.400,14.000 L5.400,13.000 L5.400,12.400 L5.400,12.000 L5.400,11.000 L5.400,10.000 L5.400,9.000 L5.400,8.000 L5.400,7.000 L5.800,7.000 L5.800,7.400 L5.800,8.400 L5.800,9.400 L5.800,10.400 L5.800,11.400 L5.800,12.400 L5.800,13.000 L5.800,13.400 L5.800,14.400 L5.800,15.400 L5.800,16.400 L5.800,16.800 L5.800,17.400 L5.800,18.400 L5.800,19.000 L5.000,19.000 L5.000,19.600 L5.000,20.600 L5.000,21.600 L5.000,22.600 L5.000,23.600 L5.000,24.600 L5.000,25.000 L4.600,25.000 L4.600,24.400 L4.600,23.400 L4.600,22.400 L4.600,21.400 L4.600,20.400 L4.600,19.400 L4.600,19.000 L4.600,18.400 L4.600,17.400 L4.600,16.800 L4.600,16.400 L4.600,15.400 L4.600,14.400 L4.600,13.400 L4.600,13.000 L4.600,12.400 L4.600,11.400 L4.600,10.400 L4.600,9.400 L4.600,8.400 L4.600,7.400 L4.600,7.000 L5.000,7.000 L5.000,7.600 L5.000,8.600 L5.000,9.200 L5.000,9.600 L5.000,10.600 L5.000,11.600 L5.000,12.600 L5.000,13.000 L5.000,13.600 L5.000,14.600 L5.000,15.600 L5.000,16.600 L5.000,17.600 L5.000,18.600 L5.000,19.000 L4.200,19.000 L4.200,20.000 L4.200,21.000 L4.200,22.000 L4.200,23.000 L4.200,24.000 L4.200,24.400 L4.200,25.000 L3.800,25.000 L3.800,24.600 L3.800,23.600 L3.800,22.600 L3.800,21.600 L3.800,20.600 L3.800,19.600 L3.800,19.000 L3.800,18.600 L3.800,17.600 L3.800,16.600 L3.800,15.600 L3.800,14.600 L3.800,13.600 L3.800,13.000 L3.800,12.600 L3.800,11.600 L3.800,10.600 L3.800,9.600 L3.800,9.200 L3.800,8.600 L3.800,7.600 L3.800,7.000 L4.200,7.000 L4.200,8.000 L4.200,9.000 L4.200,10.000 L4.200,11.000 L4.200,12.000 L4.200,12.400 L4.200,13.000 L4.200,14.000 L4.200,15.000 L4.200,16.000 L4.200,17.000 L4.200,18.000 L4.200,18.400 L4.200,19.000 L3.400,19.000 L3.400,19.400 L3.400,20.400 L3.400,21.400 L3.400,22.400 L3.400,23.400 L3.400,24.400 L3.400,25.000 L3.000,25.000 L3.000,24.400 L3.000,24.000 L3.000,23.000 L3.000,22.000 L3.000,21.000 L3.000,20.000 L3.000,19.000 L3.000,18.400 L3.000,18.000 L3.000,17.000 L3.000,16.000 L3.000,15.000 L3.000,14.000 L3.000,13.000 L3.000,12.400 L3.000,12.000 L3.000,11.000 L3.000,10.000 L3.000,9.000 L3.000,8.000 L3.000,7.000 L3.400,7.000 L3.400,7.400 L3.400,8.400 L3.400,9.400 L3.400,10.400 L3.400,11.400 L3.400,12.400 L3.400,13.000 L3.400,13.400 L3.400,14.400 L3.400,15.400 L3.400,16.400 L3.400,16.800 L3.400,17.400 L3.400,18.400 L3.400,19.000 L2.600,19.000 L2.600,19.600 L2.600,20.600 L2.600,21.600 L2.600,22.600 L2.600,23.600 L2.600,24.600 L2.600,25.000 L2.200,25.000 L2.200,24.400 L2.200,23.400 L2.200,22.400 L2.200,21.400 L2.200,20.400 L2.200,19.400 L2.200,19.000 L2.200,18.400 L2.200,17.400 L2.200,16.800 L2.200,16.400 L2.200,15.400 L2.200,14.400 L2.200,13.400 L2.200,13.000 L2.200,12.400 L2.200,11.400 L2.200,10.400 L2.200,9.400 L2.200,8.400 L2.200,7.400 L2.200,7.000 L2.600,7.000 L2.600,7.600 L2.600,8.600 L2.600,9.200 L2.600,9.600 L2.600,10.600 L2.600,11.600 L2.600,12.600 L2.600,13.000 L2.600,13.600 L2.600,14.600 L2.600,15.600 L2.600,16.600 L2.600,17.600 L2.600,18.600 L2.600,19.000 L1.800,19.000 L1.800,20.000 L1.800,21.000 L1.800,22.000 L1.800,23.000 L1.800,24.000 L1.800,24.400 L1.800,25.000 L1.400,25.000 L1.400,24.600 L1.400,23.600 L1.400,22.600 L1.400,21.600 L1.400,20.600 L1.400,19.600 L1.400,19.000 L1.400,18.600 L1.400,17.600 L1.400,16.600 L1.400,15.600 L1.400,14.600 L1.400,13.600 L1.400,13.000 L1.400,12.600 L1.400,11.600 L1.400,10.600 L1.400,9.600 L1.400,9.200 L1.400,8.600 L1.400,7.600 L1.400,7.000 L1.800,7.000 L1.800,8.000 L1.800,9.000 L1.800,10.000 L1.800,11.000 L1.800,12.000 L1.800,12.400 L1.800,13.000 L1.800,14.000 L1.800,15.000 L1.800,16.000 L1.800,17.000 L1.800,18.000 L1.800,18.400 L1.800,19.000 L1.000,19.000 L1.000,19.400 L1.000,20.400 L1.000,21.400 L1.000,22.400 L1.000,23.400 L1.000,24.400 L1.000,25.000 L1.000,24.200 L1.000,23.200 L1.000,22.400 L1.000,21.600 L1.000,20.800 L1.000,19.800 L1.000,19.000 L1.000,18.400 L1.000,17.400 L1.000,16.800 L1.000,16.400 L1.000,15.400 L1.000,14.400 L1.000,13.400 L1.000,13.000 L1.000,12.400 L1.000,11.400 L1.000,10.400 L1.000,9.400 L1.000,8.400 L1.000,7.400 L1.000,7.000 L1.000,7.400 L1.000,7.000 L1.000,7.400 L1.000,7.000 M12.600,7.000 L12.600,7.700 L12.600,7.000 L12.600,7.700 L12.600,7.000 L12.600,8.000 L12.600,9.000 L12.600,10.000 L12.600,11.000 L12.600,12.000 L12.600,13.000 L12.600,12.000 L12.600,11.000 L12.600,10.000 L12.600,9.000 L12.600,8.000 L12.600,7.000 L12.600,6.000 L12.600,5.000 L12.600,4.000 L12.600,3.000 L12.600,2.000 L12.600,1.000 L13.000,1.000 L13.000,1.400 L13.000,2.400 L13.000,3.400 L13.000,4.400 L13.000,5.400 L13.000,6.400 L13.000,7.000 L13.000,6.400 L13.000,7.000 L13.000,6.400 L13.000,7.000"/>
</svg>
