<svg xmlns="http://www.w3.org/2000/svg" viewBox="0 -33.8 84 84" width="256" height="256">
  <title>pixelated</title>
  <rect x="0" y="-33.8" width="84" height="84" fill="#f5efe4"/>
  <path fill="none" stroke="#31604f" stroke-width="0.4" stroke-linecap="round" stroke-linejoin="round" d="M1.000,9.000 L1.000,9.000 L1.000,8.476 L1.046,7.954 L1.137,7.439 L1.272,6.933 L1.451,6.440 L1.673,5.966 L1.935,5.512 L2.235,5.083 L2.572,4.682 L2.942,4.311 L3.343,3.975 L3.772,3.674 L4.226,3.412 L4.701,3.191 L5.193,3.012 L5.699,2.876 L6.215,2.785 L6.737,2.740 L7.260,2.740 L7.782,2.785 L8.298,2.876 L8.804,3.012 L9.296,3.191 L9.771,3.412 L10.225,3.674 L10.654,3.975 L11.055,4.311 L11.425,4.682 L11.762,5.083 L12.062,5.512 L12.324,5.966 L12.546,6.440 L12.725,6.933 L12.860,7.439 L12.951,7.954 L12.997,8.476 L12.997,9.000 L12.951,9.522 L12.860,10.038 L12.725,10.544 L12.546,11.036 L12.324,11.511 L12.062,11.964 L11.762,12.393 L11.425,12.794 L11.055,13.165 L10.654,13.502 L10.225,13.802 L9.771,14.064 L9.296,14.285 L8.804,14.464 L8.298,14.600 L7.782,14.691 L7.260,14.737 L6.737,14.737 L6.215,14.691 L5.699,14.600 L5.193,14.464 L4.701,14.285 L4.226,14.064 L3.772,13.802 L3.343,13.502 L2.942,13.165 L2.572,12.794 L2.235,12.393 L1.935,11.964 L1.673,11.511 L1.451,11.036 L1.272,10.544 L1.137,10.038 L1.046,9.522 L1.000,9.000 L1.046,9.522 L1.000,9.000 L1.046,9.522 L1.000,9.000 M15.000,9.000 L15.000,8.300 L15.000,9.000 L15.000,8.300 L15.000,9.000 L15.000,8.200 L15.000,7.400 L15.000,6.600 L15.800,6.600 L15.800,5.800 L16.600,5.000 L16.600,4.200 L17.400,4.200 L17.400,3.400 L18.200,3.400 L19.000,3.400 L19.800,2.600 L20.600,2.600 L21.400,2.600 L22.200,2.600 L23.000,3.400 L23.800,3.400 L24.600,3.400 L24.600,4.200 L25.400,4.200 L25.400,5.000 L26.200,5.800 L26.200,6.600 L27.000,6.600 L27.000,7.400 L27.000,8.200 L27.000,9.000 L27.000,9.800 L27.000,10.600 L26.200,11.400 L26.200,12.200 L25.400,12.200 L25.400,13.000 L24.600,13.800 L23.800,13.800 L23.000,14.600 L22.200,14.600 L21.400,14.600 L20.600,14.600 L19.800,14.600 L19.000,14.600 L18.200,13.800 L17.400,13.800 L16.600,13.000 L16.600,12.200 L15.800,12.200 L15.800,11.400 L15.000,10.600 L15.000,9.800 L15.000,9.000 L15.000,9.700 L15.000,9.000 L15.000,9.700 L15.000,9.000 M29.000,9.000 L28.600,9.000 L29.000,9.000 L28.600,9.000 L29.000,9.000 L28.600,9.000 L28.600,7.400 L30.200,5.800 L30.200,4.200 L31.800,4.200 L33.400,2.600 L35.000,2.600 L36.600,2.600 L38.200,4.200 L39.800,4.200 L39.800,5.800 L41.400,7.400 L41.400,9.000 L41.400,10.600 L39.800,10.600 L39.800,12.200 L39.800,13.800 L38.200,13.800 L36.600,13.800 L35.000,15.400 L33.400,13.800 L31.800,13.800 L30.200,13.800 L30.200,12.200 L30.200,10.600 L28.600,10.600 L28.600,9.000 L28.600,9.700 L28.600,9.000 L28.600,9.700 L28.600,9.000 M43.000,9.000 L43.000,8.300 L43.000,9.000 L43.000,8.300 L43.000,9.000 L43.000,6.600 L45.400,4.200 L47.800,4.200 L47.800,1.800 L50.200,1.800 L50.200,4.200 L52.600,4.200 L55.000,6.600 L55.000,9.000 L55.000,11.400 L52.600,11.400 L52.600,13.800 L50.200,13.800 L47.800,13.800 L45.400,13.800 L45.400,11.400 L43.000,11.400 L43.000,9.000 L43.000,9.700 L43.000,9.000 L43.000,9.700 L43.000,9.000 M57.000,9.000 L56.300,9.000 L57.000,9.000 L56.300,9.000 L57.000,9.000 L55.800,9.000 L55.800,5.800 L59.000,5.800 L59.000,2.600 L62.200,2.600 L65.400,2.600 L68.600,5.800 L68.600,9.000 L68.600,12.200 L65.400,12.200 L65.400,15.400 L62.200,15.400 L59.000,15.400 L59.000,12.200 L55.800,9.000 L56.295,9.495 L55.800,9.000 L56.295,9.495 L55.800,9.000 M71.000,9.000 L71.000,8.300 L71.000,9.000 L71.000,8.300 L71.000,9.000 L71.000,5.000 L75.000,5.000 L75.000,1.000 L79.000,1.000 L79.000,5.000 L83.000,5.000 L83.000,9.000 L83.000,13.000 L79.000,13.000 L75.000,13.000 L71.000,13.000 L71.000,9.000 L71.000,9.700 L71.000,9.000 L71.000,9.700 L71.000,9.000"/>
</svg>
