<svg xmlns="http://www.w3.org/2000/svg" viewBox="0 -12.25 88 88" width="256" height="256">
  <title>preflight-issue-sampler</title>
  <rect x="0" y="-12.25" width="88" height="88" fill="#f4efe6"/>
  <path fill="none" stroke="#d1495b" stroke-width="0.4" stroke-linecap="round" stroke-linejoin="round" d="M1.000,5.500 L1.000,5.500 L1.000,5.000 L1.000,4.500 L1.000,4.000 L1.000,3.500 L1.000,3.000 L1.000,2.500 L1.000,2.000 L1.000,1.500 L1.000,1.000 M39.000,42.500 L39.400,36.900 L39.800,48.100 L40.200,36.900 L40.600,48.100 L41.000,36.900 L41.400,48.100 L41.800,36.900 L42.200,48.100 L42.600,36.900 L43.000,48.100 L43.400,36.900 L43.800,48.100 L44.200,36.900 L44.600,48.100 L45.000,36.900 L45.400,48.100 L45.800,36.900 L46.200,48.100 L46.600,36.900 L47.000,48.100 L47.400,36.900 L47.800,48.100 L48.200,36.900 L48.600,48.100 L49.000,36.900 L49.400,48.100 L49.800,36.900 L50.200,48.100 L50.600,36.900 L51.000,48.100 L51.400,36.900 L51.800,48.100 L52.200,36.900 L52.600,48.100 L53.000,36.900 L53.400,48.100 L53.800,36.900 L54.200,48.100 L54.600,36.900 L55.000,48.100 L55.400,36.900 L55.800,48.100 L56.200,36.900 L56.600,48.100 L57.000,36.900 M6.000,62.500 L6.500,62.500 L7.000,62.500 M56.000,62.500 L56.500,62.500 L57.000,62.500 M86.000,30.500 L86.500,30.500 L87.000,30.500"/>
</svg>
