<svg xmlns="http://www.w3.org/2000/svg" viewBox="0 -10.986 87.973 87.973" width="256" height="256">
  <title>quantized</title>
  <rect x="0" y="-10.986" width="87.973" height="87.973" fill="#f5efe4"/>
  <path fill="none" stroke="#d9a441" stroke-width="0.4" stroke-linecap="round" stroke-linejoin="round" d="M4.127,33.000 L4.127,33.000 L4.973,33.000 L4.973,35.000 L6.973,35.000 L6.973,37.000 L8.973,37.000 L10.973,37.000 L12.973,35.000 L12.973,33.000 L14.973,31.000 L14.973,29.000 L14.973,27.000 L14.973,25.000 L16.973,25.000 L16.973,23.000 L16.973,21.000 L16.973,19.000 L18.973,17.000 L18.973,15.000 L20.973,15.000 L22.973,15.000 L22.973,17.000 L22.973,19.000 L24.973,19.000 L24.973,21.000 L24.973,23.000 L24.973,25.000 L24.973,27.000 L26.973,29.000 L26.973,31.000 L26.973,33.000 L26.973,35.000 L26.973,37.000 L28.973,39.000 L28.973,41.000 L28.973,43.000 L28.973,45.000 L28.973,47.000 L28.973,49.000 L30.973,51.000 L30.973,53.000 L30.973,55.000 L30.973,57.000 L30.973,59.000 L32.973,59.000 L32.973,61.000 L34.973,61.000 L34.973,59.000 L36.973,59.000 L36.973,57.000 L36.973,55.000 L36.973,53.000 L36.973,51.000 L38.973,51.000 L38.973,49.000 L38.973,47.000 L38.973,45.000 L38.973,43.000 L38.973,41.000 L38.973,39.000 L40.973,37.000 L40.973,35.000 L40.973,33.000 L40.973,31.000 L40.973,29.000 L40.973,27.000 L40.973,25.000 L40.973,23.000 L42.973,23.000 L42.973,21.000 L42.973,19.000 L42.973,17.000 L42.973,15.000 L42.973,13.000 L42.973,11.000 L44.973,11.000 L44.973,9.000 L44.973,7.000 L44.973,5.000 L44.973,3.000 L46.973,3.000 L46.973,1.000 L48.973,1.000 L48.973,3.000 L48.973,5.000 L48.973,7.000 L50.973,7.000 L50.973,9.000 L50.973,11.000 L50.973,13.000 L50.973,15.000 L50.973,17.000 L52.973,17.000 L52.973,19.000 L52.973,21.000 L52.973,23.000 L52.973,25.000 L52.973,27.000 L52.973,29.000 L52.973,31.000 L54.973,31.000 L54.973,33.000 L54.973,35.000 L54.973,37.000 L54.973,39.000 L54.973,41.000 L54.973,43.000 L56.973,45.000 L56.973,47.000 L56.973,49.000 L56.973,51.000 L56.973,53.000 L58.973,55.000 L58.973,57.000 L58.973,59.000 L60.973,59.000 L62.973,57.000 L62.973,55.000 L62.973,53.000 L64.973,51.000 L64.973,49.000 L64.973,47.000 L64.973,45.000 L64.973,43.000 L66.973,43.000 L66.973,41.000 L66.973,39.000 L66.973,37.000 L66.973,35.000 L66.973,33.000 L68.973,33.000 L68.973,31.000 L68.973,29.000 L68.973,27.000 L68.973,25.000 L70.973,25.000 L70.973,23.000 L70.973,21.000 L72.973,19.000 L74.973,19.000 L74.973,21.000 L76.973,21.000 L76.973,23.000 L76.973,25.000 L78.973,27.000 L78.973,29.000 L80.973,31.000 L80.973,33.000 L82.973,33.000 L82.973,35.000 L84.973,35.000 L84.973,33.000 L86.973,33.000 L86.273,33.000 L86.973,33.000 L86.273,33.000 L86.973,33.000"/>
  <path fill="none" stroke="#8c4a6b" stroke-width="0.4" stroke-linecap="round" stroke-linejoin="round" d="M2.186,33.000 L2.886,33.000 L2.186,33.000 L2.886,33.000 L2.186,33.000 L2.973,33.000 L2.973,31.000 L4.973,31.000 L4.973,29.000 L6.973,29.000 L6.973,27.000 L8.973,27.000 L8.973,29.000 L10.973,29.000 L10.973,31.000 L10.973,33.000 L10.973,35.000 L12.973,35.000 L12.973,37.000 L12.973,39.000 L12.973,41.000 L12.973,43.000 L14.973,43.000 L14.973,45.000 L14.973,47.000 L16.973,49.000 L16.973,51.000 L18.973,51.000 L18.973,49.000 L18.973,47.000 L18.973,45.000 L20.973,45.000 L20.973,43.000 L20.973,41.000 L20.973,39.000 L20.973,37.000 L20.973,35.000 L22.973,35.000 L22.973,33.000 L22.973,31.000 L22.973,29.000 L22.973,27.000 L22.973,25.000 L22.973,23.000 L24.973,21.000 L24.973,19.000 L24.973,17.000 L24.973,15.000 L24.973,13.000 L24.973,11.000 L26.973,11.000 L26.973,9.000 L26.973,7.000 L28.973,7.000 L28.973,9.000 L28.973,11.000 L30.973,11.000 L30.973,13.000 L30.973,15.000 L30.973,17.000 L30.973,19.000 L30.973,21.000 L30.973,23.000 L32.973,25.000 L32.973,27.000 L32.973,29.000 L32.973,31.000 L32.973,33.000 L32.973,35.000 L32.973,37.000 L32.973,39.000 L34.973,41.000 L34.973,43.000 L34.973,45.000 L34.973,47.000 L34.973,49.000 L34.973,51.000 L34.973,53.000 L34.973,55.000 L36.973,57.000 L36.973,59.000 L36.973,61.000 L36.973,63.000 L38.973,65.000 L38.973,63.000 L40.973,61.000 L40.973,59.000 L40.973,57.000 L40.973,55.000 L40.973,53.000 L40.973,51.000 L42.973,49.000 L42.973,47.000 L42.973,45.000 L42.973,43.000 L42.973,41.000 L42.973,39.000 L42.973,37.000 L42.973,35.000 L42.973,33.000 L44.973,31.000 L44.973,29.000 L44.973,27.000 L44.973,25.000 L44.973,23.000 L44.973,21.000 L44.973,19.000 L44.973,17.000 L44.973,15.000 L46.973,15.000 L46.973,13.000 L46.973,11.000 L46.973,9.000 L46.973,7.000 L46.973,5.000 L48.973,3.000 L50.973,3.000 L50.973,5.000 L50.973,7.000 L50.973,9.000 L50.973,11.000 L52.973,13.000 L52.973,15.000 L52.973,17.000 L52.973,19.000 L52.973,21.000 L52.973,23.000 L52.973,25.000 L52.973,27.000 L54.973,27.000 L54.973,29.000 L54.973,31.000 L54.973,33.000 L54.973,35.000 L54.973,37.000 L54.973,39.000 L54.973,41.000 L54.973,43.000 L56.973,43.000 L56.973,45.000 L56.973,47.000 L56.973,49.000 L56.973,51.000 L56.973,53.000 L58.973,55.000 L58.973,57.000 L58.973,59.000 L60.973,59.000 L60.973,57.000 L60.973,55.000 L62.973,53.000 L62.973,51.000 L62.973,49.000 L62.973,47.000 L62.973,45.000 L62.973,43.000 L64.973,43.000 L64.973,41.000 L64.973,39.000 L64.973,37.000 L64.973,35.000 L64.973,33.000 L64.973,31.000 L66.973,29.000 L66.973,27.000 L66.973,25.000 L66.973,23.000 L66.973,21.000 L68.973,21.000 L68.973,19.000 L68.973,17.000 L70.973,17.000 L70.973,19.000 L72.973,19.000 L72.973,21.000 L72.973,23.000 L72.973,25.000 L74.973,25.000 L74.973,27.000 L74.973,29.000 L74.973,31.000 L76.973,33.000 L76.973,35.000 L76.973,37.000 L78.973,37.000 L80.973,37.000 L82.973,35.000 L82.973,33.000 L84.973,33.000 L84.273,33.000 L84.973,33.000 L84.273,33.000 L84.973,33.000"/>
  <path fill="none" stroke="#2b2b2b" stroke-width="0.4" stroke-linecap="round" stroke-linejoin="round" d="M1.000,33.000 L1.700,33.000 L1.000,33.000 L1.700,33.000 L1.000,33.000 L2.973,33.000 L2.973,31.000 L4.973,31.000 L4.973,29.000 L4.973,27.000 L6.973,27.000 L6.973,25.000 L6.973,27.000 L8.973,27.000 L8.973,29.000 L10.973,31.000 L10.973,33.000 L10.973,35.000 L10.973,37.000 L12.973,39.000 L12.973,41.000 L12.973,43.000 L12.973,45.000 L14.973,47.000 L14.973,49.000 L14.973,51.000 L16.973,49.000 L16.973,47.000 L18.973,45.000 L18.973,43.000 L18.973,41.000 L18.973,39.000 L18.973,37.000 L18.973,35.000 L20.973,33.000 L20.973,31.000 L20.973,29.000 L20.973,27.000 L20.973,25.000 L20.973,23.000 L20.973,21.000 L20.973,19.000 L22.973,19.000 L22.973,17.000 L22.973,15.000 L22.973,13.000 L22.973,11.000 L22.973,9.000 L24.973,9.000 L26.973,9.000 L26.973,11.000 L26.973,13.000 L26.973,15.000 L26.973,17.000 L26.973,19.000 L28.973,21.000 L28.973,23.000 L28.973,25.000 L28.973,27.000 L28.973,29.000 L28.973,31.000 L28.973,33.000 L28.973,35.000 L28.973,37.000 L28.973,39.000 L30.973,39.000 L30.973,41.000 L30.973,43.000 L30.973,45.000 L30.973,47.000 L30.973,49.000 L30.973,51.000 L30.973,53.000 L30.973,55.000 L32.973,57.000 L32.973,59.000 L32.973,61.000 L32.973,63.000 L34.973,63.000 L34.973,61.000 L34.973,59.000 L34.973,57.000 L36.973,57.000 L36.973,55.000 L36.973,53.000 L36.973,51.000 L36.973,49.000 L36.973,47.000 L36.973,45.000 L36.973,43.000 L36.973,41.000 L38.973,39.000 L38.973,37.000 L38.973,35.000 L38.973,33.000 L38.973,31.000 L38.973,29.000 L38.973,27.000 L38.973,25.000 L38.973,23.000 L38.973,21.000 L38.973,19.000 L40.973,19.000 L40.973,17.000 L40.973,15.000 L40.973,13.000 L40.973,11.000 L40.973,9.000 L40.973,7.000 L40.973,5.000 L42.973,3.000 L42.973,1.000 L44.973,3.000 L44.973,5.000 L44.973,7.000 L44.973,9.000 L44.973,11.000 L44.973,13.000 L46.973,15.000 L46.973,17.000 L46.973,19.000 L46.973,21.000 L46.973,23.000 L46.973,25.000 L46.973,27.000 L46.973,29.000 L46.973,31.000 L46.973,33.000 L48.973,35.000 L48.973,37.000 L48.973,39.000 L48.973,41.000 L48.973,43.000 L48.973,45.000 L48.973,47.000 L48.973,49.000 L48.973,51.000 L48.973,53.000 L50.973,53.000 L50.973,55.000 L50.973,57.000 L50.973,59.000 L50.973,61.000 L52.973,63.000 L52.973,61.000 L52.973,59.000 L54.973,57.000 L54.973,55.000 L54.973,53.000 L54.973,51.000 L54.973,49.000 L54.973,47.000 L54.973,45.000 L56.973,43.000 L56.973,41.000 L56.973,39.000 L56.973,37.000 L56.973,35.000 L56.973,33.000 L56.973,31.000 L56.973,29.000 L56.973,27.000 L58.973,27.000 L58.973,25.000 L58.973,23.000 L58.973,21.000 L58.973,19.000 L58.973,17.000 L58.973,15.000 L58.973,13.000 L60.973,13.000 L60.973,11.000 L60.973,9.000 L60.973,11.000 L62.973,11.000 L62.973,13.000 L62.973,15.000 L62.973,17.000 L64.973,17.000 L64.973,19.000 L64.973,21.000 L64.973,23.000 L64.973,25.000 L64.973,27.000 L64.973,29.000 L66.973,31.000 L66.973,33.000 L66.973,35.000 L66.973,37.000 L66.973,39.000 L66.973,41.000 L68.973,41.000 L68.973,43.000 L68.973,45.000 L68.973,47.000 L70.973,47.000 L70.973,45.000 L72.973,45.000 L72.973,43.000 L72.973,41.000 L72.973,39.000 L74.973,39.000 L74.973,37.000 L74.973,35.000 L74.973,33.000 L76.973,31.000 L76.973,29.000 L78.973,29.000 L80.973,29.000 L80.973,31.000 L82.973,33.000 L82.478,32.505 L82.973,33.000 L82.478,32.505 L82.973,33.000"/>
  <path fill="none" stroke="#d9a441" stroke-width="0.4" stroke-linecap="round" stroke-linejoin="round" d="M2.233,33.000 L2.933,33.000 L2.233,33.000 L2.933,33.000 L2.233,33.000 L2.973,33.000 L4.973,33.000 L4.973,35.000 L6.973,35.000 L6.973,37.000 L6.973,39.000 L8.973,39.000 L8.973,41.000 L10.973,41.000 L10.973,39.000 L10.973,37.000 L12.973,37.000 L12.973,35.000 L12.973,33.000 L12.973,31.000 L12.973,29.000 L14.973,27.000 L14.973,25.000 L14.973,23.000 L14.973,21.000 L14.973,19.000 L16.973,19.000 L16.973,17.000 L16.973,15.000 L18.973,15.000 L18.973,17.000 L18.973,19.000 L18.973,21.000 L20.973,21.000 L20.973,23.000 L20.973,25.000 L20.973,27.000 L20.973,29.000 L20.973,31.000 L20.973,33.000 L22.973,35.000 L22.973,37.000 L22.973,39.000 L22.973,41.000 L22.973,43.000 L22.973,45.000 L22.973,47.000 L22.973,49.000 L24.973,51.000 L24.973,53.000 L24.973,55.000 L24.973,57.000 L26.973,59.000 L26.973,57.000 L26.973,55.000 L28.973,53.000 L28.973,51.000 L28.973,49.000 L28.973,47.000 L28.973,45.000 L28.973,43.000 L28.973,41.000 L28.973,39.000 L30.973,39.000 L30.973,37.000 L30.973,35.000 L30.973,33.000 L30.973,31.000 L30.973,29.000 L30.973,27.000 L30.973,25.000 L30.973,23.000 L30.973,21.000 L30.973,19.000 L32.973,19.000 L32.973,17.000 L32.973,15.000 L32.973,13.000 L32.973,11.000 L32.973,9.000 L32.973,7.000 L32.973,5.000 L34.973,5.000 L34.973,3.000 L34.973,5.000 L36.973,5.000 L36.973,7.000 L36.973,9.000 L36.973,11.000 L36.973,13.000 L36.973,15.000 L36.973,17.000 L36.973,19.000 L38.973,19.000 L38.973,21.000 L38.973,23.000 L38.973,25.000 L38.973,27.000 L38.973,29.000 L38.973,31.000 L38.973,33.000 L38.973,35.000 L38.973,37.000 L38.973,39.000 L38.973,41.000 L40.973,41.000 L40.973,43.000 L40.973,45.000 L40.973,47.000 L40.973,49.000 L40.973,51.000 L40.973,53.000 L40.973,55.000 L40.973,57.000 L40.973,59.000 L42.973,59.000 L42.973,61.000 L42.973,63.000 L42.973,65.000 L44.973,65.000 L44.973,63.000 L44.973,61.000 L44.973,59.000 L44.973,57.000 L44.973,55.000 L46.973,55.000 L46.973,53.000 L46.973,51.000 L46.973,49.000 L46.973,47.000 L46.973,45.000 L46.973,43.000 L46.973,41.000 L46.973,39.000 L46.973,37.000 L46.973,35.000 L48.973,33.000 L48.973,31.000 L48.973,29.000 L48.973,27.000 L48.973,25.000 L48.973,23.000 L48.973,21.000 L48.973,19.000 L48.973,17.000 L48.973,15.000 L48.973,13.000 L50.973,13.000 L50.973,11.000 L50.973,9.000 L50.973,7.000 L50.973,5.000 L50.973,3.000 L52.973,3.000 L52.973,5.000 L52.973,7.000 L54.973,9.000 L54.973,11.000 L54.973,13.000 L54.973,15.000 L54.973,17.000 L54.973,19.000 L54.973,21.000 L54.973,23.000 L54.973,25.000 L56.973,25.000 L56.973,27.000 L56.973,29.000 L56.973,31.000 L56.973,33.000 L56.973,35.000 L56.973,37.000 L56.973,39.000 L56.973,41.000 L56.973,43.000 L58.973,45.000 L58.973,47.000 L58.973,49.000 L58.973,51.000 L58.973,53.000 L58.973,55.000 L60.973,57.000 L62.973,55.000 L62.973,53.000 L62.973,51.000 L62.973,49.000 L62.973,47.000 L62.973,45.000 L64.973,45.000 L64.973,43.000 L64.973,41.000 L64.973,39.000 L64.973,37.000 L64.973,35.000 L64.973,33.000 L64.973,31.000 L66.973,29.000 L66.973,27.000 L66.973,25.000 L66.973,23.000 L66.973,21.000 L66.973,19.000 L68.973,19.000 L68.973,17.000 L70.973,17.000 L70.973,19.000 L70.973,21.000 L70.973,23.000 L72.973,23.000 L72.973,25.000 L72.973,27.000 L72.973,29.000 L72.973,31.000 L74.973,31.000 L74.973,33.000 L74.973,35.000 L74.973,37.000 L74.973,39.000 L76.973,39.000 L76.973,41.000 L78.973,41.000 L78.973,39.000 L78.973,37.000 L80.973,37.000 L80.973,35.000 L82.973,33.000 L84.973,33.000 L84.273,33.000 L84.973,33.000 L84.273,33.000 L84.973,33.000"/>
</svg>
