<svg xmlns="http://www.w3.org/2000/svg" viewBox="-18.46 0 44 44" width="256" height="256">
  <title>rail-pair-satin</title>
  <rect x="-18.46" y="0" width="44" height="44" fill="#f5efe4"/>
  <path fill="none" stroke="#c8472f" stroke-width="0.4" stroke-linecap="round" stroke-linejoin="round" d="M3.540,43.000 L3.540,43.000 M3.540,43.000 L3.767,42.600 L3.184,42.199 L4.021,41.798 L2.949,41.393 L4.240,40.987 L2.734,40.580 L4.440,40.171 L2.545,39.761 L4.624,39.351 L2.372,38.939 L4.790,38.527 L2.213,38.113 L4.939,37.699 L2.068,37.285 L5.077,36.870 L1.939,36.455 L5.204,36.040 L1.819,35.623 L5.316,35.207 L1.707,34.790 L5.420,34.373 L1.610,33.955 L5.517,33.538 L1.520,33.120 L5.601,32.701 L1.437,32.283 L5.679,31.865 L1.364,31.446 L5.749,31.027 L1.299,30.608 L5.812,30.189 L1.239,29.770 L5.866,29.350 L1.187,28.931 L5.915,28.511 L1.143,28.091 L5.957,27.672 L1.104,27.252 L5.992,26.832 L1.071,26.412 L6.021,25.992 L1.046,25.572 L6.045,25.152 L1.026,24.732 L6.062,24.311 L1.011,23.891 L6.073,23.471 L1.002,23.051 L6.079,22.630 L1.000,22.210 L6.079,21.790 L1.002,21.370 L6.073,20.950 L1.010,20.529 L6.062,20.109 L1.025,19.689 L6.046,19.269 L1.045,18.849 L6.022,18.429 L1.069,18.009 L5.994,17.589 L1.101,17.169 L5.961,16.749 L1.139,16.329 L5.920,15.909 L1.181,15.490 L5.873,15.070 L1.231,14.651 L5.822,14.231 L1.287,13.812 L5.763,13.393 L1.349,12.974 L5.696,12.555 L1.418,12.136 L5.623,11.718 L1.496,11.299 L5.544,10.881 L1.580,10.463 L5.454,10.045 L1.671,9.627 L5.357,9.210 L1.774,8.793 L5.252,8.376 L1.886,7.960 L5.135,7.544 L2.006,7.128 L5.007,6.713 L2.139,6.299 L4.868,5.884 L2.287,5.471 L4.716,5.058 L2.447,4.646 L4.544,4.235 L2.624,3.824 L4.356,3.416 L2.826,3.009 L4.150,2.601 L3.051,2.199 L3.905,1.797 L3.298,1.396 L3.540,1.000 L3.298,1.396 L3.540,1.000 L3.298,1.396 L3.540,1.000"/>
  <path fill="none" stroke="#31604f" stroke-width="0.4" stroke-linecap="round" stroke-linejoin="round" d="M3.540,43.000 L3.540,42.524 L3.540,43.000 L3.540,42.524 L3.540,43.000 L3.540,42.524 L3.540,42.049 L3.540,41.569 L3.540,41.087 L3.540,40.604 L3.540,40.118 L3.540,39.631 L3.540,39.142 L3.540,38.653 L3.540,38.162 L3.540,37.670 L3.540,37.178 L3.540,36.685 L3.540,36.191 L3.540,35.697 L3.540,35.202 L3.540,34.707 L3.540,34.211 L3.540,33.715 L3.540,33.218 L3.540,32.721 L3.540,32.224 L3.540,31.727 L3.540,31.229 L3.540,30.731 L3.540,30.233 L3.540,29.735 L3.540,29.237 L3.540,28.738 L3.540,28.239 L3.540,27.741 L3.540,27.242 L3.540,26.743 L3.540,26.244 L3.540,25.745 L3.540,25.246 L3.540,24.746 L3.540,24.247 L3.540,23.748 L3.540,23.248 L3.540,22.749 L3.540,22.250 L3.540,21.750 L3.540,21.251 L3.540,20.752 L3.540,20.252 L3.540,19.753 L3.540,19.254 L3.540,18.755 L3.540,18.256 L3.540,17.757 L3.540,17.258 L3.540,16.759 L3.540,16.260 L3.540,15.761 L3.540,15.263 L3.540,14.764 L3.540,14.266 L3.540,13.768 L3.540,13.269 L3.540,12.772 L3.540,12.274 L3.540,11.777 L3.540,11.279 L3.540,10.782 L3.540,10.286 L3.540,9.790 L3.540,9.294 L3.540,8.798 L3.540,8.303 L3.540,7.808 L3.540,7.314 L3.540,6.821 L3.540,6.328 L3.540,5.836 L3.540,5.345 L3.540,4.854 L3.540,4.366 L3.540,3.877 L3.540,3.392 L3.540,2.908 L3.540,2.426 L3.540,1.948 L3.540,1.471 L3.540,1.000 L3.540,1.471 L3.540,1.000 L3.540,1.471 L3.540,1.000"/>
</svg>
