<svg xmlns="http://www.w3.org/2000/svg" viewBox="0 -20.944 78.1 78.1" width="256" height="256">
  <title>runner</title>
  <rect x="0" y="-20.944" width="78.1" height="78.1" fill="#f5efe4"/>
  <path fill="none" stroke="#2b2b2b" stroke-width="0.4" stroke-linecap="round" stroke-linejoin="round" d="M1.000,35.212 L1.000,35.212 L1.248,34.347 L1.000,35.212 L1.248,34.347 L1.496,33.482 L1.248,34.347 L1.496,33.482 M1.551,33.289 L1.799,32.424 L1.551,33.289 L1.799,32.424 L2.047,31.559 L1.799,32.424 L2.047,31.559 M2.103,31.367 L2.351,30.502 L2.103,31.367 L2.351,30.502 L2.599,29.636 L2.351,30.502 L2.599,29.636 M2.654,29.444 L2.902,28.579 L2.654,29.444 L2.902,28.579 L3.150,27.714 L2.902,28.579 L3.150,27.714 M3.205,27.522 L3.481,26.560 L3.205,27.522 L3.481,26.560 L3.606,25.669 L3.481,26.560 L3.606,25.669 L3.731,24.778 L3.606,25.669 L3.731,24.778 M3.759,24.580 L3.884,23.689 L3.759,24.580 L3.884,23.689 L4.010,22.797 L3.884,23.689 L4.010,22.797 M4.037,22.599 L4.177,21.609 L4.037,22.599 L4.177,21.609 L4.514,20.775 L4.177,21.609 L4.514,20.775 L4.851,19.940 L4.514,20.775 L4.851,19.940 M4.926,19.755 L5.263,18.920 L4.926,19.755 L5.263,18.920 L5.600,18.086 L5.263,18.920 L5.600,18.086 M5.675,17.900 L6.012,17.066 L5.675,17.900 L6.012,17.066 L6.349,16.231 L6.012,17.066 L6.349,16.231 M6.424,16.046 L6.761,15.212 L6.424,16.046 L6.761,15.212 L7.099,14.377 L6.761,15.212 L7.099,14.377 M7.173,14.192 L7.511,13.357 L7.173,14.192 L7.511,13.357 L7.848,12.523 L7.511,13.357 L7.848,12.523 M7.923,12.337 L8.260,11.503 L7.923,12.337 L8.260,11.503 L8.597,10.668 L8.260,11.503 L8.597,10.668 M8.672,10.483 L8.859,9.603 L8.672,10.483 L8.859,9.603 L9.046,8.722 L8.859,9.603 L9.046,8.722 M9.088,8.527 L9.275,7.646 L9.088,8.527 L9.275,7.646 L9.462,6.766 L9.275,7.646 L9.462,6.766 M9.504,6.570 L9.691,5.690 L9.504,6.570 L9.691,5.690 L9.878,4.810 L9.691,5.690 L9.878,4.810 M9.919,4.614 L10.197,3.758 L9.919,4.614 L10.197,3.758 L10.476,2.902 L10.197,3.758 L10.476,2.902 M10.537,2.712 L10.816,1.856 L10.537,2.712 L10.816,1.856 L11.094,1.000 L10.816,1.856 L11.094,1.000 L10.877,1.666 L11.094,1.000 L10.877,1.666 L11.094,1.000 M4.500,35.212 L4.693,34.539 L4.500,35.212 L4.693,34.539 L4.500,35.212 L4.736,34.387 L4.500,35.212 L4.736,34.387 L4.973,33.562 L4.736,34.387 L4.973,33.562 M5.051,33.289 L5.288,32.465 L5.051,33.289 L5.288,32.465 L5.524,31.640 L5.288,32.465 L5.524,31.640 M5.603,31.367 L5.839,30.542 L5.603,31.367 L5.839,30.542 L6.076,29.717 L5.839,30.542 L6.076,29.717 M6.154,29.444 L6.390,28.619 L6.154,29.444 L6.390,28.619 L6.627,27.795 L6.390,28.619 L6.627,27.795 M6.705,27.522 L6.981,26.560 L6.705,27.522 L6.981,26.560 L7.100,25.711 L6.981,26.560 L7.100,25.711 L7.220,24.861 L7.100,25.711 L7.220,24.861 M7.259,24.580 L7.378,23.730 L7.259,24.580 L7.378,23.730 L7.498,22.881 L7.378,23.730 L7.498,22.881 M7.537,22.599 L7.677,21.609 L7.537,22.599 L7.677,21.609 L7.998,20.814 L7.677,21.609 L7.998,20.814 L8.319,20.018 L7.998,20.814 L8.319,20.018 M8.426,19.755 L8.747,18.959 L8.426,19.755 L8.747,18.959 L9.069,18.164 L8.747,18.959 L9.069,18.164 M9.175,17.900 L9.496,17.105 L9.175,17.900 L9.496,17.105 L9.818,16.309 L9.496,17.105 L9.818,16.309 M9.924,16.046 L10.246,15.250 L9.924,16.046 L10.246,15.250 L10.567,14.455 L10.246,15.250 L10.567,14.455 M10.673,14.192 L10.995,13.396 L10.673,14.192 L10.995,13.396 L11.316,12.601 L10.995,13.396 L11.316,12.601 M11.423,12.337 L11.744,11.542 L11.423,12.337 L11.744,11.542 L12.065,10.746 L11.744,11.542 L12.065,10.746 M12.172,10.483 L12.350,9.644 L12.172,10.483 L12.350,9.644 L12.529,8.804 L12.350,9.644 L12.529,8.804 M12.588,8.527 L12.766,7.687 L12.588,8.527 L12.766,7.687 L12.944,6.848 L12.766,7.687 L12.944,6.848 M13.004,6.570 L13.182,5.731 L13.004,6.570 L13.182,5.731 L13.360,4.892 L13.182,5.731 L13.360,4.892 M13.419,4.614 L13.684,3.798 L13.419,4.614 L13.684,3.798 L13.950,2.982 L13.684,3.798 L13.950,2.982 M14.037,2.712 L14.303,1.896 L14.037,2.712 L14.303,1.896 L14.568,1.080 L14.303,1.896 L14.568,1.080 L14.351,1.746 L14.568,1.080 L14.351,1.746 L14.568,1.080 M8.000,35.212 L8.193,34.539 L8.000,35.212 L8.193,34.539 L8.000,35.212 L8.225,34.427 L8.000,35.212 L8.225,34.427 L8.450,33.643 L8.225,34.427 L8.450,33.643 M8.551,33.289 L8.776,32.505 L8.551,33.289 L8.776,32.505 L9.001,31.720 L8.776,32.505 L9.001,31.720 M9.103,31.367 L9.327,30.582 L9.103,31.367 L9.327,30.582 L9.552,29.798 L9.327,30.582 L9.552,29.798 M9.654,29.444 L9.879,28.660 L9.654,29.444 L9.879,28.660 L10.104,27.875 L9.879,28.660 L10.104,27.875 M10.205,27.522 L10.481,26.560 L10.205,27.522 L10.481,26.560 L10.594,25.752 L10.481,26.560 L10.594,25.752 L10.708,24.944 L10.594,25.752 L10.708,24.944 M10.759,24.580 L10.873,23.772 L10.759,24.580 L10.873,23.772 L10.986,22.964 L10.873,23.772 L10.986,22.964 M11.037,22.599 L11.177,21.609 L11.037,22.599 L11.177,21.609 L11.482,20.853 L11.177,21.609 L11.482,20.853 L11.788,20.096 L11.482,20.853 L11.788,20.096 M11.926,19.755 L12.231,18.998 L11.926,19.755 L12.231,18.998 L12.537,18.242 L12.231,18.998 L12.537,18.242 M12.675,17.900 L12.981,17.144 L12.675,17.900 L12.981,17.144 L13.286,16.387 L12.981,17.144 L13.286,16.387 M13.424,16.046 L13.730,15.289 L13.424,16.046 L13.730,15.289 L14.036,14.533 L13.730,15.289 L14.036,14.533 M14.173,14.192 L14.479,13.435 L14.173,14.192 L14.479,13.435 L14.785,12.678 L14.479,13.435 L14.785,12.678 M14.923,12.337 L15.228,11.581 L14.923,12.337 L15.228,11.581 L15.534,10.824 L15.228,11.581 L15.534,10.824 M15.672,10.483 L15.842,9.685 L15.672,10.483 L15.842,9.685 L16.011,8.887 L15.842,9.685 L16.011,8.887 M16.088,8.527 L16.257,7.728 L16.088,8.527 L16.257,7.728 L16.427,6.930 L16.257,7.728 L16.427,6.930 M16.504,6.570 L16.673,5.772 L16.504,6.570 L16.673,5.772 L16.843,4.974 L16.673,5.772 L16.843,4.974 M16.919,4.614 L17.172,3.838 L16.919,4.614 L17.172,3.838 L17.424,3.062 L17.172,3.838 L17.424,3.062 M17.537,2.712 L17.790,1.936 L17.537,2.712 L17.790,1.936 L18.042,1.160 L17.790,1.936 L18.042,1.160 L17.825,1.826 L18.042,1.160 L17.825,1.826 L18.042,1.160 M11.500,35.212 L11.693,34.539 L11.500,35.212 L11.693,34.539 L11.500,35.212 L11.713,34.468 L11.500,35.212 L11.713,34.468 L11.927,33.724 L11.713,34.468 L11.927,33.724 M12.051,33.289 L12.265,32.545 L12.051,33.289 L12.265,32.545 L12.478,31.801 L12.265,32.545 L12.478,31.801 M12.603,31.367 L12.816,30.623 L12.603,31.367 L12.816,30.623 L13.029,29.879 L12.816,30.623 L13.029,29.879 M13.154,29.444 L13.367,28.700 L13.154,29.444 L13.367,28.700 L13.581,27.956 L13.367,28.700 L13.581,27.956 M13.705,27.522 L13.981,26.560 L13.705,27.522 L13.981,26.560 L14.088,25.794 L13.981,26.560 L14.088,25.794 L14.196,25.028 L14.088,25.794 L14.196,25.028 M14.259,24.580 L14.367,23.813 L14.259,24.580 L14.367,23.813 L14.475,23.047 L14.367,23.813 L14.475,23.047 M14.537,22.599 L14.677,21.609 L14.537,22.599 L14.677,21.609 L14.967,20.891 L14.677,21.609 L14.967,20.891 L15.256,20.174 L14.967,20.891 L15.256,20.174 M15.426,19.755 L15.716,19.037 L15.426,19.755 L15.716,19.037 L16.006,18.319 L15.716,19.037 L16.006,18.319 M16.175,17.900 L16.465,17.183 L16.175,17.900 L16.465,17.183 L16.755,16.465 L16.465,17.183 L16.755,16.465 M16.924,16.046 L17.214,15.328 L16.924,16.046 L17.214,15.328 L17.504,14.611 L17.214,15.328 L17.504,14.611 M17.673,14.192 L17.963,13.474 L17.673,14.192 L17.963,13.474 L18.253,12.756 L17.963,13.474 L18.253,12.756 M18.423,12.337 L18.713,11.620 L18.423,12.337 L18.713,11.620 L19.003,10.902 L18.713,11.620 L19.003,10.902 M19.172,10.483 L19.333,9.726 L19.172,10.483 L19.333,9.726 L19.494,8.969 L19.333,9.726 L19.494,8.969 M19.588,8.527 L19.749,7.770 L19.588,8.527 L19.749,7.770 L19.910,7.012 L19.749,7.770 L19.910,7.012 M20.004,6.570 L20.164,5.813 L20.004,6.570 L20.164,5.813 L20.325,5.056 L20.164,5.813 L20.325,5.056 M20.419,4.614 L20.659,3.878 L20.419,4.614 L20.659,3.878 L20.898,3.142 L20.659,3.878 L20.898,3.142 M21.037,2.712 L21.277,1.976 L21.037,2.712 L21.277,1.976 L21.516,1.240 L21.277,1.976 L21.516,1.240 L21.299,1.905 L21.516,1.240 L21.299,1.905 L21.516,1.240 M15.000,35.212 L15.193,34.539 L15.000,35.212 L15.193,34.539 L15.000,35.212 L15.404,33.805 L15.000,35.212 L15.404,33.805 M15.551,33.289 L15.955,31.882 L15.551,33.289 L15.955,31.882 M16.103,31.367 L16.506,29.959 L16.103,31.367 L16.506,29.959 M16.654,29.444 L17.057,28.037 L16.654,29.444 L17.057,28.037 M17.205,27.522 L17.481,26.560 L17.205,27.522 L17.481,26.560 L17.684,25.111 L17.481,26.560 L17.684,25.111 M17.759,24.580 L17.963,23.130 L17.759,24.580 L17.963,23.130 M18.037,22.599 L18.177,21.609 L18.037,22.599 L18.177,21.609 L18.725,20.252 L18.177,21.609 L18.725,20.252 M18.926,19.755 L19.474,18.397 L18.926,19.755 L19.474,18.397 M19.675,17.900 L20.223,16.543 L19.675,17.900 L20.223,16.543 M20.424,16.046 L20.973,14.689 L20.424,16.046 L20.973,14.689 M21.173,14.192 L21.722,12.834 L21.173,14.192 L21.722,12.834 M21.923,12.337 L22.471,10.980 L21.923,12.337 L22.471,10.980 M22.672,10.483 L22.976,9.051 L22.672,10.483 L22.976,9.051 M23.088,8.527 L23.392,7.095 L23.088,8.527 L23.392,7.095 M23.504,6.570 L23.808,5.138 L23.504,6.570 L23.808,5.138 M23.919,4.614 L24.372,3.222 L23.919,4.614 L24.372,3.222 M24.537,2.712 L24.990,1.320 L24.537,2.712 L24.990,1.320 L24.773,1.985 L24.990,1.320 L24.773,1.985 L24.990,1.320 M18.500,35.212 L18.693,34.539 L18.500,35.212 L18.693,34.539 L18.500,35.212 L18.880,33.885 L18.500,35.212 L18.880,33.885 M19.051,33.289 L19.432,31.963 L19.051,33.289 L19.432,31.963 M19.603,31.367 L19.983,30.040 L19.603,31.367 L19.983,30.040 M20.154,29.444 L20.534,28.118 L20.154,29.444 L20.534,28.118 M20.705,27.522 L20.981,26.560 L20.705,27.522 L20.981,26.560 L21.173,25.194 L20.981,26.560 L21.173,25.194 M21.259,24.580 L21.451,23.213 L21.259,24.580 L21.451,23.213 M21.537,22.599 L21.677,21.609 L21.537,22.599 L21.677,21.609 L22.194,20.330 L21.677,21.609 L22.194,20.330 M22.426,19.755 L22.943,18.475 L22.426,19.755 L22.943,18.475 M23.175,17.900 L23.692,16.621 L23.175,17.900 L23.692,16.621 M23.924,16.046 L24.441,14.766 L23.924,16.046 L24.441,14.766 M24.673,14.192 L25.190,12.912 L24.673,14.192 L25.190,12.912 M25.423,12.337 L25.940,11.058 L25.423,12.337 L25.940,11.058 M26.172,10.483 L26.459,9.133 L26.172,10.483 L26.459,9.133 M26.588,8.527 L26.875,7.177 L26.588,8.527 L26.875,7.177 M27.004,6.570 L27.290,5.220 L27.004,6.570 L27.290,5.220 M27.419,4.614 L27.846,3.302 L27.419,4.614 L27.846,3.302 M28.037,2.712 L28.464,1.399 L28.037,2.712 L28.464,1.399 L28.248,2.065 L28.464,1.399 L28.248,2.065 L28.464,1.399 M22.000,35.212 L22.193,34.539 L22.000,35.212 L22.193,34.539 L22.000,35.212 L22.357,33.966 L22.000,35.212 L22.357,33.966 M22.551,33.289 L22.909,32.043 L22.551,33.289 L22.909,32.043 M23.103,31.367 L23.460,30.121 L23.103,31.367 L23.460,30.121 M23.654,29.444 L24.011,28.198 L23.654,29.444 L24.011,28.198 M24.205,27.522 L24.481,26.560 L24.205,27.522 L24.481,26.560 L24.661,25.277 L24.481,26.560 L24.661,25.277 M24.759,24.580 L24.939,23.297 L24.759,24.580 L24.939,23.297 M25.037,22.599 L25.177,21.609 L25.037,22.599 L25.177,21.609 L25.662,20.407 L25.177,21.609 L25.662,20.407 M25.926,19.755 L26.411,18.553 L25.926,19.755 L26.411,18.553 M26.675,17.900 L27.161,16.699 L26.675,17.900 L27.161,16.699 M27.424,16.046 L27.910,14.844 L27.424,16.046 L27.910,14.844 M28.173,14.192 L28.659,12.990 L28.173,14.192 L28.659,12.990 M28.923,12.337 L29.408,11.136 L28.923,12.337 L29.408,11.136 M29.672,10.483 L29.941,9.215 L29.672,10.483 L29.941,9.215 M30.088,8.527 L30.357,7.259 L30.088,8.527 L30.357,7.259 M30.504,6.570 L30.773,5.303 L30.504,6.570 L30.773,5.303 M30.919,4.614 L31.320,3.381 L30.919,4.614 L31.320,3.381 M31.537,2.712 L31.938,1.479 L31.537,2.712 L31.938,1.479 L31.722,2.145 L31.938,1.479 L31.722,2.145 L31.938,1.479 M25.500,35.212 L25.693,34.539 L25.500,35.212 L25.693,34.539 L25.500,35.212 L25.834,34.047 L25.500,35.212 L25.834,34.047 M26.051,33.289 L26.385,32.124 L26.051,33.289 L26.385,32.124 M26.603,31.367 L26.937,30.202 L26.603,31.367 L26.937,30.202 M27.154,29.444 L27.488,28.279 L27.154,29.444 L27.488,28.279 M27.705,27.522 L27.981,26.560 L27.705,27.522 L27.981,26.560 L28.149,25.360 L27.981,26.560 L28.149,25.360 M28.259,24.580 L28.428,23.380 L28.259,24.580 L28.428,23.380 M28.537,22.599 L28.677,21.609 L28.537,22.599 L28.677,21.609 L29.131,20.485 L28.677,21.609 L29.131,20.485 M29.426,19.755 L29.880,18.631 L29.426,19.755 L29.880,18.631 M30.175,17.900 L30.629,16.777 L30.175,17.900 L30.629,16.777 M30.924,16.046 L31.378,14.922 L30.924,16.046 L31.378,14.922 M31.673,14.192 L32.127,13.068 L31.673,14.192 L32.127,13.068 M32.423,12.337 L32.877,11.214 L32.423,12.337 L32.877,11.214 M33.172,10.483 L33.424,9.297 L33.172,10.483 L33.424,9.297 M33.588,8.527 L33.840,7.341 L33.588,8.527 L33.840,7.341 M34.004,6.570 L34.256,5.385 L34.004,6.570 L34.256,5.385 M34.419,4.614 L34.794,3.461 L34.419,4.614 L34.794,3.461 M35.037,2.712 L35.412,1.559 L35.037,2.712 L35.412,1.559 L35.196,2.225 L35.412,1.559 L35.196,2.225 L35.412,1.559 M29.000,35.212 L29.193,34.539 L29.000,35.212 L29.193,34.539 L29.000,35.212 L29.311,34.127 L29.000,35.212 L29.311,34.127 M29.551,33.289 L29.862,32.205 L29.551,33.289 L29.862,32.205 M30.103,31.367 L30.413,30.282 L30.103,31.367 L30.413,30.282 M30.654,29.444 L30.965,28.360 L30.654,29.444 L30.965,28.360 M31.205,27.522 L31.481,26.560 L31.205,27.522 L31.481,26.560 L31.638,25.443 L31.481,26.560 L31.638,25.443 M31.759,24.580 L31.916,23.463 L31.759,24.580 L31.916,23.463 M32.037,22.599 L32.177,21.609 L32.037,22.599 L32.177,21.609 L32.599,20.563 L32.177,21.609 L32.599,20.563 M32.926,19.755 L33.348,18.709 L32.926,19.755 L33.348,18.709 M33.675,17.900 L34.098,16.855 L33.675,17.900 L34.098,16.855 M34.424,16.046 L34.847,15.000 L34.424,16.046 L34.847,15.000 M35.173,14.192 L35.596,13.146 L35.173,14.192 L35.596,13.146 M35.923,12.337 L36.345,11.291 L35.923,12.337 L36.345,11.291 M36.672,10.483 L36.906,9.380 L36.672,10.483 L36.906,9.380 M37.088,8.527 L37.322,7.423 L37.088,8.527 L37.322,7.423 M37.504,6.570 L37.738,5.467 L37.504,6.570 L37.738,5.467 M37.919,4.614 L38.268,3.541 L37.919,4.614 L38.268,3.541 M38.537,2.712 L38.886,1.639 L38.537,2.712 L38.886,1.639 L38.670,2.305 L38.886,1.639 L38.670,2.305 L38.886,1.639 M32.500,35.212 L32.693,34.539 L32.500,35.212 L32.693,34.539 L32.500,35.212 L32.788,34.208 L32.500,35.212 L32.788,34.208 M33.051,33.289 L33.339,32.286 L33.051,33.289 L33.339,32.286 M33.603,31.367 L33.890,30.363 L33.603,31.367 L33.890,30.363 M34.154,29.444 L34.442,28.441 L34.154,29.444 L34.442,28.441 M34.705,27.522 L34.981,26.560 L34.705,27.522 L34.981,26.560 L35.126,25.527 L34.981,26.560 L35.126,25.527 M35.259,24.580 L35.404,23.546 L35.259,24.580 L35.404,23.546 M35.537,22.599 L35.677,21.609 L35.537,22.599 L35.677,21.609 L36.068,20.641 L35.677,21.609 L36.068,20.641 M36.426,19.755 L36.817,18.787 L36.426,19.755 L36.817,18.787 M37.175,17.900 L37.566,16.932 L37.175,17.900 L37.566,16.932 M37.924,16.046 L38.315,15.078 L37.924,16.046 L38.315,15.078 M38.673,14.192 L39.065,13.224 L38.673,14.192 L39.065,13.224 M39.423,12.337 L39.814,11.369 L39.423,12.337 L39.814,11.369 M40.172,10.483 L40.389,9.462 L40.172,10.483 L40.389,9.462 M40.588,8.527 L40.805,7.505 L40.588,8.527 L40.805,7.505 M41.004,6.570 L41.221,5.549 L41.004,6.570 L41.221,5.549 M41.419,4.614 L41.742,3.621 L41.419,4.614 L41.742,3.621 M42.037,2.712 L42.360,1.719 L42.037,2.712 L42.360,1.719 L42.144,2.385 L42.360,1.719 L42.144,2.385 L42.360,1.719 M36.000,35.212 L36.193,34.539 L36.000,35.212 L36.193,34.539 L36.000,35.212 L36.265,34.289 L36.000,35.212 L36.265,34.289 M36.551,33.289 L36.816,32.366 L36.551,33.289 L36.816,32.366 M37.103,31.367 L37.367,30.444 L37.103,31.367 L37.367,30.444 M37.654,29.444 L37.918,28.521 L37.654,29.444 L37.918,28.521 M38.205,27.522 L38.470,26.599 L38.205,27.522 L38.470,26.599 M38.481,26.560 L38.614,25.610 L38.481,26.560 L38.614,25.610 M38.759,24.580 L38.893,23.629 L38.759,24.580 L38.893,23.629 M39.037,22.599 L39.171,21.649 L39.037,22.599 L39.171,21.649 M39.177,21.609 L39.536,20.719 L39.177,21.609 L39.536,20.719 M39.926,19.755 L40.285,18.865 L39.926,19.755 L40.285,18.865 M40.675,17.900 L41.035,17.010 L40.675,17.900 L41.035,17.010 M41.424,16.046 L41.784,15.156 L41.424,16.046 L41.784,15.156 M42.173,14.192 L42.533,13.302 L42.173,14.192 L42.533,13.302 M42.923,12.337 L43.282,11.447 L42.923,12.337 L43.282,11.447 M43.672,10.483 L43.871,9.544 L43.672,10.483 L43.871,9.544 M44.088,8.527 L44.287,7.588 L44.088,8.527 L44.287,7.588 M44.504,6.570 L44.703,5.631 L44.504,6.570 L44.703,5.631 M44.919,4.614 L45.216,3.701 L44.919,4.614 L45.216,3.701 M45.537,2.712 L45.834,1.799 L45.537,2.712 L45.834,1.799 L45.618,2.465 L45.834,1.799 L45.618,2.465 L45.834,1.799 M39.500,35.212 L39.693,34.539 L39.500,35.212 L39.693,34.539 L39.500,35.212 L39.741,34.370 L39.500,35.212 L39.741,34.370 M40.051,33.289 L40.293,32.447 L40.051,33.289 L40.293,32.447 M40.603,31.367 L40.844,30.525 L40.603,31.367 L40.844,30.525 M41.154,29.444 L41.395,28.602 L41.154,29.444 L41.395,28.602 M41.705,27.522 L41.947,26.680 L41.705,27.522 L41.947,26.680 M41.981,26.560 L42.103,25.693 L41.981,26.560 L42.103,25.693 M42.259,24.580 L42.381,23.712 L42.259,24.580 L42.381,23.712 M42.537,22.599 L42.659,21.732 L42.537,22.599 L42.659,21.732 M42.677,21.609 L43.005,20.797 L42.677,21.609 L43.005,20.797 M43.426,19.755 L43.754,18.943 L43.426,19.755 L43.754,18.943 M44.175,17.900 L44.503,17.088 L44.175,17.900 L44.503,17.088 M44.924,16.046 L45.252,15.234 L44.924,16.046 L45.252,15.234 M45.673,14.192 L46.002,13.379 L45.673,14.192 L46.002,13.379 M46.423,12.337 L46.751,11.525 L46.423,12.337 L46.751,11.525 M47.172,10.483 L47.354,9.626 L47.172,10.483 L47.354,9.626 M47.588,8.527 L47.770,7.670 L47.588,8.527 L47.770,7.670 M48.004,6.570 L48.186,5.713 L48.004,6.570 L48.186,5.713 M48.419,4.614 L48.690,3.781 L48.419,4.614 L48.690,3.781 M49.037,2.712 L49.308,1.879 L49.037,2.712 L49.308,1.879 L49.092,2.545 L49.308,1.879 L49.092,2.545 L49.308,1.879 M43.000,35.212 L43.193,34.539 L43.000,35.212 L43.193,34.539 L43.000,35.212 L43.218,34.450 L43.000,35.212 L43.218,34.450 M43.551,33.289 L43.770,32.528 L43.551,33.289 L43.770,32.528 M44.103,31.367 L44.321,30.605 L44.103,31.367 L44.321,30.605 M44.654,29.444 L44.872,28.683 L44.654,29.444 L44.872,28.683 M45.205,27.522 L45.423,26.760 L45.205,27.522 L45.423,26.760 M45.481,26.560 L45.591,25.776 L45.481,26.560 L45.591,25.776 M45.759,24.580 L45.869,23.796 L45.759,24.580 L45.869,23.796 M46.037,22.599 L46.148,21.815 L46.037,22.599 L46.148,21.815 M46.177,21.609 L46.473,20.875 L46.177,21.609 L46.473,20.875 M46.926,19.755 L47.223,19.020 L46.926,19.755 L47.223,19.020 M47.675,17.900 L47.972,17.166 L47.675,17.900 L47.972,17.166 M48.424,16.046 L48.721,15.312 L48.424,16.046 L48.721,15.312 M49.173,14.192 L49.470,13.457 L49.173,14.192 L49.470,13.457 M49.923,12.337 L50.219,11.603 L49.923,12.337 L50.219,11.603 M50.672,10.483 L50.837,9.708 L50.672,10.483 L50.837,9.708 M51.088,8.527 L51.252,7.752 L51.088,8.527 L51.252,7.752 M51.504,6.570 L51.668,5.796 L51.504,6.570 L51.668,5.796 M51.919,4.614 L52.164,3.861 L51.919,4.614 L52.164,3.861 M52.537,2.712 L52.782,1.959 L52.537,2.712 L52.782,1.959 L52.566,2.624 L52.782,1.959 L52.566,2.624 L52.782,1.959 M46.500,35.212 L46.693,34.539 L46.500,35.212 L46.693,34.539 L46.500,35.212 L46.695,34.531 L46.500,35.212 L46.695,34.531 M47.051,33.289 L47.246,32.609 L47.051,33.289 L47.246,32.609 M47.603,31.367 L47.798,30.686 L47.603,31.367 L47.798,30.686 M48.154,29.444 L48.349,28.764 L48.154,29.444 L48.349,28.764 M48.705,27.522 L48.900,26.841 L48.705,27.522 L48.900,26.841 M48.981,26.560 L49.079,25.859 L48.981,26.560 L49.079,25.859 M49.259,24.580 L49.358,23.879 L49.259,24.580 L49.358,23.879 M49.537,22.599 L49.636,21.898 L49.537,22.599 L49.636,21.898 M49.677,21.609 L49.942,20.953 L49.677,21.609 L49.942,20.953 M50.426,19.755 L50.691,19.098 L50.426,19.755 L50.691,19.098 M51.175,17.900 L51.440,17.244 L51.175,17.900 L51.440,17.244 M51.924,16.046 L52.189,15.390 L51.924,16.046 L52.189,15.390 M52.673,14.192 L52.939,13.535 L52.673,14.192 L52.939,13.535 M53.423,12.337 L53.688,11.681 L53.423,12.337 L53.688,11.681 M54.172,10.483 L54.319,9.790 L54.172,10.483 L54.319,9.790 M54.588,8.527 L54.735,7.834 L54.588,8.527 L54.735,7.834 M55.004,6.570 L55.151,5.878 L55.004,6.570 L55.151,5.878 M55.419,4.614 L55.638,3.941 L55.419,4.614 L55.638,3.941 M56.037,2.712 L56.256,2.039 L56.037,2.712 L56.256,2.039 L56.040,2.704 L56.256,2.039 L56.040,2.704 L56.256,2.039 M50.000,35.212 L50.172,34.612 L50.000,35.212 L50.172,34.612 L50.000,35.212 L50.172,34.612 L50.000,35.212 L50.172,34.612 M50.551,33.289 L50.723,32.689 L50.551,33.289 L50.723,32.689 M51.103,31.367 L51.275,30.767 L51.103,31.367 L51.275,30.767 M51.654,29.444 L51.826,28.844 L51.654,29.444 L51.826,28.844 M52.205,27.522 L52.377,26.922 L52.205,27.522 L52.377,26.922 M52.481,26.560 L52.568,25.943 L52.481,26.560 L52.568,25.943 M52.759,24.580 L52.846,23.962 L52.759,24.580 L52.846,23.962 M53.037,22.599 L53.124,21.981 L53.037,22.599 L53.124,21.981 M53.177,21.609 L53.410,21.031 L53.177,21.609 L53.410,21.031 M53.926,19.755 L54.160,19.176 L53.926,19.755 L54.160,19.176 M54.675,17.900 L54.909,17.322 L54.675,17.900 L54.909,17.322 M55.424,16.046 L55.658,15.467 L55.424,16.046 L55.658,15.467 M56.173,14.192 L56.407,13.613 L56.173,14.192 L56.407,13.613 M56.923,12.337 L57.156,11.759 L56.923,12.337 L57.156,11.759 M57.672,10.483 L57.802,9.873 L57.672,10.483 L57.802,9.873 M58.088,8.527 L58.217,7.916 L58.088,8.527 L58.217,7.916 M58.504,6.570 L58.633,5.960 L58.504,6.570 L58.633,5.960 M58.919,4.614 L59.112,4.021 L58.919,4.614 L59.112,4.021 M59.537,2.712 L59.730,2.118 L59.537,2.712 L59.730,2.118 L59.537,2.712 L59.730,2.118 L59.537,2.712 L59.730,2.118 M53.500,35.212 L53.649,34.693 L53.500,35.212 L53.649,34.693 L53.500,35.212 L53.649,34.693 L53.500,35.212 L53.649,34.693 M54.051,33.289 L54.200,32.770 L54.051,33.289 L54.200,32.770 M54.603,31.367 L54.751,30.848 L54.603,31.367 L54.751,30.848 M55.154,29.444 L55.303,28.925 L55.154,29.444 L55.303,28.925 M55.705,27.522 L55.854,27.003 L55.705,27.522 L55.854,27.003 M55.981,26.560 L56.056,26.026 L55.981,26.560 L56.056,26.026 M56.259,24.580 L56.334,24.045 L56.259,24.580 L56.334,24.045 M56.537,22.599 L56.613,22.065 L56.537,22.599 L56.613,22.065 M56.677,21.609 L56.879,21.108 L56.677,21.609 L56.879,21.108 M57.426,19.755 L57.628,19.254 L57.426,19.755 L57.628,19.254 M58.175,17.900 L58.377,17.400 L58.175,17.900 L58.377,17.400 M58.924,16.046 L59.127,15.545 L58.924,16.046 L59.127,15.545 M59.673,14.192 L59.876,13.691 L59.673,14.192 L59.876,13.691 M60.423,12.337 L60.625,11.837 L60.423,12.337 L60.625,11.837 M61.172,10.483 L61.284,9.955 L61.172,10.483 L61.284,9.955 M61.588,8.527 L61.700,7.998 L61.588,8.527 L61.700,7.998 M62.004,6.570 L62.116,6.042 L62.004,6.570 L62.116,6.042 M62.419,4.614 L62.586,4.100 L62.419,4.614 L62.586,4.100 M63.037,2.712 L63.204,2.198 L63.037,2.712 L63.204,2.198 L63.037,2.712 L63.204,2.198 L63.037,2.712 L63.204,2.198 M57.000,35.212 L57.126,34.773 L57.000,35.212 L57.126,34.773 L57.000,35.212 L57.126,34.773 L57.000,35.212 L57.126,34.773 M57.551,33.289 L57.677,32.851 L57.551,33.289 L57.677,32.851 M58.103,31.367 L58.228,30.928 L58.103,31.367 L58.228,30.928 M58.654,29.444 L58.780,29.006 L58.654,29.444 L58.780,29.006 M59.205,27.522 L59.331,27.083 L59.205,27.522 L59.331,27.083 M59.481,26.560 L59.544,26.109 L59.481,26.560 L59.544,26.109 M59.759,24.580 L59.823,24.128 L59.759,24.580 L59.823,24.128 M60.037,22.599 L60.101,22.148 L60.037,22.599 L60.101,22.148 M60.177,21.609 L60.347,21.186 L60.177,21.609 L60.347,21.186 M60.926,19.755 L61.097,19.332 L60.926,19.755 L61.097,19.332 M61.675,17.900 L61.846,17.478 L61.675,17.900 L61.846,17.478 M62.424,16.046 L62.595,15.623 L62.424,16.046 L62.595,15.623 M63.173,14.192 L63.344,13.769 L63.173,14.192 L63.344,13.769 M63.923,12.337 L64.093,11.914 L63.923,12.337 L64.093,11.914 M64.672,10.483 L64.767,10.037 L64.672,10.483 L64.767,10.037 M65.088,8.527 L65.183,8.081 L65.088,8.527 L65.183,8.081 M65.504,6.570 L65.598,6.124 L65.504,6.570 L65.598,6.124 M65.919,4.614 L66.060,4.180 L65.919,4.614 L66.060,4.180 M66.537,2.712 L66.678,2.278 L66.537,2.712 L66.678,2.278 L66.537,2.712 L66.678,2.278 L66.537,2.712 L66.678,2.278 M60.500,35.212 L60.603,34.854 L60.500,35.212 L60.603,34.854 L60.500,35.212 L60.603,34.854 L60.500,35.212 L60.603,34.854 M61.051,33.289 L61.154,32.932 L61.051,33.289 L61.154,32.932 M61.603,31.367 L61.705,31.009 L61.603,31.367 L61.705,31.009 M62.154,29.444 L62.256,29.087 L62.154,29.444 L62.256,29.087 M62.705,27.522 L62.808,27.164 L62.705,27.522 L62.808,27.164 M62.981,26.560 L63.033,26.192 L62.981,26.560 L63.033,26.192 M63.259,24.580 L63.311,24.212 L63.259,24.580 L63.311,24.212 M63.537,22.599 L63.589,22.231 L63.537,22.599 L63.589,22.231 M63.677,21.609 L63.816,21.264 L63.677,21.609 L63.816,21.264 M64.426,19.755 L64.565,19.410 L64.426,19.755 L64.565,19.410 M65.175,17.900 L65.314,17.555 L65.175,17.900 L65.314,17.555 M65.924,16.046 L66.064,15.701 L65.924,16.046 L66.064,15.701 M66.673,14.192 L66.813,13.847 L66.673,14.192 L66.813,13.847 M67.423,12.337 L67.562,11.992 L67.423,12.337 L67.562,11.992 M68.172,10.483 L68.249,10.119 L68.172,10.483 L68.249,10.119 M68.588,8.527 L68.665,8.163 L68.588,8.527 L68.665,8.163 M69.004,6.570 L69.081,6.206 L69.004,6.570 L69.081,6.206 M69.419,4.614 L69.534,4.260 L69.419,4.614 L69.534,4.260 M70.037,2.712 L70.152,2.358 L70.037,2.712 L70.152,2.358 L70.037,2.712 L70.152,2.358 L70.037,2.712 L70.152,2.358 M64.000,35.212 L64.079,34.935 L64.000,35.212 L64.079,34.935 L64.000,35.212 L64.079,34.935 L64.000,35.212 L64.079,34.935 M64.551,33.289 L64.631,33.012 L64.551,33.289 L64.631,33.012 M65.103,31.367 L65.182,31.090 L65.103,31.367 L65.182,31.090 M65.654,29.444 L65.733,29.167 L65.654,29.444 L65.733,29.167 M66.205,27.522 L66.284,27.245 L66.205,27.522 L66.284,27.245 M66.481,26.560 L66.521,26.275 L66.481,26.560 L66.521,26.275 M66.759,24.580 L66.799,24.295 L66.759,24.580 L66.799,24.295 M67.037,22.599 L67.078,22.314 L67.037,22.599 L67.078,22.314 M67.177,21.609 L67.284,21.342 L67.177,21.609 L67.284,21.342 M67.926,19.755 L68.034,19.488 L67.926,19.755 L68.034,19.488 M68.675,17.900 L68.783,17.633 L68.675,17.900 L68.783,17.633 M69.424,16.046 L69.532,15.779 L69.424,16.046 L69.532,15.779 M70.173,14.192 L70.281,13.925 L70.173,14.192 L70.281,13.925 M70.923,12.337 L71.031,12.070 L70.923,12.337 L71.031,12.070 M71.672,10.483 L71.732,10.201 L71.672,10.483 L71.732,10.201 M72.088,8.527 L72.148,8.245 L72.088,8.527 L72.148,8.245 M72.504,6.570 L72.563,6.289 L72.504,6.570 L72.563,6.289 M72.919,4.614 L73.008,4.340 L72.919,4.614 L73.008,4.340 M73.537,2.712 L73.626,2.438 L73.537,2.712 L73.626,2.438 L73.537,2.712 L73.626,2.438 L73.537,2.712 L73.626,2.438 M67.500,35.212 L67.556,35.016 L67.500,35.212 L67.556,35.016 L67.500,35.212 L67.556,35.016 L67.500,35.212 L67.556,35.016 M68.051,33.289 L68.108,33.093 L68.051,33.289 L68.108,33.093 M68.603,31.367 L68.659,31.171 L68.603,31.367 L68.659,31.171 M69.154,29.444 L69.210,29.248 L69.154,29.444 L69.210,29.248 M69.705,27.522 L69.761,27.326 L69.705,27.522 L69.761,27.326 M69.981,26.560 L70.009,26.358 L69.981,26.560 L70.009,26.358 M70.259,24.580 L70.287,24.378 L70.259,24.580 L70.287,24.378 M70.537,22.599 L70.566,22.397 L70.537,22.599 L70.566,22.397 M70.677,21.609 L70.753,21.420 L70.677,21.609 L70.753,21.420 M71.426,19.755 L71.502,19.566 L71.426,19.755 L71.502,19.566 M72.175,17.900 L72.251,17.711 L72.175,17.900 L72.251,17.711 M72.924,16.046 L73.001,15.857 L72.924,16.046 L73.001,15.857 M73.673,14.192 L73.750,14.002 L73.673,14.192 L73.750,14.002 M74.423,12.337 L74.499,12.148 L74.423,12.337 L74.499,12.148 M75.172,10.483 L75.214,10.283 L75.172,10.483 L75.214,10.283 M75.588,8.527 L75.630,8.327 L75.588,8.527 L75.630,8.327 M76.004,6.570 L76.046,6.371 L76.004,6.570 L76.046,6.371 M76.419,4.614 L76.482,4.420 L76.419,4.614 L76.482,4.420 M77.037,2.712 L77.100,2.518 L77.037,2.712 L77.100,2.518 L77.037,2.712 L77.100,2.518 L77.037,2.712 L77.100,2.518"/>
</svg>
