<svg xmlns="http://www.w3.org/2000/svg" viewBox="0 -4.5 62 62" width="256" height="256">
  <title>sampler</title>
  <rect x="0" y="-4.5" width="62" height="62" fill="#f5efe4"/>
  <path fill="none" stroke="#c8472f" stroke-width="0.4" stroke-linecap="round" stroke-linejoin="round" d="M1.000,1.000 L1.000,1.000 L3.500,1.000 L6.000,1.000 L8.500,1.000 L11.000,1.000 L13.500,1.000 L16.000,1.000 L18.500,1.000 L21.000,1.000 L23.500,1.000 L26.000,1.000 L28.500,1.000 L31.000,1.000 L33.500,1.000 L36.000,1.000 L38.500,1.000 L41.000,1.000 L43.500,1.000 L46.000,1.000 L48.500,1.000 L51.000,1.000 L53.500,1.000 L56.000,1.000 L58.500,1.000 L61.000,1.000 L60.300,1.000 L61.000,1.000 L60.300,1.000 L61.000,1.000 M1.000,18.000 L1.700,18.000 L1.000,18.000 L1.700,18.000 L1.000,18.000 L3.500,18.000 L1.000,18.000 L3.500,18.000 L6.000,18.000 L3.500,18.000 L6.000,18.000 L8.500,18.000 L6.000,18.000 L8.500,18.000 L11.000,18.000 L8.500,18.000 L11.000,18.000 L13.500,18.000 L11.000,18.000 L13.500,18.000 L16.000,18.000 L13.500,18.000 L16.000,18.000 L18.500,18.000 L16.000,18.000 L18.500,18.000 L21.000,18.000 L18.500,18.000 L21.000,18.000 L23.500,18.000 L21.000,18.000 L23.500,18.000 L26.000,18.000 L23.500,18.000 L26.000,18.000 L28.500,18.000 L26.000,18.000 L28.500,18.000 L31.000,18.000 L28.500,18.000 L31.000,18.000 L33.500,18.000 L31.000,18.000 L33.500,18.000 L36.000,18.000 L33.500,18.000 L36.000,18.000 L38.500,18.000 L36.000,18.000 L38.500,18.000 L41.000,18.000 L38.500,18.000 L41.000,18.000 L43.500,18.000 L41.000,18.000 L43.500,18.000 L46.000,18.000 L43.500,18.000 L46.000,18.000 L48.500,18.000 L46.000,18.000 L48.500,18.000 L51.000,18.000 L48.500,18.000 L51.000,18.000 L53.500,18.000 L51.000,18.000 L53.500,18.000 L56.000,18.000 L53.500,18.000 L56.000,18.000 L58.500,18.000 L56.000,18.000 L58.500,18.000 L61.000,18.000 L58.500,18.000 L61.000,18.000 L60.300,18.000 L61.000,18.000 L60.300,18.000 L61.000,18.000 M1.000,36.000 L1.213,36.667 L1.000,36.000 L1.213,36.667 L1.000,36.000 L1.400,37.250 L1.800,34.750 L2.200,37.250 L2.600,34.750 L3.000,37.250 L3.400,34.750 L3.800,37.250 L4.200,34.750 L4.600,37.250 L5.000,34.750 L5.400,37.250 L5.800,34.750 L6.200,37.250 L6.600,34.750 L7.000,37.250 L7.400,34.750 L7.800,37.250 L8.200,34.750 L8.600,37.250 L9.000,34.750 L9.400,37.250 L9.800,34.750 L10.200,37.250 L10.600,34.750 L11.000,37.250 L11.400,34.750 L11.800,37.250 L12.200,34.750 L12.600,37.250 L13.000,34.750 L13.400,37.250 L13.800,34.750 L14.200,37.250 L14.600,34.750 L15.000,37.250 L15.400,34.750 L15.800,37.250 L16.200,34.750 L16.600,37.250 L17.000,34.750 L17.400,37.250 L17.800,34.750 L18.200,37.250 L18.600,34.750 L19.000,37.250 L19.400,34.750 L19.800,37.250 L20.200,34.750 L20.600,37.250 L21.000,34.750 L21.400,37.250 L21.800,34.750 L22.200,37.250 L22.600,34.750 L23.000,37.250 L23.400,34.750 L23.800,37.250 L24.200,34.750 L24.600,37.250 L25.000,34.750 L25.400,37.250 L25.800,34.750 L26.200,37.250 L26.600,34.750 L27.000,37.250 L27.400,34.750 L27.800,37.250 L28.200,34.750 L28.600,37.250 L29.000,34.750 L29.400,37.250 L29.800,34.750 L30.200,37.250 L30.600,34.750 L31.000,37.250 L31.400,34.750 L31.800,37.250 L32.200,34.750 L32.600,37.250 L33.000,34.750 L33.400,37.250 L33.800,34.750 L34.200,37.250 L34.600,34.750 L35.000,37.250 L35.400,34.750 L35.800,37.250 L36.200,34.750 L36.600,37.250 L37.000,34.750 L37.400,37.250 L37.800,34.750 L38.200,37.250 L38.600,34.750 L39.000,37.250 L39.400,34.750 L39.800,37.250 L40.200,34.750 L40.600,37.250 L41.000,34.750 L41.400,37.250 L41.800,34.750 L42.200,37.250 L42.600,34.750 L43.000,37.250 L43.400,34.750 L43.800,37.250 L44.200,34.750 L44.600,37.250 L45.000,34.750 L45.400,37.250 L45.800,34.750 L46.200,37.250 L46.600,34.750 L47.000,37.250 L47.400,34.750 L47.800,37.250 L48.200,34.750 L48.600,37.250 L49.000,34.750 L49.400,37.250 L49.800,34.750 L50.200,37.250 L50.600,34.750 L51.000,37.250 L51.400,34.750 L51.800,37.250 L52.200,34.750 L52.600,37.250 L53.000,34.750 L53.400,37.250 L53.800,34.750 L54.200,37.250 L54.600,34.750 L55.000,37.250 L55.400,34.750 L55.800,37.250 L56.200,34.750 L56.600,37.250 L57.000,34.750 L57.400,37.250 L57.800,34.750 L58.200,37.250 L58.600,34.750 L59.000,37.250 L59.400,34.750 L59.800,37.250 L60.200,34.750 L60.600,37.250 L61.000,34.750 L60.889,35.441 L61.000,34.750 L60.889,35.441 L61.000,34.750 M1.000,52.000 L1.700,52.000 L1.000,52.000 L1.700,52.000 L1.000,52.000 L3.500,52.000 L3.500,48.000 L3.500,52.000 L6.000,52.000 L6.000,48.000 L6.000,52.000 L8.500,52.000 L8.500,48.000 L8.500,52.000 L11.000,52.000 L11.000,48.000 L11.000,52.000 L13.500,52.000 L13.500,48.000 L13.500,52.000 L16.000,52.000 L16.000,48.000 L16.000,52.000 L18.500,52.000 L18.500,48.000 L18.500,52.000 L21.000,52.000 L21.000,48.000 L21.000,52.000 L23.500,52.000 L23.500,48.000 L23.500,52.000 L26.000,52.000 L26.000,48.000 L26.000,52.000 L28.500,52.000 L28.500,48.000 L28.500,52.000 L31.000,52.000 L31.000,48.000 L31.000,52.000 L33.500,52.000 L33.500,48.000 L33.500,52.000 L36.000,52.000 L36.000,48.000 L36.000,52.000 L38.500,52.000 L38.500,48.000 L38.500,52.000 L41.000,52.000 L41.000,48.000 L41.000,52.000 L43.500,52.000 L43.500,48.000 L43.500,52.000 L46.000,52.000 L46.000,48.000 L46.000,52.000 L48.500,52.000 L48.500,48.000 L48.500,52.000 L51.000,52.000 L51.000,48.000 L51.000,52.000 L53.500,52.000 L53.500,48.000 L53.500,52.000 L56.000,52.000 L56.000,48.000 L56.000,52.000 L58.500,52.000 L58.500,48.000 L58.500,52.000 L61.000,52.000 L61.000,48.000 L61.000,52.000 L61.000,51.300 L61.000,52.000 L61.000,51.300 L61.000,52.000"/>
</svg>
