<svg xmlns="http://www.w3.org/2000/svg" viewBox="0 -0.05 74.1 74.1" width="256" height="256">
  <title>satin-cap-corner-sampler</title>
  <rect x="0" y="-0.05" width="74.1" height="74.1" fill="#f4efe6"/>
  <path fill="none" stroke="#315f72" stroke-width="0.4" stroke-linecap="round" stroke-linejoin="round" d="M8.100,21.000 L8.100,21.000 M8.100,21.000 L10.200,20.600 L6.000,20.200 L10.200,19.800 L6.000,19.400 L10.200,19.000 L6.000,18.600 L10.200,18.200 L6.000,17.800 L10.200,17.400 L6.000,17.000 L10.200,16.600 L6.000,16.200 L10.200,15.800 L6.000,15.400 L10.200,15.000 L6.000,14.600 L10.200,14.200 L6.000,13.800 L10.200,13.400 L6.000,13.000 L10.200,12.600 L6.000,12.200 L10.200,11.800 L6.000,11.400 L10.200,11.000 L6.000,10.600 L10.200,10.200 L6.000,9.800 L10.200,9.400 L6.000,9.000 L10.200,8.600 L6.000,8.200 L10.200,7.800 L6.000,7.400 L10.200,7.000 L6.000,6.600 L10.200,6.200 L6.000,5.800 L10.200,5.400 L6.000,5.000 L10.200,4.600 L6.000,4.200 L10.200,3.800 L6.000,3.400 L10.200,3.000 L6.000,2.600 L10.200,2.200 L6.000,1.800 L10.200,1.400 L6.000,1.000 L6.697,1.066 L6.000,1.000 L6.697,1.066 L6.000,1.000 M28.100,21.000 L28.100,20.300 L28.100,21.000 L28.100,20.300 L28.100,21.000 M28.100,18.500 L28.733,20.600 L27.194,20.200 L29.365,19.800 L26.465,19.400 L30.036,19.000 L26.007,18.600 L30.200,18.200 L26.000,17.800 L30.200,17.400 L26.000,17.000 L30.200,16.600 L26.000,16.200 L30.200,15.800 L26.000,15.400 L30.200,15.000 L26.000,14.600 L30.200,14.200 L26.000,13.800 L30.200,13.400 L26.000,13.000 L30.200,12.600 L26.000,12.200 L30.200,11.800 L26.000,11.400 L30.200,11.000 L26.000,10.600 L30.200,10.200 L26.000,9.800 L30.200,9.400 L26.000,9.000 L30.200,8.600 L26.000,8.200 L30.200,7.800 L26.000,7.400 L30.200,7.000 L26.000,6.600 L30.200,6.200 L26.000,5.800 L30.200,5.400 L26.000,5.000 L30.200,4.600 L26.000,4.200 L30.200,3.800 L26.007,3.400 L30.036,3.000 L26.465,2.600 L29.365,2.200 L27.194,1.800 L28.733,1.400 L27.575,1.000 L28.237,1.229 L27.575,1.000 L28.237,1.229 L27.575,1.000 M48.100,21.000 L48.100,20.300 L48.100,21.000 L48.100,20.300 L48.100,21.000 M48.100,18.500 L48.100,21.000 L48.244,20.600 L47.593,20.200 L49.087,19.800 L46.621,19.400 L49.982,19.000 L46.010,18.600 L50.200,18.200 L46.000,17.800 L50.200,17.400 L46.000,17.000 L50.200,16.600 L46.000,16.200 L50.200,15.800 L46.000,15.400 L50.200,15.000 L46.000,14.600 L50.200,14.200 L46.000,13.800 L50.200,13.400 L46.000,13.000 L50.200,12.600 L46.000,12.200 L50.200,11.800 L46.000,11.400 L50.200,11.000 L46.000,10.600 L50.200,10.200 L46.000,9.800 L50.200,9.400 L46.000,9.000 L50.200,8.600 L46.000,8.200 L50.200,7.800 L46.000,7.400 L50.200,7.000 L46.000,6.600 L50.200,6.200 L46.000,5.800 L50.200,5.400 L46.000,5.000 L50.200,4.600 L46.000,4.200 L50.200,3.800 L46.010,3.400 L49.982,3.000 L46.621,2.600 L49.087,2.200 L47.593,1.800 L48.244,1.400 L48.100,1.000 L48.244,1.400 L48.100,1.000 L48.244,1.400 L48.100,1.000 M68.100,21.000 L68.100,20.300 L68.100,21.000 L68.100,20.300 L68.100,21.000 M68.100,18.900 L68.100,21.000 L69.333,20.600 L66.451,20.200 L69.997,19.800 L66.060,19.400 L70.198,19.000 L66.000,18.600 L70.200,18.200 L66.000,17.800 L70.200,17.400 L66.000,17.000 L70.200,16.600 L66.000,16.200 L70.200,15.800 L66.000,15.400 L70.200,15.000 L66.000,14.600 L70.200,14.200 L66.000,13.800 L70.200,13.400 L66.000,13.000 L70.200,12.600 L66.000,12.200 L70.200,11.800 L66.000,11.400 L70.200,11.000 L66.000,10.600 L70.200,10.200 L66.000,9.800 L70.200,9.400 L66.000,9.000 L70.200,8.600 L66.000,8.200 L70.200,7.800 L66.000,7.400 L70.200,7.000 L66.000,6.600 L70.200,6.200 L66.000,5.800 L70.200,5.400 L66.000,5.000 L70.200,4.600 L66.000,4.200 L70.200,3.800 L66.000,3.400 L70.198,3.000 L66.060,2.600 L69.997,2.200 L66.451,1.800 L69.333,1.400 L68.100,1.000 L68.766,1.216 L68.100,1.000 L68.766,1.216 L68.100,1.000"/>
  <path fill="none" stroke="#d1495b" stroke-width="0.4" stroke-linecap="round" stroke-linejoin="round" d="M3.100,73.000 L3.100,72.300 L3.100,73.000 L3.100,72.300 L3.100,73.000 M3.100,73.000 L5.200,72.600 L1.000,72.200 L5.200,71.800 L1.000,71.400 L5.200,71.000 L1.000,70.600 L5.200,70.200 L1.000,69.800 L5.200,69.400 L1.000,69.000 L5.200,68.600 L1.000,68.200 L5.200,67.800 L1.000,67.400 L5.200,67.000 L1.000,66.600 L5.200,66.200 L1.000,65.800 L5.200,65.400 L1.000,65.000 L5.200,64.600 L1.000,64.200 L5.200,63.800 L1.000,63.400 L4.360,63.000 L3.500,60.900 L3.900,63.756 L4.300,60.900 L4.700,64.260 L5.100,60.900 L5.500,63.756 L5.900,60.900 L6.300,65.100 L6.700,60.900 L7.100,64.260 L7.500,60.900 L7.900,65.100 L8.300,60.900 L8.700,64.260 L9.100,60.900 L9.500,65.100 L9.900,60.900 L10.300,64.260 L10.700,60.900 L11.100,65.100 L11.500,60.900 L11.900,64.260 L12.300,60.900 L12.700,65.100 L13.100,60.900 L13.034,61.597 L13.100,60.900 L13.034,61.597 L13.100,60.900 M23.100,73.000 L23.100,72.300 L23.100,73.000 L23.100,72.300 L23.100,73.000 M23.100,73.000 L25.200,72.600 L21.000,72.200 L25.200,71.800 L21.000,71.400 L25.200,71.000 L21.000,70.600 L25.200,70.200 L21.000,69.800 L25.200,69.400 L21.000,69.000 L25.200,68.600 L21.000,68.200 L25.200,67.800 L21.000,67.400 L25.200,67.000 L21.000,66.600 L25.200,66.200 L21.004,62.877 L21.050,62.542 L21.184,62.141 L24.360,63.800 L21.440,61.714 L24.360,63.000 L21.814,61.340 L22.241,61.084 L22.642,60.950 L22.977,60.904 L26.300,65.100 L26.700,60.900 L27.100,64.260 L27.500,60.900 L27.900,65.100 L28.300,60.900 L28.700,64.260 L29.100,60.900 L29.500,65.100 L29.900,60.900 L30.300,64.260 L30.700,60.900 L31.100,65.100 L31.500,60.900 L31.900,64.260 L32.300,60.900 L32.700,65.100 L33.100,60.900 L33.034,61.597 L33.100,60.900 L33.034,61.597 L33.100,60.900 M43.100,73.000 L43.100,72.300 L43.100,73.000 L43.100,72.300 L43.100,73.000 M43.100,73.000 L45.200,72.600 L41.000,72.200 L45.200,71.800 L41.000,71.400 L45.200,71.000 L41.000,70.600 L45.200,70.200 L41.000,69.800 L45.200,69.400 L41.000,69.000 L45.200,68.600 L41.000,68.200 L45.200,67.800 L41.000,67.400 L45.200,67.000 L41.000,66.600 L45.200,66.200 L41.000,65.800 L45.200,65.400 L41.000,65.000 L45.200,64.600 L41.000,64.200 L45.200,65.600 L41.000,61.400 L45.700,65.100 L41.500,60.900 L44.300,60.900 L44.700,65.100 L45.100,60.900 L45.500,64.260 L45.900,60.900 L46.300,65.100 L46.700,60.900 L47.100,64.260 L47.500,60.900 L47.900,65.100 L48.300,60.900 L48.700,64.260 L49.100,60.900 L49.500,65.100 L49.900,60.900 L50.300,64.260 L50.700,60.900 L51.100,65.100 L51.500,60.900 L51.900,64.260 L52.300,60.900 L52.700,65.100 L53.100,60.900 L53.034,61.597 L53.100,60.900 L53.034,61.597 L53.100,60.900 M63.100,73.000 L63.100,72.300 L63.100,73.000 L63.100,72.300 L63.100,73.000 M63.100,73.000 L65.200,72.600 L61.000,72.200 L65.200,71.800 L61.000,71.400 L65.200,71.000 L61.000,70.600 L65.200,70.200 L61.000,69.800 L65.200,69.400 L61.000,69.000 L65.200,68.600 L61.000,68.200 L65.200,67.800 L61.000,67.400 L65.200,67.000 L61.000,66.600 L65.200,66.200 L61.000,65.800 L65.200,65.400 L61.000,65.000 L65.200,64.600 L61.000,64.200 L65.200,62.500 L61.000,62.500 L62.600,65.100 L62.600,60.900 L64.300,60.900 L64.700,65.100 L65.100,60.900 L65.500,64.260 L65.900,60.900 L66.300,65.100 L66.700,60.900 L67.100,64.260 L67.500,60.900 L67.900,65.100 L68.300,60.900 L68.700,64.260 L69.100,60.900 L69.500,65.100 L69.900,60.900 L70.300,64.260 L70.700,60.900 L71.100,65.100 L71.500,60.900 L71.900,64.260 L72.300,60.900 L72.700,65.100 L73.100,60.900 L73.034,61.597 L73.100,60.900 L73.034,61.597 L73.100,60.900"/>
</svg>
