<svg xmlns="http://www.w3.org/2000/svg" viewBox="-0.019 0 94.196 94.196" width="256" height="256">
  <title>shatter</title>
  <rect x="-0.019" y="0" width="94.196" height="94.196" fill="#f5efe4"/>
  <path fill="none" stroke="#31604f" stroke-width="0.4" stroke-linecap="round" stroke-linejoin="round" d="M47.088,47.112 L46.946,46.427 L47.088,47.112 L46.946,46.427 L47.088,47.112 L46.597,44.734 L46.106,42.355 L45.615,39.977 L45.124,37.598 L44.634,35.220 L44.143,32.842 L43.652,30.463 L43.161,28.085 L42.670,25.706 L42.179,23.328 L41.689,20.949 L42.659,18.975 L42.140,16.837 L40.331,15.585 L38.338,14.654 L36.344,13.724 L34.351,12.793 L32.165,12.542 L30.387,13.838 L28.610,15.134 L27.915,17.222 L29.078,19.089 L30.241,20.957 L31.404,22.824 L32.789,24.533 L34.727,25.092 L36.467,24.057 L38.208,23.021 L39.948,21.985 L41.689,20.949 L41.087,21.307 L41.689,20.949 L41.087,21.307 L41.689,20.949 M42.319,20.645 L41.689,20.949 L42.319,20.645 L41.689,20.949 L43.778,19.941 L45.867,18.932 L47.956,17.923 L50.045,16.915 L52.135,15.906 L53.305,14.044 L54.476,12.181 L55.137,10.083 L53.743,8.381 L52.349,6.679 L50.227,6.098 L48.028,6.049 L45.828,6.000 L44.310,7.592 L44.063,9.779 L43.817,11.965 L43.570,14.151 L43.908,16.325 L44.453,17.338 L46.373,16.980 L48.294,16.622 L50.214,16.264 L52.135,15.906 L51.446,16.035 L52.135,15.906 L51.446,16.035 L52.135,15.906 M52.473,16.519 L52.135,15.906 L52.473,16.519 L52.135,15.906 L53.285,17.991 L54.435,20.076 L55.585,22.161 L56.735,24.246 L55.495,22.429 L54.255,20.612 L53.015,18.794 L50.982,17.952 L48.819,18.356 L46.657,18.759 L44.518,19.273 L43.548,21.247 L44.612,23.173 L45.887,24.966 L47.162,26.759 L48.437,28.552 L49.799,30.279 L51.935,30.614 L53.135,29.022 L54.335,27.430 L55.535,25.838 L56.735,24.246 L56.313,24.805 L56.735,24.246 L56.313,24.805 L56.735,24.246 M56.319,23.683 L56.735,24.246 L56.319,23.683 L56.735,24.246 L55.337,22.355 L53.939,20.464 L52.541,18.573 L51.143,16.681 L49.745,14.790 L48.347,12.899 L46.949,11.008 L45.551,9.117 L44.153,7.225 L42.755,5.334 L41.341,3.648 L39.928,1.962 L37.728,1.985 L35.586,2.484 L34.403,4.339 L34.146,6.524 L33.889,8.709 L34.430,10.842 L36.423,11.772 L38.417,12.703 L40.410,13.634 L41.747,14.258 L41.999,12.027 L42.251,9.796 L42.503,7.565 L42.755,5.334 L42.676,6.030 L42.755,5.334 L42.676,6.030 L42.755,5.334 M43.230,5.848 L42.755,5.334 L43.230,5.848 L42.755,5.334 L44.442,7.160 L46.130,8.987 L47.817,10.813 L49.505,12.639 L51.192,14.465 L52.880,16.291 L54.567,18.117 L56.255,19.943 L57.942,21.770 L59.630,23.596 L61.318,25.422 L63.005,27.248 L64.693,29.074 L63.351,27.330 L61.842,25.730 L59.663,25.431 L57.575,26.124 L56.250,27.881 L54.926,29.637 L53.602,31.394 L54.485,33.409 L55.624,35.291 L56.764,37.173 L58.657,38.294 L59.348,38.344 L60.417,36.490 L61.486,34.636 L62.555,32.782 L63.624,30.928 L64.693,29.074 L64.343,29.681 L64.693,29.074 L64.343,29.681 L64.693,29.074 M64.612,29.770 L64.693,29.074 L64.612,29.770 L64.693,29.074 L64.428,31.350 L64.163,33.626 L63.899,35.901 L63.634,38.177 L63.369,40.453 L63.105,42.728 L62.840,45.004 L62.575,47.280 L62.311,49.555 L62.319,47.355 L62.327,45.155 L62.335,42.955 L60.898,41.289 L59.030,40.127 L56.839,40.322 L55.242,41.835 L53.645,43.348 L52.048,44.861 L51.751,47.041 L52.107,49.212 L52.463,51.383 L53.267,53.430 L53.757,53.776 L55.895,52.721 L58.034,51.666 L60.172,50.611 L62.311,49.555 L61.683,49.865 L62.311,49.555 L61.683,49.865 L62.311,49.555 M62.817,49.072 L62.311,49.555 L62.817,49.072 L62.311,49.555 L63.952,47.991 L65.593,46.427 L67.234,44.862 L68.875,43.298 L70.517,41.734 L72.158,40.169 L73.799,38.605 L75.440,37.041 L77.081,35.477 L78.723,33.912 L79.477,31.846 L80.232,29.779 L80.341,27.582 L78.665,26.156 L76.990,24.730 L75.075,25.813 L73.478,27.325 L71.880,28.837 L71.474,31.000 L72.653,32.857 L73.560,34.284 L75.281,34.160 L77.002,34.036 L78.723,33.912 L78.024,33.963 L78.723,33.912 L78.024,33.963 L78.723,33.912 M78.279,33.371 L78.723,33.912 L78.279,33.371 L78.723,33.912 L77.150,31.994 L75.577,30.075 L74.004,28.157 L72.431,26.238 L70.858,24.320 L69.285,22.401 L67.712,20.483 L66.140,18.564 L64.567,16.646 L62.994,14.728 L61.421,12.809 L59.848,10.891 L58.275,8.972 L56.702,7.054 L55.129,5.135 L53.557,3.217 L51.984,1.298 L49.792,1.103 L47.594,1.030 L45.394,1.069 L43.198,1.199 L43.467,3.382 L45.512,4.192 L47.712,4.241 L49.911,4.291 L51.558,4.327 L51.771,2.813 L51.984,1.298 L51.886,1.991 L51.984,1.298 L51.886,1.991 L51.984,1.298 M51.347,1.590 L51.984,1.298 L51.347,1.590 L51.984,1.298 L49.748,2.325 L47.512,3.351 L45.276,4.378 L43.040,5.404 L40.804,6.431 L38.568,7.458 L36.332,8.484 L34.097,9.511 L31.861,10.537 L32.118,8.352 L32.375,6.167 L32.632,3.983 L30.439,4.149 L28.407,4.994 L26.412,5.921 L24.472,6.958 L24.066,9.120 L25.151,11.034 L26.235,12.948 L26.913,14.144 L28.562,12.942 L30.211,11.740 L31.861,10.537 L31.295,10.950 L31.861,10.537 L31.295,10.950 L31.861,10.537 M31.799,11.235 L31.861,10.537 L31.799,11.235 L31.861,10.537 L31.650,12.937 L31.440,15.337 L31.230,17.736 L31.019,20.136 L30.809,22.536 L30.599,24.935 L29.435,23.068 L28.272,21.201 L27.109,19.333 L25.896,17.498 L23.812,18.201 L21.728,18.905 L19.643,19.608 L17.831,20.856 L18.584,22.923 L19.337,24.990 L20.091,27.057 L20.844,29.124 L22.826,30.079 L23.061,30.118 L24.945,28.823 L26.830,27.527 L28.714,26.231 L30.599,24.935 L30.022,25.332 L30.599,24.935 L30.022,25.332 L30.599,24.935 M30.432,25.615 L30.599,24.935 L30.432,25.615 L30.599,24.935 L30.064,27.113 L29.529,29.290 L28.994,31.468 L28.459,33.645 L27.924,35.823 L27.389,38.000 L26.854,40.178 L26.319,42.355 L26.396,40.157 L25.489,38.152 L24.582,36.148 L23.676,34.143 L22.769,32.139 L20.652,31.540 L18.805,32.737 L16.971,33.951 L15.136,35.165 L13.722,36.850 L14.973,38.661 L16.434,40.305 L17.896,41.949 L18.938,43.121 L21.398,42.866 L23.858,42.611 L26.319,42.355 L25.622,42.428 L26.319,42.355 L25.622,42.428 L26.319,42.355 M27.006,42.485 L26.319,42.355 L27.006,42.485 L26.319,42.355 L28.735,42.812 L31.151,43.269 L33.567,43.726 L35.983,44.183 L38.399,44.640 L40.815,45.097 L43.231,45.554 L45.647,46.011 L48.063,46.468 L50.479,46.925 L52.895,47.382 L55.311,47.839 L57.727,48.296 L60.143,48.753 L62.559,49.210 L64.975,49.667 L67.391,50.124 L69.807,50.581 L72.223,51.038 L74.639,51.495 L74.810,49.302 L74.593,47.113 L73.143,45.457 L71.694,43.802 L70.245,42.147 L68.058,42.388 L65.872,42.632 L64.131,43.978 L64.123,46.178 L64.115,48.378 L65.122,50.334 L66.937,51.577 L68.516,52.658 L70.557,52.271 L72.598,51.883 L74.639,51.495 L73.951,51.626 L74.639,51.495 L73.951,51.626 L74.639,51.495 M74.757,50.805 L74.639,51.495 L74.757,50.805 L74.639,51.495 L75.049,49.109 L75.459,46.722 L75.869,44.336 L76.280,41.950 L76.690,39.563 L77.100,37.177 L77.510,34.790 L77.921,32.404 L78.331,30.018 L78.741,27.631 L79.152,25.245 L79.562,22.858 L79.972,20.472 L80.382,18.086 L80.793,15.699 L79.262,14.119 L77.655,12.616 L75.965,11.208 L74.218,9.871 L72.103,10.477 L71.008,12.385 L69.913,14.293 L71.249,16.041 L73.038,17.322 L74.826,18.603 L76.235,19.611 L77.754,18.307 L79.273,17.003 L80.793,15.699 L80.261,16.155 L80.793,15.699 L80.261,16.155 L80.793,15.699 M80.252,15.254 L80.793,15.699 L80.252,15.254 L80.793,15.699 L78.923,14.160 L77.054,12.621 L75.184,11.082 L73.315,9.542 L71.446,8.003 L69.555,6.879 L67.615,5.842 L65.615,4.924 L63.579,4.089 L62.023,5.644 L60.764,7.449 L59.506,9.253 L61.123,10.746 L63.137,11.630 L65.151,12.515 L67.165,13.400 L68.111,13.815 L69.222,11.878 L70.334,9.941 L71.446,8.003 L71.097,8.610 L71.446,8.003 L71.097,8.610 L71.446,8.003 M71.109,8.617 L71.446,8.003 L71.109,8.617 L71.446,8.003 L70.425,9.866 L69.405,11.729 L68.385,13.592 L67.365,15.454 L65.350,14.569 L63.336,13.685 L61.322,12.800 L59.308,11.915 L57.206,11.264 L56.016,13.114 L54.845,14.976 L53.962,16.991 L55.202,18.808 L56.442,20.626 L57.682,22.443 L59.554,23.599 L61.734,23.898 L62.179,23.959 L63.475,21.833 L64.772,19.707 L66.068,17.581 L67.365,15.454 L67.000,16.052 L67.365,15.454 L67.000,16.052 L67.365,15.454 M66.762,15.098 L67.365,15.454 L66.762,15.098 L67.365,15.454 L65.330,14.249 L63.295,13.044 L61.260,11.839 L59.225,10.633 L57.191,9.428 L58.449,7.623 L59.706,5.818 L60.964,4.014 L59.238,2.650 L57.099,2.137 L54.940,1.711 L53.508,3.380 L53.763,5.565 L55.157,7.267 L56.551,8.969 L56.966,9.475 L57.191,9.428 L56.966,9.475 L57.191,9.428 L56.966,9.475 L57.191,9.428 M56.504,9.564 L57.191,9.428 L56.504,9.564 L57.191,9.428 L54.762,9.910 L52.333,10.392 L49.904,10.874 L47.476,11.356 L45.047,11.837 L42.618,12.319 L40.189,12.801 L37.760,13.283 L35.332,13.765 L32.903,14.247 L30.474,14.729 L28.045,15.210 L25.617,15.692 L24.612,13.735 L23.527,11.821 L22.443,9.907 L20.257,9.656 L18.496,10.974 L16.796,12.370 L15.183,13.867 L13.635,15.430 L12.152,17.055 L14.139,18.000 L16.224,18.701 L16.463,18.781 L18.751,18.009 L21.040,17.237 L23.328,16.465 L25.617,15.692 L24.953,15.916 L25.617,15.692 L24.953,15.916 L25.617,15.692 M25.339,16.335 L25.617,15.692 L25.339,16.335 L25.617,15.692 L24.718,17.769 L23.820,19.846 L22.922,21.922 L22.024,23.999 L21.126,26.076 L20.228,28.153 L19.330,30.229 L18.577,28.162 L17.824,26.095 L17.071,24.028 L16.318,21.961 L15.010,20.191 L12.925,19.490 L10.840,18.789 L9.468,20.509 L8.239,22.334 L7.087,24.208 L6.050,26.148 L6.572,28.286 L8.157,29.811 L9.742,31.337 L11.327,32.863 L12.912,34.388 L14.557,33.388 L16.148,32.335 L17.739,31.282 L19.330,30.229 L18.746,30.616 L19.330,30.229 L18.746,30.616 L19.330,30.229 M20.011,30.392 L19.330,30.229 L20.011,30.392 L19.330,30.229 L21.755,30.808 L24.181,31.387 L26.606,31.965 L29.032,32.544 L31.457,33.123 L33.883,33.701 L36.308,34.280 L38.734,34.859 L41.159,35.437 L43.585,36.016 L46.010,36.595 L48.436,37.173 L50.862,37.752 L53.287,38.331 L55.713,38.909 L54.573,37.028 L53.433,35.146 L52.293,33.265 L50.372,32.191 L48.328,33.004 L46.683,34.465 L45.038,35.925 L43.393,37.386 L42.345,39.320 L43.365,41.269 L45.410,42.080 L47.455,42.891 L49.500,43.701 L50.315,44.024 L52.114,42.319 L53.913,40.614 L55.713,38.909 L55.205,39.391 L55.713,38.909 L55.205,39.391 L55.713,38.909 M55.485,39.571 L55.713,38.909 L55.485,39.571 L55.713,38.909 L54.910,41.249 L54.107,43.590 L53.304,45.930 L52.501,48.270 L51.698,50.610 L50.896,52.950 L50.540,50.779 L50.184,48.608 L49.828,46.437 L48.095,45.082 L46.050,44.271 L44.005,43.460 L42.029,44.429 L40.860,46.292 L39.690,48.156 L38.521,50.019 L40.098,51.553 L41.985,52.683 L43.873,53.813 L45.366,54.706 L47.209,54.121 L49.052,53.536 L50.896,52.950 L50.228,53.162 L50.896,52.950 L50.228,53.162 L50.896,52.950 M50.217,52.777 L50.896,52.950 L50.217,52.777 L50.896,52.950 L48.581,52.360 L46.266,51.770 L43.951,51.180 L41.636,50.590 L39.321,50.000 L37.006,49.410 L34.691,48.820 L32.376,48.230 L30.062,47.640 L27.747,47.050 L26.814,45.058 L24.738,44.329 L22.550,44.556 L20.362,44.783 L18.670,46.189 L17.832,48.223 L16.995,50.257 L18.030,52.199 L19.934,53.300 L21.838,54.402 L23.555,55.395 L24.603,53.309 L25.651,51.223 L26.699,49.137 L27.747,47.050 L27.432,47.676 L27.747,47.050 L27.432,47.676 L27.747,47.050 M28.438,46.941 L27.747,47.050 L28.438,46.941 L27.747,47.050 L30.093,46.679 L32.440,46.307 L34.786,45.936 L37.132,45.564 L39.479,45.193 L41.825,44.821 L44.172,44.450 L46.518,44.078 L48.865,43.707 L51.211,43.335 L53.558,42.964 L55.904,42.592 L58.250,42.221 L60.597,41.849 L62.943,41.478 L65.290,41.106 L67.636,40.735 L69.983,40.363 L70.825,38.331 L71.667,36.299 L71.326,34.125 L70.147,32.268 L68.825,30.510 L66.665,30.092 L65.225,31.756 L64.126,33.662 L63.027,35.567 L61.929,37.473 L61.752,39.666 L63.463,41.048 L65.668,40.845 L67.825,40.604 L69.983,40.363 L69.287,40.441 L69.983,40.363 L69.287,40.441 L69.983,40.363 M70.657,40.175 L69.983,40.363 L70.657,40.175 L69.983,40.363 L72.360,39.701 L74.737,39.038 L77.115,38.376 L79.492,37.713 L81.869,37.050 L84.247,36.388 L86.624,35.725 L89.001,35.063 L91.379,34.400 L90.741,32.295 L89.966,30.236 L89.106,28.211 L86.914,28.021 L84.732,28.301 L82.560,28.650 L81.805,30.716 L81.051,32.783 L80.683,34.952 L82.080,36.651 L83.477,38.351 L84.503,39.599 L86.222,38.300 L87.941,37.000 L89.660,35.700 L91.379,34.400 L90.820,34.822 L91.379,34.400 L90.820,34.822 L91.379,34.400 M90.834,34.839 L91.379,34.400 L90.834,34.839 L91.379,34.400 L89.434,35.967 L87.490,37.534 L85.546,39.100 L83.602,40.667 L81.658,42.234 L79.713,43.800 L77.769,45.367 L75.825,46.933 L73.881,48.500 L71.937,50.067 L69.992,51.633 L68.048,53.200 L66.104,54.767 L64.160,56.333 L62.216,57.900 L60.271,59.467 L58.327,61.033 L56.383,62.600 L54.439,64.167 L52.495,65.733 L53.807,63.967 L55.119,62.201 L54.667,60.048 L53.897,57.987 L53.127,55.927 L51.292,54.713 L49.195,55.379 L47.098,56.045 L45.439,57.490 L44.549,59.502 L43.660,61.514 L43.296,63.684 L45.107,64.932 L46.918,66.181 L47.872,66.838 L50.183,66.286 L52.495,65.733 L51.814,65.896 L52.495,65.733 L51.814,65.896 L52.495,65.733 M52.962,65.212 L52.495,65.733 L52.962,65.212 L52.495,65.733 L54.112,63.930 L55.729,62.126 L57.347,60.323 L58.964,58.519 L60.581,56.716 L62.199,54.913 L63.816,53.109 L65.434,51.306 L67.051,49.502 L68.668,47.699 L70.286,45.895 L71.903,44.092 L73.520,42.288 L75.138,40.485 L76.755,38.681 L78.372,36.878 L79.990,35.075 L81.607,33.271 L83.225,31.468 L84.842,29.664 L86.459,27.861 L88.077,26.057 L87.039,24.117 L85.882,22.246 L84.647,20.426 L83.338,18.657 L81.478,17.482 L79.809,18.915 L78.140,20.348 L77.374,22.411 L78.903,23.993 L80.578,25.420 L82.210,26.809 L84.165,26.559 L86.121,26.308 L88.077,26.057 L87.382,26.146 L88.077,26.057 L87.382,26.146 L88.077,26.057 M87.382,26.142 L88.077,26.057 L87.382,26.142 L88.077,26.057 L85.715,26.345 L83.354,26.633 L80.992,26.921 L78.631,27.208 L76.270,27.496 L73.908,27.784 L71.547,28.072 L69.185,28.359 L66.824,28.647 L64.463,28.935 L62.101,29.223 L59.740,29.510 L57.378,29.798 L55.017,30.086 L52.655,30.374 L50.294,30.661 L47.933,30.949 L46.658,29.156 L45.383,27.363 L44.108,25.570 L42.834,23.777 L40.636,23.669 L38.746,24.794 L36.855,25.919 L36.233,28.029 L36.732,30.172 L37.231,32.314 L37.731,34.457 L39.025,36.236 L40.810,37.273 L42.590,35.692 L44.371,34.111 L46.152,32.530 L47.933,30.949 L47.409,31.414 L47.933,30.949 L47.409,31.414 L47.933,30.949 M47.578,31.553 L47.933,30.949 L47.578,31.553 L47.933,30.949 L46.865,32.766 L45.797,34.582 L44.729,36.399 L43.661,38.215 L42.593,40.032 L41.526,41.848 L40.606,39.850 L39.027,38.318 L37.064,37.324 L35.114,38.343 L33.165,39.362 L31.215,40.381 L29.265,41.400 L27.935,43.152 L28.846,45.155 L30.316,46.792 L32.318,47.704 L34.320,48.617 L36.321,49.530 L36.619,49.665 L37.845,47.711 L39.072,45.757 L40.299,43.803 L41.526,41.848 L41.153,42.441 L41.526,41.848 L41.153,42.441 L41.526,41.848 M42.225,41.829 L41.526,41.848 L42.225,41.829 L41.526,41.848 L43.970,41.781 L46.414,41.713 L48.859,41.645 L51.303,41.578 L53.747,41.510 L56.191,41.443 L58.636,41.375 L61.080,41.308 L63.524,41.240 L65.969,41.172 L68.413,41.105 L70.857,41.037 L73.301,40.970 L75.746,40.902 L78.190,40.834 L80.634,40.767 L83.079,40.699 L81.682,39.000 L80.285,37.300 L78.759,35.715 L76.564,35.873 L74.370,36.031 L73.010,37.760 L72.167,39.793 L72.482,41.970 L73.932,43.625 L75.381,45.281 L76.004,45.992 L77.772,44.669 L79.541,43.346 L81.310,42.023 L83.079,40.699 L82.518,41.119 L83.079,40.699 L82.518,41.119 L83.079,40.699 M83.297,41.364 L83.079,40.699 L83.297,41.364 L83.079,40.699 L83.814,42.932 L84.549,45.165 L85.284,47.398 L86.019,49.631 L86.754,51.864 L88.084,50.112 L88.137,47.913 L86.884,46.104 L85.631,44.296 L84.377,42.488 L82.401,43.455 L80.639,44.772 L78.877,46.090 L77.115,47.407 L76.595,49.545 L76.424,51.738 L76.701,52.261 L78.711,52.182 L80.722,52.102 L82.732,52.023 L84.743,51.944 L86.754,51.864 L86.054,51.892 L86.754,51.864 L86.054,51.892 L86.754,51.864 M86.058,51.938 L86.754,51.864 L86.058,51.938 L86.754,51.864 L84.310,52.124 L81.866,52.384 L79.422,52.643 L76.979,52.903 L74.535,53.162 L72.091,53.422 L69.647,53.682 L67.204,53.941 L65.388,52.699 L63.573,51.456 L61.439,51.993 L59.466,52.966 L57.493,53.939 L55.520,54.913 L55.491,57.113 L56.261,59.173 L57.031,61.234 L59.178,61.717 L61.328,62.183 L63.478,62.649 L64.482,60.488 L65.389,58.306 L66.296,56.124 L67.204,53.941 L66.935,54.588 L67.204,53.941 L66.935,54.588 L67.204,53.941 M66.600,53.587 L67.204,53.941 L66.600,53.587 L67.204,53.941 L65.136,52.729 L63.068,51.516 L61.000,50.303 L58.932,49.091 L56.864,47.878 L54.796,46.665 L52.729,45.453 L50.661,44.240 L48.593,43.027 L46.525,41.815 L44.457,40.602 L42.389,39.389 L40.321,38.177 L38.253,36.964 L36.186,35.751 L35.686,33.609 L35.187,31.466 L34.688,29.324 L34.188,27.181 L32.201,26.237 L30.292,27.331 L28.480,28.577 L26.667,29.824 L24.854,31.071 L25.241,33.237 L26.147,35.241 L27.054,37.246 L27.961,39.250 L28.254,39.896 L30.237,38.860 L32.220,37.824 L34.203,36.788 L36.186,35.751 L35.565,36.075 L36.186,35.751 L35.565,36.075 L36.186,35.751 M36.851,35.533 L36.186,35.751 L36.851,35.533 L36.186,35.751 L38.505,34.991 L40.824,34.231 L43.143,33.471 L45.462,32.711 L47.781,31.950 L50.100,31.190 L52.419,30.430 L54.738,29.670 L57.057,28.910 L59.376,28.149 L61.695,27.389 L64.014,26.629 L66.333,25.869 L68.652,25.109 L70.971,24.349 L73.290,23.588 L75.609,22.828 L74.786,20.788 L72.997,19.507 L71.209,18.226 L69.420,16.945 L67.715,18.336 L66.570,20.214 L65.424,22.092 L64.279,23.971 L64.698,26.130 L66.040,27.874 L68.136,28.543 L69.328,28.773 L70.898,27.287 L72.468,25.801 L74.038,24.315 L75.609,22.828 L75.100,23.309 L75.609,22.828 L75.100,23.309 L75.609,22.828 M75.623,23.528 L75.609,22.828 L75.623,23.528 L75.609,22.828 L75.657,25.232 L75.705,27.636 L75.754,30.040 L75.802,32.443 L75.850,34.847 L75.899,37.251 L75.947,39.655 L75.995,42.059 L76.044,44.462 L76.092,46.866 L76.140,49.270 L76.189,51.674 L76.237,54.078 L76.285,56.481 L76.334,58.885 L75.979,56.714 L75.624,54.543 L73.683,53.508 L71.522,53.919 L69.360,54.329 L68.211,56.205 L67.367,58.237 L66.522,60.268 L65.678,62.300 L67.178,63.909 L69.377,63.936 L71.577,63.963 L72.774,63.978 L73.960,62.281 L75.147,60.583 L76.334,58.885 L75.933,59.459 L76.334,58.885 L75.933,59.459 L76.334,58.885 M75.838,59.380 L76.334,58.885 L75.838,59.380 L76.334,58.885 L74.584,60.632 L72.834,62.379 L71.084,64.125 L69.334,65.872 L67.584,67.619 L65.834,69.366 L64.084,71.112 L64.124,68.913 L64.164,66.713 L63.682,64.566 L61.538,64.072 L59.388,63.605 L57.238,63.139 L55.585,64.591 L54.274,66.357 L54.769,68.500 L55.578,70.546 L56.387,72.592 L57.196,74.638 L58.609,75.260 L60.434,73.878 L62.259,72.495 L64.084,71.112 L63.526,71.535 L64.084,71.112 L63.526,71.535 L64.084,71.112 M63.435,70.849 L64.084,71.112 L63.435,70.849 L64.084,71.112 L61.840,70.200 L59.597,69.287 L57.353,68.374 L55.110,67.462 L52.867,66.549 L50.623,65.637 L48.380,64.724 L46.136,63.812 L43.893,62.899 L41.650,61.986 L39.406,61.074 L37.163,60.161 L34.919,59.249 L32.676,58.336 L30.432,57.423 L28.189,56.511 L25.946,55.598 L23.702,54.686 L21.459,53.773 L19.215,52.860 L16.972,51.948 L14.729,51.035 L15.566,49.001 L16.403,46.966 L17.240,44.932 L16.350,42.920 L14.888,41.276 L13.427,39.632 L11.268,40.056 L9.594,41.483 L7.919,42.910 L6.949,44.885 L7.428,47.032 L7.907,49.179 L8.386,51.326 L9.765,53.041 L11.420,52.373 L13.074,51.704 L14.729,51.035 L14.080,51.298 L14.729,51.035 L14.080,51.298 L14.729,51.035 M14.590,50.349 L14.729,51.035 L14.590,50.349 L14.729,51.035 L14.259,48.720 L13.790,46.404 L13.320,44.089 L12.851,41.773 L12.381,39.458 L11.912,37.142 L11.069,35.110 L9.484,33.585 L7.898,32.059 L6.313,30.533 L4.728,29.008 L3.904,31.047 L3.182,33.126 L2.547,35.232 L2.048,37.375 L1.640,39.536 L2.526,41.550 L4.610,42.256 L5.542,42.571 L7.134,41.214 L8.727,39.857 L10.319,38.500 L11.912,37.142 L11.379,37.596 L11.912,37.142 L11.379,37.596 L11.912,37.142 M11.809,37.835 L11.912,37.142 L11.809,37.835 L11.912,37.142 L11.576,39.401 L11.241,41.659 L10.905,43.917 L10.570,46.176 L10.234,48.434 L9.899,50.693 L9.563,52.951 L9.228,55.209 L8.892,57.468 L8.557,59.726 L8.616,57.527 L8.676,55.328 L7.464,53.492 L5.271,53.669 L3.079,53.855 L1.798,55.643 L2.268,57.793 L2.825,59.921 L3.470,62.024 L3.634,62.458 L5.275,61.548 L6.916,60.637 L8.557,59.726 L7.945,60.066 L8.557,59.726 L7.945,60.066 L8.557,59.726 M9.210,59.979 L8.557,59.726 L9.210,59.979 L8.557,59.726 L10.755,60.576 L12.952,61.426 L15.150,62.276 L17.348,63.125 L19.546,63.975 L21.744,64.825 L23.942,65.675 L26.140,66.524 L28.338,67.374 L30.536,68.224 L32.734,69.074 L34.932,69.923 L35.670,67.851 L36.408,65.778 L35.646,63.715 L34.029,62.223 L32.173,61.042 L29.976,61.152 L27.778,61.262 L26.354,62.939 L26.666,65.117 L26.977,67.295 L27.288,69.473 L27.599,71.651 L27.643,71.955 L29.465,71.447 L31.287,70.939 L33.109,70.431 L34.932,69.923 L34.257,70.111 L34.932,69.923 L34.257,70.111 L34.932,69.923 M35.626,70.009 L34.932,69.923 L35.626,70.009 L34.932,69.923 L37.272,70.213 L39.613,70.502 L41.953,70.792 L44.294,71.081 L46.635,71.371 L48.975,71.660 L51.316,71.950 L53.656,72.239 L55.997,72.528 L58.338,72.818 L60.678,73.107 L63.019,73.397 L65.359,73.686 L67.700,73.976 L70.040,74.265 L72.381,74.555 L74.722,74.844 L75.771,72.911 L75.526,70.724 L74.439,68.812 L73.351,66.900 L71.468,65.762 L69.268,65.735 L67.068,65.708 L65.948,67.601 L65.909,69.801 L66.770,71.825 L68.503,73.181 L70.236,74.536 L71.899,75.837 L73.310,75.341 L74.722,74.844 L74.061,75.077 L74.722,74.844 L74.061,75.077 L74.722,74.844 M74.022,74.866 L74.722,74.844 L74.022,74.866 L74.722,74.844 L72.328,74.917 L69.935,74.991 L67.541,75.064 L65.148,75.137 L62.754,75.210 L60.361,75.283 L57.967,75.356 L55.574,75.429 L54.764,73.384 L53.955,71.338 L53.146,69.292 L51.513,67.817 L49.373,68.329 L47.893,69.957 L47.169,72.034 L46.445,74.112 L46.590,76.307 L48.066,77.938 L49.536,79.562 L51.548,78.185 L53.561,76.807 L55.574,75.429 L54.996,75.825 L55.574,75.429 L54.996,75.825 L55.574,75.429 M56.213,75.144 L55.574,75.429 L56.213,75.144 L55.574,75.429 L57.745,74.461 L59.916,73.492 L62.088,72.524 L64.259,71.556 L66.431,70.587 L68.602,69.619 L70.773,68.650 L72.945,67.682 L75.116,66.714 L77.288,65.745 L79.459,64.777 L81.630,63.808 L83.802,62.840 L85.973,61.872 L88.145,60.903 L87.657,58.758 L87.169,56.613 L86.682,54.467 L84.602,53.750 L82.404,53.837 L80.205,53.923 L78.007,54.010 L77.718,56.191 L78.072,58.362 L79.919,59.557 L81.835,60.639 L83.751,61.721 L84.837,62.334 L86.491,61.619 L88.145,60.903 L87.502,61.181 L88.145,60.903 L87.502,61.181 L88.145,60.903 M88.398,60.251 L88.145,60.903 L88.398,60.251 L88.145,60.903 L88.980,58.747 L89.816,56.590 L90.651,54.434 L91.487,52.277 L92.322,50.121 L93.158,47.964 L93.142,45.764 L93.035,43.567 L92.820,41.377 L92.480,39.204 L92.050,37.046 L89.960,37.731 L88.205,39.058 L86.450,40.385 L86.631,42.578 L87.884,44.386 L89.137,46.194 L90.390,48.002 L91.815,48.043 L93.158,47.964 L92.459,48.005 L93.158,47.964 L92.459,48.005 L93.158,47.964 M92.971,48.639 L93.158,47.964 L92.971,48.639 L93.158,47.964 L92.543,50.185 L91.927,52.405 L91.312,54.625 L90.697,56.846 L90.082,59.066 L89.467,61.287 L88.852,63.507 L88.237,65.727 L87.622,67.948 L87.007,70.168 L88.044,68.228 L89.001,66.247 L89.875,64.228 L88.153,62.860 L86.134,63.734 L85.005,65.622 L84.342,67.720 L83.679,69.817 L85.316,71.288 L86.009,71.772 L87.007,70.168 L86.637,70.763 L87.007,70.168 L86.637,70.763 L87.007,70.168 M86.315,70.058 L87.007,70.168 L86.315,70.058 L87.007,70.168 L84.589,69.782 L82.172,69.395 L79.755,69.008 L77.338,68.622 L74.920,68.235 L72.503,67.848 L70.086,67.462 L67.669,67.075 L65.252,66.688 L62.834,66.302 L60.417,65.915 L58.000,65.528 L55.583,65.142 L53.165,64.755 L50.748,64.368 L48.331,63.982 L45.914,63.595 L43.496,63.208 L41.079,62.822 L38.662,62.435 L36.245,62.049 L33.828,61.662 L31.410,61.275 L28.993,60.889 L26.576,60.502 L24.159,60.115 L23.450,58.033 L21.870,56.501 L19.966,55.399 L18.062,54.297 L16.158,53.195 L13.960,53.286 L11.920,54.110 L10.465,55.760 L10.406,57.960 L10.575,60.153 L12.084,61.754 L13.593,63.355 L14.369,64.177 L16.327,63.365 L18.285,62.552 L20.243,61.740 L22.201,60.928 L24.159,60.115 L23.512,60.384 L24.159,60.115 L23.512,60.384 L24.159,60.115 M24.340,60.791 L24.159,60.115 L24.340,60.791 L24.159,60.115 L24.784,62.448 L25.409,64.780 L26.034,67.112 L26.659,69.445 L27.285,71.777 L27.910,74.110 L28.535,76.442 L29.160,78.774 L29.785,81.107 L30.411,83.439 L29.241,81.576 L28.072,79.712 L26.903,77.849 L25.734,75.985 L23.534,76.003 L21.385,76.477 L20.254,78.364 L19.549,80.448 L18.844,82.532 L20.014,84.394 L21.817,85.655 L23.686,86.816 L25.036,87.568 L26.827,86.192 L28.619,84.816 L30.411,83.439 L29.856,83.866 L30.411,83.439 L29.856,83.866 L30.411,83.439 M31.109,83.389 L30.411,83.439 L31.109,83.389 L30.411,83.439 L32.802,83.268 L35.194,83.097 L37.585,82.926 L39.977,82.755 L42.368,82.584 L44.760,82.413 L47.151,82.241 L49.543,82.070 L51.934,81.899 L54.326,81.728 L56.717,81.557 L59.109,81.386 L61.500,81.215 L63.892,81.044 L66.283,80.872 L68.675,80.701 L69.704,78.757 L69.909,76.567 L68.176,75.211 L66.443,73.856 L64.355,73.163 L62.601,74.492 L60.848,75.820 L60.897,78.020 L61.997,79.925 L63.097,81.830 L64.982,81.498 L66.828,81.100 L68.675,80.701 L67.990,80.849 L68.675,80.701 L67.990,80.849 L68.675,80.701 M68.072,81.058 L68.675,80.701 L68.072,81.058 L68.675,80.701 L66.617,81.919 L64.560,83.136 L62.503,84.354 L60.446,85.571 L61.379,83.579 L60.804,81.456 L59.704,79.550 L58.604,77.645 L56.510,76.970 L54.695,78.212 L52.879,79.455 L51.064,80.697 L52.179,82.594 L53.550,84.314 L54.922,86.034 L55.651,86.948 L58.048,86.260 L60.446,85.571 L59.773,85.764 L60.446,85.571 L59.773,85.764 L60.446,85.571 M59.795,85.312 L60.446,85.571 L59.795,85.312 L60.446,85.571 L58.388,84.753 L56.331,83.934 L54.274,83.115 L52.216,82.297 L50.159,81.478 L48.102,80.659 L46.625,79.028 L45.149,77.397 L43.061,76.703 L40.861,76.722 L39.362,78.332 L38.246,80.228 L37.130,82.124 L36.014,84.019 L37.232,85.851 L39.419,86.093 L41.605,86.335 L42.824,86.470 L44.143,85.018 L45.463,83.565 L46.782,82.112 L48.102,80.659 L47.631,81.177 L48.102,80.659 L47.631,81.177 L48.102,80.659 M48.789,80.793 L48.102,80.659 L48.789,80.793 L48.102,80.659 L50.337,81.095 L52.573,81.530 L54.808,81.965 L57.043,82.400 L59.279,82.836 L61.514,83.271 L63.750,83.706 L65.985,84.141 L68.221,84.577 L70.456,85.012 L72.692,85.447 L74.480,84.166 L76.214,82.812 L77.891,81.388 L77.265,79.279 L75.855,77.591 L73.708,77.109 L71.928,78.402 L70.898,80.346 L70.851,82.546 L71.882,84.489 L72.466,85.587 L72.692,85.447 L72.466,85.587 L72.692,85.447 L72.466,85.587 L72.692,85.447 M72.074,85.777 L72.692,85.447 L72.074,85.777 L72.692,85.447 L70.700,86.512 L68.708,87.576 L66.716,88.640 L64.724,89.704 L66.727,88.796 L68.692,87.807 L70.615,86.738 L69.929,84.648 L68.898,82.705 L66.713,82.966 L64.563,83.430 L62.813,84.763 L62.623,86.955 L63.879,88.761 L64.574,89.760 L64.174,89.186 L64.574,89.760 L64.174,89.186 L64.574,89.760 M64.009,89.346 L64.574,89.760 L64.009,89.346 L64.574,89.760 L62.649,88.349 L60.575,86.993 L58.500,85.637 L56.425,84.282 L54.351,82.926 L52.276,81.570 L50.202,80.215 L48.127,78.859 L46.053,77.503 L43.978,76.148 L41.904,74.792 L39.829,73.437 L37.755,72.081 L35.680,70.725 L33.606,69.370 L31.531,68.014 L29.457,66.658 L27.382,65.303 L25.307,63.947 L23.233,62.591 L21.158,61.236 L19.084,59.880 L17.009,58.524 L14.935,57.169 L12.860,55.813 L10.786,54.458 L8.711,53.102 L6.637,51.746 L6.157,49.599 L5.678,47.452 L5.199,45.305 L3.586,43.809 L1.502,43.103 L1.050,45.256 L1.000,47.456 L1.073,49.654 L1.257,51.847 L1.292,52.199 L3.073,52.048 L4.855,51.897 L6.637,51.746 L5.939,51.805 L6.637,51.746 L5.939,51.805 L6.637,51.746 M7.299,51.973 L6.637,51.746 L7.299,51.973 L6.637,51.746 L8.984,52.551 L11.331,53.357 L13.678,54.162 L16.025,54.967 L18.372,55.772 L20.719,56.577 L23.066,57.382 L25.413,58.187 L27.760,58.992 L30.107,59.798 L32.454,60.603 L34.801,61.408 L37.148,62.213 L39.495,63.018 L41.843,63.823 L44.190,64.628 L46.537,65.433 L48.884,66.239 L51.231,67.044 L53.578,67.849 L55.925,68.654 L58.272,69.459 L60.619,70.264 L62.966,71.069 L65.313,71.874 L67.660,72.680 L70.007,73.485 L72.354,74.290 L74.701,75.095 L77.048,75.900 L79.396,76.705 L81.743,77.510 L83.139,75.810 L84.464,74.054 L83.386,72.136 L81.216,71.775 L79.107,72.401 L77.365,73.745 L76.754,75.859 L78.165,77.547 L79.575,79.236 L79.836,79.547 L80.789,78.529 L81.743,77.510 L81.264,78.021 L81.743,77.510 L81.264,78.021 L81.743,77.510 M81.044,77.462 L81.743,77.510 L81.044,77.462 L81.743,77.510 L79.400,77.347 L77.058,77.183 L74.716,77.020 L72.373,76.856 L70.031,76.692 L67.689,76.529 L65.346,76.365 L63.004,76.202 L60.662,76.038 L58.319,75.875 L55.977,75.711 L53.635,75.548 L51.293,75.384 L48.950,75.220 L46.608,75.057 L44.266,74.893 L44.990,72.816 L45.715,70.739 L46.440,68.662 L44.970,67.025 L43.159,65.776 L41.237,64.706 L39.083,65.154 L37.885,66.999 L37.146,69.072 L37.267,71.268 L38.648,72.981 L40.029,74.693 L40.218,74.927 L42.242,74.910 L44.266,74.893 L43.566,74.899 L44.266,74.893 L43.566,74.899 L44.266,74.893 M44.479,75.560 L44.266,74.893 L44.479,75.560 L44.266,74.893 L44.996,77.171 L45.726,79.448 L46.456,81.725 L47.186,84.002 L47.916,86.280 L48.646,88.557 L49.376,90.834 L50.106,93.111 L52.295,92.896 L53.204,90.893 L54.011,88.846 L53.223,86.792 L51.852,85.072 L50.480,83.352 L48.292,83.127 L46.812,84.755 L45.333,86.384 L44.853,88.531 L45.944,90.441 L47.035,92.352 L47.517,93.196 L48.811,93.154 L50.106,93.111 L49.406,93.134 L50.106,93.111 L49.406,93.134 L50.106,93.111 M50.647,92.667 L50.106,93.111 L50.647,92.667 L50.106,93.111 L51.992,91.563 L53.879,90.015 L55.766,88.467 L57.653,86.919 L59.539,85.371 L61.426,83.823 L63.313,82.275 L65.199,80.727 L67.086,79.178 L68.973,77.630 L70.860,76.082 L72.746,74.534 L74.633,72.986 L76.520,71.438 L78.407,69.890 L80.293,68.342 L82.180,66.794 L84.067,65.246 L85.953,63.698 L87.840,62.149 L89.727,60.601 L91.614,59.053 L92.113,56.911 L92.525,54.750 L92.847,52.573 L93.062,50.384 L90.916,49.897 L89.341,51.433 L88.276,53.358 L88.764,55.503 L89.251,57.649 L89.739,59.794 L90.998,61.083 L91.614,59.053 L91.410,59.723 L91.614,59.053 L91.410,59.723 L91.614,59.053 M90.914,59.055 L91.614,59.053 L90.914,59.055 L91.614,59.053 L89.148,59.060 L86.682,59.068 L84.216,59.075 L81.751,59.082 L79.285,59.089 L76.819,59.097 L74.354,59.104 L71.888,59.111 L69.422,59.118 L66.957,59.125 L64.491,59.133 L62.025,59.140 L59.559,59.147 L57.094,59.154 L54.628,59.161 L52.162,59.169 L49.697,59.176 L47.231,59.183 L44.765,59.190 L42.299,59.197 L39.834,59.205 L37.368,59.212 L34.902,59.219 L32.437,59.226 L33.276,57.192 L34.114,55.159 L34.953,53.125 L35.049,50.927 L33.047,50.014 L31.046,49.101 L28.861,48.840 L27.874,50.806 L26.886,52.772 L25.899,54.738 L24.911,56.704 L25.609,58.790 L25.870,59.555 L28.059,59.446 L30.248,59.336 L32.437,59.226 L31.737,59.261 L32.437,59.226 L31.737,59.261 L32.437,59.226 M32.683,59.882 L32.437,59.226 L32.683,59.882 L32.437,59.226 L33.219,61.312 L34.002,63.398 L34.784,65.483 L35.567,67.569 L36.350,69.654 L37.132,71.740 L37.915,73.826 L38.698,75.911 L37.317,74.199 L35.936,72.486 L33.767,72.117 L31.648,72.708 L29.528,73.299 L27.420,73.928 L27.913,76.072 L29.082,77.936 L30.251,79.800 L31.420,81.663 L33.109,83.073 L34.319,83.347 L35.413,81.488 L36.508,79.629 L37.603,77.770 L38.698,75.911 L38.342,76.514 L38.698,75.911 L38.342,76.514 L38.698,75.911 M39.206,76.392 L38.698,75.911 L39.206,76.392 L38.698,75.911 L40.435,77.553 L42.173,79.194 L43.911,80.836 L45.649,82.477 L47.387,84.119 L49.124,85.760 L50.862,87.402 L52.600,89.043 L54.338,90.685 L56.076,92.326 L58.218,91.827 L60.339,91.241 L62.433,90.567 L61.542,88.555 L59.510,87.712 L57.396,88.319 L55.634,89.637 L54.826,91.684 L54.468,92.592 L56.076,92.326 L55.385,92.441 L56.076,92.326 L55.385,92.441 L56.076,92.326 M56.602,91.864 L56.076,92.326 L56.602,91.864 L56.076,92.326 L57.915,90.711 L59.754,89.096 L61.593,87.481 L63.432,85.866 L65.271,84.251 L67.110,82.636 L68.950,81.021 L70.789,79.406 L72.628,77.791 L74.467,76.176 L76.306,74.561 L78.145,72.946 L79.984,71.331 L81.824,69.716 L82.486,67.618 L83.149,65.521 L82.939,63.331 L81.023,62.249 L79.107,61.167 L76.908,61.208 L75.647,63.011 L74.387,64.814 L75.357,66.788 L76.445,68.700 L77.533,70.613 L77.717,70.935 L79.770,70.326 L81.824,69.716 L81.153,69.915 L81.824,69.716 L81.153,69.915 L81.824,69.716 M81.191,70.016 L81.824,69.716 L81.191,70.016 L81.824,69.716 L79.646,70.746 L77.468,71.777 L75.291,72.807 L73.113,73.837 L70.935,74.867 L68.758,75.898 L66.580,76.928 L64.402,77.958 L62.225,78.988 L60.047,80.018 L57.869,81.049 L55.692,82.079 L53.514,83.109 L51.336,84.139 L49.159,85.170 L46.981,86.200 L44.803,87.230 L42.626,88.260 L40.439,88.018 L38.252,87.776 L37.061,89.626 L36.612,91.780 L38.715,92.428 L40.885,92.786 L43.074,93.013 L45.269,93.151 L44.490,91.524 L43.558,89.892 L42.626,88.260 L42.973,88.868 L42.626,88.260 L42.973,88.868 L42.626,88.260 M42.025,87.901 L42.626,88.260 L42.025,87.901 L42.626,88.260 L40.526,87.004 L38.427,85.748 L36.328,84.492 L34.229,83.236 L32.130,81.980 L30.031,80.723 L27.932,79.467 L25.832,78.211 L23.733,76.955 L21.634,75.699 L19.535,74.443 L17.436,73.187 L15.337,71.930 L13.238,70.674 L13.238,68.474 L13.239,66.274 L12.099,64.393 L10.589,62.792 L8.666,61.724 L6.743,62.792 L4.819,63.859 L5.082,66.043 L6.026,68.031 L7.063,69.971 L8.212,71.847 L8.861,72.867 L11.049,71.771 L13.238,70.674 L12.612,70.988 L13.238,70.674 L12.612,70.988 L13.238,70.674 M13.916,70.847 L13.238,70.674 L13.916,70.847 L13.238,70.674 L15.258,71.188 L17.278,71.702 L19.298,72.216 L21.318,72.730 L23.338,73.243 L25.359,73.757 L25.773,71.597 L25.462,69.419 L25.151,67.241 L24.840,65.063 L24.529,62.885 L22.330,62.822 L20.298,63.665 L18.266,64.509 L16.234,65.352 L15.039,67.199 L15.038,69.399 L15.883,71.430 L17.633,72.764 L19.382,74.098 L20.377,74.856 L22.037,74.490 L23.698,74.124 L25.359,73.757 L24.675,73.908 L25.359,73.757 L24.675,73.908 L25.359,73.757 M25.935,73.359 L25.359,73.757 L25.935,73.359 L25.359,73.757 L27.324,72.400 L29.289,71.043 L31.254,69.686 L33.219,68.329 L35.184,66.972 L37.149,65.615 L39.114,64.258 L41.079,62.901 L41.968,60.889 L42.858,58.877 L43.747,56.865 L42.473,55.072 L40.585,53.942 L38.697,52.812 L36.674,53.674 L35.835,55.708 L34.996,57.742 L34.157,59.776 L35.714,61.330 L37.331,62.822 L38.090,63.521 L39.584,63.211 L41.079,62.901 L40.393,63.043 L41.079,62.901 L40.393,63.043 L41.079,62.901 M40.479,63.263 L41.079,62.901 L40.479,63.263 L41.079,62.901 L39.081,64.106 L37.083,65.310 L35.085,66.514 L33.087,67.719 L31.089,68.923 L29.091,70.127 L27.093,71.332 L25.095,72.536 L23.097,73.741 L21.100,74.945 L19.102,76.149 L17.352,74.815 L15.603,73.481 L13.641,72.486 L11.674,73.471 L10.758,75.472 L12.154,77.172 L13.637,78.797 L15.186,80.360 L16.798,81.856 L17.090,82.096 L17.760,80.114 L18.431,78.132 L19.102,76.149 L18.877,76.812 L19.102,76.149 L18.877,76.812 L19.102,76.149 M19.689,76.530 L19.102,76.149 L19.689,76.530 L19.102,76.149 L21.186,77.500 L23.271,78.850 L25.355,80.200 L27.440,81.551 L29.525,82.901 L31.609,84.252 L33.694,85.602 L35.779,86.952 L34.351,85.278 L32.224,84.718 L30.304,85.792 L28.559,87.132 L26.814,88.472 L28.804,89.411 L30.846,90.229 L32.920,90.963 L34.824,91.540 L35.301,89.246 L35.779,86.952 L35.636,87.638 L35.779,86.952 L35.636,87.638 L35.779,86.952"/>
  <path fill="none" stroke="#3a4e8c" stroke-width="0.4" stroke-linecap="round" stroke-linejoin="round" d="M35.031,18.454 L34.867,17.774 L35.031,18.454 L34.867,17.774 L35.031,18.454 L34.608,16.705 L33.480,15.302 L31.692,15.098 L29.894,15.017 L28.136,14.627 L28.820,14.779 L28.136,14.627 L28.820,14.779 L28.136,14.627 M48.731,11.378 L48.187,10.938 L48.731,11.378 L48.187,10.938 L48.731,11.378 L47.332,10.246 L47.086,8.462 L48.027,6.928 L49.811,6.688 L51.365,7.597 L52.901,8.535 L54.435,9.477 L56.097,10.169 L55.451,9.900 L56.097,10.169 L55.451,9.900 L56.097,10.169 M50.210,23.603 L50.884,23.415 L50.210,23.603 L50.884,23.415 L50.210,23.603 L51.944,23.120 L53.245,21.876 L54.582,20.671 L54.062,21.139 L54.582,20.671 L54.062,21.139 L54.582,20.671 M38.411,7.643 L37.941,8.162 L38.411,7.643 L37.941,8.162 L38.411,7.643 L37.203,8.978 L36.369,10.573 L35.865,12.301 L36.061,11.629 L35.865,12.301 L36.061,11.629 L35.865,12.301 M59.027,31.356 L58.391,31.648 L59.027,31.356 L58.391,31.648 L59.027,31.356 L57.391,32.107 L55.780,31.305 L54.082,30.708 L54.742,30.940 L54.082,30.708 L54.742,30.940 L54.082,30.708 M57.083,46.706 L56.462,47.029 L57.083,46.706 L56.462,47.029 L57.083,46.706 L55.486,47.536 L53.695,47.358 L51.918,47.070 L52.609,47.182 L51.918,47.070 L52.609,47.182 L51.918,47.070 M76.054,29.834 L76.580,29.372 L76.054,29.834 L76.580,29.372 L76.054,29.834 L77.406,28.645 L78.914,27.663 L80.437,26.704 L79.845,27.077 L80.437,26.704 L79.845,27.077 L80.437,26.704 M47.224,2.539 L47.587,1.941 L47.224,2.539 L47.587,1.941 L47.224,2.539 L48.157,1.000 L47.794,1.599 L48.157,1.000 L47.794,1.599 L48.157,1.000 M28.495,8.480 L27.941,8.051 L28.495,8.480 L27.941,8.051 L28.495,8.480 L27.072,7.377 L27.254,5.586 L27.183,6.282 L27.254,5.586 L27.183,6.282 L27.254,5.586 M23.839,23.625 L24.511,23.427 L23.839,23.625 L24.511,23.427 L23.839,23.625 L25.565,23.115 L26.779,21.786 L26.619,19.993 L25.388,18.680 L25.731,16.912 L25.597,17.600 L25.731,16.912 L25.597,17.600 L25.731,16.912 M20.496,37.803 L20.987,37.304 L20.496,37.803 L20.987,37.304 L20.496,37.803 L21.758,36.520 L21.574,34.730 L19.791,34.977 L18.008,34.727 L17.327,33.061 L17.592,33.709 L17.327,33.061 L17.592,33.709 L17.327,33.061 M69.174,47.453 L69.469,46.818 L69.174,47.453 L69.469,46.818 L69.174,47.453 L69.931,45.820 L71.634,45.234 L73.369,45.711 L74.997,46.480 L74.364,46.181 L74.997,46.480 L74.364,46.181 L74.997,46.480 M74.977,14.525 L75.521,14.965 L74.977,14.525 L75.521,14.965 L74.977,14.525 L76.377,15.656 L78.059,16.295 L79.681,15.514 L79.234,13.771 L79.408,14.449 L79.234,13.771 L79.408,14.449 L79.234,13.771 M65.415,8.869 L65.207,9.537 L65.415,8.869 L65.207,9.537 L65.415,8.869 L64.881,10.588 L64.122,12.220 L64.417,11.585 L64.122,12.220 L64.417,11.585 L64.122,12.220 M60.237,17.465 L60.908,17.666 L60.237,17.465 L60.908,17.666 L60.237,17.465 L61.961,17.982 L63.745,17.740 L65.310,16.850 L66.679,15.682 L66.146,16.136 L66.679,15.682 L66.146,16.136 L66.679,15.682 M56.927,4.853 L56.898,4.153 L56.927,4.853 L56.898,4.153 L56.927,4.853 L56.853,3.054 L55.450,1.927 L53.665,2.154 L54.359,2.065 L53.665,2.154 L54.359,2.065 L53.665,2.154 M19.195,14.493 L19.471,13.849 L19.195,14.493 L19.471,13.849 L19.195,14.493 L19.904,12.838 L21.457,11.928 L23.252,11.790 L24.914,12.481 L24.268,12.212 L24.914,12.481 L24.268,12.212 L24.914,12.481 M12.608,26.585 L13.297,26.461 L12.608,26.585 L13.297,26.461 L12.608,26.585 L14.380,26.268 L16.078,26.866 L17.780,26.282 L17.118,26.509 L17.780,26.282 L17.118,26.509 L17.780,26.282 M49.080,38.227 L48.467,37.890 L49.080,38.227 L48.467,37.890 L49.080,38.227 L47.503,37.359 L45.768,37.837 L44.055,37.285 L44.178,35.489 L44.130,36.187 L44.178,35.489 L44.130,36.187 L44.178,35.489 M45.086,49.171 L45.075,48.471 L45.086,49.171 L45.075,48.471 L45.086,49.171 L45.058,47.371 L46.847,47.172 L47.164,45.400 L48.944,45.133 L48.252,45.237 L48.944,45.133 L48.252,45.237 L48.944,45.133 M22.316,49.143 L22.746,48.591 L22.316,49.143 L22.746,48.591 L22.316,49.143 L23.424,47.724 L24.685,46.440 L25.379,44.779 L25.109,45.425 L25.379,44.779 L25.109,45.425 L25.379,44.779 M66.834,36.154 L67.099,35.506 L66.834,36.154 L67.099,35.506 L66.834,36.154 L67.515,34.488 L68.299,32.868 L68.874,31.162 L68.650,31.825 L68.874,31.162 L68.650,31.825 L68.874,31.162 M85.796,33.167 L86.475,33.340 L85.796,33.167 L86.475,33.340 L85.796,33.167 L87.541,33.611 L88.634,32.181 L90.003,31.012 L89.470,31.466 L90.003,31.012 L89.470,31.466 L90.003,31.012 M49.330,60.926 L49.987,61.169 L49.330,60.926 L49.987,61.169 L49.330,60.926 L51.018,61.550 L52.679,62.246 L54.451,61.934 L53.762,62.055 L54.451,61.934 L53.762,62.055 L54.451,61.934 M82.458,22.589 L81.833,22.905 L82.458,22.589 L81.833,22.905 L82.458,22.589 L80.852,23.402 L79.063,23.598 L77.370,22.987 L78.028,23.224 L77.370,22.987 L78.028,23.224 L77.370,22.987 M41.351,30.004 L40.695,29.757 L41.351,30.004 L40.695,29.757 L41.351,30.004 L39.666,29.370 L37.978,29.994 L37.165,28.389 L35.383,28.130 L34.927,26.389 L35.104,27.066 L34.927,26.389 L35.104,27.066 L34.927,26.389 M34.999,43.282 L34.428,42.876 L34.999,43.282 L34.428,42.876 L34.999,43.282 L33.532,42.239 L31.736,42.357 L30.134,43.178 L28.568,44.066 L29.177,43.721 L28.568,44.066 L29.177,43.721 L28.568,44.066 M76.977,40.308 L77.170,39.635 L76.977,40.308 L77.170,39.635 L76.977,40.308 L77.474,38.578 L78.632,37.200 L80.429,37.098 L79.730,37.137 L80.429,37.098 L79.730,37.137 L80.429,37.098 M82.491,48.287 L81.806,48.432 L82.491,48.287 L81.806,48.432 L82.491,48.287 L80.730,48.661 L79.045,48.028 L77.505,47.096 L78.104,47.459 L77.505,47.096 L78.104,47.459 L77.505,47.096 M61.154,56.920 L60.458,56.997 L61.154,56.920 L60.458,56.997 L61.154,56.920 L59.365,57.118 L58.370,55.618 L59.663,54.365 L61.375,53.809 L62.524,52.423 L62.741,50.637 L62.656,51.331 L62.741,50.637 L62.656,51.331 L62.741,50.637 M30.605,32.938 L29.937,33.145 L30.605,32.938 L29.937,33.145 L30.605,32.938 L28.886,33.472 L27.120,33.821 L25.822,32.574 L26.204,30.815 L27.904,30.224 L28.260,28.460 L29.791,27.513 L31.326,26.573 L33.119,26.420 L32.422,26.479 L33.119,26.420 L32.422,26.479 L33.119,26.420 M69.520,23.027 L70.215,23.113 L69.520,23.027 L70.215,23.113 L69.520,23.027 L71.307,23.247 L72.012,21.591 L70.243,21.922 L70.489,20.139 L68.773,19.595 L68.509,17.814 L69.479,16.297 L69.102,16.887 L69.479,16.297 L69.102,16.887 L69.479,16.297 M71.158,59.029 L71.845,58.897 L71.158,59.029 L71.845,58.897 L71.158,59.029 L72.925,58.690 L74.725,58.695 L75.722,57.196 L74.010,56.641 L74.311,54.866 L74.775,53.127 L74.595,53.804 L74.775,53.127 L74.595,53.804 L74.775,53.127 M59.365,68.635 L59.438,67.939 L59.365,68.635 L59.438,67.939 L59.365,68.635 L59.553,66.845 L61.175,66.065 L62.820,66.796 L64.548,67.300 L63.876,67.104 L64.548,67.300 L63.876,67.104 L64.548,67.300 M11.895,46.091 L12.580,45.948 L11.895,46.091 L12.580,45.948 L11.895,46.091 L13.657,45.722 L15.254,44.892 L16.803,43.976 L16.201,44.332 L16.803,43.976 L16.201,44.332 L16.803,43.976 M6.077,36.426 L5.410,36.638 L6.077,36.426 L5.410,36.638 L6.077,36.426 L4.362,36.971 L2.719,36.235 L3.061,34.468 L2.822,32.684 L2.915,33.378 L2.822,32.684 L2.915,33.378 L2.822,32.684 M5.226,57.350 L5.261,56.651 L5.226,57.350 L5.261,56.651 L5.226,57.350 L5.315,55.553 L6.742,54.455 L8.538,54.571 L7.840,54.526 L8.538,54.571 L7.840,54.526 L8.538,54.571 M30.969,66.050 L31.000,65.350 L30.969,66.050 L31.000,65.350 L30.969,66.050 L31.049,64.251 L31.264,62.464 L31.840,60.759 L31.616,61.422 L31.840,60.759 L31.616,61.422 L31.840,60.759 M70.784,70.283 L70.567,69.617 L70.784,70.283 L70.567,69.617 L70.784,70.283 L70.227,68.571 L68.483,69.017 L67.677,67.408 L66.251,66.309 L66.805,66.736 L66.251,66.309 L66.805,66.736 L66.251,66.309 M50.626,73.537 L51.320,73.445 L50.626,73.537 L51.320,73.445 L50.626,73.537 L52.410,73.300 L52.868,71.559 L53.056,69.769 L52.967,67.971 L53.001,68.670 L52.967,67.971 L53.001,68.670 L52.967,67.971 M83.008,57.443 L83.682,57.631 L83.008,57.443 L83.682,57.631 L83.008,57.443 L84.742,57.925 L86.348,58.738 L87.930,59.597 L87.315,59.263 L87.930,59.597 L87.315,59.263 L87.930,59.597 M90.294,42.461 L90.601,41.832 L90.294,42.461 L90.601,41.832 L90.294,42.461 L91.085,40.844 L89.286,40.891 L87.487,40.832 L85.881,41.647 L86.506,41.330 L85.881,41.647 L86.506,41.330 L85.881,41.647 M86.839,66.789 L87.493,67.040 L86.839,66.789 L87.493,67.040 L86.839,66.789 L88.520,67.434 L89.934,66.321 L89.384,66.754 L89.934,66.321 L89.384,66.754 L89.934,66.321 M16.397,58.396 L15.822,57.998 L16.397,58.396 L15.822,57.998 L16.397,58.396 L14.917,57.371 L13.890,55.893 L13.779,54.097 L13.822,54.795 L13.779,54.097 L13.822,54.795 L13.779,54.097 M24.241,81.593 L24.864,81.912 L24.241,81.593 L24.864,81.912 L24.241,81.593 L25.842,82.414 L25.742,80.617 L27.542,80.639 L27.543,78.839 L27.543,79.539 L27.543,78.839 L27.543,79.539 L27.543,78.839 M65.232,77.552 L64.535,77.494 L65.232,77.552 L64.535,77.494 L65.232,77.552 L63.439,77.401 L61.673,77.754 L62.360,77.617 L61.673,77.754 L62.360,77.617 L61.673,77.754 M56.595,81.963 L57.158,81.547 L56.595,81.963 L57.158,81.547 L56.595,81.963 L58.042,80.893 L56.402,80.153 L55.525,78.581 L53.956,77.699 L54.566,78.042 L53.956,77.699 L54.566,78.042 L53.956,77.699 M41.875,81.651 L41.360,82.125 L41.875,81.651 L41.360,82.125 L41.875,81.651 L40.550,82.870 L38.752,82.782 L36.972,83.048 L37.664,82.944 L36.972,83.048 L37.664,82.944 L36.972,83.048 M74.082,80.932 L74.107,80.232 L74.082,80.932 L74.107,80.232 L74.082,80.932 L74.147,79.133 L74.919,77.507 L75.150,75.722 L75.060,76.416 L75.150,75.722 L75.060,76.416 L75.150,75.722 M66.386,85.937 L66.091,85.302 L66.386,85.937 L66.091,85.302 L66.386,85.937 L65.626,84.305 L63.956,83.633 L62.321,84.384 L62.957,84.092 L62.321,84.384 L62.957,84.092 L62.321,84.384 M3.364,48.033 L2.669,48.119 L3.364,48.033 L2.669,48.119 L3.364,48.033 L1.577,48.254 L2.272,48.168 L1.577,48.254 L2.272,48.168 L1.577,48.254 M80.557,74.996 L79.898,75.232 L80.557,74.996 L79.898,75.232 L80.557,74.996 L78.862,75.603 L77.341,76.566 L77.932,76.191 L77.341,76.566 L77.932,76.191 L77.341,76.566 M41.573,69.889 L40.915,70.128 L41.573,69.889 L40.915,70.128 L41.573,69.889 L39.881,70.503 L38.433,69.434 L37.939,67.703 L37.333,66.008 L38.198,64.430 L37.862,65.044 L38.198,64.430 L37.862,65.044 L38.198,64.430 M49.410,88.250 L48.735,88.064 L49.410,88.250 L48.735,88.064 L49.410,88.250 L47.675,87.771 L48.876,86.430 L50.072,85.085 L51.371,83.839 L50.866,84.323 L51.371,83.839 L50.866,84.323 L51.371,83.839 M90.784,54.811 L90.808,54.112 L90.784,54.811 L90.808,54.112 L90.784,54.811 L90.845,53.012 L90.100,51.374 L90.390,52.011 L90.100,51.374 L90.390,52.011 L90.100,51.374 M30.151,54.426 L29.459,54.323 L30.151,54.426 L29.459,54.323 L30.151,54.426 L28.371,54.162 L27.769,52.465 L28.109,50.697 L27.877,48.912 L27.967,49.606 L27.877,48.912 L27.967,49.606 L27.877,48.912 M33.089,76.947 L32.638,77.482 L33.089,76.947 L32.638,77.482 L33.089,76.947 L31.929,78.323 L30.812,79.735 L31.247,79.186 L30.812,79.735 L31.247,79.186 L30.812,79.735 M58.492,90.123 L59.104,89.784 L58.492,90.123 L59.104,89.784 L58.492,90.123 L60.067,89.251 L61.867,89.273 L61.167,89.264 L61.867,89.273 L61.167,89.264 L61.867,89.273 M79.010,65.661 L78.319,65.546 L79.010,65.661 L78.319,65.546 L79.010,65.661 L77.234,65.366 L77.538,63.592 L78.854,62.364 L78.696,60.570 L78.757,61.268 L78.696,60.570 L78.757,61.268 L78.696,60.570 M40.711,90.656 L40.353,90.054 L40.711,90.656 L40.353,90.054 L40.711,90.656 L39.789,89.110 L41.348,88.209 L43.084,87.733 L42.408,87.918 L43.084,87.733 L42.408,87.918 L43.084,87.733 M9.246,67.001 L8.685,66.583 L9.246,67.001 L8.685,66.583 L9.246,67.001 L7.802,65.926 L6.938,64.347 L6.880,62.548 L6.902,63.248 L6.880,62.548 L6.902,63.248 L6.880,62.548 M20.811,68.742 L20.160,68.486 L20.811,68.742 L20.160,68.486 L20.811,68.742 L19.136,68.083 L17.614,67.123 L17.086,65.402 L17.852,63.773 L19.650,63.700 L21.295,64.432 L23.092,64.535 L24.571,63.509 L24.419,61.715 L24.478,62.413 L24.419,61.715 L24.478,62.413 L24.419,61.715 M38.970,58.027 L38.321,58.291 L38.970,58.027 L38.321,58.291 L38.970,58.027 L37.302,58.705 L35.505,58.800 L34.545,57.277 L34.918,57.869 L34.545,57.277 L34.918,57.869 L34.545,57.277 M14.952,76.684 L14.863,75.990 L14.952,76.684 L14.863,75.990 L14.952,76.684 L14.725,74.898 L15.330,73.203 L15.095,73.863 L15.330,73.203 L15.095,73.863 L15.330,73.203 M31.983,88.069 L32.683,88.087 L31.983,88.069 L32.683,88.087 L31.983,88.069 L33.782,88.116 L35.569,88.336 L34.874,88.250 L35.569,88.336 L34.874,88.250 L35.569,88.336"/>
</svg>
