<svg xmlns="http://www.w3.org/2000/svg" viewBox="0 -2.61 46.752 46.752" width="256" height="256">
  <title>shell</title>
  <rect x="0" y="-2.61" width="46.752" height="46.752" fill="#f5efe4"/>
  <path fill="none" stroke="#c8472f" stroke-width="0.4" stroke-linecap="round" stroke-linejoin="round" d="M26.314,16.139 L26.314,16.139 L26.857,16.207 L27.366,16.407 L27.811,16.727 L28.162,17.146 L28.400,17.639 L28.508,18.175 L28.481,18.721 L28.294,19.328 L27.963,19.869 L27.508,20.313 L26.959,20.630 L26.348,20.802 L25.713,20.818 L25.095,20.676 L24.440,20.341 L23.888,19.853 L23.473,19.245 L23.221,18.553 L23.148,17.821 L23.258,17.093 L23.544,16.414 L24.059,15.734 L24.727,15.201 L25.505,14.850 L26.346,14.702 L27.198,14.766 L28.007,15.038 L28.725,15.501 L29.399,16.227 L29.872,17.097 L30.117,18.057 L30.117,19.048 L29.872,20.008 L29.399,20.878 L28.725,21.604 L27.759,22.227 L26.670,22.593 L25.524,22.679 L24.393,22.480 L23.345,22.007 L22.447,21.291 L21.753,20.375 L21.235,19.146 L21.036,17.828 L21.169,16.502 L21.625,15.249 L22.376,14.148 L23.375,13.266 L24.562,12.658 L26.069,12.314 L27.615,12.352 L29.103,12.771 L30.442,13.544 L31.549,14.624 L32.356,15.943 L32.811,17.421 L32.901,19.212 L32.545,20.970 L31.767,22.586 L30.614,23.960 L29.158,25.007 L27.488,25.663 L25.708,25.886 L23.644,25.627 L21.707,24.867 L20.018,23.652 L18.680,22.058 L17.778,20.184 L17.365,18.144 L17.469,16.066 L18.180,13.760 L19.439,11.700 L21.167,10.015 L23.257,8.808 L25.580,8.155 L27.993,8.095 L30.346,8.632 L32.545,9.716 L34.456,11.250 L35.991,13.162 L37.075,15.360 L37.657,17.741 L37.711,20.192 L37.233,22.596 L36.245,24.840 L34.940,26.704 L33.330,28.314 L31.465,29.620 L29.402,30.582 L27.203,31.171 L24.936,31.369 L22.668,31.171 L20.469,30.582 L18.406,29.620 L16.541,28.314 L14.830,26.630 L13.407,24.696 L12.306,22.562 L11.557,20.281 L11.178,17.910 L11.178,15.509 L11.557,13.138 L12.306,10.857 L13.407,8.723 L14.830,6.789 L16.541,5.105 L18.445,3.714 L20.517,2.591 L22.722,1.755 L25.018,1.221 L27.365,1.000 L29.721,1.095 L32.042,1.504 L34.288,2.221 L36.418,3.231 L38.393,4.518 L40.179,6.057 L41.742,7.822 L43.055,9.780 L44.119,11.898 L44.930,14.126 L45.476,16.432 L45.752,18.787 L45.752,21.157 L45.476,23.512 L44.930,25.818 L44.119,28.046 L43.055,30.164 L41.752,32.145 L40.229,33.960 L38.505,35.587 L36.603,37.003 L34.550,38.188 L32.374,39.127 L30.054,39.839 L27.673,40.309 L25.257,40.533 L22.831,40.508 L20.420,40.235 L18.049,39.715 L15.745,38.956 L13.530,37.965 L11.428,36.751 L9.462,35.329 L7.652,33.713 L6.018,31.920 L4.575,29.968 L3.341,27.879 L2.326,25.675 L1.543,23.378 L1.000,21.013 L1.157,21.695 L1.000,21.013 L1.157,21.695 L1.000,21.013"/>
</svg>
