<svg xmlns="http://www.w3.org/2000/svg" viewBox="0 -26.896 85.644 85.644" width="256" height="256">
  <title>sinewaves</title>
  <rect x="0" y="-26.896" width="85.644" height="85.644" fill="#f5efe4"/>
  <path fill="none" stroke="#3a4e8c" stroke-width="0.4" stroke-linecap="round" stroke-linejoin="round" d="M4.127,15.946 L4.127,15.946 L5.000,16.434 L5.428,16.693 L5.855,16.953 L6.278,17.219 L6.701,17.485 L7.554,18.007 L7.990,18.252 L8.426,18.497 L8.877,18.714 L9.327,18.932 L10.274,19.253 L10.765,19.347 L11.256,19.440 L12.256,19.412 L13.231,19.192 L14.136,18.766 L14.970,18.215 L15.354,17.894 L15.737,17.572 L16.091,17.219 L16.445,16.866 L17.106,16.116 L17.419,15.726 L17.731,15.336 L18.329,14.534 L18.618,14.126 L18.907,13.718 L19.189,13.305 L19.471,12.892 L19.749,12.477 L20.027,12.061 L20.302,11.643 L20.577,11.226 L21.128,10.391 L21.681,9.558 L22.245,8.733 L22.535,8.325 L22.825,7.918 L23.126,7.519 L23.427,7.119 L24.060,6.345 L24.736,5.608 L25.103,5.268 L25.470,4.929 L26.284,4.348 L26.743,4.150 L27.202,3.952 L27.697,3.883 L28.193,3.814 L28.678,3.932 L29.164,4.050 L29.602,4.291 L30.041,4.532 L30.803,5.180 L31.471,5.923 L32.076,6.719 L32.351,7.137 L32.626,7.555 L33.139,8.413 L33.625,9.287 L34.091,10.172 L34.534,11.068 L34.748,11.520 L34.962,11.972 L35.172,12.426 L35.382,12.880 L35.789,13.793 L36.191,14.709 L36.588,15.626 L36.981,16.546 L37.372,17.466 L37.763,18.387 L38.156,19.306 L38.551,20.225 L38.953,21.141 L39.360,22.054 L39.568,22.509 L39.776,22.964 L40.206,23.866 L40.648,24.763 L41.108,25.651 L41.597,26.523 L41.856,26.951 L42.115,27.379 L42.393,27.794 L42.672,28.209 L43.283,29.001 L43.972,29.726 L44.766,30.334 L45.679,30.742 L46.679,30.763 L47.624,30.437 L48.031,30.146 L48.438,29.856 L48.793,29.503 L49.147,29.151 L49.464,28.764 L49.781,28.377 L50.071,27.970 L50.360,27.562 L50.629,27.140 L50.898,26.719 L51.148,26.286 L51.399,25.853 L51.639,25.415 L51.879,24.976 L52.111,24.534 L52.344,24.091 L52.568,23.644 L52.792,23.197 L53.229,22.297 L53.660,21.395 L53.872,20.942 L54.084,20.489 L54.505,19.582 L54.925,18.675 L55.136,18.221 L55.346,17.768 L55.558,17.315 L55.770,16.862 L56.198,15.958 L56.634,15.058 L57.080,14.163 L57.308,13.719 L57.536,13.274 L57.773,12.833 L58.009,12.392 L58.257,11.958 L58.505,11.524 L58.765,11.097 L59.025,10.670 L59.301,10.253 L59.576,9.836 L60.169,9.030 L60.816,8.268 L61.177,7.921 L61.537,7.575 L61.942,7.282 L62.348,6.989 L62.801,6.779 L63.255,6.568 L64.246,6.437 L65.237,6.572 L65.696,6.770 L66.156,6.967 L66.579,7.232 L67.003,7.498 L67.787,8.119 L68.154,8.459 L68.520,8.799 L68.870,9.156 L69.219,9.514 L69.897,10.249 L70.562,10.996 L70.893,11.371 L71.224,11.746 L71.889,12.493 L72.565,13.229 L73.261,13.947 L73.986,14.636 L74.750,15.282 L75.560,15.867 L76.435,16.352 L76.902,16.529 L77.370,16.706 L78.353,16.889 L79.353,16.872 L79.844,16.775 L80.334,16.678 L81.276,16.343 L82.127,15.946 L81.493,16.242 L82.127,15.946 L81.493,16.242 L82.127,15.946"/>
  <path fill="none" stroke="#d9a441" stroke-width="0.4" stroke-linecap="round" stroke-linejoin="round" d="M2.186,15.946 L2.654,15.772 L2.186,15.946 L2.654,15.772 L2.186,15.946 L2.654,15.772 L3.123,15.598 L4.008,15.132 L4.849,14.590 L5.257,14.301 L5.665,14.012 L6.072,13.722 L6.479,13.432 L6.895,13.155 L7.311,12.878 L7.749,12.637 L8.188,12.396 L9.125,12.046 L9.620,11.982 L10.116,11.918 L10.608,12.006 L11.101,12.094 L12.001,12.529 L12.393,12.840 L12.785,13.150 L13.133,13.509 L13.481,13.868 L13.796,14.256 L14.111,14.644 L14.402,15.051 L14.692,15.458 L14.966,15.877 L15.239,16.296 L15.497,16.724 L15.756,17.152 L16.255,18.018 L16.499,18.455 L16.744,18.891 L17.226,19.766 L17.467,20.205 L17.707,20.643 L18.193,21.517 L18.441,21.952 L18.689,22.386 L18.944,22.816 L19.199,23.246 L19.733,24.091 L20.022,24.500 L20.311,24.908 L20.627,25.294 L20.944,25.681 L21.662,26.378 L22.093,26.630 L22.525,26.883 L23.514,27.027 L24.448,26.669 L24.828,26.344 L25.208,26.019 L25.841,25.244 L26.115,24.827 L26.390,24.409 L26.885,23.540 L27.323,22.641 L27.740,21.732 L27.938,21.273 L28.137,20.814 L28.322,20.350 L28.508,19.885 L28.873,18.955 L29.047,18.486 L29.221,18.017 L29.393,17.547 L29.565,17.078 L29.900,16.136 L30.066,15.664 L30.233,15.193 L30.562,14.249 L30.891,13.304 L31.220,12.360 L31.552,11.417 L31.720,10.946 L31.888,10.475 L32.230,9.535 L32.580,8.598 L32.942,7.666 L33.314,6.738 L33.514,6.280 L33.714,5.821 L34.130,4.912 L34.357,4.467 L34.585,4.021 L35.094,3.161 L35.674,2.346 L36.373,1.631 L36.812,1.392 L37.251,1.153 L37.746,1.224 L38.241,1.296 L38.648,1.587 L39.055,1.877 L39.375,2.261 L39.695,2.645 L40.232,3.489 L40.710,4.367 L41.146,5.267 L41.342,5.727 L41.538,6.187 L41.917,7.113 L42.094,7.580 L42.271,8.048 L42.615,8.987 L42.945,9.931 L43.270,10.877 L43.427,11.351 L43.585,11.826 L43.898,12.775 L44.205,13.727 L44.512,14.679 L44.818,15.631 L45.123,16.583 L45.433,17.534 L45.742,18.485 L46.061,19.433 L46.380,20.381 L46.715,21.323 L47.051,22.264 L47.412,23.197 L47.597,23.662 L47.781,24.126 L47.980,24.585 L48.178,25.044 L48.606,25.948 L48.835,26.393 L49.064,26.837 L49.584,27.692 L49.889,28.087 L50.194,28.483 L50.564,28.820 L50.933,29.157 L51.409,29.311 L51.885,29.464 L52.373,29.356 L52.862,29.249 L53.254,28.938 L53.646,28.628 L53.970,28.248 L54.295,27.868 L54.861,27.043 L55.361,26.177 L55.593,25.734 L55.825,25.291 L56.046,24.843 L56.267,24.394 L56.476,23.940 L56.685,23.486 L56.887,23.028 L57.088,22.570 L57.484,21.652 L57.676,21.191 L57.869,20.729 L58.061,20.268 L58.253,19.806 L58.634,18.881 L59.017,17.958 L59.210,17.496 L59.402,17.035 L59.600,16.576 L59.797,16.116 L60.200,15.201 L60.614,14.291 L60.832,13.841 L61.051,13.391 L61.506,12.501 L61.987,11.624 L62.520,10.778 L62.814,10.373 L63.108,9.969 L63.442,9.597 L63.775,9.224 L64.551,8.594 L65.482,8.227 L65.982,8.221 L66.482,8.216 L67.412,8.582 L67.826,8.862 L68.241,9.142 L68.990,9.804 L69.684,10.524 L70.015,10.899 L70.346,11.273 L70.991,12.037 L71.312,12.420 L71.634,12.804 L72.285,13.562 L72.621,13.933 L72.957,14.303 L73.311,14.656 L73.664,15.010 L74.427,15.657 L74.844,15.933 L75.261,16.208 L76.174,16.617 L76.666,16.706 L77.158,16.795 L78.156,16.731 L78.635,16.589 L79.114,16.446 L80.023,16.028 L79.387,16.321 L80.023,16.028 L79.387,16.321 L80.023,16.028"/>
  <path fill="none" stroke="#8c4a6b" stroke-width="0.4" stroke-linecap="round" stroke-linejoin="round" d="M1.000,15.946 L1.499,15.920 L1.000,15.946 L1.499,15.920 L1.000,15.946 L1.499,15.920 L1.999,15.894 L2.955,15.602 L3.389,15.354 L3.824,15.106 L4.631,14.517 L5.015,14.197 L5.400,13.877 L6.152,13.217 L6.532,12.893 L6.913,12.569 L7.714,11.971 L8.584,11.477 L9.064,11.337 L9.544,11.196 L10.538,11.298 L10.987,11.518 L11.436,11.739 L12.181,12.406 L12.503,12.789 L12.824,13.172 L13.111,13.581 L13.398,13.991 L13.656,14.419 L13.915,14.847 L14.396,15.723 L14.627,16.167 L14.857,16.611 L15.302,17.506 L15.516,17.958 L15.731,18.410 L16.157,19.314 L16.581,20.220 L17.010,21.123 L17.229,21.573 L17.449,22.022 L17.673,22.469 L17.898,22.916 L18.381,23.791 L18.641,24.218 L18.901,24.645 L19.479,25.461 L19.818,25.829 L20.157,26.196 L20.578,26.466 L20.999,26.736 L21.999,26.737 L22.417,26.462 L22.834,26.188 L23.157,25.805 L23.479,25.423 L24.010,24.576 L24.478,23.692 L24.683,23.236 L24.888,22.780 L25.269,21.855 L25.630,20.923 L25.966,19.981 L26.295,19.036 L26.451,18.561 L26.607,18.086 L26.761,17.611 L26.915,17.135 L27.215,16.181 L27.512,15.226 L27.806,14.270 L28.099,13.314 L28.394,12.359 L28.690,11.404 L28.840,10.926 L28.989,10.449 L29.298,9.498 L29.608,8.548 L29.774,8.076 L29.940,7.604 L30.274,6.662 L30.642,5.732 L30.835,5.270 L31.027,4.809 L31.452,3.904 L31.946,3.034 L32.533,2.225 L32.918,1.906 L33.304,1.588 L33.803,1.568 L34.303,1.548 L34.696,1.857 L35.089,2.166 L35.384,2.570 L35.679,2.973 L36.169,3.845 L36.581,4.757 L36.956,5.683 L37.132,6.152 L37.307,6.620 L37.629,7.567 L37.940,8.517 L38.235,9.472 L38.378,9.951 L38.521,10.431 L38.661,10.911 L38.801,11.391 L39.072,12.353 L39.342,13.316 L39.606,14.281 L39.869,15.246 L40.131,16.210 L40.394,17.175 L40.656,18.140 L40.925,19.104 L41.059,19.585 L41.193,20.067 L41.471,21.028 L41.612,21.507 L41.753,21.987 L42.043,22.944 L42.196,23.420 L42.349,23.896 L42.662,24.846 L43.004,25.785 L43.184,26.252 L43.363,26.719 L43.762,27.636 L44.218,28.526 L44.749,29.373 L45.438,30.098 L46.384,30.423 L47.278,29.976 L47.604,29.597 L47.931,29.218 L48.463,28.372 L48.682,27.922 L48.901,27.473 L49.306,26.558 L49.683,25.632 L50.027,24.693 L50.196,24.223 L50.365,23.752 L50.523,23.278 L50.680,22.803 L50.837,22.328 L50.993,21.854 L51.144,21.377 L51.295,20.900 L51.445,20.423 L51.594,19.946 L51.890,18.991 L52.184,18.035 L52.478,17.079 L52.626,16.602 L52.775,16.124 L53.073,15.170 L53.380,14.218 L53.534,13.742 L53.688,13.267 L54.014,12.321 L54.178,11.849 L54.343,11.377 L54.699,10.442 L55.068,9.513 L55.268,9.055 L55.469,8.597 L55.692,8.149 L55.915,7.702 L56.412,6.834 L57.001,6.026 L57.379,5.699 L57.758,5.373 L58.241,5.244 L58.725,5.115 L59.188,5.302 L59.652,5.489 L60.018,5.830 L60.384,6.171 L60.690,6.566 L60.997,6.961 L61.539,7.801 L62.033,8.671 L62.493,9.558 L62.716,10.006 L62.940,10.453 L63.157,10.904 L63.374,11.354 L63.800,12.259 L64.014,12.711 L64.227,13.163 L64.442,13.614 L64.657,14.066 L65.099,14.963 L65.555,15.853 L66.027,16.734 L66.283,17.164 L66.539,17.593 L66.818,18.008 L67.097,18.423 L67.408,18.815 L67.718,19.207 L68.076,19.557 L68.433,19.906 L69.275,20.445 L70.256,20.639 L71.243,20.477 L72.135,20.025 L72.955,19.452 L73.341,19.135 L73.728,18.818 L74.106,18.490 L74.483,18.163 L75.248,17.518 L76.047,16.917 L76.475,16.659 L76.903,16.401 L77.371,16.224 L77.839,16.047 L78.834,15.946 L78.137,16.017 L78.834,15.946 L78.137,16.017 L78.834,15.946"/>
  <path fill="none" stroke="#3a4e8c" stroke-width="0.4" stroke-linecap="round" stroke-linejoin="round" d="M2.233,15.946 L2.909,15.763 L2.233,15.946 L2.909,15.763 L2.233,15.946 L3.198,15.685 L3.698,15.675 L4.198,15.665 L5.153,15.963 L5.589,16.208 L6.025,16.453 L6.813,17.068 L7.177,17.411 L7.540,17.754 L8.237,18.471 L8.581,18.835 L8.924,19.198 L9.622,19.914 L10.355,20.595 L11.152,21.198 L12.053,21.632 L12.552,21.663 L13.051,21.694 L13.987,21.341 L14.369,21.018 L14.750,20.695 L15.072,20.312 L15.394,19.929 L15.675,19.516 L15.957,19.103 L16.208,18.671 L16.459,18.238 L16.689,17.794 L16.919,17.350 L17.138,16.901 L17.357,16.451 L17.566,15.997 L17.775,15.543 L17.976,15.085 L18.176,14.627 L18.374,14.168 L18.571,13.708 L18.765,13.247 L18.959,12.787 L19.348,11.865 L19.737,10.944 L20.138,10.028 L20.547,9.115 L20.976,8.212 L21.438,7.325 L21.688,6.892 L21.938,6.459 L22.220,6.046 L22.502,5.633 L23.187,4.905 L24.078,4.450 L24.570,4.535 L25.063,4.619 L25.807,5.288 L26.100,5.693 L26.393,6.098 L26.882,6.970 L27.091,7.425 L27.300,7.879 L27.692,8.799 L28.047,9.734 L28.385,10.675 L28.545,11.148 L28.705,11.622 L29.014,12.573 L29.311,13.528 L29.458,14.006 L29.605,14.484 L29.747,14.963 L29.889,15.443 L30.031,15.922 L30.173,16.402 L30.452,17.362 L30.731,18.322 L31.012,19.282 L31.153,19.762 L31.294,20.241 L31.580,21.200 L31.726,21.678 L31.872,22.156 L32.020,22.633 L32.168,23.111 L32.481,24.061 L32.796,25.010 L33.144,25.947 L33.501,26.881 L33.903,27.797 L34.353,28.690 L34.874,29.544 L35.549,30.281 L36.495,30.606 L36.942,30.381 L37.388,30.156 L37.702,29.767 L38.015,29.378 L38.502,28.504 L38.712,28.051 L38.922,27.597 L39.117,27.136 L39.312,26.676 L39.649,25.734 L39.980,24.791 L40.279,23.837 L40.579,22.883 L40.855,21.921 L41.131,20.960 L41.398,19.997 L41.661,19.032 L41.922,18.066 L42.178,17.100 L42.434,16.133 L42.691,15.167 L42.949,14.200 L43.207,13.234 L43.340,12.752 L43.473,12.270 L43.606,11.788 L43.738,11.306 L44.015,10.345 L44.297,9.386 L44.589,8.429 L44.899,7.479 L45.219,6.531 L45.572,5.595 L45.951,4.670 L46.160,4.216 L46.369,3.762 L46.624,3.332 L46.878,2.901 L47.509,2.125 L48.370,1.617 L49.314,1.947 L50.007,2.669 L50.549,3.509 L50.783,3.951 L51.017,4.393 L51.414,5.311 L51.602,5.774 L51.790,6.237 L51.964,6.706 L52.139,7.174 L52.470,8.118 L52.789,9.066 L53.098,10.017 L53.399,10.971 L53.696,11.925 L53.989,12.881 L54.136,13.359 L54.282,13.838 L54.428,14.316 L54.575,14.794 L54.721,15.272 L54.868,15.750 L55.168,16.704 L55.319,17.180 L55.469,17.657 L55.784,18.607 L55.943,19.081 L56.102,19.555 L56.271,20.025 L56.441,20.495 L56.614,20.965 L56.787,21.434 L57.170,22.357 L57.571,23.273 L57.797,23.719 L58.023,24.165 L58.548,25.016 L59.178,25.793 L59.988,26.380 L60.988,26.400 L61.416,26.142 L61.845,25.885 L62.526,25.153 L63.103,24.336 L63.621,23.480 L64.104,22.605 L64.559,21.714 L64.997,20.815 L65.213,20.364 L65.429,19.914 L65.857,19.010 L66.290,18.108 L66.728,17.210 L66.954,16.763 L67.179,16.317 L67.657,15.438 L68.163,14.576 L68.710,13.739 L69.321,12.947 L70.030,12.242 L70.871,11.701 L71.356,11.580 L71.841,11.458 L72.825,11.637 L73.277,11.851 L73.729,12.064 L74.137,12.353 L74.545,12.642 L74.932,12.959 L75.320,13.275 L75.700,13.599 L76.081,13.923 L76.467,14.241 L76.854,14.558 L77.665,15.143 L78.106,15.378 L78.548,15.612 L79.026,15.758 L79.504,15.905 L80.233,15.946 L79.534,15.906 L80.233,15.946 L79.534,15.906 L80.233,15.946"/>
  <path fill="none" stroke="#d9a441" stroke-width="0.4" stroke-linecap="round" stroke-linejoin="round" d="M1.107,15.946 L1.806,15.909 L1.107,15.946 L1.806,15.909 L1.107,15.946 L2.105,15.892 L2.600,15.966 L3.095,16.040 L3.562,16.216 L4.030,16.393 L4.469,16.633 L4.908,16.872 L5.729,17.442 L6.119,17.755 L6.509,18.069 L6.886,18.397 L7.264,18.725 L7.635,19.059 L8.007,19.394 L8.752,20.060 L9.513,20.710 L9.911,21.012 L10.309,21.315 L10.734,21.579 L11.158,21.842 L12.073,22.246 L13.059,22.416 L13.556,22.361 L14.052,22.305 L14.964,21.894 L15.367,21.598 L15.770,21.302 L16.481,20.599 L17.118,19.828 L17.701,19.015 L17.972,18.595 L18.243,18.175 L18.500,17.746 L18.756,17.317 L19.000,16.880 L19.243,16.444 L19.710,15.559 L20.167,14.670 L20.391,14.223 L20.615,13.776 L21.054,12.877 L21.492,11.978 L21.929,11.079 L22.371,10.182 L22.819,9.288 L23.275,8.398 L23.749,7.517 L24.245,6.649 L24.506,6.223 L24.768,5.796 L25.329,4.969 L25.639,4.576 L25.948,4.183 L26.301,3.829 L26.653,3.474 L27.481,2.913 L27.962,2.776 L28.443,2.639 L29.416,2.868 L30.253,3.415 L30.947,4.135 L31.243,4.538 L31.539,4.941 L31.802,5.366 L32.065,5.792 L32.548,6.667 L32.774,7.113 L33.001,7.559 L33.418,8.468 L33.819,9.384 L34.206,10.306 L34.391,10.771 L34.575,11.235 L34.757,11.701 L34.940,12.166 L35.115,12.634 L35.291,13.103 L35.466,13.571 L35.641,14.040 L35.983,14.979 L36.325,15.919 L36.664,16.859 L37.005,17.800 L37.346,18.740 L37.690,19.679 L37.864,20.147 L38.038,20.616 L38.394,21.550 L38.575,22.017 L38.755,22.483 L39.132,23.409 L39.324,23.871 L39.516,24.333 L39.923,25.246 L40.351,26.150 L40.800,27.043 L41.048,27.478 L41.296,27.912 L41.847,28.746 L42.160,29.137 L42.472,29.527 L42.841,29.864 L43.210,30.201 L43.662,30.417 L44.113,30.632 L45.112,30.585 L45.999,30.123 L46.721,29.431 L47.032,29.039 L47.343,28.648 L47.620,28.231 L47.896,27.815 L48.144,27.381 L48.392,26.946 L48.624,26.504 L48.857,26.061 L49.300,25.165 L49.719,24.257 L50.124,23.342 L50.521,22.424 L50.904,21.501 L51.094,21.038 L51.284,20.576 L51.471,20.112 L51.659,19.649 L52.033,18.721 L52.406,17.794 L52.783,16.867 L52.972,16.404 L53.161,15.942 L53.354,15.480 L53.548,15.019 L53.941,14.100 L54.343,13.184 L54.765,12.277 L54.982,11.827 L55.199,11.377 L55.655,10.487 L56.148,9.617 L56.678,8.769 L56.968,8.361 L57.258,7.954 L57.912,7.198 L58.669,6.544 L59.550,6.070 L60.046,6.012 L60.543,5.954 L61.029,6.072 L61.515,6.190 L61.944,6.446 L62.374,6.702 L62.756,7.024 L63.138,7.347 L63.487,7.705 L63.835,8.064 L64.159,8.445 L64.484,8.825 L65.100,9.612 L65.399,10.014 L65.697,10.415 L66.282,11.226 L66.573,11.633 L66.863,12.040 L67.155,12.445 L67.447,12.851 L67.745,13.253 L68.042,13.655 L68.350,14.049 L68.657,14.444 L68.978,14.827 L69.300,15.210 L69.640,15.576 L69.980,15.943 L70.715,16.621 L71.118,16.917 L71.521,17.213 L71.962,17.448 L72.404,17.683 L73.362,17.969 L73.861,17.992 L74.361,18.015 L75.346,17.846 L76.288,17.509 L77.188,17.074 L78.056,16.578 L78.914,16.063 L79.107,15.946 L78.914,16.063 L79.107,15.946 L78.914,16.063 L79.107,15.946"/>
  <path fill="none" stroke="#8c4a6b" stroke-width="0.4" stroke-linecap="round" stroke-linejoin="round" d="M5.678,15.946 L6.176,15.989 L5.678,15.946 L6.176,15.989 L5.678,15.946 L6.176,15.989 L6.674,16.032 L7.149,16.188 L7.624,16.344 L8.057,16.594 L8.490,16.845 L9.300,17.432 L10.073,18.066 L10.452,18.392 L10.832,18.717 L11.602,19.355 L12.413,19.941 L13.289,20.423 L14.252,20.690 L14.750,20.644 L15.248,20.597 L15.699,20.382 L16.151,20.167 L16.908,19.514 L17.565,18.760 L18.149,17.948 L18.684,17.103 L19.173,16.231 L19.407,15.789 L19.640,15.347 L19.867,14.901 L20.093,14.455 L20.531,13.556 L20.748,13.105 L20.964,12.654 L21.179,12.203 L21.394,11.752 L21.611,11.301 L21.827,10.851 L22.271,9.954 L22.727,9.064 L23.201,8.184 L23.460,7.756 L23.719,7.329 L24.288,6.506 L24.614,6.127 L24.940,5.748 L25.335,5.441 L25.729,5.134 L26.711,4.944 L27.630,5.337 L28.341,6.040 L28.908,6.864 L29.396,7.737 L29.839,8.633 L30.238,9.551 L30.609,10.479 L30.787,10.946 L30.965,11.414 L31.298,12.356 L31.462,12.829 L31.626,13.301 L31.782,13.776 L31.939,14.251 L32.249,15.202 L32.400,15.678 L32.552,16.155 L32.702,16.632 L32.852,17.109 L33.151,18.063 L33.300,18.540 L33.449,19.017 L33.600,19.494 L33.750,19.971 L34.053,20.924 L34.207,21.400 L34.360,21.876 L34.519,22.350 L34.677,22.824 L34.999,23.771 L35.340,24.711 L35.691,25.647 L35.880,26.110 L36.069,26.573 L36.480,27.485 L36.922,28.382 L37.183,28.808 L37.445,29.234 L38.084,30.004 L38.513,30.259 L38.943,30.515 L39.924,30.324 L40.668,29.655 L41.228,28.827 L41.465,28.386 L41.701,27.946 L41.914,27.493 L42.128,27.041 L42.498,26.112 L42.852,25.177 L43.179,24.232 L43.337,23.758 L43.495,23.283 L43.645,22.806 L43.795,22.329 L44.090,21.374 L44.372,20.414 L44.653,19.455 L44.926,18.493 L45.062,18.012 L45.198,17.530 L45.469,16.568 L45.738,15.605 L46.008,14.642 L46.145,14.161 L46.281,13.680 L46.554,12.718 L46.836,11.758 L47.120,10.800 L47.266,10.321 L47.413,9.843 L47.716,8.891 L48.029,7.941 L48.363,6.998 L48.538,6.530 L48.713,6.061 L49.092,5.136 L49.304,4.683 L49.516,4.230 L49.751,3.789 L49.986,3.348 L50.545,2.519 L51.293,1.855 L52.278,1.683 L53.153,2.167 L53.797,2.932 L54.316,3.786 L54.770,4.677 L55.190,5.585 L55.572,6.509 L55.933,7.442 L56.280,8.380 L56.611,9.323 L56.773,9.796 L56.935,10.269 L57.251,11.218 L57.408,11.693 L57.564,12.168 L57.719,12.643 L57.874,13.118 L58.183,14.069 L58.339,14.545 L58.494,15.020 L58.807,15.970 L59.126,16.918 L59.288,17.390 L59.450,17.863 L59.784,18.806 L60.130,19.744 L60.312,20.210 L60.493,20.676 L60.871,21.602 L61.079,22.056 L61.288,22.511 L61.734,23.406 L62.226,24.276 L62.816,25.084 L63.529,25.785 L64.460,26.149 L64.954,26.069 L65.447,25.990 L65.851,25.695 L66.255,25.400 L66.929,24.661 L67.522,23.856 L68.062,23.014 L68.312,22.581 L68.562,22.149 L69.046,21.273 L69.518,20.392 L69.751,19.949 L69.984,19.507 L70.451,18.623 L70.689,18.183 L70.926,17.743 L71.411,16.868 L71.665,16.437 L71.918,16.006 L72.189,15.586 L72.460,15.166 L72.753,14.761 L73.046,14.355 L73.370,13.974 L73.694,13.594 L74.430,12.917 L75.285,12.399 L76.262,12.183 L76.759,12.237 L77.256,12.292 L77.718,12.483 L78.180,12.674 L78.610,12.929 L79.040,13.184 L79.857,13.761 L80.661,14.355 L81.070,14.642 L81.480,14.929 L82.336,15.446 L83.261,15.826 L83.678,15.946 L83.261,15.826 L83.678,15.946 L83.261,15.826 L83.678,15.946"/>
  <path fill="none" stroke="#3a4e8c" stroke-width="0.4" stroke-linecap="round" stroke-linejoin="round" d="M3.413,15.946 L3.911,15.900 L3.413,15.946 L3.911,15.900 L3.413,15.946 L3.911,15.900 L4.408,15.854 L4.887,15.708 L5.365,15.561 L6.248,15.092 L7.077,14.534 L7.868,13.921 L8.252,13.601 L8.636,13.281 L9.402,12.638 L9.794,12.327 L10.186,12.017 L10.596,11.731 L11.006,11.445 L11.885,10.968 L12.847,10.696 L13.847,10.694 L14.316,10.868 L14.785,11.042 L15.613,11.602 L15.973,11.949 L16.333,12.297 L16.968,13.069 L17.256,13.478 L17.543,13.887 L17.810,14.310 L18.077,14.733 L18.581,15.596 L19.064,16.472 L19.526,17.359 L19.977,18.251 L20.423,19.146 L20.644,19.595 L20.865,20.044 L21.086,20.492 L21.308,20.940 L21.756,21.834 L22.212,22.724 L22.449,23.164 L22.687,23.604 L23.183,24.472 L23.446,24.898 L23.709,25.323 L24.280,26.144 L24.924,26.908 L25.686,27.556 L26.145,27.755 L26.604,27.954 L27.600,27.866 L28.021,27.597 L28.443,27.328 L28.785,26.964 L29.127,26.599 L29.704,25.782 L30.214,24.922 L30.676,24.035 L30.883,23.580 L31.091,23.125 L31.490,22.208 L31.865,21.281 L32.225,20.348 L32.574,19.411 L32.911,18.470 L33.243,17.527 L33.568,16.581 L33.729,16.107 L33.890,15.634 L34.050,15.160 L34.210,14.687 L34.369,14.213 L34.528,13.739 L34.849,12.791 L35.169,11.844 L35.496,10.899 L35.661,10.427 L35.825,9.955 L36.166,9.015 L36.511,8.076 L36.876,7.145 L37.062,6.681 L37.249,6.217 L37.653,5.303 L38.083,4.400 L38.314,3.956 L38.544,3.512 L38.809,3.088 L39.074,2.664 L39.693,1.879 L40.450,1.225 L40.937,1.113 L41.424,1.000 L41.895,1.168 L42.366,1.336 L43.096,2.020 L43.393,2.422 L43.689,2.825 L43.941,3.257 L44.192,3.689 L44.648,4.579 L45.073,5.484 L45.460,6.406 L45.646,6.871 L45.832,7.335 L46.187,8.270 L46.357,8.740 L46.528,9.210 L46.694,9.681 L46.861,10.152 L47.185,11.099 L47.505,12.046 L47.820,12.995 L47.976,13.470 L48.133,13.945 L48.445,14.895 L48.757,15.845 L49.072,16.794 L49.389,17.743 L49.711,18.689 L50.039,19.634 L50.208,20.105 L50.376,20.575 L50.723,21.513 L50.904,21.979 L51.086,22.445 L51.273,22.909 L51.460,23.373 L51.663,23.829 L51.867,24.286 L52.295,25.190 L52.762,26.074 L53.029,26.497 L53.296,26.919 L53.604,27.313 L53.912,27.707 L54.657,28.374 L55.596,28.718 L56.087,28.623 L56.578,28.528 L57.400,27.959 L58.073,27.219 L58.662,26.411 L59.184,25.558 L59.672,24.685 L59.903,24.242 L60.135,23.799 L60.357,23.351 L60.579,22.903 L60.792,22.451 L61.005,21.998 L61.425,21.091 L61.839,20.180 L62.045,19.725 L62.251,19.269 L62.664,18.359 L62.873,17.904 L63.082,17.450 L63.509,16.546 L63.945,15.646 L64.399,14.755 L64.639,14.316 L64.878,13.877 L65.131,13.446 L65.384,13.014 L65.927,12.175 L66.525,11.373 L66.864,11.006 L67.203,10.638 L67.597,10.331 L67.991,10.023 L68.902,9.611 L69.401,9.574 L69.900,9.537 L70.382,9.669 L70.864,9.800 L71.742,10.280 L72.539,10.883 L72.914,11.214 L73.289,11.544 L74.012,12.236 L74.368,12.587 L74.724,12.938 L75.442,13.634 L75.811,13.972 L76.180,14.309 L76.959,14.935 L77.797,15.481 L78.250,15.693 L78.703,15.906 L79.678,16.126 L80.678,16.110 L81.413,15.946 L80.730,16.099 L81.413,15.946 L80.730,16.099 L81.413,15.946"/>
  <path fill="none" stroke="#d9a441" stroke-width="0.4" stroke-linecap="round" stroke-linejoin="round" d="M6.644,15.946 L7.342,15.989 L6.644,15.946 L7.342,15.989 L6.644,15.946 L7.642,16.008 L8.627,15.835 L9.084,15.633 L9.541,15.431 L9.965,15.165 L10.389,14.900 L10.784,14.594 L11.180,14.289 L11.931,13.629 L12.667,12.952 L13.036,12.614 L13.406,12.277 L13.786,11.953 L14.166,11.628 L14.568,11.330 L14.970,11.033 L15.409,10.794 L15.848,10.554 L16.331,10.427 L16.815,10.300 L17.314,10.340 L17.812,10.379 L18.716,10.807 L19.105,11.121 L19.494,11.435 L19.829,11.806 L20.164,12.177 L20.756,12.983 L21.026,13.404 L21.295,13.825 L21.798,14.690 L22.037,15.129 L22.275,15.568 L22.725,16.462 L22.944,16.911 L23.163,17.361 L23.378,17.812 L23.593,18.264 L24.014,19.171 L24.435,20.078 L24.856,20.985 L25.285,21.888 L25.724,22.787 L25.949,23.233 L26.174,23.680 L26.414,24.118 L26.653,24.557 L27.167,25.415 L27.729,26.242 L28.368,27.012 L28.749,27.335 L29.131,27.658 L29.597,27.839 L30.063,28.021 L30.547,27.896 L31.031,27.772 L31.821,27.158 L32.450,26.380 L32.982,25.534 L33.457,24.654 L33.889,23.752 L34.279,22.831 L34.469,22.368 L34.658,21.906 L34.833,21.437 L35.009,20.969 L35.353,20.030 L35.681,19.086 L35.843,18.613 L36.004,18.139 L36.318,17.190 L36.630,16.240 L36.784,15.764 L36.937,15.288 L37.244,14.336 L37.549,13.384 L37.855,12.432 L38.167,11.482 L38.478,10.532 L38.802,9.585 L38.964,9.112 L39.126,8.639 L39.470,7.700 L39.643,7.231 L39.817,6.763 L40.195,5.837 L40.589,4.917 L41.014,4.012 L41.497,3.137 L42.046,2.301 L42.713,1.556 L43.575,1.050 L44.567,1.180 L44.960,1.489 L45.354,1.797 L45.970,2.585 L46.489,3.440 L46.952,4.326 L47.353,5.242 L47.545,5.703 L47.738,6.165 L47.917,6.632 L48.096,7.098 L48.438,8.038 L48.603,8.510 L48.768,8.982 L48.927,9.456 L49.086,9.930 L49.241,10.406 L49.397,10.881 L49.549,11.357 L49.702,11.833 L49.852,12.310 L50.002,12.787 L50.151,13.264 L50.300,13.742 L50.448,14.219 L50.595,14.697 L50.743,15.175 L50.891,15.652 L51.188,16.607 L51.485,17.562 L51.790,18.514 L52.096,19.467 L52.255,19.941 L52.414,20.415 L52.734,21.362 L52.904,21.832 L53.074,22.302 L53.418,23.241 L53.794,24.168 L53.988,24.629 L54.183,25.089 L54.397,25.541 L54.611,25.993 L54.851,26.432 L55.090,26.871 L55.632,27.711 L56.285,28.468 L57.119,29.021 L58.117,29.071 L58.549,28.818 L58.980,28.565 L59.326,28.204 L59.672,27.843 L59.963,27.436 L60.254,27.030 L60.771,26.174 L61.246,25.294 L61.462,24.843 L61.678,24.392 L61.887,23.938 L62.096,23.484 L62.499,22.568 L62.692,22.107 L62.886,21.646 L63.270,20.723 L63.647,19.797 L64.025,18.871 L64.213,18.408 L64.402,17.945 L64.786,17.021 L65.172,16.099 L65.373,15.641 L65.574,15.183 L65.987,14.273 L66.415,13.369 L66.877,12.482 L67.370,11.612 L67.638,11.190 L67.906,10.768 L68.508,9.969 L68.859,9.613 L69.210,9.257 L69.630,8.985 L70.049,8.712 L70.534,8.590 L71.018,8.467 L71.996,8.676 L72.876,9.150 L73.264,9.466 L73.652,9.781 L74.359,10.488 L74.694,10.860 L75.028,11.232 L75.351,11.613 L75.675,11.994 L76.315,12.763 L76.962,13.525 L77.295,13.898 L77.628,14.271 L78.331,14.982 L78.709,15.309 L79.087,15.636 L79.501,15.917 L79.914,16.198 L80.371,16.402 L80.828,16.605 L81.815,16.768 L82.810,16.678 L83.286,16.523 L83.761,16.368 L84.644,15.946 L84.012,16.248 L84.644,15.946 L84.012,16.248 L84.644,15.946"/>
  <path fill="none" stroke="#8c4a6b" stroke-width="0.4" stroke-linecap="round" stroke-linejoin="round" d="M6.093,15.946 L6.693,16.307 L6.093,15.946 L6.693,16.307 L6.093,15.946 L6.950,16.461 L7.814,16.965 L8.267,17.177 L8.719,17.390 L9.209,17.490 L9.699,17.591 L10.196,17.535 L10.693,17.480 L11.581,17.020 L11.966,16.701 L12.350,16.382 L12.688,16.013 L13.025,15.644 L13.638,14.853 L13.925,14.444 L14.213,14.035 L14.767,13.203 L15.315,12.366 L15.591,11.949 L15.867,11.532 L16.156,11.124 L16.444,10.716 L16.757,10.326 L17.070,9.936 L17.777,9.229 L18.649,8.739 L19.149,8.729 L19.649,8.718 L20.072,8.985 L20.495,9.252 L21.147,10.010 L21.691,10.849 L22.147,11.739 L22.568,12.646 L22.964,13.564 L23.325,14.497 L23.680,15.431 L24.016,16.373 L24.349,17.316 L24.674,18.262 L24.837,18.735 L24.999,19.207 L25.326,20.153 L25.654,21.097 L25.824,21.568 L25.994,22.038 L26.341,22.976 L26.524,23.441 L26.708,23.906 L27.100,24.826 L27.309,25.280 L27.517,25.735 L27.765,26.169 L28.013,26.603 L28.309,27.006 L28.606,27.408 L29.396,28.021 L29.891,27.945 L30.385,27.869 L31.092,27.162 L31.622,26.314 L32.066,25.418 L32.431,24.487 L32.784,23.552 L33.092,22.600 L33.400,21.649 L33.676,20.687 L33.952,19.726 L34.083,19.244 L34.215,18.762 L34.472,17.795 L34.728,16.828 L34.976,15.860 L35.224,14.891 L35.348,14.407 L35.473,13.922 L35.721,12.954 L35.969,11.985 L36.096,11.501 L36.224,11.018 L36.353,10.535 L36.481,10.052 L36.613,9.569 L36.745,9.087 L36.882,8.606 L37.020,8.126 L37.158,7.645 L37.296,7.164 L37.605,6.213 L37.915,5.262 L38.275,4.330 L38.654,3.404 L39.117,2.518 L39.709,1.712 L40.573,1.208 L41.446,1.697 L41.742,2.099 L42.039,2.502 L42.509,3.384 L42.692,3.850 L42.875,4.315 L43.225,5.252 L43.530,6.204 L43.679,6.681 L43.829,7.158 L44.096,8.122 L44.363,9.086 L44.614,10.054 L44.858,11.023 L44.980,11.508 L45.102,11.993 L45.219,12.479 L45.335,12.966 L45.568,13.938 L45.800,14.911 L46.029,15.884 L46.144,16.371 L46.259,16.858 L46.490,17.830 L46.608,18.316 L46.725,18.803 L46.959,19.775 L47.202,20.745 L47.326,21.229 L47.450,21.714 L47.698,22.682 L47.834,23.163 L47.970,23.645 L48.242,24.607 L48.391,25.084 L48.540,25.561 L48.853,26.511 L49.204,27.447 L49.585,28.372 L50.067,29.249 L50.686,30.033 L51.605,30.429 L52.422,29.852 L52.711,29.444 L53.001,29.036 L53.454,28.145 L53.836,27.221 L54.198,26.289 L54.354,25.814 L54.509,25.338 L54.664,24.863 L54.820,24.388 L55.101,23.428 L55.241,22.948 L55.381,22.468 L55.515,21.987 L55.650,21.505 L55.912,20.540 L56.173,19.575 L56.429,18.608 L56.684,17.641 L56.940,16.674 L57.069,16.191 L57.197,15.708 L57.455,14.742 L57.724,13.778 L57.992,12.815 L58.274,11.856 L58.564,10.899 L58.868,9.946 L59.195,9.001 L59.544,8.064 L59.929,7.141 L60.155,6.695 L60.381,6.249 L60.648,5.827 L60.916,5.404 L61.277,5.058 L61.638,4.713 L62.623,4.539 L63.428,5.133 L63.734,5.528 L64.040,5.924 L64.546,6.786 L64.983,7.686 L65.188,8.142 L65.394,8.597 L65.778,9.521 L65.961,9.986 L66.144,10.451 L66.503,11.385 L66.678,11.853 L66.852,12.322 L67.027,12.790 L67.201,13.259 L67.552,14.195 L67.728,14.663 L67.905,15.131 L68.088,15.596 L68.271,16.062 L68.648,16.988 L68.845,17.448 L69.042,17.907 L69.471,18.810 L69.700,19.255 L69.930,19.699 L70.185,20.129 L70.441,20.559 L71.054,21.348 L71.435,21.671 L71.817,21.995 L72.299,22.128 L72.781,22.261 L73.748,22.009 L74.150,21.711 L74.552,21.413 L75.255,20.702 L75.899,19.937 L76.516,19.150 L77.126,18.358 L77.748,17.575 L78.076,17.197 L78.404,16.820 L79.119,16.121 L79.522,15.825 L79.925,15.529 L80.382,15.326 L80.839,15.123 L81.837,15.070 L82.811,15.299 L83.711,15.734 L84.093,15.946 L83.711,15.734 L84.093,15.946 L83.711,15.734 L84.093,15.946"/>
  <path fill="none" stroke="#3a4e8c" stroke-width="0.4" stroke-linecap="round" stroke-linejoin="round" d="M6.640,15.946 L7.339,15.960 L6.640,15.946 L7.339,15.960 L6.640,15.946 L7.639,15.966 L8.121,15.830 L8.602,15.694 L9.031,15.438 L9.460,15.181 L9.853,14.872 L10.247,14.564 L10.992,13.897 L11.725,13.216 L12.101,12.887 L12.477,12.558 L13.297,11.986 L13.759,11.794 L14.221,11.603 L15.221,11.609 L15.665,11.840 L16.109,12.070 L16.835,12.758 L17.138,13.155 L17.441,13.553 L17.974,14.399 L18.217,14.836 L18.461,15.272 L18.912,16.165 L19.339,17.069 L19.756,17.978 L19.959,18.435 L20.163,18.892 L20.366,19.348 L20.570,19.805 L20.978,20.718 L21.190,21.171 L21.401,21.624 L21.622,22.072 L21.843,22.521 L22.077,22.963 L22.310,23.405 L22.570,23.832 L22.830,24.259 L23.442,25.050 L23.827,25.370 L24.211,25.690 L24.710,25.717 L25.209,25.744 L26.034,25.178 L26.330,24.775 L26.626,24.372 L26.867,23.934 L27.107,23.496 L27.321,23.044 L27.534,22.591 L27.720,22.127 L27.905,21.663 L28.079,21.194 L28.253,20.725 L28.577,19.779 L28.732,19.304 L28.887,18.828 L29.183,17.873 L29.473,16.916 L29.752,15.956 L29.892,15.476 L30.032,14.996 L30.305,14.034 L30.579,13.072 L30.855,12.111 L30.994,11.631 L31.132,11.150 L31.414,10.191 L31.706,9.234 L31.999,8.278 L32.320,7.331 L32.642,6.384 L32.827,5.920 L33.013,5.456 L33.405,4.536 L33.633,4.091 L33.861,3.646 L34.442,2.832 L34.846,2.538 L35.251,2.245 L36.186,2.598 L36.820,3.372 L37.306,4.246 L37.504,4.705 L37.701,5.165 L37.875,5.633 L38.049,6.102 L38.210,6.575 L38.371,7.049 L38.666,8.004 L38.805,8.485 L38.944,8.965 L39.214,9.928 L39.465,10.896 L39.716,11.864 L39.957,12.834 L40.194,13.806 L40.430,14.777 L40.661,15.750 L40.892,16.723 L41.123,17.696 L41.357,18.669 L41.473,19.155 L41.590,19.641 L41.708,20.127 L41.827,20.613 L41.949,21.097 L42.071,21.582 L42.194,22.067 L42.316,22.552 L42.576,23.518 L42.709,24.000 L42.842,24.482 L43.118,25.443 L43.270,25.919 L43.422,26.395 L43.734,27.345 L43.918,27.810 L44.101,28.275 L44.305,28.732 L44.509,29.189 L44.988,30.067 L45.691,30.777 L46.689,30.713 L47.033,30.350 L47.376,29.986 L47.869,29.116 L48.288,28.208 L48.459,27.739 L48.630,27.269 L48.795,26.797 L48.959,26.324 L49.104,25.846 L49.249,25.367 L49.394,24.889 L49.539,24.410 L49.797,23.444 L50.056,22.478 L50.306,21.510 L50.547,20.539 L50.788,19.569 L50.905,19.083 L51.023,18.597 L51.139,18.111 L51.256,17.624 L51.489,16.652 L51.606,16.166 L51.723,15.680 L51.840,15.194 L51.957,14.708 L52.076,14.222 L52.194,13.736 L52.437,12.766 L52.680,11.796 L52.934,10.829 L53.065,10.346 L53.196,9.864 L53.461,8.899 L53.756,7.944 L53.903,7.466 L54.051,6.988 L54.222,6.519 L54.393,6.049 L54.567,5.580 L54.742,5.112 L54.961,4.662 L55.181,4.213 L55.705,3.362 L56.431,2.674 L57.431,2.683 L58.140,3.388 L58.409,3.810 L58.678,4.231 L58.891,4.683 L59.105,5.136 L59.298,5.597 L59.492,6.057 L59.849,6.992 L60.012,7.464 L60.175,7.937 L60.333,8.411 L60.491,8.886 L60.641,9.363 L60.791,9.840 L61.084,10.796 L61.228,11.275 L61.372,11.753 L61.655,12.713 L61.796,13.192 L61.937,13.672 L62.220,14.631 L62.361,15.111 L62.502,15.590 L62.794,16.547 L63.086,17.503 L63.393,18.455 L63.707,19.404 L64.043,20.346 L64.218,20.815 L64.394,21.283 L64.787,22.202 L64.997,22.656 L65.208,23.109 L65.458,23.542 L65.708,23.975 L66.019,24.367 L66.330,24.758 L67.170,25.301 L68.159,25.148 L68.941,24.525 L69.556,23.736 L70.086,22.889 L70.329,22.452 L70.572,22.015 L71.031,21.126 L71.467,20.226 L71.682,19.775 L71.897,19.323 L72.325,18.420 L72.543,17.969 L72.760,17.519 L72.984,17.072 L73.209,16.626 L73.441,16.183 L73.674,15.740 L73.924,15.307 L74.174,14.874 L74.451,14.458 L74.728,14.042 L75.042,13.653 L75.356,13.264 L75.726,12.928 L76.096,12.591 L76.551,12.382 L77.005,12.173 L77.505,12.172 L78.005,12.171 L78.934,12.541 L79.350,12.818 L79.766,13.094 L80.158,13.406 L80.549,13.717 L80.933,14.038 L81.317,14.358 L82.107,14.971 L82.958,15.495 L83.890,15.857 L84.640,15.946 L83.944,15.864 L84.640,15.946 L83.944,15.864 L84.640,15.946"/>
  <path fill="none" stroke="#d9a441" stroke-width="0.4" stroke-linecap="round" stroke-linejoin="round" d="M2.282,15.946 L2.711,15.688 L2.282,15.946 L2.711,15.688 L2.282,15.946 L2.711,15.688 L3.139,15.431 L3.571,15.179 L4.003,14.927 L4.453,14.709 L4.904,14.492 L5.872,14.243 L6.872,14.258 L7.804,14.619 L8.628,15.186 L8.990,15.532 L9.351,15.877 L9.675,16.258 L10.000,16.638 L10.300,17.038 L10.600,17.438 L10.886,17.848 L11.172,18.258 L11.451,18.673 L11.730,19.088 L12.285,19.920 L12.848,20.746 L13.141,21.152 L13.433,21.557 L14.063,22.334 L14.771,23.040 L15.610,23.584 L16.591,23.780 L17.506,23.378 L17.872,23.037 L18.238,22.696 L18.834,21.893 L19.349,21.036 L19.811,20.149 L20.221,19.237 L20.616,18.318 L20.986,17.389 L21.342,16.455 L21.690,15.517 L21.859,15.047 L22.028,14.576 L22.363,13.634 L22.695,12.691 L23.028,11.748 L23.366,10.807 L23.706,9.866 L24.063,8.932 L24.244,8.466 L24.425,8.000 L24.817,7.080 L25.025,6.625 L25.233,6.171 L25.456,5.723 L25.679,5.276 L25.946,4.853 L26.212,4.429 L26.533,4.046 L26.855,3.664 L27.286,3.411 L27.718,3.158 L28.687,3.405 L29.043,3.755 L29.400,4.106 L29.940,4.947 L30.399,5.836 L30.802,6.751 L31.157,7.686 L31.500,8.625 L31.808,9.576 L32.113,10.529 L32.399,11.487 L32.679,12.447 L32.953,13.409 L33.086,13.891 L33.219,14.373 L33.352,14.855 L33.485,15.337 L33.745,16.302 L34.005,17.268 L34.135,17.751 L34.266,18.233 L34.396,18.716 L34.527,19.199 L34.789,20.164 L35.060,21.126 L35.195,21.608 L35.331,22.089 L35.613,23.048 L35.903,24.005 L36.204,24.959 L36.525,25.906 L36.863,26.847 L37.233,27.776 L37.652,28.684 L38.125,29.565 L38.422,29.967 L38.720,30.369 L39.595,30.853 L40.073,30.706 L40.551,30.558 L40.879,30.181 L41.207,29.804 L41.703,28.936 L41.918,28.484 L42.132,28.032 L42.324,27.571 L42.517,27.109 L42.685,26.638 L42.854,26.168 L43.017,25.695 L43.181,25.223 L43.330,24.745 L43.478,24.268 L43.624,23.790 L43.770,23.311 L44.047,22.351 L44.182,21.869 L44.317,21.388 L44.584,20.424 L44.841,19.458 L45.098,18.491 L45.352,17.524 L45.605,16.556 L45.858,15.589 L46.114,14.622 L46.242,14.139 L46.370,13.656 L46.632,12.691 L46.898,11.727 L47.033,11.245 L47.167,10.764 L47.310,10.284 L47.453,9.805 L47.597,9.326 L47.740,8.847 L48.054,7.898 L48.372,6.950 L48.731,6.017 L49.103,5.088 L49.327,4.641 L49.551,4.194 L50.076,3.343 L50.414,2.974 L50.752,2.606 L51.688,2.254 L52.121,2.502 L52.555,2.751 L52.877,3.134 L53.198,3.517 L53.720,4.370 L54.162,5.267 L54.558,6.185 L54.748,6.648 L54.937,7.110 L55.108,7.580 L55.278,8.051 L55.617,8.991 L55.776,9.466 L55.935,9.940 L56.252,10.888 L56.559,11.840 L56.865,12.792 L57.170,13.744 L57.322,14.220 L57.474,14.697 L57.629,15.172 L57.784,15.647 L58.096,16.598 L58.419,17.544 L58.746,18.489 L59.094,19.426 L59.449,20.361 L59.646,20.821 L59.843,21.280 L60.258,22.190 L60.489,22.634 L60.719,23.077 L60.991,23.497 L61.263,23.917 L61.917,24.673 L62.336,24.946 L62.755,25.219 L63.753,25.167 L64.610,24.651 L64.955,24.289 L65.300,23.927 L65.890,23.120 L66.158,22.698 L66.427,22.276 L66.933,21.414 L67.420,20.540 L67.658,20.101 L67.895,19.661 L68.132,19.220 L68.369,18.780 L68.849,17.903 L69.095,17.467 L69.340,17.032 L69.852,16.173 L70.128,15.756 L70.404,15.339 L70.705,14.940 L71.006,14.540 L71.682,13.803 L72.460,13.175 L73.386,12.797 L74.384,12.746 L75.339,13.042 L76.222,13.513 L76.638,13.790 L77.054,14.067 L77.869,14.647 L78.285,14.924 L78.702,15.201 L79.578,15.683 L80.282,15.946 L79.627,15.701 L80.282,15.946 L79.627,15.701 L80.282,15.946"/>
  <path fill="none" stroke="#8c4a6b" stroke-width="0.4" stroke-linecap="round" stroke-linejoin="round" d="M2.724,15.946 L3.182,16.147 L2.724,15.946 L3.182,16.147 L2.724,15.946 L3.182,16.147 L3.639,16.348 L4.124,16.471 L4.608,16.595 L5.608,16.568 L6.566,16.282 L6.997,16.028 L7.429,15.775 L7.818,15.462 L8.207,15.148 L8.566,14.800 L8.925,14.452 L9.603,13.716 L10.258,12.961 L10.906,12.200 L11.235,11.823 L11.564,11.447 L12.251,10.719 L12.988,10.044 L13.809,9.473 L14.284,9.316 L14.758,9.158 L15.756,9.224 L16.624,9.720 L17.347,10.411 L17.961,11.200 L18.503,12.041 L18.751,12.475 L18.998,12.910 L19.446,13.804 L19.872,14.708 L20.078,15.164 L20.284,15.620 L20.674,16.540 L21.060,17.463 L21.437,18.389 L21.812,19.316 L21.999,19.780 L22.186,20.243 L22.376,20.706 L22.566,21.169 L22.949,22.092 L23.147,22.551 L23.345,23.010 L23.552,23.466 L23.758,23.921 L23.971,24.374 L24.184,24.826 L24.420,25.267 L24.656,25.708 L25.173,26.564 L25.469,26.967 L25.764,27.370 L26.124,27.717 L26.484,28.064 L26.942,28.266 L27.399,28.468 L28.353,28.168 L28.722,27.830 L29.091,27.493 L29.381,27.086 L29.672,26.679 L30.167,25.810 L30.603,24.910 L30.990,23.988 L31.176,23.524 L31.362,23.060 L31.531,22.589 L31.700,22.119 L32.032,21.175 L32.342,20.225 L32.651,19.274 L32.945,18.318 L33.239,17.362 L33.382,16.883 L33.525,16.404 L33.810,15.445 L34.094,14.486 L34.377,13.527 L34.519,13.048 L34.661,12.569 L34.805,12.090 L34.949,11.611 L35.238,10.654 L35.539,9.700 L35.840,8.746 L36.000,8.273 L36.160,7.799 L36.321,7.326 L36.482,6.852 L36.835,5.916 L37.015,5.450 L37.194,4.983 L37.399,4.527 L37.603,4.071 L38.050,3.176 L38.557,2.314 L39.189,1.539 L40.059,1.046 L40.552,1.126 L41.046,1.206 L41.774,1.891 L42.340,2.715 L42.804,3.601 L43.224,4.508 L43.610,5.431 L43.957,6.369 L44.297,7.309 L44.608,8.260 L44.917,9.211 L45.064,9.689 L45.211,10.167 L45.356,10.645 L45.501,11.124 L45.785,12.082 L45.924,12.563 L46.064,13.043 L46.342,14.003 L46.618,14.964 L46.893,15.926 L47.172,16.886 L47.451,17.847 L47.735,18.805 L47.879,19.284 L48.024,19.763 L48.171,20.241 L48.318,20.718 L48.625,21.670 L48.781,22.145 L48.937,22.620 L49.272,23.562 L49.445,24.031 L49.618,24.500 L49.807,24.963 L49.996,25.426 L50.408,26.338 L50.855,27.232 L51.391,28.076 L52.051,28.828 L52.941,29.283 L53.431,29.183 L53.921,29.083 L54.305,28.762 L54.688,28.441 L55.284,27.638 L55.538,27.207 L55.791,26.776 L56.021,26.332 L56.251,25.888 L56.465,25.436 L56.680,24.985 L56.874,24.524 L57.068,24.063 L57.448,23.138 L57.811,22.206 L58.166,21.272 L58.515,20.334 L58.860,19.396 L59.032,18.926 L59.203,18.457 L59.376,17.988 L59.550,17.519 L59.897,16.581 L60.255,15.647 L60.616,14.715 L60.997,13.790 L61.194,13.330 L61.391,12.871 L61.804,11.960 L62.258,11.069 L62.503,10.633 L62.748,10.198 L63.297,9.361 L63.618,8.978 L63.940,8.596 L64.336,8.291 L64.732,7.985 L65.688,7.693 L66.662,7.922 L67.500,8.467 L68.224,9.157 L68.549,9.537 L68.873,9.918 L69.176,10.316 L69.478,10.714 L69.769,11.121 L70.059,11.528 L70.344,11.939 L70.629,12.350 L70.913,12.761 L71.198,13.172 L71.778,13.986 L72.079,14.386 L72.380,14.785 L73.019,15.555 L73.366,15.914 L73.714,16.273 L74.489,16.905 L75.361,17.394 L75.846,17.517 L76.331,17.639 L77.329,17.586 L78.285,17.291 L79.184,16.853 L79.617,16.603 L80.050,16.353 L80.724,15.946 L80.124,16.308 L80.724,15.946 L80.124,16.308 L80.724,15.946"/>
  <path fill="none" stroke="#3a4e8c" stroke-width="0.4" stroke-linecap="round" stroke-linejoin="round" d="M3.402,15.946 L3.863,16.140 L3.402,15.946 L3.863,16.140 L3.402,15.946 L3.863,16.140 L4.324,16.334 L5.185,16.843 L5.596,17.127 L6.008,17.411 L6.828,17.983 L7.685,18.499 L8.605,18.889 L9.104,18.926 L9.603,18.963 L10.084,18.826 L10.565,18.689 L10.970,18.397 L11.376,18.104 L12.071,17.386 L12.377,16.990 L12.683,16.595 L12.962,16.180 L13.240,15.764 L13.757,14.908 L14.247,14.037 L14.726,13.159 L14.963,12.719 L15.200,12.278 L15.675,11.398 L15.921,10.963 L16.166,10.527 L16.680,9.669 L17.232,8.835 L17.542,8.443 L17.853,8.051 L18.226,7.719 L18.600,7.387 L19.534,7.031 L20.487,7.334 L20.850,7.678 L21.212,8.022 L21.789,8.840 L22.282,9.709 L22.492,10.163 L22.701,10.617 L23.093,11.538 L23.459,12.468 L23.799,13.408 L23.965,13.880 L24.131,14.352 L24.447,15.300 L24.603,15.776 L24.759,16.251 L24.911,16.727 L25.063,17.203 L25.214,17.680 L25.365,18.157 L25.667,19.110 L25.968,20.063 L26.274,21.016 L26.586,21.966 L26.904,22.914 L27.238,23.856 L27.585,24.794 L27.771,25.258 L27.957,25.722 L28.369,26.634 L28.818,27.527 L29.361,28.367 L30.075,29.067 L31.072,29.152 L31.867,28.545 L32.424,27.715 L32.652,27.270 L32.880,26.825 L33.286,25.911 L33.456,25.441 L33.626,24.970 L33.793,24.499 L33.961,24.028 L34.255,23.073 L34.549,22.117 L34.685,21.636 L34.821,21.155 L35.088,20.191 L35.350,19.226 L35.601,18.258 L35.853,17.290 L36.099,16.321 L36.345,15.351 L36.590,14.382 L36.836,13.413 L36.959,12.928 L37.082,12.443 L37.208,11.959 L37.333,11.475 L37.589,10.509 L37.844,9.542 L38.118,8.580 L38.393,7.619 L38.687,6.663 L38.841,6.187 L38.994,5.711 L39.161,5.240 L39.327,4.768 L39.687,3.835 L40.107,2.928 L40.592,2.053 L41.239,1.291 L42.205,1.030 L42.619,1.311 L43.032,1.591 L43.580,2.428 L43.801,2.877 L44.022,3.325 L44.421,4.242 L44.590,4.713 L44.759,5.183 L44.922,5.656 L45.085,6.129 L45.378,7.085 L45.670,8.041 L45.936,9.005 L46.201,9.969 L46.457,10.936 L46.707,11.904 L46.957,12.872 L47.201,13.842 L47.444,14.812 L47.688,15.782 L47.932,16.752 L48.177,17.721 L48.427,18.690 L48.681,19.657 L48.809,20.140 L48.937,20.624 L49.209,21.586 L49.345,22.067 L49.481,22.548 L49.775,23.504 L50.078,24.457 L50.409,25.400 L50.761,26.336 L50.967,26.792 L51.172,27.248 L51.636,28.134 L52.222,28.944 L53.090,29.441 L53.570,29.299 L54.049,29.157 L54.713,28.409 L55.218,27.546 L55.657,26.647 L55.859,26.190 L56.061,25.733 L56.412,24.796 L56.757,23.858 L56.917,23.384 L57.076,22.910 L57.392,21.961 L57.543,21.484 L57.693,21.008 L57.994,20.054 L58.141,19.576 L58.287,19.098 L58.581,18.142 L58.877,17.187 L59.025,16.709 L59.173,16.232 L59.325,15.755 L59.476,15.279 L59.631,14.803 L59.785,14.328 L59.944,13.854 L60.104,13.380 L60.270,12.908 L60.436,12.437 L60.611,11.968 L60.787,11.500 L60.971,11.036 L61.156,10.571 L61.569,9.660 L62.017,8.766 L62.534,7.910 L62.858,7.529 L63.182,7.148 L63.621,6.908 L64.059,6.669 L64.556,6.728 L65.052,6.787 L65.854,7.385 L66.498,8.150 L67.057,8.979 L67.309,9.410 L67.562,9.842 L67.802,10.280 L68.043,10.719 L68.507,11.604 L68.960,12.496 L69.188,12.941 L69.415,13.387 L69.645,13.830 L69.875,14.274 L70.345,15.157 L70.595,15.590 L70.846,16.022 L71.382,16.867 L71.970,17.675 L72.639,18.419 L73.031,18.728 L73.424,19.038 L74.357,19.399 L75.356,19.354 L76.290,18.999 L76.715,18.734 L77.139,18.470 L77.543,18.175 L77.946,17.879 L78.743,17.275 L79.155,16.992 L79.567,16.709 L80.451,16.241 L81.402,15.946 L80.734,16.153 L81.402,15.946 L80.734,16.153 L81.402,15.946"/>
  <path fill="none" stroke="#d9a441" stroke-width="0.4" stroke-linecap="round" stroke-linejoin="round" d="M6.286,15.946 L6.767,16.081 L6.286,15.946 L6.767,16.081 L6.286,15.946 L6.767,16.081 L7.248,16.216 L7.748,16.221 L8.248,16.225 L8.719,16.058 L9.191,15.891 L10.039,15.362 L10.422,15.040 L10.804,14.718 L11.158,14.365 L11.513,14.012 L11.854,13.646 L12.195,13.281 L12.877,12.550 L13.586,11.844 L13.971,11.525 L14.356,11.206 L15.228,10.716 L16.219,10.583 L17.155,10.934 L17.919,11.580 L18.229,11.972 L18.540,12.364 L18.807,12.787 L19.074,13.209 L19.557,14.085 L20.007,14.978 L20.216,15.432 L20.424,15.887 L20.825,16.803 L21.217,17.723 L21.598,18.647 L21.788,19.110 L21.979,19.572 L22.170,20.034 L22.361,20.496 L22.751,21.417 L23.148,22.335 L23.574,23.239 L23.800,23.686 L24.025,24.132 L24.515,25.004 L24.803,25.412 L25.091,25.821 L25.451,26.168 L25.810,26.516 L26.784,26.742 L27.673,26.284 L27.988,25.895 L28.302,25.506 L28.796,24.637 L29.012,24.186 L29.228,23.735 L29.617,22.814 L29.962,21.875 L30.296,20.933 L30.449,20.457 L30.601,19.980 L30.901,19.027 L31.187,18.068 L31.466,17.108 L31.604,16.628 L31.742,16.147 L32.011,15.184 L32.281,14.221 L32.549,13.257 L32.683,12.776 L32.817,12.294 L32.953,11.813 L33.089,11.332 L33.365,10.371 L33.645,9.411 L33.792,8.933 L33.939,8.455 L34.086,7.977 L34.233,7.499 L34.396,7.026 L34.559,6.554 L34.723,6.081 L34.886,5.609 L35.077,5.146 L35.267,4.684 L35.676,3.771 L35.912,3.331 L36.149,2.890 L36.770,2.106 L37.692,1.720 L38.130,1.962 L38.567,2.204 L38.862,2.608 L39.157,3.011 L39.624,3.896 L39.824,4.354 L40.024,4.812 L40.194,5.283 L40.364,5.753 L40.692,6.697 L40.982,7.654 L41.125,8.134 L41.267,8.613 L41.401,9.095 L41.535,9.576 L41.793,10.543 L41.921,11.026 L42.050,11.509 L42.171,11.994 L42.292,12.479 L42.534,13.450 L42.654,13.935 L42.773,14.420 L43.009,15.392 L43.245,16.364 L43.481,17.336 L43.718,18.307 L43.836,18.793 L43.955,19.279 L44.077,19.764 L44.199,20.249 L44.446,21.218 L44.571,21.702 L44.696,22.186 L44.961,23.150 L45.094,23.632 L45.226,24.114 L45.516,25.071 L45.665,25.549 L45.814,26.026 L46.142,26.971 L46.492,27.907 L46.700,28.362 L46.907,28.817 L47.386,29.695 L47.708,30.078 L48.030,30.461 L48.514,30.585 L48.998,30.710 L49.813,30.130 L50.083,29.709 L50.353,29.288 L50.573,28.839 L50.793,28.390 L51.190,27.473 L51.526,26.531 L51.690,26.058 L51.853,25.586 L52.146,24.630 L52.439,23.674 L52.707,22.710 L52.975,21.747 L53.105,21.264 L53.234,20.781 L53.361,20.297 L53.488,19.814 L53.742,18.846 L53.991,17.878 L54.240,16.909 L54.490,15.941 L54.743,14.974 L54.869,14.490 L54.995,14.006 L55.258,13.041 L55.523,12.077 L55.796,11.115 L56.084,10.157 L56.375,9.201 L56.700,8.255 L56.865,7.783 L57.031,7.311 L57.223,6.850 L57.415,6.388 L57.627,5.935 L57.840,5.483 L58.086,5.047 L58.331,4.612 L58.659,4.234 L58.987,3.856 L59.941,3.559 L60.386,3.787 L60.831,4.016 L61.456,4.796 L61.707,5.229 L61.957,5.662 L62.179,6.110 L62.401,6.558 L62.809,7.471 L63.174,8.401 L63.354,8.868 L63.533,9.335 L63.701,9.806 L63.870,10.277 L64.204,11.219 L64.528,12.165 L64.852,13.111 L65.014,13.584 L65.176,14.057 L65.339,14.530 L65.502,15.003 L65.836,15.945 L66.175,16.886 L66.531,17.820 L66.902,18.749 L67.098,19.209 L67.294,19.669 L67.730,20.569 L68.205,21.449 L68.478,21.868 L68.751,22.286 L69.430,23.021 L70.317,23.483 L71.315,23.415 L72.146,22.859 L72.495,22.501 L72.844,22.143 L73.463,21.358 L73.750,20.948 L74.036,20.538 L74.585,19.702 L75.123,18.859 L75.668,18.021 L76.230,17.194 L76.528,16.792 L76.826,16.391 L77.150,16.010 L77.474,15.629 L78.203,14.944 L79.041,14.399 L79.525,14.274 L80.009,14.149 L81.006,14.225 L81.939,14.584 L82.817,15.063 L83.244,15.323 L83.671,15.584 L84.286,15.946 L83.683,15.590 L84.286,15.946 L83.683,15.590 L84.286,15.946"/>
  <path fill="none" stroke="#8c4a6b" stroke-width="0.4" stroke-linecap="round" stroke-linejoin="round" d="M5.254,15.946 L5.868,15.609 L5.254,15.946 L5.868,15.609 L5.254,15.946 L6.131,15.465 L6.594,15.277 L7.058,15.090 L7.553,15.023 L8.049,14.956 L9.029,15.152 L9.467,15.394 L9.905,15.635 L10.286,15.959 L10.667,16.283 L11.009,16.647 L11.352,17.012 L11.670,17.397 L11.988,17.783 L12.292,18.180 L12.597,18.576 L12.897,18.976 L13.198,19.376 L13.808,20.168 L14.129,20.551 L14.450,20.934 L15.160,21.639 L15.574,21.919 L15.988,22.200 L16.958,22.441 L17.887,22.070 L18.257,21.733 L18.626,21.397 L18.925,20.996 L19.223,20.595 L19.737,19.736 L19.969,19.293 L20.200,18.850 L20.609,17.937 L20.806,17.478 L21.003,17.018 L21.375,16.090 L21.735,15.157 L22.087,14.221 L22.433,13.283 L22.778,12.345 L23.127,11.407 L23.302,10.939 L23.477,10.471 L23.844,9.540 L24.032,9.077 L24.221,8.614 L24.622,7.698 L24.843,7.250 L25.064,6.801 L25.553,5.929 L26.135,5.116 L26.530,4.808 L26.924,4.501 L27.924,4.502 L28.680,5.156 L28.953,5.576 L29.225,5.995 L29.446,6.444 L29.667,6.892 L29.867,7.350 L30.068,7.808 L30.419,8.745 L30.583,9.217 L30.748,9.689 L31.053,10.641 L31.349,11.596 L31.626,12.557 L31.764,13.038 L31.902,13.518 L32.033,14.001 L32.163,14.484 L32.294,14.966 L32.424,15.449 L32.682,16.415 L32.936,17.382 L33.190,18.350 L33.447,19.316 L33.703,20.283 L33.965,21.248 L34.233,22.211 L34.501,23.175 L34.792,24.131 L34.938,24.609 L35.084,25.088 L35.406,26.035 L35.737,26.978 L36.123,27.901 L36.333,28.355 L36.542,28.809 L37.058,29.665 L37.417,30.013 L37.775,30.362 L38.771,30.273 L39.469,29.556 L39.972,28.692 L40.398,27.788 L40.572,27.319 L40.745,26.850 L40.912,26.378 L41.078,25.907 L41.225,25.429 L41.371,24.951 L41.517,24.472 L41.663,23.994 L41.793,23.511 L41.923,23.029 L42.184,22.063 L42.309,21.579 L42.434,21.095 L42.675,20.124 L42.916,19.154 L43.149,18.181 L43.381,17.209 L43.497,16.722 L43.612,16.236 L43.843,15.263 L44.074,14.290 L44.306,13.317 L44.543,12.346 L44.780,11.374 L44.903,10.889 L45.025,10.405 L45.152,9.921 L45.279,9.437 L45.405,8.954 L45.532,8.470 L45.671,7.990 L45.811,7.510 L46.092,6.550 L46.402,5.599 L46.566,5.127 L46.729,4.654 L46.918,4.191 L47.106,3.728 L47.310,3.271 L47.514,2.815 L48.057,1.975 L48.430,1.643 L48.804,1.310 L49.776,1.543 L50.108,1.917 L50.440,2.291 L50.690,2.725 L50.939,3.158 L51.359,4.065 L51.534,4.534 L51.710,5.002 L52.052,5.942 L52.348,6.897 L52.496,7.374 L52.644,7.852 L52.919,8.813 L53.188,9.777 L53.451,10.741 L53.705,11.708 L53.960,12.675 L54.210,13.644 L54.459,14.612 L54.584,15.096 L54.710,15.580 L54.962,16.548 L55.215,17.515 L55.477,18.481 L55.609,18.963 L55.742,19.445 L56.013,20.407 L56.157,20.886 L56.302,21.365 L56.591,22.322 L56.917,23.267 L57.245,24.212 L57.440,24.672 L57.634,25.133 L58.057,26.039 L58.304,26.474 L58.550,26.909 L58.883,27.282 L59.216,27.655 L59.702,27.775 L60.187,27.895 L61.053,27.396 L61.669,26.608 L61.919,26.174 L62.169,25.741 L62.613,24.846 L63.016,23.930 L63.201,23.466 L63.386,23.001 L63.748,22.069 L64.087,21.128 L64.426,20.187 L64.591,19.715 L64.756,19.244 L65.087,18.300 L65.421,17.357 L65.589,16.886 L65.757,16.415 L65.931,15.947 L66.105,15.478 L66.461,14.544 L66.838,13.617 L67.240,12.702 L67.451,12.248 L67.663,11.795 L67.909,11.360 L68.154,10.924 L68.436,10.512 L68.718,10.099 L69.062,9.735 L69.405,9.372 L70.285,8.896 L71.276,9.030 L72.123,9.560 L72.829,10.268 L73.142,10.659 L73.454,11.049 L73.746,11.455 L74.038,11.861 L74.321,12.274 L74.604,12.686 L75.168,13.511 L75.745,14.328 L76.349,15.125 L76.676,15.503 L77.003,15.881 L77.735,16.563 L78.154,16.835 L78.574,17.107 L79.537,17.376 L80.036,17.339 L80.534,17.302 L81.473,16.959 L82.354,16.485 L83.212,15.971 L82.611,16.331 L83.212,15.971 L82.611,16.331 L83.212,15.971"/>
</svg>
