<svg xmlns="http://www.w3.org/2000/svg" viewBox="0 -2.7 91.975 91.975" width="256" height="256">
  <title>snaptoguide</title>
  <rect x="0" y="-2.7" width="91.975" height="91.975" fill="#f5efe4"/>
  <path fill="none" stroke="#c8472f" stroke-width="0.4" stroke-linecap="round" stroke-linejoin="round" d="M5.707,47.565 L5.707,47.565 L6.578,45.545 L7.450,43.525 L7.913,42.527 L8.376,41.529 L8.851,40.537 L9.326,39.545 L9.857,38.581 L10.388,37.618 L11.523,35.734 L12.249,34.907 L12.974,34.079 L13.899,33.484 L14.824,32.889 L17.018,33.046 L18.747,34.407 L20.124,36.122 L21.260,38.006 L22.284,39.954 L23.233,41.938 L24.143,43.941 L24.579,44.951 L25.015,45.961 L25.887,47.981 L26.758,50.001 L27.630,52.021 L28.572,54.009 L29.047,55.001 L29.521,55.994 L30.621,57.899 L31.775,59.772 L33.280,61.376 L35.233,62.391 L36.310,62.169 L37.388,61.948 L39.001,60.452 L40.316,58.688 L41.452,56.804 L41.948,55.822 L42.444,54.840 L43.393,52.856 L43.842,51.851 L44.291,50.847 L45.162,48.827 L46.034,46.807 L46.905,44.787 L47.783,42.770 L48.732,40.785 L49.682,38.801 L50.812,36.913 L51.422,35.998 L52.032,35.083 L52.785,34.281 L53.538,33.479 L55.563,32.618 L56.611,32.950 L57.660,33.281 L59.182,34.870 L60.452,36.666 L61.020,37.608 L61.588,38.550 L62.557,40.525 L63.032,41.518 L63.506,42.510 L64.394,44.523 L65.266,46.543 L66.138,48.563 L67.009,50.583 L67.896,52.596 L68.846,54.581 L69.329,55.569 L69.813,56.557 L70.948,58.441 L71.581,59.341 L72.214,60.240 L73.727,61.838 L74.772,62.181 L75.817,62.524 L77.849,61.679 L78.601,60.877 L79.354,60.075 L79.968,59.162 L80.581,58.249 L81.715,56.364 L82.664,54.379 L83.139,53.387 L83.614,52.395 L84.053,51.386 L84.493,50.378 L84.929,49.368 L85.364,48.358 L85.707,47.565 L85.430,48.207 L85.707,47.565 L85.430,48.207 L85.707,47.565"/>
  <path fill="none" stroke="#d9a441" stroke-width="0.4" stroke-linecap="round" stroke-linejoin="round" d="M49.335,83.683 L49.006,83.065 L49.335,83.683 L49.006,83.065 L49.335,83.683 L48.366,81.862 L47.397,80.041 L46.428,78.220 L45.459,76.399 L44.490,74.578 L43.521,72.757 L42.552,70.936 L41.583,69.114 L40.614,67.293 L39.645,65.472 L38.676,63.651 L37.707,61.830 L38.036,62.448 L37.707,61.830 L38.036,62.448 L37.707,61.830 M69.994,71.058 L70.256,70.408 L69.994,71.058 L70.256,70.408 L69.994,71.058 L70.737,69.212 L71.479,67.367 L72.222,65.521 L72.964,63.676 L73.707,61.830 L73.446,62.480 L73.707,61.830 L73.446,62.480 L73.707,61.830 M84.255,69.000 L83.783,68.483 L84.255,69.000 L83.783,68.483 L84.255,69.000 L82.946,67.566 L81.636,66.132 L80.326,64.698 L79.017,63.264 L77.707,61.830 L78.179,62.347 L77.707,61.830 L78.179,62.347 L77.707,61.830 M67.918,85.574 L68.142,84.911 L67.918,85.574 L68.142,84.911 L67.918,85.574 L68.567,83.656 L69.216,81.739 L69.865,79.821 L70.514,77.904 L71.163,75.987 L71.812,74.069 L72.461,72.152 L73.110,70.234 L73.760,68.317 L74.409,66.399 L75.058,64.482 L75.707,62.565 L75.482,63.228 L75.707,62.565 L75.482,63.228 L75.707,62.565 M27.472,81.767 L27.713,81.110 L27.472,81.767 L27.713,81.110 L27.472,81.767 L28.191,79.808 L28.910,77.850 L29.629,75.891 L30.348,73.932 L31.067,71.974 L31.785,70.015 L32.504,68.057 L33.223,66.098 L33.942,64.139 L34.661,62.181 L34.420,62.838 L34.661,62.181 L34.420,62.838 L34.661,62.181 M45.365,62.233 L44.766,61.871 L45.365,62.233 L44.766,61.871 L45.365,62.233 L43.608,61.174 L41.852,60.115 L40.095,59.056 L40.694,59.418 L40.095,59.056 L40.694,59.418 L40.095,59.056 M77.611,57.274 L78.211,57.635 L77.611,57.274 L78.211,57.635 L77.611,57.274 L78.916,58.060 L80.221,58.847 L79.621,58.485 L80.221,58.847 L79.621,58.485 L80.221,58.847 M61.652,56.828 L62.284,56.526 L61.652,56.828 L62.284,56.526 L61.652,56.828 L63.334,56.023 L65.017,55.219 L66.699,54.414 L68.381,53.610 L67.750,53.912 L68.381,53.610 L67.750,53.912 L68.381,53.610 M55.180,71.119 L54.617,70.703 L55.180,71.119 L54.617,70.703 L55.180,71.119 L53.461,69.850 L51.742,68.581 L50.022,67.312 L48.303,66.044 L46.584,64.775 L44.865,63.506 L43.145,62.237 L41.426,60.969 L39.707,59.700 L40.270,60.115 L39.707,59.700 L40.270,60.115 L39.707,59.700 M52.953,41.196 L52.321,40.894 L52.953,41.196 L52.321,40.894 L52.953,41.196 L51.155,40.336 L49.358,39.476 L49.990,39.779 L49.358,39.476 L49.990,39.779 L49.358,39.476 M37.252,49.207 L37.895,49.484 L37.252,49.207 L37.895,49.484 L37.252,49.207 L38.885,49.911 L40.517,50.616 L42.150,51.320 L43.782,52.025 L43.140,51.747 L43.782,52.025 L43.140,51.747 L43.782,52.025 M30.690,32.925 L30.091,33.286 L30.690,32.925 L30.091,33.286 L30.690,32.925 L28.858,34.029 L27.025,35.134 L25.192,36.238 L23.359,37.343 L21.526,38.448 L22.126,38.086 L21.526,38.448 L22.126,38.086 L21.526,38.448 M90.975,40.453 L90.558,41.016 L90.975,40.453 L90.558,41.016 L90.975,40.453 L89.921,41.875 L88.868,43.298 L87.814,44.720 L86.760,46.142 L85.707,47.565 L86.124,47.002 L85.707,47.565 L86.124,47.002 L85.707,47.565 M24.338,54.396 L24.970,54.094 L24.338,54.396 L24.970,54.094 L24.338,54.396 L26.137,53.536 L27.935,52.676 L27.303,52.978 L27.935,52.676 L27.303,52.978 L27.935,52.676 M73.660,44.664 L73.017,44.942 L73.660,44.664 L73.017,44.942 L73.660,44.664 L71.720,45.501 L69.780,46.339 L67.840,47.176 L65.900,48.013 L66.543,47.735 L65.900,48.013 L66.543,47.735 L65.900,48.013 M20.218,68.048 L20.784,67.636 L20.218,68.048 L20.784,67.636 L20.218,68.048 L21.859,66.855 L23.501,65.663 L25.142,64.470 L26.783,63.278 L28.424,62.085 L30.066,60.892 L31.707,59.700 L31.141,60.111 L31.707,59.700 L31.141,60.111 L31.707,59.700 M81.064,20.503 L80.490,20.904 L81.064,20.503 L80.490,20.904 L81.064,20.503 L79.284,21.747 L77.505,22.991 L75.725,24.235 L73.945,25.479 L72.165,26.722 L70.385,27.966 L68.606,29.210 L66.826,30.454 L65.046,31.698 L63.266,32.942 L61.487,34.185 L59.707,35.429 L60.281,35.028 L59.707,35.429 L60.281,35.028 L59.707,35.429 M58.275,21.542 L58.117,22.223 L58.275,21.542 L58.117,22.223 L58.275,21.542 L57.847,23.379 L57.419,25.216 L56.991,27.053 L56.563,28.890 L56.135,30.727 L55.707,32.565 L55.866,31.883 L55.707,32.565 L55.866,31.883 L55.707,32.565 M40.870,14.761 L41.269,15.336 L40.870,14.761 L41.269,15.336 L40.870,14.761 L42.037,16.446 L43.204,18.131 L44.371,19.817 L45.538,21.502 L46.705,23.187 L47.872,24.872 L49.039,26.558 L50.206,28.243 L51.373,29.928 L52.540,31.613 L53.707,33.299 L53.308,32.723 L53.707,33.299 L53.308,32.723 L53.707,33.299 M69.244,30.228 L68.644,30.590 L69.244,30.228 L68.644,30.590 L69.244,30.228 L67.385,31.349 L65.526,32.469 L63.667,33.590 L61.808,34.710 L59.949,35.830 L60.548,35.469 L59.949,35.830 L60.548,35.469 L59.949,35.830 M90.255,53.535 L89.612,53.258 L90.255,53.535 L89.612,53.258 L90.255,53.535 L88.253,52.671 L86.251,51.807 L84.249,50.943 L84.892,51.221 L84.249,50.943 L84.892,51.221 L84.249,50.943 M45.603,29.416 L46.113,29.895 L45.603,29.416 L46.113,29.895 L45.603,29.416 L47.164,30.881 L48.725,32.347 L50.287,33.813 L51.848,35.279 L51.338,34.799 L51.848,35.279 L51.338,34.799 L51.848,35.279 M9.106,22.044 L9.371,22.692 L9.106,22.044 L9.371,22.692 L9.106,22.044 L9.873,23.920 L10.640,25.796 L11.406,27.671 L12.173,29.547 L12.940,31.423 L13.707,33.299 L13.442,32.651 L13.707,33.299 L13.442,32.651 L13.707,33.299 M64.439,7.195 L64.212,7.857 L64.439,7.195 L64.212,7.857 L64.439,7.195 L63.768,9.147 L63.096,11.098 L62.424,13.050 L61.752,15.001 L61.081,16.953 L60.409,18.904 L59.737,20.856 L59.065,22.807 L58.394,24.759 L57.722,26.710 L57.050,28.662 L56.379,30.613 L55.707,32.565 L55.935,31.903 L55.707,32.565 L55.935,31.903 L55.707,32.565 M37.822,73.114 L37.685,72.428 L37.822,73.114 L37.685,72.428 L37.822,73.114 L37.399,71.004 L36.976,68.894 L36.553,66.784 L36.130,64.675 L35.707,62.565 L35.844,63.251 L35.707,62.565 L35.844,63.251 L35.707,62.565 M27.459,14.982 L27.130,15.600 L27.459,14.982 L27.130,15.600 L27.459,14.982 L26.484,16.814 L25.508,18.645 L24.533,20.477 L23.558,22.309 L22.583,24.140 L21.608,25.972 L20.632,27.804 L19.657,29.635 L18.682,31.467 L17.707,33.299 L18.036,32.681 L17.707,33.299 L18.036,32.681 L17.707,33.299 M16.855,43.406 L17.487,43.104 L16.855,43.406 L17.487,43.104 L16.855,43.406 L18.776,42.488 L20.696,41.569 L22.617,40.651 L21.985,40.953 L22.617,40.651 L21.985,40.953 L22.617,40.651 M1.000,39.216 L1.631,39.519 L1.000,39.216 L1.631,39.519 L1.000,39.216 L2.726,40.042 L4.452,40.867 L6.178,41.693 L7.903,42.518 L7.272,42.216 L7.903,42.518 L7.272,42.216 L7.903,42.518 M11.188,56.482 L10.821,55.886 L11.188,56.482 L10.821,55.886 L11.188,56.482 L10.092,54.699 L8.996,52.915 L7.899,51.132 L6.803,49.348 L5.707,47.565 L6.073,48.161 L5.707,47.565 L6.073,48.161 L5.707,47.565 M6.711,73.263 L6.684,72.564 L6.711,73.263 L6.684,72.564 L6.711,73.263 L6.627,71.121 L6.544,68.980 L6.460,66.838 L6.376,64.697 L6.293,62.555 L6.209,60.414 L6.125,58.272 L6.042,56.131 L5.958,53.989 L5.874,51.848 L5.791,49.706 L5.707,47.565 L5.734,48.264 L5.707,47.565 L5.734,48.264 L5.707,47.565 M49.161,1.000 L49.303,1.685 L49.161,1.000 L49.303,1.685 L49.161,1.000 L49.597,3.104 L50.033,5.209 L50.470,7.313 L50.906,9.417 L51.343,11.522 L51.779,13.626 L52.215,15.730 L52.652,17.834 L53.088,19.939 L53.525,22.043 L53.961,24.147 L54.398,26.252 L54.834,28.356 L55.270,30.460 L55.707,32.565 L55.565,31.879 L55.707,32.565 L55.565,31.879 L55.707,32.565"/>
</svg>
