<svg xmlns="http://www.w3.org/2000/svg" viewBox="0 -0.75 63.5 63.5" width="256" height="256">
  <title>snaptogrid</title>
  <rect x="0" y="-0.75" width="63.5" height="63.5" fill="#f5efe4"/>
  <path fill="none" stroke="#5e8f8c" stroke-width="0.4" stroke-linecap="round" stroke-linejoin="round" d="M7.000,55.000 L7.495,54.505 L7.000,55.000 L7.495,54.505 L7.000,55.000 L8.500,53.500 L10.000,52.000 L11.500,52.000 L13.000,53.500 L14.500,55.000 L13.000,56.500 L11.500,58.000 L10.000,58.000 L8.500,56.500 L7.000,55.000 L7.495,55.495 L7.000,55.000 L7.495,55.495 L7.000,55.000 M7.697,54.937 L7.000,55.000 L7.697,54.937 L7.000,55.000 L23.500,53.500 L25.000,52.000 L26.500,52.000 L28.000,52.000 L29.500,53.500 L29.500,55.000 L29.500,56.500 L28.000,58.000 L26.500,58.000 L25.000,58.000 L23.500,56.500 L23.500,55.000 L23.500,55.700 L23.500,55.000 L23.500,55.700 L23.500,55.000 M24.197,54.937 L23.500,55.000 L24.197,54.937 L23.500,55.000 L40.000,53.500 L41.500,52.000 L43.000,52.000 L44.500,53.500 L46.000,55.000 L44.500,56.500 L43.000,58.000 L41.500,58.000 L40.000,56.500 L38.500,55.000 L38.995,55.495 L38.500,55.000 L38.995,55.495 L38.500,55.000 M39.198,54.942 L38.500,55.000 L39.198,54.942 L38.500,55.000 L56.500,53.500 L58.000,52.000 L59.500,52.000 L61.000,53.500 L62.500,55.000 L61.000,56.500 L59.500,58.000 L58.000,58.000 L56.500,56.500 L55.000,55.000 L55.495,55.495 L55.000,55.000 L55.495,55.495 L55.000,55.000 M54.340,54.766 L55.000,55.000 L54.340,54.766 L55.000,55.000 L8.500,38.500 L10.000,37.000 L10.000,35.500 L11.500,37.000 L13.000,38.500 L14.500,38.500 L13.000,40.000 L11.500,41.500 L10.000,43.000 L8.500,41.500 L7.000,38.500 L7.313,39.126 L7.000,38.500 L7.313,39.126 L7.000,38.500 M7.700,38.500 L7.000,38.500 L7.700,38.500 L7.000,38.500 L23.500,38.500 L25.000,37.000 L26.500,35.500 L28.000,37.000 L29.500,38.500 L29.500,40.000 L28.000,41.500 L26.500,43.000 L25.000,41.500 L23.500,38.500 L23.813,39.126 L23.500,38.500 L23.813,39.126 L23.500,38.500 M24.200,38.500 L23.500,38.500 L24.200,38.500 L23.500,38.500 L40.000,38.500 L41.500,37.000 L43.000,35.500 L43.000,37.000 L44.500,38.500 L46.000,38.500 L44.500,40.000 L43.000,41.500 L43.000,43.000 L41.500,41.500 L38.500,38.500 L38.995,38.995 L38.500,38.500 L38.995,38.995 L38.500,38.500 M39.200,38.500 L38.500,38.500 L39.200,38.500 L38.500,38.500 L56.500,38.500 L58.000,37.000 L58.000,35.500 L59.500,37.000 L61.000,38.500 L62.500,38.500 L61.000,40.000 L59.500,41.500 L58.000,43.000 L56.500,41.500 L55.000,38.500 L55.313,39.126 L55.000,38.500 L55.313,39.126 L55.000,38.500 M54.340,38.266 L55.000,38.500 L54.340,38.266 L55.000,38.500 L8.500,22.000 L10.000,20.500 L10.000,19.000 L11.500,20.500 L13.000,22.000 L14.500,23.500 L13.000,23.500 L11.500,25.000 L10.000,26.500 L8.500,25.000 L7.000,23.500 L7.495,23.995 L7.000,23.500 L7.495,23.995 L7.000,23.500 M7.697,23.437 L7.000,23.500 L7.697,23.437 L7.000,23.500 L23.500,22.000 L25.000,20.500 L26.500,19.000 L28.000,20.500 L29.500,22.000 L29.500,23.500 L28.000,25.000 L26.500,26.500 L25.000,25.000 L23.500,23.500 L23.995,23.995 L23.500,23.500 L23.995,23.995 L23.500,23.500 M24.197,23.437 L23.500,23.500 L24.197,23.437 L23.500,23.500 L40.000,22.000 L41.500,20.500 L43.000,19.000 L43.000,20.500 L44.500,22.000 L46.000,23.500 L44.500,23.500 L43.000,25.000 L43.000,26.500 L41.500,25.000 L38.500,23.500 L39.126,23.813 L38.500,23.500 L39.126,23.813 L38.500,23.500 M39.198,23.442 L38.500,23.500 L39.198,23.442 L38.500,23.500 L56.500,22.000 L58.000,20.500 L58.000,19.000 L59.500,20.500 L61.000,22.000 L62.500,23.500 L61.000,23.500 L59.500,25.000 L58.000,26.500 L56.500,25.000 L55.000,23.500 L55.495,23.995 L55.000,23.500 L55.495,23.995 L55.000,23.500 M54.347,23.247 L55.000,23.500 L54.347,23.247 L55.000,23.500 L8.500,5.500 L10.000,4.000 L11.500,4.000 L13.000,5.500 L14.500,7.000 L13.000,8.500 L11.500,10.000 L10.000,10.000 L8.500,8.500 L7.000,7.000 L7.495,7.495 L7.000,7.000 L7.495,7.495 L7.000,7.000 M7.697,6.937 L7.000,7.000 L7.697,6.937 L7.000,7.000 L23.500,5.500 L25.000,4.000 L26.500,4.000 L28.000,4.000 L29.500,5.500 L29.500,7.000 L29.500,8.500 L28.000,10.000 L26.500,10.000 L25.000,10.000 L23.500,8.500 L23.500,7.000 L23.500,7.700 L23.500,7.000 L23.500,7.700 L23.500,7.000 M24.197,6.937 L23.500,7.000 L24.197,6.937 L23.500,7.000 L40.000,5.500 L41.500,4.000 L43.000,4.000 L44.500,5.500 L46.000,7.000 L44.500,8.500 L43.000,10.000 L41.500,10.000 L40.000,8.500 L38.500,7.000 L38.995,7.495 L38.500,7.000 L38.995,7.495 L38.500,7.000 M39.198,6.942 L38.500,7.000 L39.198,6.942 L38.500,7.000 L56.500,5.500 L58.000,4.000 L59.500,4.000 L61.000,5.500 L62.500,7.000 L61.000,8.500 L59.500,10.000 L58.000,10.000 L56.500,8.500 L55.000,7.000 L55.495,7.495 L55.000,7.000 L55.495,7.495 L55.000,7.000"/>
  <path fill="none" stroke="#b8651b" stroke-width="0.4" stroke-linecap="round" stroke-linejoin="round" d="M54.479,7.467 L55.000,7.000 L54.479,7.467 L55.000,7.000 L31.000,28.500 L31.000,26.000 L31.000,23.500 L31.000,21.000 L31.000,18.500 L31.000,16.000 L31.000,13.500 L31.000,11.000 L31.000,8.500 L31.000,6.000 L31.000,3.500 L31.000,1.000 L33.250,1.000 L35.500,1.000 L37.000,1.750 L38.500,2.500 L40.750,3.250 L43.000,4.000 L44.500,4.750 L46.000,5.500 L47.500,6.250 L49.000,7.000 L50.500,8.500 L52.000,10.000 L53.500,11.500 L55.000,13.000 L55.750,14.500 L56.500,16.000 L57.250,17.500 L58.000,19.000 L58.750,21.250 L59.500,23.500 L60.250,25.000 L61.000,26.500 L61.000,28.750 L61.000,31.000 L61.000,33.250 L61.000,35.500 L60.250,37.000 L59.500,38.500 L58.750,40.750 L58.000,43.000 L57.250,44.500 L56.500,46.000 L55.750,47.500 L55.000,49.000 L53.500,50.500 L52.000,52.000 L50.500,53.500 L49.000,55.000 L47.500,55.750 L46.000,56.500 L44.500,57.250 L43.000,58.000 L40.750,58.750 L38.500,59.500 L37.000,60.250 L35.500,61.000 L33.250,61.000 L31.000,61.000 L28.750,61.000 L26.500,61.000 L25.000,60.250 L23.500,59.500 L21.250,58.750 L19.000,58.000 L17.500,57.250 L16.000,56.500 L14.500,55.750 L13.000,55.000 L11.500,53.500 L10.000,52.000 L8.500,50.500 L7.000,49.000 L6.250,47.500 L5.500,46.000 L4.750,44.500 L4.000,43.000 L3.250,40.750 L2.500,38.500 L1.750,37.000 L1.000,35.500 L1.000,33.250 L1.000,31.000 L1.000,28.750 L1.000,26.500 L1.750,25.000 L2.500,23.500 L3.250,21.250 L4.000,19.000 L4.750,17.500 L5.500,16.000 L6.250,14.500 L7.000,13.000 L8.500,11.500 L10.000,10.000 L11.500,8.500 L13.000,7.000 L14.500,6.250 L16.000,5.500 L17.500,4.750 L19.000,4.000 L21.250,3.250 L23.500,2.500 L25.000,1.750 L26.500,1.000 L28.750,1.000 L31.000,1.000 L30.300,1.000 L31.000,1.000 L30.300,1.000 L31.000,1.000"/>
</svg>
