<svg xmlns="http://www.w3.org/2000/svg" viewBox="-4.086 0 76.062 76.062" width="256" height="256">
  <title>snowflake</title>
  <rect x="-4.086" y="0" width="76.062" height="76.062" fill="#f5efe4"/>
  <path fill="none" stroke="#31604f" stroke-width="0.4" stroke-linecap="round" stroke-linejoin="round" d="M33.945,33.031 L33.945,33.031 L35.388,33.864 L33.945,33.031 L35.388,33.864 L36.832,34.698 L35.388,33.864 L36.832,34.698 L38.275,35.531 L36.832,34.698 L38.275,35.531 L38.275,37.198 L38.275,35.531 L38.275,37.198 L38.275,38.864 L38.275,37.198 L38.275,38.864 L38.275,40.531 L38.275,38.864 L38.275,40.531 L36.832,41.364 L38.275,40.531 L36.832,41.364 L35.388,42.198 L36.832,41.364 L35.388,42.198 L33.945,43.031 L35.388,42.198 L33.945,43.031 L32.501,42.198 L33.945,43.031 L32.501,42.198 L31.058,41.364 L32.501,42.198 L31.058,41.364 L29.615,40.531 L31.058,41.364 L29.615,40.531 L29.615,38.864 L29.615,40.531 L29.615,38.864 L29.615,37.198 L29.615,38.864 L29.615,37.198 L29.615,35.531 L29.615,37.198 L29.615,35.531 L31.058,34.698 L29.615,35.531 L31.058,34.698 L32.501,33.864 L31.058,34.698 L32.501,33.864 L33.945,33.031 L32.501,33.864 L33.945,33.031 L33.339,33.381 L33.945,33.031 L33.339,33.381 L33.945,33.031 M33.945,38.031 L33.945,37.331 L33.945,38.031 L33.945,37.331 L33.945,38.031 L33.945,36.331 L33.945,38.031 L33.945,36.331 L33.945,34.631 L33.945,36.331 L33.945,34.631 L33.945,32.931 L33.945,34.631 L33.945,32.931 L33.945,31.231 L33.945,32.931 L33.945,31.231 L33.945,29.531 L33.945,31.231 L33.945,29.531 L33.945,27.831 L33.945,29.531 L33.945,27.831 L33.945,26.131 L33.945,27.831 L33.945,26.131 L33.945,24.431 L33.945,26.131 L33.945,24.431 L35.215,23.542 L33.945,24.431 L35.215,23.542 L36.485,22.653 L35.215,23.542 L36.485,22.653 L37.755,21.763 L36.485,22.653 L37.755,21.763 L39.025,20.874 L37.755,21.763 L39.025,20.874 L40.295,19.985 L39.025,20.874 L40.295,19.985 L41.565,19.095 L40.295,19.985 L41.565,19.095 L42.835,18.206 L41.565,19.095 L42.835,18.206 L41.565,19.095 L42.835,18.206 L41.565,19.095 L40.295,19.985 L41.565,19.095 L40.295,19.985 L39.025,20.874 L40.295,19.985 L39.025,20.874 L37.755,21.763 L39.025,20.874 L37.755,21.763 L36.485,22.653 L37.755,21.763 L36.485,22.653 L35.215,23.542 L36.485,22.653 L35.215,23.542 L33.945,24.431 L35.215,23.542 L33.945,24.431 L32.675,23.542 L33.945,24.431 L32.675,23.542 L31.405,22.653 L32.675,23.542 L31.405,22.653 L30.135,21.763 L31.405,22.653 L30.135,21.763 L28.865,20.874 L30.135,21.763 L28.865,20.874 L27.595,19.985 L28.865,20.874 L27.595,19.985 L26.325,19.095 L27.595,19.985 L26.325,19.095 L25.055,18.206 L26.325,19.095 L25.055,18.206 L26.325,19.095 L25.055,18.206 L26.325,19.095 L27.595,19.985 L26.325,19.095 L27.595,19.985 L28.865,20.874 L27.595,19.985 L28.865,20.874 L30.135,21.763 L28.865,20.874 L30.135,21.763 L31.405,22.653 L30.135,21.763 L31.405,22.653 L32.675,23.542 L31.405,22.653 L32.675,23.542 L33.945,24.431 L32.675,23.542 L33.945,24.431 L33.945,22.731 L33.945,24.431 L33.945,22.731 L33.945,21.031 L33.945,22.731 L33.945,21.031 L33.945,19.331 L33.945,21.031 L33.945,19.331 L33.945,17.631 L33.945,19.331 L33.945,17.631 L35.193,16.757 L33.945,17.631 L35.193,16.757 L36.440,15.884 L35.193,16.757 L36.440,15.884 L37.688,15.010 L36.440,15.884 L37.688,15.010 L38.936,14.136 L37.688,15.010 L38.936,14.136 L40.184,13.263 L38.936,14.136 L40.184,13.263 L41.431,12.389 L40.184,13.263 L41.431,12.389 L40.184,13.263 L41.431,12.389 L40.184,13.263 L38.936,14.136 L40.184,13.263 L38.936,14.136 L37.688,15.010 L38.936,14.136 L37.688,15.010 L36.440,15.884 L37.688,15.010 L36.440,15.884 L35.193,16.757 L36.440,15.884 L35.193,16.757 L33.945,17.631 L35.193,16.757 L33.945,17.631 L32.697,16.757 L33.945,17.631 L32.697,16.757 L31.449,15.884 L32.697,16.757 L31.449,15.884 L30.202,15.010 L31.449,15.884 L30.202,15.010 L28.954,14.136 L30.202,15.010 L28.954,14.136 L27.706,13.263 L28.954,14.136 L27.706,13.263 L26.458,12.389 L27.706,13.263 L26.458,12.389 L27.706,13.263 L26.458,12.389 L27.706,13.263 L28.954,14.136 L27.706,13.263 L28.954,14.136 L30.202,15.010 L28.954,14.136 L30.202,15.010 L31.449,15.884 L30.202,15.010 L31.449,15.884 L32.697,16.757 L31.449,15.884 L32.697,16.757 L33.945,17.631 L32.697,16.757 L33.945,17.631 L33.945,15.931 L33.945,17.631 L33.945,15.931 L33.945,14.231 L33.945,15.931 L33.945,14.231 L33.945,12.531 L33.945,14.231 L33.945,12.531 L33.945,10.831 L33.945,12.531 L33.945,10.831 L35.161,9.979 L33.945,10.831 L35.161,9.979 L36.378,9.127 L35.161,9.979 L36.378,9.127 L37.594,8.276 L36.378,9.127 L37.594,8.276 L38.811,7.424 L37.594,8.276 L38.811,7.424 L40.028,6.572 L38.811,7.424 L40.028,6.572 L38.811,7.424 L40.028,6.572 L38.811,7.424 L37.594,8.276 L38.811,7.424 L37.594,8.276 L36.378,9.127 L37.594,8.276 L36.378,9.127 L35.161,9.979 L36.378,9.127 L35.161,9.979 L33.945,10.831 L35.161,9.979 L33.945,10.831 L32.728,9.979 L33.945,10.831 L32.728,9.979 L31.512,9.127 L32.728,9.979 L31.512,9.127 L30.295,8.276 L31.512,9.127 L30.295,8.276 L29.079,7.424 L30.295,8.276 L29.079,7.424 L27.862,6.572 L29.079,7.424 L27.862,6.572 L29.079,7.424 L27.862,6.572 L29.079,7.424 L30.295,8.276 L29.079,7.424 L30.295,8.276 L31.512,9.127 L30.295,8.276 L31.512,9.127 L32.728,9.979 L31.512,9.127 L32.728,9.979 L33.945,10.831 L32.728,9.979 L33.945,10.831 L33.945,9.131 L33.945,10.831 L33.945,9.131 L33.945,7.431 L33.945,9.131 L33.945,7.431 L33.945,5.731 L33.945,7.431 L33.945,5.731 L33.945,4.031 L33.945,5.731 L33.945,4.031 L34.820,2.516 L33.945,4.031 L34.820,2.516 L35.695,1.000 L34.820,2.516 L35.695,1.000 M33.945,4.031 L33.070,2.516 L33.945,4.031 L33.070,2.516 L32.195,1.000 L33.070,2.516 L32.195,1.000 M33.945,4.031 L33.945,5.821 L33.945,4.031 L33.945,5.821 L33.945,7.610 L33.945,5.821 L33.945,7.610 L33.945,9.400 L33.945,7.610 L33.945,9.400 L33.945,11.189 L33.945,9.400 L33.945,11.189 L33.945,12.978 L33.945,11.189 L33.945,12.978 L33.945,14.768 L33.945,12.978 L33.945,14.768 L33.945,16.557 L33.945,14.768 L33.945,16.557 L33.945,18.347 L33.945,16.557 L33.945,18.347 L33.945,20.136 L33.945,18.347 L33.945,20.136 L33.945,21.926 L33.945,20.136 L33.945,21.926 L33.945,23.715 L33.945,21.926 L33.945,23.715 L33.945,25.505 L33.945,23.715 L33.945,25.505 L33.945,27.294 L33.945,25.505 L33.945,27.294 L33.945,29.084 L33.945,27.294 L33.945,29.084 L33.945,30.873 L33.945,29.084 L33.945,30.873 L33.945,32.663 L33.945,30.873 L33.945,32.663 L33.945,34.452 L33.945,32.663 L33.945,34.452 L33.945,36.242 L33.945,34.452 L33.945,36.242 L33.945,38.031 L33.945,36.242 L33.945,38.031 L35.417,37.181 L33.945,38.031 L35.417,37.181 L36.889,36.331 L35.417,37.181 L36.889,36.331 L38.362,35.481 L36.889,36.331 L38.362,35.481 L39.834,34.631 L38.362,35.481 L39.834,34.631 L41.306,33.781 L39.834,34.631 L41.306,33.781 L42.778,32.931 L41.306,33.781 L42.778,32.931 L44.251,32.081 L42.778,32.931 L44.251,32.081 L45.723,31.231 L44.251,32.081 L45.723,31.231 L47.128,31.886 L45.723,31.231 L47.128,31.886 L48.533,32.542 L47.128,31.886 L48.533,32.542 L49.938,33.197 L48.533,32.542 L49.938,33.197 L51.343,33.852 L49.938,33.197 L51.343,33.852 L52.749,34.507 L51.343,33.852 L52.749,34.507 L54.154,35.162 L52.749,34.507 L54.154,35.162 L55.559,35.818 L54.154,35.162 L55.559,35.818 L54.154,35.162 L55.559,35.818 L54.154,35.162 L52.749,34.507 L54.154,35.162 L52.749,34.507 L51.343,33.852 L52.749,34.507 L51.343,33.852 L49.938,33.197 L51.343,33.852 L49.938,33.197 L48.533,32.542 L49.938,33.197 L48.533,32.542 L47.128,31.886 L48.533,32.542 L47.128,31.886 L45.723,31.231 L47.128,31.886 L45.723,31.231 L45.858,29.687 L45.723,31.231 L45.858,29.687 L45.993,28.142 L45.858,29.687 L45.993,28.142 L46.128,26.598 L45.993,28.142 L46.128,26.598 L46.263,25.053 L46.128,26.598 L46.263,25.053 L46.398,23.509 L46.263,25.053 L46.398,23.509 L46.534,21.964 L46.398,23.509 L46.534,21.964 L46.669,20.420 L46.534,21.964 L46.669,20.420 L46.534,21.964 L46.669,20.420 L46.534,21.964 L46.398,23.509 L46.534,21.964 L46.398,23.509 L46.263,25.053 L46.398,23.509 L46.263,25.053 L46.128,26.598 L46.263,25.053 L46.128,26.598 L45.993,28.142 L46.128,26.598 L45.993,28.142 L45.858,29.687 L45.993,28.142 L45.858,29.687 L45.723,31.231 L45.858,29.687 L45.723,31.231 L47.195,30.381 L45.723,31.231 L47.195,30.381 L48.667,29.531 L47.195,30.381 L48.667,29.531 L50.140,28.681 L48.667,29.531 L50.140,28.681 L51.612,27.831 L50.140,28.681 L51.612,27.831 L52.992,28.475 L51.612,27.831 L52.992,28.475 L54.373,29.119 L52.992,28.475 L54.373,29.119 L55.753,29.762 L54.373,29.119 L55.753,29.762 L57.134,30.406 L55.753,29.762 L57.134,30.406 L58.514,31.050 L57.134,30.406 L58.514,31.050 L59.895,31.693 L58.514,31.050 L59.895,31.693 L58.514,31.050 L59.895,31.693 L58.514,31.050 L57.134,30.406 L58.514,31.050 L57.134,30.406 L55.753,29.762 L57.134,30.406 L55.753,29.762 L54.373,29.119 L55.753,29.762 L54.373,29.119 L52.992,28.475 L54.373,29.119 L52.992,28.475 L51.612,27.831 L52.992,28.475 L51.612,27.831 L51.745,26.314 L51.612,27.831 L51.745,26.314 L51.877,24.796 L51.745,26.314 L51.877,24.796 L52.010,23.279 L51.877,24.796 L52.010,23.279 L52.143,21.761 L52.010,23.279 L52.143,21.761 L52.276,20.244 L52.143,21.761 L52.276,20.244 L52.408,18.727 L52.276,20.244 L52.408,18.727 L52.276,20.244 L52.408,18.727 L52.276,20.244 L52.143,21.761 L52.276,20.244 L52.143,21.761 L52.010,23.279 L52.143,21.761 L52.010,23.279 L51.877,24.796 L52.010,23.279 L51.877,24.796 L51.745,26.314 L51.877,24.796 L51.745,26.314 L51.612,27.831 L51.745,26.314 L51.612,27.831 L53.084,26.981 L51.612,27.831 L53.084,26.981 L54.556,26.131 L53.084,26.981 L54.556,26.131 L56.029,25.281 L54.556,26.131 L56.029,25.281 L57.501,24.431 L56.029,25.281 L57.501,24.431 L58.847,25.059 L57.501,24.431 L58.847,25.059 L60.193,25.686 L58.847,25.059 L60.193,25.686 L61.539,26.314 L60.193,25.686 L61.539,26.314 L62.885,26.942 L61.539,26.314 L62.885,26.942 L64.231,27.569 L62.885,26.942 L64.231,27.569 L62.885,26.942 L64.231,27.569 L62.885,26.942 L61.539,26.314 L62.885,26.942 L61.539,26.314 L60.193,25.686 L61.539,26.314 L60.193,25.686 L58.847,25.059 L60.193,25.686 L58.847,25.059 L57.501,24.431 L58.847,25.059 L57.501,24.431 L57.630,22.952 L57.501,24.431 L57.630,22.952 L57.760,21.472 L57.630,22.952 L57.760,21.472 L57.889,19.993 L57.760,21.472 L57.889,19.993 L58.019,18.513 L57.889,19.993 L58.019,18.513 L58.148,17.034 L58.019,18.513 L58.148,17.034 L58.019,18.513 L58.148,17.034 L58.019,18.513 L57.889,19.993 L58.019,18.513 L57.889,19.993 L57.760,21.472 L57.889,19.993 L57.760,21.472 L57.630,22.952 L57.760,21.472 L57.630,22.952 L57.501,24.431 L57.630,22.952 L57.501,24.431 L58.973,23.581 L57.501,24.431 L58.973,23.581 L60.445,22.731 L58.973,23.581 L60.445,22.731 L61.917,21.881 L60.445,22.731 L61.917,21.881 L63.390,21.031 L61.917,21.881 L63.390,21.031 L65.140,21.031 L63.390,21.031 L65.140,21.031 L66.890,21.031 L65.140,21.031 L66.890,21.031 M63.390,21.031 L64.265,19.516 L63.390,21.031 L64.265,19.516 L65.140,18.000 L64.265,19.516 L65.140,18.000 M63.390,21.031 L61.840,21.926 L63.390,21.031 L61.840,21.926 L60.290,22.821 L61.840,21.926 L60.290,22.821 L58.741,23.715 L60.290,22.821 L58.741,23.715 L57.191,24.610 L58.741,23.715 L57.191,24.610 L55.641,25.505 L57.191,24.610 L55.641,25.505 L54.091,26.400 L55.641,25.505 L54.091,26.400 L52.542,27.294 L54.091,26.400 L52.542,27.294 L50.992,28.189 L52.542,27.294 L50.992,28.189 L49.442,29.084 L50.992,28.189 L49.442,29.084 L47.892,29.978 L49.442,29.084 L47.892,29.978 L46.343,30.873 L47.892,29.978 L46.343,30.873 L44.793,31.768 L46.343,30.873 L44.793,31.768 L43.243,32.663 L44.793,31.768 L43.243,32.663 L41.694,33.557 L43.243,32.663 L41.694,33.557 L40.144,34.452 L41.694,33.557 L40.144,34.452 L38.594,35.347 L40.144,34.452 L38.594,35.347 L37.044,36.242 L38.594,35.347 L37.044,36.242 L35.495,37.136 L37.044,36.242 L35.495,37.136 L33.945,38.031 L35.495,37.136 L33.945,38.031 L35.417,38.881 L33.945,38.031 L35.417,38.881 L36.889,39.731 L35.417,38.881 L36.889,39.731 L38.362,40.581 L36.889,39.731 L38.362,40.581 L39.834,41.431 L38.362,40.581 L39.834,41.431 L41.306,42.281 L39.834,41.431 L41.306,42.281 L42.778,43.131 L41.306,42.281 L42.778,43.131 L44.251,43.981 L42.778,43.131 L44.251,43.981 L45.723,44.831 L44.251,43.981 L45.723,44.831 L45.858,46.376 L45.723,44.831 L45.858,46.376 L45.993,47.920 L45.858,46.376 L45.993,47.920 L46.128,49.465 L45.993,47.920 L46.128,49.465 L46.263,51.009 L46.128,49.465 L46.263,51.009 L46.398,52.554 L46.263,51.009 L46.398,52.554 L46.534,54.098 L46.398,52.554 L46.534,54.098 L46.669,55.643 L46.534,54.098 L46.669,55.643 L46.534,54.098 L46.669,55.643 L46.534,54.098 L46.398,52.554 L46.534,54.098 L46.398,52.554 L46.263,51.009 L46.398,52.554 L46.263,51.009 L46.128,49.465 L46.263,51.009 L46.128,49.465 L45.993,47.920 L46.128,49.465 L45.993,47.920 L45.858,46.376 L45.993,47.920 L45.858,46.376 L45.723,44.831 L45.858,46.376 L45.723,44.831 L47.128,44.176 L45.723,44.831 L47.128,44.176 L48.533,43.521 L47.128,44.176 L48.533,43.521 L49.938,42.865 L48.533,43.521 L49.938,42.865 L51.343,42.210 L49.938,42.865 L51.343,42.210 L52.749,41.555 L51.343,42.210 L52.749,41.555 L54.154,40.900 L52.749,41.555 L54.154,40.900 L55.559,40.244 L54.154,40.900 L55.559,40.244 L54.154,40.900 L55.559,40.244 L54.154,40.900 L52.749,41.555 L54.154,40.900 L52.749,41.555 L51.343,42.210 L52.749,41.555 L51.343,42.210 L49.938,42.865 L51.343,42.210 L49.938,42.865 L48.533,43.521 L49.938,42.865 L48.533,43.521 L47.128,44.176 L48.533,43.521 L47.128,44.176 L45.723,44.831 L47.128,44.176 L45.723,44.831 L47.195,45.681 L45.723,44.831 L47.195,45.681 L48.667,46.531 L47.195,45.681 L48.667,46.531 L50.140,47.381 L48.667,46.531 L50.140,47.381 L51.612,48.231 L50.140,47.381 L51.612,48.231 L51.745,49.748 L51.612,48.231 L51.745,49.748 L51.877,51.266 L51.745,49.748 L51.877,51.266 L52.010,52.783 L51.877,51.266 L52.010,52.783 L52.143,54.301 L52.010,52.783 L52.143,54.301 L52.276,55.818 L52.143,54.301 L52.276,55.818 L52.408,57.336 L52.276,55.818 L52.408,57.336 L52.276,55.818 L52.408,57.336 L52.276,55.818 L52.143,54.301 L52.276,55.818 L52.143,54.301 L52.010,52.783 L52.143,54.301 L52.010,52.783 L51.877,51.266 L52.010,52.783 L51.877,51.266 L51.745,49.748 L51.877,51.266 L51.745,49.748 L51.612,48.231 L51.745,49.748 L51.612,48.231 L52.992,47.587 L51.612,48.231 L52.992,47.587 L54.373,46.944 L52.992,47.587 L54.373,46.944 L55.753,46.300 L54.373,46.944 L55.753,46.300 L57.134,45.656 L55.753,46.300 L57.134,45.656 L58.514,45.012 L57.134,45.656 L58.514,45.012 L59.895,44.369 L58.514,45.012 L59.895,44.369 L58.514,45.012 L59.895,44.369 L58.514,45.012 L57.134,45.656 L58.514,45.012 L57.134,45.656 L55.753,46.300 L57.134,45.656 L55.753,46.300 L54.373,46.944 L55.753,46.300 L54.373,46.944 L52.992,47.587 L54.373,46.944 L52.992,47.587 L51.612,48.231 L52.992,47.587 L51.612,48.231 L53.084,49.081 L51.612,48.231 L53.084,49.081 L54.556,49.931 L53.084,49.081 L54.556,49.931 L56.029,50.781 L54.556,49.931 L56.029,50.781 L57.501,51.631 L56.029,50.781 L57.501,51.631 L57.630,53.111 L57.501,51.631 L57.630,53.111 L57.760,54.590 L57.630,53.111 L57.760,54.590 L57.889,56.069 L57.760,54.590 L57.889,56.069 L58.019,57.549 L57.889,56.069 L58.019,57.549 L58.148,59.028 L58.019,57.549 L58.148,59.028 L58.019,57.549 L58.148,59.028 L58.019,57.549 L57.889,56.069 L58.019,57.549 L57.889,56.069 L57.760,54.590 L57.889,56.069 L57.760,54.590 L57.630,53.111 L57.760,54.590 L57.630,53.111 L57.501,51.631 L57.630,53.111 L57.501,51.631 L58.847,51.003 L57.501,51.631 L58.847,51.003 L60.193,50.376 L58.847,51.003 L60.193,50.376 L61.539,49.748 L60.193,50.376 L61.539,49.748 L62.885,49.121 L61.539,49.748 L62.885,49.121 L64.231,48.493 L62.885,49.121 L64.231,48.493 L62.885,49.121 L64.231,48.493 L62.885,49.121 L61.539,49.748 L62.885,49.121 L61.539,49.748 L60.193,50.376 L61.539,49.748 L60.193,50.376 L58.847,51.003 L60.193,50.376 L58.847,51.003 L57.501,51.631 L58.847,51.003 L57.501,51.631 L58.973,52.481 L57.501,51.631 L58.973,52.481 L60.445,53.331 L58.973,52.481 L60.445,53.331 L61.917,54.181 L60.445,53.331 L61.917,54.181 L63.390,55.031 L61.917,54.181 L63.390,55.031 L64.265,56.547 L63.390,55.031 L64.265,56.547 L65.140,58.062 L64.265,56.547 L65.140,58.062 M63.390,55.031 L65.140,55.031 L63.390,55.031 L65.140,55.031 L66.890,55.031 L65.140,55.031 L66.890,55.031 M63.390,55.031 L61.840,54.136 L63.390,55.031 L61.840,54.136 L60.290,53.242 L61.840,54.136 L60.290,53.242 L58.741,52.347 L60.290,53.242 L58.741,52.347 L57.191,51.452 L58.741,52.347 L57.191,51.452 L55.641,50.557 L57.191,51.452 L55.641,50.557 L54.091,49.663 L55.641,50.557 L54.091,49.663 L52.542,48.768 L54.091,49.663 L52.542,48.768 L50.992,47.873 L52.542,48.768 L50.992,47.873 L49.442,46.978 L50.992,47.873 L49.442,46.978 L47.892,46.084 L49.442,46.978 L47.892,46.084 L46.343,45.189 L47.892,46.084 L46.343,45.189 L44.793,44.294 L46.343,45.189 L44.793,44.294 L43.243,43.400 L44.793,44.294 L43.243,43.400 L41.694,42.505 L43.243,43.400 L41.694,42.505 L40.144,41.610 L41.694,42.505 L40.144,41.610 L38.594,40.715 L40.144,41.610 L38.594,40.715 L37.044,39.821 L38.594,40.715 L37.044,39.821 L35.495,38.926 L37.044,39.821 L35.495,38.926 L33.945,38.031 L35.495,38.926 L33.945,38.031 L33.945,39.731 L33.945,38.031 L33.945,39.731 L33.945,41.431 L33.945,39.731 L33.945,41.431 L33.945,43.131 L33.945,41.431 L33.945,43.131 L33.945,44.831 L33.945,43.131 L33.945,44.831 L33.945,46.531 L33.945,44.831 L33.945,46.531 L33.945,48.231 L33.945,46.531 L33.945,48.231 L33.945,49.931 L33.945,48.231 L33.945,49.931 L33.945,51.631 L33.945,49.931 L33.945,51.631 L32.675,52.520 L33.945,51.631 L32.675,52.520 L31.405,53.410 L32.675,52.520 L31.405,53.410 L30.135,54.299 L31.405,53.410 L30.135,54.299 L28.865,55.188 L30.135,54.299 L28.865,55.188 L27.595,56.077 L28.865,55.188 L27.595,56.077 L26.325,56.967 L27.595,56.077 L26.325,56.967 L25.055,57.856 L26.325,56.967 L25.055,57.856 L26.325,56.967 L25.055,57.856 L26.325,56.967 L27.595,56.077 L26.325,56.967 L27.595,56.077 L28.865,55.188 L27.595,56.077 L28.865,55.188 L30.135,54.299 L28.865,55.188 L30.135,54.299 L31.405,53.410 L30.135,54.299 L31.405,53.410 L32.675,52.520 L31.405,53.410 L32.675,52.520 L33.945,51.631 L32.675,52.520 L33.945,51.631 L35.215,52.520 L33.945,51.631 L35.215,52.520 L36.485,53.410 L35.215,52.520 L36.485,53.410 L37.755,54.299 L36.485,53.410 L37.755,54.299 L39.025,55.188 L37.755,54.299 L39.025,55.188 L40.295,56.077 L39.025,55.188 L40.295,56.077 L41.565,56.967 L40.295,56.077 L41.565,56.967 L42.835,57.856 L41.565,56.967 L42.835,57.856 L41.565,56.967 L42.835,57.856 L41.565,56.967 L40.295,56.077 L41.565,56.967 L40.295,56.077 L39.025,55.188 L40.295,56.077 L39.025,55.188 L37.755,54.299 L39.025,55.188 L37.755,54.299 L36.485,53.410 L37.755,54.299 L36.485,53.410 L35.215,52.520 L36.485,53.410 L35.215,52.520 L33.945,51.631 L35.215,52.520 L33.945,51.631 L33.945,53.331 L33.945,51.631 L33.945,53.331 L33.945,55.031 L33.945,53.331 L33.945,55.031 L33.945,56.731 L33.945,55.031 L33.945,56.731 L33.945,58.431 L33.945,56.731 L33.945,58.431 L32.697,59.305 L33.945,58.431 L32.697,59.305 L31.449,60.178 L32.697,59.305 L31.449,60.178 L30.202,61.052 L31.449,60.178 L30.202,61.052 L28.954,61.926 L30.202,61.052 L28.954,61.926 L27.706,62.799 L28.954,61.926 L27.706,62.799 L26.458,63.673 L27.706,62.799 L26.458,63.673 L27.706,62.799 L26.458,63.673 L27.706,62.799 L28.954,61.926 L27.706,62.799 L28.954,61.926 L30.202,61.052 L28.954,61.926 L30.202,61.052 L31.449,60.178 L30.202,61.052 L31.449,60.178 L32.697,59.305 L31.449,60.178 L32.697,59.305 L33.945,58.431 L32.697,59.305 L33.945,58.431 L35.193,59.305 L33.945,58.431 L35.193,59.305 L36.440,60.178 L35.193,59.305 L36.440,60.178 L37.688,61.052 L36.440,60.178 L37.688,61.052 L38.936,61.926 L37.688,61.052 L38.936,61.926 L40.184,62.799 L38.936,61.926 L40.184,62.799 L41.431,63.673 L40.184,62.799 L41.431,63.673 L40.184,62.799 L41.431,63.673 L40.184,62.799 L38.936,61.926 L40.184,62.799 L38.936,61.926 L37.688,61.052 L38.936,61.926 L37.688,61.052 L36.440,60.178 L37.688,61.052 L36.440,60.178 L35.193,59.305 L36.440,60.178 L35.193,59.305 L33.945,58.431 L35.193,59.305 L33.945,58.431 L33.945,60.131 L33.945,58.431 L33.945,60.131 L33.945,61.831 L33.945,60.131 L33.945,61.831 L33.945,63.531 L33.945,61.831 L33.945,63.531 L33.945,65.231 L33.945,63.531 L33.945,65.231 L32.728,66.083 L33.945,65.231 L32.728,66.083 L31.512,66.935 L32.728,66.083 L31.512,66.935 L30.295,67.787 L31.512,66.935 L30.295,67.787 L29.079,68.638 L30.295,67.787 L29.079,68.638 L27.862,69.490 L29.079,68.638 L27.862,69.490 L29.079,68.638 L27.862,69.490 L29.079,68.638 L30.295,67.787 L29.079,68.638 L30.295,67.787 L31.512,66.935 L30.295,67.787 L31.512,66.935 L32.728,66.083 L31.512,66.935 L32.728,66.083 L33.945,65.231 L32.728,66.083 L33.945,65.231 L35.161,66.083 L33.945,65.231 L35.161,66.083 L36.378,66.935 L35.161,66.083 L36.378,66.935 L37.594,67.787 L36.378,66.935 L37.594,67.787 L38.811,68.638 L37.594,67.787 L38.811,68.638 L40.028,69.490 L38.811,68.638 L40.028,69.490 L38.811,68.638 L40.028,69.490 L38.811,68.638 L37.594,67.787 L38.811,68.638 L37.594,67.787 L36.378,66.935 L37.594,67.787 L36.378,66.935 L35.161,66.083 L36.378,66.935 L35.161,66.083 L33.945,65.231 L35.161,66.083 L33.945,65.231 L33.945,66.931 L33.945,65.231 L33.945,66.931 L33.945,68.631 L33.945,66.931 L33.945,68.631 L33.945,70.331 L33.945,68.631 L33.945,70.331 L33.945,72.031 L33.945,70.331 L33.945,72.031 L33.070,73.547 L33.945,72.031 L33.070,73.547 L32.195,75.062 L33.070,73.547 L32.195,75.062 M33.945,72.031 L34.820,73.547 L33.945,72.031 L34.820,73.547 L35.695,75.062 L34.820,73.547 L35.695,75.062 M33.945,72.031 L33.945,70.242 L33.945,72.031 L33.945,70.242 L33.945,68.452 L33.945,70.242 L33.945,68.452 L33.945,66.663 L33.945,68.452 L33.945,66.663 L33.945,64.873 L33.945,66.663 L33.945,64.873 L33.945,63.084 L33.945,64.873 L33.945,63.084 L33.945,61.294 L33.945,63.084 L33.945,61.294 L33.945,59.505 L33.945,61.294 L33.945,59.505 L33.945,57.715 L33.945,59.505 L33.945,57.715 L33.945,55.926 L33.945,57.715 L33.945,55.926 L33.945,54.136 L33.945,55.926 L33.945,54.136 L33.945,52.347 L33.945,54.136 L33.945,52.347 L33.945,50.557 L33.945,52.347 L33.945,50.557 L33.945,48.768 L33.945,50.557 L33.945,48.768 L33.945,46.978 L33.945,48.768 L33.945,46.978 L33.945,45.189 L33.945,46.978 L33.945,45.189 L33.945,43.400 L33.945,45.189 L33.945,43.400 L33.945,41.610 L33.945,43.400 L33.945,41.610 L33.945,39.821 L33.945,41.610 L33.945,39.821 L33.945,38.031 L33.945,39.821 L33.945,38.031 L32.473,38.881 L33.945,38.031 L32.473,38.881 L31.000,39.731 L32.473,38.881 L31.000,39.731 L29.528,40.581 L31.000,39.731 L29.528,40.581 L28.056,41.431 L29.528,40.581 L28.056,41.431 L26.584,42.281 L28.056,41.431 L26.584,42.281 L25.111,43.131 L26.584,42.281 L25.111,43.131 L23.639,43.981 L25.111,43.131 L23.639,43.981 L22.167,44.831 L23.639,43.981 L22.167,44.831 L20.762,44.176 L22.167,44.831 L20.762,44.176 L19.357,43.521 L20.762,44.176 L19.357,43.521 L17.951,42.865 L19.357,43.521 L17.951,42.865 L16.546,42.210 L17.951,42.865 L16.546,42.210 L15.141,41.555 L16.546,42.210 L15.141,41.555 L13.736,40.900 L15.141,41.555 L13.736,40.900 L12.331,40.244 L13.736,40.900 L12.331,40.244 L13.736,40.900 L12.331,40.244 L13.736,40.900 L15.141,41.555 L13.736,40.900 L15.141,41.555 L16.546,42.210 L15.141,41.555 L16.546,42.210 L17.951,42.865 L16.546,42.210 L17.951,42.865 L19.357,43.521 L17.951,42.865 L19.357,43.521 L20.762,44.176 L19.357,43.521 L20.762,44.176 L22.167,44.831 L20.762,44.176 L22.167,44.831 L22.032,46.376 L22.167,44.831 L22.032,46.376 L21.897,47.920 L22.032,46.376 L21.897,47.920 L21.762,49.465 L21.897,47.920 L21.762,49.465 L21.626,51.009 L21.762,49.465 L21.626,51.009 L21.491,52.554 L21.626,51.009 L21.491,52.554 L21.356,54.098 L21.491,52.554 L21.356,54.098 L21.221,55.643 L21.356,54.098 L21.221,55.643 L21.356,54.098 L21.221,55.643 L21.356,54.098 L21.491,52.554 L21.356,54.098 L21.491,52.554 L21.626,51.009 L21.491,52.554 L21.626,51.009 L21.762,49.465 L21.626,51.009 L21.762,49.465 L21.897,47.920 L21.762,49.465 L21.897,47.920 L22.032,46.376 L21.897,47.920 L22.032,46.376 L22.167,44.831 L22.032,46.376 L22.167,44.831 L20.695,45.681 L22.167,44.831 L20.695,45.681 L19.222,46.531 L20.695,45.681 L19.222,46.531 L17.750,47.381 L19.222,46.531 L17.750,47.381 L16.278,48.231 L17.750,47.381 L16.278,48.231 L14.897,47.587 L16.278,48.231 L14.897,47.587 L13.517,46.944 L14.897,47.587 L13.517,46.944 L12.136,46.300 L13.517,46.944 L12.136,46.300 L10.756,45.656 L12.136,46.300 L10.756,45.656 L9.376,45.012 L10.756,45.656 L9.376,45.012 L7.995,44.369 L9.376,45.012 L7.995,44.369 L9.376,45.012 L7.995,44.369 L9.376,45.012 L10.756,45.656 L9.376,45.012 L10.756,45.656 L12.136,46.300 L10.756,45.656 L12.136,46.300 L13.517,46.944 L12.136,46.300 L13.517,46.944 L14.897,47.587 L13.517,46.944 L14.897,47.587 L16.278,48.231 L14.897,47.587 L16.278,48.231 L16.145,49.748 L16.278,48.231 L16.145,49.748 L16.012,51.266 L16.145,49.748 L16.012,51.266 L15.880,52.783 L16.012,51.266 L15.880,52.783 L15.747,54.301 L15.880,52.783 L15.747,54.301 L15.614,55.818 L15.747,54.301 L15.614,55.818 L15.481,57.336 L15.614,55.818 L15.481,57.336 L15.614,55.818 L15.481,57.336 L15.614,55.818 L15.747,54.301 L15.614,55.818 L15.747,54.301 L15.880,52.783 L15.747,54.301 L15.880,52.783 L16.012,51.266 L15.880,52.783 L16.012,51.266 L16.145,49.748 L16.012,51.266 L16.145,49.748 L16.278,48.231 L16.145,49.748 L16.278,48.231 L14.806,49.081 L16.278,48.231 L14.806,49.081 L13.333,49.931 L14.806,49.081 L13.333,49.931 L11.861,50.781 L13.333,49.931 L11.861,50.781 L10.389,51.631 L11.861,50.781 L10.389,51.631 L9.043,51.003 L10.389,51.631 L9.043,51.003 L7.697,50.376 L9.043,51.003 L7.697,50.376 L6.351,49.748 L7.697,50.376 L6.351,49.748 L5.005,49.121 L6.351,49.748 L5.005,49.121 L3.659,48.493 L5.005,49.121 L3.659,48.493 L5.005,49.121 L3.659,48.493 L5.005,49.121 L6.351,49.748 L5.005,49.121 L6.351,49.748 L7.697,50.376 L6.351,49.748 L7.697,50.376 L9.043,51.003 L7.697,50.376 L9.043,51.003 L10.389,51.631 L9.043,51.003 L10.389,51.631 L10.260,53.111 L10.389,51.631 L10.260,53.111 L10.130,54.590 L10.260,53.111 L10.130,54.590 L10.001,56.069 L10.130,54.590 L10.001,56.069 L9.871,57.549 L10.001,56.069 L9.871,57.549 L9.742,59.028 L9.871,57.549 L9.742,59.028 L9.871,57.549 L9.742,59.028 L9.871,57.549 L10.001,56.069 L9.871,57.549 L10.001,56.069 L10.130,54.590 L10.001,56.069 L10.130,54.590 L10.260,53.111 L10.130,54.590 L10.260,53.111 L10.389,51.631 L10.260,53.111 L10.389,51.631 L8.917,52.481 L10.389,51.631 L8.917,52.481 L7.444,53.331 L8.917,52.481 L7.444,53.331 L5.972,54.181 L7.444,53.331 L5.972,54.181 L4.500,55.031 L5.972,54.181 L4.500,55.031 L2.750,55.031 L4.500,55.031 L2.750,55.031 L1.000,55.031 L2.750,55.031 L1.000,55.031 M4.500,55.031 L3.625,56.547 L4.500,55.031 L3.625,56.547 L2.750,58.062 L3.625,56.547 L2.750,58.062 M4.500,55.031 L6.050,54.136 L4.500,55.031 L6.050,54.136 L7.599,53.242 L6.050,54.136 L7.599,53.242 L9.149,52.347 L7.599,53.242 L9.149,52.347 L10.699,51.452 L9.149,52.347 L10.699,51.452 L12.249,50.557 L10.699,51.452 L12.249,50.557 L13.798,49.663 L12.249,50.557 L13.798,49.663 L15.348,48.768 L13.798,49.663 L15.348,48.768 L16.898,47.873 L15.348,48.768 L16.898,47.873 L18.448,46.978 L16.898,47.873 L18.448,46.978 L19.997,46.084 L18.448,46.978 L19.997,46.084 L21.547,45.189 L19.997,46.084 L21.547,45.189 L23.097,44.294 L21.547,45.189 L23.097,44.294 L24.646,43.400 L23.097,44.294 L24.646,43.400 L26.196,42.505 L24.646,43.400 L26.196,42.505 L27.746,41.610 L26.196,42.505 L27.746,41.610 L29.296,40.715 L27.746,41.610 L29.296,40.715 L30.845,39.821 L29.296,40.715 L30.845,39.821 L32.395,38.926 L30.845,39.821 L32.395,38.926 L33.945,38.031 L32.395,38.926 L33.945,38.031 L32.473,37.181 L33.945,38.031 L32.473,37.181 L31.000,36.331 L32.473,37.181 L31.000,36.331 L29.528,35.481 L31.000,36.331 L29.528,35.481 L28.056,34.631 L29.528,35.481 L28.056,34.631 L26.584,33.781 L28.056,34.631 L26.584,33.781 L25.111,32.931 L26.584,33.781 L25.111,32.931 L23.639,32.081 L25.111,32.931 L23.639,32.081 L22.167,31.231 L23.639,32.081 L22.167,31.231 L22.032,29.687 L22.167,31.231 L22.032,29.687 L21.897,28.142 L22.032,29.687 L21.897,28.142 L21.762,26.598 L21.897,28.142 L21.762,26.598 L21.626,25.053 L21.762,26.598 L21.626,25.053 L21.491,23.509 L21.626,25.053 L21.491,23.509 L21.356,21.964 L21.491,23.509 L21.356,21.964 L21.221,20.420 L21.356,21.964 L21.221,20.420 L21.356,21.964 L21.221,20.420 L21.356,21.964 L21.491,23.509 L21.356,21.964 L21.491,23.509 L21.626,25.053 L21.491,23.509 L21.626,25.053 L21.762,26.598 L21.626,25.053 L21.762,26.598 L21.897,28.142 L21.762,26.598 L21.897,28.142 L22.032,29.687 L21.897,28.142 L22.032,29.687 L22.167,31.231 L22.032,29.687 L22.167,31.231 L20.762,31.886 L22.167,31.231 L20.762,31.886 L19.357,32.542 L20.762,31.886 L19.357,32.542 L17.951,33.197 L19.357,32.542 L17.951,33.197 L16.546,33.852 L17.951,33.197 L16.546,33.852 L15.141,34.507 L16.546,33.852 L15.141,34.507 L13.736,35.162 L15.141,34.507 L13.736,35.162 L12.331,35.818 L13.736,35.162 L12.331,35.818 L13.736,35.162 L12.331,35.818 L13.736,35.162 L15.141,34.507 L13.736,35.162 L15.141,34.507 L16.546,33.852 L15.141,34.507 L16.546,33.852 L17.951,33.197 L16.546,33.852 L17.951,33.197 L19.357,32.542 L17.951,33.197 L19.357,32.542 L20.762,31.886 L19.357,32.542 L20.762,31.886 L22.167,31.231 L20.762,31.886 L22.167,31.231 L20.695,30.381 L22.167,31.231 L20.695,30.381 L19.222,29.531 L20.695,30.381 L19.222,29.531 L17.750,28.681 L19.222,29.531 L17.750,28.681 L16.278,27.831 L17.750,28.681 L16.278,27.831 L16.145,26.314 L16.278,27.831 L16.145,26.314 L16.012,24.796 L16.145,26.314 L16.012,24.796 L15.880,23.279 L16.012,24.796 L15.880,23.279 L15.747,21.761 L15.880,23.279 L15.747,21.761 L15.614,20.244 L15.747,21.761 L15.614,20.244 L15.481,18.727 L15.614,20.244 L15.481,18.727 L15.614,20.244 L15.481,18.727 L15.614,20.244 L15.747,21.761 L15.614,20.244 L15.747,21.761 L15.880,23.279 L15.747,21.761 L15.880,23.279 L16.012,24.796 L15.880,23.279 L16.012,24.796 L16.145,26.314 L16.012,24.796 L16.145,26.314 L16.278,27.831 L16.145,26.314 L16.278,27.831 L14.897,28.475 L16.278,27.831 L14.897,28.475 L13.517,29.119 L14.897,28.475 L13.517,29.119 L12.136,29.762 L13.517,29.119 L12.136,29.762 L10.756,30.406 L12.136,29.762 L10.756,30.406 L9.376,31.050 L10.756,30.406 L9.376,31.050 L7.995,31.693 L9.376,31.050 L7.995,31.693 L9.376,31.050 L7.995,31.693 L9.376,31.050 L10.756,30.406 L9.376,31.050 L10.756,30.406 L12.136,29.762 L10.756,30.406 L12.136,29.762 L13.517,29.119 L12.136,29.762 L13.517,29.119 L14.897,28.475 L13.517,29.119 L14.897,28.475 L16.278,27.831 L14.897,28.475 L16.278,27.831 L14.806,26.981 L16.278,27.831 L14.806,26.981 L13.333,26.131 L14.806,26.981 L13.333,26.131 L11.861,25.281 L13.333,26.131 L11.861,25.281 L10.389,24.431 L11.861,25.281 L10.389,24.431 L10.260,22.952 L10.389,24.431 L10.260,22.952 L10.130,21.472 L10.260,22.952 L10.130,21.472 L10.001,19.993 L10.130,21.472 L10.001,19.993 L9.871,18.513 L10.001,19.993 L9.871,18.513 L9.742,17.034 L9.871,18.513 L9.742,17.034 L9.871,18.513 L9.742,17.034 L9.871,18.513 L10.001,19.993 L9.871,18.513 L10.001,19.993 L10.130,21.472 L10.001,19.993 L10.130,21.472 L10.260,22.952 L10.130,21.472 L10.260,22.952 L10.389,24.431 L10.260,22.952 L10.389,24.431 L9.043,25.059 L10.389,24.431 L9.043,25.059 L7.697,25.686 L9.043,25.059 L7.697,25.686 L6.351,26.314 L7.697,25.686 L6.351,26.314 L5.005,26.942 L6.351,26.314 L5.005,26.942 L3.659,27.569 L5.005,26.942 L3.659,27.569 L5.005,26.942 L3.659,27.569 L5.005,26.942 L6.351,26.314 L5.005,26.942 L6.351,26.314 L7.697,25.686 L6.351,26.314 L7.697,25.686 L9.043,25.059 L7.697,25.686 L9.043,25.059 L10.389,24.431 L9.043,25.059 L10.389,24.431 L8.917,23.581 L10.389,24.431 L8.917,23.581 L7.444,22.731 L8.917,23.581 L7.444,22.731 L5.972,21.881 L7.444,22.731 L5.972,21.881 L4.500,21.031 L5.972,21.881 L4.500,21.031 L3.625,19.516 L4.500,21.031 L3.625,19.516 L2.750,18.000 L3.625,19.516 L2.750,18.000 M4.500,21.031 L2.750,21.031 L4.500,21.031 L2.750,21.031 L1.000,21.031 L2.750,21.031 L1.000,21.031 M4.500,21.031 L6.050,21.926 L4.500,21.031 L6.050,21.926 L7.599,22.821 L6.050,21.926 L7.599,22.821 L9.149,23.715 L7.599,22.821 L9.149,23.715 L10.699,24.610 L9.149,23.715 L10.699,24.610 L12.249,25.505 L10.699,24.610 L12.249,25.505 L13.798,26.400 L12.249,25.505 L13.798,26.400 L15.348,27.294 L13.798,26.400 L15.348,27.294 L16.898,28.189 L15.348,27.294 L16.898,28.189 L18.448,29.084 L16.898,28.189 L18.448,29.084 L19.997,29.978 L18.448,29.084 L19.997,29.978 L21.547,30.873 L19.997,29.978 L21.547,30.873 L23.097,31.768 L21.547,30.873 L23.097,31.768 L24.646,32.663 L23.097,31.768 L24.646,32.663 L26.196,33.557 L24.646,32.663 L26.196,33.557 L27.746,34.452 L26.196,33.557 L27.746,34.452 L29.296,35.347 L27.746,34.452 L29.296,35.347 L30.845,36.242 L29.296,35.347 L30.845,36.242 L32.395,37.136 L30.845,36.242 L32.395,37.136 L33.945,38.031 L32.395,37.136 L33.945,38.031 L33.339,37.681 L33.945,38.031 L33.339,37.681 L33.945,38.031"/>
</svg>
