<svg xmlns="http://www.w3.org/2000/svg" viewBox="-2.377 0 83.61 83.61" width="256" height="256">
  <title>spiderweb</title>
  <rect x="-2.377" y="0" width="83.61" height="83.61" fill="#f5efe4"/>
  <path fill="none" stroke="#8c4a6b" stroke-width="0.4" stroke-linecap="round" stroke-linejoin="round" d="M39.351,42.941 L39.351,42.241 L39.351,42.941 L39.351,42.241 L39.351,42.941 L39.351,40.944 L39.351,38.947 L39.351,36.950 L39.351,34.953 L39.351,32.955 L39.351,30.958 L39.351,28.961 L39.351,26.964 L39.351,24.967 L39.351,22.969 L39.351,20.972 L39.351,18.975 L39.351,16.978 L39.351,14.980 L39.351,12.983 L39.351,10.986 L39.351,8.989 L39.351,6.992 L39.351,4.994 L39.351,2.997 L39.351,1.000 L39.351,1.700 L39.351,1.000 L39.351,1.700 L39.351,1.000 M39.351,42.941 L39.701,42.335 L39.351,42.941 L39.701,42.335 L39.351,42.941 L40.344,41.222 L41.336,39.503 L42.329,37.784 L43.321,36.064 L44.314,34.345 L45.307,32.626 L46.299,30.907 L47.292,29.187 L48.285,27.468 L49.277,25.749 L50.270,24.029 L51.262,22.310 L52.255,20.591 L53.248,18.872 L54.240,17.152 L55.233,15.433 L56.225,13.714 L57.218,11.995 L58.211,10.275 L59.203,8.556 L60.196,6.837 L59.846,7.443 L60.196,6.837 L59.846,7.443 L60.196,6.837 M39.351,42.941 L39.957,42.591 L39.351,42.941 L39.957,42.591 L39.351,42.941 L41.043,41.965 L42.734,40.988 L44.426,40.011 L46.118,39.035 L47.810,38.058 L49.501,37.081 L51.193,36.104 L52.885,35.128 L54.576,34.151 L56.268,33.174 L57.960,32.198 L59.652,31.221 L61.343,30.244 L63.035,29.267 L64.727,28.291 L66.419,27.314 L68.110,26.337 L69.802,25.360 L71.494,24.384 L70.888,24.734 L71.494,24.384 L70.888,24.734 L71.494,24.384 M39.351,42.941 L40.051,42.941 L39.351,42.941 L40.051,42.941 L39.351,42.941 L41.276,42.941 L43.201,42.941 L45.127,42.941 L47.052,42.941 L48.977,42.941 L50.902,42.941 L52.828,42.941 L54.753,42.941 L56.678,42.941 L58.603,42.941 L60.529,42.941 L62.454,42.941 L64.379,42.941 L66.304,42.941 L68.230,42.941 L70.155,42.941 L72.080,42.941 L74.005,42.941 L75.931,42.941 L77.856,42.941 L77.156,42.941 L77.856,42.941 L77.156,42.941 L77.856,42.941 M39.351,42.941 L39.957,43.291 L39.351,42.941 L39.957,43.291 L39.351,42.941 L41.057,43.926 L42.762,44.911 L44.468,45.896 L46.174,46.881 L47.880,47.866 L49.585,48.850 L51.291,49.835 L52.997,50.820 L54.703,51.805 L56.408,52.790 L58.114,53.774 L59.820,54.759 L61.526,55.744 L63.231,56.729 L64.937,57.714 L66.643,58.699 L68.349,59.683 L70.055,60.668 L71.760,61.653 L73.466,62.638 L72.860,62.288 L73.466,62.638 L72.860,62.288 L73.466,62.638 M39.351,42.941 L39.701,43.548 L39.351,42.941 L39.701,43.548 L39.351,42.941 L40.350,44.672 L41.350,46.403 L42.349,48.134 L43.348,49.865 L44.347,51.596 L45.347,53.327 L46.346,55.057 L47.345,56.788 L48.345,58.519 L49.344,60.250 L50.343,61.981 L51.343,63.712 L52.342,65.443 L53.341,67.173 L54.341,68.904 L55.340,70.635 L56.339,72.366 L57.338,74.097 L58.338,75.828 L59.337,77.559 L58.987,76.952 L59.337,77.559 L58.987,76.952 L59.337,77.559 M39.351,42.941 L39.351,43.641 L39.351,42.941 L39.351,43.641 L39.351,42.941 L39.351,44.925 L39.351,46.908 L39.351,48.892 L39.351,50.875 L39.351,52.859 L39.351,54.842 L39.351,56.826 L39.351,58.809 L39.351,60.792 L39.351,62.776 L39.351,64.759 L39.351,66.743 L39.351,68.726 L39.351,70.710 L39.351,72.693 L39.351,74.677 L39.351,76.660 L39.351,78.643 L39.351,80.627 L39.351,82.610 L39.351,81.910 L39.351,82.610 L39.351,81.910 L39.351,82.610 M39.351,42.941 L39.001,43.548 L39.351,42.941 L39.001,43.548 L39.351,42.941 L38.379,44.624 L37.408,46.307 L36.437,47.989 L35.465,49.672 L34.494,51.354 L33.522,53.037 L32.551,54.720 L31.579,56.402 L30.608,58.085 L29.637,59.767 L28.665,61.450 L27.694,63.132 L26.722,64.815 L25.751,66.498 L24.779,68.180 L23.808,69.863 L22.836,71.545 L21.865,73.228 L20.894,74.910 L19.922,76.593 L18.951,78.276 L19.301,77.669 L18.951,78.276 L19.301,77.669 L18.951,78.276 M39.351,42.941 L38.745,43.291 L39.351,42.941 L38.745,43.291 L39.351,42.941 L37.652,43.922 L35.953,44.903 L34.254,45.884 L32.555,46.865 L30.857,47.846 L29.158,48.826 L27.459,49.807 L25.760,50.788 L24.061,51.769 L22.362,52.750 L20.663,53.731 L18.965,54.711 L17.266,55.692 L15.567,56.673 L13.868,57.654 L12.169,58.635 L10.470,59.616 L8.772,60.596 L7.073,61.577 L5.374,62.558 L5.980,62.208 L5.374,62.558 L5.980,62.208 L5.374,62.558 M39.351,42.941 L38.651,42.941 L39.351,42.941 L38.651,42.941 L39.351,42.941 L37.433,42.941 L35.516,42.941 L33.598,42.941 L31.681,42.941 L29.763,42.941 L27.846,42.941 L25.928,42.941 L24.011,42.941 L22.093,42.941 L20.175,42.941 L18.258,42.941 L16.340,42.941 L14.423,42.941 L12.505,42.941 L10.588,42.941 L8.670,42.941 L6.753,42.941 L4.835,42.941 L2.918,42.941 L1.000,42.941 L1.700,42.941 L1.000,42.941 L1.700,42.941 L1.000,42.941 M39.351,42.941 L38.745,42.591 L39.351,42.941 L38.745,42.591 L39.351,42.941 L37.672,41.972 L35.993,41.003 L34.314,40.034 L32.635,39.064 L30.956,38.095 L29.278,37.126 L27.599,36.156 L25.920,35.187 L24.241,34.218 L22.562,33.248 L20.883,32.279 L19.204,31.310 L17.525,30.340 L15.846,29.371 L14.168,28.402 L12.489,27.433 L10.810,26.463 L9.131,25.494 L7.452,24.525 L5.773,23.555 L4.094,22.586 L4.700,22.936 L4.094,22.586 L4.700,22.936 L4.094,22.586 M39.351,42.941 L39.001,42.335 L39.351,42.941 L39.001,42.335 L39.351,42.941 L38.369,41.242 L37.388,39.542 L36.407,37.842 L35.425,36.142 L34.444,34.442 L33.462,32.742 L32.481,31.042 L31.499,29.342 L30.518,27.642 L29.537,25.943 L28.555,24.243 L27.574,22.543 L26.592,20.843 L25.611,19.143 L24.629,17.443 L23.648,15.743 L22.666,14.043 L21.685,12.343 L20.704,10.643 L19.722,8.944 L18.741,7.244 L19.091,7.850 L18.741,7.244 L19.091,7.850 L18.741,7.244 M39.351,30.656 L39.791,31.200 L39.351,30.656 L39.791,31.200 L39.351,30.656 L40.295,31.822 L41.349,32.889 L42.814,33.208 L44.252,32.780 L45.494,32.302 L45.728,33.783 L46.107,35.235 L47.217,36.244 L48.676,36.592 L49.991,36.799 L49.453,38.199 L49.056,39.645 L49.512,41.074 L50.601,42.105 L51.637,42.941 L50.471,43.885 L49.404,44.939 L49.084,46.405 L49.512,47.842 L49.991,49.084 L48.509,49.319 L47.058,49.698 L46.048,50.807 L45.700,52.267 L45.494,53.581 L44.093,53.044 L42.647,52.646 L41.218,53.102 L40.187,54.192 L39.351,55.227 L38.407,54.061 L37.353,52.994 L35.887,52.674 L34.450,53.103 L33.208,53.581 L32.973,52.100 L32.594,50.648 L31.485,49.639 L30.026,49.291 L28.711,49.084 L29.249,47.684 L29.646,46.238 L29.190,44.809 L28.100,43.778 L27.065,42.941 L28.231,41.998 L29.298,40.944 L29.618,39.478 L29.190,38.040 L28.711,36.799 L30.193,36.564 L31.644,36.185 L32.654,35.076 L33.001,33.616 L33.208,32.302 L34.608,32.839 L36.055,33.237 L37.484,32.781 L38.515,31.691 L39.351,30.656 L38.911,31.200 L39.351,30.656 L38.911,31.200 L39.351,30.656 M39.351,26.370 L39.791,26.914 L39.351,26.370 L39.791,26.914 L39.351,26.370 L40.295,27.536 L41.269,28.676 L42.429,29.627 L43.914,29.836 L45.365,29.455 L46.764,28.914 L47.637,28.590 L47.871,30.072 L48.145,31.547 L48.674,32.950 L49.856,33.874 L51.303,34.269 L52.785,34.500 L53.702,34.656 L53.164,36.056 L52.664,37.470 L52.420,38.950 L52.982,40.341 L54.038,41.406 L55.205,42.348 L55.922,42.941 L54.756,43.885 L53.616,44.860 L52.665,46.020 L52.456,47.505 L52.838,48.956 L53.378,50.355 L53.702,51.227 L52.221,51.461 L50.746,51.735 L49.342,52.264 L48.419,53.446 L48.024,54.893 L47.792,56.375 L47.637,57.293 L46.236,56.755 L44.822,56.255 L43.342,56.011 L41.951,56.573 L40.886,57.628 L39.944,58.796 L39.351,59.513 L38.407,58.347 L37.433,57.207 L36.273,56.256 L34.787,56.047 L33.337,56.428 L31.937,56.969 L31.065,57.293 L30.831,55.811 L30.557,54.336 L30.028,52.933 L28.846,52.009 L27.399,51.614 L25.917,51.383 L25.000,51.227 L25.538,49.827 L26.038,48.413 L26.282,46.933 L25.720,45.542 L24.664,44.476 L23.496,43.535 L22.779,42.941 L23.945,41.998 L25.086,41.023 L26.037,39.863 L26.246,38.378 L25.864,36.927 L25.324,35.528 L25.000,34.656 L26.481,34.421 L27.956,34.148 L29.360,33.619 L30.283,32.437 L30.678,30.990 L30.910,29.508 L31.065,28.590 L32.465,29.128 L33.880,29.628 L35.360,29.872 L36.750,29.310 L37.816,28.254 L38.758,27.087 L39.351,26.370 L38.905,26.909 L39.351,26.370 L38.905,26.909 L39.351,26.370 M39.351,22.084 L39.794,22.627 L39.351,22.084 L39.794,22.627 L39.351,22.084 L40.300,23.246 L41.244,24.412 L42.282,25.494 L43.526,26.333 L45.021,26.455 L46.482,26.113 L47.893,25.604 L49.285,25.046 L49.779,24.879 L50.020,26.359 L50.255,27.841 L50.613,29.297 L51.271,30.645 L52.505,31.499 L53.940,31.933 L55.417,32.198 L56.902,32.411 L57.414,32.513 L56.882,33.915 L56.345,35.316 L55.926,36.756 L55.822,38.253 L56.464,39.609 L57.490,40.703 L58.636,41.670 L59.816,42.597 L60.208,42.941 L59.046,43.890 L57.881,44.834 L56.798,45.873 L55.960,47.117 L55.838,48.612 L56.179,50.072 L56.688,51.483 L57.246,52.876 L57.414,53.370 L55.933,53.611 L54.452,53.846 L52.995,54.204 L51.647,54.862 L50.794,56.095 L50.359,57.531 L50.094,59.007 L49.882,60.492 L49.779,61.004 L48.377,60.472 L46.976,59.935 L45.536,59.517 L44.040,59.413 L42.684,60.054 L41.590,61.081 L40.622,62.227 L39.695,63.406 L39.351,63.799 L38.402,62.637 L37.458,61.471 L36.420,60.389 L35.176,59.550 L33.681,59.428 L32.220,59.770 L30.809,60.278 L29.417,60.837 L28.922,61.004 L28.682,59.524 L28.447,58.042 L28.089,56.586 L27.431,55.238 L26.197,54.384 L24.761,53.950 L23.285,53.685 L21.800,53.472 L21.288,53.370 L21.820,51.968 L22.357,50.567 L22.775,49.127 L22.880,47.630 L22.238,46.274 L21.212,45.180 L20.066,44.213 L18.886,43.286 L18.494,42.941 L19.656,41.993 L20.821,41.049 L21.904,40.010 L22.742,38.766 L22.864,37.271 L22.523,35.811 L22.014,34.400 L21.456,33.007 L21.288,32.513 L22.769,32.272 L24.250,32.037 L25.707,31.679 L27.055,31.021 L27.908,29.788 L28.342,28.352 L28.608,26.876 L28.820,25.391 L28.922,24.879 L30.325,25.411 L31.725,25.948 L33.166,26.366 L34.662,26.470 L36.018,25.828 L37.112,24.802 L38.080,23.656 L39.006,22.477 L39.351,22.084 L39.006,22.477 L39.351,22.084 L39.006,22.477 L39.351,22.084 M39.351,17.799 L39.796,18.339 L39.351,17.799 L39.796,18.339 L39.351,17.799 L40.305,18.956 L41.236,20.132 L42.224,21.261 L43.324,22.280 L44.635,23.009 L46.134,23.078 L47.599,22.759 L49.022,22.284 L50.417,21.733 L51.819,21.198 L52.170,22.646 L52.388,24.131 L52.679,25.602 L53.123,27.035 L53.893,28.322 L55.157,29.131 L56.585,29.587 L58.055,29.887 L59.539,30.107 L61.020,30.345 L60.600,31.775 L60.047,33.169 L59.563,34.589 L59.231,36.052 L59.255,37.552 L59.945,38.884 L60.954,39.994 L62.077,40.988 L63.251,41.921 L64.415,42.867 L63.337,43.896 L62.160,44.827 L61.031,45.814 L60.012,46.915 L59.283,48.226 L59.214,49.724 L59.533,51.190 L60.009,52.613 L60.560,54.008 L61.095,55.409 L59.646,55.761 L58.162,55.979 L56.690,56.269 L55.257,56.713 L53.971,57.484 L53.162,58.747 L52.705,60.176 L52.406,61.646 L52.185,63.130 L51.948,64.611 L50.517,64.191 L49.123,63.638 L47.703,63.154 L46.240,62.821 L44.741,62.846 L43.409,63.535 L42.299,64.544 L41.304,65.667 L40.371,66.842 L39.425,68.006 L38.396,66.927 L37.466,65.751 L36.478,64.622 L35.377,63.603 L34.067,62.874 L32.568,62.805 L31.102,63.124 L29.680,63.599 L28.285,64.150 L26.883,64.685 L26.532,63.236 L26.314,61.752 L26.023,60.281 L25.579,58.848 L24.808,57.561 L23.545,56.752 L22.116,56.296 L20.646,55.996 L19.163,55.776 L17.682,55.538 L18.101,54.108 L18.655,52.714 L19.139,51.294 L19.471,49.831 L19.447,48.331 L18.757,46.999 L17.748,45.889 L16.625,44.895 L15.450,43.962 L14.286,43.016 L15.365,41.987 L16.542,41.056 L17.671,40.069 L18.690,38.968 L19.419,37.657 L19.487,36.159 L19.169,34.693 L18.693,33.270 L18.142,31.875 L17.607,30.474 L19.056,30.122 L20.540,29.904 L22.012,29.613 L23.444,29.170 L24.731,28.399 L25.540,27.136 L25.997,25.707 L26.296,24.237 L26.517,22.753 L26.754,21.272 L28.185,21.692 L29.579,22.245 L30.999,22.729 L32.461,23.062 L33.961,23.037 L35.293,22.348 L36.403,21.339 L37.397,20.216 L38.330,19.041 L39.276,17.877 L38.835,18.420 L39.276,17.877 L38.835,18.420 L39.276,17.877 M39.351,13.513 L39.799,14.051 L39.351,13.513 L39.799,14.051 L39.351,13.513 L40.311,14.665 L41.236,15.846 L42.196,16.999 L43.230,18.086 L44.386,19.042 L45.750,19.664 L47.250,19.695 L48.720,19.399 L50.152,18.950 L51.555,18.420 L52.945,17.858 L54.065,17.456 L54.320,18.934 L54.531,20.419 L54.786,21.897 L55.138,23.355 L55.661,24.761 L56.531,25.983 L57.815,26.759 L59.236,27.238 L60.700,27.565 L62.181,27.807 L63.666,28.015 L64.837,28.227 L64.319,29.635 L63.758,31.026 L63.240,32.434 L62.816,33.873 L62.566,35.352 L62.709,36.845 L63.432,38.159 L64.424,39.285 L65.528,40.300 L66.689,41.250 L67.871,42.173 L68.779,42.941 L67.627,43.902 L66.446,44.826 L65.294,45.786 L64.207,46.820 L63.251,47.976 L62.628,49.341 L62.597,50.841 L62.893,52.311 L63.342,53.742 L63.872,55.145 L64.435,56.536 L64.837,57.656 L63.359,57.911 L61.873,58.121 L60.395,58.377 L58.937,58.729 L57.531,59.252 L56.310,60.122 L55.533,61.405 L55.054,62.827 L54.727,64.291 L54.485,65.771 L54.277,67.257 L54.065,68.427 L52.657,67.909 L51.266,67.349 L49.858,66.831 L48.420,66.407 L46.941,66.157 L45.447,66.300 L44.133,67.023 L43.008,68.014 L41.993,69.119 L41.043,70.280 L40.120,71.462 L39.351,72.370 L38.391,71.218 L37.466,70.037 L36.506,68.884 L35.472,67.797 L34.316,66.841 L32.952,66.219 L31.452,66.188 L29.981,66.484 L28.550,66.933 L27.147,67.463 L25.756,68.025 L24.637,68.427 L24.381,66.949 L24.171,65.464 L23.916,63.986 L23.564,62.528 L23.041,61.122 L22.170,59.900 L20.887,59.124 L19.465,58.645 L18.002,58.318 L16.521,58.076 L15.036,57.868 L13.865,57.656 L14.383,56.248 L14.943,54.857 L15.461,53.449 L15.886,52.010 L16.136,50.531 L15.993,49.038 L15.269,47.724 L14.278,46.598 L13.174,45.583 L12.013,44.633 L10.830,43.710 L9.922,42.941 L11.075,41.981 L12.256,41.057 L13.408,40.096 L14.495,39.063 L15.451,37.907 L16.074,36.542 L16.104,35.042 L15.809,33.572 L15.360,32.141 L14.829,30.738 L14.267,29.347 L13.865,28.227 L15.343,27.972 L16.828,27.762 L18.306,27.506 L19.765,27.154 L21.170,26.631 L22.392,25.761 L23.168,24.477 L23.647,23.056 L23.974,21.592 L24.217,20.112 L24.425,18.626 L24.637,17.456 L26.044,17.974 L27.436,18.534 L28.843,19.052 L30.282,19.476 L31.761,19.726 L33.254,19.583 L34.568,18.860 L35.694,17.868 L36.709,16.764 L37.659,15.603 L38.582,14.421 L39.351,13.513 L38.899,14.047 L39.351,13.513 L38.899,14.047 L39.351,13.513 M39.351,9.227 L39.801,9.763 L39.351,9.227 L39.801,9.763 L39.351,9.227 L40.316,10.375 L41.239,11.558 L42.183,12.724 L43.179,13.845 L44.256,14.889 L45.464,15.779 L46.866,16.312 L48.366,16.315 L49.840,16.035 L51.278,15.610 L52.689,15.101 L54.083,14.546 L55.475,13.989 L56.208,13.744 L56.470,15.221 L56.677,16.707 L56.912,18.188 L57.214,19.657 L57.625,21.100 L58.226,22.474 L59.174,23.637 L60.471,24.389 L61.887,24.884 L63.346,25.235 L64.822,25.500 L66.307,25.716 L67.791,25.930 L68.548,26.084 L68.037,27.494 L67.474,28.885 L66.936,30.285 L66.463,31.709 L66.097,33.163 L65.931,34.654 L66.171,36.135 L66.918,37.435 L67.897,38.572 L68.984,39.605 L70.131,40.572 L71.308,41.502 L72.487,42.430 L73.065,42.941 L71.917,43.907 L70.734,44.829 L69.569,45.773 L68.447,46.769 L67.403,47.846 L66.513,49.054 L65.981,50.456 L65.978,51.956 L66.257,53.430 L66.682,54.869 L67.192,56.280 L67.746,57.673 L68.303,59.066 L68.548,59.799 L67.071,60.061 L65.586,60.268 L64.104,60.503 L62.635,60.805 L61.192,61.215 L59.818,61.816 L58.656,62.765 L57.903,64.062 L57.408,65.478 L57.057,66.936 L56.793,68.413 L56.576,69.897 L56.362,71.382 L56.208,72.139 L54.798,71.627 L53.408,71.064 L52.007,70.527 L50.584,70.054 L49.129,69.688 L47.638,69.521 L46.158,69.761 L44.857,70.508 L43.720,71.487 L42.688,72.575 L41.720,73.721 L40.790,74.898 L39.863,76.077 L39.351,76.656 L38.385,75.508 L37.463,74.325 L36.519,73.159 L35.523,72.038 L34.446,70.993 L33.238,70.104 L31.836,69.571 L30.336,69.568 L28.862,69.848 L27.424,70.273 L26.013,70.782 L24.619,71.337 L23.226,71.894 L22.494,72.139 L22.232,70.662 L22.024,69.176 L21.789,67.695 L21.488,66.226 L21.077,64.783 L20.476,63.409 L19.528,62.246 L18.230,61.494 L16.814,60.998 L15.356,60.648 L13.879,60.383 L12.395,60.167 L10.911,59.953 L10.153,59.799 L10.665,58.389 L11.228,56.998 L11.766,55.598 L12.239,54.174 L12.605,52.720 L12.771,51.229 L12.531,49.748 L11.784,48.448 L10.805,47.311 L9.718,46.278 L8.571,45.311 L7.394,44.381 L6.215,43.453 L5.637,42.941 L6.785,41.976 L7.968,41.054 L9.133,40.110 L10.255,39.113 L11.299,38.037 L12.188,36.829 L12.721,35.427 L12.724,33.927 L12.445,32.453 L12.019,31.014 L11.510,29.603 L10.956,28.210 L10.399,26.817 L10.153,26.084 L11.630,25.822 L13.116,25.615 L14.597,25.380 L16.067,25.078 L17.510,24.668 L18.884,24.066 L20.046,23.118 L20.799,21.821 L21.294,20.405 L21.645,18.947 L21.909,17.470 L22.126,15.986 L22.340,14.501 L22.494,13.744 L23.904,14.256 L25.294,14.819 L26.695,15.356 L28.118,15.829 L29.573,16.195 L31.063,16.362 L32.544,16.122 L33.845,15.374 L34.981,14.396 L36.014,13.308 L36.982,12.162 L37.911,10.985 L38.839,9.806 L39.351,9.227 L38.887,9.751 L39.351,9.227 L38.887,9.751 L39.351,9.227 M39.351,4.941 L39.804,5.475 L39.351,4.941 L39.804,5.475 L39.351,4.941 L40.321,6.085 L41.243,7.269 L42.178,8.442 L43.149,9.585 L44.181,10.674 L45.299,11.673 L46.551,12.499 L47.983,12.948 L49.483,12.934 L50.959,12.667 L52.403,12.263 L53.821,11.774 L55.221,11.234 L56.611,10.670 L58.012,10.135 L58.351,10.033 L58.619,11.508 L58.826,12.994 L59.049,14.477 L59.319,15.953 L59.668,17.412 L60.137,18.837 L60.808,20.178 L61.823,21.282 L63.129,22.020 L64.541,22.527 L65.994,22.900 L67.466,23.185 L68.948,23.417 L70.434,23.623 L71.915,23.861 L72.260,23.941 L71.755,25.354 L71.191,26.744 L70.642,28.140 L70.138,29.553 L69.711,30.990 L69.404,32.459 L69.315,33.956 L69.642,35.420 L70.404,36.712 L71.373,37.857 L72.445,38.906 L73.578,39.889 L74.745,40.831 L75.929,41.753 L77.093,42.699 L77.351,42.941 L76.207,43.912 L75.024,44.834 L73.851,45.769 L72.708,46.740 L71.619,47.771 L70.619,48.890 L69.793,50.142 L69.344,51.573 L69.358,53.073 L69.625,54.549 L70.029,55.994 L70.519,57.412 L71.059,58.811 L71.622,60.201 L72.158,61.602 L72.260,61.941 L70.784,62.210 L69.298,62.417 L67.815,62.640 L66.340,62.910 L64.881,63.258 L63.456,63.727 L62.114,64.398 L61.010,65.414 L60.272,66.720 L59.765,68.131 L59.393,69.584 L59.108,71.057 L58.876,72.539 L58.669,74.025 L58.432,75.506 L58.351,75.850 L56.939,75.345 L55.549,74.781 L54.152,74.233 L52.740,73.729 L51.302,73.301 L49.833,72.995 L48.336,72.906 L46.872,73.233 L45.580,73.994 L44.435,74.964 L43.386,76.036 L42.403,77.169 L41.461,78.336 L40.539,79.519 L39.593,80.683 L39.351,80.941 L38.380,79.798 L37.459,78.614 L36.524,77.441 L35.552,76.298 L34.521,75.209 L33.402,74.210 L32.150,73.384 L30.719,72.935 L29.219,72.949 L27.743,73.216 L26.298,73.620 L24.881,74.109 L23.481,74.649 L22.091,75.213 L20.690,75.748 L20.351,75.850 L20.082,74.375 L19.876,72.889 L19.653,71.406 L19.383,69.930 L19.034,68.471 L18.565,67.046 L17.894,65.705 L16.879,64.601 L15.573,63.863 L14.161,63.356 L12.708,62.983 L11.235,62.698 L9.753,62.466 L8.268,62.260 L6.787,62.022 L6.442,61.941 L6.947,60.529 L7.511,59.139 L8.060,57.743 L8.564,56.330 L8.991,54.893 L9.297,53.424 L9.387,51.927 L9.060,50.463 L8.298,49.171 L7.329,48.026 L6.257,46.977 L5.124,45.994 L3.956,45.052 L2.773,44.130 L1.609,43.184 L1.351,42.941 L2.495,41.971 L3.678,41.049 L4.851,40.114 L5.994,39.143 L7.083,38.112 L8.082,36.993 L8.909,35.741 L9.357,34.310 L9.344,32.810 L9.077,31.334 L8.673,29.889 L8.183,28.471 L7.643,27.072 L7.079,25.682 L6.544,24.280 L6.442,23.941 L7.918,23.673 L9.403,23.466 L10.887,23.243 L12.362,22.973 L13.821,22.625 L15.246,22.156 L16.587,21.484 L17.692,20.469 L18.430,19.163 L18.937,17.752 L19.309,16.299 L19.594,14.826 L19.826,13.344 L20.033,11.858 L20.270,10.377 L20.351,10.033 L21.763,10.538 L23.153,11.102 L24.549,11.650 L25.962,12.154 L27.400,12.582 L28.868,12.888 L30.366,12.977 L31.830,12.650 L33.122,11.889 L34.267,10.919 L35.316,9.847 L36.299,8.714 L37.241,7.547 L38.163,6.364 L39.108,5.200 L39.351,4.941 L39.108,5.200 L39.351,4.941 L39.108,5.200 L39.351,4.941"/>
</svg>
