<svg xmlns="http://www.w3.org/2000/svg" viewBox="0 0 88 88" width="256" height="256">
  <title>spirograph</title>
  <rect x="0" y="0" width="88" height="88" fill="#f5efe4"/>
  <path fill="none" stroke="#31604f" stroke-width="0.4" stroke-linecap="round" stroke-linejoin="round" d="M87.000,44.000 L87.000,44.000 L86.932,44.596 L86.728,45.183 L86.391,45.750 L85.921,46.288 L85.322,46.787 L84.599,47.240 L83.756,47.636 L82.798,47.968 L81.733,48.229 L80.567,48.410 L79.309,48.507 L77.965,48.512 L76.546,48.422 L75.061,48.231 L73.519,47.937 L71.930,47.538 L70.305,47.030 L68.655,46.414 L67.821,46.052 L66.988,45.690 L66.153,45.275 L65.317,44.859 L64.485,44.391 L63.652,43.922 L62.827,43.403 L62.002,42.883 L61.190,42.315 L60.378,41.746 L59.584,41.130 L58.790,40.514 L58.019,39.854 L57.247,39.193 L56.502,38.491 L55.757,37.790 L55.044,37.050 L54.330,36.310 L53.651,35.536 L52.972,34.762 L52.332,33.958 L51.692,33.154 L51.093,32.324 L50.495,31.494 L49.941,30.643 L49.387,29.791 L48.880,28.924 L48.373,28.056 L47.915,27.177 L47.457,26.297 L47.049,25.412 L46.642,24.526 L46.286,23.640 L45.931,22.753 L45.628,21.870 L45.325,20.988 L45.075,20.114 L44.824,19.241 L44.429,17.524 L44.138,15.847 L43.949,14.220 L43.859,12.653 L43.864,11.155 L43.960,9.736 L44.141,8.405 L44.401,7.170 L44.733,6.038 L45.130,5.016 L45.584,4.110 L46.087,3.326 L46.630,2.668 L47.204,2.139 L47.798,1.744 L48.405,1.483 L49.013,1.357 L49.613,1.368 L50.195,1.513 L50.750,1.792 L51.268,2.201 L51.740,2.736 L52.157,3.395 L52.511,4.171 L52.794,5.059 L52.998,6.051 L53.118,7.142 L53.145,8.321 L53.077,9.582 L52.907,10.914 L52.632,12.309 L52.249,13.757 L51.757,15.248 L51.153,16.770 L50.438,18.315 L49.612,19.871 L49.144,20.650 L48.676,21.429 L48.155,22.203 L47.634,22.977 L47.061,23.742 L46.488,24.506 L45.865,25.256 L45.243,26.006 L44.573,26.737 L43.903,27.467 L43.189,28.174 L42.474,28.881 L41.719,29.560 L40.963,30.239 L40.170,30.886 L39.377,31.533 L38.551,32.144 L37.724,32.755 L36.868,33.327 L36.012,33.899 L35.131,34.428 L34.251,34.958 L33.350,35.443 L32.449,35.928 L31.532,36.367 L30.616,36.805 L29.690,37.194 L28.763,37.584 L27.832,37.923 L26.900,38.262 L25.969,38.550 L25.038,38.839 L24.112,39.076 L23.187,39.312 L22.272,39.498 L21.357,39.683 L20.459,39.817 L19.561,39.951 L17.807,40.119 L16.106,40.188 L14.468,40.163 L12.902,40.048 L11.418,39.848 L10.024,39.568 L8.728,39.215 L7.537,38.796 L6.458,38.318 L5.497,37.791 L4.658,37.222 L3.946,36.621 L3.364,35.997 L2.916,35.360 L2.601,34.719 L2.421,34.083 L2.377,33.464 L2.465,32.871 L2.685,32.312 L3.034,31.799 L3.507,31.338 L4.100,30.940 L4.807,30.613 L5.623,30.363 L6.540,30.198 L7.551,30.125 L8.647,30.149 L9.820,30.276 L11.061,30.508 L12.360,30.851 L13.707,31.305 L15.093,31.874 L16.506,32.557 L17.937,33.354 L19.375,34.265 L20.810,35.287 L21.521,35.852 L22.232,36.418 L22.932,37.035 L23.631,37.653 L24.314,38.321 L24.998,38.989 L25.660,39.704 L26.322,40.419 L26.959,41.179 L27.596,41.938 L28.204,42.739 L28.811,43.539 L29.386,44.377 L29.960,45.214 L30.498,46.085 L31.036,46.956 L31.534,47.855 L32.032,48.754 L32.487,49.678 L32.942,50.601 L33.353,51.543 L33.763,52.486 L34.126,53.442 L34.490,54.399 L34.804,55.365 L35.119,56.330 L35.384,57.300 L35.650,58.269 L35.864,59.237 L36.079,60.205 L36.244,61.165 L36.408,62.126 L36.522,63.075 L36.636,64.023 L36.700,64.954 L36.764,65.885 L36.780,66.794 L36.796,67.702 L36.733,69.463 L36.580,71.158 L36.341,72.779 L36.023,74.316 L35.630,75.761 L35.171,77.107 L34.652,78.346 L34.081,79.472 L33.467,80.479 L32.819,81.364 L32.145,82.121 L31.456,82.748 L30.762,83.243 L30.071,83.605 L29.394,83.833 L28.741,83.928 L28.122,83.892 L27.545,83.727 L27.020,83.436 L26.556,83.023 L26.161,82.494 L25.844,81.854 L25.612,81.110 L25.471,80.269 L25.427,79.338 L25.486,78.327 L25.653,77.243 L25.932,76.096 L26.324,74.896 L26.833,73.653 L27.460,72.377 L28.204,71.077 L29.066,69.765 L30.043,68.450 L31.134,67.143 L32.335,65.854 L32.988,65.223 L33.641,64.592 L34.345,63.979 L35.049,63.366 L35.800,62.776 L36.551,62.186 L37.347,61.622 L38.142,61.059 L38.979,60.527 L39.815,59.994 L40.688,59.496 L41.561,58.998 L42.466,58.538 L43.372,58.078 L44.305,57.659 L45.238,57.239 L46.195,56.863 L47.151,56.486 L48.126,56.156 L49.101,55.825 L50.089,55.541 L51.077,55.257 L52.073,55.022 L53.069,54.786 L54.067,54.600 L55.066,54.414 L56.061,54.278 L57.057,54.141 L58.045,54.055 L59.032,53.968 L60.006,53.931 L60.980,53.893 L61.936,53.904 L62.891,53.915 L63.822,53.973 L64.754,54.030 L65.656,54.133 L66.559,54.236 L68.296,54.529 L69.957,54.901 L71.533,55.349 L73.015,55.866 L74.397,56.444 L75.671,57.075 L76.831,57.751 L77.873,58.464 L78.792,59.205 L79.584,59.963 L80.247,60.729 L80.779,61.494 L81.180,62.247 L81.448,62.979 L81.586,63.680 L81.595,64.340 L81.478,64.950 L81.239,65.500 L80.882,65.982 L80.412,66.388 L79.836,66.711 L79.161,66.942 L78.392,67.075 L77.540,67.105 L76.612,67.027 L75.616,66.836 L74.564,66.529 L73.463,66.103 L72.325,65.557 L71.159,64.890 L69.975,64.103 L68.784,63.195 L67.595,62.169 L66.420,61.029 L65.266,59.777 L64.144,58.418 L63.604,57.688 L63.063,56.958 L62.548,56.180 L62.032,55.403 L61.545,54.581 L61.058,53.759 L60.603,52.896 L60.149,52.034 L59.730,51.136 L59.311,50.237 L58.932,49.307 L58.552,48.376 L58.214,47.418 L57.876,46.461 L57.582,45.480 L57.287,44.500 L57.039,43.503 L56.791,42.505 L56.590,41.496 L56.389,40.486 L56.237,39.469 L56.084,38.453 L55.981,37.435 L55.878,36.417 L55.824,35.403 L55.769,34.388 L55.764,33.383 L55.759,32.378 L55.802,31.388 L55.845,30.398 L55.935,29.427 L56.025,28.456 L56.160,27.511 L56.296,26.565 L56.475,25.649 L56.654,24.733 L56.873,23.852 L57.093,22.970 L57.610,21.286 L58.196,19.688 L58.846,18.184 L59.552,16.782 L60.305,15.487 L61.097,14.307 L61.919,13.244 L62.762,12.304 L63.616,11.490 L64.471,10.804 L65.317,10.246 L66.145,9.819 L66.944,9.520 L67.705,9.349 L68.418,9.304 L69.073,9.381 L69.662,9.577 L70.177,9.886 L70.608,10.303 L70.950,10.821 L71.194,11.434 L71.335,12.135 L71.367,12.914 L71.285,13.763 L71.086,14.673 L70.767,15.635 L70.325,16.638 L69.760,17.674 L69.070,18.731 L68.257,19.800 L67.321,20.871 L66.266,21.934 L65.094,22.978 L63.809,23.995 L62.418,24.975 L60.924,25.910 L60.130,26.350 L59.335,26.791 L58.497,27.201 L57.659,27.611 L56.780,27.986 L55.902,28.362 L54.988,28.700 L54.073,29.038 L53.128,29.336 L52.182,29.634 L51.210,29.889 L50.238,30.144 L49.244,30.354 L48.251,30.564 L47.241,30.728 L46.230,30.892 L45.209,31.007 L44.188,31.123 L43.160,31.191 L42.133,31.258 L41.105,31.276 L40.078,31.295 L39.055,31.264 L38.032,31.234 L37.019,31.155 L36.007,31.077 L35.010,30.951 L34.013,30.825 L33.036,30.653 L32.060,30.481 L31.109,30.265 L30.159,30.049 L29.239,29.791 L28.319,29.534 L27.434,29.237 L26.550,28.940 L25.705,28.607 L24.859,28.274 L23.257,27.542 L21.749,26.752 L20.343,25.911 L19.045,25.029 L17.860,24.113 L16.792,23.174 L15.846,22.220 L15.024,21.261 L14.329,20.309 L13.760,19.371 L13.317,18.459 L13.002,17.583 L12.810,16.752 L12.740,15.975 L12.788,15.263 L12.950,14.623 L13.221,14.064 L13.594,13.594 L14.064,13.221 L14.623,12.950 L15.263,12.788 L15.975,12.740 L16.752,12.810 L17.583,13.002 L18.459,13.317 L19.371,13.760 L20.309,14.329 L21.261,15.024 L22.220,15.846 L23.174,16.792 L24.113,17.860 L25.029,19.045 L25.911,20.343 L26.752,21.749 L27.542,23.257 L28.274,24.859 L28.607,25.705 L28.940,26.550 L29.237,27.434 L29.534,28.319 L29.791,29.239 L30.049,30.159 L30.265,31.109 L30.481,32.060 L30.653,33.036 L30.825,34.013 L30.951,35.010 L31.077,36.007 L31.155,37.019 L31.234,38.032 L31.264,39.055 L31.295,40.078 L31.276,41.105 L31.258,42.133 L31.191,43.160 L31.123,44.188 L31.007,45.209 L30.892,46.230 L30.728,47.241 L30.564,48.251 L30.354,49.244 L30.144,50.238 L29.889,51.210 L29.634,52.182 L29.336,53.128 L29.038,54.073 L28.700,54.988 L28.362,55.902 L27.986,56.780 L27.611,57.659 L27.201,58.497 L26.791,59.335 L26.350,60.130 L25.910,60.924 L24.975,62.418 L23.995,63.809 L22.978,65.094 L21.934,66.266 L20.871,67.321 L19.800,68.257 L18.731,69.070 L17.674,69.760 L16.638,70.325 L15.635,70.767 L14.673,71.086 L13.763,71.285 L12.914,71.367 L12.135,71.335 L11.434,71.194 L10.821,70.950 L10.303,70.608 L9.886,70.177 L9.577,69.662 L9.381,69.073 L9.304,68.418 L9.349,67.705 L9.520,66.944 L9.819,66.145 L10.246,65.317 L10.804,64.471 L11.490,63.616 L12.304,62.762 L13.244,61.919 L14.307,61.097 L15.487,60.305 L16.782,59.552 L18.184,58.846 L19.688,58.196 L21.286,57.610 L22.970,57.093 L23.852,56.873 L24.733,56.654 L25.649,56.475 L26.565,56.296 L27.511,56.160 L28.456,56.025 L29.427,55.935 L30.398,55.845 L31.388,55.802 L32.378,55.759 L33.383,55.764 L34.388,55.769 L35.403,55.824 L36.417,55.878 L37.435,55.981 L38.453,56.084 L39.469,56.237 L40.486,56.389 L41.496,56.590 L42.505,56.791 L43.503,57.039 L44.500,57.287 L45.480,57.582 L46.461,57.876 L47.418,58.214 L48.376,58.552 L49.307,58.932 L50.237,59.311 L51.136,59.730 L52.034,60.149 L52.896,60.603 L53.759,61.058 L54.581,61.545 L55.403,62.032 L56.180,62.548 L56.958,63.063 L57.688,63.604 L58.418,64.144 L59.777,65.266 L61.029,66.420 L62.169,67.595 L63.195,68.784 L64.103,69.975 L64.890,71.159 L65.557,72.325 L66.103,73.463 L66.529,74.564 L66.836,75.616 L67.027,76.612 L67.105,77.540 L67.075,78.392 L66.942,79.161 L66.711,79.836 L66.388,80.412 L65.982,80.882 L65.500,81.239 L64.950,81.478 L64.340,81.595 L63.680,81.586 L62.979,81.448 L62.247,81.180 L61.494,80.779 L60.729,80.247 L59.963,79.584 L59.205,78.792 L58.464,77.873 L57.751,76.831 L57.075,75.671 L56.444,74.397 L55.866,73.015 L55.349,71.533 L54.901,69.957 L54.529,68.296 L54.236,66.559 L54.133,65.656 L54.030,64.754 L53.973,63.822 L53.915,62.891 L53.904,61.936 L53.893,60.980 L53.931,60.006 L53.968,59.032 L54.055,58.045 L54.141,57.057 L54.278,56.061 L54.414,55.066 L54.600,54.067 L54.786,53.069 L55.022,52.073 L55.257,51.077 L55.541,50.089 L55.825,49.101 L56.156,48.126 L56.486,47.151 L56.863,46.195 L57.239,45.238 L57.659,44.305 L58.078,43.372 L58.538,42.466 L58.998,41.561 L59.496,40.688 L59.994,39.815 L60.527,38.979 L61.059,38.142 L61.622,37.347 L62.186,36.551 L62.776,35.800 L63.366,35.049 L63.979,34.345 L64.592,33.641 L65.223,32.988 L65.854,32.335 L67.143,31.134 L68.450,30.043 L69.765,29.066 L71.077,28.204 L72.377,27.460 L73.653,26.833 L74.896,26.324 L76.096,25.932 L77.243,25.653 L78.327,25.486 L79.338,25.427 L80.269,25.471 L81.110,25.612 L81.854,25.844 L82.494,26.161 L83.023,26.556 L83.436,27.020 L83.727,27.545 L83.892,28.122 L83.928,28.741 L83.833,29.394 L83.605,30.071 L83.243,30.762 L82.748,31.456 L82.121,32.145 L81.364,32.819 L80.479,33.467 L79.472,34.081 L78.346,34.652 L77.107,35.171 L75.761,35.630 L74.316,36.023 L72.779,36.341 L71.158,36.580 L69.463,36.733 L67.702,36.796 L66.794,36.780 L65.885,36.764 L64.954,36.700 L64.023,36.636 L63.075,36.522 L62.126,36.408 L61.165,36.244 L60.205,36.079 L59.237,35.864 L58.269,35.650 L57.300,35.384 L56.330,35.119 L55.365,34.804 L54.399,34.490 L53.442,34.126 L52.486,33.763 L51.543,33.353 L50.601,32.942 L49.678,32.487 L48.754,32.032 L47.855,31.534 L46.956,31.036 L46.085,30.498 L45.214,29.960 L44.377,29.386 L43.539,28.811 L42.739,28.204 L41.938,27.596 L41.179,26.959 L40.419,26.322 L39.704,25.660 L38.989,24.998 L38.321,24.314 L37.653,23.631 L37.035,22.932 L36.418,22.232 L35.852,21.521 L35.287,20.810 L34.265,19.375 L33.354,17.937 L32.557,16.506 L31.874,15.093 L31.305,13.707 L30.851,12.360 L30.508,11.061 L30.276,9.820 L30.149,8.647 L30.125,7.551 L30.198,6.540 L30.363,5.623 L30.613,4.807 L30.940,4.100 L31.338,3.507 L31.799,3.034 L32.312,2.685 L32.871,2.465 L33.464,2.377 L34.083,2.421 L34.719,2.601 L35.360,2.916 L35.997,3.364 L36.621,3.946 L37.222,4.658 L37.791,5.497 L38.318,6.458 L38.796,7.537 L39.215,8.728 L39.568,10.024 L39.848,11.418 L40.048,12.902 L40.163,14.468 L40.188,16.106 L40.119,17.807 L39.951,19.561 L39.817,20.459 L39.683,21.357 L39.498,22.272 L39.312,23.187 L39.076,24.112 L38.839,25.038 L38.550,25.969 L38.262,26.900 L37.923,27.832 L37.584,28.763 L37.194,29.690 L36.805,30.616 L36.367,31.532 L35.928,32.449 L35.443,33.350 L34.958,34.251 L34.428,35.131 L33.899,36.012 L33.327,36.868 L32.755,37.724 L32.144,38.551 L31.533,39.377 L30.886,40.170 L30.239,40.963 L29.560,41.719 L28.881,42.474 L28.174,43.189 L27.467,43.903 L26.737,44.573 L26.006,45.243 L25.256,45.865 L24.506,46.488 L23.742,47.061 L22.977,47.634 L22.203,48.155 L21.429,48.676 L20.650,49.144 L19.871,49.612 L18.315,50.438 L16.770,51.153 L15.248,51.757 L13.757,52.249 L12.309,52.632 L10.914,52.907 L9.582,53.077 L8.321,53.145 L7.142,53.118 L6.051,52.998 L5.059,52.794 L4.171,52.511 L3.395,52.157 L2.736,51.740 L2.201,51.268 L1.792,50.750 L1.513,50.195 L1.368,49.613 L1.357,49.013 L1.483,48.405 L1.744,47.798 L2.139,47.204 L2.668,46.630 L3.326,46.087 L4.110,45.584 L5.016,45.130 L6.038,44.733 L7.170,44.401 L8.405,44.141 L9.736,43.960 L11.155,43.864 L12.653,43.859 L14.220,43.949 L15.847,44.138 L17.524,44.429 L19.241,44.824 L20.114,45.075 L20.988,45.325 L21.870,45.628 L22.753,45.931 L23.640,46.286 L24.526,46.642 L25.412,47.049 L26.297,47.457 L27.177,47.915 L28.056,48.373 L28.924,48.880 L29.791,49.387 L30.643,49.941 L31.494,50.495 L32.324,51.093 L33.154,51.692 L33.958,52.332 L34.762,52.972 L35.536,53.651 L36.310,54.330 L37.050,55.044 L37.790,55.757 L38.491,56.502 L39.193,57.247 L39.854,58.019 L40.514,58.790 L41.130,59.584 L41.746,60.378 L42.315,61.190 L42.883,62.002 L43.403,62.827 L43.922,63.652 L44.391,64.485 L44.859,65.317 L45.275,66.153 L45.690,66.988 L46.052,67.821 L46.414,68.655 L47.030,70.305 L47.538,71.930 L47.937,73.519 L48.231,75.061 L48.422,76.546 L48.512,77.965 L48.507,79.309 L48.410,80.567 L48.229,81.733 L47.968,82.798 L47.636,83.756 L47.240,84.599 L46.787,85.322 L46.288,85.921 L45.750,86.391 L45.183,86.728 L44.596,86.932 L44.000,87.000 L43.404,86.932 L42.817,86.728 L42.250,86.391 L41.712,85.921 L41.213,85.322 L40.760,84.599 L40.364,83.756 L40.032,82.798 L39.771,81.733 L39.590,80.567 L39.493,79.309 L39.488,77.965 L39.578,76.546 L39.769,75.061 L40.063,73.519 L40.462,71.930 L40.970,70.305 L41.586,68.655 L41.948,67.821 L42.310,66.988 L42.725,66.153 L43.141,65.317 L43.609,64.485 L44.078,63.652 L44.597,62.827 L45.117,62.002 L45.685,61.190 L46.254,60.378 L46.870,59.584 L47.486,58.790 L48.146,58.019 L48.807,57.247 L49.509,56.502 L50.210,55.757 L50.950,55.044 L51.690,54.330 L52.464,53.651 L53.238,52.972 L54.042,52.332 L54.846,51.692 L55.676,51.093 L56.506,50.495 L57.357,49.941 L58.209,49.387 L59.076,48.880 L59.944,48.373 L60.823,47.915 L61.703,47.457 L62.588,47.049 L63.474,46.642 L64.360,46.286 L65.247,45.931 L66.130,45.628 L67.012,45.325 L67.886,45.075 L68.759,44.824 L70.476,44.429 L72.153,44.138 L73.780,43.949 L75.347,43.859 L76.845,43.864 L78.264,43.960 L79.595,44.141 L80.830,44.401 L81.962,44.733 L82.984,45.130 L83.890,45.584 L84.674,46.087 L85.332,46.630 L85.861,47.204 L86.256,47.798 L86.517,48.405 L86.643,49.013 L86.632,49.613 L86.487,50.195 L86.208,50.750 L85.799,51.268 L85.264,51.740 L84.605,52.157 L83.829,52.511 L82.941,52.794 L81.949,52.998 L80.858,53.118 L79.679,53.145 L78.418,53.077 L77.086,52.907 L75.691,52.632 L74.243,52.249 L72.752,51.757 L71.230,51.153 L69.685,50.438 L68.129,49.612 L67.350,49.144 L66.571,48.676 L65.797,48.155 L65.023,47.634 L64.258,47.061 L63.494,46.488 L62.744,45.865 L61.994,45.243 L61.263,44.573 L60.533,43.903 L59.826,43.189 L59.119,42.474 L58.440,41.719 L57.761,40.963 L57.114,40.170 L56.467,39.377 L55.856,38.551 L55.245,37.724 L54.673,36.868 L54.101,36.012 L53.572,35.131 L53.042,34.251 L52.557,33.350 L52.072,32.449 L51.633,31.532 L51.195,30.616 L50.806,29.690 L50.416,28.763 L50.077,27.832 L49.738,26.900 L49.450,25.969 L49.161,25.038 L48.924,24.112 L48.688,23.187 L48.502,22.272 L48.317,21.357 L48.183,20.459 L48.049,19.561 L47.881,17.807 L47.812,16.106 L47.837,14.468 L47.952,12.902 L48.152,11.418 L48.432,10.024 L48.785,8.728 L49.204,7.537 L49.682,6.458 L50.209,5.497 L50.778,4.658 L51.379,3.946 L52.003,3.364 L52.640,2.916 L53.281,2.601 L53.917,2.421 L54.536,2.377 L55.129,2.465 L55.688,2.685 L56.201,3.034 L56.662,3.507 L57.060,4.100 L57.387,4.807 L57.637,5.623 L57.802,6.540 L57.875,7.551 L57.851,8.647 L57.724,9.820 L57.492,11.061 L57.149,12.360 L56.695,13.707 L56.126,15.093 L55.443,16.506 L54.646,17.937 L53.735,19.375 L52.713,20.810 L52.148,21.521 L51.582,22.232 L50.965,22.932 L50.347,23.631 L49.679,24.314 L49.011,24.998 L48.296,25.660 L47.581,26.322 L46.821,26.959 L46.062,27.596 L45.261,28.204 L44.461,28.811 L43.623,29.386 L42.786,29.960 L41.915,30.498 L41.044,31.036 L40.145,31.534 L39.246,32.032 L38.322,32.487 L37.399,32.942 L36.457,33.353 L35.514,33.763 L34.558,34.126 L33.601,34.490 L32.635,34.804 L31.670,35.119 L30.700,35.384 L29.731,35.650 L28.763,35.864 L27.795,36.079 L26.835,36.244 L25.874,36.408 L24.925,36.522 L23.977,36.636 L23.046,36.700 L22.115,36.764 L21.206,36.780 L20.298,36.796 L18.537,36.733 L16.842,36.580 L15.221,36.341 L13.684,36.023 L12.239,35.630 L10.893,35.171 L9.654,34.652 L8.528,34.081 L7.521,33.467 L6.636,32.819 L5.879,32.145 L5.252,31.456 L4.757,30.762 L4.395,30.071 L4.167,29.394 L4.072,28.741 L4.108,28.122 L4.273,27.545 L4.564,27.020 L4.977,26.556 L5.506,26.161 L6.146,25.844 L6.890,25.612 L7.731,25.471 L8.662,25.427 L9.673,25.486 L10.757,25.653 L11.904,25.932 L13.104,26.324 L14.347,26.833 L15.623,27.460 L16.923,28.204 L18.235,29.066 L19.550,30.043 L20.857,31.134 L22.146,32.335 L22.777,32.988 L23.408,33.641 L24.021,34.345 L24.634,35.049 L25.224,35.800 L25.814,36.551 L26.378,37.347 L26.941,38.142 L27.473,38.979 L28.006,39.815 L28.504,40.688 L29.002,41.561 L29.462,42.466 L29.922,43.372 L30.341,44.305 L30.761,45.238 L31.137,46.195 L31.514,47.151 L31.844,48.126 L32.175,49.101 L32.459,50.089 L32.743,51.077 L32.978,52.073 L33.214,53.069 L33.400,54.067 L33.586,55.066 L33.722,56.061 L33.859,57.057 L33.945,58.045 L34.032,59.032 L34.069,60.006 L34.107,60.980 L34.096,61.936 L34.085,62.891 L34.027,63.822 L33.970,64.754 L33.867,65.656 L33.764,66.559 L33.471,68.296 L33.099,69.957 L32.651,71.533 L32.134,73.015 L31.556,74.397 L30.925,75.671 L30.249,76.831 L29.536,77.873 L28.795,78.792 L28.037,79.584 L27.271,80.247 L26.506,80.779 L25.753,81.180 L25.021,81.448 L24.320,81.586 L23.660,81.595 L23.050,81.478 L22.500,81.239 L22.018,80.882 L21.612,80.412 L21.289,79.836 L21.058,79.161 L20.925,78.392 L20.895,77.540 L20.973,76.612 L21.164,75.616 L21.471,74.564 L21.897,73.463 L22.443,72.325 L23.110,71.159 L23.897,69.975 L24.805,68.784 L25.831,67.595 L26.971,66.420 L28.223,65.266 L29.582,64.144 L30.312,63.604 L31.042,63.063 L31.820,62.548 L32.597,62.032 L33.419,61.545 L34.241,61.058 L35.104,60.603 L35.966,60.149 L36.864,59.730 L37.763,59.311 L38.693,58.932 L39.624,58.552 L40.582,58.214 L41.539,57.876 L42.520,57.582 L43.500,57.287 L44.497,57.039 L45.495,56.791 L46.504,56.590 L47.514,56.389 L48.531,56.237 L49.547,56.084 L50.565,55.981 L51.583,55.878 L52.597,55.824 L53.612,55.769 L54.617,55.764 L55.622,55.759 L56.612,55.802 L57.602,55.845 L58.573,55.935 L59.544,56.025 L60.489,56.160 L61.435,56.296 L62.351,56.475 L63.267,56.654 L64.148,56.873 L65.030,57.093 L66.714,57.610 L68.312,58.196 L69.816,58.846 L71.218,59.552 L72.513,60.305 L73.693,61.097 L74.756,61.919 L75.696,62.762 L76.510,63.616 L77.196,64.471 L77.754,65.317 L78.181,66.145 L78.480,66.944 L78.651,67.705 L78.696,68.418 L78.619,69.073 L78.423,69.662 L78.114,70.177 L77.697,70.608 L77.179,70.950 L76.566,71.194 L75.865,71.335 L75.086,71.367 L74.237,71.285 L73.327,71.086 L72.365,70.767 L71.362,70.325 L70.326,69.760 L69.269,69.070 L68.200,68.257 L67.129,67.321 L66.066,66.266 L65.022,65.094 L64.005,63.809 L63.025,62.418 L62.090,60.924 L61.650,60.130 L61.209,59.335 L60.799,58.497 L60.389,57.659 L60.014,56.780 L59.638,55.902 L59.300,54.988 L58.962,54.073 L58.664,53.128 L58.366,52.182 L58.111,51.210 L57.856,50.238 L57.646,49.244 L57.436,48.251 L57.272,47.241 L57.108,46.230 L56.993,45.209 L56.877,44.188 L56.809,43.160 L56.742,42.133 L56.724,41.105 L56.705,40.078 L56.736,39.055 L56.766,38.032 L56.845,37.019 L56.923,36.007 L57.049,35.010 L57.175,34.013 L57.347,33.036 L57.519,32.060 L57.735,31.109 L57.951,30.159 L58.209,29.239 L58.466,28.319 L58.763,27.434 L59.060,26.550 L59.393,25.705 L59.726,24.859 L60.458,23.257 L61.248,21.749 L62.089,20.343 L62.971,19.045 L63.887,17.860 L64.826,16.792 L65.780,15.846 L66.739,15.024 L67.691,14.329 L68.629,13.760 L69.541,13.317 L70.417,13.002 L71.248,12.810 L72.025,12.740 L72.737,12.788 L73.377,12.950 L73.936,13.221 L74.406,13.594 L74.779,14.064 L75.050,14.623 L75.212,15.263 L75.260,15.975 L75.190,16.752 L74.998,17.583 L74.683,18.459 L74.240,19.371 L73.671,20.309 L72.976,21.261 L72.154,22.220 L71.208,23.174 L70.140,24.113 L68.955,25.029 L67.657,25.911 L66.251,26.752 L64.743,27.542 L63.141,28.274 L62.295,28.607 L61.450,28.940 L60.566,29.237 L59.681,29.534 L58.761,29.791 L57.841,30.049 L56.891,30.265 L55.940,30.481 L54.964,30.653 L53.987,30.825 L52.990,30.951 L51.993,31.077 L50.981,31.155 L49.968,31.234 L48.945,31.264 L47.922,31.295 L46.895,31.276 L45.867,31.258 L44.840,31.191 L43.812,31.123 L42.791,31.007 L41.770,30.892 L40.759,30.728 L39.749,30.564 L38.756,30.354 L37.762,30.144 L36.790,29.889 L35.818,29.634 L34.872,29.336 L33.927,29.038 L33.012,28.700 L32.098,28.362 L31.220,27.986 L30.341,27.611 L29.503,27.201 L28.665,26.791 L27.870,26.350 L27.076,25.910 L25.582,24.975 L24.191,23.995 L22.906,22.978 L21.734,21.934 L20.679,20.871 L19.743,19.800 L18.930,18.731 L18.240,17.674 L17.675,16.638 L17.233,15.635 L16.914,14.673 L16.715,13.763 L16.633,12.914 L16.665,12.135 L16.806,11.434 L17.050,10.821 L17.392,10.303 L17.823,9.886 L18.338,9.577 L18.927,9.381 L19.582,9.304 L20.295,9.349 L21.056,9.520 L21.855,9.819 L22.683,10.246 L23.529,10.804 L24.384,11.490 L25.238,12.304 L26.081,13.244 L26.903,14.307 L27.695,15.487 L28.448,16.782 L29.154,18.184 L29.804,19.688 L30.390,21.286 L30.907,22.970 L31.127,23.852 L31.346,24.733 L31.525,25.649 L31.704,26.565 L31.840,27.511 L31.975,28.456 L32.065,29.427 L32.155,30.398 L32.198,31.388 L32.241,32.378 L32.236,33.383 L32.231,34.388 L32.176,35.403 L32.122,36.417 L32.019,37.435 L31.916,38.453 L31.763,39.469 L31.611,40.486 L31.410,41.496 L31.209,42.505 L30.961,43.503 L30.713,44.500 L30.418,45.480 L30.124,46.461 L29.786,47.418 L29.448,48.376 L29.068,49.307 L28.689,50.237 L28.270,51.136 L27.851,52.034 L27.397,52.896 L26.942,53.759 L26.455,54.581 L25.968,55.403 L25.452,56.180 L24.937,56.958 L24.396,57.688 L23.856,58.418 L22.734,59.777 L21.580,61.029 L20.405,62.169 L19.216,63.195 L18.025,64.103 L16.841,64.890 L15.675,65.557 L14.537,66.103 L13.436,66.529 L12.384,66.836 L11.388,67.027 L10.460,67.105 L9.608,67.075 L8.839,66.942 L8.164,66.711 L7.588,66.388 L7.118,65.982 L6.761,65.500 L6.522,64.950 L6.405,64.340 L6.414,63.680 L6.552,62.979 L6.820,62.247 L7.221,61.494 L7.753,60.729 L8.416,59.963 L9.208,59.205 L10.127,58.464 L11.169,57.751 L12.329,57.075 L13.603,56.444 L14.985,55.866 L16.467,55.349 L18.043,54.901 L19.704,54.529 L21.441,54.236 L22.344,54.133 L23.246,54.030 L24.178,53.973 L25.109,53.915 L26.064,53.904 L27.020,53.893 L27.994,53.931 L28.968,53.968 L29.955,54.055 L30.943,54.141 L31.939,54.278 L32.934,54.414 L33.933,54.600 L34.931,54.786 L35.927,55.022 L36.923,55.257 L37.911,55.541 L38.899,55.825 L39.874,56.156 L40.849,56.486 L41.805,56.863 L42.762,57.239 L43.695,57.659 L44.628,58.078 L45.534,58.538 L46.439,58.998 L47.312,59.496 L48.185,59.994 L49.021,60.527 L49.858,61.059 L50.653,61.622 L51.449,62.186 L52.200,62.776 L52.951,63.366 L53.655,63.979 L54.359,64.592 L55.012,65.223 L55.665,65.854 L56.866,67.143 L57.957,68.450 L58.934,69.765 L59.796,71.077 L60.540,72.377 L61.167,73.653 L61.676,74.896 L62.068,76.096 L62.347,77.243 L62.514,78.327 L62.573,79.338 L62.529,80.269 L62.388,81.110 L62.156,81.854 L61.839,82.494 L61.444,83.023 L60.980,83.436 L60.455,83.727 L59.878,83.892 L59.259,83.928 L58.606,83.833 L57.929,83.605 L57.238,83.243 L56.544,82.748 L55.855,82.121 L55.181,81.364 L54.533,80.479 L53.919,79.472 L53.348,78.346 L52.829,77.107 L52.370,75.761 L51.977,74.316 L51.659,72.779 L51.420,71.158 L51.267,69.463 L51.204,67.702 L51.220,66.794 L51.236,65.885 L51.300,64.954 L51.364,64.023 L51.478,63.075 L51.592,62.126 L51.756,61.165 L51.921,60.205 L52.136,59.237 L52.350,58.269 L52.616,57.300 L52.881,56.330 L53.196,55.365 L53.510,54.399 L53.874,53.442 L54.237,52.486 L54.647,51.543 L55.058,50.601 L55.513,49.678 L55.968,48.754 L56.466,47.855 L56.964,46.956 L57.502,46.085 L58.040,45.214 L58.614,44.377 L59.189,43.539 L59.796,42.739 L60.404,41.938 L61.041,41.179 L61.678,40.419 L62.340,39.704 L63.002,38.989 L63.686,38.321 L64.369,37.653 L65.068,37.035 L65.768,36.418 L66.479,35.852 L67.190,35.287 L68.625,34.265 L70.063,33.354 L71.494,32.557 L72.907,31.874 L74.293,31.305 L75.640,30.851 L76.939,30.508 L78.180,30.276 L79.353,30.149 L80.449,30.125 L81.460,30.198 L82.377,30.363 L83.193,30.613 L83.900,30.940 L84.493,31.338 L84.966,31.799 L85.315,32.312 L85.535,32.871 L85.623,33.464 L85.579,34.083 L85.399,34.719 L85.084,35.360 L84.636,35.997 L84.054,36.621 L83.342,37.222 L82.503,37.791 L81.542,38.318 L80.463,38.796 L79.272,39.215 L77.976,39.568 L76.582,39.848 L75.098,40.048 L73.532,40.163 L71.894,40.188 L70.193,40.119 L68.439,39.951 L67.541,39.817 L66.643,39.683 L65.728,39.498 L64.813,39.312 L63.888,39.076 L62.962,38.839 L62.031,38.550 L61.100,38.262 L60.168,37.923 L59.237,37.584 L58.310,37.194 L57.384,36.805 L56.468,36.367 L55.551,35.928 L54.650,35.443 L53.749,34.958 L52.869,34.428 L51.988,33.899 L51.132,33.327 L50.276,32.755 L49.449,32.144 L48.623,31.533 L47.830,30.886 L47.037,30.239 L46.281,29.560 L45.526,28.881 L44.811,28.174 L44.097,27.467 L43.427,26.737 L42.757,26.006 L42.135,25.256 L41.512,24.506 L40.939,23.742 L40.366,22.977 L39.845,22.203 L39.324,21.429 L38.856,20.650 L38.388,19.871 L37.562,18.315 L36.847,16.770 L36.243,15.248 L35.751,13.757 L35.368,12.309 L35.093,10.914 L34.923,9.582 L34.855,8.321 L34.882,7.142 L35.002,6.051 L35.206,5.059 L35.489,4.171 L35.843,3.395 L36.260,2.736 L36.732,2.201 L37.250,1.792 L37.805,1.513 L38.387,1.368 L38.987,1.357 L39.595,1.483 L40.202,1.744 L40.796,2.139 L41.370,2.668 L41.913,3.326 L42.416,4.110 L42.870,5.016 L43.267,6.038 L43.599,7.170 L43.859,8.405 L44.040,9.736 L44.136,11.155 L44.141,12.653 L44.051,14.220 L43.862,15.847 L43.571,17.524 L43.176,19.241 L42.925,20.114 L42.675,20.988 L42.372,21.870 L42.069,22.753 L41.714,23.640 L41.358,24.526 L40.951,25.412 L40.543,26.297 L40.085,27.177 L39.627,28.056 L39.120,28.924 L38.613,29.791 L38.059,30.643 L37.505,31.494 L36.907,32.324 L36.308,33.154 L35.668,33.958 L35.028,34.762 L34.349,35.536 L33.670,36.310 L32.956,37.050 L32.243,37.790 L31.498,38.491 L30.753,39.193 L29.981,39.854 L29.210,40.514 L28.416,41.130 L27.622,41.746 L26.810,42.315 L25.998,42.883 L25.173,43.403 L24.348,43.922 L23.515,44.391 L22.683,44.859 L21.847,45.275 L21.012,45.690 L20.179,46.052 L19.345,46.414 L17.695,47.030 L16.070,47.538 L14.481,47.937 L12.939,48.231 L11.454,48.422 L10.035,48.512 L8.691,48.507 L7.433,48.410 L6.267,48.229 L5.202,47.968 L4.244,47.636 L3.401,47.240 L2.678,46.787 L2.079,46.288 L1.609,45.750 L1.272,45.183 L1.068,44.596 L1.000,44.000 L1.068,43.404 L1.272,42.817 L1.609,42.250 L2.079,41.712 L2.678,41.213 L3.401,40.760 L4.244,40.364 L5.202,40.032 L6.267,39.771 L7.433,39.590 L8.691,39.493 L10.035,39.488 L11.454,39.578 L12.939,39.769 L14.481,40.063 L16.070,40.462 L17.695,40.970 L19.345,41.586 L20.179,41.948 L21.012,42.310 L21.847,42.725 L22.683,43.141 L23.515,43.609 L24.348,44.078 L25.173,44.597 L25.998,45.117 L26.810,45.685 L27.622,46.254 L28.416,46.870 L29.210,47.486 L29.981,48.146 L30.753,48.807 L31.498,49.509 L32.243,50.210 L32.956,50.950 L33.670,51.690 L34.349,52.464 L35.028,53.238 L35.668,54.042 L36.308,54.846 L36.907,55.676 L37.505,56.506 L38.059,57.357 L38.613,58.209 L39.120,59.076 L39.627,59.944 L40.085,60.823 L40.543,61.703 L40.951,62.588 L41.358,63.474 L41.714,64.360 L42.069,65.247 L42.372,66.130 L42.675,67.012 L42.925,67.886 L43.176,68.759 L43.571,70.476 L43.862,72.153 L44.051,73.780 L44.141,75.347 L44.136,76.845 L44.040,78.264 L43.859,79.595 L43.599,80.830 L43.267,81.962 L42.870,82.984 L42.416,83.890 L41.913,84.674 L41.370,85.332 L40.796,85.861 L40.202,86.256 L39.595,86.517 L38.987,86.643 L38.387,86.632 L37.805,86.487 L37.250,86.208 L36.732,85.799 L36.260,85.264 L35.843,84.605 L35.489,83.829 L35.206,82.941 L35.002,81.949 L34.882,80.858 L34.855,79.679 L34.923,78.418 L35.093,77.086 L35.368,75.691 L35.751,74.243 L36.243,72.752 L36.847,71.230 L37.562,69.685 L38.388,68.129 L38.856,67.350 L39.324,66.571 L39.845,65.797 L40.366,65.023 L40.939,64.258 L41.512,63.494 L42.135,62.744 L42.757,61.994 L43.427,61.263 L44.097,60.533 L44.811,59.826 L45.526,59.119 L46.281,58.440 L47.037,57.761 L47.830,57.114 L48.623,56.467 L49.449,55.856 L50.276,55.245 L51.132,54.673 L51.988,54.101 L52.869,53.572 L53.749,53.042 L54.650,52.557 L55.551,52.072 L56.468,51.633 L57.384,51.195 L58.310,50.806 L59.237,50.416 L60.168,50.077 L61.100,49.738 L62.031,49.450 L62.962,49.161 L63.888,48.924 L64.813,48.688 L65.728,48.502 L66.643,48.317 L67.541,48.183 L68.439,48.049 L70.193,47.881 L71.894,47.812 L73.532,47.837 L75.098,47.952 L76.582,48.152 L77.976,48.432 L79.272,48.785 L80.463,49.204 L81.542,49.682 L82.503,50.209 L83.342,50.778 L84.054,51.379 L84.636,52.003 L85.084,52.640 L85.399,53.281 L85.579,53.917 L85.623,54.536 L85.535,55.129 L85.315,55.688 L84.966,56.201 L84.493,56.662 L83.900,57.060 L83.193,57.387 L82.377,57.637 L81.460,57.802 L80.449,57.875 L79.353,57.851 L78.180,57.724 L76.939,57.492 L75.640,57.149 L74.293,56.695 L72.907,56.126 L71.494,55.443 L70.063,54.646 L68.625,53.735 L67.190,52.713 L66.479,52.148 L65.768,51.582 L65.068,50.965 L64.369,50.347 L63.686,49.679 L63.002,49.011 L62.340,48.296 L61.678,47.581 L61.041,46.821 L60.404,46.062 L59.796,45.261 L59.189,44.461 L58.614,43.623 L58.040,42.786 L57.502,41.915 L56.964,41.044 L56.466,40.145 L55.968,39.246 L55.513,38.322 L55.058,37.399 L54.647,36.457 L54.237,35.514 L53.874,34.558 L53.510,33.601 L53.196,32.635 L52.881,31.670 L52.616,30.700 L52.350,29.731 L52.136,28.763 L51.921,27.795 L51.756,26.835 L51.592,25.874 L51.478,24.925 L51.364,23.977 L51.300,23.046 L51.236,22.115 L51.220,21.206 L51.204,20.298 L51.267,18.537 L51.420,16.842 L51.659,15.221 L51.977,13.684 L52.370,12.239 L52.829,10.893 L53.348,9.654 L53.919,8.528 L54.533,7.521 L55.181,6.636 L55.855,5.879 L56.544,5.252 L57.238,4.757 L57.929,4.395 L58.606,4.167 L59.259,4.072 L59.878,4.108 L60.455,4.273 L60.980,4.564 L61.444,4.977 L61.839,5.506 L62.156,6.146 L62.388,6.890 L62.529,7.731 L62.573,8.662 L62.514,9.673 L62.347,10.757 L62.068,11.904 L61.676,13.104 L61.167,14.347 L60.540,15.623 L59.796,16.923 L58.934,18.235 L57.957,19.550 L56.866,20.857 L55.665,22.146 L55.012,22.777 L54.359,23.408 L53.655,24.021 L52.951,24.634 L52.200,25.224 L51.449,25.814 L50.653,26.378 L49.858,26.941 L49.021,27.473 L48.185,28.006 L47.312,28.504 L46.439,29.002 L45.534,29.462 L44.628,29.922 L43.695,30.341 L42.762,30.761 L41.805,31.137 L40.849,31.514 L39.874,31.844 L38.899,32.175 L37.911,32.459 L36.923,32.743 L35.927,32.978 L34.931,33.214 L33.933,33.400 L32.934,33.586 L31.939,33.722 L30.943,33.859 L29.955,33.945 L28.968,34.032 L27.994,34.069 L27.020,34.107 L26.064,34.096 L25.109,34.085 L24.178,34.027 L23.246,33.970 L22.344,33.867 L21.441,33.764 L19.704,33.471 L18.043,33.099 L16.467,32.651 L14.985,32.134 L13.603,31.556 L12.329,30.925 L11.169,30.249 L10.127,29.536 L9.208,28.795 L8.416,28.037 L7.753,27.271 L7.221,26.506 L6.820,25.753 L6.552,25.021 L6.414,24.320 L6.405,23.660 L6.522,23.050 L6.761,22.500 L7.118,22.018 L7.588,21.612 L8.164,21.289 L8.839,21.058 L9.608,20.925 L10.460,20.895 L11.388,20.973 L12.384,21.164 L13.436,21.471 L14.537,21.897 L15.675,22.443 L16.841,23.110 L18.025,23.897 L19.216,24.805 L20.405,25.831 L21.580,26.971 L22.734,28.223 L23.856,29.582 L24.396,30.312 L24.937,31.042 L25.452,31.820 L25.968,32.597 L26.455,33.419 L26.942,34.241 L27.397,35.104 L27.851,35.966 L28.270,36.864 L28.689,37.763 L29.068,38.693 L29.448,39.624 L29.786,40.582 L30.124,41.539 L30.418,42.520 L30.713,43.500 L30.961,44.497 L31.209,45.495 L31.410,46.504 L31.611,47.514 L31.763,48.531 L31.916,49.547 L32.019,50.565 L32.122,51.583 L32.176,52.597 L32.231,53.612 L32.236,54.617 L32.241,55.622 L32.198,56.612 L32.155,57.602 L32.065,58.573 L31.975,59.544 L31.840,60.489 L31.704,61.435 L31.525,62.351 L31.346,63.267 L31.127,64.148 L30.907,65.030 L30.390,66.714 L29.804,68.312 L29.154,69.816 L28.448,71.218 L27.695,72.513 L26.903,73.693 L26.081,74.756 L25.238,75.696 L24.384,76.510 L23.529,77.196 L22.683,77.754 L21.855,78.181 L21.056,78.480 L20.295,78.651 L19.582,78.696 L18.927,78.619 L18.338,78.423 L17.823,78.114 L17.392,77.697 L17.050,77.179 L16.806,76.566 L16.665,75.865 L16.633,75.086 L16.715,74.237 L16.914,73.327 L17.233,72.365 L17.675,71.362 L18.240,70.326 L18.930,69.269 L19.743,68.200 L20.679,67.129 L21.734,66.066 L22.906,65.022 L24.191,64.005 L25.582,63.025 L27.076,62.090 L27.870,61.650 L28.665,61.209 L29.503,60.799 L30.341,60.389 L31.220,60.014 L32.098,59.638 L33.012,59.300 L33.927,58.962 L34.872,58.664 L35.818,58.366 L36.790,58.111 L37.762,57.856 L38.756,57.646 L39.749,57.436 L40.759,57.272 L41.770,57.108 L42.791,56.993 L43.812,56.877 L44.840,56.809 L45.867,56.742 L46.895,56.724 L47.922,56.705 L48.945,56.736 L49.968,56.766 L50.981,56.845 L51.993,56.923 L52.990,57.049 L53.987,57.175 L54.964,57.347 L55.940,57.519 L56.891,57.735 L57.841,57.951 L58.761,58.209 L59.681,58.466 L60.566,58.763 L61.450,59.060 L62.295,59.393 L63.141,59.726 L64.743,60.458 L66.251,61.248 L67.657,62.089 L68.955,62.971 L70.140,63.887 L71.208,64.826 L72.154,65.780 L72.976,66.739 L73.671,67.691 L74.240,68.629 L74.683,69.541 L74.998,70.417 L75.190,71.248 L75.260,72.025 L75.212,72.737 L75.050,73.377 L74.779,73.936 L74.406,74.406 L73.936,74.779 L73.377,75.050 L72.737,75.212 L72.025,75.260 L71.248,75.190 L70.417,74.998 L69.541,74.683 L68.629,74.240 L67.691,73.671 L66.739,72.976 L65.780,72.154 L64.826,71.208 L63.887,70.140 L62.971,68.955 L62.089,67.657 L61.248,66.251 L60.458,64.743 L59.726,63.141 L59.393,62.295 L59.060,61.450 L58.763,60.566 L58.466,59.681 L58.209,58.761 L57.951,57.841 L57.735,56.891 L57.519,55.940 L57.347,54.964 L57.175,53.987 L57.049,52.990 L56.923,51.993 L56.845,50.981 L56.766,49.968 L56.736,48.945 L56.705,47.922 L56.724,46.895 L56.742,45.867 L56.809,44.840 L56.877,43.812 L56.993,42.791 L57.108,41.770 L57.272,40.759 L57.436,39.749 L57.646,38.756 L57.856,37.762 L58.111,36.790 L58.366,35.818 L58.664,34.872 L58.962,33.927 L59.300,33.012 L59.638,32.098 L60.014,31.220 L60.389,30.341 L60.799,29.503 L61.209,28.665 L61.650,27.870 L62.090,27.076 L63.025,25.582 L64.005,24.191 L65.022,22.906 L66.066,21.734 L67.129,20.679 L68.200,19.743 L69.269,18.930 L70.326,18.240 L71.362,17.675 L72.365,17.233 L73.327,16.914 L74.237,16.715 L75.086,16.633 L75.865,16.665 L76.566,16.806 L77.179,17.050 L77.697,17.392 L78.114,17.823 L78.423,18.338 L78.619,18.927 L78.696,19.582 L78.651,20.295 L78.480,21.056 L78.181,21.855 L77.754,22.683 L77.196,23.529 L76.510,24.384 L75.696,25.238 L74.756,26.081 L73.693,26.903 L72.513,27.695 L71.218,28.448 L69.816,29.154 L68.312,29.804 L66.714,30.390 L65.030,30.907 L64.148,31.127 L63.267,31.346 L62.351,31.525 L61.435,31.704 L60.489,31.840 L59.544,31.975 L58.573,32.065 L57.602,32.155 L56.612,32.198 L55.622,32.241 L54.617,32.236 L53.612,32.231 L52.597,32.176 L51.583,32.122 L50.565,32.019 L49.547,31.916 L48.531,31.763 L47.514,31.611 L46.504,31.410 L45.495,31.209 L44.497,30.961 L43.500,30.713 L42.520,30.418 L41.539,30.124 L40.582,29.786 L39.624,29.448 L38.693,29.068 L37.763,28.689 L36.864,28.270 L35.966,27.851 L35.104,27.397 L34.241,26.942 L33.419,26.455 L32.597,25.968 L31.820,25.452 L31.042,24.937 L30.312,24.396 L29.582,23.856 L28.223,22.734 L26.971,21.580 L25.831,20.405 L24.805,19.216 L23.897,18.025 L23.110,16.841 L22.443,15.675 L21.897,14.537 L21.471,13.436 L21.164,12.384 L20.973,11.388 L20.895,10.460 L20.925,9.608 L21.058,8.839 L21.289,8.164 L21.612,7.588 L22.018,7.118 L22.500,6.761 L23.050,6.522 L23.660,6.405 L24.320,6.414 L25.021,6.552 L25.753,6.820 L26.506,7.221 L27.271,7.753 L28.037,8.416 L28.795,9.208 L29.536,10.127 L30.249,11.169 L30.925,12.329 L31.556,13.603 L32.134,14.985 L32.651,16.467 L33.099,18.043 L33.471,19.704 L33.764,21.441 L33.867,22.344 L33.970,23.246 L34.027,24.178 L34.085,25.109 L34.096,26.064 L34.107,27.020 L34.069,27.994 L34.032,28.968 L33.945,29.955 L33.859,30.943 L33.722,31.939 L33.586,32.934 L33.400,33.933 L33.214,34.931 L32.978,35.927 L32.743,36.923 L32.459,37.911 L32.175,38.899 L31.844,39.874 L31.514,40.849 L31.137,41.805 L30.761,42.762 L30.341,43.695 L29.922,44.628 L29.462,45.534 L29.002,46.439 L28.504,47.312 L28.006,48.185 L27.473,49.021 L26.941,49.858 L26.378,50.653 L25.814,51.449 L25.224,52.200 L24.634,52.951 L24.021,53.655 L23.408,54.359 L22.777,55.012 L22.146,55.665 L20.857,56.866 L19.550,57.957 L18.235,58.934 L16.923,59.796 L15.623,60.540 L14.347,61.167 L13.104,61.676 L11.904,62.068 L10.757,62.347 L9.673,62.514 L8.662,62.573 L7.731,62.529 L6.890,62.388 L6.146,62.156 L5.506,61.839 L4.977,61.444 L4.564,60.980 L4.273,60.455 L4.108,59.878 L4.072,59.259 L4.167,58.606 L4.395,57.929 L4.757,57.238 L5.252,56.544 L5.879,55.855 L6.636,55.181 L7.521,54.533 L8.528,53.919 L9.654,53.348 L10.893,52.829 L12.239,52.370 L13.684,51.977 L15.221,51.659 L16.842,51.420 L18.537,51.267 L20.298,51.204 L21.206,51.220 L22.115,51.236 L23.046,51.300 L23.977,51.364 L24.925,51.478 L25.874,51.592 L26.835,51.756 L27.795,51.921 L28.763,52.136 L29.731,52.350 L30.700,52.616 L31.670,52.881 L32.635,53.196 L33.601,53.510 L34.558,53.874 L35.514,54.237 L36.457,54.647 L37.399,55.058 L38.322,55.513 L39.246,55.968 L40.145,56.466 L41.044,56.964 L41.915,57.502 L42.786,58.040 L43.623,58.614 L44.461,59.189 L45.261,59.796 L46.062,60.404 L46.821,61.041 L47.581,61.678 L48.296,62.340 L49.011,63.002 L49.679,63.686 L50.347,64.369 L50.965,65.068 L51.582,65.768 L52.148,66.479 L52.713,67.190 L53.735,68.625 L54.646,70.063 L55.443,71.494 L56.126,72.907 L56.695,74.293 L57.149,75.640 L57.492,76.939 L57.724,78.180 L57.851,79.353 L57.875,80.449 L57.802,81.460 L57.637,82.377 L57.387,83.193 L57.060,83.900 L56.662,84.493 L56.201,84.966 L55.688,85.315 L55.129,85.535 L54.536,85.623 L53.917,85.579 L53.281,85.399 L52.640,85.084 L52.003,84.636 L51.379,84.054 L50.778,83.342 L50.209,82.503 L49.682,81.542 L49.204,80.463 L48.785,79.272 L48.432,77.976 L48.152,76.582 L47.952,75.098 L47.837,73.532 L47.812,71.894 L47.881,70.193 L48.049,68.439 L48.183,67.541 L48.317,66.643 L48.502,65.728 L48.688,64.813 L48.924,63.888 L49.161,62.962 L49.450,62.031 L49.738,61.100 L50.077,60.168 L50.416,59.237 L50.806,58.310 L51.195,57.384 L51.633,56.468 L52.072,55.551 L52.557,54.650 L53.042,53.749 L53.572,52.869 L54.101,51.988 L54.673,51.132 L55.245,50.276 L55.856,49.449 L56.467,48.623 L57.114,47.830 L57.761,47.037 L58.440,46.281 L59.119,45.526 L59.826,44.811 L60.533,44.097 L61.263,43.427 L61.994,42.757 L62.744,42.135 L63.494,41.512 L64.258,40.939 L65.023,40.366 L65.797,39.845 L66.571,39.324 L67.350,38.856 L68.129,38.388 L69.685,37.562 L71.230,36.847 L72.752,36.243 L74.243,35.751 L75.691,35.368 L77.086,35.093 L78.418,34.923 L79.679,34.855 L80.858,34.882 L81.949,35.002 L82.941,35.206 L83.829,35.489 L84.605,35.843 L85.264,36.260 L85.799,36.732 L86.208,37.250 L86.487,37.805 L86.632,38.387 L86.643,38.987 L86.517,39.595 L86.256,40.202 L85.861,40.796 L85.332,41.370 L84.674,41.913 L83.890,42.416 L82.984,42.870 L81.962,43.267 L80.830,43.599 L79.595,43.859 L78.264,44.040 L76.845,44.136 L75.347,44.141 L73.780,44.051 L72.153,43.862 L70.476,43.571 L68.759,43.176 L67.886,42.925 L67.012,42.675 L66.130,42.372 L65.247,42.069 L64.360,41.714 L63.474,41.358 L62.588,40.951 L61.703,40.543 L60.823,40.085 L59.944,39.627 L59.076,39.120 L58.209,38.613 L57.357,38.059 L56.506,37.505 L55.676,36.907 L54.846,36.308 L54.042,35.668 L53.238,35.028 L52.464,34.349 L51.690,33.670 L50.950,32.956 L50.210,32.243 L49.509,31.498 L48.807,30.753 L48.146,29.981 L47.486,29.210 L46.870,28.416 L46.254,27.622 L45.685,26.810 L45.117,25.998 L44.597,25.173 L44.078,24.348 L43.609,23.515 L43.141,22.683 L42.725,21.847 L42.310,21.012 L41.948,20.179 L41.586,19.345 L40.970,17.695 L40.462,16.070 L40.063,14.481 L39.769,12.939 L39.578,11.454 L39.488,10.035 L39.493,8.691 L39.590,7.433 L39.771,6.267 L40.032,5.202 L40.364,4.244 L40.760,3.401 L41.213,2.678 L41.712,2.079 L42.250,1.609 L42.817,1.272 L43.404,1.068 L44.000,1.000 L44.596,1.068 L45.183,1.272 L45.750,1.609 L46.288,2.079 L46.787,2.678 L47.240,3.401 L47.636,4.244 L47.968,5.202 L48.229,6.267 L48.410,7.433 L48.507,8.691 L48.512,10.035 L48.422,11.454 L48.231,12.939 L47.937,14.481 L47.538,16.070 L47.030,17.695 L46.414,19.345 L46.052,20.179 L45.690,21.012 L45.275,21.847 L44.859,22.683 L44.391,23.515 L43.922,24.348 L43.403,25.173 L42.883,25.998 L42.315,26.810 L41.746,27.622 L41.130,28.416 L40.514,29.210 L39.854,29.981 L39.193,30.753 L38.491,31.498 L37.790,32.243 L37.050,32.956 L36.310,33.670 L35.536,34.349 L34.762,35.028 L33.958,35.668 L33.154,36.308 L32.324,36.907 L31.494,37.505 L30.643,38.059 L29.791,38.613 L28.924,39.120 L28.056,39.627 L27.177,40.085 L26.297,40.543 L25.412,40.951 L24.526,41.358 L23.640,41.714 L22.753,42.069 L21.870,42.372 L20.988,42.675 L20.114,42.925 L19.241,43.176 L17.524,43.571 L15.847,43.862 L14.220,44.051 L12.653,44.141 L11.155,44.136 L9.736,44.040 L8.405,43.859 L7.170,43.599 L6.038,43.267 L5.016,42.870 L4.110,42.416 L3.326,41.913 L2.668,41.370 L2.139,40.796 L1.744,40.202 L1.483,39.595 L1.357,38.987 L1.368,38.387 L1.513,37.805 L1.792,37.250 L2.201,36.732 L2.736,36.260 L3.395,35.843 L4.171,35.489 L5.059,35.206 L6.051,35.002 L7.142,34.882 L8.321,34.855 L9.582,34.923 L10.914,35.093 L12.309,35.368 L13.757,35.751 L15.248,36.243 L16.770,36.847 L18.315,37.562 L19.871,38.388 L20.650,38.856 L21.429,39.324 L22.203,39.845 L22.977,40.366 L23.742,40.939 L24.506,41.512 L25.256,42.135 L26.006,42.757 L26.737,43.427 L27.467,44.097 L28.174,44.811 L28.881,45.526 L29.560,46.281 L30.239,47.037 L30.886,47.830 L31.533,48.623 L32.144,49.449 L32.755,50.276 L33.327,51.132 L33.899,51.988 L34.428,52.869 L34.958,53.749 L35.443,54.650 L35.928,55.551 L36.367,56.468 L36.805,57.384 L37.194,58.310 L37.584,59.237 L37.923,60.168 L38.262,61.100 L38.550,62.031 L38.839,62.962 L39.076,63.888 L39.312,64.813 L39.498,65.728 L39.683,66.643 L39.817,67.541 L39.951,68.439 L40.119,70.193 L40.188,71.894 L40.163,73.532 L40.048,75.098 L39.848,76.582 L39.568,77.976 L39.215,79.272 L38.796,80.463 L38.318,81.542 L37.791,82.503 L37.222,83.342 L36.621,84.054 L35.997,84.636 L35.360,85.084 L34.719,85.399 L34.083,85.579 L33.464,85.623 L32.871,85.535 L32.312,85.315 L31.799,84.966 L31.338,84.493 L30.940,83.900 L30.613,83.193 L30.363,82.377 L30.198,81.460 L30.125,80.449 L30.149,79.353 L30.276,78.180 L30.508,76.939 L30.851,75.640 L31.305,74.293 L31.874,72.907 L32.557,71.494 L33.354,70.063 L34.265,68.625 L35.287,67.190 L35.852,66.479 L36.418,65.768 L37.035,65.068 L37.653,64.369 L38.321,63.686 L38.989,63.002 L39.704,62.340 L40.419,61.678 L41.179,61.041 L41.938,60.404 L42.739,59.796 L43.539,59.189 L44.377,58.614 L45.214,58.040 L46.085,57.502 L46.956,56.964 L47.855,56.466 L48.754,55.968 L49.678,55.513 L50.601,55.058 L51.543,54.647 L52.486,54.237 L53.442,53.874 L54.399,53.510 L55.365,53.196 L56.330,52.881 L57.300,52.616 L58.269,52.350 L59.237,52.136 L60.205,51.921 L61.165,51.756 L62.126,51.592 L63.075,51.478 L64.023,51.364 L64.954,51.300 L65.885,51.236 L66.794,51.220 L67.702,51.204 L69.463,51.267 L71.158,51.420 L72.779,51.659 L74.316,51.977 L75.761,52.370 L77.107,52.829 L78.346,53.348 L79.472,53.919 L80.479,54.533 L81.364,55.181 L82.121,55.855 L82.748,56.544 L83.243,57.238 L83.605,57.929 L83.833,58.606 L83.928,59.259 L83.892,59.878 L83.727,60.455 L83.436,60.980 L83.023,61.444 L82.494,61.839 L81.854,62.156 L81.110,62.388 L80.269,62.529 L79.338,62.573 L78.327,62.514 L77.243,62.347 L76.096,62.068 L74.896,61.676 L73.653,61.167 L72.377,60.540 L71.077,59.796 L69.765,58.934 L68.450,57.957 L67.143,56.866 L65.854,55.665 L65.223,55.012 L64.592,54.359 L63.979,53.655 L63.366,52.951 L62.776,52.200 L62.186,51.449 L61.622,50.653 L61.059,49.858 L60.527,49.021 L59.994,48.185 L59.496,47.312 L58.998,46.439 L58.538,45.534 L58.078,44.628 L57.659,43.695 L57.239,42.762 L56.863,41.805 L56.486,40.849 L56.156,39.874 L55.825,38.899 L55.541,37.911 L55.257,36.923 L55.022,35.927 L54.786,34.931 L54.600,33.933 L54.414,32.934 L54.278,31.939 L54.141,30.943 L54.055,29.955 L53.968,28.968 L53.931,27.994 L53.893,27.020 L53.904,26.064 L53.915,25.109 L53.973,24.178 L54.030,23.246 L54.133,22.344 L54.236,21.441 L54.529,19.704 L54.901,18.043 L55.349,16.467 L55.866,14.985 L56.444,13.603 L57.075,12.329 L57.751,11.169 L58.464,10.127 L59.205,9.208 L59.963,8.416 L60.729,7.753 L61.494,7.221 L62.247,6.820 L62.979,6.552 L63.680,6.414 L64.340,6.405 L64.950,6.522 L65.500,6.761 L65.982,7.118 L66.388,7.588 L66.711,8.164 L66.942,8.839 L67.075,9.608 L67.105,10.460 L67.027,11.388 L66.836,12.384 L66.529,13.436 L66.103,14.537 L65.557,15.675 L64.890,16.841 L64.103,18.025 L63.195,19.216 L62.169,20.405 L61.029,21.580 L59.777,22.734 L58.418,23.856 L57.688,24.396 L56.958,24.937 L56.180,25.452 L55.403,25.968 L54.581,26.455 L53.759,26.942 L52.896,27.397 L52.034,27.851 L51.136,28.270 L50.237,28.689 L49.307,29.068 L48.376,29.448 L47.418,29.786 L46.461,30.124 L45.480,30.418 L44.500,30.713 L43.503,30.961 L42.505,31.209 L41.496,31.410 L40.486,31.611 L39.469,31.763 L38.453,31.916 L37.435,32.019 L36.417,32.122 L35.403,32.176 L34.388,32.231 L33.383,32.236 L32.378,32.241 L31.388,32.198 L30.398,32.155 L29.427,32.065 L28.456,31.975 L27.511,31.840 L26.565,31.704 L25.649,31.525 L24.733,31.346 L23.852,31.127 L22.970,30.907 L21.286,30.390 L19.688,29.804 L18.184,29.154 L16.782,28.448 L15.487,27.695 L14.307,26.903 L13.244,26.081 L12.304,25.238 L11.490,24.384 L10.804,23.529 L10.246,22.683 L9.819,21.855 L9.520,21.056 L9.349,20.295 L9.304,19.582 L9.381,18.927 L9.577,18.338 L9.886,17.823 L10.303,17.392 L10.821,17.050 L11.434,16.806 L12.135,16.665 L12.914,16.633 L13.763,16.715 L14.673,16.914 L15.635,17.233 L16.638,17.675 L17.674,18.240 L18.731,18.930 L19.800,19.743 L20.871,20.679 L21.934,21.734 L22.978,22.906 L23.995,24.191 L24.975,25.582 L25.910,27.076 L26.350,27.870 L26.791,28.665 L27.201,29.503 L27.611,30.341 L27.986,31.220 L28.362,32.098 L28.700,33.012 L29.038,33.927 L29.336,34.872 L29.634,35.818 L29.889,36.790 L30.144,37.762 L30.354,38.756 L30.564,39.749 L30.728,40.759 L30.892,41.770 L31.007,42.791 L31.123,43.812 L31.191,44.840 L31.258,45.867 L31.276,46.895 L31.295,47.922 L31.264,48.945 L31.234,49.968 L31.155,50.981 L31.077,51.993 L30.951,52.990 L30.825,53.987 L30.653,54.964 L30.481,55.940 L30.265,56.891 L30.049,57.841 L29.791,58.761 L29.534,59.681 L29.237,60.566 L28.940,61.450 L28.607,62.295 L28.274,63.141 L27.542,64.743 L26.752,66.251 L25.911,67.657 L25.029,68.955 L24.113,70.140 L23.174,71.208 L22.220,72.154 L21.261,72.976 L20.309,73.671 L19.371,74.240 L18.459,74.683 L17.583,74.998 L16.752,75.190 L15.975,75.260 L15.263,75.212 L14.623,75.050 L14.064,74.779 L13.594,74.406 L13.221,73.936 L12.950,73.377 L12.788,72.737 L12.740,72.025 L12.810,71.248 L13.002,70.417 L13.317,69.541 L13.760,68.629 L14.329,67.691 L15.024,66.739 L15.846,65.780 L16.792,64.826 L17.860,63.887 L19.045,62.971 L20.343,62.089 L21.749,61.248 L23.257,60.458 L24.859,59.726 L25.705,59.393 L26.550,59.060 L27.434,58.763 L28.319,58.466 L29.239,58.209 L30.159,57.951 L31.109,57.735 L32.060,57.519 L33.036,57.347 L34.013,57.175 L35.010,57.049 L36.007,56.923 L37.019,56.845 L38.032,56.766 L39.055,56.736 L40.078,56.705 L41.105,56.724 L42.133,56.742 L43.160,56.809 L44.188,56.877 L45.209,56.993 L46.230,57.108 L47.241,57.272 L48.251,57.436 L49.244,57.646 L50.238,57.856 L51.210,58.111 L52.182,58.366 L53.128,58.664 L54.073,58.962 L54.988,59.300 L55.902,59.638 L56.780,60.014 L57.659,60.389 L58.497,60.799 L59.335,61.209 L60.130,61.650 L60.924,62.090 L62.418,63.025 L63.809,64.005 L65.094,65.022 L66.266,66.066 L67.321,67.129 L68.257,68.200 L69.070,69.269 L69.760,70.326 L70.325,71.362 L70.767,72.365 L71.086,73.327 L71.285,74.237 L71.367,75.086 L71.335,75.865 L71.194,76.566 L70.950,77.179 L70.608,77.697 L70.177,78.114 L69.662,78.423 L69.073,78.619 L68.418,78.696 L67.705,78.651 L66.944,78.480 L66.145,78.181 L65.317,77.754 L64.471,77.196 L63.616,76.510 L62.762,75.696 L61.919,74.756 L61.097,73.693 L60.305,72.513 L59.552,71.218 L58.846,69.816 L58.196,68.312 L57.610,66.714 L57.093,65.030 L56.873,64.148 L56.654,63.267 L56.475,62.351 L56.296,61.435 L56.160,60.489 L56.025,59.544 L55.935,58.573 L55.845,57.602 L55.802,56.612 L55.759,55.622 L55.764,54.617 L55.769,53.612 L55.824,52.597 L55.878,51.583 L55.981,50.565 L56.084,49.547 L56.237,48.531 L56.389,47.514 L56.590,46.504 L56.791,45.495 L57.039,44.497 L57.287,43.500 L57.582,42.520 L57.876,41.539 L58.214,40.582 L58.552,39.624 L58.932,38.693 L59.311,37.763 L59.730,36.864 L60.149,35.966 L60.603,35.104 L61.058,34.241 L61.545,33.419 L62.032,32.597 L62.548,31.820 L63.063,31.042 L63.604,30.312 L64.144,29.582 L65.266,28.223 L66.420,26.971 L67.595,25.831 L68.784,24.805 L69.975,23.897 L71.159,23.110 L72.325,22.443 L73.463,21.897 L74.564,21.471 L75.616,21.164 L76.612,20.973 L77.540,20.895 L78.392,20.925 L79.161,21.058 L79.836,21.289 L80.412,21.612 L80.882,22.018 L81.239,22.500 L81.478,23.050 L81.595,23.660 L81.586,24.320 L81.448,25.021 L81.180,25.753 L80.779,26.506 L80.247,27.271 L79.584,28.037 L78.792,28.795 L77.873,29.536 L76.831,30.249 L75.671,30.925 L74.397,31.556 L73.015,32.134 L71.533,32.651 L69.957,33.099 L68.296,33.471 L66.559,33.764 L65.656,33.867 L64.754,33.970 L63.822,34.027 L62.891,34.085 L61.936,34.096 L60.980,34.107 L60.006,34.069 L59.032,34.032 L58.045,33.945 L57.057,33.859 L56.061,33.722 L55.066,33.586 L54.067,33.400 L53.069,33.214 L52.073,32.978 L51.077,32.743 L50.089,32.459 L49.101,32.175 L48.126,31.844 L47.151,31.514 L46.195,31.137 L45.238,30.761 L44.305,30.341 L43.372,29.922 L42.466,29.462 L41.561,29.002 L40.688,28.504 L39.815,28.006 L38.979,27.473 L38.142,26.941 L37.347,26.378 L36.551,25.814 L35.800,25.224 L35.049,24.634 L34.345,24.021 L33.641,23.408 L32.988,22.777 L32.335,22.146 L31.134,20.857 L30.043,19.550 L29.066,18.235 L28.204,16.923 L27.460,15.623 L26.833,14.347 L26.324,13.104 L25.932,11.904 L25.653,10.757 L25.486,9.673 L25.427,8.662 L25.471,7.731 L25.612,6.890 L25.844,6.146 L26.161,5.506 L26.556,4.977 L27.020,4.564 L27.545,4.273 L28.122,4.108 L28.741,4.072 L29.394,4.167 L30.071,4.395 L30.762,4.757 L31.456,5.252 L32.145,5.879 L32.819,6.636 L33.467,7.521 L34.081,8.528 L34.652,9.654 L35.171,10.893 L35.630,12.239 L36.023,13.684 L36.341,15.221 L36.580,16.842 L36.733,18.537 L36.796,20.298 L36.780,21.206 L36.764,22.115 L36.700,23.046 L36.636,23.977 L36.522,24.925 L36.408,25.874 L36.244,26.835 L36.079,27.795 L35.864,28.763 L35.650,29.731 L35.384,30.700 L35.119,31.670 L34.804,32.635 L34.490,33.601 L34.126,34.558 L33.763,35.514 L33.353,36.457 L32.942,37.399 L32.487,38.322 L32.032,39.246 L31.534,40.145 L31.036,41.044 L30.498,41.915 L29.960,42.786 L29.386,43.623 L28.811,44.461 L28.204,45.261 L27.596,46.062 L26.959,46.821 L26.322,47.581 L25.660,48.296 L24.998,49.011 L24.314,49.679 L23.631,50.347 L22.932,50.965 L22.232,51.582 L21.521,52.148 L20.810,52.713 L19.375,53.735 L17.937,54.646 L16.506,55.443 L15.093,56.126 L13.707,56.695 L12.360,57.149 L11.061,57.492 L9.820,57.724 L8.647,57.851 L7.551,57.875 L6.540,57.802 L5.623,57.637 L4.807,57.387 L4.100,57.060 L3.507,56.662 L3.034,56.201 L2.685,55.688 L2.465,55.129 L2.377,54.536 L2.421,53.917 L2.601,53.281 L2.916,52.640 L3.364,52.003 L3.946,51.379 L4.658,50.778 L5.497,50.209 L6.458,49.682 L7.537,49.204 L8.728,48.785 L10.024,48.432 L11.418,48.152 L12.902,47.952 L14.468,47.837 L16.106,47.812 L17.807,47.881 L19.561,48.049 L20.459,48.183 L21.357,48.317 L22.272,48.502 L23.187,48.688 L24.112,48.924 L25.038,49.161 L25.969,49.450 L26.900,49.738 L27.832,50.077 L28.763,50.416 L29.690,50.806 L30.616,51.195 L31.532,51.633 L32.449,52.072 L33.350,52.557 L34.251,53.042 L35.131,53.572 L36.012,54.101 L36.868,54.673 L37.724,55.245 L38.551,55.856 L39.377,56.467 L40.170,57.114 L40.963,57.761 L41.719,58.440 L42.474,59.119 L43.189,59.826 L43.903,60.533 L44.573,61.263 L45.243,61.994 L45.865,62.744 L46.488,63.494 L47.061,64.258 L47.634,65.023 L48.155,65.797 L48.676,66.571 L49.144,67.350 L49.612,68.129 L50.438,69.685 L51.153,71.230 L51.757,72.752 L52.249,74.243 L52.632,75.691 L52.907,77.086 L53.077,78.418 L53.145,79.679 L53.118,80.858 L52.998,81.949 L52.794,82.941 L52.511,83.829 L52.157,84.605 L51.740,85.264 L51.268,85.799 L50.750,86.208 L50.195,86.487 L49.613,86.632 L49.013,86.643 L48.405,86.517 L47.798,86.256 L47.204,85.861 L46.630,85.332 L46.087,84.674 L45.584,83.890 L45.130,82.984 L44.733,81.962 L44.401,80.830 L44.141,79.595 L43.960,78.264 L43.864,76.845 L43.859,75.347 L43.949,73.780 L44.138,72.153 L44.429,70.476 L44.824,68.759 L45.075,67.886 L45.325,67.012 L45.628,66.130 L45.931,65.247 L46.286,64.360 L46.642,63.474 L47.049,62.588 L47.457,61.703 L47.915,60.823 L48.373,59.944 L48.880,59.076 L49.387,58.209 L49.941,57.357 L50.495,56.506 L51.093,55.676 L51.692,54.846 L52.332,54.042 L52.972,53.238 L53.651,52.464 L54.330,51.690 L55.044,50.950 L55.757,50.210 L56.502,49.509 L57.247,48.807 L58.019,48.146 L58.790,47.486 L59.584,46.870 L60.378,46.254 L61.190,45.685 L62.002,45.117 L62.827,44.597 L63.652,44.078 L64.485,43.609 L65.317,43.141 L66.153,42.725 L66.988,42.310 L67.821,41.948 L68.655,41.586 L70.305,40.970 L71.930,40.462 L73.519,40.063 L75.061,39.769 L76.546,39.578 L77.965,39.488 L79.309,39.493 L80.567,39.590 L81.733,39.771 L82.798,40.032 L83.756,40.364 L84.599,40.760 L85.322,41.213 L85.921,41.712 L86.391,42.250 L86.728,42.817 L86.932,43.404 L87.000,44.000 L86.932,43.404 L87.000,44.000 L86.932,43.404 L87.000,44.000"/>
</svg>
