<svg xmlns="http://www.w3.org/2000/svg" viewBox="0 -0.026 37.184 37.184" width="256" height="256">
  <title>spiral-fill-paths</title>
  <rect x="0" y="-0.026" width="37.184" height="37.184" fill="#f5efe4"/>
  <path fill="none" stroke="#c8472f" stroke-width="0.4" stroke-linecap="round" stroke-linejoin="round" d="M1.111,18.574 L1.150,17.875 L1.111,18.574 L1.150,17.875 L1.111,18.574 M1.111,18.574 L1.150,19.273 L1.111,18.574 L1.150,19.273 L1.111,18.574 M35.784,23.304 L35.784,22.604 L35.784,23.304 L35.784,22.604 L35.784,23.304 M2.184,25.290 L2.184,24.590 L2.184,25.290 L2.184,24.590 L2.184,25.290 M1.000,18.774 L1.038,18.075 L1.000,18.774 L1.038,18.075 L1.000,18.774 L1.110,16.777 L1.425,14.803 L1.960,12.876 L2.716,11.025 L3.677,9.272 L4.831,7.639 L6.163,6.149 L7.654,4.818 L9.287,3.666 L11.040,2.707 L12.890,1.953 L14.813,1.413 L16.785,1.094 L18.780,1.000 L20.773,1.133 L22.737,1.493 L24.648,2.072 L26.482,2.864 L28.213,3.859 L29.821,5.043 L31.284,6.402 L32.584,7.918 L33.704,9.572 L34.628,11.342 L35.347,13.206 L35.849,15.139 L36.129,17.117 L36.184,19.114 L36.010,21.104 L35.613,23.062 L34.996,24.963 L34.168,26.782 L33.139,28.496 L31.922,30.082 L30.532,31.519 L28.984,32.786 L27.303,33.868 L25.511,34.754 L23.630,35.429 L21.685,35.888 L19.701,36.123 L17.703,36.131 L15.717,35.912 L13.769,35.471 L11.883,34.811 L10.085,33.943 L8.397,32.875 L6.841,31.624 L5.437,30.203 L4.202,28.634 L3.154,26.934 L2.306,25.126 L1.667,23.234 L1.247,21.282 L1.527,19.364 L1.876,17.416 L2.130,15.435 L2.616,13.497 L3.328,11.630 L4.256,9.860 L5.391,8.215 L6.721,6.722 L8.218,5.398 L9.860,4.260 L11.624,3.325 L13.487,2.604 L15.422,2.109 L17.401,1.846 L19.398,1.818 L21.385,2.026 L23.333,2.469 L25.216,3.139 L27.007,4.027 L28.672,5.133 L30.193,6.429 L31.551,7.894 L32.726,9.510 L33.700,11.253 L34.463,13.099 L35.002,15.022 L35.311,16.995 L35.384,18.991 L35.219,20.982 L34.820,22.940 L34.192,24.837 L33.336,26.644 L32.268,28.333 L31.007,29.883 L29.572,31.273 L27.984,32.484 L26.263,33.497 L24.435,34.302 L22.525,34.884 L20.559,35.237 L18.565,35.353 L16.571,35.233 L14.603,34.880 L12.693,34.292 L10.870,33.472 L9.158,32.441 L7.579,31.217 L6.158,29.813 L4.911,28.253 L3.859,26.556 L3.015,24.746 L2.389,22.849 L1.992,20.892 L2.452,18.997 L2.697,17.029 L3.007,15.055 L3.579,13.139 L4.381,11.310 L5.401,9.593 L6.626,8.016 L8.034,6.600 L9.608,5.369 L11.321,4.340 L13.156,3.546 L15.075,2.992 L17.048,2.679 L19.043,2.609 L21.033,2.784 L22.985,3.207 L24.872,3.864 L26.660,4.756 L28.315,5.876 L29.818,7.192 L31.149,8.681 L32.285,10.324 L33.210,12.093 L33.913,13.964 L34.380,15.907 L34.584,17.895 L34.535,19.892 L34.240,21.868 L33.704,23.791 L32.937,25.635 L31.949,27.371 L30.755,28.973 L29.363,30.408 L27.798,31.649 L26.091,32.687 L24.271,33.509 L22.363,34.100 L20.397,34.452 L18.402,34.556 L16.408,34.416 L14.452,34.009 L12.562,33.360 L10.766,32.487 L9.091,31.399 L7.563,30.114 L6.205,28.649 L5.036,27.028 L4.090,25.268 L3.377,23.401 L2.898,21.462 L3.027,19.539 L3.466,17.615 L3.718,15.634 L4.222,13.700 L4.995,11.858 L6.001,10.132 L7.221,8.551 L8.631,7.137 L10.214,5.918 L11.951,4.930 L13.803,4.182 L15.736,3.678 L17.717,3.426 L19.715,3.428 L21.693,3.704 L23.615,4.249 L25.451,5.035 L27.173,6.047 L28.750,7.272 L30.148,8.700 L31.335,10.307 L32.306,12.052 L33.046,13.907 L33.545,15.841 L33.784,17.825 L33.738,19.823 L33.435,21.797 L32.883,23.716 L32.092,25.550 L31.069,27.267 L29.809,28.817 L28.363,30.195 L26.753,31.376 L25.003,32.340 L23.145,33.075 L21.200,33.533 L19.213,33.734 L17.217,33.680 L15.243,33.374 L13.325,32.816 L11.505,31.990 L9.810,30.934 L8.262,29.671 L6.891,28.219 L5.715,26.604 L4.779,24.839 L4.086,22.965 L3.635,21.020 L3.980,19.127 L4.291,17.177 L4.627,15.208 L5.237,13.306 L6.095,11.503 L7.185,9.829 L8.512,8.335 L10.034,7.043 L11.714,5.962 L13.523,5.116 L15.440,4.551 L17.414,4.254 L19.411,4.221 L21.395,4.454 L23.319,4.992 L25.154,5.782 L26.869,6.805 L28.425,8.057 L29.777,9.528 L30.923,11.164 L31.838,12.939 L32.496,14.825 L32.872,16.787 L32.984,18.781 L32.826,20.772 L32.379,22.719 L31.662,24.583 L30.707,26.336 L29.524,27.946 L28.114,29.362 L26.523,30.569 L24.785,31.553 L22.933,32.301 L20.987,32.755 L18.999,32.938 L17.003,32.860 L15.035,32.515 L13.145,31.867 L11.356,30.980 L9.702,29.861 L8.219,28.523 L6.950,26.980 L5.899,25.282 L5.082,23.459 L4.533,21.539 L4.548,19.611 L5.063,17.713 L5.323,15.733 L5.893,13.819 L6.733,12.007 L7.813,10.327 L9.146,8.839 L10.681,7.562 L12.375,6.504 L14.217,5.731 L16.149,5.229 L18.133,4.998 L20.129,5.082 L22.091,5.456 L23.983,6.096 L25.749,7.030 L27.364,8.205 L28.800,9.593 L29.999,11.190 L30.955,12.943 L31.664,14.811 L32.065,16.767 L32.184,18.761 L32.023,20.752 L31.543,22.691 L30.796,24.543 L29.803,26.276 L28.540,27.823 L27.076,29.181 L25.436,30.323 L23.634,31.183 L21.729,31.784 L19.760,32.117 L17.762,32.120 L15.783,31.849 L13.861,31.306 L12.052,30.458 L10.380,29.366 L8.873,28.055 L7.601,26.515 L6.555,24.813 L5.754,22.983 L5.262,21.047 L5.534,19.161 L5.890,17.228 L6.273,15.268 L6.932,13.382 L7.886,11.628 L9.103,10.045 L10.539,8.659 L12.190,7.535 L13.986,6.661 L15.900,6.092 L17.879,5.822 L19.875,5.855 L21.839,6.218 L23.731,6.858 L25.485,7.814 L27.083,9.011 L28.466,10.452 L29.612,12.087 L30.497,13.877 L31.072,15.790 L31.372,17.765 L31.329,19.761 L30.988,21.729 L30.347,23.619 L29.413,25.384 L28.229,26.993 L26.790,28.379 L25.167,29.542 L23.376,30.425 L21.471,31.024 L19.498,31.323 L17.500,31.295 L15.527,30.984 L13.638,30.335 L11.862,29.424 L10.252,28.242 L8.853,26.817 L7.676,25.204 L6.790,23.414 L6.170,21.516 L6.094,19.590 L6.664,17.718 L6.969,15.746 L7.604,13.853 L8.540,12.089 L9.759,10.508 L11.222,9.150 L12.891,8.054 L14.718,7.251 L16.654,6.760 L18.644,6.605 L20.634,6.767 L22.564,7.275 L24.389,8.087 L26.048,9.196 L27.506,10.561 L28.712,12.152 L29.644,13.918 L30.257,15.817 L30.569,17.790 L30.521,19.786 L30.162,21.750 L29.461,23.620 L28.486,25.363 L27.206,26.896 L25.717,28.226 L24.005,29.255 L22.161,30.022 L20.208,30.440 L18.214,30.551 L16.232,30.306 L14.313,29.757 L12.519,28.880 L10.882,27.735 L9.477,26.316 L8.311,24.696 L7.443,22.897 L6.873,20.984 L7.121,19.111 L7.511,17.192 L7.943,15.242 L8.708,13.400 L9.775,11.711 L11.145,10.259 L12.743,9.063 L14.529,8.170 L16.446,7.616 L18.430,7.400 L20.422,7.547 L22.353,8.050 L24.172,8.875 L25.801,10.029 L27.209,11.444 L28.347,13.085 L29.158,14.909 L29.657,16.842 L29.784,18.835 L29.552,20.816 L28.988,22.732 L28.074,24.507 L26.867,26.096 L25.399,27.451 L23.707,28.508 L21.862,29.272 L19.906,29.673 L17.911,29.723 L15.935,29.434 L14.051,28.770 L12.307,27.802 L10.762,26.536 L9.478,25.009 L8.464,23.288 L7.801,21.405 L7.673,19.489 L8.270,17.642 L8.650,15.683 L9.386,13.829 L10.456,12.144 L11.841,10.705 L13.478,9.563 L15.298,8.746 L17.240,8.284 L19.236,8.223 L21.206,8.535 L23.080,9.220 L24.797,10.239 L26.270,11.587 L27.468,13.183 L28.336,14.979 L28.859,16.906 L28.984,18.899 L28.718,20.877 L28.091,22.771 L27.122,24.516 L25.817,26.027 L24.255,27.269 L22.487,28.193 L20.576,28.773 L18.586,28.942 L16.601,28.748 L14.690,28.175 L12.917,27.257 L11.364,26.002 L10.081,24.474 L9.102,22.735 L8.473,20.840 L8.748,18.994 L9.151,17.083 L9.665,15.155 L10.568,13.376 L11.816,11.818 L13.363,10.556 L15.142,9.649 L17.067,9.125 L19.059,9.019 L21.031,9.317 L22.896,10.024 L24.577,11.096 L25.999,12.496 L27.104,14.157 L27.839,16.013 L28.175,17.982 L28.084,19.975 L27.581,21.907 L26.695,23.694 L25.452,25.254 L23.921,26.531 L22.157,27.463 L20.238,28.011 L18.246,28.145 L16.268,27.868 L14.395,27.175 L12.707,26.110 L11.273,24.724 L10.160,23.069 L9.412,21.221 L9.290,19.326 L9.892,17.498 L10.364,15.559 L11.263,13.778 L12.536,12.243 L14.125,11.038 L15.944,10.221 L17.899,9.835 L19.893,9.898 L21.819,10.414 L23.579,11.351 L25.082,12.662 L26.259,14.273 L27.034,16.112 L27.381,18.078 L27.258,20.070 L26.693,21.984 L25.712,23.720 L24.363,25.190 L22.718,26.318 L20.863,27.049 L18.890,27.332 L16.903,27.177 L15.004,26.567 L13.292,25.546 L11.850,24.169 L10.761,22.498 L10.074,20.625 L10.422,18.833 L10.802,16.914 L11.463,15.033 L12.568,13.374 L14.048,12.040 L15.809,11.104 L17.750,10.650 L19.744,10.686 L21.667,11.212 L23.399,12.201 L24.826,13.594 L25.869,15.292 L26.464,17.195 L26.563,19.186 L26.153,21.137 L25.284,22.931 L23.996,24.454 L22.364,25.600 L20.503,26.315 L18.523,26.541 L16.547,26.279 L14.703,25.521 L13.099,24.337 L11.836,22.793 L11.006,20.981 L10.950,19.124 L11.546,17.308 L12.165,15.415 L13.287,13.768 L14.814,12.488 L16.636,11.681 L18.608,11.411 L20.582,11.680 L22.400,12.494 L23.929,13.772 L25.046,15.421 L25.671,17.313 L25.743,19.303 L25.271,21.240 L24.271,22.963 L22.850,24.361 L21.091,25.298 L19.145,25.724 L17.156,25.596 L15.278,24.930 L13.660,23.767 L12.421,22.206 L11.663,20.364 L12.143,18.659 L12.511,16.721 L13.383,14.933 L14.763,13.500 L16.516,12.557 L18.475,12.208 L20.449,12.472 L22.239,13.345 L23.675,14.723 L24.619,16.474 L24.984,18.431 L24.712,20.404 L23.851,22.200 L22.471,23.637 L20.719,24.582 L18.761,24.933 L16.789,24.677 L14.994,23.817 L13.546,22.451 L12.592,20.702 L12.652,18.915 L13.235,17.100 L14.096,15.309 L15.528,13.931 L17.354,13.143 L19.341,13.054 L21.232,13.667 L22.792,14.901 L23.817,16.604 L24.184,18.559 L23.827,20.514 L22.814,22.225 L21.260,23.467 L19.372,24.090 L17.385,24.012 L15.553,23.236 L14.113,21.865 L13.243,20.078 L13.832,18.472 L14.284,16.539 L15.488,14.960 L17.231,14.010 L19.208,13.843 L21.079,14.502 L22.530,15.858 L23.295,17.690 L23.247,19.671 L22.396,21.462 L20.892,22.757 L18.991,23.326 L17.023,23.073 L15.328,22.041 L14.198,20.409 L14.380,18.740 L14.987,16.923 L16.241,15.393 L18.069,14.638 L20.033,14.873 L21.643,16.024 L22.501,17.806 L22.387,19.778 L21.333,21.451 L19.605,22.414 L17.626,22.425 L15.891,21.472 L14.827,19.804 L15.442,18.287 L16.226,16.484 L17.917,15.480 L19.874,15.672 L21.344,16.981 L21.761,18.901 L20.954,20.693 L19.251,21.678 L17.297,21.455 L15.844,20.132 L16.094,18.632 L16.921,16.906 L18.734,16.218 L20.456,17.105 L20.942,18.981 L19.847,20.584 L17.926,20.840 L16.452,19.575 L17.082,18.190 L18.528,17.013 L20.081,18.049 L19.536,19.830 L17.673,19.829 L17.718,18.597 L19.196,18.094 L18.338,19.289 L17.800,18.445 L18.176,19.035 L17.800,18.445 L18.176,19.035 L17.800,18.445"/>
</svg>
