<svg xmlns="http://www.w3.org/2000/svg" viewBox="-0.756 0 79.864 79.864" width="256" height="256">
  <title>spirolateral</title>
  <rect x="-0.756" y="0" width="79.864" height="79.864" fill="#f5efe4"/>
  <path fill="none" stroke="#8c4a6b" stroke-width="0.4" stroke-linecap="round" stroke-linejoin="round" d="M40.447,55.963 L40.447,55.963 L40.447,54.131 L40.447,55.963 L40.447,54.131 L40.447,52.299 L40.447,54.131 L40.447,52.299 L40.447,50.467 L40.447,52.299 L40.447,50.467 L40.447,48.635 L40.447,50.467 L40.447,48.635 L40.447,46.802 L40.447,48.635 L40.447,46.802 L41.524,48.285 L40.447,46.802 L41.524,48.285 L42.601,49.767 L41.524,48.285 L42.601,49.767 L43.678,51.249 L42.601,49.767 L43.678,51.249 L44.755,52.731 L43.678,51.249 L44.755,52.731 L45.832,54.213 L44.755,52.731 L45.832,54.213 L46.909,55.696 L45.832,54.213 L46.909,55.696 L47.986,57.178 L46.909,55.696 L47.986,57.178 L49.062,58.660 L47.986,57.178 L49.062,58.660 L50.139,60.142 L49.062,58.660 L50.139,60.142 L51.216,61.624 L50.139,60.142 L51.216,61.624 L49.349,61.018 L51.216,61.624 L49.349,61.018 L47.482,60.411 L49.349,61.018 L47.482,60.411 L45.616,59.805 L47.482,60.411 L45.616,59.805 L43.749,59.198 L45.616,59.805 L43.749,59.198 L41.882,58.591 L43.749,59.198 L41.882,58.591 L40.015,57.985 L41.882,58.591 L40.015,57.985 L38.148,57.378 L40.015,57.985 L38.148,57.378 L36.281,56.772 L38.148,57.378 L36.281,56.772 L34.414,56.165 L36.281,56.772 L34.414,56.165 L32.547,55.559 L34.414,56.165 L32.547,55.559 L30.680,54.952 L32.547,55.559 L30.680,54.952 L28.814,54.345 L30.680,54.952 L28.814,54.345 L26.947,53.739 L28.814,54.345 L26.947,53.739 L25.080,53.132 L26.947,53.739 L25.080,53.132 L26.914,52.536 L25.080,53.132 L26.914,52.536 L28.748,51.940 L26.914,52.536 L28.748,51.940 L30.582,51.344 L28.748,51.940 L30.582,51.344 L32.416,50.748 L30.582,51.344 L32.416,50.748 L34.250,50.152 L32.416,50.748 L34.250,50.152 L36.085,49.556 L34.250,50.152 L36.085,49.556 L37.919,48.961 L36.085,49.556 L37.919,48.961 L39.753,48.365 L37.919,48.961 L39.753,48.365 L41.587,47.769 L39.753,48.365 L41.587,47.769 L43.421,47.173 L41.587,47.769 L43.421,47.173 L45.255,46.577 L43.421,47.173 L45.255,46.577 L47.089,45.981 L45.255,46.577 L47.089,45.981 L48.924,45.385 L47.089,45.981 L48.924,45.385 L50.758,44.789 L48.924,45.385 L50.758,44.789 L52.592,44.193 L50.758,44.789 L52.592,44.193 L54.426,43.597 L52.592,44.193 L54.426,43.597 L56.260,43.001 L54.426,43.597 L56.260,43.001 L58.094,42.405 L56.260,43.001 L58.094,42.405 L59.928,41.809 L58.094,42.405 L59.928,41.809 L58.758,43.420 L59.928,41.809 L58.758,43.420 L57.587,45.031 L58.758,43.420 L57.587,45.031 L56.417,46.642 L57.587,45.031 L56.417,46.642 L55.246,48.254 L56.417,46.642 L55.246,48.254 L54.076,49.865 L55.246,48.254 L54.076,49.865 L52.905,51.476 L54.076,49.865 L52.905,51.476 L51.735,53.087 L52.905,51.476 L51.735,53.087 L50.564,54.698 L51.735,53.087 L50.564,54.698 L49.394,56.309 L50.564,54.698 L49.394,56.309 L48.223,57.920 L49.394,56.309 L48.223,57.920 L47.053,59.531 L48.223,57.920 L47.053,59.531 L45.882,61.142 L47.053,59.531 L45.882,61.142 L44.712,62.753 L45.882,61.142 L44.712,62.753 L43.541,64.364 L44.712,62.753 L43.541,64.364 L42.370,65.975 L43.541,64.364 L42.370,65.975 L41.200,67.587 L42.370,65.975 L41.200,67.587 L40.029,69.198 L41.200,67.587 L40.029,69.198 L38.859,70.809 L40.029,69.198 L38.859,70.809 L37.688,72.420 L38.859,70.809 L37.688,72.420 L36.518,74.031 L37.688,72.420 L36.518,74.031 L35.347,75.642 L36.518,74.031 L35.347,75.642 L34.177,77.253 L35.347,75.642 L34.177,77.253 L33.006,78.864 L34.177,77.253 L33.006,78.864 L33.006,76.901 L33.006,78.864 L33.006,76.901 L33.006,74.938 L33.006,76.901 L33.006,74.938 L33.006,72.975 L33.006,74.938 L33.006,72.975 L33.006,71.012 L33.006,72.975 L33.006,71.012 L33.006,69.049 L33.006,71.012 L33.006,69.049 L33.006,67.086 L33.006,69.049 L33.006,67.086 L33.006,65.123 L33.006,67.086 L33.006,65.123 L33.006,63.160 L33.006,65.123 L33.006,63.160 L33.006,61.197 L33.006,63.160 L33.006,61.197 L33.006,59.235 L33.006,61.197 L33.006,59.235 L33.006,57.272 L33.006,59.235 L33.006,57.272 L33.006,55.309 L33.006,57.272 L33.006,55.309 L33.006,53.346 L33.006,55.309 L33.006,53.346 L33.006,51.383 L33.006,53.346 L33.006,51.383 L33.006,49.420 L33.006,51.383 L33.006,49.420 L33.006,47.457 L33.006,49.420 L33.006,47.457 L33.006,45.494 L33.006,47.457 L33.006,45.494 L33.006,43.531 L33.006,45.494 L33.006,43.531 L33.006,41.568 L33.006,43.531 L33.006,41.568 L33.006,39.605 L33.006,41.568 L33.006,39.605 L33.006,37.642 L33.006,39.605 L33.006,37.642 L33.006,35.679 L33.006,37.642 L33.006,35.679 L33.006,33.716 L33.006,35.679 L33.006,33.716 L33.006,31.753 L33.006,33.716 L33.006,31.753 L33.006,29.790 L33.006,31.753 L33.006,29.790 L33.006,27.827 L33.006,29.790 L33.006,27.827 L33.006,25.864 L33.006,27.827 L33.006,25.864 L33.006,23.901 L33.006,25.864 L33.006,23.901 L34.083,25.383 L33.006,23.901 L34.083,25.383 L35.160,26.866 L34.083,25.383 L35.160,26.866 L36.237,28.348 L35.160,26.866 L36.237,28.348 L37.314,29.830 L36.237,28.348 L37.314,29.830 L38.391,31.312 L37.314,29.830 L38.391,31.312 L36.648,30.746 L38.391,31.312 L36.648,30.746 L34.906,30.180 L36.648,30.746 L34.906,30.180 L33.163,29.614 L34.906,30.180 L33.163,29.614 L31.421,29.048 L33.163,29.614 L31.421,29.048 L29.679,28.481 L31.421,29.048 L29.679,28.481 L27.936,27.915 L29.679,28.481 L27.936,27.915 L26.194,27.349 L27.936,27.915 L26.194,27.349 L24.451,26.783 L26.194,27.349 L24.451,26.783 L22.709,26.217 L24.451,26.783 L22.709,26.217 L20.966,25.651 L22.709,26.217 L20.966,25.651 L22.833,25.044 L20.966,25.651 L22.833,25.044 L24.700,24.438 L22.833,25.044 L24.700,24.438 L26.567,23.831 L24.700,24.438 L26.567,23.831 L28.434,23.224 L26.567,23.831 L28.434,23.224 L30.301,22.618 L28.434,23.224 L30.301,22.618 L32.168,22.011 L30.301,22.618 L32.168,22.011 L34.035,21.405 L32.168,22.011 L34.035,21.405 L35.902,20.798 L34.035,21.405 L35.902,20.798 L37.768,20.191 L35.902,20.798 L37.768,20.191 L39.635,19.585 L37.768,20.191 L39.635,19.585 L41.502,18.978 L39.635,19.585 L41.502,18.978 L43.369,18.372 L41.502,18.978 L43.369,18.372 L45.236,17.765 L43.369,18.372 L45.236,17.765 L47.103,17.158 L45.236,17.765 L47.103,17.158 L45.969,18.719 L47.103,17.158 L45.969,18.719 L44.836,20.279 L45.969,18.719 L44.836,20.279 L43.702,21.839 L44.836,20.279 L43.702,21.839 L42.569,23.399 L43.702,21.839 L42.569,23.399 L41.435,24.960 L42.569,23.399 L41.435,24.960 L40.302,26.520 L41.435,24.960 L40.302,26.520 L39.168,28.080 L40.302,26.520 L39.168,28.080 L38.034,29.640 L39.168,28.080 L38.034,29.640 L36.901,31.200 L38.034,29.640 L36.901,31.200 L35.767,32.761 L36.901,31.200 L35.767,32.761 L34.634,34.321 L35.767,32.761 L34.634,34.321 L33.500,35.881 L34.634,34.321 L33.500,35.881 L32.367,37.441 L33.500,35.881 L32.367,37.441 L31.233,39.001 L32.367,37.441 L31.233,39.001 L30.099,40.562 L31.233,39.001 L30.099,40.562 L28.966,42.122 L30.099,40.562 L28.966,42.122 L27.832,43.682 L28.966,42.122 L27.832,43.682 L26.699,45.242 L27.832,43.682 L26.699,45.242 L25.565,46.802 L26.699,45.242 L25.565,46.802 L25.565,44.811 L25.565,46.802 L25.565,44.811 L25.565,42.820 L25.565,44.811 L25.565,42.820 L25.565,40.828 L25.565,42.820 L25.565,40.828 L25.565,38.837 L25.565,40.828 L25.565,38.837 L25.565,36.845 L25.565,38.837 L25.565,36.845 L25.565,34.854 L25.565,36.845 L25.565,34.854 L25.565,32.863 L25.565,34.854 L25.565,32.863 L25.565,30.871 L25.565,32.863 L25.565,30.871 L25.565,28.880 L25.565,30.871 L25.565,28.880 L25.565,26.888 L25.565,28.880 L25.565,26.888 L25.565,24.897 L25.565,26.888 L25.565,24.897 L25.565,22.906 L25.565,24.897 L25.565,22.906 L25.565,20.914 L25.565,22.906 L25.565,20.914 L25.565,18.923 L25.565,20.914 L25.565,18.923 L25.565,16.931 L25.565,18.923 L25.565,16.931 L25.565,14.940 L25.565,16.931 L25.565,14.940 L25.565,12.948 L25.565,14.940 L25.565,12.948 L25.565,10.957 L25.565,12.948 L25.565,10.957 L25.565,8.966 L25.565,10.957 L25.565,8.966 L25.565,6.974 L25.565,8.966 L25.565,6.974 L25.565,4.983 L25.565,6.974 L25.565,4.983 L25.565,2.991 L25.565,4.983 L25.565,2.991 L25.565,1.000 L25.565,2.991 L25.565,1.000 L26.719,2.588 L25.565,1.000 L26.719,2.588 L27.873,4.176 L26.719,2.588 L27.873,4.176 L29.027,5.764 L27.873,4.176 L29.027,5.764 L30.180,7.352 L29.027,5.764 L30.180,7.352 L31.334,8.940 L30.180,7.352 L31.334,8.940 L32.488,10.528 L31.334,8.940 L32.488,10.528 L33.642,12.116 L32.488,10.528 L33.642,12.116 L34.796,13.705 L33.642,12.116 L34.796,13.705 L35.949,15.293 L34.796,13.705 L35.949,15.293 L37.103,16.881 L35.949,15.293 L37.103,16.881 L38.257,18.469 L37.103,16.881 L38.257,18.469 L39.411,20.057 L38.257,18.469 L39.411,20.057 L40.565,21.645 L39.411,20.057 L40.565,21.645 L41.718,23.233 L40.565,21.645 L41.718,23.233 L42.872,24.821 L41.718,23.233 L42.872,24.821 L44.026,26.409 L42.872,24.821 L44.026,26.409 L45.180,27.997 L44.026,26.409 L45.180,27.997 L46.334,29.585 L45.180,27.997 L46.334,29.585 L47.487,31.173 L46.334,29.585 L47.487,31.173 L48.641,32.761 L47.487,31.173 L48.641,32.761 L49.795,34.349 L48.641,32.761 L49.795,34.349 L50.949,35.938 L49.795,34.349 L50.949,35.938 L52.103,37.526 L50.949,35.938 L52.103,37.526 L53.256,39.114 L52.103,37.526 L53.256,39.114 L54.410,40.702 L53.256,39.114 L54.410,40.702 L55.564,42.290 L54.410,40.702 L55.564,42.290 L56.718,43.878 L55.564,42.290 L56.718,43.878 L57.872,45.466 L56.718,43.878 L57.872,45.466 L56.129,44.900 L57.872,45.466 L56.129,44.900 L54.387,44.334 L56.129,44.900 L54.387,44.334 L52.644,43.767 L54.387,44.334 L52.644,43.767 L50.902,43.201 L52.644,43.767 L50.902,43.201 L49.160,42.635 L50.902,43.201 L49.160,42.635 L50.902,42.069 L49.160,42.635 L50.902,42.069 L52.644,41.503 L50.902,42.069 L52.644,41.503 L54.387,40.937 L52.644,41.503 L54.387,40.937 L56.129,40.371 L54.387,40.937 L56.129,40.371 L57.872,39.804 L56.129,40.371 L57.872,39.804 L59.614,39.238 L57.872,39.804 L59.614,39.238 L61.357,38.672 L59.614,39.238 L61.357,38.672 L63.099,38.106 L61.357,38.672 L63.099,38.106 L64.841,37.540 L63.099,38.106 L64.841,37.540 L66.584,36.974 L64.841,37.540 L66.584,36.974 L65.430,38.562 L66.584,36.974 L65.430,38.562 L64.276,40.150 L65.430,38.562 L64.276,40.150 L63.122,41.738 L64.276,40.150 L63.122,41.738 L61.969,43.326 L63.122,41.738 L61.969,43.326 L60.815,44.914 L61.969,43.326 L60.815,44.914 L59.661,46.502 L60.815,44.914 L59.661,46.502 L58.507,48.090 L59.661,46.502 L58.507,48.090 L57.353,49.678 L58.507,48.090 L57.353,49.678 L56.200,51.266 L57.353,49.678 L56.200,51.266 L55.046,52.854 L56.200,51.266 L55.046,52.854 L53.892,54.442 L55.046,52.854 L53.892,54.442 L52.738,56.031 L53.892,54.442 L52.738,56.031 L51.584,57.619 L52.738,56.031 L51.584,57.619 L50.431,59.207 L51.584,57.619 L50.431,59.207 L50.431,57.278 L50.431,59.207 L50.431,57.278 L50.431,55.350 L50.431,57.278 L50.431,55.350 L50.431,53.421 L50.431,55.350 L50.431,53.421 L50.431,51.493 L50.431,53.421 L50.431,51.493 L50.431,49.564 L50.431,51.493 L50.431,49.564 L50.431,47.636 L50.431,49.564 L50.431,47.636 L50.431,45.707 L50.431,47.636 L50.431,45.707 L50.431,43.778 L50.431,45.707 L50.431,43.778 L50.431,41.850 L50.431,43.778 L50.431,41.850 L50.431,39.921 L50.431,41.850 L50.431,39.921 L50.431,37.993 L50.431,39.921 L50.431,37.993 L50.431,36.064 L50.431,37.993 L50.431,36.064 L50.431,34.136 L50.431,36.064 L50.431,34.136 L50.431,32.207 L50.431,34.136 L50.431,32.207 L50.431,30.279 L50.431,32.207 L50.431,30.279 L50.431,28.350 L50.431,30.279 L50.431,28.350 L50.431,26.422 L50.431,28.350 L50.431,26.422 L50.431,24.493 L50.431,26.422 L50.431,24.493 L50.431,22.565 L50.431,24.493 L50.431,22.565 L51.601,24.176 L50.431,22.565 L51.601,24.176 L52.772,25.787 L51.601,24.176 L52.772,25.787 L53.942,27.398 L52.772,25.787 L53.942,27.398 L55.113,29.009 L53.942,27.398 L55.113,29.009 L56.283,30.620 L55.113,29.009 L56.283,30.620 L57.454,32.231 L56.283,30.620 L57.454,32.231 L58.624,33.842 L57.454,32.231 L58.624,33.842 L59.795,35.453 L58.624,33.842 L59.795,35.453 L60.965,37.064 L59.795,35.453 L60.965,37.064 L62.136,38.676 L60.965,37.064 L62.136,38.676 L63.306,40.287 L62.136,38.676 L63.306,40.287 L64.477,41.898 L63.306,40.287 L64.477,41.898 L65.647,43.509 L64.477,41.898 L65.647,43.509 L66.818,45.120 L65.647,43.509 L66.818,45.120 L67.988,46.731 L66.818,45.120 L67.988,46.731 L69.159,48.342 L67.988,46.731 L69.159,48.342 L70.329,49.953 L69.159,48.342 L70.329,49.953 L71.500,51.564 L70.329,49.953 L71.500,51.564 L72.671,53.175 L71.500,51.564 L72.671,53.175 L73.841,54.786 L72.671,53.175 L73.841,54.786 L75.012,56.397 L73.841,54.786 L75.012,56.397 L76.182,58.009 L75.012,56.397 L76.182,58.009 L77.353,59.620 L76.182,58.009 L77.353,59.620 L75.486,59.013 L77.353,59.620 L75.486,59.013 L73.619,58.406 L75.486,59.013 L73.619,58.406 L71.752,57.800 L73.619,58.406 L71.752,57.800 L69.885,57.193 L71.752,57.800 L69.885,57.193 L68.018,56.587 L69.885,57.193 L68.018,56.587 L66.151,55.980 L68.018,56.587 L66.151,55.980 L64.284,55.374 L66.151,55.980 L64.284,55.374 L62.417,54.767 L64.284,55.374 L62.417,54.767 L60.551,54.160 L62.417,54.767 L60.551,54.160 L58.684,53.554 L60.551,54.160 L58.684,53.554 L56.817,52.947 L58.684,53.554 L56.817,52.947 L54.950,52.341 L56.817,52.947 L54.950,52.341 L53.083,51.734 L54.950,52.341 L53.083,51.734 L51.216,51.127 L53.083,51.734 L51.216,51.127 L49.349,50.521 L51.216,51.127 L49.349,50.521 L47.482,49.914 L49.349,50.521 L47.482,49.914 L45.616,49.308 L47.482,49.914 L45.616,49.308 L43.749,48.701 L45.616,49.308 L43.749,48.701 L41.882,48.094 L43.749,48.701 L41.882,48.094 L40.015,47.488 L41.882,48.094 L40.015,47.488 L38.148,46.881 L40.015,47.488 L38.148,46.881 L36.281,46.275 L38.148,46.881 L36.281,46.275 L34.414,45.668 L36.281,46.275 L34.414,45.668 L32.547,45.062 L34.414,45.668 L32.547,45.062 L30.680,44.455 L32.547,45.062 L30.680,44.455 L28.814,43.848 L30.680,44.455 L28.814,43.848 L26.947,43.242 L28.814,43.848 L26.947,43.242 L25.080,42.635 L26.947,43.242 L25.080,42.635 L26.822,42.069 L25.080,42.635 L26.822,42.069 L28.565,41.503 L26.822,42.069 L28.565,41.503 L30.307,40.937 L28.565,41.503 L30.307,40.937 L32.049,40.371 L30.307,40.937 L32.049,40.371 L33.792,39.804 L32.049,40.371 L33.792,39.804 L32.715,41.287 L33.792,39.804 L32.715,41.287 L31.638,42.769 L32.715,41.287 L31.638,42.769 L30.561,44.251 L31.638,42.769 L30.561,44.251 L29.484,45.733 L30.561,44.251 L29.484,45.733 L28.407,47.215 L29.484,45.733 L28.407,47.215 L27.331,48.698 L28.407,47.215 L27.331,48.698 L26.254,50.180 L27.331,48.698 L26.254,50.180 L25.177,51.662 L26.254,50.180 L25.177,51.662 L24.100,53.144 L25.177,51.662 L24.100,53.144 L23.023,54.626 L24.100,53.144 L23.023,54.626 L23.023,52.663 L23.023,54.626 L23.023,52.663 L23.023,50.700 L23.023,52.663 L23.023,50.700 L23.023,48.738 L23.023,50.700 L23.023,48.738 L23.023,46.775 L23.023,48.738 L23.023,46.775 L23.023,44.812 L23.023,46.775 L23.023,44.812 L23.023,42.849 L23.023,44.812 L23.023,42.849 L23.023,40.886 L23.023,42.849 L23.023,40.886 L23.023,38.923 L23.023,40.886 L23.023,38.923 L23.023,36.960 L23.023,38.923 L23.023,36.960 L23.023,34.997 L23.023,36.960 L23.023,34.997 L23.023,33.034 L23.023,34.997 L23.023,33.034 L23.023,31.071 L23.023,33.034 L23.023,31.071 L23.023,29.108 L23.023,31.071 L23.023,29.108 L23.023,27.145 L23.023,29.108 L23.023,27.145 L24.157,28.705 L23.023,27.145 L24.157,28.705 L25.290,30.265 L24.157,28.705 L25.290,30.265 L26.424,31.826 L25.290,30.265 L26.424,31.826 L27.557,33.386 L26.424,31.826 L27.557,33.386 L28.691,34.946 L27.557,33.386 L28.691,34.946 L29.824,36.506 L28.691,34.946 L29.824,36.506 L30.958,38.066 L29.824,36.506 L30.958,38.066 L32.092,39.627 L30.958,38.066 L32.092,39.627 L33.225,41.187 L32.092,39.627 L33.225,41.187 L34.359,42.747 L33.225,41.187 L34.359,42.747 L35.492,44.307 L34.359,42.747 L35.492,44.307 L36.626,45.867 L35.492,44.307 L36.626,45.867 L37.759,47.428 L36.626,45.867 L37.759,47.428 L38.893,48.988 L37.759,47.428 L38.893,48.988 L40.026,50.548 L38.893,48.988 L40.026,50.548 L41.160,52.108 L40.026,50.548 L41.160,52.108 L42.294,53.668 L41.160,52.108 L42.294,53.668 L43.427,55.229 L42.294,53.668 L43.427,55.229 L44.561,56.789 L43.427,55.229 L44.561,56.789 L42.667,56.174 L44.561,56.789 L42.667,56.174 L40.773,55.558 L42.667,56.174 L40.773,55.558 L38.879,54.943 L40.773,55.558 L38.879,54.943 L36.985,54.327 L38.879,54.943 L36.985,54.327 L35.091,53.712 L36.985,54.327 L35.091,53.712 L33.197,53.097 L35.091,53.712 L33.197,53.097 L31.303,52.481 L33.197,53.097 L31.303,52.481 L29.409,51.866 L31.303,52.481 L29.409,51.866 L27.515,51.250 L29.409,51.866 L27.515,51.250 L25.621,50.635 L27.515,51.250 L25.621,50.635 L23.727,50.020 L25.621,50.635 L23.727,50.020 L21.833,49.404 L23.727,50.020 L21.833,49.404 L19.939,48.789 L21.833,49.404 L19.939,48.789 L18.045,48.174 L19.939,48.789 L18.045,48.174 L16.152,47.558 L18.045,48.174 L16.152,47.558 L14.258,46.943 L16.152,47.558 L14.258,46.943 L12.364,46.327 L14.258,46.943 L12.364,46.327 L10.470,45.712 L12.364,46.327 L10.470,45.712 L8.576,45.097 L10.470,45.712 L8.576,45.097 L6.682,44.481 L8.576,45.097 L6.682,44.481 L4.788,43.866 L6.682,44.481 L4.788,43.866 L2.894,43.251 L4.788,43.866 L2.894,43.251 L1.000,42.635 L2.894,43.251 L1.000,42.635 L2.867,42.029 L1.000,42.635 L2.867,42.029 L4.734,41.422 L2.867,42.029 L4.734,41.422 L6.601,40.815 L4.734,41.422 L6.601,40.815 L8.468,40.209 L6.601,40.815 L8.468,40.209 L10.334,39.602 L8.468,40.209 L10.334,39.602 L12.201,38.996 L10.334,39.602 L12.201,38.996 L14.068,38.389 L12.201,38.996 L14.068,38.389 L15.935,37.782 L14.068,38.389 L15.935,37.782 L17.802,37.176 L15.935,37.782 L17.802,37.176 L19.669,36.569 L17.802,37.176 L19.669,36.569 L21.536,35.963 L19.669,36.569 L21.536,35.963 L23.403,35.356 L21.536,35.963 L23.403,35.356 L25.270,34.750 L23.403,35.356 L25.270,34.750 L27.136,34.143 L25.270,34.750 L27.136,34.143 L29.003,33.536 L27.136,34.143 L29.003,33.536 L30.870,32.930 L29.003,33.536 L30.870,32.930 L32.737,32.323 L30.870,32.930 L32.737,32.323 L34.604,31.717 L32.737,32.323 L34.604,31.717 L36.471,31.110 L34.604,31.717 L36.471,31.110 L38.338,30.503 L36.471,31.110 L38.338,30.503 L40.205,29.897 L38.338,30.503 L40.205,29.897 L42.072,29.290 L40.205,29.897 L42.072,29.290 L43.938,28.684 L42.072,29.290 L43.938,28.684 L45.805,28.077 L43.938,28.684 L45.805,28.077 L47.672,27.470 L45.805,28.077 L47.672,27.470 L49.539,26.864 L47.672,27.470 L49.539,26.864 L51.406,26.257 L49.539,26.864 L51.406,26.257 L53.273,25.651 L51.406,26.257 L53.273,25.651 L52.196,27.133 L53.273,25.651 L52.196,27.133 L51.119,28.615 L52.196,27.133 L51.119,28.615 L50.042,30.097 L51.119,28.615 L50.042,30.097 L48.965,31.579 L50.042,30.097 L48.965,31.579 L47.888,33.062 L48.965,31.579 L47.888,33.062 L47.888,31.230 L47.888,33.062 L47.888,31.230 L47.888,29.398 L47.888,31.230 L47.888,29.398 L47.888,27.565 L47.888,29.398 L47.888,27.565 L47.888,25.733 L47.888,27.565 L47.888,25.733 L47.888,23.901 L47.888,25.733 L47.888,23.901 L47.888,22.069 L47.888,23.901 L47.888,22.069 L47.888,20.237 L47.888,22.069 L47.888,20.237 L47.888,18.405 L47.888,20.237 L47.888,18.405 L47.888,16.573 L47.888,18.405 L47.888,16.573 L47.888,14.741 L47.888,16.573 L47.888,14.741 L49.042,16.329 L47.888,14.741 L49.042,16.329 L50.196,17.917 L49.042,16.329 L50.196,17.917 L51.350,19.505 L50.196,17.917 L51.350,19.505 L52.504,21.093 L51.350,19.505 L52.504,21.093 L53.657,22.681 L52.504,21.093 L53.657,22.681 L54.811,24.269 L53.657,22.681 L54.811,24.269 L55.965,25.857 L54.811,24.269 L55.965,25.857 L57.119,27.445 L55.965,25.857 L57.119,27.445 L58.273,29.033 L57.119,27.445 L58.273,29.033 L59.426,30.621 L58.273,29.033 L59.426,30.621 L60.580,32.209 L59.426,30.621 L60.580,32.209 L61.734,33.798 L60.580,32.209 L61.734,33.798 L62.888,35.386 L61.734,33.798 L62.888,35.386 L64.042,36.974 L62.888,35.386 L64.042,36.974 L62.207,36.378 L64.042,36.974 L62.207,36.378 L60.373,35.782 L62.207,36.378 L60.373,35.782 L58.539,35.186 L60.373,35.782 L58.539,35.186 L56.705,34.590 L58.539,35.186 L56.705,34.590 L54.871,33.994 L56.705,34.590 L54.871,33.994 L53.037,33.398 L54.871,33.994 L53.037,33.398 L51.203,32.802 L53.037,33.398 L51.203,32.802 L49.369,32.206 L51.203,32.802 L49.369,32.206 L47.534,31.610 L49.369,32.206 L47.534,31.610 L45.700,31.014 L47.534,31.610 L45.700,31.014 L43.866,30.418 L45.700,31.014 L43.866,30.418 L42.032,29.822 L43.866,30.418 L42.032,29.822 L40.198,29.226 L42.032,29.822 L40.198,29.226 L38.364,28.630 L40.198,29.226 L38.364,28.630 L36.530,28.034 L38.364,28.630 L36.530,28.034 L34.695,27.439 L36.530,28.034 L34.695,27.439 L32.861,26.843 L34.695,27.439 L32.861,26.843 L31.027,26.247 L32.861,26.843 L31.027,26.247 L29.193,25.651 L31.027,26.247 L29.193,25.651 L31.087,25.035 L29.193,25.651 L31.087,25.035 L32.981,24.420 L31.087,25.035 L32.981,24.420 L34.875,23.805 L32.981,24.420 L34.875,23.805 L36.769,23.189 L34.875,23.805 L36.769,23.189 L38.663,22.574 L36.769,23.189 L38.663,22.574 L40.557,21.958 L38.663,22.574 L40.557,21.958 L42.451,21.343 L40.557,21.958 L42.451,21.343 L44.345,20.728 L42.451,21.343 L44.345,20.728 L46.239,20.112 L44.345,20.728 L46.239,20.112 L48.133,19.497 L46.239,20.112 L48.133,19.497 L50.026,18.882 L48.133,19.497 L50.026,18.882 L51.920,18.266 L50.026,18.882 L51.920,18.266 L53.814,17.651 L51.920,18.266 L53.814,17.651 L55.708,17.035 L53.814,17.651 L55.708,17.035 L57.602,16.420 L55.708,17.035 L57.602,16.420 L59.496,15.805 L57.602,16.420 L59.496,15.805 L61.390,15.189 L59.496,15.805 L61.390,15.189 L63.284,14.574 L61.390,15.189 L63.284,14.574 L65.178,13.958 L63.284,14.574 L65.178,13.958 L67.072,13.343 L65.178,13.958 L67.072,13.343 L68.966,12.728 L67.072,13.343 L68.966,12.728 L70.860,12.112 L68.966,12.728 L70.860,12.112 L72.754,11.497 L70.860,12.112 L72.754,11.497 L71.600,13.085 L72.754,11.497 L71.600,13.085 L70.446,14.673 L71.600,13.085 L70.446,14.673 L69.292,16.261 L70.446,14.673 L69.292,16.261 L68.139,17.849 L69.292,16.261 L68.139,17.849 L66.985,19.437 L68.139,17.849 L66.985,19.437 L65.831,21.025 L66.985,19.437 L65.831,21.025 L64.677,22.613 L65.831,21.025 L64.677,22.613 L63.523,24.202 L64.677,22.613 L63.523,24.202 L62.370,25.790 L63.523,24.202 L62.370,25.790 L61.216,27.378 L62.370,25.790 L61.216,27.378 L60.062,28.966 L61.216,27.378 L60.062,28.966 L58.908,30.554 L60.062,28.966 L58.908,30.554 L57.754,32.142 L58.908,30.554 L57.754,32.142 L56.601,33.730 L57.754,32.142 L56.601,33.730 L55.447,35.318 L56.601,33.730 L55.447,35.318 L54.293,36.906 L55.447,35.318 L54.293,36.906 L53.139,38.494 L54.293,36.906 L53.139,38.494 L51.985,40.082 L53.139,38.494 L51.985,40.082 L50.832,41.670 L51.985,40.082 L50.832,41.670 L49.678,43.258 L50.832,41.670 L49.678,43.258 L48.524,44.846 L49.678,43.258 L48.524,44.846 L47.370,46.434 L48.524,44.846 L47.370,46.434 L46.216,48.023 L47.370,46.434 L46.216,48.023 L45.063,49.611 L46.216,48.023 L45.063,49.611 L43.909,51.199 L45.063,49.611 L43.909,51.199 L42.755,52.787 L43.909,51.199 L42.755,52.787 L41.601,54.375 L42.755,52.787 L41.601,54.375 L40.447,55.963 L41.601,54.375 L40.447,55.963 L40.859,55.397 L40.447,55.963 L40.859,55.397 L40.447,55.963"/>
</svg>
