<svg xmlns="http://www.w3.org/2000/svg" viewBox="0 -0.002 73.999 73.999" width="256" height="256">
  <title>stained-glass</title>
  <rect x="0" y="-0.002" width="73.999" height="73.999" fill="#f5efe4"/>
  <path fill="none" stroke="#3a4e8c" stroke-width="0.4" stroke-linecap="round" stroke-linejoin="round" d="M2.046,36.188 L2.514,36.036 L3.512,35.712 L5.734,35.883 L4.362,36.329 L3.031,36.762 L1.701,37.194 L1.705,38.086 L3.832,37.395 L6.210,36.623 L7.956,36.055 L10.179,36.227 L8.057,36.916 L5.680,37.688 L3.302,38.461 L1.708,38.979 L1.712,39.871 L2.772,39.527 L5.150,38.754 L7.528,37.982 L9.905,37.209 L11.153,36.804 L12.401,36.398 L14.623,36.570 L14.131,36.730 L11.753,37.503 L9.375,38.275 L6.998,39.048 L4.620,39.820 L2.242,40.593 L1.716,40.764 L1.720,41.656 L4.090,40.886 L6.468,40.114 L8.845,39.341 L11.223,38.569 L13.601,37.796 L15.978,37.024 L16.845,36.742 L19.066,36.914 L17.826,37.317 L15.448,38.089 L13.071,38.862 L10.693,39.634 L8.316,40.407 L5.938,41.180 L3.560,41.952 L1.723,42.549 L1.727,43.441 L3.030,43.018 L5.408,42.245 L7.786,41.473 L10.163,40.700 L12.541,39.928 L14.919,39.155 L17.296,38.383 L19.674,37.610 L20.284,37.412 L20.383,38.274 L19.144,38.676 L16.766,39.449 L14.389,40.221 L12.011,40.994 L9.633,41.766 L7.256,42.539 L4.878,43.311 L2.500,44.084 L1.731,44.334 L1.735,45.226 L3.042,44.802 L4.348,44.377 L6.726,43.605 L9.104,42.832 L11.481,42.060 L13.859,41.287 L16.236,40.515 L18.614,39.742 L20.372,39.171 L20.249,40.105 L18.084,40.808 L15.707,41.581 L13.329,42.353 L10.951,43.126 L8.574,43.898 L6.196,44.671 L3.818,45.443 L1.741,46.118 L1.765,47.004 L3.288,46.509 L5.666,45.737 L8.044,44.964 L10.421,44.192 L12.799,43.419 L15.177,42.646 L17.554,41.874 L19.435,41.263 L18.621,42.421 L17.024,42.940 L14.647,43.712 L12.269,44.485 L9.892,45.257 L7.514,46.030 L5.136,46.803 L2.759,47.575 L1.791,47.890 L1.817,48.775 L2.229,48.641 L4.606,47.868 L6.984,47.096 L9.362,46.323 L11.739,45.551 L14.117,44.778 L16.495,44.006 L17.807,43.579 L16.993,44.738 L15.965,45.072 L13.587,45.844 L11.209,46.617 L8.832,47.389 L6.454,48.162 L4.076,48.934 L1.852,49.657 L1.891,50.538 L3.547,50.000 L5.924,49.228 L8.302,48.455 L10.680,47.683 L13.057,46.910 L15.435,46.138 L16.179,45.896 L15.365,47.054 L14.905,47.203 L12.527,47.976 L10.150,48.749 L7.772,49.521 L5.394,50.294 L3.017,51.066 L1.950,51.413 L2.009,52.287 L2.487,52.132 L4.864,51.360 L7.242,50.587 L9.620,49.814 L11.997,49.042 L13.274,48.627 L14.551,48.212 L13.737,49.370 L11.467,50.108 L9.090,50.880 L6.712,51.653 L4.335,52.425 L3.086,52.831 L4.809,52.718 L6.532,52.605 L8.560,51.946 L10.938,51.174 L12.923,50.529 L12.109,51.687 L10.408,52.240 L9.979,52.379"/>
  <path fill="none" stroke="#d9a441" stroke-width="0.4" stroke-linecap="round" stroke-linejoin="round" d="M2.854,16.590 L3.614,15.830 L4.497,16.149 L3.580,17.066 L2.663,17.984 L2.402,18.245 L2.222,19.627 L2.675,19.174 L4.442,17.406 L5.381,16.468 L6.264,16.787 L5.359,17.692 L4.454,18.596 L2.686,20.364 L2.076,20.974 L1.970,22.283 L2.698,21.555 L4.466,19.787 L6.234,18.019 L7.147,17.106 L8.031,17.424 L7.138,18.317 L6.246,19.209 L4.478,20.977 L2.710,22.745 L1.891,23.564 L1.829,24.828 L2.722,23.935 L4.490,22.167 L6.257,20.400 L8.025,18.632 L8.914,17.743 L9.797,18.062 L8.037,19.822 L6.269,21.590 L4.501,23.358 L2.734,25.125 L1.792,26.067 L1.754,27.307 L2.745,26.316 L4.513,24.548 L6.281,22.780 L8.049,21.012 L9.816,19.245 L10.680,18.381 L11.564,18.699 L9.828,20.435 L8.060,22.203 L6.293,23.970 L4.525,25.738 L2.757,27.506 L1.739,28.525 L1.731,29.734 L2.769,28.696 L4.537,26.929 L6.305,25.161 L8.072,23.393 L9.840,21.625 L11.608,19.857 L12.447,19.018 L13.330,19.337 L11.620,21.048 L9.852,22.816 L8.084,24.583 L6.316,26.351 L4.549,28.119 L2.781,29.887 L1.726,30.942 L1.721,32.149 L2.793,31.077 L4.560,29.309 L6.328,27.541 L8.096,25.774 L9.864,24.006 L11.631,22.238 L13.399,20.470 L14.214,19.656 L15.097,19.975 L13.411,21.661 L11.643,23.428 L9.875,25.196 L8.108,26.964 L6.340,28.732 L4.572,30.499 L2.804,32.267 L1.715,33.356 L2.380,33.894 L2.816,33.457 L4.584,31.690 L6.352,29.922 L8.119,28.154 L9.887,26.386 L11.655,24.619 L13.423,22.851 L15.190,21.083 L15.980,20.293 L16.864,20.612 L15.202,22.273 L13.435,24.041 L11.667,25.809 L9.899,27.577 L8.131,29.344 L6.363,31.112 L4.596,32.880 L3.193,34.283 L4.309,34.369 L4.607,34.070 L6.375,32.303 L8.143,30.535 L9.911,28.767 L11.679,26.999 L13.446,25.231 L15.214,23.464 L16.982,21.696 L17.747,20.931 L18.630,21.250 L16.994,22.886 L15.226,24.654 L13.458,26.422 L11.690,28.190 L9.923,29.957 L8.155,31.725 L6.387,33.493 L5.425,34.455 L6.541,34.541 L8.167,32.915 L9.934,31.148 L11.702,29.380 L13.470,27.612 L15.238,25.844 L17.005,24.077 L18.773,22.309 L19.306,21.776 L19.911,22.373 L18.785,23.499 L17.017,25.267 L15.249,27.035 L13.482,28.802 L11.714,30.570 L9.946,32.338 L8.178,34.106 L7.656,34.628 L8.772,34.714 L9.958,33.528 L11.726,31.760 L13.493,29.993 L15.261,28.225 L17.029,26.457 L18.797,24.689 L20.043,23.443 L20.166,24.523 L18.809,25.880 L17.041,27.647 L15.273,29.415 L13.505,31.183 L11.737,32.951 L10.813,33.875 L9.888,34.800 L11.004,34.887 L11.749,34.141 L13.517,32.373 L15.285,30.605 L17.053,28.838 L18.820,27.070 L20.288,25.602 L20.410,26.682 L18.832,28.260 L17.064,30.028 L15.297,31.796 L13.529,33.564 L12.119,34.973 L13.235,35.059 L13.541,34.754 L15.308,32.986 L17.076,31.218 L18.844,29.451 L20.532,27.762 L20.654,28.842 L19.755,29.741 L18.856,30.641 L17.088,32.409 L15.320,34.176 L14.351,35.145 L15.467,35.232 L17.100,33.599 L18.867,31.831 L19.822,30.877 L20.777,29.922 L20.899,31.002 L20.647,31.254 L18.879,33.021 L17.111,34.789 L16.583,35.318 L17.698,35.404 L18.891,34.212 L20.659,32.444 L21.021,32.082 L21.143,33.162 L20.671,33.634 L19.742,34.562 L18.814,35.491 L19.930,35.577 L20.682,34.825 L21.265,34.242"/>
  <path fill="none" stroke="#2b2b2b" stroke-width="0.4" stroke-linecap="round" stroke-linejoin="round" d="M2.567,56.747 L2.978,55.481 L3.389,54.216 L4.303,54.156 L3.969,55.183 L3.196,57.560 L2.919,58.414 L3.328,59.906 L3.747,58.616 L4.520,56.238 L5.216,54.096 L6.129,54.036 L5.843,54.916 L5.071,57.293 L4.298,59.671 L3.787,61.244 L4.292,62.441 L4.849,60.726 L5.622,58.348 L6.394,55.971 L7.042,53.976 L7.956,53.916 L7.718,54.648 L6.945,57.026 L6.172,59.404 L5.400,61.781 L4.837,63.515 L5.414,64.488 L5.951,62.836 L6.723,60.459 L7.496,58.081 L8.268,55.704 L8.869,53.856 L9.782,53.796 L9.592,54.381 L8.819,56.759 L8.047,59.136 L7.274,61.514 L6.502,63.892 L6.021,65.372 L6.666,66.136 L7.053,64.947 L7.825,62.569 L8.598,60.192 L9.370,57.814 L10.143,55.436 L10.690,53.752 L11.591,53.730 L11.466,54.114 L10.694,56.492 L9.921,58.869 L9.149,61.247 L8.376,63.624 L7.603,66.002 L7.330,66.844 L8.014,67.489 L8.154,67.057 L8.927,64.680 L9.699,62.302 L10.472,59.924 L11.245,57.547 L12.017,55.169 L12.292,54.323 L12.928,55.115 L12.568,56.224 L11.795,58.602 L11.023,60.980 L10.250,63.357 L9.478,65.735 L8.727,68.046 L9.450,68.571 L10.029,66.790 L10.801,64.412 L11.574,62.035 L12.346,59.657 L13.119,57.280 L13.565,55.907 L14.201,56.700 L13.670,58.335 L12.897,60.712 L12.125,63.090 L11.352,65.468 L10.580,67.845 L10.198,69.019 L10.958,69.431 L11.130,68.901 L11.903,66.523 L12.676,64.145 L13.448,61.768 L14.221,59.390 L14.837,57.492 L15.474,58.284 L14.771,60.445 L13.999,62.823 L13.226,65.200 L12.454,67.578 L11.731,69.803 L12.519,70.128 L13.005,68.633 L13.777,66.256 L14.550,63.878 L15.322,61.500 L15.716,60.288 L16.110,59.076 L16.747,59.868 L16.646,60.178 L15.873,62.556 L15.101,64.933 L14.328,67.311 L13.556,69.689 L13.313,70.435 L14.125,70.686 L14.879,68.366 L15.652,65.988 L16.424,63.611 L17.197,61.233 L17.383,60.660 L18.019,61.452 L17.748,62.288 L16.975,64.666 L16.202,67.044 L15.430,69.421 L14.942,70.924 L15.771,71.121 L15.981,70.477 L16.753,68.099 L17.526,65.721 L18.298,63.344 L18.656,62.244 L19.292,63.036 L18.849,64.399 L18.077,66.776 L17.304,69.154 L16.606,71.302 L17.449,71.460 L17.855,70.209 L18.375,68.610"/>
  <path fill="none" stroke="#8c4a6b" stroke-width="0.4" stroke-linecap="round" stroke-linejoin="round" d="M4.366,14.608 L3.992,12.247 L4.633,10.861 L4.902,12.554 L5.280,14.944 L6.193,15.274 L5.871,13.244 L5.480,10.775 L5.307,9.682 L6.006,8.661 L6.059,8.995 L6.450,11.465 L6.841,13.934 L7.106,15.603 L8.019,15.932 L7.811,14.624 L7.420,12.155 L7.029,9.686 L6.728,7.783 L7.470,7.033 L7.608,7.906 L7.999,10.376 L8.390,12.845 L8.781,15.314 L8.931,16.262 L9.844,16.591 L9.751,16.004 L9.360,13.535 L8.969,11.066 L8.578,8.597 L8.223,6.357 L8.988,5.755 L9.157,6.817 L9.352,8.052 L9.548,9.287 L9.939,11.756 L10.330,14.225 L10.543,15.573 L10.757,16.920 L11.670,17.250 L11.300,14.915 L10.909,12.446 L10.518,9.977 L10.127,7.507 L9.769,5.248 L10.555,4.778 L10.705,5.728 L11.096,8.198 L11.488,10.667 L11.879,13.136 L12.270,15.605 L12.582,17.579 L13.495,17.909 L13.240,16.295 L12.848,13.826 L12.457,11.357 L12.066,8.888 L11.871,7.653 L11.675,6.418 L11.352,4.377 L12.156,4.021 L12.254,4.639 L12.645,7.109 L13.036,9.578 L13.427,12.047 L13.818,14.516 L14.209,16.985 L14.408,18.238 L15.321,18.567 L15.179,17.676 L14.788,15.206 L14.397,12.737 L14.006,10.268 L13.615,7.799 L13.224,5.329 L12.965,3.697 L13.783,3.427 L13.989,4.724 L14.194,6.020 L14.389,7.254 L14.585,8.489 L14.976,10.958 L15.367,13.427 L15.758,15.896 L16.149,18.366 L16.233,18.897 L17.146,19.226 L16.937,17.906 L16.728,16.587 L16.337,14.117 L15.946,11.648 L15.555,9.179 L15.164,6.710 L14.773,4.240 L14.604,3.173 L15.431,2.965 L15.743,4.931 L16.134,7.400 L16.525,9.869 L16.916,12.338 L17.307,14.807 L17.698,17.277 L18.059,19.555 L18.972,19.885 L18.668,17.967 L18.277,15.498 L17.886,13.028 L17.495,10.559 L17.104,8.090 L16.908,6.855 L16.712,5.621 L16.321,3.151 L16.261,2.772 L17.095,2.605 L17.291,3.842 L17.682,6.311 L18.073,8.780 L18.465,11.249 L18.856,13.718 L19.247,16.188 L19.638,18.657 L19.884,20.214 L20.697,19.910 L20.608,19.347 L20.217,16.878 L19.825,14.409 L19.434,11.939 L19.043,9.470 L18.652,7.001 L18.261,4.532 L17.933,2.457 L18.772,2.322 L18.840,2.753 L19.231,5.222 L19.427,6.456 L19.622,7.691 L20.013,10.160 L20.404,12.629 L20.795,15.099 L21.186,17.568 L21.430,19.103 L22.162,18.295 L21.964,17.042 L21.765,15.789 L21.374,13.320 L20.983,10.850 L20.592,8.381 L20.201,5.912 L19.810,3.443 L19.616,2.220 L20.462,2.126 L20.780,4.133 L21.171,6.602 L21.562,9.071 L21.953,11.540 L22.344,14.010 L22.735,16.479 L22.895,17.488 L23.628,16.680 L23.314,14.700 L22.923,12.231 L22.532,9.761 L22.141,7.292 L21.945,6.057 L21.750,4.823 L21.359,2.354 L21.310,2.049 L22.160,1.978 L22.328,3.044 L22.720,5.513 L23.111,7.982 L23.502,10.451 L23.893,12.921 L24.284,15.390 L24.360,15.873 L25.093,15.065 L24.863,13.611 L24.472,11.142 L24.081,8.672 L23.689,6.203 L23.298,3.734 L23.011,1.921 L23.864,1.874 L24.066,3.149 L24.268,4.424 L24.464,5.659 L24.659,6.893 L25.050,9.362 L25.442,11.832 L25.826,14.258 L26.559,13.451 L26.411,12.522 L26.020,10.052 L25.629,7.583 L25.238,5.114 L24.847,2.645 L24.719,1.836 L25.660,2.343 L25.817,3.335 L26.208,5.804 L26.450,7.330"/>
  <path fill="none" stroke="#3a4e8c" stroke-width="0.4" stroke-linecap="round" stroke-linejoin="round" d="M20.080,42.780 L20.439,42.663 L22.319,42.052 L22.949,42.741 L22.287,42.956 L19.909,43.729 L19.266,43.938 L18.452,45.096 L19.380,44.795 L21.757,44.022 L23.579,43.430 L24.210,44.119 L23.605,44.316 L21.227,45.088 L18.850,45.861 L17.638,46.254 L16.824,47.413 L18.320,46.927 L20.697,46.154 L23.075,45.382 L24.840,44.808 L25.470,45.497 L24.923,45.675 L22.545,46.447 L20.168,47.220 L17.790,47.992 L16.010,48.571 L15.196,49.729 L17.260,49.058 L19.638,48.286 L22.015,47.513 L24.393,46.741 L26.100,46.186 L26.730,46.875 L26.241,47.034 L23.863,47.807 L21.485,48.579 L19.108,49.352 L16.730,50.124 L14.382,50.887 L13.570,52.045 L14.885,51.618 L16.200,51.190 L18.578,50.418 L20.956,49.645 L23.333,48.873 L25.711,48.100 L27.361,47.564 L27.991,48.253 L27.559,48.393 L25.181,49.166 L22.803,49.939 L20.426,50.711 L18.048,51.484 L15.670,52.256 L13.501,52.961 L13.668,53.800 L15.141,53.322 L17.518,52.550 L19.896,51.777 L22.273,51.004 L24.651,50.232 L27.029,49.459 L28.621,48.942 L29.251,49.631 L28.876,49.753 L26.499,50.525 L24.121,51.298 L21.744,52.070 L19.366,52.843 L16.988,53.615 L14.611,54.388 L14.238,54.509 L14.807,55.218 L16.458,54.681 L18.836,53.909 L21.214,53.136 L23.591,52.364 L25.969,51.591 L28.347,50.819 L29.882,50.320 L30.512,51.009 L30.194,51.112 L27.817,51.885 L25.439,52.657 L23.061,53.430 L20.684,54.202 L18.306,54.975 L15.929,55.747 L15.376,55.927 L15.946,56.635 L17.776,56.041 L20.154,55.268 L22.532,54.496 L24.909,53.723 L27.287,52.950 L29.664,52.178 L31.142,51.698 L31.772,52.387 L30.453,52.815 L29.135,53.244 L26.757,54.016 L24.379,54.789 L22.002,55.561 L19.624,56.334 L17.246,57.107 L16.515,57.344 L17.084,58.053 L19.094,57.400 L21.472,56.627 L23.849,55.855 L26.227,55.082 L28.605,54.310 L30.982,53.537 L32.402,53.076 L32.130,54.058 L30.452,54.603 L28.075,55.376 L25.697,56.148 L23.320,56.921 L20.942,57.693 L18.564,58.466 L17.654,58.762 L18.223,59.470 L20.412,58.759 L22.790,57.987 L25.167,57.214 L27.545,56.442 L29.482,55.812 M26.835,57.566 L24.637,58.280 L22.260,59.053 L19.882,59.825 L18.793,60.179 L19.362,60.888 L21.730,60.118 L22.959,59.719 L24.187,59.320 M21.540,61.074 L21.200,61.184 L19.931,61.597"/>
  <path fill="none" stroke="#d9a441" stroke-width="0.4" stroke-linecap="round" stroke-linejoin="round" d="M20.453,64.793 L20.821,64.426 L22.588,62.658 L23.474,61.772 L24.359,60.887 M27.921,58.527 L27.028,59.420 L26.136,60.312 L24.368,62.080 L22.600,63.848 L20.832,65.616 L20.203,66.245 L19.953,67.697 L20.844,66.806 L22.612,65.038 L24.380,63.271 L26.147,61.503 L27.915,59.735 L29.683,57.967 L30.583,57.068 L31.482,56.168 L32.807,55.445 L34.131,54.721 L33.230,55.622 L31.462,57.390 L29.695,59.158 L27.927,60.925 L26.159,62.693 L24.391,64.461 L22.624,66.229 L20.856,67.996 L19.703,69.149 L19.453,70.601 L20.868,69.187 L22.635,67.419 L24.403,65.651 L26.171,63.883 L27.939,62.116 L29.706,60.348 L31.474,58.580 L33.242,56.812 L35.010,55.045 L35.367,54.687 L36.380,54.876 L35.022,56.235 L33.254,58.003 L31.486,59.770 L29.718,61.538 L27.951,63.306 L26.183,65.074 L24.415,66.841 L22.647,68.609 L20.879,70.377 L19.937,71.319 L20.575,71.884 L20.891,71.567 L22.659,69.800 L24.427,68.032 L26.195,66.264 L27.962,64.496 L29.730,62.728 L31.498,60.961 L33.266,59.193 L35.033,57.425 L36.801,55.657 L37.393,55.065 L38.406,55.255 L36.813,56.848 L35.045,58.615 L33.277,60.383 L31.510,62.151 L29.742,63.919 L27.974,65.687 L26.206,67.454 L24.439,69.222 L22.671,70.990 L21.676,71.985 L22.798,72.065 L24.450,70.412 L26.218,68.645 L27.986,66.877 L29.754,65.109 L31.521,63.341 L33.289,61.574 L35.057,59.806 L36.825,58.038 L38.592,56.270 L39.391,55.471 L40.323,55.741 L38.604,57.460 L36.836,59.228 L35.069,60.996 L33.301,62.764 L31.533,64.532 L29.765,66.299 L27.998,68.067 L26.230,69.835 L24.462,71.603 L23.936,72.129 L25.088,72.178 L26.242,71.025 L28.009,69.257 L29.777,67.490 L31.545,65.722 L33.313,63.954 L35.081,62.186 L36.848,60.419 L38.616,58.651 L39.585,57.682 L40.553,56.714 L40.602,57.867 L39.615,58.854 L38.628,59.841 L36.860,61.609 L35.092,63.377 L33.325,65.144 L31.557,66.912 L29.789,68.680 L28.021,70.448 L26.255,72.214 L27.423,72.248 L28.033,71.638 L29.801,69.870 L31.569,68.102 L33.336,66.335 L35.104,64.567 L36.872,62.799 L38.640,61.031 L40.407,59.264 L40.651,59.020 L40.700,60.173 L40.419,60.454 L38.651,62.222 L36.884,63.989 L35.116,65.757 L33.348,67.525 L31.580,69.293 L29.813,71.061 L28.609,72.264 L29.806,72.269 L30.699,71.376 L31.592,70.483 L33.360,68.715 L35.128,66.948 L36.895,65.180 L38.663,63.412 L40.431,61.644 L40.749,61.327 L40.798,62.480 L40.443,62.835 L38.675,64.602 L36.907,66.370 L35.139,68.138 L33.372,69.906 L31.604,71.673 L31.003,72.274 L32.200,72.279 L33.383,71.096 L35.151,69.328 L36.919,67.560 L38.687,65.793 L40.455,64.025 L40.846,63.633 L40.895,64.786 L40.466,65.215 L38.699,66.983 L36.931,68.751 L35.163,70.518 L33.397,72.284 L34.594,72.289 L35.175,71.709 L36.943,69.941 L38.710,68.173 L40.478,66.405 L40.944,65.939 L40.993,67.093 L40.490,67.596 L38.722,69.363 L36.954,71.131 L35.792,72.294 L36.989,72.299 L38.734,70.554 L40.502,68.786 L41.042,68.246 L41.091,69.399 L40.513,69.976 L38.746,71.744 L38.196,72.294 L39.403,72.289 L40.525,71.167 L41.140,70.552 L41.188,71.705 L40.609,72.284"/>
  <path fill="none" stroke="#2b2b2b" stroke-width="0.4" stroke-linecap="round" stroke-linejoin="round" d="M46.361,30.086 L45.891,30.157 L46.201,29.203 L44.951,30.298 L45.570,28.394 L45.881,27.438 L45.561,25.672 L45.019,27.339 L44.247,29.716 L44.012,30.440 L43.072,30.581 L43.696,28.661 L44.468,26.283 L45.241,23.906 L44.856,22.339 L44.690,22.851 L43.918,25.228 L43.145,27.606 L42.372,29.983 L42.132,30.723 L41.192,30.865 L41.822,28.928 L42.594,26.551 L43.367,24.173 L44.139,21.795 L44.301,21.297 L43.516,20.963 L42.816,23.118 L42.043,25.495 L41.271,27.873 L40.498,30.251 L40.253,31.006 L39.313,31.148 L39.947,29.195 L40.720,26.818 L41.492,24.440 L42.265,22.063 L42.731,20.628 L41.946,20.293 L41.714,21.007 L40.941,23.385 L40.169,25.763 L39.396,28.140 L39.010,29.329 L38.624,30.518 L38.373,31.289 L37.433,31.431 L38.073,29.463 L38.845,27.085 L39.618,24.707 L40.391,22.330 L41.161,19.959 L40.376,19.624 L39.840,21.275 L39.067,23.652 L38.295,26.030 L37.522,28.407 L36.749,30.785 L36.494,31.572 L35.554,31.714 L36.199,29.730 L36.585,28.541 L36.971,27.352 L37.744,24.975 L38.516,22.597 L39.289,20.219 L39.591,19.290 L38.806,18.955 L38.386,20.248 L37.965,21.542 L37.193,23.919 L36.420,26.297 L35.648,28.675 L34.875,31.052 L34.614,31.856 L33.674,31.997 L34.324,29.997 L35.097,27.619 L35.869,25.242 L36.642,22.864 L37.414,20.487 L38.021,18.620 L37.236,18.286 L36.864,19.431 L36.091,21.809 L35.318,24.187 L34.546,26.564 L34.160,27.753 L33.773,28.942 L33.001,31.320 L32.735,32.139 L31.795,32.280 L32.450,30.264 L33.223,27.887 L33.995,25.509 L34.768,23.131 L35.540,20.754 L36.313,18.376 L36.451,17.951 L35.666,17.617 L34.989,19.699 L34.217,22.076 L33.444,24.454 L32.672,26.831 L31.899,29.209 L31.513,30.398 L31.127,31.587 L30.855,32.422 L29.915,32.563 L30.576,30.532 L31.348,28.154 L31.734,26.965 L32.121,25.776 L32.893,23.399 L33.666,21.021 L34.438,18.643 L34.881,17.282 L34.096,16.947 L33.887,17.588 L33.115,19.966 L32.342,22.343 L31.570,24.721 L30.797,27.099 L30.025,29.476 L29.252,31.854 L28.976,32.705 L28.036,32.847 L28.701,30.799 L29.088,29.610 L29.474,28.421 L30.246,26.043 L31.019,23.666 L31.792,21.288 L32.564,18.911 L33.311,16.613 L32.526,16.278 L32.013,17.855 L31.241,20.233 L30.468,22.611 L29.696,24.988 L29.309,26.177 L28.923,27.366 L28.150,29.744 L27.378,32.121 L27.096,32.988 L26.156,33.130 L26.827,31.066 L27.600,28.688 L28.372,26.311 L29.145,23.933 L29.917,21.555 L30.690,19.178 L31.462,16.800 L31.741,15.943 L30.956,15.609 L30.547,16.866 L30.139,18.123 L29.366,20.500 L28.594,22.878 L27.821,25.255 L27.049,27.633 L26.662,28.822 L26.276,30.011 L25.504,32.388 L25.217,33.271 L24.277,33.413 L24.953,31.333 L25.725,28.956 L26.498,26.578 L26.884,25.389 L27.270,24.200 L28.043,21.823 L28.815,19.445 L29.588,17.067 L30.171,15.274 L29.386,14.940 L29.037,16.012 L28.265,18.390 L27.492,20.767 L26.719,23.145 L25.947,25.523 L25.174,27.900 L24.402,30.278 L23.629,32.656 L23.337,33.554 L22.558,33.203 L23.078,31.600 L23.851,29.223 L24.237,28.034 L24.624,26.845 L25.396,24.467 L26.169,22.090 L26.941,19.712 L27.714,17.335 L28.100,16.146 L28.486,14.957 L28.601,14.605 L27.797,14.327 L27.163,16.279 L26.390,18.657 L25.618,21.035 L24.845,23.412 L24.459,24.601 L24.073,25.790 L23.300,28.168 L22.528,30.545 L22.327,31.163 L22.096,29.122 L22.749,27.112 L23.522,24.735 L24.294,22.357 L25.067,19.979 L25.839,17.602 L26.486,15.613 L25.093,17.148 L24.516,18.924 L23.743,21.302 L22.971,23.679 L22.198,26.057 L21.865,27.082 L21.635,25.042 L22.027,23.833 L22.420,22.624 L23.193,20.247 L23.701,18.682 L22.309,20.217 L21.869,21.569 L21.404,23.001"/>
  <path fill="none" stroke="#8c4a6b" stroke-width="0.4" stroke-linecap="round" stroke-linejoin="round" d="M22.568,40.249 L22.419,39.309 L22.028,36.840 L21.924,36.185 L22.657,35.379 L22.998,37.530 L23.389,40.000 L23.608,41.387 L24.649,42.525 L24.359,40.690 L23.967,38.220 L23.576,35.751 L23.450,34.953 L24.291,34.826 L24.546,36.441 L24.937,38.911 L25.328,41.380 L25.690,43.663 L26.731,44.801 L26.515,43.435 L26.298,42.070 L25.907,39.601 L25.516,37.131 L25.131,34.700 L25.972,34.573 L26.095,35.352 L26.486,37.822 L26.877,40.291 L27.268,42.760 L27.659,45.229 L27.772,45.939 L28.813,47.077 L28.629,45.919 L28.238,43.450 L27.847,40.981 L27.456,38.512 L27.065,36.042 L26.812,34.446 L27.653,34.320 L28.035,36.732 L28.426,39.202 L28.817,41.671 L29.208,44.140 L29.599,46.609 L29.853,48.215 L30.894,49.353 L30.569,47.299 L30.178,44.830 L29.787,42.361 L29.396,39.892 L29.005,37.423 L28.614,34.953 L28.493,34.193 L29.334,34.067 L29.584,35.643 L29.975,38.113 L30.366,40.582 L30.757,43.051 L31.148,45.520 L31.539,47.990 L31.737,49.240 L31.935,50.491 L32.976,51.629 L32.900,51.149 L32.509,48.680 L32.118,46.210 L31.727,43.741 L31.336,41.272 L30.944,38.803 L30.553,36.334 L30.174,33.940 L31.015,33.813 L31.132,34.554 L31.523,37.024 L31.914,39.493 L32.305,41.962 L32.697,44.431 L33.088,46.901 L33.479,49.370 L33.870,51.839 L33.987,52.578 L34.944,53.185 L34.840,52.529 L34.449,50.060 L34.058,47.591 L33.666,45.121 L33.275,42.652 L32.884,40.183 L32.493,37.714 L32.102,35.245 L31.855,33.687 L32.696,33.560 L33.072,35.935 L33.463,38.404 L33.854,40.873 L34.245,43.342 L34.636,45.812 L35.027,48.281 L35.419,50.750 L35.624,52.050 L35.830,53.350 L36.717,53.516 L36.388,51.440 L35.997,48.971 L35.606,46.502 L35.215,44.032 L34.824,41.563 L34.433,39.094 L34.042,36.625 L33.651,34.156 L33.536,33.433 L34.377,33.307 L34.621,34.846 L35.012,37.315 L35.403,39.784 L35.794,42.253 L36.185,44.723 L36.576,47.192 L36.967,49.661 L37.358,52.130 L37.604,53.681 L38.491,53.847 L38.328,52.820 L37.937,50.351 L37.546,47.882 L37.155,45.413 L36.764,42.943 L36.373,40.474 L35.982,38.005 L35.591,35.536 L35.218,33.180 L36.058,33.054 L36.169,33.757 L36.561,36.226 L36.952,38.695 L37.343,41.164 L37.734,43.634 L38.125,46.103 L38.516,48.572 L38.907,51.041 L39.298,53.510 L39.378,54.013 L40.265,54.178 L39.877,51.731 L39.486,49.262 L39.095,46.793 L38.704,44.324 L38.313,41.854 L37.922,39.385 L37.530,36.916 L37.139,34.447 L36.899,32.927 L37.739,32.800 L38.109,35.137 L38.500,37.606 L38.891,40.075 L39.282,42.545 L39.674,45.014 L40.065,47.483 L40.456,49.952 L40.847,52.421 L41.129,54.201 L41.890,53.573 L41.817,53.112 L41.426,50.642 L41.035,48.173 L40.643,45.704 L40.252,43.235 L39.861,40.765 L39.470,38.296 L39.079,35.827 L38.688,33.358 L38.580,32.674 L39.420,32.547 L39.658,34.048 L40.049,36.517 L40.440,38.986 L40.831,41.456 L41.222,43.925 L41.613,46.394 L42.004,48.863 L42.396,51.332 L42.651,52.946 L43.412,52.319 L43.365,52.023 L42.974,49.553 L42.583,47.084 L42.192,44.615 L41.801,42.146 L41.410,39.676 L41.019,37.207 L40.628,34.738 L40.261,32.421 L41.101,32.294 L41.207,32.959 L41.598,35.428 L41.989,37.897 L42.380,40.367 L42.771,42.836 L43.162,45.305 L43.553,47.774 L43.944,50.243 L44.029,50.777 L44.512,48.395 L44.132,45.995 L43.741,43.526 L43.350,41.057 L42.959,38.587 L42.568,36.118 L42.177,33.649 L41.942,32.167 L42.782,32.041 L43.146,34.339 L43.538,36.808 L43.929,39.277 L44.320,41.747 L44.711,44.216 L44.995,46.012 L45.479,43.630 L45.290,42.437 L44.899,39.968 L44.507,37.498 L44.116,35.029 L43.725,32.560 L43.623,31.914 L44.463,31.787 L44.695,33.250 L45.086,35.719 L45.477,38.188 L45.868,40.658 L45.962,41.247 L46.445,38.864 L46.056,36.409 L45.665,33.940 L45.304,31.661 L46.154,31.595 L46.244,32.161 L46.635,34.630 L46.928,36.482 L47.411,34.099 L47.214,32.851 L47.008,31.551"/>
  <path fill="none" stroke="#3a4e8c" stroke-width="0.4" stroke-linecap="round" stroke-linejoin="round" d="M27.567,3.022 L29.283,2.464 L31.562,1.723 L32.956,1.718 L34.349,1.712 L33.509,1.985 L31.131,2.757 L28.754,3.530 L27.625,3.897 L27.683,4.772 L28.224,4.596 L30.601,3.823 L32.979,3.051 L34.168,2.664 L35.357,2.278 L37.124,1.704 L38.486,1.708 L39.847,1.713 L38.526,2.142 L37.204,2.572 L34.827,3.344 L32.449,4.117 L31.260,4.503 L30.071,4.889 L27.740,5.647 L27.798,6.522 L29.541,5.955 L31.919,5.183 L34.297,4.410 L36.674,3.637 L39.052,2.865 L41.430,2.092 L42.564,1.724 L43.920,1.730 L45.276,1.736 L43.277,2.386 L40.900,3.158 L38.522,3.931 L36.145,4.703 L34.956,5.090 L33.767,5.476 L31.389,6.248 L29.012,7.021 L27.856,7.397 L27.914,8.271 L28.482,8.087 L30.859,7.314 L32.048,6.928 L33.237,6.542 L35.615,5.769 L37.992,4.997 L40.370,4.224 L42.748,3.452 L43.936,3.065 L45.125,2.679 L47.503,1.907 L47.863,1.790 L50.324,1.884 L49.351,2.200 L46.973,2.973 L44.595,3.745 L42.218,4.518 L39.840,5.290 L37.462,6.063 L35.085,6.835 L32.707,7.608 L30.329,8.380 L27.972,9.146 L28.029,10.021 L29.800,9.446 L32.177,8.674 L34.555,7.901 L35.744,7.515 L36.933,7.129 L39.310,6.356 L41.688,5.584 L44.065,4.811 L46.443,4.038 L48.821,3.266 L51.198,2.493 L52.621,2.031 L53.946,2.494 L53.046,2.787 L50.668,3.559 L48.291,4.332 L45.913,5.104 L44.724,5.491 L43.536,5.877 L41.158,6.649 L38.780,7.422 L36.403,8.195 L34.025,8.967 L32.836,9.353 L31.647,9.740 L29.270,10.512 L28.087,10.896 L28.145,11.771 L28.740,11.578 L31.117,10.806 L33.495,10.033 L35.873,9.260 L38.250,8.488 L40.628,7.715 L43.006,6.943 L45.383,6.170 L47.761,5.398 L50.139,4.625 L52.516,3.853 L53.410,3.562 L52.874,4.630 L51.986,4.919 L49.609,5.691 L47.231,6.464 L44.853,7.236 L42.476,8.009 L40.098,8.781 L37.721,9.554 L36.532,9.940 L35.343,10.326 L32.965,11.099 L30.588,11.871 L28.488,12.554 L29.036,13.269 L30.058,12.937 L32.435,12.165 L33.624,11.779 L34.813,11.392 L37.191,10.620 L39.568,9.847 L41.946,9.075 L44.324,8.302 L45.512,7.916 L46.701,7.530 L49.079,6.757 L51.456,5.984 L52.337,5.698 L51.801,6.766 L50.927,7.050 L48.549,7.823 L46.171,8.595 L43.794,9.368 L41.416,10.141 L39.038,10.913 L36.661,11.686 L34.283,12.458 L31.905,13.231 L30.226,13.777 L31.415,14.284 L33.753,13.524 L36.131,12.752 L37.320,12.365 L38.509,11.979 L40.886,11.206 L43.264,10.434 L45.641,9.661 L48.019,8.889 L50.397,8.116 L51.265,7.834 L50.729,8.902 L49.867,9.182 L47.489,9.955 L46.300,10.341 L45.112,10.727 L42.734,11.500 L40.356,12.272 L37.979,13.045 L35.601,13.817 L34.412,14.204 L33.223,14.590 L32.605,14.791 L33.795,15.298 L35.071,14.883 L37.449,14.111 L39.826,13.338 L42.204,12.566 L44.582,11.793 L46.959,11.021 L49.337,10.248 L50.192,9.970 L49.656,11.038 L48.807,11.314 L46.429,12.087 L44.052,12.859 L41.674,13.632 L39.297,14.404 L38.108,14.790 L36.919,15.177 L34.985,15.805 L36.175,16.312 L37.471,15.891 L38.767,15.470 L41.144,14.698 L43.522,13.925 L45.900,13.152 L47.088,12.766 L48.277,12.380 L49.120,12.106 L48.584,13.174 L47.747,13.446 L45.370,14.218 L42.992,14.991 L40.614,15.763 L38.237,16.536 L37.364,16.819 L38.554,17.327 L40.085,16.829 L42.462,16.057 L44.840,15.284 L47.217,14.512 L48.047,14.242 L47.511,15.310 L46.688,15.578 L44.310,16.350 L41.932,17.123 L39.744,17.834 L40.934,18.341 L41.402,18.189 L43.780,17.416 L46.158,16.644 L46.975,16.378 L46.439,17.446 L45.628,17.709 L43.250,18.482 L42.123,18.848 L43.313,19.355 L45.098,18.775 L45.902,18.514 L45.366,19.582 L44.503,19.862"/>
  <path fill="none" stroke="#d9a441" stroke-width="0.4" stroke-linecap="round" stroke-linejoin="round" d="M64.018,68.887 L64.684,68.220 L66.452,66.452 L68.220,64.684 L68.892,64.012 L69.471,62.832 L70.050,61.652 L69.129,62.573 L68.208,63.494 L66.440,65.262 L64.673,67.030 L62.905,68.797 L61.647,70.055 L59.794,70.707 L61.125,69.375 L62.893,67.607 L64.661,65.839 L66.429,64.072 L68.196,62.304 L69.964,60.536 L70.286,60.214 L69.784,59.514 L68.185,61.114 L66.417,62.881 L64.649,64.649 L62.881,66.417 L61.113,68.185 L59.346,69.952 L58.159,71.140 L56.647,71.449 L57.566,70.530 L59.334,68.762 L61.102,66.994 L62.869,65.227 L64.637,63.459 L66.405,61.691 L68.173,59.923 L68.823,59.273 L67.863,59.031 L66.393,60.501 L64.625,62.268 L62.858,64.036 L61.090,65.804 L59.322,67.572 L57.554,69.340 L55.787,71.107 L55.208,71.685 L53.852,71.840 L54.813,70.879 L55.775,69.917 L57.543,68.149 L59.310,66.381 L61.078,64.614 L62.846,62.846 L64.614,61.078 L66.381,59.310 L66.903,58.789 L65.943,58.547 L64.602,59.888 L62.834,61.656 L61.066,63.423 L59.299,65.191 L57.531,66.959 L55.763,68.727 L53.995,70.494 L52.523,71.967 L51.225,72.063 L52.216,71.072 L53.983,69.304 L55.751,67.536 L57.519,65.769 L59.287,64.001 L61.055,62.233 L62.822,60.465 L64.590,58.698 L64.983,58.305 L64.022,58.063 L62.811,59.275 L61.043,61.043 L59.275,62.811 L57.507,64.578 L55.739,66.346 L53.972,68.114 L52.204,69.882 L50.436,71.649 L49.952,72.134 L48.699,72.185 L50.424,70.459 L52.192,68.691 L53.960,66.924 L55.728,65.156 L57.495,63.388 L59.263,61.620 L61.031,59.853 L62.799,58.085 L63.062,57.821 L62.102,57.579 L61.019,58.662 L59.251,60.430 L57.484,62.198 L55.716,63.966 L53.948,65.733 L52.180,67.501 L50.413,69.269 L48.645,71.037 L47.459,72.222 L46.219,72.260 L46.865,71.614 L48.633,69.846 L50.401,68.079 L52.169,66.311 L53.936,64.543 L55.704,62.775 L57.472,61.007 L59.240,59.240 L60.191,58.289 L61.142,57.338 L60.182,57.096 L59.228,58.049 L57.460,59.817 L55.692,61.585 L53.925,63.353 L52.157,65.120 L50.389,66.888 L48.621,68.656 L46.853,70.424 L45.932,71.345 L45.011,72.266 L43.804,72.271 L45.074,71.001 L46.842,69.233 L48.609,67.466 L50.377,65.698 L52.145,63.930 L53.913,62.162 L55.681,60.395 L57.448,58.627 L58.335,57.740 L59.221,56.854 L58.261,56.612 L57.437,57.437 L55.669,59.204 L53.901,60.972 L52.133,62.740 L50.365,64.508 L48.598,66.275 L46.830,68.043 L45.062,69.811 L43.294,71.579 L42.612,72.261 L42.563,71.108 L43.283,70.388 L45.050,68.621 L46.818,66.853 L48.586,65.085 L50.354,63.317 L52.121,61.550 L53.889,59.782 L55.657,58.014 L57.301,56.370 L56.341,56.128 L55.645,56.824 L53.877,58.592 L52.110,60.359 L50.342,62.127 L48.574,63.895 L46.806,65.663 L45.039,67.430 L43.271,69.198 L42.515,69.954 L42.466,68.801 L43.259,68.008 L45.027,66.240 L46.795,64.472 L48.562,62.705 L50.330,60.937 L52.098,59.169 L53.866,57.401 L55.381,55.886 L54.420,55.644 L53.854,56.211 L52.086,57.979 L50.318,59.746 L48.551,61.514 L46.783,63.282 L45.015,65.050 L43.247,66.818 L42.417,67.648 L42.368,66.495 L43.235,65.627 L45.003,63.859 L46.771,62.092 L48.539,60.324 L50.307,58.556 L52.074,56.788 L53.460,55.403 L52.500,55.161 L52.063,55.598 L50.295,57.366 L48.527,59.134 L46.759,60.901 L44.991,62.669 L43.224,64.437 L42.319,65.342 L42.270,64.188 L43.212,63.247 L44.980,61.479 L46.747,59.711 L48.515,57.943 L50.283,56.176 L51.540,54.919 L50.579,54.677 L50.271,54.985 L48.503,56.753 L46.736,58.521 L44.968,60.289 L43.200,62.056 L42.221,63.035 L42.172,61.882 L43.188,60.866 L44.956,59.098 L46.724,57.331 L48.492,55.563 L49.619,54.435 L48.659,54.193 L47.686,55.167 L46.712,56.140 L44.944,57.908 L43.177,59.676 L42.124,60.729 L42.075,59.575 L43.165,58.485 L44.933,56.718 L46.700,54.950 L47.699,53.951 L46.739,53.710 L45.830,54.618 L44.921,55.527 L43.153,57.295 L42.026,58.422 L41.977,57.269 L43.141,56.105 L44.909,54.337 L45.778,53.468 L44.511,53.533 L43.129,54.915 L41.928,56.116"/>
  <path fill="none" stroke="#2b2b2b" stroke-width="0.4" stroke-linecap="round" stroke-linejoin="round" d="M46.456,22.763 L46.874,21.477 L47.292,20.191 L48.064,17.813 L48.511,16.438 M51.044,11.394 L50.933,11.736 L50.160,14.113 L49.388,16.491 L48.615,18.869 L47.843,21.246 L47.456,22.435 L47.070,23.624 L46.776,24.528 L47.096,26.294 L47.621,24.679 L48.394,22.301 L49.166,19.924 L49.939,17.546 L50.711,15.169 L51.484,12.791 L52.256,10.413 L53.029,8.036 L53.577,6.350 L54.600,4.577 L55.623,2.804 L55.125,4.336 L54.352,6.713 L53.580,9.091 L52.807,11.468 L52.035,13.846 L51.262,16.224 L50.490,18.601 L49.717,20.979 L48.945,23.357 L48.172,25.734 L47.416,28.060 L47.775,29.706 L47.950,29.167 L48.723,26.790 L49.495,24.412 L49.882,23.223 L50.268,22.034 L51.040,19.657 L51.813,17.279 L52.586,14.901 L53.358,12.524 L54.131,10.146 L54.903,7.768 L55.676,5.391 L56.448,3.013 L56.576,2.620 L57.440,2.711 L56.999,4.068 L56.227,6.446 L55.454,8.824 L54.682,11.201 L53.909,13.579 L53.136,15.957 L52.364,18.334 L51.591,20.712 L50.819,23.089 L50.046,25.467 L49.274,27.845 L48.501,30.222 L48.309,30.813 L49.013,31.397 L49.419,30.148 L49.825,28.900 L50.597,26.522 L51.370,24.145 L52.142,21.767 L52.915,19.389 L53.687,17.012 L54.460,14.634 L55.232,12.256 L56.005,9.879 L56.778,7.501 L57.550,5.124 L58.277,2.887 L59.100,3.104 L58.873,3.801 L58.101,6.179 L57.328,8.556 L56.556,10.934 L55.783,13.312 L55.011,15.689 L54.238,18.067 L53.466,20.445 L52.693,22.822 L52.307,24.011 L51.921,25.200 L51.148,27.578 L50.376,29.955 L49.851,31.568 L50.731,31.612 L50.926,31.010 L51.699,28.633 L52.471,26.255 L53.244,23.877 L54.017,21.500 L54.789,19.122 L55.562,16.745 L56.334,14.367 L57.107,11.989 L57.879,9.612 L58.652,7.234 L59.424,4.856 L59.919,3.333 L60.726,3.600 L59.975,5.912 L59.203,8.289 L58.430,10.667 L57.658,13.044 L56.885,15.422 L56.113,17.800 L55.340,20.177 L54.567,22.555 L53.795,24.933 L53.022,27.310 L52.250,29.688 L51.611,31.655 L52.490,31.699 L52.801,30.743 L53.573,28.366 L54.346,25.988 L54.732,24.799 L55.118,23.610 L55.891,21.233 L56.663,18.855 L57.436,16.477 L58.209,14.100 L58.981,11.722 L59.754,9.344 L60.526,6.967 L61.299,4.589 L61.524,3.896 L62.311,4.224 L61.850,5.644 L61.077,8.022 L60.304,10.400 L59.532,12.777 L58.759,15.155 L57.987,17.533 L57.214,19.910 L56.442,22.288 L55.669,24.665 L54.897,27.043 L54.124,29.421 L53.370,31.742 L54.249,31.786 L54.675,30.476 L55.448,28.098 L56.220,25.721 L56.993,23.343 L57.765,20.965 L58.538,18.588 L59.310,16.210 L60.083,13.832 L60.855,11.455 L61.628,9.077 L62.400,6.700 L63.082,4.603 L63.846,5.001 L63.724,5.377 L62.951,7.755 L62.179,10.132 L61.406,12.510 L60.634,14.888 L59.861,17.265 L59.089,19.643 L58.316,22.021 L57.544,24.398 L57.157,25.587 L56.771,26.776 L55.998,29.153 L55.226,31.531 L55.129,31.829 L56.009,31.873 L56.549,30.209 L57.322,27.831 L58.094,25.453 L58.867,23.076 L59.640,20.698 L60.412,18.321 L61.185,15.943 L61.957,13.565 L62.730,11.188 L63.502,8.810 L64.275,6.432 L64.584,5.481 L65.313,5.989 L64.826,7.488 L64.053,9.865 L63.281,12.243 L62.508,14.620 L61.735,16.998 L60.963,19.376 L60.190,21.753 L59.418,24.131 L58.645,26.509 L57.873,28.886 L57.100,31.264 L56.888,31.917 L57.768,31.960 L58.424,29.941 L59.196,27.564 L59.582,26.375 L59.969,25.186 L60.741,22.809 L61.514,20.431 L62.286,18.053 L63.059,15.676 L63.831,13.298 L64.604,10.920 L65.377,8.543 L66.020,6.563 L66.705,7.204 L66.316,8.401 L65.927,9.598 L65.155,11.976 L64.382,14.353 L63.610,16.731 L62.837,19.108 L62.065,21.486 L61.292,23.864 L60.520,26.241 L59.747,28.619 L58.975,30.997 L58.647,32.004 L59.527,32.047 L60.298,29.674 L61.071,27.297 L61.843,24.919 L62.616,22.541 L63.388,20.164 L64.161,17.786 L64.933,15.408 L65.706,13.031 L66.478,10.653 L67.251,8.276 L67.375,7.892 L68.010,8.690 L67.802,9.331 L67.029,11.708 L66.257,14.086 L65.484,16.464 L64.712,18.841 L63.939,21.219 L63.166,23.597 L62.394,25.974 L62.008,27.163 L61.621,28.352 L60.849,30.729 L60.407,32.091 L61.286,32.134 L61.400,31.785 L62.172,29.407 L62.945,27.029 L63.717,24.652 L64.490,22.274 L65.262,19.896 L66.035,17.519 L66.808,15.141 L67.580,12.764 L68.353,10.386 L68.620,9.564 L69.201,10.525 L68.903,11.441 L68.131,13.819 L67.358,16.196 L66.586,18.574 L65.813,20.952 L65.041,23.329 L64.268,25.707 L63.496,28.085 L62.723,30.462 L62.166,32.178 L63.045,32.222 L63.274,31.517 L64.047,29.140 L64.433,27.951 L64.819,26.762 L65.592,24.385 L66.364,22.007 L67.137,19.629 L67.909,17.252 L68.682,14.874 L69.454,12.496 L69.747,11.597 L70.244,12.818 L70.005,13.552 L69.233,15.929 L68.460,18.307 L67.688,20.684 L66.915,23.062 L66.143,25.440 L65.370,27.817 L64.597,30.195 L63.925,32.265 L64.804,32.309 L65.148,31.250 L65.921,28.873 L66.693,26.495 L67.466,24.117 L68.239,21.740 L69.011,19.362 L69.784,16.984 L70.556,14.607 L70.696,14.175 L71.100,15.685 L70.334,18.040 L69.562,20.417 L68.789,22.795 L68.017,25.173 L67.244,27.550 L66.858,28.739 L66.472,29.928 L66.078,31.140 L65.684,32.352 L66.564,32.396 L67.023,30.983 L67.795,28.605 L68.568,26.228 L69.340,23.850 L70.113,21.472 L70.885,19.095 L71.450,17.357 L71.737,19.226 L71.436,20.150 L70.664,22.528 L69.891,24.905 L69.119,27.283 L68.346,29.661 L67.574,32.038 L67.443,32.439 L68.323,32.483 L68.897,30.716 L69.283,29.527 L69.670,28.338 L70.442,25.961 L71.215,23.583 L71.952,21.314 L72.111,23.574 L71.765,24.638 L70.993,27.016 L70.220,29.393 L69.448,31.771 L69.202,32.527 L70.082,32.570 L70.771,30.449 L71.544,28.071 L72.207,26.030 L72.236,27.317 L72.264,28.605 L72.095,29.126 L71.708,30.315 L71.322,31.504 L70.962,32.614 L71.841,32.657 L72.275,31.321"/>
  <path fill="none" stroke="#8c4a6b" stroke-width="0.4" stroke-linecap="round" stroke-linejoin="round" d="M46.183,52.009 L45.986,50.764 L45.755,49.307 L46.238,46.925 L46.565,48.985 L46.956,51.454 L47.099,52.356 L47.995,52.582 L47.926,52.144 L47.534,49.675 L47.143,47.206 L46.932,45.874 L46.722,44.542 L47.205,42.160 L47.331,42.957 L47.722,45.426 L48.113,47.896 L48.504,50.365 L48.891,52.808 L49.788,53.034 L49.474,51.055 L49.083,48.586 L48.692,46.117 L48.301,43.647 L47.910,41.178 L47.688,39.778 L48.171,37.395 L48.489,39.399 L48.880,41.868 L49.271,44.337 L49.662,46.807 L50.053,49.276 L50.444,51.745 L50.684,53.259 L51.580,53.485 L51.414,52.435 L51.023,49.966 L50.632,47.497 L50.241,45.028 L49.850,42.558 L49.459,40.089 L49.068,37.620 L48.861,36.316 L48.655,35.013 L49.289,33.587 L49.646,35.841 L50.037,38.310 L50.428,40.779 L50.820,43.248 L51.211,45.718 L51.602,48.187 L51.993,50.656 L52.384,53.125 L52.477,53.711 L53.373,53.937 L53.168,52.641 L52.963,51.346 L52.572,48.877 L52.181,46.408 L51.789,43.938 L51.398,41.469 L51.007,39.000 L50.616,36.531 L50.225,34.062 L50.054,32.979 L50.921,33.022 L51.195,34.752 L51.586,37.221 L51.977,39.690 L52.368,42.159 L52.759,44.629 L53.150,47.098 L53.542,49.567 L53.933,52.036 L54.269,54.162 L55.166,54.388 L54.903,52.726 L54.511,50.257 L54.120,47.788 L53.729,45.319 L53.338,42.849 L52.947,40.380 L52.556,37.911 L52.165,35.442 L51.789,33.065 L52.656,33.108 L52.744,33.663 L53.135,36.132 L53.526,38.601 L53.917,41.070 L54.308,43.540 L54.699,46.009 L55.090,48.478 L55.481,50.947 L55.872,53.416 L56.062,54.614 L56.958,54.840 L56.842,54.107 L56.451,51.637 L56.060,49.168 L55.669,46.699 L55.278,44.230 L54.887,41.760 L54.496,39.291 L54.105,36.822 L53.714,34.353 L53.523,33.151 L54.391,33.194 L54.684,35.043 L55.075,37.512 L55.466,39.981 L55.857,42.451 L56.248,44.920 L56.639,47.389 L57.030,49.858 L57.421,52.327 L57.638,53.696 L57.855,55.066 L58.751,55.291 L58.391,53.018 L58.000,50.548 L57.609,48.079 L57.218,45.610 L56.827,43.141 L56.436,40.671 L56.045,38.202 L55.653,35.733 L55.456,34.485 L55.258,33.237 L56.126,33.280 L56.232,33.954 L56.623,36.423 L57.014,38.892 L57.405,41.362 L57.797,43.831 L58.188,46.300 L58.579,48.769 L58.970,51.238 L59.361,53.708 L59.648,55.517 L60.544,55.743 L60.331,54.398 L59.940,51.929 L59.549,49.459 L59.158,46.990 L58.766,44.521 L58.375,42.052 L57.984,39.582 L57.593,37.113 L57.202,34.644 L56.993,33.323 L57.860,33.366 L58.172,35.334 L58.563,37.803 L58.954,40.273 L59.345,42.742 L59.736,45.211 L60.127,47.680 L60.519,50.149 L60.910,52.619 L61.301,55.088 L61.440,55.969 L62.337,56.194 L62.271,55.778 L61.880,53.309 L61.488,50.840 L61.097,48.370 L60.706,45.901 L60.315,43.432 L59.924,40.963 L59.533,38.493 L59.142,36.024 L58.935,34.717 L58.728,33.409 L59.595,33.452 L59.721,34.245 L60.112,36.714 L60.503,39.184 L60.894,41.653 L61.285,44.122 L61.676,46.591 L62.067,49.060 L62.458,51.530 L62.849,53.999 L63.233,56.420 L64.129,56.646 L63.819,54.689 L63.428,52.220 L63.037,49.751 L62.646,47.281 L62.255,44.812 L61.864,42.343 L61.473,39.874 L61.082,37.404 L60.691,34.935 L60.463,33.495 L61.330,33.538 L61.661,35.625 L62.052,38.095 L62.443,40.564 L62.834,43.033 L63.225,45.502 L63.616,47.971 L64.007,50.441 L64.398,52.910 L64.789,55.379 L65.026,56.872 L65.922,57.098 L65.759,56.069 L65.368,53.600 L64.977,51.131 L64.586,48.662 L64.195,46.192 L63.804,43.723 L63.413,41.254 L63.022,38.785 L62.630,36.315 L62.414,34.948 L62.197,33.581 L63.065,33.624 L63.209,34.536 L63.600,37.006 L63.991,39.475 L64.383,41.944 L64.774,44.413 L65.165,46.882 L65.556,49.352 L65.947,51.821 L66.338,54.290 L66.729,56.759 L66.818,57.323 L67.715,57.549 L67.511,56.265 L67.308,54.980 L66.917,52.511 L66.526,50.042 L66.135,47.573 L65.743,45.103 L65.352,42.634 L64.961,40.165 L64.570,37.696 L64.179,35.226 L63.932,33.667 L64.800,33.710 L65.149,35.917 L65.540,38.386 L65.931,40.855 L66.322,43.324 L66.713,45.793 L67.104,48.263 L67.496,50.732 L67.887,53.201 L68.278,55.670 L68.611,57.775 L69.507,58.001 L69.248,56.360 L68.857,53.891 L68.465,51.422 L68.074,48.953 L67.683,46.483 L67.292,44.014 L66.901,41.545 L66.510,39.076 L66.119,36.607 L65.728,34.137 L65.667,33.753 L66.534,33.796 L66.698,34.827 L67.089,37.297 L67.480,39.766 L67.871,42.235 L68.262,44.704 L68.653,47.174 L69.044,49.643 L69.435,52.112 L69.826,54.581 L70.218,57.050 L70.404,58.226 L71.207,57.867 L71.002,56.569 L70.796,55.271 L70.405,52.802 L70.014,50.333 L69.623,47.864 L69.232,45.394 L68.841,42.925 L68.450,40.456 L68.059,37.987 L67.668,35.518 L67.402,33.839 L68.269,33.882 L68.638,36.208 L69.029,38.677 L69.420,41.146 L69.811,43.615 L70.202,46.085 L70.593,48.554 L70.984,51.023 L71.375,53.492 L71.659,55.287 L71.833,53.669 L72.008,52.052 L71.954,51.713 L71.563,49.244 L71.172,46.775 L70.781,44.305 L70.390,41.836 L69.999,39.367 L69.607,36.898 L69.216,34.429 L69.137,33.925 L70.004,33.968 L70.186,35.119 L70.577,37.588 L70.968,40.057 L71.360,42.526 L71.751,44.996 L72.142,47.465 L72.209,47.892 L72.231,46.219 L72.253,44.546 L72.275,42.873 L71.938,40.747 L71.547,38.278 L71.156,35.809 L70.871,34.011 L71.812,34.517 L72.126,36.499 L72.297,37.575"/>
  <path fill="none" stroke="#31604f" stroke-width="0.4" stroke-linecap="round" stroke-linejoin="round" d="M68.749,57.612 L66.413,56.826 L64.077,56.040 L61.741,55.254 L59.406,54.468 L57.070,53.681 L54.734,52.895 L52.398,52.109 L50.062,51.323 L47.726,50.537 L45.390,49.751 L43.055,48.965 L40.719,48.179 L38.383,47.393 L36.047,46.607 L33.711,45.821 L31.375,45.035 L29.039,44.248 L26.704,43.462 L24.368,42.676 L22.032,41.890 L19.696,41.104 L17.360,40.318 L15.024,39.532 L12.688,38.746 L10.353,37.960 L8.017,37.174 L5.681,36.388 L3.345,35.602 L1.009,34.815 L1.000,37.015 L1.009,39.215 L1.018,41.415 L1.028,43.615 L1.037,45.815 L1.094,48.015 L1.168,50.213 L1.315,52.409 L3.210,53.526 L5.405,53.382 L7.600,53.238 L9.796,53.094 L11.991,52.950 L13.313,51.191 L14.578,49.391 L15.843,47.591 L17.108,45.791 L18.373,43.991 L19.638,42.192 L20.902,40.392 L21.078,38.199 L20.866,36.351 M19.329,34.543 L17.791,32.735 L16.254,30.927 L14.717,29.119 L13.180,27.311 L11.643,25.503 L10.106,23.696 L8.568,21.888 L7.031,20.080 L5.494,18.272 L3.957,16.464 L2.420,14.656 L1.933,16.802 L1.586,18.974 L1.343,21.161 L1.197,23.356 L1.107,25.554 L1.040,27.753 L1.029,29.953 L1.020,32.153 L1.011,34.353 L3.120,34.979 L5.314,35.148 L7.507,35.318 L9.700,35.488 L11.894,35.657 L14.087,35.827 L16.281,35.996 L18.474,36.166 L20.668,36.336 L21.946,34.545 L21.756,32.353 L21.509,30.167 L21.261,27.981 L21.014,25.795 L20.767,23.609 L20.519,21.423 L20.492,21.177 M19.300,23.206 L18.109,25.235 L16.918,27.264 L15.726,29.293 L14.535,31.323 L13.344,33.352 L12.153,35.381 L10.961,37.410 L9.770,39.439 L8.579,41.468 L7.387,43.497 L6.196,45.526 L5.005,47.555 L3.813,49.584 L2.622,51.613 L1.431,53.642 L1.704,55.825 L2.102,57.989 L2.656,60.118 L3.394,62.190 L4.372,64.161 L5.602,65.986 L7.093,67.603 L8.804,68.985 L10.706,70.091 L12.726,70.963 L14.824,71.624 L16.973,72.096 L18.716,70.753 L19.089,68.585 L19.462,66.417 L19.836,64.249 L19.426,62.087 L18.048,60.372 L16.670,58.657 L15.292,56.942 L13.915,55.227 L12.537,53.512 L12.081,52.944 M12.747,50.586 L13.413,48.228 L14.079,45.871 L14.745,43.513 L15.412,41.155 L16.078,38.797 L16.744,36.439 L17.410,34.081 L18.076,31.723 L18.742,29.365 L19.409,27.007 L20.075,24.650 L20.741,22.292 L21.407,19.934 L22.073,17.576 L22.740,15.218 L23.406,12.860 L24.072,10.502 L24.738,8.144 L25.404,5.787 L26.071,3.429 L26.737,1.071 L24.538,1.138 L22.342,1.265 L20.150,1.454 L17.968,1.738 L15.807,2.149 L13.681,2.717 L11.615,3.471 L9.660,4.481 L7.847,5.726 L6.257,7.247 L4.896,8.975 L3.817,10.893 L2.961,12.919 L3.511,15.050 L5.580,15.796 L7.649,16.543 L9.719,17.290 L11.788,18.037 L13.858,18.783 L15.927,19.530 L17.996,20.277 L20.066,21.023 L21.827,19.705 L23.305,18.076 L24.784,16.447 L26.262,14.818 L27.551,13.397 M27.926,15.769 L28.301,18.140 L28.676,20.511 L29.051,22.882 L29.426,25.253 L29.801,27.624 L30.176,29.996 L30.551,32.367 L30.927,34.738 L31.302,37.109 L31.677,39.480 L32.052,41.851 L32.427,44.223 L32.802,46.594 L33.177,48.965 L33.552,51.336 L33.927,53.707 L32.443,52.084 L30.958,50.461 L29.473,48.837 L27.988,47.214 L26.503,45.591 L25.018,43.967 L23.533,42.344 L22.048,40.721 L20.040,41.619 L18.775,43.419 L17.510,45.219 L16.245,47.019 L14.980,48.819 L13.715,50.619 L12.450,52.418 L13.291,54.451 L14.669,56.166 L16.047,57.881 L17.425,59.596 L18.803,61.311 L20.070,62.888 M19.663,65.251 L19.256,67.615 L18.849,69.978 L18.443,72.341 L20.627,72.599 L22.821,72.767 L25.018,72.877 L27.217,72.944 L29.417,72.968 L31.617,72.977 L33.817,72.987 L36.017,72.996 L38.217,72.995 L40.417,72.986 L41.874,71.337 L41.781,69.139 L41.687,66.941 L41.594,64.743 L41.501,62.545 L41.408,60.347 L41.315,58.149 L41.222,55.951 L39.393,54.728 L37.230,54.324 L35.068,53.920 L32.916,54.378 L31.082,55.593 L29.248,56.808 L27.414,58.023 L25.580,59.238 L23.746,60.453 L21.912,61.668 L20.078,62.883 M20.095,60.435 L20.119,57.981 L20.144,55.528 L20.169,53.074 L20.194,50.620 L20.219,48.167 L20.243,45.713 L20.268,43.260 L20.293,40.806 L20.318,38.352 L20.343,35.899 L20.368,33.445 L20.392,30.992 L20.417,28.538 L20.442,26.084 L20.467,23.631 L20.492,21.177 L20.739,23.363 L20.986,25.549 L21.233,27.735 L21.481,29.921 L21.728,32.107 L21.975,34.294 L24.170,34.136 L26.345,33.809 L28.521,33.481 L30.696,33.153 L32.871,32.825 L35.047,32.498 L37.222,32.170 L39.398,31.842 L41.573,31.514 L43.749,31.186 L45.924,30.859 L46.852,28.864 L46.460,26.699 L46.067,24.535 L45.675,22.370 L44.398,20.578 L42.374,19.715 L40.350,18.853 L38.327,17.990 L36.303,17.128 L34.279,16.265 L32.255,15.403 L30.231,14.540 L28.207,13.677 L27.551,13.397 M29.335,14.968 L31.119,16.538 L32.904,18.108 L34.688,19.678 L36.473,21.248 L38.257,22.819 L40.042,24.389 L41.826,25.959 L43.611,27.529 L45.395,29.099 L47.179,30.670 L45.004,30.997 L42.829,31.325 L40.653,31.653 L38.478,31.981 L36.302,32.308 L34.127,32.636 L31.951,32.964 L29.776,33.292 L27.600,33.619 L25.425,33.947 L23.249,34.275 L21.397,35.462 L21.012,37.628 L21.263,39.814 L22.724,41.459 L24.209,43.082 L25.694,44.706 L27.178,46.329 L28.663,47.952 L30.148,49.576 L31.633,51.199 L33.118,52.822 L35.029,53.913 L37.191,54.317 L39.354,54.721 L41.554,54.758 L43.252,53.359 L44.576,51.603 L45.013,49.446 L45.451,47.290 L45.888,45.134 L46.325,42.978 L46.763,40.822 L47.200,38.666 L47.637,36.510 L48.074,34.354 L48.511,32.202 M47.689,29.973 L46.866,27.744 L46.044,25.515 L45.222,23.287 L44.400,21.058 L43.578,18.829 L42.755,16.601 L41.933,14.372 L41.111,12.143 L40.289,9.915 L39.467,7.686 L38.644,5.457 L37.822,3.229 L37.000,1.000 L34.800,1.009 L32.600,1.018 L30.400,1.028 L28.200,1.037 L26.849,2.773 L26.994,4.969 L27.139,7.164 L27.284,9.359 L27.429,11.554 L28.124,13.642 L30.147,14.504 L32.171,15.367 L34.195,16.229 L36.219,17.092 L38.243,17.955 L40.267,18.817 L42.291,19.680 L44.314,20.542 L46.220,19.443 L47.207,17.477 L48.194,15.510 L49.181,13.544 L50.168,11.578 L51.156,9.612 L52.143,7.646 L53.130,5.680 L54.117,3.714 L55.104,1.748 L52.940,1.352 L50.745,1.204 L48.547,1.110 L46.348,1.043 M46.060,3.519 L45.913,6.000 L45.766,8.481 L45.619,10.961 L45.472,13.442 L45.325,15.923 L45.178,18.404 L45.031,20.884 L44.884,23.365 L44.737,25.846 L44.590,28.326 L44.443,30.807 L44.295,33.288 L44.148,35.769 L44.001,38.249 L43.854,40.730 L43.707,43.211 L43.560,45.691 L43.413,48.172 L43.266,50.653 L43.119,53.134 L42.972,55.614 L42.825,58.095 L42.678,60.576 L42.531,63.056 L42.384,65.537 L42.237,68.018 L42.090,70.499 L41.943,72.979 L44.143,72.970 L46.343,72.957 L48.542,72.890 L50.740,72.797 L52.935,72.649 L55.122,72.403 L57.293,72.051 L59.436,71.552 L61.526,70.865 L63.536,69.972 L65.413,68.824 L67.108,67.421 L68.560,65.768 L69.768,63.930 L70.704,61.939 L71.423,59.860 L69.535,58.730 L67.402,58.192 L65.269,57.655 L63.135,57.118 L61.002,56.580 L58.869,56.043 L56.735,55.505 L54.602,54.968 L52.468,54.431 L50.335,53.893 L48.202,53.356 L46.068,52.818 L43.869,52.851 L42.171,54.250 L41.184,55.062 M43.172,53.709 L45.159,52.356 L47.147,51.003 L49.134,49.650 L51.122,48.297 L53.109,46.944 L55.097,45.591 L57.084,44.238 L59.072,42.885 L61.060,41.532 L63.047,40.179 L65.035,38.826 L67.022,37.473 L69.010,36.120 L70.997,34.767 L72.985,33.414 L72.976,31.214 L72.966,29.014 L72.932,26.814 L72.865,24.615 L72.740,22.419 L72.554,20.227 L72.274,18.044 L71.868,15.882 L71.306,13.755 L70.557,11.687 L69.559,9.726 L68.320,7.909 L66.810,6.309 L65.090,4.936 L63.176,3.851 L61.152,2.989 L59.048,2.346 L56.898,1.883 L54.765,2.423 L53.778,4.389 L52.791,6.355 L51.804,8.321 L50.817,10.287 L49.829,12.254 L48.842,14.220 L47.855,16.186 L46.868,18.152 L45.881,20.118 L45.663,22.307 L46.056,24.472 L46.448,26.637 L46.841,28.801 L47.404,30.928 L48.511,32.202 M50.051,34.005 L51.590,35.808 L53.130,37.612 L54.670,39.415 L56.210,41.218 L57.749,43.022 L59.289,44.825 L60.829,46.628 L62.368,48.432 L63.908,50.235 L65.448,52.038 L66.988,53.842 L68.527,55.645 L70.067,57.448 L71.607,59.252 L72.083,57.104 L72.424,54.930 L72.663,52.743 L72.809,50.548 L72.896,48.350 L72.962,46.151 L72.971,43.951 L72.980,41.751 L72.989,39.551 L72.998,37.351 L72.992,35.151 L71.726,33.352 L69.529,33.243 L67.332,33.134 L65.135,33.025 L62.937,32.916 L60.740,32.807 L58.543,32.698 L56.345,32.590 L54.148,32.481 L51.951,32.372 L49.753,32.263 L48.185,33.806 L47.748,35.962 L47.311,38.118 L46.874,40.275 L46.436,42.431 L45.999,44.587 L45.562,46.743 L45.124,48.899 L44.687,51.055 L44.414,52.402 M44.061,49.954 L43.708,47.506 L43.355,45.059 L43.002,42.611 L42.649,40.163 L42.296,37.715 L41.943,35.268 L41.590,32.820 L41.237,30.372 L40.884,27.925 L40.530,25.477 L40.177,23.029 L39.824,20.582 L39.471,18.134 L39.118,15.686 L38.765,13.238 L38.412,10.791 L38.059,8.343 L37.706,5.895 L37.353,3.448 L37.000,1.000 L34.800,1.009 L32.600,1.018 L30.400,1.028 L28.200,1.037 L26.001,1.093 L23.802,1.167 L21.607,1.314 L19.418,1.536 L17.242,1.859 L15.090,2.314 L12.980,2.937 L10.951,3.789 L9.031,4.862 L7.295,6.214 L5.765,7.795 L4.514,9.605 L3.494,11.554 L2.736,13.619 L2.163,15.743 L1.749,17.904 L1.461,20.085 L1.269,22.277 L1.140,24.473 L1.073,26.672 L1.034,28.871 L1.025,31.071 L1.016,33.271 L1.006,35.471 L1.003,37.671 L1.012,39.871 L1.021,42.071 L1.030,44.271 L1.047,46.471 L1.114,48.670 L1.212,50.868 L1.366,53.063 L1.611,55.249 L1.970,57.419 L2.485,59.558 L3.182,61.645 L4.084,63.651 L5.252,65.516 L6.665,67.203 L8.334,68.636 L10.180,69.833 L12.179,70.750 L14.262,71.460 L16.397,71.987 L18.565,72.361 L20.751,72.613 L22.945,72.776 L25.142,72.881 L27.341,72.948 L29.541,72.969 L31.741,72.978 L33.941,72.987 L36.141,72.996 L38.341,72.994 L40.541,72.985 L42.741,72.976 L44.941,72.967 L47.141,72.933 L49.340,72.866 L51.536,72.744 L53.729,72.559 L55.911,72.282 L58.074,71.879 L60.201,71.319 L62.271,70.574 L64.236,69.583 L66.055,68.346 L67.661,66.843 L69.037,65.126 L70.129,63.216 L70.995,61.194 L71.644,59.092 L72.110,56.941 L72.443,54.767 L72.674,52.579 L72.820,50.384 L72.901,48.185 L72.962,45.986 L72.972,43.786 L72.981,41.586 L72.990,39.386 L72.999,37.186 L72.992,34.986 L72.982,32.786 L72.973,30.586 L72.964,28.386 L72.912,26.187 L72.845,23.988 L72.699,21.793 L72.484,19.603 L72.171,17.426 L71.727,15.271 L71.123,13.156 L70.293,11.118 L69.234,9.190 L67.911,7.432 L66.345,5.887 L64.553,4.610 L62.612,3.575 L60.557,2.790 L58.436,2.205 L56.278,1.779 L54.098,1.482 L51.907,1.281 L49.711,1.145 L47.512,1.078 L45.313,1.035 L43.113,1.026 L40.913,1.016 L38.713,1.007 L37.000,1.000"/>
</svg>
