<svg xmlns="http://www.w3.org/2000/svg" viewBox="-0.938 0 45.116 45.116" width="256" height="256">
  <title>star</title>
  <rect x="-0.938" y="0" width="45.116" height="45.116" fill="#f5efe4"/>
  <path fill="none" stroke="#c8472f" stroke-width="0.4" stroke-linecap="round" stroke-linejoin="round" d="M16.340,43.558 L16.340,43.558 L17.840,43.158 L14.840,42.758 L17.840,42.358 L14.840,41.958 L17.840,41.558 L14.840,41.158 L17.840,40.758 L14.840,40.358 L17.840,39.958 L14.840,39.558 L17.840,39.158 L14.840,38.758 L17.840,38.358 L14.840,37.958 L17.840,37.558 L14.840,37.158 L17.840,36.758 L14.840,36.358 L17.840,35.958 L14.840,35.558 L17.840,35.158 L14.840,34.758 L17.840,34.358 L14.840,33.958 L17.840,33.558 L14.840,33.158 L17.840,32.758 L14.840,32.358 L17.840,31.958 L14.840,31.558 L17.840,31.158 L14.840,30.758 L17.840,30.358 L14.840,29.958 L17.840,29.558 L14.840,29.158 L17.840,28.758 L14.840,28.358 L17.840,27.958 L14.840,27.558 L17.840,27.158 L14.840,26.758 L17.840,26.358 L14.840,25.958 L17.840,25.558 L14.840,25.158 L17.840,24.758 L14.840,24.358 L17.840,23.958 L14.840,23.558 L17.840,23.158 L14.840,22.758 L17.840,22.358 L14.840,21.958 L17.840,21.558 L14.840,21.158 L17.840,20.758 L14.840,20.358 L17.840,19.958 L14.840,19.558 L17.840,19.158 L14.840,18.758 L17.840,18.358 L14.840,17.958 L17.840,17.558 L14.840,17.158 L17.840,16.758 L14.840,16.358 L17.840,15.958 L14.840,15.558 L17.840,15.158 L14.840,14.758 L17.840,14.358 L14.840,13.958 L17.840,13.558 L14.840,13.158 L17.840,12.758 L14.840,12.358 L17.840,11.958 L14.840,11.558 L17.840,11.158 L14.840,10.758 L17.840,10.358 L14.840,9.958 L17.840,9.558 L14.840,9.158 L17.840,8.758 L14.840,8.358 L17.840,7.958 L14.840,7.558 L17.840,7.158 L14.840,6.758 L17.840,6.358 L14.840,5.958 L17.840,5.558 L14.840,5.158 L17.840,4.758 L14.840,4.358 L17.840,3.958 L14.840,3.558 L17.840,3.158 L14.840,2.758 L17.840,2.358 L14.840,1.958 L17.840,1.558 L17.789,1.000 L15.597,3.087 L18.259,1.647 L16.067,3.734 L18.730,2.294 L16.538,4.381 L19.200,2.942 L17.008,5.029 L19.670,3.589 L17.478,5.676 L20.140,4.236 L17.948,6.323 L20.611,4.883 L18.419,6.970 L21.081,5.530 L18.889,7.617 L21.551,6.178 L19.359,8.265 L22.021,6.825 L19.829,8.912 L22.491,7.472 L20.299,9.559 L22.962,8.119 L20.770,10.206 L23.432,8.767 L21.240,10.854 L23.902,9.414 L21.710,11.501 L24.372,10.061 L22.180,12.148 L24.843,10.708 L22.651,12.795 L25.313,11.355 L23.121,13.442 L25.783,12.003 L23.591,14.090 L26.253,12.650 L24.061,14.737 L26.723,13.297 L24.532,15.384 L27.194,13.944 L25.002,16.031 L27.664,14.591 L25.472,16.678 L28.134,15.239 L25.942,17.326 L28.604,15.886 L26.412,17.973 L29.075,16.533 L26.883,18.620 L29.545,17.180 L27.353,19.267 L30.015,17.828 L27.823,19.915 L30.485,18.475 L28.293,20.562 L30.956,19.122 L28.764,21.209 L31.426,19.769 L29.234,21.856 L31.896,20.416 L29.704,22.503 L32.366,21.064 L30.174,23.151 L32.836,21.711 L30.645,23.798 L33.307,22.358 L31.115,24.445 L33.777,23.005 L31.585,25.092 L34.247,23.652 L32.055,25.739 L34.717,24.300 L32.525,26.387 L35.188,24.947 L32.996,27.034 L35.658,25.594 L33.466,27.681 L36.128,26.241 L33.936,28.328 L36.598,26.889 L34.406,28.976 L37.068,27.536 L34.877,29.623 L37.539,28.183 L35.347,30.270 L38.009,28.830 L35.817,30.917 L38.479,29.477 L36.287,31.564 L38.949,30.125 L36.757,32.212 L39.420,30.772 L37.228,32.859 L39.890,31.419 L37.698,33.506 L40.360,32.066 L38.168,34.153 L40.830,32.713 L38.638,34.800 L41.301,33.361 L39.109,35.448 L41.771,34.008 L39.579,36.095 L42.241,34.655 L41.111,33.987 L39.803,36.716 L40.350,33.739 L39.042,36.469 L39.589,33.492 L38.281,36.222 L38.828,33.245 L37.521,35.975 L38.067,32.998 L36.760,35.727 L37.306,32.751 L35.999,35.480 L36.546,32.503 L35.238,35.233 L35.785,32.256 L34.477,34.986 L35.024,32.009 L33.716,34.738 L34.263,31.762 L32.955,34.491 L33.502,31.514 L32.195,34.244 L32.741,31.267 L31.434,33.997 L31.980,31.020 L30.673,33.750 L31.220,30.773 L29.912,33.502 L30.459,30.526 L29.151,33.255 L29.698,30.278 L28.390,33.008 L28.937,30.031 L27.630,32.761 L28.176,29.784 L26.869,32.514 L27.415,29.537 L26.108,32.266 L26.655,29.290 L25.347,32.019 L25.894,29.042 L24.586,31.772 L25.133,28.795 L23.825,31.525 L24.372,28.548 L23.065,31.277 L23.611,28.301 L22.304,31.030 L22.850,28.053 L21.543,30.783 L22.089,27.806 L20.782,30.536 L21.329,27.559 L20.021,30.289 L20.568,27.312 L19.260,30.041 L19.807,27.065 L18.499,29.794 L19.046,26.817 L17.739,29.547 L18.285,26.570 L16.978,29.300 L17.524,26.323 L16.217,29.053 L16.764,26.076 L15.456,28.805 L16.003,25.829 L14.695,28.558 L15.242,25.581 L13.934,28.311 L14.481,25.334 L13.174,28.064 L13.720,25.087 L12.413,27.816 L12.959,24.840 L11.652,27.569 L12.198,24.592 L10.891,27.322 L11.438,24.345 L10.130,27.075 L10.677,24.098 L9.369,26.828 L9.916,23.851 L8.608,26.580 L9.155,23.604 L7.848,26.333 L8.394,23.356 L7.087,26.086 L7.633,23.109 L6.326,25.839 L6.873,22.862 L5.565,25.592 L6.112,22.615 L4.804,25.344 L5.351,22.368 L4.043,25.097 L4.590,22.120 L3.283,24.850 L3.829,21.873 L2.522,24.603 L3.068,21.626 L1.761,24.355 L2.307,21.379 L1.000,24.108 L1.547,21.131 L1.000,21.008 L2.307,23.737 L1.761,20.761 L3.068,23.490 L2.522,20.513 L3.829,23.243 L3.283,20.266 L4.590,22.996 L4.043,20.019 L5.351,22.749 L4.804,19.772 L6.112,22.501 L5.565,19.525 L6.873,22.254 L6.326,19.277 L7.633,22.007 L7.087,19.030 L8.394,21.760 L7.848,18.783 L9.155,21.513 L8.608,18.536 L9.916,21.265 L9.369,18.289 L10.677,21.018 L10.130,18.041 L11.438,20.771 L10.891,17.794 L12.198,20.524 L11.652,17.547 L12.959,20.276 L12.413,17.300 L13.720,20.029 L13.174,17.052 L14.481,19.782 L13.934,16.805 L15.242,19.535 L14.695,16.558 L16.003,19.288 L15.456,16.311 L16.764,19.040 L16.217,16.064 L17.524,18.793 L16.978,15.816 L18.285,18.546 L17.739,15.569 L19.046,18.299 L18.499,15.322 L19.807,18.052 L19.260,15.075 L20.568,17.804 L20.021,14.828 L21.329,17.557 L20.782,14.580 L22.089,17.310 L21.543,14.333 L22.850,17.063 L22.304,14.086 L23.611,16.815 L23.065,13.839 L24.372,16.568 L23.825,13.591 L25.133,16.321 L24.586,13.344 L25.894,16.074 L25.347,13.097 L26.655,15.827 L26.108,12.850 L27.415,15.579 L26.869,12.603 L28.176,15.332 L27.630,12.355 L28.937,15.085 L28.390,12.108 L29.698,14.838 L29.151,11.861 L30.459,14.591 L29.912,11.614 L31.220,14.343 L30.673,11.367 L31.980,14.096 L31.434,11.119 L32.741,13.849 L32.195,10.872 L33.502,13.602 L32.955,10.625 L34.263,13.354 L33.716,10.378 L35.024,13.107 L34.477,10.130 L35.785,12.860 L35.238,9.883 L36.546,12.613 L35.999,9.636 L37.306,12.366 L36.760,9.389 L38.067,12.118 L37.521,9.142 L38.828,11.871 L38.281,8.894 L39.589,11.624 L39.042,8.647 L40.350,11.377 L39.803,8.400 L41.111,11.130 L40.564,8.153 L39.579,9.021 L41.771,11.108 L39.109,9.668 L41.301,11.755 L38.638,10.316 L40.830,12.403 L38.168,10.963 L40.360,13.050 L37.698,11.610 L39.890,13.697 L37.228,12.257 L39.420,14.344 L36.757,12.905 L38.949,14.992 L36.287,13.552 L38.479,15.639 L35.817,14.199 L38.009,16.286 L35.347,14.846 L37.539,16.933 L34.877,15.493 L37.068,17.580 L34.406,16.141 L36.598,18.228 L33.936,16.788 L36.128,18.875 L33.466,17.435 L35.658,19.522 L32.996,18.082 L35.188,20.169 L32.525,18.729 L34.717,20.816 L32.055,19.377 L34.247,21.464 L31.585,20.024 L33.777,22.111 L31.115,20.671 L33.307,22.758 L30.645,21.318 L32.836,23.405 L30.174,21.966 L32.366,24.053 L29.704,22.613 L31.896,24.700 L29.234,23.260 L31.426,25.347 L28.764,23.907 L30.956,25.994 L28.293,24.554 L30.485,26.641 L27.823,25.202 L30.015,27.289 L27.353,25.849 L29.545,27.936 L26.883,26.496 L29.075,28.583 L26.412,27.143 L28.604,29.230 L25.942,27.790 L28.134,29.877 L25.472,28.438 L27.664,30.525 L25.002,29.085 L27.194,31.172 L24.532,29.732 L26.723,31.819 L24.061,30.379 L26.253,32.466 L23.591,31.027 L25.783,33.114 L23.121,31.674 L25.313,33.761 L22.651,32.321 L24.843,34.408 L22.180,32.968 L24.372,35.055 L21.710,33.615 L23.902,35.702 L21.240,34.263 L23.432,36.350 L20.770,34.910 L22.962,36.997 L20.299,35.557 L22.491,37.644 L19.829,36.204 L22.021,38.291 L19.359,36.851 L21.551,38.938 L18.889,37.499 L21.081,39.586 L18.419,38.146 L20.611,40.233 L17.948,38.793 L20.140,40.880 L17.478,39.440 L19.670,41.527 L17.008,40.088 L19.200,42.175 L16.538,40.735 L18.730,42.822 L16.067,41.382 L18.259,43.469 L15.597,42.029 L17.789,44.116 L15.127,42.676 L15.743,43.009 L15.127,42.676 L15.743,43.009 L15.127,42.676"/>
</svg>
