<svg xmlns="http://www.w3.org/2000/svg" viewBox="-2.508 0 73.422 73.422" width="256" height="256">
  <title>starburst</title>
  <rect x="-2.508" y="0" width="73.422" height="73.422" fill="#f5efe4"/>
  <path fill="none" stroke="#31604f" stroke-width="0.4" stroke-linecap="round" stroke-linejoin="round" d="M38.708,34.320 L38.708,34.320 L38.798,32.619 L38.889,30.919 L38.979,29.218 L39.069,27.517 L39.160,25.816 L39.250,24.115 L39.340,22.415 L39.430,20.714 L39.521,19.013 L39.611,17.312 L39.701,15.612 L39.792,13.911 L39.882,12.210 L39.972,10.509 L40.063,8.809 L40.025,9.508 L40.063,8.809 L40.025,9.508 L40.063,8.809 M38.708,34.320 L38.978,33.674 L38.708,34.320 L38.978,33.674 L38.708,34.320 L39.394,32.679 L40.080,31.038 L40.766,29.397 L41.452,27.756 L42.138,26.115 L42.824,24.474 L43.510,22.833 L44.196,21.192 L44.882,19.552 L45.569,17.911 L46.255,16.270 L46.941,14.629 L47.627,12.988 L48.313,11.347 L48.999,9.706 L49.685,8.065 L50.371,6.424 L51.057,4.783 L50.787,5.429 L51.057,4.783 L50.787,5.429 L51.057,4.783 M38.708,34.320 L39.180,33.803 L38.708,34.320 L39.180,33.803 L38.708,34.320 L39.892,33.022 L41.075,31.724 L42.259,30.425 L43.443,29.127 L44.626,27.829 L45.810,26.531 L46.994,25.233 L48.177,23.934 L49.361,22.636 L50.545,21.338 L51.728,20.040 L52.912,18.741 L54.096,17.443 L55.279,16.145 L56.463,14.847 L57.647,13.549 L58.831,12.250 L60.014,10.952 L61.198,9.654 L60.726,10.171 L61.198,9.654 L60.726,10.171 L61.198,9.654 M38.708,34.320 L39.328,33.996 L38.708,34.320 L39.328,33.996 L38.708,34.320 L40.223,33.529 L41.739,32.737 L43.254,31.945 L44.769,31.154 L46.284,30.362 L47.800,29.571 L49.315,28.779 L50.830,27.988 L52.346,27.196 L53.861,26.405 L55.376,25.613 L56.891,24.822 L58.407,24.030 L59.922,23.238 L61.437,22.447 L62.952,21.655 L64.468,20.864 L63.847,21.188 L64.468,20.864 L63.847,21.188 L64.468,20.864 M38.708,34.320 L39.402,34.228 L38.708,34.320 L39.402,34.228 L38.708,34.320 L40.387,34.097 L42.066,33.874 L43.745,33.651 L45.424,33.428 L47.103,33.205 L48.782,32.983 L50.461,32.760 L52.140,32.537 L53.819,32.314 L55.497,32.091 L57.176,31.868 L58.855,31.645 L60.534,31.422 L62.213,31.199 L61.519,31.291 L62.213,31.199 L61.519,31.291 L62.213,31.199 M38.708,34.320 L39.396,34.450 L38.708,34.320 L39.396,34.450 L38.708,34.320 L40.439,34.646 L42.169,34.972 L43.899,35.299 L45.630,35.625 L47.360,35.951 L49.091,36.277 L50.821,36.603 L52.552,36.929 L54.282,37.256 L56.013,37.582 L57.743,37.908 L59.474,38.234 L61.204,38.560 L60.516,38.431 L61.204,38.560 L60.516,38.431 L61.204,38.560 M38.708,34.320 L39.330,34.640 L38.708,34.320 L39.330,34.640 L38.708,34.320 L40.265,35.121 L41.822,35.923 L43.380,36.724 L44.937,37.526 L46.494,38.327 L48.051,39.129 L49.608,39.930 L51.165,40.732 L52.723,41.533 L54.280,42.334 L55.837,43.136 L57.394,43.937 L58.951,44.739 L60.508,45.540 L62.066,46.342 L63.623,47.143 L63.000,46.823 L63.623,47.143 L63.000,46.823 L63.623,47.143 M38.708,34.320 L39.210,34.807 L38.708,34.320 L39.210,34.807 L38.708,34.320 L39.964,35.538 L41.220,36.756 L42.476,37.975 L43.732,39.193 L44.988,40.411 L46.243,41.629 L47.499,42.848 L48.755,44.066 L50.011,45.284 L51.267,46.502 L52.523,47.720 L53.779,48.939 L55.035,50.157 L56.291,51.375 L57.547,52.593 L58.802,53.812 L60.058,55.030 L61.314,56.248 L62.570,57.466 L63.826,58.684 L63.324,58.197 L63.826,58.684 L63.324,58.197 L63.826,58.684 M38.708,34.320 L39.041,34.936 L38.708,34.320 L39.041,34.936 L38.708,34.320 L39.526,35.831 L40.345,37.343 L41.163,38.854 L41.981,40.365 L42.799,41.877 L43.617,43.388 L44.436,44.899 L45.254,46.411 L46.072,47.922 L46.890,49.433 L47.709,50.945 L48.527,52.456 L49.345,53.967 L50.163,55.479 L50.982,56.990 L51.800,58.501 L52.618,60.012 L53.436,61.524 L54.255,63.035 L55.073,64.546 L55.891,66.058 L56.709,67.569 L56.376,66.954 L56.709,67.569 L56.376,66.954 L56.709,67.569 M38.708,34.320 L38.842,35.007 L38.708,34.320 L38.842,35.007 L38.708,34.320 L39.051,36.078 L39.393,37.835 L39.736,39.593 L40.079,41.350 L40.422,43.108 L40.764,44.865 L41.107,46.623 L41.450,48.380 L41.792,50.138 L42.135,51.895 L42.478,53.653 L42.821,55.410 L43.163,57.168 L43.506,58.925 L43.849,60.683 L44.191,62.440 L44.534,64.198 L44.877,65.955 L45.220,67.713 L45.086,67.026 L45.220,67.713 L45.086,67.026 L45.220,67.713 M38.708,34.320 L38.638,35.017 L38.708,34.320 L38.638,35.017 L38.708,34.320 L38.528,36.108 L38.347,37.896 L38.167,39.684 L37.986,41.472 L37.806,43.260 L37.626,45.048 L37.445,46.836 L37.265,48.624 L37.085,50.412 L36.904,52.200 L36.724,53.988 L36.543,55.776 L36.363,57.564 L36.183,59.352 L36.002,61.140 L36.073,60.444 L36.002,61.140 L36.073,60.444 L36.002,61.140 M38.708,34.320 L38.441,34.967 L38.708,34.320 L38.441,34.967 L38.708,34.320 L38.043,35.934 L37.377,37.548 L36.711,39.161 L36.046,40.775 L35.380,42.389 L34.715,44.002 L34.049,45.616 L33.384,47.230 L32.718,48.844 L32.053,50.457 L31.387,52.071 L30.722,53.685 L30.056,55.299 L30.323,54.651 L30.056,55.299 L30.323,54.651 L30.056,55.299 M38.708,34.320 L38.249,34.849 L38.708,34.320 L38.249,34.849 L38.708,34.320 L37.559,35.644 L36.411,36.969 L35.262,38.293 L34.113,39.617 L32.964,40.942 L31.816,42.266 L30.667,43.590 L29.518,44.915 L28.369,46.239 L27.221,47.563 L26.072,48.888 L24.923,50.212 L23.774,51.536 L22.626,52.860 L23.084,52.332 L22.626,52.860 L23.084,52.332 L22.626,52.860 M38.708,34.320 L38.096,34.660 L38.708,34.320 L38.096,34.660 L38.708,34.320 L37.157,35.182 L35.606,36.043 L34.055,36.905 L32.504,37.767 L30.953,38.629 L29.401,39.490 L27.850,40.352 L26.299,41.214 L24.748,42.075 L23.197,42.937 L21.646,43.799 L20.095,44.660 L18.544,45.522 L16.993,46.384 L15.442,47.246 L13.891,48.107 L12.339,48.969 L12.951,48.629 L12.339,48.969 L12.951,48.629 L12.339,48.969 M38.708,34.320 L38.017,34.431 L38.708,34.320 L38.017,34.431 L38.708,34.320 L36.955,34.602 L35.201,34.884 L33.448,35.167 L31.695,35.449 L29.942,35.731 L28.188,36.013 L26.435,36.295 L24.682,36.577 L22.928,36.860 L21.175,37.142 L19.422,37.424 L17.669,37.706 L15.915,37.988 L14.162,38.270 L12.409,38.552 L10.655,38.835 L8.902,39.117 L7.149,39.399 L5.396,39.681 L6.087,39.570 L5.396,39.681 L6.087,39.570 L5.396,39.681 M38.708,34.320 L38.020,34.194 L38.708,34.320 L38.020,34.194 L38.708,34.320 L36.998,34.006 L35.288,33.692 L33.578,33.378 L31.868,33.065 L30.158,32.751 L28.448,32.437 L26.738,32.123 L25.028,31.809 L23.317,31.495 L21.607,31.182 L19.897,30.868 L18.187,30.554 L16.477,30.240 L14.767,29.926 L13.057,29.612 L11.347,29.298 L9.637,28.985 L7.927,28.671 L8.615,28.797 L7.927,28.671 L8.615,28.797 L7.927,28.671 M38.708,34.320 L38.102,33.970 L38.708,34.320 L38.102,33.970 L38.708,34.320 L37.199,33.449 L35.691,32.578 L34.182,31.707 L32.673,30.836 L31.165,29.964 L29.656,29.093 L28.147,28.222 L26.639,27.351 L25.130,26.480 L23.621,25.609 L22.112,24.738 L20.604,23.866 L19.095,22.995 L17.586,22.124 L18.193,22.474 L17.586,22.124 L18.193,22.474 L17.586,22.124 M38.708,34.320 L38.265,33.778 L38.708,34.320 L38.265,33.778 L38.708,34.320 L37.626,32.997 L36.543,31.675 L35.461,30.352 L34.379,29.030 L33.296,27.707 L32.214,26.384 L31.131,25.062 L30.049,23.739 L28.967,22.417 L27.884,21.094 L26.802,19.771 L27.245,20.313 L26.802,19.771 L27.245,20.313 L26.802,19.771 M38.708,34.320 L38.497,33.653 L38.708,34.320 L38.497,33.653 L38.708,34.320 L38.178,32.643 L37.647,30.965 L37.117,29.288 L36.586,27.610 L36.056,25.933 L35.526,24.255 L34.995,22.578 L34.465,20.901 L33.935,19.223 L33.404,17.546 L32.874,15.868 L33.085,16.536 L32.874,15.868 L33.085,16.536 L32.874,15.868"/>
  <path fill="none" stroke="#d9a441" stroke-width="0.4" stroke-linecap="round" stroke-linejoin="round" d="M40.063,5.449 L40.699,5.156 L40.063,5.449 L40.699,5.156 L40.063,5.449 L40.971,5.031 L41.880,4.613 L42.775,4.168 L43.671,3.723 L44.575,3.296 L45.479,2.868 L46.399,2.477 L47.320,2.087 L48.265,1.761 L49.210,1.434 L50.187,1.220 L51.164,1.006 L52.164,1.003 L53.164,1.000 L54.148,1.176 L55.133,1.352 L56.088,1.649 L57.043,1.945 L57.960,2.343 L58.878,2.740 L59.748,3.233 L60.618,3.726 L61.425,4.316 L62.232,4.907 L62.945,5.608 L63.659,6.309 L64.224,7.134 L64.789,7.959 L65.210,8.866 L65.632,9.773 L65.948,10.721 L66.265,11.670 L66.501,12.642 L66.737,13.613 L66.907,14.599 L67.078,15.584 L67.191,16.578 L67.304,17.571 L67.355,18.570 L67.406,19.569 L67.322,20.565 L67.238,21.561 L67.038,22.541 L66.838,23.521 L66.570,24.485 L66.302,25.448 L66.007,26.404 L65.712,27.359 L65.433,28.319 L65.154,29.280 L64.944,30.257 L64.734,31.235 L64.523,32.212 L64.311,33.190 L64.112,34.170 L63.913,35.150 L63.806,36.144 L63.699,37.138 L63.741,38.137 L63.784,39.136 L64.009,40.111 L64.234,41.085 L64.564,42.029 L64.895,42.973 L65.236,43.913 L65.577,44.853 L65.862,45.811 L66.146,46.770 L66.322,47.755 L66.497,48.739 L66.636,49.729 L66.774,50.720 L66.902,51.712 L67.030,52.703 L67.126,53.699 L67.221,54.694 L67.261,55.693 L67.302,56.693 L67.257,57.692 L67.213,58.691 L67.041,59.676 L66.869,60.661 L66.535,61.603 L66.201,62.546 L65.759,63.443 L65.317,64.340 L64.792,65.191 L64.267,66.042 L63.664,66.840 L63.062,67.638 L62.381,68.370 L61.699,69.103 L60.932,69.743 L60.164,70.384 L59.298,70.884 L58.432,71.385 L57.482,71.697 L56.532,72.010 L55.545,72.170 L54.558,72.330 L53.559,72.376 L52.560,72.422 L51.561,72.376 L50.563,72.329 L49.571,72.200 L48.579,72.071 L47.602,71.858 L46.625,71.646 L45.678,71.325 L44.731,71.003 L43.847,70.537 L42.962,70.070 L42.135,69.508 L41.308,68.946 L40.522,68.327 L39.737,67.708 L38.978,67.057 L38.219,66.407 L37.468,65.746 L36.718,65.085 L35.956,64.437 L35.195,63.789 L34.473,63.096 L33.752,62.404 L33.085,61.658 L32.418,60.913 L31.754,60.165 L31.091,59.417 L30.358,58.736 L29.626,58.055 L28.774,57.532 L27.921,57.009 L26.986,56.656 L26.050,56.303 L25.082,56.051 L24.115,55.799 L23.145,55.553 L22.176,55.306 L21.224,55.001 L20.272,54.696 L19.315,54.404 L18.359,54.112 L17.395,53.845 L16.431,53.579 L15.472,53.297 L14.512,53.016 L13.567,52.689 L12.623,52.361 L11.710,51.952 L10.797,51.544 L9.947,51.017 L9.097,50.490 L8.324,49.856 L7.551,49.221 L6.826,48.532 L6.102,47.843 L5.427,47.105 L4.753,46.366 L4.139,45.577 L3.525,44.788 L2.989,43.943 L2.453,43.099 L2.031,42.192 L1.610,41.286 L1.363,40.317 L1.116,39.348 L1.058,38.349 L1.000,37.351 L1.084,36.354 L1.167,35.358 L1.363,34.377 L1.560,33.397 L1.855,32.441 L2.150,31.486 L2.542,30.566 L2.933,29.646 L3.430,28.778 L3.926,27.910 L4.558,27.134 L5.189,26.358 L5.936,25.693 L6.683,25.029 L7.497,24.448 L8.311,23.867 L9.165,23.347 L10.019,22.828 L10.899,22.353 L11.779,21.878 L12.675,21.433 L13.571,20.989 L14.477,20.566 L15.383,20.142 L16.330,19.820 L17.276,19.497 L18.251,19.275 L19.226,19.053 L20.211,18.881 L21.196,18.708 L22.179,18.523 L23.162,18.339 L24.121,18.058 L25.081,17.776 L25.993,17.365 L26.904,16.954 L27.769,16.452 L28.633,15.949 L29.444,15.363 L30.254,14.777 L31.032,14.149 L31.810,13.521 L32.563,12.862 L33.315,12.204 L34.039,11.514 L34.763,10.823 L35.472,10.118 L36.181,9.413 L36.881,8.699 L37.582,7.986 L38.279,7.269 L38.976,6.552 L40.063,5.449 L39.571,5.947 L40.063,5.449 L39.571,5.947 L40.063,5.449"/>
  <path fill="none" stroke="#c8472f" stroke-width="0.4" stroke-linecap="round" stroke-linejoin="round" d="M40.063,15.809 L40.063,15.109 L40.063,15.809 L40.063,15.109 L40.063,15.809 M40.063,15.809 L41.163,15.309 L38.963,14.809 L41.163,14.309 L38.963,13.809 L41.163,13.309 L38.963,12.809 L41.163,12.309 L38.963,11.809 L41.163,11.309 L38.963,10.809 L41.163,10.309 L38.963,9.809 L41.163,9.309 L38.963,8.809 L39.645,8.964 L38.963,8.809 L39.645,8.964 L38.963,8.809 M48.308,12.789 L48.536,12.127 L48.308,12.789 L48.536,12.127 L48.308,12.789 M48.308,12.789 L49.510,12.676 L47.591,11.490 L49.834,11.734 L47.915,10.548 L50.157,10.792 L48.238,9.606 L50.481,9.850 L48.561,8.665 L50.804,8.908 L48.885,7.723 L51.127,7.966 L49.208,6.781 L51.451,7.024 L49.531,5.839 L51.774,6.082 L49.855,4.897 L52.097,5.140 L51.401,5.065 L52.097,5.140 L51.401,5.065 L52.097,5.140 M55.914,16.443 L56.344,15.890 L55.914,16.443 L56.344,15.890 L55.914,16.443 M55.914,16.443 L55.340,15.390 L57.369,16.364 L55.927,14.635 L57.956,15.610 L56.514,13.881 L58.543,14.855 L57.101,13.127 L59.130,14.101 L57.688,12.373 L59.718,13.347 L58.275,11.618 L60.305,12.592 L58.862,10.864 L60.892,11.838 L59.449,10.110 L61.479,11.084 L60.036,9.355 L62.066,10.330 L61.435,10.027 L62.066,10.330 L61.435,10.027 L62.066,10.330 M58.366,24.850 L58.952,24.467 L58.366,24.850 L58.952,24.467 L58.366,24.850 M58.366,24.850 L58.172,23.663 L59.782,25.239 L58.985,23.132 L60.595,24.708 L59.799,22.600 L61.409,24.176 L60.612,22.069 L62.222,23.645 L61.426,21.537 L63.036,23.113 L62.239,21.006 L63.849,22.582 L63.053,20.474 L64.663,22.050 L63.866,19.943 L64.114,20.598 L63.866,19.943 L64.114,20.598 L63.866,19.943 M57.885,53.215 L58.400,53.690 L57.885,53.215 L58.400,53.690 L57.885,53.215 M57.885,53.215 L57.490,54.346 L59.329,53.050 L58.189,54.990 L60.028,53.693 L58.887,55.633 L60.727,54.336 L59.586,56.277 L61.426,54.980 L60.285,56.920 L62.125,55.623 L60.984,57.563 L62.824,56.267 L61.683,58.207 L63.523,56.910 L62.382,58.850 L64.222,57.553 L63.081,59.494 L63.436,58.890 L63.081,59.494 L63.436,58.890 L63.081,59.494 M52.548,59.879 L52.881,60.495 L52.548,59.879 L52.881,60.495 L52.548,59.879 M52.548,59.879 L53.746,59.783 L52.043,61.257 L54.209,60.637 L52.505,62.111 L54.671,61.492 L52.967,62.966 L55.133,62.346 L53.430,63.820 L55.596,63.200 L53.892,64.675 L56.058,64.055 L54.355,65.529 L56.521,64.909 L54.817,66.384 L56.983,65.764 L55.280,67.238 L57.446,66.618 L55.742,68.093 L56.271,67.635 L55.742,68.093 L56.271,67.635 L55.742,68.093 M43.930,59.987 L44.046,60.677 L43.930,59.987 L44.046,60.677 L43.930,59.987 M43.930,59.987 L45.096,60.289 L43.006,61.134 L45.257,61.254 L43.168,62.099 L45.418,62.220 L43.329,63.065 L45.579,63.186 L43.490,64.031 L45.741,64.152 L43.651,64.997 L45.902,65.117 L43.812,65.962 L46.063,66.083 L43.973,66.928 L46.224,67.049 L44.135,67.894 L44.784,67.631 L44.135,67.894 L44.784,67.631 L44.135,67.894 M19.270,45.929 L18.629,46.210 L19.270,45.929 L18.629,46.210 L19.270,45.929 M19.270,45.929 L19.279,47.126 L17.962,45.302 L18.413,47.506 L17.096,45.682 L17.546,47.886 L16.229,46.062 L16.680,48.266 L15.363,46.442 L15.814,48.646 L14.497,46.822 L14.947,49.026 L13.630,47.202 L14.081,49.406 L12.764,47.582 L13.214,49.786 L11.898,47.962 L12.307,48.529 L11.898,47.962 L12.307,48.529 L11.898,47.962 M14.062,38.963 L13.365,39.021 L14.062,38.963 L13.365,39.021 L14.062,38.963 M14.062,38.963 L13.672,40.099 L13.008,37.947 L12.709,40.179 L12.046,38.026 L11.746,40.259 L11.083,38.106 L10.783,40.338 L10.120,38.186 L9.820,40.418 L9.157,38.266 L8.857,40.498 L8.194,38.345 L7.894,40.578 L7.231,38.425 L6.931,40.658 L6.268,38.505 L5.968,40.737 L5.305,38.585 L5.511,39.254 L5.305,38.585 L5.511,39.254 L5.305,38.585 M15.961,30.705 L15.282,30.533 L15.961,30.705 L15.282,30.533 L15.961,30.705 M15.961,30.705 L15.218,31.652 L15.286,29.399 L14.273,31.412 L14.340,29.160 L13.328,31.173 L13.395,28.921 L12.383,30.934 L12.450,28.681 L11.438,30.694 L11.505,28.442 L10.492,30.455 L10.560,28.203 L9.547,30.216 L9.615,27.963 L8.602,29.976 L8.669,27.724 L7.657,29.737 L7.971,29.112 L7.657,29.737 L7.971,29.112 L7.657,29.737 M23.205,25.795 L22.619,25.412 L23.205,25.795 L22.619,25.412 L23.205,25.795 M23.205,25.795 L23.406,24.612 L21.801,26.192 L22.603,24.088 L20.998,25.667 L21.800,23.563 L20.196,25.143 L20.998,23.039 L19.393,24.618 L20.195,22.514 L18.590,24.094 L19.392,21.990 L17.788,23.569 L18.589,21.465 L16.985,23.045 L17.484,22.554 L16.985,23.045 L17.484,22.554 L16.985,23.045"/>
</svg>
