<svg xmlns="http://www.w3.org/2000/svg" viewBox="0 0 90 90" width="256" height="256">
  <title>threaded-orbits</title>
  <rect x="0" y="0" width="90" height="90" fill="#f5efe4"/>
  <path fill="none" stroke="#31604f" stroke-width="0.4" stroke-linecap="round" stroke-linejoin="round" d="M45.000,1.000 L45.000,1.000 L46.162,3.493 L47.325,5.985 L48.487,8.478 L49.649,10.970 L50.811,13.463 L51.974,15.955 L53.136,18.448 L54.298,20.940 L55.460,23.433 L56.623,25.925 L57.785,28.418 L58.947,30.910 L60.110,33.403 L61.272,35.895 L62.434,38.388 L63.596,40.880 L64.759,43.373 L65.921,45.865 L67.083,48.358 L68.245,50.850 L69.408,53.343 L70.570,55.835 L71.732,58.328 L72.895,60.820 L74.057,63.313 L75.219,65.805 L76.381,68.298 L77.544,70.790 L78.706,73.283 L78.410,72.648 L78.706,73.283 L78.410,72.648 L78.706,73.283 M45.000,1.000 L45.272,1.645 L45.000,1.000 L45.272,1.645 L45.000,1.000 L46.085,3.578 L47.170,6.156 L48.255,8.733 L49.340,11.311 L50.425,13.889 L51.510,16.467 L52.595,19.045 L53.680,21.622 L54.765,24.200 L55.850,26.778 L56.935,29.356 L58.020,31.934 L59.105,34.512 L60.190,37.089 L61.275,39.667 L62.360,42.245 L63.445,44.823 L64.530,47.401 L65.615,49.978 L66.700,52.556 L67.785,55.134 L68.870,57.712 L69.955,60.290 L71.040,62.867 L72.125,65.445 L73.210,68.023 L74.295,70.601 L75.380,73.179 L76.465,75.757 L76.193,75.111 L76.465,75.757 L76.193,75.111 L76.465,75.757 M45.000,1.000 L45.247,1.655 L45.000,1.000 L45.247,1.655 L45.000,1.000 L45.968,3.568 L46.936,6.137 L47.904,8.705 L48.872,11.274 L49.840,13.842 L50.809,16.411 L51.777,18.979 L52.745,21.548 L53.713,24.116 L54.681,26.684 L55.649,29.253 L56.617,31.821 L57.585,34.390 L58.553,36.958 L59.521,39.527 L60.489,42.095 L61.457,44.664 L62.426,47.232 L63.394,49.800 L64.362,52.369 L65.330,54.937 L66.298,57.506 L67.266,60.074 L68.234,62.643 L69.202,65.211 L70.170,67.780 L71.138,70.348 L72.106,72.917 L73.074,75.485 L74.043,78.053 L73.796,77.398 L74.043,78.053 L73.796,77.398 L74.043,78.053 M45.000,1.000 L45.222,1.664 L45.000,1.000 L45.222,1.664 L45.000,1.000 L45.882,3.639 L46.764,6.277 L47.645,8.916 L48.527,11.555 L49.409,14.193 L50.291,16.832 L51.172,19.471 L52.054,22.109 L52.936,24.748 L53.818,27.387 L54.700,30.025 L55.581,32.664 L56.463,35.303 L57.345,37.941 L58.227,40.580 L59.108,43.219 L59.990,45.857 L60.872,48.496 L61.754,51.135 L62.635,53.773 L63.517,56.412 L64.399,59.051 L65.281,61.689 L66.163,64.328 L67.044,66.967 L67.926,69.605 L68.808,72.244 L69.690,74.883 L70.571,77.521 L71.453,80.160 L71.231,79.496 L71.453,80.160 L71.231,79.496 L71.453,80.160 M45.000,1.000 L45.197,1.672 L45.000,1.000 L45.197,1.672 L45.000,1.000 L45.765,3.615 L46.530,6.230 L47.295,8.845 L48.060,11.460 L48.824,14.075 L49.589,16.690 L50.354,19.305 L51.119,21.920 L51.884,24.535 L52.649,27.150 L53.414,29.765 L54.179,32.380 L54.944,34.995 L55.708,37.610 L56.473,40.225 L57.238,42.840 L58.003,45.455 L58.768,48.070 L59.533,50.685 L60.298,53.300 L61.063,55.915 L61.828,58.530 L62.592,61.144 L63.357,63.759 L64.122,66.374 L64.887,68.989 L65.652,71.604 L66.417,74.219 L67.182,76.834 L67.947,79.449 L68.712,82.064 L68.515,81.392 L68.712,82.064 L68.515,81.392 L68.712,82.064 M45.000,1.000 L45.171,1.679 L45.000,1.000 L45.171,1.679 L45.000,1.000 L45.672,3.670 L46.344,6.339 L47.016,9.009 L47.688,11.678 L48.360,14.348 L49.032,17.017 L49.704,19.687 L50.376,22.356 L51.048,25.026 L51.720,27.695 L52.393,30.365 L53.065,33.034 L53.737,35.704 L54.409,38.373 L55.081,41.043 L55.753,43.712 L56.425,46.382 L57.097,49.051 L57.769,51.721 L58.441,54.390 L59.113,57.060 L59.785,59.730 L60.457,62.399 L61.129,65.069 L61.801,67.738 L62.473,70.408 L63.145,73.077 L63.817,75.747 L64.489,78.416 L65.161,81.086 L65.833,83.755 L65.663,83.076 L65.833,83.755 L65.663,83.076 L65.833,83.755 M45.000,1.000 L45.145,1.685 L45.000,1.000 L45.145,1.685 L45.000,1.000 L45.575,3.717 L46.151,6.434 L46.726,9.151 L47.301,11.867 L47.877,14.584 L48.452,17.301 L49.027,20.018 L49.603,22.735 L50.178,25.452 L50.753,28.169 L51.329,30.886 L51.904,33.602 L52.479,36.319 L53.055,39.036 L53.630,41.753 L54.205,44.470 L54.781,47.187 L55.356,49.904 L55.931,52.621 L56.507,55.337 L57.082,58.054 L57.657,60.771 L58.233,63.488 L58.808,66.205 L59.383,68.922 L59.959,71.639 L60.534,74.356 L61.109,77.072 L61.685,79.789 L62.260,82.506 L62.835,85.223 L62.690,84.538 L62.835,85.223 L62.690,84.538 L62.835,85.223 M45.000,1.000 L45.119,1.690 L45.000,1.000 L45.119,1.690 L45.000,1.000 L45.475,3.757 L45.951,6.514 L46.426,9.270 L46.901,12.027 L47.377,14.784 L47.852,17.541 L48.327,20.297 L48.803,23.054 L49.278,25.811 L49.753,28.568 L50.228,31.324 L50.704,34.081 L51.179,36.838 L51.654,39.595 L52.130,42.351 L52.605,45.108 L53.080,47.865 L53.556,50.622 L54.031,53.378 L54.506,56.135 L54.982,58.892 L55.457,61.649 L55.932,64.405 L56.408,67.162 L56.883,69.919 L57.358,72.676 L57.833,75.432 L58.309,78.189 L58.784,80.946 L59.259,83.703 L59.735,86.459 L59.616,85.770 L59.735,86.459 L59.616,85.770 L59.735,86.459 M45.000,1.000 L45.093,1.694 L45.000,1.000 L45.093,1.694 L45.000,1.000 L45.361,3.702 L45.722,6.404 L46.083,9.105 L46.444,11.807 L46.805,14.509 L47.165,17.211 L47.526,19.913 L47.887,22.614 L48.248,25.316 L48.609,28.018 L48.970,30.720 L49.331,33.421 L49.692,36.123 L50.053,38.825 L50.414,41.527 L50.775,44.229 L51.136,46.930 L51.496,49.632 L51.857,52.334 L52.218,55.036 L52.579,57.738 L52.940,60.439 L53.301,63.141 L53.662,65.843 L54.023,68.545 L54.384,71.246 L54.745,73.948 L55.106,76.650 L55.466,79.352 L55.827,82.054 L56.188,84.755 L56.549,87.457 L56.457,86.763 L56.549,87.457 L56.457,86.763 L56.549,87.457 M45.000,1.000 L45.066,1.697 L45.000,1.000 L45.066,1.697 L45.000,1.000 L45.259,3.725 L45.519,6.451 L45.778,9.176 L46.037,11.901 L46.296,14.627 L46.556,17.352 L46.815,20.077 L47.074,22.803 L47.334,25.528 L47.593,28.253 L47.852,30.979 L48.111,33.704 L48.371,36.429 L48.630,39.155 L48.889,41.880 L49.149,44.605 L49.408,47.331 L49.667,50.056 L49.926,52.781 L50.186,55.507 L50.445,58.232 L50.704,60.957 L50.964,63.683 L51.223,66.408 L51.482,69.133 L51.742,71.859 L52.001,74.584 L52.260,77.309 L52.519,80.035 L52.779,82.760 L53.038,85.485 L53.297,88.211 L53.231,87.514 L53.297,88.211 L53.231,87.514 L53.297,88.211 M45.000,1.000 L45.040,1.699 L45.000,1.000 L45.040,1.699 L45.000,1.000 L45.156,3.741 L45.312,6.482 L45.469,9.223 L45.625,11.964 L45.781,14.706 L45.937,17.447 L46.093,20.188 L46.249,22.929 L46.406,25.670 L46.562,28.411 L46.718,31.152 L46.874,33.893 L47.030,36.634 L47.186,39.375 L47.343,42.117 L47.499,44.858 L47.655,47.599 L47.811,50.340 L47.967,53.081 L48.123,55.822 L48.280,58.563 L48.436,61.304 L48.592,64.045 L48.748,66.786 L48.904,69.528 L49.060,72.269 L49.217,75.010 L49.373,77.751 L49.529,80.492 L49.685,83.233 L49.841,85.974 L49.998,88.715 L49.958,88.016 L49.998,88.715 L49.958,88.016 L49.998,88.715 M45.000,1.000 L45.013,1.700 L45.000,1.000 L45.013,1.700 L45.000,1.000 L45.052,3.749 L45.104,6.498 L45.156,9.247 L45.209,11.996 L45.261,14.745 L45.313,17.494 L45.365,20.243 L45.417,22.992 L45.469,25.741 L45.522,28.490 L45.574,31.239 L45.626,33.988 L45.678,36.737 L45.730,39.486 L45.782,42.235 L45.835,44.984 L45.887,47.733 L45.939,50.482 L45.991,53.231 L46.043,55.980 L46.095,58.729 L46.147,61.478 L46.200,64.227 L46.252,66.976 L46.304,69.725 L46.356,72.474 L46.408,75.223 L46.460,77.972 L46.513,80.721 L46.565,83.470 L46.617,86.219 L46.669,88.968 L46.656,88.268 L46.669,88.968 L46.656,88.268 L46.669,88.968 M45.000,1.000 L44.987,1.700 L45.000,1.000 L44.987,1.700 L45.000,1.000 L44.948,3.749 L44.896,6.498 L44.844,9.247 L44.791,11.996 L44.739,14.745 L44.687,17.494 L44.635,20.243 L44.583,22.992 L44.531,25.741 L44.478,28.490 L44.426,31.239 L44.374,33.988 L44.322,36.737 L44.270,39.486 L44.218,42.235 L44.165,44.984 L44.113,47.733 L44.061,50.482 L44.009,53.231 L43.957,55.980 L43.905,58.729 L43.853,61.478 L43.800,64.227 L43.748,66.976 L43.696,69.725 L43.644,72.474 L43.592,75.223 L43.540,77.972 L43.487,80.721 L43.435,83.470 L43.383,86.219 L43.331,88.968 L43.344,88.268 L43.331,88.968 L43.344,88.268 L43.331,88.968 M45.000,1.000 L44.960,1.699 L45.000,1.000 L44.960,1.699 L45.000,1.000 L44.844,3.741 L44.688,6.482 L44.531,9.223 L44.375,11.964 L44.219,14.706 L44.063,17.447 L43.907,20.188 L43.751,22.929 L43.594,25.670 L43.438,28.411 L43.282,31.152 L43.126,33.893 L42.970,36.634 L42.814,39.375 L42.657,42.117 L42.501,44.858 L42.345,47.599 L42.189,50.340 L42.033,53.081 L41.877,55.822 L41.720,58.563 L41.564,61.304 L41.408,64.045 L41.252,66.786 L41.096,69.528 L40.940,72.269 L40.783,75.010 L40.627,77.751 L40.471,80.492 L40.315,83.233 L40.159,85.974 L40.002,88.715 L40.042,88.016 L40.002,88.715 L40.042,88.016 L40.002,88.715 M45.000,1.000 L44.934,1.697 L45.000,1.000 L44.934,1.697 L45.000,1.000 L44.741,3.725 L44.481,6.451 L44.222,9.176 L43.963,11.901 L43.704,14.627 L43.444,17.352 L43.185,20.077 L42.926,22.803 L42.666,25.528 L42.407,28.253 L42.148,30.979 L41.889,33.704 L41.629,36.429 L41.370,39.155 L41.111,41.880 L40.851,44.605 L40.592,47.331 L40.333,50.056 L40.074,52.781 L39.814,55.507 L39.555,58.232 L39.296,60.957 L39.036,63.683 L38.777,66.408 L38.518,69.133 L38.258,71.859 L37.999,74.584 L37.740,77.309 L37.481,80.035 L37.221,82.760 L36.962,85.485 L36.703,88.211 L36.769,87.514 L36.703,88.211 L36.769,87.514 L36.703,88.211 M45.000,1.000 L44.907,1.694 L45.000,1.000 L44.907,1.694 L45.000,1.000 L44.639,3.702 L44.278,6.404 L43.917,9.105 L43.556,11.807 L43.195,14.509 L42.835,17.211 L42.474,19.913 L42.113,22.614 L41.752,25.316 L41.391,28.018 L41.030,30.720 L40.669,33.421 L40.308,36.123 L39.947,38.825 L39.586,41.527 L39.225,44.229 L38.864,46.930 L38.504,49.632 L38.143,52.334 L37.782,55.036 L37.421,57.738 L37.060,60.439 L36.699,63.141 L36.338,65.843 L35.977,68.545 L35.616,71.246 L35.255,73.948 L34.894,76.650 L34.534,79.352 L34.173,82.054 L33.812,84.755 L33.451,87.457 L33.543,86.763 L33.451,87.457 L33.543,86.763 L33.451,87.457 M45.000,1.000 L44.881,1.690 L45.000,1.000 L44.881,1.690 L45.000,1.000 L44.525,3.757 L44.049,6.514 L43.574,9.270 L43.099,12.027 L42.623,14.784 L42.148,17.541 L41.673,20.297 L41.197,23.054 L40.722,25.811 L40.247,28.568 L39.772,31.324 L39.296,34.081 L38.821,36.838 L38.346,39.595 L37.870,42.351 L37.395,45.108 L36.920,47.865 L36.444,50.622 L35.969,53.378 L35.494,56.135 L35.018,58.892 L34.543,61.649 L34.068,64.405 L33.592,67.162 L33.117,69.919 L32.642,72.676 L32.167,75.432 L31.691,78.189 L31.216,80.946 L30.741,83.703 L30.265,86.459 L30.384,85.770 L30.265,86.459 L30.384,85.770 L30.265,86.459 M45.000,1.000 L44.855,1.685 L45.000,1.000 L44.855,1.685 L45.000,1.000 L44.425,3.717 L43.849,6.434 L43.274,9.151 L42.699,11.867 L42.123,14.584 L41.548,17.301 L40.973,20.018 L40.397,22.735 L39.822,25.452 L39.247,28.169 L38.671,30.886 L38.096,33.602 L37.521,36.319 L36.945,39.036 L36.370,41.753 L35.795,44.470 L35.219,47.187 L34.644,49.904 L34.069,52.621 L33.493,55.337 L32.918,58.054 L32.343,60.771 L31.767,63.488 L31.192,66.205 L30.617,68.922 L30.041,71.639 L29.466,74.356 L28.891,77.072 L28.315,79.789 L27.740,82.506 L27.165,85.223 L27.310,84.538 L27.165,85.223 L27.310,84.538 L27.165,85.223 M45.000,1.000 L44.829,1.679 L45.000,1.000 L44.829,1.679 L45.000,1.000 L44.328,3.670 L43.656,6.339 L42.984,9.009 L42.312,11.678 L41.640,14.348 L40.968,17.017 L40.296,19.687 L39.624,22.356 L38.952,25.026 L38.280,27.695 L37.607,30.365 L36.935,33.034 L36.263,35.704 L35.591,38.373 L34.919,41.043 L34.247,43.712 L33.575,46.382 L32.903,49.051 L32.231,51.721 L31.559,54.390 L30.887,57.060 L30.215,59.730 L29.543,62.399 L28.871,65.069 L28.199,67.738 L27.527,70.408 L26.855,73.077 L26.183,75.747 L25.511,78.416 L24.839,81.086 L24.167,83.755 L24.337,83.076 L24.167,83.755 L24.337,83.076 L24.167,83.755 M45.000,1.000 L44.803,1.672 L45.000,1.000 L44.803,1.672 L45.000,1.000 L44.235,3.615 L43.470,6.230 L42.705,8.845 L41.940,11.460 L41.176,14.075 L40.411,16.690 L39.646,19.305 L38.881,21.920 L38.116,24.535 L37.351,27.150 L36.586,29.765 L35.821,32.380 L35.056,34.995 L34.292,37.610 L33.527,40.225 L32.762,42.840 L31.997,45.455 L31.232,48.070 L30.467,50.685 L29.702,53.300 L28.937,55.915 L28.172,58.530 L27.408,61.144 L26.643,63.759 L25.878,66.374 L25.113,68.989 L24.348,71.604 L23.583,74.219 L22.818,76.834 L22.053,79.449 L21.288,82.064 L21.485,81.392 L21.288,82.064 L21.485,81.392 L21.288,82.064 M45.000,1.000 L44.778,1.664 L45.000,1.000 L44.778,1.664 L45.000,1.000 L44.118,3.639 L43.236,6.277 L42.355,8.916 L41.473,11.555 L40.591,14.193 L39.709,16.832 L38.828,19.471 L37.946,22.109 L37.064,24.748 L36.182,27.387 L35.300,30.025 L34.419,32.664 L33.537,35.303 L32.655,37.941 L31.773,40.580 L30.892,43.219 L30.010,45.857 L29.128,48.496 L28.246,51.135 L27.365,53.773 L26.483,56.412 L25.601,59.051 L24.719,61.689 L23.837,64.328 L22.956,66.967 L22.074,69.605 L21.192,72.244 L20.310,74.883 L19.429,77.521 L18.547,80.160 L18.769,79.496 L18.547,80.160 L18.769,79.496 L18.547,80.160 M45.000,1.000 L44.753,1.655 L45.000,1.000 L44.753,1.655 L45.000,1.000 L44.032,3.568 L43.064,6.137 L42.096,8.705 L41.128,11.274 L40.160,13.842 L39.191,16.411 L38.223,18.979 L37.255,21.548 L36.287,24.116 L35.319,26.684 L34.351,29.253 L33.383,31.821 L32.415,34.390 L31.447,36.958 L30.479,39.527 L29.511,42.095 L28.543,44.664 L27.574,47.232 L26.606,49.800 L25.638,52.369 L24.670,54.937 L23.702,57.506 L22.734,60.074 L21.766,62.643 L20.798,65.211 L19.830,67.780 L18.862,70.348 L17.894,72.917 L16.926,75.485 L15.957,78.053 L16.204,77.398 L15.957,78.053 L16.204,77.398 L15.957,78.053 M45.000,1.000 L44.728,1.645 L45.000,1.000 L44.728,1.645 L45.000,1.000 L43.915,3.578 L42.830,6.156 L41.745,8.733 L40.660,11.311 L39.575,13.889 L38.490,16.467 L37.405,19.045 L36.320,21.622 L35.235,24.200 L34.150,26.778 L33.065,29.356 L31.980,31.934 L30.895,34.512 L29.810,37.089 L28.725,39.667 L27.640,42.245 L26.555,44.823 L25.470,47.401 L24.385,49.978 L23.300,52.556 L22.215,55.134 L21.130,57.712 L20.045,60.290 L18.960,62.867 L17.875,65.445 L16.790,68.023 L15.705,70.601 L14.620,73.179 L13.535,75.757 L13.807,75.111 L13.535,75.757 L13.807,75.111 L13.535,75.757 M45.000,1.000 L44.704,1.634 L45.000,1.000 L44.704,1.634 L45.000,1.000 L43.838,3.493 L42.675,5.985 L41.513,8.478 L40.351,10.970 L39.189,13.463 L38.026,15.955 L36.864,18.448 L35.702,20.940 L34.540,23.433 L33.377,25.925 L32.215,28.418 L31.053,30.910 L29.890,33.403 L28.728,35.895 L27.566,38.388 L26.404,40.880 L25.241,43.373 L24.079,45.865 L22.917,48.358 L21.755,50.850 L20.592,53.343 L19.430,55.835 L18.268,58.328 L17.105,60.820 L15.943,63.313 L14.781,65.805 L13.619,68.298 L12.456,70.790 L11.294,73.283 L11.590,72.648 L11.294,73.283 L11.590,72.648 L11.294,73.283 M45.000,89.000 L44.704,88.366 L45.000,89.000 L44.704,88.366 L45.000,89.000 L43.838,86.507 L42.675,84.015 L41.513,81.522 L40.351,79.030 L39.189,76.537 L38.026,74.045 L36.864,71.552 L35.702,69.060 L34.540,66.567 L33.377,64.075 L32.215,61.582 L31.053,59.090 L29.890,56.597 L28.728,54.105 L27.566,51.612 L26.404,49.120 L25.241,46.627 L24.079,44.135 L22.917,41.642 L21.755,39.150 L20.592,36.657 L19.430,34.165 L18.268,31.672 L17.105,29.180 L15.943,26.687 L14.781,24.195 L13.619,21.702 L12.456,19.210 L11.294,16.717 L11.590,17.352 L11.294,16.717 L11.590,17.352 L11.294,16.717 M45.000,89.000 L44.728,88.355 L45.000,89.000 L44.728,88.355 L45.000,89.000 L43.915,86.422 L42.830,83.844 L41.745,81.267 L40.660,78.689 L39.575,76.111 L38.490,73.533 L37.405,70.955 L36.320,68.378 L35.235,65.800 L34.150,63.222 L33.065,60.644 L31.980,58.066 L30.895,55.488 L29.810,52.911 L28.725,50.333 L27.640,47.755 L26.555,45.177 L25.470,42.599 L24.385,40.022 L23.300,37.444 L22.215,34.866 L21.130,32.288 L20.045,29.710 L18.960,27.133 L17.875,24.555 L16.790,21.977 L15.705,19.399 L14.620,16.821 L13.535,14.243 L13.807,14.889 L13.535,14.243 L13.807,14.889 L13.535,14.243 M45.000,89.000 L44.753,88.345 L45.000,89.000 L44.753,88.345 L45.000,89.000 L44.032,86.432 L43.064,83.863 L42.096,81.295 L41.128,78.726 L40.160,76.158 L39.191,73.589 L38.223,71.021 L37.255,68.452 L36.287,65.884 L35.319,63.316 L34.351,60.747 L33.383,58.179 L32.415,55.610 L31.447,53.042 L30.479,50.473 L29.511,47.905 L28.543,45.336 L27.574,42.768 L26.606,40.200 L25.638,37.631 L24.670,35.063 L23.702,32.494 L22.734,29.926 L21.766,27.357 L20.798,24.789 L19.830,22.220 L18.862,19.652 L17.894,17.083 L16.926,14.515 L15.957,11.947 L16.204,12.602 L15.957,11.947 L16.204,12.602 L15.957,11.947 M45.000,89.000 L44.778,88.336 L45.000,89.000 L44.778,88.336 L45.000,89.000 L44.118,86.361 L43.236,83.723 L42.355,81.084 L41.473,78.445 L40.591,75.807 L39.709,73.168 L38.828,70.529 L37.946,67.891 L37.064,65.252 L36.182,62.613 L35.300,59.975 L34.419,57.336 L33.537,54.697 L32.655,52.059 L31.773,49.420 L30.892,46.781 L30.010,44.143 L29.128,41.504 L28.246,38.865 L27.365,36.227 L26.483,33.588 L25.601,30.949 L24.719,28.311 L23.837,25.672 L22.956,23.033 L22.074,20.395 L21.192,17.756 L20.310,15.117 L19.429,12.479 L18.547,9.840 L18.769,10.504 L18.547,9.840 L18.769,10.504 L18.547,9.840 M45.000,89.000 L44.803,88.328 L45.000,89.000 L44.803,88.328 L45.000,89.000 L44.235,86.385 L43.470,83.770 L42.705,81.155 L41.940,78.540 L41.176,75.925 L40.411,73.310 L39.646,70.695 L38.881,68.080 L38.116,65.465 L37.351,62.850 L36.586,60.235 L35.821,57.620 L35.056,55.005 L34.292,52.390 L33.527,49.775 L32.762,47.160 L31.997,44.545 L31.232,41.930 L30.467,39.315 L29.702,36.700 L28.937,34.085 L28.172,31.470 L27.408,28.856 L26.643,26.241 L25.878,23.626 L25.113,21.011 L24.348,18.396 L23.583,15.781 L22.818,13.166 L22.053,10.551 L21.288,7.936 L21.485,8.608 L21.288,7.936 L21.485,8.608 L21.288,7.936 M45.000,89.000 L44.829,88.321 L45.000,89.000 L44.829,88.321 L45.000,89.000 L44.328,86.330 L43.656,83.661 L42.984,80.991 L42.312,78.322 L41.640,75.652 L40.968,72.983 L40.296,70.313 L39.624,67.644 L38.952,64.974 L38.280,62.305 L37.607,59.635 L36.935,56.966 L36.263,54.296 L35.591,51.627 L34.919,48.957 L34.247,46.288 L33.575,43.618 L32.903,40.949 L32.231,38.279 L31.559,35.610 L30.887,32.940 L30.215,30.270 L29.543,27.601 L28.871,24.931 L28.199,22.262 L27.527,19.592 L26.855,16.923 L26.183,14.253 L25.511,11.584 L24.839,8.914 L24.167,6.245 L24.337,6.924 L24.167,6.245 L24.337,6.924 L24.167,6.245 M45.000,89.000 L44.855,88.315 L45.000,89.000 L44.855,88.315 L45.000,89.000 L44.425,86.283 L43.849,83.566 L43.274,80.849 L42.699,78.133 L42.123,75.416 L41.548,72.699 L40.973,69.982 L40.397,67.265 L39.822,64.548 L39.247,61.831 L38.671,59.114 L38.096,56.398 L37.521,53.681 L36.945,50.964 L36.370,48.247 L35.795,45.530 L35.219,42.813 L34.644,40.096 L34.069,37.379 L33.493,34.663 L32.918,31.946 L32.343,29.229 L31.767,26.512 L31.192,23.795 L30.617,21.078 L30.041,18.361 L29.466,15.644 L28.891,12.928 L28.315,10.211 L27.740,7.494 L27.165,4.777 L27.310,5.462 L27.165,4.777 L27.310,5.462 L27.165,4.777 M45.000,89.000 L44.881,88.310 L45.000,89.000 L44.881,88.310 L45.000,89.000 L44.525,86.243 L44.049,83.486 L43.574,80.730 L43.099,77.973 L42.623,75.216 L42.148,72.459 L41.673,69.703 L41.197,66.946 L40.722,64.189 L40.247,61.432 L39.772,58.676 L39.296,55.919 L38.821,53.162 L38.346,50.405 L37.870,47.649 L37.395,44.892 L36.920,42.135 L36.444,39.378 L35.969,36.622 L35.494,33.865 L35.018,31.108 L34.543,28.351 L34.068,25.595 L33.592,22.838 L33.117,20.081 L32.642,17.324 L32.167,14.568 L31.691,11.811 L31.216,9.054 L30.741,6.297 L30.265,3.541 L30.384,4.230 L30.265,3.541 L30.384,4.230 L30.265,3.541 M45.000,89.000 L44.907,88.306 L45.000,89.000 L44.907,88.306 L45.000,89.000 L44.639,86.298 L44.278,83.596 L43.917,80.895 L43.556,78.193 L43.195,75.491 L42.835,72.789 L42.474,70.087 L42.113,67.386 L41.752,64.684 L41.391,61.982 L41.030,59.280 L40.669,56.579 L40.308,53.877 L39.947,51.175 L39.586,48.473 L39.225,45.771 L38.864,43.070 L38.504,40.368 L38.143,37.666 L37.782,34.964 L37.421,32.262 L37.060,29.561 L36.699,26.859 L36.338,24.157 L35.977,21.455 L35.616,18.754 L35.255,16.052 L34.894,13.350 L34.534,10.648 L34.173,7.946 L33.812,5.245 L33.451,2.543 L33.543,3.237 L33.451,2.543 L33.543,3.237 L33.451,2.543 M45.000,89.000 L44.934,88.303 L45.000,89.000 L44.934,88.303 L45.000,89.000 L44.741,86.275 L44.481,83.549 L44.222,80.824 L43.963,78.099 L43.704,75.373 L43.444,72.648 L43.185,69.923 L42.926,67.197 L42.666,64.472 L42.407,61.747 L42.148,59.021 L41.889,56.296 L41.629,53.571 L41.370,50.845 L41.111,48.120 L40.851,45.395 L40.592,42.669 L40.333,39.944 L40.074,37.219 L39.814,34.493 L39.555,31.768 L39.296,29.043 L39.036,26.317 L38.777,23.592 L38.518,20.867 L38.258,18.141 L37.999,15.416 L37.740,12.691 L37.481,9.965 L37.221,7.240 L36.962,4.515 L36.703,1.789 L36.769,2.486 L36.703,1.789 L36.769,2.486 L36.703,1.789 M45.000,89.000 L44.960,88.301 L45.000,89.000 L44.960,88.301 L45.000,89.000 L44.844,86.259 L44.688,83.518 L44.531,80.777 L44.375,78.036 L44.219,75.294 L44.063,72.553 L43.907,69.812 L43.751,67.071 L43.594,64.330 L43.438,61.589 L43.282,58.848 L43.126,56.107 L42.970,53.366 L42.814,50.625 L42.657,47.883 L42.501,45.142 L42.345,42.401 L42.189,39.660 L42.033,36.919 L41.877,34.178 L41.720,31.437 L41.564,28.696 L41.408,25.955 L41.252,23.214 L41.096,20.472 L40.940,17.731 L40.783,14.990 L40.627,12.249 L40.471,9.508 L40.315,6.767 L40.159,4.026 L40.002,1.285 L40.042,1.984 L40.002,1.285 L40.042,1.984 L40.002,1.285 M45.000,89.000 L44.987,88.300 L45.000,89.000 L44.987,88.300 L45.000,89.000 L44.948,86.251 L44.896,83.502 L44.844,80.753 L44.791,78.004 L44.739,75.255 L44.687,72.506 L44.635,69.757 L44.583,67.008 L44.531,64.259 L44.478,61.510 L44.426,58.761 L44.374,56.012 L44.322,53.263 L44.270,50.514 L44.218,47.765 L44.165,45.016 L44.113,42.267 L44.061,39.518 L44.009,36.769 L43.957,34.020 L43.905,31.271 L43.853,28.522 L43.800,25.773 L43.748,23.024 L43.696,20.275 L43.644,17.526 L43.592,14.777 L43.540,12.028 L43.487,9.279 L43.435,6.530 L43.383,3.781 L43.331,1.032 L43.344,1.732 L43.331,1.032 L43.344,1.732 L43.331,1.032 M45.000,89.000 L45.013,88.300 L45.000,89.000 L45.013,88.300 L45.000,89.000 L45.052,86.251 L45.104,83.502 L45.156,80.753 L45.209,78.004 L45.261,75.255 L45.313,72.506 L45.365,69.757 L45.417,67.008 L45.469,64.259 L45.522,61.510 L45.574,58.761 L45.626,56.012 L45.678,53.263 L45.730,50.514 L45.782,47.765 L45.835,45.016 L45.887,42.267 L45.939,39.518 L45.991,36.769 L46.043,34.020 L46.095,31.271 L46.147,28.522 L46.200,25.773 L46.252,23.024 L46.304,20.275 L46.356,17.526 L46.408,14.777 L46.460,12.028 L46.513,9.279 L46.565,6.530 L46.617,3.781 L46.669,1.032 L46.656,1.732 L46.669,1.032 L46.656,1.732 L46.669,1.032 M45.000,89.000 L45.040,88.301 L45.000,89.000 L45.040,88.301 L45.000,89.000 L45.156,86.259 L45.312,83.518 L45.469,80.777 L45.625,78.036 L45.781,75.294 L45.937,72.553 L46.093,69.812 L46.249,67.071 L46.406,64.330 L46.562,61.589 L46.718,58.848 L46.874,56.107 L47.030,53.366 L47.186,50.625 L47.343,47.883 L47.499,45.142 L47.655,42.401 L47.811,39.660 L47.967,36.919 L48.123,34.178 L48.280,31.437 L48.436,28.696 L48.592,25.955 L48.748,23.214 L48.904,20.472 L49.060,17.731 L49.217,14.990 L49.373,12.249 L49.529,9.508 L49.685,6.767 L49.841,4.026 L49.998,1.285 L49.958,1.984 L49.998,1.285 L49.958,1.984 L49.998,1.285 M45.000,89.000 L45.066,88.303 L45.000,89.000 L45.066,88.303 L45.000,89.000 L45.259,86.275 L45.519,83.549 L45.778,80.824 L46.037,78.099 L46.296,75.373 L46.556,72.648 L46.815,69.923 L47.074,67.197 L47.334,64.472 L47.593,61.747 L47.852,59.021 L48.111,56.296 L48.371,53.571 L48.630,50.845 L48.889,48.120 L49.149,45.395 L49.408,42.669 L49.667,39.944 L49.926,37.219 L50.186,34.493 L50.445,31.768 L50.704,29.043 L50.964,26.317 L51.223,23.592 L51.482,20.867 L51.742,18.141 L52.001,15.416 L52.260,12.691 L52.519,9.965 L52.779,7.240 L53.038,4.515 L53.297,1.789 L53.231,2.486 L53.297,1.789 L53.231,2.486 L53.297,1.789 M45.000,89.000 L45.093,88.306 L45.000,89.000 L45.093,88.306 L45.000,89.000 L45.361,86.298 L45.722,83.596 L46.083,80.895 L46.444,78.193 L46.805,75.491 L47.165,72.789 L47.526,70.087 L47.887,67.386 L48.248,64.684 L48.609,61.982 L48.970,59.280 L49.331,56.579 L49.692,53.877 L50.053,51.175 L50.414,48.473 L50.775,45.771 L51.136,43.070 L51.496,40.368 L51.857,37.666 L52.218,34.964 L52.579,32.262 L52.940,29.561 L53.301,26.859 L53.662,24.157 L54.023,21.455 L54.384,18.754 L54.745,16.052 L55.106,13.350 L55.466,10.648 L55.827,7.946 L56.188,5.245 L56.549,2.543 L56.457,3.237 L56.549,2.543 L56.457,3.237 L56.549,2.543 M45.000,89.000 L45.119,88.310 L45.000,89.000 L45.119,88.310 L45.000,89.000 L45.475,86.243 L45.951,83.486 L46.426,80.730 L46.901,77.973 L47.377,75.216 L47.852,72.459 L48.327,69.703 L48.803,66.946 L49.278,64.189 L49.753,61.432 L50.228,58.676 L50.704,55.919 L51.179,53.162 L51.654,50.405 L52.130,47.649 L52.605,44.892 L53.080,42.135 L53.556,39.378 L54.031,36.622 L54.506,33.865 L54.982,31.108 L55.457,28.351 L55.932,25.595 L56.408,22.838 L56.883,20.081 L57.358,17.324 L57.833,14.568 L58.309,11.811 L58.784,9.054 L59.259,6.297 L59.735,3.541 L59.616,4.230 L59.735,3.541 L59.616,4.230 L59.735,3.541 M45.000,89.000 L45.145,88.315 L45.000,89.000 L45.145,88.315 L45.000,89.000 L45.575,86.283 L46.151,83.566 L46.726,80.849 L47.301,78.133 L47.877,75.416 L48.452,72.699 L49.027,69.982 L49.603,67.265 L50.178,64.548 L50.753,61.831 L51.329,59.114 L51.904,56.398 L52.479,53.681 L53.055,50.964 L53.630,48.247 L54.205,45.530 L54.781,42.813 L55.356,40.096 L55.931,37.379 L56.507,34.663 L57.082,31.946 L57.657,29.229 L58.233,26.512 L58.808,23.795 L59.383,21.078 L59.959,18.361 L60.534,15.644 L61.109,12.928 L61.685,10.211 L62.260,7.494 L62.835,4.777 L62.690,5.462 L62.835,4.777 L62.690,5.462 L62.835,4.777 M45.000,89.000 L45.171,88.321 L45.000,89.000 L45.171,88.321 L45.000,89.000 L45.672,86.330 L46.344,83.661 L47.016,80.991 L47.688,78.322 L48.360,75.652 L49.032,72.983 L49.704,70.313 L50.376,67.644 L51.048,64.974 L51.720,62.305 L52.393,59.635 L53.065,56.966 L53.737,54.296 L54.409,51.627 L55.081,48.957 L55.753,46.288 L56.425,43.618 L57.097,40.949 L57.769,38.279 L58.441,35.610 L59.113,32.940 L59.785,30.270 L60.457,27.601 L61.129,24.931 L61.801,22.262 L62.473,19.592 L63.145,16.923 L63.817,14.253 L64.489,11.584 L65.161,8.914 L65.833,6.245 L65.663,6.924 L65.833,6.245 L65.663,6.924 L65.833,6.245 M45.000,89.000 L45.197,88.328 L45.000,89.000 L45.197,88.328 L45.000,89.000 L45.765,86.385 L46.530,83.770 L47.295,81.155 L48.060,78.540 L48.824,75.925 L49.589,73.310 L50.354,70.695 L51.119,68.080 L51.884,65.465 L52.649,62.850 L53.414,60.235 L54.179,57.620 L54.944,55.005 L55.708,52.390 L56.473,49.775 L57.238,47.160 L58.003,44.545 L58.768,41.930 L59.533,39.315 L60.298,36.700 L61.063,34.085 L61.828,31.470 L62.592,28.856 L63.357,26.241 L64.122,23.626 L64.887,21.011 L65.652,18.396 L66.417,15.781 L67.182,13.166 L67.947,10.551 L68.712,7.936 L68.515,8.608 L68.712,7.936 L68.515,8.608 L68.712,7.936 M45.000,89.000 L45.222,88.336 L45.000,89.000 L45.222,88.336 L45.000,89.000 L45.882,86.361 L46.764,83.723 L47.645,81.084 L48.527,78.445 L49.409,75.807 L50.291,73.168 L51.172,70.529 L52.054,67.891 L52.936,65.252 L53.818,62.613 L54.700,59.975 L55.581,57.336 L56.463,54.697 L57.345,52.059 L58.227,49.420 L59.108,46.781 L59.990,44.143 L60.872,41.504 L61.754,38.865 L62.635,36.227 L63.517,33.588 L64.399,30.949 L65.281,28.311 L66.163,25.672 L67.044,23.033 L67.926,20.395 L68.808,17.756 L69.690,15.117 L70.571,12.479 L71.453,9.840 L71.231,10.504 L71.453,9.840 L71.231,10.504 L71.453,9.840 M45.000,89.000 L45.247,88.345 L45.000,89.000 L45.247,88.345 L45.000,89.000 L45.968,86.432 L46.936,83.863 L47.904,81.295 L48.872,78.726 L49.840,76.158 L50.809,73.589 L51.777,71.021 L52.745,68.452 L53.713,65.884 L54.681,63.316 L55.649,60.747 L56.617,58.179 L57.585,55.610 L58.553,53.042 L59.521,50.473 L60.489,47.905 L61.457,45.336 L62.426,42.768 L63.394,40.200 L64.362,37.631 L65.330,35.063 L66.298,32.494 L67.266,29.926 L68.234,27.357 L69.202,24.789 L70.170,22.220 L71.138,19.652 L72.106,17.083 L73.074,14.515 L74.043,11.947 L73.796,12.602 L74.043,11.947 L73.796,12.602 L74.043,11.947 M45.000,89.000 L45.272,88.355 L45.000,89.000 L45.272,88.355 L45.000,89.000 L46.085,86.422 L47.170,83.844 L48.255,81.267 L49.340,78.689 L50.425,76.111 L51.510,73.533 L52.595,70.955 L53.680,68.378 L54.765,65.800 L55.850,63.222 L56.935,60.644 L58.020,58.066 L59.105,55.488 L60.190,52.911 L61.275,50.333 L62.360,47.755 L63.445,45.177 L64.530,42.599 L65.615,40.022 L66.700,37.444 L67.785,34.866 L68.870,32.288 L69.955,29.710 L71.040,27.133 L72.125,24.555 L73.210,21.977 L74.295,19.399 L75.380,16.821 L76.465,14.243 L76.193,14.889 L76.465,14.243 L76.193,14.889 L76.465,14.243 M45.000,89.000 L45.296,88.366 L45.000,89.000 L45.296,88.366 L45.000,89.000 L46.162,86.507 L47.325,84.015 L48.487,81.522 L49.649,79.030 L50.811,76.537 L51.974,74.045 L53.136,71.552 L54.298,69.060 L55.460,66.567 L56.623,64.075 L57.785,61.582 L58.947,59.090 L60.110,56.597 L61.272,54.105 L62.434,51.612 L63.596,49.120 L64.759,46.627 L65.921,44.135 L67.083,41.642 L68.245,39.150 L69.408,36.657 L70.570,34.165 L71.732,31.672 L72.895,29.180 L74.057,26.687 L75.219,24.195 L76.381,21.702 L77.544,19.210 L78.706,16.717 L78.410,17.352 L78.706,16.717 L78.410,17.352 L78.706,16.717 M1.000,45.000 L1.526,44.538 L1.000,45.000 L1.526,44.538 L1.000,45.000 L3.073,43.182 L5.145,41.365 L7.218,39.547 L9.291,37.729 L11.363,35.912 L13.436,34.094 L15.508,32.276 L17.581,30.459 L19.654,28.641 L21.726,26.824 L23.799,25.006 L25.872,23.188 L27.944,21.371 L30.017,19.553 L32.089,17.735 L34.162,15.918 L36.235,14.100 L38.307,12.282 L40.380,10.465 L42.453,8.647 L44.525,6.829 L46.598,5.012 L48.671,3.194 L50.743,1.376 L50.217,1.838 L50.743,1.376 L50.217,1.838 L50.743,1.376 M1.000,45.000 L1.554,44.572 L1.000,45.000 L1.554,44.572 L1.000,45.000 L3.206,43.297 L5.412,41.595 L7.618,39.892 L9.823,38.190 L12.029,36.487 L14.235,34.784 L16.441,33.082 L18.647,31.379 L20.853,29.677 L23.058,27.974 L25.264,26.271 L27.470,24.569 L29.676,22.866 L31.882,21.164 L34.088,19.461 L36.293,17.758 L38.499,16.056 L40.705,14.353 L42.911,12.651 L45.117,10.948 L47.323,9.246 L49.528,7.543 L51.734,5.840 L53.940,4.138 L56.146,2.435 L55.592,2.863 L56.146,2.435 L55.592,2.863 L56.146,2.435 M1.000,45.000 L1.580,44.608 L1.000,45.000 L1.580,44.608 L1.000,45.000 L3.236,43.487 L5.472,41.975 L7.708,40.462 L9.944,38.950 L12.180,37.437 L14.417,35.925 L16.653,34.412 L18.889,32.899 L21.125,31.387 L23.361,29.874 L25.597,28.362 L27.833,26.849 L30.069,25.336 L32.305,23.824 L34.541,22.311 L36.777,20.799 L39.013,19.286 L41.250,17.774 L43.486,16.261 L45.722,14.748 L47.958,13.236 L50.194,11.723 L52.430,10.211 L54.666,8.698 L56.902,7.185 L59.138,5.673 L61.374,4.160 L60.794,4.552 L61.374,4.160 L60.794,4.552 L61.374,4.160 M1.000,45.000 L1.603,44.645 L1.000,45.000 L1.603,44.645 L1.000,45.000 L3.334,43.626 L5.668,42.252 L8.001,40.878 L10.335,39.504 L12.669,38.129 L15.003,36.755 L17.337,35.381 L19.670,34.007 L22.004,32.633 L24.338,31.259 L26.672,29.885 L29.006,28.511 L31.339,27.137 L33.673,25.762 L36.007,24.388 L38.341,23.014 L40.674,21.640 L43.008,20.266 L45.342,18.892 L47.676,17.518 L50.010,16.144 L52.343,14.770 L54.677,13.395 L57.011,12.021 L59.345,10.647 L61.679,9.273 L64.012,7.899 L66.346,6.525 L65.743,6.880 L66.346,6.525 L65.743,6.880 L66.346,6.525 M1.000,45.000 L1.624,44.683 L1.000,45.000 L1.624,44.683 L1.000,45.000 L3.413,43.776 L5.826,42.551 L8.240,41.327 L10.653,40.102 L13.066,38.878 L15.479,37.653 L17.893,36.429 L20.306,35.205 L22.719,33.980 L25.132,32.756 L27.546,31.531 L29.959,30.307 L32.372,29.083 L34.785,27.858 L37.199,26.634 L39.612,25.409 L42.025,24.185 L44.438,22.960 L46.852,21.736 L49.265,20.512 L51.678,19.287 L54.091,18.063 L56.505,16.838 L58.918,15.614 L61.331,14.389 L63.744,13.165 L66.157,11.941 L68.571,10.716 L70.984,9.492 L70.360,9.809 L70.984,9.492 L70.360,9.809 L70.984,9.492 M1.000,45.000 L1.643,44.723 L1.000,45.000 L1.643,44.723 L1.000,45.000 L3.559,43.897 L6.118,42.794 L8.677,41.691 L11.237,40.588 L13.796,39.485 L16.355,38.382 L18.914,37.279 L21.473,36.176 L24.032,35.074 L26.591,33.971 L29.150,32.868 L31.710,31.765 L34.269,30.662 L36.828,29.559 L39.387,28.456 L41.946,27.353 L44.505,26.250 L47.064,25.147 L49.624,24.044 L52.183,22.941 L54.742,21.838 L57.301,20.735 L59.860,19.632 L62.419,18.529 L64.978,17.426 L67.537,16.323 L70.097,15.221 L72.656,14.118 L75.215,13.015 L74.572,13.292 L75.215,13.015 L74.572,13.292 L75.215,13.015 M1.000,45.000 L1.659,44.764 L1.000,45.000 L1.659,44.764 L1.000,45.000 L3.599,44.068 L6.198,43.136 L8.797,42.204 L11.396,41.272 L13.995,40.340 L16.595,39.408 L19.194,38.476 L21.793,37.544 L24.392,36.611 L26.991,35.679 L29.590,34.747 L32.189,33.815 L34.788,32.883 L37.387,31.951 L39.986,31.019 L42.585,30.087 L45.185,29.155 L47.784,28.223 L50.383,27.291 L52.982,26.359 L55.581,25.427 L58.180,24.495 L60.779,23.563 L63.378,22.631 L65.977,21.699 L68.576,20.767 L71.175,19.834 L73.775,18.902 L76.374,17.970 L78.973,17.038 L78.314,17.275 L78.973,17.038 L78.314,17.275 L78.973,17.038 M1.000,45.000 L1.672,44.805 L1.000,45.000 L1.672,44.805 L1.000,45.000 L3.619,44.242 L6.239,43.484 L8.858,42.726 L11.477,41.968 L14.097,41.210 L16.716,40.452 L19.335,39.694 L21.954,38.935 L24.574,38.177 L27.193,37.419 L29.812,36.661 L32.432,35.903 L35.051,35.145 L37.670,34.387 L40.290,33.629 L42.909,32.871 L45.528,32.113 L48.148,31.355 L50.767,30.597 L53.386,29.839 L56.006,29.081 L58.625,28.322 L61.244,27.564 L63.863,26.806 L66.483,26.048 L69.102,25.290 L71.721,24.532 L74.341,23.774 L76.960,23.016 L79.579,22.258 L82.199,21.500 L81.526,21.694 L82.199,21.500 L81.526,21.694 L82.199,21.500 M1.000,45.000 L1.683,44.848 L1.000,45.000 L1.683,44.848 L1.000,45.000 L3.705,44.398 L6.409,43.795 L9.114,43.193 L11.818,42.591 L14.523,41.989 L17.228,41.386 L19.932,40.784 L22.637,40.182 L25.341,39.579 L28.046,38.977 L30.750,38.375 L33.455,37.773 L36.160,37.170 L38.864,36.568 L41.569,35.966 L44.273,35.363 L46.978,34.761 L49.683,34.159 L52.387,33.557 L55.092,32.954 L57.796,32.352 L60.501,31.750 L63.205,31.147 L65.910,30.545 L68.615,29.943 L71.319,29.341 L74.024,28.738 L76.728,28.136 L79.433,27.534 L82.138,26.931 L84.842,26.329 L84.159,26.481 L84.842,26.329 L84.159,26.481 L84.842,26.329 M1.000,45.000 L1.691,44.891 L1.000,45.000 L1.691,44.891 L1.000,45.000 L3.683,44.577 L6.366,44.153 L9.050,43.730 L11.733,43.306 L14.416,42.883 L17.099,42.460 L19.782,42.036 L22.465,41.613 L25.149,41.189 L27.832,40.766 L30.515,40.342 L33.198,39.919 L35.881,39.496 L38.565,39.072 L41.248,38.649 L43.931,38.225 L46.614,37.802 L49.297,37.379 L51.981,36.955 L54.664,36.532 L57.347,36.108 L60.030,35.685 L62.713,35.262 L65.396,34.838 L68.080,34.415 L70.763,33.991 L73.446,33.568 L76.129,33.145 L78.812,32.721 L81.496,32.298 L84.179,31.874 L86.862,31.451 L86.170,31.560 L86.862,31.451 L86.170,31.560 L86.862,31.451 M1.000,45.000 L1.697,44.934 L1.000,45.000 L1.697,44.934 L1.000,45.000 L3.726,44.743 L6.452,44.487 L9.177,44.230 L11.903,43.973 L14.629,43.716 L17.355,43.460 L20.081,43.203 L22.807,42.946 L25.532,42.689 L28.258,42.433 L30.984,42.176 L33.710,41.919 L36.436,41.663 L39.161,41.406 L41.887,41.149 L44.613,40.892 L47.339,40.636 L50.065,40.379 L52.791,40.122 L55.516,39.865 L58.242,39.609 L60.968,39.352 L63.694,39.095 L66.420,38.839 L69.146,38.582 L71.871,38.325 L74.597,38.068 L77.323,37.812 L80.049,37.555 L82.775,37.298 L85.500,37.041 L88.226,36.785 L87.529,36.850 L88.226,36.785 L87.529,36.850 L88.226,36.785 M1.000,45.000 L1.700,44.978 L1.000,45.000 L1.700,44.978 L1.000,45.000 L3.747,44.914 L6.495,44.828 L9.242,44.742 L11.989,44.656 L14.737,44.570 L17.484,44.484 L20.231,44.398 L22.978,44.312 L25.726,44.226 L28.473,44.140 L31.220,44.054 L33.968,43.968 L36.715,43.882 L39.462,43.796 L42.210,43.710 L44.957,43.624 L47.704,43.538 L50.452,43.452 L53.199,43.366 L55.946,43.280 L58.693,43.193 L61.441,43.107 L64.188,43.021 L66.935,42.935 L69.683,42.849 L72.430,42.763 L75.177,42.677 L77.925,42.591 L80.672,42.505 L83.419,42.419 L86.166,42.333 L88.914,42.247 L88.214,42.269 L88.914,42.247 L88.214,42.269 L88.914,42.247 M1.000,45.000 L1.700,45.022 L1.000,45.000 L1.700,45.022 L1.000,45.000 L3.747,45.086 L6.495,45.172 L9.242,45.258 L11.989,45.344 L14.737,45.430 L17.484,45.516 L20.231,45.602 L22.978,45.688 L25.726,45.774 L28.473,45.860 L31.220,45.946 L33.968,46.032 L36.715,46.118 L39.462,46.204 L42.210,46.290 L44.957,46.376 L47.704,46.462 L50.452,46.548 L53.199,46.634 L55.946,46.720 L58.693,46.807 L61.441,46.893 L64.188,46.979 L66.935,47.065 L69.683,47.151 L72.430,47.237 L75.177,47.323 L77.925,47.409 L80.672,47.495 L83.419,47.581 L86.166,47.667 L88.914,47.753 L88.214,47.731 L88.914,47.753 L88.214,47.731 L88.914,47.753 M1.000,45.000 L1.697,45.066 L1.000,45.000 L1.697,45.066 L1.000,45.000 L3.726,45.257 L6.452,45.513 L9.177,45.770 L11.903,46.027 L14.629,46.284 L17.355,46.540 L20.081,46.797 L22.807,47.054 L25.532,47.311 L28.258,47.567 L30.984,47.824 L33.710,48.081 L36.436,48.337 L39.161,48.594 L41.887,48.851 L44.613,49.108 L47.339,49.364 L50.065,49.621 L52.791,49.878 L55.516,50.135 L58.242,50.391 L60.968,50.648 L63.694,50.905 L66.420,51.161 L69.146,51.418 L71.871,51.675 L74.597,51.932 L77.323,52.188 L80.049,52.445 L82.775,52.702 L85.500,52.959 L88.226,53.215 L87.529,53.150 L88.226,53.215 L87.529,53.150 L88.226,53.215 M1.000,45.000 L1.691,45.109 L1.000,45.000 L1.691,45.109 L1.000,45.000 L3.683,45.423 L6.366,45.847 L9.050,46.270 L11.733,46.694 L14.416,47.117 L17.099,47.540 L19.782,47.964 L22.465,48.387 L25.149,48.811 L27.832,49.234 L30.515,49.658 L33.198,50.081 L35.881,50.504 L38.565,50.928 L41.248,51.351 L43.931,51.775 L46.614,52.198 L49.297,52.621 L51.981,53.045 L54.664,53.468 L57.347,53.892 L60.030,54.315 L62.713,54.738 L65.396,55.162 L68.080,55.585 L70.763,56.009 L73.446,56.432 L76.129,56.855 L78.812,57.279 L81.496,57.702 L84.179,58.126 L86.862,58.549 L86.170,58.440 L86.862,58.549 L86.170,58.440 L86.862,58.549 M1.000,45.000 L1.683,45.152 L1.000,45.000 L1.683,45.152 L1.000,45.000 L3.705,45.602 L6.409,46.205 L9.114,46.807 L11.818,47.409 L14.523,48.011 L17.228,48.614 L19.932,49.216 L22.637,49.818 L25.341,50.421 L28.046,51.023 L30.750,51.625 L33.455,52.227 L36.160,52.830 L38.864,53.432 L41.569,54.034 L44.273,54.637 L46.978,55.239 L49.683,55.841 L52.387,56.443 L55.092,57.046 L57.796,57.648 L60.501,58.250 L63.205,58.853 L65.910,59.455 L68.615,60.057 L71.319,60.659 L74.024,61.262 L76.728,61.864 L79.433,62.466 L82.138,63.069 L84.842,63.671 L84.159,63.519 L84.842,63.671 L84.159,63.519 L84.842,63.671 M1.000,45.000 L1.672,45.195 L1.000,45.000 L1.672,45.195 L1.000,45.000 L3.619,45.758 L6.239,46.516 L8.858,47.274 L11.477,48.032 L14.097,48.790 L16.716,49.548 L19.335,50.306 L21.954,51.065 L24.574,51.823 L27.193,52.581 L29.812,53.339 L32.432,54.097 L35.051,54.855 L37.670,55.613 L40.290,56.371 L42.909,57.129 L45.528,57.887 L48.148,58.645 L50.767,59.403 L53.386,60.161 L56.006,60.919 L58.625,61.678 L61.244,62.436 L63.863,63.194 L66.483,63.952 L69.102,64.710 L71.721,65.468 L74.341,66.226 L76.960,66.984 L79.579,67.742 L82.199,68.500 L81.526,68.306 L82.199,68.500 L81.526,68.306 L82.199,68.500 M1.000,45.000 L1.659,45.236 L1.000,45.000 L1.659,45.236 L1.000,45.000 L3.599,45.932 L6.198,46.864 L8.797,47.796 L11.396,48.728 L13.995,49.660 L16.595,50.592 L19.194,51.524 L21.793,52.456 L24.392,53.389 L26.991,54.321 L29.590,55.253 L32.189,56.185 L34.788,57.117 L37.387,58.049 L39.986,58.981 L42.585,59.913 L45.185,60.845 L47.784,61.777 L50.383,62.709 L52.982,63.641 L55.581,64.573 L58.180,65.505 L60.779,66.437 L63.378,67.369 L65.977,68.301 L68.576,69.233 L71.175,70.166 L73.775,71.098 L76.374,72.030 L78.973,72.962 L78.314,72.725 L78.973,72.962 L78.314,72.725 L78.973,72.962 M1.000,45.000 L1.643,45.277 L1.000,45.000 L1.643,45.277 L1.000,45.000 L3.559,46.103 L6.118,47.206 L8.677,48.309 L11.237,49.412 L13.796,50.515 L16.355,51.618 L18.914,52.721 L21.473,53.824 L24.032,54.926 L26.591,56.029 L29.150,57.132 L31.710,58.235 L34.269,59.338 L36.828,60.441 L39.387,61.544 L41.946,62.647 L44.505,63.750 L47.064,64.853 L49.624,65.956 L52.183,67.059 L54.742,68.162 L57.301,69.265 L59.860,70.368 L62.419,71.471 L64.978,72.574 L67.537,73.677 L70.097,74.779 L72.656,75.882 L75.215,76.985 L74.572,76.708 L75.215,76.985 L74.572,76.708 L75.215,76.985 M1.000,45.000 L1.624,45.317 L1.000,45.000 L1.624,45.317 L1.000,45.000 L3.413,46.224 L5.826,47.449 L8.240,48.673 L10.653,49.898 L13.066,51.122 L15.479,52.347 L17.893,53.571 L20.306,54.795 L22.719,56.020 L25.132,57.244 L27.546,58.469 L29.959,59.693 L32.372,60.917 L34.785,62.142 L37.199,63.366 L39.612,64.591 L42.025,65.815 L44.438,67.040 L46.852,68.264 L49.265,69.488 L51.678,70.713 L54.091,71.937 L56.505,73.162 L58.918,74.386 L61.331,75.611 L63.744,76.835 L66.157,78.059 L68.571,79.284 L70.984,80.508 L70.360,80.191 L70.984,80.508 L70.360,80.191 L70.984,80.508 M1.000,45.000 L1.603,45.355 L1.000,45.000 L1.603,45.355 L1.000,45.000 L3.334,46.374 L5.668,47.748 L8.001,49.122 L10.335,50.496 L12.669,51.871 L15.003,53.245 L17.337,54.619 L19.670,55.993 L22.004,57.367 L24.338,58.741 L26.672,60.115 L29.006,61.489 L31.339,62.863 L33.673,64.238 L36.007,65.612 L38.341,66.986 L40.674,68.360 L43.008,69.734 L45.342,71.108 L47.676,72.482 L50.010,73.856 L52.343,75.230 L54.677,76.605 L57.011,77.979 L59.345,79.353 L61.679,80.727 L64.012,82.101 L66.346,83.475 L65.743,83.120 L66.346,83.475 L65.743,83.120 L66.346,83.475 M1.000,45.000 L1.580,45.392 L1.000,45.000 L1.580,45.392 L1.000,45.000 L3.236,46.513 L5.472,48.025 L7.708,49.538 L9.944,51.050 L12.180,52.563 L14.417,54.075 L16.653,55.588 L18.889,57.101 L21.125,58.613 L23.361,60.126 L25.597,61.638 L27.833,63.151 L30.069,64.664 L32.305,66.176 L34.541,67.689 L36.777,69.201 L39.013,70.714 L41.250,72.226 L43.486,73.739 L45.722,75.252 L47.958,76.764 L50.194,78.277 L52.430,79.789 L54.666,81.302 L56.902,82.815 L59.138,84.327 L61.374,85.840 L60.794,85.448 L61.374,85.840 L60.794,85.448 L61.374,85.840 M1.000,45.000 L1.554,45.428 L1.000,45.000 L1.554,45.428 L1.000,45.000 L3.206,46.703 L5.412,48.405 L7.618,50.108 L9.823,51.810 L12.029,53.513 L14.235,55.216 L16.441,56.918 L18.647,58.621 L20.853,60.323 L23.058,62.026 L25.264,63.729 L27.470,65.431 L29.676,67.134 L31.882,68.836 L34.088,70.539 L36.293,72.242 L38.499,73.944 L40.705,75.647 L42.911,77.349 L45.117,79.052 L47.323,80.754 L49.528,82.457 L51.734,84.160 L53.940,85.862 L56.146,87.565 L55.592,87.137 L56.146,87.565 L55.592,87.137 L56.146,87.565 M1.000,45.000 L1.526,45.462 L1.000,45.000 L1.526,45.462 L1.000,45.000 L3.073,46.818 L5.145,48.635 L7.218,50.453 L9.291,52.271 L11.363,54.088 L13.436,55.906 L15.508,57.724 L17.581,59.541 L19.654,61.359 L21.726,63.176 L23.799,64.994 L25.872,66.812 L27.944,68.629 L30.017,70.447 L32.089,72.265 L34.162,74.082 L36.235,75.900 L38.307,77.718 L40.380,79.535 L42.453,81.353 L44.525,83.171 L46.598,84.988 L48.671,86.806 L50.743,88.624 L50.217,88.162 L50.743,88.624 L50.217,88.162 L50.743,88.624 M89.000,45.000 L88.474,45.462 L89.000,45.000 L88.474,45.462 L89.000,45.000 L86.927,46.818 L84.855,48.635 L82.782,50.453 L80.709,52.271 L78.637,54.088 L76.564,55.906 L74.492,57.724 L72.419,59.541 L70.346,61.359 L68.274,63.176 L66.201,64.994 L64.128,66.812 L62.056,68.629 L59.983,70.447 L57.911,72.265 L55.838,74.082 L53.765,75.900 L51.693,77.718 L49.620,79.535 L47.547,81.353 L45.475,83.171 L43.402,84.988 L41.329,86.806 L39.257,88.624 L39.783,88.162 L39.257,88.624 L39.783,88.162 L39.257,88.624 M89.000,45.000 L88.446,45.428 L89.000,45.000 L88.446,45.428 L89.000,45.000 L86.794,46.703 L84.588,48.405 L82.382,50.108 L80.177,51.810 L77.971,53.513 L75.765,55.216 L73.559,56.918 L71.353,58.621 L69.147,60.323 L66.942,62.026 L64.736,63.729 L62.530,65.431 L60.324,67.134 L58.118,68.836 L55.912,70.539 L53.707,72.242 L51.501,73.944 L49.295,75.647 L47.089,77.349 L44.883,79.052 L42.677,80.754 L40.472,82.457 L38.266,84.160 L36.060,85.862 L33.854,87.565 L34.408,87.137 L33.854,87.565 L34.408,87.137 L33.854,87.565 M89.000,45.000 L88.420,45.392 L89.000,45.000 L88.420,45.392 L89.000,45.000 L86.764,46.513 L84.528,48.025 L82.292,49.538 L80.056,51.050 L77.820,52.563 L75.583,54.075 L73.347,55.588 L71.111,57.101 L68.875,58.613 L66.639,60.126 L64.403,61.638 L62.167,63.151 L59.931,64.664 L57.695,66.176 L55.459,67.689 L53.223,69.201 L50.987,70.714 L48.750,72.226 L46.514,73.739 L44.278,75.252 L42.042,76.764 L39.806,78.277 L37.570,79.789 L35.334,81.302 L33.098,82.815 L30.862,84.327 L28.626,85.840 L29.206,85.448 L28.626,85.840 L29.206,85.448 L28.626,85.840 M89.000,45.000 L88.397,45.355 L89.000,45.000 L88.397,45.355 L89.000,45.000 L86.666,46.374 L84.332,47.748 L81.999,49.122 L79.665,50.496 L77.331,51.871 L74.997,53.245 L72.663,54.619 L70.330,55.993 L67.996,57.367 L65.662,58.741 L63.328,60.115 L60.994,61.489 L58.661,62.863 L56.327,64.238 L53.993,65.612 L51.659,66.986 L49.326,68.360 L46.992,69.734 L44.658,71.108 L42.324,72.482 L39.990,73.856 L37.657,75.230 L35.323,76.605 L32.989,77.979 L30.655,79.353 L28.321,80.727 L25.988,82.101 L23.654,83.475 L24.257,83.120 L23.654,83.475 L24.257,83.120 L23.654,83.475 M89.000,45.000 L88.376,45.317 L89.000,45.000 L88.376,45.317 L89.000,45.000 L86.587,46.224 L84.174,47.449 L81.760,48.673 L79.347,49.898 L76.934,51.122 L74.521,52.347 L72.107,53.571 L69.694,54.795 L67.281,56.020 L64.868,57.244 L62.454,58.469 L60.041,59.693 L57.628,60.917 L55.215,62.142 L52.801,63.366 L50.388,64.591 L47.975,65.815 L45.562,67.040 L43.148,68.264 L40.735,69.488 L38.322,70.713 L35.909,71.937 L33.495,73.162 L31.082,74.386 L28.669,75.611 L26.256,76.835 L23.843,78.059 L21.429,79.284 L19.016,80.508 L19.640,80.191 L19.016,80.508 L19.640,80.191 L19.016,80.508 M89.000,45.000 L88.357,45.277 L89.000,45.000 L88.357,45.277 L89.000,45.000 L86.441,46.103 L83.882,47.206 L81.323,48.309 L78.763,49.412 L76.204,50.515 L73.645,51.618 L71.086,52.721 L68.527,53.824 L65.968,54.926 L63.409,56.029 L60.850,57.132 L58.290,58.235 L55.731,59.338 L53.172,60.441 L50.613,61.544 L48.054,62.647 L45.495,63.750 L42.936,64.853 L40.376,65.956 L37.817,67.059 L35.258,68.162 L32.699,69.265 L30.140,70.368 L27.581,71.471 L25.022,72.574 L22.463,73.677 L19.903,74.779 L17.344,75.882 L14.785,76.985 L15.428,76.708 L14.785,76.985 L15.428,76.708 L14.785,76.985 M89.000,45.000 L88.341,45.236 L89.000,45.000 L88.341,45.236 L89.000,45.000 L86.401,45.932 L83.802,46.864 L81.203,47.796 L78.604,48.728 L76.005,49.660 L73.405,50.592 L70.806,51.524 L68.207,52.456 L65.608,53.389 L63.009,54.321 L60.410,55.253 L57.811,56.185 L55.212,57.117 L52.613,58.049 L50.014,58.981 L47.415,59.913 L44.815,60.845 L42.216,61.777 L39.617,62.709 L37.018,63.641 L34.419,64.573 L31.820,65.505 L29.221,66.437 L26.622,67.369 L24.023,68.301 L21.424,69.233 L18.825,70.166 L16.225,71.098 L13.626,72.030 L11.027,72.962 L11.686,72.725 L11.027,72.962 L11.686,72.725 L11.027,72.962 M89.000,45.000 L88.328,45.195 L89.000,45.000 L88.328,45.195 L89.000,45.000 L86.381,45.758 L83.761,46.516 L81.142,47.274 L78.523,48.032 L75.903,48.790 L73.284,49.548 L70.665,50.306 L68.046,51.065 L65.426,51.823 L62.807,52.581 L60.188,53.339 L57.568,54.097 L54.949,54.855 L52.330,55.613 L49.710,56.371 L47.091,57.129 L44.472,57.887 L41.852,58.645 L39.233,59.403 L36.614,60.161 L33.994,60.919 L31.375,61.678 L28.756,62.436 L26.137,63.194 L23.517,63.952 L20.898,64.710 L18.279,65.468 L15.659,66.226 L13.040,66.984 L10.421,67.742 L7.801,68.500 L8.474,68.306 L7.801,68.500 L8.474,68.306 L7.801,68.500 M89.000,45.000 L88.317,45.152 L89.000,45.000 L88.317,45.152 L89.000,45.000 L86.295,45.602 L83.591,46.205 L80.886,46.807 L78.182,47.409 L75.477,48.011 L72.772,48.614 L70.068,49.216 L67.363,49.818 L64.659,50.421 L61.954,51.023 L59.250,51.625 L56.545,52.227 L53.840,52.830 L51.136,53.432 L48.431,54.034 L45.727,54.637 L43.022,55.239 L40.317,55.841 L37.613,56.443 L34.908,57.046 L32.204,57.648 L29.499,58.250 L26.795,58.853 L24.090,59.455 L21.385,60.057 L18.681,60.659 L15.976,61.262 L13.272,61.864 L10.567,62.466 L7.862,63.069 L5.158,63.671 L5.841,63.519 L5.158,63.671 L5.841,63.519 L5.158,63.671 M89.000,45.000 L88.309,45.109 L89.000,45.000 L88.309,45.109 L89.000,45.000 L86.317,45.423 L83.634,45.847 L80.950,46.270 L78.267,46.694 L75.584,47.117 L72.901,47.540 L70.218,47.964 L67.535,48.387 L64.851,48.811 L62.168,49.234 L59.485,49.658 L56.802,50.081 L54.119,50.504 L51.435,50.928 L48.752,51.351 L46.069,51.775 L43.386,52.198 L40.703,52.621 L38.019,53.045 L35.336,53.468 L32.653,53.892 L29.970,54.315 L27.287,54.738 L24.604,55.162 L21.920,55.585 L19.237,56.009 L16.554,56.432 L13.871,56.855 L11.188,57.279 L8.504,57.702 L5.821,58.126 L3.138,58.549 L3.830,58.440 L3.138,58.549 L3.830,58.440 L3.138,58.549 M89.000,45.000 L88.303,45.066 L89.000,45.000 L88.303,45.066 L89.000,45.000 L86.274,45.257 L83.548,45.513 L80.823,45.770 L78.097,46.027 L75.371,46.284 L72.645,46.540 L69.919,46.797 L67.193,47.054 L64.468,47.311 L61.742,47.567 L59.016,47.824 L56.290,48.081 L53.564,48.337 L50.839,48.594 L48.113,48.851 L45.387,49.108 L42.661,49.364 L39.935,49.621 L37.209,49.878 L34.484,50.135 L31.758,50.391 L29.032,50.648 L26.306,50.905 L23.580,51.161 L20.854,51.418 L18.129,51.675 L15.403,51.932 L12.677,52.188 L9.951,52.445 L7.225,52.702 L4.500,52.959 L1.774,53.215 L2.471,53.150 L1.774,53.215 L2.471,53.150 L1.774,53.215 M89.000,45.000 L88.300,45.022 L89.000,45.000 L88.300,45.022 L89.000,45.000 L86.253,45.086 L83.505,45.172 L80.758,45.258 L78.011,45.344 L75.263,45.430 L72.516,45.516 L69.769,45.602 L67.022,45.688 L64.274,45.774 L61.527,45.860 L58.780,45.946 L56.032,46.032 L53.285,46.118 L50.538,46.204 L47.790,46.290 L45.043,46.376 L42.296,46.462 L39.548,46.548 L36.801,46.634 L34.054,46.720 L31.307,46.807 L28.559,46.893 L25.812,46.979 L23.065,47.065 L20.317,47.151 L17.570,47.237 L14.823,47.323 L12.075,47.409 L9.328,47.495 L6.581,47.581 L3.834,47.667 L1.086,47.753 L1.786,47.731 L1.086,47.753 L1.786,47.731 L1.086,47.753 M89.000,45.000 L88.300,44.978 L89.000,45.000 L88.300,44.978 L89.000,45.000 L86.253,44.914 L83.505,44.828 L80.758,44.742 L78.011,44.656 L75.263,44.570 L72.516,44.484 L69.769,44.398 L67.022,44.312 L64.274,44.226 L61.527,44.140 L58.780,44.054 L56.032,43.968 L53.285,43.882 L50.538,43.796 L47.790,43.710 L45.043,43.624 L42.296,43.538 L39.548,43.452 L36.801,43.366 L34.054,43.280 L31.307,43.193 L28.559,43.107 L25.812,43.021 L23.065,42.935 L20.317,42.849 L17.570,42.763 L14.823,42.677 L12.075,42.591 L9.328,42.505 L6.581,42.419 L3.834,42.333 L1.086,42.247 L1.786,42.269 L1.086,42.247 L1.786,42.269 L1.086,42.247 M89.000,45.000 L88.303,44.934 L89.000,45.000 L88.303,44.934 L89.000,45.000 L86.274,44.743 L83.548,44.487 L80.823,44.230 L78.097,43.973 L75.371,43.716 L72.645,43.460 L69.919,43.203 L67.193,42.946 L64.468,42.689 L61.742,42.433 L59.016,42.176 L56.290,41.919 L53.564,41.663 L50.839,41.406 L48.113,41.149 L45.387,40.892 L42.661,40.636 L39.935,40.379 L37.209,40.122 L34.484,39.865 L31.758,39.609 L29.032,39.352 L26.306,39.095 L23.580,38.839 L20.854,38.582 L18.129,38.325 L15.403,38.068 L12.677,37.812 L9.951,37.555 L7.225,37.298 L4.500,37.041 L1.774,36.785 L2.471,36.850 L1.774,36.785 L2.471,36.850 L1.774,36.785 M89.000,45.000 L88.309,44.891 L89.000,45.000 L88.309,44.891 L89.000,45.000 L86.317,44.577 L83.634,44.153 L80.950,43.730 L78.267,43.306 L75.584,42.883 L72.901,42.460 L70.218,42.036 L67.535,41.613 L64.851,41.189 L62.168,40.766 L59.485,40.342 L56.802,39.919 L54.119,39.496 L51.435,39.072 L48.752,38.649 L46.069,38.225 L43.386,37.802 L40.703,37.379 L38.019,36.955 L35.336,36.532 L32.653,36.108 L29.970,35.685 L27.287,35.262 L24.604,34.838 L21.920,34.415 L19.237,33.991 L16.554,33.568 L13.871,33.145 L11.188,32.721 L8.504,32.298 L5.821,31.874 L3.138,31.451 L3.830,31.560 L3.138,31.451 L3.830,31.560 L3.138,31.451 M89.000,45.000 L88.317,44.848 L89.000,45.000 L88.317,44.848 L89.000,45.000 L86.295,44.398 L83.591,43.795 L80.886,43.193 L78.182,42.591 L75.477,41.989 L72.772,41.386 L70.068,40.784 L67.363,40.182 L64.659,39.579 L61.954,38.977 L59.250,38.375 L56.545,37.773 L53.840,37.170 L51.136,36.568 L48.431,35.966 L45.727,35.363 L43.022,34.761 L40.317,34.159 L37.613,33.557 L34.908,32.954 L32.204,32.352 L29.499,31.750 L26.795,31.147 L24.090,30.545 L21.385,29.943 L18.681,29.341 L15.976,28.738 L13.272,28.136 L10.567,27.534 L7.862,26.931 L5.158,26.329 L5.841,26.481 L5.158,26.329 L5.841,26.481 L5.158,26.329 M89.000,45.000 L88.328,44.805 L89.000,45.000 L88.328,44.805 L89.000,45.000 L86.381,44.242 L83.761,43.484 L81.142,42.726 L78.523,41.968 L75.903,41.210 L73.284,40.452 L70.665,39.694 L68.046,38.935 L65.426,38.177 L62.807,37.419 L60.188,36.661 L57.568,35.903 L54.949,35.145 L52.330,34.387 L49.710,33.629 L47.091,32.871 L44.472,32.113 L41.852,31.355 L39.233,30.597 L36.614,29.839 L33.994,29.081 L31.375,28.322 L28.756,27.564 L26.137,26.806 L23.517,26.048 L20.898,25.290 L18.279,24.532 L15.659,23.774 L13.040,23.016 L10.421,22.258 L7.801,21.500 L8.474,21.694 L7.801,21.500 L8.474,21.694 L7.801,21.500 M89.000,45.000 L88.341,44.764 L89.000,45.000 L88.341,44.764 L89.000,45.000 L86.401,44.068 L83.802,43.136 L81.203,42.204 L78.604,41.272 L76.005,40.340 L73.405,39.408 L70.806,38.476 L68.207,37.544 L65.608,36.611 L63.009,35.679 L60.410,34.747 L57.811,33.815 L55.212,32.883 L52.613,31.951 L50.014,31.019 L47.415,30.087 L44.815,29.155 L42.216,28.223 L39.617,27.291 L37.018,26.359 L34.419,25.427 L31.820,24.495 L29.221,23.563 L26.622,22.631 L24.023,21.699 L21.424,20.767 L18.825,19.834 L16.225,18.902 L13.626,17.970 L11.027,17.038 L11.686,17.275 L11.027,17.038 L11.686,17.275 L11.027,17.038 M89.000,45.000 L88.357,44.723 L89.000,45.000 L88.357,44.723 L89.000,45.000 L86.441,43.897 L83.882,42.794 L81.323,41.691 L78.763,40.588 L76.204,39.485 L73.645,38.382 L71.086,37.279 L68.527,36.176 L65.968,35.074 L63.409,33.971 L60.850,32.868 L58.290,31.765 L55.731,30.662 L53.172,29.559 L50.613,28.456 L48.054,27.353 L45.495,26.250 L42.936,25.147 L40.376,24.044 L37.817,22.941 L35.258,21.838 L32.699,20.735 L30.140,19.632 L27.581,18.529 L25.022,17.426 L22.463,16.323 L19.903,15.221 L17.344,14.118 L14.785,13.015 L15.428,13.292 L14.785,13.015 L15.428,13.292 L14.785,13.015 M89.000,45.000 L88.376,44.683 L89.000,45.000 L88.376,44.683 L89.000,45.000 L86.587,43.776 L84.174,42.551 L81.760,41.327 L79.347,40.102 L76.934,38.878 L74.521,37.653 L72.107,36.429 L69.694,35.205 L67.281,33.980 L64.868,32.756 L62.454,31.531 L60.041,30.307 L57.628,29.083 L55.215,27.858 L52.801,26.634 L50.388,25.409 L47.975,24.185 L45.562,22.960 L43.148,21.736 L40.735,20.512 L38.322,19.287 L35.909,18.063 L33.495,16.838 L31.082,15.614 L28.669,14.389 L26.256,13.165 L23.843,11.941 L21.429,10.716 L19.016,9.492 L19.640,9.809 L19.016,9.492 L19.640,9.809 L19.016,9.492 M89.000,45.000 L88.397,44.645 L89.000,45.000 L88.397,44.645 L89.000,45.000 L86.666,43.626 L84.332,42.252 L81.999,40.878 L79.665,39.504 L77.331,38.129 L74.997,36.755 L72.663,35.381 L70.330,34.007 L67.996,32.633 L65.662,31.259 L63.328,29.885 L60.994,28.511 L58.661,27.137 L56.327,25.762 L53.993,24.388 L51.659,23.014 L49.326,21.640 L46.992,20.266 L44.658,18.892 L42.324,17.518 L39.990,16.144 L37.657,14.770 L35.323,13.395 L32.989,12.021 L30.655,10.647 L28.321,9.273 L25.988,7.899 L23.654,6.525 L24.257,6.880 L23.654,6.525 L24.257,6.880 L23.654,6.525 M89.000,45.000 L88.420,44.608 L89.000,45.000 L88.420,44.608 L89.000,45.000 L86.764,43.487 L84.528,41.975 L82.292,40.462 L80.056,38.950 L77.820,37.437 L75.583,35.925 L73.347,34.412 L71.111,32.899 L68.875,31.387 L66.639,29.874 L64.403,28.362 L62.167,26.849 L59.931,25.336 L57.695,23.824 L55.459,22.311 L53.223,20.799 L50.987,19.286 L48.750,17.774 L46.514,16.261 L44.278,14.748 L42.042,13.236 L39.806,11.723 L37.570,10.211 L35.334,8.698 L33.098,7.185 L30.862,5.673 L28.626,4.160 L29.206,4.552 L28.626,4.160 L29.206,4.552 L28.626,4.160 M89.000,45.000 L88.446,44.572 L89.000,45.000 L88.446,44.572 L89.000,45.000 L86.794,43.297 L84.588,41.595 L82.382,39.892 L80.177,38.190 L77.971,36.487 L75.765,34.784 L73.559,33.082 L71.353,31.379 L69.147,29.677 L66.942,27.974 L64.736,26.271 L62.530,24.569 L60.324,22.866 L58.118,21.164 L55.912,19.461 L53.707,17.758 L51.501,16.056 L49.295,14.353 L47.089,12.651 L44.883,10.948 L42.677,9.246 L40.472,7.543 L38.266,5.840 L36.060,4.138 L33.854,2.435 L34.408,2.863 L33.854,2.435 L34.408,2.863 L33.854,2.435 M89.000,45.000 L88.474,44.538 L89.000,45.000 L88.474,44.538 L89.000,45.000 L86.927,43.182 L84.855,41.365 L82.782,39.547 L80.709,37.729 L78.637,35.912 L76.564,34.094 L74.492,32.276 L72.419,30.459 L70.346,28.641 L68.274,26.824 L66.201,25.006 L64.128,23.188 L62.056,21.371 L59.983,19.553 L57.911,17.735 L55.838,15.918 L53.765,14.100 L51.693,12.282 L49.620,10.465 L47.547,8.647 L45.475,6.829 L43.402,5.012 L41.329,3.194 L39.257,1.376 L39.783,1.838 L39.257,1.376 L39.783,1.838 L39.257,1.376 M45.000,1.000 L45.700,1.009 L45.000,1.000 L45.700,1.009 L45.000,1.000 L46.152,1.015 L47.303,1.060 L48.452,1.136 L49.599,1.241 L50.743,1.376 L51.883,1.542 L53.018,1.737 L54.148,1.962 L55.272,2.216 L56.388,2.499 L57.497,2.812 L58.597,3.154 L59.688,3.524 L60.768,3.922 L61.838,4.349 L62.896,4.804 L63.942,5.286 L64.976,5.796 L65.995,6.332 L67.000,6.895 L67.990,7.484 L68.964,8.098 L69.922,8.738 L70.863,9.403 L71.786,10.092 L72.690,10.806 L73.576,11.542 L74.442,12.302 L75.288,13.084 L76.113,13.887 L76.916,14.712 L77.698,15.558 L78.458,16.424 L79.194,17.310 L79.908,18.214 L80.597,19.137 L81.262,20.078 L81.902,21.036 L82.516,22.010 L83.105,23.000 L83.668,24.005 L84.204,25.024 L84.714,26.058 L85.196,27.104 L85.651,28.162 L86.078,29.232 L86.476,30.312 L86.846,31.403 L87.188,32.503 L87.501,33.612 L87.784,34.728 L88.038,35.852 L88.263,36.982 L88.458,38.117 L88.624,39.257 L88.759,40.401 L88.864,41.548 L88.940,42.697 L88.985,43.848 L89.000,45.000 L88.985,46.152 L88.940,47.303 L88.864,48.452 L88.759,49.599 L88.624,50.743 L88.458,51.883 L88.263,53.018 L88.038,54.148 L87.784,55.272 L87.501,56.388 L87.188,57.497 L86.846,58.597 L86.476,59.688 L86.078,60.768 L85.651,61.838 L85.196,62.896 L84.714,63.942 L84.204,64.976 L83.668,65.995 L83.105,67.000 L82.516,67.990 L81.902,68.964 L81.262,69.922 L80.597,70.863 L79.908,71.786 L79.194,72.690 L78.458,73.576 L77.698,74.442 L76.916,75.288 L76.113,76.113 L75.288,76.916 L74.442,77.698 L73.576,78.458 L72.690,79.194 L71.786,79.908 L70.863,80.597 L69.922,81.262 L68.964,81.902 L67.990,82.516 L67.000,83.105 L65.995,83.668 L64.976,84.204 L63.942,84.714 L62.896,85.196 L61.838,85.651 L60.768,86.078 L59.688,86.476 L58.597,86.846 L57.497,87.188 L56.388,87.501 L55.272,87.784 L54.148,88.038 L53.018,88.263 L51.883,88.458 L50.743,88.624 L49.599,88.759 L48.452,88.864 L47.303,88.940 L46.152,88.985 L45.000,89.000 L43.848,88.985 L42.697,88.940 L41.548,88.864 L40.401,88.759 L39.257,88.624 L38.117,88.458 L36.982,88.263 L35.852,88.038 L34.728,87.784 L33.612,87.501 L32.503,87.188 L31.403,86.846 L30.312,86.476 L29.232,86.078 L28.162,85.651 L27.104,85.196 L26.058,84.714 L25.024,84.204 L24.005,83.668 L23.000,83.105 L22.010,82.516 L21.036,81.902 L20.078,81.262 L19.137,80.597 L18.214,79.908 L17.310,79.194 L16.424,78.458 L15.558,77.698 L14.712,76.916 L13.887,76.113 L13.084,75.288 L12.302,74.442 L11.542,73.576 L10.806,72.690 L10.092,71.786 L9.403,70.863 L8.738,69.922 L8.098,68.964 L7.484,67.990 L6.895,67.000 L6.332,65.995 L5.796,64.976 L5.286,63.942 L4.804,62.896 L4.349,61.838 L3.922,60.768 L3.524,59.688 L3.154,58.597 L2.812,57.497 L2.499,56.388 L2.216,55.272 L1.962,54.148 L1.737,53.018 L1.542,51.883 L1.376,50.743 L1.241,49.599 L1.136,48.452 L1.060,47.303 L1.015,46.152 L1.000,45.000 L1.015,43.848 L1.060,42.697 L1.136,41.548 L1.241,40.401 L1.376,39.257 L1.542,38.117 L1.737,36.982 L1.962,35.852 L2.216,34.728 L2.499,33.612 L2.812,32.503 L3.154,31.403 L3.524,30.312 L3.922,29.232 L4.349,28.162 L4.804,27.104 L5.286,26.058 L5.796,25.024 L6.332,24.005 L6.895,23.000 L7.484,22.010 L8.098,21.036 L8.738,20.078 L9.403,19.137 L10.092,18.214 L10.806,17.310 L11.542,16.424 L12.302,15.558 L13.084,14.712 L13.887,13.887 L14.712,13.084 L15.558,12.302 L16.424,11.542 L17.310,10.806 L18.214,10.092 L19.137,9.403 L20.078,8.738 L21.036,8.098 L22.010,7.484 L23.000,6.895 L24.005,6.332 L25.024,5.796 L26.058,5.286 L27.104,4.804 L28.162,4.349 L29.232,3.922 L30.312,3.524 L31.403,3.154 L32.503,2.812 L33.612,2.499 L34.728,2.216 L35.852,1.962 L36.982,1.737 L38.117,1.542 L39.257,1.376 L40.401,1.241 L41.548,1.136 L42.697,1.060 L43.848,1.015 L45.000,1.000 L44.300,1.009 L45.000,1.000 L44.300,1.009 L45.000,1.000"/>
</svg>
