<svg xmlns="http://www.w3.org/2000/svg" viewBox="0 -0.624 40.791 40.791" width="256" height="256">
  <title>trace-regions</title>
  <rect x="0" y="-0.624" width="40.791" height="40.791" fill="#f5efe4"/>
  <path fill="none" stroke="#31604f" stroke-width="0.4" stroke-linecap="round" stroke-linejoin="round" d="M1.000,19.771 L1.522,20.237 L1.000,19.771 L1.522,20.237 L1.000,19.771 L2.617,21.215 L4.233,22.659 L5.850,24.103 L7.467,25.547 L9.083,26.991 L10.700,28.435 L12.317,29.878 L13.934,31.322 L15.550,32.766 L17.167,34.210 L18.784,35.654 L20.400,37.098 L22.017,38.542 L24.202,38.286 L26.343,37.778 L28.410,37.025 L29.392,36.531 L30.375,36.037 L32.212,34.826 L33.054,34.118 L33.896,33.410 L34.649,32.608 L35.403,31.807 L36.714,30.041 L37.263,29.087 L37.811,28.134 L38.678,26.112 L39.305,24.003 L39.494,22.919 L39.682,21.836 L39.737,20.737 L39.791,19.638 L39.639,17.444 L39.233,15.281 L38.906,14.231 L38.579,13.181 L37.685,11.171 L36.563,9.278 L35.228,7.530 L33.700,5.947 L32.849,5.250 L31.998,4.553 L30.145,3.367 L29.156,2.886 L28.167,2.405 L27.128,2.042 L26.090,1.679 L23.941,1.209 L22.846,1.105 L21.751,1.000 L20.651,1.023 L19.551,1.047 L17.372,1.349 L16.307,1.626 L15.243,1.903 L13.193,2.701 L12.221,3.216 L11.249,3.731 L9.438,4.981 L7.786,6.433 L6.314,8.068 L5.040,9.862 L3.984,11.792 L3.167,13.835 L2.603,15.961 L2.289,18.139 L2.232,20.338 L2.430,22.529 L2.882,24.682 L3.232,25.725 L3.582,26.768 L4.519,28.758 L5.682,30.626 L6.368,31.486 L7.054,32.346 L8.616,33.895 L10.347,35.252 L12.227,36.394 L14.233,37.299 L16.330,37.963 L17.410,38.171 L18.490,38.380 L19.983,38.542 L19.287,38.466 L19.983,38.542 L19.287,38.466 L19.983,38.542 M22.412,37.964 L22.017,38.542 L22.412,37.964 L22.017,38.542 L23.111,36.945 L24.205,35.347 L25.298,33.750 L26.392,32.152 L27.486,30.555 L25.291,30.408 L23.169,29.826 L22.189,29.328 L21.208,28.830 L19.485,27.462 L18.072,25.775 L17.026,23.840 L16.388,21.734 L16.225,19.540 L16.512,17.359 L16.871,16.319 L17.229,15.280 L17.789,14.333 L18.349,13.386 L19.087,12.570 L19.825,11.755 L21.600,10.454 L23.597,9.533 L24.672,9.299 L25.747,9.066 L27.947,9.050 L29.026,9.263 L30.106,9.476 L32.135,10.326 L33.953,11.564 L34.719,12.354 L35.485,13.143 L36.672,14.996 L37.435,17.059 L37.752,19.236 L37.626,21.432 L37.344,22.496 L37.062,23.559 L36.083,25.529 L34.730,27.264 L33.893,27.978 L33.057,28.692 L31.120,29.736 L29.402,30.295 L30.068,30.079 L29.402,30.295 L30.068,30.079 L29.402,30.295"/>
</svg>
