<svg xmlns="http://www.w3.org/2000/svg" viewBox="0 -5.183 71.967 71.967" width="256" height="256">
  <title>traceman</title>
  <rect x="0" y="-5.183" width="71.967" height="71.967" fill="#f5efe4"/>
  <path fill="none" stroke="#d9a441" stroke-width="0.4" stroke-linecap="round" stroke-linejoin="round" d="M37.723,1.000 L38.423,1.000 L37.723,1.000 L38.423,1.000 L37.723,1.000 L40.151,1.000 L42.651,1.000 L44.247,1.000 L45.540,1.200 L46.833,1.400 L45.576,1.400 L44.318,1.400 L41.818,1.400 L39.318,1.400 L36.818,1.400 L35.136,1.400 L33.370,1.800 L34.678,1.800 L35.985,1.800 L38.485,1.800 L40.985,1.800 L43.485,1.800 L45.985,1.800 L47.305,1.800 L48.625,1.800 L49.969,2.200 L47.651,2.200 L45.151,2.200 L42.651,2.200 L40.151,2.200 L37.651,2.200 L35.151,2.200 L32.651,2.200 L32.000,2.200 L30.795,2.600 L31.818,2.600 L34.318,2.600 L36.818,2.600 L39.318,2.600 L41.818,2.600 L44.318,2.600 L46.818,2.600 L49.318,2.600 L51.159,2.600 L52.198,3.000 L50.985,3.000 L48.485,3.000 L45.985,3.000 L43.485,3.000 L40.985,3.000 L38.485,3.000 L35.985,3.000 L33.485,3.000 L30.985,3.000 L29.771,3.000 L28.800,3.400 L30.151,3.400 L32.651,3.400 L35.151,3.400 L37.651,3.400 L40.151,3.400 L42.651,3.400 L45.151,3.400 L47.651,3.400 L50.151,3.400 L52.651,3.400 L53.162,3.400 L54.003,3.800 L51.818,3.800 L49.318,3.800 L46.818,3.800 L44.318,3.800 L41.818,3.800 L39.318,3.800 L36.818,3.800 L34.318,3.800 L31.818,3.800 L29.318,3.800 L27.966,3.800 L27.156,4.200 L28.485,4.200 L30.985,4.200 L33.485,4.200 L35.985,4.200 L38.485,4.200 L40.985,4.200 L43.485,4.200 L45.985,4.200 L48.485,4.200 L50.985,4.200 L53.485,4.200 L54.821,4.200 L55.559,4.600 L55.151,4.600 L52.651,4.600 L50.151,4.600 L47.651,4.600 L45.151,4.600 L42.651,4.600 L40.151,4.600 L37.651,4.600 L35.151,4.600 L32.651,4.600 L30.151,4.600 L27.651,4.600 L26.403,4.600 L25.726,5.000 L26.818,5.000 L29.318,5.000 L31.818,5.000 L34.318,5.000 L36.818,5.000 L39.318,5.000 L41.818,5.000 L44.318,5.000 L46.818,5.000 L49.318,5.000 L51.818,5.000 L54.318,5.000 L56.243,5.000 L56.910,5.400 L55.985,5.400 L53.485,5.400 L50.985,5.400 L48.485,5.400 L45.985,5.400 L43.485,5.400 L40.985,5.400 L38.485,5.400 L35.985,5.400 L33.485,5.400 L30.985,5.400 L28.485,5.400 L25.985,5.400 L25.055,5.400 L24.423,5.800 L25.151,5.800 L27.651,5.800 L30.151,5.800 L32.651,5.800 L35.151,5.800 L37.651,5.800 L40.151,5.800 L42.651,5.800 L45.151,5.800 L47.651,5.800 L50.151,5.800 L52.651,5.800 L55.151,5.800 L57.537,5.800 L58.114,6.200 L56.818,6.200 L54.318,6.200 L51.818,6.200 L49.318,6.200 L46.818,6.200 L44.318,6.200 L41.818,6.200 L39.318,6.200 L36.818,6.200 L34.318,6.200 L31.818,6.200 L29.318,6.200 L26.818,6.200 L24.318,6.200 L23.856,6.200 L23.295,6.600 L24.640,6.600 L25.985,6.600 L28.485,6.600 L30.985,6.600 L33.485,6.600 L35.985,6.600 L38.485,6.600 L40.985,6.600 L43.485,6.600 L45.985,6.600 L48.485,6.600 L50.985,6.600 L53.485,6.600 L55.985,6.600 L57.329,6.600 L58.674,6.600 L59.234,7.000 L57.651,7.000 L55.151,7.000 L52.651,7.000 L50.151,7.000 L47.651,7.000 L45.151,7.000 L42.651,7.000 L40.151,7.000 L37.651,7.000 L35.151,7.000 L32.651,7.000 L30.151,7.000 L27.651,7.000 L25.151,7.000 L22.755,7.000 L22.237,7.400 L24.318,7.400 L26.818,7.400 L29.318,7.400 L31.818,7.400 L34.318,7.400 L36.818,7.400 L39.318,7.400 L41.818,7.400 L44.318,7.400 L46.818,7.400 L49.318,7.400 L51.818,7.400 L54.318,7.400 L56.818,7.400 L59.318,7.400 L59.728,7.400 L60.207,7.800 L58.485,7.800 L55.985,7.800 L53.485,7.800 L50.985,7.800 L48.485,7.800 L45.985,7.800 L43.485,7.800 L40.985,7.800 L38.485,7.800 L35.985,7.800 L33.485,7.800 L30.985,7.800 L28.485,7.800 L25.985,7.800 L23.485,7.800 L21.763,7.800 L21.290,8.200 L22.651,8.200 L25.151,8.200 L27.651,8.200 L30.151,8.200 L32.651,8.200 L35.151,8.200 L37.651,8.200 L40.151,8.200 L42.651,8.200 L45.151,8.200 L47.651,8.200 L50.151,8.200 L52.651,8.200 L55.151,8.200 L57.651,8.200 L60.151,8.200 L60.679,8.200 L61.132,8.600 L59.318,8.600 L56.818,8.600 L54.318,8.600 L51.818,8.600 L49.318,8.600 L46.818,8.600 L44.318,8.600 L41.818,8.600 L39.318,8.600 L36.818,8.600 L34.318,8.600 L31.818,8.600 L29.318,8.600 L26.818,8.600 L24.318,8.600 L21.818,8.600 L20.818,8.600 L20.397,9.000 L20.985,9.000 L23.485,9.000 L25.985,9.000 L28.485,9.000 L30.985,9.000 L33.485,9.000 L35.985,9.000 L38.485,9.000 L40.985,9.000 L43.485,9.000 L45.985,9.000 L48.485,9.000 L50.985,9.000 L53.485,9.000 L55.985,9.000 L58.485,9.000 L60.985,9.000 L61.573,9.000 L61.975,9.400 L60.151,9.400 L57.651,9.400 L55.151,9.400 L52.651,9.400 L50.151,9.400 L47.651,9.400 L45.151,9.400 L42.651,9.400 L40.151,9.400 L37.651,9.400 L35.151,9.400 L32.651,9.400 L30.151,9.400 L27.651,9.400 L25.151,9.400 L22.651,9.400 L21.323,9.400 L19.995,9.400 L19.595,9.800 L21.818,9.800 L24.318,9.800 L26.818,9.800 L29.318,9.800 L31.818,9.800 L34.318,9.800 L36.818,9.800 L39.318,9.800 L41.818,9.800 L44.318,9.800 L46.818,9.800 L49.318,9.800 L51.818,9.800 L54.318,9.800 L56.818,9.800 L59.318,9.800 L61.818,9.800 L62.375,9.800 L62.775,10.200 L60.985,10.200 L58.485,10.200 L55.985,10.200 L53.485,10.200 L50.985,10.200 L48.485,10.200 L45.985,10.200 L43.485,10.200 L40.985,10.200 L38.485,10.200 L35.985,10.200 L33.485,10.200 L30.985,10.200 L28.485,10.200 L25.985,10.200 L23.485,10.200 L20.985,10.200 L19.201,10.200 L18.832,10.600 L20.151,10.600 L22.651,10.600 L25.151,10.600 L27.651,10.600 L30.151,10.600 L32.651,10.600 L35.151,10.600 L37.651,10.600 L40.151,10.600 L42.651,10.600 L45.151,10.600 L47.651,10.600 L50.151,10.600 L52.651,10.600 L55.151,10.600 L57.651,10.600 L60.151,10.600 L62.651,10.600 L63.151,10.600 L63.493,11.000 L61.818,11.000 L59.318,11.000 L56.818,11.000 L54.318,11.000 L51.818,11.000 L49.318,11.000 L46.818,11.000 L44.318,11.000 L41.818,11.000 L39.318,11.000 L36.818,11.000 L34.318,11.000 L31.818,11.000 L29.318,11.000 L26.818,11.000 L24.318,11.000 L21.818,11.000 L19.318,11.000 L18.474,11.000 L18.136,11.400 L18.485,11.400 L20.985,11.400 L23.485,11.400 L25.985,11.400 L28.485,11.400 L30.985,11.400 L33.485,11.400 L35.985,11.400 L38.485,11.400 L40.985,11.400 L43.485,11.400 L45.985,11.400 L48.485,11.400 L50.985,11.400 L53.485,11.400 L55.985,11.400 L58.485,11.400 L60.985,11.400 L63.485,11.400 L63.834,11.400 L64.173,11.800 L62.651,11.800 L60.151,11.800 L57.651,11.800 L55.151,11.800 L52.651,11.800 L50.151,11.800 L47.651,11.800 L45.151,11.800 L42.651,11.800 L40.151,11.800 L37.651,11.800 L35.151,11.800 L32.651,11.800 L30.151,11.800 L27.651,11.800 L25.151,11.800 L22.651,11.800 L20.151,11.800 L18.126,11.800 L18.516,12.200 L19.318,12.200 L21.818,12.200 L24.318,12.200 L26.818,12.200 L29.318,12.200 L31.818,12.200 L34.318,12.200 L36.818,12.200 L39.318,12.200 L41.818,12.200 L44.318,12.200 L46.818,12.200 L49.318,12.200 L51.818,12.200 L54.318,12.200 L56.818,12.200 L59.318,12.200 L61.818,12.200 L63.157,12.200 L64.496,12.200 L64.810,12.600 L63.485,12.600 L60.985,12.600 L58.485,12.600 L55.985,12.600 L53.485,12.600 L50.985,12.600 L48.485,12.600 L45.985,12.600 L43.485,12.600 L40.985,12.600 L38.485,12.600 L35.985,12.600 L33.485,12.600 L30.985,12.600 L28.485,12.600 L25.985,12.600 L23.485,12.600 L20.985,12.600 L19.204,12.600 L20.022,13.000 L21.337,13.000 L22.651,13.000 L25.151,13.000 L27.651,13.000 L30.151,13.000 L32.651,13.000 L35.151,13.000 L37.651,13.000 L40.151,13.000 L42.651,13.000 L45.151,13.000 L47.651,13.000 L50.151,13.000 L52.651,13.000 L55.151,13.000 L57.651,13.000 L60.151,13.000 L62.651,13.000 L65.106,13.000 L65.391,13.400 L64.318,13.400 L61.818,13.400 L59.318,13.400 L56.818,13.400 L54.318,13.400 L51.818,13.400 L49.318,13.400 L46.818,13.400 L44.318,13.400 L41.818,13.400 L39.318,13.400 L36.818,13.400 L34.318,13.400 L31.818,13.400 L29.318,13.400 L26.818,13.400 L24.318,13.400 L21.818,13.400 L20.783,13.400 L21.469,13.800 L23.485,13.800 L25.985,13.800 L28.485,13.800 L30.985,13.800 L33.485,13.800 L35.985,13.800 L38.485,13.800 L40.985,13.800 L43.485,13.800 L45.985,13.800 L48.485,13.800 L50.985,13.800 L53.485,13.800 L55.985,13.800 L58.485,13.800 L60.985,13.800 L63.485,13.800 L65.677,13.800 L65.962,14.200 L65.151,14.200 L62.651,14.200 L60.151,14.200 L57.651,14.200 L55.151,14.200 L52.651,14.200 L50.151,14.200 L47.651,14.200 L45.151,14.200 L42.651,14.200 L40.151,14.200 L37.651,14.200 L35.151,14.200 L32.651,14.200 L30.151,14.200 L27.651,14.200 L25.151,14.200 L22.651,14.200 L22.072,14.200 L22.676,14.600 L24.318,14.600 L26.818,14.600 L29.318,14.600 L31.818,14.600 L34.318,14.600 L36.818,14.600 L39.318,14.600 L41.818,14.600 L44.318,14.600 L46.818,14.600 L49.318,14.600 L51.818,14.600 L54.318,14.600 L56.818,14.600 L59.318,14.600 L61.818,14.600 L64.318,14.600 L66.222,14.600 L66.461,15.000 L65.985,15.000 L63.485,15.000 L60.985,15.000 L58.485,15.000 L55.985,15.000 L53.485,15.000 L50.985,15.000 L48.485,15.000 L45.985,15.000 L43.485,15.000 L40.985,15.000 L38.485,15.000 L35.985,15.000 L33.485,15.000 L30.985,15.000 L28.485,15.000 L25.985,15.000 L24.600,15.000 L23.216,15.000 L23.690,15.400 L25.151,15.400 L27.651,15.400 L30.151,15.400 L32.651,15.400 L35.151,15.400 L37.651,15.400 L40.151,15.400 L42.651,15.400 L45.151,15.400 L47.651,15.400 L50.151,15.400 L52.651,15.400 L55.151,15.400 L57.651,15.400 L60.151,15.400 L62.651,15.400 L65.151,15.400 L66.700,15.400 L66.938,15.800 L65.628,15.800 L64.318,15.800 L61.818,15.800 L59.318,15.800 L58.068,15.800 L56.818,15.800 L54.318,15.800 L51.818,15.800 L49.318,15.800 L46.818,15.800 L44.318,15.800 L41.818,15.800 L39.318,15.800 L36.818,15.800 L34.318,15.800 L31.818,15.800 L29.318,15.800 L26.818,15.800 L25.488,15.800 L24.158,15.800 L24.612,16.200 L25.985,16.200 L28.485,16.200 L30.985,16.200 L33.485,16.200 L35.985,16.200 L38.485,16.200 L40.985,16.200 L43.485,16.200 L45.985,16.200 L48.485,16.200 L50.985,16.200 L53.485,16.200 L55.985,16.200 L58.485,16.200 L60.985,16.200 L63.485,16.200 L65.985,16.200 L67.171,16.200 L67.387,16.600 L65.151,16.600 L62.651,16.600 L60.151,16.600 L57.651,16.600 L55.151,16.600 L52.651,16.600 L50.151,16.600 L47.651,16.600 L45.151,16.600 L42.651,16.600 L40.151,16.600 L37.651,16.600 L35.151,16.600 L32.651,16.600 L30.151,16.600 L27.651,16.600 L26.339,16.600 L25.027,16.600 L25.416,17.000 L26.818,17.000 L29.318,17.000 L31.818,17.000 L34.318,17.000 L36.818,17.000 L39.318,17.000 L41.818,17.000 L44.318,17.000 L46.818,17.000 L49.318,17.000 L51.818,17.000 L54.318,17.000 L56.818,17.000 L58.068,17.000 L59.318,17.000 L61.818,17.000 L64.318,17.000 L66.818,17.000 L67.602,17.000 L67.798,17.400 L65.985,17.400 L63.485,17.400 L60.985,17.400 L58.485,17.400 L55.985,17.400 L53.485,17.400 L50.985,17.400 L48.485,17.400 L45.985,17.400 L43.485,17.400 L40.985,17.400 L38.485,17.400 L35.985,17.400 L33.485,17.400 L30.985,17.400 L28.485,17.400 L27.133,17.400 L25.781,17.400 L26.145,17.800 L27.651,17.800 L30.151,17.800 L32.651,17.800 L35.151,17.800 L37.651,17.800 L40.151,17.800 L42.651,17.800 L45.151,17.800 L47.651,17.800 L50.151,17.800 L52.651,17.800 L55.151,17.800 L57.651,17.800 L60.151,17.800 L62.651,17.800 L65.151,17.800 L67.651,17.800 L67.994,17.800 L68.189,18.200 L66.818,18.200 L64.318,18.200 L61.818,18.200 L59.318,18.200 L58.068,18.200 L56.818,18.200 L54.318,18.200 L51.818,18.200 L49.318,18.200 L46.818,18.200 L44.318,18.200 L41.818,18.200 L39.318,18.200 L36.818,18.200 L34.318,18.200 L31.818,18.200 L29.318,18.200 L26.818,18.200 L26.508,18.200 L26.806,18.600 L28.485,18.600 L30.985,18.600 L33.485,18.600 L35.985,18.600 L38.485,18.600 L40.985,18.600 L43.485,18.600 L45.985,18.600 L48.485,18.600 L50.985,18.600 L53.485,18.600 L55.985,18.600 L58.485,18.600 L60.985,18.600 L63.485,18.600 L65.985,18.600 L68.384,18.600 L68.556,19.000 L67.651,19.000 L65.151,19.000 L62.651,19.000 L60.151,19.000 L57.651,19.000 L55.151,19.000 L52.651,19.000 L50.151,19.000 L47.651,19.000 L45.151,19.000 L42.651,19.000 L40.151,19.000 L37.651,19.000 L35.151,19.000 L32.651,19.000 L30.151,19.000 L27.651,19.000 L27.089,19.000 L27.372,19.400 L29.318,19.400 L31.818,19.400 L34.318,19.400 L36.818,19.400 L39.318,19.400 L41.818,19.400 L44.318,19.400 L46.818,19.400 L49.318,19.400 L51.818,19.400 L54.318,19.400 L56.818,19.400 L58.068,19.400 L59.318,19.400 L61.818,19.400 L64.318,19.400 L66.818,19.400 L68.712,19.400 L68.868,19.800 L68.485,19.800 L65.985,19.800 L63.485,19.800 L60.985,19.800 L58.485,19.800 L55.985,19.800 L53.485,19.800 L50.985,19.800 L48.485,19.800 L45.985,19.800 L43.485,19.800 L40.985,19.800 L38.485,19.800 L35.985,19.800 L33.485,19.800 L30.985,19.800 L28.485,19.800 L27.655,19.800 L27.910,20.200 L30.151,20.200 L32.651,20.200 L35.151,20.200 L37.651,20.200 L40.151,20.200 L42.651,20.200 L45.151,20.200 L47.651,20.200 L50.151,20.200 L52.651,20.200 L55.151,20.200 L57.651,20.200 L60.151,20.200 L62.651,20.200 L65.151,20.200 L67.651,20.200 L69.024,20.200 L69.180,20.600 L66.818,20.600 L64.318,20.600 L61.818,20.600 L59.318,20.600 L58.068,20.600 L56.818,20.600 L54.318,20.600 L51.818,20.600 L49.318,20.600 L46.818,20.600 L44.318,20.600 L41.818,20.600 L39.318,20.600 L36.818,20.600 L34.318,20.600 L31.818,20.600 L29.318,20.600 L28.153,20.600 L28.380,21.000 L29.682,21.000 L30.985,21.000 L33.485,21.000 L35.985,21.000 L38.485,21.000 L40.985,21.000 L43.485,21.000 L45.985,21.000 L48.485,21.000 L50.985,21.000 L53.485,21.000 L55.985,21.000 L58.485,21.000 L60.985,21.000 L63.485,21.000 L65.985,21.000 L68.485,21.000 L69.318,21.000 L69.454,21.400 L67.651,21.400 L65.151,21.400 L62.651,21.400 L60.151,21.400 L57.651,21.400 L55.151,21.400 L52.651,21.400 L50.151,21.400 L47.651,21.400 L45.151,21.400 L42.651,21.400 L40.151,21.400 L37.651,21.400 L35.151,21.400 L32.651,21.400 L30.151,21.400 L28.595,21.400 L28.807,21.800 L29.318,21.800 L31.818,21.800 L34.318,21.800 L36.818,21.800 L39.318,21.800 L41.818,21.800 L44.318,21.800 L46.818,21.800 L49.318,21.800 L51.818,21.800 L54.318,21.800 L56.818,21.800 L58.068,21.800 L59.318,21.800 L61.818,21.800 L64.318,21.800 L66.818,21.800 L68.199,21.800 L69.580,21.800 L69.699,22.200 L68.485,22.200 L65.985,22.200 L63.485,22.200 L60.985,22.200 L58.485,22.200 L55.985,22.200 L53.485,22.200 L50.985,22.200 L48.485,22.200 L45.985,22.200 L43.485,22.200 L40.985,22.200 L38.485,22.200 L35.985,22.200 L33.485,22.200 L30.985,22.200 L29.016,22.200 L29.215,22.600 L30.151,22.600 L32.651,22.600 L35.151,22.600 L37.651,22.600 L40.151,22.600 L42.651,22.600 L45.151,22.600 L47.651,22.600 L50.151,22.600 L52.651,22.600 L55.151,22.600 L57.651,22.600 L60.151,22.600 L62.651,22.600 L65.151,22.600 L67.651,22.600 L69.818,22.600 L69.935,23.000 L69.318,23.000 L66.818,23.000 L64.318,23.000 L61.818,23.000 L59.318,23.000 L58.068,23.000 L56.818,23.000 L54.318,23.000 L51.818,23.000 L49.318,23.000 L46.818,23.000 L44.318,23.000 L41.818,23.000 L39.318,23.000 L36.818,23.000 L34.318,23.000 L31.818,23.000 L29.370,23.000 L29.525,23.400 L30.985,23.400 L33.485,23.400 L35.985,23.400 L38.485,23.400 L40.985,23.400 L43.485,23.400 L45.985,23.400 L48.485,23.400 L50.985,23.400 L53.485,23.400 L55.985,23.400 L58.485,23.400 L60.985,23.400 L63.485,23.400 L65.985,23.400 L68.485,23.400 L70.052,23.400 L70.143,23.800 L67.651,23.800 L65.151,23.800 L62.651,23.800 L60.151,23.800 L57.651,23.800 L55.151,23.800 L52.651,23.800 L50.151,23.800 L47.651,23.800 L45.151,23.800 L42.651,23.800 L40.151,23.800 L37.651,23.800 L35.151,23.800 L32.651,23.800 L30.151,23.800 L29.680,23.800 L29.835,24.200 L31.818,24.200 L34.318,24.200 L36.818,24.200 L39.318,24.200 L41.818,24.200 L44.318,24.200 L46.818,24.200 L49.318,24.200 L51.818,24.200 L54.318,24.200 L56.818,24.200 L58.068,24.200 L59.318,24.200 L61.818,24.200 L64.318,24.200 L66.818,24.200 L69.318,24.200 L70.227,24.200 L70.311,24.600 L68.485,24.600 L65.985,24.600 L63.485,24.600 L60.985,24.600 L58.485,24.600 L55.985,24.600 L53.485,24.600 L50.985,24.600 L48.485,24.600 L45.985,24.600 L43.485,24.600 L40.985,24.600 L38.485,24.600 L35.985,24.600 L33.485,24.600 L30.985,24.600 L29.972,24.600 L30.092,25.000 L31.372,25.000 L32.651,25.000 L35.151,25.000 L37.651,25.000 L40.151,25.000 L42.651,25.000 L45.151,25.000 L47.651,25.000 L50.151,25.000 L52.651,25.000 L55.151,25.000 L57.651,25.000 L60.151,25.000 L62.651,25.000 L65.151,25.000 L67.651,25.000 L69.023,25.000 L70.395,25.000 L70.479,25.400 L69.318,25.400 L66.818,25.400 L64.318,25.400 L61.818,25.400 L59.318,25.400 L58.068,25.400 L56.818,25.400 L54.318,25.400 L51.818,25.400 L49.318,25.400 L46.818,25.400 L44.318,25.400 L41.818,25.400 L39.318,25.400 L36.818,25.400 L34.318,25.400 L31.818,25.400 L30.210,25.400 L30.311,25.800 L30.985,25.800 L33.485,25.800 L35.985,25.800 L38.485,25.800 L40.985,25.800 L43.485,25.800 L45.985,25.800 L48.485,25.800 L50.985,25.800 L53.485,25.800 L55.985,25.800 L58.485,25.800 L60.985,25.800 L63.485,25.800 L65.985,25.800 L68.485,25.800 L70.545,25.800 L70.609,26.200 L70.151,26.200 L67.651,26.200 L65.151,26.200 L62.651,26.200 L60.151,26.200 L57.651,26.200 L55.151,26.200 L52.651,26.200 L50.151,26.200 L47.651,26.200 L45.151,26.200 L42.651,26.200 L40.151,26.200 L37.651,26.200 L35.151,26.200 L32.651,26.200 L30.411,26.200 L30.505,26.600 L31.818,26.600 L34.318,26.600 L36.818,26.600 L39.318,26.600 L41.818,26.600 L44.318,26.600 L46.818,26.600 L49.318,26.600 L51.818,26.600 L54.318,26.600 L56.818,26.600 L58.068,26.600 L59.318,26.600 L61.818,26.600 L64.318,26.600 L66.818,26.600 L69.318,26.600 L70.668,26.600 L70.718,27.000 L68.485,27.000 L65.985,27.000 L63.485,27.000 L60.985,27.000 L58.485,27.000 L55.985,27.000 L53.485,27.000 L50.985,27.000 L48.485,27.000 L45.985,27.000 L43.485,27.000 L40.985,27.000 L38.485,27.000 L35.985,27.000 L33.485,27.000 L30.985,27.000 L30.597,27.000 L30.678,27.400 L32.651,27.400 L35.151,27.400 L37.651,27.400 L40.151,27.400 L42.651,27.400 L45.151,27.400 L47.651,27.400 L50.151,27.400 L52.651,27.400 L55.151,27.400 L57.651,27.400 L60.151,27.400 L62.651,27.400 L65.151,27.400 L67.651,27.400 L70.151,27.400 L70.767,27.400 L70.814,27.800 L69.318,27.800 L66.818,27.800 L64.318,27.800 L61.818,27.800 L59.318,27.800 L58.068,27.800 L56.818,27.800 L54.318,27.800 L51.818,27.800 L49.318,27.800 L46.818,27.800 L44.318,27.800 L41.818,27.800 L39.318,27.800 L36.818,27.800 L34.318,27.800 L31.818,27.800 L30.727,27.800 L30.777,28.200 L32.131,28.200 L33.485,28.200 L35.985,28.200 L38.485,28.200 L40.985,28.200 L43.485,28.200 L45.985,28.200 L48.485,28.200 L50.985,28.200 L53.485,28.200 L55.985,28.200 L58.485,28.200 L60.985,28.200 L63.485,28.200 L65.985,28.200 L68.485,28.200 L70.861,28.200 L70.894,28.600 L70.151,28.600 L67.651,28.600 L65.151,28.600 L62.651,28.600 L60.151,28.600 L57.651,28.600 L55.151,28.600 L52.651,28.600 L50.151,28.600 L47.651,28.600 L45.151,28.600 L42.651,28.600 L40.151,28.600 L37.651,28.600 L35.151,28.600 L32.651,28.600 L30.826,28.600 L30.876,29.000 L31.818,29.000 L34.318,29.000 L36.818,29.000 L39.318,29.000 L41.818,29.000 L44.318,29.000 L46.818,29.000 L49.318,29.000 L51.818,29.000 L54.318,29.000 L56.818,29.000 L58.068,29.000 L59.318,29.000 L61.818,29.000 L64.318,29.000 L66.818,29.000 L69.318,29.000 L70.910,29.000 L70.927,29.400 L68.485,29.400 L65.985,29.400 L63.485,29.400 L60.985,29.400 L58.485,29.400 L55.985,29.400 L53.485,29.400 L50.985,29.400 L48.485,29.400 L45.985,29.400 L43.485,29.400 L40.985,29.400 L38.485,29.400 L35.985,29.400 L33.485,29.400 L32.200,29.400 L30.915,29.400 L30.929,29.800 L32.651,29.800 L35.151,29.800 L37.651,29.800 L40.151,29.800 L42.651,29.800 L45.151,29.800 L47.651,29.800 L50.151,29.800 L52.651,29.800 L55.151,29.800 L57.651,29.800 L60.151,29.800 L62.651,29.800 L65.151,29.800 L67.651,29.800 L70.151,29.800 L70.943,29.800 L70.960,30.200 L69.318,30.200 L66.818,30.200 L64.318,30.200 L61.818,30.200 L59.318,30.200 L58.068,30.200 L56.818,30.200 L54.318,30.200 L51.818,30.200 L49.318,30.200 L46.818,30.200 L44.318,30.200 L41.818,30.200 L39.318,30.200 L36.818,30.200 L34.318,30.200 L31.818,30.200 L30.944,30.200 L30.947,30.600 L32.216,30.600 L33.485,30.600 L35.985,30.600 L38.485,30.600 L40.985,30.600 L43.485,30.600 L45.985,30.600 L48.485,30.600 L50.985,30.600 L53.485,30.600 L55.985,30.600 L58.485,30.600 L60.985,30.600 L63.485,30.600 L65.985,30.600 L68.485,30.600 L70.967,30.600 L70.963,31.000 L70.151,31.000 L67.651,31.000 L65.151,31.000 L62.651,31.000 L60.151,31.000 L57.651,31.000 L55.151,31.000 L52.651,31.000 L50.151,31.000 L47.651,31.000 L45.151,31.000 L42.651,31.000 L40.151,31.000 L37.651,31.000 L35.151,31.000 L32.651,31.000 L30.947,31.000 L30.943,31.400 L31.818,31.400 L34.318,31.400 L36.818,31.400 L39.318,31.400 L41.818,31.400 L44.318,31.400 L46.818,31.400 L49.318,31.400 L51.818,31.400 L54.318,31.400 L56.818,31.400 L58.068,31.400 L59.318,31.400 L61.818,31.400 L64.318,31.400 L66.818,31.400 L69.318,31.400 L70.959,31.400 L70.943,31.800 L68.485,31.800 L65.985,31.800 L63.485,31.800 L60.985,31.800 L58.485,31.800 L55.985,31.800 L53.485,31.800 L50.985,31.800 L48.485,31.800 L45.985,31.800 L43.485,31.800 L40.985,31.800 L38.485,31.800 L35.985,31.800 L33.485,31.800 L32.208,31.800 L30.931,31.800 L30.918,32.200 L32.651,32.200 L35.151,32.200 L37.651,32.200 L40.151,32.200 L42.651,32.200 L45.151,32.200 L47.651,32.200 L50.151,32.200 L52.651,32.200 L55.151,32.200 L57.651,32.200 L60.151,32.200 L62.651,32.200 L65.151,32.200 L67.651,32.200 L70.151,32.200 L70.927,32.200 L70.908,32.600 L69.318,32.600 L66.818,32.600 L64.318,32.600 L61.818,32.600 L59.318,32.600 L58.068,32.600 L56.818,32.600 L54.318,32.600 L51.818,32.600 L49.318,32.600 L46.818,32.600 L44.318,32.600 L41.818,32.600 L39.318,32.600 L36.818,32.600 L34.318,32.600 L31.818,32.600 L30.876,32.600 L30.826,33.000 L32.156,33.000 L33.485,33.000 L35.985,33.000 L38.485,33.000 L40.985,33.000 L43.485,33.000 L45.985,33.000 L48.485,33.000 L50.985,33.000 L53.485,33.000 L55.985,33.000 L58.485,33.000 L60.985,33.000 L63.485,33.000 L65.985,33.000 L68.485,33.000 L70.887,33.000 L70.866,33.400 L70.151,33.400 L67.651,33.400 L65.151,33.400 L62.651,33.400 L60.151,33.400 L57.651,33.400 L55.151,33.400 L52.651,33.400 L50.151,33.400 L47.651,33.400 L45.151,33.400 L42.651,33.400 L40.151,33.400 L37.651,33.400 L35.151,33.400 L32.651,33.400 L30.777,33.400 L30.727,33.800 L31.818,33.800 L34.318,33.800 L36.818,33.800 L39.318,33.800 L41.818,33.800 L44.318,33.800 L46.818,33.800 L49.318,33.800 L51.818,33.800 L54.318,33.800 L56.818,33.800 L58.068,33.800 L59.318,33.800 L61.818,33.800 L64.318,33.800 L66.818,33.800 L69.318,33.800 L70.817,33.800 L70.767,34.200 L68.485,34.200 L65.985,34.200 L63.485,34.200 L60.985,34.200 L58.485,34.200 L55.985,34.200 L53.485,34.200 L50.985,34.200 L48.485,34.200 L45.985,34.200 L43.485,34.200 L40.985,34.200 L38.485,34.200 L35.985,34.200 L33.485,34.200 L30.985,34.200 L30.678,34.200 L30.595,34.600 L32.651,34.600 L35.151,34.600 L37.651,34.600 L40.151,34.600 L42.651,34.600 L45.151,34.600 L47.651,34.600 L50.151,34.600 L52.651,34.600 L55.151,34.600 L57.651,34.600 L60.151,34.600 L62.651,34.600 L65.151,34.600 L67.651,34.600 L70.151,34.600 L70.718,34.600 L70.668,35.000 L69.318,35.000 L66.818,35.000 L64.318,35.000 L61.818,35.000 L59.318,35.000 L58.068,35.000 L56.818,35.000 L54.318,35.000 L51.818,35.000 L49.318,35.000 L46.818,35.000 L44.318,35.000 L41.818,35.000 L39.318,35.000 L36.818,35.000 L34.318,35.000 L31.818,35.000 L30.505,35.000 L30.411,35.400 L30.985,35.400 L33.485,35.400 L35.985,35.400 L38.485,35.400 L40.985,35.400 L43.485,35.400 L45.985,35.400 L48.485,35.400 L50.985,35.400 L53.485,35.400 L55.985,35.400 L58.485,35.400 L60.985,35.400 L63.485,35.400 L65.985,35.400 L68.485,35.400 L70.618,35.400 L70.546,35.800 L70.151,35.800 L67.651,35.800 L65.151,35.800 L62.651,35.800 L60.151,35.800 L57.651,35.800 L55.151,35.800 L52.651,35.800 L50.151,35.800 L47.651,35.800 L45.151,35.800 L42.651,35.800 L40.151,35.800 L37.651,35.800 L35.151,35.800 L32.651,35.800 L30.311,35.800 L30.210,36.200 L31.818,36.200 L34.318,36.200 L36.818,36.200 L39.318,36.200 L41.818,36.200 L44.318,36.200 L46.818,36.200 L49.318,36.200 L51.818,36.200 L54.318,36.200 L56.818,36.200 L58.068,36.200 L59.318,36.200 L61.818,36.200 L64.318,36.200 L66.818,36.200 L69.318,36.200 L70.473,36.200 L70.395,36.600 L68.485,36.600 L65.985,36.600 L63.485,36.600 L60.985,36.600 L58.485,36.600 L55.985,36.600 L53.485,36.600 L50.985,36.600 L48.485,36.600 L45.985,36.600 L43.485,36.600 L40.985,36.600 L38.485,36.600 L35.985,36.600 L33.485,36.600 L30.985,36.600 L30.093,36.600 L29.975,37.000 L31.313,37.000 L32.651,37.000 L35.151,37.000 L37.651,37.000 L40.151,37.000 L42.651,37.000 L45.151,37.000 L47.651,37.000 L50.151,37.000 L52.651,37.000 L55.151,37.000 L57.651,37.000 L60.151,37.000 L62.651,37.000 L65.151,37.000 L67.651,37.000 L68.981,37.000 L70.311,37.000 L70.226,37.400 L69.318,37.400 L66.818,37.400 L64.318,37.400 L61.818,37.400 L59.318,37.400 L58.068,37.400 L56.818,37.400 L54.318,37.400 L51.818,37.400 L49.318,37.400 L46.818,37.400 L44.318,37.400 L41.818,37.400 L39.318,37.400 L36.818,37.400 L34.318,37.400 L31.818,37.400 L29.835,37.400 L29.680,37.800 L30.985,37.800 L33.485,37.800 L35.985,37.800 L38.485,37.800 L40.985,37.800 L43.485,37.800 L45.985,37.800 L48.485,37.800 L50.985,37.800 L53.485,37.800 L55.985,37.800 L58.485,37.800 L60.985,37.800 L63.485,37.800 L65.985,37.800 L68.485,37.800 L70.136,37.800 L70.046,38.200 L67.651,38.200 L65.151,38.200 L62.651,38.200 L60.151,38.200 L57.651,38.200 L55.151,38.200 L52.651,38.200 L50.151,38.200 L47.651,38.200 L45.151,38.200 L42.651,38.200 L40.151,38.200 L37.651,38.200 L35.151,38.200 L32.651,38.200 L30.151,38.200 L29.525,38.200 L29.370,38.600 L31.818,38.600 L34.318,38.600 L36.818,38.600 L39.318,38.600 L41.818,38.600 L44.318,38.600 L46.818,38.600 L49.318,38.600 L51.818,38.600 L54.318,38.600 L56.818,38.600 L58.068,38.600 L59.318,38.600 L61.818,38.600 L64.318,38.600 L66.818,38.600 L69.318,38.600 L69.937,38.600 L69.818,39.000 L68.485,39.000 L65.985,39.000 L63.485,39.000 L60.985,39.000 L58.485,39.000 L55.985,39.000 L53.485,39.000 L50.985,39.000 L48.485,39.000 L45.985,39.000 L43.485,39.000 L40.985,39.000 L38.485,39.000 L35.985,39.000 L33.485,39.000 L30.985,39.000 L29.215,39.000 L29.013,39.400 L30.151,39.400 L32.651,39.400 L35.151,39.400 L37.651,39.400 L40.151,39.400 L42.651,39.400 L45.151,39.400 L47.651,39.400 L50.151,39.400 L52.651,39.400 L55.151,39.400 L57.651,39.400 L60.151,39.400 L62.651,39.400 L65.151,39.400 L67.651,39.400 L69.699,39.400 L69.580,39.800 L68.199,39.800 L66.818,39.800 L64.318,39.800 L61.818,39.800 L59.318,39.800 L58.068,39.800 L56.818,39.800 L54.318,39.800 L51.818,39.800 L49.318,39.800 L46.818,39.800 L44.318,39.800 L41.818,39.800 L39.318,39.800 L36.818,39.800 L34.318,39.800 L31.818,39.800 L29.318,39.800 L28.807,39.800 L28.595,40.200 L30.985,40.200 L33.485,40.200 L35.985,40.200 L38.485,40.200 L40.985,40.200 L43.485,40.200 L45.985,40.200 L48.485,40.200 L50.985,40.200 L53.485,40.200 L55.985,40.200 L58.485,40.200 L60.985,40.200 L63.485,40.200 L65.985,40.200 L68.485,40.200 L69.461,40.200 L69.320,40.600 L67.651,40.600 L65.151,40.600 L62.651,40.600 L60.151,40.600 L57.651,40.600 L55.151,40.600 L52.651,40.600 L50.151,40.600 L47.651,40.600 L45.151,40.600 L42.651,40.600 L40.151,40.600 L37.651,40.600 L35.151,40.600 L32.651,40.600 L30.151,40.600 L28.380,40.600 L28.152,41.000 L29.318,41.000 L31.818,41.000 L34.318,41.000 L36.818,41.000 L39.318,41.000 L41.818,41.000 L44.318,41.000 L46.818,41.000 L49.318,41.000 L51.818,41.000 L54.318,41.000 L56.818,41.000 L58.068,41.000 L59.318,41.000 L61.818,41.000 L64.318,41.000 L66.818,41.000 L69.175,41.000 L69.024,41.400 L68.485,41.400 L65.985,41.400 L63.485,41.400 L60.985,41.400 L58.485,41.400 L55.985,41.400 L53.485,41.400 L50.985,41.400 L48.485,41.400 L45.985,41.400 L43.485,41.400 L40.985,41.400 L38.485,41.400 L35.985,41.400 L33.485,41.400 L30.985,41.400 L28.485,41.400 L27.911,41.400 L27.655,41.800 L30.151,41.800 L32.651,41.800 L35.151,41.800 L37.651,41.800 L40.151,41.800 L42.651,41.800 L45.151,41.800 L47.651,41.800 L50.151,41.800 L52.651,41.800 L55.151,41.800 L57.651,41.800 L60.151,41.800 L62.651,41.800 L65.151,41.800 L67.651,41.800 L68.868,41.800 L68.710,42.200 L66.818,42.200 L64.318,42.200 L61.818,42.200 L59.318,42.200 L58.068,42.200 L56.818,42.200 L54.318,42.200 L51.818,42.200 L49.318,42.200 L46.818,42.200 L44.318,42.200 L41.818,42.200 L39.318,42.200 L36.818,42.200 L34.318,42.200 L31.818,42.200 L29.318,42.200 L27.372,42.200 L27.089,42.600 L28.485,42.600 L30.985,42.600 L33.485,42.600 L35.985,42.600 L38.485,42.600 L40.985,42.600 L43.485,42.600 L45.985,42.600 L48.485,42.600 L50.985,42.600 L53.485,42.600 L55.985,42.600 L58.485,42.600 L60.985,42.600 L63.485,42.600 L65.985,42.600 L67.265,42.600 L68.545,42.600 L68.381,43.000 L67.651,43.000 L65.151,43.000 L62.651,43.000 L60.151,43.000 L57.651,43.000 L55.151,43.000 L52.651,43.000 L50.151,43.000 L47.651,43.000 L45.151,43.000 L42.651,43.000 L40.151,43.000 L37.651,43.000 L35.151,43.000 L32.651,43.000 L30.151,43.000 L27.651,43.000 L26.806,43.000 L26.502,43.400 L26.818,43.400 L29.318,43.400 L31.818,43.400 L34.318,43.400 L36.818,43.400 L39.318,43.400 L41.818,43.400 L44.318,43.400 L46.818,43.400 L49.318,43.400 L51.818,43.400 L54.318,43.400 L56.818,43.400 L58.068,43.400 L59.318,43.400 L61.818,43.400 L64.318,43.400 L66.818,43.400 L68.189,43.400 L67.994,43.800 L65.985,43.800 L63.485,43.800 L60.985,43.800 L58.485,43.800 L55.985,43.800 L53.485,43.800 L50.985,43.800 L48.485,43.800 L45.985,43.800 L43.485,43.800 L40.985,43.800 L38.485,43.800 L35.985,43.800 L33.485,43.800 L30.985,43.800 L28.485,43.800 L26.142,43.800 L25.781,44.200 L27.651,44.200 L30.151,44.200 L32.651,44.200 L35.151,44.200 L37.651,44.200 L40.151,44.200 L42.651,44.200 L45.151,44.200 L47.651,44.200 L50.151,44.200 L52.651,44.200 L55.151,44.200 L57.651,44.200 L60.151,44.200 L62.651,44.200 L65.151,44.200 L66.475,44.200 L67.798,44.200 L67.602,44.600 L66.818,44.600 L64.318,44.600 L61.818,44.600 L59.318,44.600 L58.068,44.600 L56.818,44.600 L54.318,44.600 L51.818,44.600 L49.318,44.600 L46.818,44.600 L44.318,44.600 L41.818,44.600 L39.318,44.600 L36.818,44.600 L34.318,44.600 L31.818,44.600 L29.318,44.600 L26.818,44.600 L25.416,44.600 L25.026,45.000 L25.985,45.000 L28.485,45.000 L30.985,45.000 L33.485,45.000 L35.985,45.000 L38.485,45.000 L40.985,45.000 L43.485,45.000 L45.985,45.000 L48.485,45.000 L50.985,45.000 L53.485,45.000 L55.985,45.000 L58.485,45.000 L60.985,45.000 L63.485,45.000 L65.985,45.000 L67.395,45.000 L67.168,45.400 L65.151,45.400 L62.651,45.400 L60.151,45.400 L57.651,45.400 L55.151,45.400 L52.651,45.400 L50.151,45.400 L47.651,45.400 L45.151,45.400 L42.651,45.400 L40.151,45.400 L37.651,45.400 L35.151,45.400 L32.651,45.400 L30.151,45.400 L27.651,45.400 L25.151,45.400 L24.615,45.400 L24.158,45.800 L25.488,45.800 L26.818,45.800 L29.318,45.800 L31.818,45.800 L34.318,45.800 L36.818,45.800 L39.318,45.800 L41.818,45.800 L44.318,45.800 L46.818,45.800 L49.318,45.800 L51.818,45.800 L54.318,45.800 L56.818,45.800 L58.068,45.800 L59.318,45.800 L61.818,45.800 L64.318,45.800 L65.628,45.800 L66.938,45.800 L66.700,46.200 L65.985,46.200 L63.485,46.200 L60.985,46.200 L58.485,46.200 L55.985,46.200 L53.485,46.200 L50.985,46.200 L48.485,46.200 L45.985,46.200 L43.485,46.200 L40.985,46.200 L38.485,46.200 L35.985,46.200 L33.485,46.200 L30.985,46.200 L28.485,46.200 L25.985,46.200 L23.691,46.200 L23.221,46.600 L25.151,46.600 L27.651,46.600 L30.151,46.600 L32.651,46.600 L35.151,46.600 L37.651,46.600 L40.151,46.600 L42.651,46.600 L45.151,46.600 L47.651,46.600 L50.151,46.600 L52.651,46.600 L55.151,46.600 L57.651,46.600 L60.151,46.600 L62.651,46.600 L65.151,46.600 L66.461,46.600 L66.211,47.000 L64.318,47.000 L61.818,47.000 L59.318,47.000 L56.818,47.000 L54.318,47.000 L51.818,47.000 L49.318,47.000 L46.818,47.000 L44.318,47.000 L41.818,47.000 L39.318,47.000 L36.818,47.000 L34.318,47.000 L31.818,47.000 L29.318,47.000 L26.818,47.000 L24.318,47.000 L22.676,47.000 L22.072,47.400 L23.485,47.400 L25.985,47.400 L28.485,47.400 L30.985,47.400 L33.485,47.400 L35.985,47.400 L38.485,47.400 L40.985,47.400 L43.485,47.400 L45.985,47.400 L48.485,47.400 L50.985,47.400 L53.485,47.400 L55.985,47.400 L58.485,47.400 L60.985,47.400 L63.485,47.400 L65.960,47.400 L65.677,47.800 L65.151,47.800 L62.651,47.800 L60.151,47.800 L57.651,47.800 L55.151,47.800 L52.651,47.800 L50.151,47.800 L47.651,47.800 L45.151,47.800 L42.651,47.800 L40.151,47.800 L37.651,47.800 L35.151,47.800 L32.651,47.800 L30.151,47.800 L27.651,47.800 L25.151,47.800 L22.651,47.800 L21.469,47.800 L20.784,48.200 L21.818,48.200 L24.318,48.200 L26.818,48.200 L29.318,48.200 L31.818,48.200 L34.318,48.200 L36.818,48.200 L39.318,48.200 L41.818,48.200 L44.318,48.200 L46.818,48.200 L49.318,48.200 L51.818,48.200 L54.318,48.200 L56.818,48.200 L59.318,48.200 L61.818,48.200 L64.318,48.200 L65.391,48.200 L65.106,48.600 L63.485,48.600 L60.985,48.600 L58.485,48.600 L55.985,48.600 L53.485,48.600 L50.985,48.600 L48.485,48.600 L45.985,48.600 L43.485,48.600 L40.985,48.600 L38.485,48.600 L35.985,48.600 L33.485,48.600 L30.985,48.600 L28.485,48.600 L25.985,48.600 L23.485,48.600 L20.985,48.600 L20.022,48.600 L19.207,49.000 L20.151,49.000 L22.651,49.000 L25.151,49.000 L27.651,49.000 L30.151,49.000 L32.651,49.000 L35.151,49.000 L37.651,49.000 L40.151,49.000 L42.651,49.000 L45.151,49.000 L47.651,49.000 L50.151,49.000 L52.651,49.000 L55.151,49.000 L57.651,49.000 L60.151,49.000 L62.651,49.000 L64.820,49.000 L64.499,49.400 L63.158,49.400 L61.818,49.400 L59.318,49.400 L56.818,49.400 L54.318,49.400 L51.818,49.400 L49.318,49.400 L46.818,49.400 L44.318,49.400 L41.818,49.400 L39.318,49.400 L36.818,49.400 L34.318,49.400 L31.818,49.400 L29.318,49.400 L26.818,49.400 L24.318,49.400 L21.818,49.400 L19.318,49.400 L18.263,49.400 L17.894,49.800 L18.485,49.800 L20.985,49.800 L23.485,49.800 L25.985,49.800 L28.485,49.800 L30.985,49.800 L33.485,49.800 L35.985,49.800 L38.485,49.800 L40.985,49.800 L43.485,49.800 L45.985,49.800 L48.485,49.800 L50.985,49.800 L53.485,49.800 L55.985,49.800 L58.485,49.800 L60.985,49.800 L63.485,49.800 L64.172,49.800 L63.834,50.200 L62.651,50.200 L60.151,50.200 L57.651,50.200 L55.151,50.200 L52.651,50.200 L50.151,50.200 L47.651,50.200 L45.151,50.200 L42.651,50.200 L40.151,50.200 L37.651,50.200 L35.151,50.200 L32.651,50.200 L30.151,50.200 L27.651,50.200 L25.151,50.200 L22.651,50.200 L20.151,50.200 L18.169,50.200 L18.476,50.600 L19.318,50.600 L21.818,50.600 L24.318,50.600 L26.818,50.600 L29.318,50.600 L31.818,50.600 L34.318,50.600 L36.818,50.600 L39.318,50.600 L41.818,50.600 L44.318,50.600 L46.818,50.600 L49.318,50.600 L51.818,50.600 L54.318,50.600 L56.818,50.600 L59.318,50.600 L61.818,50.600 L63.495,50.600 L63.138,51.000 L60.985,51.000 L58.485,51.000 L55.985,51.000 L53.485,51.000 L50.985,51.000 L48.485,51.000 L45.985,51.000 L43.485,51.000 L40.985,51.000 L38.485,51.000 L35.985,51.000 L33.485,51.000 L30.985,51.000 L28.485,51.000 L25.985,51.000 L23.485,51.000 L20.985,51.000 L18.819,51.000 L19.195,51.400 L20.151,51.400 L22.651,51.400 L25.151,51.400 L27.651,51.400 L30.151,51.400 L32.651,51.400 L35.151,51.400 L37.651,51.400 L40.151,51.400 L42.651,51.400 L45.151,51.400 L47.651,51.400 L50.151,51.400 L52.651,51.400 L55.151,51.400 L57.651,51.400 L60.151,51.400 L61.463,51.400 L62.775,51.400 L62.375,51.800 L61.818,51.800 L59.318,51.800 L56.818,51.800 L54.318,51.800 L51.818,51.800 L49.318,51.800 L46.818,51.800 L44.318,51.800 L41.818,51.800 L39.318,51.800 L36.818,51.800 L34.318,51.800 L31.818,51.800 L29.318,51.800 L26.818,51.800 L24.318,51.800 L21.818,51.800 L19.595,51.800 L19.995,52.200 L20.985,52.200 L23.485,52.200 L25.985,52.200 L28.485,52.200 L30.985,52.200 L33.485,52.200 L35.985,52.200 L38.485,52.200 L40.985,52.200 L43.485,52.200 L45.985,52.200 L48.485,52.200 L50.985,52.200 L53.485,52.200 L55.985,52.200 L58.485,52.200 L60.985,52.200 L61.975,52.200 L61.575,52.600 L60.151,52.600 L57.651,52.600 L55.151,52.600 L52.651,52.600 L50.151,52.600 L47.651,52.600 L45.151,52.600 L42.651,52.600 L40.151,52.600 L37.651,52.600 L35.151,52.600 L32.651,52.600 L30.151,52.600 L27.651,52.600 L25.151,52.600 L22.651,52.600 L20.397,52.600 L20.838,53.000 L21.818,53.000 L24.318,53.000 L26.818,53.000 L29.318,53.000 L31.818,53.000 L34.318,53.000 L36.818,53.000 L39.318,53.000 L41.818,53.000 L44.318,53.000 L46.818,53.000 L49.318,53.000 L51.818,53.000 L54.318,53.000 L56.818,53.000 L59.318,53.000 L61.138,53.000 L60.679,53.400 L58.485,53.400 L55.985,53.400 L53.485,53.400 L50.985,53.400 L48.485,53.400 L45.985,53.400 L43.485,53.400 L40.985,53.400 L38.485,53.400 L35.985,53.400 L33.485,53.400 L30.985,53.400 L28.485,53.400 L25.985,53.400 L23.485,53.400 L21.290,53.400 L21.763,53.800 L22.651,53.800 L25.151,53.800 L27.651,53.800 L30.151,53.800 L32.651,53.800 L35.151,53.800 L37.651,53.800 L40.151,53.800 L42.651,53.800 L45.151,53.800 L47.651,53.800 L50.151,53.800 L52.651,53.800 L55.151,53.800 L57.651,53.800 L58.929,53.800 L60.207,53.800 L59.724,54.200 L59.318,54.200 L56.818,54.200 L54.318,54.200 L51.818,54.200 L49.318,54.200 L46.818,54.200 L44.318,54.200 L41.818,54.200 L39.318,54.200 L36.818,54.200 L34.318,54.200 L31.818,54.200 L29.318,54.200 L26.818,54.200 L24.318,54.200 L22.242,54.200 L22.735,54.600 L23.485,54.600 L25.985,54.600 L28.485,54.600 L30.985,54.600 L33.485,54.600 L35.985,54.600 L38.485,54.600 L40.985,54.600 L43.485,54.600 L45.985,54.600 L48.485,54.600 L50.985,54.600 L53.485,54.600 L55.985,54.600 L58.485,54.600 L59.222,54.600 L58.674,55.000 L57.651,55.000 L55.151,55.000 L52.651,55.000 L50.151,55.000 L47.651,55.000 L45.151,55.000 L42.651,55.000 L40.151,55.000 L37.651,55.000 L35.151,55.000 L32.651,55.000 L30.151,55.000 L27.651,55.000 L25.151,55.000 L23.295,55.000 L23.855,55.400 L24.318,55.400 L26.818,55.400 L29.318,55.400 L31.818,55.400 L34.318,55.400 L36.818,55.400 L39.318,55.400 L41.818,55.400 L44.318,55.400 L46.818,55.400 L49.318,55.400 L51.818,55.400 L54.318,55.400 L56.818,55.400 L58.114,55.400 L57.554,55.800 L55.985,55.800 L53.485,55.800 L50.985,55.800 L48.485,55.800 L45.985,55.800 L43.485,55.800 L40.985,55.800 L38.485,55.800 L35.985,55.800 L33.485,55.800 L30.985,55.800 L28.485,55.800 L25.985,55.800 L24.432,55.800 L25.059,56.200 L26.355,56.200 L27.651,56.200 L30.151,56.200 L32.651,56.200 L35.151,56.200 L37.651,56.200 L40.151,56.200 L42.651,56.200 L45.151,56.200 L47.651,56.200 L50.151,56.200 L52.651,56.200 L55.151,56.200 L56.908,56.200 L56.243,56.600 L54.318,56.600 L51.818,56.600 L49.318,56.600 L46.818,56.600 L44.318,56.600 L41.818,56.600 L39.318,56.600 L36.818,56.600 L34.318,56.600 L31.818,56.600 L29.318,56.600 L26.818,56.600 L25.726,56.600 L26.410,57.000 L28.485,57.000 L30.985,57.000 L33.485,57.000 L35.985,57.000 L38.485,57.000 L40.985,57.000 L43.485,57.000 L45.985,57.000 L48.485,57.000 L50.985,57.000 L53.485,57.000 L55.555,57.000 L54.821,57.400 L52.651,57.400 L50.151,57.400 L47.651,57.400 L45.151,57.400 L42.651,57.400 L40.151,57.400 L37.651,57.400 L35.151,57.400 L32.651,57.400 L30.151,57.400 L27.651,57.400 L27.148,57.400 L27.966,57.800 L29.318,57.800 L31.818,57.800 L34.318,57.800 L36.818,57.800 L39.318,57.800 L41.818,57.800 L44.318,57.800 L46.818,57.800 L49.318,57.800 L51.818,57.800 L54.003,57.800 L53.185,58.200 L50.985,58.200 L48.485,58.200 L45.985,58.200 L43.485,58.200 L40.985,58.200 L38.485,58.200 L35.985,58.200 L33.485,58.200 L30.985,58.200 L28.807,58.200 L29.771,58.600 L30.151,58.600 L32.651,58.600 L35.151,58.600 L37.651,58.600 L40.151,58.600 L42.651,58.600 L45.151,58.600 L47.651,58.600 L50.151,58.600 L52.198,58.600 L51.165,59.000 L49.318,59.000 L46.818,59.000 L44.318,59.000 L41.818,59.000 L39.318,59.000 L36.818,59.000 L34.318,59.000 L31.818,59.000 L30.810,59.000 L32.000,59.400 L33.485,59.400 L35.985,59.400 L38.485,59.400 L40.985,59.400 L43.485,59.400 L45.985,59.400 L48.485,59.400 L49.969,59.400 L48.625,59.800 L47.651,59.800 L45.151,59.800 L42.651,59.800 L40.151,59.800 L37.651,59.800 L35.151,59.800 L33.344,59.800 L35.136,60.200 L36.818,60.200 L39.318,60.200 L41.818,60.200 L44.318,60.200 L45.576,60.200 L46.833,60.200 L45.540,60.400 L44.247,60.600 L43.485,60.600 L40.985,60.600 L38.485,60.600 L37.722,60.600 L38.422,60.600 L37.722,60.600 L38.422,60.600 L37.722,60.600"/>
  <path fill="none" stroke="#31604f" stroke-width="0.4" stroke-linecap="round" stroke-linejoin="round" d="M9.559,20.927 L10.259,20.927 L9.559,20.927 L10.259,20.927 L9.559,20.927 L11.818,20.927 L12.410,20.927 L14.033,21.327 L13.485,21.327 L10.985,21.327 L8.485,21.327 L7.937,21.327 L6.910,21.727 L7.651,21.727 L10.151,21.727 L12.651,21.727 L15.059,21.727 L15.821,22.127 L14.318,22.127 L11.818,22.127 L9.318,22.127 L6.818,22.127 L6.148,22.127 L5.386,22.527 L5.985,22.527 L8.485,22.527 L10.985,22.527 L13.485,22.527 L15.985,22.527 L16.583,22.527 L17.068,22.927 L15.151,22.927 L12.651,22.927 L10.151,22.927 L7.651,22.927 L6.276,22.927 L4.901,22.927 L4.450,23.327 L6.818,23.327 L9.318,23.327 L11.818,23.327 L14.318,23.327 L16.818,23.327 L17.520,23.327 L17.971,23.727 L15.985,23.727 L13.485,23.727 L10.985,23.727 L8.485,23.727 L5.985,23.727 L3.998,23.727 L3.547,24.127 L5.151,24.127 L7.651,24.127 L10.151,24.127 L12.651,24.127 L15.151,24.127 L17.651,24.127 L18.423,24.127 L18.717,24.527 L16.818,24.527 L14.318,24.527 L11.818,24.527 L9.318,24.527 L6.818,24.527 L4.318,24.527 L3.252,24.527 L2.976,24.927 L3.485,24.927 L5.985,24.927 L8.485,24.927 L10.985,24.927 L13.485,24.927 L15.985,24.927 L18.485,24.927 L18.993,24.927 L19.269,25.327 L17.651,25.327 L15.151,25.327 L12.651,25.327 L10.151,25.327 L7.651,25.327 L5.151,25.327 L2.700,25.327 L2.424,25.727 L4.318,25.727 L6.818,25.727 L9.318,25.727 L11.818,25.727 L14.318,25.727 L16.818,25.727 L18.182,25.727 L19.545,25.727 L19.821,26.127 L18.485,26.127 L15.985,26.127 L13.485,26.127 L10.985,26.127 L8.485,26.127 L5.985,26.127 L3.485,26.127 L2.148,26.127 L1.988,26.527 L2.651,26.527 L5.151,26.527 L7.651,26.527 L10.151,26.527 L12.651,26.527 L15.151,26.527 L17.651,26.527 L19.981,26.527 L20.133,26.927 L19.318,26.927 L16.818,26.927 L14.318,26.927 L11.818,26.927 L9.318,26.927 L6.818,26.927 L4.318,26.927 L1.836,26.927 L1.685,27.327 L3.485,27.327 L5.985,27.327 L8.485,27.327 L10.985,27.327 L13.485,27.327 L15.985,27.327 L18.485,27.327 L20.284,27.327 L20.436,27.727 L19.044,27.727 L17.651,27.727 L15.151,27.727 L12.651,27.727 L10.151,27.727 L7.651,27.727 L5.151,27.727 L2.651,27.727 L1.533,27.727 L1.381,28.127 L1.818,28.127 L4.318,28.127 L6.818,28.127 L9.318,28.127 L11.818,28.127 L14.318,28.127 L16.818,28.127 L19.318,28.127 L20.588,28.127 L20.709,28.527 L18.485,28.527 L15.985,28.527 L13.485,28.527 L10.985,28.527 L8.485,28.527 L5.985,28.527 L3.485,28.527 L1.261,28.527 L1.212,28.927 L2.651,28.927 L5.151,28.927 L7.651,28.927 L10.151,28.927 L12.651,28.927 L15.151,28.927 L17.651,28.927 L20.151,28.927 L20.757,28.927 L20.806,29.327 L19.318,29.327 L16.818,29.327 L14.318,29.327 L11.818,29.327 L9.318,29.327 L6.818,29.327 L4.318,29.327 L1.818,29.327 L1.163,29.327 L1.115,29.727 L3.485,29.727 L5.985,29.727 L8.485,29.727 L10.985,29.727 L13.485,29.727 L15.985,29.727 L18.485,29.727 L20.854,29.727 L20.903,30.127 L20.151,30.127 L17.651,30.127 L15.151,30.127 L12.651,30.127 L10.151,30.127 L7.651,30.127 L5.151,30.127 L2.651,30.127 L1.066,30.127 L1.018,30.527 L1.818,30.527 L4.318,30.527 L6.818,30.527 L9.318,30.527 L11.818,30.527 L14.318,30.527 L16.818,30.527 L19.318,30.527 L20.951,30.527 L20.969,30.927 L18.485,30.927 L15.985,30.927 L13.485,30.927 L10.985,30.927 L8.485,30.927 L5.985,30.927 L3.485,30.927 L1.000,30.927 L1.049,31.327 L2.651,31.327 L5.151,31.327 L7.651,31.327 L10.151,31.327 L12.651,31.327 L15.151,31.327 L17.651,31.327 L20.151,31.327 L20.921,31.327 L20.872,31.727 L19.318,31.727 L16.818,31.727 L14.318,31.727 L11.818,31.727 L9.318,31.727 L6.818,31.727 L4.318,31.727 L1.818,31.727 L1.097,31.727 L1.146,32.127 L3.485,32.127 L5.985,32.127 L8.485,32.127 L10.985,32.127 L13.485,32.127 L15.985,32.127 L18.485,32.127 L20.823,32.127 L20.775,32.527 L20.151,32.527 L17.651,32.527 L15.151,32.527 L12.651,32.527 L10.151,32.527 L7.651,32.527 L5.151,32.527 L2.651,32.527 L1.194,32.527 L1.243,32.927 L1.818,32.927 L4.318,32.927 L6.818,32.927 L9.318,32.927 L11.818,32.927 L14.318,32.927 L16.818,32.927 L19.318,32.927 L20.726,32.927 L20.643,33.327 L18.485,33.327 L15.985,33.327 L13.485,33.327 L10.985,33.327 L8.485,33.327 L5.985,33.327 L3.485,33.327 L1.326,33.327 L1.478,33.727 L2.651,33.727 L5.151,33.727 L7.651,33.727 L10.151,33.727 L12.651,33.727 L15.151,33.727 L17.651,33.727 L20.151,33.727 L20.491,33.727 L20.340,34.127 L19.318,34.127 L16.818,34.127 L14.318,34.127 L11.818,34.127 L9.318,34.127 L6.818,34.127 L4.318,34.127 L2.974,34.127 L1.629,34.127 L1.781,34.527 L3.485,34.527 L5.985,34.527 L8.485,34.527 L10.985,34.527 L13.485,34.527 L15.985,34.527 L18.485,34.527 L20.188,34.527 L20.036,34.927 L17.651,34.927 L15.151,34.927 L12.651,34.927 L10.151,34.927 L7.651,34.927 L5.151,34.927 L2.651,34.927 L1.933,34.927 L2.084,35.327 L4.318,35.327 L6.818,35.327 L9.318,35.327 L11.818,35.327 L14.318,35.327 L16.818,35.327 L19.318,35.327 L19.885,35.327 L19.646,35.727 L18.485,35.727 L15.985,35.727 L13.485,35.727 L10.985,35.727 L8.485,35.727 L5.985,35.727 L3.485,35.727 L2.323,35.727 L2.599,36.127 L3.875,36.127 L5.151,36.127 L7.651,36.127 L10.151,36.127 L12.651,36.127 L15.151,36.127 L17.651,36.127 L19.370,36.127 L19.094,36.527 L16.818,36.527 L14.318,36.527 L11.818,36.527 L9.318,36.527 L6.818,36.527 L4.318,36.527 L2.875,36.527 L3.151,36.927 L3.485,36.927 L5.985,36.927 L8.485,36.927 L10.985,36.927 L13.485,36.927 L15.985,36.927 L18.485,36.927 L18.818,36.927 L18.542,37.327 L17.651,37.327 L15.151,37.327 L12.651,37.327 L10.151,37.327 L7.651,37.327 L5.151,37.327 L3.428,37.327 L3.833,37.727 L4.318,37.727 L6.818,37.727 L9.318,37.727 L11.818,37.727 L14.318,37.727 L16.818,37.727 L18.136,37.727 L17.684,38.127 L15.985,38.127 L13.485,38.127 L10.985,38.127 L8.485,38.127 L5.985,38.127 L4.285,38.127 L4.736,38.527 L5.151,38.527 L7.651,38.527 L10.151,38.527 L12.651,38.527 L15.151,38.527 L17.233,38.527 L16.781,38.927 L14.318,38.927 L11.818,38.927 L9.318,38.927 L6.818,38.927 L5.188,38.927 L5.870,39.327 L7.177,39.327 L8.485,39.327 L10.985,39.327 L13.485,39.327 L14.792,39.327 L16.099,39.327 L15.337,39.727 L13.994,39.727 L12.651,39.727 L10.151,39.727 L7.651,39.727 L6.632,39.727 L7.395,40.127 L9.318,40.127 L11.818,40.127 L13.196,40.127 L14.575,40.127 L13.001,40.527 L10.985,40.527 L8.968,40.527 L9.668,40.527 L8.968,40.527 L9.668,40.527 L8.968,40.527"/>
</svg>
