<svg xmlns="http://www.w3.org/2000/svg" viewBox="0 -0.006 55.787 55.787" width="256" height="256">
  <title>trace-motifs</title>
  <rect x="0" y="-0.006" width="55.787" height="55.787" fill="#f5efe4"/>
  <path fill="none" stroke="#3a4e8c" stroke-width="0.4" stroke-linecap="round" stroke-linejoin="round" d="M18.814,18.814 L18.865,18.116 L18.814,18.814 L18.865,18.116 L18.814,18.814 L18.960,16.819 L19.535,14.904 L20.032,14.036 L20.529,13.168 L21.883,11.697 L22.706,11.128 L23.529,10.560 L25.390,9.828 L26.378,9.673 L27.366,9.518 L29.360,9.670 L31.273,10.254 L33.006,11.252 L34.472,12.613 L35.037,13.438 L35.603,14.263 L36.327,16.127 L36.628,18.036 L36.519,17.345 L36.628,18.036 L36.519,17.345 L36.628,18.036 M35.929,18.067 L36.628,18.036 L35.929,18.067 L36.628,18.036 L34.649,18.123 L32.669,18.209 L30.690,18.296 L28.711,18.382 L26.731,18.468 L24.752,18.555 L22.773,18.641 L20.793,18.728 L18.814,18.814 L20.328,17.507 L22.089,16.559 L24.019,16.034 L26.017,15.951 L27.001,16.132 L27.984,16.312 L29.818,17.110 L31.434,18.288 L32.086,19.047 L32.737,19.805 L33.677,21.571 L34.196,23.502 L34.270,25.501 L33.904,27.467 L33.097,29.297 L31.960,30.860 L32.372,30.294 L31.960,30.860 L32.372,30.294 L31.960,30.860 M31.444,30.388 L31.960,30.860 L31.444,30.388 L31.960,30.860 L30.500,29.522 L29.039,28.184 L27.578,26.845 L26.118,25.507 L24.657,24.168 L23.196,22.830 L21.735,21.491 L20.275,20.153 L18.814,18.814 L20.809,18.960 L22.724,19.535 L24.460,20.529 L25.932,21.883 L27.068,23.529 L27.800,25.390 L28.110,27.366 L27.958,29.360 L27.666,30.317 L27.374,31.273 L26.875,32.140 L26.376,33.006 L25.695,33.739 L25.015,34.472 L23.365,35.603 L21.501,36.327 L19.592,36.628 L20.283,36.519 L19.592,36.628 L20.283,36.519 L19.592,36.628 M19.561,35.929 L19.592,36.628 L19.561,35.929 L19.592,36.628 L19.505,34.649 L19.419,32.669 L19.333,30.690 L19.246,28.711 L19.160,26.731 L19.073,24.752 L18.987,22.773 L18.900,20.793 L18.814,18.814 L20.121,20.328 L21.069,22.089 L21.594,24.019 L21.677,26.017 L21.496,27.001 L21.316,27.984 L20.518,29.818 L19.340,31.434 L18.581,32.086 L17.823,32.737 L16.057,33.677 L14.126,34.196 L12.127,34.270 L10.161,33.904 L8.331,33.097 L6.768,31.960 L7.334,32.372 L6.768,31.960 L7.334,32.372 L6.768,31.960 M7.240,31.444 L6.768,31.960 L7.240,31.444 L6.768,31.960 L8.106,30.500 L9.445,29.039 L10.783,27.578 L12.122,26.118 L13.460,24.657 L14.799,23.196 L16.137,21.735 L17.476,20.275 L18.814,18.814 L18.668,20.809 L18.093,22.724 L17.099,24.460 L15.745,25.932 L14.922,26.500 L14.099,27.068 L12.238,27.800 L10.262,28.110 L8.268,27.958 L6.355,27.374 L4.622,26.376 L3.889,25.695 L3.156,25.015 L2.025,23.365 L1.663,22.433 L1.302,21.501 L1.000,19.592 L1.109,20.283 L1.000,19.592 L1.109,20.283 L1.000,19.592 M1.699,19.561 L1.000,19.592 L1.699,19.561 L1.000,19.592 L2.979,19.505 L4.959,19.419 L6.938,19.333 L8.917,19.246 L10.897,19.160 L12.876,19.073 L14.855,18.987 L16.835,18.900 L18.814,18.814 L17.301,20.121 L16.420,20.595 L15.539,21.069 L13.609,21.594 L11.611,21.677 L10.627,21.496 L9.644,21.316 L7.810,20.518 L7.002,19.929 L6.194,19.340 L4.891,17.823 L4.421,16.940 L3.951,16.057 L3.691,15.091 L3.432,14.126 L3.358,12.127 L3.541,11.144 L3.724,10.161 L4.531,8.331 L5.668,6.768 L5.256,7.334 L5.668,6.768 L5.256,7.334 L5.668,6.768 M6.184,7.240 L5.668,6.768 L6.184,7.240 L5.668,6.768 L7.128,8.106 L8.589,9.445 L10.050,10.783 L11.510,12.122 L12.971,13.460 L14.432,14.799 L15.893,16.137 L17.353,17.476 L18.814,18.814 L16.819,18.668 L14.904,18.093 L13.168,17.099 L11.697,15.745 L10.560,14.099 L9.828,12.238 L9.673,11.250 L9.518,10.262 L9.670,8.268 L10.254,6.355 L10.753,5.488 L11.252,4.622 L11.933,3.889 L12.613,3.156 L13.438,2.591 L14.263,2.025 L16.127,1.302 L18.036,1.000 L17.345,1.109 L18.036,1.000 L17.345,1.109 L18.036,1.000 M18.067,1.699 L18.036,1.000 L18.067,1.699 L18.036,1.000 L18.123,2.979 L18.209,4.959 L18.296,6.938 L18.382,8.917 L18.468,10.897 L18.555,12.876 L18.641,14.855 L18.728,16.835 L18.814,18.814 L17.507,17.301 L16.559,15.539 L16.034,13.609 L15.951,11.611 L16.132,10.627 L16.312,9.644 L17.110,7.810 L18.288,6.194 L19.047,5.542 L19.805,4.891 L20.688,4.421 L21.571,3.951 L22.537,3.691 L23.502,3.432 L25.501,3.358 L27.467,3.724 L28.382,4.128 L29.297,4.531 L30.860,5.668 L30.294,5.256 L30.860,5.668 L30.294,5.256 L30.860,5.668"/>
  <path fill="none" stroke="#31604f" stroke-width="0.4" stroke-linecap="round" stroke-linejoin="round" d="M30.608,6.321 L30.860,5.668 L30.608,6.321 L30.860,5.668 L30.152,7.500 L29.443,9.332 L28.735,11.164 L28.026,12.996 L27.317,14.828 L26.609,16.660 L25.900,18.493 L25.192,20.325 L24.483,22.157 L23.774,23.989 L23.066,25.821 L22.357,27.653 L21.649,29.485 L20.940,31.318 L20.231,33.150 L19.523,34.982 L18.814,36.814 L18.926,34.817 L19.093,33.831 L19.259,32.845 L19.809,30.922 L20.568,29.072 L21.528,27.317 L22.677,25.680 L24.001,24.181 L25.482,22.838 L27.104,21.667 L27.975,21.175 L28.846,20.684 L29.766,20.292 L30.686,19.900 L31.643,19.612 L32.601,19.325 L33.585,19.145 L34.569,18.966 L36.564,18.828 L37.563,18.870 L38.562,18.912 L39.550,19.065 L40.539,19.217 L42.469,19.740 L44.329,20.474 L45.213,20.942 L46.097,21.410 L47.749,22.537 L49.267,23.840 L50.630,25.303 L51.226,26.106 L51.822,26.909 L52.325,27.773 L52.829,28.637 L53.233,29.552 L53.637,30.467 L54.238,32.374 L54.622,34.337 L54.705,35.334 L54.787,36.330 L54.729,38.329 L54.589,39.320 L54.449,40.310 L54.200,41.278 L53.951,42.247 L53.241,44.117 L52.328,45.896 L51.223,47.563 L50.581,48.330 L49.939,49.097 L49.216,49.788 L48.493,50.478 L46.903,51.691 L46.045,52.205 L45.188,52.719 L43.369,53.551 L42.419,53.863 L41.469,54.175 L39.511,54.585 L37.520,54.774 L36.520,54.758 L35.520,54.741 L34.528,54.614 L33.537,54.486 L32.565,54.249 L31.593,54.012 L29.715,53.326 L28.820,52.880 L27.925,52.435 L26.244,51.350 L24.694,50.086 L23.995,49.371 L23.295,48.657 L22.679,47.869 L22.063,47.082 L21.538,46.230 L21.013,45.379 L20.160,43.570 L19.512,41.678 L19.079,39.726 L18.923,38.794 L18.887,36.967 L18.850,35.141 L18.814,33.314 L18.884,32.316 L18.953,31.319 L19.160,30.340 L19.366,29.362 L19.705,28.421 L20.044,27.480 L20.974,25.710 L21.557,24.897 L22.140,24.085 L23.518,22.635 L25.082,21.389 L25.943,20.880 L26.803,20.370 L27.726,19.984 L28.648,19.598 L30.582,19.087 L32.567,18.848 L34.567,18.884 L35.555,19.040 L36.543,19.195 L37.500,19.486 L38.457,19.776 L39.365,20.195 L40.272,20.614 L41.955,21.695 L42.714,22.346 L43.473,22.998 L44.135,23.747 L44.797,24.497 L45.902,26.164 L46.334,27.065 L46.766,27.967 L47.374,29.873 L47.713,31.844 L47.746,32.843 L47.778,33.843 L47.566,35.831 L47.082,37.772 L46.336,39.627 L45.838,40.495 L45.340,41.362 L44.115,42.943 L42.684,44.340 L41.879,44.933 L41.074,45.526 L39.315,46.479 L38.379,46.830 L37.442,47.181 L36.467,47.399 L35.491,47.617 L34.494,47.699 L33.497,47.780 L31.501,47.667 L29.538,47.279 L27.649,46.625 L25.867,45.716 L25.047,45.144 L24.228,44.571 L23.495,43.890 L22.762,43.210 L22.130,42.435 L21.498,41.660 L20.979,40.805 L20.460,39.950 L19.667,38.114 L19.136,36.186 L18.949,35.288 L19.092,35.974 L18.949,35.288 L19.092,35.974 L18.949,35.288"/>
  <path fill="none" stroke="#d9a441" stroke-width="0.4" stroke-linecap="round" stroke-linejoin="round" d="M24.970,32.414 L24.970,32.114 L24.970,32.414 L24.970,32.114 L24.970,32.414 L24.970,32.114 L24.970,32.714 L24.970,32.414 L25.270,32.414 L24.670,32.414 L24.970,32.414 L24.670,32.414 L24.970,32.414 L24.670,32.414 L24.970,32.414 M29.079,28.563 L29.079,28.263 L29.079,28.563 L29.079,28.263 L29.079,28.563 L29.079,28.263 L29.079,28.863 L29.079,28.563 L29.379,28.563 L28.779,28.563 L29.079,28.563 L28.779,28.563 L29.079,28.563 L28.779,28.563 L29.079,28.563 M25.685,28.300 L25.685,28.000 L25.685,28.300 L25.685,28.000 L25.685,28.300 L25.685,28.000 L25.685,28.600 L25.685,28.300 L25.985,28.300 L25.385,28.300 L25.685,28.300 L25.385,28.300 L25.685,28.300 L25.385,28.300 L25.685,28.300 M32.702,30.489 L32.702,30.189 L32.702,30.489 L32.702,30.189 L32.702,30.489 L32.702,30.189 L32.702,30.789 L32.702,30.489 L33.002,30.489 L32.402,30.489 L32.702,30.489 L32.402,30.489 L32.702,30.489 L32.402,30.489 L32.702,30.489 M33.974,25.295 L33.974,24.995 L33.974,25.295 L33.974,24.995 L33.974,25.295 L33.974,24.995 L33.974,25.595 L33.974,25.295 L34.274,25.295 L33.674,25.295 L33.974,25.295 L33.674,25.295 L33.974,25.295 L33.674,25.295 L33.974,25.295 M28.329,32.724 L28.329,32.424 L28.329,32.724 L28.329,32.424 L28.329,32.724 L28.329,32.424 L28.329,33.024 L28.329,32.724 L28.629,32.724 L28.029,32.724 L28.329,32.724 L28.029,32.724 L28.329,32.724 L28.029,32.724 L28.329,32.724 M19.793,29.995 L19.793,29.695 L19.793,29.995 L19.793,29.695 L19.793,29.995 L19.793,29.695 L19.793,30.295 L19.793,29.995 L20.093,29.995 L19.493,29.995 L19.793,29.995 L19.493,29.995 L19.793,29.995 L19.493,29.995 L19.793,29.995 M29.836,23.850 L29.836,23.550 L29.836,23.850 L29.836,23.550 L29.836,23.850 L29.836,23.550 L29.836,24.150 L29.836,23.850 L30.136,23.850 L29.536,23.850 L29.836,23.850 L29.536,23.850 L29.836,23.850 L29.536,23.850 L29.836,23.850 M26.572,24.235 L26.572,23.935 L26.572,24.235 L26.572,23.935 L26.572,24.235 L26.572,23.935 L26.572,24.535 L26.572,24.235 L26.872,24.235 L26.272,24.235 L26.572,24.235 L26.272,24.235 L26.572,24.235 L26.272,24.235 L26.572,24.235 M28.711,20.148 L28.711,19.848 L28.711,20.148 L28.711,19.848 L28.711,20.148 L28.711,19.848 L28.711,20.448 L28.711,20.148 L29.011,20.148 L28.411,20.148 L28.711,20.148 L28.411,20.148 L28.711,20.148 L28.411,20.148 L28.711,20.148 M31.807,20.702 L31.807,20.402 L31.807,20.702 L31.807,20.402 L31.807,20.702 L31.807,20.402 L31.807,21.002 L31.807,20.702 L32.107,20.702 L31.507,20.702 L31.807,20.702 L31.507,20.702 L31.807,20.702 L31.507,20.702 L31.807,20.702 M25.372,20.560 L25.372,20.260 L25.372,20.560 L25.372,20.260 L25.372,20.560 L25.372,20.260 L25.372,20.860 L25.372,20.560 L25.672,20.560 L25.072,20.560 L25.372,20.560 L25.072,20.560 L25.372,20.560 L25.072,20.560 L25.372,20.560 M22.429,24.607 L22.429,24.307 L22.429,24.607 L22.429,24.307 L22.429,24.607 L22.429,24.307 L22.429,24.907 L22.429,24.607 L22.729,24.607 L22.129,24.607 L22.429,24.607 L22.129,24.607 L22.429,24.607 L22.129,24.607 L22.429,24.607 M36.236,20.600 L36.236,20.300 L36.236,20.600 L36.236,20.300 L36.236,20.600 L36.236,20.300 L36.236,20.900 L36.236,20.600 L36.536,20.600 L35.936,20.600 L36.236,20.600 L35.936,20.600 L36.236,20.600 L35.936,20.600 L36.236,20.600 M33.329,35.705 L33.329,35.405 L33.329,35.705 L33.329,35.405 L33.329,35.705 L33.329,35.405 L33.329,36.005 L33.329,35.705 L33.629,35.705 L33.029,35.705 L33.329,35.705 L33.029,35.705 L33.329,35.705 L33.029,35.705 L33.329,35.705 M35.522,29.057 L35.522,28.757 L35.522,29.057 L35.522,28.757 L35.522,29.057 L35.522,28.757 L35.522,29.357 L35.522,29.057 L35.822,29.057 L35.222,29.057 L35.522,29.057 L35.222,29.057 L35.522,29.057 L35.222,29.057 L35.522,29.057 M31.857,41.438 L31.857,41.138 L31.857,41.438 L31.857,41.138 L31.857,41.438 L31.857,41.138 L31.857,41.738 L31.857,41.438 L32.157,41.438 L31.557,41.438 L31.857,41.438 L31.557,41.438 L31.857,41.438 L31.557,41.438 L31.857,41.438 M28.027,36.284 L28.027,35.984 L28.027,36.284 L28.027,35.984 L28.027,36.284 L28.027,35.984 L28.027,36.584 L28.027,36.284 L28.327,36.284 L27.727,36.284 L28.027,36.284 L27.727,36.284 L28.027,36.284 L27.727,36.284 L28.027,36.284 M20.902,34.765 L20.902,34.465 L20.902,34.765 L20.902,34.465 L20.902,34.765 L20.902,34.465 L20.902,35.065 L20.902,34.765 L21.202,34.765 L20.602,34.765 L20.902,34.765 L20.602,34.765 L20.902,34.765 L20.602,34.765 L20.902,34.765 M35.237,32.829 L35.237,32.529 L35.237,32.829 L35.237,32.529 L35.237,32.829 L35.237,32.529 L35.237,33.129 L35.237,32.829 L35.537,32.829 L34.937,32.829 L35.237,32.829 L34.937,32.829 L35.237,32.829 L34.937,32.829 L35.237,32.829 M40.995,30.657 L40.995,30.357 L40.995,30.657 L40.995,30.357 L40.995,30.657 L40.995,30.357 L40.995,30.957 L40.995,30.657 L41.295,30.657 L40.695,30.657 L40.995,30.657 L40.695,30.657 L40.995,30.657 L40.695,30.657 L40.995,30.657 M38.541,25.645 L38.541,25.345 L38.541,25.645 L38.541,25.345 L38.541,25.645 L38.541,25.345 L38.541,25.945 L38.541,25.645 L38.841,25.645 L38.241,25.645 L38.541,25.645 L38.241,25.645 L38.541,25.645 L38.241,25.645 L38.541,25.645 M23.734,36.466 L23.734,36.166 L23.734,36.466 L23.734,36.166 L23.734,36.466 L23.734,36.166 L23.734,36.766 L23.734,36.466 L24.034,36.466 L23.434,36.466 L23.734,36.466 L23.434,36.466 L23.734,36.466 L23.434,36.466 L23.734,36.466 M30.992,37.854 L30.992,37.554 L30.992,37.854 L30.992,37.554 L30.992,37.854 L30.992,37.554 L30.992,38.154 L30.992,37.854 L31.292,37.854 L30.692,37.854 L30.992,37.854 L30.692,37.854 L30.992,37.854 L30.692,37.854 L30.992,37.854 M34.557,39.315 L34.557,39.015 L34.557,39.315 L34.557,39.015 L34.557,39.315 L34.557,39.015 L34.557,39.615 L34.557,39.315 L34.857,39.315 L34.257,39.315 L34.557,39.315 L34.257,39.315 L34.557,39.315 L34.257,39.315 L34.557,39.315 M26.246,39.545 L26.246,39.245 L26.246,39.545 L26.246,39.245 L26.246,39.545 L26.246,39.245 L26.246,39.845 L26.246,39.545 L26.546,39.545 L25.946,39.545 L26.246,39.545 L25.946,39.545 L26.246,39.545 L25.946,39.545 L26.246,39.545 M37.279,35.903 L37.279,35.603 L37.279,35.903 L37.279,35.603 L37.279,35.903 L37.279,35.603 L37.279,36.203 L37.279,35.903 L37.579,35.903 L36.979,35.903 L37.279,35.903 L36.979,35.903 L37.279,35.903 L36.979,35.903 L37.279,35.903 M28.251,41.804 L28.251,41.504 L28.251,41.804 L28.251,41.504 L28.251,41.804 L28.251,41.504 L28.251,42.104 L28.251,41.804 L28.551,41.804 L27.951,41.804 L28.251,41.804 L27.951,41.804 L28.251,41.804 L27.951,41.804 L28.251,41.804 M22.668,28.746 L22.668,28.446 L22.668,28.746 L22.668,28.446 L22.668,28.746 L22.668,28.446 L22.668,29.046 L22.668,28.746 L22.968,28.746 L22.368,28.746 L22.668,28.746 L22.368,28.746 L22.668,28.746 L22.368,28.746 L22.668,28.746 M37.985,31.424 L37.985,31.124 L37.985,31.424 L37.985,31.124 L37.985,31.424 L37.985,31.124 L37.985,31.724 L37.985,31.424 L38.285,31.424 L37.685,31.424 L37.985,31.424 L37.685,31.424 L37.985,31.424 L37.685,31.424 L37.985,31.424 M40.788,34.367 L40.788,34.067 L40.788,34.367 L40.788,34.067 L40.788,34.367 L40.788,34.067 L40.788,34.667 L40.788,34.367 L41.088,34.367 L40.488,34.367 L40.788,34.367 L40.488,34.367 L40.788,34.367 L40.488,34.367 L40.788,34.367 M39.455,38.927 L39.455,38.627 L39.455,38.927 L39.455,38.627 L39.455,38.927 L39.455,38.627 L39.455,39.227 L39.455,38.927 L39.755,38.927 L39.155,38.927 L39.455,38.927 L39.155,38.927 L39.455,38.927 L39.155,38.927 L39.455,38.927 M21.408,39.181 L21.408,38.881 L21.408,39.181 L21.408,38.881 L21.408,39.181 L21.408,38.881 L21.408,39.481 L21.408,39.181 L21.708,39.181 L21.108,39.181 L21.408,39.181 L21.108,39.181 L21.408,39.181 L21.108,39.181 L21.408,39.181"/>
</svg>
