<svg xmlns="http://www.w3.org/2000/svg" viewBox="-1.261 0 37.519 37.519" width="256" height="256">
  <title>transforms</title>
  <rect x="-1.261" y="0" width="37.519" height="37.519" fill="#f5efe4"/>
  <path fill="none" stroke="#31604f" stroke-width="0.4" stroke-linecap="round" stroke-linejoin="round" d="M30.020,12.064 L30.345,11.877 L30.020,12.064 L30.345,11.877 L30.020,12.064 L30.345,11.877 L30.692,11.733 L31.054,11.636 L31.426,11.587 L31.801,11.587 L32.172,11.636 L32.535,11.733 L32.881,11.877 L33.206,12.064 L33.503,12.293 L33.769,12.558 L33.997,12.855 L33.672,13.043 L33.326,13.186 L32.963,13.283 L32.592,13.332 L32.217,13.332 L31.845,13.283 L31.483,13.186 L31.136,13.043 L30.811,12.855 L30.514,12.627 L30.249,12.362 L30.020,12.064 L30.249,12.362 L30.020,12.064 L30.249,12.362 L30.020,12.064 M30.037,12.764 L30.020,12.064 L30.037,12.764 L30.020,12.064 L30.367,26.264 L30.684,26.508 L30.967,26.791 L31.211,27.108 L31.411,27.454 L31.564,27.824 L31.667,28.210 L31.719,28.607 L31.719,29.007 L31.667,29.403 L31.564,29.790 L31.411,30.159 L31.064,29.959 L30.747,29.716 L30.464,29.433 L30.220,29.116 L30.020,28.769 L29.867,28.400 L29.764,28.013 L29.712,27.617 L29.712,27.217 L29.764,26.820 L29.867,26.434 L30.020,26.064 L29.867,26.434 L30.020,26.064 L29.867,26.434 L30.020,26.064 M29.423,26.430 L30.020,26.064 L29.423,26.430 L30.020,26.064 L17.896,33.489 L17.841,33.911 L17.731,34.321 L17.568,34.714 L17.355,35.082 L17.097,35.419 L16.796,35.720 L16.459,35.978 L16.091,36.191 L15.698,36.353 L15.288,36.463 L14.866,36.519 L14.866,36.094 L14.922,35.673 L15.032,35.262 L15.195,34.869 L15.407,34.501 L15.666,34.164 L15.966,33.864 L16.303,33.605 L16.672,33.392 L17.064,33.230 L17.475,33.120 L17.896,33.064 L17.475,33.120 L17.896,33.064 L17.475,33.120 L17.896,33.064 M17.280,32.731 L17.896,33.064 L17.280,32.731 L17.896,33.064 L5.382,26.289 L4.966,26.461 L4.532,26.578 L4.085,26.637 L3.635,26.637 L3.189,26.578 L2.755,26.461 L2.339,26.289 L1.949,26.064 L1.592,25.790 L1.274,25.472 L1.000,25.115 L1.390,24.890 L1.805,24.718 L2.240,24.601 L2.686,24.543 L3.136,24.543 L3.582,24.601 L4.017,24.718 L4.433,24.890 L4.823,25.115 L5.180,25.389 L5.498,25.707 L5.772,26.064 L5.498,25.707 L5.772,26.064 L5.498,25.707 L5.772,26.064 M5.751,25.365 L5.772,26.064 L5.751,25.365 L5.772,26.064 L5.360,11.827 L4.983,11.538 L4.648,11.202 L4.358,10.825 L4.121,10.414 L3.939,9.975 L3.816,9.516 L3.754,9.045 L3.754,8.570 L3.816,8.099 L3.939,7.640 L4.121,7.201 L4.532,7.439 L4.909,7.728 L5.245,8.064 L5.534,8.441 L5.772,8.852 L5.953,9.291 L6.076,9.750 L6.138,10.221 L6.138,10.696 L6.076,11.167 L5.953,11.625 L5.772,12.064 L5.953,11.625 L5.772,12.064 L5.953,11.625 L5.772,12.064 M6.367,11.696 L5.772,12.064 L6.367,11.696 L5.772,12.064 L17.896,4.564 L17.961,4.069 L18.091,3.586 L18.282,3.124 L18.532,2.691 L18.836,2.294 L19.190,1.940 L19.587,1.636 L20.020,1.386 L20.482,1.195 L20.965,1.065 L21.460,1.000 L21.460,1.500 L21.395,1.996 L21.266,2.479 L21.074,2.941 L20.824,3.374 L20.520,3.770 L20.166,4.124 L19.770,4.428 L19.337,4.678 L18.875,4.870 L18.392,4.999 L17.896,5.064 L18.392,4.999 L17.896,5.064 L18.392,4.999 L17.896,5.064"/>
  <path fill="none" stroke="#3a4e8c" stroke-width="0.4" stroke-linecap="round" stroke-linejoin="round" d="M17.896,5.764 L17.896,5.064 L17.896,5.764 L17.896,5.064 L17.896,17.964 L18.030,16.872 L18.296,15.805 L18.690,14.778 L19.207,13.807 L19.838,12.906 L20.574,12.088 L21.404,11.367 L22.316,10.752 L12.496,10.252 L11.462,9.876 L10.391,9.629 L9.297,9.514 L8.197,9.533 L7.107,9.686 L6.045,9.971 L5.025,10.383 L4.063,10.916 L4.675,10.577 L4.063,10.916 L4.675,10.577 L4.063,10.916"/>
  <path fill="none" stroke="#d9a441" stroke-width="0.4" stroke-linecap="round" stroke-linejoin="round" d="M4.761,10.963 L4.063,10.916 L4.761,10.963 L4.063,10.916 L30.336,12.680 L28.943,14.443 L27.551,16.207 L26.158,17.970 L24.765,19.734 L23.372,21.498 L21.979,23.261 L20.586,25.025 L21.634,23.321 L21.461,21.329 L21.287,19.336 L21.114,17.344 L20.941,15.351 L19.425,14.047 L17.607,14.882 L15.790,15.717 L13.973,16.552 L12.824,18.189 L12.810,19.756 L12.816,19.056 L12.810,19.756 L12.816,19.056 L12.810,19.756 M12.995,20.431 L12.810,19.756 L12.995,20.431 L12.810,19.756 L13.444,22.065 L14.079,24.374 L16.078,24.430 L17.717,23.284 L19.356,22.137 L20.995,20.991 L22.634,19.845 L23.005,17.879 L21.373,16.723 L19.742,15.567 L18.110,14.410 L16.118,14.234 L14.754,15.005 L15.363,14.661 L14.754,15.005 L15.363,14.661 L14.754,15.005 M14.262,15.503 L14.754,15.005 L14.262,15.503 L14.754,15.005 L13.071,16.710 L11.389,18.414 L12.340,20.173 L14.153,21.019 L15.965,21.865 L17.777,22.711 L19.589,23.557 L21.477,22.897 L21.662,20.905 L21.848,18.914 L22.033,16.922 L21.190,15.109 L19.840,14.314 L20.443,14.669 L19.840,14.314 L20.443,14.669 L19.840,14.314 M19.163,14.137 L19.840,14.314 L19.163,14.137 L19.840,14.314 L17.523,13.709 L15.206,13.104 L14.158,14.807 L14.331,16.800 L14.505,18.792 L14.678,20.785 L14.851,22.777 L16.368,24.081 L18.185,23.246 L20.002,22.411 L21.820,21.576 L22.968,19.939 L22.982,18.373 L22.976,19.073 L22.982,18.373 L22.976,19.073 L22.982,18.373 M22.797,17.698 L22.982,18.373 L22.797,17.698 L22.982,18.373 L22.348,16.063 L21.713,13.754 L19.714,13.699 L18.075,14.845 L16.436,15.991 L14.797,17.138 L13.158,18.284 L12.787,20.249 L14.419,21.405 L16.051,22.562 L17.682,23.718 L19.675,23.894 L21.038,23.123 L20.429,23.468 L21.038,23.123 L20.429,23.468 L21.038,23.123 M21.530,22.625 L21.038,23.123 L21.530,22.625 L21.038,23.123 L22.721,21.419 L24.403,19.715 L23.452,17.956 L21.640,17.110 L19.827,16.263 L18.015,15.417 L16.203,14.571 L14.315,15.232 L14.130,17.223 L13.944,19.215 L13.759,21.206 L14.602,23.020 L15.952,23.815 L15.349,23.459 L15.952,23.815 L15.349,23.459 L15.952,23.815"/>
</svg>
