<svg xmlns="http://www.w3.org/2000/svg" viewBox="-1.938 0 55.612 55.612" width="256" height="256">
  <title>tree</title>
  <rect x="-1.938" y="0" width="55.612" height="55.612" fill="#f5efe4"/>
  <path fill="none" stroke="#c8472f" stroke-width="0.4" stroke-linecap="round" stroke-linejoin="round" d="M22.457,54.612 L22.457,54.612 L22.457,52.183 L22.457,49.755 L22.457,47.326 L22.457,44.898 L22.457,42.469 L22.457,40.041 L22.457,37.612 L21.467,35.751 L20.478,33.889 L19.488,32.028 L18.498,30.167 L17.509,28.306 L15.703,27.088 L13.897,25.870 L12.091,24.651 L10.076,24.440 L8.062,24.228 L6.897,24.698 L5.733,25.169 L4.732,26.362 L3.730,27.555 L4.732,26.362 L5.733,25.169 L4.568,25.639 L3.034,25.369 L1.501,25.099 L3.034,25.369 L4.568,25.639 L3.404,26.110 L4.956,25.483 L6.509,24.855 L8.062,24.228 L6.047,24.016 L5.057,23.243 L4.068,22.470 L2.534,22.199 L1.000,21.929 L2.534,22.199 L4.068,22.470 L3.078,21.696 L2.545,20.233 L2.012,18.769 L2.545,20.233 L3.078,21.696 L2.088,20.923 L3.408,21.954 L4.727,22.985 L6.047,24.016 L4.032,23.804 L6.047,24.016 L8.062,24.228 L10.076,24.440 L12.091,24.651 L10.737,23.738 L9.382,22.824 L8.558,20.974 L7.734,19.123 L6.745,18.350 L5.755,17.577 L4.221,17.306 L2.687,17.036 L4.221,17.306 L5.755,17.577 L4.765,16.803 L4.232,15.340 L3.700,13.876 L4.232,15.340 L4.765,16.803 L3.775,16.030 L5.095,17.061 L6.415,18.092 L7.734,19.123 L6.910,17.272 L7.085,16.029 L7.260,14.785 L6.727,13.321 L6.195,11.858 L6.727,13.321 L7.260,14.785 L7.435,13.541 L8.436,12.348 L9.437,11.155 L8.436,12.348 L7.435,13.541 L7.610,12.297 L7.377,13.956 L7.143,15.614 L6.910,17.272 L6.086,15.422 L6.910,17.272 L7.734,19.123 L8.558,20.974 L9.382,22.824 L8.028,21.911 L6.673,20.997 L8.479,22.215 L10.285,23.433 L12.091,24.651 L13.897,25.870 L15.703,27.088 L17.509,28.306 L16.684,26.755 L15.859,25.204 L15.035,23.653 L15.186,21.480 L15.338,19.307 L15.490,17.134 L14.666,15.283 L13.842,13.432 L12.853,12.659 L11.863,11.886 L10.329,11.615 L8.795,11.345 L10.329,11.615 L11.863,11.886 L10.873,11.113 L10.341,9.649 L9.808,8.186 L10.341,9.649 L10.873,11.113 L9.884,10.339 L11.203,11.370 L12.523,12.401 L13.842,13.432 L13.019,11.582 L13.193,10.338 L13.368,9.094 L12.835,7.631 L12.303,6.167 L12.835,7.631 L13.368,9.094 L13.543,7.850 L14.544,6.657 L15.545,5.464 L14.544,6.657 L13.543,7.850 L13.718,6.607 L13.485,8.265 L13.252,9.923 L13.019,11.582 L12.195,9.731 L13.019,11.582 L13.842,13.432 L14.666,15.283 L15.490,17.134 L15.604,15.504 L15.718,13.874 L16.909,12.235 L18.100,10.596 L18.275,9.353 L18.449,8.109 L17.917,6.645 L17.384,5.182 L17.917,6.645 L18.449,8.109 L18.624,6.865 L19.625,5.672 L20.626,4.479 L19.625,5.672 L18.624,6.865 L18.799,5.621 L18.566,7.280 L18.333,8.938 L18.100,10.596 L19.290,8.958 L20.455,8.487 L21.620,8.017 L22.621,6.823 L23.622,5.630 L22.621,6.823 L21.620,8.017 L22.784,7.546 L24.318,7.816 L25.852,8.087 L24.318,7.816 L22.784,7.546 L23.949,7.076 L22.396,7.703 L20.843,8.330 L19.290,8.958 L20.481,7.319 L19.290,8.958 L18.100,10.596 L16.909,12.235 L15.718,13.874 L15.832,12.245 L15.946,10.615 L15.794,12.788 L15.642,14.961 L15.490,17.134 L15.338,19.307 L15.186,21.480 L15.035,23.653 L14.210,22.102 L13.385,20.550 L12.560,18.999 L13.660,21.067 L14.760,23.136 L15.859,25.204 L16.959,27.272 L18.058,29.340 L19.158,31.408 L20.258,33.476 L21.357,35.544 L22.457,37.612 L22.457,35.487 L22.457,33.362 L22.457,31.237 L22.457,29.112 L23.574,27.324 L24.691,25.537 L25.808,23.749 L26.925,21.961 L28.042,20.174 L28.194,18.001 L28.346,15.828 L28.498,13.655 L27.674,11.804 L26.850,9.953 L25.860,9.180 L24.871,8.407 L23.337,8.136 L21.803,7.866 L23.337,8.136 L24.871,8.407 L23.881,7.634 L23.348,6.170 L22.816,4.707 L23.348,6.170 L23.881,7.634 L22.891,6.860 L24.211,7.891 L25.531,8.922 L26.850,9.953 L26.026,8.103 L26.201,6.859 L26.376,5.615 L25.843,4.152 L25.310,2.688 L25.843,4.152 L26.376,5.615 L26.551,4.371 L27.552,3.178 L28.553,1.985 L27.552,3.178 L26.551,4.371 L26.725,3.128 L26.492,4.786 L26.259,6.444 L26.026,8.103 L25.202,6.252 L26.026,8.103 L26.850,9.953 L27.674,11.804 L28.498,13.655 L28.612,12.025 L28.726,10.395 L29.917,8.756 L31.107,7.117 L31.282,5.874 L31.457,4.630 L30.924,3.166 L30.392,1.703 L30.924,3.166 L31.457,4.630 L31.632,3.386 L32.633,2.193 L33.634,1.000 L32.633,2.193 L31.632,3.386 L31.807,2.142 L31.574,3.801 L31.341,5.459 L31.107,7.117 L32.298,5.479 L33.463,5.008 L34.627,4.538 L35.628,3.344 L36.629,2.151 L35.628,3.344 L34.627,4.538 L35.792,4.067 L37.326,4.337 L38.859,4.608 L37.326,4.337 L35.792,4.067 L36.956,3.597 L35.404,4.224 L33.851,4.851 L32.298,5.479 L33.489,3.840 L32.298,5.479 L31.107,7.117 L29.917,8.756 L28.726,10.395 L28.840,8.765 L28.954,7.136 L28.802,9.309 L28.650,11.482 L28.498,13.655 L28.346,15.828 L28.194,18.001 L28.042,20.174 L28.973,18.684 L29.904,17.194 L30.835,15.704 L32.793,14.749 L34.751,13.795 L36.708,12.840 L37.899,11.201 L39.090,9.562 L39.265,8.318 L39.439,7.074 L38.907,5.611 L38.374,4.147 L38.907,5.611 L39.439,7.074 L39.614,5.831 L40.615,4.637 L41.616,3.444 L40.615,4.637 L39.614,5.831 L39.789,4.587 L39.556,6.245 L39.323,7.903 L39.090,9.562 L40.281,7.923 L41.445,7.452 L42.610,6.982 L43.611,5.789 L44.612,4.596 L43.611,5.789 L42.610,6.982 L43.774,6.511 L45.308,6.782 L46.842,7.052 L45.308,6.782 L43.774,6.511 L44.939,6.041 L43.386,6.668 L41.833,7.296 L40.281,7.923 L41.471,6.284 L40.281,7.923 L39.090,9.562 L37.899,11.201 L36.708,12.840 L38.177,12.123 L39.645,11.407 L41.660,11.619 L43.674,11.831 L44.839,11.360 L46.004,10.890 L47.005,9.697 L48.006,8.504 L47.005,9.697 L46.004,10.890 L47.168,10.419 L48.702,10.690 L50.236,10.960 L48.702,10.690 L47.168,10.419 L48.333,9.949 L46.780,10.576 L45.227,11.203 L43.674,11.831 L45.689,12.043 L46.679,12.816 L47.669,13.589 L49.202,13.860 L50.736,14.130 L49.202,13.860 L47.669,13.589 L48.658,14.362 L49.191,15.826 L49.724,17.289 L49.191,15.826 L48.658,14.362 L49.648,15.136 L48.328,14.105 L47.009,13.074 L45.689,12.043 L47.704,12.254 L45.689,12.043 L43.674,11.831 L41.660,11.619 L39.645,11.407 L41.113,10.691 L42.582,9.975 L40.624,10.930 L38.666,11.885 L36.708,12.840 L34.751,13.795 L32.793,14.749 L30.835,15.704 L31.766,14.215 L32.697,12.725 L33.628,11.235 L32.386,13.221 L31.145,15.208 L29.904,17.194 L28.663,19.180 L27.422,21.167 L26.180,23.153 L24.939,25.139 L23.698,27.126 L22.457,29.112 L22.457,26.987 L22.457,24.862 L22.457,22.737 L22.457,20.612 L22.457,23.041 L22.457,25.469 L22.457,27.898 L22.457,30.326 L22.457,32.755 L22.457,35.183 L22.457,37.612 L22.457,40.041 L22.457,42.469 L22.457,44.898 L22.457,47.326 L22.457,49.755 L22.457,52.183 L22.457,54.612 L22.457,53.912 L22.457,54.612 L22.457,53.912 L22.457,54.612"/>
</svg>
