<svg xmlns="http://www.w3.org/2000/svg" viewBox="0 -0.688 72.227 72.227" width="256" height="256">
  <title>triangles</title>
  <rect x="0" y="-0.688" width="72.227" height="72.227" fill="#f5efe4"/>
  <path fill="none" stroke="#31604f" stroke-width="0.4" stroke-linecap="round" stroke-linejoin="round" d="M40.752,37.921 L40.752,37.921 L41.494,36.636 L42.236,35.350 L42.979,34.064 L43.721,32.779 L44.463,31.493 L45.206,30.207 L45.948,28.921 L44.463,28.921 L42.979,28.921 L41.494,28.921 L40.009,28.921 L38.525,28.921 L37.040,28.921 L35.556,28.921 L36.298,30.207 L37.040,31.493 L37.783,32.779 L38.525,34.064 L39.267,35.350 L40.009,36.636 L40.752,37.921 L40.402,37.315 L40.752,37.921 L40.402,37.315 L40.752,37.921"/>
  <path fill="none" stroke="#3a4e8c" stroke-width="0.4" stroke-linecap="round" stroke-linejoin="round" d="M42.236,38.352 L42.441,37.683 L42.236,38.352 L42.441,37.683 L42.236,38.352 L42.654,36.986 L43.072,35.619 L43.490,34.253 L43.908,32.886 L44.325,31.520 L44.743,30.153 L45.161,28.787 L45.579,27.420 L44.186,27.742 L42.794,28.063 L41.402,28.385 L40.009,28.706 L38.617,29.027 L37.225,29.349 L35.832,29.670 L34.440,29.992 L35.415,31.037 L36.389,32.082 L37.364,33.127 L38.338,34.172 L39.313,35.217 L40.287,36.262 L41.262,37.307 L42.236,38.352 L41.759,37.840 L42.236,38.352 L41.759,37.840 L42.236,38.352"/>
  <path fill="none" stroke="#d9a441" stroke-width="0.4" stroke-linecap="round" stroke-linejoin="round" d="M43.934,38.447 L43.983,37.748 L43.934,38.447 L43.983,37.748 L43.934,38.447 L44.044,36.879 L44.154,35.311 L44.263,33.743 L44.373,32.175 L44.483,30.607 L44.592,29.039 L44.702,27.471 L44.812,25.903 L43.399,26.592 L41.986,27.281 L40.573,27.970 L39.160,28.659 L37.748,29.348 L36.335,30.037 L34.922,30.726 L33.509,31.415 L34.813,32.294 L36.116,33.173 L37.419,34.052 L38.722,34.931 L40.025,35.810 L41.328,36.689 L42.631,37.568 L43.934,38.447 L43.354,38.055 L43.934,38.447 L43.354,38.055 L43.934,38.447"/>
  <path fill="none" stroke="#8c4a6b" stroke-width="0.4" stroke-linecap="round" stroke-linejoin="round" d="M45.778,38.128 L45.668,37.436 L45.778,38.128 L45.668,37.436 L45.778,38.128 L45.507,36.420 L45.237,34.712 L44.966,33.004 L44.696,31.297 L44.425,29.589 L44.155,27.881 L43.884,26.174 L43.614,24.466 L42.270,25.554 L40.926,26.642 L39.583,27.730 L38.239,28.818 L36.895,29.906 L35.551,30.994 L34.208,32.083 L32.864,33.171 L34.478,33.790 L36.092,34.410 L37.707,35.030 L39.321,35.649 L40.935,36.269 L42.549,36.888 L44.163,37.508 L45.778,38.128 L45.124,37.877 L45.778,38.128 L45.124,37.877 L45.778,38.128"/>
  <path fill="none" stroke="#2b2b2b" stroke-width="0.4" stroke-linecap="round" stroke-linejoin="round" d="M47.674,37.330 L47.412,36.681 L47.674,37.330 L47.412,36.681 L47.674,37.330 L47.041,35.762 L46.408,34.195 L45.774,32.627 L45.141,31.060 L44.508,29.492 L43.874,27.925 L43.241,26.357 L42.608,24.790 L41.974,23.222 L40.934,24.554 L39.893,25.887 L38.852,27.219 L37.811,28.551 L36.770,29.883 L35.729,31.216 L34.688,32.548 L33.648,33.880 L32.607,35.212 L34.281,35.447 L35.955,35.683 L37.629,35.918 L39.303,36.153 L40.978,36.389 L42.652,36.624 L44.326,36.859 L46.000,37.094 L47.674,37.330 L46.981,37.232 L47.674,37.330 L46.981,37.232 L47.674,37.330"/>
  <path fill="none" stroke="#5e8f8c" stroke-width="0.4" stroke-linecap="round" stroke-linejoin="round" d="M49.509,36.005 L49.108,35.432 L49.509,36.005 L49.108,35.432 L49.509,36.005 L48.443,34.482 L47.376,32.958 L46.310,31.435 L45.243,29.912 L44.176,28.388 L43.110,26.865 L42.043,25.342 L40.976,23.818 L39.910,22.295 L39.124,23.981 L38.338,25.666 L37.552,27.351 L36.766,29.037 L35.980,30.722 L35.194,32.408 L34.408,34.093 L33.622,35.778 L32.836,37.464 L34.689,37.302 L36.541,37.140 L38.394,36.978 L40.247,36.816 L42.099,36.653 L43.952,36.491 L45.804,36.329 L47.657,36.167 L49.509,36.005 L48.812,36.066 L49.509,36.005 L48.812,36.066 L49.509,36.005"/>
  <path fill="none" stroke="#31604f" stroke-width="0.4" stroke-linecap="round" stroke-linejoin="round" d="M51.149,34.131 L50.629,33.663 L51.149,34.131 L50.629,33.663 L51.149,34.131 L49.629,32.763 L48.108,31.394 L46.588,30.025 L45.068,28.656 L43.548,27.287 L42.028,25.919 L40.507,24.550 L38.987,23.181 L37.467,21.812 L37.042,23.813 L36.616,25.814 L36.191,27.815 L35.766,29.816 L35.341,31.817 L34.915,33.818 L34.490,35.819 L34.065,37.820 L33.639,39.821 L35.585,39.188 L37.530,38.556 L39.476,37.924 L41.421,37.292 L43.367,36.660 L45.312,36.028 L47.258,35.396 L49.203,34.763 L51.149,34.131 L50.483,34.348 L51.149,34.131 L50.483,34.348 L51.149,34.131"/>
  <path fill="none" stroke="#3a4e8c" stroke-width="0.4" stroke-linecap="round" stroke-linejoin="round" d="M52.442,31.717 L51.830,31.378 L52.442,31.717 L51.830,31.378 L52.442,31.717 L50.671,30.736 L48.900,29.754 L47.129,28.772 L45.357,27.790 L43.586,26.808 L41.815,25.826 L40.044,24.845 L38.272,23.863 L36.501,22.881 L34.730,21.899 L34.765,23.924 L34.800,25.949 L34.836,27.974 L34.871,29.999 L34.907,32.023 L34.942,34.048 L34.977,36.073 L35.013,38.098 L35.048,40.123 L35.083,42.148 L36.819,41.105 L38.555,40.062 L40.291,39.019 L42.027,37.976 L43.763,36.933 L45.499,35.889 L47.235,34.846 L48.970,33.803 L50.706,32.760 L52.442,31.717 L51.842,32.078 L52.442,31.717 L51.842,32.078 L52.442,31.717"/>
  <path fill="none" stroke="#d9a441" stroke-width="0.4" stroke-linecap="round" stroke-linejoin="round" d="M53.231,28.810 L52.558,28.617 L53.231,28.810 L52.558,28.617 L53.231,28.810 L51.090,28.196 L48.948,27.582 L46.807,26.968 L44.666,26.354 L42.524,25.740 L40.383,25.126 L38.242,24.512 L36.100,23.898 L33.959,23.284 L31.817,22.670 L32.356,24.831 L32.895,26.993 L33.434,29.154 L33.973,31.316 L34.512,33.477 L35.051,35.639 L35.590,37.800 L36.129,39.962 L36.668,42.123 L37.207,44.285 L38.809,42.737 L40.412,41.190 L42.014,39.642 L43.616,38.095 L45.219,36.547 L46.821,35.000 L48.424,33.452 L50.026,31.905 L51.629,30.357 L53.231,28.810 L52.728,29.296 L53.231,28.810 L52.728,29.296 L53.231,28.810"/>
  <path fill="none" stroke="#8c4a6b" stroke-width="0.4" stroke-linecap="round" stroke-linejoin="round" d="M53.357,25.498 L52.658,25.462 L53.357,25.498 L52.658,25.462 L53.357,25.498 L51.133,25.382 L48.908,25.265 L46.684,25.149 L44.459,25.032 L42.234,24.916 L40.010,24.799 L37.785,24.682 L35.560,24.566 L33.336,24.449 L31.111,24.333 L28.887,24.216 L29.898,26.201 L30.909,28.186 L31.921,30.171 L32.932,32.156 L33.943,34.140 L34.955,36.125 L35.966,38.110 L36.977,40.095 L37.989,42.080 L39.000,44.065 L40.011,46.050 L41.225,44.181 L42.438,42.313 L43.651,40.445 L44.864,38.577 L46.078,36.708 L47.291,34.840 L48.504,32.972 L49.718,31.103 L50.931,29.235 L52.144,27.367 L53.357,25.498 L52.976,26.086 L53.357,25.498 L52.976,26.086 L53.357,25.498"/>
  <path fill="none" stroke="#2b2b2b" stroke-width="0.4" stroke-linecap="round" stroke-linejoin="round" d="M52.673,21.918 L51.984,22.040 L52.673,21.918 L51.984,22.040 L52.673,21.918 L50.260,22.344 L47.847,22.769 L45.434,23.195 L43.020,23.620 L40.607,24.046 L38.194,24.471 L35.781,24.897 L33.368,25.322 L30.954,25.748 L28.541,26.173 L26.128,26.599 L27.703,28.476 L29.278,30.353 L30.853,32.230 L32.428,34.107 L34.003,35.984 L35.579,37.862 L37.154,39.739 L38.729,41.616 L40.304,43.493 L41.879,45.370 L43.454,47.247 L44.292,44.945 L45.130,42.642 L45.968,40.339 L46.807,38.037 L47.645,35.734 L48.483,33.431 L49.321,31.129 L50.159,28.826 L50.997,26.523 L51.835,24.221 L52.673,21.918 L52.434,22.576 L52.673,21.918 L52.434,22.576 L52.673,21.918"/>
  <path fill="none" stroke="#5e8f8c" stroke-width="0.4" stroke-linecap="round" stroke-linejoin="round" d="M51.054,18.250 L50.410,18.523 L51.054,18.250 L50.410,18.523 L51.054,18.250 L48.780,19.215 L46.505,20.181 L44.231,21.146 L41.956,22.112 L39.682,23.077 L37.407,24.042 L35.133,25.008 L32.858,25.973 L30.584,26.939 L28.310,27.904 L26.035,28.870 L23.761,29.835 L25.734,31.322 L27.707,32.809 L29.681,34.296 L31.654,35.783 L33.627,37.270 L35.601,38.757 L37.574,40.244 L39.547,41.731 L41.521,43.218 L43.494,44.705 L45.467,46.192 L47.441,47.679 L47.742,45.227 L48.043,42.774 L48.344,40.322 L48.645,37.869 L48.946,35.417 L49.247,32.965 L49.548,30.512 L49.850,28.060 L50.151,25.607 L50.452,23.155 L50.753,20.702 L51.054,18.250 L50.969,18.945 L51.054,18.250 L50.969,18.945 L51.054,18.250"/>
  <path fill="none" stroke="#31604f" stroke-width="0.4" stroke-linecap="round" stroke-linejoin="round" d="M48.411,14.719 L47.845,15.130 L48.411,14.719 L47.845,15.130 L48.411,14.719 L46.381,16.193 L44.351,17.668 L42.322,19.143 L40.292,20.618 L38.262,22.092 L36.232,23.567 L34.203,25.042 L32.173,26.516 L30.143,27.991 L28.114,29.466 L26.084,30.940 L24.054,32.415 L22.024,33.890 L24.316,34.910 L26.608,35.931 L28.900,36.951 L31.192,37.972 L33.484,38.992 L35.776,40.012 L38.068,41.033 L40.360,42.053 L42.652,43.074 L44.944,44.094 L47.236,45.115 L49.528,46.135 L51.820,47.156 L51.558,44.660 L51.296,42.165 L51.033,39.670 L50.771,37.175 L50.509,34.680 L50.247,32.185 L49.984,29.690 L49.722,27.195 L49.460,24.699 L49.198,22.204 L48.935,19.709 L48.673,17.214 L48.411,14.719 L48.484,15.415 L48.411,14.719 L48.484,15.415 L48.411,14.719"/>
  <path fill="none" stroke="#3a4e8c" stroke-width="0.4" stroke-linecap="round" stroke-linejoin="round" d="M44.704,11.588 L44.245,12.117 L44.704,11.588 L44.245,12.117 L44.704,11.588 L42.894,13.671 L41.083,15.754 L39.272,17.837 L37.462,19.920 L35.651,22.002 L33.841,24.085 L32.030,26.168 L30.220,28.251 L28.409,30.334 L26.598,32.417 L24.788,34.499 L22.977,36.582 L21.167,38.665 L23.876,39.192 L26.585,39.718 L29.294,40.245 L32.003,40.771 L34.712,41.298 L37.421,41.825 L40.130,42.351 L42.839,42.878 L45.548,43.404 L48.257,43.931 L50.966,44.458 L53.675,44.984 L56.385,45.511 L55.486,42.901 L54.588,40.292 L53.689,37.682 L52.791,35.073 L51.892,32.464 L50.994,29.854 L50.095,27.245 L49.197,24.635 L48.298,22.026 L47.400,19.417 L46.501,16.807 L45.603,14.198 L44.704,11.588 L44.932,12.250 L44.704,11.588 L44.932,12.250 L44.704,11.588"/>
  <path fill="none" stroke="#d9a441" stroke-width="0.4" stroke-linecap="round" stroke-linejoin="round" d="M39.957,9.150 L39.628,9.768 L39.957,9.150 L39.628,9.768 L39.957,9.150 L38.633,11.639 L37.310,14.128 L35.986,16.617 L34.663,19.106 L33.340,21.595 L32.016,24.084 L30.693,26.573 L29.369,29.062 L28.046,31.551 L26.723,34.040 L25.399,36.529 L24.076,39.018 L22.752,41.507 L21.429,43.996 L24.246,43.897 L27.063,43.799 L29.881,43.700 L32.698,43.602 L35.515,43.504 L38.332,43.405 L41.149,43.307 L43.967,43.209 L46.784,43.110 L49.601,43.012 L52.418,42.913 L55.235,42.815 L58.053,42.717 L60.870,42.618 L59.376,40.228 L57.882,37.837 L56.388,35.447 L54.895,33.056 L53.401,30.665 L51.907,28.275 L50.413,25.884 L48.919,23.494 L47.426,21.103 L45.932,18.713 L44.438,16.322 L42.944,13.931 L41.450,11.541 L39.957,9.150 L40.328,9.744 L39.957,9.150 L40.328,9.744 L39.957,9.150"/>
  <path fill="none" stroke="#8c4a6b" stroke-width="0.4" stroke-linecap="round" stroke-linejoin="round" d="M34.265,7.712 L34.084,8.388 L34.265,7.712 L34.084,8.388 L34.265,7.712 L33.516,10.507 L32.767,13.303 L32.018,16.098 L31.269,18.894 L30.520,21.689 L29.771,24.485 L29.022,27.280 L28.273,30.076 L27.523,32.871 L26.774,35.667 L26.025,38.462 L25.276,41.258 L24.527,44.053 L23.778,46.848 L23.029,49.644 L25.825,48.895 L28.620,48.146 L31.416,47.397 L34.211,46.648 L37.007,45.899 L39.802,45.150 L42.597,44.401 L45.393,43.652 L48.188,42.903 L50.984,42.154 L53.779,41.404 L56.575,40.655 L59.370,39.906 L62.166,39.157 L64.961,38.408 L62.915,36.362 L60.868,34.315 L58.822,32.269 L56.776,30.223 L54.729,28.176 L52.683,26.130 L50.636,24.083 L48.590,22.037 L46.543,19.990 L44.497,17.944 L42.451,15.898 L40.404,13.851 L38.358,11.805 L36.311,9.758 L34.265,7.712 L34.760,8.207 L34.265,7.712 L34.760,8.207 L34.265,7.712"/>
  <path fill="none" stroke="#2b2b2b" stroke-width="0.4" stroke-linecap="round" stroke-linejoin="round" d="M27.809,7.579 L27.784,8.278 L27.809,7.579 L27.784,8.278 L27.809,7.579 L27.704,10.561 L27.600,13.544 L27.496,16.527 L27.392,19.509 L27.288,22.492 L27.184,25.475 L27.079,28.458 L26.975,31.440 L26.871,34.423 L26.767,37.406 L26.663,40.388 L26.559,43.371 L26.454,46.354 L26.350,49.337 L26.246,52.319 L26.142,55.302 L28.777,53.901 L31.412,52.500 L34.048,51.098 L36.683,49.697 L39.318,48.296 L41.953,46.895 L44.588,45.494 L47.223,44.093 L49.859,42.692 L52.494,41.290 L55.129,39.889 L57.764,38.488 L60.399,37.087 L63.034,35.686 L65.670,34.285 L68.305,32.884 L65.774,31.302 L63.243,29.720 L60.712,28.139 L58.181,26.557 L55.650,24.976 L53.119,23.394 L50.588,21.813 L48.057,20.231 L45.526,18.650 L42.995,17.068 L40.464,15.486 L37.933,13.905 L35.402,12.323 L32.871,10.742 L30.340,9.160 L27.809,7.579 L28.402,7.950 L27.809,7.579 L28.402,7.950 L27.809,7.579"/>
  <path fill="none" stroke="#5e8f8c" stroke-width="0.4" stroke-linecap="round" stroke-linejoin="round" d="M20.856,9.033 L20.989,9.721 L20.856,9.033 L20.989,9.721 L20.856,9.033 L21.445,12.067 L22.035,15.100 L22.624,18.133 L23.214,21.166 L23.803,24.199 L24.393,27.232 L24.983,30.265 L25.572,33.298 L26.162,36.331 L26.751,39.364 L27.341,42.397 L27.930,45.431 L28.520,48.464 L29.110,51.497 L29.699,54.530 L30.289,57.563 L30.878,60.596 L33.210,58.569 L35.542,56.542 L37.874,54.515 L40.206,52.487 L42.538,50.460 L44.870,48.433 L47.202,46.406 L49.534,44.379 L51.866,42.352 L54.198,40.325 L56.530,38.298 L58.862,36.270 L61.194,34.243 L63.526,32.216 L65.858,30.189 L68.189,28.162 L70.521,26.135 L67.600,25.129 L64.678,24.123 L61.757,23.117 L58.835,22.111 L55.914,21.105 L52.992,20.099 L50.071,19.093 L47.149,18.087 L44.228,17.081 L41.306,16.075 L38.385,15.069 L35.463,14.063 L32.542,13.057 L29.620,12.051 L26.699,11.045 L23.777,10.039 L20.856,9.033 L21.517,9.261 L20.856,9.033 L21.517,9.261 L20.856,9.033"/>
  <path fill="none" stroke="#31604f" stroke-width="0.4" stroke-linecap="round" stroke-linejoin="round" d="M13.763,12.313 L14.048,12.953 L13.763,12.313 L14.048,12.953 L13.763,12.313 L15.069,15.246 L16.375,18.178 L17.680,21.111 L18.986,24.043 L20.292,26.976 L21.597,29.908 L22.903,32.841 L24.208,35.773 L25.514,38.706 L26.820,41.638 L28.125,44.571 L29.431,47.503 L30.737,50.436 L32.042,53.368 L33.348,56.301 L34.653,59.233 L35.959,62.166 L37.265,65.098 L39.152,62.501 L41.038,59.904 L42.925,57.307 L44.812,54.710 L46.699,52.113 L48.586,49.516 L50.472,46.919 L52.359,44.322 L54.246,41.725 L56.133,39.129 L58.020,36.532 L59.906,33.935 L61.793,31.338 L63.680,28.741 L65.567,26.144 L67.454,23.547 L69.340,20.950 L71.227,18.353 L68.035,18.017 L64.842,17.682 L61.650,17.346 L58.457,17.011 L55.265,16.675 L52.073,16.340 L48.880,16.004 L45.688,15.669 L42.495,15.333 L39.303,14.997 L36.110,14.662 L32.918,14.326 L29.726,13.991 L26.533,13.655 L23.341,13.320 L20.148,12.984 L16.956,12.649 L13.763,12.313 L14.460,12.386 L13.763,12.313 L14.460,12.386 L13.763,12.313"/>
  <path fill="none" stroke="#3a4e8c" stroke-width="0.4" stroke-linecap="round" stroke-linejoin="round" d="M6.973,17.583 L7.395,18.142 L6.973,17.583 L7.395,18.142 L6.973,17.583 L8.987,20.255 L11.000,22.926 L13.013,25.598 L15.026,28.270 L17.039,30.941 L19.052,33.613 L21.066,36.284 L23.079,38.956 L25.092,41.628 L27.105,44.299 L29.118,46.971 L31.132,49.642 L33.145,52.314 L35.158,54.985 L37.171,57.657 L39.184,60.329 L41.197,63.000 L43.211,65.672 L45.224,68.343 L46.531,65.264 L47.838,62.185 L49.145,59.106 L50.452,56.026 L51.759,52.947 L53.066,49.868 L54.373,46.789 L55.680,43.709 L56.987,40.630 L58.294,37.551 L59.602,34.472 L60.909,31.392 L62.216,28.313 L63.523,25.234 L64.830,22.155 L66.137,19.075 L67.444,15.996 L68.751,12.917 L70.058,9.838 L66.738,10.245 L63.418,10.653 L60.097,11.061 L56.777,11.468 L53.457,11.876 L50.137,12.284 L46.816,12.691 L43.496,13.099 L40.176,13.507 L36.856,13.914 L33.535,14.322 L30.215,14.730 L26.895,15.137 L23.575,15.545 L20.254,15.953 L16.934,16.360 L13.614,16.768 L10.294,17.176 L6.973,17.583 L7.668,17.498 L6.973,17.583 L7.668,17.498 L6.973,17.583"/>
  <path fill="none" stroke="#d9a441" stroke-width="0.4" stroke-linecap="round" stroke-linejoin="round" d="M1.000,24.912 L1.536,25.362 L1.000,24.912 L1.536,25.362 L1.000,24.912 L3.678,27.159 L6.356,29.406 L9.034,31.653 L11.711,33.900 L14.389,36.147 L17.067,38.394 L19.745,40.641 L22.423,42.888 L25.101,45.135 L27.779,47.382 L30.457,49.629 L33.134,51.876 L35.812,54.123 L38.490,56.370 L41.168,58.617 L43.846,60.864 L46.524,63.111 L49.202,65.358 L51.880,67.605 L54.557,69.852 L55.164,66.409 L55.771,62.967 L56.378,59.524 L56.986,56.082 L57.593,52.639 L58.200,49.196 L58.807,45.754 L59.414,42.311 L60.021,38.869 L60.628,35.426 L61.235,31.983 L61.842,28.541 L62.449,25.098 L63.056,21.656 L63.663,18.213 L64.270,14.770 L64.877,11.328 L65.484,7.885 L66.091,4.443 L66.698,1.000 L63.413,2.196 L60.128,3.391 L56.843,4.587 L53.558,5.782 L50.273,6.978 L46.989,8.174 L43.704,9.369 L40.419,10.565 L37.134,11.760 L33.849,12.956 L30.564,14.152 L27.279,15.347 L23.994,16.543 L20.709,17.738 L17.424,18.934 L14.140,20.130 L10.855,21.325 L7.570,22.521 L4.285,23.716 L1.000,24.912 L1.658,24.673 L1.000,24.912 L1.658,24.673 L1.000,24.912"/>
</svg>
