<svg xmlns="http://www.w3.org/2000/svg" viewBox="-0.985 0 72.336 72.336" width="256" height="256">
  <title>triangle-bitmap</title>
  <rect x="-0.985" y="0" width="72.336" height="72.336" fill="#f5efe4"/>
  <path fill="none" stroke="#8c4a6b" stroke-width="0.4" stroke-linecap="round" stroke-linejoin="round" d="M36.169,36.652 L36.169,36.652 M36.169,36.652 L37.009,37.321 M36.341,36.510 L36.269,35.432 M36.583,36.434 L36.815,37.498 M36.871,36.450 L37.571,35.602 M37.171,36.573 L36.760,37.605 M37.446,36.810 L38.549,36.605 M37.655,37.152 L36.750,37.836 M37.763,37.579 L38.785,38.109 M37.740,38.060 L36.663,37.959 L38.559,38.898 M37.568,38.552 L36.555,38.165 L38.111,39.601 M37.255,38.994 L36.379,38.356 L37.511,40.144 M36.841,39.335 L36.146,38.505 L36.818,40.512 M36.362,39.566 L35.872,38.601 L36.080,40.707 M35.847,39.683 L35.573,38.636 L35.333,40.739 M35.321,39.689 L35.263,38.608 L34.608,40.621 M34.807,39.590 L34.953,38.530 L33.936,40.357 M34.324,39.395 L34.653,38.392 L33.336,39.980 M33.885,39.116 L34.377,38.195 L32.819,39.512 M33.502,38.766 L34.136,37.948 L32.394,38.971 M33.186,38.357 L33.937,37.657 L32.066,38.375 M32.940,37.903 L33.788,37.332 L31.837,37.744 M32.769,37.416 L33.692,36.983 L31.706,37.091 M32.675,36.911 L33.651,36.620 L31.673,36.431 M32.658,36.397 L33.667,36.251 L31.734,35.778 M32.714,35.887 L33.738,35.886 L31.883,35.143 M32.842,35.391 L33.862,35.533 L32.115,34.538 M33.037,34.917 L34.035,35.200 L32.424,33.971 M33.293,34.475 L34.253,34.892 L32.802,33.450 M33.605,34.070 L34.511,34.615 L33.241,32.983 M33.967,33.709 L34.804,34.374 L33.734,32.575 M34.370,33.397 L35.124,34.170 L34.273,32.233 M34.809,33.137 L35.464,33.996 L34.853,31.971 M35.275,32.932 L35.823,33.863 L35.458,31.780 M35.762,32.785 L36.197,33.774 L36.079,31.662 M36.263,32.695 L36.582,33.728 L36.707,31.616 M36.771,32.664 L36.970,33.726 L37.333,31.642 M37.279,32.691 L37.359,33.763 L37.950,31.743 M37.780,32.773 L37.746,33.833 L38.547,31.919 M38.269,32.910 L38.126,33.947 L39.118,32.158 M38.740,33.100 L38.495,34.102 L39.657,32.454 M39.188,33.338 L38.846,34.298 L40.161,32.803 M39.608,33.621 L39.177,34.532 L40.623,33.199 M39.997,33.947 L39.482,34.801 L41.042,33.638 M40.350,34.310 L39.760,35.102 L41.413,34.115 M40.665,34.707 L40.006,35.431 L41.735,34.623 M40.939,35.134 L40.218,35.786 L42.005,35.158 M41.169,35.585 L40.393,36.162 L42.222,35.715 M41.354,36.056 L40.531,36.554 L42.386,36.287 M41.493,36.543 L40.629,36.960 L42.495,36.871 M41.585,37.040 L40.687,37.374 L42.551,37.461 M41.630,37.544 L40.705,37.793 L42.552,38.053 M41.628,38.049 L40.683,38.213 L42.501,38.641 M41.580,38.553 L40.621,38.629 L42.399,39.222 M41.486,39.049 L40.520,39.037 L42.245,39.791 M41.348,39.536 L40.381,39.435 L42.044,40.343 M41.167,40.007 L40.207,39.819 L41.795,40.876 M40.945,40.461 L39.998,40.186 L41.502,41.386 M40.685,40.894 L39.758,40.532 L41.167,41.869 M40.388,41.302 L39.488,40.856 L40.792,42.321 M40.057,41.684 L39.193,41.158 L40.379,42.738 M39.696,42.036 L38.875,41.434 L39.931,43.118 M39.305,42.356 L38.536,41.685 L39.452,43.457 M38.890,42.643 L38.177,41.908 L38.946,43.754 M38.452,42.894 L37.802,42.102 L38.418,44.007 M37.996,43.108 L37.412,42.266 L37.871,44.215 M37.523,43.285 L37.010,42.402 L37.308,44.373 M37.038,43.422 L36.598,42.505 L36.736,44.488 M36.543,43.521 L36.178,42.573 L36.158,44.557 M36.043,43.580 L35.753,42.607 L35.577,44.582 M35.539,43.599 L35.326,42.606 L34.996,44.562 M35.035,43.579 L34.900,42.573 L34.420,44.497 M34.535,43.520 L34.477,42.508 L33.851,44.386 M34.040,43.423 L34.060,42.412 L33.293,44.232 M33.555,43.288 L33.650,42.284 L32.749,44.035 M33.081,43.117 L33.249,42.127 L32.223,43.797 M32.621,42.910 L32.860,41.941 L31.718,43.519 M32.179,42.670 L32.484,41.729 L31.237,43.203 M31.755,42.398 L32.121,41.492 L30.785,42.850 M31.352,42.095 L31.776,41.227 L30.360,42.466 M30.973,41.764 L31.451,40.937 L29.964,42.053 M30.619,41.406 L31.148,40.622 L29.599,41.615 M30.292,41.023 L30.868,40.285 L29.267,41.153 M29.993,40.618 L30.613,39.927 L28.969,40.670 M29.724,40.192 L30.385,39.551 L28.705,40.168 M29.485,39.749 L30.184,39.159 L28.477,39.651 M29.279,39.290 L30.012,38.752 L28.285,39.120 M29.105,38.818 L29.870,38.333 L28.130,38.577 M28.965,38.335 L29.758,37.905 L28.011,38.027 M28.858,37.843 L29.676,37.469 L27.930,37.470 M28.785,37.345 L29.626,37.028 L27.886,36.909 M28.746,36.843 L29.607,36.584 L27.879,36.348 M28.742,36.340 L29.619,36.140 L27.910,35.787 M28.771,35.838 L29.662,35.697 L27.976,35.230 M28.835,35.339 L29.735,35.258 L28.079,34.679 M28.931,34.845 L29.839,34.826 L28.217,34.135 M29.060,34.359 L29.972,34.401 L28.389,33.602 M29.221,33.883 L30.133,33.987 L28.596,33.081 M29.412,33.418 L30.323,33.584 L28.835,32.574 M29.634,32.966 L30.538,33.196 L29.106,32.083 M29.885,32.530 L30.779,32.822 L29.407,31.610 M30.163,32.111 L31.044,32.466 L29.738,31.156 M30.467,31.711 L31.332,32.129 L30.096,30.724 M30.797,31.331 L31.641,31.811 L30.482,30.315 M31.149,30.973 L31.970,31.514 L30.892,29.930 M31.524,30.638 L32.316,31.239 L31.325,29.571 M31.919,30.328 L32.680,30.988 L31.780,29.240 M32.333,30.042 L33.058,30.760 L32.255,28.936 M32.764,29.783 L33.449,30.557 L32.748,28.662 M33.210,29.552 L33.852,30.380 L33.258,28.419 M33.670,29.348 L34.264,30.228 L33.782,28.206 M34.141,29.173 L34.685,30.102 L34.318,28.026 M34.622,29.027 L35.109,29.991 L34.868,27.890 M35.111,28.911 L35.539,29.902 L35.425,27.790 M35.606,28.825 L35.973,29.840 L35.987,27.725 M36.105,28.768 L36.411,29.804 L36.552,27.693 M36.607,28.742 L36.850,29.794 L37.117,27.696 M37.109,28.746 L37.289,29.810 L37.681,27.732 M37.610,28.779 L37.729,29.837 L38.239,27.817 M38.109,28.843 L38.168,29.890 L38.790,27.934 M38.602,28.935 L38.603,29.970 L39.332,28.083 M39.090,29.057 L39.035,30.075 L39.864,28.263 M39.569,29.206 L39.460,30.206 L40.383,28.473 M40.039,29.384 L39.878,30.362 L40.888,28.712 M40.498,29.588 L40.288,30.543 L41.378,28.979 M40.944,29.819 L40.686,30.749 L41.851,29.272 M41.376,30.074 L41.072,30.977 L42.306,29.592 M41.793,30.355 L41.446,31.229 L42.741,29.936 M42.194,30.658 L41.805,31.502 L43.156,30.303 M42.576,30.984 L42.148,31.796 L43.549,30.692 M42.939,31.330 L42.474,32.110 L43.919,31.101 M43.282,31.697 L42.769,32.453 L44.278,31.519 M43.604,32.082 L43.057,32.803 L44.602,31.965 M43.904,32.485 L43.339,33.160 L44.885,32.438 M44.181,32.904 L43.586,33.542 L45.156,32.915 M44.434,33.337 L43.811,33.939 L45.401,33.406 M44.663,33.784 L44.014,34.348 L45.619,33.908 M44.868,34.243 L44.193,34.768 L45.810,34.421 M45.046,34.712 L44.349,35.198 L45.973,34.943 M45.199,35.190 L44.480,35.637 L46.108,35.472 M45.325,35.676 L44.586,36.082 L46.214,36.008 M45.425,36.168 L44.667,36.533 L46.293,36.548 M45.498,36.665 L44.723,36.988 L46.343,37.090 M45.545,37.164 L44.754,37.446 L46.364,37.635 M45.564,37.666 L44.759,37.905 L46.358,38.180 M45.557,38.168 L44.739,38.364 L46.323,38.723 M45.523,38.669 L44.694,38.821 L46.260,39.264 M45.462,39.167 L44.624,39.274 L46.170,39.801 M45.375,39.661 L44.529,39.724 L46.052,40.332 M45.262,40.150 L44.410,40.167 L45.907,40.857 M45.124,40.633 L44.267,40.603 L45.736,41.374 M44.961,41.107 L44.101,41.031 L45.538,41.882 M44.773,41.573 L43.912,41.449 L45.315,42.379 M44.561,42.027 L43.701,41.856 L45.068,42.864 M44.326,42.471 L43.469,42.251 L44.795,43.337 M44.068,42.901 L43.217,42.633 L44.500,43.795 M43.789,43.318 L42.945,43.001 L44.182,44.239 M43.488,43.720 L42.654,43.353 L43.841,44.666 M43.168,44.106 L42.345,43.690 L43.480,45.076 M42.828,44.475 L42.020,44.010 L43.098,45.467 M42.470,44.827 L41.678,44.312 L42.697,45.840 M42.094,45.159 L41.322,44.596 L42.278,46.193 M41.702,45.473 L40.952,44.861 L41.842,46.524 M41.295,45.766 L40.570,45.107 L41.389,46.834 M40.874,46.039 L40.176,45.333 L40.920,47.121 M40.440,46.290 L39.778,45.551 L40.432,47.373 M39.993,46.519 L39.369,45.748 L39.932,47.601 M39.536,46.726 L38.951,45.925 L39.422,47.803 M39.070,46.910 L38.525,46.081 L38.902,47.980 M38.594,47.070 L38.091,46.215 L38.374,48.131 M38.112,47.207 L37.651,46.329 L37.840,48.256 M37.623,47.321 L37.206,46.420 L37.300,48.354 M37.129,47.410 L36.756,46.490 L36.756,48.427 M36.632,47.475 L36.304,46.538 L36.210,48.472 M36.132,47.515 L35.850,46.564 L35.662,48.491 M35.631,47.532 L35.395,46.568 L35.114,48.484 M35.129,47.524 L34.940,46.550 L34.567,48.450 M34.629,47.492 L34.487,46.510 L34.023,48.390 M34.130,47.436 L34.035,46.448 L33.482,48.304 M33.635,47.356 L33.588,46.365 L32.946,48.192 M33.144,47.253 L33.144,46.261 L32.417,48.055 M32.659,47.126 L32.706,46.135 L31.894,47.893 M32.180,46.977 L32.273,45.993 L31.381,47.702 M31.709,46.805 L31.842,45.840 L30.883,47.478 M31.247,46.610 L31.419,45.666 L30.395,47.231 M30.794,46.395 L31.004,45.472 L29.921,46.963 M30.352,46.158 L30.598,45.257 L29.460,46.673 M29.921,45.901 L30.202,45.024 L29.014,46.363 M29.503,45.624 L29.817,44.771 L28.583,46.033 M29.099,45.328 L29.444,44.500 L28.168,45.684 M28.708,45.013 L29.084,44.211 L27.769,45.317 M28.333,44.681 L28.737,43.905 L27.389,44.933 M27.973,44.331 L28.405,43.582 L27.026,44.532 M27.630,43.966 L28.088,43.244 L26.683,44.116 M27.304,43.585 L27.787,42.891 L26.358,43.686 M26.995,43.189 L27.502,42.523 L26.054,43.242 M26.706,42.780 L27.235,42.142 L25.770,42.785 M26.435,42.358 L26.986,41.749 L25.506,42.317 M26.183,41.924 L26.755,41.344 L25.264,41.838 M25.952,41.480 L26.543,40.929 L25.044,41.348 M25.741,41.025 L26.351,40.503 L24.845,40.851 M25.550,40.561 L26.179,40.069 L24.668,40.345 M25.381,40.089 L26.026,39.628 L24.514,39.832 L25.895,39.179 L24.382,39.313 L25.784,38.724 L24.273,38.790 M25.002,38.634 L25.745,38.256 L24.136,38.271 M24.920,38.140 L25.740,37.788 L24.009,37.746 M24.859,37.642 L25.760,37.322 L23.902,37.213 M24.821,37.142 L25.800,36.860 L23.818,36.673 M24.805,36.641 L25.858,36.403 L23.760,36.128 M24.811,36.140 L25.921,35.951 L23.743,35.578 M24.839,35.640 L25.943,35.498 L23.809,35.033 M24.889,35.141 L25.981,35.045 L23.905,34.492 M24.960,34.645 L26.032,34.593 L24.029,33.958 M25.054,34.152 L26.099,34.140 L24.181,33.432 M25.169,33.664 L26.181,33.689 L24.360,32.916 M25.304,33.182 L26.289,33.241 L24.555,32.407 M25.461,32.705 L26.464,32.816 L24.724,31.891 M25.638,32.236 L26.695,32.416 L24.877,31.366 M25.835,31.776 L26.983,32.048 L25.013,30.825 M26.052,31.324 L27.269,31.689 L25.190,30.295 M26.288,30.881 L27.536,31.327 L25.423,29.788 M26.543,30.450 L27.797,30.965 L25.699,29.304 M26.816,30.030 L28.002,30.566 L26.067,28.880 M27.107,29.621 L28.210,30.162 L26.466,28.487 M27.415,29.226 L28.433,29.761 L26.884,28.117 M27.739,28.844 L28.670,29.363 L27.320,27.773 M28.080,28.476 L28.922,28.968 L27.771,27.453 M28.435,28.122 L29.190,28.577 L28.236,27.161 M28.806,27.784 L29.514,28.239 L28.673,26.846 M29.190,27.462 L29.888,27.959 L29.087,26.507 M29.587,27.157 L30.298,27.731 L29.490,26.149 M29.997,26.868 L30.712,27.516 L29.914,25.813 M30.418,26.597 L31.121,27.300 L30.364,25.513 M30.850,26.343 L31.528,27.085 L30.836,25.249 M31.293,26.108 L31.936,26.870 L31.328,25.022 M31.745,25.892 L32.358,26.685 L31.822,24.802 M32.205,25.694 L32.791,26.526 L32.323,24.594 M32.674,25.515 L33.229,26.385 L32.832,24.408 M33.149,25.357 L33.672,26.262 L33.348,24.242 M33.630,25.217 L34.119,26.159 L33.872,24.097 M34.117,25.098 L34.570,26.074 L34.401,23.973 M34.608,24.999 L35.021,25.996 L34.938,23.883 M35.103,24.920 L35.475,25.933 L35.478,23.818 M35.601,24.861 L35.931,25.889 L36.020,23.776 M36.101,24.822 L36.389,25.863 L36.564,23.755 M36.601,24.804 L36.847,25.855 L37.107,23.757 M37.103,24.807 L37.306,25.867 L37.650,23.780 M37.603,24.829 L37.764,25.881 L38.191,23.841 M38.102,24.872 L38.223,25.914 L38.728,23.924 M38.600,24.935 L38.681,25.966 L39.260,24.028 M39.094,25.018 L39.137,26.036 L39.787,24.153 M39.584,25.121 L39.590,26.125 L40.308,24.299 M40.070,25.243 L40.038,26.240 L40.824,24.458 M40.551,25.384 L40.468,26.411 L41.346,24.599 M41.025,25.545 L40.895,26.584 L41.858,24.775 M41.493,25.725 L41.321,26.758 L42.356,24.988 M41.954,25.923 L41.749,26.932 L42.837,25.237 M42.406,26.139 L42.179,27.104 L43.297,25.524 M42.849,26.373 L42.615,27.275 L43.733,25.846 M43.282,26.624 L43.013,27.518 L44.187,26.132 M43.706,26.892 L43.359,27.835 L44.671,26.376 M44.118,27.176 L43.672,28.189 L45.166,26.614 M44.519,27.477 L43.970,28.550 L45.651,26.878 M44.908,27.793 L44.255,28.914 L46.125,27.168 M45.284,28.124 L44.526,29.283 L46.586,27.483 M45.647,28.469 L44.785,29.656 L47.033,27.822 M45.996,28.829 L45.082,29.986 L47.412,28.230 M46.331,29.202 L45.489,30.227 L47.653,28.755 M46.651,29.587 L45.884,30.491 L47.875,29.280 M46.956,29.985 L46.263,30.781 L48.082,29.802 M47.245,30.394 L46.580,31.125 L48.320,30.292 M47.518,30.814 L46.832,31.515 L48.590,30.757 M47.775,31.244 L47.018,31.943 L48.893,31.204 M48.015,31.683 L47.138,32.399 L49.227,31.641 M48.238,32.132 L47.194,32.877 L49.591,32.073 M48.444,32.589 L47.258,33.339 L49.912,32.535 M48.632,33.053 L47.378,33.772 L50.141,33.041 M48.802,33.525 L47.485,34.207 L50.347,33.558 M48.954,34.002 L47.580,34.642 L50.529,34.086 M49.088,34.485 L47.730,35.063 L50.619,34.638 M49.203,34.972 L47.869,35.490 L50.682,35.192 M49.300,35.464 L48.034,35.917 L50.683,35.753 M49.378,35.959 L48.216,36.349 L50.629,36.314 M49.437,36.456 L48.364,36.794 L50.570,36.867 M49.478,36.956 L48.486,37.249 L50.502,37.413 M49.499,37.456 L48.586,37.711 L50.416,37.952 M49.502,37.957 L48.673,38.181 L50.306,38.484 M49.486,38.458 L48.683,38.653 L50.236,39.012 M49.451,38.957 L48.657,39.124 L50.165,39.538 M49.397,39.456 L48.617,39.595 L50.069,40.059 L48.566,40.066 L49.949,40.575 L48.502,40.537 L49.805,41.084 L48.392,41.000 L49.670,41.593 L48.247,41.452 L49.535,42.102 L48.085,41.898 L49.380,42.607 L47.909,42.338 L49.206,43.105 M48.512,42.839 L47.718,42.772 L49.011,43.597 M48.315,43.299 L47.514,43.198 L48.796,44.080 M48.102,43.752 L47.296,43.617 L48.562,44.554 M47.872,44.197 L47.069,44.031 L48.304,45.017 M47.625,44.633 L46.829,44.438 L48.027,45.468 M47.363,45.060 L46.575,44.836 L47.734,45.909 M47.085,45.477 L46.306,45.224 L47.425,46.339 M46.792,45.883 L46.023,45.603 L47.101,46.758 M46.485,46.279 L45.725,45.969 L46.763,47.165 M46.164,46.663 L45.407,46.319 L46.417,47.566 M45.828,47.035 L45.077,46.656 L46.057,47.954 M45.480,47.395 L44.735,46.981 L45.683,48.330 M45.118,47.742 L44.381,47.292 L45.295,48.692 M44.745,48.075 L44.017,47.590 L44.895,49.041 M44.359,48.395 L43.642,47.874 L44.482,49.375 M43.963,48.701 L43.257,48.144 L44.058,49.695 M43.555,48.992 L42.862,48.400 L43.622,50.000 M43.138,49.269 L42.459,48.640 L43.175,50.290 M42.710,49.530 L42.048,48.866 L42.718,50.564 M42.274,49.776 L41.630,49.076 L42.251,50.821 M41.829,50.006 L41.205,49.273 L41.773,51.060 M41.376,50.220 L40.776,49.458 L41.286,51.280 M40.916,50.418 L40.341,49.629 L40.791,51.480 M40.449,50.599 L39.903,49.791 L40.286,51.654 M39.976,50.764 L39.459,49.937 L39.776,51.813 M39.498,50.912 L39.009,50.064 L39.261,51.955 M39.014,51.042 L38.555,50.175 L38.741,52.081 M38.526,51.156 L38.097,50.267 L38.218,52.189 M38.035,51.252 L37.636,50.344 L37.691,52.279 M37.540,51.331 L37.174,50.409 L37.161,52.345 M37.043,51.392 L36.709,50.458 L36.628,52.393 M36.544,51.436 L36.243,50.491 L36.094,52.421 M36.044,51.463 L35.777,50.507 L35.560,52.431 M35.543,51.471 L35.309,50.507 L35.026,52.423 M35.042,51.463 L34.842,50.494 L34.492,52.392 M34.542,51.437 L34.376,50.468 L33.961,52.340 M34.043,51.393 L33.910,50.426 L33.431,52.269 M33.546,51.332 L33.445,50.366 L32.905,52.181 M33.052,51.254 L32.984,50.289 L32.382,52.076 M32.560,51.159 L32.525,50.194 L31.863,51.955 M32.072,51.046 L32.069,50.085 L31.349,51.814 M31.588,50.917 L31.616,49.963 L30.841,51.652 M31.109,50.771 L31.167,49.827 L30.339,51.472 M30.635,50.609 L30.723,49.676 L29.845,51.274 M30.167,50.431 L30.282,49.512 L29.359,51.058 M29.705,50.236 L29.847,49.334 L28.882,50.824 M29.251,50.026 L29.417,49.142 L28.414,50.572 M28.804,49.801 L28.993,48.934 L27.956,50.306 M28.365,49.560 L28.577,48.712 L27.507,50.024 M27.934,49.304 L28.168,48.475 L27.068,49.728 M27.512,49.034 L27.767,48.224 L26.639,49.417 M27.100,48.750 L27.375,47.959 L26.222,49.093 M26.698,48.451 L26.991,47.680 L25.816,48.755 M26.306,48.140 L26.621,47.384 L25.419,48.408 M25.925,47.815 L26.266,47.070 L25.029,48.053 M25.555,47.477 L25.921,46.744 L24.652,47.685 M25.197,47.127 L25.587,46.407 L24.287,47.304 M24.851,46.765 L25.265,46.059 L23.935,46.912 M24.517,46.392 L24.955,45.700 L23.597,46.507 M24.196,46.007 L24.657,45.330 L23.273,46.092 M23.888,45.613 L24.372,44.951 L22.963,45.666 M23.594,45.207 L24.099,44.563 L22.667,45.230 M23.313,44.793 L23.835,44.169 L22.391,44.781 M23.046,44.369 L23.588,43.763 L22.126,44.326 M22.794,43.936 L23.374,43.339 L21.857,43.873 M22.556,43.496 L23.195,42.898 L21.583,43.420 M22.334,43.047 L23.050,42.445 L21.306,42.965 M22.126,42.591 L22.937,41.983 L21.026,42.507 M21.933,42.129 L22.855,41.513 L20.746,42.043 M21.756,41.661 L22.765,41.053 L20.505,41.558 M21.595,41.187 L22.663,40.601 L20.309,41.054 M21.449,40.708 L22.571,40.148 L20.133,40.542 M21.320,40.224 L22.491,39.694 L19.978,40.022 M21.206,39.736 L22.421,39.240 L19.845,39.496 M21.109,39.245 L22.362,38.785 L19.734,38.964 M21.027,38.751 L22.209,38.344 L19.748,38.413 M20.962,38.254 L22.006,37.901 L19.846,37.860 M20.914,37.756 L21.805,37.448 L19.975,37.315 L21.613,36.983 L20.127,36.779 L21.438,36.506 L20.295,36.254 L21.286,36.019 L20.473,35.741 L21.313,35.532 L20.505,35.228 L21.376,35.049 L20.532,34.714 L21.463,34.570 L20.569,34.199 L21.572,34.096 L20.615,33.684 L21.704,33.629 L20.671,33.167 L21.851,33.167 L20.744,32.652 L21.941,32.693 L20.905,32.157 L22.033,32.217 L21.095,31.672 L22.124,31.738 L21.318,31.201 L22.211,31.252 L21.575,30.746 L22.292,30.757 L21.867,30.312 L22.367,30.252 L22.196,29.901 L22.578,29.803 L22.418,29.446 L22.803,29.361 L22.655,29.000 L23.042,28.927 L22.906,28.561 L23.321,28.517 L23.144,28.114 L23.695,28.171 L23.314,27.620 L24.083,27.844 L23.498,27.124 L24.470,27.527 L23.708,26.638 L24.816,27.186 L23.985,26.194 L25.146,26.836 L24.302,25.780 L25.461,26.474 L24.659,25.399 L25.763,26.099 L25.051,25.053 L26.053,25.707 L25.477,24.745 L26.353,25.318 L25.916,24.458 L26.727,25.008 L26.301,24.116 L27.161,24.773 L26.648,23.723 M27.002,24.170 L27.656,24.631 L26.952,23.262 M27.404,23.872 L28.153,24.512 L27.272,22.804 M27.816,23.586 L28.651,24.415 L27.610,22.349 M28.236,23.314 L29.149,24.340 L27.965,21.899 M28.664,23.055 L29.606,24.218 L28.376,21.523 M29.100,22.809 L29.963,23.920 L28.903,21.350 M29.544,22.577 L30.330,23.629 L29.434,21.199 M29.995,22.359 L30.708,23.345 L29.968,21.068 M30.452,22.156 L31.096,23.069 L30.504,20.958 M30.916,21.966 L31.494,22.802 L31.041,20.868 M31.385,21.792 L31.903,22.545 L31.578,20.798 M31.859,21.632 L32.361,22.424 L32.076,20.621 M32.338,21.486 L32.822,22.320 L32.580,20.457 M32.822,21.356 L33.289,22.244 L33.085,20.295 M33.309,21.241 L33.755,22.176 L33.599,20.155 M33.800,21.141 L34.221,22.116 L34.118,20.039 M34.293,21.056 L34.687,22.061 L34.643,19.947 M34.789,20.987 L35.151,22.003 L35.173,19.889 M35.287,20.932 L35.617,21.960 L35.704,19.847 M35.786,20.894 L36.085,21.931 L36.237,19.821 M36.286,20.870 L36.553,21.916 L36.770,19.812 M36.786,20.862 L37.021,21.916 L37.302,19.820 M37.287,20.870 L37.490,21.925 L37.835,19.849 M37.787,20.892 L37.958,21.937 L38.364,19.905 M38.286,20.930 L38.428,21.960 L38.891,19.981 M38.784,20.984 L38.898,21.991 L39.414,20.080 M39.280,21.052 L39.368,22.029 L39.932,20.201 M39.774,21.136 L39.841,22.072 L40.443,20.348 M40.264,21.235 L40.297,22.197 L40.963,20.443 M40.752,21.348 L40.728,22.416 L41.502,20.473 M41.236,21.477 L41.148,22.646 L42.043,20.522 M41.716,21.620 L41.560,22.885 L42.584,20.591 M42.191,21.777 L41.962,23.133 L43.125,20.679 M42.661,21.949 L42.354,23.390 L43.665,20.788 M43.126,22.135 L42.799,23.512 L44.141,21.059 M43.585,22.335 L43.307,23.509 L44.541,21.482 M44.037,22.549 L43.819,23.528 L44.924,21.912 M44.483,22.776 L44.335,23.567 L45.290,22.347 L44.853,23.629 L45.639,22.787 L45.372,23.712 L45.971,23.231 L45.891,23.817 L46.287,23.678 L46.309,24.085 L46.687,23.987 L46.666,24.434 L47.130,24.239 L47.007,24.799 L47.572,24.500 L47.358,25.145 L47.984,24.802 L47.722,25.473 L48.362,25.145 L48.103,25.785 L48.705,25.525 L48.501,26.083 L49.008,25.941 L48.899,26.388 L49.290,26.371 L49.228,26.760 L49.619,26.754 L49.546,27.141 L49.937,27.147 L49.852,27.531 L50.242,27.548 L50.147,27.930 L50.536,27.959 L50.429,28.338 L50.818,28.379 L50.699,28.754 L51.087,28.806 L50.957,29.178 L51.343,29.241 L51.203,29.609 L51.586,29.684 L51.425,30.053 L51.826,30.128 L51.646,30.496 L52.041,30.586 L51.861,30.944 L52.236,31.052 L52.053,31.401 L52.425,31.520 L52.233,31.863 L52.601,31.994 L52.398,32.331 L52.763,32.472 L52.550,32.803 L52.910,32.955 L52.688,33.280 L53.044,33.442 L52.812,33.760 L53.163,33.933 L52.922,34.244 L53.268,34.427 L53.018,34.731 L53.358,34.923 L53.100,35.220 L53.434,35.423 L53.111,35.719 L53.551,35.917 L53.047,36.221 L53.714,36.411 L52.972,36.718 L53.860,36.913 L52.884,37.209 L53.989,37.422 L52.778,37.694 L54.107,37.938 M53.443,37.941 L52.653,38.172 L54.216,38.460 M53.431,38.441 L52.588,38.647 L54.235,38.985 M53.405,38.941 L52.537,39.121 L54.212,39.510 M53.364,39.440 L52.465,39.592 L54.180,40.034 M53.309,39.938 L52.374,40.059 L54.140,40.560 M53.239,40.433 L52.262,40.521 L54.091,41.086 M53.156,40.927 L52.131,40.978 L54.033,41.612 M53.058,41.418 L51.994,41.430 L53.953,42.137 M52.946,41.906 L51.868,41.884 L53.834,42.654 M52.820,42.390 L51.758,42.342 L53.671,43.159 M52.680,42.871 L51.668,42.808 L53.461,43.648 M52.526,43.347 L51.602,43.285 L53.200,44.117 M52.359,43.819 L51.562,43.779 L52.885,44.559 L51.444,44.249 L52.622,45.015 L51.247,44.687 L52.412,45.491 L51.036,45.119 L52.190,45.962 L50.812,45.544 L51.954,46.426 L50.576,45.963 L51.706,46.884 L50.328,46.374 L51.446,47.335 L50.069,46.777 L51.172,47.779 L49.798,47.173 L50.887,48.216 M50.272,47.798 L49.515,47.560 L50.589,48.644 M49.979,48.203 L49.222,47.939 L50.280,49.064 M49.675,48.601 L48.917,48.309 L49.959,49.476 M49.359,48.989 L48.604,48.671 L49.624,49.878 M49.033,49.369 L48.287,49.029 L49.273,50.264 M48.696,49.739 L47.960,49.378 L48.910,50.641 M48.349,50.100 L47.624,49.718 L48.538,51.007 M47.991,50.450 L47.277,50.049 L48.155,51.363 M47.624,50.791 L46.922,50.369 L47.762,51.707 M47.248,51.121 L46.558,50.680 L47.360,52.041 M46.863,51.440 L46.185,50.980 L46.949,52.363 M46.468,51.748 L45.801,51.265 L46.532,52.677 M46.066,52.046 L45.404,51.533 L46.110,52.987 M45.655,52.331 L45.001,51.790 L45.680,53.284 M45.236,52.605 L44.590,52.034 L45.242,53.570 M44.809,52.868 L44.174,52.267 L44.795,53.844 M44.376,53.118 L43.751,52.488 L44.341,54.106 M43.936,53.356 L43.322,52.696 L43.880,54.355 M43.489,53.582 L42.892,52.902 L43.407,54.582 M43.036,53.795 L42.458,53.098 L42.926,54.793 M42.578,53.996 L42.019,53.283 L42.440,54.990 M42.114,54.184 L41.575,53.456 L41.948,55.174 M41.645,54.358 L41.127,53.616 L41.452,55.343 M41.171,54.520 L40.674,53.764 L40.951,55.499 M40.693,54.669 L40.215,53.890 L40.448,55.650 M40.211,54.804 L39.751,53.998 L39.943,55.792 M39.726,54.926 L39.284,54.093 L39.434,55.922 M39.237,55.034 L38.816,54.174 L38.921,56.037 M38.746,55.129 L38.346,54.242 L38.404,56.138 M38.252,55.210 L37.875,54.298 L37.885,56.225 M37.756,55.278 L37.403,54.351 L37.362,56.286 M37.258,55.332 L36.931,54.395 L36.836,56.329 M36.759,55.372 L36.458,54.427 L36.310,56.357 M36.259,55.399 L35.985,54.446 L35.784,56.371 M35.759,55.412 L35.511,54.451 L35.257,56.371 M35.259,55.411 L35.036,54.444 L34.730,56.356 M34.758,55.396 L34.562,54.438 L34.205,56.312 M34.259,55.368 L34.087,54.421 L33.682,56.252 M33.760,55.326 L33.613,54.390 L33.161,56.179 M33.262,55.270 L33.139,54.346 L32.643,56.091 M32.767,55.201 L32.666,54.289 L32.127,55.990 M32.273,55.119 L32.194,54.217 L31.615,55.876 M31.782,55.023 L31.728,54.119 L31.103,55.762 M31.293,54.913 L31.264,54.009 L30.595,55.634 M30.808,54.791 L30.803,53.885 L30.090,55.492 M30.326,54.655 L30.346,53.750 L29.590,55.337 M29.848,54.506 L29.893,53.602 L29.094,55.168 M29.375,54.345 L29.443,53.444 L28.603,54.983 M28.906,54.170 L28.992,53.285 L28.123,54.774 M28.441,53.983 L28.546,53.114 L27.648,54.553 M27.982,53.784 L28.105,52.931 L27.180,54.319 M27.529,53.572 L27.668,52.735 L26.719,54.073 M27.081,53.348 L27.236,52.527 L26.264,53.814 M26.640,53.112 L26.810,52.308 L25.817,53.544 M26.205,52.864 L26.395,52.067 L25.373,53.272 M25.777,52.605 L25.989,51.813 L24.934,52.990 M25.356,52.334 L25.589,51.548 L24.503,52.696 M24.943,52.052 L25.197,51.273 L24.080,52.391 M24.537,51.759 L24.812,50.987 L23.666,52.075 M24.139,51.455 L24.434,50.691 L23.260,51.747 M23.750,51.141 L24.065,50.385 L22.863,51.410 M23.369,50.816 L23.700,50.074 L22.480,51.056 M22.997,50.481 L23.339,49.757 L22.110,50.689 M22.634,50.137 L22.988,49.429 L21.749,50.313 L22.645,49.092 L21.399,49.927 L22.311,48.746 L21.059,49.533 L21.987,48.390 L20.730,49.131 L21.673,48.026 L20.411,48.720 L21.368,47.652 L20.104,48.302 L21.073,47.271 L19.807,47.876 M20.367,47.472 L20.859,46.833 L19.452,47.490 M20.085,47.058 L20.658,46.392 L19.106,47.094 M19.814,46.638 L20.467,45.948 L18.772,46.685 M19.555,46.210 L20.286,45.503 L18.450,46.264 M19.306,45.775 L20.115,45.057 L18.142,45.832 M19.070,45.334 L19.954,44.609 L17.848,45.389 M18.845,44.887 L19.802,44.160 L17.568,44.935 M18.632,44.434 L19.586,43.742 L17.376,44.439 M18.430,43.976 L19.319,43.343 L17.258,43.913 M18.242,43.512 L19.019,42.952 L17.200,43.371 L18.687,42.563 L17.197,42.816 L18.327,42.173 L17.246,42.255 L17.944,41.778 L17.345,41.690 L17.692,41.334 L17.337,41.168 L17.572,40.852 L17.223,40.676 L17.466,40.367 L17.121,40.182 L17.372,39.879 L17.032,39.686 L17.291,39.390 L16.956,39.187 L17.222,38.898 L16.893,38.687 L17.167,38.404 L16.844,38.185 L17.124,37.910 L16.807,37.682 L17.095,37.414 L16.783,37.178 L17.078,36.918 L16.773,36.674 L17.074,36.421 L16.776,36.169 L17.083,35.925 L16.792,35.665 L17.106,35.429 L16.820,35.162 L17.140,34.934 L16.862,34.659 L17.188,34.439 L16.917,34.158 L17.249,33.946 L16.985,33.658 L17.322,33.455 L17.066,33.160 L17.408,32.966 L17.160,32.665 L17.506,32.480 L17.266,32.172 L17.617,31.996 L17.385,31.682 L17.741,31.515 L17.517,31.195 L17.877,31.037 L17.661,30.712 L18.025,30.563 L17.818,30.232 L18.185,30.093 L17.986,29.757 L18.358,29.628 L18.167,29.286 L18.542,29.166 L18.361,28.820 L18.738,28.710 L18.566,28.360 L18.946,28.259 L18.782,27.904 L19.165,27.814 L19.010,27.455 L19.395,27.374 L19.250,27.011 L19.637,26.940 L19.501,26.574 L19.890,26.512 L19.763,26.143 L20.153,26.092 L20.036,25.719 L20.427,25.677 L20.320,25.302 L20.712,25.271 L20.614,24.892 L21.007,24.871 L20.919,24.490 L21.312,24.479 L21.234,24.096 L21.627,24.095 L21.558,23.711 L21.951,23.719 L21.893,23.333 L22.285,23.352 L22.236,22.964 L22.628,22.993 L22.589,22.604 L22.981,22.643 L22.951,22.253 L23.341,22.302 L23.322,21.912 L23.711,21.970 L23.702,21.579 L24.089,21.648 L24.089,21.257 L24.474,21.335 L24.485,20.944 L24.868,21.032 L24.888,20.642 L25.269,20.739 L25.299,20.350 L25.677,20.456 L25.717,20.068 L26.108,20.208 L26.127,19.773 L26.570,20.014 L26.519,19.445 L27.019,19.804 L26.937,19.154 L27.457,19.578 L27.378,18.902 L27.886,19.336 L27.839,18.688 L28.310,19.079 L28.318,18.511 L28.730,18.808 L28.810,18.371 L29.238,18.740 L29.224,18.050 L29.774,18.763 L29.620,17.663 M29.814,18.168 L30.305,18.802 L30.030,17.282 M30.285,18.000 L30.830,18.859 L30.454,16.908 M30.761,17.844 L31.349,18.932 L30.892,16.541 M31.240,17.700 L31.861,19.021 L31.344,16.182 M31.723,17.568 L32.312,18.911 L31.862,16.046 M32.209,17.448 L32.748,18.731 L32.403,16.004 M32.697,17.341 L33.190,18.560 L32.942,15.977 M33.189,17.245 L33.638,18.401 L33.480,15.964 M33.682,17.162 L34.091,18.251 L34.016,15.965 M34.177,17.091 L34.550,18.113 L34.550,15.980 M34.674,17.032 L35.021,18.054 L35.075,15.940 M35.173,16.985 L35.494,18.016 L35.601,15.904 M35.672,16.951 L35.967,17.990 L36.126,15.881 M36.172,16.930 L36.441,17.975 L36.653,15.871 M36.672,16.921 L36.916,17.972 L37.179,15.874 M37.173,16.924 L37.390,17.991 L37.706,15.879 M37.673,16.939 L37.859,18.090 L38.236,15.830 M38.172,16.967 L38.324,18.200 L38.769,15.794 M38.671,17.007 L38.784,18.321 L39.305,15.772 M39.169,17.060 L39.240,18.453 L39.843,15.764 M39.665,17.124 L39.690,18.595 L40.382,15.769 M40.160,17.201 L40.153,18.643 L40.905,15.893 M40.652,17.290 L40.657,18.506 L41.383,16.226 M41.142,17.391 L41.169,18.384 L41.847,16.569 L41.689,18.277 L42.297,16.919 L42.216,18.186 L42.734,17.279 L42.750,18.111 L43.157,17.645 L43.262,18.137 L43.595,17.933 L43.731,18.302 L44.069,18.106 L44.195,18.479 L44.538,18.291 L44.642,18.697 L45.015,18.456 L45.090,18.910 L45.482,18.649 L45.545,19.107 L45.932,18.880 L46.005,19.295 L46.365,19.142 L46.445,19.527 L46.808,19.383 L46.879,19.769 L47.245,19.634 L47.306,20.022 L47.676,19.895 L47.728,20.285 L48.100,20.167 L48.142,20.558 L48.518,20.450 L48.551,20.841 L48.928,20.742 L48.952,21.134 L49.332,21.044 L49.346,21.437 L49.728,21.356 L49.732,21.749 L50.116,21.677 L50.111,22.070 L50.497,22.008 L50.482,22.400 L50.869,22.348 L50.845,22.740 L51.233,22.696 L51.199,23.088 L51.588,23.053 L51.545,23.444 L51.935,23.419 L51.883,23.809 L52.273,23.793 L52.211,24.181 L52.602,24.175 L52.530,24.562 L52.921,24.565 L52.841,24.950 L53.231,24.963 L53.141,25.345 L53.531,25.368 L53.432,25.748 L53.822,25.779 L53.714,26.157 L54.102,26.198 L53.985,26.573 L54.373,26.624 L54.247,26.996 L54.633,27.055 L54.498,27.424 L54.882,27.493 L54.739,27.859 L55.121,27.937 L54.969,28.299 L55.350,28.386 L55.189,28.744 L55.567,28.840 L55.398,29.195 L55.774,29.300 L55.596,29.650 L55.970,29.765 L55.784,30.111 L56.154,30.234 L55.960,30.575 L56.328,30.707 L56.125,31.043 L56.490,31.184 L56.279,31.516 L56.640,31.665 L56.422,31.992 L56.779,32.149 L56.553,32.471 L56.907,32.637 L56.673,32.953 L57.023,33.127 L56.782,33.438 L57.127,33.620 L56.879,33.925 L57.219,34.116 L56.964,34.414 L57.300,34.613 L57.038,34.906 L57.369,35.112 L57.100,35.398 L57.426,35.613 L57.150,35.893 L57.471,36.115 L57.189,36.388 L57.505,36.618 L57.216,36.884 L57.526,37.121 L57.231,37.381 L57.536,37.625 L57.235,37.877 L57.534,38.129 L57.227,38.374 L57.519,38.633 L57.207,38.871 L57.493,39.136 L57.175,39.366 L57.455,39.638 L57.132,39.861 L57.406,40.140 L57.077,40.355 L57.344,40.640 L57.011,40.847 L57.271,41.139 L56.917,41.335 L57.203,41.638 L56.763,41.811 L57.170,42.146 L56.582,42.278 L57.143,42.657 L56.371,42.734 L57.122,43.175 L56.128,43.177 L57.109,43.700 L55.853,43.604 L57.108,44.234 M56.445,44.039 L55.582,44.026 L57.079,44.767 M56.292,44.516 L55.358,44.457 L56.982,45.284 M56.129,44.988 L55.119,44.879 L56.877,45.801 M55.954,45.457 L54.866,45.292 L56.764,46.319 M55.769,45.922 L54.600,45.696 L56.643,46.839 M55.572,46.382 L54.321,46.089 L56.513,47.360 M55.365,46.838 L54.045,46.478 L56.360,47.874 M55.148,47.289 L53.862,46.911 L56.092,48.334 M54.920,47.734 L53.773,47.398 L55.709,48.730 M54.682,48.174 L53.682,47.890 L55.309,49.109 M54.433,48.608 L53.557,48.372 L54.922,49.488 M54.175,49.037 L53.398,48.839 L54.550,49.868 L53.205,49.291 L54.191,50.251 L52.955,49.708 L53.871,50.657 L52.664,50.096 L53.573,51.077 L52.364,50.477 L53.265,51.491 L52.055,50.851 L52.948,51.898 L51.738,51.218 L52.621,52.297 L51.412,51.576 L52.286,52.690 L51.078,51.927 L51.941,53.075 L50.735,52.269 L51.588,53.452 L50.385,52.603 L51.226,53.821 L50.028,52.928 L50.856,54.183 M50.350,53.641 L49.663,53.245 L50.477,54.536 M49.977,53.974 L49.291,53.553 L50.091,54.880 M49.596,54.298 L48.912,53.852 L49.697,55.216 M49.207,54.613 L48.532,54.149 L49.289,55.536 M48.811,54.919 L48.147,54.440 L48.872,55.844 M48.409,55.216 L47.755,54.722 L48.448,56.142 M47.999,55.504 L47.358,54.995 L48.018,56.431 M47.584,55.783 L46.925,55.214 L47.609,56.754 M47.162,56.051 L46.483,55.413 L47.198,57.079 M46.733,56.310 L46.038,55.602 L46.778,57.392 M46.300,56.559 L45.588,55.776 L46.351,57.702 M45.860,56.799 L45.137,55.942 L45.915,57.999 M45.415,57.028 L44.686,56.101 L45.469,58.283 M44.965,57.247 L44.234,56.253 L45.014,58.553 M44.510,57.455 L43.782,56.398 L44.549,58.810 M44.051,57.653 L43.329,56.536 L44.077,59.052 M43.587,57.841 L42.877,56.669 L43.595,59.278 M43.119,58.018 L42.423,56.796 L43.107,59.489 M42.647,58.184 L41.969,56.914 L42.612,59.687 M42.171,58.339 L41.513,57.024 L42.111,59.872 M41.692,58.484 L41.056,57.126 L41.605,60.043 M41.210,58.618 L40.603,57.237 L41.090,60.183 M40.725,58.740 L40.161,57.397 L40.558,60.251 M40.238,58.852 L39.713,57.542 L40.026,60.313 M39.747,58.953 L39.261,57.673 L39.496,60.367 M39.255,59.042 L38.803,57.788 L38.966,60.414 M38.761,59.120 L38.342,57.888 L38.436,60.454 M38.265,59.188 L37.877,57.972 L37.908,60.487 M37.768,59.243 L37.409,58.040 L37.379,60.514 M37.269,59.288 L36.939,58.092 L36.851,60.534 M36.770,59.321 L36.467,58.129 L36.324,60.547 M36.270,59.343 L35.994,58.149 L35.796,60.554 M35.770,59.354 L35.521,58.154 L35.269,60.554 M35.270,59.354 L35.048,58.143 L34.741,60.547 M34.770,59.342 L34.576,58.116 L34.214,60.534 M34.270,59.319 L34.105,58.073 L33.686,60.514 M33.771,59.285 L33.635,58.014 L33.158,60.488 M33.272,59.239 L33.169,57.939 L32.630,60.455 M32.775,59.183 L32.705,57.849 L32.102,60.415 M32.279,59.115 L32.245,57.743 L31.573,60.368 M31.785,59.036 L31.789,57.622 L31.043,60.315 M31.293,58.946 L31.339,57.486 L30.513,60.254 M30.803,58.845 L30.893,57.336 L29.982,60.187 M30.315,58.733 L30.436,57.240 L29.468,60.042 M29.830,58.610 L29.976,57.148 L28.962,59.872 M29.348,58.477 L29.517,57.049 L28.461,59.688 M28.869,58.332 L29.059,56.944 L27.966,59.488 M28.393,58.177 L28.600,56.832 L27.479,59.274 M27.921,58.012 L28.142,56.714 L26.998,59.046 M27.453,57.836 L27.684,56.589 L26.525,58.803 M26.989,57.649 L27.227,56.457 L26.061,58.546 M26.529,57.452 L26.769,56.318 L25.605,58.276 M26.073,57.245 L26.315,56.166 L25.155,57.999 M25.622,57.028 L25.863,56.005 L24.713,57.711 M25.177,56.801 L25.412,55.836 L24.281,57.411 M24.736,56.564 L24.962,55.658 L23.857,57.100 M24.301,56.317 L24.514,55.472 L23.443,56.779 M23.871,56.061 L24.073,55.267 L23.033,56.456 M23.447,55.795 L23.663,55.012 L22.604,56.167 M23.029,55.520 L23.255,54.752 L22.185,55.862 L22.853,54.483 L21.773,55.549 L22.457,54.205 L21.369,55.227 L22.067,53.918 L20.972,54.896 L21.683,53.623 L20.582,54.557 L21.306,53.318 L20.200,54.210 L20.935,53.005 L19.826,53.855 L20.572,52.683 L19.459,53.492 L20.216,52.353 L19.101,53.122 L19.867,52.015 L18.751,52.744 L19.525,51.669 L18.410,52.359 L19.192,51.315 L18.077,51.966 L18.866,50.953 L17.752,51.567 L18.548,50.584 L17.437,51.161 L18.239,50.208 L17.130,50.749 L18.009,49.773 L16.761,50.383 M17.311,49.977 L17.855,49.288 L16.335,50.053 M17.023,49.568 L17.660,48.838 L15.967,49.675 M16.744,49.153 L17.424,48.420 L15.659,49.254 M16.474,48.732 L17.145,48.028 L15.411,48.794 M16.213,48.304 L16.825,47.660 L15.224,48.300 L16.462,47.310 L15.099,47.776 L16.104,46.950 L14.988,47.252 L15.788,46.562 L14.854,46.747 L15.485,46.163 L14.727,46.242 L15.194,45.753 L14.608,45.739 L14.915,45.334 L14.497,45.237 L14.706,44.882 L14.336,44.759 L14.530,44.418 L14.162,44.286 L14.364,43.949 L13.999,43.810 L14.208,43.477 L13.847,43.330 L14.063,43.002 L13.705,42.847 L13.928,42.524 L13.573,42.361 L13.803,42.042 L13.452,41.872 L13.689,41.559 L13.341,41.380 L13.585,41.073 L13.242,40.887 L13.492,40.584 L13.153,40.391 L13.410,40.094 L13.075,39.894 L13.338,39.602 L13.007,39.395 L13.277,39.109 L12.950,38.894 L13.226,38.615 L12.905,38.393 L13.186,38.119 L12.870,37.890 L13.157,37.623 L12.846,37.387 L13.139,37.126 L12.833,36.884 L13.131,36.629 L12.830,36.381 L13.134,36.132 L12.839,35.877 L13.148,35.635 L12.858,35.374 L13.173,35.139 L12.888,34.871 L13.208,34.643 L12.929,34.369 L13.254,34.148 L12.981,33.868 L13.310,33.654 L13.044,33.369 L13.378,33.162 L13.117,32.871 L13.455,32.671 L13.201,32.374 L13.543,32.182 L13.296,31.880 L13.642,31.695 L13.401,31.387 L13.751,31.210 L13.517,30.897 L13.871,30.727 L13.643,30.410 L14.001,30.247 L13.780,29.925 L14.141,29.770 L13.927,29.443 L14.291,29.296 L14.084,28.965 L14.451,28.826 L14.251,28.490 L14.622,28.359 L14.429,28.019 L14.802,27.896 L14.617,27.552 L14.992,27.437 L14.814,27.089 L15.192,26.981 L15.022,26.630 L15.401,26.531 L15.239,26.176 L15.621,26.084 L15.465,25.726 L15.849,25.643 L15.702,25.281 L16.087,25.207 L15.947,24.842 L16.334,24.775 L16.202,24.408 L16.590,24.349 L16.466,23.979 L16.856,23.929 L16.740,23.556 L17.130,23.514 L17.022,23.139 L17.413,23.106 L17.313,22.728 L17.704,22.703 L17.612,22.323 L18.004,22.307 L17.920,21.925 L18.313,21.917 L18.237,21.533 L18.629,21.533 L18.561,21.149 L18.954,21.157 L18.894,20.771 L19.286,20.787 L19.234,20.400 L19.626,20.425 L19.583,20.037 L19.974,20.069 L19.939,19.680 L20.329,19.722 L20.302,19.332 L20.692,19.382 L20.673,18.991 L21.061,19.049 L21.051,18.659 L21.438,18.724 L21.436,18.334 L21.821,18.408 L21.827,18.017 L22.211,18.099 L22.225,17.709 L22.607,17.799 L22.630,17.409 L23.010,17.507 L23.040,17.118 L23.418,17.224 L23.457,16.835 L23.833,16.950 L23.880,16.562 L24.253,16.684 L24.308,16.297 L24.678,16.427 L24.741,16.041 L25.109,16.179 L25.180,15.795 L25.545,15.940 L25.624,15.557 L25.986,15.710 L26.073,15.329 L26.432,15.490 L26.527,15.111 L26.882,15.279 L26.985,14.902 L27.336,15.077 L27.447,14.703 L27.795,14.885 L27.913,14.513 L28.257,14.703 L28.384,14.333 L28.723,14.530 L28.858,14.163 L29.223,14.456 L29.305,13.914 L29.721,14.390 L29.761,13.678 L30.213,14.315 L30.228,13.470 L30.700,14.233 L30.707,13.289 L31.184,14.145 L31.193,13.133 L31.665,14.054 L31.687,13.001 L32.164,14.050 L32.168,12.803 L32.667,14.091 L32.650,12.580 M32.781,13.314 L33.169,14.163 L33.135,12.346 M33.275,13.235 L33.669,14.265 L33.626,12.105 M33.771,13.168 L34.165,14.391 L34.123,11.858 M34.268,13.110 L34.654,14.525 L34.630,11.624 M34.766,13.063 L35.123,14.492 L35.158,11.579 M35.265,13.026 L35.592,14.466 L35.687,11.546 M35.765,12.999 L36.062,14.448 L36.218,11.526 M36.265,12.983 L36.532,14.439 L36.748,11.519 M36.765,12.977 L37.002,14.438 L37.278,11.524 M37.265,12.982 L37.474,14.380 L37.807,11.606 M37.765,12.997 L37.955,14.195 L38.325,11.837 M38.265,13.022 L38.444,14.026 L38.834,12.071 M38.764,13.057 L38.940,13.879 L39.336,12.305 L39.440,13.755 L39.830,12.535 L39.945,13.659 L40.318,12.759 L40.441,13.659 L40.811,12.907 L40.930,13.723 L41.309,13.012 L41.419,13.785 L41.802,13.138 L41.911,13.845 L42.289,13.287 L42.405,13.899 L42.768,13.461 L42.905,13.947 L43.238,13.662 L43.392,14.049 L43.714,13.829 L43.869,14.190 L44.196,13.977 L44.342,14.341 L44.674,14.134 L44.813,14.501 L45.149,14.301 L45.280,14.671 L45.620,14.478 L45.744,14.851 L46.087,14.665 L46.204,15.040 L46.551,14.861 L46.660,15.238 L47.010,15.066 L47.111,15.446 L47.466,15.281 L47.559,15.663 L47.916,15.506 L48.002,15.889 L48.362,15.739 L48.440,16.124 L48.804,15.981 L48.873,16.368 L49.240,16.233 L49.301,16.620 L49.671,16.493 L49.724,16.882 L50.096,16.762 L50.142,17.151 L50.516,17.039 L50.554,17.430 L50.930,17.325 L50.960,17.717 L51.338,17.620 L51.360,18.012 L51.741,17.922 L51.754,18.315 L52.136,18.233 L52.142,18.626 L52.526,18.552 L52.524,18.944 L52.909,18.878 L52.899,19.271 L53.285,19.213 L53.267,19.605 L53.655,19.555 L53.629,19.946 L54.017,19.904 L53.983,20.295 L54.372,20.261 L54.330,20.651 L54.720,20.624 L54.670,21.014 L55.061,20.995 L55.003,21.383 L55.393,21.372 L55.328,21.760 L55.719,21.757 L55.645,22.142 L56.036,22.147 L55.955,22.531 L56.345,22.544 L56.257,22.927 L56.647,22.948 L56.550,23.328 L56.940,23.357 L56.836,23.735 L57.224,23.772 L57.113,24.148 L57.501,24.192 L57.381,24.566 L57.769,24.619 L57.642,24.990 L58.028,25.050 L57.893,25.419 L58.278,25.487 L58.136,25.853 L58.520,25.928 L58.371,26.291 L58.752,26.375 L58.596,26.735 L58.976,26.825 L58.812,27.182 L59.190,27.281 L59.020,27.634 L59.395,27.740 L59.218,28.090 L59.591,28.204 L59.407,28.550 L59.778,28.671 L59.586,29.014 L59.955,29.142 L59.757,29.481 L60.123,29.617 L59.918,29.951 L60.281,30.095 L60.069,30.425 L60.430,30.575 L60.211,30.902 L60.569,31.059 L60.344,31.381 L60.698,31.546 L60.467,31.863 L60.817,32.034 L60.580,32.347 L60.927,32.526 L60.683,32.833 L61.027,33.019 L60.777,33.322 L61.117,33.514 L60.861,33.812 L61.197,34.011 L60.935,34.303 L61.267,34.509 L60.999,34.796 L61.327,35.009 L61.054,35.291 L61.377,35.510 L61.099,35.786 L61.418,36.011 L61.133,36.282 L61.448,36.514 L61.158,36.779 L61.468,37.017 L61.173,37.276 L61.478,37.520 L61.178,37.773 L61.478,38.023 L61.173,38.270 L61.468,38.526 L61.159,38.767 L61.449,39.029 L61.134,39.264 L61.419,39.531 L61.100,39.760 L61.379,40.033 L61.055,40.255 L61.329,40.534 L61.001,40.750 L61.270,41.034 L60.938,41.243 L61.200,41.532 L60.864,41.735 L61.121,42.029 L60.781,42.225 L61.031,42.524 L60.688,42.713 L60.932,43.018 L60.585,43.200 L60.824,43.509 L60.473,43.684 L60.705,43.998 L60.351,44.166 L60.577,44.485 L60.219,44.646 L60.440,44.969 L60.079,45.123 L60.292,45.450 L59.929,45.597 L60.136,45.928 L59.769,46.068 L59.970,46.403 L59.600,46.536 L59.794,46.875 L59.410,46.995 L59.622,47.348 L59.128,47.416 L59.523,47.852 L58.812,47.818 L59.440,48.368 L58.461,48.198 L59.374,48.898 M58.865,48.661 L58.075,48.553 L59.326,49.443 M58.645,49.111 L57.653,48.882 L59.295,50.006 M58.417,49.556 L57.196,49.182 L59.283,50.590 M58.180,49.996 L56.920,49.573 L59.071,51.073 M57.934,50.432 L56.734,50.014 L58.753,51.496 M57.680,50.863 L56.640,50.515 L58.326,51.849 M57.417,51.289 L56.514,51.004 L57.914,52.204 M57.146,51.709 L56.356,51.479 L57.518,52.562 L56.166,51.938 L57.138,52.925 L55.945,52.379 L56.773,53.294 L55.656,52.773 L56.459,53.699 L55.356,53.159 L56.141,54.101 L55.049,53.539 L55.816,54.496 L54.735,53.913 L55.482,54.884 L54.409,54.277 L55.145,55.270 L54.073,54.631 L54.805,55.652 L53.729,54.978 L54.457,56.028 L53.356,55.295 L54.124,56.421 M53.652,55.946 L52.929,55.554 L53.832,56.858 M53.290,56.292 L52.502,55.806 L53.527,57.287 M52.923,56.631 L52.075,56.052 L53.208,57.708 M52.548,56.963 L51.648,56.292 L52.877,58.121 M52.167,57.287 L51.220,56.525 L52.534,58.525 M51.780,57.604 L50.792,56.753 L52.178,58.919 M51.387,57.914 L50.365,56.976 L51.811,59.304 M50.988,58.215 L49.937,57.193 L51.432,59.679 M50.583,58.509 L49.542,57.452 L51.008,59.995 M50.173,58.795 L49.225,57.827 L50.496,60.180 M49.757,59.073 L48.896,58.193 L49.985,60.358 M49.335,59.343 L48.556,58.551 L49.475,60.527 M48.909,59.604 L48.206,58.900 L48.965,60.688 M48.477,59.857 L47.844,59.240 L48.456,60.842 L47.472,59.571 L47.949,60.989 L47.090,59.891 L47.442,61.128 L46.699,60.202 L46.936,61.260 L46.298,60.502 L46.432,61.385 L45.888,60.791 L45.928,61.503 L45.469,61.069 L45.426,61.615 L45.041,61.335 L44.924,61.720 L44.580,61.520 L44.450,61.889 L44.112,61.690 L43.975,62.055 L43.641,61.850 L43.497,62.213 L43.167,62.001 L43.016,62.361 L42.690,62.143 L42.533,62.500 L42.211,62.275 L42.047,62.629 L41.729,62.399 L41.558,62.750 L41.245,62.513 L41.067,62.860 L40.759,62.617 L40.574,62.962 L40.271,62.713 L40.080,63.053 L39.781,62.799 L39.583,63.136 L39.290,62.875 L39.086,63.208 L38.797,62.942 L38.586,63.271 L38.303,63.000 L38.086,63.325 L37.808,63.048 L37.585,63.369 L37.312,63.087 L37.083,63.403 L36.816,63.116 L36.580,63.428 L36.319,63.136 L36.078,63.443 L35.821,63.146 L35.574,63.449 L35.324,63.146 L35.071,63.444 L34.827,63.138 L34.568,63.431 L34.330,63.119 L34.066,63.407 L33.833,63.091 L33.564,63.374 L33.337,63.054 L33.062,63.332 L32.842,63.007 L32.562,63.279 L32.348,62.951 L32.063,63.218 L31.855,62.885 L31.565,63.147 L31.363,62.810 L31.068,63.066 L30.873,62.725 L30.573,62.976 L30.385,62.632 L30.080,62.876 L29.898,62.529 L29.589,62.767 L29.413,62.416 L29.100,62.649 L28.931,62.295 L28.613,62.522 L28.451,62.164 L28.129,62.385 L27.974,62.024 L27.647,62.239 L27.499,61.876 L27.169,62.084 L27.028,61.718 L26.693,61.920 L26.559,61.551 L26.221,61.747 L26.122,61.303 L25.724,61.637 L25.695,61.037 L25.223,61.528 L25.276,60.760 L24.722,61.413 L24.867,60.471 L24.219,61.291 L24.466,60.172 L23.715,61.162 L24.074,59.863 L23.210,61.027 M23.530,60.389 L23.692,59.544 L22.705,60.885 M23.088,60.156 L23.320,59.216 L22.198,60.736 M22.649,59.915 L22.957,58.878 L21.691,60.579 M22.216,59.666 L22.605,58.531 L21.182,60.415 M21.787,59.409 L22.264,58.175 L20.673,60.244 M21.363,59.143 L21.933,57.811 L20.164,60.065 M20.944,58.870 L21.561,57.518 L19.706,59.800 M20.530,58.588 L21.124,57.316 L19.323,59.427 M20.122,58.299 L20.688,57.109 L18.951,59.045 M19.719,58.003 L20.252,56.896 L18.591,58.653 M19.322,57.698 L19.815,56.678 L18.242,58.251 M18.931,57.387 L19.378,56.454 L17.905,57.841 M18.545,57.068 L18.941,56.225 L17.581,57.422 M18.166,56.742 L18.503,55.989 L17.269,56.995 L18.066,55.746 L16.969,56.561 L17.662,55.463 L16.650,56.153 L17.313,55.120 L16.288,55.792 L16.971,54.771 L15.933,55.423 L16.635,54.416 L15.585,55.048 L16.306,54.054 L15.244,54.667 L15.983,53.686 L14.911,54.279 L15.668,53.313 L14.584,53.885 L15.360,52.933 L14.265,53.486 L15.095,52.520 L13.918,53.108 L14.842,52.100 L13.573,52.726 L14.580,51.689 L13.253,52.323 L14.307,51.286 L12.959,51.902 L14.023,50.890 L12.690,51.463 L13.729,50.500 L12.448,51.009 L13.425,50.114 L12.233,50.540 L13.054,49.764 L12.100,50.026 L12.690,49.404 L11.976,49.512 L12.364,49.018 L11.831,49.016 L12.075,48.608 L11.665,48.535 L11.840,48.169 L11.461,48.074 L11.629,47.719 L11.252,47.617 L11.425,47.265 L11.050,47.156 L11.231,46.807 L10.858,46.691 L11.045,46.346 L10.674,46.223 L10.867,45.881 L10.499,45.751 L10.698,45.413 L10.332,45.277 L10.538,44.942 L10.175,44.799 L10.387,44.469 L10.026,44.318 L10.244,43.992 L9.886,43.835 L10.110,43.513 L9.756,43.349 L9.986,43.031 L9.634,42.861 L9.870,42.548 L9.521,42.371 L9.763,42.062 L9.418,41.879 L9.665,41.574 L9.324,41.385 L9.576,41.085 L9.238,40.889 L9.497,40.594 L9.162,40.392 L9.426,40.101 L9.096,39.893 L9.365,39.608 L9.038,39.393 L9.312,39.113 L8.990,38.893 L9.269,38.617 L8.951,38.391 L9.235,38.121 L8.921,37.889 L9.210,37.624 L8.900,37.387 L9.194,37.127 L8.889,36.884 L9.188,36.630 L8.887,36.381 L9.191,36.132 L8.894,35.878 L9.202,35.635 L8.911,35.375 L9.223,35.138 L8.937,34.873 L9.253,34.641 L8.972,34.371 L9.293,34.145 L9.016,33.870 L9.341,33.650 L9.069,33.370 L9.399,33.156 L9.132,32.871 L9.465,32.663 L9.204,32.373 L9.541,32.172 L9.285,31.876 L9.625,31.681 L9.375,31.382 L9.719,31.193 L9.474,30.888 L9.821,30.706 L9.582,30.397 L9.933,30.221 L9.699,29.908 L10.053,29.739 L9.826,29.421 L10.182,29.258 L9.961,28.937 L10.320,28.780 L10.104,28.455 L10.467,28.305 L10.257,27.975 L10.622,27.832 L10.418,27.499 L10.786,27.363 L10.589,27.026 L10.959,26.896 L10.767,26.556 L11.140,26.433 L10.955,26.089 L11.329,25.973 L11.150,25.625 L11.527,25.516 L11.355,25.166 L11.733,25.063 L11.567,24.710 L11.948,24.615 L11.788,24.258 L12.170,24.170 L12.017,23.810 L12.401,23.729 L12.254,23.367 L12.639,23.292 L12.499,22.928 L12.886,22.860 L12.753,22.493 L13.140,22.433 L13.014,22.063 L13.402,22.010 L13.282,21.638 L13.672,21.592 L13.559,21.218 L13.949,21.179 L13.843,20.803 L14.234,20.771 L14.135,20.393 L14.526,20.368 L14.434,19.989 L14.826,19.971 L14.740,19.590 L15.132,19.579 L15.054,19.197 L15.446,19.193 L15.374,18.809 L15.766,18.813 L15.702,18.427 L16.094,18.438 L16.036,18.052 L16.428,18.069 L16.377,17.682 L16.769,17.707 L16.725,17.319 L17.116,17.351 L17.079,16.962 L17.470,17.001 L17.440,16.612 L17.830,16.658 L17.807,16.268 L18.196,16.321 L18.180,15.931 L18.568,15.991 L18.560,15.600 L18.946,15.667 L18.945,15.277 L19.330,15.351 L19.336,14.960 L19.720,15.041 L19.732,14.651 L20.115,14.739 L20.134,14.349 L20.515,14.444 L20.542,14.054 L20.921,14.156 L20.955,13.767 L21.331,13.875 L21.372,13.487 L21.747,13.602 L21.795,13.214 L22.168,13.336 L22.223,12.950 L22.593,13.078 L22.655,12.693 L23.023,12.828 L23.092,12.444 L23.458,12.586 L23.533,12.202 L23.896,12.351 L23.979,11.969 L24.339,12.124 L24.429,11.744 L24.786,11.905 L24.882,11.527 L25.237,11.695 L25.340,11.318 L25.691,11.492 L25.801,11.117 L26.149,11.298 L26.266,10.925 L26.611,11.112 L26.734,10.741 L27.075,10.934 L27.205,10.566 L27.543,10.765 L27.679,10.399 L28.014,10.604 L28.157,10.240 L28.487,10.451 L28.637,10.090 L28.963,10.307 L29.119,9.949 L29.442,10.171 L29.604,9.816 L29.923,10.045 L30.092,9.692 L30.406,9.926 L30.581,9.577 L30.892,9.817 L31.073,9.470 L31.379,9.716 L31.566,9.373 L31.884,9.715 L32.045,9.192 L32.403,9.819 L32.513,8.925 L32.915,9.922 L32.990,8.676 M33.077,9.281 L33.421,10.027 L33.476,8.443 M33.573,9.220 L33.922,10.134 L33.970,8.226 M34.070,9.167 L34.417,10.246 L34.471,8.021 M34.569,9.122 L34.899,10.249 L34.987,7.943 M35.068,9.087 L35.377,10.207 L35.507,7.928 M35.567,9.061 L35.856,10.178 L36.028,7.918 M36.067,9.043 L36.336,10.161 L36.548,7.913 M36.567,9.035 L36.816,10.157 L37.068,7.913 M37.067,9.035 L37.297,10.166 L37.588,7.918 M37.568,9.045 L37.782,10.030 L38.103,8.086 M38.067,9.063 L38.273,9.890 L38.611,8.276 L38.770,9.756 L39.112,8.478 L39.272,9.627 L39.607,8.692 L39.780,9.500 L40.094,8.921 L40.291,9.404 L40.576,9.138 L40.784,9.471 L41.074,9.209 L41.276,9.546 L41.571,9.290 L41.766,9.630 L42.065,9.379 L42.255,9.722 L42.559,9.477 L42.742,9.823 L43.050,9.583 L43.227,9.933 L43.540,9.699 L43.711,10.052 L44.027,9.823 L44.192,10.179 L44.512,9.955 L44.670,10.314 L44.995,10.096 L45.147,10.458 L45.475,10.246 L45.620,10.610 L45.952,10.404 L46.091,10.771 L46.427,10.570 L46.559,10.940 L46.898,10.745 L47.024,11.117 L47.367,10.928 L47.486,11.302 L47.832,11.120 L47.945,11.495 L48.293,11.319 L48.399,11.697 L48.751,11.527 L48.851,11.906 L49.205,11.742 L49.298,12.124 L49.656,11.966 L49.742,12.349 L50.102,12.198 L50.182,12.582 L50.544,12.437 L50.617,12.822 L50.982,12.684 L51.048,13.071 L51.416,12.939 L51.475,13.327 L51.845,13.201 L51.897,13.590 L52.269,13.471 L52.315,13.861 L52.689,13.748 L52.727,14.139 L53.103,14.033 L53.135,14.424 L53.513,14.325 L53.538,14.716 L53.917,14.623 L53.935,15.015 L54.316,14.929 L54.327,15.322 L54.710,15.242 L54.714,15.635 L55.098,15.562 L55.095,15.954 L55.480,15.889 L55.471,16.281 L55.857,16.222 L55.841,16.614 L56.228,16.562 L56.204,16.953 L56.592,16.908 L56.562,17.299 L56.951,17.260 L56.914,17.651 L57.303,17.619 L57.260,18.009 L57.650,17.984 L57.599,18.373 L57.989,18.354 L57.932,18.742 L58.322,18.731 L58.258,19.118 L58.649,19.113 L58.578,19.499 L58.969,19.501 L58.891,19.886 L59.282,19.895 L59.197,20.278 L59.588,20.294 L59.497,20.675 L59.887,20.698 L59.789,21.078 L60.179,21.107 L60.075,21.486 L60.464,21.522 L60.353,21.898 L60.741,21.941 L60.624,22.315 L61.011,22.365 L60.888,22.737 L61.274,22.794 L61.144,23.164 L61.529,23.227 L61.393,23.595 L61.777,23.665 L61.634,24.030 L62.017,24.106 L61.868,24.469 L62.249,24.552 L62.094,24.912 L62.474,25.002 L62.312,25.360 L62.691,25.456 L62.523,25.810 L62.900,25.913 L62.726,26.265 L63.101,26.374 L62.920,26.723 L63.293,26.839 L63.107,27.184 L63.478,27.306 L63.286,27.648 L63.655,27.777 L63.457,28.116 L63.823,28.251 L63.619,28.586 L63.984,28.727 L63.774,29.059 L64.135,29.207 L63.920,29.534 L64.279,29.688 L64.058,30.012 L64.414,30.173 L64.188,30.493 L64.541,30.659 L64.309,30.975 L64.660,31.148 L64.422,31.460 L64.770,31.638 L64.527,31.946 L64.871,32.131 L64.623,32.435 L64.964,32.625 L64.711,32.924 L65.049,33.121 L64.791,33.416 L65.125,33.618 L64.861,33.908 L65.192,34.116 L64.924,34.402 L65.251,34.615 L64.978,34.897 L65.301,35.116 L65.023,35.392 L65.343,35.617 L65.060,35.888 L65.376,36.118 L65.088,36.385 L65.400,36.620 L65.108,36.882 L65.415,37.123 L65.119,37.380 L65.422,37.626 L65.122,37.877 L65.421,38.129 L65.116,38.375 L65.410,38.631 L65.101,38.872 L65.391,39.134 L65.078,39.369 L65.364,39.636 L65.046,39.866 L65.328,40.137 L65.006,40.362 L65.283,40.638 L64.958,40.857 L65.230,41.138 L64.901,41.352 L65.168,41.637 L64.835,41.845 L65.097,42.135 L64.761,42.337 L65.018,42.631 L64.679,42.828 L64.931,43.126 L64.588,43.317 L64.835,43.620 L64.489,43.805 L64.730,44.112 L64.381,44.291 L64.618,44.602 L64.266,44.774 L64.497,45.089 L64.142,45.256 L64.367,45.575 L64.009,45.736 L64.229,46.059 L63.869,46.214 L64.083,46.540 L63.720,46.688 L63.929,47.018 L63.564,47.161 L63.767,47.494 L63.399,47.630 L63.597,47.967 L63.226,48.097 L63.418,48.437 L63.046,48.561 L63.232,48.904 L62.857,49.021 L63.037,49.368 L62.661,49.479 L62.835,49.828 L62.457,49.932 L62.625,50.285 L62.245,50.383 L62.407,50.738 L62.026,50.829 L62.182,51.188 L61.799,51.272 L61.949,51.633 L61.564,51.711 L61.708,52.074 L61.322,52.146 L61.460,52.512 L61.073,52.577 L61.205,52.945 L60.694,52.928 L61.064,53.448 L60.253,53.234 L60.971,53.988 L59.834,53.546 L60.843,54.513 M60.269,54.134 L59.444,53.871 L60.671,55.016 M59.986,54.547 L59.083,54.211 L60.456,55.494 M59.697,54.954 L58.751,54.568 L60.198,55.945 M59.400,55.357 L58.447,54.944 L59.898,56.366 M59.097,55.755 L58.164,55.336 L59.564,56.762 M58.786,56.147 L57.860,55.712 L59.238,57.163 M58.470,56.534 L57.531,56.067 L58.923,57.574 M58.146,56.916 L57.178,56.400 L58.620,57.996 M57.817,57.292 L56.781,56.691 L58.348,58.449 M57.481,57.663 L56.372,56.966 L58.075,58.906 M57.138,58.027 L55.962,57.234 L57.793,59.359 M56.790,58.386 L55.562,57.508 L57.486,59.794 M56.436,58.739 L55.336,57.958 L56.995,60.041 M56.075,59.086 L55.098,58.404 L56.504,60.280 M55.709,59.427 L54.849,58.845 L56.012,60.511 M55.338,59.762 L54.588,59.282 L55.521,60.734 L54.316,59.713 L55.030,60.950 L54.033,60.139 L54.539,61.158 L53.739,60.559 L54.049,61.359 L53.434,60.974 L53.559,61.552 L53.107,61.365 L53.082,61.755 L52.702,61.655 L52.671,62.045 L52.294,61.939 L52.256,62.328 L51.880,62.216 L51.836,62.604 L51.462,62.485 L51.411,62.873 L51.039,62.748 L50.982,63.134 L50.612,63.003 L50.548,63.389 L50.181,63.252 L50.110,63.636 L49.745,63.493 L49.668,63.876 L49.306,63.726 L49.223,64.108 L48.862,63.953 L48.773,64.333 L48.415,64.171 L48.320,64.550 L47.965,64.383 L47.863,64.759 L47.511,64.586 L47.402,64.961 L47.053,64.782 L46.938,65.155 L46.593,64.970 L46.472,65.342 L46.129,65.151 L46.002,65.520 L45.662,65.324 L45.529,65.691 L45.193,65.489 L45.053,65.853 L44.720,65.646 L44.575,66.008 L44.246,65.795 L44.094,66.155 L43.768,65.936 L43.611,66.293 L43.289,66.069 L43.125,66.424 L42.807,66.194 L42.638,66.546 L42.323,66.311 L42.148,66.660 L41.838,66.420 L41.657,66.766 L41.351,66.521 L41.164,66.864 L40.862,66.614 L40.669,66.954 L40.371,66.698 L40.173,67.035 L39.879,66.775 L39.675,67.108 L39.386,66.843 L39.177,67.172 L38.892,66.903 L38.677,67.229 L38.397,66.954 L38.177,67.277 L37.902,66.998 L37.676,67.317 L37.405,67.033 L37.174,67.348 L36.908,67.060 L36.672,67.371 L36.411,67.078 L36.170,67.385 L35.913,67.089 L35.667,67.392 L35.416,67.091 L35.164,67.390 L34.918,67.084 L34.662,67.379 L34.420,67.070 L34.159,67.360 L33.923,67.047 L33.657,67.333 L33.427,67.016 L33.156,67.298 L32.930,66.977 L32.655,67.254 L32.435,66.930 L32.155,67.202 L31.940,66.874 L31.656,67.142 L31.447,66.810 L31.158,67.073 L30.954,66.738 L30.661,66.996 L30.463,66.658 L30.166,66.911 L29.973,66.569 L29.672,66.818 L29.485,66.473 L29.180,66.716 L28.999,66.368 L28.689,66.607 L28.514,66.256 L28.200,66.489 L28.031,66.135 L27.714,66.363 L27.550,66.007 L27.229,66.230 L27.072,65.871 L26.747,66.088 L26.595,65.726 L26.267,65.938 L26.121,65.574 L25.790,65.780 L25.650,65.414 L25.315,65.615 L25.181,65.246 L24.843,65.442 L24.716,65.071 L24.374,65.261 L24.253,64.888 L23.908,65.072 L23.793,64.697 L23.446,64.876 L23.337,64.499 L22.986,64.671 L22.884,64.293 L22.530,64.460 L22.434,64.080 L22.078,64.241 L21.988,63.859 L21.629,64.014 L21.545,63.631 L21.184,63.781 L21.107,63.396 L20.743,63.540 L20.672,63.154 L20.306,63.291 L20.241,62.905 L19.873,63.036 L19.815,62.648 L19.445,62.773 L19.392,62.385 L19.020,62.504 L18.974,62.114 L18.601,62.227 L18.561,61.837 L18.185,61.944 L18.168,61.531 L17.759,61.676 L17.846,61.128 L17.271,61.491 L17.535,60.720 L16.783,61.299 L17.234,60.305 L16.294,61.100 M16.665,60.625 L16.944,59.885 L15.804,60.894 M16.277,60.311 L16.664,59.459 L15.314,60.680 M15.893,59.989 L16.395,59.028 L14.824,60.460 M15.515,59.662 L16.137,58.592 L14.334,60.231 M15.142,59.328 L15.890,58.152 L13.844,59.995 M14.775,58.989 L15.616,57.747 L13.392,59.712 M14.414,58.643 L15.214,57.476 L13.079,59.283 M14.058,58.292 L14.834,57.181 L12.756,58.867 M13.708,57.934 L14.477,56.861 L12.423,58.464 M13.364,57.572 L14.143,56.517 L12.077,58.073 M13.025,57.203 L13.833,56.151 L11.719,57.694 M12.693,56.829 L13.549,55.764 L11.348,57.325 M12.367,56.450 L13.291,55.357 L10.964,56.966 M12.047,56.065 L12.999,54.979 L10.626,56.567 M11.734,55.675 L12.466,54.789 L10.541,55.969 M11.427,55.280 L11.964,54.564 L10.439,55.398 L11.495,54.303 L10.316,54.851 L11.060,54.011 L10.173,54.327 L10.660,53.687 L10.009,53.826 L10.295,53.334 L9.823,53.344 L9.984,52.943 L9.596,52.891 L9.721,52.520 L9.335,52.462 L9.466,52.092 L9.081,52.028 L9.218,51.661 L8.833,51.591 L8.976,51.226 L8.593,51.149 L8.742,50.787 L8.360,50.704 L8.515,50.344 L8.135,50.255 L8.295,49.897 L7.916,49.802 L8.083,49.447 L7.705,49.346 L7.877,48.994 L7.502,48.886 L7.680,48.537 L7.306,48.424 L7.489,48.077 L7.117,47.958 L7.306,47.614 L6.936,47.489 L7.131,47.148 L6.763,47.017 L6.963,46.680 L6.597,46.542 L6.803,46.208 L6.440,46.065 L6.650,45.735 L6.289,45.586 L6.506,45.258 L6.147,45.104 L6.368,44.780 L6.012,44.619 L6.239,44.299 L5.886,44.133 L6.118,43.817 L5.767,43.645 L6.004,43.332 L5.656,43.154 L5.898,42.846 L5.553,42.662 L5.800,42.358 L5.458,42.169 L5.710,41.868 L5.371,41.674 L5.628,41.377 L5.292,41.177 L5.553,40.885 L5.221,40.680 L5.487,40.392 L5.158,40.181 L5.429,39.897 L5.103,39.682 L5.378,39.402 L5.056,39.181 L5.336,38.906 L5.018,38.680 L5.302,38.410 L4.987,38.178 L5.275,37.913 L4.964,37.676 L5.257,37.415 L4.950,37.174 L5.247,36.918 L4.943,36.671 L5.244,36.420 L4.945,36.169 L5.250,35.922 L4.955,35.666 L5.264,35.425 L4.973,35.164 L5.285,34.927 L4.999,34.662 L5.315,34.431 L5.033,34.161 L5.353,33.934 L5.075,33.660 L5.398,33.439 L5.125,33.160 L5.452,32.944 L5.183,32.661 L5.513,32.450 L5.249,32.162 L5.583,31.957 L5.323,31.665 L5.660,31.465 L5.405,31.169 L5.745,30.975 L5.495,30.675 L5.839,30.486 L5.593,30.182 L5.939,29.998 L5.699,29.691 L6.048,29.513 L5.812,29.201 L6.165,29.029 L5.934,28.714 L6.289,28.547 L6.063,28.228 L6.421,28.067 L6.200,27.744 L6.560,27.589 L6.345,27.263 L6.708,27.113 L6.498,26.784 L6.862,26.640 L6.658,26.308 L7.025,26.170 L6.825,25.834 L7.195,25.702 L7.001,25.363 L7.372,25.237 L7.183,24.895 L7.557,24.775 L7.374,24.430 L7.749,24.315 L7.571,23.967 L7.948,23.859 L7.776,23.509 L8.155,23.406 L7.988,23.053 L8.368,22.957 L8.208,22.601 L8.589,22.511 L8.434,22.152 L8.817,22.068 L8.668,21.708 L9.053,21.630 L8.909,21.266 L9.295,21.195 L9.157,20.829 L9.543,20.764 L9.412,20.396 L9.799,20.337 L9.673,19.967 L10.062,19.914 L9.942,19.542 L10.331,19.495 L10.217,19.122 L10.607,19.081 L10.499,18.705 L10.889,18.671 L10.787,18.294 L11.178,18.265 L11.082,17.887 L11.473,17.865 L11.383,17.485 L11.775,17.469 L11.691,17.087 L12.083,17.078 L12.005,16.695 L12.397,16.691 L12.325,16.308 L12.717,16.310 L12.651,15.925 L13.043,15.934 L12.984,15.548 L13.375,15.563 L13.322,15.177 L13.713,15.198 L13.666,14.810 L14.057,14.838 L14.016,14.449 L14.406,14.483 L14.371,14.094 L14.761,14.134 L14.732,13.745 L15.122,13.791 L15.099,13.401 L15.487,13.453 L15.471,13.063 L15.859,13.121 L15.848,12.731 L16.235,12.795 L16.231,12.405 L16.616,12.476 L16.618,12.085 L17.003,12.162 L17.011,11.771 L17.394,11.854 L17.408,11.464 L17.790,11.553 L17.810,11.163 L18.191,11.258 L18.217,10.868 L18.596,10.969 L18.629,10.580 L19.006,10.686 L19.045,10.298 L19.421,10.411 L19.466,10.023 L19.839,10.141 L19.891,9.754 L20.262,9.879 L20.319,9.492 L20.689,9.623 L20.753,9.237 L21.120,9.374 L21.190,8.989 L21.555,9.131 L21.630,8.748 L21.994,8.896 L22.075,8.514 L22.436,8.667 L22.523,8.287 L22.882,8.446 L22.975,8.066 L23.331,8.231 L23.430,7.853 L23.783,8.024 L23.889,7.648 L24.239,7.824 L24.350,7.449 L24.698,7.630 L24.815,7.258 L25.160,7.445 L25.283,7.074 L25.624,7.266 L25.753,6.897 L26.092,7.095 L26.226,6.728 L26.562,6.931 L26.702,6.567 L27.034,6.775 L27.180,6.412 L27.509,6.626 L27.661,6.266 L27.987,6.484 L28.144,6.126 L28.466,6.350 L28.629,5.995 L28.948,6.223 L29.116,5.871 L29.431,6.104 L29.605,5.755 L29.916,5.993 L30.095,5.646 L30.403,5.889 L30.588,5.545 L30.891,5.793 L31.082,5.452 L31.381,5.705 L31.577,5.367 L31.872,5.624 L32.073,5.289 L32.365,5.551 L32.571,5.219 L32.858,5.486 L33.069,5.157 L33.353,5.428 L33.569,5.103 L33.848,5.378 L34.069,5.056 L34.344,5.336 L34.570,5.017 L34.841,5.301 L35.072,4.987 L35.338,5.275 L35.574,4.964 L35.835,5.256 L36.076,4.948 L36.333,5.245 L36.579,4.941 L36.831,5.241 L37.081,4.942 L37.329,5.246 L37.584,4.950 L37.826,5.258 L38.086,4.966 L38.324,5.278 L38.588,4.990 L38.821,5.306 L39.089,5.022 L39.317,5.341 L39.590,5.062 L39.813,5.384 L40.091,5.109 L40.308,5.435 L40.590,5.164 L40.803,5.494 L41.089,5.227 L41.296,5.560 L41.586,5.298 L41.788,5.634 L42.082,5.377 L42.280,5.715 L42.577,5.463 L42.769,5.805 L43.071,5.557 L43.258,5.901 L43.563,5.658 L43.744,6.006 L44.054,5.767 L44.229,6.118 L44.542,5.884 L44.713,6.237 L45.029,6.008 L45.194,6.364 L45.514,6.140 L45.673,6.499 L45.997,6.280 L46.151,6.640 L46.478,6.427 L46.626,6.790 L46.956,6.581 L47.098,6.946 L47.431,6.743 L47.568,7.110 L47.905,6.912 L48.036,7.281 L48.375,7.088 L48.501,7.459 L48.843,7.272 L48.963,7.645 L49.308,7.462 L49.422,7.838 L49.770,7.660 L49.878,8.037 L50.228,7.866 L50.330,8.244 L50.684,8.078 L50.780,8.458 L51.136,8.297 L51.226,8.678 L51.585,8.523 L51.669,8.906 L52.030,8.756 L52.108,9.140 L52.471,8.996 L52.544,9.381 L52.909,9.243 L52.976,9.629 L53.343,9.496 L53.404,9.884 L53.773,9.756 L53.827,10.145 L54.199,10.023 L54.247,10.412 L54.620,10.296 L54.663,10.686 L55.038,10.576 L55.074,10.967 L55.451,10.862 L55.481,11.253 L55.859,11.155 L55.884,11.546 L56.263,11.454 L56.282,11.845 L56.663,11.758 L56.675,12.150 L57.057,12.070 L57.064,12.462 L57.447,12.387 L57.448,12.779 L57.832,12.710 L57.826,13.102 L58.212,13.039 L58.200,13.430 L58.587,13.373 L58.569,13.765 L58.956,13.714 L58.933,14.105 L59.320,14.060 L59.291,14.451 L59.679,14.411 L59.644,14.802 L60.033,14.769 L59.991,15.158 L60.381,15.131 L60.333,15.520 L60.723,15.499 L60.670,15.887 L61.060,15.872 L61.000,16.259 L61.391,16.250 L61.325,16.637 L61.716,16.633 L61.644,17.019 L62.035,17.021 L61.957,17.406 L62.348,17.414 L62.265,17.797 L62.655,17.812 L62.566,18.194 L62.956,18.214 L62.861,18.595 L63.251,18.621 L63.150,19.000 L63.539,19.033 L63.433,19.410 L63.821,19.448 L63.709,19.824 L64.097,19.868 L63.979,20.242 L64.366,20.293 L64.243,20.665 L64.629,20.721 L64.500,21.091 L64.885,21.153 L64.750,21.521 L65.135,21.589 L64.994,21.955 L65.378,22.029 L65.232,22.393 L65.614,22.473 L65.462,22.834 L65.843,22.920 L65.686,23.279 L66.066,23.370 L65.903,23.727 L66.281,23.824 L66.113,24.178 L66.490,24.281 L66.316,24.633 L66.691,24.741 L66.513,25.090 L66.886,25.205 L66.702,25.551 L67.073,25.671 L66.884,26.014 L67.254,26.140 L67.059,26.480 L67.427,26.611 L67.227,26.949 L67.593,27.086 L67.388,27.420 L67.752,27.562 L67.542,27.893 L67.903,28.042 L67.688,28.369 L68.047,28.523 L67.827,28.847 L68.184,29.006 L67.959,29.327 L68.313,29.492 L68.084,29.809 L68.435,29.979 L68.201,30.293 L68.550,30.468 L68.311,30.779 L68.657,30.959 L68.413,31.266 L68.757,31.452 L68.508,31.755 L68.849,31.946 L68.596,32.245 L68.934,32.441 L68.676,32.736 L69.011,32.937 L68.749,33.229 L69.081,33.435 L68.814,33.722 L69.143,33.933 L68.872,34.217 L69.197,34.433 L68.922,34.712 L69.244,34.933 L68.965,35.208 L69.283,35.434 L69.000,35.705 L69.315,35.936 L69.028,36.202 L69.339,36.437 L69.048,36.699 L69.356,36.940 L69.060,37.197 L69.365,37.442 L69.065,37.695 L69.366,37.944 L69.063,38.193 L69.360,38.447 L69.053,38.691 L69.346,38.949 L69.035,39.188 L69.324,39.451 L69.010,39.685 L69.295,39.952 L68.978,40.182 L69.259,40.454 L68.938,40.679 L69.214,40.954 L68.890,41.174 L69.163,41.454 L68.835,41.669 L69.103,41.953 L68.772,42.163 L69.036,42.451 L68.702,42.656 L68.962,42.948 L68.625,43.148 L68.880,43.443 L68.540,43.638 L68.791,43.938 L68.448,44.127 L68.694,44.431 L68.348,44.615 L68.590,44.922 L68.242,45.102 L68.478,45.412 L68.127,45.586 L68.360,45.900 L68.006,46.069 L68.233,46.386 L67.877,46.550 L68.100,46.871 L67.741,47.029 L67.959,47.353 L67.598,47.506 L67.811,47.833 L67.447,47.980 L67.655,48.311 L67.290,48.453 L67.493,48.786 L67.125,48.923 L67.323,49.259 L66.954,49.390 L67.147,49.730 L66.775,49.855 L66.963,50.197 L66.590,50.317 L66.772,50.662 L66.397,50.776 L66.574,51.124 L66.198,51.232 L66.370,51.583 L65.991,51.685 L66.158,52.038 L65.778,52.135 L65.940,52.491 L65.559,52.582 L65.715,52.940 L65.332,53.026 L65.483,53.386 L65.099,53.466 L65.245,53.828 L64.860,53.902 L65.000,54.267 L64.614,54.335 L64.748,54.702 L64.361,54.764 L64.490,55.133 L64.102,55.189 L64.226,55.560 L63.837,55.610 L63.955,55.983 L63.565,56.028 L63.677,56.402 L63.206,56.385 L63.476,56.873 L62.812,56.715 L63.296,57.362 L62.412,57.035 L63.110,57.853 L62.007,57.346 L62.918,58.344 M62.387,57.945 L61.596,57.648 L62.719,58.835 M62.081,58.340 L61.183,57.943 L62.510,59.324 M61.769,58.731 L60.861,58.307 L62.199,59.734 M61.451,59.117 L60.561,58.690 L61.854,60.116 M61.127,59.498 L60.284,59.093 L61.476,60.469 M60.797,59.875 L60.050,59.537 L61.042,60.769 L59.846,60.015 L60.568,61.027 L59.632,60.489 L60.093,61.277 L59.407,60.961 L59.618,61.521 L59.141,61.398 L59.173,61.787 L58.784,61.745 L58.810,62.134 L58.421,62.086 L58.442,62.476 L58.053,62.422 L58.068,62.812 L57.681,62.752 L57.690,63.142 L57.303,63.076 L57.306,63.467 L56.921,63.395 L56.918,63.786 L56.534,63.709 L56.525,64.099 L56.142,64.016 L56.128,64.406 L55.746,64.318 L55.726,64.708 L55.345,64.613 L55.319,65.003 L54.940,64.903 L54.909,65.292 L54.531,65.187 L54.494,65.575 L54.118,65.464 L54.074,65.852 L53.700,65.735 L53.651,66.123 L53.279,66.001 L53.224,66.387 L52.853,66.259 L52.793,66.645 L52.424,66.512 L52.358,66.897 L51.991,66.758 L51.919,67.142 L51.555,66.998 L51.477,67.380 L51.115,67.231 L51.032,67.612 L50.672,67.457 L50.583,67.838 L50.225,67.677 L50.130,68.056 L49.775,67.891 L49.675,68.268 L49.322,68.097 L49.216,68.473 L48.866,68.297 L48.755,68.671 L48.407,68.490 L48.290,68.863 L47.945,68.677 L47.823,69.048 L47.481,68.856 L47.353,69.225 L47.014,69.029 L46.881,69.396 L46.544,69.194 L46.406,69.559 L46.072,69.353 L45.928,69.716 L45.598,69.505 L45.449,69.866 L45.122,69.649 L44.967,70.008 L44.643,69.787 L44.483,70.143 L44.163,69.918 L43.997,70.272 L43.680,70.041 L43.510,70.392 L43.196,70.157 L43.021,70.506 L42.710,70.267 L42.530,70.613 L42.223,70.369 L42.037,70.712 L41.734,70.463 L41.543,70.804 L41.244,70.551 L41.048,70.889 L40.753,70.631 L40.552,70.966 L40.260,70.704 L40.054,71.036 L39.766,70.770 L39.556,71.099 L39.272,70.829 L39.057,71.154 L38.777,70.880 L38.556,71.202 L38.281,70.924 L38.056,71.243 L37.784,70.960 L37.555,71.276 L37.287,70.990 L37.053,71.302 L36.790,71.012 L36.551,71.321 L36.292,71.026 L36.049,71.332 L35.794,71.034 L35.546,71.336 L35.296,71.034 L35.044,71.332 L34.798,71.027 L34.542,71.321 L34.301,71.012 L34.040,71.303 L33.803,70.990 L33.538,71.277 L33.306,70.961 L33.037,71.244 L32.809,70.925 L32.536,71.203 L32.313,70.881 L32.036,71.156 L31.818,70.830 L31.537,71.100 L31.324,70.771 L31.038,71.038 L30.830,70.706 L30.541,70.968 L30.337,70.633 L30.044,70.891 L29.846,70.553 L29.549,70.807 L29.356,70.466 L29.055,70.715 L28.867,70.372 L28.563,70.617 L28.379,70.270 L28.072,70.511 L27.893,70.162 L27.582,70.398 L27.409,70.046 L27.094,70.277 L26.926,69.923 L26.608,70.150 L26.446,69.793 L26.124,70.015 L25.967,69.656 L25.642,69.874 L25.490,69.513 L25.163,69.725 L25.016,69.362 L24.685,69.570 L24.543,69.204 L24.210,69.407 L24.073,69.040 L23.737,69.238 L23.606,68.868 L23.266,69.061 L23.141,68.690 L22.799,68.878 L22.679,68.505 L22.334,68.688 L22.219,68.313 L21.871,68.491 L21.762,68.115 L21.412,68.288 L21.309,67.910 L20.956,68.078 L20.858,67.698 L20.503,67.861 L20.410,67.480 L20.053,67.638 L19.966,67.255 L19.606,67.408 L19.525,67.024 L19.163,67.171 L19.087,66.787 L18.723,66.928 L18.653,66.543 L18.287,66.679 L18.222,66.293 L17.855,66.424 L17.796,66.036 L17.426,66.162 L17.373,65.774 L17.001,65.894 L16.953,65.505 L16.580,65.620 L16.538,65.230 L16.163,65.340 L16.127,64.949 L15.750,65.053 L15.720,64.663 L15.342,64.761 L15.317,64.370 L14.938,64.463 L14.918,64.072 L14.538,64.159 L14.524,63.767 L14.142,63.849 L14.134,63.457 L13.751,63.534 L13.749,63.142 L13.365,63.213 L13.368,62.821 L12.983,62.886 L12.992,62.494 L12.606,62.554 L12.621,62.162 L12.235,62.216 L12.255,61.825 L11.867,61.873 L11.947,61.426 L11.452,61.581 L11.682,60.989 L11.004,61.318 L11.396,60.575 L10.586,61.020 L11.090,60.185 L10.200,60.688 L10.762,59.817 L9.846,60.324 L10.411,59.470 L9.525,59.930 L10.036,59.143 L9.240,59.506 L9.636,58.834 L8.989,59.055 L9.210,58.543 L8.777,58.576 L8.875,58.174 L8.485,58.166 L8.567,57.783 L8.177,57.769 L8.264,57.387 L7.874,57.368 L7.968,56.987 L7.578,56.963 L7.677,56.583 L7.287,56.553 L7.392,56.175 L7.003,56.139 L7.113,55.763 L6.724,55.721 L6.839,55.346 L6.452,55.299 L6.572,54.926 L6.185,54.873 L6.311,54.502 L5.925,54.443 L6.056,54.074 L5.671,54.010 L5.808,53.643 L5.423,53.573 L5.565,53.208 L5.182,53.133 L5.329,52.769 L4.947,52.689 L5.099,52.328 L4.718,52.241 L4.876,51.883 L4.496,51.791 L4.659,51.434 L4.280,51.337 L4.448,50.983 L4.071,50.881 L4.244,50.529 L3.869,50.421 L4.047,50.072 L3.673,49.958 L3.856,49.612 L3.484,49.493 L3.672,49.149 L3.301,49.025 L3.494,48.684 L3.126,48.555 L3.323,48.216 L2.957,48.082 L3.159,47.746 L2.794,47.606 L3.002,47.273 L2.639,47.128 L2.851,46.799 L2.491,46.649 L2.707,46.322 L2.349,46.167 L2.571,45.843 L2.215,45.683 L2.441,45.363 L2.087,45.197 L2.318,44.880 L1.966,44.709 L2.202,44.396 L1.853,44.220 L2.092,43.910 L1.746,43.729 L1.990,43.422 L1.647,43.237 L1.895,42.934 L1.554,42.743 L1.807,42.444 L1.469,42.248 L1.726,41.952 L1.390,41.752 L1.652,41.460 L1.319,41.255 L1.584,40.966 L1.255,40.757 L1.525,40.472 L1.198,40.258 L1.472,39.977 L1.148,39.758 L1.426,39.481 L1.106,39.257 L1.387,38.985 L1.070,38.756 L1.355,38.488 L1.042,38.255 L1.331,37.990 L1.021,37.753 L1.314,37.492 L1.007,37.251 L1.303,36.995 L1.000,36.749 L1.300,36.497 L1.000,36.246 L1.304,35.999 L1.008,35.744 L1.315,35.501 L1.023,35.242 L1.333,35.003 L1.045,34.740 L1.359,34.506 L1.074,34.239 L1.391,34.009 L1.110,33.738 L1.430,33.512 L1.153,33.237 L1.477,33.017 L1.204,32.738 L1.531,32.522 L1.261,32.239 L1.591,32.027 L1.326,31.741 L1.659,31.534 L1.398,31.243 L1.734,31.041 L1.477,30.747 L1.815,30.550 L1.562,30.253 L1.904,30.060 L1.655,29.759 L2.000,29.571 L1.755,29.267 L2.102,29.084 L1.862,28.776 L2.212,28.598 L1.976,28.287 L2.328,28.114 L2.097,27.799 L2.451,27.632 L2.225,27.314 L2.582,27.151 L2.360,26.830 L2.718,26.672 L2.501,26.348 L2.862,26.195 L2.649,25.868 L3.013,25.721 L2.805,25.390 L3.170,25.248 L2.967,24.915 L3.334,24.778 L3.135,24.442 L3.504,24.310 L3.311,23.971 L3.682,23.845 L3.493,23.503 L3.865,23.382 L3.681,23.037 L4.056,22.922 L3.877,22.575 L4.253,22.464 L4.078,22.115 L4.456,22.010 L4.287,21.658 L4.666,21.558 L4.501,21.204 L4.882,21.109 L4.722,20.753 L5.104,20.664 L4.950,20.305 L5.333,20.221 L5.184,19.860 L5.568,19.782 L5.424,19.419 L5.809,19.346 L5.670,18.981 L6.056,18.914 L5.923,18.547 L6.310,18.486 L6.181,18.117 L6.569,18.060 L6.446,17.690 L6.835,17.639 L6.717,17.267 L7.106,17.221 L6.993,16.848 L7.383,16.808 L7.276,16.432 L7.666,16.398 L7.564,16.021 L7.955,15.992 L7.858,15.614 L8.249,15.591 L8.158,15.211 L8.550,15.193 L8.464,14.812 L8.855,14.800 L8.775,14.418 L9.167,14.411 L9.091,14.028 L9.483,14.027 L9.414,13.643 L9.805,13.647 L9.741,13.262 L10.133,13.272 L10.074,12.886 L10.465,12.901 L10.412,12.515 L10.803,12.536 L10.755,12.148 L11.146,12.174 L11.104,11.786 L11.494,11.818 L11.457,11.429 L11.847,11.467 L11.816,11.078 L12.205,11.121 L12.179,10.731 L12.568,10.779 L12.547,10.389 L12.936,10.443 L12.920,10.053 L13.308,10.113 L13.298,9.722 L13.685,9.787 L13.681,9.396 L14.066,9.467 L14.067,9.076 L14.452,9.152 L14.459,8.761 L14.842,8.842 L14.854,8.452 L15.237,8.539 L15.255,8.148 L15.635,8.240 L15.659,7.850 L16.038,7.948 L16.067,7.558 L16.445,7.661 L16.480,7.272 L16.856,7.379 L16.896,6.991 L17.271,7.104 L17.316,6.716 L17.690,6.834 L17.741,6.447 L18.113,6.571 L18.168,6.184 L18.539,6.313 L18.600,5.927 L18.968,6.061 L19.035,5.676 L19.402,5.815 L19.474,5.431 L19.838,5.576 L19.916,5.193 L20.278,5.342 L20.361,4.961 L20.721,5.115 L20.809,4.734 L21.167,4.894 L21.261,4.515 L21.617,4.679 L21.716,4.301 L22.069,4.471 L22.173,4.094 L22.524,4.268 L22.634,3.893 L22.982,4.073 L23.097,3.699 L23.443,3.883 L23.563,3.512 L23.906,3.700 L24.031,3.330 L24.372,3.524 L24.502,3.156 L24.840,3.354 L24.975,2.988 L25.310,3.191 L25.451,2.827 L25.783,3.034 L25.929,2.672 L26.258,2.884 L26.409,2.524 L26.735,2.741 L26.890,2.382 L27.214,2.604 L27.374,2.248 L27.695,2.474 L27.860,2.120 L28.177,2.351 L28.347,1.999 L28.661,2.234 L28.837,1.885 L29.147,2.124 L29.327,1.778 L29.634,2.021 L29.819,1.677 L30.123,1.925 L30.313,1.583 L30.613,1.835 L30.807,1.497 L31.104,1.753 L31.303,1.417 L31.596,1.677 L31.800,1.344 L32.089,1.608 L32.298,1.278 L32.584,1.546 L32.797,1.219 L33.079,1.491 L33.296,1.167 L33.574,1.443 L33.796,1.121 L34.071,1.401 L34.297,1.083 L34.567,1.367 L34.798,1.052 L35.065,1.339 L35.300,1.028 L35.562,1.319 L35.802,1.010 L36.060,1.305 L36.304,1.000 L36.060,1.305 L36.304,1.000 L36.060,1.305 L36.304,1.000"/>
</svg>
