<svg xmlns="http://www.w3.org/2000/svg" viewBox="0 -4.982 68.833 68.833" width="256" height="256">
  <title>triangle-spiral</title>
  <rect x="0" y="-4.982" width="68.833" height="68.833" fill="#f5efe4"/>
  <path fill="none" stroke="#c8472f" stroke-width="0.4" stroke-linecap="round" stroke-linejoin="round" d="M34.250,38.672 L34.600,38.066 L34.250,38.672 L34.600,38.066 L34.250,38.672 L34.625,38.023 L35.000,37.373 L35.444,38.143 L35.889,38.913 L36.333,39.682 L35.056,39.682 L33.778,39.682 L32.500,39.682 L33.125,38.600 L33.750,37.517 L34.375,36.435 L35.000,35.352 L35.617,36.420 L36.233,37.489 L36.850,38.557 L37.467,39.625 L38.083,40.693 L36.861,40.693 L35.639,40.693 L34.417,40.693 L33.194,40.693 L31.972,40.693 L30.750,40.693 L31.357,39.641 L31.964,38.590 L32.571,37.538 L33.179,36.486 L33.786,35.435 L34.393,34.383 L35.000,33.332 L35.604,34.378 L36.208,35.425 L36.813,36.471 L37.417,37.517 L38.021,38.564 L38.625,39.610 L39.229,40.657 L39.833,41.703 L38.630,41.703 L37.426,41.703 L36.222,41.703 L35.019,41.703 L33.815,41.703 L32.611,41.703 L31.407,41.703 L30.204,41.703 L29.000,41.703 L29.600,40.664 L30.200,39.625 L30.800,38.586 L31.400,37.546 L32.000,36.507 L32.600,35.468 L33.200,34.429 L33.800,33.389 L34.400,32.350 L35.000,31.311 L35.598,32.347 L36.197,33.384 L36.795,34.421 L37.394,35.457 L37.992,36.494 L38.591,37.531 L39.189,38.567 L39.788,39.604 L40.386,40.640 L40.985,41.677 L41.583,42.714 L40.389,42.714 L39.194,42.714 L38.000,42.714 L36.806,42.714 L35.611,42.714 L34.417,42.714 L33.222,42.714 L32.028,42.714 L30.833,42.714 L29.639,42.714 L28.444,42.714 L27.250,42.714 L27.896,41.595 L28.542,40.476 L29.188,39.358 L29.833,38.239 L30.479,37.120 L31.125,36.002 L31.771,34.883 L32.417,33.765 L33.063,32.646 L33.708,31.527 L34.354,30.409 L35.000,29.290 L35.641,30.400 L36.282,31.511 L36.923,32.621 L37.564,33.731 L38.205,34.842 L38.846,35.952 L39.487,37.062 L40.128,38.172 L40.769,39.283 L41.410,40.393 L42.051,41.503 L42.692,42.614 L43.333,43.724 L42.060,43.724 L40.786,43.724 L39.512,43.724 L38.238,43.724 L36.964,43.724 L35.690,43.724 L34.417,43.724 L33.143,43.724 L31.869,43.724 L30.595,43.724 L29.321,43.724 L28.048,43.724 L26.774,43.724 L25.500,43.724 L26.133,42.627 L26.767,41.530 L27.400,40.433 L28.033,39.336 L28.667,38.239 L29.300,37.142 L29.933,36.045 L30.567,34.948 L31.200,33.851 L31.833,32.754 L32.467,31.657 L33.100,30.560 L33.733,29.463 L34.367,28.366 L35.000,27.269 L35.630,28.361 L36.260,29.453 L36.891,30.544 L37.521,31.636 L38.151,32.727 L38.781,33.819 L39.411,34.910 L40.042,36.002 L40.672,37.093 L41.302,38.185 L41.932,39.277 L42.563,40.368 L43.193,41.460 L43.823,42.551 L44.453,43.643 L45.083,44.734 L43.828,44.734 L42.574,44.734 L41.319,44.734 L40.064,44.734 L38.809,44.734 L37.554,44.734 L36.299,44.734 L35.044,44.734 L33.789,44.734 L32.534,44.734 L31.279,44.734 L30.025,44.734 L28.770,44.734 L27.515,44.734 L26.260,44.734 L25.005,44.734 L23.750,44.734 L24.375,43.652 L25.000,42.569 L25.625,41.487 L26.250,40.404 L26.875,39.322 L27.500,38.239 L28.125,37.157 L28.750,36.074 L29.375,34.991 L30.000,33.909 L30.625,32.826 L31.250,31.744 L31.875,30.661 L32.500,29.579 L33.125,28.496 L33.750,27.414 L34.375,26.331 L35.000,25.249 L35.623,26.327 L36.246,27.406 L36.868,28.485 L37.491,29.564 L38.114,30.642 L38.737,31.721 L39.360,32.800 L39.982,33.879 L40.605,34.957 L41.228,36.036 L41.851,37.115 L42.474,38.194 L43.096,39.272 L43.719,40.351 L44.342,41.430 L44.965,42.508 L45.588,43.587 L46.211,44.666 L46.833,45.745 L45.592,45.745 L44.350,45.745 L43.108,45.745 L41.867,45.745 L40.625,45.745 L39.383,45.745 L38.142,45.745 L36.900,45.745 L35.658,45.745 L34.417,45.745 L33.175,45.745 L31.933,45.745 L30.692,45.745 L29.450,45.745 L28.208,45.745 L26.967,45.745 L25.725,45.745 L24.483,45.745 L23.242,45.745 L22.000,45.745 L22.619,44.672 L23.238,43.600 L23.857,42.528 L24.476,41.456 L25.095,40.384 L25.714,39.311 L26.333,38.239 L26.952,37.167 L27.571,36.095 L28.190,35.022 L28.810,33.950 L29.429,32.878 L30.048,31.806 L30.667,30.734 L31.286,29.661 L31.905,28.589 L32.524,27.517 L33.143,26.445 L33.762,25.372 L34.381,24.300 L35.000,23.228 L35.647,24.348 L36.294,25.469 L36.940,26.589 L37.587,27.709 L38.234,28.830 L38.881,29.950 L39.528,31.070 L40.175,32.191 L40.821,33.311 L41.468,34.431 L42.115,35.552 L42.762,36.672 L43.409,37.792 L44.056,38.913 L44.702,40.033 L45.349,41.153 L45.996,42.274 L46.643,43.394 L47.290,44.514 L47.937,45.635 L48.583,46.755 L47.295,46.755 L46.008,46.755 L44.720,46.755 L43.432,46.755 L42.144,46.755 L40.856,46.755 L39.568,46.755 L38.280,46.755 L36.992,46.755 L35.705,46.755 L34.417,46.755 L33.129,46.755 L31.841,46.755 L30.553,46.755 L29.265,46.755 L27.977,46.755 L26.689,46.755 L25.402,46.755 L24.114,46.755 L22.826,46.755 L21.538,46.755 L20.250,46.755 L20.891,45.644 L21.533,44.533 L22.174,43.423 L22.815,42.312 L23.457,41.201 L24.098,40.090 L24.739,38.980 L25.380,37.869 L26.022,36.758 L26.663,35.647 L27.304,34.537 L27.946,33.426 L28.587,32.315 L29.228,31.204 L29.870,30.093 L30.511,28.983 L31.152,27.872 L31.793,26.761 L32.435,25.650 L33.076,24.540 L33.717,23.429 L34.359,22.318 L35.000,21.207 L35.639,22.314 L36.278,23.420 L36.917,24.527 L37.556,25.634 L38.194,26.740 L38.833,27.847 L39.472,28.953 L40.111,30.060 L40.750,31.167 L41.389,32.273 L42.028,33.380 L42.667,34.486 L43.306,35.593 L43.944,36.699 L44.583,37.806 L45.222,38.913 L45.861,40.019 L46.500,41.126 L47.139,42.232 L47.778,43.339 L48.417,44.446 L49.056,45.552 L49.694,46.659 L50.333,47.765 L49.060,47.765 L47.787,47.765 L46.513,47.765 L45.240,47.765 L43.967,47.765 L42.693,47.765 L41.420,47.765 L40.147,47.765 L38.873,47.765 L37.600,47.765 L36.327,47.765 L35.053,47.765 L33.780,47.765 L32.507,47.765 L31.233,47.765 L29.960,47.765 L28.687,47.765 L27.413,47.765 L26.140,47.765 L24.867,47.765 L23.593,47.765 L22.320,47.765 L21.047,47.765 L19.773,47.765 L18.500,47.765 L19.135,46.666 L19.769,45.567 L20.404,44.468 L21.038,43.369 L21.673,42.269 L22.308,41.170 L22.942,40.071 L23.577,38.972 L24.212,37.873 L24.846,36.774 L25.481,35.674 L26.115,34.575 L26.750,33.476 L27.385,32.377 L28.019,31.278 L28.654,30.178 L29.288,29.079 L29.923,27.980 L30.558,26.881 L31.192,25.782 L31.827,24.682 L32.462,23.583 L33.096,22.484 L33.731,21.385 L34.365,20.286 L35.000,19.187 L35.633,20.282 L36.265,21.378 L36.898,22.474 L37.531,23.570 L38.164,24.666 L38.796,25.762 L39.429,26.858 L40.062,27.954 L40.694,29.050 L41.327,30.145 L41.960,31.241 L42.593,32.337 L43.225,33.433 L43.858,34.529 L44.491,35.625 L45.123,36.721 L45.756,37.817 L46.389,38.913 L47.022,40.009 L47.654,41.104 L48.287,42.200 L48.920,43.296 L49.552,44.392 L50.185,45.488 L50.818,46.584 L51.451,47.680 L52.083,48.776 L50.821,48.776 L49.560,48.776 L48.298,48.776 L47.036,48.776 L45.774,48.776 L44.512,48.776 L43.250,48.776 L41.988,48.776 L40.726,48.776 L39.464,48.776 L38.202,48.776 L36.940,48.776 L35.679,48.776 L34.417,48.776 L33.155,48.776 L31.893,48.776 L30.631,48.776 L29.369,48.776 L28.107,48.776 L26.845,48.776 L25.583,48.776 L24.321,48.776 L23.060,48.776 L21.798,48.776 L20.536,48.776 L19.274,48.776 L18.012,48.776 L16.750,48.776 L17.379,47.686 L18.009,46.596 L18.638,45.506 L19.267,44.416 L19.897,43.326 L20.526,42.236 L21.155,41.146 L21.784,40.056 L22.414,38.966 L23.043,37.876 L23.672,36.786 L24.302,35.696 L24.931,34.606 L25.560,33.516 L26.190,32.426 L26.819,31.336 L27.448,30.246 L28.078,29.156 L28.707,28.066 L29.336,26.976 L29.966,25.886 L30.595,24.796 L31.224,23.706 L31.853,22.616 L32.483,21.526 L33.112,20.436 L33.741,19.346 L34.371,18.256 L35.000,17.166 L35.649,18.291 L36.299,19.415 L36.948,20.540 L37.598,21.665 L38.247,22.790 L38.897,23.915 L39.546,25.040 L40.195,26.165 L40.845,27.289 L41.494,28.414 L42.144,29.539 L42.793,30.664 L43.443,31.789 L44.092,32.914 L44.741,34.038 L45.391,35.163 L46.040,36.288 L46.690,37.413 L47.339,38.538 L47.989,39.663 L48.638,40.787 L49.287,41.912 L49.937,43.037 L50.586,44.162 L51.236,45.287 L51.885,46.412 L52.534,47.536 L53.184,48.661 L53.833,49.786 L52.539,49.786 L51.244,49.786 L49.950,49.786 L48.656,49.786 L47.361,49.786 L46.067,49.786 L44.772,49.786 L43.478,49.786 L42.183,49.786 L40.889,49.786 L39.594,49.786 L38.300,49.786 L37.006,49.786 L35.711,49.786 L34.417,49.786 L33.122,49.786 L31.828,49.786 L30.533,49.786 L29.239,49.786 L27.944,49.786 L26.650,49.786 L25.356,49.786 L24.061,49.786 L22.767,49.786 L21.472,49.786 L20.178,49.786 L18.883,49.786 L17.589,49.786 L16.294,49.786 L15.000,49.786 L15.645,48.669 L16.290,47.551 L16.935,46.434 L17.581,45.316 L18.226,44.199 L18.871,43.081 L19.516,41.964 L20.161,40.846 L20.806,39.729 L21.452,38.612 L22.097,37.494 L22.742,36.377 L23.387,35.259 L24.032,34.142 L24.677,33.024 L25.323,31.907 L25.968,30.789 L26.613,29.672 L27.258,28.555 L27.903,27.437 L28.548,26.320 L29.194,25.202 L29.839,24.085 L30.484,22.967 L31.129,21.850 L31.774,20.732 L32.419,19.615 L33.065,18.497 L33.710,17.380 L34.355,16.263 L35.000,15.145 L35.643,16.259 L36.286,17.373 L36.930,18.487 L37.573,19.602 L38.216,20.716 L38.859,21.830 L39.503,22.944 L40.146,24.058 L40.789,25.172 L41.432,26.286 L42.076,27.400 L42.719,28.514 L43.362,29.628 L44.005,30.743 L44.648,31.857 L45.292,32.971 L45.935,34.085 L46.578,35.199 L47.221,36.313 L47.865,37.427 L48.508,38.541 L49.151,39.655 L49.794,40.770 L50.438,41.884 L51.081,42.998 L51.724,44.112 L52.367,45.226 L53.010,46.340 L53.654,47.454 L54.297,48.568 L54.940,49.682 L55.583,50.796 L54.301,50.796 L53.018,50.796 L51.735,50.796 L50.452,50.796 L49.169,50.796 L47.886,50.796 L46.604,50.796 L45.321,50.796 L44.038,50.796 L42.755,50.796 L41.472,50.796 L40.189,50.796 L38.907,50.796 L37.624,50.796 L36.341,50.796 L35.058,50.796 L33.775,50.796 L32.492,50.796 L31.210,50.796 L29.927,50.796 L28.644,50.796 L27.361,50.796 L26.078,50.796 L24.795,50.796 L23.513,50.796 L22.230,50.796 L20.947,50.796 L19.664,50.796 L18.381,50.796 L17.098,50.796 L15.816,50.796 L14.533,50.796 L13.250,50.796 L13.890,49.688 L14.529,48.580 L15.169,47.472 L15.809,46.364 L16.449,45.256 L17.088,44.148 L17.728,43.040 L18.368,41.932 L19.007,40.824 L19.647,39.716 L20.287,38.608 L20.926,37.500 L21.566,36.392 L22.206,35.284 L22.846,34.176 L23.485,33.068 L24.125,31.960 L24.765,30.852 L25.404,29.744 L26.044,28.636 L26.684,27.528 L27.324,26.420 L27.963,25.312 L28.603,24.204 L29.243,23.096 L29.882,21.988 L30.522,20.880 L31.162,19.772 L31.801,18.664 L32.441,17.556 L33.081,16.448 L33.721,15.340 L34.360,14.232 L35.000,13.124 L35.638,14.230 L36.276,15.335 L36.914,16.440 L37.552,17.545 L38.190,18.650 L38.829,19.756 L39.467,20.861 L40.105,21.966 L40.743,23.071 L41.381,24.176 L42.019,25.282 L42.657,26.387 L43.295,27.492 L43.933,28.597 L44.571,29.703 L45.210,30.808 L45.848,31.913 L46.486,33.018 L47.124,34.123 L47.762,35.229 L48.400,36.334 L49.038,37.439 L49.676,38.544 L50.314,39.649 L50.952,40.755 L51.590,41.860 L52.229,42.965 L52.867,44.070 L53.505,45.176 L54.143,46.281 L54.781,47.386 L55.419,48.491 L56.057,49.596 L56.695,50.702 L57.333,51.807 L56.060,51.807 L54.787,51.807 L53.514,51.807 L52.241,51.807 L50.968,51.807 L49.694,51.807 L48.421,51.807 L47.148,51.807 L45.875,51.807 L44.602,51.807 L43.329,51.807 L42.056,51.807 L40.782,51.807 L39.509,51.807 L38.236,51.807 L36.963,51.807 L35.690,51.807 L34.417,51.807 L33.144,51.807 L31.870,51.807 L30.597,51.807 L29.324,51.807 L28.051,51.807 L26.778,51.807 L25.505,51.807 L24.231,51.807 L22.958,51.807 L21.685,51.807 L20.412,51.807 L19.139,51.807 L17.866,51.807 L16.593,51.807 L15.319,51.807 L14.046,51.807 L12.773,51.807 L11.500,51.807 L12.135,50.707 L12.770,49.607 L13.405,48.507 L14.041,47.406 L14.676,46.306 L15.311,45.206 L15.946,44.106 L16.581,43.006 L17.216,41.906 L17.851,40.806 L18.486,39.706 L19.122,38.606 L19.757,37.506 L20.392,36.406 L21.027,35.306 L21.662,34.205 L22.297,33.105 L22.932,32.005 L23.568,30.905 L24.203,29.805 L24.838,28.705 L25.473,27.605 L26.108,26.505 L26.743,25.405 L27.378,24.305 L28.014,23.205 L28.649,22.104 L29.284,21.004 L29.919,19.904 L30.554,18.804 L31.189,17.704 L31.824,16.604 L32.459,15.504 L33.095,14.404 L33.730,13.304 L34.365,12.204 L35.000,11.104 L35.634,12.201 L36.268,13.299 L36.901,14.397 L37.535,15.495 L38.169,16.592 L38.803,17.690 L39.436,18.788 L40.070,19.885 L40.704,20.983 L41.338,22.081 L41.971,23.179 L42.605,24.276 L43.239,25.374 L43.873,26.472 L44.507,27.570 L45.140,28.667 L45.774,29.765 L46.408,30.863 L47.042,31.960 L47.675,33.058 L48.309,34.156 L48.943,35.254 L49.577,36.351 L50.211,37.449 L50.844,38.547 L51.478,39.644 L52.112,40.742 L52.746,41.840 L53.379,42.938 L54.013,44.035 L54.647,45.133 L55.281,46.231 L55.914,47.329 L56.548,48.426 L57.182,49.524 L57.816,50.622 L58.450,51.719 L59.083,52.817 L57.785,52.817 L56.487,52.817 L55.189,52.817 L53.890,52.817 L52.592,52.817 L51.294,52.817 L49.996,52.817 L48.697,52.817 L47.399,52.817 L46.101,52.817 L44.803,52.817 L43.504,52.817 L42.206,52.817 L40.908,52.817 L39.610,52.817 L38.311,52.817 L37.013,52.817 L35.715,52.817 L34.417,52.817 L33.118,52.817 L31.820,52.817 L30.522,52.817 L29.224,52.817 L27.925,52.817 L26.627,52.817 L25.329,52.817 L24.031,52.817 L22.732,52.817 L21.434,52.817 L20.136,52.817 L18.838,52.817 L17.539,52.817 L16.241,52.817 L14.943,52.817 L13.645,52.817 L12.346,52.817 L11.048,52.817 L9.750,52.817 L10.397,51.696 L11.045,50.574 L11.692,49.453 L12.340,48.332 L12.987,47.210 L13.635,46.089 L14.282,44.967 L14.929,43.846 L15.577,42.725 L16.224,41.603 L16.872,40.482 L17.519,39.360 L18.167,38.239 L18.814,37.118 L19.462,35.996 L20.109,34.875 L20.756,33.754 L21.404,32.632 L22.051,31.511 L22.699,30.389 L23.346,29.268 L23.994,28.147 L24.641,27.025 L25.288,25.904 L25.936,24.782 L26.583,23.661 L27.231,22.540 L27.878,21.418 L28.526,20.297 L29.173,19.175 L29.821,18.054 L30.468,16.933 L31.115,15.811 L31.763,14.690 L32.410,13.568 L33.058,12.447 L33.705,11.326 L34.353,10.204 L35.000,9.083 L35.646,10.202 L36.292,11.320 L36.938,12.439 L37.583,13.557 L38.229,14.676 L38.875,15.795 L39.521,16.913 L40.167,18.032 L40.813,19.150 L41.458,20.269 L42.104,21.388 L42.750,22.506 L43.396,23.625 L44.042,24.744 L44.688,25.862 L45.333,26.981 L45.979,28.099 L46.625,29.218 L47.271,30.337 L47.917,31.455 L48.563,32.574 L49.208,33.692 L49.854,34.811 L50.500,35.930 L51.146,37.048 L51.792,38.167 L52.438,39.286 L53.083,40.404 L53.729,41.523 L54.375,42.641 L55.021,43.760 L55.667,44.879 L56.313,45.997 L56.958,47.116 L57.604,48.234 L58.250,49.353 L58.896,50.472 L59.542,51.590 L60.188,52.709 L60.833,53.828 L59.545,53.828 L58.256,53.828 L56.967,53.828 L55.679,53.828 L54.390,53.828 L53.102,53.828 L51.813,53.828 L50.524,53.828 L49.236,53.828 L47.947,53.828 L46.659,53.828 L45.370,53.828 L44.081,53.828 L42.793,53.828 L41.504,53.828 L40.215,53.828 L38.927,53.828 L37.638,53.828 L36.350,53.828 L35.061,53.828 L33.772,53.828 L32.484,53.828 L31.195,53.828 L29.907,53.828 L28.618,53.828 L27.329,53.828 L26.041,53.828 L24.752,53.828 L23.463,53.828 L22.175,53.828 L20.886,53.828 L19.598,53.828 L18.309,53.828 L17.020,53.828 L15.732,53.828 L14.443,53.828 L13.154,53.828 L11.866,53.828 L10.577,53.828 L9.289,53.828 L8.000,53.828 L8.643,52.714 L9.286,51.601 L9.929,50.487 L10.571,49.374 L11.214,48.260 L11.857,47.147 L12.500,46.033 L13.143,44.920 L13.786,43.806 L14.429,42.693 L15.071,41.579 L15.714,40.466 L16.357,39.353 L17.000,38.239 L17.643,37.126 L18.286,36.012 L18.929,34.899 L19.571,33.785 L20.214,32.672 L20.857,31.558 L21.500,30.445 L22.143,29.331 L22.786,28.218 L23.429,27.104 L24.071,25.991 L24.714,24.878 L25.357,23.764 L26.000,22.651 L26.643,21.537 L27.286,20.424 L27.929,19.310 L28.571,18.197 L29.214,17.083 L29.857,15.970 L30.500,14.856 L31.143,13.743 L31.786,12.629 L32.429,11.516 L33.071,10.403 L33.714,9.289 L34.357,8.176 L35.000,7.062 L35.641,8.173 L36.283,9.284 L36.924,10.395 L37.566,11.506 L38.207,12.617 L38.849,13.729 L39.490,14.840 L40.132,15.951 L40.773,17.062 L41.415,18.173 L42.056,19.284 L42.698,20.395 L43.339,21.506 L43.981,22.617 L44.622,23.728 L45.264,24.839 L45.905,25.950 L46.547,27.061 L47.188,28.172 L47.829,29.283 L48.471,30.395 L49.112,31.506 L49.754,32.617 L50.395,33.728 L51.037,34.839 L51.678,35.950 L52.320,37.061 L52.961,38.172 L53.603,39.283 L54.244,40.394 L54.886,41.505 L55.527,42.616 L56.169,43.727 L56.810,44.838 L57.452,45.949 L58.093,47.060 L58.734,48.172 L59.376,49.283 L60.017,50.394 L60.659,51.505 L61.300,52.616 L61.942,53.727 L62.583,54.838 L61.303,54.838 L60.023,54.838 L58.742,54.838 L57.462,54.838 L56.182,54.838 L54.902,54.838 L53.621,54.838 L52.341,54.838 L51.061,54.838 L49.780,54.838 L48.500,54.838 L47.220,54.838 L45.939,54.838 L44.659,54.838 L43.379,54.838 L42.098,54.838 L40.818,54.838 L39.538,54.838 L38.258,54.838 L36.977,54.838 L35.697,54.838 L34.417,54.838 L33.136,54.838 L31.856,54.838 L30.576,54.838 L29.295,54.838 L28.015,54.838 L26.735,54.838 L25.455,54.838 L24.174,54.838 L22.894,54.838 L21.614,54.838 L20.333,54.838 L19.053,54.838 L17.773,54.838 L16.492,54.838 L15.212,54.838 L13.932,54.838 L12.652,54.838 L11.371,54.838 L10.091,54.838 L8.811,54.838 L7.530,54.838 L6.250,54.838 L6.889,53.731 L7.528,52.625 L8.167,51.518 L8.806,50.412 L9.444,49.305 L10.083,48.198 L10.722,47.092 L11.361,45.985 L12.000,44.879 L12.639,43.772 L13.278,42.665 L13.917,41.559 L14.556,40.452 L15.194,39.346 L15.833,38.239 L16.472,37.133 L17.111,36.026 L17.750,34.919 L18.389,33.813 L19.028,32.706 L19.667,31.600 L20.306,30.493 L20.944,29.386 L21.583,28.280 L22.222,27.173 L22.861,26.067 L23.500,24.960 L24.139,23.853 L24.778,22.747 L25.417,21.640 L26.056,20.534 L26.694,19.427 L27.333,18.321 L27.972,17.214 L28.611,16.107 L29.250,15.001 L29.889,13.894 L30.528,12.788 L31.167,11.681 L31.806,10.574 L32.444,9.468 L33.083,8.361 L33.722,7.255 L34.361,6.148 L35.000,5.041 L35.638,6.146 L36.275,7.250 L36.913,8.355 L37.551,9.459 L38.188,10.564 L38.826,11.668 L39.464,12.773 L40.101,13.877 L40.739,14.982 L41.377,16.086 L42.014,17.191 L42.652,18.295 L43.290,19.400 L43.928,20.504 L44.565,21.609 L45.203,22.713 L45.841,23.818 L46.478,24.922 L47.116,26.027 L47.754,27.131 L48.391,28.236 L49.029,29.340 L49.667,30.445 L50.304,31.549 L50.942,32.654 L51.580,33.758 L52.217,34.863 L52.855,35.967 L53.493,37.072 L54.130,38.176 L54.768,39.281 L55.406,40.385 L56.043,41.490 L56.681,42.594 L57.319,43.699 L57.957,44.803 L58.594,45.908 L59.232,47.012 L59.870,48.117 L60.507,49.221 L61.145,50.326 L61.783,51.430 L62.420,52.535 L63.058,53.639 L63.696,54.744 L64.333,55.848 L63.060,55.848 L61.787,55.848 L60.514,55.848 L59.241,55.848 L57.968,55.848 L56.695,55.848 L55.422,55.848 L54.149,55.848 L52.876,55.848 L51.603,55.848 L50.330,55.848 L49.057,55.848 L47.784,55.848 L46.511,55.848 L45.238,55.848 L43.965,55.848 L42.691,55.848 L41.418,55.848 L40.145,55.848 L38.872,55.848 L37.599,55.848 L36.326,55.848 L35.053,55.848 L33.780,55.848 L32.507,55.848 L31.234,55.848 L29.961,55.848 L28.688,55.848 L27.415,55.848 L26.142,55.848 L24.869,55.848 L23.596,55.848 L22.323,55.848 L21.050,55.848 L19.777,55.848 L18.504,55.848 L17.230,55.848 L15.957,55.848 L14.684,55.848 L13.411,55.848 L12.138,55.848 L10.865,55.848 L9.592,55.848 L8.319,55.848 L7.046,55.848 L5.773,55.848 L4.500,55.848 L5.149,54.724 L5.798,53.600 L6.447,52.476 L7.096,51.352 L7.745,50.228 L8.394,49.104 L9.043,47.980 L9.691,46.856 L10.340,45.732 L10.989,44.608 L11.638,43.484 L12.287,42.360 L12.936,41.236 L13.585,40.112 L14.234,38.988 L14.883,37.864 L15.532,36.740 L16.181,35.616 L16.830,34.492 L17.479,33.368 L18.128,32.244 L18.777,31.120 L19.426,29.996 L20.074,28.873 L20.723,27.749 L21.372,26.625 L22.021,25.501 L22.670,24.377 L23.319,23.253 L23.968,22.129 L24.617,21.005 L25.266,19.881 L25.915,18.757 L26.564,17.633 L27.213,16.509 L27.862,15.385 L28.511,14.261 L29.160,13.137 L29.809,12.013 L30.457,10.889 L31.106,9.765 L31.755,8.641 L32.404,7.517 L33.053,6.393 L33.702,5.269 L34.351,4.145 L35.000,3.021 L35.648,4.142 L36.295,5.264 L36.943,6.386 L37.590,7.507 L38.238,8.629 L38.885,9.750 L39.533,10.872 L40.181,11.994 L40.828,13.115 L41.476,14.237 L42.123,15.359 L42.771,16.480 L43.418,17.602 L44.066,18.723 L44.714,19.845 L45.361,20.967 L46.009,22.088 L46.656,23.210 L47.304,24.332 L47.951,25.453 L48.599,26.575 L49.247,27.696 L49.894,28.818 L50.542,29.940 L51.189,31.061 L51.837,32.183 L52.484,33.305 L53.132,34.426 L53.780,35.548 L54.427,36.669 L55.075,37.791 L55.722,38.913 L56.370,40.034 L57.017,41.156 L57.665,42.278 L58.313,43.399 L58.960,44.521 L59.608,45.642 L60.255,46.764 L60.903,47.886 L61.550,49.007 L62.198,50.129 L62.845,51.251 L63.493,52.372 L64.141,53.494 L64.788,54.615 L65.436,55.737 L66.083,56.859 L64.791,56.859 L63.498,56.859 L62.206,56.859 L60.913,56.859 L59.621,56.859 L58.328,56.859 L57.036,56.859 L55.743,56.859 L54.451,56.859 L53.158,56.859 L51.866,56.859 L50.573,56.859 L49.281,56.859 L47.988,56.859 L46.696,56.859 L45.403,56.859 L44.111,56.859 L42.818,56.859 L41.526,56.859 L40.233,56.859 L38.940,56.859 L37.648,56.859 L36.355,56.859 L35.063,56.859 L33.770,56.859 L32.478,56.859 L31.185,56.859 L29.893,56.859 L28.600,56.859 L27.308,56.859 L26.015,56.859 L24.723,56.859 L23.430,56.859 L22.138,56.859 L20.845,56.859 L19.553,56.859 L18.260,56.859 L16.968,56.859 L15.675,56.859 L14.383,56.859 L13.090,56.859 L11.798,56.859 L10.505,56.859 L9.213,56.859 L7.920,56.859 L6.628,56.859 L5.335,56.859 L4.043,56.859 L2.750,56.859 L3.395,55.741 L4.040,54.624 L4.685,53.507 L5.330,52.390 L5.975,51.273 L6.620,50.156 L7.265,49.038 L7.910,47.921 L8.555,46.804 L9.200,45.687 L9.845,44.570 L10.490,43.453 L11.135,42.335 L11.780,41.218 L12.425,40.101 L13.070,38.984 L13.715,37.867 L14.360,36.750 L15.005,35.632 L15.650,34.515 L16.295,33.398 L16.940,32.281 L17.585,31.164 L18.230,30.046 L18.875,28.929 L19.520,27.812 L20.165,26.695 L20.810,25.578 L21.455,24.461 L22.100,23.343 L22.745,22.226 L23.390,21.109 L24.035,19.992 L24.680,18.875 L25.325,17.758 L25.970,16.640 L26.615,15.523 L27.260,14.406 L27.905,13.289 L28.550,12.172 L29.195,11.055 L29.840,9.937 L30.485,8.820 L31.130,7.703 L31.775,6.586 L32.420,5.469 L33.065,4.352 L33.710,3.234 L34.355,2.117 L35.000,1.000 L35.644,2.115 L36.288,3.230 L36.931,4.345 L37.575,5.460 L38.219,6.575 L38.863,7.690 L39.507,8.806 L40.150,9.921 L40.794,11.036 L41.438,12.151 L42.082,13.266 L42.725,14.381 L43.369,15.496 L44.013,16.611 L44.657,17.726 L45.301,18.841 L45.944,19.956 L46.588,21.071 L47.232,22.186 L47.876,23.302 L48.520,24.417 L49.163,25.532 L49.807,26.647 L50.451,27.762 L51.095,28.877 L51.739,29.992 L52.382,31.107 L53.026,32.222 L53.670,33.337 L54.314,34.452 L54.958,35.567 L55.601,36.683 L56.245,37.798 L56.889,38.913 L57.533,40.028 L58.176,41.143 L58.820,42.258 L59.464,43.373 L60.108,44.488 L60.752,45.603 L61.395,46.718 L62.039,47.833 L62.683,48.948 L63.327,50.063 L63.971,51.179 L64.614,52.294 L65.258,53.409 L65.902,54.524 L66.546,55.639 L67.190,56.754 L67.833,57.869 L66.548,57.869 L65.263,57.869 L63.978,57.869 L62.692,57.869 L61.407,57.869 L60.122,57.869 L58.837,57.869 L57.551,57.869 L56.266,57.869 L54.981,57.869 L53.696,57.869 L52.410,57.869 L51.125,57.869 L49.840,57.869 L48.554,57.869 L47.269,57.869 L45.984,57.869 L44.699,57.869 L43.413,57.869 L42.128,57.869 L40.843,57.869 L39.558,57.869 L38.272,57.869 L36.987,57.869 L35.702,57.869 L34.417,57.869 L33.131,57.869 L31.846,57.869 L30.561,57.869 L29.276,57.869 L27.990,57.869 L26.705,57.869 L25.420,57.869 L24.135,57.869 L22.849,57.869 L21.564,57.869 L20.279,57.869 L18.994,57.869 L17.708,57.869 L16.423,57.869 L15.138,57.869 L13.853,57.869 L12.567,57.869 L11.282,57.869 L9.997,57.869 L8.712,57.869 L7.426,57.869 L6.141,57.869 L4.856,57.869 L3.571,57.869 L2.285,57.869 L1.000,57.869 L1.700,57.869 L1.000,57.869 L1.700,57.869 L1.000,57.869"/>
</svg>
