<svg xmlns="http://www.w3.org/2000/svg" viewBox="0 -8.32 74.12 74.12" width="256" height="256">
  <title>truchet-window</title>
  <rect x="0" y="-8.32" width="74.12" height="74.12" fill="#f5efe4"/>
  <path fill="none" stroke="#8c4a6b" stroke-width="0.4" stroke-linecap="round" stroke-linejoin="round" d="M10.060,51.240 L10.060,51.240 L8.895,51.393 M3.881,50.199 L4.242,49.922 M5.560,37.740 L5.713,38.905 M10.060,33.240 L8.895,33.393 M3.060,32.741 L3.310,32.637 M5.560,19.740 L5.713,20.905 M10.060,15.240 L8.895,15.393 M3.060,14.741 L3.310,14.637 M6.384,4.278 L6.878,4.922 M14.560,46.740 L14.713,47.905 M19.060,42.240 L17.895,42.393 M10.060,42.240 L11.225,42.087 M14.560,28.740 L14.713,29.905 M19.060,24.240 L17.895,24.393 M10.060,24.240 L11.225,24.087 M14.560,10.740 L14.713,11.905 M19.060,6.240 L17.895,6.393 M10.060,6.240 L11.225,6.087 M28.060,51.240 L26.895,51.393 M19.060,51.240 L20.225,51.087 M23.560,37.740 L23.713,38.905 M28.060,33.240 L26.895,33.393 M19.060,33.240 L20.225,33.087 M23.560,19.740 L23.713,20.905 M28.060,15.240 L26.895,15.393 M19.060,15.240 L20.225,15.087 M32.560,46.740 L32.713,47.905 M37.060,42.240 L35.895,42.393 M28.060,42.240 L29.225,42.087 M32.560,28.740 L32.713,29.905 M37.060,24.240 L35.895,24.393 M28.060,24.240 L29.225,24.087 M32.560,10.740 L32.713,11.905 M37.060,6.240 L35.895,6.393 M28.060,6.240 L29.225,6.087 M46.060,51.240 L44.895,51.393 M37.060,51.240 L38.225,51.087 M41.560,37.740 L41.713,38.905 M46.060,33.240 L44.895,33.393 M37.060,33.240 L38.225,33.087 M41.560,19.740 L41.713,20.905 M46.060,15.240 L44.895,15.393 M37.060,15.240 L38.225,15.087 M50.560,46.740 L50.713,47.905 M55.060,42.240 L53.895,42.393 M46.060,42.240 L47.225,42.087 M50.560,28.740 L50.713,29.905 M55.060,24.240 L53.895,24.393 M46.060,24.240 L47.225,24.087 M50.560,10.740 L50.713,11.905 M55.060,6.240 L53.895,6.393 M46.060,6.240 L47.225,6.087 M64.060,51.240 L62.895,51.393 M55.060,51.240 L56.225,51.087 M59.560,37.740 L59.713,38.905 M64.060,33.240 L62.895,33.393 M55.060,33.240 L56.225,33.087 M59.560,19.740 L59.713,20.905 M64.060,15.240 L62.895,15.393 M55.060,15.240 L56.225,15.087 M67.736,53.202 L67.242,52.558 M68.560,46.740 L68.713,47.905 M71.060,42.739 L70.810,42.843 M64.060,42.240 L65.225,42.087 M68.560,28.740 L68.713,29.905 M71.060,24.739 L70.810,24.843 M64.060,24.240 L65.225,24.087 M68.560,10.740 L68.713,11.905 M70.239,7.281 L69.878,7.558 M64.060,6.240 L65.225,6.087"/>
  <path fill="none" stroke="#3a4e8c" stroke-width="0.4" stroke-linecap="round" stroke-linejoin="round" d="M67.396,3.547 L66.881,4.909 L66.599,3.480 L66.084,4.842 L65.803,3.413 L65.287,4.775 L65.006,3.346 L64.490,4.708 L64.209,3.279 L63.693,4.641 L63.412,3.212 L62.897,4.574 L62.616,3.145 L62.100,4.507 L61.819,3.078 L61.303,4.440 L61.022,3.011 L60.506,4.373 L60.225,2.944 L59.710,4.306 L59.428,2.877 L58.913,4.239 L58.632,2.811 L58.116,4.172 L57.835,2.744 L57.319,4.105 L57.038,2.677 L56.522,4.038 L56.241,2.610 L55.726,3.971 L55.445,2.543 L54.929,3.904 L54.648,2.476 L54.132,3.837 L53.851,2.409 L53.335,3.770 L53.054,2.342 L52.539,3.703 L52.257,2.275 L51.742,3.636 L51.461,2.208 L50.945,3.569 L50.664,2.141 L50.148,3.502 L49.867,2.074 L49.351,3.436 L49.070,2.007 L48.555,3.369 L48.274,1.940 L47.758,3.302 L47.477,1.873 L46.961,3.235 L46.680,1.806 L46.164,3.168 L45.883,1.739 L45.368,3.101 L45.086,1.672 L44.571,3.034 L44.290,1.605 L43.774,2.967 L43.493,1.538 L42.977,2.900 L42.696,1.471 L42.180,2.833 L41.899,1.404 L41.384,2.766 L41.103,1.337 L40.587,2.699 L40.306,1.270 L39.790,2.632 L39.509,1.203 L38.993,2.565 L38.712,1.136 L38.197,2.498 L37.915,1.069 L37.400,2.431 L37.119,1.002 L36.662,2.400 L36.265,1.000 L35.867,2.400 L35.469,1.000 L35.072,2.400 L34.674,1.000 L34.276,2.400 L33.879,1.000 L33.481,2.400 L33.084,1.000 L32.686,2.400 L32.288,1.000 L31.891,2.400 L31.493,1.000 L31.095,2.400 L30.698,1.000 L30.300,2.400 L29.902,1.000 L29.505,2.400 L29.107,1.000 L28.709,2.400 L28.312,1.000 L27.914,2.400 L27.516,1.000 L27.119,2.400 L26.721,1.000 L26.324,2.400 L25.926,1.000 L25.528,2.400 L25.131,1.000 L24.733,2.400 L24.335,1.000 L23.938,2.400 L23.540,1.000 L23.142,2.400 L22.745,1.000 L22.347,2.400 L21.949,1.000 L21.552,2.400 L21.154,1.000 L20.756,2.400 L20.359,1.000 L19.961,2.400 L19.564,1.000 L19.166,2.400 L18.768,1.000 L18.371,2.400 L17.973,1.000 L17.575,2.400 L17.178,1.000 L16.780,2.400 L16.382,1.000 L15.985,2.400 L15.587,1.000 L15.189,2.400 L14.792,1.000 L14.394,2.400 L13.996,1.000 L13.599,2.400 L13.201,1.000 L12.804,2.400 L12.406,1.000 L12.008,2.400 L11.611,1.000 L11.213,2.400 L10.815,1.000 L10.418,2.400 L10.020,1.000 L9.764,2.429 L9.302,1.067 L9.115,2.493 L8.653,1.131 L8.465,2.556 L7.881,1.285 L7.976,2.719 L7.257,1.474 L7.351,2.908 L6.633,1.663 L6.878,3.104 L5.931,2.024 L6.303,3.412 L5.355,2.331 L5.728,3.720 L4.701,2.768 L5.337,4.057 L4.197,3.182 L4.833,4.471 L3.693,3.596 L4.471,4.833 L3.182,4.197 L4.057,5.337 L2.768,4.701 L3.643,5.842 L2.331,5.355 L3.412,6.303 L2.024,5.931 L3.104,6.878 L1.716,6.506 L2.908,7.351 L1.474,7.257 L2.719,7.976 L1.285,7.881 L2.530,8.600 L1.131,8.653 L2.493,9.115 L1.067,9.302 L2.429,9.764 L1.003,9.951 L2.400,10.418 L1.000,10.817 L2.400,11.215 L1.000,11.613 L2.400,12.011 L1.000,12.410 L2.400,12.808 L1.000,13.206 L2.400,13.605 L1.000,14.003 L2.400,14.401 L1.000,14.800 L2.400,15.198 L1.000,15.596 L2.400,15.994 L1.000,16.393 L2.400,16.791 L1.000,17.189 L2.400,17.588 L1.000,17.986 L2.400,18.384 L1.000,18.783 L2.400,19.181 L1.000,19.579 L2.400,19.977 L1.000,20.376 L2.400,20.774 L1.000,21.172 L2.400,21.571 L1.000,21.969 L2.400,22.367 L1.000,22.766 L2.400,23.164 L1.000,23.562 L2.400,23.960 L1.000,24.359 L2.400,24.757 L1.000,25.155 L2.400,25.554 L1.000,25.952 L2.400,26.350 L1.000,26.749 L2.400,27.147 L1.000,27.545 L2.400,27.943 L1.000,28.342 L2.400,28.740 L1.000,29.138 L2.400,29.537 L1.000,29.935 L2.400,30.333 L1.000,30.731 L2.400,31.130 L1.000,31.528 L2.400,31.926 L1.000,32.325 L2.400,32.723 L1.000,33.121 L2.400,33.520 L1.000,33.918 L2.400,34.316 L1.000,34.714 L2.400,35.113 L1.000,35.511 L2.400,35.909 L1.000,36.308 L2.400,36.706 L1.000,37.104 L2.400,37.503 L1.000,37.901 L2.400,38.299 L1.000,38.697 L2.400,39.096 L1.000,39.494 L2.400,39.892 L1.000,40.291 L2.400,40.689 L1.000,41.087 L2.400,41.486 L1.000,41.884 L2.400,42.282 L1.000,42.680 L2.400,43.079 L1.000,43.477 L2.400,43.875 L1.000,44.274 L2.400,44.672 L1.000,45.070 L2.400,45.469 L1.000,45.867 L2.400,46.265 L1.000,46.663 L2.400,47.062 L1.000,47.460 L2.429,47.716 L1.067,48.178 L2.493,48.365 L1.131,48.827 L2.556,49.015 L1.285,49.599 L2.719,49.504 L1.474,50.223 L2.908,50.129 L1.663,50.847 L3.104,50.602 L2.024,51.549 L3.412,51.177 L2.331,52.125 L3.720,51.752 L2.768,52.779 L4.057,52.143 L3.182,53.283 L4.471,52.647 L3.596,53.787 L4.833,53.009 L4.197,54.298 L5.337,53.423 L4.701,54.712 L5.842,53.837 L5.355,55.149 L6.303,54.068 L5.931,55.456 L6.878,54.376 L6.506,55.764 L7.351,54.572 L7.257,56.006 L7.976,54.761 L7.881,56.195 L8.600,54.950 L8.653,56.349 L9.115,54.987 L9.302,56.413 L9.764,55.051 L9.951,56.477 L10.418,55.080 L10.815,56.480 L11.213,55.080 L11.611,56.480 L12.008,55.080 L12.406,56.480 L12.804,55.080 L13.201,56.480 L13.599,55.080 L13.996,56.480 L14.394,55.080 L14.792,56.480 L15.189,55.080 L15.587,56.480 L15.985,55.080 L16.382,56.480 L16.780,55.080 L17.178,56.480 L17.575,55.080 L17.973,56.480 L18.371,55.080 L18.768,56.480 L19.166,55.080 L19.564,56.480 L19.961,55.080 L20.359,56.480 L20.756,55.080 L21.154,56.480 L21.552,55.080 L21.949,56.480 L22.347,55.080 L22.745,56.480 L23.142,55.080 L23.540,56.480 L23.938,55.080 L24.335,56.480 L24.733,55.080 L25.131,56.480 L25.528,55.080 L25.926,56.480 L26.324,55.080 L26.721,56.480 L27.119,55.080 L27.516,56.480 L27.914,55.080 L28.312,56.480 L28.709,55.080 L29.107,56.480 L29.505,55.080 L29.902,56.480 L30.300,55.080 L30.698,56.480 L31.095,55.080 L31.493,56.480 L31.891,55.080 L32.288,56.480 L32.686,55.080 L33.084,56.480 L33.481,55.080 L33.879,56.480 L34.276,55.080 L34.674,56.480 L35.072,55.080 L35.469,56.480 L35.867,55.080 L36.265,56.480 L36.662,55.080 L37.060,56.480 L37.458,55.080 L37.855,56.480 L38.253,55.080 L38.651,56.480 L39.048,55.080 L39.446,56.480 L39.844,55.080 L40.241,56.480 L40.639,55.080 L41.036,56.480 L41.434,55.080 L41.832,56.480 L42.229,55.080 L42.627,56.480 L43.025,55.080 L43.422,56.480 L43.820,55.080 L44.218,56.480 L44.615,55.080 L45.013,56.480 L45.411,55.080 L45.808,56.480 L46.206,55.080 L46.604,56.480 L47.001,55.080 L47.399,56.480 L47.796,55.080 L48.194,56.480 L48.592,55.080 L48.989,56.480 L49.387,55.080 L49.785,56.480 L50.182,55.080 L50.580,56.480 L50.978,55.080 L51.375,56.480 L51.773,55.080 L52.171,56.480 L52.568,55.080 L52.966,56.480 L53.364,55.080 L53.761,56.480 L54.159,55.080 L54.556,56.480 L54.954,55.080 L55.352,56.480 L55.749,55.080 L56.147,56.480 L56.545,55.080 L56.942,56.480 L57.340,55.080 L57.738,56.480 L58.135,55.080 L58.533,56.480 L58.931,55.080 L59.328,56.480 L59.726,55.080 L60.124,56.480 L60.521,55.080 L60.919,56.480 L61.316,55.080 L61.714,56.480 L62.112,55.080 L62.509,56.480 L62.907,55.080 L63.305,56.480 L63.702,55.080 L64.100,56.480 L64.356,55.051 L64.818,56.413 L65.005,54.987 L65.467,56.349 L65.655,54.924 L66.239,56.195 L66.144,54.761 L66.863,56.006 L66.769,54.572 L67.487,55.817 L67.242,54.376 L68.189,55.456 L67.817,54.068 L68.765,55.149 L68.392,53.760 L69.419,54.712 L68.783,53.423 L69.923,54.298 L69.287,53.009 L70.427,53.884 L69.649,52.647 L70.938,53.283 L70.063,52.143 L71.352,52.779 L70.477,51.638 L71.789,52.125 L70.708,51.177 L72.096,51.549 L71.016,50.602 L72.404,50.974 L71.212,50.129 L72.646,50.223 L71.401,49.504 L72.835,49.599 L71.590,48.880 L72.989,48.827 L71.627,48.365 L73.053,48.178 L71.691,47.716 L73.117,47.529 L71.720,47.062 L73.120,46.663 L71.720,46.265 L73.120,45.867 L71.720,45.469 L73.120,45.070 L71.720,44.672 L73.120,44.274 L71.720,43.875 L73.120,43.477 L71.720,43.079 L73.120,42.680 L71.720,42.282 L73.120,41.884 L71.720,41.486 L73.120,41.087 L71.720,40.689 L73.120,40.291 L71.720,39.892 L73.120,39.494 L71.720,39.096 L73.120,38.697 L71.720,38.299 L73.120,37.901 L71.720,37.503 L73.120,37.104 L71.720,36.706 L73.120,36.308 L71.720,35.909 L73.120,35.511 L71.720,35.113 L73.120,34.714 L71.720,34.316 L73.120,33.918 L71.720,33.520 L73.120,33.121 L71.720,32.723 L73.120,32.325 L71.720,31.926 L73.120,31.528 L71.720,31.130 L73.120,30.731 L71.720,30.333 L73.120,29.935 L71.720,29.537 L73.120,29.138 L71.720,28.740 L73.120,28.342 L71.720,27.943 L73.120,27.545 L71.720,27.147 L73.120,26.749 L71.720,26.350 L73.120,25.952 L71.720,25.554 L73.120,25.155 L71.720,24.757 L73.120,24.359 L71.720,23.960 L73.120,23.562 L71.720,23.164 L73.120,22.766 L71.720,22.367 L73.120,21.969 L71.720,21.571 L73.120,21.172 L71.720,20.774 L73.120,20.376 L71.720,19.977 L73.120,19.579 L71.720,19.181 L73.120,18.783 L71.720,18.384 L73.120,17.986 L71.720,17.588 L73.120,17.189 L71.720,16.791 L73.120,16.393 L71.720,15.994 L73.120,15.596 L71.720,15.198 L73.120,14.800 L71.720,14.401 L73.120,14.003 L71.720,13.605 L73.120,13.206 L71.720,12.808 L73.120,12.410 L71.720,12.011 L73.120,11.613 L71.720,11.215 L73.120,10.817 L71.720,10.418 L73.120,10.020 L71.691,9.764 L73.053,9.302 L71.627,9.115 L72.989,8.653 L71.564,8.465 L72.835,7.881 L71.401,7.976 L72.646,7.257 L71.212,7.351 L72.457,6.633 L71.016,6.878 L72.096,5.931 L70.708,6.303 L71.789,5.355 L70.400,5.728 L71.352,4.701 L70.063,5.337 L70.938,4.197 L69.649,4.833 L70.524,3.693 L69.287,4.471 L69.923,3.182 L68.783,4.057 L69.419,2.768 L68.278,3.643 L68.765,2.331 L67.817,3.412 L68.189,2.024 L67.242,3.104 L67.614,1.716 L66.769,2.908 L66.863,1.474 L66.144,2.719 L66.239,1.285 L65.520,2.530 L65.467,1.131 L65.005,2.493 L64.818,1.067 L64.356,2.429 L64.169,1.003 L63.702,2.400 L63.305,1.000 L62.907,2.400 L62.509,1.000 L62.112,2.400 L61.714,1.000 L61.316,2.400 L60.919,1.000 L60.521,2.400 L60.124,1.000 L59.726,2.400 L59.328,1.000 L58.931,2.400 L58.533,1.000 L58.135,2.400 L57.738,1.000 L57.340,2.400 L56.942,1.000 L56.545,2.400 L56.147,1.000 L55.749,2.400 L55.352,1.000 L54.954,2.400 L54.556,1.000 L54.159,2.400 L53.761,1.000 L53.364,2.400 L52.966,1.000 L52.568,2.400 L52.171,1.000 L51.773,2.400 L51.375,1.000 L50.978,2.400 L50.580,1.000 L50.182,2.400 L49.785,1.000 L49.387,2.400 L48.989,1.000 L48.592,2.400 L48.194,1.000 L47.796,2.400 L47.399,1.000 L47.001,2.400 L46.604,1.000 L46.206,2.400 L45.808,1.000 L45.411,2.400 L45.013,1.000 L44.615,2.400 L44.218,1.000 L43.820,2.400 L43.422,1.000 L43.025,2.400 L42.627,1.000 L42.229,2.400 L41.832,1.000 L41.434,2.400 L41.036,1.000 L40.639,2.400 L40.241,1.000 L39.844,2.400 L39.446,1.000 L39.048,2.400 L38.651,1.000 L38.253,2.400 L37.855,1.000 L37.458,2.400 L37.060,1.000"/>
</svg>
