<svg xmlns="http://www.w3.org/2000/svg" viewBox="-7.938 0 61.473 61.473" width="256" height="256">
  <title>turtle</title>
  <rect x="-7.938" y="0" width="61.473" height="61.473" fill="#f5efe4"/>
  <path fill="none" stroke="#31604f" stroke-width="0.4" stroke-linecap="round" stroke-linejoin="round" d="M22.799,16.879 L23.496,16.938 L22.799,16.879 L23.496,16.938 L22.799,16.879 M22.799,16.879 L22.101,16.938 L22.799,16.879 L22.101,16.938 L22.799,16.879 M14.299,57.103 L13.949,56.497 L14.299,57.103 L13.949,56.497 L14.299,57.103 M38.527,30.667 L38.177,30.061 L38.527,30.667 L38.177,30.061 L38.527,30.667 M27.249,59.631 L27.856,59.281 L27.249,59.631 L27.856,59.281 L27.249,59.631 L28.784,58.745 L30.516,57.745 L31.954,56.915 M33.548,55.475 L32.600,56.022 L30.868,57.022 L29.136,58.022 L27.404,59.022 L26.451,59.572 L25.498,60.123 L24.214,60.344 L25.119,59.822 L26.024,59.299 L27.756,58.299 L29.488,57.299 L31.221,56.299 L32.953,55.299 L34.480,54.417 L35.253,53.451 L34.279,54.014 L33.305,54.576 L31.573,55.576 L29.841,56.576 L28.109,57.576 L26.377,58.576 L24.645,59.576 L23.159,60.434 L22.238,60.446 L23.265,59.853 L24.997,58.853 L26.729,57.853 L28.461,56.853 L30.193,55.853 L31.925,54.853 L33.657,53.853 L35.389,52.853 L35.832,52.598 L36.410,51.744 L35.742,52.130 L34.010,53.130 L32.278,54.130 L30.546,55.130 L28.813,56.130 L27.081,57.130 L25.349,58.130 L23.617,59.130 L21.885,60.130 L21.453,60.379 L20.668,60.313 L22.238,59.407 L23.970,58.407 L25.702,57.407 L27.434,56.407 L29.166,55.407 L30.898,54.407 L32.630,53.407 L34.362,52.407 L36.094,51.407 L36.809,50.994 L37.191,50.254 L36.446,50.684 L34.714,51.684 L32.982,52.684 L31.250,53.684 L29.518,54.684 L27.786,55.684 L26.054,56.684 L24.322,57.684 L22.590,58.684 L20.858,59.684 L19.992,60.184 L19.369,60.024 L20.290,59.492 L21.210,58.961 L22.942,57.961 L24.674,56.961 L26.406,55.961 L28.138,54.961 L29.871,53.961 L31.603,52.961 L33.335,51.961 L35.067,50.961 L36.799,49.961 L37.573,49.513 L37.868,48.824 L37.151,49.238 L35.419,50.238 L33.687,51.238 L31.955,52.238 L30.223,53.238 L28.491,54.238 L26.759,55.238 L25.027,56.238 L23.295,57.238 L21.563,58.238 L19.831,59.238 L18.747,59.863 L18.142,59.693 L18.451,59.515 L20.183,58.515 L21.915,57.515 L23.647,56.515 L25.379,55.515 L27.111,54.515 L28.843,53.515 L30.575,52.515 L32.307,51.515 L34.039,50.515 L35.771,49.515 L37.503,48.515 L38.122,48.158 L38.376,47.491 L37.856,47.792 L36.124,48.792 L34.392,49.792 L32.660,50.792 L30.928,51.792 L29.196,52.792 L27.463,53.792 L25.731,54.792 L23.999,55.792 L22.267,56.792 L20.535,57.792 L18.803,58.792 L17.631,59.468 L17.120,59.244 L17.423,59.069 L19.156,58.069 L20.888,57.069 L22.620,56.069 L24.352,55.069 L26.084,54.069 L27.816,53.069 L29.548,52.069 L31.280,51.069 L33.012,50.069 L34.744,49.069 L36.476,48.069 L38.208,47.069 L38.629,46.825 L38.808,46.203 L37.818,46.774 L36.828,47.346 L35.096,48.346 L33.364,49.346 L31.632,50.346 L29.900,51.346 L28.168,52.346 L26.436,53.346 L24.704,54.346 L22.972,55.346 L21.240,56.346 L19.508,57.346 L17.776,58.346 L16.609,59.019 L16.102,58.793 L16.396,58.622 L18.128,57.622 L19.860,56.622 L21.592,55.622 L23.324,54.622 L25.056,53.622 L26.788,52.622 L28.521,51.622 L30.253,50.622 L31.985,49.622 L33.717,48.622 L35.449,47.622 L37.181,46.622 L38.075,46.106 L38.969,45.590 L39.129,44.978 L37.533,45.899 L35.801,46.899 L34.069,47.899 L32.337,48.899 L30.605,49.899 L28.873,50.899 L27.141,51.899 L25.409,52.899 L23.677,53.899 L21.945,54.899 L20.213,55.899 L18.481,56.899 L16.748,57.899 L15.674,58.520 L15.247,58.247 L16.174,57.712 L17.101,57.176 L18.833,56.176 L20.565,55.176 L22.297,54.176 L24.029,53.176 L25.761,52.176 L27.493,51.176 L29.225,50.176 L30.957,49.176 L32.689,48.176 L34.421,47.176 L36.153,46.176 L37.885,45.176 L39.290,44.366 L39.424,43.768 L38.238,44.453 L36.506,45.453 L34.774,46.453 L33.042,47.453 L31.310,48.453 L29.578,49.453 L27.846,50.453 L26.113,51.453 L24.381,52.453 L22.649,53.453 L20.917,54.453 L19.185,55.453 L17.453,56.453 L15.721,57.453 L14.819,57.974 L14.392,57.701 L16.073,56.730 L17.806,55.730 L19.538,54.730 L21.270,53.730 L23.002,52.730 L24.734,51.730 L26.466,50.730 L28.198,49.730 L29.930,48.730 L31.662,47.730 L33.394,46.730 L35.126,45.730 L36.858,44.730 L38.590,43.730 L39.512,43.198 L39.600,42.628 L38.943,43.007 L37.210,44.007 L35.478,45.007 L33.746,46.007 L32.014,47.007 L30.282,48.007 L28.550,49.007 L26.818,50.007 L25.086,51.007 L23.354,52.007 L21.622,53.007 L19.890,54.007 L18.158,55.007 L16.426,56.007 L14.694,57.007 L13.990,57.414 L13.629,57.102 L15.046,56.284 L16.778,55.284 L18.510,54.284 L20.242,53.284 L21.974,52.284 L23.706,51.284 L25.438,50.284 L27.171,49.284 L28.903,48.284 L30.635,47.284 L32.367,46.284 L34.099,45.284 L35.831,44.284 L37.563,43.284 L39.295,42.284 L39.687,42.058 L39.775,41.487 L38.845,42.024 L37.915,42.561 L36.183,43.561 L34.451,44.561 L32.719,45.561 L30.987,46.561 L29.255,47.561 L27.523,48.561 L25.791,49.561 L24.059,50.561 L22.327,51.561 L20.595,52.561 L18.863,53.561 L17.131,54.561 L15.398,55.561 L13.666,56.561 L13.269,56.791 L12.909,56.479 L14.019,55.838 L15.751,54.838 L17.483,53.838 L19.215,52.838 L20.947,51.838 L22.679,50.838 L24.411,49.838 L26.143,48.838 L27.875,47.838 L29.607,46.838 L31.339,45.838 L33.071,44.838 L34.803,43.838 L36.535,42.838 L38.268,41.838 L39.838,40.932 L39.865,40.396 L38.620,41.115 L36.888,42.115 L35.156,43.115 L33.424,44.115 L31.692,45.115 L29.960,46.115 L28.228,47.115 L26.496,48.115 L24.763,49.115 L23.031,50.115 L21.299,51.115 L19.567,52.115 L17.835,53.115 L16.103,54.115 L14.371,55.115 L13.460,55.641 L12.548,56.168 L12.202,55.848 L12.991,55.392 L14.723,54.392 L16.456,53.392 L18.188,52.392 L19.920,51.392 L21.652,50.392 L23.384,49.392 L25.116,48.392 L26.848,47.392 L28.580,46.392 L30.312,45.392 L32.044,44.392 L33.776,43.392 L35.508,42.392 L37.240,41.392 L38.972,40.392 L39.892,39.861 L39.919,39.326 L39.325,39.669 L37.593,40.669 L35.860,41.669 L34.128,42.669 L32.396,43.669 L30.664,44.669 L28.932,45.669 L27.200,46.669 L25.468,47.669 L23.736,48.669 L22.004,49.669 L20.272,50.669 L18.540,51.669 L16.808,52.669 L15.076,53.669 L13.344,54.669 L11.898,55.503 L11.595,55.159 L11.964,54.946 L13.696,53.946 L15.428,52.946 L17.160,51.946 L18.892,50.946 L20.624,49.946 L22.356,48.946 L24.088,47.946 L25.821,46.946 L27.553,45.946 L29.285,44.946 L31.017,43.946 L32.749,42.946 L34.481,41.946 L36.213,40.946 L37.945,39.946 L39.677,38.946 L39.946,38.790 L39.971,38.257 L38.297,39.223 L36.565,40.223 L34.833,41.223 L33.101,42.223 L31.369,43.223 L29.637,44.223 L27.905,45.223 L26.173,46.223 L24.441,47.223 L22.709,48.223 L20.977,49.223 L19.245,50.223 L17.513,51.223 L15.781,52.223 L14.048,53.223 L12.316,54.223 L11.292,54.815 L10.988,54.470 L12.669,53.500 L14.401,52.500 L16.133,51.500 L17.865,50.500 L19.597,49.500 L21.329,48.500 L23.061,47.500 L24.793,46.500 L26.525,45.500 L28.257,44.500 L29.989,43.500 L31.721,42.500 L33.453,41.500 L35.185,40.500 L36.918,39.500 L38.650,38.500 L39.945,37.752 L39.920,37.247 L39.002,37.777 L37.270,38.777 L35.538,39.777 L33.806,40.777 L32.074,41.777 L30.342,42.777 L28.610,43.777 L26.878,44.777 L25.146,45.777 L23.413,46.777 L21.681,47.777 L19.949,48.777 L18.217,49.777 L16.485,50.777 L14.753,51.777 L13.021,52.777 L11.289,53.777 L10.685,54.126 L10.418,53.760 L11.641,53.054 L13.373,52.054 L15.106,51.054 L16.838,50.054 L18.570,49.054 L20.302,48.054 L22.034,47.054 L23.766,46.054 L25.498,45.054 L27.230,44.054 L28.962,43.054 L30.694,42.054 L32.426,41.054 L34.158,40.054 L35.890,39.054 L37.622,38.054 L39.354,37.054 L39.894,36.742 L39.869,36.237 L38.922,36.784 L37.975,37.331 L36.243,38.331 L34.510,39.331 L32.778,40.331 L31.046,41.331 L29.314,42.331 L27.582,43.331 L25.850,44.331 L24.118,45.331 L22.386,46.331 L20.654,47.331 L18.922,48.331 L17.190,49.331 L15.458,50.331 L13.726,51.331 L11.994,52.331 L11.079,52.859 L10.165,53.386 L9.912,53.013 L10.614,52.608 L12.346,51.608 L14.078,50.608 L15.810,49.608 L17.542,48.608 L19.274,47.608 L21.006,46.608 L22.738,45.608 L24.471,44.608 L26.203,43.608 L27.935,42.608 L29.667,41.608 L31.399,40.608 L33.131,39.608 L34.863,38.608 L36.595,37.608 L38.327,36.608 L39.843,35.732 L39.800,35.237 L38.679,35.885 L36.947,36.885 L35.215,37.885 L33.483,38.885 L31.751,39.885 L30.019,40.885 L28.287,41.885 L26.555,42.885 L24.823,43.885 L23.091,44.885 L21.359,45.885 L19.627,46.885 L17.895,47.885 L16.163,48.885 L14.431,49.885 L12.698,50.885 L10.966,51.885 L9.659,52.639 L9.406,52.266 L10.362,51.714 L11.319,51.162 L13.051,50.162 L14.783,49.162 L16.515,48.162 L18.247,47.162 L19.979,46.162 L21.711,45.162 L23.443,44.162 L25.175,43.162 L26.907,42.162 L28.639,41.162 L30.371,40.162 L32.103,39.162 L33.835,38.162 L35.568,37.162 L37.300,36.162 L39.032,35.162 L39.727,34.760 L39.654,34.283 L39.384,34.439 L37.652,35.439 L35.920,36.439 L34.188,37.439 L32.456,38.439 L30.724,39.439 L28.992,40.439 L27.260,41.439 L25.528,42.439 L23.796,43.439 L22.063,44.439 L20.331,45.439 L18.599,46.439 L16.867,47.439 L15.135,48.439 L13.403,49.439 L11.671,50.439 L9.939,51.439 L9.153,51.893 L8.943,51.494 L10.291,50.715 L12.023,49.715 L13.756,48.715 L15.488,47.715 L17.220,46.715 L18.952,45.715 L20.684,44.715 L22.416,43.715 L24.148,42.715 L25.880,41.715 L27.612,40.715 L29.344,39.715 L31.076,38.715 L32.808,37.715 L34.540,36.715 L36.272,35.715 L38.004,34.715 L39.580,33.805 L39.507,33.328 L38.357,33.992 L36.625,34.992 L34.893,35.992 L33.160,36.992 L31.428,37.992 L29.696,38.992 L27.964,39.992 L26.232,40.992 L24.500,41.992 L22.768,42.992 L21.036,43.992 L19.304,44.992 L17.572,45.992 L15.840,46.992 L14.108,47.992 L12.376,48.992 L10.644,49.992 L9.690,50.543 L8.737,51.093 L8.530,50.693 L9.264,50.269 L10.996,49.269 L12.728,48.269 L14.460,47.269 L16.192,46.269 L17.924,45.269 L19.656,44.269 L21.388,43.269 L23.121,42.269 L24.853,41.269 L26.585,40.269 L28.317,39.269 L30.049,38.269 L31.781,37.269 L33.513,36.269 L35.245,35.269 L36.977,34.269 L38.709,33.269 L39.434,32.851 L39.340,32.385 L39.061,32.546 L37.329,33.546 L35.597,34.546 L33.865,35.546 L32.133,36.546 L30.401,37.546 L28.669,38.546 L26.937,39.546 L25.205,40.546 L23.473,41.546 L21.741,42.546 L20.009,43.546 L18.277,44.546 L16.545,45.546 L14.813,46.546 L13.081,47.546 L11.348,48.546 L9.616,49.546 L8.323,50.293 L8.117,49.893 L9.043,49.358 L9.969,48.823 L11.701,47.823 L13.433,46.823 L15.165,45.823 L16.897,44.823 L18.629,43.823 L20.361,42.823 L22.093,41.823 L23.825,40.823 L25.557,39.823 L27.289,38.823 L29.021,37.823 L30.753,36.823 L32.485,35.823 L34.218,34.823 L35.950,33.823 L37.682,32.823 L39.222,31.934 L39.104,31.483 L38.034,32.100 L36.302,33.100 L34.570,34.100 L32.838,35.100 L31.106,36.100 L29.374,37.100 L27.642,38.100 L25.910,39.100 L24.178,40.100 L22.446,41.100 L20.713,42.100 L18.981,43.100 L17.249,44.100 L15.517,45.100 L13.785,46.100 L12.053,47.100 L10.321,48.100 L8.589,49.100 L7.910,49.492 L7.746,49.067 L8.941,48.377 L10.673,47.377 L12.406,46.377 L14.138,45.377 L15.870,44.377 L17.602,43.377 L19.334,42.377 L21.066,41.377 L22.798,40.377 L24.530,39.377 L26.262,38.377 L27.994,37.377 L29.726,36.377 L31.458,35.377 L33.190,34.377 L34.922,33.377 L36.654,32.377 L38.386,31.377 L38.985,31.031 L38.867,30.580 L37.937,31.117 L37.007,31.654 L35.275,32.654 L33.543,33.654 L31.810,34.654 L30.078,35.654 L28.346,36.654 L26.614,37.654 L24.882,38.654 L23.150,39.654 L21.418,40.654 L19.686,41.654 L17.954,42.654 L16.222,43.654 L14.490,44.654 L12.758,45.654 L11.026,46.654 L9.294,47.654 L7.584,48.641 L7.422,48.215 L7.914,47.931 L9.646,46.931 L11.378,45.931 L13.110,44.931 L14.842,43.931 L16.574,42.931 L18.306,41.931 L20.038,40.931 L21.771,39.931 L23.503,38.931 L25.235,37.931 L26.967,36.931 L28.699,35.931 L30.431,34.931 L32.163,33.931 L33.895,32.931 L35.627,31.931 L37.359,30.931 L38.749,30.129 L38.612,29.688 L37.711,30.208 L35.979,31.208 L34.247,32.208 L32.515,33.208 L30.783,34.208 L29.051,35.208 L27.319,36.208 L25.587,37.208 L23.855,38.208 L22.123,39.208 L20.391,40.208 L18.659,41.208 L16.927,42.208 L15.195,43.208 L13.463,44.208 L11.731,45.208 L9.998,46.208 L8.266,47.208 L7.259,47.789 L7.097,47.364 L8.619,46.485 L10.351,45.485 L12.083,44.485 L13.815,43.485 L15.547,42.485 L17.279,41.485 L19.011,40.485 L20.743,39.485 L22.475,38.485 L24.207,37.485 L25.939,36.485 L27.671,35.485 L29.403,34.485 L31.135,33.485 L32.868,32.485 L34.600,31.485 L36.332,30.485 L38.064,29.485 L38.450,29.262 L38.288,28.836 L36.684,29.762 L34.952,30.762 L33.220,31.762 L31.488,32.762 L29.756,33.762 L28.024,34.762 L26.292,35.762 L24.560,36.762 L22.828,37.762 L21.096,38.762 L19.363,39.762 L17.631,40.762 L15.899,41.762 L14.167,42.762 L12.435,43.762 L10.703,44.762 L8.971,45.762 L7.239,46.762 L6.935,46.938 L6.812,46.489 L7.591,46.039 L9.323,45.039 L11.056,44.039 L12.788,43.039 L14.520,42.039 L16.252,41.039 L17.984,40.039 L19.716,39.039 L21.448,38.039 L23.180,37.039 L24.912,36.039 L26.644,35.039 L28.376,34.039 L30.108,33.039 L31.840,32.039 L33.572,31.039 L35.304,30.039 L37.036,29.039 L38.126,28.410 L37.963,27.984 L37.389,28.316 L35.657,29.316 L33.925,30.316 L32.193,31.316 L30.460,32.316 L28.728,33.316 L26.996,34.316 L25.264,35.316 L23.532,36.316 L21.800,37.316 L20.068,38.316 L18.336,39.316 L16.604,40.316 L14.872,41.316 L13.140,42.316 L11.408,43.316 L9.676,44.316 L7.944,45.316 L6.694,46.037 L6.576,45.586 L8.296,44.593 L10.028,43.593 L11.760,42.593 L13.492,41.593 L15.224,40.593 L16.956,39.593 L18.688,38.593 L20.421,37.593 L22.153,36.593 L23.885,35.593 L25.617,34.593 L27.349,33.593 L29.081,32.593 L30.813,31.593 L32.545,30.593 L34.277,29.593 L36.009,28.593 L36.905,28.076 L37.801,27.558 L37.623,27.141 L36.361,27.870 L34.629,28.870 L32.897,29.870 L31.165,30.870 L29.433,31.870 L27.701,32.870 L25.969,33.870 L24.237,34.870 L22.505,35.870 L20.773,36.870 L19.041,37.870 L17.309,38.870 L15.577,39.870 L13.845,40.870 L12.113,41.870 L10.381,42.870 L8.648,43.870 L6.916,44.870 L6.457,45.135 L6.339,44.684 L7.269,44.147 L9.001,43.147 L10.733,42.147 L12.465,41.147 L14.197,40.147 L15.929,39.147 L17.661,38.147 L19.393,37.147 L21.125,36.147 L22.857,35.147 L24.589,34.147 L26.321,33.147 L28.053,32.147 L29.785,31.147 L31.518,30.147 L33.250,29.147 L34.982,28.147 L36.714,27.147 L37.417,26.741 L37.210,26.341 L36.272,26.882 L35.334,27.424 L33.602,28.424 L31.870,29.424 L30.138,30.424 L28.406,31.424 L26.674,32.424 L24.942,33.424 L23.210,34.424 L21.478,35.424 L19.746,36.424 L18.013,37.424 L16.281,38.424 L14.549,39.424 L12.817,40.424 L11.085,41.424 L9.353,42.424 L7.621,43.424 L6.220,44.232 L6.141,43.759 L7.057,43.230 L7.973,42.701 L9.706,41.701 L11.438,40.701 L13.170,39.701 L14.902,38.701 L16.634,37.701 L18.366,36.701 L20.098,35.701 L21.830,34.701 L23.562,33.701 L25.294,32.701 L27.026,31.701 L28.758,30.701 L30.490,29.701 L32.222,28.701 L33.954,27.701 L35.686,26.701 L37.003,25.940 L36.797,25.540 L36.039,25.978 L34.307,26.978 L32.575,27.978 L30.843,28.978 L29.110,29.978 L27.378,30.978 L25.646,31.978 L23.914,32.978 L22.182,33.978 L20.450,34.978 L18.718,35.978 L16.986,36.978 L15.254,37.978 L13.522,38.978 L11.790,39.978 L10.058,40.978 L8.326,41.978 L6.594,42.978 L6.068,43.281 L5.994,42.804 L6.946,42.255 L8.678,41.255 L10.410,40.255 L12.142,39.255 L13.874,38.255 L15.606,37.255 L17.338,36.255 L19.071,35.255 L20.803,34.255 L22.535,33.255 L24.267,32.255 L25.999,31.255 L27.731,30.255 L29.463,29.255 L31.195,28.255 L32.927,27.255 L34.659,26.255 L35.624,25.697 L36.590,25.140 L36.366,24.749 L35.011,25.532 L33.279,26.532 L31.547,27.532 L29.815,28.532 L28.083,29.532 L26.351,30.532 L24.619,31.532 L22.887,32.532 L21.155,33.532 L19.423,34.532 L17.691,35.532 L15.959,36.532 L14.227,37.532 L12.495,38.532 L10.763,39.532 L9.031,40.532 L7.298,41.532 L5.921,42.327 L5.848,41.849 L6.749,41.329 L7.651,40.808 L9.383,39.808 L11.115,38.808 L12.847,37.808 L14.579,36.808 L16.311,35.808 L18.043,34.808 L19.775,33.808 L21.507,32.808 L23.239,31.808 L24.971,30.808 L26.703,29.808 L28.435,28.808 L30.168,27.808 L31.900,26.808 L33.632,25.808 L35.364,24.808 L36.113,24.376 L35.860,24.002 L34.922,24.544 L33.984,25.085 L32.252,26.085 L30.520,27.085 L28.788,28.085 L27.056,29.085 L25.324,30.085 L23.592,31.085 L21.860,32.085 L20.128,33.085 L18.396,34.085 L16.663,35.085 L14.931,36.085 L13.199,37.085 L11.467,38.085 L9.735,39.085 L8.003,40.085 L6.271,41.085 L5.774,41.372 L5.747,40.869 L6.623,40.362 L8.356,39.362 L10.088,38.362 L11.820,37.362 L13.552,36.362 L15.284,35.362 L17.016,34.362 L18.748,33.362 L20.480,32.362 L22.212,31.362 L23.944,30.362 L25.676,29.362 L27.408,28.362 L29.140,27.362 L30.872,26.362 L32.604,25.362 L34.336,24.362 L35.607,23.629 L35.354,23.255 L34.689,23.639 L32.957,24.639 L31.225,25.639 L29.493,26.639 L27.760,27.639 L26.028,28.639 L24.296,29.639 L22.564,30.639 L20.832,31.639 L19.100,32.639 L17.368,33.639 L15.636,34.639 L13.904,35.639 L12.172,36.639 L10.440,37.639 L8.708,38.639 L6.976,39.639 L5.721,40.364 L5.696,39.859 L7.328,38.916 L9.060,37.916 L10.792,36.916 L12.524,35.916 L14.256,34.916 L15.988,33.916 L17.721,32.916 L19.453,31.916 L21.185,30.916 L22.917,29.916 L24.649,28.916 L26.381,27.916 L28.113,26.916 L29.845,25.916 L31.577,24.916 L33.309,23.916 L34.205,23.399 L35.101,22.882 L34.819,22.525 L33.661,23.193 L31.929,24.193 L30.197,25.193 L28.465,26.193 L26.733,27.193 L25.001,28.193 L23.269,29.193 L21.537,30.193 L19.805,31.193 L18.073,32.193 L16.341,33.193 L14.609,34.193 L12.877,35.193 L11.145,36.193 L9.413,37.193 L7.681,38.193 L5.948,39.193 L5.670,39.354 L5.644,38.849 L6.301,38.470 L8.033,37.470 L9.765,36.470 L11.497,35.470 L13.229,34.470 L14.961,33.470 L16.693,32.470 L18.425,31.470 L20.157,30.470 L21.889,29.470 L23.621,28.470 L25.353,27.470 L27.085,26.470 L28.818,25.470 L30.550,24.470 L32.282,23.470 L34.014,22.470 L34.515,22.181 L34.212,21.836 L32.634,22.747 L30.902,23.747 L29.170,24.747 L27.438,25.747 L25.706,26.747 L23.974,27.747 L22.242,28.747 L20.510,29.747 L18.778,30.747 L17.046,31.747 L15.313,32.747 L13.581,33.747 L11.849,34.747 L10.117,35.747 L8.385,36.747 L6.653,37.747 L5.633,38.336 L5.660,37.801 L7.006,37.024 L8.738,36.024 L10.470,35.024 L12.202,34.024 L13.934,33.024 L15.666,32.024 L17.398,31.024 L19.130,30.024 L20.862,29.024 L22.594,28.024 L24.326,27.024 L26.058,26.024 L27.790,25.024 L29.522,24.024 L31.254,23.024 L32.986,22.024 L33.908,21.492 L33.605,21.147 L33.339,21.301 L31.607,22.301 L29.875,23.301 L28.143,24.301 L26.410,25.301 L24.678,26.301 L22.946,27.301 L21.214,28.301 L19.482,29.301 L17.750,30.301 L16.018,31.301 L14.286,32.301 L12.554,33.301 L10.822,34.301 L9.090,35.301 L7.358,36.301 L5.687,37.266 L5.714,36.730 L5.978,36.578 L7.710,35.578 L9.442,34.578 L11.174,33.578 L12.906,32.578 L14.638,31.578 L16.371,30.578 L18.103,29.578 L19.835,28.578 L21.567,27.578 L23.299,26.578 L25.031,25.578 L26.763,24.578 L28.495,23.578 L30.227,22.578 L31.959,21.578 L33.298,20.805 L32.937,20.493 L32.311,20.855 L30.579,21.855 L28.847,22.855 L27.115,23.855 L25.383,24.855 L23.651,25.855 L21.919,26.855 L20.187,27.855 L18.455,28.855 L16.723,29.855 L14.991,30.855 L13.259,31.855 L11.527,32.855 L9.795,33.855 L8.063,34.855 L6.331,35.855 L5.741,36.195 L5.768,35.660 L6.683,35.132 L8.415,34.132 L10.147,33.132 L11.879,32.132 L13.611,31.132 L15.343,30.132 L17.075,29.132 L18.807,28.132 L20.539,27.132 L22.271,26.132 L24.003,25.132 L25.735,24.132 L27.468,23.132 L29.200,22.132 L30.932,21.132 L32.577,20.182 L32.217,19.870 L31.284,20.409 L29.552,21.409 L27.820,22.409 L26.088,23.409 L24.356,24.409 L22.624,25.409 L20.892,26.409 L19.160,27.409 L17.428,28.409 L15.696,29.409 L13.963,30.409 L12.231,31.409 L10.499,32.409 L8.767,33.409 L7.035,34.409 L5.850,35.093 L5.938,34.523 L7.388,33.686 L9.120,32.686 L10.852,31.686 L12.584,30.686 L14.316,29.686 L16.048,28.686 L17.780,27.686 L19.512,26.686 L21.244,25.686 L22.976,24.686 L24.708,23.686 L26.440,22.686 L28.172,21.686 L29.904,20.686 L30.880,20.122 L31.856,19.559 L31.496,19.247 L30.257,19.963 L28.525,20.963 L26.793,21.963 L25.060,22.963 L23.328,23.963 L21.596,24.963 L19.864,25.963 L18.132,26.963 L16.400,27.963 L14.668,28.963 L12.936,29.963 L11.204,30.963 L9.472,31.963 L7.740,32.963 L6.025,33.953 L6.113,33.383 L7.103,32.811 L8.092,32.240 L9.824,31.240 L11.556,30.240 L13.288,29.240 L15.021,28.240 L16.753,27.240 L18.485,26.240 L20.217,25.240 L21.949,24.240 L23.681,23.240 L25.413,22.240 L27.145,21.240 L28.877,20.240 L30.609,19.240 L31.073,18.972 L30.646,18.699 L29.229,19.517 L27.497,20.517 L25.765,21.517 L24.033,22.517 L22.301,23.517 L20.569,24.517 L18.837,25.517 L17.105,26.517 L15.373,27.517 L13.641,28.517 L11.909,29.517 L10.177,30.517 L8.445,31.517 L6.713,32.517 L6.201,32.812 L6.358,32.202 L7.065,31.794 L8.797,30.794 L10.529,29.794 L12.261,28.794 L13.993,27.794 L15.725,26.794 L17.457,25.794 L19.189,24.794 L20.921,23.794 L22.653,22.794 L24.385,21.794 L26.118,20.794 L27.850,19.794 L29.582,18.794 L30.218,18.426 L29.791,18.153 L28.202,19.071 L26.470,20.071 L24.738,21.071 L23.006,22.071 L21.274,23.071 L19.542,24.071 L17.810,25.071 L16.078,26.071 L14.346,27.071 L12.613,28.071 L10.881,29.071 L9.149,30.071 L7.417,31.071 L6.518,31.590 L6.679,30.977 L7.770,30.348 L9.502,29.348 L11.234,28.348 L12.966,27.348 L14.698,26.348 L16.430,25.348 L18.162,24.348 L19.894,23.348 L21.626,22.348 L23.358,21.348 L25.090,20.348 L26.822,19.348 L28.554,18.348 L29.341,17.893 L28.830,17.669 L27.175,18.625 L25.443,19.625 L23.710,20.625 L21.978,21.625 L20.246,22.625 L18.514,23.625 L16.782,24.625 L15.050,25.625 L13.318,26.625 L11.586,27.625 L9.854,28.625 L8.122,29.625 L6.840,30.365 L7.047,29.726 L8.474,28.902 L10.206,27.902 L11.938,26.902 L13.671,25.902 L15.403,24.902 L17.135,23.902 L18.867,22.902 L20.599,21.902 L22.331,20.902 L24.063,19.902 L25.795,18.902 L27.527,17.902 L28.319,17.444 L27.808,17.220 L26.147,18.178 L24.415,19.178 L22.683,20.178 L20.951,21.178 L19.219,22.178 L17.487,23.178 L15.755,24.178 L14.023,25.178 L12.291,26.178 L10.559,27.178 L8.827,28.178 L7.301,29.059 L7.555,28.393 L9.179,27.455 L10.911,26.455 L12.643,25.455 L14.375,24.455 L16.107,23.455 L17.839,22.455 L19.571,21.455 L21.303,20.455 L22.169,19.955 L23.035,19.455 L24.768,18.455 L26.500,17.455 L27.280,17.005 L26.657,16.845 L25.120,17.732 L23.388,18.732 L21.656,19.732 L19.924,20.732 L18.192,21.732 L16.460,22.732 L14.728,23.732 L12.996,24.732 L11.263,25.732 L9.531,26.732 L7.809,27.727 L8.143,27.014 L9.013,26.512 L9.884,26.009 L11.616,25.009 L13.348,24.009 L15.080,23.009 L16.812,22.009 L18.544,21.009 L20.276,20.009 L22.008,19.009 L23.740,18.009 L25.472,17.009 L26.035,16.684 L25.413,16.524 L24.093,17.286 L22.360,18.286 L21.494,18.786 L20.628,19.286 L18.896,20.286 L17.164,21.286 L15.432,22.286 L13.700,23.286 L11.968,24.286 L10.236,25.286 L8.525,26.274 L8.908,25.534 L10.588,24.563 L12.321,23.563 L14.053,22.563 L15.785,21.563 L17.517,20.563 L19.249,19.563 L20.981,18.563 L22.713,17.563 L23.699,16.994 L24.686,16.424 L23.901,16.358 L23.065,16.840 L21.333,17.840 L19.601,18.840 L17.869,19.840 L16.137,20.840 L14.405,21.840 L12.673,22.840 L10.941,23.840 L9.367,24.749 L9.946,23.895 L11.293,23.117 L13.025,22.117 L14.757,21.117 L16.489,20.117 L18.221,19.117 L19.953,18.117 L21.685,17.117 L23.116,16.291 L22.111,16.352 L21.208,16.873 L20.306,17.394 L18.574,18.394 L16.842,19.394 L15.110,20.394 L13.378,21.394 L11.646,22.394 L10.524,23.041 L11.407,22.012 L11.998,21.671 L13.730,20.671 L15.462,19.671 L17.194,18.671 L18.926,17.671 L20.658,16.671 L21.056,16.441 L19.595,16.765 L19.278,16.948 L17.546,17.948 L15.814,18.948 L14.082,19.948 L12.397,20.921 M14.504,19.185 L16.167,18.225 L17.179,17.641 L16.572,17.991 L17.179,17.641 L16.572,17.991 L17.179,17.641"/>
  <path fill="none" stroke="#3a4e8c" stroke-width="0.4" stroke-linecap="round" stroke-linejoin="round" d="M3.210,17.826 L3.867,17.583 L3.210,17.826 L3.867,17.583 L3.210,17.826 M3.210,17.826 L3.960,18.828 L3.465,16.453 L4.630,18.581 L4.624,16.284 L4.781,18.223 L5.248,16.335 L5.366,18.753 L6.263,16.585 L5.719,18.953 L6.967,16.868 L6.423,19.236 L7.837,17.327 L6.788,19.515 L8.425,17.724 L7.377,19.912 L9.013,18.121 L7.806,20.259 L9.739,18.783 L8.380,20.800 L10.312,19.323 L8.953,21.340 L10.928,19.985 L9.274,21.757 L11.361,20.524 L9.707,22.297 L11.795,21.064 L10.140,22.836 L12.281,21.758 L10.408,23.298 L12.640,22.350 L10.767,23.890 L12.998,22.941 L11.125,24.481 L13.409,23.746 L11.361,25.057 L13.721,24.470 L11.673,25.781 L14.033,25.194 L11.852,26.303 L14.267,26.067 L12.024,26.992 L14.439,26.756 L12.196,27.681 L14.572,27.730 L12.186,28.189 L14.598,28.488 L12.212,28.947 L14.485,29.527 L12.551,29.320 L14.319,30.131 L11.922,29.797 L13.764,31.163 L12.068,30.195 L13.303,31.707 L11.637,29.930 L12.133,32.305 L11.134,30.627 L10.974,32.473 L10.856,30.056 L10.349,32.423 L10.193,30.484 L9.335,32.173 L9.878,29.805 L8.631,31.890 L9.174,29.522 L7.761,31.431 L8.809,29.243 L7.173,31.034 L8.221,28.846 L6.584,30.637 L7.792,28.499 L5.859,29.975 L7.218,27.958 L5.285,29.435 L6.644,27.418 L4.669,28.773 L6.324,27.000 L4.236,28.234 L5.891,26.461 L3.803,27.694 L5.458,25.922 L3.317,27.000 L5.190,25.460 L2.958,26.408 L4.831,24.868 L2.600,25.817 L4.472,24.277 L2.188,25.012 L4.237,23.700 L1.877,24.288 L3.925,22.977 L1.565,23.564 L3.745,22.454 L1.331,22.691 L3.573,21.766 L1.159,22.002 L3.402,21.077 L1.025,21.028 L3.411,20.569 L1.000,20.270 L3.386,19.811 L1.113,19.231 L3.510,19.565 L1.278,18.627 L3.213,18.834 L1.833,17.595 L3.896,18.873 L2.294,17.050 L2.756,17.576 L2.294,17.050 L2.756,17.576 L2.294,17.050 M42.387,17.826 L42.840,18.360 L42.387,17.826 L42.840,18.360 L42.387,17.826 M42.387,17.826 L41.702,18.873 L43.764,17.595 L42.163,19.418 L44.319,18.627 L42.551,19.438 L44.485,19.231 L42.254,20.169 L44.598,20.270 L42.186,20.569 L44.572,21.028 L42.161,21.327 L44.439,22.002 L42.024,21.766 L44.267,22.691 L41.852,22.454 L44.095,23.380 L41.673,22.977 L43.721,24.288 L41.361,23.700 L43.409,25.012 L41.049,24.424 L42.998,25.817 L40.767,24.868 L42.640,26.408 L40.408,25.460 L42.281,27.000 L40.049,26.051 L41.795,27.694 L39.707,26.461 L41.361,28.234 L39.274,27.000 L40.928,28.773 L38.841,27.540 L40.312,29.435 L38.380,27.958 L39.739,29.975 L37.806,28.499 L39.165,30.516 L37.377,28.846 L38.425,31.034 L36.788,29.243 L37.837,31.431 L36.200,29.640 L36.967,31.890 L35.719,29.805 L36.263,32.173 L35.015,30.088 L35.248,32.423 L34.781,30.534 L34.624,32.473 L34.118,30.107 L33.465,32.305 L33.794,30.380 L32.795,32.058 L33.896,29.884 L31.833,31.163 L33.068,29.650 L31.278,30.131 L33.510,29.193 L31.113,29.527 L32.881,28.716 L31.000,28.488 L33.411,28.189 L31.025,27.730 L33.437,27.430 L31.159,26.756 L33.573,26.992 L31.331,26.067 L33.745,26.303 L31.503,25.378 L33.925,25.781 L31.877,24.470 L34.237,25.057 L32.188,23.746 L34.548,24.334 L32.600,22.941 L34.831,23.890 L32.958,22.350 L35.190,23.298 L33.317,21.758 L35.548,22.707 L33.803,21.064 L35.891,22.297 L34.236,20.524 L36.324,21.757 L34.669,19.985 L36.757,21.218 L35.285,19.323 L37.218,20.800 L35.859,18.783 L37.792,20.259 L36.433,18.242 L38.221,19.912 L37.173,17.724 L38.809,19.515 L37.761,17.327 L39.398,19.118 L38.631,16.868 L39.878,18.953 L39.335,16.585 L40.582,18.670 L40.349,16.335 L40.856,18.702 L40.974,16.284 L41.441,18.173 L42.133,16.453 L41.637,18.828 L42.803,16.700 L42.467,17.314 L42.803,16.700 L42.467,17.314 L42.803,16.700 M3.210,58.932 L2.758,58.398 L3.210,58.932 L2.758,58.398 L3.210,58.932 M3.210,58.932 L3.896,57.884 L1.833,59.163 L3.434,57.340 L1.278,58.131 L3.047,57.320 L1.113,57.527 L3.344,56.589 L1.000,56.488 L3.411,56.189 L1.025,55.730 L3.437,55.430 L1.159,54.756 L3.573,54.992 L1.331,54.067 L3.745,54.303 L1.503,53.378 L3.925,53.781 L1.877,52.470 L4.237,53.057 L2.188,51.746 L4.548,52.334 L2.600,50.941 L4.831,51.890 L2.958,50.350 L5.190,51.298 L3.317,49.758 L5.548,50.707 L3.803,49.064 L5.891,50.297 L4.236,48.524 L6.324,49.757 L4.669,47.985 L6.757,49.218 L5.285,47.323 L7.218,48.800 L5.859,46.783 L7.792,48.259 L6.433,46.242 L8.221,47.912 L7.173,45.724 L8.809,47.515 L7.761,45.327 L9.398,47.118 L8.631,44.868 L9.878,46.953 L9.335,44.585 L10.582,46.670 L10.349,44.335 L10.817,46.223 L10.974,44.284 L11.480,46.651 L12.133,44.453 L11.803,46.378 L12.803,44.700 L11.702,46.873 L13.764,45.595 L12.530,47.108 L14.319,46.627 L12.088,47.565 L14.485,47.231 L12.717,48.042 L14.598,48.270 L12.186,48.569 L14.572,49.028 L12.161,49.327 L14.439,50.002 L12.024,49.766 L14.267,50.691 L11.852,50.454 L14.095,51.380 L11.673,50.977 L13.721,52.288 L11.361,51.700 L13.409,53.012 L11.049,52.424 L12.998,53.817 L10.767,52.868 L12.640,54.408 L10.408,53.460 L12.281,55.000 L10.049,54.051 L11.795,55.694 L9.707,54.461 L11.361,56.234 L9.274,55.000 L10.928,56.773 L8.841,55.540 L10.312,57.435 L8.380,55.958 L9.739,57.975 L7.806,56.499 L9.165,58.516 L7.377,56.846 L8.425,59.034 L6.788,57.243 L7.837,59.431 L6.200,57.640 L6.967,59.890 L5.719,57.805 L6.263,60.173 L5.015,58.088 L5.248,60.423 L4.742,58.056 L4.624,60.473 L4.156,58.585 L3.465,60.305 L3.960,57.930 L2.795,60.058 L3.131,59.444 L2.795,60.058 L3.131,59.444 L2.795,60.058 M42.387,58.932 L41.731,59.174 L42.387,58.932 L41.731,59.174 L42.387,58.932 M42.387,58.932 L41.637,57.930 L42.133,60.305 L40.968,58.177 L40.974,60.473 L40.817,58.534 L40.349,60.423 L40.231,58.005 L39.335,60.173 L39.878,57.805 L38.631,59.890 L39.174,57.522 L37.761,59.431 L38.809,57.243 L37.173,59.034 L38.221,56.846 L36.584,58.637 L37.792,56.499 L35.859,57.975 L37.218,55.958 L35.285,57.435 L36.644,55.418 L34.669,56.773 L36.324,55.000 L34.236,56.234 L35.891,54.461 L33.803,55.694 L35.458,53.922 L33.317,55.000 L35.190,53.460 L32.958,54.408 L34.831,52.868 L32.600,53.817 L34.472,52.277 L32.188,53.012 L34.237,51.700 L31.877,52.288 L33.925,50.977 L31.565,51.564 L33.745,50.454 L31.331,50.691 L33.573,49.766 L31.159,50.002 L33.402,49.077 L31.025,49.028 L33.411,48.569 L31.000,48.270 L33.386,47.811 L31.113,47.231 L33.047,47.438 L31.278,46.627 L33.676,46.961 L31.833,45.595 L33.529,46.563 L32.294,45.050 L33.960,46.828 L33.465,44.453 L34.464,46.131 L34.624,44.284 L34.742,46.702 L35.248,44.335 L35.405,46.274 L36.263,44.585 L35.719,46.953 L36.967,44.868 L36.423,47.236 L37.837,45.327 L36.788,47.515 L38.425,45.724 L37.377,47.912 L39.013,46.121 L37.806,48.259 L39.739,46.783 L38.380,48.800 L40.312,47.323 L38.953,49.340 L40.928,47.985 L39.274,49.757 L41.361,48.524 L39.707,50.297 L41.795,49.064 L40.140,50.836 L42.281,49.758 L40.408,51.298 L42.640,50.350 L40.767,51.890 L42.998,50.941 L41.125,52.481 L43.409,51.746 L41.361,53.057 L43.721,52.470 L41.673,53.781 L44.033,53.194 L41.852,54.303 L44.267,54.067 L42.024,54.992 L44.439,54.756 L42.196,55.681 L44.572,55.730 L42.186,56.189 L44.598,56.488 L42.212,56.947 L44.485,57.527 L42.088,57.193 L44.319,58.131 L42.385,57.924 L43.764,59.163 L41.702,57.884 L43.303,59.707 L42.841,59.182 L43.303,59.707 L42.841,59.182 L43.303,59.707 M22.799,2.379 L23.488,2.500 L22.799,2.379 L23.488,2.500 L22.799,2.379 M22.799,2.379 L22.945,3.826 L23.817,1.136 L23.721,3.962 L24.594,1.273 L24.235,3.547 L25.607,1.746 L24.543,4.357 L26.186,2.065 L25.393,4.186 L27.049,2.726 L25.295,4.938 L27.546,3.235 L25.792,5.446 L28.043,3.743 L26.019,5.752 L28.636,4.686 L26.400,6.414 L29.018,5.349 L26.782,7.077 L29.432,6.285 L26.858,7.437 L29.632,6.928 L27.058,8.081 L29.831,7.571 L27.257,8.724 L30.022,8.516 L27.269,9.136 L30.090,9.206 L27.337,9.826 L30.158,9.896 L27.406,10.516 L30.158,10.862 L27.337,10.932 L30.090,11.552 L27.269,11.622 L30.022,12.242 L27.201,12.312 L29.831,13.186 L27.058,12.677 L29.632,13.830 L26.858,13.320 L29.432,14.473 L26.658,13.964 L29.018,15.409 L26.400,14.343 L28.636,16.071 L26.019,15.006 L28.255,16.734 L25.792,15.311 L27.546,17.523 L25.295,15.820 L27.049,18.031 L24.798,16.329 L26.186,18.692 L24.543,16.401 L25.607,19.012 L23.964,16.721 L25.029,19.332 L23.721,16.796 L23.817,19.622 L23.042,17.483 L23.041,19.758 L22.653,16.932 L21.780,19.622 L21.779,17.347 L21.004,19.485 L21.633,16.721 L19.990,19.012 L20.784,16.891 L19.411,18.692 L20.476,16.082 L18.549,18.031 L20.303,15.820 L18.052,17.523 L19.806,15.311 L17.555,17.014 L19.579,15.006 L16.961,16.071 L19.197,14.343 L16.580,15.409 L18.816,13.681 L16.166,14.473 L18.740,13.320 L15.966,13.830 L18.540,12.677 L15.766,13.186 L18.340,12.034 L15.576,12.242 L18.328,11.622 L15.508,11.552 L18.260,10.932 L15.440,10.862 L18.192,10.241 L15.440,9.896 L18.260,9.826 L15.508,9.206 L18.328,9.136 L15.576,8.516 L18.397,8.446 L15.766,7.571 L18.540,8.081 L15.966,6.928 L18.740,7.437 L16.166,6.285 L18.940,6.794 L16.580,5.349 L19.197,6.414 L16.961,4.686 L19.579,5.752 L17.343,4.024 L19.806,5.446 L18.052,3.235 L20.303,4.938 L18.549,2.726 L20.800,4.429 L19.411,2.065 L21.055,4.357 L19.990,1.746 L21.633,4.037 L20.569,1.426 L21.779,3.411 L21.780,1.136 L22.653,3.826 L22.557,1.000 L22.581,1.700 L22.557,1.000 L22.581,1.700 L22.557,1.000"/>
  <path fill="none" stroke="#8c4a6b" stroke-width="0.4" stroke-linecap="round" stroke-linejoin="round" d="M20.199,6.379 L20.199,5.979 L20.199,6.379 L20.199,5.979 L20.199,6.379 L20.199,5.979 L20.199,6.379 L20.199,5.979 L20.199,6.379 L20.199,5.979 L20.199,6.379 L20.199,5.979 M25.399,6.379 L25.399,5.979 L25.399,6.379 L25.399,5.979 L25.399,6.379 L25.399,5.979 L25.399,6.379 L25.399,5.979 L25.399,6.379 L25.399,5.979 L25.399,6.379 L25.399,5.979"/>
  <path fill="none" stroke="#d9a441" stroke-width="0.4" stroke-linecap="round" stroke-linejoin="round" d="M22.799,18.879 L23.495,18.949 L22.799,18.879 L23.495,18.949 L22.799,18.879 M22.799,18.879 L23.027,20.409 L23.705,17.462 L23.783,20.485 L24.461,17.538 L24.539,20.561 L25.217,17.614 L24.997,20.654 L26.244,17.898 L25.734,20.880 L26.981,18.124 L26.472,21.106 L27.719,18.350 L26.929,21.296 L28.681,18.828 L27.630,21.666 L29.382,19.199 L28.330,22.036 L30.083,19.569 L28.735,22.294 L30.860,20.147 L29.289,22.727 L31.414,20.580 L29.844,23.160 L31.968,21.014 L30.398,23.594 L32.674,21.667 L30.711,23.965 L33.168,22.206 L31.205,24.504 L33.663,22.745 L31.700,25.042 L34.157,23.283 L32.016,25.447 L34.721,24.094 L32.439,26.078 L35.143,24.724 L32.861,26.709 L35.565,25.355 L33.283,27.339 L36.052,26.209 L33.517,27.862 L36.391,26.916 L33.857,28.569 L36.731,27.623 L34.196,29.276 L37.071,28.331 L34.401,29.779 L37.363,29.187 L34.618,30.449 L37.580,29.858 L34.836,31.120 L37.798,30.528 L35.054,31.790 L38.016,31.199 L35.181,32.292 L38.196,32.090 L35.314,32.998 L38.329,32.796 L35.447,33.704 L38.462,33.502 L35.580,34.409 L38.594,34.207 L35.645,34.939 L38.662,35.116 L35.690,35.662 L38.707,35.840 L35.735,36.386 L38.751,36.563 L35.779,37.110 L38.796,37.287 L35.779,37.648 L38.751,38.195 L35.735,38.372 L38.707,38.918 L35.690,39.095 L38.662,39.642 L35.645,39.819 L38.617,40.365 L35.580,40.348 L38.462,41.256 L35.447,41.054 L38.329,41.962 L35.314,41.760 L38.196,42.667 L35.181,42.465 L38.063,43.373 L35.054,42.968 L37.798,44.229 L34.836,43.638 L37.580,44.900 L34.618,44.309 L37.363,45.570 L34.401,44.979 L37.145,46.241 L34.196,45.482 L36.731,47.134 L33.857,46.189 L36.391,47.842 L33.517,46.896 L36.052,48.549 L33.177,47.604 L35.565,49.403 L32.861,48.049 L35.143,50.033 L32.439,48.680 L34.721,50.664 L32.016,49.311 L34.298,51.295 L31.700,49.716 L33.663,52.013 L31.205,50.254 L33.168,52.552 L30.711,50.793 L32.674,53.091 L30.217,51.332 L31.968,53.744 L29.844,51.597 L31.414,54.177 L29.289,52.031 L30.860,54.611 L28.735,52.464 L30.306,55.044 L28.330,52.721 L29.382,55.559 L27.630,53.092 L28.681,55.929 L26.929,53.462 L27.980,56.300 L26.472,53.652 L26.981,56.634 L25.734,53.878 L26.244,56.859 L24.997,54.104 L25.506,57.085 L24.539,54.197 L24.461,57.220 L23.783,54.273 L23.705,57.295 L23.027,54.348 L22.949,57.371 L22.571,54.348 L21.893,57.295 L21.815,54.273 L21.137,57.220 L21.058,54.197 L20.381,57.144 L20.601,54.104 L19.354,56.859 L19.864,53.878 L18.616,56.634 L19.126,53.652 L17.879,56.408 L18.669,53.462 L16.917,55.929 L17.968,53.092 L16.216,55.559 L17.267,52.721 L15.515,55.189 L16.863,52.464 L14.738,54.611 L16.308,52.031 L14.183,54.177 L15.754,51.597 L13.629,53.744 L15.200,51.164 L12.924,53.091 L14.887,50.793 L12.429,52.552 L14.392,50.254 L11.935,52.013 L13.898,49.716 L11.441,51.475 L13.581,49.311 L10.877,50.664 L13.159,48.680 L10.455,50.033 L12.737,48.049 L10.033,49.403 L12.315,47.419 L9.546,48.549 L12.081,46.896 L9.206,47.842 L11.741,46.189 L8.867,47.134 L11.401,45.482 L8.527,46.427 L11.197,44.979 L8.235,45.570 L10.979,44.309 L8.017,44.900 L10.762,43.638 L7.800,44.229 L10.544,42.968 L7.582,43.559 L10.416,42.465 L7.402,42.667 L10.283,41.760 L7.269,41.962 L10.151,41.054 L7.136,41.256 L10.018,40.348 L7.003,40.550 L9.952,39.819 L6.936,39.642 L9.908,39.095 L6.891,38.918 L9.863,38.372 L6.846,38.195 L9.818,37.648 L6.802,37.471 L9.818,37.110 L6.846,36.563 L9.863,36.386 L6.891,35.840 L9.908,35.662 L6.936,35.116 L9.952,34.939 L6.980,34.393 L10.018,34.409 L7.136,33.502 L10.151,33.704 L7.269,32.796 L10.283,32.998 L7.402,32.090 L10.416,32.292 L7.534,31.385 L10.544,31.790 L7.800,30.528 L10.762,31.120 L8.017,29.858 L10.979,30.449 L8.235,29.187 L11.197,29.779 L8.453,28.517 L11.401,29.276 L8.867,27.623 L11.741,28.569 L9.206,26.916 L12.081,27.862 L9.546,26.209 L12.420,27.154 L10.033,25.355 L12.737,26.709 L10.455,24.724 L13.159,26.078 L10.877,24.094 L13.581,25.447 L11.299,23.463 L13.898,25.042 L11.935,22.745 L14.392,24.504 L12.429,22.206 L14.887,23.965 L12.924,21.667 L15.381,23.426 L13.629,21.014 L15.754,23.160 L14.183,20.580 L16.308,22.727 L14.738,20.147 L16.863,22.294 L15.292,19.714 L17.267,22.036 L16.216,19.199 L17.968,21.666 L16.917,18.828 L18.669,21.296 L17.617,18.458 L19.126,21.106 L18.616,18.124 L19.864,20.880 L19.354,17.898 L20.601,20.654 L20.091,17.672 L21.058,20.561 L21.137,17.538 L21.815,20.485 L21.893,17.462 L22.571,20.409 L22.649,17.386 L22.631,18.086 L22.649,17.386 L22.631,18.086 L22.649,17.386 M22.799,20.379 L23.417,20.051 L22.799,20.379 L23.417,20.051 L22.799,20.379 L23.499,20.007 L22.099,19.636 L23.499,19.265 L22.099,18.893 L23.499,18.522 L22.099,18.150 L23.499,17.779 L23.170,17.079 L23.542,18.199 L23.913,17.079 L24.285,18.479 L24.656,17.079 L25.027,18.199 L25.399,17.079 L24.699,18.150 L26.099,18.522 L24.979,18.893 L26.099,19.265 L24.699,19.636 L26.099,20.007 L24.979,20.379 L25.027,21.079 L24.656,19.679 L24.285,21.079 L23.913,19.959 L23.542,21.079 L23.170,19.679 L22.799,21.079 L22.978,20.402 L22.799,21.079 L22.978,20.402 L22.799,21.079 M22.799,28.379 L23.417,28.051 L22.799,28.379 L23.417,28.051 L22.799,28.379 L23.499,28.007 L22.099,27.636 L23.499,27.265 L22.099,26.893 L23.499,26.522 L22.099,26.150 L23.499,25.779 L23.170,25.079 L23.542,26.199 L23.913,25.079 L24.285,26.479 L24.656,25.079 L25.027,26.199 L25.399,25.079 L24.699,26.150 L26.099,26.522 L24.979,26.893 L26.099,27.265 L24.699,27.636 L26.099,28.007 L24.979,28.379 L25.027,29.079 L24.656,27.679 L24.285,29.079 L23.913,27.959 L23.542,29.079 L23.170,27.679 L22.799,29.079 L22.978,28.402 L22.799,29.079 L22.978,28.402 L22.799,29.079 M22.799,36.379 L23.417,36.051 L22.799,36.379 L23.417,36.051 L22.799,36.379 L23.499,36.007 L22.099,35.636 L23.499,35.265 L22.099,34.893 L23.499,34.522 L22.099,34.150 L23.499,33.779 L23.170,33.079 L23.542,34.199 L23.913,33.079 L24.285,34.479 L24.656,33.079 L25.027,34.199 L25.399,33.079 L24.699,34.150 L26.099,34.522 L24.979,34.893 L26.099,35.265 L24.699,35.636 L26.099,36.007 L24.979,36.379 L25.027,37.079 L24.656,35.679 L24.285,37.079 L23.913,35.959 L23.542,37.079 L23.170,35.679 L22.799,37.079 L22.978,36.402 L22.799,37.079 L22.978,36.402 L22.799,37.079 M22.799,44.379 L23.417,44.051 L22.799,44.379 L23.417,44.051 L22.799,44.379 L23.499,44.007 L22.099,43.636 L23.499,43.265 L22.099,42.893 L23.499,42.522 L22.099,42.150 L23.499,41.779 L23.170,41.079 L23.542,42.199 L23.913,41.079 L24.285,42.479 L24.656,41.079 L25.027,42.199 L25.399,41.079 L24.699,42.150 L26.099,42.522 L24.979,42.893 L26.099,43.265 L24.699,43.636 L26.099,44.007 L24.979,44.379 L25.027,45.079 L24.656,43.679 L24.285,45.079 L23.913,43.959 L23.542,45.079 L23.170,43.679 L22.799,45.079 L22.978,44.402 L22.799,45.079 L22.978,44.402 L22.799,45.079 M22.799,52.379 L23.417,52.051 L22.799,52.379 L23.417,52.051 L22.799,52.379 L23.499,52.007 L22.099,51.636 L23.499,51.265 L22.099,50.893 L23.499,50.522 L22.099,50.150 L23.499,49.779 L23.170,49.079 L23.542,50.199 L23.913,49.079 L24.285,50.479 L24.656,49.079 L25.027,50.199 L25.399,49.079 L24.699,50.150 L26.099,50.522 L24.979,50.893 L26.099,51.265 L24.699,51.636 L26.099,52.007 L24.979,52.379 L25.027,53.079 L24.656,51.679 L24.285,53.079 L23.913,51.959 L23.542,53.079 L23.170,51.679 L22.799,53.079 L22.978,52.402 L22.799,53.079 L22.978,52.402 L22.799,53.079 M15.799,25.379 L16.413,25.043 L15.799,25.379 L16.413,25.043 L15.799,25.379 L16.499,24.996 L15.099,24.612 L16.499,24.229 L15.099,23.846 L16.499,23.462 L15.099,23.079 L16.182,23.499 L16.566,22.379 L16.949,23.779 L17.332,22.379 L17.716,23.499 L18.099,22.379 L17.399,23.462 L18.799,23.846 L17.679,24.229 L18.799,24.612 L17.399,24.996 L18.799,25.379 L17.716,24.959 L17.332,26.079 L16.949,24.679 L16.566,26.079 L16.182,24.959 L15.799,26.079 L16.026,25.417 L15.799,26.079 L16.026,25.417 L15.799,26.079 M29.799,25.379 L30.413,25.043 L29.799,25.379 L30.413,25.043 L29.799,25.379 L30.499,24.996 L29.099,24.612 L30.499,24.229 L29.099,23.846 L30.499,23.462 L29.099,23.079 L30.182,23.499 L30.566,22.379 L30.949,23.779 L31.332,22.379 L31.716,23.499 L32.099,22.379 L31.399,23.462 L32.799,23.846 L31.679,24.229 L32.799,24.612 L31.399,24.996 L32.799,25.379 L31.716,24.959 L31.332,26.079 L30.949,24.679 L30.566,26.079 L30.182,24.959 L29.799,26.079 L30.026,25.417 L29.799,26.079 L30.026,25.417 L29.799,26.079 M15.799,34.379 L16.413,34.043 L15.799,34.379 L16.413,34.043 L15.799,34.379 L16.499,33.996 L15.099,33.612 L16.499,33.229 L15.099,32.846 L16.499,32.462 L15.099,32.079 L16.182,32.499 L16.566,31.379 L16.949,32.779 L17.332,31.379 L17.716,32.499 L18.099,31.379 L17.399,32.462 L18.799,32.846 L17.679,33.229 L18.799,33.612 L17.399,33.996 L18.799,34.379 L17.716,33.959 L17.332,35.079 L16.949,33.679 L16.566,35.079 L16.182,33.959 L15.799,35.079 L16.026,34.417 L15.799,35.079 L16.026,34.417 L15.799,35.079 M29.799,34.379 L30.413,34.043 L29.799,34.379 L30.413,34.043 L29.799,34.379 L30.499,33.996 L29.099,33.612 L30.499,33.229 L29.099,32.846 L30.499,32.462 L29.099,32.079 L30.182,32.499 L30.566,31.379 L30.949,32.779 L31.332,31.379 L31.716,32.499 L32.099,31.379 L31.399,32.462 L32.799,32.846 L31.679,33.229 L32.799,33.612 L31.399,33.996 L32.799,34.379 L31.716,33.959 L31.332,35.079 L30.949,33.679 L30.566,35.079 L30.182,33.959 L29.799,35.079 L30.026,34.417 L29.799,35.079 L30.026,34.417 L29.799,35.079 M15.799,43.379 L16.413,43.043 L15.799,43.379 L16.413,43.043 L15.799,43.379 L16.499,42.996 L15.099,42.612 L16.499,42.229 L15.099,41.846 L16.499,41.462 L15.099,41.079 L16.182,41.499 L16.566,40.379 L16.949,41.779 L17.332,40.379 L17.716,41.499 L18.099,40.379 L17.399,41.462 L18.799,41.846 L17.679,42.229 L18.799,42.612 L17.399,42.996 L18.799,43.379 L17.716,42.959 L17.332,44.079 L16.949,42.679 L16.566,44.079 L16.182,42.959 L15.799,44.079 L16.026,43.417 L15.799,44.079 L16.026,43.417 L15.799,44.079 M29.799,43.379 L30.413,43.043 L29.799,43.379 L30.413,43.043 L29.799,43.379 L30.499,42.996 L29.099,42.612 L30.499,42.229 L29.099,41.846 L30.499,41.462 L29.099,41.079 L30.182,41.499 L30.566,40.379 L30.949,41.779 L31.332,40.379 L31.716,41.499 L32.099,40.379 L31.399,41.462 L32.799,41.846 L31.679,42.229 L32.799,42.612 L31.399,42.996 L32.799,43.379 L31.716,42.959 L31.332,44.079 L30.949,42.679 L30.566,44.079 L30.182,42.959 L29.799,44.079 L30.026,43.417 L29.799,44.079 L30.026,43.417 L29.799,44.079"/>
  <path fill="none" stroke="#8c4a6b" stroke-width="0.4" stroke-linecap="round" stroke-linejoin="round" d="M19.296,37.202 L19.296,36.902 L19.296,37.202 L19.296,36.902 L19.296,37.202 L19.296,36.902 L19.296,37.202 L19.296,36.902 L19.296,37.202 L19.296,36.902 L19.296,37.202 L19.296,36.902 M23.304,32.357 L23.304,32.057 L23.304,32.357 L23.304,32.057 L23.304,32.357 L23.304,32.057 L23.304,32.357 L23.304,32.057 L23.304,32.357 L23.304,32.057 L23.304,32.357 L23.304,32.057 M27.200,30.327 L27.200,30.027 L27.200,30.327 L27.200,30.027 L27.200,30.327 L27.200,30.027 L27.200,30.327 L27.200,30.027 L27.200,30.327 L27.200,30.027 L27.200,30.327 L27.200,30.027 M16.790,31.457 L16.790,31.157 L16.790,31.457 L16.790,31.157 L16.790,31.457 L16.790,31.157 L16.790,31.457 L16.790,31.157 L16.790,31.457 L16.790,31.157 L16.790,31.457 L16.790,31.157 M31.049,32.304 L31.049,32.004 L31.049,32.304 L31.049,32.004 L31.049,32.304 L31.049,32.004 L31.049,32.304 L31.049,32.004 L31.049,32.304 L31.049,32.004 L31.049,32.304 L31.049,32.004 M22.909,42.127 L22.909,41.827 L22.909,42.127 L22.909,41.827 L22.909,42.127 L22.909,41.827 L22.909,42.127 L22.909,41.827 L22.909,42.127 L22.909,41.827 L22.909,42.127 L22.909,41.827 M13.863,34.876 L13.863,34.576 L13.863,34.876 L13.863,34.576 L13.863,34.876 L13.863,34.576 L13.863,34.876 L13.863,34.576 L13.863,34.876 L13.863,34.576 L13.863,34.876 L13.863,34.576 M27.020,38.439 L27.020,38.139 L27.020,38.439 L27.020,38.139 L27.020,38.439 L27.020,38.139 L27.020,38.439 L27.020,38.139 L27.020,38.439 L27.020,38.139 L27.020,38.439 L27.020,38.139 M15.908,24.698 L15.908,24.398 L15.908,24.698 L15.908,24.398 L15.908,24.698 L15.908,24.398 L15.908,24.698 L15.908,24.398 L15.908,24.698 L15.908,24.398 L15.908,24.698 L15.908,24.398 M27.009,26.266 L27.009,25.966 L27.009,26.266 L27.009,25.966 L27.009,26.266 L27.009,25.966 L27.009,26.266 L27.009,25.966 L27.009,26.266 L27.009,25.966 L27.009,26.266 L27.009,25.966 M21.412,24.714 L21.412,24.414 L21.412,24.714 L21.412,24.414 L21.412,24.714 L21.412,24.414 L21.412,24.714 L21.412,24.414 L21.412,24.714 L21.412,24.414 L21.412,24.714 L21.412,24.414 M30.888,36.389 L30.888,36.089 L30.888,36.389 L30.888,36.089 L30.888,36.389 L30.888,36.089 L30.888,36.389 L30.888,36.089 L30.888,36.389 L30.888,36.089 L30.888,36.389 L30.888,36.089 M31.382,24.876 L31.382,24.576 L31.382,24.876 L31.382,24.576 L31.382,24.876 L31.382,24.576 L31.382,24.876 L31.382,24.576 L31.382,24.876 L31.382,24.576 L31.382,24.876 L31.382,24.576 M12.623,39.214 L12.623,38.914 L12.623,39.214 L12.623,38.914 L12.623,39.214 L12.623,38.914 L12.623,39.214 L12.623,38.914 L12.623,39.214 L12.623,38.914 L12.623,39.214 L12.623,38.914 M10.512,32.056 L10.512,31.756 L10.512,32.056 L10.512,31.756 L10.512,32.056 L10.512,31.756 L10.512,32.056 L10.512,31.756 L10.512,32.056 L10.512,31.756 L10.512,32.056 L10.512,31.756 M37.018,36.817 L37.018,36.517 L37.018,36.817 L37.018,36.517 L37.018,36.817 L37.018,36.517 L37.018,36.817 L37.018,36.517 L37.018,36.817 L37.018,36.517 L37.018,36.817 L37.018,36.517 M11.298,26.790 L11.298,26.490 L11.298,26.790 L11.298,26.490 L11.298,26.790 L11.298,26.490 L11.298,26.790 L11.298,26.490 L11.298,26.790 L11.298,26.490 L11.298,26.790 L11.298,26.490 M16.206,41.135 L16.206,40.835 L16.206,41.135 L16.206,40.835 L16.206,41.135 L16.206,40.835 L16.206,41.135 L16.206,40.835 L16.206,41.135 L16.206,40.835 L16.206,41.135 L16.206,40.835 M27.022,22.187 L27.022,21.887 L27.022,22.187 L27.022,21.887 L27.022,22.187 L27.022,21.887 L27.022,22.187 L27.022,21.887 L27.022,22.187 L27.022,21.887 L27.022,22.187 L27.022,21.887 M12.100,44.612 L12.100,44.312 L12.100,44.612 L12.100,44.312 L12.100,44.612 L12.100,44.312 L12.100,44.612 L12.100,44.312 L12.100,44.612 L12.100,44.312 L12.100,44.612 L12.100,44.312 M22.970,19.369 L22.970,19.069 L22.970,19.369 L22.970,19.069 L22.970,19.369 L22.970,19.069 L22.970,19.369 L22.970,19.069 L22.970,19.369 L22.970,19.069 L22.970,19.369 L22.970,19.069 M15.942,46.894 L15.942,46.594 L15.942,46.894 L15.942,46.594 L15.942,46.894 L15.942,46.594 L15.942,46.894 L15.942,46.594 L15.942,46.894 L15.942,46.594 L15.942,46.894 L15.942,46.594 M18.921,49.852 L18.921,49.552 L18.921,49.852 L18.921,49.552 L18.921,49.852 L18.921,49.552 L18.921,49.852 L18.921,49.552 L18.921,49.852 L18.921,49.552 L18.921,49.852 L18.921,49.552 M29.043,44.582 L29.043,44.282 L29.043,44.582 L29.043,44.282 L29.043,44.582 L29.043,44.282 L29.043,44.582 L29.043,44.282 L29.043,44.582 L29.043,44.282 L29.043,44.582 L29.043,44.282 M19.049,20.383 L19.049,20.083 L19.049,20.383 L19.049,20.083 L19.049,20.383 L19.049,20.083 L19.049,20.383 L19.049,20.083 L19.049,20.383 L19.049,20.083 L19.049,20.383 L19.049,20.083 M32.543,41.984 L32.543,41.684 L32.543,41.984 L32.543,41.684 L32.543,41.984 L32.543,41.684 L32.543,41.984 L32.543,41.684 L32.543,41.984 L32.543,41.684 L32.543,41.984 L32.543,41.684 M30.858,50.023 L30.858,49.723 L30.858,50.023 L30.858,49.723 L30.858,50.023 L30.858,49.723 L30.858,50.023 L30.858,49.723 L30.858,50.023 L30.858,49.723 L30.858,50.023 L30.858,49.723 M35.513,32.215 L35.513,31.915 L35.513,32.215 L35.513,31.915 L35.513,32.215 L35.513,31.915 L35.513,32.215 L35.513,31.915 L35.513,32.215 L35.513,31.915 L35.513,32.215 L35.513,31.915 M25.100,50.691 L25.100,50.391 L25.100,50.691 L25.100,50.391 L25.100,50.691 L25.100,50.391 L25.100,50.691 L25.100,50.391 L25.100,50.691 L25.100,50.391 L25.100,50.691 L25.100,50.391 M14.817,52.217 L14.817,51.917 L14.817,52.217 L14.817,51.917 L14.817,52.217 L14.817,51.917 L14.817,52.217 L14.817,51.917 L14.817,52.217 L14.817,51.917 L14.817,52.217 L14.817,51.917 M8.996,36.845 L8.996,36.545 L8.996,36.845 L8.996,36.545 L8.996,36.845 L8.996,36.545 L8.996,36.845 L8.996,36.545 L8.996,36.845 L8.996,36.545 L8.996,36.845 L8.996,36.545 M22.137,46.182 L22.137,45.882 L22.137,46.182 L22.137,45.882 L22.137,46.182 L22.137,45.882 L22.137,46.182 L22.137,45.882 L22.137,46.182 L22.137,45.882 L22.137,46.182 L22.137,45.882 M19.971,55.360 L19.971,55.060 L19.971,55.360 L19.971,55.060 L19.971,55.360 L19.971,55.060 L19.971,55.360 L19.971,55.060 L19.971,55.360 L19.971,55.060 L19.971,55.360 L19.971,55.060 M27.851,54.293 L27.851,53.993 L27.851,54.293 L27.851,53.993 L27.851,54.293 L27.851,53.993 L27.851,54.293 L27.851,53.993 L27.851,54.293 L27.851,53.993 L27.851,54.293 L27.851,53.993 M34.621,28.218 L34.621,27.918 L34.621,28.218 L34.621,27.918 L34.621,28.218 L34.621,27.918 L34.621,28.218 L34.621,27.918 L34.621,28.218 L34.621,27.918 L34.621,28.218 L34.621,27.918 M33.980,46.234 L33.980,45.934 L33.980,46.234 L33.980,45.934 L33.980,46.234 L33.980,45.934 L33.980,46.234 L33.980,45.934 L33.980,46.234 L33.980,45.934 L33.980,46.234 L33.980,45.934 M8.801,41.946 L8.801,41.646 L8.801,41.946 L8.801,41.646 L8.801,41.946 L8.801,41.646 L8.801,41.946 L8.801,41.646 L8.801,41.946 L8.801,41.646 L8.801,41.946 L8.801,41.646 M11.783,48.769 L11.783,48.469 L11.783,48.769 L11.783,48.469 L11.783,48.769 L11.783,48.469 L11.783,48.769 L11.783,48.469 L11.783,48.769 L11.783,48.469 L11.783,48.769 L11.783,48.469"/>
</svg>
