<svg xmlns="http://www.w3.org/2000/svg" viewBox="0 -1.276 61.053 61.053" width="256" height="256">
  <title>venn</title>
  <rect x="0" y="-1.276" width="61.053" height="61.053" fill="#f5efe4"/>
  <path fill="none" stroke="#31604f" stroke-width="0.4" stroke-linecap="round" stroke-linejoin="round" d="M21.808,39.000 L22.508,39.000 L21.808,39.000 L22.508,39.000 L21.808,39.000 L23.746,39.000 L25.683,39.000 L27.620,39.000 L29.558,39.000 L31.495,39.000 L33.432,39.000 L35.370,39.000 L37.307,39.000 L39.244,39.000 M40.856,39.892 L39.856,38.160 L38.856,36.428 L37.856,34.696 L36.856,32.964 L35.856,31.232 L34.856,29.500 L33.856,27.768 L32.856,26.036 L31.856,24.304 L30.856,22.572 L29.856,20.840 L28.856,19.108 M28.823,20.950 L27.854,22.628 L26.886,24.306 L25.917,25.983 L24.948,27.661 L23.980,29.339 L23.011,31.017 L22.042,32.694 L21.074,34.372 L20.105,36.050 M18.526,37.000 L20.526,37.000 L22.526,37.000 L24.526,37.000 L26.526,37.000 L28.526,37.000 L30.526,37.000 L32.526,37.000 L34.526,37.000 L36.526,37.000 L38.526,37.000 L40.526,37.000 L42.526,37.000 M41.000,37.500 L40.985,36.715 L40.938,35.931 L40.861,35.149 L40.754,34.371 L40.616,33.598 L40.447,32.831 L40.249,32.071 L40.021,31.320 L39.764,30.578 L39.478,29.846 L39.163,29.127 L38.820,28.420 L38.450,27.728 L38.053,27.050 L37.629,26.389 L37.180,25.744 L36.706,25.118 L36.208,24.511 L35.686,23.924 L35.142,23.358 L34.576,22.814 L33.989,22.292 L33.382,21.794 L32.756,21.320 L32.111,20.871 L31.450,20.447 L30.772,20.050 L30.080,19.680 L29.373,19.337 L28.654,19.022 L27.922,18.736 L27.180,18.479 L26.429,18.251 L25.669,18.053 L24.902,17.884 L24.129,17.746 L23.351,17.639 L22.569,17.562 L21.785,17.515 L21.000,17.500 L20.215,17.515 L19.431,17.562 L18.649,17.639 L17.871,17.746 L17.098,17.884 L16.331,18.053 L15.571,18.251 L14.820,18.479 L14.078,18.736 L13.346,19.022 L12.627,19.337 L11.920,19.680 L11.228,20.050 L10.550,20.447 L9.889,20.871 L9.244,21.320 L8.618,21.794 L8.011,22.292 L7.424,22.814 L6.858,23.358 L6.314,23.924 L5.792,24.511 L5.294,25.118 L4.820,25.744 L4.371,26.389 L3.947,27.050 L3.550,27.728 L3.180,28.420 L2.837,29.127 L2.522,29.846 L2.236,30.578 L1.979,31.320 L1.751,32.071 L1.553,32.831 L1.384,33.598 L1.246,34.371 L1.139,35.149 L1.062,35.931 L1.015,36.715 L1.000,37.500 L1.015,38.285 L1.062,39.069 L1.139,39.851 L1.246,40.629 L1.384,41.402 L1.553,42.169 L1.751,42.929 L1.979,43.680 L2.236,44.422 L2.522,45.154 L2.837,45.873 L3.180,46.580 L3.550,47.272 L3.947,47.950 L4.371,48.611 L4.820,49.256 L5.294,49.882 L5.792,50.489 L6.314,51.076 L6.858,51.642 L7.424,52.186 L8.011,52.708 L8.618,53.206 L9.244,53.680 L9.889,54.129 L10.550,54.553 L11.228,54.950 L11.920,55.320 L12.627,55.663 L13.346,55.978 L14.078,56.264 L14.820,56.521 L15.571,56.749 L16.331,56.947 L17.098,57.116 L17.871,57.254 L18.649,57.361 L19.431,57.438 L20.215,57.485 L21.000,57.500 L21.785,57.485 L22.569,57.438 L23.351,57.361 L24.129,57.254 L24.902,57.116 L25.669,56.947 L26.429,56.749 L27.180,56.521 L27.922,56.264 L28.654,55.978 L29.373,55.663 L30.080,55.320 L30.772,54.950 L31.450,54.553 L32.111,54.129 L32.756,53.680 L33.382,53.206 L33.989,52.708 L34.576,52.186 L35.142,51.642 L35.686,51.076 L36.208,50.489 L36.706,49.882 L37.180,49.256 L37.629,48.611 L38.053,47.950 L38.450,47.272 L38.820,46.580 L39.163,45.873 L39.478,45.154 L39.764,44.422 L40.021,43.680 L40.249,42.929 L40.447,42.169 L40.616,41.402 L40.754,40.629 L40.861,39.851 L40.938,39.069 L40.985,38.285 L41.000,37.500 M40.947,36.050 L39.979,34.372 L39.010,32.694 L38.041,31.017 L37.073,29.339 L36.104,27.661 L35.135,25.983 L34.167,24.306 L33.198,22.628 L32.230,20.950 M32.196,19.108 L31.196,20.840 L30.196,22.572 L29.196,24.304 L28.196,26.036 L27.196,27.768 L26.196,29.500 L25.196,31.232 L24.196,32.964 L23.196,34.696 L22.196,36.428 L21.196,38.160 L20.196,39.892 M20.787,42.869 L21.739,41.220 L22.691,39.571 L23.643,37.922 L24.596,36.272 L25.548,34.623 L26.500,32.974 L27.452,31.325 L28.404,29.675 L29.356,28.026 L30.309,26.377 L31.261,24.728 L32.213,23.078 L33.165,21.429 L34.117,19.780 L35.070,18.131 M37.660,17.644 L36.660,19.376 L35.660,21.108 L34.660,22.840 L33.660,24.572 L32.660,26.304 L31.660,28.036 L30.660,29.768 L29.660,31.500 L28.660,33.232 L27.660,34.964 L26.660,36.696 L25.660,38.428 L24.660,40.160 L23.660,41.892 L22.660,43.624 L21.660,45.356 M22.732,47.500 L23.694,45.833 L24.657,44.167 L25.619,42.500 L26.581,40.833 L27.543,39.167 L28.506,37.500 L29.468,35.833 L30.430,34.167 L31.392,32.500 L32.355,30.833 L33.317,29.167 L34.279,27.500 L35.241,25.833 L36.204,24.167 L37.166,22.500 L38.128,20.833 L39.090,19.167 L40.053,17.500 M42.290,17.625 L41.325,19.296 L40.360,20.967 L39.395,22.638 L38.430,24.309 L37.466,25.980 L36.501,27.651 L35.536,29.322 L34.571,30.993 L33.607,32.664 L32.642,34.336 L31.677,36.007 L30.712,37.678 L29.748,39.349 L28.783,41.020 L27.818,42.691 L26.853,44.362 L25.889,46.033 L24.924,47.704 L23.959,49.375 M25.317,51.023 L26.271,49.370 L27.225,47.718 L28.179,46.066 L29.133,44.414 L30.087,42.761 L31.041,41.109 L31.995,39.457 L32.949,37.805 L33.902,36.152 L34.856,34.500 L35.810,32.848 L36.764,31.195 L37.718,29.543 L38.672,27.891 L39.626,26.239 L40.580,24.586 L41.534,22.934 L42.488,21.282 L43.442,19.630 L44.396,17.977 M46.386,18.529 L45.407,20.226 L44.427,21.924 L43.447,23.621 L42.467,25.318 L41.487,27.015 L40.508,28.712 L39.528,30.409 L38.548,32.106 L37.568,33.803 L36.588,35.500 L35.609,37.197 L34.629,38.894 L33.649,40.591 L32.669,42.288 L31.689,43.985 L30.710,45.682 L29.730,47.379 L28.750,49.076 L27.770,50.774 L26.790,52.471 M28.371,53.734 L29.366,52.010 L30.361,50.287 L31.356,48.564 L32.351,46.840 L33.346,45.117 L34.341,43.393 L35.336,41.670 L36.331,39.947 L37.326,38.223 L38.321,36.500 L39.315,34.777 L40.310,33.053 L41.305,31.330 L42.300,29.607 L43.295,27.883 L44.290,26.160 L45.285,24.436 L46.280,22.713 L47.275,20.990 L48.270,19.266 M50.053,20.179 L49.053,21.912 L48.053,23.644 L47.053,25.376 L46.053,27.108 L45.053,28.840 L44.053,30.572 L43.053,32.304 L42.053,34.036 L41.053,35.768 L40.053,37.500 L39.053,39.232 L38.053,40.964 L37.053,42.696 L36.053,44.428 L35.053,46.160 L34.053,47.892 L33.053,49.624 L32.053,51.356 L31.053,53.088 L30.053,54.821 M31.000,54.821 L30.000,53.088 L29.000,51.356 L28.000,49.624 L27.000,47.892 L26.000,46.160 L25.000,44.428 L24.000,42.696 L23.000,40.964 L22.000,39.232 L21.000,37.500 L20.000,35.768 L19.000,34.036 L18.000,32.304 L17.000,30.572 L16.000,28.840 L15.000,27.108 L14.000,25.376 L13.000,23.644 L12.000,21.912 L11.000,20.179 M10.526,21.000 L12.526,21.000 L14.526,21.000 L16.526,21.000 L18.526,21.000 L20.526,21.000 L22.526,21.000 L24.526,21.000 L26.526,21.000 L28.526,21.000 L30.526,21.000 L32.526,21.000 L34.526,21.000 L36.526,21.000 L38.526,21.000 L40.526,21.000 L42.526,21.000 L44.526,21.000 L46.526,21.000 L48.526,21.000 L50.526,21.000 M50.526,21.000 L50.511,20.215 L50.465,19.431 L50.388,18.649 L50.280,17.871 L50.142,17.098 L49.974,16.331 L49.775,15.571 L49.547,14.820 L49.290,14.078 L49.004,13.346 L48.689,12.627 L48.346,11.920 L47.976,11.228 L47.579,10.550 L47.156,9.889 L46.707,9.244 L46.233,8.618 L45.734,8.011 L45.213,7.424 L44.668,6.858 L44.102,6.314 L43.515,5.792 L42.908,5.294 L42.282,4.820 L41.638,4.371 L40.976,3.947 L40.299,3.550 L39.606,3.180 L38.899,2.837 L38.180,2.522 L37.449,2.236 L36.707,1.979 L35.955,1.751 L35.195,1.553 L34.428,1.384 L33.655,1.246 L32.877,1.139 L32.095,1.062 L31.311,1.015 L30.526,1.000 L29.741,1.015 L28.957,1.062 L28.176,1.139 L27.398,1.246 L26.624,1.384 L25.857,1.553 L25.097,1.751 L24.346,1.979 L23.604,2.236 L22.873,2.522 L22.153,2.837 L21.446,3.180 L20.754,3.550 L20.076,3.947 L19.415,4.371 L18.771,4.820 L18.144,5.294 L17.537,5.792 L16.950,6.314 L16.384,6.858 L15.840,7.424 L15.318,8.011 L14.820,8.618 L14.346,9.244 L13.897,9.889 L13.473,10.550 L13.076,11.228 L12.706,11.920 L12.363,12.627 L12.049,13.346 L11.762,14.078 L11.505,14.820 L11.277,15.571 L11.079,16.331 L10.911,17.098 L10.773,17.871 L10.665,18.649 L10.588,19.431 L10.542,20.215 L10.526,21.000 L10.542,21.785 L10.588,22.569 L10.665,23.351 L10.773,24.129 L10.911,24.902 L11.079,25.669 L11.277,26.429 L11.505,27.180 L11.762,27.922 L12.049,28.654 L12.363,29.373 L12.706,30.080 L13.076,30.772 L13.473,31.450 L13.897,32.111 L14.346,32.756 L14.820,33.382 L15.318,33.989 L15.840,34.576 L16.384,35.142 L16.950,35.686 L17.537,36.208 L18.144,36.706 L18.771,37.180 L19.415,37.629 L20.076,38.053 L20.754,38.450 L21.446,38.820 L22.153,39.163 L22.873,39.478 L23.604,39.764 L24.346,40.021 L25.097,40.249 L25.857,40.447 L26.624,40.616 L27.398,40.754 L28.176,40.861 L28.957,40.938 L29.741,40.985 L30.526,41.000 L31.311,40.985 L32.095,40.938 L32.877,40.861 L33.655,40.754 L34.428,40.616 L35.195,40.447 L35.955,40.249 L36.707,40.021 L37.449,39.764 L38.180,39.478 L38.899,39.163 L39.606,38.820 L40.299,38.450 L40.976,38.053 L41.638,37.629 L42.282,37.180 L42.908,36.706 L43.515,36.208 L44.102,35.686 L44.668,35.142 L45.213,34.576 L45.734,33.989 L46.233,33.382 L46.707,32.756 L47.156,32.111 L47.579,31.450 L47.976,30.772 L48.346,30.080 L48.689,29.373 L49.004,28.654 L49.290,27.922 L49.547,27.180 L49.775,26.429 L49.974,25.669 L50.142,24.902 L50.280,24.129 L50.388,23.351 L50.465,22.569 L50.511,21.785 L50.526,21.000 M51.734,21.266 L50.739,22.990 L49.745,24.713 L48.750,26.436 L47.755,28.160 L46.760,29.883 L45.765,31.607 L44.770,33.330 L43.775,35.053 L42.780,36.777 L41.785,38.500 L40.790,40.223 L39.795,41.947 L38.800,43.670 L37.805,45.393 L36.810,47.117 L35.815,48.840 L34.820,50.564 L33.825,52.287 L32.830,54.010 L31.835,55.734 M33.719,56.471 L34.698,54.774 L35.678,53.076 L36.658,51.379 L37.638,49.682 L38.618,47.985 L39.597,46.288 L40.577,44.591 L41.557,42.894 L42.537,41.197 L43.517,39.500 L44.496,37.803 L45.476,36.106 L46.456,34.409 L47.436,32.712 L48.416,31.015 L49.395,29.318 L50.375,27.621 L51.355,25.924 L52.335,24.226 L53.315,22.529 M54.788,23.977 L53.834,25.630 L52.880,27.282 L51.926,28.934 L50.972,30.586 L50.018,32.239 L49.064,33.891 L48.111,35.543 L47.157,37.195 L46.203,38.848 L45.249,40.500 L44.295,42.152 L43.341,43.805 L42.387,45.457 L41.433,47.109 L40.479,48.761 L39.525,50.414 L38.571,52.066 L37.617,53.718 L36.663,55.370 L35.709,57.023 M37.816,57.375 L38.780,55.704 L39.745,54.033 L40.710,52.362 L41.675,50.691 L42.639,49.020 L43.604,47.349 L44.569,45.678 L45.534,44.007 L46.498,42.336 L47.463,40.664 L48.428,38.993 L49.393,37.322 L50.357,35.651 L51.322,33.980 L52.287,32.309 L53.252,30.638 L54.216,28.967 L55.181,27.296 L56.146,25.625 M57.373,27.500 L56.411,29.167 L55.449,30.833 L54.486,32.500 L53.524,34.167 L52.562,35.833 L51.600,37.500 L50.637,39.167 L49.675,40.833 L48.713,42.500 L47.751,44.167 L46.788,45.833 L45.826,47.500 L44.864,49.167 L43.902,50.833 L42.939,52.500 L41.977,54.167 L41.015,55.833 L40.053,57.500 M42.445,57.356 L43.445,55.624 L44.445,53.892 L45.445,52.160 L46.445,50.428 L47.445,48.696 L48.445,46.964 L49.445,45.232 L50.445,43.500 L51.445,41.768 L52.445,40.036 L53.445,38.304 L54.445,36.572 L55.445,34.840 L56.445,33.108 L57.445,31.376 L58.445,29.644 M59.318,32.131 L58.366,33.780 L57.414,35.429 L56.462,37.078 L55.510,38.728 L54.557,40.377 L53.605,42.026 L52.653,43.675 L51.701,45.325 L50.749,46.974 L49.796,48.623 L48.844,50.272 L47.892,51.922 L46.940,53.571 L45.988,55.220 L45.035,56.869 M47.909,55.892 L48.832,54.293 L49.755,52.695 L50.678,51.096 L51.601,49.497 L52.524,47.898 L53.447,46.299 L54.371,44.701 L55.294,43.102 L56.217,41.503 L57.140,39.904 L58.063,38.305 L58.986,36.707 L59.909,35.108 M60.053,37.500 L60.037,36.715 L59.991,35.931 L59.914,35.149 L59.806,34.371 L59.668,33.598 L59.500,32.831 L59.302,32.071 L59.074,31.320 L58.816,30.578 L58.530,29.846 L58.215,29.127 L57.873,28.420 L57.502,27.728 L57.105,27.050 L56.682,26.389 L56.233,25.744 L55.759,25.118 L55.261,24.511 L54.739,23.924 L54.195,23.358 L53.629,22.814 L53.042,22.292 L52.434,21.794 L51.808,21.320 L51.164,20.871 L50.503,20.447 L49.825,20.050 L49.132,19.680 L48.426,19.337 L47.706,19.022 L46.975,18.736 L46.233,18.479 L45.481,18.251 L44.721,18.053 L43.954,17.884 L43.181,17.746 L42.403,17.639 L41.622,17.562 L40.838,17.515 L40.053,17.500 L39.267,17.515 L38.483,17.562 L37.702,17.639 L36.924,17.746 L36.151,17.884 L35.384,18.053 L34.624,18.251 L33.872,18.479 L33.130,18.736 L32.399,19.022 L31.679,19.337 L30.973,19.680 L30.280,20.050 L29.603,20.447 L28.941,20.871 L28.297,21.320 L27.671,21.794 L27.064,22.292 L26.477,22.814 L25.910,23.358 L25.366,23.924 L24.844,24.511 L24.346,25.118 L23.872,25.744 L23.423,26.389 L23.000,27.050 L22.603,27.728 L22.232,28.420 L21.890,29.127 L21.575,29.846 L21.289,30.578 L21.031,31.320 L20.803,32.071 L20.605,32.831 L20.437,33.598 L20.299,34.371 L20.191,35.149 L20.114,35.931 L20.068,36.715 L20.053,37.500 L20.068,38.285 L20.114,39.069 L20.191,39.851 L20.299,40.629 L20.437,41.402 L20.605,42.169 L20.803,42.929 L21.031,43.680 L21.289,44.422 L21.575,45.154 L21.890,45.873 L22.232,46.580 L22.603,47.272 L23.000,47.950 L23.423,48.611 L23.872,49.256 L24.346,49.882 L24.844,50.489 L25.366,51.076 L25.910,51.642 L26.477,52.186 L27.064,52.708 L27.671,53.206 L28.297,53.680 L28.941,54.129 L29.603,54.553 L30.280,54.950 L30.973,55.320 L31.679,55.663 L32.399,55.978 L33.130,56.264 L33.872,56.521 L34.624,56.749 L35.384,56.947 L36.151,57.116 L36.924,57.254 L37.702,57.361 L38.483,57.438 L39.267,57.485 L40.053,57.500 L40.838,57.485 L41.622,57.438 L42.403,57.361 L43.181,57.254 L43.954,57.116 L44.721,56.947 L45.481,56.749 L46.233,56.521 L46.975,56.264 L47.706,55.978 L48.426,55.663 L49.132,55.320 L49.825,54.950 L50.503,54.553 L51.164,54.129 L51.808,53.680 L52.434,53.206 L53.042,52.708 L53.629,52.186 L54.195,51.642 L54.739,51.076 L55.261,50.489 L55.759,49.882 L56.233,49.256 L56.682,48.611 L57.105,47.950 L57.502,47.272 L57.873,46.580 L58.215,45.873 L58.530,45.154 L58.816,44.422 L59.074,43.680 L59.302,42.929 L59.500,42.169 L59.668,41.402 L59.806,40.629 L59.914,39.851 L59.991,39.069 L60.037,38.285 L60.053,37.500 L60.039,38.200 L60.053,37.500 L60.039,38.200 L60.053,37.500 M60.000,38.950 L59.650,39.556 L60.000,38.950 L59.650,39.556 L60.000,38.950 L59.031,40.628 L58.063,42.306 L57.094,43.983 L56.125,45.661 L55.157,47.339 L54.188,49.017 L53.219,50.694 L52.251,52.372 L51.282,54.050 L51.632,53.444 L51.282,54.050 L51.632,53.444 L51.282,54.050 M38.321,47.500 L37.971,46.894 L38.321,47.500 L37.971,46.894 L38.321,47.500 L37.358,45.833 L36.396,44.167 L35.434,42.500 L34.472,40.833 L33.509,39.167 L32.547,37.500 L31.585,35.833 L30.623,34.167 L29.660,32.500 L28.698,30.833 L27.736,29.167 L26.774,27.500 L25.811,25.833 L24.849,24.167 L23.887,22.500 L22.925,20.833 L21.962,19.167 L21.000,17.500 M18.763,17.625 L19.728,19.296 L20.693,20.967 L21.657,22.638 L22.622,24.309 L23.587,25.980 L24.552,27.651 L25.516,29.322 L26.481,30.993 L27.446,32.664 L28.411,34.336 L29.375,36.007 L30.340,37.678 L31.305,39.349 L32.270,41.020 L33.234,42.691 L34.199,44.362 L35.164,46.033 L36.129,47.704 L37.093,49.375 M35.736,51.023 L34.782,49.370 L33.828,47.718 L32.874,46.066 L31.920,44.414 L30.966,42.761 L30.012,41.109 L29.058,39.457 L28.104,37.805 L27.150,36.152 L26.196,34.500 L25.242,32.848 L24.288,31.195 L23.334,29.543 L22.380,27.891 L21.426,26.239 L20.473,24.586 L19.519,22.934 L18.565,21.282 L17.611,19.630 L16.657,17.977 M14.666,18.529 L15.646,20.226 L16.626,21.924 L17.606,23.621 L18.585,25.318 L19.565,27.015 L20.545,28.712 L21.525,30.409 L22.505,32.106 L23.484,33.803 L24.464,35.500 L25.444,37.197 L26.424,38.894 L27.403,40.591 L28.383,42.288 L29.363,43.985 L30.343,45.682 L31.323,47.379 L32.302,49.076 L33.282,50.774 L34.262,52.471 M32.682,53.734 L31.687,52.010 L30.692,50.287 L29.697,48.564 L28.702,46.840 L27.707,45.117 L26.712,43.393 L25.717,41.670 L24.722,39.947 L23.727,38.223 L22.732,36.500 L21.737,34.777 L20.742,33.053 L19.747,31.330 L18.752,29.607 L17.757,27.883 L16.762,26.160 L15.767,24.436 L14.772,22.713 L13.777,20.990 L12.782,19.266 M10.627,19.000 L12.617,19.000 L14.606,19.000 L16.596,19.000 L18.586,19.000 L20.576,19.000 L22.566,19.000 L24.556,19.000 L26.546,19.000 L28.536,19.000 L30.526,19.000 L32.516,19.000 L34.506,19.000 L36.496,19.000 L38.486,19.000 L40.476,19.000 L42.466,19.000 L44.456,19.000 L46.446,19.000 L48.436,19.000 L50.426,19.000 M50.122,17.000 L48.163,17.000 L46.203,17.000 L44.243,17.000 L42.284,17.000 L40.324,17.000 L38.365,17.000 L36.405,17.000 L34.445,17.000 L32.486,17.000 L30.526,17.000 L28.567,17.000 L26.607,17.000 L24.648,17.000 L22.688,17.000 L20.728,17.000 L18.769,17.000 L16.809,17.000 L14.850,17.000 L12.890,17.000 L10.930,17.000 M11.447,15.000 L13.355,15.000 L15.263,15.000 L17.171,15.000 L19.079,15.000 L20.987,15.000 L22.895,15.000 L24.803,15.000 L26.711,15.000 L28.618,15.000 L30.526,15.000 L32.434,15.000 L34.342,15.000 L36.250,15.000 L38.158,15.000 L40.066,15.000 L41.974,15.000 L43.881,15.000 L45.789,15.000 L47.697,15.000 L49.605,15.000 M48.857,13.000 L46.927,13.000 L44.998,13.000 L43.068,13.000 L41.139,13.000 L39.209,13.000 L37.280,13.000 L35.350,13.000 L33.421,13.000 L31.491,13.000 L29.562,13.000 L27.632,13.000 L25.703,13.000 L23.773,13.000 L21.844,13.000 L19.914,13.000 L17.984,13.000 L16.055,13.000 L14.125,13.000 L12.196,13.000 M13.206,11.000 L15.130,11.000 L17.055,11.000 L18.979,11.000 L20.904,11.000 L22.828,11.000 L24.753,11.000 L26.677,11.000 L28.602,11.000 L30.526,11.000 L32.451,11.000 L34.375,11.000 L36.300,11.000 L38.224,11.000 L40.149,11.000 L42.073,11.000 L43.998,11.000 L45.922,11.000 L47.847,11.000 M46.526,9.000 L44.526,9.000 L42.526,9.000 L40.526,9.000 L38.526,9.000 L36.526,9.000 L34.526,9.000 L32.526,9.000 L30.526,9.000 L28.526,9.000 L26.526,9.000 L24.526,9.000 L22.526,9.000 L20.526,9.000 L18.526,9.000 L16.526,9.000 L14.526,9.000 M16.243,7.000 L18.148,7.000 L20.052,7.000 L21.957,7.000 L23.861,7.000 L25.765,7.000 L27.670,7.000 L29.574,7.000 L31.478,7.000 L33.383,7.000 L35.287,7.000 L37.192,7.000 L39.096,7.000 L41.000,7.000 L42.905,7.000 L44.809,7.000 M42.526,5.000 L40.526,5.000 L38.526,5.000 L36.526,5.000 L34.526,5.000 L32.526,5.000 L30.526,5.000 L28.526,5.000 L26.526,5.000 L24.526,5.000 L22.526,5.000 L20.526,5.000 L18.526,5.000 M21.808,3.000 L23.746,3.000 L25.683,3.000 L27.620,3.000 L29.558,3.000 L31.495,3.000 L33.432,3.000 L35.370,3.000 L37.307,3.000 L39.244,3.000 L38.544,3.000 L39.244,3.000 L38.544,3.000 L39.244,3.000 M25.983,18.131 L26.333,18.737 L25.983,18.131 L26.333,18.737 L25.983,18.131 L26.935,19.780 L27.887,21.429 L28.839,23.078 L29.792,24.728 L30.744,26.377 L31.696,28.026 L32.648,29.675 L33.600,31.325 L34.553,32.974 L35.505,34.623 L36.457,36.272 L37.409,37.922 L38.361,39.571 L39.314,41.220 L40.266,42.869 M39.392,45.356 L38.392,43.624 L37.392,41.892 L36.392,40.160 L35.392,38.428 L34.392,36.696 L33.392,34.964 L32.392,33.232 L31.392,31.500 L30.392,29.768 L29.392,28.036 L28.392,26.304 L27.392,24.572 L26.392,22.840 L25.392,21.108 L24.392,19.376 L23.392,17.644 L23.742,18.250 L23.392,17.644 L23.742,18.250 L23.392,17.644 M10.627,23.000 L11.327,23.000 L10.627,23.000 L11.327,23.000 L10.627,23.000 L12.617,23.000 L14.606,23.000 L16.596,23.000 L18.586,23.000 L20.576,23.000 L22.566,23.000 L24.556,23.000 L26.546,23.000 L28.536,23.000 L30.526,23.000 L32.516,23.000 L34.506,23.000 L36.496,23.000 L38.486,23.000 L40.476,23.000 L42.466,23.000 L44.456,23.000 L46.446,23.000 L48.436,23.000 L50.426,23.000 M50.122,25.000 L48.163,25.000 L46.203,25.000 L44.243,25.000 L42.284,25.000 L40.324,25.000 L38.365,25.000 L36.405,25.000 L34.445,25.000 L32.486,25.000 L30.526,25.000 L28.567,25.000 L26.607,25.000 L24.648,25.000 L22.688,25.000 L20.728,25.000 L18.769,25.000 L16.809,25.000 L14.850,25.000 L12.890,25.000 L10.930,25.000 M11.447,27.000 L13.355,27.000 L15.263,27.000 L17.171,27.000 L19.079,27.000 L20.987,27.000 L22.895,27.000 L24.803,27.000 L26.711,27.000 L28.618,27.000 L30.526,27.000 L32.434,27.000 L34.342,27.000 L36.250,27.000 L38.158,27.000 L40.066,27.000 L41.974,27.000 L43.881,27.000 L45.789,27.000 L47.697,27.000 L49.605,27.000 M48.857,29.000 L46.927,29.000 L44.998,29.000 L43.068,29.000 L41.139,29.000 L39.209,29.000 L37.280,29.000 L35.350,29.000 L33.421,29.000 L31.491,29.000 L29.562,29.000 L27.632,29.000 L25.703,29.000 L23.773,29.000 L21.844,29.000 L19.914,29.000 L17.984,29.000 L16.055,29.000 L14.125,29.000 L12.196,29.000 M13.206,31.000 L15.130,31.000 L17.055,31.000 L18.979,31.000 L20.904,31.000 L22.828,31.000 L24.753,31.000 L26.677,31.000 L28.602,31.000 L30.526,31.000 L32.451,31.000 L34.375,31.000 L36.300,31.000 L38.224,31.000 L40.149,31.000 L42.073,31.000 L43.998,31.000 L45.922,31.000 L47.847,31.000 M46.526,33.000 L44.526,33.000 L42.526,33.000 L40.526,33.000 L38.526,33.000 L36.526,33.000 L34.526,33.000 L32.526,33.000 L30.526,33.000 L28.526,33.000 L26.526,33.000 L24.526,33.000 L22.526,33.000 L20.526,33.000 L18.526,33.000 L16.526,33.000 L14.526,33.000 M16.243,35.000 L18.148,35.000 L20.052,35.000 L21.957,35.000 L23.861,35.000 L25.765,35.000 L27.670,35.000 L29.574,35.000 L31.478,35.000 L33.383,35.000 L35.287,35.000 L37.192,35.000 L39.096,35.000 L41.000,35.000 L42.905,35.000 L44.809,35.000 L44.109,35.000 L44.809,35.000 L44.109,35.000 L44.809,35.000 M29.218,55.734 L28.868,55.127 L29.218,55.734 L28.868,55.127 L29.218,55.734 L28.223,54.010 L27.228,52.287 L26.233,50.564 L25.238,48.840 L24.243,47.117 L23.248,45.393 L22.253,43.670 L21.258,41.947 L20.263,40.223 L19.268,38.500 L18.273,36.777 L17.278,35.053 L16.283,33.330 L15.288,31.607 L14.293,29.883 L13.298,28.160 L12.303,26.436 L11.308,24.713 L10.313,22.990 L9.318,21.266 M7.738,22.529 L8.718,24.226 L9.698,25.924 L10.677,27.621 L11.657,29.318 L12.637,31.015 L13.617,32.712 L14.597,34.409 L15.576,36.106 L16.556,37.803 L17.536,39.500 L18.516,41.197 L19.495,42.894 L20.475,44.591 L21.455,46.288 L22.435,47.985 L23.415,49.682 L24.394,51.379 L25.374,53.076 L26.354,54.774 L27.334,56.471 M25.343,57.023 L24.389,55.370 L23.435,53.718 L22.481,52.066 L21.527,50.414 L20.574,48.761 L19.620,47.109 L18.666,45.457 L17.712,43.805 L16.758,42.152 L15.804,40.500 L14.850,38.848 L13.896,37.195 L12.942,35.543 L11.988,33.891 L11.034,32.239 L10.080,30.586 L9.126,28.934 L8.172,27.282 L7.218,25.630 L6.264,23.977 M4.907,25.625 L5.871,27.296 L6.836,28.967 L7.801,30.638 L8.766,32.309 L9.730,33.980 L10.695,35.651 L11.660,37.322 L12.625,38.993 L13.589,40.664 L14.554,42.336 L15.519,44.007 L16.484,45.678 L17.448,47.349 L18.413,49.020 L19.378,50.691 L20.343,52.362 L21.307,54.033 L22.272,55.704 L23.237,57.375 M21.000,57.500 L20.038,55.833 L19.075,54.167 L18.113,52.500 L17.151,50.833 L16.189,49.167 L15.226,47.500 L14.264,45.833 L13.302,44.167 L12.340,42.500 L11.377,40.833 L10.415,39.167 L9.453,37.500 L8.491,35.833 L7.528,34.167 L6.566,32.500 L5.604,30.833 L4.642,29.167 L3.679,27.500 M2.608,29.644 L3.608,31.376 L4.608,33.108 L5.608,34.840 L6.608,36.572 L7.608,38.304 L8.608,40.036 L9.608,41.768 L10.608,43.500 L11.608,45.232 L12.608,46.964 L13.608,48.696 L14.608,50.428 L15.608,52.160 L16.608,53.892 L17.608,55.624 L18.608,57.356 M16.017,56.869 L15.065,55.220 L14.113,53.571 L13.161,51.922 L12.208,50.272 L11.256,48.623 L10.304,46.974 L9.352,45.325 L8.400,43.675 L7.447,42.026 L6.495,40.377 L5.543,38.728 L4.591,37.078 L3.639,35.429 L2.686,33.780 L1.734,32.131 M1.144,35.108 L2.144,36.840 L3.144,38.572 L4.144,40.304 L5.144,42.036 L6.144,43.768 L7.144,45.500 L8.144,47.232 L9.144,48.964 L10.144,50.696 L11.144,52.428 L12.144,54.160 L13.144,55.892 M9.770,54.050 L8.802,52.372 L7.833,50.694 L6.865,49.017 L5.896,47.339 L4.927,45.661 L3.959,43.983 L2.990,42.306 L2.021,40.628 L1.053,38.950 L1.403,39.556 L1.053,38.950 L1.403,39.556 L1.053,38.950"/>
</svg>
