<svg xmlns="http://www.w3.org/2000/svg" viewBox="-0.019 0 86 86" width="256" height="256">
  <title>vortex</title>
  <rect x="-0.019" y="0" width="86" height="86" fill="#f5efe4"/>
  <path fill="none" stroke="#c8472f" stroke-width="0.4" stroke-linecap="round" stroke-linejoin="round" d="M68.522,9.704 L68.964,10.247 L68.522,9.704 L68.964,10.247 L68.522,9.704 L69.784,11.255 L70.972,12.864 L72.083,14.527 L73.114,16.241 L74.058,18.003 L74.916,19.810 L75.684,21.656 L76.357,23.539 L76.934,25.454 L77.414,27.395 L77.791,29.359 L78.066,31.340 L78.236,33.332 L78.298,35.331 L78.252,37.330 L78.098,39.324 L77.832,41.306 L77.456,43.270 L76.971,45.210 L76.373,47.118 L75.666,48.989 L74.851,50.815 L73.927,52.588 L72.898,54.303 L71.768,55.953 L70.536,57.527 L69.208,59.023 L67.788,60.431 L66.279,61.743 L64.689,62.955 L63.022,64.060 L61.283,65.047 L59.482,65.916 L57.626,66.658 L55.721,67.266 L53.777,67.737 L51.806,68.068 L49.814,68.251 L47.815,68.285 L45.819,68.169 L43.838,67.896 L41.885,67.471 L39.971,66.892 L38.111,66.157 L36.318,65.272 L34.605,64.241 L32.989,63.065 L31.480,61.754 L30.092,60.315 L28.842,58.754 L27.741,57.085 L26.800,55.321 L26.037,53.473 L25.456,51.561 L25.068,49.600 L24.887,47.609 L24.912,45.610 L25.150,43.625 L25.607,41.679 L26.277,39.796 L27.157,38.001 L28.246,36.325 L29.527,34.791 L30.986,33.426 L32.611,32.261 L34.372,31.317 L36.243,30.615 L38.194,30.184 L40.186,30.033 L42.179,30.173 L44.127,30.620 L45.981,31.363 L47.692,32.395 L49.201,33.704 L50.461,35.253 L51.424,37.002 L52.034,38.903 L52.264,40.886 L52.089,42.875 L51.485,44.777 L50.477,46.498 L49.096,47.938 L47.398,48.985 L45.490,49.559 L43.497,49.591 L41.586,49.029 L39.943,47.907 L38.761,46.307 L38.243,44.388 L38.499,42.420 L39.548,40.738 L41.259,39.744 L43.229,39.745 L44.858,40.845 L45.388,42.724 L44.417,44.388 L42.521,44.522 L41.982,43.000 L43.982,43.000 L42.876,44.138 L42.043,43.086 L42.478,43.635 L42.043,43.086 L42.478,43.635 L42.043,43.086 M27.828,56.056 L28.183,56.660 L27.828,56.056 L28.183,56.660 L27.828,56.056 L28.335,56.918 L29.461,58.570 L30.738,60.109 L32.154,61.520 L33.692,62.797 L35.337,63.934 L37.077,64.919 L38.894,65.752 L40.775,66.430 L42.706,66.946 L44.673,67.305 L46.663,67.506 L48.662,67.547 L50.658,67.434 L52.640,67.170 L54.596,66.756 L56.517,66.199 L58.392,65.506 L60.212,64.677 L61.969,63.723 L63.657,62.650 L65.265,61.463 L66.791,60.170 L68.227,58.779 L69.568,57.295 L70.810,55.729 L71.951,54.086 L72.985,52.374 L73.910,50.602 L74.727,48.776 L75.429,46.904 L76.018,44.993 L76.495,43.051 L76.856,41.084 L77.104,39.100 L77.239,37.105 L77.260,35.105 L77.171,33.108 L76.973,31.118 L76.666,29.142 L76.254,27.185 L75.739,25.252 L75.122,23.350 L74.408,21.482 L73.600,19.653 L72.698,17.868 L71.708,16.130 L70.635,14.443 L69.478,12.812 L68.243,11.239 L66.935,9.726 L65.555,8.279 L64.109,6.898 L63.814,6.628 L64.109,6.898 L63.814,6.628 L64.109,6.898 L63.814,6.628 M72.786,13.388 L73.151,13.985 L72.786,13.388 L73.151,13.985 L72.786,13.388 L73.829,15.095 L74.791,16.848 L75.669,18.644 L76.461,20.480 L77.162,22.353 L77.771,24.258 L78.285,26.191 L78.701,28.147 L79.018,30.121 L79.235,32.109 L79.347,34.106 L79.355,36.106 L79.259,38.103 L79.054,40.092 L78.743,42.068 L78.326,44.023 L77.798,45.952 L77.165,47.849 L76.427,49.708 L75.581,51.520 L74.632,53.280 L73.583,54.982 L72.432,56.618 L71.186,58.182 L69.848,59.667 L68.418,61.066 L66.905,62.372 L65.312,63.582 L63.644,64.684 L61.907,65.675 L60.110,66.551 L58.256,67.302 L56.357,67.926 L54.419,68.419 L52.451,68.772 L50.463,68.985 L48.464,69.055 L46.466,68.976 L44.480,68.749 L42.516,68.374 L40.587,67.846 L38.706,67.170 L36.883,66.348 L35.135,65.378 L33.471,64.268 L31.906,63.025 L30.455,61.649 L29.127,60.154 L27.936,58.548 L26.898,56.840 L26.020,55.044 L25.436,53.554 L25.692,54.206 L25.436,53.554 L25.692,54.206 L25.436,53.554 M33.735,62.135 L34.300,62.548 L33.735,62.135 L34.300,62.548 L33.735,62.135 L34.542,62.725 L36.227,63.801 L38.000,64.725 L39.849,65.485 L41.756,66.086 L43.707,66.525 L45.687,66.797 L47.684,66.908 L49.683,66.860 L51.671,66.652 L53.638,66.292 L55.572,65.784 L57.461,65.129 L59.298,64.338 L61.072,63.417 L62.775,62.368 L64.400,61.204 L65.941,59.929 L67.389,58.551 L68.742,57.078 L69.995,55.520 L71.141,53.881 L72.179,52.172 L73.107,50.401 L73.919,48.574 L74.618,46.700 L75.201,44.787 L75.665,42.842 L76.012,40.873 L76.244,38.887 L76.358,36.890 L76.357,34.890 L76.244,32.894 L76.016,30.907 L75.680,28.936 L75.236,26.986 L74.686,25.064 L74.034,23.173 L73.283,21.320 L72.434,19.509 L71.494,17.744 L70.465,16.029 L69.348,14.370 L68.151,12.769 L66.876,11.228 L65.525,9.753 L64.105,8.346 L62.619,7.007 L61.070,5.742 L59.463,4.552 L59.137,4.320 L59.463,4.552 L59.137,4.320 L59.463,4.552 L59.137,4.320 M33.168,61.663 L32.647,61.196 L33.168,61.663 L32.647,61.196 L33.168,61.663 L31.977,60.596 L32.498,61.063 L31.977,60.596 L32.498,61.063 L31.977,60.596 M29.025,56.982 L29.425,57.557 L29.025,56.982 L29.425,57.557 L29.025,56.982 L29.596,57.803 L30.845,59.364 L31.520,60.102 L31.047,59.585 L31.520,60.102 L31.047,59.585 L31.520,60.102 M76.093,17.140 L76.384,17.777 L76.093,17.140 L76.384,17.777 L76.093,17.140 L76.925,18.959 L77.672,20.814 L78.331,22.702 L78.899,24.619 L79.372,26.562 L79.750,28.526 L80.032,30.506 L80.212,32.497 L80.292,34.496 L80.271,36.495 L80.145,38.491 L79.916,40.478 L79.583,42.449 L79.143,44.400 L78.599,46.325 L77.952,48.217 L77.200,50.069 L76.346,51.878 L75.392,53.635 L74.336,55.334 L73.185,56.969 L71.941,58.534 L70.604,60.021 L69.181,61.426 L67.675,62.742 L66.090,63.960 L64.432,65.078 L62.706,66.089 L60.919,66.985 L59.077,67.764 L57.188,68.420 L55.259,68.945 L53.298,69.339 L51.315,69.598 L49.319,69.714 L47.320,69.689 L45.327,69.522 L43.353,69.205 L41.407,68.744 L39.502,68.138 L37.650,67.384 L35.862,66.489 L34.150,65.456 L32.530,64.285 L31.010,62.985 L29.604,61.564 L29.074,60.965 L27.574,59.011 L28.157,59.823 L28.893,60.771 L27.366,58.750 L26.348,57.029 L25.488,55.224 L25.256,54.671 L25.488,55.224 L25.256,54.671 L25.488,55.224 L25.256,54.671 M51.305,38.360 L51.056,37.706 L51.305,38.360 L51.056,37.706 L51.305,38.360 L50.950,37.426 L49.993,35.674 L48.721,34.135 L47.181,32.862 L45.442,31.880 L43.562,31.206 L41.595,30.858 L39.598,30.824 L37.618,31.096 L35.703,31.666 L33.890,32.505 L32.210,33.588 L30.698,34.894 L29.369,36.387 L28.243,38.038 L27.336,39.819 L26.652,41.697 L26.194,43.643 L25.970,45.629 L25.971,47.628 L26.191,49.615 L26.628,51.565 L27.267,53.459 L28.097,55.278 L28.784,56.498 L28.441,55.888 L28.784,56.498 L28.441,55.888 L28.784,56.498 M25.036,54.251 L24.828,53.583 L25.036,54.251 L24.828,53.583 L25.036,54.251 L24.441,52.342 L24.026,50.386 L23.800,48.400 L23.767,46.401 L23.938,44.409 L24.310,42.445 L24.883,40.530 L25.662,38.689 L26.635,36.943 L27.796,35.316 L29.140,33.836 L30.646,32.523 L32.299,31.398 L34.080,30.492 L35.961,29.816 L37.913,29.390 L39.906,29.235 L41.900,29.354 L43.858,29.754 L45.734,30.442 L47.485,31.403 L49.066,32.625 L50.423,34.091 L51.518,35.761 L52.308,37.595 L52.759,39.542 L52.601,38.860 L52.759,39.542 L52.601,38.860 L52.759,39.542 M49.422,35.801 L48.974,35.263 L49.422,35.801 L48.974,35.263 L49.422,35.801 L48.782,35.033 L47.310,33.685 L45.610,32.637 L43.745,31.923 L41.784,31.543 L39.787,31.496 L37.810,31.783 L35.902,32.375 L34.105,33.248 L32.460,34.383 L30.993,35.739 L29.726,37.285 L28.685,38.991 L27.874,40.817 L27.301,42.732 L26.976,44.704 L26.890,46.701 L27.038,48.694 L27.419,50.656 L28.017,52.564 L28.818,54.395 L29.816,56.127 L30.988,57.746 L32.319,59.238 L33.796,60.585 L35.398,61.782 L37.106,62.821 L38.906,63.690 L40.779,64.390 L42.707,64.919 L44.675,65.271 L46.666,65.450 L48.666,65.460 L50.658,65.298 L52.631,64.973 L54.571,64.490 L56.466,63.850 L58.304,63.064 L60.077,62.140 L61.773,61.081 L63.386,59.899 L64.908,58.602 L66.330,57.196 L67.649,55.693 L68.859,54.102 L69.954,52.429 L70.933,50.685 L71.794,48.880 L72.530,47.021 L73.144,45.118 L73.635,43.179 L73.998,41.213 L74.239,39.228 L74.357,37.232 L74.350,35.232 L74.223,33.237 L73.979,31.252 L73.615,29.286 L73.139,27.343 L72.553,25.432 L71.856,23.557 L71.057,21.724 L70.158,19.937 L69.161,18.204 L68.072,16.527 L66.896,14.910 L65.634,13.359 L64.293,11.875 L62.878,10.462 L61.390,9.125 L59.838,7.865 L58.225,6.683 L56.554,5.584 L54.831,4.568 L53.062,3.636 L51.249,2.793 L49.398,2.035 L47.514,1.365 L47.324,1.301 M49.681,36.274 L49.998,36.898 L49.681,36.274 L49.998,36.898 L49.681,36.274 L50.584,38.055 L51.088,39.986 L51.151,41.980 L50.747,43.934 L49.863,45.721 L48.547,47.218 L46.872,48.298 L44.952,48.826 L42.964,48.734 L41.120,47.988 L39.679,46.620 L38.898,45.007 L39.203,45.637 L38.898,45.007 L39.203,45.637 L38.898,45.007 M52.785,37.248 L52.529,36.596 L52.785,37.248 L52.529,36.596 L52.785,37.248 L52.419,36.317 L51.479,34.555 L50.267,32.967 L48.816,31.593 L47.175,30.454 L45.385,29.566 L43.484,28.949 L41.517,28.598 L39.520,28.513 L37.530,28.695 L35.579,29.127 L33.695,29.796 L31.909,30.691 L30.239,31.790 L28.704,33.071 L27.327,34.519 L26.115,36.109 L25.078,37.818 L24.230,39.628 L23.570,41.515 L23.101,43.459 L22.829,45.439 L22.747,47.437 L22.851,49.433 L23.144,51.411 L23.612,53.355 L24.250,55.249 L25.055,57.080 L26.011,58.835 L27.111,60.505 L28.348,62.076 L29.707,63.543 L31.178,64.897 L32.752,66.129 L34.417,67.237 L36.160,68.217 L37.972,69.061 L39.842,69.770 L41.757,70.344 L43.710,70.776 L45.687,71.071 L47.681,71.230 L49.680,71.250 L51.676,71.136 L53.661,70.892 L55.625,70.515 L57.561,70.014 L59.461,69.391 L61.317,68.648 L63.125,67.793 L64.877,66.829 L66.567,65.760 L68.190,64.592 L69.743,63.332 L71.218,61.982 L72.614,60.550 L73.927,59.042 L75.152,57.461 L76.288,55.816 L77.333,54.111 L78.283,52.351 L79.138,50.543 L79.896,48.693 L80.556,46.805 L81.117,44.885 L81.580,42.940 L81.943,40.973 L82.207,38.991 L82.373,36.998 L82.440,35.000 L82.410,33.000 L82.286,31.004 L82.064,29.017 L81.750,27.042 L81.679,26.648 L81.750,27.042 L81.679,26.648 L81.750,27.042 L81.679,26.648 M52.981,37.685 L53.112,38.372 L52.981,37.685 L53.112,38.372 L52.981,37.685 L53.355,39.648 L53.376,41.645 L53.029,43.611 L52.313,45.475 L51.229,47.151 L49.821,48.565 L48.138,49.638 L46.251,50.285 L44.265,50.459 L42.299,50.125 L40.502,49.263 L39.025,47.927 L38.019,46.208 L37.620,44.256 L39.671,45.571 L40.230,46.398 L41.779,47.637 L43.694,48.166 L45.670,47.941 L47.454,47.061 L48.872,45.663 L49.798,43.898 L50.196,41.946 L50.068,39.956 L49.435,38.064 L48.373,36.376 L46.957,34.969 L45.265,33.909 L43.392,33.219 L41.420,32.911 L39.424,32.991 L37.477,33.433 L35.636,34.207 L33.957,35.289 L32.476,36.630 L31.223,38.186 L30.230,39.920 L29.502,41.781 L29.047,43.726 L28.874,45.717 L28.971,47.713 L29.327,49.680 L29.938,51.583 L30.779,53.396 L31.833,55.094 L33.085,56.652 L34.507,58.057 L36.077,59.294 L37.777,60.346 L39.579,61.211 L41.461,61.883 L43.404,62.353 L45.385,62.627 L47.382,62.706 L49.378,62.588 L51.354,62.282 L53.293,61.797 L55.179,61.133 L56.998,60.304 L58.739,59.321 L60.387,58.189 L61.934,56.922 L63.372,55.533 L64.689,54.029 L65.883,52.425 L66.947,50.732 L67.874,48.960 L68.665,47.124 L69.316,45.234 L69.824,43.299 L70.190,41.334 L70.416,39.347 L70.499,37.349 L70.443,35.350 L70.252,33.360 L69.925,31.387 L69.467,29.441 L68.885,27.528 L68.177,25.658 L67.352,23.836 L66.415,22.070 L65.368,20.366 L64.219,18.730 L62.974,17.165 L61.635,15.679 L60.212,14.274 L58.711,12.953 L57.134,11.724 L55.490,10.585 L53.786,9.539 L52.025,8.592 L50.215,7.742 L48.361,6.990 L46.470,6.341 L44.547,5.793 L42.598,5.345 L40.628,5.001 L38.643,4.757 L36.648,4.614 L34.649,4.574 L32.650,4.631 L30.656,4.786 L28.673,5.040 L26.703,5.389 L24.753,5.829 L22.826,6.364 L22.252,6.539 L22.826,6.364 L22.252,6.539 L22.826,6.364 L22.252,6.539 M84.876,46.045 L84.665,46.712 L84.876,46.045 L84.665,46.712 L84.876,46.045 L84.273,47.951 L83.582,49.828 L82.803,51.670 L81.938,53.473 L80.985,55.231 L79.947,56.941 L78.827,58.597 L77.624,60.195 L76.343,61.730 L74.985,63.198 L73.552,64.593 L72.049,65.912 L70.479,67.150 L68.844,68.301 L67.149,69.363 L65.400,70.332 L63.598,71.200 L61.752,71.967 L59.865,72.630 L57.942,73.181 L55.992,73.620 L54.019,73.945 L52.029,74.150 L50.032,74.236 L48.032,74.201 L46.039,74.040 L44.060,73.755 L42.102,73.347 L40.176,72.811 L38.288,72.151 L36.448,71.369 L34.665,70.463 L32.948,69.439 L31.305,68.300 L29.747,67.046 L28.282,65.685 L26.918,64.223 L25.667,62.663 L24.535,61.015 L23.530,59.286 L22.664,57.484 L21.940,55.621 L21.365,53.705 L20.951,51.749 L20.698,49.766 L20.610,47.769 L20.696,45.771 L20.955,43.789 L21.386,41.837 L21.996,39.932 L22.776,38.092 L23.724,36.332 L24.840,34.673 L26.111,33.130 L27.529,31.721 L29.085,30.466 L30.763,29.380 L32.546,28.476 L34.419,27.777 L36.357,27.290 L38.339,27.025 L40.337,26.999 L42.325,27.212 L44.271,27.666 L46.142,28.367 L47.907,29.305 L49.532,30.468 L50.977,31.848 L52.214,33.418 L53.209,35.150 L53.926,37.015 L54.345,38.968 L54.447,40.963 L54.207,42.946 L53.630,44.858 L52.722,46.637 L51.491,48.209 L49.980,49.514 L48.238,50.488 L46.327,51.062 L44.336,51.201 L42.368,50.877 L40.544,50.071 L38.988,48.825 L37.827,47.205 L37.180,45.319 L37.407,45.981 L37.180,45.319 L37.407,45.981 L37.180,45.319 M44.860,42.423 L44.591,41.776 L44.860,42.423 L44.591,41.776 L44.860,42.423 L44.479,41.505 L42.847,40.468 L40.930,40.856 L39.668,42.366 L39.428,44.323 L39.668,45.292 L37.059,44.853 L37.206,42.865 L37.999,41.041 L39.385,39.618 L41.209,38.833 L43.190,38.903 L44.916,39.864 L45.926,41.559 L45.993,42.952 L43.868,42.248 L43.033,41.730 L41.362,42.502 L41.381,44.412 L42.963,45.536 L44.894,45.253 L46.261,43.838 L46.609,41.895 L45.962,40.026 L44.548,38.636 L42.679,37.963 L40.693,38.039 L38.856,38.802 L37.375,40.133 L36.367,41.851 L35.889,43.786 L35.965,45.778 L36.543,47.686 L37.565,49.400 L38.963,50.824 L40.638,51.909 L42.503,52.620 L44.475,52.933 L46.470,52.862 L48.419,52.424 L50.255,51.638 L51.931,50.551 L53.404,49.202 L54.637,47.630 L55.613,45.887 L56.319,44.018 L56.739,42.064 L56.882,40.071 L56.752,38.077 L56.352,36.119 L55.704,34.228 L54.824,32.433 L53.727,30.763 L52.439,29.235 L50.983,27.866 L49.377,26.675 L47.650,25.669 L45.824,24.854 L43.921,24.243 L41.965,23.830 L39.977,23.617 L37.978,23.607 L35.987,23.789 L34.023,24.159 L32.102,24.716 L30.241,25.444 L28.451,26.335 L26.749,27.385 L25.144,28.576 L23.644,29.899 L22.263,31.345 L21.005,32.898 L19.874,34.547 L18.881,36.283 L18.025,38.090 L17.309,39.956 L16.739,41.873 L16.312,43.826 L16.027,45.805 L15.889,47.800 L15.892,49.800 L16.033,51.794 L16.314,53.774 L16.727,55.730 L17.270,57.655 L17.941,59.539 L18.732,61.375 L19.638,63.158 L20.657,64.878 L21.782,66.532 L23.005,68.114 L24.324,69.617 L25.730,71.038 L27.217,72.375 L28.782,73.620 L30.416,74.774 L32.112,75.833 L33.866,76.792 L35.671,77.653 L37.521,78.414 L39.409,79.071 L41.330,79.626 L43.278,80.079 L45.248,80.426 L47.232,80.672 L49.227,80.815 L51.226,80.855 L53.225,80.795 L55.218,80.636 L57.201,80.376 L59.169,80.022 L61.118,79.573 L63.043,79.029 L64.940,78.396 L66.435,77.828 L65.781,78.076 L66.435,77.828 L65.781,78.076 L66.435,77.828 M53.851,2.444 L54.467,2.777 L53.851,2.444 L54.467,2.777 L53.851,2.444 L55.610,3.395 L57.323,4.427 L58.986,5.538 L60.594,6.727 L62.141,7.994 L63.625,9.335 L65.041,10.747 L66.383,12.230 L67.649,13.777 L68.836,15.387 L69.936,17.057 L70.948,18.782 L71.868,20.557 L72.690,22.380 L73.413,24.245 L74.035,26.145 L74.548,28.078 L74.953,30.036 L75.248,32.014 L75.426,34.006 L75.490,36.005 L75.437,38.004 L75.262,39.996 L74.970,41.974 L74.558,43.931 L74.023,45.858 L73.370,47.747 L72.599,49.593 L71.709,51.383 L70.704,53.112 L69.589,54.772 L68.362,56.351 L67.032,57.843 L65.602,59.241 L64.076,60.534 L62.463,61.715 L60.769,62.778 L59.000,63.710 L57.168,64.510 L55.280,65.169 L53.346,65.678 L51.379,66.036 L49.390,66.237 L47.391,66.273 L45.396,66.146 L43.418,65.853 L41.473,65.389 L40.897,65.222 L41.473,65.389 L40.897,65.222 L41.473,65.389 L40.897,65.222 M36.614,63.349 L37.233,63.675 L36.614,63.349 L37.233,63.675 L36.614,63.349 L37.499,63.814 L39.323,64.633 L40.259,64.986 L39.604,64.739 L40.259,64.986 L39.604,64.739 L40.259,64.986 M36.160,63.026 L35.577,62.638 L36.160,63.026 L35.577,62.638 L36.160,63.026 L34.494,61.920 L32.939,60.663 L32.062,59.845 L32.574,60.322 L32.062,59.845 L32.574,60.322 L32.062,59.845 M36.743,67.617 L37.378,67.911 L36.743,67.617 L37.378,67.911 L36.743,67.617 L37.650,68.037 L39.506,68.781 L41.412,69.385 L43.359,69.843 L45.333,70.160 L47.325,70.336 L49.324,70.368 L51.321,70.263 L53.306,70.022 L55.269,69.644 L57.204,69.138 L59.101,68.508 L60.953,67.753 L62.753,66.882 L64.496,65.901 L66.172,64.811 L67.780,63.622 L69.313,62.338 L70.764,60.963 L72.133,59.505 L73.416,57.970 L74.606,56.363 L75.703,54.692 L76.705,52.961 L77.608,51.177 L78.413,49.346 L79.117,47.475 L79.719,45.568 L80.219,43.631 L80.617,41.672 L80.912,39.694 L81.105,37.703 L81.199,35.706 L81.189,33.706 L81.081,31.709 L80.876,29.720 L80.573,27.743 L80.175,25.783 L79.685,23.844 L79.103,21.931 L78.914,21.362 L79.103,21.931 L78.914,21.362 L79.103,21.931 L78.914,21.362 M36.506,67.513 L35.894,67.172 L36.506,67.513 L35.894,67.172 L36.506,67.513 L34.759,66.540 L34.587,66.438 M30.668,63.482 L31.192,63.946 L30.668,63.482 L31.192,63.946 L30.668,63.482 L31.417,64.145 L32.984,65.386 L34.304,66.291 L33.727,65.895 L34.304,66.291 L33.727,65.895 L34.304,66.291 M30.313,63.215 L29.832,62.707 L30.313,63.215 L29.832,62.707 L30.313,63.215 L28.938,61.764 L27.687,60.205 L26.996,59.223 L27.399,59.796 L26.996,59.223 L27.399,59.796 L26.996,59.223 M46.406,33.766 L45.793,33.429 L46.406,33.766 L45.793,33.429 L46.406,33.766 L45.531,33.284 L43.669,32.562 L41.706,32.194 L39.709,32.191 L37.740,32.529 L35.854,33.187 L34.101,34.144 L32.516,35.360 L31.129,36.799 L29.972,38.428 L29.054,40.203 L28.386,42.086 L27.980,44.043 L27.829,46.036 L27.928,48.032 L28.277,50.000 L28.857,51.913 L29.654,53.746 L30.660,55.473 L31.849,57.080 L33.205,58.549 L34.712,59.862 L36.346,61.014 L38.088,61.995 L39.920,62.794 L41.821,63.412 L43.773,63.848 L45.756,64.095 L47.755,64.161 L49.751,64.048 L51.729,63.757 L53.674,63.296 L55.574,62.673 L57.414,61.890 L59.183,60.960 L60.873,59.891 L62.471,58.689 L63.971,57.367 L65.366,55.934 L66.647,54.399 L67.811,52.773 L68.853,51.067 L69.768,49.289 L70.555,47.451 L71.213,45.563 L71.737,43.633 L72.130,41.672 L72.391,39.690 L72.519,37.694 L72.517,35.695 L72.389,33.699 L72.131,31.716 L71.752,29.753 L71.253,27.816 L70.634,25.915 L69.904,24.053 L69.065,22.238 L68.120,20.476 L67.074,18.771 L65.934,17.128 L64.701,15.554 L63.383,14.050 L61.985,12.621 L60.509,11.271 L58.963,10.003 L57.352,8.817 L55.680,7.720 L53.954,6.711 L52.178,5.792 L50.357,4.966 L48.497,4.231 L46.603,3.590 L44.678,3.045 L42.730,2.594 L40.762,2.237 L38.780,1.977 L36.787,1.809 L35.189,1.740 L35.888,1.770 L35.189,1.740 L35.888,1.770 L35.189,1.740 M46.947,34.167 L47.477,34.625 L46.947,34.167 L47.477,34.625 L46.947,34.167 L48.157,35.213 M51.692,33.793 L51.086,32.998 L49.716,31.543 L48.150,30.303 L46.419,29.303 L44.569,28.549 L42.634,28.048 L40.650,27.808 L38.652,27.820 L36.670,28.076 L34.734,28.574 L32.869,29.293 L31.098,30.220 L29.444,31.343 L27.921,32.637 L26.544,34.086 L25.329,35.674 L24.280,37.376 L23.405,39.173 L22.715,41.049 L22.205,42.982 L21.878,44.955 L21.737,46.949 L21.776,48.948 L21.990,50.936 L22.379,52.897 L22.933,54.818 L23.645,56.686 L24.512,58.488 L25.521,60.214 L26.662,61.856 L27.932,63.401 L29.315,64.844 L30.803,66.180 L32.388,67.399 L34.058,68.498 L35.802,69.476 L37.613,70.324 L39.478,71.045 L41.389,71.635 L43.335,72.092 L45.308,72.418 L47.298,72.614 L49.297,72.677 L51.295,72.613 L53.286,72.423 L55.260,72.105 L57.212,71.668 L59.133,71.113 L61.016,70.441 L62.857,69.659 L64.649,68.772 L66.385,67.780 L68.062,66.691 L69.675,65.509 L71.219,64.237 L72.690,62.883 L74.086,61.451 L75.400,59.944 L76.633,58.370 L77.782,56.733 L78.842,55.037 L79.814,53.290 L80.697,51.495 L81.485,49.657 L82.181,47.783 L82.785,45.876 L83.293,43.942 L83.707,41.985 L84.028,40.012 L84.252,38.024 L84.378,36.229 L84.329,36.927 L84.378,36.229 L84.329,36.927 L84.378,36.229 M51.893,34.045 L52.226,34.661 L51.893,34.045 L52.226,34.661 L51.893,34.045 L52.846,35.802 L52.932,35.982 M36.820,61.989 L37.437,62.320 L36.820,61.989 L37.437,62.320 L36.820,61.989 L37.701,62.462 L39.521,63.288 L41.411,63.940 L43.355,64.410 L45.332,64.702 L47.328,64.818 L49.327,64.754 L51.312,64.521 L53.271,64.121 L55.189,63.557 L57.056,62.839 L58.859,61.975 L60.587,60.969 L62.232,59.833 L63.786,58.576 L65.240,57.203 L66.589,55.727 L67.828,54.157 L68.949,52.502 L69.951,50.771 L70.832,48.976 L71.585,47.124 L72.212,45.225 L72.712,43.289 L73.081,41.324 L73.324,39.339 L73.440,37.342 L73.427,35.343 L73.292,33.348 L73.035,31.365 L72.656,29.401 L72.161,27.464 L71.553,25.559 L70.833,23.693 L70.008,21.872 L69.081,20.100 L68.054,18.384 L66.934,16.727 L65.726,15.134 L64.430,13.610 L63.056,12.158 L61.607,10.779 L60.087,9.480 L58.501,8.262 L56.856,7.125 L55.154,6.075 L53.402,5.112 L51.604,4.235 L49.765,3.451 L47.890,2.755 L45.983,2.151 L44.050,1.639 L42.095,1.219 L41.111,1.041 L41.800,1.166 L41.111,1.041 L41.800,1.166 L41.111,1.041 M3.005,30.135 L3.368,29.536 L3.005,30.135 L3.368,29.536 L3.005,30.135 L4.042,28.425 L5.157,26.765 L6.349,25.159 L7.617,23.612 L8.959,22.130 L10.371,20.714 L11.851,19.369 L13.398,18.102 L15.007,16.913 L16.673,15.808 L18.395,14.792 L20.168,13.866 L21.987,13.035 L23.848,12.304 L25.746,11.673 L27.675,11.146 L29.630,10.729 L31.606,10.421 L33.596,10.224 L35.594,10.144 L37.594,10.179 L39.588,10.330 L41.569,10.602 L43.530,10.992 L45.464,11.499 L47.363,12.128 L49.218,12.873 L51.023,13.734 L52.768,14.711 L54.445,15.799 L56.048,16.995 L57.565,18.298 L58.991,19.700 L60.317,21.196 L61.533,22.783 L62.634,24.453 L63.612,26.196 L64.457,28.009 L65.166,29.878 L65.733,31.796 L66.147,33.752 L66.408,35.734 L66.512,37.731 L66.450,39.729 L66.226,41.716 L65.837,43.677 L65.279,45.597 L64.557,47.462 L63.674,49.256 L62.630,50.961 L61.435,52.563 L60.096,54.047 L58.618,55.394 L57.016,56.590 L55.304,57.623 L53.494,58.471 L51.606,59.127 L49.659,59.581 L47.674,59.814 L45.675,59.827 L43.688,59.612 L41.741,59.161 L39.861,58.482 L38.079,57.577 L36.429,56.450 L34.938,55.119 L33.638,53.602 L32.563,51.917 L31.737,50.098 L31.184,48.178 L30.933,46.196 L30.992,44.199 L31.370,42.237 L32.078,40.369 L33.095,38.651 L34.403,37.142 L35.975,35.910 L37.754,35.005 L39.679,34.477 L41.673,34.379 L43.638,34.723 L45.471,35.511 L47.047,36.733 L48.257,38.317 L48.991,40.169 L49.145,42.155 L48.682,44.091 L47.611,45.768 L46.007,46.942 L44.081,47.417 L42.132,47.055 L40.576,45.832 L40.223,45.347 L40.576,45.832 L40.223,45.347 L40.576,45.832 L40.223,45.347 M48.513,72.107 L49.213,72.108 L48.513,72.107 L49.213,72.108 L48.513,72.107 L49.513,72.108 L51.510,72.020 L53.498,71.805 L55.468,71.461 L57.413,70.995 L59.325,70.410 L61.197,69.706 L63.023,68.892 L64.798,67.972 L66.515,66.946 L68.170,65.823 L69.758,64.608 L71.273,63.303 L72.713,61.915 L74.074,60.450 L75.352,58.912 L76.545,57.307 L77.651,55.641 L78.666,53.918 L79.590,52.145 L80.421,50.326 L81.157,48.466 L81.798,46.572 L82.344,44.648 L82.793,42.700 L83.146,40.731 L83.403,38.748 L83.564,36.755 L83.630,34.756 L83.602,32.756 L83.596,32.556 L83.602,32.756 L83.596,32.556 L83.602,32.756 L83.596,32.556 M79.730,63.232 L79.259,63.750 L79.730,63.232 L79.259,63.750 L79.730,63.232 L78.386,64.713 L76.974,66.129 L75.497,67.478 L73.958,68.754 L72.358,69.953 L70.701,71.073 L68.991,72.110 L67.230,73.058 L65.424,73.917 L63.577,74.684 L61.692,75.351 L59.775,75.921 L57.831,76.389 L55.864,76.750 L53.881,77.005 L51.886,77.152 L49.887,77.187 L47.889,77.110 L45.898,76.922 L43.922,76.617 L41.966,76.198 L40.038,75.667 L38.147,75.019 L36.297,74.260 L34.496,73.389 L32.755,72.407 L31.077,71.318 L29.472,70.126 L27.948,68.831 L26.512,67.440 L25.170,65.957 L23.933,64.386 L22.805,62.735 L21.793,61.011 L20.907,59.218 L20.150,57.368 L19.528,55.467 L19.050,53.526 L18.717,51.554 L18.533,49.563 L18.507,47.564 L18.636,45.569 L18.922,43.590 L19.372,41.642 L19.979,39.737 L20.742,37.889 L21.665,36.115 L22.736,34.427 L23.953,32.840 L25.310,31.373 L26.796,30.035 L28.400,28.842 L30.114,27.812 L31.919,26.954 L33.801,26.279 L35.742,25.803 L37.723,25.532 L39.721,25.472 L41.713,25.636 L43.675,26.020 L45.580,26.624 L47.399,27.453 L49.105,28.493 L50.672,29.735 L52.063,31.169 L53.257,32.772 L54.227,34.519 L54.941,36.385 L55.383,38.334 L55.537,40.326 L55.381,42.318 L54.918,44.261 L54.148,46.104 L53.074,47.788 L51.725,49.261 L50.135,50.469 L48.342,51.349 L46.414,51.864 L44.421,51.979 L42.451,51.657 L40.603,50.907 L38.979,49.748 L37.700,48.217 L36.906,46.606 L36.538,45.224 L36.731,46.205 L36.596,45.518 L36.731,46.205 L36.596,45.518 L36.731,46.205 M17.046,9.941 L17.682,9.648 L17.046,9.941 L17.682,9.648 L17.046,9.941 L18.863,9.104 L20.716,8.354 L22.603,7.691 L24.519,7.118 L26.461,6.641 L28.424,6.258 L30.403,5.972 L32.394,5.788 L34.392,5.703 L36.392,5.720 L38.388,5.841 L40.375,6.066 L42.348,6.395 L44.300,6.830 L46.225,7.369 L48.119,8.012 L49.973,8.760 L51.783,9.610 L53.543,10.560 L55.244,11.612 L56.882,12.759 L58.450,13.999 L59.940,15.333 L61.348,16.753 L62.668,18.255 L63.890,19.838 L65.012,21.493 L66.027,23.216 L66.928,25.001 L67.710,26.841 L68.371,28.729 L68.901,30.657 L69.300,32.616 L69.563,34.598 L69.685,36.594 L69.665,38.594 L69.503,40.587 L69.191,42.562 L68.735,44.508 L68.134,46.415 L67.385,48.269 L66.494,50.060 L65.466,51.774 L64.299,53.398 L63.004,54.921 L61.586,56.331 L60.052,57.613 L58.412,58.757 L56.679,59.753 L54.861,60.586 L52.976,61.249 L51.036,61.735 L49.059,62.034 L45.824,63.255 L46.823,63.295 L48.822,63.246 L50.807,63.014 L52.763,62.598 L54.674,62.011 L56.528,61.261 L58.308,60.351 L60.006,59.296 L61.612,58.105 L63.113,56.784 L64.505,55.349 L65.781,53.809 L66.931,52.174 L67.954,50.456 L68.847,48.667 L69.603,46.816 L70.224,44.915 L70.709,42.975 L71.052,41.005 L71.260,39.017 L71.332,37.018 L71.266,35.020 L71.070,33.030 L70.744,31.057 L70.289,29.110 L69.711,27.195 L69.016,25.321 L68.203,23.494 L67.280,21.719 L66.253,20.004 L65.124,18.354 L63.900,16.772 L62.586,15.265 L61.186,13.836 L59.709,12.489 L58.158,11.226 L56.539,10.053 L54.858,8.970 L53.121,7.979 L51.333,7.084 L49.500,6.284 L47.628,5.580 L45.721,4.977 L43.787,4.471 L41.829,4.062 L39.853,3.755 L37.864,3.545 L35.868,3.432 L33.868,3.419 L31.870,3.500 L29.878,3.676 L27.897,3.948 L27.304,4.044 L27.897,3.948 L27.304,4.044 L27.897,3.948 L27.304,4.044 M13.134,13.421 L13.729,13.052 L13.134,13.421 L13.729,13.052 L13.134,13.421 L14.833,12.365 L16.578,11.390 L18.368,10.497 L20.198,9.691 L22.066,8.976 L23.966,8.352 L25.894,7.822 L27.847,7.392 L29.819,7.059 L31.805,6.827 L33.801,6.699 L35.800,6.675 L37.798,6.756 L39.789,6.945 L41.767,7.240 L43.726,7.642 L45.659,8.154 L47.561,8.772 L49.425,9.496 L51.244,10.327 L53.011,11.262 L54.722,12.297 L56.367,13.435 L57.940,14.669 L59.437,15.995 L60.846,17.414 L62.165,18.916 L63.387,20.499 L64.503,22.159 L65.509,23.887 L66.399,25.678 L67.165,27.525 L67.804,29.419 L68.313,31.353 L68.682,33.318 L68.911,35.305 L68.998,37.302 L68.935,39.301 L68.725,41.289 L68.366,43.256 L67.853,45.189 L67.193,47.076 L66.386,48.905 L65.431,50.662 L64.335,52.334 L63.105,53.910 L61.742,55.373 L60.258,56.713 L58.662,57.917 L56.965,58.975 L54.861,59.991 L55.770,59.574 L56.309,59.312 L54.228,60.218 L52.330,60.846 L50.381,61.294 L51.063,61.137 L50.381,61.294 L51.063,61.137 L50.381,61.294 M42.023,33.542 L41.324,33.510 L42.023,33.542 L41.324,33.510 L42.023,33.542 L41.024,33.497 L39.037,33.682 L37.120,34.242 L35.343,35.153 L33.753,36.362 L32.392,37.824 L31.297,39.495 L30.479,41.317 L29.949,43.244 L29.720,45.229 L29.778,47.226 L30.113,49.196 L30.720,51.100 L31.571,52.908 L32.647,54.592 L33.930,56.125 L35.389,57.491 L37.000,58.675 L38.739,59.659 L40.578,60.442 L42.492,61.019 L44.458,61.380 L46.451,61.533 L48.450,61.481 L49.841,61.326 L49.145,61.403 L49.841,61.326 L49.145,61.403 L49.841,61.326 M7.260,65.113 L7.040,64.448 L7.260,65.113 L7.040,64.448 L7.260,65.113 L6.630,63.215 L6.089,61.289 L5.639,59.341 L5.282,57.373 L5.023,55.390 L4.860,53.397 L4.795,51.398 L4.832,49.399 L4.969,47.404 L5.207,45.418 L5.550,43.448 L5.993,41.498 L6.538,39.574 L7.187,37.683 L7.936,35.829 L8.785,34.018 L9.734,32.258 L10.780,30.553 L11.919,28.910 L13.152,27.336 L14.474,25.835 L15.881,24.414 L17.372,23.081 L18.939,21.839 L20.578,20.694 L22.287,19.655 L24.057,18.724 L25.881,17.906 L27.756,17.210 L29.671,16.636 L31.620,16.189 L33.595,15.876 L35.587,15.698 L37.586,15.656 L39.583,15.757 L41.568,15.999 L43.530,16.382 L45.459,16.911 L47.343,17.581 L49.171,18.390 L50.930,19.341 L52.610,20.425 L54.199,21.638 L55.683,22.978 L57.053,24.435 L58.296,26.000 L59.399,27.668 L60.354,29.424 L61.151,31.258 L61.776,33.157 L62.225,35.105 L62.491,37.086 L62.562,39.084 L62.439,41.080 L62.120,43.053 L61.597,44.983 L60.877,46.847 L59.965,48.626 L58.860,50.292 L57.578,51.825 L56.130,53.203 L54.528,54.399 L52.795,55.394 L50.953,56.171 L49.027,56.703 L47.048,56.982 L45.050,56.996 L43.069,56.729 L41.146,56.186 L39.322,55.370 L37.646,54.283 L36.158,52.950 L34.903,51.396 L33.930,49.651 L33.272,47.766 L32.960,45.794 L33.029,43.798 L33.483,41.854 L34.317,40.040 L35.524,38.451 L37.051,37.166 L38.832,36.269 L40.781,35.845 L42.772,35.933 L44.665,36.557 L46.288,37.712 L47.479,39.307 L48.084,41.202 L47.963,43.186 L47.101,44.973 L45.581,46.247 L43.649,46.671 L41.768,46.082 L40.527,44.556 L40.540,42.602 L41.914,41.246 L42.285,41.097 L41.914,41.246 L42.285,41.097 L41.914,41.246 L42.285,41.097 M31.075,67.126 L31.634,67.547 L31.075,67.126 L31.634,67.547 L31.075,67.126 L31.874,67.727 L33.529,68.849 L35.259,69.852 L37.056,70.729 L38.908,71.481 L40.807,72.107 L42.745,72.602 L44.711,72.969 L46.696,73.208 L48.693,73.317 L50.692,73.301 L52.687,73.160 L54.669,72.895 L56.631,72.510 L58.567,72.009 L60.469,71.392 L62.332,70.666 L64.151,69.834 L65.917,68.897 L67.629,67.863 L69.280,66.735 L70.866,65.517 L72.384,64.215 L73.829,62.833 L75.198,61.375 L76.489,59.847 L77.699,58.255 L78.823,56.602 L79.863,54.894 L80.816,53.135 L81.678,51.331 L82.451,49.487 L83.134,47.607 L83.723,45.696 L84.221,43.759 L84.628,41.801 L84.859,40.421 L84.743,41.111 L84.859,40.421 L84.743,41.111 L84.859,40.421 M83.895,52.178 L83.588,52.807 L83.895,52.178 L83.588,52.807 L83.895,52.178 L83.017,53.975 L82.056,55.729 L81.014,57.436 L79.892,59.091 L78.689,60.689 L77.409,62.226 L76.056,63.698 L74.630,65.100 L73.135,66.428 L71.574,67.678 L69.950,68.845 L68.267,69.926 L66.531,70.917 L64.742,71.811 L62.908,72.609 L61.034,73.306 L59.123,73.895 L57.183,74.378 L55.218,74.751 L53.235,75.008 L51.240,75.151 L49.241,75.177 L47.243,75.081 L45.255,74.866 L43.284,74.531 L41.338,74.072 L39.424,73.493 L37.550,72.794 L35.727,71.973 L33.960,71.036 L32.259,69.985 L30.634,68.820 L29.092,67.547 L27.641,66.172 L26.292,64.696 L25.050,63.128 L23.925,61.475 L22.927,59.743 L22.060,57.941 L21.331,56.079 L20.751,54.166 L20.321,52.213 L20.048,50.232 L19.939,48.236 L19.995,46.237 L20.216,44.250 L20.611,42.290 L21.173,40.372 L21.902,38.510 L22.801,36.724 L23.858,35.028 L24.441,34.215 L24.033,34.784 L24.441,34.215 L24.033,34.784 L24.441,34.215 M20.122,41.927 L19.962,42.608 L20.122,41.927 L19.962,42.608 L20.122,41.927 L19.894,42.901 L19.552,44.870 L19.374,46.862 L19.362,48.861 L19.510,50.855 L19.812,52.832 L20.271,54.778 L20.875,56.684 L21.619,58.540 L22.502,60.334 L23.511,62.060 L24.641,63.710 L25.886,65.274 L27.236,66.749 L28.684,68.129 L30.223,69.405 L31.843,70.577 L33.536,71.642 L35.295,72.592 L37.111,73.429 L38.976,74.150 L40.883,74.752 L42.823,75.237 L44.789,75.604 L46.773,75.851 L48.769,75.981 L50.768,75.995 L52.765,75.892 L54.753,75.676 L56.726,75.350 L58.678,74.913 L60.602,74.370 L62.495,73.724 L64.349,72.975 L66.162,72.130 L67.928,71.192 L69.641,70.161 L71.301,69.045 L72.902,67.847 L74.439,66.568 L75.911,65.215 L77.316,63.791 L78.649,62.300 L79.908,60.747 L81.093,59.136 L82.199,57.470 L82.518,56.962 L82.199,57.470 L82.518,56.962 L82.199,57.470 L82.518,56.962 M20.177,41.667 L20.392,41.001 L20.177,41.667 L20.392,41.001 L20.177,41.667 L20.792,39.764 L21.079,39.018 L20.828,39.671 L21.079,39.018 L20.828,39.671 L21.079,39.018 M23.411,34.685 L23.026,35.270 L23.411,34.685 L23.026,35.270 L23.411,34.685 L22.861,35.520 L21.867,37.255 L21.182,38.701 L21.482,38.068 L21.182,38.701 L21.482,38.068 L21.182,38.701 M23.639,34.270 L24.080,33.727 L23.639,34.270 L24.080,33.727 L23.639,34.270 L24.898,32.717 L26.297,31.289 L27.825,29.999 L29.470,28.864 L31.223,27.902 L32.873,27.186 L32.231,27.465 L32.873,27.186 L32.231,27.465 L32.873,27.186 M46.866,40.590 L46.561,39.960 L46.866,40.590 L46.561,39.960 L46.866,40.590 L46.430,39.690 L46.735,40.320 L46.430,39.690 L46.735,40.320 L46.430,39.690 M70.850,74.343 L70.233,74.674 L70.850,74.343 L70.233,74.674 L70.850,74.343 L69.088,75.289 L67.284,76.153 L65.441,76.930 L63.564,77.619 L61.655,78.214 L59.719,78.715 L57.761,79.121 L55.784,79.426 L53.795,79.632 L51.798,79.737 L49.799,79.736 L47.802,79.632 L45.813,79.423 L43.838,79.106 L41.884,78.683 L39.955,78.155 L38.059,77.519 L36.201,76.779 L34.388,75.935 L32.628,74.987 L30.925,73.939 L29.286,72.793 L27.720,71.550 L26.230,70.215 L24.825,68.793 L23.512,67.285 L22.296,65.698 L21.182,64.037 L20.179,62.307 L19.291,60.515 L18.523,58.669 L17.883,56.775 L17.372,54.841 L16.995,52.878 L16.761,50.892 L16.667,48.895 L16.716,46.896 L16.916,44.906 L17.262,42.937 L17.756,40.999 L18.400,39.107 L19.190,37.270 L20.123,35.501 L21.199,33.816 L22.409,32.224 L23.747,30.739 L25.210,29.377 L26.786,28.145 L28.463,27.058 L30.234,26.130 L32.082,25.368 L33.994,24.782 L35.360,24.479 L38.492,22.998 L37.493,23.038 L35.505,23.249 L33.545,23.642 L31.629,24.214 L29.771,24.952 L27.984,25.849 L26.282,26.898 L24.674,28.086 L23.168,29.401 L21.777,30.837 L20.503,32.379 L19.354,34.015 L18.337,35.736 L17.452,37.529 L16.703,39.383 L16.095,41.288 L15.626,43.232 L15.295,45.204 L15.107,47.195 L15.056,49.193 L15.140,51.191 L15.362,53.179 L15.713,55.147 L16.191,57.089 L16.797,58.994 L17.521,60.858 L18.360,62.673 L19.312,64.432 L20.369,66.130 L21.525,67.761 L22.779,69.319 L24.121,70.801 L25.547,72.203 L27.052,73.519 L28.630,74.749 L30.272,75.889 L31.977,76.934 L33.736,77.885 L35.544,78.741 L37.395,79.496 L39.284,80.154 L41.204,80.712 L43.151,81.168 L45.119,81.525 L47.102,81.783 L49.096,81.939 L51.095,81.997 L53.094,81.958 L55.089,81.820 L57.075,81.586 L59.048,81.260 L61.004,80.842 L60.319,80.988 L61.004,80.842 L60.319,80.988 L61.004,80.842 M74.522,70.648 L73.951,71.053 L74.522,70.648 L73.951,71.053 L74.522,70.648 L72.891,71.806 L71.208,72.886 L69.476,73.886 L67.699,74.802 L65.878,75.629 L64.019,76.367 L62.126,77.012 L60.203,77.560 L58.255,78.011 L56.286,78.363 L54.302,78.610 L52.307,78.754 L50.308,78.793 L48.309,78.723 L46.318,78.546 L44.338,78.262 L42.378,77.866 L40.443,77.361 L38.539,76.749 L36.675,76.026 L34.855,75.198 L33.086,74.264 L31.378,73.225 L29.735,72.085 L28.164,70.848 L26.674,69.515 L25.270,68.091 L23.958,66.581 L22.749,64.989 L21.646,63.321 L20.654,61.585 L19.784,59.784 L19.037,57.929 L18.420,56.027 L17.941,54.086 L17.599,52.116 L17.401,50.126 L17.352,48.127 L17.451,46.130 L17.700,44.147 L18.105,42.188 L18.660,40.268 L19.366,38.397 L20.224,36.591 L21.227,34.862 L22.371,33.222 L23.654,31.688 L25.064,30.271 L26.593,28.983 L27.729,28.165 L29.745,26.983 L28.872,27.472 L28.356,27.776 L30.358,26.706 L32.199,25.927 L34.105,25.323 L33.438,25.534 L34.105,25.323 L33.438,25.534 L34.105,25.323 M29.757,24.342 L29.122,24.637 L29.757,24.342 L29.122,24.637 L29.757,24.342 L28.850,24.763 L27.087,25.707 L25.409,26.793 L23.827,28.016 L22.347,29.360 L20.976,30.816 L19.726,32.376 L18.597,34.027 L17.594,35.757 L16.725,37.557 L15.988,39.416 L15.385,41.322 L14.920,43.267 L14.591,45.240 L14.397,47.230 L14.341,49.229 L14.417,51.227 L14.622,53.216 L14.959,55.187 L15.420,57.133 L16.002,59.046 L16.704,60.918 L17.519,62.744 L18.442,64.518 L19.471,66.233 L20.599,67.884 L21.821,69.467 L23.134,70.975 L24.530,72.407 L26.004,73.759 L27.552,75.025 L29.166,76.204 L30.842,77.296 L32.575,78.293 L34.358,79.198 L36.186,80.009 L38.054,80.723 L39.957,81.340 L41.887,81.860 L43.842,82.281 L45.816,82.605 L47.803,82.833 L49.798,82.961 L51.798,82.994 L53.797,82.932 L55.790,82.774 L56.387,82.712 L55.790,82.774 L56.387,82.712 L55.790,82.774 L56.387,82.712 M29.996,24.226 L30.653,23.985 L29.996,24.226 L30.653,23.985 L29.996,24.226 L31.874,23.539 L32.639,23.305 L31.969,23.509 L32.639,23.305 L31.969,23.509 L32.639,23.305 M37.488,22.475 L36.790,22.531 L37.488,22.475 L36.790,22.531 L37.488,22.475 L36.492,22.556 L34.513,22.841 L32.952,23.191 L34.641,25.247 L36.609,24.894 L38.603,24.741 L40.601,24.794 L42.582,25.057 L44.523,25.539 L46.398,26.231 L48.182,27.131 L49.847,28.237 L51.369,29.533 L52.721,31.004 L53.873,32.638 L54.805,34.405 L55.496,36.281 L55.704,37.053 L55.522,36.377 L55.704,37.053 L55.522,36.377 L55.704,37.053 M43.242,53.393 L43.936,53.481 L43.242,53.393 L43.936,53.481 L43.242,53.393 L44.234,53.519 L46.230,53.519 L48.197,53.169 L50.073,52.483 L51.812,51.501 L53.375,50.257 L54.724,48.783 L55.841,47.126 L56.710,45.327 L57.313,43.421 L57.654,41.452 L57.734,39.455 L57.551,37.465 L57.123,35.513 L56.463,33.626 L55.578,31.834 L54.494,30.155 L53.228,28.608 L51.796,27.213 L50.223,25.980 L48.530,24.917 L46.734,24.039 L44.859,23.345 L42.925,22.838 L40.951,22.524 L38.956,22.397 L37.956,22.399 L38.656,22.398 L37.956,22.399 L38.656,22.398 L37.956,22.399 M45.628,84.827 L44.939,84.708 L45.628,84.827 L44.939,84.708 L45.628,84.827 L43.658,84.487 L41.705,84.056 L39.775,83.534 L37.871,82.920 L36.001,82.212 L34.167,81.415 L32.375,80.528 L30.630,79.551 L28.936,78.487 L27.299,77.339 L25.725,76.106 L24.216,74.793 L22.779,73.403 L21.420,71.936 L20.141,70.398 L18.948,68.794 L17.847,67.124 L16.841,65.396 L15.933,63.614 L15.132,61.782 L14.438,59.907 L13.854,57.994 L13.388,56.050 L13.038,54.081 L12.809,52.094 L12.706,50.097 L12.728,48.098 L12.876,46.103 L13.154,44.123 L13.561,42.165 L14.095,40.239 L14.761,38.353 L15.553,36.517 L16.468,34.739 L17.509,33.032 L18.669,31.403 L19.942,29.861 L21.327,28.420 L22.816,27.085 L24.401,25.865 L26.077,24.775 L27.833,23.819 L29.659,23.004 L31.546,22.344 L33.481,21.841 L35.451,21.501 L37.444,21.334 L39.443,21.341 L41.434,21.523 L43.399,21.889 L45.323,22.434 L47.187,23.156 L48.971,24.057 L50.659,25.128 L52.233,26.362 L53.668,27.753 L54.951,29.286 L56.065,30.946 L56.985,32.720 L57.702,34.586 L58.202,36.521 L58.465,38.503 L58.489,40.501 L58.267,42.487 L57.789,44.428 L57.062,46.289 L56.094,48.037 L54.887,49.631 L53.468,51.037 L51.858,52.220 L50.084,53.139 L48.189,53.771 L46.217,54.088 L45.418,54.128 L46.117,54.093 L45.418,54.128 L46.117,54.093 L45.418,54.128 M43.390,37.483 L42.701,37.362 L43.390,37.483 L42.701,37.362 L43.390,37.483 L42.406,37.310 L40.419,37.425 L38.565,38.152 L37.013,39.402 L35.864,41.030 L35.176,42.902 L34.983,44.887 L35.260,46.863 L35.969,48.728 L37.070,50.394 L38.485,51.801 L40.149,52.906 L41.994,53.669 L43.946,54.089 L44.942,54.179 L44.245,54.116 L44.942,54.179 L44.245,54.116 L44.942,54.179 M26.429,81.498 L25.868,81.080 L26.429,81.498 L25.868,81.080 L26.429,81.498 L24.825,80.303 L23.278,79.036 L21.793,77.697 L20.373,76.288 L19.025,74.811 L17.750,73.271 L16.553,71.669 L15.438,70.008 L14.409,68.294 L13.468,66.529 L12.622,64.718 L11.870,62.864 L11.217,60.974 L10.668,59.051 L10.223,57.102 L9.885,55.131 L9.658,53.144 L9.543,51.148 L9.540,49.148 L9.654,47.152 L9.883,45.165 L10.227,43.195 L10.691,41.250 L11.271,39.336 L11.965,37.461 L12.777,35.634 L13.700,33.860 L14.734,32.149 L15.879,30.509 L17.127,28.947 L18.476,27.470 L19.922,26.090 L21.459,24.811 L23.080,23.640 L24.781,22.589 L26.552,21.660 L28.385,20.862 L30.273,20.203 L32.205,19.686 L34.170,19.317 L36.158,19.103 L38.156,19.045 L40.153,19.145 L42.135,19.411 L44.088,19.838 L45.999,20.426 L47.851,21.180 L49.630,22.091 L51.323,23.155 L52.910,24.371 L54.378,25.728 L55.714,27.216 L56.896,28.827 L57.916,30.547 L58.760,32.359 L59.410,34.249 L59.860,36.197 L60.100,38.181 L60.117,40.180 L59.911,42.168 L59.480,44.120 L58.817,46.006 L57.933,47.798 L56.835,49.468 L55.529,50.981 L54.037,52.311 L52.382,53.430 L50.584,54.303 L48.681,54.913 L46.710,55.238 L44.712,55.252 L42.737,54.956 L40.835,54.344 L39.067,53.415 L37.487,52.193 L36.153,50.707 L35.130,48.993 L34.461,47.112 L34.188,45.135 L34.354,43.146 L34.959,41.245 L35.991,39.538 L37.422,38.148 L39.162,37.178 L41.103,36.723 L42.501,36.746 L41.801,36.734 L42.501,36.746 L41.801,36.734 L42.501,36.746 M46.713,39.271 L46.268,38.731 L46.713,39.271 L46.268,38.731 L46.713,39.271 L46.078,38.500 L44.480,37.315 L42.980,36.769 L43.638,37.009 L42.980,36.769 L43.638,37.009 L42.980,36.769 M48.301,71.915 L47.602,71.872 L48.301,71.915 L47.602,71.872 L48.301,71.915 L46.305,71.791 L44.322,71.533 L42.361,71.142 L40.431,70.617 L38.545,69.955 L36.710,69.160 L34.937,68.236 L33.238,67.181 L31.623,66.002 L30.101,64.705 L28.686,63.292 L27.507,61.933 L26.055,59.948 L26.621,60.773 L27.335,61.737 L26.918,61.174 L27.335,61.737 L26.918,61.174 L27.335,61.737 M42.323,33.637 L43.002,33.810 L42.323,33.637 L43.002,33.810 L42.323,33.637 L44.259,34.130 L46.042,35.026 L47.008,35.736 L46.444,35.321 L47.008,35.736 L46.444,35.321 L47.008,35.736 M54.345,36.478 L54.100,35.822 L54.345,36.478 L54.100,35.822 L54.345,36.478 L53.995,35.541 L53.110,33.750 L51.982,32.100 L50.633,30.626 L49.101,29.343 L47.415,28.269 L45.605,27.422 L43.705,26.803 L41.744,26.415 L39.751,26.264 L37.754,26.340 L35.777,26.637 L33.845,27.152 L33.276,27.340 L33.845,27.152 L33.276,27.340 L33.845,27.152 L33.276,27.340 M45.536,63.458 L44.843,63.364 L45.536,63.458 L44.843,63.364 L45.536,63.458 L43.555,63.189 L41.609,62.732 L39.901,62.165 L40.565,62.386 L39.901,62.165 L40.565,62.386 L39.901,62.165 M35.803,59.956 L36.389,60.338 L35.803,59.956 L36.389,60.338 L35.803,59.956 L36.641,60.502 L38.390,61.469 L39.297,61.889 L38.662,61.595 L39.297,61.889 L38.662,61.595 L39.297,61.889 M1.691,35.603 L1.971,34.962 L1.691,35.603 L1.971,34.962 L1.691,35.603 L2.490,33.770 L3.374,31.976 L4.341,30.226 L5.390,28.523 L6.523,26.875 L7.734,25.283 L9.021,23.753 L10.386,22.291 L11.821,20.899 L13.326,19.582 L14.898,18.345 L16.531,17.192 L18.223,16.126 L19.971,15.154 L21.768,14.277 L23.610,13.499 L25.493,12.826 L27.411,12.259 L29.357,11.800 L31.327,11.456 L33.314,11.226 L35.310,11.112 L37.310,11.120 L39.305,11.248 L41.290,11.496 L43.254,11.868 L45.192,12.363 L47.094,12.978 L48.952,13.717 L50.758,14.575 L52.504,15.550 L54.179,16.642 L55.777,17.845 L57.288,19.155 L58.701,20.570 L60.010,22.081 L61.208,23.682 L62.283,25.368 L63.229,27.129 L64.041,28.957 L64.706,30.842 L65.222,32.774 L65.584,34.740 L65.782,36.730 L65.817,38.729 L65.685,40.724 L65.379,42.700 L64.904,44.642 L64.259,46.534 L63.443,48.359 L62.463,50.102 L61.325,51.746 L60.036,53.274 L58.897,55.933 L59.656,55.282 L61.087,53.885 L62.383,52.364 L63.534,50.729 L64.536,48.998 L65.384,47.188 L66.071,45.311 L66.599,43.382 L66.968,41.417 L67.172,39.428 L67.218,37.429 L67.108,35.433 L66.842,33.451 L66.427,31.495 L65.868,29.575 L65.167,27.703 L64.333,25.886 L63.372,24.132 L62.288,22.452 L61.091,20.850 L59.789,19.332 L58.385,17.908 L56.891,16.579 L55.314,15.350 L53.660,14.227 L51.937,13.211 L50.155,12.304 L48.319,11.511 L46.439,10.831 L44.521,10.265 L42.572,9.817 L40.601,9.483 L38.613,9.263 L36.616,9.160 L34.616,9.170 L32.620,9.290 L30.634,9.524 L28.664,9.864 L26.714,10.310 L24.792,10.862 L22.902,11.514 L21.047,12.263 L19.235,13.108 L17.468,14.045 L15.751,15.069 L14.087,16.180 L12.481,17.370 L10.934,18.638 L9.452,19.980 L8.036,21.392 L6.687,22.869 L5.409,24.407 L5.856,23.869 L5.409,24.407 L5.856,23.869 L5.409,24.407 M1.091,40.776 L1.289,40.105 L1.091,40.776 L1.289,40.105 L1.091,40.776 L1.656,38.858 L2.311,36.968 L3.054,35.112 L3.884,33.292 L4.803,31.516 L5.808,29.787 L6.896,28.109 L8.068,26.489 L9.320,24.930 L10.650,23.436 L12.056,22.015 L13.535,20.668 L15.082,19.401 L16.695,18.219 L18.370,17.126 L20.101,16.126 L21.886,15.225 L23.719,14.424 L25.593,13.728 L27.505,13.142 L29.448,12.668 L31.415,12.307 L33.400,12.067 L35.396,11.946 L37.396,11.946 L39.392,12.072 L41.375,12.323 L43.340,12.697 L45.275,13.200 L47.174,13.828 L49.027,14.579 L50.824,15.455 L52.558,16.450 L54.220,17.562 L55.798,18.791 L57.285,20.128 L58.672,21.568 L59.948,23.108 L61.105,24.738 L62.137,26.450 L63.031,28.239 L63.783,30.092 L64.387,31.998 L64.830,33.947 L65.112,35.927 L65.229,37.923 L65.171,39.921 L64.940,41.907 L64.536,43.865 L64.151,45.211 L63.299,47.387 L63.682,46.463 L63.899,45.904 L62.989,47.984 L62.025,49.736 L60.902,51.390 L61.295,50.811 L60.902,51.390 L61.295,50.811 L60.902,51.390 M64.924,49.468 L65.241,48.844 L64.924,49.468 L65.241,48.844 L64.924,49.468 L65.377,48.576 L66.176,46.744 L66.822,44.852 L67.308,42.912 L67.638,40.940 L67.813,38.948 L67.830,36.949 L67.695,34.954 L67.412,32.975 L66.981,31.022 L66.409,29.106 L65.703,27.235 L64.864,25.420 L63.902,23.667 L62.823,21.984 L61.631,20.379 L60.335,18.856 L58.942,17.421 L57.458,16.081 L55.892,14.838 L54.251,13.695 L52.541,12.658 L50.771,11.727 L48.949,10.905 L47.079,10.195 L45.171,9.596 L43.232,9.108 L41.267,8.735 L39.285,8.474 L37.291,8.324 L35.291,8.287 L33.293,8.358 L31.301,8.538 L29.322,8.826 L27.361,9.218 L25.424,9.711 L23.514,10.307 L21.638,10.999 L19.799,11.784 L18.003,12.663 L16.252,13.629 L14.550,14.679 L12.902,15.812 L11.311,17.023 L9.779,18.308 L8.310,19.665 L7.880,20.084 L8.310,19.665 L7.880,20.084 L8.310,19.665 L7.880,20.084 M64.809,49.708 L64.441,50.304 L64.809,49.708 L64.441,50.304 L64.809,49.708 L63.759,51.410 L63.303,52.067 L63.702,51.492 L63.303,52.067 L63.702,51.492 L63.303,52.067 M60.009,55.721 L60.522,55.245 L60.009,55.721 L60.522,55.245 L60.009,55.721 L60.742,55.041 L62.119,53.592 L63.128,52.350 L60.528,51.782 L59.202,53.277 L57.731,54.632 L56.129,55.827 L54.410,56.847 L52.588,57.671 L50.687,58.288 L48.729,58.687 L46.737,58.850 L44.739,58.775 L42.766,58.457 L40.850,57.889 L39.023,57.079 L37.319,56.035 L35.778,54.762 L34.431,53.287 L33.310,51.633 L32.457,49.826 L31.891,47.910 L31.638,45.929 L31.724,43.933 L32.149,41.982 L32.913,40.137 L34.013,38.470 L35.411,37.045 L35.716,36.786 L35.411,37.045 L35.716,36.786 L35.411,37.045 L35.716,36.786 M33.464,54.778 L33.926,55.303 L33.464,54.778 L33.926,55.303 L33.464,54.778 L34.125,55.528 L35.571,56.908 L37.175,58.099 L38.914,59.084 L40.756,59.860 L42.675,60.422 L44.645,60.761 L46.640,60.884 L48.637,60.795 L50.613,60.494 L52.549,59.994 L54.425,59.305 L56.223,58.431 L57.930,57.391 L59.533,56.195 L59.689,56.071 L59.533,56.195 L59.689,56.071 L59.533,56.195 L59.689,56.071 M2.203,52.872 L2.200,52.172 L2.203,52.872 L2.200,52.172 L2.203,52.872 L2.195,50.872 L2.281,48.874 L2.461,46.882 L2.735,44.901 L3.107,42.936 L3.574,40.992 L4.136,39.073 L4.795,37.185 L5.548,35.332 L6.393,33.520 L7.334,31.755 L8.364,30.041 L9.483,28.383 L10.690,26.789 L11.981,25.262 L13.353,23.808 L14.805,22.433 L16.331,21.140 L17.928,19.936 L19.592,18.827 L21.317,17.815 L23.098,16.906 L24.931,16.107 L26.808,15.419 L28.724,14.845 L30.672,14.394 L32.644,14.065 L34.634,13.861 L36.632,13.788 L38.631,13.845 L40.621,14.032 L42.595,14.356 L44.541,14.812 L46.452,15.401 L48.316,16.125 L50.124,16.979 L51.866,17.961 L53.530,19.070 L55.107,20.300 L56.586,21.644 L57.956,23.101 L59.208,24.660 L60.333,26.313 L61.317,28.053 L62.156,29.868 L62.841,31.747 L63.359,33.678 L63.708,35.646 L63.883,37.638 L63.873,39.637 L63.681,41.627 L63.304,43.590 L62.736,45.507 L61.985,47.360 L61.054,49.129 L59.943,50.791 L58.666,52.329 L57.234,53.723 L55.654,54.949 L53.949,55.991 L52.136,56.833 L50.235,57.451 L48.275,57.838 L46.281,57.981 L44.286,57.865 L42.323,57.491 L40.427,56.859 L38.639,55.966 L36.996,54.830 L35.535,53.466 L34.304,51.893 L33.331,50.148 L32.651,48.270 L32.303,46.303 L32.300,44.306 L32.654,42.340 L33.378,40.480 L33.970,39.436 L33.624,40.045 L33.970,39.436 L33.624,40.045 L33.970,39.436 M57.823,77.493 L58.507,77.345 L57.823,77.493 L58.507,77.345 L57.823,77.493 L58.801,77.281 L60.739,76.789 L62.650,76.199 L64.527,75.511 L66.369,74.731 L68.169,73.861 L69.924,72.903 L71.631,71.860 L73.286,70.738 L74.885,69.537 L76.426,68.263 L76.729,68.001 L76.426,68.263 L76.729,68.001 L76.426,68.263 L76.729,68.001 M33.228,2.230 L33.928,2.225 L33.228,2.230 L33.928,2.225 L33.228,2.230 L34.828,2.219 L34.128,2.224 L34.828,2.219 L34.128,2.224 L34.828,2.219 M24.407,9.396 L23.740,9.610 L24.407,9.396 L23.740,9.610 L24.407,9.396 L23.455,9.702 L21.573,10.380 L19.728,11.151 L17.925,12.015 L16.165,12.965 L14.453,13.998 L12.793,15.115 L11.189,16.308 L9.641,17.574 L9.489,17.704 L9.641,17.574 L9.489,17.704 L9.641,17.574 L9.489,17.704 M10.573,69.657 L10.266,69.028 L10.573,69.657 L10.266,69.028 L10.573,69.657 L9.695,67.861 L8.902,66.025 L8.196,64.154 L7.579,62.251 L7.058,60.321 L6.631,58.367 L6.300,56.395 L6.071,54.408 L5.941,52.413 L5.912,50.413 L5.990,48.415 L6.170,46.423 L6.454,44.444 L6.847,42.483 L7.343,40.546 L7.944,38.639 L8.651,36.768 L9.462,34.940 L10.373,33.160 L11.387,31.437 L12.499,29.775 L13.706,28.180 L15.007,26.662 L16.397,25.224 L17.871,23.873 L19.428,22.618 L21.059,21.461 L22.760,20.410 L24.527,19.474 L26.350,18.653 L28.224,17.954 L30.141,17.385 L32.092,16.947 L34.068,16.643 L36.061,16.482 L38.061,16.463 L40.056,16.586 L42.037,16.859 L43.992,17.278 L45.911,17.842 L47.778,18.556 L49.585,19.412 L51.318,20.409 L52.963,21.545 L54.510,22.813 L55.945,24.204 L57.254,25.716 L58.427,27.335 L59.454,29.050 L60.317,30.854 L61.013,32.728 L61.530,34.659 L61.862,36.631 L63.154,39.221 L63.148,38.221 L63.009,36.227 L62.687,34.254 L62.184,32.319 L61.513,30.436 L60.681,28.617 L59.694,26.879 L58.565,25.228 L57.305,23.676 L55.921,22.233 L54.427,20.904 L52.834,19.696 L51.151,18.616 L49.392,17.667 L47.567,16.850 L45.685,16.172 L43.760,15.632 L41.802,15.228 L39.820,14.967 L37.824,14.841 L35.824,14.851 L33.830,14.999 L31.850,15.277 L29.892,15.682 L27.965,16.216 L26.075,16.870 L24.230,17.641 L22.437,18.526 L20.701,19.519 L19.027,20.613 L17.424,21.807 L15.892,23.093 L14.437,24.465 L13.065,25.920 L11.777,27.449 L10.576,29.048 L9.467,30.712 L8.450,32.434 L7.526,34.208 L6.701,36.029 L5.973,37.892 L5.341,39.789 L4.811,41.717 L4.380,43.670 L4.047,45.642 L3.815,47.628 L3.681,49.623 L3.644,51.623 L3.706,53.622 L3.863,55.615 L4.114,57.599 L4.457,59.570 L4.337,58.880 L4.457,59.570 L4.337,58.880 L4.457,59.570 M14.213,73.553 L13.828,72.968 L14.213,73.553 L13.828,72.968 L14.213,73.553 L13.114,71.882 L12.094,70.162 L11.156,68.395 L10.304,66.586 L9.542,64.737 L8.871,62.854 L8.292,60.939 L7.813,58.998 L7.431,57.035 L7.149,55.055 L6.972,53.063 L6.899,51.065 L6.930,49.065 L7.070,47.070 L7.317,45.086 L7.671,43.118 L8.136,41.173 L8.708,39.257 L9.386,37.375 L10.173,35.537 L11.065,33.748 L12.060,32.013 L13.158,30.342 L14.354,28.739 L15.645,27.212 L17.030,25.769 L18.502,24.416 L20.056,23.157 L21.689,22.004 L23.394,20.958 L25.163,20.027 L26.992,19.220 L28.872,18.537 L30.794,17.986 L32.750,17.573 L34.731,17.299 L36.726,17.169 L38.726,17.188 L40.718,17.355 L42.693,17.671 L44.636,18.142 L46.537,18.762 L48.383,19.531 L50.159,20.449 L51.853,21.510 L53.454,22.708 L54.944,24.041 L56.314,25.498 L57.550,27.069 L58.635,28.748 L59.483,30.335 L59.153,29.718 L59.483,30.335 L59.153,29.718 L59.483,30.335 M60.986,34.753 L60.812,34.074 L60.986,34.753 L60.812,34.074 L60.986,34.753 L60.738,33.784 L60.113,31.885 L59.738,30.958 L60.001,31.607 L59.738,30.958 L60.001,31.607 L59.738,30.958 M61.043,35.291 L61.142,35.984 L61.043,35.291 L61.142,35.984 L61.043,35.291 L61.325,37.271 L61.407,39.268 L61.283,41.263 L60.950,43.234 L60.401,45.156 L59.643,47.006 L58.681,48.758 L57.518,50.383 L56.170,51.859 L54.653,53.161 L52.982,54.256 L51.183,55.127 L49.286,55.754 L47.319,56.109 L45.323,56.186 L43.336,55.974 L41.405,55.461 L39.576,54.657 L37.898,53.573 L36.428,52.221 L35.210,50.638 L34.292,48.865 L33.725,46.950 L33.536,44.962 L33.533,44.562 L33.536,44.962 L33.533,44.562 L33.536,44.962 L33.533,44.562 M79.695,62.924 L80.143,62.387 L79.695,62.924 L80.143,62.387 L79.695,62.924 L80.335,62.156 L79.887,62.694 L80.335,62.156 L79.887,62.694 L80.335,62.156 M52.033,83.981 L51.333,83.970 L52.033,83.981 L51.333,83.970 L52.033,83.981 L50.034,83.949 L48.038,83.823 L46.050,83.603 L44.075,83.289 L42.118,82.878 L40.183,82.372 L38.276,81.772 L36.401,81.075 L34.564,80.285 L32.769,79.404 L31.023,78.428 L29.330,77.364 L27.696,76.213 L26.126,74.974 L24.625,73.652 L23.197,72.252 L21.852,70.773 L20.590,69.221 L19.417,67.602 L18.341,65.916 L17.364,64.171 L16.490,62.373 L15.727,60.524 L15.076,58.633 L14.541,56.707 L14.128,54.750 L13.838,52.772 L13.672,50.779 L13.639,48.780 L13.734,46.782 L13.961,44.796 L14.323,42.829 L14.817,40.892 L15.443,38.992 L16.203,37.143 L17.092,35.352 L18.107,33.629 L19.248,31.987 L20.508,30.435 L21.880,28.981 L22.905,28.026 L22.393,28.504 L22.905,28.026 L22.393,28.504 L22.905,28.026 M26.876,25.142 L26.279,25.508 L26.876,25.142 L26.279,25.508 L26.876,25.142 L26.023,25.665 L24.378,26.802 L23.128,27.800 L23.675,27.363 L23.128,27.800 L23.675,27.363 L23.128,27.800 M27.233,24.881 L27.859,24.568 L27.233,24.881 L27.859,24.568 L27.233,24.881 L29.022,23.987 L30.877,23.243 L32.594,22.703 L31.926,22.913 L32.594,22.703 L31.926,22.913 L32.594,22.703 M73.494,69.917 L74.050,69.492 L73.494,69.917 L74.050,69.492 L73.494,69.917 L74.288,69.310 L75.835,68.042 L77.321,66.704 L78.324,65.727 L77.823,66.216 L78.324,65.727 L77.823,66.216 L78.324,65.727 M72.870,70.363 L72.293,70.758 L72.870,70.363 L72.293,70.758 L72.870,70.363 L71.551,71.267 L72.128,70.871 L71.551,71.267 L72.128,70.871 L71.551,71.267 M67.980,73.345 L68.596,73.013 L67.980,73.345 L68.596,73.013 L67.980,73.345 L68.860,72.870 L70.587,71.861 L70.927,71.651 L70.587,71.861 L70.927,71.651 L70.587,71.861 L70.927,71.651 M36.280,84.433 L35.633,84.164 L36.280,84.433 L35.633,84.164 L36.280,84.433 L34.433,83.665 L32.624,82.812 L30.858,81.875 L29.138,80.855 L27.470,79.750 L25.859,78.567 L24.307,77.305 L22.821,75.966 L21.405,74.555 L20.062,73.073 L18.799,71.523 L17.618,69.909 L16.523,68.236 L15.520,66.505 L14.612,64.724 L13.802,62.895 L13.097,61.024 L12.496,59.117 L12.003,57.179 L11.625,55.215 L11.360,53.233 L11.211,51.239 L11.184,49.240 L11.276,47.242 L11.488,45.254 L11.826,43.283 L12.286,41.337 L12.867,39.423 L13.573,37.552 L14.398,35.731 L15.341,33.968 L16.403,32.273 L17.577,30.655 L18.858,29.120 L20.247,27.681 L21.734,26.344 L23.312,25.117 L24.978,24.011 L26.722,23.032 L28.534,22.187 L30.407,21.487 L32.328,20.934 L34.287,20.535 L36.273,20.299 L38.271,20.227 L40.268,20.321 L42.249,20.588 L44.200,21.026 L46.105,21.634 L47.945,22.414 L49.707,23.360 L51.373,24.465 L52.922,25.728 L54.342,27.136 L55.615,28.677 L56.720,30.343 L57.647,32.114 L58.382,33.973 L58.904,35.903 L59.209,37.878 L59.288,39.875 L59.127,41.868 L58.729,43.826 L58.094,45.721 L57.219,47.518 L56.119,49.186 L54.807,50.694 L53.295,52.001 L51.615,53.082 L49.795,53.907 L49.037,54.163 L46.571,54.661 L47.561,54.522 L48.735,54.275 L48.050,54.419 L48.735,54.275 L48.050,54.419 L48.735,54.275 M39.994,84.854 L39.326,84.644 L39.994,84.854 L39.326,84.644 L39.994,84.854 L38.086,84.254 L36.209,83.565 L34.366,82.788 L32.562,81.925 L30.803,80.974 L29.092,79.938 L27.434,78.819 L25.836,77.618 L24.300,76.338 L22.830,74.981 L21.434,73.549 L20.115,72.047 L18.875,70.477 L17.723,68.843 L16.661,67.149 L15.692,65.399 L14.823,63.598 L14.055,61.752 L13.393,59.865 L12.841,57.943 L12.402,55.992 L12.077,54.019 L11.872,52.030 L11.787,50.032 L11.822,48.033 L11.984,46.039 L12.270,44.060 L12.679,42.103 L13.217,40.177 L13.398,39.605 L13.217,40.177 L13.398,39.605 L13.217,40.177 L13.398,39.605 M20.450,26.712 L19.941,27.193 L20.450,26.712 L19.941,27.193 L20.450,26.712 L19.723,27.399 L18.338,28.841 L17.053,30.374 L15.878,31.991 L14.813,33.683 L13.860,35.441 L13.026,37.259 L12.308,39.125 L11.709,41.033 L11.233,42.975 L10.876,44.943 L10.637,46.928 L10.521,48.924 L10.523,50.924 L10.640,52.920 L10.874,54.906 L11.220,56.876 L11.676,58.823 L12.242,60.741 L12.912,62.625 L13.682,64.471 L14.552,66.271 L15.516,68.023 L16.570,69.722 L17.713,71.363 L18.938,72.944 L20.241,74.461 L21.620,75.909 L23.069,77.287 L24.584,78.593 L26.162,79.822 L27.796,80.974 L29.484,82.047 L31.221,83.038 L32.283,83.595 L31.664,83.270 L32.283,83.595 L31.664,83.270 L32.283,83.595 M21.391,78.973 L20.891,78.484 L21.391,78.973 L20.891,78.484 L21.391,78.973 L19.962,77.575 L18.599,76.112 L17.306,74.586 L16.088,73.000 L14.949,71.356 L13.892,69.658 L12.919,67.911 L12.037,66.116 L11.246,64.280 L10.549,62.406 L9.952,60.497 L9.454,58.560 L9.059,56.600 L8.771,54.621 L8.590,52.629 L8.516,50.631 L8.556,48.632 L8.707,46.638 L8.969,44.655 L9.348,42.692 L9.838,40.753 L10.441,38.846 L11.158,36.980 L11.986,35.159 L12.922,33.393 L13.968,31.688 L15.118,30.053 L16.369,28.492 L17.720,27.018 L19.163,25.634 L20.694,24.348 L22.310,23.170 L24.002,22.104 L25.762,21.156 L27.587,20.337 L29.464,19.649 L31.386,19.097 L33.344,18.691 L35.326,18.431 L37.323,18.321 L39.322,18.368 L41.311,18.571 L43.278,18.930 L45.208,19.450 L47.089,20.127 L48.908,20.958 L50.647,21.945 L52.294,23.078 L53.835,24.351 L55.252,25.762 L56.534,27.296 L57.457,28.603 L57.053,28.031 L57.457,28.603 L57.053,28.031 L57.457,28.603 M29.642,65.895 L30.171,66.353 L29.642,65.895 L30.171,66.353 L29.642,65.895 L30.398,66.550 L30.858,66.935 L29.397,65.702 L27.986,64.285 L26.684,62.768 L26.312,62.297 L26.684,62.768 L26.312,62.297 L26.684,62.768 L26.312,62.297 M21.573,51.772 L21.716,52.457 L21.573,51.772 L21.716,52.457 L21.573,51.772 L21.778,52.750 L22.298,54.681 L22.973,56.563 L23.802,58.382 L24.771,60.131 L25.873,61.800 L25.988,61.964 M1.090,46.274 L1.198,45.583 L1.090,46.274 L1.198,45.583 L1.090,46.274 L1.400,44.299 L1.802,42.340 L2.295,40.402 L2.880,38.489 L3.559,36.608 L4.328,34.762 L5.186,32.956 L6.136,31.196 L7.172,29.486 L8.294,27.830 L9.501,26.236 L10.789,24.707 L12.156,23.246 L13.600,21.863 L15.115,20.558 L16.699,19.338 L18.350,18.209 L20.060,17.173 L21.826,16.234 L23.644,15.400 L25.506,14.673 L27.408,14.054 L29.344,13.552 L31.306,13.167 L33.288,12.901 L35.282,12.760 L37.282,12.743 L39.279,12.852 L41.264,13.092 L43.229,13.460 L45.166,13.955 L47.065,14.582 L48.917,15.336 L50.714,16.214 L52.442,17.219 L54.096,18.343 L55.665,19.583 L57.137,20.936 L58.505,22.394 L59.760,23.951 L60.888,25.602 L61.885,27.335 L62.743,29.141 L63.448,31.012 L63.999,32.934 L64.388,34.895 L64.499,35.687 L64.644,38.024 L64.601,37.025 L64.562,36.426 L64.620,38.704 L64.500,40.700 L64.316,42.088 L64.408,41.394 L64.316,42.088 L64.408,41.394 L64.316,42.088 M62.564,47.559 L62.842,46.917 L62.564,47.559 L62.842,46.917 L62.564,47.559 L62.961,46.642 L63.631,44.758 L64.123,42.820 L64.166,42.625 M11.230,15.553 L11.798,15.144 L11.230,15.553 L11.798,15.144 L11.230,15.553 L12.853,14.384 L14.528,13.292 L15.039,12.978 L14.528,13.292 L15.039,12.978 L14.528,13.292 L15.039,12.978 M19.401,10.670 L18.767,10.965 L19.401,10.670 L18.767,10.965 L19.401,10.670 L18.495,11.092 L16.711,11.996 L15.316,12.779 L15.926,12.436 L15.316,12.779 L15.926,12.436 L15.316,12.779 M33.549,44.004 L33.657,43.312 L33.549,44.004 L33.657,43.312 L33.549,44.004 L33.703,43.016 L34.460,40.884 L34.086,41.811 L33.890,42.378 L34.086,41.811 L33.890,42.378 L34.086,41.811 L33.890,42.378 M72.631,72.647 L72.034,73.013 L72.631,72.647 L72.034,73.013 L72.631,72.647 L70.927,73.695 L70.755,73.797 M59.308,31.452 L59.012,30.818 L59.308,31.452 L59.012,30.818 L59.308,31.452 L58.885,30.546 L58.030,28.963 L59.500,32.027 L60.139,33.922 L60.478,35.280 L60.792,37.993 L60.694,36.998 L60.523,35.810 L60.623,36.503 L60.523,35.810 L60.623,36.503 L60.523,35.810 M2.537,54.289 L2.501,53.590 L2.537,54.289 L2.501,53.590 L2.537,54.289 L2.486,53.291 L2.522,53.990 L2.486,53.291 L2.522,53.990 L2.486,53.291 M9.542,61.242 L9.752,61.909 L9.542,61.242 L9.752,61.909 L9.542,61.242 L9.843,62.195 L10.511,64.080 L11.274,65.929 L12.129,67.736 L13.072,69.500 L14.099,71.216 L15.210,72.879 L16.399,74.487 L17.661,76.038 L18.587,77.088 L18.124,76.563 L18.587,77.088 L18.124,76.563 L18.587,77.088 M13.644,39.460 L13.894,38.805 L13.644,39.460 L13.894,38.805 L13.644,39.460 L14.356,37.591 L15.191,35.774 L16.146,34.017 L17.220,32.330 L18.411,30.724 L19.712,29.206 L21.118,27.785 L22.627,26.473 L24.229,25.276 L25.916,24.202 L27.682,23.264 L29.515,22.466 L30.452,22.118 L31.651,21.726 L30.695,22.022 L31.364,21.815 L30.695,22.022 L31.364,21.815 L30.695,22.022 M79.126,63.078 L78.654,63.595 L79.126,63.078 L78.654,63.595 L79.126,63.078 L77.776,64.554 L76.358,65.963 L75.921,66.375 L76.358,65.963 L75.921,66.375 L76.358,65.963 L75.921,66.375 M72.253,69.362 L72.813,68.942 L72.253,69.362 L72.813,68.942 L72.253,69.362 L73.053,68.762 L74.611,67.508 L75.369,66.855 L74.838,67.312 L75.369,66.855 L74.838,67.312 L75.369,66.855 M71.706,69.709 L71.123,70.096 L71.706,69.709 L71.123,70.096 L71.706,69.709 L70.040,70.815 L68.321,71.837 L66.553,72.771 L64.739,73.613 L62.883,74.358 L62.320,74.566 L62.883,74.358 L62.320,74.566 L62.883,74.358 L62.320,74.566 M13.077,70.575 L13.443,71.172 L13.077,70.575 L13.443,71.172 L13.077,70.575 L13.600,71.428 L14.701,73.097 L15.880,74.712 L16.748,75.810 L16.314,75.261 L16.748,75.810 L16.314,75.261 L16.748,75.810 M63.277,39.987 L63.199,40.682 L63.277,39.987 L63.199,40.682 L63.277,39.987 L63.054,41.973 L62.640,43.929 L62.111,45.649 L62.317,44.980 L62.111,45.649 L62.317,44.980 L62.111,45.649 M59.324,50.681 L59.728,50.109 L59.324,50.681 L59.728,50.109 L59.324,50.681 L59.902,49.864 L60.932,48.152 L61.780,46.341 L61.858,46.157 M15.252,11.424 L15.870,11.097 L15.252,11.424 L15.870,11.097 L15.252,11.424 L17.019,10.488 L17.197,10.397 L17.019,10.488 L17.197,10.397 L17.019,10.488 L17.197,10.397 M17.279,73.701 L17.719,74.245 L17.279,73.701 L17.719,74.245 L17.279,73.701 L17.907,74.479 L19.215,75.991 L20.311,77.157 L19.832,76.647 L20.311,77.157 L19.832,76.647 L20.311,77.157 M20.717,26.472 L21.259,26.029 L20.717,26.472 L21.259,26.029 L20.717,26.472 L22.265,25.206 L23.898,24.052 L24.401,23.725 L27.073,22.248 L26.180,22.699 L24.612,23.581 L27.391,22.060 L29.239,21.297 L31.140,20.676 L33.082,20.202 L34.658,19.929 L33.969,20.048 L34.658,19.929 L33.969,20.048 L34.658,19.929 M11.176,69.627 L11.513,70.241 L11.176,69.627 L11.513,70.241 L11.176,69.627 L11.658,70.504 L12.257,71.543 L11.907,70.937 L12.257,71.543 L11.907,70.937 L12.257,71.543 M43.681,1.021 L42.982,1.000 L43.681,1.021 L42.982,1.000 L45.470,1.074 L42.982,1.000 L45.470,1.074 L47.949,1.295 L45.470,1.074 L47.949,1.295 L50.411,1.662 L47.949,1.295 L50.411,1.662 L52.847,2.175 L50.411,1.662 L52.847,2.175 L55.248,2.831 L52.847,2.175 L55.248,2.831 L57.606,3.628 L55.248,2.831 L57.606,3.628 L59.913,4.564 L57.606,3.628 L59.913,4.564 L62.160,5.634 L59.913,4.564 L62.160,5.634 L64.340,6.836 L62.160,5.634 L64.340,6.836 L66.445,8.165 L64.340,6.836 L66.445,8.165 L68.467,9.616 L66.445,8.165 L68.467,9.616 L70.400,11.185 L68.467,9.616 L70.400,11.185 L72.237,12.865 L70.400,11.185 L72.237,12.865 L73.971,14.651 L72.237,12.865 L73.971,14.651 L75.596,16.536 L73.971,14.651 L75.596,16.536 L77.106,18.515 L75.596,16.536 L77.106,18.515 L78.497,20.579 L77.106,18.515 L78.497,20.579 L79.762,22.723 L78.497,20.579 L79.762,22.723 L80.899,24.937 L79.762,22.723 L80.899,24.937 L81.903,27.215 L80.899,24.937 L81.903,27.215 L82.769,29.549 L81.903,27.215 L82.769,29.549 L83.496,31.929 L82.769,29.549 L83.496,31.929 L84.081,34.349 L83.496,31.929 L84.081,34.349 L84.521,36.799 L84.081,34.349 L84.521,36.799 L84.816,39.271 L84.521,36.799 L84.816,39.271 L84.963,41.755 L84.816,39.271 L84.963,41.755 L84.963,44.245 L84.963,41.755 L84.963,44.245 L84.816,46.729 L84.963,44.245 L84.816,46.729 L84.521,49.201 L84.816,46.729 L84.521,49.201 L84.081,51.651 L84.521,49.201 L84.081,51.651 L83.496,54.071 L84.081,51.651 L83.496,54.071 L82.769,56.451 L83.496,54.071 L82.769,56.451 L81.903,58.785 L82.769,56.451 L81.903,58.785 L80.899,61.063 L81.903,58.785 L80.899,61.063 L79.762,63.277 L80.899,61.063 L79.762,63.277 L78.497,65.421 L79.762,63.277 L78.497,65.421 L77.106,67.485 L78.497,65.421 L77.106,67.485 L75.596,69.464 L77.106,67.485 L75.596,69.464 L73.971,71.349 L75.596,69.464 L73.971,71.349 L72.237,73.135 L73.971,71.349 L72.237,73.135 L70.400,74.815 L72.237,73.135 L70.400,74.815 L68.467,76.384 L70.400,74.815 L68.467,76.384 L66.445,77.835 L68.467,76.384 L66.445,77.835 L64.340,79.164 L66.445,77.835 L64.340,79.164 L62.160,80.366 L64.340,79.164 L62.160,80.366 L59.913,81.436 L62.160,80.366 L59.913,81.436 L57.606,82.372 L59.913,81.436 L57.606,82.372 L55.248,83.169 L57.606,82.372 L55.248,83.169 L52.847,83.825 L55.248,83.169 L52.847,83.825 L50.411,84.338 L52.847,83.825 L50.411,84.338 L47.949,84.705 L50.411,84.338 L47.949,84.705 L45.470,84.926 L47.949,84.705 L45.470,84.926 L42.982,85.000 L45.470,84.926 L42.982,85.000 L40.493,84.926 L42.982,85.000 L40.493,84.926 L38.014,84.705 L40.493,84.926 L38.014,84.705 L35.552,84.338 L38.014,84.705 L35.552,84.338 L33.116,83.825 L35.552,84.338 L33.116,83.825 L30.715,83.169 L33.116,83.825 L30.715,83.169 L28.357,82.372 L30.715,83.169 L28.357,82.372 L26.050,81.436 L28.357,82.372 L26.050,81.436 L23.803,80.366 L26.050,81.436 L23.803,80.366 L21.623,79.164 L23.803,80.366 L21.623,79.164 L19.518,77.835 L21.623,79.164 L19.518,77.835 L17.496,76.384 L19.518,77.835 L17.496,76.384 L15.563,74.815 L17.496,76.384 L15.563,74.815 L13.726,73.135 L15.563,74.815 L13.726,73.135 L11.993,71.349 L13.726,73.135 L11.993,71.349 L10.368,69.464 L11.993,71.349 L10.368,69.464 L8.857,67.485 L10.368,69.464 L8.857,67.485 L7.467,65.421 L8.857,67.485 L7.467,65.421 L6.201,63.277 L7.467,65.421 L6.201,63.277 L5.064,61.063 L6.201,63.277 L5.064,61.063 L4.061,58.785 L5.064,61.063 L4.061,58.785 L3.194,56.451 L4.061,58.785 L3.194,56.451 L2.467,54.071 L3.194,56.451 L2.467,54.071 L1.882,51.651 L2.467,54.071 L1.882,51.651 L1.442,49.201 L1.882,51.651 L1.442,49.201 L1.147,46.729 L1.442,49.201 L1.147,46.729 L1.000,44.245 L1.147,46.729 L1.000,44.245 L1.000,41.755 L1.000,44.245 L1.000,41.755 L1.147,39.271 L1.000,41.755 L1.147,39.271 L1.442,36.799 L1.147,39.271 L1.442,36.799 L1.882,34.349 L1.442,36.799 L1.882,34.349 L2.467,31.929 L1.882,34.349 L2.467,31.929 L3.194,29.549 L2.467,31.929 L3.194,29.549 L4.061,27.215 L3.194,29.549 L4.061,27.215 L5.064,24.937 L4.061,27.215 L5.064,24.937 L6.201,22.723 L5.064,24.937 L6.201,22.723 L7.467,20.579 L6.201,22.723 L7.467,20.579 L8.857,18.515 L7.467,20.579 L8.857,18.515 L10.368,16.536 L8.857,18.515 L10.368,16.536 L11.993,14.651 L10.368,16.536 L11.993,14.651 L13.726,12.865 L11.993,14.651 L13.726,12.865 L15.563,11.185 L13.726,12.865 L15.563,11.185 L17.496,9.616 L15.563,11.185 L17.496,9.616 L19.518,8.165 L17.496,9.616 L19.518,8.165 L21.623,6.836 L19.518,8.165 L21.623,6.836 L23.803,5.634 L21.623,6.836 L23.803,5.634 L26.050,4.564 L23.803,5.634 L26.050,4.564 L28.357,3.628 L26.050,4.564 L28.357,3.628 L30.715,2.831 L28.357,3.628 L30.715,2.831 L33.116,2.175 L30.715,2.831 L33.116,2.175 L35.552,1.662 L33.116,2.175 L35.552,1.662 L38.014,1.295 L35.552,1.662 L38.014,1.295 L40.493,1.074 L38.014,1.295 L40.493,1.074 L42.982,1.000 L40.493,1.074 L42.982,1.000 L42.282,1.021 L42.982,1.000 L42.282,1.021 L42.982,1.000"/>
</svg>
