<svg xmlns="http://www.w3.org/2000/svg" viewBox="-0.471 0 73.92 73.92" width="256" height="256">
  <title>wander</title>
  <rect x="-0.471" y="0" width="73.92" height="73.92" fill="#f5efe4"/>
  <path fill="none" stroke="#c8472f" stroke-width="0.4" stroke-linecap="round" stroke-linejoin="round" d="M35.350,36.042 L35.350,35.342 L35.350,36.042 L35.350,35.342 L35.350,36.042 L35.350,34.742 L35.350,33.442 L35.369,32.142 L35.387,30.842 L35.453,29.544 L35.519,28.246 L35.755,26.967 L35.992,25.689 L36.367,24.445 L36.743,23.200 L37.601,22.224 L38.460,21.248 L39.363,20.313 L40.266,19.378 L40.594,18.120 L40.922,16.862 L41.296,15.617 L41.671,14.372 L42.205,13.187 L42.740,12.002 L43.202,10.787 L43.663,9.571 L44.095,8.345 L44.527,7.119 L45.421,6.175 L46.315,5.232 L47.113,4.205 L47.911,3.179 L48.903,2.339 L49.896,1.499 L49.144,2.560 L48.392,3.620 L48.103,4.888 L47.814,6.155 L47.879,7.454 L47.943,8.752 L48.172,10.032 L48.400,11.312 L48.818,12.543 L49.235,13.774 L49.527,15.041 L49.818,16.308 L50.637,17.317 L51.456,18.327 L52.149,19.427 L52.843,20.526 L53.431,21.686 L54.019,22.845 L54.719,23.941 L55.419,25.036 L55.611,26.322 L55.803,27.607 L55.514,28.875 L55.224,30.142 L54.541,31.248 L53.858,32.354 L53.436,33.584 L53.014,34.813 L52.413,35.966 L51.812,37.119 L51.582,38.398 L51.353,39.678 L51.817,40.892 L52.280,42.107 L52.372,43.404 L52.463,44.700 L51.825,45.833 L51.187,46.966 L50.847,48.220 L50.506,49.475 L50.722,50.757 L50.938,52.039 L50.769,53.328 L50.599,54.617 L50.672,55.914 L50.745,57.212 L50.733,58.512 L50.721,59.812 L50.587,61.105 L50.454,62.399 L49.802,63.523 L49.150,64.648 L49.035,65.943 L48.919,67.238 L48.277,68.368 L47.635,69.499 L46.610,70.299 L45.586,71.099 L45.721,69.806 L45.856,68.513 L45.335,67.323 L44.813,66.132 L44.818,64.832 L44.824,63.532 L44.825,62.232 L44.826,60.932 L44.868,59.633 L44.911,58.333 L44.592,57.073 L44.273,55.813 L43.957,54.552 L43.641,53.291 L43.694,51.992 L43.747,50.693 L43.168,49.529 L42.589,48.365 L42.223,47.117 L41.857,45.870 L40.888,45.003 L39.919,44.137 L38.894,43.338 L37.868,42.539 L36.988,41.583 L36.107,40.626 L35.909,39.342 L35.712,38.057 L35.403,36.794 L35.093,35.531 L34.732,34.282 L34.371,33.034 L33.792,31.870 L33.214,30.705 L32.111,30.017 L31.008,29.329 L30.143,28.359 L29.278,27.388 L28.322,26.508 L27.365,25.627 L26.731,24.492 L26.097,23.357 L25.208,22.409 L24.319,21.461 L23.495,20.455 L22.671,19.449 L21.676,18.613 L20.680,17.777 L20.110,16.609 L19.540,15.441 L18.547,14.601 L17.554,13.762 L16.290,13.459 L15.026,13.155 L13.826,12.655 L12.626,12.155 L11.515,11.480 L10.404,10.805 L9.109,10.691 L7.814,10.576 L9.076,10.264 L10.338,9.952 L9.418,9.034 L8.498,8.115 L9.386,9.065 L10.274,10.014 L10.120,8.723 L9.966,7.432 L10.551,8.593 L11.136,9.754 L11.700,10.926 L12.264,12.097 L13.391,12.745 L14.518,13.393 L15.235,14.477 L15.951,15.562 L16.908,16.443 L17.864,17.323 L18.913,18.091 L19.961,18.860 L21.242,19.082 L22.523,19.305 L23.748,18.870 L24.973,18.435 L26.272,18.381 L27.571,18.326 L28.871,18.343 L30.170,18.359 L31.470,18.398 L32.769,18.436 L33.937,17.865 L35.105,17.294 L36.311,16.810 L37.518,16.325 L38.783,16.026 L40.048,15.726 L41.311,16.031 L42.575,16.336 L43.480,17.269 L44.385,18.202 L45.173,19.237 L45.960,20.271 L46.610,21.397 L47.259,22.523 L47.806,23.702 L48.353,24.882 L48.919,26.052 L49.484,27.223 L50.538,27.984 L51.592,28.745 L52.488,29.687 L53.383,30.629 L54.091,31.720 L54.799,32.810 L54.761,34.109 L54.723,35.409 L54.355,36.656 L53.987,37.903 L54.194,39.186 L54.400,40.470 L55.136,41.541 L55.872,42.613 L56.405,43.798 L56.938,44.984 L56.739,46.269 L56.539,47.553 L56.587,48.852 L56.635,50.152 L56.032,51.303 L55.428,52.454 L55.004,53.683 L54.580,54.912 L53.793,55.947 L53.006,56.981 L52.039,57.851 L51.073,58.720 L50.670,59.956 L50.268,61.192 L50.198,62.490 L50.127,63.788 L49.800,65.046 L49.473,66.305 L49.157,67.566 L48.842,68.827 L48.334,70.024 L47.826,71.220 L48.297,70.008 L48.767,68.796 L48.953,67.510 L49.140,66.223 L48.689,65.004 L48.237,63.785 L47.867,62.539 L47.497,61.292 L46.951,60.113 L46.404,58.934 L45.450,58.050 L44.496,57.167 L43.946,55.989 L43.396,54.811 L43.519,53.517 L43.642,52.223 L44.150,51.026 L44.657,49.829 L44.394,48.556 L44.131,47.283 L43.764,46.035 L43.398,44.788 L43.582,43.501 L43.767,42.214 L44.060,40.948 L44.352,39.681 L44.943,38.523 L45.534,37.365 L46.299,36.314 L47.063,35.262 L47.088,33.963 L47.113,32.663 L47.131,31.363 L47.150,30.063 L47.154,28.763 L47.159,27.463 L46.643,26.270 L46.127,25.077 L46.085,23.777 L46.042,22.478 L45.346,21.381 L44.649,20.283 L43.507,19.662 L42.365,19.041 L41.782,17.879 L41.199,16.717 L40.781,15.486 L40.363,14.255 L40.261,12.959 L40.160,11.663 L40.583,10.434 L41.005,9.204 L41.975,8.339 L42.945,7.474 L44.233,7.294 L45.520,7.113 L46.524,6.288 L47.529,5.462 L48.126,4.308 L48.724,3.153 L49.452,2.077 L50.181,1.000 L49.734,2.221 L49.287,3.441 L48.791,4.643 L48.295,5.845 L48.499,7.128 L48.703,8.412 L49.534,9.412 L50.366,10.411 L51.242,11.371 L52.119,12.331 L53.227,13.011 L54.335,13.691 L55.505,14.256 L56.676,14.821 L57.649,15.684 L58.621,16.547 L59.679,17.302 L60.737,18.058 L61.922,18.591 L63.108,19.125 L64.229,19.783 L65.350,20.441 L66.559,20.918 L67.769,21.394 L68.519,22.456 L69.268,23.518 L68.219,22.751 L67.170,21.983 L65.937,21.573 L64.703,21.163 L63.591,20.489 L62.480,19.815 L61.247,19.403 L60.014,18.992 L58.816,18.487 L57.617,17.983 L56.525,17.277 L55.434,16.572 L54.134,16.616 L52.835,16.660 L51.685,17.266 L50.535,17.872 L49.721,18.885 L48.907,19.899 L47.767,20.524 L46.627,21.148 L45.867,22.203 L45.106,23.257 L44.004,23.947 L42.902,24.636 L42.129,25.681 L41.356,26.726 L40.424,27.633 L39.493,28.540 L38.283,29.016 L37.073,29.491 L35.778,29.599 L34.482,29.706 L33.240,29.323 L31.998,28.940 L30.721,29.185 L29.444,29.431 L28.444,30.261 L27.443,31.091 L26.243,31.590 L25.043,32.089 L24.084,32.968 L23.126,33.846 L22.672,35.064 L22.219,36.282 L22.006,37.565 L21.794,38.847 L22.213,40.078 L22.632,41.309 L22.450,42.596 L22.268,43.883 L21.871,45.121 L21.474,46.359 L20.762,47.447 L20.050,48.534 L19.238,49.549 L18.425,50.564 L17.340,51.280 L16.254,51.995 L15.025,52.416 L13.795,52.838 L12.637,53.429 L11.479,54.021 L10.194,54.215 L8.909,54.409 L7.758,55.013 L6.607,55.618 L5.744,56.590 L4.881,57.563 L5.457,56.397 L6.034,55.232 L5.851,53.945 L5.668,52.658 L5.585,51.361 L5.503,50.063 L6.133,48.926 L6.762,47.789 L7.822,47.035 L8.881,46.282 L9.959,45.554 L11.036,44.827 L12.324,44.652 L13.612,44.478 L14.626,43.664 L15.639,42.849 L16.680,42.070 L17.720,41.291 L18.956,40.888 L20.192,40.485 L21.253,39.733 L22.313,38.981 L23.613,38.946 L24.912,38.911 L26.072,38.324 L27.232,37.737 L28.532,37.724 L29.832,37.711 L31.131,37.653 L32.429,37.596 L33.584,38.194 L34.738,38.792 L35.354,39.937 L35.971,41.081 L36.736,42.132 L37.501,43.183 L38.314,44.198 L39.127,45.212 L40.016,46.160 L40.906,47.108 L42.137,47.525 L43.368,47.943 L44.666,47.872 L45.965,47.801 L47.073,47.121 L48.181,46.442 L48.825,45.313 L49.469,44.183 L50.598,43.539 L51.727,42.894 L52.893,42.320 L54.059,41.746 L55.271,41.275 L56.483,40.805 L57.479,39.969 L58.474,39.133 L59.756,38.916 L61.038,38.698 L62.045,37.877 L63.052,37.055 L64.304,36.703 L65.556,36.352 L66.662,35.669 L67.768,34.987 L68.373,33.836 L68.978,32.685 L69.500,31.495 L70.022,30.304 L70.366,29.050 L70.711,27.797 L71.157,29.018 L71.602,30.239 L71.286,28.978 L70.970,27.717 L71.233,28.990 L71.496,30.263 L71.737,28.986 L71.978,27.709 L71.555,28.938 L71.131,30.167 L71.186,28.868 L71.242,27.569 L70.845,28.807 L70.449,30.045 L70.091,31.295 L69.734,32.545 L69.520,33.827 L69.307,35.110 L69.678,36.355 L70.050,37.601 L70.797,38.665 L71.543,39.730 L70.374,39.162 L69.204,38.594 L67.906,38.653 L66.607,38.713 L65.347,38.393 L64.087,38.073 L62.805,38.289 L61.523,38.505 L60.394,39.148 L59.264,39.791 L58.191,40.526 L57.119,41.261 L55.861,41.589 L54.603,41.917 L53.314,42.088 L52.026,42.258 L50.726,42.262 L49.426,42.266 L48.154,41.994 L46.883,41.721 L45.586,41.640 L44.288,41.560 L43.080,41.081 L41.871,40.603 L41.055,39.590 L40.240,38.578 L39.232,37.757 L38.225,36.935 L37.459,35.885 L36.693,34.834 L35.514,34.288 L34.334,33.741 L33.034,33.764 L31.734,33.786 L30.434,33.771 L29.134,33.757 L27.870,33.457 L26.605,33.156 L25.347,33.485 L24.089,33.813 L22.832,33.482 L21.575,33.150 L20.634,32.253 L19.693,31.357 L18.456,30.956 L17.220,30.555 L16.313,29.623 L15.405,28.692 L14.375,27.899 L13.345,27.106 L12.552,26.076 L11.759,25.046 L11.057,23.952 L10.356,22.857 L10.068,21.590 L9.779,20.322 L10.220,19.099 L10.661,17.876 L11.016,16.625 L11.371,15.375 L11.294,14.077 L11.217,12.779 L10.859,11.530 L10.502,10.280 L10.481,8.980 L10.460,7.680 L10.962,8.879 L11.464,10.078 L11.633,11.367 L11.802,12.656 L12.527,13.735 L13.252,14.814 L14.069,15.826 L14.886,16.837 L15.351,18.051 L15.817,19.264 L16.384,20.434 L16.952,21.603 L16.826,22.897 L16.701,24.191 L16.205,25.393 L15.709,26.595 L15.800,27.892 L15.891,29.188 L16.586,30.287 L17.281,31.385 L18.353,32.121 L19.425,32.857 L20.725,32.871 L22.025,32.885 L23.131,33.568 L24.238,34.250 L25.498,34.571 L26.757,34.892 L27.937,35.437 L29.118,35.982 L30.397,36.213 L31.676,36.444 L32.975,36.396 L34.274,36.347 L35.541,36.639 L36.808,36.930 L37.925,37.596 L39.041,38.262 L40.058,39.072 L41.075,39.882 L41.482,41.117 L41.890,42.351 L42.218,43.609 L42.546,44.867 L42.389,46.157 L42.232,47.448 L41.999,48.727 L41.767,50.006 L41.703,51.304 L41.640,52.603 L41.913,53.874 L42.185,55.145 L41.829,56.395 L41.473,57.646 L41.746,58.917 L42.019,60.188 L42.220,61.472 L42.421,62.756 L42.714,64.023 L43.008,65.289 L43.031,66.589 L43.054,67.889 L43.031,69.189 L43.009,70.488 L43.469,71.704 L43.929,72.920 L43.350,71.756 L42.772,70.592 L41.929,69.602 L41.086,68.613 L39.876,68.137 L38.666,67.662 L37.805,66.688 L36.944,65.713 L35.971,64.852 L34.997,63.991 L33.732,63.690 L32.468,63.389 L31.234,62.980 L30.000,62.571 L28.742,62.240 L27.485,61.909 L26.193,62.051 L24.901,62.192 L23.859,62.970 L22.818,63.749 L22.323,64.951 L21.828,66.153 L21.497,67.410 L21.166,68.667 L20.268,69.607 L19.371,70.548 L20.595,70.111 L21.820,69.675 L20.867,70.559 L19.913,71.443 L20.257,70.189 L20.601,68.935 L20.367,70.214 L20.132,71.493 L21.092,70.616 L22.051,69.739 L20.753,69.673 L19.455,69.607 L20.710,69.267 L21.964,68.927 L22.901,68.025 L23.837,67.123 L24.285,65.903 L24.734,64.683 L24.743,63.383 L24.752,62.083 L25.299,60.904 L25.847,59.725 L25.864,58.425 L25.882,57.125 L25.331,55.948 L24.781,54.770 L23.710,54.033 L22.639,53.296 L21.952,52.192 L21.265,51.089 L20.937,49.831 L20.609,48.573 L19.641,47.705 L18.673,46.837 L17.580,46.133 L16.487,45.429 L15.188,45.459 L13.888,45.490 L12.670,45.945 L11.453,46.400 L10.153,46.384 L8.853,46.367 L7.553,46.395 L6.253,46.423 L5.200,47.185 L4.147,47.947 L3.656,49.151 L3.165,50.355 L3.406,51.632 L3.647,52.909 L4.075,54.137 L4.504,55.364 L3.403,54.673 L2.302,53.981 L2.284,55.281 L2.266,56.581 L1.633,55.445 L1.000,54.310 L2.292,54.451 L3.585,54.593 L2.498,55.306 L1.411,56.019 L2.703,56.168 L3.994,56.317 L2.845,55.709 L1.695,55.102 L2.973,55.342 L4.251,55.582 L3.140,54.906 L2.029,54.231 L3.104,54.963 L4.178,55.695 L3.268,54.766 L2.358,53.838 L3.453,54.539 L4.548,55.240 L3.708,54.248 L2.868,53.255 L4.051,53.793 L5.235,54.331 L6.315,55.054 L7.395,55.778 L8.684,55.951 L9.972,56.125 L11.217,56.500 L12.461,56.875 L13.760,56.815 L15.059,56.754 L16.289,57.173 L17.520,57.591 L18.587,58.334 L19.654,59.077 L20.917,59.383 L22.181,59.689 L23.085,60.623 L23.990,61.557 L24.988,62.389 L25.986,63.222 L27.114,63.868 L28.242,64.514 L29.524,64.730 L30.806,64.947 L31.989,64.406 L33.171,63.866 L34.470,63.916 L35.769,63.966 L36.961,63.448 L38.154,62.930 L39.355,62.432 L40.556,61.935 L41.855,61.991 L43.153,62.048 L44.287,62.683 L45.422,63.319 L46.717,63.428 L48.012,63.537 L49.100,64.249 L50.187,64.962 L51.353,65.536 L52.520,66.110 L53.645,66.761 L54.770,67.413 L53.482,67.237 L52.194,67.061 L50.976,67.516 L49.759,67.972 L48.986,69.017 L48.213,70.062 L47.870,68.808 L47.528,67.554 L46.889,66.422 L46.250,65.290 L45.769,64.082 L45.289,62.874 L44.757,61.688 L44.226,60.501 L43.359,59.532 L42.493,58.564 L41.652,57.572 L40.812,56.580 L40.133,55.471 L39.453,54.363 L39.153,53.098 L38.852,51.833 L39.229,50.589 L39.605,49.345 L39.498,48.049 L39.390,46.754 L39.183,45.470 L38.976,44.187 L38.213,43.134 L37.450,42.082 L36.964,40.876 L36.479,39.670 L35.734,38.605 L34.988,37.539 L33.875,36.868 L32.762,36.197 L31.779,35.346 L30.797,34.495 L29.610,33.963 L28.424,33.432 L27.124,33.421 L25.824,33.410 L24.551,33.149 L23.277,32.888 L21.996,33.107 L20.714,33.325 L19.566,33.936 L18.419,34.547 L17.527,35.492 L16.635,36.438 L16.428,37.722 L16.220,39.005 L16.654,40.231 L17.087,41.456 L18.089,42.284 L19.091,43.112 L20.248,43.706 L21.404,44.300 L22.547,44.919 L23.690,45.538 L24.938,45.902 L26.187,46.265 L27.037,47.248 L27.888,48.231 L28.447,49.405 L29.006,50.579 L29.242,51.857 L29.479,53.135 L30.036,54.310 L30.593,55.484 L30.897,56.748 L31.201,58.012 L31.628,59.240 L32.054,60.468 L31.865,61.755 L31.676,63.041 L31.662,64.341 L31.647,65.641 L31.655,64.941 L31.647,65.641 L31.655,64.941 L31.647,65.641"/>
</svg>
