<svg xmlns="http://www.w3.org/2000/svg" viewBox="-0.205 0 80.713 80.713" width="256" height="256">
  <title>warp</title>
  <rect x="-0.205" y="0" width="80.713" height="80.713" fill="#f5efe4"/>
  <path fill="none" stroke="#31604f" stroke-width="0.4" stroke-linecap="round" stroke-linejoin="round" d="M39.769,33.472 L39.769,33.472 L41.705,34.193 L43.194,35.483 L44.274,36.911 L45.033,38.376 L45.371,39.915 L45.128,41.416 L44.468,42.675 L43.627,43.643 L42.723,44.370 L41.772,44.884 L40.756,45.097 L39.769,45.041 L38.818,44.964 L37.778,44.865 L36.699,44.485 L35.723,43.752 L34.807,42.745 L33.977,41.416 L33.564,39.753 L33.841,37.993 L34.683,36.330 L35.954,34.808 L37.705,33.711 L39.769,33.472 L39.074,33.552 L39.769,33.472 L39.074,33.552 L39.769,33.472 M39.769,27.403 L40.293,27.867 L39.769,27.403 L40.293,27.867 L39.769,27.403 L41.099,28.581 L42.430,29.759 L43.107,31.419 L43.784,33.079 L44.768,35.147 L46.031,36.422 L47.514,37.686 L48.492,39.425 L48.999,41.416 L49.699,43.682 L49.920,45.046 L50.141,46.410 L49.873,47.835 L49.606,49.261 L48.927,50.654 L48.248,52.048 L46.974,52.889 L45.700,53.731 L44.094,53.530 L42.488,53.329 L41.129,52.773 L39.769,52.217 L38.503,52.363 L37.237,52.508 L35.720,52.742 L34.202,52.976 L32.942,52.266 L31.683,51.555 L31.039,50.224 L30.394,48.892 L30.000,47.601 L29.605,46.311 L29.032,45.154 L28.460,43.997 L27.916,42.706 L27.372,41.416 L27.198,39.961 L27.025,38.507 L27.443,37.094 L27.860,35.681 L28.855,34.593 L29.849,33.505 L31.010,32.696 L32.171,31.887 L33.203,30.907 L34.236,29.926 L35.455,28.892 L36.675,27.858 L38.222,27.631 L39.769,27.403 L39.077,27.505 L39.769,27.403 L39.077,27.505 L39.769,27.403 M39.769,24.238 L40.466,24.309 L39.769,24.238 L40.466,24.309 L39.769,24.238 L41.044,24.367 L42.319,24.497 L43.469,25.097 L44.618,25.696 L47.037,26.323 L48.426,26.503 L49.814,26.683 L51.073,27.279 L52.332,27.876 L53.183,28.958 L54.033,30.041 L54.385,31.407 L54.738,32.774 L54.724,34.163 L54.711,35.551 L54.532,36.819 L54.352,38.087 L54.151,40.338 L54.593,42.527 L55.174,43.796 L55.755,45.064 L56.193,46.549 L56.631,48.034 L56.261,49.379 L55.891,50.724 L54.786,51.617 L53.681,52.510 L52.724,53.428 L51.767,54.346 L50.963,55.501 L50.160,56.656 L48.906,57.220 L47.652,57.784 L46.084,57.293 L44.515,56.803 L43.185,56.024 L41.854,55.245 L39.769,54.895 L37.562,56.063 L36.203,56.721 L34.845,57.379 L33.481,57.344 L32.116,57.308 L31.102,56.462 L30.087,55.616 L29.537,54.327 L28.986,53.038 L28.639,51.803 L28.292,50.568 L27.273,48.630 L25.914,46.854 L24.728,44.849 L24.373,42.569 L24.749,40.290 L25.116,38.071 L25.196,35.696 L25.374,34.452 L25.553,33.208 L26.877,31.134 L28.019,30.559 L29.161,29.983 L30.387,29.718 L31.614,29.454 L33.719,28.853 L35.509,27.604 L36.451,26.630 L37.394,25.656 L38.582,24.947 L39.769,24.238 L39.168,24.597 L39.769,24.238 L39.168,24.597 L39.769,24.238 M39.769,20.045 L40.437,20.256 L39.769,20.045 L40.437,20.256 L39.769,20.045 L42.094,20.779 L44.237,21.842 L46.320,22.694 L48.700,22.871 L50.140,22.744 L51.581,22.618 L53.105,22.700 L54.629,22.782 L55.909,23.389 L57.189,23.996 L57.959,25.146 L58.728,26.296 L58.762,27.879 L58.795,29.461 L58.563,30.969 L58.331,32.477 L58.491,34.865 L59.327,36.952 L60.304,39.102 L60.979,41.416 L61.235,42.639 L61.490,43.863 L61.771,45.182 L62.051,46.501 L62.036,47.852 L62.022,49.202 L61.182,50.263 L60.343,51.323 L58.927,51.944 L57.512,52.564 L56.257,53.064 L55.002,53.563 L53.166,54.812 L51.896,56.622 L50.703,58.817 L48.877,60.329 L46.502,60.658 L44.188,60.776 L42.068,61.819 L40.919,62.788 L39.769,63.757 L38.452,64.280 L37.134,64.803 L35.891,64.327 L34.648,63.852 L33.638,62.839 L32.627,61.827 L30.662,60.327 L28.235,59.772 L26.928,59.464 L25.621,59.157 L24.625,58.356 L23.630,57.555 L23.031,56.398 L22.433,55.241 L22.232,53.901 L22.031,52.561 L21.756,50.090 L21.129,47.938 L20.210,45.880 L19.261,43.726 L18.536,41.416 L18.233,40.185 L17.930,38.955 L17.979,37.704 L18.027,36.453 L18.920,34.120 L20.012,31.901 L21.148,29.716 L22.918,27.977 L24.108,27.461 L25.298,26.944 L27.521,26.057 L29.328,24.798 L31.087,23.388 L33.031,22.158 L35.093,20.927 L37.356,19.999 L39.769,20.045 L39.069,20.031 L39.769,20.045 L39.069,20.031 L39.769,20.045 M39.769,12.310 L40.464,12.398 L39.769,12.310 L40.464,12.398 L39.769,12.310 L41.064,12.474 L42.359,12.637 L43.669,12.672 L44.979,12.707 L46.228,13.098 L47.476,13.490 L48.585,14.231 L49.693,14.973 L50.688,15.826 L51.682,16.678 L52.611,17.522 L53.541,18.366 L55.512,19.747 L56.705,20.207 L57.897,20.666 L59.267,21.065 L60.637,21.464 L61.798,22.194 L62.958,22.923 L63.515,24.148 L64.072,25.374 L64.271,26.749 L64.471,28.123 L64.958,29.282 L65.445,30.441 L66.228,31.503 L67.010,32.565 L67.604,33.746 L68.199,34.927 L68.349,36.225 L68.499,37.524 L68.065,38.844 L67.631,40.164 L66.856,41.381 L66.080,42.597 L65.523,44.904 L66.086,46.228 L66.649,47.551 L67.380,49.088 L68.111,50.624 L68.045,52.049 L67.979,53.473 L66.963,54.488 L65.948,55.503 L64.851,56.375 L63.754,57.248 L63.143,58.408 L62.533,59.569 L61.880,60.750 L61.228,61.932 L60.197,62.774 L59.166,63.617 L57.878,64.093 L56.591,64.569 L55.197,64.736 L53.802,64.903 L52.481,64.985 L51.159,65.066 L48.838,65.580 L46.696,66.514 L44.519,67.591 L43.372,68.147 L42.225,68.703 L40.997,69.341 L39.769,69.979 L38.457,70.274 L37.145,70.570 L35.901,70.081 L34.656,69.592 L33.629,68.490 L32.601,67.388 L31.702,66.347 L30.803,65.307 L28.684,64.435 L27.282,64.548 L25.881,64.661 L24.382,64.659 L22.884,64.656 L21.636,64.128 L20.387,63.600 L19.392,62.725 L18.397,61.850 L17.655,60.746 L16.914,59.642 L16.468,58.367 L16.022,57.091 L15.670,55.832 L15.318,54.574 L14.716,53.477 L14.115,52.381 L13.322,51.324 L12.528,50.267 L11.934,49.086 L11.340,47.905 L11.173,46.608 L11.007,45.312 L10.939,44.013 L10.871,42.714 L10.505,41.399 L10.139,40.085 L9.937,38.716 L9.735,37.347 L10.216,36.064 L10.696,34.780 L11.684,33.696 L12.673,32.611 L13.555,31.600 L14.438,30.589 L14.796,29.379 L15.154,28.170 L15.316,26.775 L15.477,25.381 L16.043,24.164 L16.609,22.946 L17.736,22.186 L18.862,21.426 L20.247,21.041 L21.632,20.656 L22.898,20.297 L24.165,19.938 L26.464,19.147 L28.632,18.290 L30.571,16.908 L31.482,15.798 L32.393,14.688 L33.463,13.626 L34.533,12.563 L35.821,12.211 L37.109,11.860 L38.439,12.085 L39.769,12.310 L39.079,12.193 L39.769,12.310 L39.079,12.193 L39.769,12.310 M39.769,7.129 L40.439,6.927 L39.769,7.129 L40.439,6.927 L39.769,7.129 L41.100,6.727 L42.431,6.326 L43.806,6.132 L45.182,5.938 L46.444,6.506 L47.705,7.074 L48.775,8.118 L49.846,9.162 L50.804,10.210 L51.762,11.258 L52.658,12.221 L53.554,13.184 L55.366,14.791 L57.207,16.232 L59.071,17.610 L61.133,18.803 L62.363,19.274 L63.593,19.746 L64.839,20.319 L66.085,20.892 L67.238,21.640 L68.392,22.388 L69.441,23.290 L70.491,24.192 L71.401,25.237 L72.311,26.283 L72.813,27.544 L73.316,28.805 L73.331,30.212 L73.346,31.619 L73.102,33.023 L72.859,34.426 L72.388,35.779 L71.918,37.132 L71.294,38.396 L70.670,39.659 L70.156,40.820 L69.643,41.981 L69.147,44.204 L69.212,46.480 L69.565,47.733 L69.917,48.986 L70.467,50.409 L71.018,51.831 L70.951,53.154 L70.885,54.477 L69.950,55.432 L69.015,56.387 L68.065,57.262 L67.115,58.138 L66.754,59.371 L66.392,60.605 L66.131,62.008 L65.870,63.411 L65.173,64.535 L64.476,65.660 L63.455,66.480 L62.433,67.300 L61.407,68.100 L60.381,68.901 L59.348,69.697 L58.315,70.493 L57.162,71.103 L56.009,71.712 L54.792,72.174 L53.575,72.636 L52.426,73.257 L51.276,73.877 L50.115,74.571 L48.953,75.264 L47.662,75.574 L46.371,75.884 L45.001,75.582 L43.631,75.281 L42.314,74.566 L40.997,73.851 L39.789,73.316 L38.581,72.782 L36.213,72.597 L33.765,72.763 L32.508,72.786 L31.251,72.808 L29.967,72.749 L28.683,72.690 L27.342,72.621 L26.000,72.552 L24.718,72.219 L23.437,71.885 L22.533,70.871 L21.629,69.858 L21.149,68.371 L20.669,66.885 L20.233,65.555 L19.798,64.225 L18.425,62.359 L16.377,61.128 L14.959,60.725 L13.540,60.321 L12.101,59.768 L10.662,59.215 L9.691,58.263 L8.720,57.310 L8.211,56.093 L7.703,54.876 L7.410,53.588 L7.116,52.299 L7.100,50.961 L7.083,49.624 L7.382,48.279 L7.681,46.935 L8.010,45.667 L8.340,44.399 L8.227,42.013 L7.882,40.798 L7.537,39.584 L7.689,37.141 L8.437,36.048 L9.184,34.955 L10.043,33.974 L10.902,32.993 L11.874,30.929 L12.570,28.768 L13.466,26.669 L14.303,24.487 L14.559,23.220 L14.814,21.953 L15.054,20.553 L15.293,19.153 L15.726,17.789 L16.160,16.426 L17.065,15.478 L17.969,14.530 L19.284,14.129 L20.598,13.728 L22.057,13.699 L23.516,13.670 L24.849,13.628 L26.181,13.586 L28.362,12.732 L29.340,11.948 L30.318,11.163 L31.318,10.167 L32.318,9.170 L33.471,8.430 L34.624,7.690 L35.903,7.503 L37.183,7.317 L38.476,7.223 L39.769,7.129 L39.071,7.180 L39.769,7.129 L39.071,7.180 L39.769,7.129 M39.769,4.661 L40.345,4.263 L39.769,4.661 L40.345,4.263 L39.769,4.661 L41.017,3.798 L42.265,2.935 L43.639,2.050 L45.013,1.166 L46.368,1.083 L47.723,1.000 L48.920,1.690 L50.116,2.379 L51.222,3.192 L52.328,4.006 L53.433,4.678 L54.538,5.349 L55.517,6.219 L56.496,7.089 L57.395,8.008 L58.293,8.928 L60.281,10.310 L62.569,11.283 L63.807,11.721 L65.044,12.160 L66.266,12.702 L67.489,13.244 L68.541,14.019 L69.592,14.795 L70.191,15.970 L70.789,17.144 L71.084,18.487 L71.378,19.830 L72.467,22.064 L73.361,22.989 L74.255,23.914 L75.212,24.866 L76.168,25.818 L76.846,26.938 L77.524,28.058 L77.991,29.272 L78.459,30.487 L78.840,31.736 L79.220,32.986 L79.262,34.299 L79.303,35.613 L78.689,36.960 L78.074,38.307 L77.244,39.565 L76.414,40.822 L75.933,43.174 L76.530,44.421 L77.127,45.669 L77.646,46.999 L78.165,48.329 L77.853,49.552 L77.541,50.776 L76.863,51.882 L76.184,52.988 L75.410,54.013 L74.636,55.038 L73.802,55.985 L72.967,56.932 L71.768,58.980 L71.616,60.284 L71.463,61.587 L71.455,63.087 L71.446,64.588 L70.992,65.864 L70.538,67.140 L69.338,67.789 L68.139,68.439 L66.642,68.686 L65.144,68.934 L63.014,70.152 L62.402,71.359 L61.791,72.567 L61.193,73.953 L60.596,75.340 L59.634,76.277 L58.672,77.215 L57.270,77.290 L55.868,77.365 L54.382,77.028 L52.897,76.691 L51.639,76.737 L50.381,76.784 L48.129,77.656 L45.857,78.679 L43.473,79.414 L41.010,79.713 L38.530,79.652 L36.072,79.350 L33.642,78.923 L31.243,78.377 L28.905,77.625 L26.574,76.874 L25.330,76.655 L24.086,76.436 L22.762,76.285 L21.438,76.133 L20.194,75.730 L18.951,75.327 L17.841,74.665 L16.732,74.003 L15.793,73.111 L14.853,72.219 L14.201,71.034 L13.549,69.849 L13.105,68.543 L12.661,67.238 L11.245,65.263 L9.972,64.704 L8.698,64.144 L7.503,63.428 L6.307,62.712 L5.747,61.555 L5.187,60.398 L5.000,59.076 L4.813,57.754 L4.635,56.483 L4.457,55.212 L3.761,52.858 L2.979,50.532 L2.380,48.147 L1.936,45.723 L1.589,43.272 L1.453,40.795 L1.381,38.301 L1.264,37.024 L1.147,35.747 L1.074,34.439 L1.000,33.131 L1.172,31.847 L1.343,30.562 L1.897,29.387 L2.452,28.212 L3.413,27.230 L4.374,26.248 L5.314,25.328 L6.254,24.407 L7.436,22.280 L7.879,21.110 L8.321,19.939 L8.871,18.804 L9.420,17.669 L10.019,16.532 L10.618,15.395 L10.983,13.963 L11.348,12.530 L11.938,11.207 L12.528,9.884 L13.860,9.409 L15.191,8.933 L17.011,9.299 L18.832,9.665 L20.432,9.987 L22.033,10.309 L24.049,9.155 L24.783,7.883 L25.517,6.611 L26.526,5.792 L27.536,4.974 L28.806,4.910 L30.076,4.846 L32.573,4.852 L35.018,4.949 L37.416,5.137 L39.769,4.661 L39.083,4.799 L39.769,4.661 L39.083,4.799 L39.769,4.661"/>
  <path fill="none" stroke="#d9a441" stroke-width="0.4" stroke-linecap="round" stroke-linejoin="round" d="M39.769,5.022 L39.769,4.661 L39.769,5.022 L39.769,4.661 L39.769,5.022 L39.769,7.129 L42.009,7.343 L44.248,7.557 L46.487,7.772 L48.727,7.986 L50.348,9.656 L51.970,11.326 L53.592,12.996 L55.213,14.666 L56.916,15.790 L58.618,16.914 L60.320,18.039 L62.022,19.163 L64.055,20.340 L66.088,21.518 L68.121,22.696 L70.154,23.873 L70.926,26.017 L71.698,28.160 L72.470,30.303 L73.242,32.447 L72.396,34.689 L71.550,36.931 L70.704,39.173 L69.859,41.416 L69.932,43.451 L70.006,45.486 L70.080,47.522 L70.153,49.557 L69.523,51.543 L68.892,53.529 L68.262,55.516 L67.631,57.502 L66.783,59.598 L65.936,61.694 L65.088,63.790 L64.240,65.887 L62.430,67.230 L60.621,68.574 L58.811,69.918 L57.001,71.262 L54.964,72.274 L52.926,73.286 L50.889,74.298 L48.851,75.310 L46.581,74.784 L44.310,74.258 L42.040,73.732 L39.769,73.206 L37.666,73.107 L35.563,73.008 L33.460,72.910 L31.357,72.811 L29.158,72.413 L26.960,72.015 L24.761,71.617 L22.562,71.219 L21.579,69.053 L20.596,66.887 L19.613,64.721 L18.630,62.555 L16.444,61.583 L14.259,60.611 L12.073,59.640 L9.888,58.668 L9.173,56.548 L8.459,54.428 L7.744,52.308 L7.030,50.188 L7.288,47.995 L7.545,45.802 L7.803,43.609 L8.060,41.416 L8.661,39.452 L9.261,37.489 L9.861,35.526 L10.461,33.563 L11.251,31.752 L12.041,29.941 L12.831,28.130 L13.621,26.319 L14.153,24.088 L14.686,21.858 L15.218,19.628 L15.751,17.397 L17.752,16.467 L19.753,15.538 L21.754,14.608 L23.755,13.678 L25.661,12.783 L27.566,11.888 L29.472,10.992 L31.377,10.097 L33.475,9.355 L35.573,8.613 L37.671,7.871 L39.769,7.129 L39.109,7.362 L39.769,7.129 L39.109,7.362 L39.769,7.129"/>
</svg>
