<svg xmlns="http://www.w3.org/2000/svg" viewBox="0 -6.901 64.666 64.666" width="256" height="256">
  <title>warpedlines2</title>
  <rect x="0" y="-6.901" width="64.666" height="64.666" fill="#f5efe4"/>
  <path fill="none" stroke="#c8472f" stroke-width="0.4" stroke-linecap="round" stroke-linejoin="round" d="M3.193,49.863 L3.193,49.863 L3.772,48.591 L3.637,46.756 L3.478,44.951 L3.270,43.323 L2.998,41.831 L2.685,40.359 L2.415,38.807 L2.235,37.238 L2.100,35.832 L2.024,34.653 L2.082,33.517 L2.316,32.187 L2.646,30.546 L2.888,28.695 L2.811,26.866 L2.359,25.220 L1.840,23.681 L1.641,22.125 L1.843,20.545 L2.248,18.946 L2.600,17.286 L2.657,15.547 L2.272,13.787 L1.626,12.089 L1.123,10.506 L1.000,9.010 L1.181,7.494 L1.479,5.942 L1.653,4.428 L1.641,3.046 L1.596,1.803 L1.621,2.502 L1.596,1.803 L1.621,2.502 L1.596,1.803 M4.022,49.863 L4.294,49.218 L4.022,49.863 L4.294,49.218 L4.022,49.863 L4.582,48.533 L4.464,46.684 L4.336,44.799 L4.126,43.066 L3.825,41.526 L3.479,40.082 L3.197,38.590 L3.017,37.065 L2.870,35.657 L2.758,34.483 L2.769,33.393 L2.995,32.132 L3.359,30.558 L3.631,28.759 L3.569,26.970 L3.108,25.360 L2.557,23.858 L2.320,22.312 L2.493,20.706 L2.872,19.051 L3.201,17.325 L3.263,15.534 L2.930,13.750 L2.332,12.053 L1.829,10.484 L1.648,8.977 L1.743,7.418 L1.957,5.830 L2.076,4.307 L2.049,2.932 L2.017,1.698 L2.035,2.397 L2.017,1.698 L2.035,2.397 L2.017,1.698 M4.788,49.863 L5.042,49.211 L4.788,49.863 L5.042,49.211 L4.788,49.863 L5.308,48.531 L5.207,46.700 L5.115,44.767 L4.918,42.935 L4.590,41.323 L4.203,39.869 L3.897,38.403 L3.710,36.898 L3.556,35.478 L3.428,34.289 L3.416,33.226 L3.643,32.023 L4.027,30.515 L4.319,28.778 L4.273,27.038 L3.818,25.467 L3.253,23.996 L2.985,22.460 L3.125,20.833 L3.467,19.124 L3.766,17.340 L3.834,15.510 L3.565,13.716 L3.041,12.033 L2.562,10.484 L2.336,8.966 L2.344,7.362 L2.457,5.736 L2.506,4.202 L2.461,2.836 L2.445,1.613 L2.454,2.312 L2.445,1.613 L2.454,2.312 L2.445,1.613 M5.490,49.863 L5.735,49.207 L5.490,49.863 L5.735,49.207 L5.490,49.863 L5.970,48.577 L5.887,46.780 L5.830,44.827 L5.649,42.913 L5.295,41.226 L4.862,39.737 L4.526,38.267 L4.330,36.759 L4.180,35.313 L4.055,34.093 L4.042,33.038 L4.270,31.879 L4.661,30.433 L4.961,28.758 L4.933,27.073 L4.495,25.541 L3.930,24.095 L3.641,22.565 L3.747,20.919 L4.048,19.160 L4.314,17.325 L4.390,15.471 L4.193,13.682 L3.763,12.023 L3.331,10.498 L3.075,8.970 L2.997,7.327 L2.999,5.662 L2.964,4.120 L2.896,2.767 L2.898,1.557 L2.897,2.257 L2.898,1.557 L2.897,2.257 L2.898,1.557 M6.136,49.863 L6.377,49.206 L6.136,49.863 L6.377,49.206 L6.136,49.863 L6.581,48.653 L6.519,46.902 L6.493,44.945 L6.329,42.973 L5.951,41.216 L5.474,39.681 L5.107,38.188 L4.905,36.659 L4.768,35.176 L4.662,33.914 L4.661,32.848 L4.884,31.718 L5.271,30.324 L5.570,28.711 L5.555,27.086 L5.139,25.594 L4.584,24.163 L4.285,22.629 L4.364,20.960 L4.626,19.157 L4.862,17.283 L4.947,15.418 L4.823,13.647 L4.501,12.020 L4.138,10.521 L3.870,8.986 L3.713,7.311 L3.598,5.614 L3.467,4.069 L3.368,2.736 L3.392,1.546 L3.378,2.246 L3.392,1.546 L3.378,2.246 L3.392,1.546 M6.735,49.863 L6.980,49.208 L6.735,49.863 L6.980,49.208 L6.735,49.863 L7.153,48.743 L7.114,47.046 L7.115,45.094 L6.965,43.083 L6.570,41.267 L6.058,39.685 L5.663,38.160 L5.461,36.601 L5.347,35.076 L5.272,33.764 L5.284,32.670 L5.496,31.552 L5.868,30.202 L6.156,28.651 L6.144,27.086 L5.749,25.634 L5.213,24.210 L4.915,22.659 L4.975,20.958 L5.206,19.119 L5.420,17.217 L5.514,15.356 L5.459,13.613 L5.250,12.024 L4.974,10.550 L4.713,9.010 L4.491,7.315 L4.261,5.598 L4.028,4.059 L3.890,2.757 L3.936,1.591 L3.909,2.291 L3.936,1.591 L3.909,2.291 L3.936,1.591 M7.302,49.863 L7.553,49.210 L7.302,49.863 L7.553,49.210 L7.302,49.863 L7.698,48.833 L7.683,47.197 L7.708,45.260 L7.569,43.226 L7.163,41.361 L6.629,39.735 L6.216,38.179 L6.021,36.588 L5.938,35.019 L5.896,33.651 L5.920,32.517 L6.115,31.395 L6.460,30.079 L6.728,28.585 L6.705,27.082 L6.326,25.669 L5.816,24.248 L5.531,22.669 L5.579,20.923 L5.787,19.054 L5.992,17.140 L6.099,15.294 L6.099,13.587 L5.997,12.034 L5.814,10.583 L5.579,9.042 L5.310,7.338 L4.982,5.620 L4.650,4.101 L4.469,2.841 L4.534,1.702 L4.494,2.401 L4.534,1.702 L4.494,2.401 L4.534,1.702 M7.852,49.863 L8.107,49.211 L7.852,49.863 L8.107,49.211 L7.852,49.863 L8.224,48.911 L8.235,47.341 L8.280,45.432 L8.150,43.390 L7.743,41.486 L7.201,39.821 L6.781,38.239 L6.600,36.621 L6.553,35.009 L6.543,33.582 L6.574,32.399 L6.746,31.256 L7.057,29.962 L7.290,28.520 L7.241,27.076 L6.873,25.703 L6.397,24.282 L6.133,22.671 L6.175,20.874 L6.369,18.976 L6.573,17.069 L6.698,15.249 L6.740,13.579 L6.722,12.056 L6.626,10.619 L6.428,9.079 L6.139,7.380 L5.739,5.683 L5.327,4.201 L5.105,2.988 L5.184,1.872 L5.135,2.570 L5.184,1.872 L5.135,2.570 L5.184,1.872 M8.401,49.863 L8.650,49.209 L8.401,49.863 L8.650,49.209 L8.401,49.863 L8.741,48.970 L8.778,47.470 L8.840,45.601 L8.718,43.565 L8.319,41.632 L7.783,39.938 L7.368,38.339 L7.208,36.698 L7.200,35.045 L7.220,33.560 L7.250,32.321 L7.392,31.144 L7.661,29.858 L7.849,28.459 L7.762,27.072 L7.400,25.737 L6.962,24.319 L6.728,22.676 L6.768,20.830 L6.954,18.908 L7.163,17.026 L7.305,15.241 L7.376,13.602 L7.411,12.097 L7.380,10.664 L7.223,9.124 L6.941,7.443 L6.507,5.786 L6.046,4.358 L5.796,3.188 L5.883,2.080 L5.828,2.778 L5.883,2.080 L5.828,2.778 L5.883,2.080 M8.960,49.863 L9.185,49.201 L8.960,49.863 L9.185,49.201 L8.960,49.863 L9.252,49.002 L9.313,47.575 L9.392,45.756 L9.283,43.740 L8.902,41.791 L8.387,40.077 L7.987,38.474 L7.856,36.818 L7.890,35.127 L7.934,33.585 L7.952,32.286 L8.055,31.062 L8.276,29.765 L8.412,28.400 L8.285,27.065 L7.926,25.770 L7.532,24.359 L7.332,22.694 L7.372,20.810 L7.552,18.874 L7.764,17.029 L7.919,15.291 L8.005,13.672 L8.063,12.169 L8.063,10.726 L7.944,9.183 L7.695,7.527 L7.272,5.927 L6.803,4.558 L6.543,3.419 L6.633,2.302 L6.577,2.999 L6.633,2.302 L6.577,2.999 L6.633,2.302 M9.537,49.863 L9.711,49.185 L9.537,49.863 L9.711,49.185 L9.537,49.863 L9.758,49.002 L9.845,47.645 L9.940,45.883 L9.850,43.902 L9.499,41.954 L9.018,40.234 L8.649,38.635 L8.555,36.972 L8.630,35.247 L8.687,33.651 L8.680,32.288 L8.734,31.007 L8.902,29.680 L8.989,28.336 L8.831,27.048 L8.480,25.794 L8.133,24.401 L7.970,22.730 L8.012,20.829 L8.183,18.893 L8.389,17.091 L8.544,15.408 L8.630,13.806 L8.684,12.289 L8.687,10.820 L8.600,9.267 L8.402,7.639 L8.034,6.097 L7.603,4.779 L7.355,3.653 L7.440,2.506 L7.388,3.204 L7.440,2.506 L7.388,3.204 L7.440,2.506 M10.135,49.863 L10.233,49.170 L10.135,49.863 L10.233,49.170 L10.135,49.863 L10.262,48.965 L10.377,47.670 L10.495,45.970 L10.428,44.036 L10.114,42.111 L9.679,40.399 L9.359,38.811 L9.310,37.146 L9.421,35.392 L9.477,33.745 L9.430,32.316 L9.427,30.969 L9.538,29.598 L9.588,28.254 L9.421,27.006 L9.093,25.797 L8.797,24.435 L8.669,22.782 L8.710,20.888 L8.868,18.970 L9.056,17.213 L9.191,15.587 L9.254,14.004 L9.280,12.467 L9.273,10.956 L9.214,9.383 L9.084,7.773 L8.807,6.274 L8.452,4.988 L8.236,3.852 L8.310,2.657 L8.267,3.356 L8.310,2.657 L8.267,3.356 L8.310,2.657 M10.752,49.863 L10.768,49.164 L10.752,49.863 L10.768,49.164 L10.752,49.863 L10.774,48.895 L10.926,47.642 L11.071,46.000 L11.028,44.127 L10.751,42.251 L10.371,40.561 L10.118,38.987 L10.121,37.321 L10.256,35.543 L10.295,33.849 L10.195,32.354 L10.128,30.934 L10.184,29.508 L10.215,28.142 L10.073,26.921 L9.793,25.759 L9.554,24.446 L9.455,22.834 L9.494,20.975 L9.629,19.091 L9.781,17.379 L9.874,15.807 L9.890,14.247 L9.868,12.689 L9.843,11.128 L9.815,9.517 L9.763,7.896 L9.607,6.412 L9.367,5.139 L9.202,3.978 L9.254,2.724 L9.225,3.423 L9.254,2.724 L9.225,3.423 L9.254,2.724 M11.380,49.863 L11.334,49.165 L11.380,49.863 L11.334,49.165 L11.380,49.863 L11.311,48.802 L11.512,47.561 L11.685,45.965 L11.661,44.162 L11.417,42.363 L11.093,40.712 L10.919,39.148 L10.979,37.477 L11.123,35.675 L11.126,33.939 L10.963,32.379 L10.832,30.886 L10.838,29.398 L10.875,27.992 L10.796,26.776 L10.596,25.659 L10.421,24.408 L10.348,22.858 L10.378,21.056 L10.482,19.221 L10.580,17.553 L10.609,16.033 L10.558,14.501 L10.481,12.922 L10.437,11.300 L10.438,9.617 L10.471,7.950 L10.470,6.456 L10.379,5.181 L10.278,3.989 L10.292,2.685 L10.285,3.385 L10.292,2.685 L10.285,3.385 L10.292,2.685 M12.013,49.863 L11.941,49.167 L12.013,49.863 L11.941,49.167 L12.013,49.863 L11.893,48.699 L12.151,47.434 L12.348,45.865 L12.333,44.138 L12.110,42.437 L11.842,40.845 L11.751,39.285 L11.868,37.598 L12.007,35.770 L11.960,33.994 L11.730,32.376 L11.535,30.816 L11.504,29.267 L11.569,27.812 L11.587,26.574 L11.498,25.485 L11.395,24.296 L11.348,22.820 L11.366,21.089 L11.426,19.314 L11.459,17.698 L11.410,16.227 L11.288,14.721 L11.160,13.122 L11.100,11.417 L11.131,9.627 L11.265,7.890 L11.440,6.373 L11.513,5.091 L11.471,3.872 L11.428,2.536 L11.451,3.236 L11.428,2.536 L11.451,3.236 L11.428,2.536 M12.650,49.863 L12.588,49.166 L12.650,49.863 L12.588,49.166 L12.650,49.863 L12.538,48.602 L12.853,47.276 L13.063,45.710 L13.041,44.056 L12.828,42.469 L12.610,40.955 L12.601,39.398 L12.772,37.682 L12.896,35.818 L12.789,34.003 L12.495,32.336 L12.243,30.723 L12.187,29.123 L12.300,27.616 L12.436,26.338 L12.475,25.250 L12.450,24.109 L12.435,22.705 L12.438,21.050 L12.448,19.342 L12.410,17.780 L12.288,16.349 L12.109,14.862 L11.949,13.234 L11.880,11.425 L11.949,9.517 L12.202,7.713 L12.543,6.184 L12.753,4.902 L12.744,3.669 L12.626,2.316 L12.687,3.014 L12.626,2.316 L12.687,3.014 L12.626,2.316 M13.294,49.863 L13.273,49.164 L13.294,49.863 L13.273,49.164 L13.294,49.863 L13.253,48.525 L13.621,47.105 L13.827,45.518 L13.780,43.928 L13.562,42.458 L13.386,41.037 L13.453,39.493 L13.674,37.736 L13.781,35.828 L13.615,33.970 L13.264,32.268 L12.965,30.624 L12.894,28.990 L13.065,27.438 L13.322,26.102 L13.491,24.989 L13.549,23.872 L13.569,22.528 L13.556,20.937 L13.513,19.290 L13.407,17.780 L13.232,16.382 L13.035,14.902 L12.877,13.224 L12.814,11.308 L12.932,9.307 L13.299,7.474 L13.759,5.965 L14.041,4.705 L14.018,3.472 L13.813,2.107 L13.917,2.800 L13.813,2.107 L13.917,2.800 L13.813,2.107 M13.946,49.863 L13.990,49.165 L13.946,49.863 L13.990,49.165 L13.946,49.863 L14.034,48.478 L14.441,46.940 L14.623,45.313 L14.531,43.770 L14.295,42.412 L14.153,41.088 L14.286,39.567 L14.552,37.776 L14.648,35.817 L14.438,33.918 L14.044,32.197 L13.710,30.548 L13.634,28.904 L13.857,27.312 L14.220,25.910 L14.504,24.748 L14.641,23.628 L14.694,22.314 L14.668,20.763 L14.565,19.166 L14.401,17.703 L14.212,16.332 L14.050,14.851 L13.945,13.107 L13.915,11.100 L14.083,9.063 L14.519,7.265 L15.022,5.823 L15.288,4.608 L15.203,3.389 L14.910,2.003 L15.054,2.688 L14.910,2.003 L15.054,2.688 L14.910,2.003 M14.607,49.863 L14.733,49.175 L14.607,49.863 L14.733,49.175 L14.607,49.863 L14.863,48.465 L15.287,46.802 L15.424,45.119 L15.274,43.605 L15.010,42.339 L14.891,41.107 L15.081,39.617 L15.391,37.803 L15.488,35.808 L15.257,33.876 L14.839,32.153 L14.485,30.526 L14.410,28.893 L14.671,27.273 L15.109,25.801 L15.478,24.572 L15.677,23.416 L15.758,22.092 L15.714,20.556 L15.547,18.998 L15.339,17.581 L15.181,16.236 L15.115,14.752 L15.112,12.950 L15.146,10.886 L15.350,8.872 L15.783,7.171 L16.239,5.831 L16.417,4.680 L16.235,3.476 L15.867,2.047 L16.042,2.725 L15.867,2.047 L16.042,2.725 L15.867,2.047 M15.277,49.863 L15.488,49.196 L15.277,49.863 L15.488,49.196 L15.277,49.863 L15.714,48.482 L16.127,46.701 L16.201,44.955 L15.985,43.451 L15.688,42.253 L15.585,41.096 L15.824,39.639 L16.178,37.815 L16.295,35.803 L16.065,33.859 L15.646,32.150 L15.294,30.575 L15.226,28.986 L15.509,27.354 L15.983,25.813 L16.390,24.496 L16.617,23.263 L16.715,21.889 L16.651,20.351 L16.426,18.827 L16.194,17.456 L16.106,16.142 L16.179,14.665 L16.311,12.834 L16.425,10.758 L16.641,8.806 L17.000,7.228 L17.330,5.994 L17.385,4.902 L17.108,3.696 L16.692,2.197 L16.879,2.871 L16.692,2.197 L16.879,2.871 L16.692,2.197 M15.956,49.863 L16.241,49.224 L15.956,49.863 L16.241,49.224 L15.956,49.863 L16.557,48.516 L16.928,46.641 L16.928,44.834 L16.647,43.322 L16.319,42.162 L16.231,41.056 L16.514,39.629 L16.916,37.811 L17.068,35.805 L16.857,33.870 L16.460,32.198 L16.132,30.711 L16.085,29.198 L16.379,27.568 L16.846,25.956 L17.231,24.533 L17.445,23.184 L17.542,21.725 L17.461,20.171 L17.204,18.685 L16.975,17.366 L16.975,16.094 L17.198,14.640 L17.470,12.815 L17.665,10.766 L17.865,8.888 L18.105,7.418 L18.272,6.264 L18.206,5.198 L17.863,3.954 L17.437,2.368 L17.619,3.044 L17.437,2.368 L17.619,3.044 L17.437,2.368 M16.643,49.863 L16.979,49.250 L16.643,49.863 L16.979,49.250 L16.643,49.863 L17.362,48.552 L17.666,46.610 L17.587,44.752 L17.250,43.220 L16.904,42.070 L16.836,40.988 L17.161,39.587 L17.612,37.790 L17.805,35.813 L17.630,33.911 L17.277,32.306 L16.995,30.933 L16.992,29.505 L17.290,27.880 L17.705,26.198 L18.014,24.659 L18.173,23.170 L18.249,21.607 L18.159,20.025 L17.910,18.580 L17.719,17.323 L17.809,16.103 L18.158,14.687 L18.548,12.895 L18.809,10.891 L18.976,9.078 L19.087,7.680 L19.103,6.571 L18.941,5.487 L18.567,4.174 L18.176,2.519 L18.337,3.200 L18.176,2.519 L18.337,3.200 L18.176,2.519 M17.329,49.863 L17.689,49.263 L17.329,49.863 L17.689,49.263 L17.329,49.863 L18.099,48.578 L18.325,46.593 L18.175,44.700 L17.797,43.144 L17.451,41.980 L17.413,40.903 L17.780,39.523 L18.276,37.758 L18.513,35.826 L18.383,33.986 L18.088,32.474 L17.876,31.210 L17.937,29.853 L18.235,28.224 L18.568,26.475 L18.759,24.819 L18.834,23.191 L18.873,21.528 L18.786,19.916 L18.582,18.505 L18.462,17.310 L18.635,16.146 L19.072,14.774 L19.545,13.024 L19.849,11.067 L19.977,9.301 L19.980,7.945 L19.879,6.839 L19.653,5.700 L19.291,4.310 L18.971,2.627 L19.101,3.315 L18.971,2.627 L19.101,3.315 L18.971,2.627 M18.000,49.863 L18.356,49.260 L18.000,49.863 L18.356,49.260 L18.000,49.863 L18.749,48.594 L18.905,46.583 L18.697,44.671 L18.296,43.093 L17.972,41.908 L17.977,40.827 L18.387,39.461 L18.927,37.727 L19.208,35.847 L19.129,34.093 L18.893,32.682 L18.759,31.496 L18.895,30.172 L19.191,28.521 L19.429,26.709 L19.488,24.951 L19.465,23.211 L19.462,21.474 L19.390,19.843 L19.258,18.454 L19.224,17.305 L19.462,16.186 L19.954,14.847 L20.477,13.137 L20.804,11.228 L20.895,9.505 L20.817,8.164 L20.639,7.020 L20.395,5.799 L20.083,4.345 L19.848,2.669 L19.945,3.362 L19.848,2.669 L19.945,3.362 L19.848,2.669 M18.641,49.863 L18.969,49.245 L18.641,49.863 L18.969,49.245 L18.641,49.863 L19.312,48.599 L19.416,46.581 L19.168,44.665 L18.764,43.075 L18.481,41.877 L18.542,40.788 L18.999,39.424 L19.579,37.713 L19.905,35.881 L19.878,34.220 L19.698,32.902 L19.633,31.750 L19.832,30.412 L20.127,28.717 L20.274,26.847 L20.209,25.012 L20.096,23.202 L20.053,21.431 L20.009,19.801 L19.956,18.429 L20.004,17.303 L20.283,16.203 L20.802,14.880 L21.348,13.204 L21.681,11.352 L21.739,9.679 L21.606,8.336 L21.404,7.119 L21.194,5.793 L20.963,4.286 L20.801,2.634 L20.869,3.331 L20.801,2.634 L20.869,3.331 L20.801,2.634 M19.240,49.863 L19.524,49.224 L19.240,49.863 L19.524,49.224 L19.240,49.863 L19.802,48.596 L19.876,46.584 L19.605,44.678 L19.218,43.099 L18.991,41.902 L19.116,40.800 L19.619,39.422 L20.236,37.719 L20.603,35.926 L20.630,34.350 L20.503,33.102 L20.491,31.946 L20.725,30.550 L21.012,28.794 L21.085,26.873 L20.923,24.990 L20.736,23.157 L20.665,21.395 L20.654,19.789 L20.676,18.429 L20.789,17.303 L21.091,16.198 L21.614,14.871 L22.157,13.227 L22.480,11.444 L22.505,9.829 L22.351,8.480 L22.178,7.174 L22.050,5.731 L21.922,4.160 L21.811,2.535 L21.859,3.233 L21.811,2.535 L21.859,3.233 L21.811,2.535 M19.796,49.863 L20.027,49.203 L19.796,49.863 L20.027,49.203 L19.796,49.863 L20.243,48.585 L20.299,46.592 L20.025,44.711 L19.671,43.165 L19.506,41.980 L19.699,40.856 L20.245,39.449 L20.889,37.739 L21.292,35.975 L21.374,34.465 L21.297,33.260 L21.323,32.074 L21.565,30.596 L21.830,28.769 L21.846,26.801 L21.620,24.901 L21.380,23.087 L21.294,21.372 L21.320,19.806 L21.407,18.452 L21.570,17.306 L21.884,16.173 L22.390,14.828 L22.908,13.214 L23.201,11.504 L23.196,9.958 L23.051,8.607 L22.954,7.217 L22.942,5.662 L22.927,4.013 L22.850,2.394 L22.883,3.093 L22.850,2.394 L22.883,3.093 L22.850,2.394 M20.315,49.863 L20.492,49.186 L20.315,49.863 L20.492,49.186 L20.315,49.863 L20.652,48.568 L20.704,46.604 L20.440,44.761 L20.131,43.267 L20.032,42.099 L20.287,40.945 L20.867,39.494 L21.528,37.764 L21.962,36.017 L22.099,34.553 L22.070,33.366 L22.120,32.133 L22.350,30.569 L22.580,28.671 L22.555,26.666 L22.289,24.772 L22.017,23.013 L21.928,21.368 L21.994,19.848 L22.138,18.490 L22.341,17.310 L22.656,16.134 L23.133,14.761 L23.609,13.169 L23.852,11.534 L23.820,10.060 L23.712,8.717 L23.720,7.263 L23.841,5.614 L23.935,3.885 L23.884,2.241 L23.906,2.941 L23.884,2.241 L23.906,2.941 L23.884,2.241 M20.810,49.863 L20.937,49.175 L20.810,49.863 L20.937,49.175 L20.810,49.863 L21.052,48.549 L21.110,46.618 L20.868,44.827 L20.608,43.396 L20.573,42.245 L20.880,41.051 L21.482,39.544 L22.147,37.783 L22.607,36.042 L22.798,34.606 L22.815,33.419 L22.880,32.131 L23.083,30.485 L23.273,28.528 L23.219,26.500 L22.931,24.633 L22.642,22.948 L22.561,21.385 L22.668,19.909 L22.859,18.539 L23.088,17.313 L23.397,16.085 L23.840,14.675 L24.264,13.097 L24.445,11.532 L24.393,10.132 L24.339,8.807 L24.465,7.315 L24.717,5.598 L24.910,3.795 L24.881,2.100 L24.893,2.800 L24.881,2.100 L24.893,2.800 L24.881,2.100 M21.297,49.863 L21.385,49.169 L21.297,49.863 L21.385,49.169 L21.297,49.863 L21.466,48.527 L21.541,46.636 L21.329,44.909 L21.119,43.544 L21.137,42.406 L21.481,41.162 L22.089,39.589 L22.747,37.789 L23.228,36.045 L23.472,34.622 L23.531,33.422 L23.603,32.077 L23.773,30.361 L23.921,28.358 L23.850,26.323 L23.554,24.499 L23.262,22.900 L23.196,21.424 L23.338,19.984 L23.556,18.591 L23.796,17.311 L24.096,16.025 L24.512,14.572 L24.879,13.001 L24.996,11.498 L24.931,10.167 L24.939,8.868 L25.181,7.366 L25.548,5.611 L25.824,3.746 L25.817,1.981 L25.820,2.681 L25.817,1.981 L25.820,2.681 L25.817,1.981 M21.798,49.863 L21.862,49.166 L21.798,49.863 L21.862,49.166 L21.798,49.863 L21.922,48.506 L22.022,46.662 L21.845,45.005 L21.683,43.705 L21.737,42.572 L22.095,41.267 L22.690,39.620 L23.329,37.775 L23.828,36.020 L24.121,34.599 L24.219,33.378 L24.293,31.981 L24.427,30.207 L24.536,28.174 L24.457,26.151 L24.164,24.383 L23.882,22.878 L23.833,21.484 L23.989,20.067 L24.214,18.638 L24.455,17.300 L24.750,15.952 L25.145,14.455 L25.461,12.884 L25.519,11.431 L25.448,10.161 L25.519,8.894 L25.860,7.405 L26.319,5.637 L26.660,3.724 L26.676,1.881 L26.670,2.581 L26.676,1.881 L26.670,2.581 L26.676,1.881 M22.333,49.863 L22.392,49.166 L22.333,49.863 L22.392,49.166 L22.333,49.863 L22.449,48.487 L22.579,46.700 L22.441,45.117 L22.319,43.873 L22.386,42.731 L22.727,41.354 L23.284,39.627 L23.891,37.734 L24.406,35.963 L24.746,34.538 L24.878,33.296 L24.949,31.856 L25.049,30.038 L25.126,27.992 L25.043,25.998 L24.764,24.296 L24.502,22.887 L24.461,21.564 L24.607,20.153 L24.823,18.677 L25.061,17.276 L25.357,15.866 L25.742,14.329 L26.012,12.753 L26.022,11.336 L25.950,10.113 L26.077,8.880 L26.493,7.420 L27.017,5.659 L27.405,3.713 L27.445,1.797 L27.430,2.497 L27.445,1.797 L27.430,2.497 L27.445,1.797 M22.919,49.863 L22.998,49.168 L22.919,49.863 L22.998,49.168 L22.919,49.863 L23.076,48.475 L23.235,46.754 L23.136,45.245 L23.040,44.037 L23.092,42.868 L23.378,41.407 L23.868,39.599 L24.432,37.658 L24.962,35.873 L25.344,34.444 L25.505,33.184 L25.574,31.713 L25.644,29.867 L25.694,27.826 L25.612,25.876 L25.355,24.249 L25.119,22.931 L25.069,21.660 L25.185,20.235 L25.380,18.703 L25.615,17.238 L25.922,15.770 L26.305,14.197 L26.537,12.616 L26.507,11.219 L26.435,10.027 L26.606,8.827 L27.073,7.403 L27.639,5.662 L28.056,3.698 L28.117,1.733 L28.095,2.433 L28.117,1.733 L28.095,2.433 L28.117,1.733 M23.570,49.863 L23.695,49.175 L23.570,49.863 L23.695,49.175 L23.570,49.863 L23.822,48.475 L24.005,46.829 L23.939,45.384 L23.852,44.185 L23.855,42.962 L24.046,41.411 L24.440,39.526 L24.951,37.543 L25.495,35.750 L25.915,34.323 L26.103,33.054 L26.169,31.564 L26.215,29.706 L26.245,27.688 L26.169,25.796 L25.940,24.250 L25.728,23.008 L25.655,21.767 L25.725,20.309 L25.892,18.715 L26.127,17.189 L26.453,15.668 L26.840,14.067 L27.041,12.481 L26.976,11.090 L26.901,9.914 L27.101,8.742 L27.596,7.355 L28.186,5.642 L28.616,3.678 L28.692,1.687 L28.665,2.386 L28.692,1.687 L28.665,2.386 L28.692,1.687 M24.295,49.863 L24.488,49.191 L24.295,49.863 L24.488,49.191 L24.295,49.863 L24.689,48.494 L24.880,46.927 L24.838,45.525 L24.741,44.299 L24.664,42.994 L24.726,41.348 L24.998,39.397 L25.452,37.386 L26.005,35.601 L26.458,34.186 L26.674,32.920 L26.741,31.424 L26.769,29.570 L26.785,27.590 L26.722,25.766 L26.524,24.303 L26.330,23.118 L26.220,21.879 L26.235,20.372 L26.372,18.715 L26.612,17.132 L26.963,15.566 L27.356,13.943 L27.529,12.352 L27.431,10.959 L27.346,9.786 L27.558,8.637 L28.065,7.286 L28.663,5.606 L29.093,3.654 L29.174,1.652 L29.146,2.351 L29.174,1.652 L29.146,2.351 L29.174,1.652 M25.092,49.863 L25.361,49.217 L25.092,49.863 L25.361,49.217 L25.092,49.863 L25.643,48.538 L25.825,47.044 L25.797,45.655 L25.672,44.361 L25.497,42.950 L25.412,41.215 L25.553,39.212 L25.949,37.196 L26.500,35.438 L26.980,34.050 L27.224,32.801 L27.295,31.316 L27.311,29.482 L27.323,27.546 L27.279,25.794 L27.117,24.407 L26.929,23.254 L26.774,21.992 L26.730,20.422 L26.838,18.704 L27.088,17.069 L27.466,15.466 L27.864,13.828 L28.010,12.234 L27.879,10.830 L27.776,9.654 L27.984,8.523 L28.490,7.205 L29.082,5.560 L29.503,3.625 L29.582,1.623 L29.554,2.322 L29.582,1.623 L29.554,2.322 L29.582,1.623 M25.957,49.863 L26.285,49.245 L25.957,49.863 L26.285,49.245 L25.957,49.863 L26.624,48.606 L26.777,47.167 L26.754,45.756 L26.600,44.360 L26.330,42.829 L26.107,41.019 L26.128,38.985 L26.464,36.989 L26.996,35.281 L27.493,33.942 L27.764,32.728 L27.839,31.266 L27.848,29.461 L27.869,27.569 L27.854,25.884 L27.728,24.559 L27.535,23.414 L27.329,22.102 L27.227,20.461 L27.309,18.684 L27.572,17.003 L27.980,15.372 L28.381,13.724 L28.498,12.124 L28.330,10.705 L28.200,9.521 L28.394,8.404 L28.887,7.117 L29.465,5.506 L29.868,3.592 L29.940,1.596 L29.915,2.295 L29.940,1.596 L29.915,2.295 L29.940,1.596 M26.876,49.863 L27.226,49.257 L26.876,49.863 L27.226,49.257 L26.876,49.863 L27.554,48.690 L27.671,47.281 L27.649,45.817 L27.482,44.299 L27.153,42.651 L26.832,40.782 L26.757,38.745 L27.022,36.796 L27.518,35.162 L28.016,33.893 L28.305,32.726 L28.380,31.292 L28.390,29.519 L28.433,27.670 L28.456,26.038 L28.367,24.751 L28.161,23.588 L27.900,22.206 L27.747,20.488 L27.808,18.656 L28.088,16.935 L28.524,15.283 L28.923,13.630 L29.010,12.024 L28.801,10.586 L28.637,9.388 L28.807,8.281 L29.280,7.022 L29.835,5.444 L30.216,3.552 L30.278,1.568 L30.256,2.268 L30.278,1.568 L30.256,2.268 L30.278,1.568 M27.830,49.863 L28.148,49.240 L27.830,49.863 L28.148,49.240 L27.830,49.863 L28.388,48.770 L28.468,47.369 L28.451,45.834 L28.305,44.196 L27.977,42.448 L27.617,40.543 L27.469,38.531 L27.654,36.652 L28.093,35.115 L28.571,33.927 L28.858,32.805 L28.928,31.397 L28.948,29.655 L29.025,27.842 L29.096,26.247 L29.045,24.970 L28.820,23.765 L28.504,22.299 L28.307,20.505 L28.355,18.624 L28.659,16.869 L29.120,15.204 L29.512,13.549 L29.565,11.935 L29.312,10.472 L29.108,9.255 L29.247,8.152 L29.693,6.916 L30.218,5.369 L30.573,3.503 L30.626,1.537 L30.607,2.236 L30.626,1.537 L30.607,2.236 L30.626,1.537 M28.798,49.863 L29.009,49.196 L28.798,49.863 L29.009,49.196 L28.798,49.863 L29.126,48.826 L29.176,47.419 L29.176,45.813 L29.089,44.079 L28.822,42.261 L28.474,40.348 L28.274,38.384 L28.379,36.592 L28.748,35.160 L29.178,34.046 L29.436,32.952 L29.496,31.557 L29.533,29.845 L29.655,28.064 L29.782,26.490 L29.769,25.196 L29.526,23.930 L29.158,22.378 L28.925,20.516 L28.975,18.589 L29.306,16.807 L29.788,15.137 L30.167,13.486 L30.182,11.861 L29.882,10.370 L29.634,9.125 L29.737,8.016 L30.150,6.798 L30.639,5.276 L30.966,3.439 L31.014,1.498 L30.997,2.198 L31.014,1.498 L30.997,2.198 L31.014,1.498 M29.759,49.863 L29.787,49.164 L29.759,49.863 L29.787,49.164 L29.759,49.863 L29.800,48.847 L29.826,47.425 L29.855,45.773 L29.850,43.991 L29.682,42.149 L29.376,40.253 L29.145,38.342 L29.179,36.636 L29.483,35.294 L29.847,34.223 L30.048,33.127 L30.093,31.731 L30.154,30.048 L30.330,28.295 L30.517,26.730 L30.543,25.402 L30.286,24.064 L29.876,22.438 L29.619,20.523 L29.685,18.557 L30.050,16.755 L30.543,15.091 L30.900,13.449 L30.874,11.815 L30.527,10.289 L30.235,9.006 L30.300,7.880 L30.671,6.665 L31.116,5.161 L31.416,3.355 L31.463,1.450 L31.446,2.149 L31.463,1.450 L31.446,2.149 L31.463,1.450 M30.696,49.863 L30.540,49.181 L30.696,49.863 L30.540,49.181 L30.696,49.863 L30.459,48.829 L30.466,47.399 L30.526,45.745 L30.603,43.971 L30.538,42.152 L30.290,40.291 L30.043,38.427 L30.020,36.781 L30.267,35.487 L30.565,34.415 L30.701,33.279 L30.726,31.866 L30.817,30.211 L31.051,28.487 L31.300,26.925 L31.367,25.557 L31.107,24.154 L30.669,22.475 L30.402,20.529 L30.499,18.534 L30.899,16.721 L31.393,15.073 L31.715,13.449 L31.646,11.806 L31.259,10.243 L30.930,8.913 L30.955,7.755 L31.274,6.524 L31.665,5.023 L31.941,3.250 L31.994,1.389 L31.974,2.089 L31.994,1.389 L31.974,2.089 L31.994,1.389 M31.601,49.863 L31.331,49.218 L31.601,49.863 L31.331,49.218 L31.601,49.863 L31.148,48.782 L31.142,47.360 L31.230,45.743 L31.365,44.024 L31.385,42.263 L31.191,40.449 L30.937,38.623 L30.869,37.000 L31.068,35.695 L31.310,34.569 L31.394,33.358 L31.398,31.916 L31.523,30.289 L31.818,28.594 L32.128,27.037 L32.237,25.639 L31.986,24.191 L31.541,22.490 L31.281,20.531 L31.418,18.525 L31.847,16.711 L32.328,15.090 L32.602,13.487 L32.491,11.836 L32.084,10.236 L31.738,8.858 L31.725,7.657 L31.976,6.388 L32.298,4.873 L32.552,3.128 L32.620,1.322 L32.594,2.021 L32.620,1.322 L32.594,2.021 L32.620,1.322 M32.466,49.863 L32.148,49.240 L32.466,49.863 L32.148,49.240 L32.466,49.863 L31.884,48.723 L31.877,47.317 L31.990,45.759 L32.159,44.120 L32.227,42.437 L32.069,40.675 L31.806,38.879 L31.703,37.245 L31.859,35.873 L32.058,34.644 L32.115,33.337 L32.109,31.862 L32.265,30.257 L32.619,28.593 L32.989,27.051 L33.140,25.642 L32.912,24.181 L32.482,22.479 L32.248,20.529 L32.425,18.533 L32.869,16.730 L33.319,15.132 L33.534,13.548 L33.395,11.893 L33.002,10.264 L32.670,8.846 L32.627,7.600 L32.796,6.281 L33.033,4.736 L33.261,3.010 L33.353,1.260 L33.316,1.959 L33.353,1.260 L33.316,1.959 L33.353,1.260 M33.286,49.863 L32.956,49.246 L33.286,49.863 L32.956,49.246 L33.286,49.863 L32.642,48.662 L32.659,47.270 L32.808,45.772 L32.999,44.215 L33.078,42.609 L32.926,40.898 L32.648,39.125 L32.512,37.459 L32.628,35.985 L32.795,34.623 L32.847,33.215 L32.853,31.711 L33.037,30.123 L33.442,28.496 L33.862,26.979 L34.053,25.582 L33.861,24.128 L33.469,22.442 L33.273,20.523 L33.479,18.560 L33.920,16.772 L34.321,15.182 L34.475,13.610 L34.333,11.955 L33.994,10.314 L33.714,8.871 L33.658,7.585 L33.737,6.221 L33.881,4.648 L34.076,2.934 L34.193,1.232 L34.145,1.930 L34.193,1.232 L34.145,1.930 L34.193,1.232 M34.057,49.863 L33.730,49.245 L34.057,49.863 L33.730,49.245 L34.057,49.863 L33.394,48.611 L33.456,47.215 L33.658,45.762 L33.877,44.270 L33.943,42.723 L33.770,41.054 L33.466,39.302 L33.296,37.598 L33.373,36.015 L33.518,34.518 L33.584,33.023 L33.622,31.492 L33.831,29.921 L34.271,28.338 L34.726,26.856 L34.949,25.474 L34.801,24.031 L34.463,22.375 L34.313,20.511 L34.533,18.604 L34.942,16.827 L35.279,15.222 L35.387,13.649 L35.264,12.002 L35.016,10.367 L34.825,8.919 L34.777,7.605 L34.775,6.217 L34.832,4.639 L34.992,2.944 L35.129,1.278 L35.072,1.976 L35.129,1.278 L35.072,1.976 L35.129,1.278 M34.772,49.863 L34.454,49.240 L34.772,49.863 L34.454,49.240 L34.772,49.863 L34.115,48.575 L34.233,47.153 L34.502,45.721 L34.761,44.266 L34.816,42.752 L34.609,41.111 L34.273,39.380 L34.065,37.648 L34.102,35.975 L34.233,34.370 L34.323,32.804 L34.404,31.244 L34.637,29.692 L35.091,28.158 L35.560,26.702 L35.800,25.316 L35.702,23.878 L35.439,22.267 L35.343,20.485 L35.558,18.652 L35.902,16.891 L36.156,15.252 L36.232,13.661 L36.148,12.023 L36.010,10.414 L35.929,8.976 L35.906,7.648 L35.847,6.259 L35.844,4.710 L35.978,3.059 L36.127,1.432 L36.063,2.129 L36.127,1.432 L36.063,2.129 L36.127,1.432 M35.428,49.863 L35.120,49.235 L35.428,49.863 L35.120,49.235 L35.428,49.863 L34.788,48.557 L34.967,47.090 L35.304,45.651 L35.612,44.206 L35.675,42.697 L35.444,41.075 L35.077,39.368 L34.829,37.627 L34.828,35.902 L34.949,34.224 L35.068,32.597 L35.190,31.011 L35.439,29.477 L35.888,27.984 L36.349,26.525 L36.596,25.111 L36.558,23.672 L36.384,22.118 L36.345,20.437 L36.542,18.693 L36.796,16.960 L36.955,15.290 L36.998,13.666 L36.962,12.035 L36.930,10.460 L36.952,9.035 L36.958,7.701 L36.877,6.327 L36.850,4.834 L36.977,3.256 L37.136,1.682 L37.066,2.378 L37.136,1.682 L37.066,2.378 L37.136,1.682 M36.024,49.863 L35.727,49.230 L36.024,49.863 L35.727,49.230 L36.024,49.863 L35.410,48.554 L35.642,47.031 L36.041,45.561 L36.403,44.102 L36.491,42.582 L36.262,40.973 L35.880,39.295 L35.595,37.571 L35.557,35.829 L35.672,34.106 L35.816,32.432 L35.970,30.826 L36.222,29.307 L36.649,27.827 L37.086,26.339 L37.339,24.881 L37.366,23.439 L37.285,21.947 L37.303,20.377 L37.472,18.728 L37.630,17.034 L37.694,15.354 L37.699,13.700 L37.704,12.071 L37.756,10.526 L37.850,9.105 L37.878,7.759 L37.805,6.403 L37.788,4.977 L37.929,3.486 L38.102,1.970 L38.023,2.665 L38.102,1.970 L38.023,2.665 L38.102,1.970 M36.565,49.863 L36.279,49.225 L36.565,49.863 L36.279,49.225 L36.565,49.863 L35.982,48.562 L36.258,46.977 L36.708,45.460 L37.121,43.971 L37.250,42.434 L37.046,40.836 L36.668,39.195 L36.356,37.505 L36.288,35.771 L36.396,34.028 L36.557,32.323 L36.728,30.704 L36.973,29.191 L37.368,27.697 L37.772,26.162 L38.034,24.657 L38.123,23.214 L38.129,21.788 L38.197,20.324 L38.336,18.764 L38.410,17.117 L38.394,15.446 L38.361,13.788 L38.387,12.166 L38.491,10.637 L38.611,9.204 L38.650,7.832 L38.607,6.481 L38.625,5.109 L38.794,3.693 L38.984,2.227 L38.894,2.921 L38.984,2.227 L38.894,2.921 L38.984,2.227 M37.062,49.863 L36.788,49.219 L37.062,49.863 L36.788,49.219 L37.062,49.863 L36.514,48.578 L36.823,46.931 L37.309,45.356 L37.767,43.828 L37.946,42.272 L37.784,40.688 L37.423,39.086 L37.098,37.441 L37.005,35.732 L37.107,33.989 L37.278,32.273 L37.453,30.650 L37.681,29.128 L38.037,27.596 L38.410,26.011 L38.680,24.466 L38.823,23.029 L38.903,21.669 L39.012,20.298 L39.124,18.814 L39.135,17.209 L39.063,15.559 L39.000,13.924 L39.026,12.330 L39.139,10.806 L39.249,9.344 L39.296,7.928 L39.295,6.556 L39.359,5.204 L39.559,3.833 L39.770,2.402 L39.668,3.094 L39.770,2.402 L39.668,3.094 L39.770,2.402 M37.529,49.863 L37.268,49.214 L37.529,49.863 L37.268,49.214 L37.529,49.863 L37.021,48.597 L37.349,46.890 L37.859,45.254 L38.355,43.683 L38.585,42.110 L38.474,40.540 L38.138,38.979 L37.810,37.381 L37.698,35.708 L37.796,33.984 L37.972,32.276 L38.140,30.656 L38.340,29.112 L38.653,27.526 L39.000,25.893 L39.278,24.322 L39.462,22.902 L39.600,21.606 L39.739,20.310 L39.830,18.882 L39.803,17.309 L39.701,15.684 L39.617,14.089 L39.626,12.532 L39.712,11.011 L39.794,9.512 L39.850,8.036 L39.897,6.608 L40.008,5.232 L40.229,3.875 L40.447,2.468 L40.340,3.160 L40.447,2.468 L40.340,3.160 L40.447,2.468 M37.979,49.863 L37.737,49.207 L37.979,49.863 L37.737,49.207 L37.979,49.863 L37.519,48.620 L37.856,46.855 L38.375,45.156 L38.899,43.544 L39.180,41.956 L39.118,40.401 L38.814,38.878 L38.490,37.326 L38.365,35.695 L38.463,34.005 L38.638,32.320 L38.789,30.711 L38.951,29.135 L39.220,27.489 L39.542,25.811 L39.828,24.228 L40.042,22.835 L40.220,21.599 L40.378,20.359 L40.455,18.966 L40.413,17.411 L40.303,15.810 L40.208,14.258 L40.187,12.739 L40.227,11.218 L40.279,9.679 L40.346,8.129 L40.441,6.612 L40.588,5.180 L40.803,3.819 L41.017,2.431 L40.910,3.123 L41.017,2.431 L40.910,3.123 L41.017,2.431 M38.429,49.863 L38.210,49.198 L38.429,49.863 L38.210,49.198 L38.429,49.863 L38.028,48.643 L38.360,46.824 L38.875,45.065 L39.416,43.414 L39.739,41.816 L39.725,40.277 L39.454,38.786 L39.140,37.275 L39.011,35.690 L39.109,34.044 L39.279,32.395 L39.403,30.802 L39.522,29.191 L39.744,27.480 L40.043,25.763 L40.334,24.181 L40.568,22.823 L40.769,21.641 L40.935,20.440 L41.003,19.060 L40.963,17.511 L40.863,15.927 L40.764,14.414 L40.711,12.926 L40.704,11.401 L40.733,9.822 L40.811,8.183 L40.946,6.561 L41.105,5.063 L41.296,3.691 L41.498,2.323 L41.396,3.016 L41.498,2.323 L41.396,3.016 L41.498,2.323 M38.890,49.863 L38.704,49.188 L38.890,49.863 L38.704,49.188 L38.890,49.863 L38.561,48.667 L38.877,46.797 L39.373,44.983 L39.918,43.299 L40.272,41.693 L40.301,40.171 L40.065,38.704 L39.767,37.226 L39.642,35.688 L39.742,34.095 L39.899,32.492 L39.989,30.917 L40.061,29.270 L40.235,27.498 L40.510,25.744 L40.804,24.173 L41.049,22.858 L41.256,21.723 L41.420,20.543 L41.485,19.160 L41.458,17.603 L41.378,16.030 L41.282,14.545 L41.202,13.080 L41.161,11.549 L41.172,9.926 L41.262,8.193 L41.421,6.468 L41.571,4.909 L41.729,3.531 L41.918,2.185 L41.821,2.878 L41.918,2.185 L41.821,2.878 L41.918,2.185 M39.368,49.863 L39.230,49.177 L39.368,49.863 L39.230,49.177 L39.368,49.863 L39.132,48.688 L39.418,46.775 L39.880,44.916 L40.411,43.204 L40.784,41.593 L40.851,40.085 L40.651,38.632 L40.376,37.179 L40.264,35.687 L40.365,34.150 L40.506,32.601 L40.555,31.049 L40.575,29.368 L40.702,27.537 L40.952,25.753 L41.247,24.200 L41.496,22.931 L41.696,21.833 L41.847,20.660 L41.911,19.260 L41.905,17.685 L41.853,16.112 L41.768,14.646 L41.676,13.197 L41.612,11.657 L41.610,9.985 L41.709,8.161 L41.872,6.349 L42.000,4.744 L42.123,3.365 L42.302,2.045 L42.208,2.738 L42.302,2.045 L42.208,2.738 L42.302,2.045 M39.868,49.863 L39.794,49.167 L39.868,49.863 L39.794,49.167 L39.868,49.863 L39.746,48.707 L39.991,46.762 L40.400,44.870 L40.898,43.137 L41.277,41.523 L41.378,40.022 L41.215,38.573 L40.971,37.133 L40.883,35.682 L40.986,34.205 L41.104,32.715 L41.108,31.188 L41.075,29.478 L41.155,27.596 L41.380,25.787 L41.672,24.258 L41.920,23.034 L42.102,21.964 L42.233,20.785 L42.298,19.356 L42.317,17.752 L42.299,16.168 L42.237,14.712 L42.150,13.275 L42.075,11.727 L42.063,10.001 L42.163,8.098 L42.313,6.217 L42.410,4.583 L42.499,3.214 L42.671,1.921 L42.579,2.615 L42.671,1.921 L42.579,2.615 L42.671,1.921 M40.392,49.863 L40.398,49.163 L40.392,49.863 L40.398,49.163 L40.392,49.863 L40.403,48.723 L40.596,46.767 L40.934,44.858 L41.381,43.109 L41.754,41.489 L41.886,39.986 L41.762,38.526 L41.558,37.088 L41.503,35.670 L41.610,34.254 L41.702,32.828 L41.658,31.329 L41.571,29.595 L41.604,27.670 L41.806,25.845 L42.092,24.345 L42.333,23.164 L42.489,22.110 L42.595,20.913 L42.663,19.443 L42.711,17.799 L42.735,16.193 L42.710,14.739 L42.643,13.310 L42.569,11.756 L42.550,9.979 L42.638,8.009 L42.757,6.081 L42.816,4.437 L42.876,3.087 L43.046,1.822 L42.953,2.516 L43.046,1.822 L42.953,2.516 L43.046,1.822 M40.949,49.863 L41.047,49.170 L40.949,49.863 L41.047,49.170 L40.949,49.863 L41.107,48.743 L41.240,46.799 L41.488,44.891 L41.866,43.130 L42.225,41.498 L42.388,39.978 L42.306,38.494 L42.151,37.044 L42.137,35.650 L42.251,34.293 L42.313,32.933 L42.219,31.466 L42.077,29.716 L42.065,27.759 L42.244,25.926 L42.522,24.460 L42.751,23.315 L42.875,22.266 L42.955,21.039 L43.027,19.517 L43.107,17.818 L43.180,16.180 L43.207,14.721 L43.176,13.300 L43.117,11.742 L43.093,9.920 L43.157,7.898 L43.224,5.947 L43.239,4.313 L43.274,2.990 L43.447,1.755 L43.350,2.448 L43.447,1.755 L43.350,2.448 L43.447,1.755 M41.555,49.863 L41.749,49.191 L41.555,49.863 L41.749,49.191 L41.555,49.863 L41.868,48.775 L41.931,46.872 L42.073,44.980 L42.368,43.209 L42.706,41.557 L42.898,40.001 L42.865,38.477 L42.768,37.000 L42.802,35.618 L42.926,34.318 L42.956,33.026 L42.808,31.593 L42.611,29.837 L42.557,27.862 L42.713,26.034 L42.981,24.604 L43.192,23.487 L43.280,22.427 L43.334,21.158 L43.412,19.569 L43.527,17.800 L43.658,16.119 L43.751,14.651 L43.775,13.238 L43.742,11.679 L43.718,9.825 L43.743,7.771 L43.738,5.823 L43.698,4.218 L43.713,2.931 L43.898,1.727 L43.791,2.419 L43.898,1.727 L43.791,2.419 L43.898,1.727 M42.227,49.863 L42.511,49.224 L42.227,49.863 L42.511,49.224 L42.227,49.863 L42.686,48.830 L42.670,46.994 L42.696,45.134 L42.900,43.351 L43.213,41.665 L43.439,40.055 L43.461,38.472 L43.430,36.957 L43.513,35.576 L43.649,34.327 L43.646,33.102 L43.443,31.705 L43.191,29.954 L43.097,27.979 L43.232,26.169 L43.488,24.773 L43.676,23.669 L43.727,22.584 L43.757,21.258 L43.842,19.583 L43.994,17.732 L44.189,16.003 L44.362,14.522 L44.455,13.117 L44.464,11.562 L44.445,9.694 L44.419,7.634 L44.321,5.716 L44.213,4.164 L44.212,2.922 L44.418,1.748 L44.297,2.437 L44.418,1.748 L44.297,2.437 L44.418,1.748 M42.973,49.863 L43.332,49.262 L42.973,49.863 L43.332,49.262 L42.973,49.863 L43.540,48.913 L43.441,47.165 L43.357,45.345 L43.476,43.545 L43.770,41.811 L44.031,40.129 L44.115,38.477 L44.154,36.914 L44.281,35.528 L44.425,34.323 L44.392,33.156 L44.134,31.796 L43.831,30.064 L43.701,28.108 L43.819,26.326 L44.060,24.954 L44.223,23.847 L44.241,22.718 L44.248,21.317 L44.343,19.546 L44.530,17.609 L44.787,15.832 L45.046,14.336 L45.223,12.938 L45.288,11.394 L45.281,9.535 L45.195,7.503 L44.990,5.643 L44.802,4.162 L44.788,2.972 L45.026,1.825 L44.884,2.510 L45.026,1.825 L44.884,2.510 L45.026,1.825 M43.791,49.863 L44.198,49.294 L43.791,49.863 L44.198,49.294 L43.791,49.863 L44.394,49.019 L44.215,47.362 L44.050,45.579 L44.112,43.750 L44.402,41.957 L44.701,40.200 L44.849,38.479 L44.951,36.873 L45.110,35.483 L45.249,34.317 L45.188,33.193 L44.885,31.863 L44.537,30.161 L44.381,28.239 L44.486,26.485 L44.714,25.123 L44.855,23.993 L44.844,22.803 L44.833,21.312 L44.935,19.446 L45.149,17.437 L45.455,15.622 L45.792,14.113 L46.058,12.719 L46.194,11.192 L46.209,9.367 L46.062,7.399 L45.747,5.622 L45.474,4.223 L45.452,3.086 L45.731,1.957 L45.563,2.637 L45.731,1.957 L45.563,2.637 L45.731,1.957 M44.670,49.863 L45.086,49.300 L44.670,49.863 L45.086,49.300 L44.670,49.863 L45.215,49.126 L44.965,47.538 L44.766,45.770 L44.819,43.899 L45.129,42.049 L45.471,40.232 L45.675,38.466 L45.822,36.837 L45.988,35.451 L46.105,34.313 L46.017,33.215 L45.683,31.904 L45.308,30.231 L45.137,28.342 L45.236,26.605 L45.453,25.234 L45.578,24.066 L45.552,22.810 L45.532,21.228 L45.633,19.290 L45.852,17.242 L46.180,15.413 L46.571,13.892 L46.918,12.497 L47.133,10.992 L47.182,9.223 L46.987,7.345 L46.574,5.667 L46.225,4.346 L46.201,3.253 L46.527,2.129 L46.332,2.802 L46.527,2.129 L46.332,2.802 L46.527,2.129 M45.590,49.863 L45.961,49.270 L45.590,49.863 L45.961,49.270 L45.590,49.863 L46.002,49.205 L45.689,47.641 L45.498,45.849 L45.596,43.927 L45.952,42.038 L46.339,40.202 L46.585,38.436 L46.748,36.819 L46.891,35.445 L46.965,34.313 L46.854,33.216 L46.511,31.906 L46.132,30.252 L45.959,28.382 L46.055,26.642 L46.264,25.239 L46.386,24.022 L46.364,22.710 L46.347,21.070 L46.434,19.103 L46.624,17.067 L46.933,15.254 L47.339,13.724 L47.746,12.322 L48.041,10.838 L48.136,9.134 L47.917,7.358 L47.437,5.779 L47.035,4.523 L47.020,3.457 L47.391,2.317 L47.175,2.983 L47.391,2.317 L47.175,2.983 L47.391,2.317 M46.526,49.863 L46.776,49.230 L46.526,49.863 L46.776,49.230 L46.526,49.863 L46.776,49.230 L46.416,47.640 L46.251,45.787 L46.417,43.814 L46.834,41.917 L47.267,40.116 L47.537,38.407 L47.683,36.836 L47.775,35.468 L47.799,34.316 L47.674,33.194 L47.347,31.866 L46.988,30.212 L46.822,28.344 L46.907,26.581 L47.112,25.125 L47.248,23.849 L47.255,22.503 L47.257,20.862 L47.315,18.925 L47.434,16.953 L47.679,15.187 L48.058,13.651 L48.495,12.235 L48.862,10.764 L49.012,9.119 L48.800,7.434 L48.296,5.939 L47.876,4.730 L47.881,3.672 L48.285,2.495 L48.058,3.157 L48.285,2.495 L48.058,3.157 L48.285,2.495 M47.450,49.863 L47.563,49.179 L47.450,49.863 L47.563,49.179 L47.450,49.863 L47.563,49.179 L47.177,47.535 L47.037,45.609 L47.256,43.601 L47.718,41.733 L48.189,40.017 L48.467,38.405 L48.574,36.890 L48.604,35.516 L48.586,34.323 L48.463,33.154 L48.170,31.793 L47.851,30.126 L47.688,28.248 L47.753,26.448 L47.955,24.920 L48.121,23.579 L48.181,22.222 L48.218,20.636 L48.236,18.795 L48.251,16.923 L48.389,15.220 L48.708,13.682 L49.149,12.247 L49.573,10.776 L49.782,9.170 L49.607,7.552 L49.123,6.119 L48.723,4.940 L48.752,3.868 L49.170,2.640 L48.945,3.302 L49.170,2.640 L48.945,3.302 L49.170,2.640 M48.338,49.863 L48.359,49.164 L48.338,49.863 L48.359,49.164 L48.338,49.863 L48.363,49.055 L47.976,47.346 L47.852,45.366 L48.090,43.355 L48.571,41.544 L49.058,39.940 L49.328,38.437 L49.392,36.974 L49.373,35.580 L49.336,34.329 L49.231,33.103 L48.979,31.706 L48.695,30.027 L48.529,28.139 L48.563,26.295 L48.760,24.684 L48.966,23.274 L49.099,21.921 L49.182,20.430 L49.157,18.732 L49.050,16.978 L49.052,15.336 L49.292,13.798 L49.723,12.339 L50.186,10.852 L50.451,9.262 L50.337,7.687 L49.910,6.296 L49.554,5.128 L49.607,4.023 L50.022,2.735 L49.807,3.401 L50.022,2.735 L49.807,3.401 L50.022,2.735 M49.170,49.863 L49.158,49.163 L49.170,49.863 L49.158,49.163 L49.170,49.863 L49.153,48.883 L48.785,47.119 L48.667,45.113 L48.901,43.126 L49.376,41.389 L49.855,39.903 L50.109,38.505 L50.138,37.074 L50.095,35.644 L50.067,34.327 L49.997,33.048 L49.784,31.629 L49.512,29.949 L49.322,28.060 L49.321,26.176 L49.506,24.478 L49.755,22.997 L49.970,21.654 L50.105,20.273 L50.042,18.735 L49.813,17.100 L49.672,15.505 L49.823,13.969 L50.235,12.480 L50.723,10.963 L51.040,9.371 L50.999,7.816 L50.650,6.446 L50.348,5.271 L50.418,4.123 L50.819,2.771 L50.620,3.442 L50.819,2.771 L50.620,3.442 L50.819,2.771 M49.936,49.863 L49.913,49.164 L49.936,49.863 L49.913,49.164 L49.936,49.863 L49.898,48.698 L49.566,46.900 L49.454,44.893 L49.673,42.951 L50.124,41.294 L50.576,39.918 L50.809,38.601 L50.819,37.178 L50.780,35.696 L50.785,34.312 L50.763,32.991 L50.585,31.573 L50.305,29.913 L50.066,28.037 L50.021,26.121 L50.189,24.341 L50.478,22.791 L50.774,21.455 L50.962,20.175 L50.872,18.786 L50.535,17.259 L50.262,15.703 L50.326,14.167 L50.710,12.642 L51.208,11.087 L51.568,9.475 L51.601,7.916 L51.333,6.541 L51.083,5.347 L51.162,4.155 L51.538,2.743 L51.358,3.419 L51.538,2.743 L51.358,3.419 L51.538,2.743 M50.630,49.863 L50.601,49.164 L50.630,49.863 L50.601,49.164 L50.630,49.863 L50.575,48.531 L50.294,46.718 L50.195,44.731 L50.396,42.844 L50.811,41.269 L51.225,39.983 L51.436,38.715 L51.442,37.275 L51.425,35.732 L51.482,34.282 L51.515,32.935 L51.372,31.542 L51.070,29.923 L50.767,28.075 L50.669,26.138 L50.819,24.287 L51.140,22.674 L51.508,21.334 L51.745,20.131 L51.641,18.861 L51.223,17.422 L50.842,15.904 L50.825,14.366 L51.169,12.806 L51.663,11.204 L52.056,9.556 L52.153,7.968 L51.957,6.566 L51.748,5.339 L51.822,4.108 L52.165,2.651 L52.005,3.332 L52.165,2.651 L52.005,3.332 L52.165,2.651 M51.256,49.863 L51.220,49.164 L51.256,49.863 L51.220,49.164 L51.256,49.863 L51.180,48.397 L50.958,46.585 L50.878,44.630 L51.060,42.804 L51.439,41.308 L51.810,40.085 L51.996,38.836 L52.008,37.358 L52.028,35.749 L52.147,34.239 L52.240,32.879 L52.131,31.529 L51.805,29.974 L51.433,28.163 L51.275,26.216 L51.409,24.310 L51.759,22.638 L52.184,21.281 L52.462,20.124 L52.357,18.938 L51.889,17.570 L51.428,16.087 L51.337,14.548 L51.634,12.952 L52.112,11.301 L52.523,9.604 L52.670,7.968 L52.530,6.519 L52.346,5.247 L52.402,3.981 L52.701,2.497 L52.563,3.183 L52.701,2.497 L52.563,3.183 L52.701,2.497 M51.827,49.863 L51.781,49.165 L51.827,49.863 L51.781,49.165 L51.827,49.863 L51.725,48.300 L51.559,46.502 L51.497,44.587 L51.664,42.824 L52.010,41.398 L52.342,40.213 L52.501,38.955 L52.525,37.424 L52.590,35.751 L52.775,34.188 L52.929,32.824 L52.855,31.530 L52.510,30.051 L52.073,28.287 L51.853,26.338 L51.974,24.390 L52.350,22.666 L52.817,21.278 L53.128,20.137 L53.034,19.002 L52.543,17.692 L52.030,16.237 L51.876,14.697 L52.123,13.070 L52.574,11.370 L52.990,9.618 L53.170,7.924 L53.070,6.411 L52.896,5.083 L52.916,3.782 L53.162,2.287 L53.049,2.978 L53.162,2.287 L53.049,2.978 L53.162,2.287 M52.359,49.863 L52.301,49.166 L52.359,49.863 L52.301,49.166 L52.359,49.863 L52.223,48.234 L52.108,46.461 L52.062,44.593 L52.216,42.892 L52.535,41.525 L52.834,40.358 L52.967,39.069 L53.004,37.476 L53.117,35.741 L53.367,34.131 L53.580,32.769 L53.545,31.537 L53.189,30.144 L52.696,28.433 L52.419,26.489 L52.527,24.511 L52.928,22.740 L53.424,21.311 L53.759,20.159 L53.686,19.049 L53.196,17.776 L52.654,16.345 L52.453,14.803 L52.650,13.152 L53.065,11.411 L53.475,9.608 L53.676,7.849 L53.600,6.264 L53.420,4.870 L53.391,3.533 L53.575,2.038 L53.489,2.733 L53.575,2.038 L53.489,2.733 L53.575,2.038 M52.877,49.863 L52.802,49.167 L52.877,49.863 L52.802,49.167 L52.877,49.863 L52.698,48.195 L52.625,46.458 L52.593,44.643 L52.735,43.001 L53.033,41.680 L53.302,40.514 L53.412,39.175 L53.458,37.513 L53.618,35.721 L53.931,34.069 L54.200,32.712 L54.206,31.546 L53.851,30.241 L53.316,28.589 L52.989,26.658 L53.085,24.662 L53.502,22.848 L54.017,21.369 L54.367,20.182 L54.319,19.064 L53.852,17.812 L53.307,16.401 L53.072,14.862 L53.222,13.198 L53.596,11.429 L53.994,9.585 L54.204,7.766 L54.141,6.102 L53.944,4.637 L53.855,3.262 L53.971,1.774 L53.917,2.472 L53.971,1.774 L53.917,2.472 L53.971,1.774 M53.407,49.863 L53.311,49.170 L53.407,49.863 L53.311,49.170 L53.407,49.863 L53.175,48.178 L53.134,46.489 L53.114,44.736 L53.246,43.151 L53.524,41.860 L53.765,40.676 L53.853,39.273 L53.903,37.540 L54.107,35.694 L54.476,34.003 L54.798,32.654 L54.849,31.550 L54.506,30.333 L53.946,28.742 L53.580,26.837 L53.663,24.834 L54.086,22.983 L54.605,21.444 L54.960,20.191 L54.941,19.038 L54.516,17.789 L53.991,16.398 L53.735,14.871 L53.840,13.209 L54.173,11.433 L54.555,9.565 L54.771,7.695 L54.713,5.955 L54.492,4.414 L54.338,3.002 L54.381,1.521 L54.361,2.221 L54.381,1.521 L54.361,2.221 L54.381,1.521 M53.976,49.863 L53.854,49.174 L53.976,49.863 L53.854,49.174 L53.976,49.863 L53.679,48.182 L53.662,46.555 L53.648,44.871 L53.770,43.339 L54.030,42.061 L54.243,40.839 L54.306,39.362 L54.356,37.557 L54.592,35.662 L55.009,33.936 L55.379,32.592 L55.479,31.544 L55.163,30.408 L54.597,28.884 L54.207,27.013 L54.274,25.014 L54.689,23.134 L55.198,21.519 L55.547,20.174 L55.558,18.962 L55.192,17.704 L54.705,16.334 L54.441,14.830 L54.500,13.192 L54.791,11.431 L55.162,9.562 L55.382,7.658 L55.326,5.847 L55.081,4.233 L54.862,2.781 L54.833,1.305 L54.847,2.005 L54.833,1.305 L54.847,2.005 L54.833,1.305 M54.606,49.863 L54.455,49.180 L54.606,49.863 L54.455,49.180 L54.606,49.863 L54.238,48.203 L54.232,46.654 L54.220,45.047 L54.333,43.561 L54.574,42.273 L54.755,40.993 L54.791,39.437 L54.832,37.569 L55.083,35.628 L55.531,33.871 L55.947,32.526 L56.100,31.521 L55.828,30.457 L55.280,29.000 L54.881,27.174 L54.927,25.191 L55.321,23.284 L55.803,21.579 L56.136,20.122 L56.178,18.836 L55.882,17.564 L55.447,16.218 L55.182,14.750 L55.194,13.155 L55.443,11.435 L55.808,9.588 L56.039,7.667 L55.986,5.795 L55.718,4.113 L55.439,2.621 L55.342,1.144 L55.388,1.842 L55.342,1.144 L55.388,1.842 L55.342,1.144 M55.315,49.863 L55.135,49.187 L55.315,49.863 L55.135,49.187 L55.315,49.863 L54.881,48.234 L54.871,46.778 L54.857,45.254 L54.960,43.802 L55.180,42.478 L55.326,41.121 L55.326,39.494 L55.345,37.579 L55.588,35.599 L56.047,33.813 L56.501,32.458 L56.711,31.476 L56.503,30.466 L55.997,29.072 L55.605,27.300 L55.629,25.347 L55.988,23.411 L56.427,21.608 L56.739,20.034 L56.810,18.669 L56.585,17.383 L56.209,16.066 L55.945,14.646 L55.910,13.113 L56.119,11.454 L56.483,9.650 L56.734,7.729 L56.688,5.807 L56.403,4.062 L56.071,2.531 L55.910,1.044 L55.986,1.740 L55.910,1.044 L55.986,1.740 L55.910,1.044 M56.120,49.863 L55.923,49.192 L56.120,49.863 L55.923,49.192 L56.120,49.863 L55.651,48.264 L55.619,46.912 L55.597,45.468 L55.692,44.032 L55.887,42.652 L55.988,41.208 L55.940,39.528 L55.917,37.585 L56.124,35.580 L56.570,33.774 L57.051,32.396 L57.318,31.406 L57.189,30.415 L56.745,29.072 L56.371,27.364 L56.376,25.459 L56.691,23.493 L57.078,21.597 L57.370,19.915 L57.462,18.481 L57.303,17.188 L56.984,15.905 L56.719,14.541 L56.633,13.081 L56.804,11.498 L57.174,9.751 L57.455,7.840 L57.425,5.880 L57.128,4.079 L56.752,2.507 L56.531,1.000 L56.633,1.693 L56.531,1.000 L56.633,1.693 L56.531,1.000 M57.040,49.863 L56.852,49.189 L57.040,49.863 L56.852,49.189 L57.040,49.863 L56.596,48.278 L56.533,47.031 L56.501,45.656 L56.583,44.216 L56.744,42.765 L56.789,41.244 L56.675,39.535 L56.584,37.586 L56.724,35.577 L57.131,33.764 L57.618,32.348 L57.933,31.303 L57.881,30.282 L57.505,28.962 L57.163,27.327 L57.157,25.493 L57.429,23.512 L57.766,21.542 L58.042,19.780 L58.152,18.299 L58.042,17.012 L57.767,15.769 L57.493,14.460 L57.354,13.074 L57.488,11.571 L57.868,9.887 L58.190,7.993 L58.188,6.003 L57.884,4.152 L57.470,2.538 L57.191,1.005 L57.317,1.693 L57.191,1.005 L57.317,1.693 L57.191,1.005 M58.087,49.863 L57.943,49.178 L58.087,49.863 L57.943,49.178 L58.087,49.863 L57.753,48.274 L57.671,47.113 L57.633,45.786 L57.690,44.323 L57.797,42.804 L57.773,41.226 L57.575,39.508 L57.390,37.580 L57.437,35.596 L57.775,33.796 L58.240,32.327 L58.572,31.170 L58.564,30.052 L58.251,28.714 L57.959,27.153 L57.962,25.409 L58.200,23.455 L58.499,21.450 L58.767,19.652 L58.893,18.160 L58.810,16.896 L58.557,15.691 L58.257,14.428 L58.062,13.104 L58.162,11.670 L58.557,10.047 L58.927,8.175 L58.965,6.165 L58.663,4.268 L58.217,2.611 L57.879,1.051 L58.027,1.735 L57.879,1.051 L58.027,1.735 L57.879,1.051 M59.258,49.863 L59.197,49.166 L59.258,49.863 L59.197,49.166 L59.258,49.863 L59.118,48.269 L59.053,47.160 L59.022,45.854 L59.034,44.353 L59.061,42.767 L58.956,41.142 L58.669,39.437 L58.381,37.565 L58.322,35.641 L58.564,33.876 L58.966,32.353 L59.252,31.037 L59.231,29.751 L58.969,28.341 L58.748,26.835 L58.786,25.194 L59.009,23.319 L59.287,21.345 L59.552,19.561 L59.692,18.098 L59.618,16.875 L59.354,15.700 L59.008,14.461 L58.755,13.171 L58.821,11.786 L59.231,10.212 L59.657,8.369 L59.744,6.353 L59.454,4.416 L58.982,2.717 L58.588,1.130 L58.757,1.809 L58.588,1.130 L58.757,1.809 L58.588,1.130 M60.535,49.863 L60.580,49.165 L60.535,49.863 L60.580,49.165 L60.535,49.863 L60.638,48.268 L60.619,47.165 L60.602,45.852 L60.556,44.289 L60.483,42.617 L60.293,40.951 L59.925,39.287 L59.542,37.521 L59.379,35.707 L59.523,34.006 L59.830,32.451 L59.998,30.961 L59.905,29.456 L59.677,27.919 L59.545,26.426 L59.642,24.882 L59.872,23.131 L60.139,21.259 L60.401,19.537 L60.545,18.136 L60.469,16.963 L60.166,15.805 L59.753,14.558 L59.439,13.263 L59.469,11.895 L59.891,10.360 L60.371,8.558 L60.515,6.550 L60.245,4.584 L59.758,2.843 L59.313,1.230 L59.499,1.905 L59.313,1.230 L59.499,1.905 L59.313,1.230 M61.887,49.863 L62.019,49.176 L61.887,49.863 L62.019,49.176 L61.887,49.863 L62.192,48.274 L62.218,47.117 L62.213,45.751 L62.114,44.095 L61.939,42.325 L61.665,40.631 L61.238,39.032 L60.788,37.406 L60.541,35.763 L60.598,34.181 L60.803,32.626 L60.838,30.997 L60.644,29.272 L60.431,27.572 L60.390,26.037 L60.561,24.557 L60.810,22.947 L61.067,21.227 L61.309,19.606 L61.440,18.275 L61.348,17.146 L60.996,15.986 L60.511,14.695 L60.134,13.352 L60.122,11.971 L60.543,10.469 L61.066,8.719 L61.264,6.738 L61.024,4.757 L60.534,2.975 L60.049,1.338 L60.248,2.009 L60.049,1.338 L60.248,2.009 L60.049,1.338 M63.274,49.863 L63.409,49.177 L63.274,49.863 L63.409,49.177 L63.274,49.863 L63.583,48.296 L63.644,47.018 L63.666,45.549 L63.549,43.808 L63.308,41.969 L62.966,40.262 L62.511,38.724 L62.030,37.235 L61.723,35.786 L61.705,34.370 L61.819,32.862 L61.765,31.156 L61.508,29.270 L61.300,27.413 L61.336,25.786 L61.574,24.320 L61.839,22.830 L62.067,21.269 L62.263,19.766 L62.353,18.496 L62.231,17.389 L61.835,16.205 L61.293,14.837 L60.863,13.411 L60.801,11.993 L61.197,10.519 L61.738,8.832 L61.981,6.896 L61.779,4.916 L61.302,3.095 L60.796,1.439 L61.001,2.109 L60.796,1.439 L61.001,2.109 L60.796,1.439"/>
</svg>
