<svg xmlns="http://www.w3.org/2000/svg" viewBox="0 -4.293 63.092 63.092" width="256" height="256">
  <title>warpedlines3</title>
  <rect x="0" y="-4.293" width="63.092" height="63.092" fill="#f5efe4"/>
  <path fill="none" stroke="#c8472f" stroke-width="0.4" stroke-linecap="round" stroke-linejoin="round" d="M4.030,50.434 L4.030,50.434 L3.929,48.875 L3.828,47.316 L3.727,45.757 L3.626,44.198 L3.525,42.639 L3.424,41.080 L3.323,39.521 L3.222,37.962 L3.121,36.403 L3.020,34.845 L2.919,33.286 L2.818,31.727 L2.717,30.168 L2.616,28.609 L2.515,27.050 L2.414,25.491 L2.313,23.932 L2.212,22.373 L2.111,20.814 L2.010,19.255 L1.909,17.696 L1.808,16.137 L1.707,14.578 L1.606,13.019 L1.505,11.460 L1.404,9.901 L1.303,8.342 L1.202,6.784 L1.101,5.225 L1.000,3.666 L1.045,4.364 L1.000,3.666 L1.045,4.364 L1.000,3.666 M5.062,50.093 L5.018,49.394 L5.062,50.093 L5.018,49.394 L5.062,50.093 L4.962,48.501 L4.861,46.910 L4.760,45.318 L4.660,43.727 L4.559,42.136 L4.459,40.544 L4.358,38.953 L4.257,37.362 L4.157,35.770 L4.056,34.179 L3.955,32.587 L3.855,30.996 L3.754,29.405 L3.654,27.813 L3.553,26.222 L3.452,24.631 L3.352,23.039 L3.251,21.448 L3.150,19.856 L3.050,18.265 L2.949,16.674 L2.848,15.082 L2.748,13.491 L2.647,11.900 L2.547,10.308 L2.446,8.717 L2.345,7.125 L2.245,5.534 L2.144,3.943 L2.188,4.641 L2.144,3.943 L2.188,4.641 L2.144,3.943 M5.920,49.866 L5.884,49.167 L5.920,49.866 L5.884,49.167 L5.920,49.866 L5.840,48.301 L5.761,46.736 L5.681,45.171 L5.602,43.606 L5.523,42.041 L5.443,40.476 L5.364,38.910 L5.284,37.345 L5.205,35.780 L5.126,34.215 L5.046,32.650 L4.967,31.085 L4.887,29.520 L4.808,27.955 L4.729,26.390 L4.649,24.825 L4.570,23.260 L4.490,21.694 L4.411,20.129 L4.331,18.564 L4.252,16.999 L4.173,15.434 L4.093,13.869 L4.014,12.304 L3.934,10.739 L3.855,9.174 L3.776,7.609 L3.696,6.043 L3.617,4.478 L3.652,5.177 L3.617,4.478 L3.652,5.177 L3.617,4.478 M6.572,49.795 L6.550,49.095 L6.572,49.795 L6.550,49.095 L6.572,49.795 L6.521,48.197 L6.470,46.599 L6.419,45.001 L6.368,43.403 L6.317,41.805 L6.266,40.207 L6.215,38.609 L6.164,37.011 L6.113,35.412 L6.062,33.814 L6.010,32.216 L5.959,30.618 L5.908,29.020 L5.857,27.422 L5.806,25.824 L5.755,24.226 L5.704,22.628 L5.653,21.030 L5.602,19.432 L5.551,17.834 L5.500,16.236 L5.449,14.637 L5.398,13.039 L5.347,11.441 L5.296,9.843 L5.245,8.245 L5.194,6.647 L5.143,5.049 L5.165,5.749 L5.143,5.049 L5.165,5.749 L5.143,5.049 M7.018,49.897 L7.007,49.197 L7.018,49.897 L7.007,49.197 L7.018,49.897 L6.994,48.305 L6.970,46.713 L6.946,45.121 L6.922,43.529 L6.899,41.938 L6.875,40.346 L6.851,38.754 L6.827,37.162 L6.803,35.570 L6.779,33.978 L6.755,32.387 L6.732,30.795 L6.708,29.203 L6.684,27.611 L6.660,26.019 L6.636,24.427 L6.612,22.835 L6.589,21.244 L6.565,19.652 L6.541,18.060 L6.517,16.468 L6.493,14.876 L6.469,13.284 L6.445,11.693 L6.422,10.101 L6.398,8.509 L6.374,6.917 L6.350,5.325 L6.360,6.025 L6.350,5.325 L6.360,6.025 L6.350,5.325 M7.280,50.168 L7.276,49.468 L7.280,50.168 L7.276,49.468 L7.280,50.168 L7.271,48.613 L7.261,47.057 L7.251,45.502 L7.241,43.947 L7.232,42.391 L7.222,40.836 L7.212,39.280 L7.203,37.725 L7.193,36.170 L7.183,34.614 L7.174,33.059 L7.164,31.504 L7.154,29.948 L7.145,28.393 L7.135,26.838 L7.125,25.282 L7.116,23.727 L7.106,22.171 L7.096,20.616 L7.087,19.061 L7.077,17.505 L7.067,15.950 L7.058,14.395 L7.048,12.839 L7.038,11.284 L7.029,9.729 L7.019,8.173 L7.009,6.618 L6.999,5.062 L7.004,5.762 L6.999,5.062 L7.004,5.762 L6.999,5.062 M7.397,50.590 L7.394,49.890 L7.397,50.590 L7.394,49.890 L7.397,50.590 L7.389,48.993 L7.381,47.397 L7.374,45.801 L7.366,44.204 L7.358,42.608 L7.350,41.011 L7.342,39.415 L7.335,37.818 L7.327,36.222 L7.319,34.625 L7.311,33.029 L7.304,31.432 L7.296,29.836 L7.288,28.239 L7.280,26.643 L7.272,25.047 L7.265,23.450 L7.257,21.854 L7.249,20.257 L7.241,18.661 L7.233,17.064 L7.226,15.468 L7.218,13.871 L7.210,12.275 L7.202,10.678 L7.195,9.082 L7.187,7.486 L7.179,5.889 L7.171,4.293 L7.175,4.993 L7.171,4.293 L7.175,4.993 L7.171,4.293 M7.418,51.131 L7.414,50.431 L7.418,51.131 L7.414,50.431 L7.418,51.131 L7.409,49.536 L7.400,47.940 L7.391,46.345 L7.382,44.750 L7.373,43.154 L7.365,41.559 L7.356,39.963 L7.347,38.368 L7.338,36.773 L7.329,35.177 L7.320,33.582 L7.312,31.986 L7.303,30.391 L7.294,28.796 L7.285,27.200 L7.276,25.605 L7.267,24.009 L7.258,22.414 L7.250,20.819 L7.241,19.223 L7.232,17.628 L7.223,16.032 L7.214,14.437 L7.205,12.842 L7.196,11.246 L7.188,9.651 L7.179,8.055 L7.170,6.460 L7.161,4.865 L7.152,3.269 L7.156,3.969 L7.152,3.269 L7.156,3.969 L7.152,3.269 M7.405,51.744 L7.403,51.044 L7.405,51.744 L7.403,51.044 L7.405,51.744 L7.401,50.151 L7.397,48.558 L7.393,46.964 L7.389,45.371 L7.385,43.777 L7.381,42.184 L7.377,40.591 L7.374,38.997 L7.370,37.404 L7.366,35.811 L7.362,34.217 L7.358,32.624 L7.354,31.031 L7.350,29.437 L7.346,27.844 L7.342,26.251 L7.338,24.657 L7.335,23.064 L7.331,21.471 L7.327,19.877 L7.323,18.284 L7.319,16.691 L7.315,15.097 L7.311,13.504 L7.307,11.911 L7.303,10.317 L7.300,8.724 L7.296,7.130 L7.292,5.537 L7.288,3.944 L7.284,2.350 L7.286,3.050 L7.284,2.350 L7.286,3.050 L7.284,2.350 M7.436,52.359 L7.441,51.659 L7.436,52.359 L7.441,51.659 L7.436,52.359 L7.447,50.779 L7.457,49.199 L7.468,47.619 L7.479,46.039 L7.489,44.459 L7.500,42.879 L7.511,41.300 L7.521,39.720 L7.532,38.140 L7.543,36.560 L7.553,34.980 L7.564,33.400 L7.575,31.820 L7.585,30.240 L7.596,28.660 L7.607,27.081 L7.617,25.501 L7.628,23.921 L7.639,22.341 L7.650,20.761 L7.660,19.181 L7.671,17.601 L7.682,16.021 L7.692,14.442 L7.703,12.862 L7.714,11.282 L7.724,9.702 L7.735,8.122 L7.746,6.542 L7.756,4.962 L7.767,3.382 L7.778,1.802 L7.773,2.502 L7.778,1.802 L7.773,2.502 L7.778,1.802 M7.594,52.891 L7.608,52.191 L7.594,52.891 L7.608,52.191 L7.594,52.891 L7.625,51.338 L7.656,49.786 L7.688,48.234 L7.719,46.682 L7.750,45.130 L7.781,43.578 L7.813,42.026 L7.844,40.474 L7.875,38.922 L7.906,37.370 L7.937,35.818 L7.969,34.266 L8.000,32.713 L8.031,31.161 L8.062,29.609 L8.093,28.057 L8.125,26.505 L8.156,24.953 L8.187,23.401 L8.218,21.849 L8.249,20.297 L8.281,18.745 L8.312,17.193 L8.343,15.641 L8.374,14.088 L8.405,12.536 L8.437,10.984 L8.468,9.432 L8.499,7.880 L8.530,6.328 L8.561,4.776 L8.593,3.224 L8.624,1.672 L8.610,2.372 L8.624,1.672 L8.610,2.372 L8.624,1.672 M7.939,53.267 L7.962,52.567 L7.939,53.267 L7.962,52.567 L7.939,53.267 L7.991,51.708 L8.044,50.149 L8.096,48.591 L8.149,47.032 L8.201,45.473 L8.254,43.915 L8.306,42.356 L8.359,40.797 L8.411,39.238 L8.464,37.680 L8.516,36.121 L8.569,34.562 L8.621,33.004 L8.674,31.445 L8.726,29.886 L8.779,28.328 L8.831,26.769 L8.884,25.210 L8.937,23.652 L8.989,22.093 L9.042,20.534 L9.094,18.976 L9.147,17.417 L9.199,15.858 L9.252,14.300 L9.304,12.741 L9.357,11.182 L9.409,9.624 L9.462,8.065 L9.514,6.506 L9.567,4.948 L9.619,3.389 L9.672,1.830 L9.648,2.530 L9.672,1.830 L9.648,2.530 L9.672,1.830 M8.483,53.455 L8.513,52.755 L8.483,53.455 L8.513,52.755 L8.483,53.455 L8.551,51.898 L8.620,50.342 L8.689,48.785 L8.757,47.228 L8.826,45.672 L8.895,44.115 L8.963,42.559 L9.032,41.002 L9.101,39.445 L9.170,37.889 L9.238,36.332 L9.307,34.776 L9.376,33.219 L9.444,31.662 L9.513,30.106 L9.582,28.549 L9.650,26.993 L9.719,25.436 L9.788,23.880 L9.857,22.323 L9.925,20.766 L9.994,19.210 L10.063,17.653 L10.131,16.097 L10.200,14.540 L10.269,12.983 L10.338,11.427 L10.406,9.870 L10.475,8.314 L10.544,6.757 L10.612,5.200 L10.681,3.644 L10.750,2.087 L10.719,2.787 L10.750,2.087 L10.719,2.787 L10.750,2.087 M9.187,53.477 L9.221,52.778 L9.187,53.477 L9.221,52.778 L9.187,53.477 L9.264,51.926 L9.341,50.374 L9.418,48.822 L9.495,47.271 L9.572,45.719 L9.649,44.167 L9.726,42.616 L9.803,41.064 L9.880,39.512 L9.957,37.960 L10.034,36.409 L10.111,34.857 L10.189,33.305 L10.266,31.754 L10.343,30.202 L10.420,28.650 L10.497,27.098 L10.574,25.547 L10.651,23.995 L10.728,22.443 L10.805,20.892 L10.882,19.340 L10.959,17.788 L11.036,16.237 L11.113,14.685 L11.190,13.133 L11.267,11.581 L11.344,10.030 L11.421,8.478 L11.498,6.926 L11.576,5.375 L11.653,3.823 L11.730,2.271 L11.695,2.970 L11.730,2.271 L11.695,2.970 L11.730,2.271 M9.993,53.386 L10.028,52.687 L9.993,53.386 L10.028,52.687 L9.993,53.386 L10.073,51.789 L10.153,50.191 L10.233,48.594 L10.313,46.997 L10.393,45.400 L10.473,43.803 L10.553,42.205 L10.633,40.608 L10.713,39.011 L10.793,37.414 L10.873,35.816 L10.953,34.219 L11.033,32.622 L11.113,31.025 L11.193,29.427 L11.273,27.830 L11.353,26.233 L11.433,24.636 L11.513,23.038 L11.593,21.441 L11.673,19.844 L11.753,18.247 L11.833,16.650 L11.913,15.052 L11.993,13.455 L12.073,11.858 L12.153,10.261 L12.233,8.663 L12.313,7.066 L12.393,5.469 L12.473,3.872 L12.553,2.274 L12.518,2.974 L12.553,2.274 L12.518,2.974 L12.553,2.274 M10.872,53.207 L10.904,52.507 L10.872,53.207 L10.904,52.507 L10.872,53.207 L10.946,51.609 L11.020,50.011 L11.094,48.414 L11.168,46.816 L11.242,45.218 L11.315,43.621 L11.389,42.023 L11.463,40.425 L11.537,38.828 L11.611,37.230 L11.685,35.633 L11.759,34.035 L11.833,32.437 L11.907,30.840 L11.981,29.242 L12.054,27.644 L12.128,26.047 L12.202,24.449 L12.276,22.851 L12.350,21.254 L12.424,19.656 L12.498,18.058 L12.572,16.461 L12.646,14.863 L12.719,13.265 L12.793,11.668 L12.867,10.070 L12.941,8.472 L13.015,6.875 L13.089,5.277 L13.163,3.679 L13.237,2.082 L13.204,2.781 L13.237,2.082 L13.204,2.781 L13.237,2.082 M11.808,52.953 L11.836,52.253 L11.808,52.953 L11.836,52.253 L11.808,52.953 L11.870,51.402 L11.933,49.852 L11.995,48.301 L12.058,46.750 L12.120,45.200 L12.183,43.649 L12.245,42.099 L12.308,40.548 L12.370,38.997 L12.433,37.447 L12.495,35.896 L12.558,34.346 L12.620,32.795 L12.682,31.245 L12.745,29.694 L12.807,28.143 L12.870,26.593 L12.932,25.042 L12.995,23.492 L13.057,21.941 L13.120,20.390 L13.182,18.840 L13.245,17.289 L13.307,15.739 L13.370,14.188 L13.432,12.637 L13.495,11.087 L13.557,9.536 L13.620,7.986 L13.682,6.435 L13.745,4.884 L13.807,3.334 L13.870,1.783 L13.842,2.483 L13.870,1.783 L13.842,2.483 L13.870,1.783 M12.783,52.639 L12.807,51.940 L12.783,52.639 L12.807,51.940 L12.783,52.639 L12.839,51.042 L12.895,49.445 L12.951,47.848 L13.006,46.251 L13.062,44.654 L13.118,43.057 L13.174,41.460 L13.230,39.863 L13.286,38.267 L13.342,36.670 L13.398,35.073 L13.454,33.476 L13.509,31.879 L13.565,30.282 L13.621,28.685 L13.677,27.088 L13.733,25.491 L13.789,23.894 L13.845,22.297 L13.901,20.700 L13.957,19.103 L14.013,17.506 L14.068,15.909 L14.124,14.312 L14.180,12.715 L14.236,11.118 L14.292,9.521 L14.348,7.924 L14.404,6.327 L14.460,4.730 L14.516,3.133 L14.571,1.536 L14.547,2.236 L14.571,1.536 L14.547,2.236 L14.571,1.536 M13.778,52.287 L13.800,51.588 L13.778,52.287 L13.800,51.588 L13.778,52.287 L13.829,50.698 L13.879,49.109 L13.930,47.521 L13.981,45.932 L14.032,44.343 L14.083,42.754 L14.134,41.165 L14.185,39.576 L14.236,37.987 L14.286,36.398 L14.337,34.809 L14.388,33.220 L14.439,31.632 L14.490,30.043 L14.541,28.454 L14.592,26.865 L14.643,25.276 L14.694,23.687 L14.744,22.098 L14.795,20.509 L14.846,18.920 L14.897,17.331 L14.948,15.742 L14.999,14.154 L15.050,12.565 L15.101,10.976 L15.152,9.387 L15.202,7.798 L15.253,6.209 L15.304,4.620 L15.355,3.031 L15.406,1.442 L15.384,2.142 L15.406,1.442 L15.384,2.142 L15.406,1.442 M14.768,51.926 L14.790,51.227 L14.768,51.926 L14.790,51.227 L14.768,51.926 L14.818,50.351 L14.868,48.776 L14.918,47.200 L14.968,45.625 L15.018,44.050 L15.068,42.474 L15.118,40.899 L15.168,39.324 L15.218,37.748 L15.268,36.173 L15.318,34.598 L15.368,33.022 L15.418,31.447 L15.468,29.872 L15.519,28.296 L15.569,26.721 L15.619,25.146 L15.669,23.570 L15.719,21.995 L15.769,20.420 L15.819,18.844 L15.869,17.269 L15.919,15.694 L15.969,14.118 L16.019,12.543 L16.069,10.968 L16.119,9.393 L16.169,7.817 L16.219,6.242 L16.270,4.667 L16.320,3.091 L16.370,1.516 L16.347,2.216 L16.370,1.516 L16.347,2.216 L16.370,1.516 M15.726,51.591 L15.750,50.891 L15.726,51.591 L15.750,50.891 L15.726,51.591 L15.779,50.031 L15.832,48.472 L15.884,46.913 L15.937,45.354 L15.989,43.795 L16.042,42.236 L16.095,40.676 L16.147,39.117 L16.200,37.558 L16.252,35.999 L16.305,34.440 L16.357,32.880 L16.410,31.321 L16.463,29.762 L16.515,28.203 L16.568,26.644 L16.620,25.085 L16.673,23.525 L16.726,21.966 L16.778,20.407 L16.831,18.848 L16.883,17.289 L16.936,15.730 L16.989,14.170 L17.041,12.611 L17.094,11.052 L17.146,9.493 L17.199,7.934 L17.251,6.375 L17.304,4.815 L17.357,3.256 L17.409,1.697 L17.386,2.397 L17.409,1.697 L17.386,2.397 L17.409,1.697 M16.623,51.314 L16.649,50.614 L16.623,51.314 L16.649,50.614 L16.623,51.314 L16.682,49.719 L16.742,48.125 L16.801,46.531 L16.860,44.936 L16.919,43.342 L16.978,41.748 L17.037,40.154 L17.096,38.559 L17.155,36.965 L17.214,35.371 L17.274,33.777 L17.333,32.182 L17.392,30.588 L17.451,28.994 L17.510,27.400 L17.569,25.805 L17.628,24.211 L17.687,22.617 L17.746,21.023 L17.806,19.428 L17.865,17.834 L17.924,16.240 L17.983,14.646 L18.042,13.051 L18.101,11.457 L18.160,9.863 L18.219,8.268 L18.278,6.674 L18.338,5.080 L18.397,3.486 L18.456,1.891 L18.430,2.591 L18.456,1.891 L18.430,2.591 L18.456,1.891 M17.436,51.110 L17.465,50.411 L17.436,51.110 L17.465,50.411 L17.436,51.110 L17.501,49.526 L17.566,47.943 L17.631,46.359 L17.696,44.775 L17.761,43.191 L17.826,41.607 L17.891,40.024 L17.957,38.440 L18.022,36.856 L18.087,35.272 L18.152,33.689 L18.217,32.105 L18.282,30.521 L18.347,28.937 L18.412,27.353 L18.477,25.770 L18.542,24.186 L18.607,22.602 L18.672,21.018 L18.737,19.434 L18.802,17.851 L18.867,16.267 L18.932,14.683 L18.997,13.099 L19.063,11.516 L19.128,9.932 L19.193,8.348 L19.258,6.764 L19.323,5.180 L19.388,3.597 L19.453,2.013 L19.424,2.712 L19.453,2.013 L19.424,2.712 L19.453,2.013 M18.162,50.970 L18.193,50.271 L18.162,50.970 L18.193,50.271 L18.162,50.970 L18.233,49.390 L18.304,47.810 L18.375,46.230 L18.446,44.650 L18.517,43.071 L18.588,41.491 L18.659,39.911 L18.729,38.331 L18.800,36.751 L18.871,35.171 L18.942,33.591 L19.013,32.011 L19.084,30.432 L19.155,28.852 L19.226,27.272 L19.297,25.692 L19.368,24.112 L19.439,22.532 L19.510,20.952 L19.581,19.372 L19.652,17.793 L19.723,16.213 L19.794,14.633 L19.865,13.053 L19.936,11.473 L20.007,9.893 L20.078,8.313 L20.149,6.733 L20.220,5.154 L20.291,3.574 L20.362,1.994 L20.330,2.693 L20.362,1.994 L20.330,2.693 L20.362,1.994 M18.810,50.872 L18.844,50.173 L18.810,50.872 L18.844,50.173 L18.810,50.872 L18.887,49.290 L18.963,47.709 L19.040,46.127 L19.116,44.546 L19.193,42.964 L19.269,41.383 L19.346,39.801 L19.423,38.220 L19.499,36.638 L19.576,35.057 L19.652,33.475 L19.729,31.894 L19.805,30.312 L19.882,28.731 L19.959,27.149 L20.035,25.568 L20.112,23.986 L20.188,22.404 L20.265,20.823 L20.341,19.241 L20.418,17.660 L20.494,16.078 L20.571,14.497 L20.648,12.915 L20.724,11.334 L20.801,9.752 L20.877,8.171 L20.954,6.589 L21.030,5.008 L21.107,3.426 L21.184,1.845 L21.150,2.544 L21.184,1.845 L21.150,2.544 L21.184,1.845 M19.393,50.805 L19.430,50.106 L19.393,50.805 L19.430,50.106 L19.393,50.805 L19.476,49.220 L19.558,47.635 L19.641,46.049 L19.723,44.464 L19.806,42.879 L19.888,41.293 L19.970,39.708 L20.053,38.123 L20.135,36.537 L20.218,34.952 L20.300,33.367 L20.383,31.781 L20.465,30.196 L20.547,28.610 L20.630,27.025 L20.712,25.440 L20.795,23.854 L20.877,22.269 L20.960,20.684 L21.042,19.098 L21.124,17.513 L21.207,15.928 L21.289,14.342 L21.372,12.757 L21.454,11.171 L21.537,9.586 L21.619,8.001 L21.701,6.415 L21.784,4.830 L21.866,3.245 L21.949,1.659 L21.912,2.358 L21.949,1.659 L21.912,2.358 L21.949,1.659 M19.929,50.768 L19.968,50.069 L19.929,50.768 L19.968,50.069 L19.929,50.768 L20.018,49.180 L20.107,47.592 L20.195,46.004 L20.284,44.416 L20.373,42.828 L20.462,41.241 L20.551,39.653 L20.640,38.065 L20.729,36.477 L20.818,34.889 L20.907,33.301 L20.995,31.714 L21.084,30.126 L21.173,28.538 L21.262,26.950 L21.351,25.362 L21.440,23.774 L21.529,22.186 L21.618,20.599 L21.707,19.011 L21.795,17.423 L21.884,15.835 L21.973,14.247 L22.062,12.659 L22.151,11.071 L22.240,9.484 L22.329,7.896 L22.418,6.308 L22.507,4.720 L22.595,3.132 L22.684,1.544 L22.645,2.243 L22.684,1.544 L22.645,2.243 L22.684,1.544 M20.438,50.757 L20.480,50.058 L20.438,50.757 L20.480,50.058 L20.438,50.757 L20.534,49.170 L20.629,47.583 L20.725,45.996 L20.820,44.409 L20.916,42.822 L21.011,41.235 L21.107,39.648 L21.203,38.061 L21.298,36.474 L21.394,34.887 L21.489,33.300 L21.585,31.713 L21.680,30.126 L21.776,28.539 L21.871,26.952 L21.967,25.365 L22.063,23.778 L22.158,22.191 L22.254,20.604 L22.349,19.017 L22.445,17.430 L22.540,15.843 L22.636,14.256 L22.732,12.669 L22.827,11.082 L22.923,9.495 L23.018,7.908 L23.114,6.321 L23.209,4.734 L23.305,3.147 L23.401,1.560 L23.358,2.259 L23.401,1.560 L23.358,2.259 L23.401,1.560 M20.946,50.774 L20.991,50.075 L20.946,50.774 L20.991,50.075 L20.946,50.774 L21.048,49.191 L21.150,47.609 L21.251,46.026 L21.353,44.444 L21.455,42.861 L21.557,41.279 L21.658,39.696 L21.760,38.114 L21.862,36.531 L21.964,34.949 L22.066,33.366 L22.167,31.784 L22.269,30.201 L22.371,28.619 L22.473,27.036 L22.575,25.453 L22.676,23.871 L22.778,22.288 L22.880,20.706 L22.982,19.123 L23.084,17.541 L23.185,15.958 L23.287,14.376 L23.389,12.793 L23.491,11.211 L23.593,9.628 L23.694,8.046 L23.796,6.463 L23.898,4.881 L24.000,3.298 L24.101,1.716 L24.057,2.414 L24.101,1.716 L24.057,2.414 L24.101,1.716 M21.476,50.821 L21.524,50.123 L21.476,50.821 L21.524,50.123 L21.476,50.821 L21.583,49.246 L21.691,47.671 L21.798,46.096 L21.905,44.521 L22.013,42.946 L22.120,41.370 L22.227,39.795 L22.335,38.220 L22.442,36.645 L22.549,35.070 L22.656,33.494 L22.764,31.919 L22.871,30.344 L22.978,28.769 L23.086,27.194 L23.193,25.619 L23.300,24.043 L23.408,22.468 L23.515,20.893 L23.622,19.318 L23.730,17.743 L23.837,16.168 L23.944,14.592 L24.052,13.017 L24.159,11.442 L24.266,9.867 L24.373,8.292 L24.481,6.717 L24.588,5.141 L24.695,3.566 L24.803,1.991 L24.755,2.689 L24.803,1.991 L24.755,2.689 L24.803,1.991 M22.052,50.897 L22.102,50.199 L22.052,50.897 L22.102,50.199 L22.052,50.897 L22.164,49.331 L22.276,47.765 L22.388,46.198 L22.500,44.632 L22.612,43.066 L22.724,41.499 L22.836,39.933 L22.948,38.367 L23.060,36.800 L23.171,35.234 L23.283,33.668 L23.395,32.101 L23.507,30.535 L23.619,28.969 L23.731,27.402 L23.843,25.836 L23.955,24.270 L24.067,22.703 L24.179,21.137 L24.291,19.571 L24.403,18.004 L24.515,16.438 L24.627,14.871 L24.739,13.305 L24.851,11.739 L24.962,10.172 L25.074,8.606 L25.186,7.040 L25.298,5.473 L25.410,3.907 L25.522,2.341 L25.472,3.039 L25.522,2.341 L25.472,3.039 L25.522,2.341 M22.712,50.947 L22.763,50.249 L22.712,50.947 L22.763,50.249 L22.712,50.947 L22.826,49.390 L22.941,47.833 L23.056,46.276 L23.170,44.718 L23.285,43.161 L23.400,41.604 L23.514,40.047 L23.629,38.489 L23.744,36.932 L23.858,35.375 L23.973,33.818 L24.088,32.261 L24.202,30.703 L24.317,29.146 L24.432,27.589 L24.546,26.032 L24.661,24.474 L24.776,22.917 L24.891,21.360 L25.005,19.803 L25.120,18.246 L25.235,16.688 L25.349,15.131 L25.464,13.574 L25.579,12.017 L25.693,10.459 L25.808,8.902 L25.923,7.345 L26.037,5.788 L26.152,4.230 L26.267,2.673 L26.215,3.371 L26.267,2.673 L26.215,3.371 L26.267,2.673 M23.498,50.858 L23.550,50.160 L23.498,50.858 L23.550,50.160 L23.498,50.858 L23.612,49.310 L23.726,47.761 L23.840,46.213 L23.954,44.664 L24.068,43.116 L24.182,41.567 L24.296,40.018 L24.410,38.470 L24.524,36.921 L24.638,35.373 L24.752,33.824 L24.866,32.276 L24.980,30.727 L25.094,29.179 L25.208,27.630 L25.322,26.082 L25.436,24.533 L25.550,22.985 L25.665,21.436 L25.779,19.888 L25.893,18.339 L26.007,16.791 L26.121,15.242 L26.235,13.694 L26.349,12.145 L26.463,10.597 L26.577,9.048 L26.691,7.500 L26.805,5.951 L26.919,4.403 L27.033,2.854 L26.981,3.552 L27.033,2.854 L26.981,3.552 L27.033,2.854 M24.424,50.540 L24.474,49.842 L24.424,50.540 L24.474,49.842 L24.424,50.540 L24.537,48.948 L24.650,47.355 L24.764,45.762 L24.877,44.169 L24.990,42.576 L25.103,40.984 L25.216,39.391 L25.330,37.798 L25.443,36.205 L25.556,34.612 L25.669,33.020 L25.783,31.427 L25.896,29.834 L26.009,28.241 L26.122,26.648 L26.235,25.056 L26.349,23.463 L26.462,21.870 L26.575,20.277 L26.688,18.684 L26.801,17.092 L26.915,15.499 L27.028,13.906 L27.141,12.313 L27.254,10.720 L27.368,9.128 L27.481,7.535 L27.594,5.942 L27.707,4.349 L27.820,2.756 L27.771,3.455 L27.820,2.756 L27.771,3.455 L27.820,2.756 M25.438,50.053 L25.485,49.355 L25.438,50.053 L25.485,49.355 L25.438,50.053 L25.545,48.464 L25.652,46.875 L25.759,45.285 L25.866,43.696 L25.973,42.107 L26.080,40.517 L26.187,38.928 L26.294,37.339 L26.401,35.749 L26.508,34.160 L26.615,32.571 L26.722,30.981 L26.829,29.392 L26.936,27.802 L27.043,26.213 L27.150,24.624 L27.257,23.034 L27.364,21.445 L27.471,19.856 L27.578,18.266 L27.685,16.677 L27.792,15.088 L27.899,13.498 L28.006,11.909 L28.113,10.320 L28.220,8.730 L28.327,7.141 L28.434,5.552 L28.541,3.962 L28.648,2.373 L28.601,3.071 L28.648,2.373 L28.601,3.071 L28.648,2.373 M26.447,49.657 L26.492,48.958 L26.447,49.657 L26.492,48.958 L26.447,49.657 L26.550,48.065 L26.653,46.474 L26.756,44.882 L26.859,43.290 L26.962,41.699 L27.065,40.107 L27.168,38.516 L27.271,36.924 L27.374,35.333 L27.477,33.741 L27.580,32.149 L27.683,30.558 L27.786,28.966 L27.889,27.375 L27.992,25.783 L28.095,24.192 L28.198,22.600 L28.301,21.008 L28.404,19.417 L28.507,17.825 L28.610,16.234 L28.713,14.642 L28.816,13.051 L28.919,11.459 L29.022,9.867 L29.125,8.276 L29.228,6.684 L29.331,5.093 L29.434,3.501 L29.537,1.910 L29.492,2.608 L29.537,1.910 L29.492,2.608 L29.537,1.910 M27.380,49.685 L27.425,48.987 L27.380,49.685 L27.425,48.987 L27.380,49.685 L27.480,48.138 L27.580,46.590 L27.680,45.043 L27.780,43.495 L27.880,41.947 L27.980,40.400 L28.080,38.852 L28.179,37.305 L28.279,35.757 L28.379,34.209 L28.479,32.662 L28.579,31.114 L28.679,29.566 L28.779,28.019 L28.879,26.471 L28.978,24.924 L29.078,23.376 L29.178,21.828 L29.278,20.281 L29.378,18.733 L29.478,17.186 L29.578,15.638 L29.678,14.090 L29.778,12.543 L29.877,10.995 L29.977,9.448 L30.077,7.900 L30.177,6.352 L30.277,4.805 L30.377,3.257 L30.477,1.710 L30.432,2.408 L30.477,1.710 L30.432,2.408 L30.477,1.710 M28.246,50.310 L28.292,49.611 L28.246,50.310 L28.292,49.611 L28.246,50.310 L28.348,48.751 L28.450,47.193 L28.551,45.634 L28.653,44.075 L28.755,42.517 L28.856,40.958 L28.958,39.400 L29.060,37.841 L29.161,36.283 L29.263,34.724 L29.365,33.166 L29.467,31.607 L29.568,30.048 L29.670,28.490 L29.772,26.931 L29.873,25.373 L29.975,23.814 L30.077,22.256 L30.178,20.697 L30.280,19.139 L30.382,17.580 L30.484,16.021 L30.585,14.463 L30.687,12.904 L30.789,11.346 L30.890,9.787 L30.992,8.229 L31.094,6.670 L31.195,5.112 L31.297,3.553 L31.399,1.994 L31.353,2.693 L31.399,1.994 L31.353,2.693 L31.399,1.994 M29.105,51.374 L29.150,50.675 L29.105,51.374 L29.150,50.675 L29.105,51.374 L29.206,49.803 L29.306,48.232 L29.407,46.661 L29.507,45.090 L29.608,43.519 L29.708,41.948 L29.809,40.378 L29.909,38.807 L30.010,37.236 L30.111,35.665 L30.211,34.094 L30.312,32.523 L30.412,30.952 L30.513,29.381 L30.613,27.810 L30.714,26.239 L30.814,24.668 L30.915,23.097 L31.015,21.527 L31.116,19.956 L31.216,18.385 L31.317,16.814 L31.418,15.243 L31.518,13.672 L31.619,12.101 L31.719,10.530 L31.820,8.959 L31.920,7.388 L32.021,5.817 L32.121,4.246 L32.222,2.676 L32.177,3.374 L32.222,2.676 L32.177,3.374 L32.222,2.676 M29.992,52.476 L30.033,51.777 L29.992,52.476 L30.033,51.777 L29.992,52.476 L30.086,50.896 L30.180,49.315 L30.274,47.735 L30.368,46.155 L30.462,44.575 L30.555,42.994 L30.649,41.414 L30.743,39.834 L30.837,38.254 L30.931,36.673 L31.025,35.093 L31.119,33.513 L31.213,31.933 L31.307,30.353 L31.401,28.772 L31.495,27.192 L31.589,25.612 L31.683,24.032 L31.777,22.451 L31.871,20.871 L31.965,19.291 L32.059,17.711 L32.153,16.130 L32.247,14.550 L32.341,12.970 L32.434,11.390 L32.528,9.809 L32.622,8.229 L32.716,6.649 L32.810,5.069 L32.904,3.488 L32.863,4.187 L32.904,3.488 L32.863,4.187 L32.904,3.488 M30.875,53.215 L30.911,52.516 L30.875,53.215 L30.911,52.516 L30.875,53.215 L30.958,51.634 L31.041,50.054 L31.124,48.473 L31.207,46.892 L31.290,45.312 L31.373,43.731 L31.456,42.150 L31.539,40.570 L31.622,38.989 L31.706,37.409 L31.789,35.828 L31.872,34.247 L31.955,32.667 L32.038,31.086 L32.121,29.505 L32.204,27.925 L32.287,26.344 L32.370,24.764 L32.453,23.183 L32.537,21.602 L32.620,20.022 L32.703,18.441 L32.786,16.860 L32.869,15.280 L32.952,13.699 L33.035,12.119 L33.118,10.538 L33.201,8.957 L33.284,7.377 L33.368,5.796 L33.451,4.216 L33.414,4.915 L33.451,4.216 L33.414,4.915 L33.451,4.216 M31.683,53.429 L31.715,52.730 L31.683,53.429 L31.715,52.730 L31.683,53.429 L31.754,51.859 L31.825,50.290 L31.896,48.720 L31.968,47.150 L32.039,45.581 L32.110,44.011 L32.181,42.442 L32.252,40.872 L32.323,39.302 L32.394,37.733 L32.466,36.163 L32.537,34.594 L32.608,33.024 L32.679,31.454 L32.750,29.885 L32.821,28.315 L32.892,26.746 L32.963,25.176 L33.035,23.606 L33.106,22.037 L33.177,20.467 L33.248,18.898 L33.319,17.328 L33.390,15.758 L33.461,14.189 L33.533,12.619 L33.604,11.050 L33.675,9.480 L33.746,7.910 L33.817,6.341 L33.888,4.771 L33.857,5.470 L33.888,4.771 L33.857,5.470 L33.888,4.771 M32.364,53.234 L32.392,52.535 L32.364,53.234 L32.392,52.535 L32.364,53.234 L32.425,51.683 L32.486,50.133 L32.546,48.582 L32.607,47.031 L32.668,45.480 L32.729,43.929 L32.790,42.378 L32.850,40.828 L32.911,39.277 L32.972,37.726 L33.033,36.175 L33.093,34.624 L33.154,33.073 L33.215,31.523 L33.276,29.972 L33.336,28.421 L33.397,26.870 L33.458,25.319 L33.519,23.769 L33.579,22.218 L33.640,20.667 L33.701,19.116 L33.762,17.565 L33.822,16.014 L33.883,14.464 L33.944,12.913 L34.005,11.362 L34.066,9.811 L34.126,8.260 L34.187,6.709 L34.248,5.159 L34.220,5.858 L34.248,5.159 L34.220,5.858 L34.248,5.159 M32.901,52.816 L32.926,52.116 L32.901,52.816 L32.926,52.116 L32.901,52.816 L32.957,51.236 L33.012,49.657 L33.067,48.077 L33.122,46.497 L33.177,44.917 L33.233,43.338 L33.288,41.758 L33.343,40.178 L33.398,38.598 L33.454,37.019 L33.509,35.439 L33.564,33.859 L33.619,32.279 L33.674,30.700 L33.730,29.120 L33.785,27.540 L33.840,25.960 L33.895,24.381 L33.951,22.801 L34.006,21.221 L34.061,19.641 L34.116,18.062 L34.171,16.482 L34.227,14.902 L34.282,13.322 L34.337,11.743 L34.392,10.163 L34.448,8.583 L34.503,7.004 L34.558,5.424 L34.534,6.123 L34.558,5.424 L34.534,6.123 L34.558,5.424 M33.308,52.331 L33.332,51.631 L33.308,52.331 L33.332,51.631 L33.308,52.331 L33.360,50.773 L33.411,49.216 L33.462,47.659 L33.513,46.102 L33.565,44.544 L33.616,42.987 L33.667,41.430 L33.718,39.873 L33.770,38.315 L33.821,36.758 L33.872,35.201 L33.923,33.644 L33.975,32.086 L34.026,30.529 L34.077,28.972 L34.128,27.415 L34.180,25.857 L34.231,24.300 L34.282,22.743 L34.333,21.186 L34.385,19.629 L34.436,18.071 L34.487,16.514 L34.538,14.957 L34.590,13.400 L34.641,11.842 L34.692,10.285 L34.743,8.728 L34.795,7.171 L34.846,5.613 L34.823,6.313 L34.846,5.613 L34.823,6.313 L34.846,5.613 M33.619,51.862 L33.642,51.163 L33.619,51.862 L33.642,51.163 L33.619,51.862 L33.671,50.272 L33.724,48.683 L33.776,47.093 L33.828,45.503 L33.881,43.913 L33.933,42.323 L33.986,40.733 L34.038,39.143 L34.090,37.554 L34.143,35.964 L34.195,34.374 L34.247,32.784 L34.300,31.194 L34.352,29.604 L34.404,28.015 L34.457,26.425 L34.509,24.835 L34.561,23.245 L34.614,21.655 L34.666,20.065 L34.718,18.475 L34.771,16.886 L34.823,15.296 L34.875,13.706 L34.928,12.116 L34.980,10.526 L35.032,8.936 L35.085,7.346 L35.137,5.757 L35.114,6.456 L35.137,5.757 L35.114,6.456 L35.137,5.757 M33.874,51.422 L33.898,50.722 L33.874,51.422 L33.898,50.722 L33.874,51.422 L33.928,49.851 L33.983,48.280 L34.037,46.709 L34.092,45.139 L34.146,43.568 L34.201,41.997 L34.255,40.426 L34.310,38.855 L34.364,37.284 L34.419,35.714 L34.474,34.143 L34.528,32.572 L34.583,31.001 L34.637,29.430 L34.692,27.859 L34.746,26.289 L34.801,24.718 L34.855,23.147 L34.910,21.576 L34.964,20.005 L35.019,18.434 L35.074,16.864 L35.128,15.293 L35.183,13.722 L35.237,12.151 L35.292,10.580 L35.346,9.009 L35.401,7.439 L35.455,5.868 L35.431,6.567 L35.455,5.868 L35.431,6.567 L35.455,5.868 M34.111,50.975 L34.138,50.275 L34.111,50.975 L34.138,50.275 L34.111,50.975 L34.170,49.422 L34.229,47.870 L34.288,46.317 L34.347,44.764 L34.406,43.212 L34.465,41.659 L34.524,40.107 L34.584,38.554 L34.643,37.002 L34.702,35.449 L34.761,33.896 L34.820,32.344 L34.879,30.791 L34.938,29.239 L34.997,27.686 L35.056,26.134 L35.115,24.581 L35.174,23.028 L35.233,21.476 L35.292,19.923 L35.351,18.371 L35.410,16.818 L35.469,15.265 L35.528,13.713 L35.587,12.160 L35.646,10.608 L35.705,9.055 L35.764,7.503 L35.823,5.950 L35.796,6.650 L35.823,5.950 L35.796,6.650 L35.823,5.950 M34.367,50.476 L34.397,49.776 L34.367,50.476 L34.397,49.776 L34.367,50.476 L34.435,48.887 L34.502,47.299 L34.569,45.710 L34.636,44.122 L34.703,42.534 L34.771,40.945 L34.838,39.357 L34.905,37.768 L34.972,36.180 L35.040,34.592 L35.107,33.003 L35.174,31.415 L35.241,29.826 L35.308,28.238 L35.376,26.649 L35.443,25.061 L35.510,23.473 L35.577,21.884 L35.645,20.296 L35.712,18.707 L35.779,17.119 L35.846,15.530 L35.913,13.942 L35.981,12.354 L36.048,10.765 L36.115,9.177 L36.182,7.588 L36.250,6.000 L36.220,6.699 L36.250,6.000 L36.220,6.699 L36.250,6.000 M34.669,49.906 L34.702,49.207 L34.669,49.906 L34.702,49.207 L34.669,49.906 L34.743,48.338 L34.816,46.771 L34.890,45.203 L34.964,43.635 L35.038,42.068 L35.111,40.500 L35.185,38.933 L35.259,37.365 L35.333,35.797 L35.406,34.230 L35.480,32.662 L35.554,31.094 L35.628,29.527 L35.701,27.959 L35.775,26.391 L35.849,24.824 L35.923,23.256 L35.997,21.689 L36.070,20.121 L36.144,18.553 L36.218,16.986 L36.292,15.418 L36.365,13.850 L36.439,12.283 L36.513,10.715 L36.587,9.147 L36.660,7.580 L36.734,6.012 L36.701,6.711 L36.734,6.012 L36.701,6.711 L36.734,6.012 M35.039,49.315 L35.075,48.616 L35.039,49.315 L35.075,48.616 L35.039,49.315 L35.119,47.767 L35.199,46.220 L35.278,44.672 L35.358,43.124 L35.438,41.577 L35.517,40.029 L35.597,38.481 L35.677,36.934 L35.757,35.386 L35.836,33.838 L35.916,32.291 L35.996,30.743 L36.075,29.195 L36.155,27.648 L36.235,26.100 L36.314,24.552 L36.394,23.005 L36.474,21.457 L36.554,19.910 L36.633,18.362 L36.713,16.814 L36.793,15.267 L36.872,13.719 L36.952,12.171 L37.032,10.624 L37.112,9.076 L37.191,7.528 L37.271,5.981 L37.235,6.680 L37.271,5.981 L37.235,6.680 L37.271,5.981 M35.508,48.843 L35.546,48.144 L35.508,48.843 L35.546,48.144 L35.508,48.843 L35.595,47.252 L35.682,45.662 L35.769,44.071 L35.856,42.480 L35.943,40.889 L36.030,39.299 L36.117,37.708 L36.204,36.117 L36.291,34.526 L36.378,32.936 L36.465,31.345 L36.552,29.754 L36.639,28.164 L36.726,26.573 L36.813,24.982 L36.900,23.391 L36.987,21.801 L37.074,20.210 L37.161,18.619 L37.248,17.028 L37.335,15.438 L37.422,13.847 L37.509,12.256 L37.596,10.666 L37.683,9.075 L37.770,7.484 L37.857,5.893 L37.819,6.592 L37.857,5.893 L37.819,6.592 L37.857,5.893 M36.116,48.669 L36.155,47.970 L36.116,48.669 L36.155,47.970 L36.116,48.669 L36.204,47.078 L36.293,45.488 L36.381,43.897 L36.469,42.307 L36.557,40.716 L36.646,39.126 L36.734,37.535 L36.822,35.945 L36.910,34.354 L36.999,32.764 L37.087,31.173 L37.175,29.583 L37.263,27.992 L37.352,26.402 L37.440,24.811 L37.528,23.221 L37.616,21.630 L37.705,20.040 L37.793,18.449 L37.881,16.859 L37.970,15.268 L38.058,13.678 L38.146,12.087 L38.234,10.497 L38.323,8.906 L38.411,7.316 L38.499,5.725 L38.460,6.424 L38.499,5.725 L38.460,6.424 L38.499,5.725 M36.894,48.869 L36.931,48.170 L36.894,48.869 L36.931,48.170 L36.894,48.869 L36.976,47.318 L37.059,45.767 L37.142,44.215 L37.225,42.664 L37.308,41.113 L37.391,39.562 L37.473,38.011 L37.556,36.460 L37.639,34.908 L37.722,33.357 L37.805,31.806 L37.888,30.255 L37.970,28.704 L38.053,27.152 L38.136,25.601 L38.219,24.050 L38.302,22.499 L38.385,20.948 L38.468,19.396 L38.550,17.845 L38.633,16.294 L38.716,14.743 L38.799,13.192 L38.882,11.641 L38.965,10.089 L39.047,8.538 L39.130,6.987 L39.213,5.436 L39.176,6.135 L39.213,5.436 L39.176,6.135 L39.213,5.436 M37.843,49.379 L37.878,48.680 L37.843,49.379 L37.878,48.680 L37.843,49.379 L37.921,47.793 L38.000,46.207 L38.078,44.621 L38.156,43.035 L38.234,41.449 L38.312,39.863 L38.390,38.277 L38.468,36.691 L38.546,35.105 L38.624,33.519 L38.702,31.933 L38.781,30.347 L38.859,28.761 L38.937,27.175 L39.015,25.589 L39.093,24.003 L39.171,22.417 L39.249,20.830 L39.327,19.244 L39.405,17.658 L39.484,16.072 L39.562,14.486 L39.640,12.900 L39.718,11.314 L39.796,9.728 L39.874,8.142 L39.952,6.556 L40.030,4.970 L39.996,5.669 L40.030,4.970 L39.996,5.669 L40.030,4.970 M38.925,50.015 L38.957,49.316 L38.925,50.015 L38.957,49.316 L38.925,50.015 L38.997,48.438 L39.068,46.861 L39.139,45.283 L39.210,43.706 L39.281,42.129 L39.353,40.552 L39.424,38.975 L39.495,37.398 L39.566,35.821 L39.637,34.244 L39.708,32.666 L39.780,31.089 L39.851,29.512 L39.922,27.935 L39.993,26.358 L40.064,24.781 L40.136,23.204 L40.207,21.627 L40.278,20.049 L40.349,18.472 L40.420,16.895 L40.491,15.318 L40.563,13.741 L40.634,12.164 L40.705,10.587 L40.776,9.010 L40.847,7.433 L40.919,5.855 L40.990,4.278 L40.958,4.978 L40.990,4.278 L40.958,4.978 L40.990,4.278 M40.029,50.493 L40.060,49.793 L40.029,50.493 L40.060,49.793 L40.029,50.493 L40.098,48.922 L40.168,47.352 L40.237,45.781 L40.306,44.211 L40.376,42.640 L40.445,41.070 L40.514,39.500 L40.584,37.929 L40.653,36.359 L40.722,34.788 L40.792,33.218 L40.861,31.648 L40.930,30.077 L41.000,28.507 L41.069,26.936 L41.138,25.366 L41.208,23.795 L41.277,22.225 L41.346,20.655 L41.416,19.084 L41.485,17.514 L41.554,15.943 L41.624,14.373 L41.693,12.803 L41.762,11.232 L41.832,9.662 L41.901,8.091 L41.970,6.521 L42.040,4.950 L42.109,3.380 L42.078,4.079 L42.109,3.380 L42.078,4.079 L42.109,3.380 M41.031,50.619 L41.065,49.920 L41.031,50.619 L41.065,49.920 L41.031,50.619 L41.106,49.064 L41.181,47.509 L41.256,45.953 L41.331,44.398 L41.406,42.843 L41.481,41.287 L41.556,39.732 L41.631,38.176 L41.706,36.621 L41.781,35.066 L41.856,33.510 L41.931,31.955 L42.006,30.400 L42.081,28.844 L42.156,27.289 L42.231,25.734 L42.306,24.178 L42.381,22.623 L42.456,21.068 L42.531,19.512 L42.606,17.957 L42.681,16.402 L42.756,14.846 L42.831,13.291 L42.906,11.736 L42.981,10.180 L43.056,8.625 L43.131,7.070 L43.206,5.514 L43.281,3.959 L43.356,2.404 L43.323,3.103 L43.356,2.404 L43.323,3.103 L43.356,2.404 M41.872,50.407 L41.912,49.709 L41.872,50.407 L41.912,49.709 L41.872,50.407 L41.962,48.831 L42.052,47.255 L42.142,45.678 L42.232,44.102 L42.321,42.525 L42.411,40.949 L42.501,39.372 L42.591,37.796 L42.681,36.219 L42.771,34.643 L42.860,33.066 L42.950,31.490 L43.040,29.914 L43.130,28.337 L43.220,26.761 L43.310,25.184 L43.399,23.608 L43.489,22.031 L43.579,20.455 L43.669,18.878 L43.759,17.302 L43.849,15.726 L43.938,14.149 L44.028,12.573 L44.118,10.996 L44.208,9.420 L44.298,7.843 L44.388,6.267 L44.477,4.690 L44.567,3.114 L44.657,1.537 L44.617,2.236 L44.657,1.537 L44.617,2.236 L44.657,1.537 M42.578,50.022 L42.625,49.323 L42.578,50.022 L42.625,49.323 L42.578,50.022 L42.685,48.440 L42.792,46.859 L42.899,45.278 L43.006,43.696 L43.113,42.115 L43.220,40.534 L43.327,38.952 L43.434,37.371 L43.541,35.790 L43.648,34.208 L43.755,32.627 L43.862,31.045 L43.970,29.464 L44.077,27.883 L44.184,26.301 L44.291,24.720 L44.398,23.139 L44.505,21.557 L44.612,19.976 L44.719,18.395 L44.826,16.813 L44.933,15.232 L45.040,13.651 L45.147,12.069 L45.254,10.488 L45.361,8.907 L45.469,7.325 L45.576,5.744 L45.683,4.163 L45.790,2.581 L45.897,1.000 L45.850,1.698 L45.897,1.000 L45.850,1.698 L45.897,1.000 M43.228,49.665 L43.281,48.967 L43.228,49.665 L43.281,48.967 L43.228,49.665 L43.347,48.096 L43.466,46.527 L43.585,44.957 L43.705,43.388 L43.824,41.819 L43.943,40.249 L44.062,38.680 L44.181,37.111 L44.301,35.541 L44.420,33.972 L44.539,32.403 L44.658,30.833 L44.777,29.264 L44.897,27.695 L45.016,26.126 L45.135,24.556 L45.254,22.987 L45.373,21.418 L45.493,19.848 L45.612,18.279 L45.731,16.710 L45.850,15.140 L45.969,13.571 L46.089,12.002 L46.208,10.432 L46.327,8.863 L46.446,7.294 L46.565,5.724 L46.685,4.155 L46.804,2.586 L46.923,1.016 L46.870,1.714 L46.923,1.016 L46.870,1.714 L46.923,1.016 M43.907,49.482 L43.960,48.784 L43.907,49.482 L43.960,48.784 L43.907,49.482 L44.029,47.891 L44.151,46.299 L44.274,44.708 L44.396,43.117 L44.518,41.526 L44.641,39.934 L44.763,38.343 L44.886,36.752 L45.008,35.160 L45.130,33.569 L45.253,31.978 L45.375,30.386 L45.497,28.795 L45.620,27.204 L45.742,25.612 L45.865,24.021 L45.987,22.430 L46.109,20.838 L46.232,19.247 L46.354,17.656 L46.476,16.064 L46.599,14.473 L46.721,12.882 L46.844,11.290 L46.966,9.699 L47.088,8.108 L47.211,6.516 L47.333,4.925 L47.455,3.334 L47.578,1.742 L47.524,2.440 L47.578,1.742 L47.524,2.440 L47.578,1.742 M44.654,49.504 L44.702,48.805 L44.654,49.504 L44.702,48.805 L44.654,49.504 L44.760,47.955 L44.867,46.406 L44.974,44.857 L45.080,43.308 L45.187,41.760 L45.293,40.211 L45.400,38.662 L45.506,37.113 L45.613,35.564 L45.719,34.015 L45.826,32.467 L45.933,30.918 L46.039,29.369 L46.146,27.820 L46.252,26.271 L46.359,24.722 L46.465,23.174 L46.572,21.625 L46.678,20.076 L46.785,18.527 L46.892,16.978 L46.998,15.429 L47.105,13.880 L47.211,12.332 L47.318,10.783 L47.424,9.234 L47.531,7.685 L47.637,6.136 L47.744,4.587 L47.851,3.039 L47.802,3.737 L47.851,3.039 L47.802,3.737 L47.851,3.039 M45.469,49.689 L45.508,48.990 L45.469,49.689 L45.508,48.990 L45.469,49.689 L45.556,48.127 L45.644,46.565 L45.731,45.004 L45.818,43.442 L45.905,41.880 L45.993,40.318 L46.080,38.756 L46.167,37.195 L46.254,35.633 L46.342,34.071 L46.429,32.509 L46.516,30.947 L46.603,29.386 L46.691,27.824 L46.778,26.262 L46.865,24.700 L46.953,23.138 L47.040,21.577 L47.127,20.015 L47.214,18.453 L47.302,16.891 L47.389,15.329 L47.476,13.768 L47.563,12.206 L47.651,10.644 L47.738,9.082 L47.825,7.520 L47.912,5.959 L48.000,4.397 L47.961,5.096 L48.000,4.397 L47.961,5.096 L48.000,4.397 M46.346,49.992 L46.378,49.292 L46.346,49.992 L46.378,49.292 L46.346,49.992 L46.419,48.396 L46.491,46.799 L46.564,45.203 L46.637,43.607 L46.709,42.011 L46.782,40.415 L46.855,38.819 L46.928,37.223 L47.000,35.626 L47.073,34.030 L47.146,32.434 L47.218,30.838 L47.291,29.242 L47.364,27.646 L47.436,26.050 L47.509,24.453 L47.582,22.857 L47.655,21.261 L47.727,19.665 L47.800,18.069 L47.873,16.473 L47.945,14.877 L48.018,13.280 L48.091,11.684 L48.163,10.088 L48.236,8.492 L48.309,6.896 L48.382,5.300 L48.350,5.999 L48.382,5.300 L48.350,5.999 L48.382,5.300 M47.312,50.421 L47.340,49.721 L47.312,50.421 L47.340,49.721 L47.312,50.421 L47.376,48.822 L47.440,47.223 L47.504,45.625 L47.568,44.026 L47.632,42.428 L47.696,40.829 L47.760,39.230 L47.824,37.632 L47.888,36.033 L47.952,34.435 L48.016,32.836 L48.080,31.237 L48.144,29.639 L48.207,28.040 L48.271,26.442 L48.335,24.843 L48.399,23.244 L48.463,21.646 L48.527,20.047 L48.591,18.449 L48.655,16.850 L48.719,15.251 L48.783,13.653 L48.847,12.054 L48.911,10.456 L48.975,8.857 L49.038,7.258 L49.102,5.660 L49.074,6.359 L49.102,5.660 L49.074,6.359 L49.102,5.660 M48.412,50.998 L48.437,50.298 L48.412,50.998 L48.437,50.298 L48.412,50.998 L48.468,49.435 L48.524,47.873 L48.580,46.310 L48.636,44.747 L48.692,43.185 L48.747,41.622 L48.803,40.060 L48.859,38.497 L48.915,36.934 L48.971,35.372 L49.027,33.809 L49.083,32.247 L49.139,30.684 L49.195,29.121 L49.251,27.559 L49.307,25.996 L49.363,24.433 L49.419,22.871 L49.475,21.308 L49.531,19.746 L49.586,18.183 L49.642,16.620 L49.698,15.058 L49.754,13.495 L49.810,11.932 L49.866,10.370 L49.922,8.807 L49.978,7.245 L50.034,5.682 L50.009,6.382 L50.034,5.682 L50.009,6.382 L50.034,5.682 M49.659,51.704 L49.682,51.004 L49.659,51.704 L49.682,51.004 L49.659,51.704 L49.710,50.109 L49.760,48.514 L49.810,46.920 L49.861,45.325 L49.911,43.730 L49.961,42.135 L50.012,40.540 L50.062,38.945 L50.112,37.351 L50.163,35.756 L50.213,34.161 L50.263,32.566 L50.314,30.971 L50.364,29.376 L50.414,27.782 L50.465,26.187 L50.515,24.592 L50.565,22.997 L50.616,21.402 L50.666,19.807 L50.716,18.213 L50.767,16.618 L50.817,15.023 L50.867,13.428 L50.918,11.833 L50.968,10.238 L51.018,8.644 L51.069,7.049 L51.119,5.454 L51.097,6.154 L51.119,5.454 L51.097,6.154 L51.119,5.454 M51.022,52.460 L51.041,51.760 L51.022,52.460 L51.041,51.760 L51.022,52.460 L51.065,50.879 L51.108,49.299 L51.151,47.718 L51.194,46.137 L51.237,44.557 L51.279,42.976 L51.322,41.395 L51.365,39.814 L51.408,38.234 L51.451,36.653 L51.494,35.072 L51.537,33.492 L51.580,31.911 L51.623,30.330 L51.665,28.749 L51.708,27.169 L51.751,25.588 L51.794,24.007 L51.837,22.427 L51.880,20.846 L51.923,19.265 L51.966,17.684 L52.009,16.104 L52.051,14.523 L52.094,12.942 L52.137,11.362 L52.180,9.781 L52.223,8.200 L52.266,6.620 L52.309,5.039 L52.290,5.739 L52.309,5.039 L52.290,5.739 L52.309,5.039 M52.402,53.123 L52.418,52.423 L52.402,53.123 L52.418,52.423 L52.402,53.123 L52.438,51.556 L52.474,49.988 L52.509,48.421 L52.545,46.854 L52.581,45.286 L52.617,43.719 L52.652,42.151 L52.688,40.584 L52.724,39.017 L52.760,37.449 L52.795,35.882 L52.831,34.315 L52.867,32.747 L52.903,31.180 L52.938,29.613 L52.974,28.045 L53.010,26.478 L53.046,24.910 L53.081,23.343 L53.117,21.776 L53.153,20.208 L53.189,18.641 L53.224,17.074 L53.260,15.506 L53.296,13.939 L53.332,12.371 L53.367,10.804 L53.403,9.237 L53.439,7.669 L53.475,6.102 L53.510,4.535 L53.494,5.234 L53.510,4.535 L53.494,5.234 L53.510,4.535 M53.639,53.507 L53.653,52.807 L53.639,53.507 L53.653,52.807 L53.639,53.507 L53.671,51.911 L53.703,50.315 L53.734,48.719 L53.766,47.124 L53.798,45.528 L53.829,43.932 L53.861,42.336 L53.893,40.741 L53.924,39.145 L53.956,37.549 L53.988,35.953 L54.019,34.358 L54.051,32.762 L54.083,31.166 L54.114,29.570 L54.146,27.975 L54.177,26.379 L54.209,24.783 L54.241,23.188 L54.272,21.592 L54.304,19.996 L54.336,18.400 L54.367,16.805 L54.399,15.209 L54.431,13.613 L54.462,12.017 L54.494,10.422 L54.526,8.826 L54.557,7.230 L54.589,5.634 L54.621,4.039 L54.607,4.738 L54.621,4.039 L54.607,4.738 L54.621,4.039 M54.555,53.442 L54.570,52.742 L54.555,53.442 L54.570,52.742 L54.555,53.442 L54.587,51.885 L54.619,50.328 L54.651,48.771 L54.682,47.214 L54.714,45.657 L54.746,44.099 L54.778,42.542 L54.809,40.985 L54.841,39.428 L54.873,37.871 L54.905,36.314 L54.936,34.757 L54.968,33.199 L55.000,31.642 L55.032,30.085 L55.063,28.528 L55.095,26.971 L55.127,25.414 L55.159,23.856 L55.191,22.299 L55.222,20.742 L55.254,19.185 L55.286,17.628 L55.318,16.071 L55.349,14.514 L55.381,12.956 L55.413,11.399 L55.445,9.842 L55.476,8.285 L55.508,6.728 L55.540,5.171 L55.572,3.614 L55.557,4.313 L55.572,3.614 L55.557,4.313 L55.572,3.614 M55.045,52.877 L55.064,52.177 L55.045,52.877 L55.064,52.177 L55.045,52.877 L55.086,51.327 L55.127,49.777 L55.167,48.227 L55.208,46.677 L55.249,45.127 L55.289,43.577 L55.330,42.027 L55.370,40.478 L55.411,38.928 L55.452,37.378 L55.492,35.828 L55.533,34.278 L55.574,32.728 L55.614,31.178 L55.655,29.628 L55.696,28.079 L55.736,26.529 L55.777,24.979 L55.818,23.429 L55.858,21.879 L55.899,20.329 L55.939,18.779 L55.980,17.229 L56.021,15.680 L56.061,14.130 L56.102,12.580 L56.143,11.030 L56.183,9.480 L56.224,7.930 L56.265,6.380 L56.305,4.830 L56.346,3.281 L56.328,3.980 L56.346,3.281 L56.328,3.980 L56.346,3.281 M55.164,51.934 L55.190,51.234 L55.164,51.934 L55.190,51.234 L55.164,51.934 L55.222,50.356 L55.281,48.778 L55.339,47.201 L55.397,45.623 L55.456,44.046 L55.514,42.468 L55.572,40.891 L55.631,39.313 L55.689,37.735 L55.747,36.158 L55.806,34.580 L55.864,33.003 L55.922,31.425 L55.981,29.847 L56.039,28.270 L56.097,26.692 L56.156,25.115 L56.214,23.537 L56.272,21.960 L56.331,20.382 L56.389,18.804 L56.447,17.227 L56.506,15.649 L56.564,14.072 L56.622,12.494 L56.681,10.916 L56.739,9.339 L56.797,7.761 L56.856,6.184 L56.914,4.606 L56.973,3.029 L56.947,3.728 L56.973,3.029 L56.947,3.728 L56.973,3.029 M55.147,50.894 L55.181,50.195 L55.147,50.894 L55.181,50.195 L55.147,50.894 L55.223,49.344 L55.299,47.794 L55.375,46.243 L55.452,44.693 L55.528,43.142 L55.604,41.592 L55.680,40.042 L55.756,38.491 L55.832,36.941 L55.908,35.390 L55.985,33.840 L56.061,32.290 L56.137,30.739 L56.213,29.189 L56.289,27.639 L56.365,26.088 L56.441,24.538 L56.517,22.987 L56.594,21.437 L56.670,19.887 L56.746,18.336 L56.822,16.786 L56.898,15.235 L56.974,13.685 L57.050,12.135 L57.126,10.584 L57.203,9.034 L57.279,7.483 L57.355,5.933 L57.431,4.383 L57.507,2.832 L57.473,3.531 L57.507,2.832 L57.473,3.531 L57.507,2.832 M55.376,50.123 L55.415,49.425 L55.376,50.123 L55.415,49.425 L55.376,50.123 L55.464,48.542 L55.552,46.960 L55.640,45.378 L55.727,43.796 L55.815,42.214 L55.903,40.633 L55.991,39.051 L56.078,37.469 L56.166,35.887 L56.254,34.306 L56.342,32.724 L56.429,31.142 L56.517,29.560 L56.605,27.978 L56.693,26.397 L56.780,24.815 L56.868,23.233 L56.956,21.651 L57.044,20.069 L57.131,18.488 L57.219,16.906 L57.307,15.324 L57.395,13.742 L57.483,12.160 L57.570,10.579 L57.658,8.997 L57.746,7.415 L57.834,5.833 L57.921,4.251 L58.009,2.670 L57.970,3.369 L58.009,2.670 L57.970,3.369 L58.009,2.670 M56.150,49.852 L56.185,49.153 L56.150,49.852 L56.185,49.153 L56.150,49.852 L56.229,48.275 L56.308,46.697 L56.387,45.120 L56.466,43.543 L56.546,41.965 L56.625,40.388 L56.704,38.811 L56.783,37.233 L56.862,35.656 L56.941,34.079 L57.020,32.501 L57.099,30.924 L57.178,29.347 L57.258,27.769 L57.337,26.192 L57.416,24.615 L57.495,23.037 L57.574,21.460 L57.653,19.883 L57.732,18.305 L57.811,16.728 L57.891,15.151 L57.970,13.573 L58.049,11.996 L58.128,10.419 L58.207,8.841 L58.286,7.264 L58.365,5.687 L58.444,4.109 L58.523,2.532 L58.488,3.231 L58.523,2.532 L58.488,3.231 L58.523,2.532 M57.377,49.943 L57.402,49.244 L57.377,49.943 L57.402,49.244 L57.377,49.943 L57.434,48.359 L57.490,46.776 L57.546,45.192 L57.603,43.608 L57.659,42.024 L57.716,40.440 L57.772,38.857 L57.828,37.273 L57.885,35.689 L57.941,34.105 L57.998,32.522 L58.054,30.938 L58.110,29.354 L58.167,27.770 L58.223,26.186 L58.279,24.603 L58.336,23.019 L58.392,21.435 L58.449,19.851 L58.505,18.267 L58.561,16.684 L58.618,15.100 L58.674,13.516 L58.730,11.932 L58.787,10.348 L58.843,8.765 L58.900,7.181 L58.956,5.597 L59.012,4.013 L59.069,2.430 L59.044,3.129 L59.069,2.430 L59.044,3.129 L59.069,2.430 M58.810,50.158 L58.822,49.458 L58.810,50.158 L58.822,49.458 L58.810,50.158 L58.837,48.566 L58.865,46.973 L58.892,45.381 L58.919,43.789 L58.947,42.197 L58.974,40.604 L59.002,39.012 L59.029,37.420 L59.057,35.827 L59.084,34.235 L59.111,32.643 L59.139,31.050 L59.166,29.458 L59.194,27.866 L59.221,26.273 L59.249,24.681 L59.276,23.089 L59.303,21.497 L59.331,19.904 L59.358,18.312 L59.386,16.720 L59.413,15.127 L59.441,13.535 L59.468,11.943 L59.495,10.350 L59.523,8.758 L59.550,7.166 L59.578,5.574 L59.605,3.981 L59.633,2.389 L59.621,3.089 L59.633,2.389 L59.621,3.089 L59.633,2.389 M60.330,50.404 L60.328,49.704 L60.330,50.404 L60.328,49.704 L60.330,50.404 L60.325,48.805 L60.321,47.206 L60.316,45.607 L60.311,44.008 L60.306,42.410 L60.301,40.811 L60.296,39.212 L60.291,37.613 L60.286,36.014 L60.282,34.415 L60.277,32.816 L60.272,31.218 L60.267,29.619 L60.262,28.020 L60.257,26.421 L60.252,24.822 L60.247,23.223 L60.243,21.624 L60.238,20.026 L60.233,18.427 L60.228,16.828 L60.223,15.229 L60.218,13.630 L60.213,12.031 L60.208,10.433 L60.204,8.834 L60.199,7.235 L60.194,5.636 L60.189,4.037 L60.184,2.438 L60.186,3.138 L60.184,2.438 L60.186,3.138 L60.184,2.438 M62.092,50.810 L62.072,50.111 L62.092,50.810 L62.072,50.111 L62.092,50.810 L62.047,49.255 L62.002,47.699 L61.957,46.143 L61.913,44.587 L61.868,43.032 L61.823,41.476 L61.778,39.920 L61.733,38.365 L61.688,36.809 L61.643,35.253 L61.599,33.697 L61.554,32.142 L61.509,30.586 L61.464,29.030 L61.419,27.475 L61.374,25.919 L61.330,24.363 L61.285,22.807 L61.240,21.252 L61.195,19.696 L61.150,18.140 L61.105,16.585 L61.060,15.029 L61.016,13.473 L60.971,11.917 L60.926,10.362 L60.881,8.806 L60.836,7.250 L60.791,5.695 L60.746,4.139 L60.702,2.583 L60.722,3.283 L60.702,2.583 L60.722,3.283 L60.702,2.583"/>
</svg>
