<svg xmlns="http://www.w3.org/2000/svg" viewBox="0 -6.918 63.835 63.835" width="256" height="256">
  <title>warpedlines1</title>
  <rect x="0" y="-6.918" width="63.835" height="63.835" fill="#f5efe4"/>
  <path fill="none" stroke="#c8472f" stroke-width="0.4" stroke-linecap="round" stroke-linejoin="round" d="M1.554,49.000 L1.554,49.000 L1.536,47.452 L1.518,45.903 L1.500,44.355 L1.482,42.806 L1.465,41.258 L1.447,39.710 L1.429,38.161 L1.411,36.613 L1.393,35.065 L1.375,33.516 L1.357,31.968 L1.340,30.419 L1.322,28.871 L1.304,27.323 L1.286,25.774 L1.268,24.226 L1.250,22.677 L1.232,21.129 L1.214,19.581 L1.197,18.032 L1.179,16.484 L1.161,14.935 L1.143,13.387 L1.125,11.839 L1.107,10.290 L1.089,8.742 L1.071,7.194 L1.054,5.645 L1.036,4.097 L1.018,2.548 L1.000,1.000 L1.008,1.700 L1.000,1.000 L1.008,1.700 L1.000,1.000 M2.438,49.000 L2.429,48.300 L2.438,49.000 L2.429,48.300 L2.438,49.000 L2.419,47.452 L2.400,45.903 L2.381,44.355 L2.362,42.806 L2.343,41.258 L2.324,39.710 L2.305,38.161 L2.286,36.613 L2.268,35.065 L2.249,33.516 L2.230,31.968 L2.211,30.419 L2.192,28.871 L2.173,27.323 L2.154,25.774 L2.135,24.226 L2.116,22.677 L2.097,21.129 L2.079,19.581 L2.060,18.032 L2.041,16.484 L2.022,14.935 L2.003,13.387 L1.984,11.839 L1.965,10.290 L1.946,8.742 L1.927,7.194 L1.908,5.645 L1.890,4.097 L1.871,2.548 L1.852,1.000 L1.860,1.700 L1.852,1.000 L1.860,1.700 L1.852,1.000 M3.303,49.000 L3.294,48.300 L3.303,49.000 L3.294,48.300 L3.303,49.000 L3.283,47.452 L3.264,45.903 L3.244,44.355 L3.225,42.806 L3.205,41.258 L3.186,39.710 L3.166,38.161 L3.147,36.613 L3.127,35.065 L3.108,33.516 L3.088,31.968 L3.069,30.419 L3.049,28.871 L3.030,27.323 L3.010,25.774 L2.991,24.226 L2.971,22.677 L2.952,21.129 L2.932,19.581 L2.913,18.032 L2.894,16.484 L2.874,14.935 L2.855,13.387 L2.835,11.839 L2.816,10.290 L2.796,8.742 L2.777,7.194 L2.757,5.645 L2.738,4.097 L2.718,2.548 L2.699,1.000 L2.707,1.700 L2.699,1.000 L2.707,1.700 L2.699,1.000 M4.171,49.000 L4.162,48.300 L4.171,49.000 L4.162,48.300 L4.171,49.000 L4.151,47.452 L4.130,45.903 L4.110,44.355 L4.090,42.806 L4.069,41.258 L4.049,39.710 L4.028,38.161 L4.008,36.613 L3.988,35.065 L3.967,33.516 L3.947,31.968 L3.926,30.419 L3.906,28.871 L3.886,27.323 L3.865,25.774 L3.845,24.226 L3.824,22.677 L3.804,21.129 L3.784,19.581 L3.763,18.032 L3.743,16.484 L3.722,14.935 L3.702,13.387 L3.682,11.839 L3.661,10.290 L3.641,8.742 L3.620,7.194 L3.600,5.645 L3.580,4.097 L3.559,2.548 L3.539,1.000 L3.548,1.700 L3.539,1.000 L3.548,1.700 L3.539,1.000 M5.060,49.000 L5.050,48.300 L5.060,49.000 L5.050,48.300 L5.060,49.000 L5.038,47.452 L5.015,45.903 L4.993,44.355 L4.970,42.806 L4.948,41.258 L4.925,39.710 L4.903,38.161 L4.881,36.613 L4.858,35.065 L4.836,33.516 L4.813,31.968 L4.791,30.419 L4.769,28.871 L4.746,27.323 L4.724,25.774 L4.701,24.226 L4.679,22.677 L4.656,21.129 L4.634,19.581 L4.612,18.032 L4.589,16.484 L4.567,14.935 L4.544,13.387 L4.522,11.839 L4.500,10.290 L4.477,8.742 L4.455,7.194 L4.432,5.645 L4.410,4.097 L4.387,2.548 L4.365,1.000 L4.375,1.700 L4.365,1.000 L4.375,1.700 L4.365,1.000 M5.977,49.000 L5.965,48.300 L5.977,49.000 L5.965,48.300 L5.977,49.000 L5.950,47.452 L5.924,45.903 L5.898,44.355 L5.872,42.806 L5.846,41.258 L5.820,39.710 L5.794,38.161 L5.767,36.613 L5.741,35.065 L5.715,33.516 L5.689,31.968 L5.663,30.419 L5.637,28.871 L5.610,27.323 L5.584,25.774 L5.558,24.226 L5.532,22.677 L5.506,21.129 L5.480,19.581 L5.454,18.032 L5.427,16.484 L5.401,14.935 L5.375,13.387 L5.349,11.839 L5.323,10.290 L5.297,8.742 L5.270,7.194 L5.244,5.645 L5.218,4.097 L5.192,2.548 L5.166,1.000 L5.178,1.700 L5.166,1.000 L5.178,1.700 L5.166,1.000 M6.919,49.000 L6.905,48.300 L6.919,49.000 L6.905,48.300 L6.919,49.000 L6.887,47.452 L6.855,45.903 L6.823,44.355 L6.791,42.806 L6.759,41.258 L6.727,39.710 L6.695,38.161 L6.663,36.613 L6.631,35.065 L6.599,33.516 L6.567,31.968 L6.535,30.419 L6.503,28.871 L6.471,27.323 L6.439,25.774 L6.407,24.226 L6.375,22.677 L6.343,21.129 L6.311,19.581 L6.279,18.032 L6.247,16.484 L6.215,14.935 L6.183,13.387 L6.151,11.839 L6.119,10.290 L6.087,8.742 L6.055,7.194 L6.023,5.645 L5.991,4.097 L5.959,2.548 L5.927,1.000 L5.941,1.700 L5.927,1.000 L5.941,1.700 L5.927,1.000 M7.876,49.000 L7.858,48.300 L7.876,49.000 L7.858,48.300 L7.876,49.000 L7.836,47.452 L7.796,45.903 L7.756,44.355 L7.716,42.806 L7.676,41.258 L7.636,39.710 L7.596,38.161 L7.556,36.613 L7.516,35.065 L7.476,33.516 L7.436,31.968 L7.396,30.419 L7.356,28.871 L7.315,27.323 L7.275,25.774 L7.235,24.226 L7.195,22.677 L7.155,21.129 L7.115,19.581 L7.075,18.032 L7.035,16.484 L6.995,14.935 L6.955,13.387 L6.915,11.839 L6.875,10.290 L6.835,8.742 L6.795,7.194 L6.755,5.645 L6.715,4.097 L6.674,2.548 L6.634,1.000 L6.652,1.700 L6.634,1.000 L6.652,1.700 L6.634,1.000 M8.830,49.000 L8.807,48.300 L8.830,49.000 L8.807,48.300 L8.830,49.000 L8.780,47.452 L8.730,45.903 L8.680,44.355 L8.630,42.806 L8.580,41.258 L8.531,39.710 L8.481,38.161 L8.431,36.613 L8.381,35.065 L8.331,33.516 L8.281,31.968 L8.232,30.419 L8.182,28.871 L8.132,27.323 L8.082,25.774 L8.032,24.226 L7.982,22.677 L7.932,21.129 L7.883,19.581 L7.833,18.032 L7.783,16.484 L7.733,14.935 L7.683,13.387 L7.633,11.839 L7.583,10.290 L7.534,8.742 L7.484,7.194 L7.434,5.645 L7.384,4.097 L7.334,2.548 L7.284,1.000 L7.307,1.700 L7.284,1.000 L7.307,1.700 L7.284,1.000 M9.756,49.000 L9.728,48.301 L9.756,49.000 L9.728,48.301 L9.756,49.000 L9.695,47.452 L9.635,45.903 L9.575,44.355 L9.515,42.806 L9.455,41.258 L9.394,39.710 L9.334,38.161 L9.274,36.613 L9.214,35.065 L9.154,33.516 L9.094,31.968 L9.033,30.419 L8.973,28.871 L8.913,27.323 L8.853,25.774 L8.793,24.226 L8.732,22.677 L8.672,21.129 L8.612,19.581 L8.552,18.032 L8.492,16.484 L8.432,14.935 L8.371,13.387 L8.311,11.839 L8.251,10.290 L8.191,8.742 L8.131,7.194 L8.070,5.645 L8.010,4.097 L7.950,2.548 L7.890,1.000 L7.917,1.699 L7.890,1.000 L7.917,1.699 L7.890,1.000 M10.628,49.000 L10.596,48.301 L10.628,49.000 L10.596,48.301 L10.628,49.000 L10.558,47.452 L10.489,45.903 L10.419,44.355 L10.350,42.806 L10.280,41.258 L10.211,39.710 L10.142,38.161 L10.072,36.613 L10.003,35.065 L9.933,33.516 L9.864,31.968 L9.794,30.419 L9.725,28.871 L9.656,27.323 L9.586,25.774 L9.517,24.226 L9.447,22.677 L9.378,21.129 L9.308,19.581 L9.239,18.032 L9.170,16.484 L9.100,14.935 L9.031,13.387 L8.961,11.839 L8.892,10.290 L8.822,8.742 L8.753,7.194 L8.683,5.645 L8.614,4.097 L8.545,2.548 L8.475,1.000 L8.507,1.699 L8.475,1.000 L8.507,1.699 L8.475,1.000 M11.420,49.000 L11.386,48.301 L11.420,49.000 L11.386,48.301 L11.420,49.000 L11.345,47.452 L11.269,45.903 L11.193,44.355 L11.117,42.806 L11.041,41.258 L10.965,39.710 L10.889,38.161 L10.814,36.613 L10.738,35.065 L10.662,33.516 L10.586,31.968 L10.510,30.419 L10.434,28.871 L10.358,27.323 L10.282,25.774 L10.207,24.226 L10.131,22.677 L10.055,21.129 L9.979,19.581 L9.903,18.032 L9.827,16.484 L9.751,14.935 L9.676,13.387 L9.600,11.839 L9.524,10.290 L9.448,8.742 L9.372,7.194 L9.296,5.645 L9.220,4.097 L9.144,2.548 L9.069,1.000 L9.103,1.699 L9.069,1.000 L9.103,1.699 L9.069,1.000 M12.113,49.000 L12.078,48.301 L12.113,49.000 L12.078,48.301 L12.113,49.000 L12.035,47.452 L11.958,45.903 L11.880,44.355 L11.802,42.806 L11.724,41.258 L11.646,39.710 L11.568,38.161 L11.491,36.613 L11.413,35.065 L11.335,33.516 L11.257,31.968 L11.179,30.419 L11.101,28.871 L11.024,27.323 L10.946,25.774 L10.868,24.226 L10.790,22.677 L10.712,21.129 L10.634,19.581 L10.556,18.032 L10.479,16.484 L10.401,14.935 L10.323,13.387 L10.245,11.839 L10.167,10.290 L10.089,8.742 L10.012,7.194 L9.934,5.645 L9.856,4.097 L9.778,2.548 L9.700,1.000 L9.735,1.699 L9.700,1.000 L9.735,1.699 L9.700,1.000 M12.695,49.000 L12.662,48.301 L12.695,49.000 L12.662,48.301 L12.695,49.000 L12.621,47.452 L12.547,45.903 L12.473,44.355 L12.398,42.806 L12.324,41.258 L12.250,39.710 L12.176,38.161 L12.102,36.613 L12.028,35.065 L11.954,33.516 L11.880,31.968 L11.805,30.419 L11.731,28.871 L11.657,27.323 L11.583,25.774 L11.509,24.226 L11.435,22.677 L11.361,21.129 L11.286,19.581 L11.212,18.032 L11.138,16.484 L11.064,14.935 L10.990,13.387 L10.916,11.839 L10.842,10.290 L10.767,8.742 L10.693,7.194 L10.619,5.645 L10.545,4.097 L10.471,2.548 L10.397,1.000 L10.430,1.699 L10.397,1.000 L10.430,1.699 L10.397,1.000 M13.171,49.000 L13.142,48.301 L13.171,49.000 L13.142,48.301 L13.171,49.000 L13.107,47.452 L13.043,45.903 L12.978,44.355 L12.914,42.806 L12.850,41.258 L12.785,39.710 L12.721,38.161 L12.657,36.613 L12.592,35.065 L12.528,33.516 L12.464,31.968 L12.399,30.419 L12.335,28.871 L12.271,27.323 L12.206,25.774 L12.142,24.226 L12.078,22.677 L12.013,21.129 L11.949,19.581 L11.885,18.032 L11.820,16.484 L11.756,14.935 L11.692,13.387 L11.627,11.839 L11.563,10.290 L11.498,8.742 L11.434,7.194 L11.370,5.645 L11.305,4.097 L11.241,2.548 L11.177,1.000 L11.206,1.699 L11.177,1.000 L11.206,1.699 L11.177,1.000 M13.561,49.000 L13.539,48.300 L13.561,49.000 L13.539,48.300 L13.561,49.000 L13.512,47.452 L13.463,45.903 L13.415,44.355 L13.366,42.806 L13.317,41.258 L13.268,39.710 L13.220,38.161 L13.171,36.613 L13.122,35.065 L13.073,33.516 L13.025,31.968 L12.976,30.419 L12.927,28.871 L12.878,27.323 L12.829,25.774 L12.781,24.226 L12.732,22.677 L12.683,21.129 L12.634,19.581 L12.586,18.032 L12.537,16.484 L12.488,14.935 L12.439,13.387 L12.391,11.839 L12.342,10.290 L12.293,8.742 L12.244,7.194 L12.195,5.645 L12.147,4.097 L12.098,2.548 L12.049,1.000 L12.071,1.700 L12.049,1.000 L12.071,1.700 L12.049,1.000 M13.889,49.000 L13.876,48.300 L13.889,49.000 L13.876,48.300 L13.889,49.000 L13.861,47.452 L13.832,45.903 L13.804,44.355 L13.776,42.806 L13.748,41.258 L13.719,39.710 L13.691,38.161 L13.663,36.613 L13.634,35.065 L13.606,33.516 L13.578,31.968 L13.550,30.419 L13.521,28.871 L13.493,27.323 L13.465,25.774 L13.437,24.226 L13.408,22.677 L13.380,21.129 L13.352,19.581 L13.324,18.032 L13.295,16.484 L13.267,14.935 L13.239,13.387 L13.211,11.839 L13.182,10.290 L13.154,8.742 L13.126,7.194 L13.097,5.645 L13.069,4.097 L13.041,2.548 L13.013,1.000 L13.025,1.700 L13.013,1.000 L13.025,1.700 L13.013,1.000 M14.185,49.000 L14.183,48.300 L14.185,49.000 L14.183,48.300 L14.185,49.000 L14.180,47.452 L14.176,45.903 L14.172,44.355 L14.168,42.806 L14.164,41.258 L14.160,39.710 L14.155,38.161 L14.151,36.613 L14.147,35.065 L14.143,33.516 L14.139,31.968 L14.135,30.419 L14.130,28.871 L14.126,27.323 L14.122,25.774 L14.118,24.226 L14.114,22.677 L14.110,21.129 L14.106,19.581 L14.101,18.032 L14.097,16.484 L14.093,14.935 L14.089,13.387 L14.085,11.839 L14.081,10.290 L14.076,8.742 L14.072,7.194 L14.068,5.645 L14.064,4.097 L14.060,2.548 L14.056,1.000 L14.058,1.700 L14.056,1.000 L14.058,1.700 L14.056,1.000 M14.480,49.000 L14.489,48.300 L14.480,49.000 L14.489,48.300 L14.480,49.000 L14.501,47.452 L14.523,45.903 L14.545,44.355 L14.567,42.806 L14.589,41.258 L14.611,39.710 L14.632,38.161 L14.654,36.613 L14.676,35.065 L14.698,33.516 L14.720,31.968 L14.742,30.419 L14.764,28.871 L14.785,27.323 L14.807,25.774 L14.829,24.226 L14.851,22.677 L14.873,21.129 L14.895,19.581 L14.916,18.032 L14.938,16.484 L14.960,14.935 L14.982,13.387 L15.004,11.839 L15.026,10.290 L15.048,8.742 L15.069,7.194 L15.091,5.645 L15.113,4.097 L15.135,2.548 L15.157,1.000 L15.147,1.700 L15.157,1.000 L15.147,1.700 L15.157,1.000 M14.805,49.000 L14.826,48.300 L14.805,49.000 L14.826,48.300 L14.805,49.000 L14.852,47.452 L14.900,45.903 L14.948,44.355 L14.996,42.806 L15.043,41.258 L15.091,39.710 L15.139,38.161 L15.187,36.613 L15.234,35.065 L15.282,33.516 L15.330,31.968 L15.378,30.419 L15.426,28.871 L15.473,27.323 L15.521,25.774 L15.569,24.226 L15.617,22.677 L15.664,21.129 L15.712,19.581 L15.760,18.032 L15.808,16.484 L15.856,14.935 L15.903,13.387 L15.951,11.839 L15.999,10.290 L16.047,8.742 L16.094,7.194 L16.142,5.645 L16.190,4.097 L16.238,2.548 L16.285,1.000 L16.264,1.700 L16.285,1.000 L16.264,1.700 L16.285,1.000 M15.187,49.000 L15.219,48.301 L15.187,49.000 L15.219,48.301 L15.187,49.000 L15.259,47.452 L15.330,45.903 L15.402,44.355 L15.473,42.806 L15.545,41.258 L15.616,39.710 L15.688,38.161 L15.760,36.613 L15.831,35.065 L15.903,33.516 L15.974,31.968 L16.046,30.419 L16.117,28.871 L16.189,27.323 L16.261,25.774 L16.332,24.226 L16.404,22.677 L16.475,21.129 L16.547,19.581 L16.619,18.032 L16.690,16.484 L16.762,14.935 L16.833,13.387 L16.905,11.839 L16.976,10.290 L17.048,8.742 L17.120,7.194 L17.191,5.645 L17.263,4.097 L17.334,2.548 L17.406,1.000 L17.374,1.699 L17.406,1.000 L17.374,1.699 L17.406,1.000 M15.650,49.000 L15.691,48.301 L15.650,49.000 L15.691,48.301 L15.650,49.000 L15.741,47.452 L15.833,45.903 L15.924,44.355 L16.015,42.806 L16.107,41.258 L16.198,39.710 L16.289,38.161 L16.381,36.613 L16.472,35.065 L16.563,33.516 L16.655,31.968 L16.746,30.419 L16.837,28.871 L16.929,27.323 L17.020,25.774 L17.111,24.226 L17.203,22.677 L17.294,21.129 L17.386,19.581 L17.477,18.032 L17.568,16.484 L17.660,14.935 L17.751,13.387 L17.842,11.839 L17.934,10.290 L18.025,8.742 L18.116,7.194 L18.208,5.645 L18.299,4.097 L18.390,2.548 L18.482,1.000 L18.440,1.699 L18.482,1.000 L18.440,1.699 L18.482,1.000 M16.212,49.000 L16.259,48.302 L16.212,49.000 L16.259,48.302 L16.212,49.000 L16.317,47.452 L16.422,45.903 L16.528,44.355 L16.633,42.806 L16.739,41.258 L16.844,39.710 L16.950,38.161 L17.055,36.613 L17.161,35.065 L17.266,33.516 L17.372,31.968 L17.477,30.419 L17.583,28.871 L17.688,27.323 L17.794,25.774 L17.899,24.226 L18.005,22.677 L18.110,21.129 L18.216,19.581 L18.321,18.032 L18.427,16.484 L18.532,14.935 L18.638,13.387 L18.743,11.839 L18.848,10.290 L18.954,8.742 L19.059,7.194 L19.165,5.645 L19.270,4.097 L19.376,2.548 L19.481,1.000 L19.434,1.698 L19.481,1.000 L19.434,1.698 L19.481,1.000 M16.880,49.000 L16.931,48.302 L16.880,49.000 L16.931,48.302 L16.880,49.000 L16.993,47.452 L17.106,45.903 L17.219,44.355 L17.332,42.806 L17.445,41.258 L17.558,39.710 L17.671,38.161 L17.784,36.613 L17.898,35.065 L18.011,33.516 L18.124,31.968 L18.237,30.419 L18.350,28.871 L18.463,27.323 L18.576,25.774 L18.689,24.226 L18.802,22.677 L18.915,21.129 L19.028,19.581 L19.141,18.032 L19.254,16.484 L19.367,14.935 L19.480,13.387 L19.593,11.839 L19.706,10.290 L19.819,8.742 L19.932,7.194 L20.045,5.645 L20.158,4.097 L20.271,2.548 L20.384,1.000 L20.333,1.698 L20.384,1.000 L20.333,1.698 L20.384,1.000 M17.655,49.000 L17.706,48.302 L17.655,49.000 L17.706,48.302 L17.655,49.000 L17.768,47.452 L17.882,45.903 L17.996,44.355 L18.110,42.806 L18.224,41.258 L18.338,39.710 L18.451,38.161 L18.565,36.613 L18.679,35.065 L18.793,33.516 L18.907,31.968 L19.020,30.419 L19.134,28.871 L19.248,27.323 L19.362,25.774 L19.476,24.226 L19.589,22.677 L19.703,21.129 L19.817,19.581 L19.931,18.032 L20.045,16.484 L20.159,14.935 L20.272,13.387 L20.386,11.839 L20.500,10.290 L20.614,8.742 L20.728,7.194 L20.841,5.645 L20.955,4.097 L21.069,2.548 L21.183,1.000 L21.132,1.698 L21.183,1.000 L21.132,1.698 L21.183,1.000 M18.523,49.000 L18.572,48.302 L18.523,49.000 L18.572,48.302 L18.523,49.000 L18.631,47.452 L18.740,45.903 L18.848,44.355 L18.957,42.806 L19.065,41.258 L19.173,39.710 L19.282,38.161 L19.390,36.613 L19.499,35.065 L19.607,33.516 L19.716,31.968 L19.824,30.419 L19.933,28.871 L20.041,27.323 L20.150,25.774 L20.258,24.226 L20.367,22.677 L20.475,21.129 L20.584,19.581 L20.692,18.032 L20.801,16.484 L20.909,14.935 L21.018,13.387 L21.126,11.839 L21.235,10.290 L21.343,8.742 L21.452,7.194 L21.560,5.645 L21.669,4.097 L21.777,2.548 L21.886,1.000 L21.837,1.698 L21.886,1.000 L21.837,1.698 L21.886,1.000 M19.463,49.000 L19.507,48.301 L19.463,49.000 L19.507,48.301 L19.463,49.000 L19.561,47.452 L19.659,45.903 L19.758,44.355 L19.856,42.806 L19.955,41.258 L20.053,39.710 L20.151,38.161 L20.250,36.613 L20.348,35.065 L20.447,33.516 L20.545,31.968 L20.643,30.419 L20.742,28.871 L20.840,27.323 L20.939,25.774 L21.037,24.226 L21.135,22.677 L21.234,21.129 L21.332,19.581 L21.431,18.032 L21.529,16.484 L21.627,14.935 L21.726,13.387 L21.824,11.839 L21.923,10.290 L22.021,8.742 L22.119,7.194 L22.218,5.645 L22.316,4.097 L22.415,2.548 L22.513,1.000 L22.469,1.699 L22.513,1.000 L22.469,1.699 L22.513,1.000 M20.447,49.000 L20.486,48.301 L20.447,49.000 L20.486,48.301 L20.447,49.000 L20.533,47.452 L20.618,45.903 L20.703,44.355 L20.788,42.806 L20.874,41.258 L20.959,39.710 L21.044,38.161 L21.129,36.613 L21.215,35.065 L21.300,33.516 L21.385,31.968 L21.470,30.419 L21.556,28.871 L21.641,27.323 L21.726,25.774 L21.811,24.226 L21.897,22.677 L21.982,21.129 L22.067,19.581 L22.152,18.032 L22.238,16.484 L22.323,14.935 L22.408,13.387 L22.493,11.839 L22.579,10.290 L22.664,8.742 L22.749,7.194 L22.834,5.645 L22.920,4.097 L23.005,2.548 L23.090,1.000 L23.052,1.699 L23.090,1.000 L23.052,1.699 L23.090,1.000 M21.447,49.000 L21.479,48.301 L21.447,49.000 L21.479,48.301 L21.447,49.000 L21.517,47.452 L21.588,45.903 L21.659,44.355 L21.729,42.806 L21.800,41.258 L21.870,39.710 L21.941,38.161 L22.011,36.613 L22.082,35.065 L22.153,33.516 L22.223,31.968 L22.294,30.419 L22.364,28.871 L22.435,27.323 L22.505,25.774 L22.576,24.226 L22.647,22.677 L22.717,21.129 L22.788,19.581 L22.858,18.032 L22.929,16.484 L23.000,14.935 L23.070,13.387 L23.141,11.839 L23.211,10.290 L23.282,8.742 L23.352,7.194 L23.423,5.645 L23.494,4.097 L23.564,2.548 L23.635,1.000 L23.603,1.699 L23.635,1.000 L23.603,1.699 L23.635,1.000 M22.433,49.000 L22.458,48.300 L22.433,49.000 L22.458,48.300 L22.433,49.000 L22.488,47.452 L22.544,45.903 L22.599,44.355 L22.654,42.806 L22.710,41.258 L22.765,39.710 L22.821,38.161 L22.876,36.613 L22.931,35.065 L22.987,33.516 L23.042,31.968 L23.097,30.419 L23.153,28.871 L23.208,27.323 L23.264,25.774 L23.319,24.226 L23.374,22.677 L23.430,21.129 L23.485,19.581 L23.540,18.032 L23.596,16.484 L23.651,14.935 L23.707,13.387 L23.762,11.839 L23.817,10.290 L23.873,8.742 L23.928,7.194 L23.983,5.645 L24.039,4.097 L24.094,2.548 L24.149,1.000 L24.124,1.700 L24.149,1.000 L24.124,1.700 L24.149,1.000 M23.384,49.000 L23.402,48.300 L23.384,49.000 L23.402,48.300 L23.384,49.000 L23.424,47.452 L23.464,45.903 L23.505,44.355 L23.545,42.806 L23.585,41.258 L23.625,39.710 L23.666,38.161 L23.706,36.613 L23.746,35.065 L23.786,33.516 L23.827,31.968 L23.867,30.419 L23.907,28.871 L23.947,27.323 L23.988,25.774 L24.028,24.226 L24.068,22.677 L24.109,21.129 L24.149,19.581 L24.189,18.032 L24.229,16.484 L24.270,14.935 L24.310,13.387 L24.350,11.839 L24.390,10.290 L24.431,8.742 L24.471,7.194 L24.511,5.645 L24.551,4.097 L24.592,2.548 L24.632,1.000 L24.614,1.700 L24.632,1.000 L24.614,1.700 L24.632,1.000 M24.286,49.000 L24.298,48.300 L24.286,49.000 L24.298,48.300 L24.286,49.000 L24.312,47.452 L24.338,45.903 L24.363,44.355 L24.389,42.806 L24.415,41.258 L24.440,39.710 L24.466,38.161 L24.492,36.613 L24.518,35.065 L24.543,33.516 L24.569,31.968 L24.595,30.419 L24.620,28.871 L24.646,27.323 L24.672,25.774 L24.698,24.226 L24.723,22.677 L24.749,21.129 L24.775,19.581 L24.800,18.032 L24.826,16.484 L24.852,14.935 L24.878,13.387 L24.903,11.839 L24.929,10.290 L24.955,8.742 L24.980,7.194 L25.006,5.645 L25.032,4.097 L25.058,2.548 L25.083,1.000 L25.072,1.700 L25.083,1.000 L25.072,1.700 L25.083,1.000 M25.137,49.000 L25.143,48.300 L25.137,49.000 L25.143,48.300 L25.137,49.000 L25.150,47.452 L25.162,45.903 L25.174,44.355 L25.186,42.806 L25.198,41.258 L25.210,39.710 L25.222,38.161 L25.234,36.613 L25.246,35.065 L25.258,33.516 L25.270,31.968 L25.282,30.419 L25.294,28.871 L25.306,27.323 L25.319,25.774 L25.331,24.226 L25.343,22.677 L25.355,21.129 L25.367,19.581 L25.379,18.032 L25.391,16.484 L25.403,14.935 L25.415,13.387 L25.427,11.839 L25.439,10.290 L25.451,8.742 L25.463,7.194 L25.475,5.645 L25.488,4.097 L25.500,2.548 L25.512,1.000 L25.506,1.700 L25.512,1.000 L25.506,1.700 L25.512,1.000 M25.944,49.000 L25.944,48.300 L25.944,49.000 L25.944,48.300 L25.944,49.000 L25.944,47.452 L25.943,45.903 L25.943,44.355 L25.943,42.806 L25.942,41.258 L25.942,39.710 L25.941,38.161 L25.941,36.613 L25.941,35.065 L25.940,33.516 L25.940,31.968 L25.939,30.419 L25.939,28.871 L25.938,27.323 L25.938,25.774 L25.938,24.226 L25.937,22.677 L25.937,21.129 L25.936,19.581 L25.936,18.032 L25.935,16.484 L25.935,14.935 L25.935,13.387 L25.934,11.839 L25.934,10.290 L25.933,8.742 L25.933,7.194 L25.932,5.645 L25.932,4.097 L25.932,2.548 L25.931,1.000 L25.931,1.700 L25.931,1.000 L25.931,1.700 L25.931,1.000 M26.717,49.000 L26.712,48.300 L26.717,49.000 L26.712,48.300 L26.717,49.000 L26.705,47.452 L26.694,45.903 L26.682,44.355 L26.671,42.806 L26.660,41.258 L26.648,39.710 L26.637,38.161 L26.625,36.613 L26.614,35.065 L26.602,33.516 L26.591,31.968 L26.579,30.419 L26.568,28.871 L26.556,27.323 L26.545,25.774 L26.533,24.226 L26.522,22.677 L26.510,21.129 L26.499,19.581 L26.487,18.032 L26.476,16.484 L26.464,14.935 L26.453,13.387 L26.441,11.839 L26.430,10.290 L26.418,8.742 L26.407,7.194 L26.395,5.645 L26.384,4.097 L26.372,2.548 L26.361,1.000 L26.366,1.700 L26.361,1.000 L26.366,1.700 L26.361,1.000 M27.460,49.000 L27.450,48.300 L27.460,49.000 L27.450,48.300 L27.460,49.000 L27.439,47.452 L27.418,45.903 L27.398,44.355 L27.377,42.806 L27.356,41.258 L27.336,39.710 L27.315,38.161 L27.294,36.613 L27.274,35.065 L27.253,33.516 L27.232,31.968 L27.212,30.419 L27.191,28.871 L27.170,27.323 L27.150,25.774 L27.129,24.226 L27.108,22.677 L27.088,21.129 L27.067,19.581 L27.046,18.032 L27.026,16.484 L27.005,14.935 L26.984,13.387 L26.964,11.839 L26.943,10.290 L26.922,8.742 L26.902,7.194 L26.881,5.645 L26.860,4.097 L26.839,2.548 L26.819,1.000 L26.828,1.700 L26.819,1.000 L26.828,1.700 L26.819,1.000 M28.170,49.000 L28.158,48.300 L28.170,49.000 L28.158,48.300 L28.170,49.000 L28.143,47.452 L28.115,45.903 L28.088,44.355 L28.061,42.806 L28.033,41.258 L28.006,39.710 L27.979,38.161 L27.951,36.613 L27.924,35.065 L27.897,33.516 L27.869,31.968 L27.842,30.419 L27.815,28.871 L27.787,27.323 L27.760,25.774 L27.733,24.226 L27.705,22.677 L27.678,21.129 L27.651,19.581 L27.623,18.032 L27.596,16.484 L27.569,14.935 L27.541,13.387 L27.514,11.839 L27.487,10.290 L27.459,8.742 L27.432,7.194 L27.405,5.645 L27.377,4.097 L27.350,2.548 L27.323,1.000 L27.335,1.700 L27.323,1.000 L27.335,1.700 L27.323,1.000 M28.847,49.000 L28.833,48.300 L28.847,49.000 L28.833,48.300 L28.847,49.000 L28.815,47.452 L28.784,45.903 L28.753,44.355 L28.722,42.806 L28.691,41.258 L28.660,39.710 L28.629,38.161 L28.598,36.613 L28.567,35.065 L28.536,33.516 L28.505,31.968 L28.474,30.419 L28.443,28.871 L28.412,27.323 L28.381,25.774 L28.350,24.226 L28.319,22.677 L28.288,21.129 L28.257,19.581 L28.226,18.032 L28.195,16.484 L28.164,14.935 L28.133,13.387 L28.102,11.839 L28.071,10.290 L28.039,8.742 L28.008,7.194 L27.977,5.645 L27.946,4.097 L27.915,2.548 L27.884,1.000 L27.898,1.700 L27.884,1.000 L27.898,1.700 L27.884,1.000 M29.492,49.000 L29.478,48.300 L29.492,49.000 L29.478,48.300 L29.492,49.000 L29.460,47.452 L29.429,45.903 L29.397,44.355 L29.365,42.806 L29.334,41.258 L29.302,39.710 L29.270,38.161 L29.239,36.613 L29.207,35.065 L29.175,33.516 L29.144,31.968 L29.112,30.419 L29.080,28.871 L29.049,27.323 L29.017,25.774 L28.985,24.226 L28.954,22.677 L28.922,21.129 L28.890,19.581 L28.859,18.032 L28.827,16.484 L28.795,14.935 L28.764,13.387 L28.732,11.839 L28.700,10.290 L28.669,8.742 L28.637,7.194 L28.605,5.645 L28.574,4.097 L28.542,2.548 L28.510,1.000 L28.525,1.700 L28.510,1.000 L28.525,1.700 L28.510,1.000 M30.115,49.000 L30.101,48.300 L30.115,49.000 L30.101,48.300 L30.115,49.000 L30.085,47.452 L30.056,45.903 L30.026,44.355 L29.997,42.806 L29.968,41.258 L29.938,39.710 L29.909,38.161 L29.879,36.613 L29.850,35.065 L29.821,33.516 L29.791,31.968 L29.762,30.419 L29.733,28.871 L29.703,27.323 L29.674,25.774 L29.644,24.226 L29.615,22.677 L29.586,21.129 L29.556,19.581 L29.527,18.032 L29.498,16.484 L29.468,14.935 L29.439,13.387 L29.409,11.839 L29.380,10.290 L29.351,8.742 L29.321,7.194 L29.292,5.645 L29.262,4.097 L29.233,2.548 L29.204,1.000 L29.217,1.700 L29.204,1.000 L29.217,1.700 L29.204,1.000 M30.726,49.000 L30.715,48.300 L30.726,49.000 L30.715,48.300 L30.726,49.000 L30.701,47.452 L30.677,45.903 L30.652,44.355 L30.628,42.806 L30.603,41.258 L30.579,39.710 L30.554,38.161 L30.530,36.613 L30.505,35.065 L30.481,33.516 L30.456,31.968 L30.432,30.419 L30.407,28.871 L30.382,27.323 L30.358,25.774 L30.333,24.226 L30.309,22.677 L30.284,21.129 L30.260,19.581 L30.235,18.032 L30.211,16.484 L30.186,14.935 L30.162,13.387 L30.137,11.839 L30.113,10.290 L30.088,8.742 L30.064,7.194 L30.039,5.645 L30.014,4.097 L29.990,2.548 L29.965,1.000 L29.977,1.700 L29.965,1.000 L29.977,1.700 L29.965,1.000 M31.337,49.000 L31.330,48.300 L31.337,49.000 L31.330,48.300 L31.337,49.000 L31.320,47.452 L31.303,45.903 L31.285,44.355 L31.268,42.806 L31.250,41.258 L31.233,39.710 L31.215,38.161 L31.198,36.613 L31.181,35.065 L31.163,33.516 L31.146,31.968 L31.128,30.419 L31.111,28.871 L31.093,27.323 L31.076,25.774 L31.059,24.226 L31.041,22.677 L31.024,21.129 L31.006,19.581 L30.989,18.032 L30.971,16.484 L30.954,14.935 L30.937,13.387 L30.919,11.839 L30.902,10.290 L30.884,8.742 L30.867,7.194 L30.850,5.645 L30.832,4.097 L30.815,2.548 L30.797,1.000 L30.805,1.700 L30.797,1.000 L30.805,1.700 L30.797,1.000 M31.958,49.000 L31.954,48.300 L31.958,49.000 L31.954,48.300 L31.958,49.000 L31.950,47.452 L31.941,45.903 L31.933,44.355 L31.925,42.806 L31.916,41.258 L31.908,39.710 L31.899,38.161 L31.891,36.613 L31.883,35.065 L31.874,33.516 L31.866,31.968 L31.857,30.419 L31.849,28.871 L31.841,27.323 L31.832,25.774 L31.824,24.226 L31.816,22.677 L31.807,21.129 L31.799,19.581 L31.790,18.032 L31.782,16.484 L31.774,14.935 L31.765,13.387 L31.757,11.839 L31.749,10.290 L31.740,8.742 L31.732,7.194 L31.723,5.645 L31.715,4.097 L31.707,2.548 L31.698,1.000 L31.702,1.700 L31.698,1.000 L31.702,1.700 L31.698,1.000 M32.590,49.000 L32.591,48.300 L32.590,49.000 L32.591,48.300 L32.590,49.000 L32.592,47.452 L32.594,45.903 L32.597,44.355 L32.599,42.806 L32.602,41.258 L32.604,39.710 L32.606,38.161 L32.609,36.613 L32.611,35.065 L32.613,33.516 L32.616,31.968 L32.618,30.419 L32.621,28.871 L32.623,27.323 L32.625,25.774 L32.628,24.226 L32.630,22.677 L32.633,21.129 L32.635,19.581 L32.637,18.032 L32.640,16.484 L32.642,14.935 L32.644,13.387 L32.647,11.839 L32.649,10.290 L32.652,8.742 L32.654,7.194 L32.656,5.645 L32.659,4.097 L32.661,2.548 L32.663,1.000 L32.662,1.700 L32.663,1.000 L32.662,1.700 L32.663,1.000 M33.230,49.000 L33.236,48.300 L33.230,49.000 L33.236,48.300 L33.230,49.000 L33.244,47.452 L33.259,45.903 L33.273,44.355 L33.288,42.806 L33.302,41.258 L33.317,39.710 L33.331,38.161 L33.346,36.613 L33.361,35.065 L33.375,33.516 L33.390,31.968 L33.404,30.419 L33.419,28.871 L33.433,27.323 L33.448,25.774 L33.462,24.226 L33.477,22.677 L33.491,21.129 L33.506,19.581 L33.521,18.032 L33.535,16.484 L33.550,14.935 L33.564,13.387 L33.579,11.839 L33.593,10.290 L33.608,8.742 L33.622,7.194 L33.637,5.645 L33.651,4.097 L33.666,2.548 L33.680,1.000 L33.674,1.700 L33.680,1.000 L33.674,1.700 L33.680,1.000 M33.876,49.000 L33.888,48.300 L33.876,49.000 L33.888,48.300 L33.876,49.000 L33.903,47.452 L33.931,45.903 L33.958,44.355 L33.985,42.806 L34.013,41.258 L34.040,39.710 L34.068,38.161 L34.095,36.613 L34.123,35.065 L34.150,33.516 L34.177,31.968 L34.205,30.419 L34.232,28.871 L34.260,27.323 L34.287,25.774 L34.315,24.226 L34.342,22.677 L34.369,21.129 L34.397,19.581 L34.424,18.032 L34.452,16.484 L34.479,14.935 L34.507,13.387 L34.534,11.839 L34.561,10.290 L34.589,8.742 L34.616,7.194 L34.644,5.645 L34.671,4.097 L34.699,2.548 L34.726,1.000 L34.714,1.700 L34.726,1.000 L34.714,1.700 L34.726,1.000 M34.528,49.000 L34.546,48.300 L34.528,49.000 L34.546,48.300 L34.528,49.000 L34.568,47.452 L34.608,45.903 L34.649,44.355 L34.689,42.806 L34.729,41.258 L34.769,39.710 L34.809,38.161 L34.849,36.613 L34.889,35.065 L34.930,33.516 L34.970,31.968 L35.010,30.419 L35.050,28.871 L35.090,27.323 L35.130,25.774 L35.170,24.226 L35.210,22.677 L35.251,21.129 L35.291,19.581 L35.331,18.032 L35.371,16.484 L35.411,14.935 L35.451,13.387 L35.491,11.839 L35.532,10.290 L35.572,8.742 L35.612,7.194 L35.652,5.645 L35.692,4.097 L35.732,2.548 L35.772,1.000 L35.754,1.700 L35.772,1.000 L35.754,1.700 L35.772,1.000 M35.190,49.000 L35.213,48.300 L35.190,49.000 L35.213,48.300 L35.190,49.000 L35.241,47.452 L35.293,45.903 L35.345,44.355 L35.396,42.806 L35.448,41.258 L35.500,39.710 L35.551,38.161 L35.603,36.613 L35.655,35.065 L35.706,33.516 L35.758,31.968 L35.810,30.419 L35.861,28.871 L35.913,27.323 L35.965,25.774 L36.016,24.226 L36.068,22.677 L36.120,21.129 L36.171,19.581 L36.223,18.032 L36.275,16.484 L36.327,14.935 L36.378,13.387 L36.430,11.839 L36.482,10.290 L36.533,8.742 L36.585,7.194 L36.637,5.645 L36.688,4.097 L36.740,2.548 L36.792,1.000 L36.768,1.700 L36.792,1.000 L36.768,1.700 L36.792,1.000 M35.864,49.000 L35.891,48.301 L35.864,49.000 L35.891,48.301 L35.864,49.000 L35.925,47.452 L35.986,45.903 L36.047,44.355 L36.107,42.806 L36.168,41.258 L36.229,39.710 L36.290,38.161 L36.351,36.613 L36.412,35.065 L36.473,33.516 L36.534,31.968 L36.595,30.419 L36.655,28.871 L36.716,27.323 L36.777,25.774 L36.838,24.226 L36.899,22.677 L36.960,21.129 L37.021,19.581 L37.082,18.032 L37.143,16.484 L37.203,14.935 L37.264,13.387 L37.325,11.839 L37.386,10.290 L37.447,8.742 L37.508,7.194 L37.569,5.645 L37.630,4.097 L37.690,2.548 L37.751,1.000 L37.724,1.699 L37.751,1.000 L37.724,1.699 L37.751,1.000 M36.556,49.000 L36.586,48.301 L36.556,49.000 L36.586,48.301 L36.556,49.000 L36.622,47.452 L36.689,45.903 L36.755,44.355 L36.822,42.806 L36.888,41.258 L36.955,39.710 L37.021,38.161 L37.088,36.613 L37.154,35.065 L37.221,33.516 L37.287,31.968 L37.354,30.419 L37.420,28.871 L37.487,27.323 L37.553,25.774 L37.620,24.226 L37.686,22.677 L37.753,21.129 L37.820,19.581 L37.886,18.032 L37.953,16.484 L38.019,14.935 L38.086,13.387 L38.152,11.839 L38.219,10.290 L38.285,8.742 L38.352,7.194 L38.418,5.645 L38.485,4.097 L38.551,2.548 L38.618,1.000 L38.588,1.699 L38.618,1.000 L38.588,1.699 L38.618,1.000 M37.268,49.000 L37.299,48.301 L37.268,49.000 L37.299,48.301 L37.268,49.000 L37.336,47.452 L37.403,45.903 L37.471,44.355 L37.539,42.806 L37.607,41.258 L37.674,39.710 L37.742,38.161 L37.810,36.613 L37.878,35.065 L37.945,33.516 L38.013,31.968 L38.081,30.419 L38.148,28.871 L38.216,27.323 L38.284,25.774 L38.352,24.226 L38.419,22.677 L38.487,21.129 L38.555,19.581 L38.623,18.032 L38.690,16.484 L38.758,14.935 L38.826,13.387 L38.893,11.839 L38.961,10.290 L39.029,8.742 L39.097,7.194 L39.164,5.645 L39.232,4.097 L39.300,2.548 L39.367,1.000 L39.337,1.699 L39.367,1.000 L39.337,1.699 L39.367,1.000 M38.002,49.000 L38.031,48.301 L38.002,49.000 L38.031,48.301 L38.002,49.000 L38.066,47.452 L38.131,45.903 L38.195,44.355 L38.259,42.806 L38.323,41.258 L38.388,39.710 L38.452,38.161 L38.516,36.613 L38.581,35.065 L38.645,33.516 L38.709,31.968 L38.773,30.419 L38.838,28.871 L38.902,27.323 L38.966,25.774 L39.030,24.226 L39.095,22.677 L39.159,21.129 L39.223,19.581 L39.287,18.032 L39.352,16.484 L39.416,14.935 L39.480,13.387 L39.544,11.839 L39.609,10.290 L39.673,8.742 L39.737,7.194 L39.802,5.645 L39.866,4.097 L39.930,2.548 L39.994,1.000 L39.965,1.699 L39.994,1.000 L39.965,1.699 L39.994,1.000 M38.757,49.000 L38.782,48.300 L38.757,49.000 L38.782,48.300 L38.757,49.000 L38.813,47.452 L38.870,45.903 L38.927,44.355 L38.983,42.806 L39.040,41.258 L39.096,39.710 L39.153,38.161 L39.209,36.613 L39.266,35.065 L39.323,33.516 L39.379,31.968 L39.436,30.419 L39.492,28.871 L39.549,27.323 L39.606,25.774 L39.662,24.226 L39.719,22.677 L39.775,21.129 L39.832,19.581 L39.888,18.032 L39.945,16.484 L40.002,14.935 L40.058,13.387 L40.115,11.839 L40.171,10.290 L40.228,8.742 L40.284,7.194 L40.341,5.645 L40.398,4.097 L40.454,2.548 L40.511,1.000 L40.485,1.700 L40.511,1.000 L40.485,1.700 L40.511,1.000 M39.529,49.000 L39.550,48.300 L39.529,49.000 L39.550,48.300 L39.529,49.000 L39.575,47.452 L39.621,45.903 L39.666,44.355 L39.712,42.806 L39.758,41.258 L39.803,39.710 L39.849,38.161 L39.895,36.613 L39.941,35.065 L39.986,33.516 L40.032,31.968 L40.078,30.419 L40.123,28.871 L40.169,27.323 L40.215,25.774 L40.260,24.226 L40.306,22.677 L40.352,21.129 L40.397,19.581 L40.443,18.032 L40.489,16.484 L40.535,14.935 L40.580,13.387 L40.626,11.839 L40.672,10.290 L40.717,8.742 L40.763,7.194 L40.809,5.645 L40.854,4.097 L40.900,2.548 L40.946,1.000 L40.925,1.700 L40.946,1.000 L40.925,1.700 L40.946,1.000 M40.316,49.000 L40.331,48.300 L40.316,49.000 L40.331,48.300 L40.316,49.000 L40.349,47.452 L40.383,45.903 L40.416,44.355 L40.449,42.806 L40.482,41.258 L40.515,39.710 L40.548,38.161 L40.581,36.613 L40.614,35.065 L40.647,33.516 L40.680,31.968 L40.713,30.419 L40.746,28.871 L40.779,27.323 L40.812,25.774 L40.845,24.226 L40.878,22.677 L40.911,21.129 L40.944,19.581 L40.977,18.032 L41.010,16.484 L41.043,14.935 L41.077,13.387 L41.110,11.839 L41.143,10.290 L41.176,8.742 L41.209,7.194 L41.242,5.645 L41.275,4.097 L41.308,2.548 L41.341,1.000 L41.326,1.700 L41.341,1.000 L41.326,1.700 L41.341,1.000 M41.121,49.000 L41.130,48.300 L41.121,49.000 L41.130,48.300 L41.121,49.000 L41.141,47.452 L41.161,45.903 L41.181,44.355 L41.201,42.806 L41.221,41.258 L41.241,39.710 L41.261,38.161 L41.281,36.613 L41.301,35.065 L41.321,33.516 L41.342,31.968 L41.362,30.419 L41.382,28.871 L41.402,27.323 L41.422,25.774 L41.442,24.226 L41.462,22.677 L41.482,21.129 L41.502,19.581 L41.522,18.032 L41.542,16.484 L41.563,14.935 L41.583,13.387 L41.603,11.839 L41.623,10.290 L41.643,8.742 L41.663,7.194 L41.683,5.645 L41.703,4.097 L41.723,2.548 L41.743,1.000 L41.734,1.700 L41.743,1.000 L41.734,1.700 L41.743,1.000 M41.952,49.000 L41.955,48.300 L41.952,49.000 L41.955,48.300 L41.952,49.000 L41.960,47.452 L41.968,45.903 L41.976,44.355 L41.984,42.806 L41.992,41.258 L42.000,39.710 L42.008,38.161 L42.016,36.613 L42.024,35.065 L42.032,33.516 L42.040,31.968 L42.048,30.419 L42.056,28.871 L42.064,27.323 L42.072,25.774 L42.080,24.226 L42.088,22.677 L42.096,21.129 L42.104,19.581 L42.112,18.032 L42.120,16.484 L42.128,14.935 L42.136,13.387 L42.144,11.839 L42.152,10.290 L42.160,8.742 L42.168,7.194 L42.176,5.645 L42.184,4.097 L42.192,2.548 L42.200,1.000 L42.196,1.700 L42.200,1.000 L42.196,1.700 L42.200,1.000 M42.820,49.000 L42.819,48.300 L42.820,49.000 L42.819,48.300 L42.820,49.000 L42.818,47.452 L42.815,45.903 L42.813,44.355 L42.811,42.806 L42.809,41.258 L42.806,39.710 L42.804,38.161 L42.802,36.613 L42.800,35.065 L42.797,33.516 L42.795,31.968 L42.793,30.419 L42.790,28.871 L42.788,27.323 L42.786,25.774 L42.784,24.226 L42.781,22.677 L42.779,21.129 L42.777,19.581 L42.775,18.032 L42.772,16.484 L42.770,14.935 L42.768,13.387 L42.765,11.839 L42.763,10.290 L42.761,8.742 L42.759,7.194 L42.756,5.645 L42.754,4.097 L42.752,2.548 L42.750,1.000 L42.751,1.700 L42.750,1.000 L42.751,1.700 L42.750,1.000 M43.729,49.000 L43.724,48.300 L43.729,49.000 L43.724,48.300 L43.729,49.000 L43.719,47.452 L43.709,45.903 L43.699,44.355 L43.689,42.806 L43.679,41.258 L43.669,39.710 L43.659,38.161 L43.649,36.613 L43.638,35.065 L43.628,33.516 L43.618,31.968 L43.608,30.419 L43.598,28.871 L43.588,27.323 L43.578,25.774 L43.568,24.226 L43.558,22.677 L43.548,21.129 L43.538,19.581 L43.528,18.032 L43.518,16.484 L43.508,14.935 L43.498,13.387 L43.488,11.839 L43.478,10.290 L43.468,8.742 L43.458,7.194 L43.448,5.645 L43.438,4.097 L43.428,2.548 L43.418,1.000 L43.422,1.700 L43.418,1.000 L43.422,1.700 L43.418,1.000 M44.673,49.000 L44.666,48.300 L44.673,49.000 L44.666,48.300 L44.673,49.000 L44.658,47.452 L44.643,45.903 L44.628,44.355 L44.613,42.806 L44.599,41.258 L44.584,39.710 L44.569,38.161 L44.554,36.613 L44.539,35.065 L44.524,33.516 L44.509,31.968 L44.494,30.419 L44.480,28.871 L44.465,27.323 L44.450,25.774 L44.435,24.226 L44.420,22.677 L44.405,21.129 L44.390,19.581 L44.375,18.032 L44.360,16.484 L44.346,14.935 L44.331,13.387 L44.316,11.839 L44.301,10.290 L44.286,8.742 L44.271,7.194 L44.256,5.645 L44.241,4.097 L44.227,2.548 L44.212,1.000 L44.218,1.700 L44.212,1.000 L44.218,1.700 L44.212,1.000 M45.639,49.000 L45.632,48.300 L45.639,49.000 L45.632,48.300 L45.639,49.000 L45.622,47.452 L45.606,45.903 L45.589,44.355 L45.572,42.806 L45.556,41.258 L45.539,39.710 L45.522,38.161 L45.506,36.613 L45.489,35.065 L45.472,33.516 L45.456,31.968 L45.439,30.419 L45.422,28.871 L45.406,27.323 L45.389,25.774 L45.372,24.226 L45.356,22.677 L45.339,21.129 L45.322,19.581 L45.305,18.032 L45.289,16.484 L45.272,14.935 L45.255,13.387 L45.239,11.839 L45.222,10.290 L45.205,8.742 L45.189,7.194 L45.172,5.645 L45.155,4.097 L45.139,2.548 L45.122,1.000 L45.130,1.700 L45.122,1.000 L45.130,1.700 L45.122,1.000 M46.608,49.000 L46.601,48.300 L46.608,49.000 L46.601,48.300 L46.608,49.000 L46.592,47.452 L46.577,45.903 L46.561,44.355 L46.546,42.806 L46.530,41.258 L46.515,39.710 L46.499,38.161 L46.483,36.613 L46.468,35.065 L46.452,33.516 L46.437,31.968 L46.421,30.419 L46.406,28.871 L46.390,27.323 L46.374,25.774 L46.359,24.226 L46.343,22.677 L46.328,21.129 L46.312,19.581 L46.297,18.032 L46.281,16.484 L46.265,14.935 L46.250,13.387 L46.234,11.839 L46.219,10.290 L46.203,8.742 L46.188,7.194 L46.172,5.645 L46.156,4.097 L46.141,2.548 L46.125,1.000 L46.132,1.700 L46.125,1.000 L46.132,1.700 L46.125,1.000 M47.558,49.000 L47.553,48.300 L47.558,49.000 L47.553,48.300 L47.558,49.000 L47.546,47.452 L47.534,45.903 L47.523,44.355 L47.511,42.806 L47.499,41.258 L47.487,39.710 L47.476,38.161 L47.464,36.613 L47.452,35.065 L47.440,33.516 L47.429,31.968 L47.417,30.419 L47.405,28.871 L47.393,27.323 L47.382,25.774 L47.370,24.226 L47.358,22.677 L47.346,21.129 L47.335,19.581 L47.323,18.032 L47.311,16.484 L47.299,14.935 L47.288,13.387 L47.276,11.839 L47.264,10.290 L47.252,8.742 L47.241,7.194 L47.229,5.645 L47.217,4.097 L47.205,2.548 L47.194,1.000 L47.199,1.700 L47.194,1.000 L47.199,1.700 L47.194,1.000 M48.469,49.000 L48.466,48.300 L48.469,49.000 L48.466,48.300 L48.469,49.000 L48.463,47.452 L48.458,45.903 L48.452,44.355 L48.447,42.806 L48.441,41.258 L48.436,39.710 L48.430,38.161 L48.425,36.613 L48.420,35.065 L48.414,33.516 L48.409,31.968 L48.403,30.419 L48.398,28.871 L48.392,27.323 L48.387,25.774 L48.382,24.226 L48.376,22.677 L48.371,21.129 L48.365,19.581 L48.360,18.032 L48.354,16.484 L48.349,14.935 L48.343,13.387 L48.338,11.839 L48.333,10.290 L48.327,8.742 L48.322,7.194 L48.316,5.645 L48.311,4.097 L48.305,2.548 L48.300,1.000 L48.302,1.700 L48.300,1.000 L48.302,1.700 L48.300,1.000 M49.324,49.000 L49.325,48.300 L49.324,49.000 L49.325,48.300 L49.324,49.000 L49.326,47.452 L49.329,45.903 L49.332,44.355 L49.335,42.806 L49.338,41.258 L49.341,39.710 L49.344,38.161 L49.347,36.613 L49.350,35.065 L49.353,33.516 L49.356,31.968 L49.358,30.419 L49.361,28.871 L49.364,27.323 L49.367,25.774 L49.370,24.226 L49.373,22.677 L49.376,21.129 L49.379,19.581 L49.382,18.032 L49.385,16.484 L49.388,14.935 L49.391,13.387 L49.393,11.839 L49.396,10.290 L49.399,8.742 L49.402,7.194 L49.405,5.645 L49.408,4.097 L49.411,2.548 L49.414,1.000 L49.413,1.700 L49.414,1.000 L49.413,1.700 L49.414,1.000 M50.114,49.000 L50.120,48.300 L50.114,49.000 L50.120,48.300 L50.114,49.000 L50.127,47.452 L50.140,45.903 L50.152,44.355 L50.165,42.806 L50.177,41.258 L50.190,39.710 L50.202,38.161 L50.215,36.613 L50.228,35.065 L50.240,33.516 L50.253,31.968 L50.265,30.419 L50.278,28.871 L50.291,27.323 L50.303,25.774 L50.316,24.226 L50.328,22.677 L50.341,21.129 L50.353,19.581 L50.366,18.032 L50.379,16.484 L50.391,14.935 L50.404,13.387 L50.416,11.839 L50.429,10.290 L50.442,8.742 L50.454,7.194 L50.467,5.645 L50.479,4.097 L50.492,2.548 L50.504,1.000 L50.499,1.700 L50.504,1.000 L50.499,1.700 L50.504,1.000 M50.843,49.000 L50.853,48.300 L50.843,49.000 L50.853,48.300 L50.843,49.000 L50.865,47.452 L50.888,45.903 L50.910,44.355 L50.933,42.806 L50.955,41.258 L50.978,39.710 L51.001,38.161 L51.023,36.613 L51.046,35.065 L51.068,33.516 L51.091,31.968 L51.114,30.419 L51.136,28.871 L51.159,27.323 L51.181,25.774 L51.204,24.226 L51.227,22.677 L51.249,21.129 L51.272,19.581 L51.294,18.032 L51.317,16.484 L51.340,14.935 L51.362,13.387 L51.385,11.839 L51.407,10.290 L51.430,8.742 L51.453,7.194 L51.475,5.645 L51.498,4.097 L51.520,2.548 L51.543,1.000 L51.533,1.700 L51.543,1.000 L51.533,1.700 L51.543,1.000 M51.516,49.000 L51.531,48.300 L51.516,49.000 L51.531,48.300 L51.516,49.000 L51.548,47.452 L51.580,45.903 L51.612,44.355 L51.644,42.806 L51.676,41.258 L51.708,39.710 L51.739,38.161 L51.771,36.613 L51.803,35.065 L51.835,33.516 L51.867,31.968 L51.899,30.419 L51.931,28.871 L51.963,27.323 L51.995,25.774 L52.027,24.226 L52.058,22.677 L52.090,21.129 L52.122,19.581 L52.154,18.032 L52.186,16.484 L52.218,14.935 L52.250,13.387 L52.282,11.839 L52.314,10.290 L52.346,8.742 L52.378,7.194 L52.409,5.645 L52.441,4.097 L52.473,2.548 L52.505,1.000 L52.491,1.700 L52.505,1.000 L52.491,1.700 L52.505,1.000 M52.146,49.000 L52.164,48.300 L52.146,49.000 L52.164,48.300 L52.146,49.000 L52.185,47.452 L52.225,45.903 L52.265,44.355 L52.305,42.806 L52.344,41.258 L52.384,39.710 L52.424,38.161 L52.464,36.613 L52.503,35.065 L52.543,33.516 L52.583,31.968 L52.622,30.419 L52.662,28.871 L52.702,27.323 L52.742,25.774 L52.781,24.226 L52.821,22.677 L52.861,21.129 L52.901,19.581 L52.940,18.032 L52.980,16.484 L53.020,14.935 L53.059,13.387 L53.099,11.839 L53.139,10.290 L53.179,8.742 L53.218,7.194 L53.258,5.645 L53.298,4.097 L53.338,2.548 L53.377,1.000 L53.359,1.700 L53.377,1.000 L53.359,1.700 L53.377,1.000 M52.744,49.000 L52.765,48.300 L52.744,49.000 L52.765,48.300 L52.744,49.000 L52.790,47.452 L52.836,45.903 L52.881,44.355 L52.927,42.806 L52.973,41.258 L53.019,39.710 L53.065,38.161 L53.111,36.613 L53.157,35.065 L53.203,33.516 L53.248,31.968 L53.294,30.419 L53.340,28.871 L53.386,27.323 L53.432,25.774 L53.478,24.226 L53.524,22.677 L53.569,21.129 L53.615,19.581 L53.661,18.032 L53.707,16.484 L53.753,14.935 L53.799,13.387 L53.845,11.839 L53.891,10.290 L53.936,8.742 L53.982,7.194 L54.028,5.645 L54.074,4.097 L54.120,2.548 L54.166,1.000 L54.145,1.700 L54.166,1.000 L54.145,1.700 L54.166,1.000 M53.325,49.000 L53.348,48.300 L53.325,49.000 L53.348,48.300 L53.325,49.000 L53.376,47.452 L53.427,45.903 L53.477,44.355 L53.528,42.806 L53.579,41.258 L53.629,39.710 L53.680,38.161 L53.730,36.613 L53.781,35.065 L53.832,33.516 L53.882,31.968 L53.933,30.419 L53.984,28.871 L54.034,27.323 L54.085,25.774 L54.135,24.226 L54.186,22.677 L54.237,21.129 L54.287,19.581 L54.338,18.032 L54.389,16.484 L54.439,14.935 L54.490,13.387 L54.540,11.839 L54.591,10.290 L54.642,8.742 L54.692,7.194 L54.743,5.645 L54.794,4.097 L54.844,2.548 L54.895,1.000 L54.872,1.700 L54.895,1.000 L54.872,1.700 L54.895,1.000 M53.907,49.000 L53.932,48.300 L53.907,49.000 L53.932,48.300 L53.907,49.000 L53.962,47.452 L54.016,45.903 L54.071,44.355 L54.125,42.806 L54.180,41.258 L54.234,39.710 L54.288,38.161 L54.343,36.613 L54.397,35.065 L54.452,33.516 L54.506,31.968 L54.561,30.419 L54.615,28.871 L54.669,27.323 L54.724,25.774 L54.778,24.226 L54.833,22.677 L54.887,21.129 L54.942,19.581 L54.996,18.032 L55.050,16.484 L55.105,14.935 L55.159,13.387 L55.214,11.839 L55.268,10.290 L55.323,8.742 L55.377,7.194 L55.431,5.645 L55.486,4.097 L55.540,2.548 L55.595,1.000 L55.570,1.700 L55.595,1.000 L55.570,1.700 L55.595,1.000 M54.512,49.000 L54.538,48.300 L54.512,49.000 L54.538,48.300 L54.512,49.000 L54.569,47.452 L54.627,45.903 L54.684,44.355 L54.742,42.806 L54.799,41.258 L54.857,39.710 L54.914,38.161 L54.972,36.613 L55.029,35.065 L55.087,33.516 L55.144,31.968 L55.202,30.419 L55.259,28.871 L55.317,27.323 L55.374,25.774 L55.432,24.226 L55.489,22.677 L55.547,21.129 L55.604,19.581 L55.662,18.032 L55.719,16.484 L55.777,14.935 L55.834,13.387 L55.892,11.839 L55.949,10.290 L56.007,8.742 L56.064,7.194 L56.122,5.645 L56.179,4.097 L56.237,2.548 L56.295,1.000 L56.269,1.700 L56.295,1.000 L56.269,1.700 L56.295,1.000 M55.163,49.000 L55.190,48.301 L55.163,49.000 L55.190,48.301 L55.163,49.000 L55.222,47.452 L55.282,45.903 L55.342,44.355 L55.402,42.806 L55.462,41.258 L55.521,39.710 L55.581,38.161 L55.641,36.613 L55.701,35.065 L55.761,33.516 L55.820,31.968 L55.880,30.419 L55.940,28.871 L56.000,27.323 L56.060,25.774 L56.120,24.226 L56.179,22.677 L56.239,21.129 L56.299,19.581 L56.359,18.032 L56.419,16.484 L56.478,14.935 L56.538,13.387 L56.598,11.839 L56.658,10.290 L56.718,8.742 L56.778,7.194 L56.837,5.645 L56.897,4.097 L56.957,2.548 L57.017,1.000 L56.990,1.699 L57.017,1.000 L56.990,1.699 L57.017,1.000 M55.880,49.000 L55.908,48.301 L55.880,49.000 L55.908,48.301 L55.880,49.000 L55.941,47.452 L56.002,45.903 L56.063,44.355 L56.125,42.806 L56.186,41.258 L56.247,39.710 L56.308,38.161 L56.369,36.613 L56.431,35.065 L56.492,33.516 L56.553,31.968 L56.614,30.419 L56.675,28.871 L56.736,27.323 L56.798,25.774 L56.859,24.226 L56.920,22.677 L56.981,21.129 L57.042,19.581 L57.103,18.032 L57.165,16.484 L57.226,14.935 L57.287,13.387 L57.348,11.839 L57.409,10.290 L57.470,8.742 L57.532,7.194 L57.593,5.645 L57.654,4.097 L57.715,2.548 L57.776,1.000 L57.749,1.699 L57.776,1.000 L57.749,1.699 L57.776,1.000 M56.677,49.000 L56.705,48.301 L56.677,49.000 L56.705,48.301 L56.677,49.000 L56.738,47.452 L56.800,45.903 L56.861,44.355 L56.922,42.806 L56.984,41.258 L57.045,39.710 L57.106,38.161 L57.168,36.613 L57.229,35.065 L57.290,33.516 L57.352,31.968 L57.413,30.419 L57.475,28.871 L57.536,27.323 L57.597,25.774 L57.659,24.226 L57.720,22.677 L57.781,21.129 L57.843,19.581 L57.904,18.032 L57.965,16.484 L58.027,14.935 L58.088,13.387 L58.149,11.839 L58.211,10.290 L58.272,8.742 L58.333,7.194 L58.395,5.645 L58.456,4.097 L58.518,2.548 L58.579,1.000 L58.551,1.699 L58.579,1.000 L58.551,1.699 L58.579,1.000 M57.558,49.000 L57.585,48.301 L57.558,49.000 L57.585,48.301 L57.558,49.000 L57.618,47.452 L57.678,45.903 L57.738,44.355 L57.798,42.806 L57.858,41.258 L57.918,39.710 L57.978,38.161 L58.039,36.613 L58.099,35.065 L58.159,33.516 L58.219,31.968 L58.279,30.419 L58.339,28.871 L58.399,27.323 L58.459,25.774 L58.519,24.226 L58.580,22.677 L58.640,21.129 L58.700,19.581 L58.760,18.032 L58.820,16.484 L58.880,14.935 L58.940,13.387 L59.000,11.839 L59.060,10.290 L59.120,8.742 L59.181,7.194 L59.241,5.645 L59.301,4.097 L59.361,2.548 L59.421,1.000 L59.394,1.699 L59.421,1.000 L59.394,1.699 L59.421,1.000 M58.518,49.000 L58.544,48.300 L58.518,49.000 L58.544,48.300 L58.518,49.000 L58.575,47.452 L58.632,45.903 L58.689,44.355 L58.747,42.806 L58.804,41.258 L58.861,39.710 L58.918,38.161 L58.975,36.613 L59.032,35.065 L59.090,33.516 L59.147,31.968 L59.204,30.419 L59.261,28.871 L59.318,27.323 L59.376,25.774 L59.433,24.226 L59.490,22.677 L59.547,21.129 L59.604,19.581 L59.661,18.032 L59.719,16.484 L59.776,14.935 L59.833,13.387 L59.890,11.839 L59.947,10.290 L60.004,8.742 L60.062,7.194 L60.119,5.645 L60.176,4.097 L60.233,2.548 L60.290,1.000 L60.265,1.700 L60.290,1.000 L60.265,1.700 L60.290,1.000 M59.544,49.000 L59.568,48.300 L59.544,49.000 L59.568,48.300 L59.544,49.000 L59.597,47.452 L59.649,45.903 L59.701,44.355 L59.754,42.806 L59.806,41.258 L59.858,39.710 L59.911,38.161 L59.963,36.613 L60.015,35.065 L60.068,33.516 L60.120,31.968 L60.172,30.419 L60.225,28.871 L60.277,27.323 L60.329,25.774 L60.382,24.226 L60.434,22.677 L60.486,21.129 L60.539,19.581 L60.591,18.032 L60.643,16.484 L60.696,14.935 L60.748,13.387 L60.800,11.839 L60.853,10.290 L60.905,8.742 L60.958,7.194 L61.010,5.645 L61.062,4.097 L61.115,2.548 L61.167,1.000 L61.143,1.700 L61.167,1.000 L61.143,1.700 L61.167,1.000 M60.618,49.000 L60.638,48.300 L60.618,49.000 L60.638,48.300 L60.618,49.000 L60.663,47.452 L60.708,45.903 L60.754,44.355 L60.799,42.806 L60.845,41.258 L60.890,39.710 L60.935,38.161 L60.981,36.613 L61.026,35.065 L61.071,33.516 L61.117,31.968 L61.162,30.419 L61.208,28.871 L61.253,27.323 L61.298,25.774 L61.344,24.226 L61.389,22.677 L61.434,21.129 L61.480,19.581 L61.525,18.032 L61.571,16.484 L61.616,14.935 L61.661,13.387 L61.707,11.839 L61.752,10.290 L61.798,8.742 L61.843,7.194 L61.888,5.645 L61.934,4.097 L61.979,2.548 L62.024,1.000 L62.004,1.700 L62.024,1.000 L62.004,1.700 L62.024,1.000 M61.715,49.000 L61.731,48.300 L61.715,49.000 L61.731,48.300 L61.715,49.000 L61.751,47.452 L61.787,45.903 L61.823,44.355 L61.859,42.806 L61.896,41.258 L61.932,39.710 L61.968,38.161 L62.004,36.613 L62.040,35.065 L62.076,33.516 L62.112,31.968 L62.148,30.419 L62.185,28.871 L62.221,27.323 L62.257,25.774 L62.293,24.226 L62.329,22.677 L62.365,21.129 L62.401,19.581 L62.437,18.032 L62.474,16.484 L62.510,14.935 L62.546,13.387 L62.582,11.839 L62.618,10.290 L62.654,8.742 L62.690,7.194 L62.726,5.645 L62.763,4.097 L62.799,2.548 L62.835,1.000 L62.818,1.700 L62.835,1.000 L62.818,1.700 L62.835,1.000"/>
</svg>
