<svg xmlns="http://www.w3.org/2000/svg" viewBox="0 -7.433 77.438 77.438" width="256" height="256">
  <title>waves</title>
  <rect x="0" y="-7.433" width="77.438" height="77.438" fill="#f5efe4"/>
  <path fill="none" stroke="#c8472f" stroke-width="0.4" stroke-linecap="round" stroke-linejoin="round" d="M76.438,54.737 L76.438,54.737 L76.438,55.837 L76.247,56.920 L75.871,57.953 L75.321,58.906 L74.614,59.749 L73.771,60.456 L72.819,61.006 L71.785,61.382 L70.702,61.573 L69.602,61.573 L68.519,61.382 L67.485,61.006 L66.532,60.456 L65.690,59.749 L64.983,58.906 L64.433,57.953 L64.056,56.920 L63.865,55.837 L63.865,54.737 L63.674,53.653 L63.298,52.620 L62.748,51.667 L62.041,50.824 L61.198,50.117 L60.246,49.567 L59.212,49.191 L58.129,49.000 L57.029,49.000 L55.945,49.191 L54.912,49.567 L53.959,50.117 L53.117,50.824 L52.409,51.667 L51.859,52.620 L51.483,53.653 L51.292,54.737 L51.292,55.837 L51.101,56.920 L50.725,57.953 L50.175,58.906 L49.468,59.749 L48.625,60.456 L47.673,61.006 L46.639,61.382 L45.556,61.573 L44.456,61.573 L43.372,61.382 L42.339,61.006 L41.386,60.456 L40.543,59.749 L39.836,58.906 L39.286,57.953 L38.910,56.920 L38.719,55.837 L38.719,54.737 L38.528,53.653 L38.152,52.620 L37.602,51.667 L36.895,50.824 L36.052,50.117 L35.100,49.567 L34.066,49.191 L32.983,49.000 L31.883,49.000 L30.799,49.191 L29.766,49.567 L28.813,50.117 L27.970,50.824 L27.263,51.667 L26.713,52.620 L26.337,53.653 L26.146,54.737 L26.146,55.837 L25.955,56.920 L25.579,57.953 L25.029,58.906 L24.322,59.749 L23.479,60.456 L22.527,61.006 L21.493,61.382 L20.410,61.573 L19.310,61.573 L18.226,61.382 L17.193,61.006 L16.240,60.456 L15.397,59.749 L14.690,58.906 L14.140,57.953 L13.764,56.920 L13.573,55.837 L13.573,54.737 L13.382,53.653 L13.006,52.620 L12.456,51.667 L11.749,50.824 L10.906,50.117 L9.953,49.567 L8.920,49.191 L7.837,49.000 L6.737,49.000 L5.653,49.191 L4.620,49.567 L3.667,50.117 L2.824,50.824 L2.117,51.667 L1.567,52.620 L1.191,53.653 L1.000,54.737 L1.122,54.047 L1.000,54.737 L1.122,54.047 L1.000,54.737 M76.438,38.737 L76.438,39.437 L76.438,38.737 L76.438,39.437 L76.438,38.737 L76.438,39.837 L76.247,40.920 L75.871,41.953 L75.321,42.906 L74.614,43.749 L73.771,44.456 L72.819,45.006 L71.785,45.382 L70.702,45.573 L69.602,45.573 L68.519,45.382 L67.485,45.006 L66.532,44.456 L65.690,43.749 L64.983,42.906 L64.433,41.953 L64.056,40.920 L63.865,39.837 L63.865,38.737 L63.674,37.653 L63.298,36.620 L62.748,35.667 L62.041,34.824 L61.198,34.117 L60.246,33.567 L59.212,33.191 L58.129,33.000 L57.029,33.000 L55.945,33.191 L54.912,33.567 L53.959,34.117 L53.117,34.824 L52.409,35.667 L51.859,36.620 L51.483,37.653 L51.292,38.737 L51.292,39.837 L51.101,40.920 L50.725,41.953 L50.175,42.906 L49.468,43.749 L48.625,44.456 L47.673,45.006 L46.639,45.382 L45.556,45.573 L44.456,45.573 L43.372,45.382 L42.339,45.006 L41.386,44.456 L40.543,43.749 L39.836,42.906 L39.286,41.953 L38.910,40.920 L38.719,39.837 L38.719,38.737 L38.528,37.653 L38.152,36.620 L37.602,35.667 L36.895,34.824 L36.052,34.117 L35.100,33.567 L34.066,33.191 L32.983,33.000 L31.883,33.000 L30.799,33.191 L29.766,33.567 L28.813,34.117 L27.970,34.824 L27.263,35.667 L26.713,36.620 L26.337,37.653 L26.146,38.737 L26.146,39.837 L25.955,40.920 L25.579,41.953 L25.029,42.906 L24.322,43.749 L23.479,44.456 L22.527,45.006 L21.493,45.382 L20.410,45.573 L19.310,45.573 L18.226,45.382 L17.193,45.006 L16.240,44.456 L15.397,43.749 L14.690,42.906 L14.140,41.953 L13.764,40.920 L13.573,39.837 L13.573,38.737 L13.382,37.653 L13.006,36.620 L12.456,35.667 L11.749,34.824 L10.906,34.117 L9.953,33.567 L8.920,33.191 L7.837,33.000 L6.737,33.000 L5.653,33.191 L4.620,33.567 L3.667,34.117 L2.824,34.824 L2.117,35.667 L1.567,36.620 L1.191,37.653 L1.000,38.737 L1.122,38.047 L1.000,38.737 L1.122,38.047 L1.000,38.737 M76.438,22.737 L76.438,23.437 L76.438,22.737 L76.438,23.437 L76.438,22.737 L76.438,23.837 L76.247,24.920 L75.871,25.953 L75.321,26.906 L74.614,27.749 L73.771,28.456 L72.819,29.006 L71.785,29.382 L70.702,29.573 L69.602,29.573 L68.519,29.382 L67.485,29.006 L66.532,28.456 L65.690,27.749 L64.983,26.906 L64.433,25.953 L64.056,24.920 L63.865,23.837 L63.865,22.737 L63.674,21.653 L63.298,20.620 L62.748,19.667 L62.041,18.824 L61.198,18.117 L60.246,17.567 L59.212,17.191 L58.129,17.000 L57.029,17.000 L55.945,17.191 L54.912,17.567 L53.959,18.117 L53.117,18.824 L52.409,19.667 L51.859,20.620 L51.483,21.653 L51.292,22.737 L51.292,23.837 L51.101,24.920 L50.725,25.953 L50.175,26.906 L49.468,27.749 L48.625,28.456 L47.673,29.006 L46.639,29.382 L45.556,29.573 L44.456,29.573 L43.372,29.382 L42.339,29.006 L41.386,28.456 L40.543,27.749 L39.836,26.906 L39.286,25.953 L38.910,24.920 L38.719,23.837 L38.719,22.737 L38.528,21.653 L38.152,20.620 L37.602,19.667 L36.895,18.824 L36.052,18.117 L35.100,17.567 L34.066,17.191 L32.983,17.000 L31.883,17.000 L30.799,17.191 L29.766,17.567 L28.813,18.117 L27.970,18.824 L27.263,19.667 L26.713,20.620 L26.337,21.653 L26.146,22.737 L26.146,23.837 L25.955,24.920 L25.579,25.953 L25.029,26.906 L24.322,27.749 L23.479,28.456 L22.527,29.006 L21.493,29.382 L20.410,29.573 L19.310,29.573 L18.226,29.382 L17.193,29.006 L16.240,28.456 L15.397,27.749 L14.690,26.906 L14.140,25.953 L13.764,24.920 L13.573,23.837 L13.573,22.737 L13.382,21.653 L13.006,20.620 L12.456,19.667 L11.749,18.824 L10.906,18.117 L9.953,17.567 L8.920,17.191 L7.837,17.000 L6.737,17.000 L5.653,17.191 L4.620,17.567 L3.667,18.117 L2.824,18.824 L2.117,19.667 L1.567,20.620 L1.191,21.653 L1.000,22.737 L1.122,22.047 L1.000,22.737 L1.122,22.047 L1.000,22.737 M76.438,6.737 L76.438,7.437 L76.438,6.737 L76.438,7.437 L76.438,6.737 L76.438,7.837 L76.247,8.920 L75.871,9.953 L75.321,10.906 L74.614,11.749 L73.771,12.456 L72.819,13.006 L71.785,13.382 L70.702,13.573 L69.602,13.573 L68.519,13.382 L67.485,13.006 L66.532,12.456 L65.690,11.749 L64.983,10.906 L64.433,9.953 L64.056,8.920 L63.865,7.837 L63.865,6.737 L63.674,5.653 L63.298,4.620 L62.748,3.667 L62.041,2.824 L61.198,2.117 L60.246,1.567 L59.212,1.191 L58.129,1.000 L57.029,1.000 L55.945,1.191 L54.912,1.567 L53.959,2.117 L53.117,2.824 L52.409,3.667 L51.859,4.620 L51.483,5.653 L51.292,6.737 L51.292,7.837 L51.101,8.920 L50.725,9.953 L50.175,10.906 L49.468,11.749 L48.625,12.456 L47.673,13.006 L46.639,13.382 L45.556,13.573 L44.456,13.573 L43.372,13.382 L42.339,13.006 L41.386,12.456 L40.543,11.749 L39.836,10.906 L39.286,9.953 L38.910,8.920 L38.719,7.837 L38.719,6.737 L38.528,5.653 L38.152,4.620 L37.602,3.667 L36.895,2.824 L36.052,2.117 L35.100,1.567 L34.066,1.191 L32.983,1.000 L31.883,1.000 L30.799,1.191 L29.766,1.567 L28.813,2.117 L27.970,2.824 L27.263,3.667 L26.713,4.620 L26.337,5.653 L26.146,6.737 L26.146,7.837 L25.955,8.920 L25.579,9.953 L25.029,10.906 L24.322,11.749 L23.479,12.456 L22.527,13.006 L21.493,13.382 L20.410,13.573 L19.310,13.573 L18.226,13.382 L17.193,13.006 L16.240,12.456 L15.397,11.749 L14.690,10.906 L14.140,9.953 L13.764,8.920 L13.573,7.837 L13.573,6.737 L13.382,5.653 L13.006,4.620 L12.456,3.667 L11.749,2.824 L10.906,2.117 L9.953,1.567 L8.920,1.191 L7.837,1.000 L6.737,1.000 L5.653,1.191 L4.620,1.567 L3.667,2.117 L2.824,2.824 L2.117,3.667 L1.567,4.620 L1.191,5.653 L1.000,6.737 L1.122,6.047 L1.000,6.737 L1.122,6.047 L1.000,6.737"/>
</svg>
