<svg xmlns="http://www.w3.org/2000/svg" viewBox="0 -4.73 86.8 86.8" width="256" height="256">
  <title>wavefront</title>
  <rect x="0" y="-4.73" width="86.8" height="86.8" fill="#f5efe4"/>
  <path fill="none" stroke="#31604f" stroke-width="0.4" stroke-linecap="round" stroke-linejoin="round" d="M19.775,6.056 L19.775,6.056 L20.575,5.215 L21.375,4.280 L22.175,3.335 L22.975,2.468 L23.775,1.754 L24.575,1.253 L25.375,1.000 L26.175,1.000 L26.975,1.233 L27.775,1.654 L28.575,2.201 L29.375,2.805 L30.175,3.397 L30.975,3.918 L31.775,4.325 L32.575,4.597 L33.375,4.731 L34.175,4.746 L34.975,4.673 L35.775,4.550 L36.575,4.415 L37.375,4.299 L38.175,4.220 L38.975,4.184 L39.775,4.180 L40.575,4.180 L41.375,4.180 L42.175,4.180 L42.975,4.180 L43.775,4.180 L44.575,4.180 L45.375,4.180 L46.175,4.180 L46.975,4.180 L47.775,4.180 L48.575,4.180 L49.375,4.180 L50.175,4.180 L50.975,4.180 L51.775,4.180 L52.575,4.180 L53.375,4.180 L54.175,4.180 L54.975,4.180 L55.775,4.180 L56.575,4.180 L57.375,4.180 L58.175,4.180 L58.975,4.180 L59.775,4.180 L60.575,4.180 L61.375,4.180 L62.175,4.180 L62.975,4.180 L63.775,4.180 L64.575,4.180 L65.375,4.180 L66.175,4.180 L66.975,4.180 L66.275,4.180 L66.975,4.180 L66.275,4.180 L66.975,4.180 M15.061,8.216 L15.650,8.596 L15.061,8.216 L15.650,8.596 L15.061,8.216 L15.861,8.732 L16.661,9.322 L17.461,9.927 L18.261,10.478 L19.061,10.907 L19.861,11.150 L20.661,11.163 L21.461,10.922 L22.261,10.433 L23.061,9.729 L23.861,8.867 L24.661,7.924 L25.461,6.986 L26.261,6.139 L27.061,5.456 L27.861,4.993 L28.661,4.781 L29.461,4.821 L30.261,5.087 L31.061,5.533 L31.861,6.094 L32.661,6.700 L33.461,7.284 L34.261,7.789 L35.061,8.176 L35.861,8.425 L36.661,8.539 L37.461,8.537 L38.261,8.454 L39.061,8.326 L39.861,8.192 L40.661,8.081 L41.461,8.010 L42.261,7.980 L43.061,7.977 L43.861,7.977 L44.661,7.977 L45.461,7.977 L46.261,7.977 L47.061,7.977 L47.861,7.977 L48.661,7.977 L49.461,7.977 L50.261,7.977 L51.061,7.977 L51.861,7.977 L52.661,7.977 L53.461,7.977 L54.261,7.977 L55.061,7.977 L55.861,7.977 L56.661,7.977 L57.461,7.977 L58.261,7.977 L59.061,7.977 L59.861,7.977 L60.661,7.977 L61.461,7.977 L62.261,7.977 L63.061,7.977 L63.861,7.977 L64.661,7.977 L65.461,7.977 L66.261,7.977 L67.061,7.977 L67.861,7.977 L68.661,7.977 L69.461,7.977 L70.261,7.977 L71.061,7.977 L71.857,7.977 L71.157,7.977 L71.857,7.977 L71.157,7.977 L71.857,7.977 M11.423,11.704 L12.118,11.620 L11.423,11.704 L12.118,11.620 L11.423,11.704 L12.223,11.607 L13.023,11.479 L13.823,11.345 L14.623,11.240 L15.423,11.202 L16.223,11.269 L17.023,11.465 L17.823,11.799 L18.623,12.263 L19.423,12.822 L20.223,13.427 L21.023,14.014 L21.823,14.512 L22.623,14.854 L23.423,14.985 L24.223,14.871 L25.023,14.503 L25.823,13.899 L26.623,13.107 L27.423,12.194 L28.223,11.243 L29.023,10.340 L29.823,9.567 L30.623,8.990 L31.423,8.652 L32.223,8.569 L33.023,8.728 L33.823,9.092 L34.623,9.604 L35.423,10.197 L36.223,10.800 L37.023,11.350 L37.823,11.799 L38.623,12.117 L39.423,12.296 L40.223,12.349 L41.023,12.301 L41.823,12.190 L42.623,12.055 L43.423,11.930 L44.223,11.838 L45.023,11.788 L45.823,11.775 L46.623,11.775 L47.423,11.775 L48.223,11.775 L49.023,11.775 L49.823,11.775 L50.623,11.775 L51.423,11.775 L52.223,11.775 L53.023,11.775 L53.823,11.775 L54.623,11.775 L55.423,11.775 L56.223,11.775 L57.023,11.775 L57.823,11.775 L58.623,11.775 L59.423,11.775 L60.223,11.775 L61.023,11.775 L61.823,11.775 L62.623,11.775 L63.423,11.775 L64.223,11.775 L65.023,11.775 L65.823,11.775 L66.623,11.775 L67.423,11.775 L68.223,11.775 L69.023,11.775 L69.823,11.775 L70.623,11.775 L71.423,11.775 L72.223,11.775 L73.023,11.775 L73.823,11.775 L74.623,11.775 L75.423,11.775 L74.723,11.775 L75.423,11.775 L74.723,11.775 L75.423,11.775 M8.537,15.573 L9.237,15.573 L8.537,15.573 L9.237,15.573 L8.537,15.573 L9.337,15.573 L10.137,15.573 L10.937,15.573 L11.737,15.573 L12.537,15.573 L13.337,15.570 L14.137,15.538 L14.937,15.464 L15.737,15.351 L16.537,15.216 L17.337,15.090 L18.137,15.010 L18.937,15.015 L19.737,15.137 L20.537,15.394 L21.337,15.789 L22.137,16.300 L22.937,16.887 L23.737,17.493 L24.537,18.049 L25.337,18.485 L26.137,18.739 L26.937,18.764 L27.737,18.536 L28.537,18.059 L29.337,17.364 L30.137,16.509 L30.937,15.568 L31.737,14.628 L32.537,13.774 L33.337,13.081 L34.137,12.607 L34.937,12.381 L35.737,12.409 L36.537,12.665 L37.337,13.103 L38.137,13.660 L38.937,14.266 L39.737,14.852 L40.537,15.362 L41.337,15.755 L42.137,16.012 L42.937,16.132 L43.737,16.136 L44.537,16.055 L45.337,15.929 L46.137,15.795 L46.937,15.682 L47.737,15.608 L48.537,15.576 L49.337,15.573 L50.137,15.573 L50.937,15.573 L51.737,15.573 L52.537,15.573 L53.337,15.573 L54.137,15.573 L54.937,15.573 L55.737,15.573 L56.537,15.573 L57.337,15.573 L58.137,15.573 L58.937,15.573 L59.737,15.573 L60.537,15.573 L61.337,15.573 L62.137,15.573 L62.937,15.573 L63.737,15.573 L64.537,15.573 L65.337,15.573 L66.137,15.573 L66.937,15.573 L67.737,15.573 L68.537,15.573 L69.337,15.573 L70.137,15.573 L70.937,15.573 L71.737,15.573 L72.537,15.573 L73.337,15.573 L74.137,15.573 L74.937,15.573 L75.737,15.573 L76.537,15.573 L77.337,15.573 L78.137,15.573 L78.381,15.573 L78.137,15.573 L78.381,15.573 L78.137,15.573 L78.381,15.573 M6.233,19.371 L6.933,19.371 L6.233,19.371 L6.933,19.371 L6.233,19.371 L7.033,19.371 L7.833,19.371 L8.633,19.371 L9.433,19.371 L10.233,19.371 L11.033,19.371 L11.833,19.371 L12.633,19.371 L13.433,19.371 L14.233,19.371 L15.033,19.371 L15.833,19.371 L16.633,19.365 L17.433,19.326 L18.233,19.244 L19.033,19.126 L19.833,18.991 L20.633,18.870 L21.433,18.802 L22.233,18.825 L23.033,18.969 L23.833,19.251 L24.633,19.668 L25.433,20.196 L26.233,20.790 L27.033,21.392 L27.833,21.933 L28.633,22.342 L29.433,22.559 L30.233,22.541 L31.033,22.269 L31.833,21.751 L32.633,21.024 L33.433,20.148 L34.233,19.201 L35.033,18.269 L35.833,17.438 L36.633,16.780 L37.433,16.347 L38.233,16.166 L39.033,16.236 L39.833,16.527 L40.633,16.991 L41.433,17.561 L42.233,18.168 L43.033,18.745 L43.833,19.238 L44.633,19.608 L45.433,19.840 L46.233,19.938 L47.033,19.925 L47.833,19.833 L48.633,19.703 L49.433,19.571 L50.233,19.464 L51.033,19.398 L51.833,19.372 L52.633,19.371 L53.433,19.371 L54.233,19.371 L55.033,19.371 L55.833,19.371 L56.633,19.371 L57.433,19.371 L58.233,19.371 L59.033,19.371 L59.833,19.371 L60.633,19.371 L61.433,19.371 L62.233,19.371 L63.033,19.371 L63.833,19.371 L64.633,19.371 L65.433,19.371 L66.233,19.371 L67.033,19.371 L67.833,19.371 L68.633,19.371 L69.433,19.371 L70.233,19.371 L71.033,19.371 L71.833,19.371 L72.633,19.371 L73.433,19.371 L74.233,19.371 L75.033,19.371 L75.833,19.371 L76.633,19.371 L77.433,19.371 L78.233,19.371 L79.033,19.371 L79.833,19.371 L80.633,19.371 L79.933,19.371 L80.633,19.371 L79.933,19.371 L80.633,19.371 M4.414,23.169 L5.114,23.169 L4.414,23.169 L5.114,23.169 L4.414,23.169 L5.214,23.169 L6.014,23.169 L6.814,23.169 L7.614,23.169 L8.414,23.169 L9.214,23.169 L10.014,23.169 L10.814,23.169 L11.614,23.169 L12.414,23.169 L13.214,23.169 L14.014,23.169 L14.814,23.169 L15.614,23.169 L16.414,23.169 L17.214,23.169 L18.014,23.169 L18.814,23.169 L19.614,23.166 L20.414,23.136 L21.214,23.064 L22.014,22.953 L22.814,22.818 L23.614,22.691 L24.414,22.608 L25.214,22.608 L26.014,22.724 L26.814,22.974 L27.614,23.363 L28.414,23.869 L29.214,24.453 L30.014,25.060 L30.814,25.620 L31.614,26.063 L32.414,26.328 L33.214,26.364 L34.014,26.149 L34.814,25.683 L35.614,24.998 L36.414,24.149 L37.214,23.210 L38.014,22.268 L38.814,21.408 L39.614,20.706 L40.414,20.220 L41.214,19.982 L42.014,19.998 L42.814,20.244 L43.614,20.674 L44.414,21.227 L45.214,21.832 L46.014,22.421 L46.814,22.936 L47.614,23.335 L48.414,23.598 L49.214,23.725 L50.014,23.733 L50.814,23.656 L51.614,23.531 L52.414,23.397 L53.214,23.282 L54.014,23.206 L54.814,23.173 L55.614,23.169 L56.414,23.169 L57.214,23.169 L58.014,23.169 L58.814,23.169 L59.614,23.169 L60.414,23.169 L61.214,23.169 L62.014,23.169 L62.814,23.169 L63.614,23.169 L64.414,23.169 L65.214,23.169 L66.014,23.169 L66.814,23.169 L67.614,23.169 L68.414,23.169 L69.214,23.169 L70.014,23.169 L70.814,23.169 L71.614,23.169 L72.414,23.169 L73.214,23.169 L74.014,23.169 L74.814,23.169 L75.614,23.169 L76.414,23.169 L77.214,23.169 L78.014,23.169 L78.814,23.169 L79.614,23.169 L80.414,23.169 L81.214,23.169 L82.014,23.169 L82.504,23.169 L82.014,23.169 L82.504,23.169 L82.014,23.169 L82.504,23.169 M3.015,26.967 L3.715,26.967 L3.015,26.967 L3.715,26.967 L3.015,26.967 L3.815,26.967 L4.615,26.967 L5.415,26.967 L6.215,26.967 L7.015,26.967 L7.815,26.967 L8.615,26.967 L9.415,26.967 L10.215,26.967 L11.015,26.967 L11.815,26.967 L12.615,26.967 L13.415,26.967 L14.215,26.967 L15.015,26.967 L15.815,26.967 L16.615,26.967 L17.415,26.967 L18.215,26.967 L19.015,26.967 L19.815,26.967 L20.615,26.967 L21.415,26.967 L22.215,26.967 L23.015,26.959 L23.815,26.917 L24.615,26.832 L25.415,26.711 L26.215,26.575 L27.015,26.457 L27.815,26.396 L28.615,26.428 L29.415,26.583 L30.215,26.876 L31.015,27.303 L31.815,27.838 L32.615,28.436 L33.415,29.036 L34.215,29.568 L35.015,29.963 L35.815,30.162 L36.615,30.124 L37.415,29.831 L38.215,29.294 L39.015,28.552 L39.815,27.667 L40.615,26.718 L41.415,25.792 L42.215,24.973 L43.015,24.331 L43.815,23.918 L44.615,23.759 L45.415,23.848 L46.215,24.156 L47.015,24.630 L47.815,25.207 L48.615,25.814 L49.415,26.385 L50.215,26.869 L51.015,27.228 L51.815,27.448 L52.615,27.537 L53.415,27.515 L54.215,27.419 L55.015,27.288 L55.815,27.156 L56.615,27.052 L57.415,26.990 L58.215,26.968 L59.015,26.967 L59.815,26.967 L60.615,26.967 L61.415,26.967 L62.215,26.967 L63.015,26.967 L63.815,26.967 L64.615,26.967 L65.415,26.967 L66.215,26.967 L67.015,26.967 L67.815,26.967 L68.615,26.967 L69.415,26.967 L70.215,26.967 L71.015,26.967 L71.815,26.967 L72.615,26.967 L73.415,26.967 L74.215,26.967 L75.015,26.967 L75.815,26.967 L76.615,26.967 L77.415,26.967 L78.215,26.967 L79.015,26.967 L79.815,26.967 L80.615,26.967 L81.415,26.967 L82.215,26.967 L83.015,26.967 L83.815,26.967 L83.115,26.967 L83.815,26.967 L83.115,26.967 L83.815,26.967 M1.996,30.765 L2.696,30.765 L1.996,30.765 L2.696,30.765 L1.996,30.765 L2.796,30.765 L3.596,30.765 L4.396,30.765 L5.196,30.765 L5.996,30.765 L6.796,30.765 L7.596,30.765 L8.396,30.765 L9.196,30.765 L9.996,30.765 L10.796,30.765 L11.596,30.765 L12.396,30.765 L13.196,30.765 L13.996,30.765 L14.796,30.765 L15.596,30.765 L16.396,30.765 L17.196,30.765 L17.996,30.765 L18.796,30.765 L19.596,30.765 L20.396,30.765 L21.196,30.765 L21.996,30.765 L22.796,30.765 L23.596,30.765 L24.396,30.765 L25.196,30.765 L25.996,30.761 L26.796,30.728 L27.596,30.652 L28.396,30.538 L29.196,30.403 L29.996,30.278 L30.796,30.200 L31.596,30.209 L32.396,30.335 L33.196,30.597 L33.996,30.996 L34.796,31.511 L35.596,32.099 L36.396,32.704 L37.196,33.257 L37.996,33.689 L38.796,33.935 L39.596,33.952 L40.396,33.715 L41.196,33.230 L41.996,32.529 L42.796,31.669 L43.596,30.727 L44.396,29.789 L45.196,28.939 L45.996,28.253 L46.796,27.786 L47.596,27.570 L48.396,27.606 L49.196,27.869 L49.996,28.312 L50.796,28.872 L51.596,29.478 L52.396,30.063 L53.196,30.569 L53.996,30.958 L54.796,31.209 L55.596,31.325 L56.396,31.326 L57.196,31.243 L57.996,31.116 L58.796,30.982 L59.596,30.870 L60.396,30.798 L61.196,30.767 L61.996,30.765 L62.796,30.765 L63.596,30.765 L64.396,30.765 L65.196,30.765 L65.996,30.765 L66.796,30.765 L67.596,30.765 L68.396,30.765 L69.196,30.765 L69.996,30.765 L70.796,30.765 L71.596,30.765 L72.396,30.765 L73.196,30.765 L73.996,30.765 L74.796,30.765 L75.596,30.765 L76.396,30.765 L77.196,30.765 L77.996,30.765 L78.796,30.765 L79.596,30.765 L80.396,30.765 L81.196,30.765 L81.996,30.765 L82.796,30.765 L83.596,30.765 L84.396,30.765 L84.922,30.765 L84.396,30.765 L84.922,30.765 L84.396,30.765 L84.922,30.765 M1.329,34.563 L2.029,34.563 L1.329,34.563 L2.029,34.563 L1.329,34.563 L2.129,34.563 L2.929,34.563 L3.729,34.563 L4.529,34.563 L5.329,34.563 L6.129,34.563 L6.929,34.563 L7.729,34.563 L8.529,34.563 L9.329,34.563 L10.129,34.563 L10.929,34.563 L11.729,34.563 L12.529,34.563 L13.329,34.563 L14.129,34.563 L14.929,34.563 L15.729,34.563 L16.529,34.563 L17.329,34.563 L18.129,34.563 L18.929,34.563 L19.729,34.563 L20.529,34.563 L21.329,34.563 L22.129,34.563 L22.929,34.563 L23.729,34.563 L24.529,34.563 L25.329,34.563 L26.129,34.563 L26.929,34.563 L27.729,34.563 L28.529,34.563 L29.329,34.555 L30.129,34.513 L30.929,34.428 L31.729,34.307 L32.529,34.171 L33.329,34.053 L34.129,33.992 L34.929,34.023 L35.729,34.178 L36.529,34.471 L37.329,34.898 L38.129,35.433 L38.929,36.031 L39.729,36.631 L40.529,37.163 L41.329,37.558 L42.129,37.758 L42.929,37.720 L43.729,37.427 L44.529,36.891 L45.329,36.149 L46.129,35.264 L46.929,34.316 L47.729,33.389 L48.529,32.570 L49.329,31.928 L50.129,31.515 L50.929,31.354 L51.729,31.443 L52.529,31.751 L53.329,32.225 L54.129,32.801 L54.929,33.408 L55.729,33.980 L56.529,34.464 L57.329,34.823 L58.129,35.044 L58.929,35.132 L59.729,35.111 L60.529,35.015 L61.329,34.884 L62.129,34.752 L62.929,34.648 L63.729,34.586 L64.529,34.563 L65.329,34.563 L66.129,34.563 L66.929,34.563 L67.729,34.563 L68.529,34.563 L69.329,34.563 L70.129,34.563 L70.929,34.563 L71.729,34.563 L72.529,34.563 L73.329,34.563 L74.129,34.563 L74.929,34.563 L75.729,34.563 L76.529,34.563 L77.329,34.563 L78.129,34.563 L78.929,34.563 L79.729,34.563 L80.529,34.563 L81.329,34.563 L82.129,34.563 L82.929,34.563 L83.729,34.563 L84.529,34.563 L85.329,34.563 L85.589,34.563 L85.329,34.563 L85.589,34.563 L85.329,34.563 L85.589,34.563 M1.000,38.361 L1.700,38.361 L1.000,38.361 L1.700,38.361 L1.000,38.361 L1.800,38.361 L2.600,38.361 L3.400,38.361 L4.200,38.361 L5.000,38.361 L5.800,38.361 L6.600,38.361 L7.400,38.361 L8.200,38.361 L9.000,38.361 L9.800,38.361 L10.600,38.361 L11.400,38.361 L12.200,38.361 L13.000,38.361 L13.800,38.361 L14.600,38.361 L15.400,38.361 L16.200,38.361 L17.000,38.361 L17.800,38.361 L18.600,38.361 L19.400,38.361 L20.200,38.361 L21.000,38.361 L21.800,38.361 L22.600,38.361 L23.400,38.361 L24.200,38.361 L25.000,38.361 L25.800,38.361 L26.600,38.361 L27.400,38.361 L28.200,38.361 L29.000,38.361 L29.800,38.361 L30.600,38.361 L31.400,38.361 L32.200,38.359 L33.000,38.331 L33.800,38.261 L34.600,38.151 L35.400,38.018 L36.200,37.889 L37.000,37.803 L37.800,37.797 L38.600,37.905 L39.400,38.148 L40.200,38.529 L41.000,39.029 L41.800,39.611 L42.600,40.217 L43.400,40.782 L44.200,41.234 L45.000,41.510 L45.800,41.560 L46.600,41.359 L47.400,40.908 L48.200,40.234 L49.000,39.392 L49.800,38.456 L50.600,37.512 L51.400,36.645 L52.200,35.932 L53.000,35.433 L53.800,35.180 L54.600,35.182 L55.400,35.416 L56.200,35.838 L57.000,36.385 L57.800,36.989 L58.600,37.581 L59.400,38.101 L60.200,38.508 L61.000,38.779 L61.800,38.913 L62.600,38.927 L63.400,38.854 L64.200,38.731 L65.000,38.595 L65.800,38.479 L66.600,38.401 L67.400,38.365 L68.200,38.361 L69.000,38.361 L69.800,38.361 L70.600,38.361 L71.400,38.361 L72.200,38.361 L73.000,38.361 L73.800,38.361 L74.600,38.361 L75.400,38.361 L76.200,38.361 L77.000,38.361 L77.800,38.361 L78.600,38.361 L79.400,38.361 L80.200,38.361 L81.000,38.361 L81.800,38.361 L82.600,38.361 L83.400,38.361 L84.200,38.361 L85.000,38.361 L85.800,38.361 L85.100,38.361 L85.800,38.361 L85.100,38.361 L85.800,38.361 M1.000,42.158 L1.700,42.158 L1.000,42.158 L1.700,42.158 L1.000,42.158 L1.800,42.158 L2.600,42.158 L3.400,42.158 L4.200,42.158 L5.000,42.158 L5.800,42.158 L6.600,42.158 L7.400,42.158 L8.200,42.158 L9.000,42.158 L9.800,42.158 L10.600,42.158 L11.400,42.158 L12.200,42.158 L13.000,42.158 L13.800,42.158 L14.600,42.158 L15.400,42.158 L16.200,42.158 L17.000,42.158 L17.800,42.158 L18.600,42.158 L19.400,42.158 L20.200,42.158 L21.000,42.158 L21.800,42.158 L22.600,42.158 L23.400,42.158 L24.200,42.158 L25.000,42.158 L25.800,42.158 L26.600,42.158 L27.400,42.158 L28.200,42.158 L29.000,42.158 L29.800,42.158 L30.600,42.158 L31.400,42.158 L32.200,42.158 L33.000,42.158 L33.800,42.158 L34.600,42.158 L35.400,42.156 L36.200,42.126 L37.000,42.054 L37.800,41.943 L38.600,41.808 L39.400,41.681 L40.200,41.598 L41.000,41.597 L41.800,41.712 L42.600,41.963 L43.400,42.350 L44.200,42.856 L45.000,43.440 L45.800,44.047 L46.600,44.607 L47.400,45.051 L48.200,45.316 L49.000,45.354 L49.800,45.140 L50.600,44.675 L51.400,43.991 L52.200,43.142 L53.000,42.204 L53.800,41.261 L54.600,40.401 L55.400,39.698 L56.200,39.211 L57.000,38.972 L57.800,38.987 L58.600,39.232 L59.400,39.662 L60.200,40.214 L61.000,40.819 L61.800,41.408 L62.600,41.923 L63.400,42.323 L64.200,42.587 L65.000,42.714 L65.800,42.723 L66.600,42.646 L67.400,42.521 L68.200,42.387 L69.000,42.272 L69.800,42.196 L70.600,42.162 L71.400,42.158 L72.200,42.158 L73.000,42.158 L73.800,42.158 L74.600,42.158 L75.400,42.158 L76.200,42.158 L77.000,42.158 L77.800,42.158 L78.600,42.158 L79.400,42.158 L80.200,42.158 L81.000,42.158 L81.800,42.158 L82.600,42.158 L83.400,42.158 L84.200,42.158 L85.000,42.158 L85.800,42.158 L85.100,42.158 L85.800,42.158 L85.100,42.158 L85.800,42.158 M1.329,45.956 L2.029,45.956 L1.329,45.956 L2.029,45.956 L1.329,45.956 L2.129,45.956 L2.929,45.956 L3.729,45.956 L4.529,45.956 L5.329,45.956 L6.129,45.956 L6.929,45.956 L7.729,45.956 L8.529,45.956 L9.329,45.956 L10.129,45.956 L10.929,45.956 L11.729,45.956 L12.529,45.956 L13.329,45.956 L14.129,45.956 L14.929,45.956 L15.729,45.956 L16.529,45.956 L17.329,45.956 L18.129,45.956 L18.929,45.956 L19.729,45.956 L20.529,45.956 L21.329,45.956 L22.129,45.956 L22.929,45.956 L23.729,45.956 L24.529,45.956 L25.329,45.956 L26.129,45.956 L26.929,45.956 L27.729,45.956 L28.529,45.956 L29.329,45.956 L30.129,45.956 L30.929,45.956 L31.729,45.956 L32.529,45.956 L33.329,45.956 L34.129,45.956 L34.929,45.956 L35.729,45.956 L36.529,45.956 L37.329,45.956 L38.129,45.956 L38.929,45.945 L39.729,45.896 L40.529,45.804 L41.329,45.679 L42.129,45.544 L42.929,45.433 L43.729,45.383 L44.529,45.433 L45.329,45.609 L46.129,45.924 L46.929,46.370 L47.729,46.919 L48.529,47.521 L49.329,48.115 L50.129,48.630 L50.929,48.998 L51.729,49.162 L52.529,49.084 L53.329,48.752 L54.129,48.180 L54.929,47.411 L55.729,46.510 L56.529,45.559 L57.329,44.645 L58.129,43.849 L58.929,43.240 L59.729,42.866 L60.529,42.746 L61.329,42.872 L62.129,43.210 L62.929,43.705 L63.729,44.291 L64.529,44.896 L65.329,45.457 L66.129,45.923 L66.929,46.261 L67.729,46.460 L68.529,46.529 L69.329,46.494 L70.129,46.390 L70.929,46.256 L71.729,46.127 L72.529,46.029 L73.329,45.973 L74.129,45.956 L74.929,45.956 L75.729,45.956 L76.529,45.956 L77.329,45.956 L78.129,45.956 L78.929,45.956 L79.729,45.956 L80.529,45.956 L81.329,45.956 L82.129,45.956 L82.929,45.956 L83.729,45.956 L84.529,45.956 L85.329,45.956 L85.589,45.956 L85.329,45.956 L85.589,45.956 L85.329,45.956 L85.589,45.956 M1.996,49.754 L2.696,49.754 L1.996,49.754 L2.696,49.754 L1.996,49.754 L2.796,49.754 L3.596,49.754 L4.396,49.754 L5.196,49.754 L5.996,49.754 L6.796,49.754 L7.596,49.754 L8.396,49.754 L9.196,49.754 L9.996,49.754 L10.796,49.754 L11.596,49.754 L12.396,49.754 L13.196,49.754 L13.996,49.754 L14.796,49.754 L15.596,49.754 L16.396,49.754 L17.196,49.754 L17.996,49.754 L18.796,49.754 L19.596,49.754 L20.396,49.754 L21.196,49.754 L21.996,49.754 L22.796,49.754 L23.596,49.754 L24.396,49.754 L25.196,49.754 L25.996,49.754 L26.796,49.754 L27.596,49.754 L28.396,49.754 L29.196,49.754 L29.996,49.754 L30.796,49.754 L31.596,49.754 L32.396,49.754 L33.196,49.754 L33.996,49.754 L34.796,49.754 L35.596,49.754 L36.396,49.754 L37.196,49.754 L37.996,49.754 L38.796,49.754 L39.596,49.754 L40.396,49.754 L41.196,49.754 L41.996,49.745 L42.796,49.701 L43.596,49.615 L44.396,49.493 L45.196,49.357 L45.996,49.241 L46.796,49.182 L47.596,49.219 L48.396,49.380 L49.196,49.679 L49.996,50.111 L50.796,50.650 L51.596,51.249 L52.396,51.847 L53.196,52.375 L53.996,52.763 L54.796,52.953 L55.596,52.904 L56.396,52.600 L57.196,52.054 L57.996,51.305 L58.796,50.416 L59.596,49.466 L60.396,48.543 L61.196,47.729 L61.996,47.097 L62.796,46.694 L63.596,46.545 L64.396,46.644 L65.196,46.960 L65.996,47.440 L66.796,48.019 L67.596,48.626 L68.396,49.195 L69.196,49.674 L69.996,50.027 L70.796,50.242 L71.596,50.325 L72.396,50.300 L73.196,50.202 L73.996,50.069 L74.796,49.939 L75.596,49.836 L76.396,49.775 L77.196,49.755 L77.996,49.754 L78.796,49.754 L79.596,49.754 L80.396,49.754 L81.196,49.754 L81.996,49.754 L82.796,49.754 L83.596,49.754 L84.396,49.754 L84.922,49.754 L84.396,49.754 L84.922,49.754 L84.396,49.754 L84.922,49.754 M3.015,53.552 L3.715,53.552 L3.015,53.552 L3.715,53.552 L3.015,53.552 L3.815,53.552 L4.615,53.552 L5.415,53.552 L6.215,53.552 L7.015,53.552 L7.815,53.552 L8.615,53.552 L9.415,53.552 L10.215,53.552 L11.015,53.552 L11.815,53.552 L12.615,53.552 L13.415,53.552 L14.215,53.552 L15.015,53.552 L15.815,53.552 L16.615,53.552 L17.415,53.552 L18.215,53.552 L19.015,53.552 L19.815,53.552 L20.615,53.552 L21.415,53.552 L22.215,53.552 L23.015,53.552 L23.815,53.552 L24.615,53.552 L25.415,53.552 L26.215,53.552 L27.015,53.552 L27.815,53.552 L28.615,53.552 L29.415,53.552 L30.215,53.552 L31.015,53.552 L31.815,53.552 L32.615,53.552 L33.415,53.552 L34.215,53.552 L35.015,53.552 L35.815,53.552 L36.615,53.552 L37.415,53.552 L38.215,53.552 L39.015,53.552 L39.815,53.552 L40.615,53.552 L41.415,53.552 L42.215,53.552 L43.015,53.552 L43.815,53.552 L44.615,53.552 L45.415,53.534 L46.215,53.476 L47.015,53.376 L47.815,53.246 L48.615,53.113 L49.415,53.011 L50.215,52.980 L51.015,53.055 L51.815,53.260 L52.615,53.604 L53.415,54.075 L54.215,54.640 L55.015,55.246 L55.815,55.829 L56.615,56.318 L57.415,56.647 L58.215,56.762 L59.015,56.631 L59.815,56.245 L60.615,55.627 L61.415,54.824 L62.215,53.906 L63.015,52.955 L63.815,52.059 L64.615,51.298 L65.415,50.736 L66.215,50.415 L67.015,50.349 L67.815,50.523 L68.615,50.900 L69.415,51.420 L70.215,52.016 L71.015,52.617 L71.815,53.161 L72.615,53.602 L73.415,53.911 L74.215,54.081 L75.015,54.125 L75.815,54.072 L76.615,53.958 L77.415,53.823 L78.215,53.699 L79.015,53.610 L79.815,53.563 L80.615,53.552 L81.415,53.552 L82.215,53.552 L83.015,53.552 L83.815,53.552 L83.115,53.552 L83.815,53.552 L83.115,53.552 L83.815,53.552 M4.414,57.350 L5.114,57.350 L4.414,57.350 L5.114,57.350 L4.414,57.350 L5.214,57.350 L6.014,57.350 L6.814,57.350 L7.614,57.350 L8.414,57.350 L9.214,57.350 L10.014,57.350 L10.814,57.350 L11.614,57.350 L12.414,57.350 L13.214,57.350 L14.014,57.350 L14.814,57.350 L15.614,57.350 L16.414,57.350 L17.214,57.350 L18.014,57.350 L18.814,57.350 L19.614,57.350 L20.414,57.350 L21.214,57.350 L22.014,57.350 L22.814,57.350 L23.614,57.350 L24.414,57.350 L25.214,57.350 L26.014,57.350 L26.814,57.350 L27.614,57.350 L28.414,57.350 L29.214,57.350 L30.014,57.350 L30.814,57.350 L31.614,57.350 L32.414,57.350 L33.214,57.350 L34.014,57.350 L34.814,57.350 L35.614,57.350 L36.414,57.350 L37.214,57.350 L38.014,57.350 L38.814,57.350 L39.614,57.350 L40.414,57.350 L41.214,57.350 L42.014,57.350 L42.814,57.350 L43.614,57.350 L44.414,57.350 L45.214,57.350 L46.014,57.350 L46.814,57.350 L47.614,57.350 L48.414,57.338 L49.214,57.288 L50.014,57.197 L50.814,57.071 L51.614,56.936 L52.414,56.825 L53.214,56.777 L54.014,56.828 L54.814,57.006 L55.614,57.323 L56.414,57.771 L57.214,58.320 L58.014,58.923 L58.814,59.516 L59.614,60.030 L60.414,60.395 L61.214,60.556 L62.014,60.475 L62.814,60.139 L63.614,59.564 L64.414,58.793 L65.214,57.891 L66.014,56.940 L66.814,56.027 L67.614,55.233 L68.414,54.627 L69.214,54.256 L70.014,54.140 L70.814,54.269 L71.614,54.609 L72.414,55.106 L73.214,55.692 L74.014,56.298 L74.814,56.858 L75.614,57.322 L76.414,57.658 L77.214,57.855 L78.014,57.923 L78.814,57.886 L79.614,57.782 L80.414,57.648 L81.214,57.519 L82.014,57.422 L82.504,57.383 L82.014,57.422 L82.504,57.383 L82.014,57.422 L82.504,57.383 M6.233,61.148 L6.933,61.148 L6.233,61.148 L6.933,61.148 L6.233,61.148 L7.033,61.148 L7.833,61.148 L8.633,61.148 L9.433,61.148 L10.233,61.148 L11.033,61.148 L11.833,61.148 L12.633,61.148 L13.433,61.148 L14.233,61.148 L15.033,61.148 L15.833,61.148 L16.633,61.148 L17.433,61.148 L18.233,61.148 L19.033,61.148 L19.833,61.148 L20.633,61.148 L21.433,61.148 L22.233,61.148 L23.033,61.148 L23.833,61.148 L24.633,61.148 L25.433,61.148 L26.233,61.148 L27.033,61.148 L27.833,61.148 L28.633,61.148 L29.433,61.148 L30.233,61.148 L31.033,61.148 L31.833,61.148 L32.633,61.148 L33.433,61.148 L34.233,61.148 L35.033,61.148 L35.833,61.148 L36.633,61.148 L37.433,61.148 L38.233,61.148 L39.033,61.148 L39.833,61.148 L40.633,61.148 L41.433,61.148 L42.233,61.148 L43.033,61.148 L43.833,61.148 L44.633,61.148 L45.433,61.148 L46.233,61.148 L47.033,61.148 L47.833,61.148 L48.633,61.148 L49.433,61.148 L50.233,61.148 L51.033,61.147 L51.833,61.124 L52.633,61.061 L53.433,60.956 L54.233,60.825 L55.033,60.693 L55.833,60.598 L56.633,60.579 L57.433,60.669 L58.233,60.892 L59.033,61.254 L59.833,61.739 L60.633,62.312 L61.433,62.919 L62.233,63.494 L63.033,63.966 L63.833,64.271 L64.633,64.356 L65.433,64.191 L66.233,63.774 L67.033,63.129 L67.833,62.307 L68.633,61.379 L69.433,60.431 L70.233,59.548 L71.033,58.809 L71.833,58.277 L72.633,57.988 L73.433,57.954 L74.233,58.157 L75.033,58.556 L75.833,59.089 L76.633,59.690 L77.433,60.287 L78.233,60.820 L79.033,61.245 L79.833,61.536 L80.633,61.689 L79.946,61.557 L80.633,61.689 L79.946,61.557 L80.633,61.689 M8.537,64.946 L9.237,64.946 L8.537,64.946 L9.237,64.946 L8.537,64.946 L9.337,64.946 L10.137,64.946 L10.937,64.946 L11.737,64.946 L12.537,64.946 L13.337,64.946 L14.137,64.946 L14.937,64.946 L15.737,64.946 L16.537,64.946 L17.337,64.946 L18.137,64.946 L18.937,64.946 L19.737,64.946 L20.537,64.946 L21.337,64.946 L22.137,64.946 L22.937,64.946 L23.737,64.946 L24.537,64.946 L25.337,64.946 L26.137,64.946 L26.937,64.946 L27.737,64.946 L28.537,64.946 L29.337,64.946 L30.137,64.946 L30.937,64.946 L31.737,64.946 L32.537,64.946 L33.337,64.946 L34.137,64.946 L34.937,64.946 L35.737,64.946 L36.537,64.946 L37.337,64.946 L38.137,64.946 L38.937,64.946 L39.737,64.946 L40.537,64.946 L41.337,64.946 L42.137,64.946 L42.937,64.946 L43.737,64.946 L44.537,64.946 L45.337,64.946 L46.137,64.946 L46.937,64.946 L47.737,64.946 L48.537,64.946 L49.337,64.946 L50.137,64.946 L50.937,64.946 L51.737,64.946 L52.537,64.946 L53.337,64.946 L54.137,64.945 L54.937,64.925 L55.737,64.864 L56.537,64.762 L57.337,64.632 L58.137,64.499 L58.937,64.401 L59.737,64.375 L60.537,64.457 L61.337,64.670 L62.137,65.023 L62.937,65.501 L63.737,66.069 L64.537,66.676 L65.337,67.255 L66.137,67.737 L66.937,68.054 L67.737,68.155 L68.537,68.008 L69.337,67.608 L70.137,66.977 L70.937,66.165 L71.737,65.242 L72.537,64.292 L73.337,63.402 L74.137,62.651 L74.937,62.103 L75.737,61.798 L76.537,61.746 L77.337,61.934 L78.137,62.321 L78.381,62.470 L78.137,62.321 L78.381,62.470 L78.137,62.321 L78.381,62.470 M11.423,68.744 L12.123,68.744 L11.423,68.744 L12.123,68.744 L11.423,68.744 L12.223,68.744 L13.023,68.744 L13.823,68.744 L14.623,68.744 L15.423,68.744 L16.223,68.744 L17.023,68.744 L17.823,68.744 L18.623,68.744 L19.423,68.744 L20.223,68.744 L21.023,68.744 L21.823,68.744 L22.623,68.744 L23.423,68.744 L24.223,68.744 L25.023,68.744 L25.823,68.744 L26.623,68.744 L27.423,68.744 L28.223,68.744 L29.023,68.744 L29.823,68.744 L30.623,68.744 L31.423,68.744 L32.223,68.744 L33.023,68.744 L33.823,68.744 L34.623,68.744 L35.423,68.744 L36.223,68.744 L37.023,68.744 L37.823,68.744 L38.623,68.744 L39.423,68.744 L40.223,68.744 L41.023,68.744 L41.823,68.744 L42.623,68.744 L43.423,68.744 L44.223,68.744 L45.023,68.744 L45.823,68.744 L46.623,68.744 L47.423,68.744 L48.223,68.744 L49.023,68.744 L49.823,68.744 L50.623,68.744 L51.423,68.744 L52.223,68.744 L53.023,68.744 L53.823,68.744 L54.623,68.744 L55.423,68.744 L56.223,68.744 L57.023,68.744 L57.823,68.734 L58.623,68.688 L59.423,68.599 L60.223,68.476 L61.023,68.340 L61.823,68.226 L62.623,68.171 L63.423,68.213 L64.223,68.380 L65.023,68.686 L65.823,69.124 L66.623,69.667 L67.423,70.268 L68.223,70.864 L69.023,71.387 L69.823,71.767 L70.623,71.946 L71.423,71.885 L72.223,71.569 L73.023,71.012 L73.823,70.255 L74.623,69.360 L75.423,68.410 L74.972,68.946 L75.423,68.410 L74.972,68.946 L75.423,68.410 M15.061,72.542 L15.761,72.542 L15.061,72.542 L15.761,72.542 L15.061,72.542 L15.861,72.542 L16.661,72.542 L17.461,72.542 L18.261,72.542 L19.061,72.542 L19.861,72.542 L20.661,72.542 L21.461,72.542 L22.261,72.542 L23.061,72.542 L23.861,72.542 L24.661,72.542 L25.461,72.542 L26.261,72.542 L27.061,72.542 L27.861,72.542 L28.661,72.542 L29.461,72.542 L30.261,72.542 L31.061,72.542 L31.861,72.542 L32.661,72.542 L33.461,72.542 L34.261,72.542 L35.061,72.542 L35.861,72.542 L36.661,72.542 L37.461,72.542 L38.261,72.542 L39.061,72.542 L39.861,72.542 L40.661,72.542 L41.461,72.542 L42.261,72.542 L43.061,72.542 L43.861,72.542 L44.661,72.542 L45.461,72.542 L46.261,72.542 L47.061,72.542 L47.861,72.542 L48.661,72.542 L49.461,72.542 L50.261,72.542 L51.061,72.542 L51.861,72.542 L52.661,72.542 L53.461,72.542 L54.261,72.542 L55.061,72.542 L55.861,72.542 L56.661,72.542 L57.461,72.542 L58.261,72.542 L59.061,72.542 L59.861,72.542 L60.661,72.539 L61.461,72.509 L62.261,72.437 L63.061,72.326 L63.861,72.192 L64.661,72.065 L65.461,71.981 L66.261,71.980 L67.061,72.095 L67.861,72.345 L68.661,72.732 L69.461,73.238 L70.261,73.822 L71.061,74.429 L71.857,74.986 L71.283,74.584 L71.857,74.986 L71.283,74.584 L71.857,74.986 M19.775,76.340 L20.475,76.340 L19.775,76.340 L20.475,76.340 L19.775,76.340 L20.575,76.340 L21.375,76.340 L22.175,76.340 L22.975,76.340 L23.775,76.340 L24.575,76.340 L25.375,76.340 L26.175,76.340 L26.975,76.340 L27.775,76.340 L28.575,76.340 L29.375,76.340 L30.175,76.340 L30.975,76.340 L31.775,76.340 L32.575,76.340 L33.375,76.340 L34.175,76.340 L34.975,76.340 L35.775,76.340 L36.575,76.340 L37.375,76.340 L38.175,76.340 L38.975,76.340 L39.775,76.340 L40.575,76.340 L41.375,76.340 L42.175,76.340 L42.975,76.340 L43.775,76.340 L44.575,76.340 L45.375,76.340 L46.175,76.340 L46.975,76.340 L47.775,76.340 L48.575,76.340 L49.375,76.340 L50.175,76.340 L50.975,76.340 L51.775,76.340 L52.575,76.340 L53.375,76.340 L54.175,76.340 L54.975,76.340 L55.775,76.340 L56.575,76.340 L57.375,76.340 L58.175,76.340 L58.975,76.340 L59.775,76.340 L60.575,76.340 L61.375,76.340 L62.175,76.340 L62.975,76.340 L63.775,76.338 L64.575,76.310 L65.375,76.240 L66.175,76.131 L66.975,75.997 L66.285,76.113 L66.975,75.997 L66.285,76.113 L66.975,75.997"/>
</svg>
