<svg xmlns="http://www.w3.org/2000/svg" viewBox="0 -0.243 70 70" width="256" height="256">
  <title>waveforms</title>
  <rect x="0" y="-0.243" width="70" height="70" fill="#f5efe4"/>
  <path fill="none" stroke="#31604f" stroke-width="0.4" stroke-linecap="round" stroke-linejoin="round" d="M1.000,8.713 L1.000,8.713 L3.957,8.713 L6.913,8.713 L9.870,8.713 L12.826,8.713 L15.783,8.713 L18.739,8.713 L21.696,8.713 L24.652,8.713 L27.609,8.713 L30.565,8.713 L33.522,8.713 L36.478,8.713 L39.435,8.713 L42.391,8.713 L45.348,8.713 L48.304,8.713 L51.261,8.713 L54.217,8.713 L57.174,8.713 L60.130,8.713 L63.087,8.713 L66.043,8.713 L69.000,8.713 L68.300,8.713 L69.000,8.713 L68.300,8.713 L69.000,8.713 M5.000,8.713 L5.299,8.080 L5.000,8.713 L5.299,8.080 L5.000,8.713 M5.000,8.713 L5.911,8.657 L4.652,7.577 L6.286,7.863 L5.027,6.783 L6.661,7.068 L5.402,5.988 L7.036,6.274 L5.777,5.194 L7.399,5.593 L6.244,4.412 L7.828,4.883 L6.672,3.702 L8.256,4.173 L7.101,2.992 L8.685,3.463 L7.788,2.185 L9.112,3.164 L8.388,1.685 L9.712,2.664 L8.988,1.185 L9.794,2.336 L10.385,1.139 L10.490,2.780 L11.135,1.267 L10.649,2.868 L12.101,2.097 L11.149,3.437 L12.601,2.666 L11.649,4.007 L13.101,3.235 L11.983,4.491 L13.579,4.081 L12.358,5.187 L13.954,4.777 L12.733,5.884 L14.329,5.474 L13.108,6.581 L14.704,6.171 L13.461,7.292 L15.102,7.030 L13.836,8.106 L15.477,7.844 L14.211,8.921 L15.852,8.659 L14.586,9.735 L16.227,9.474 L14.971,10.541 L16.591,10.207 L15.346,11.296 L16.966,10.962 L15.721,12.051 L17.341,11.717 L16.096,12.806 L17.716,12.472 L16.597,13.643 L18.153,13.073 L17.097,14.351 L18.653,13.781 L17.597,15.058 L19.153,14.488 L18.512,15.854 L19.613,14.619 L19.262,16.235 L20.363,15.000 L20.738,16.235 L20.532,14.904 L21.488,15.854 L21.137,14.237 L22.403,15.058 L21.347,13.781 L22.903,14.351 L21.847,13.073 L23.403,13.643 L22.347,12.366 L23.904,12.806 L22.659,11.717 L24.279,12.051 L23.034,10.962 L24.654,11.296 L23.409,10.207 L25.029,10.541 L23.784,9.452 L25.414,9.735 L24.148,8.659 L25.789,8.921 L24.523,7.844 L26.164,8.106 L24.898,7.030 L26.539,7.292 L25.273,6.215 L26.892,6.581 L25.671,5.474 L27.267,5.884 L26.046,4.777 L27.642,5.187 L26.421,4.081 L28.017,4.491 L26.796,3.384 L28.351,4.007 L27.399,2.666 L28.851,3.437 L27.899,2.097 L29.351,2.868 L28.399,1.528 L29.456,2.465 L29.615,1.139 L30.260,2.652 L30.365,1.011 L30.493,2.418 L31.612,1.685 L30.888,3.164 L32.212,2.185 L31.693,3.419 L32.899,2.992 L31.744,4.173 L33.328,3.702 L32.172,4.883 L33.756,4.412 L32.601,5.593 L34.185,5.122 L32.964,6.274 L34.598,5.988 L33.339,7.068 L34.973,6.783 L33.714,7.863 L35.348,7.577 L34.089,8.657 L35.723,8.372 L34.464,9.452 L36.098,9.166 L34.839,10.246 L36.473,9.961 L35.214,11.041 L36.848,10.755 L35.589,11.835 L37.223,11.550 L36.029,12.659 L37.613,12.188 L36.458,13.369 L38.042,12.898 L36.887,14.080 L38.471,13.608 L37.315,14.790 L38.812,14.012 L38.088,15.491 L39.412,14.512 L38.688,15.991 L40.012,15.012 L40.010,16.351 L40.115,14.710 L40.760,16.223 L40.919,14.897 L41.851,15.614 L40.899,14.273 L42.351,15.045 L41.399,13.704 L42.851,14.475 L41.899,13.135 L43.392,13.694 L42.171,12.587 L43.767,12.997 L42.546,11.890 L44.142,12.300 L42.921,11.194 L44.517,11.604 L43.296,10.497 L44.914,10.803 L43.648,9.727 L45.289,9.989 L44.023,8.913 L45.664,9.174 L44.398,8.098 L46.039,8.360 L44.773,7.283 L46.404,7.597 L45.159,6.507 L46.779,6.842 L45.534,5.752 L47.154,6.087 L45.909,4.998 L47.529,5.332 L46.284,4.243 L47.903,4.707 L46.847,3.429 L48.403,3.999 L47.347,2.722 L48.903,3.291 L47.847,2.014 L49.238,2.998 L48.887,1.381 L49.988,2.617 L49.637,1.000 L50.012,2.617 L51.113,1.381 L50.907,2.713 L51.863,1.763 L51.097,3.291 L52.653,2.722 L51.597,3.999 L53.153,3.429 L52.097,4.707 L53.653,4.137 L52.471,5.332 L54.091,4.998 L52.846,6.087 L54.466,5.752 L53.221,6.842 L54.841,6.507 L53.596,7.597 L55.216,7.262 L53.961,8.360 L55.602,8.098 L54.336,9.174 L55.977,8.913 L54.711,9.989 L56.352,9.727 L55.086,10.803 L56.727,10.542 L55.483,11.604 L57.079,11.194 L55.858,12.300 L57.454,11.890 L56.233,12.997 L57.829,12.587 L56.608,13.694 L58.204,13.284 L57.149,14.475 L58.601,13.704 L57.649,15.045 L59.101,14.273 L58.149,15.614 L59.601,14.842 L59.240,16.223 L59.885,14.710 L59.990,16.351 L60.581,15.154 L61.312,15.991 L60.588,14.512 L61.912,15.491 L61.393,14.258 L62.512,14.991 L61.529,13.608 L63.113,14.080 L61.958,12.898 L63.542,13.369 L62.387,12.188 L63.971,12.659 L62.815,11.478 L64.411,11.835 L63.152,10.755 L64.786,11.041 L63.527,9.961 L65.161,10.246 L63.902,9.166 L65.536,9.452 L64.277,8.372 L64.808,8.827 L64.277,8.372 L64.808,8.827 L64.277,8.372"/>
  <path fill="none" stroke="#3a4e8c" stroke-width="0.4" stroke-linecap="round" stroke-linejoin="round" d="M1.000,25.713 L1.700,25.713 L1.000,25.713 L1.700,25.713 L1.000,25.713 L3.957,25.713 L6.913,25.713 L9.870,25.713 L12.826,25.713 L15.783,25.713 L18.739,25.713 L21.696,25.713 L24.652,25.713 L27.609,25.713 L30.565,25.713 L33.522,25.713 L36.478,25.713 L39.435,25.713 L42.391,25.713 L45.348,25.713 L48.304,25.713 L51.261,25.713 L54.217,25.713 L57.174,25.713 L60.130,25.713 L63.087,25.713 L66.043,25.713 L69.000,25.713 L68.300,25.713 L69.000,25.713 L68.300,25.713 L69.000,25.713 M5.000,32.713 L5.407,32.143 L5.000,32.713 L5.407,32.143 L5.000,32.713 M5.000,32.713 L5.901,32.828 L4.849,31.548 L6.401,32.128 L5.349,30.848 L6.901,31.428 L5.849,30.148 L7.401,30.728 L6.349,29.448 L7.901,30.028 L6.849,28.748 L8.401,29.328 L7.349,28.048 L8.901,28.628 L7.849,27.348 L9.401,27.928 L8.349,26.648 L9.901,27.228 L8.849,25.948 L10.401,26.528 L9.349,25.248 L10.901,25.828 L9.849,24.548 L11.401,25.128 L10.349,23.848 L11.901,24.428 L10.849,23.148 L12.401,23.728 L11.349,22.448 L12.901,23.028 L11.849,21.748 L13.401,22.328 L12.349,21.048 L13.901,21.628 L12.849,20.348 L14.401,20.928 L13.349,19.648 L14.713,20.663 L14.412,19.038 L15.463,20.313 L15.162,18.688 L15.359,20.042 L16.651,19.648 L15.599,20.928 L17.151,20.348 L16.359,21.442 L17.651,21.048 L16.599,22.328 L18.151,21.748 L17.099,23.028 L18.651,22.448 L17.599,23.728 L19.151,23.148 L18.099,24.428 L19.651,23.848 L18.599,25.128 L20.151,24.548 L19.099,25.828 L20.651,25.248 L19.599,26.528 L21.151,25.948 L20.099,27.228 L21.651,26.648 L20.599,27.928 L22.151,27.348 L21.099,28.628 L22.651,28.048 L21.599,29.328 L23.151,28.748 L22.099,30.028 L23.651,29.448 L22.599,30.728 L24.151,30.148 L23.099,31.428 L24.651,30.848 L23.599,32.128 L25.151,31.548 L25.213,32.563 L24.912,30.938 L25.963,32.213 L25.797,30.878 L26.901,31.428 L25.849,30.148 L27.401,30.728 L26.349,29.448 L27.901,30.028 L26.849,28.748 L28.401,29.328 L27.349,28.048 L28.901,28.628 L27.849,27.348 L29.401,27.928 L28.349,26.648 L29.901,27.228 L28.849,25.948 L30.401,26.528 L29.349,25.248 L30.901,25.828 L29.849,24.548 L31.401,25.128 L30.349,23.848 L31.901,24.428 L30.849,23.148 L32.401,23.728 L31.349,22.448 L32.901,23.028 L31.849,21.748 L33.401,22.328 L32.349,21.048 L33.901,21.628 L32.849,20.348 L34.401,20.928 L33.349,19.648 L34.901,20.228 L33.849,18.948 L35.401,19.528 L34.349,18.248 L34.599,19.528 L36.151,18.948 L35.359,20.042 L36.651,19.648 L35.599,20.928 L37.151,20.348 L36.099,21.628 L37.651,21.048 L36.599,22.328 L38.151,21.748 L37.099,23.028 L38.651,22.448 L37.599,23.728 L39.151,23.148 L38.099,24.428 L39.651,23.848 L38.599,25.128 L40.151,24.548 L39.099,25.828 L40.651,25.248 L39.599,26.528 L41.151,25.948 L40.099,27.228 L41.651,26.648 L40.599,27.928 L42.151,27.348 L41.099,28.628 L42.651,28.048 L41.599,29.328 L43.151,28.748 L42.099,30.028 L43.651,29.448 L42.599,30.728 L44.151,30.148 L43.099,31.428 L44.651,30.848 L44.037,32.213 L45.088,30.938 L44.787,32.563 L45.838,31.288 L46.401,32.128 L45.609,31.034 L46.901,31.428 L45.849,30.148 L47.401,30.728 L46.609,29.634 L47.901,30.028 L46.849,28.748 L48.401,29.328 L47.349,28.048 L48.901,28.628 L47.849,27.348 L49.401,27.928 L48.349,26.648 L49.901,27.228 L48.849,25.948 L50.401,26.528 L49.349,25.248 L50.901,25.828 L49.849,24.548 L51.401,25.128 L50.349,23.848 L51.901,24.428 L50.849,23.148 L52.401,23.728 L51.349,22.448 L52.901,23.028 L51.849,21.748 L53.401,22.328 L52.349,21.048 L53.901,21.628 L52.849,20.348 L54.401,20.928 L53.349,19.648 L54.901,20.228 L53.849,18.948 L54.537,20.313 L55.588,19.038 L55.422,20.373 L56.338,19.388 L55.599,20.928 L57.151,20.348 L56.099,21.628 L57.651,21.048 L56.599,22.328 L58.151,21.748 L57.099,23.028 L58.651,22.448 L57.599,23.728 L59.151,23.148 L58.099,24.428 L59.651,23.848 L58.599,25.128 L60.151,24.548 L59.099,25.828 L60.651,25.248 L59.599,26.528 L61.151,25.948 L60.099,27.228 L61.651,26.648 L60.599,27.928 L62.151,27.348 L61.099,28.628 L62.651,28.048 L61.599,29.328 L63.151,28.748 L62.099,30.028 L63.651,29.448 L62.599,30.728 L64.151,30.148 L63.099,31.428 L64.651,30.848 L63.599,32.128 L65.151,31.548 L64.099,32.828 L65.651,32.248 L64.995,32.493 L65.651,32.248 L64.995,32.493 L65.651,32.248"/>
  <path fill="none" stroke="#d9a441" stroke-width="0.4" stroke-linecap="round" stroke-linejoin="round" d="M1.000,43.713 L1.700,43.713 L1.000,43.713 L1.700,43.713 L1.000,43.713 L3.957,43.713 L6.913,43.713 L9.870,43.713 L12.826,43.713 L15.783,43.713 L18.739,43.713 L21.696,43.713 L24.652,43.713 L27.609,43.713 L30.565,43.713 L33.522,43.713 L36.478,43.713 L39.435,43.713 L42.391,43.713 L45.348,43.713 L48.304,43.713 L51.261,43.713 L54.217,43.713 L57.174,43.713 L60.130,43.713 L63.087,43.713 L66.043,43.713 L69.000,43.713 L68.300,43.713 L69.000,43.713 L68.300,43.713 L69.000,43.713 M5.000,50.713 L5.573,50.312 L5.000,50.713 L5.573,50.312 L5.000,50.713 M5.000,50.713 L5.759,51.158 L5.141,49.638 L6.359,50.738 L5.741,49.218 L6.959,50.318 L6.341,48.798 L7.559,49.898 L6.941,48.378 L8.159,49.478 L7.541,47.958 L8.759,49.058 L8.141,47.538 L9.359,48.638 L8.741,47.118 L9.959,48.218 L9.341,46.698 L10.559,47.798 L9.941,46.278 L11.159,47.378 L10.541,45.858 L11.759,46.958 L11.141,45.438 L12.359,46.538 L11.741,45.018 L12.959,46.118 L12.341,44.598 L13.559,45.698 L12.941,44.178 L14.159,45.278 L13.541,43.758 L14.759,44.858 L14.141,43.338 L15.359,44.438 L14.741,42.918 L15.959,44.018 L15.341,42.498 L16.559,43.598 L15.941,42.078 L17.159,43.178 L16.541,41.658 L17.759,42.758 L17.141,41.238 L18.359,42.338 L17.741,40.818 L18.959,41.918 L18.341,40.398 L19.559,41.498 L18.941,39.978 L20.159,41.078 L19.541,39.558 L20.759,40.658 L20.141,39.138 L21.359,40.238 L20.741,38.718 L21.959,39.818 L21.341,38.298 L22.559,39.398 L21.941,37.878 L23.159,38.978 L22.541,37.458 L23.759,38.558 L23.141,37.038 L24.359,38.138 L23.741,36.618 L24.959,37.718 L24.875,36.263 L25.250,37.863 L25.625,36.263 L26.000,37.863 L26.800,37.510 L25.200,37.956 L26.800,38.403 L25.200,38.849 L26.800,39.296 L25.200,39.742 L26.800,40.189 L25.200,40.635 L26.800,41.082 L25.200,41.529 L26.800,41.975 L25.200,42.422 L26.800,42.868 L25.200,43.315 L26.800,43.761 L25.200,44.208 L26.800,44.654 L25.200,45.101 L26.800,45.548 L25.200,45.994 L26.800,46.441 L25.200,46.887 L26.800,47.334 L25.200,47.780 L26.800,48.227 L25.200,48.673 L26.800,49.120 L25.200,49.567 L26.800,50.013 L26.759,50.458 L26.141,48.938 L27.359,50.038 L26.741,48.518 L27.959,49.618 L27.341,48.098 L28.559,49.198 L27.941,47.678 L29.159,48.778 L28.541,47.258 L29.759,48.358 L29.141,46.838 L30.359,47.938 L29.741,46.418 L30.959,47.518 L30.341,45.998 L31.559,47.098 L30.941,45.578 L32.159,46.678 L31.541,45.158 L32.759,46.258 L32.141,44.738 L33.359,45.838 L32.741,44.318 L33.959,45.418 L33.341,43.898 L34.559,44.998 L33.941,43.478 L35.159,44.578 L34.541,43.058 L35.759,44.158 L35.141,42.638 L36.359,43.738 L35.741,42.218 L36.959,43.318 L36.341,41.798 L37.559,42.898 L36.941,41.378 L38.159,42.478 L37.541,40.958 L38.759,42.058 L38.141,40.538 L39.359,41.638 L38.741,40.118 L39.959,41.218 L39.341,39.698 L40.559,40.798 L39.941,39.278 L41.159,40.378 L40.541,38.858 L41.759,39.958 L41.141,38.438 L42.359,39.538 L41.741,38.018 L42.959,39.118 L42.341,37.598 L43.559,38.698 L42.941,37.178 L44.159,38.278 L43.541,36.758 L44.375,38.213 L44.750,36.613 L45.125,38.213 L45.500,36.613 L44.700,37.860 L46.300,38.306 L44.700,38.753 L46.300,39.199 L44.700,39.646 L46.300,40.092 L44.700,40.539 L46.300,40.985 L44.700,41.432 L46.300,41.879 L44.700,42.325 L46.300,42.772 L44.700,43.218 L46.300,43.665 L44.700,44.111 L46.300,44.558 L44.700,45.004 L46.300,45.451 L44.700,45.898 L46.300,46.344 L44.700,46.791 L46.300,47.237 L44.700,47.684 L46.300,48.130 L44.700,48.577 L46.300,49.023 L44.700,49.470 L46.300,49.917 L44.700,50.363 L45.341,49.498 L46.559,50.598 L45.941,49.078 L47.159,50.178 L46.541,48.658 L47.759,49.758 L47.141,48.238 L48.359,49.338 L47.741,47.818 L48.959,48.918 L48.341,47.398 L49.559,48.498 L48.941,46.978 L50.159,48.078 L49.541,46.558 L50.759,47.658 L50.141,46.138 L51.359,47.238 L50.741,45.718 L51.959,46.818 L51.341,45.298 L52.559,46.398 L51.941,44.878 L53.159,45.978 L52.541,44.458 L53.759,45.558 L53.141,44.038 L54.359,45.138 L53.741,43.618 L54.959,44.718 L54.341,43.198 L55.559,44.298 L54.941,42.778 L56.159,43.878 L55.541,42.358 L56.759,43.458 L56.141,41.938 L57.359,43.038 L56.741,41.518 L57.959,42.618 L57.341,41.098 L58.559,42.198 L57.941,40.678 L59.159,41.778 L58.541,40.258 L59.759,41.358 L59.141,39.838 L60.359,40.938 L59.741,39.418 L60.959,40.518 L60.341,38.998 L61.559,40.098 L60.941,38.578 L62.159,39.678 L61.541,38.158 L62.759,39.258 L62.141,37.738 L63.359,38.838 L62.741,37.318 L63.959,38.418 L63.875,36.963 L64.250,38.563 L64.625,36.963 L65.000,38.563 L65.800,38.210 L64.200,38.656 L65.800,39.103 L64.200,39.549 L65.800,39.996 L64.200,40.442 L65.800,40.889 L64.200,41.335 L65.800,41.782 L64.200,42.229 L65.800,42.675 L64.200,43.122 L65.800,43.568 L64.200,44.015 L65.800,44.461 L64.200,44.908 L65.800,45.354 L64.200,45.801 L65.800,46.248 L64.200,46.694 L65.800,47.141 L64.200,47.587 L65.800,48.034 L64.200,48.480 L65.800,48.927 L64.200,49.373 L65.800,49.820 L64.200,50.267 L65.800,50.713 L65.126,50.525 L65.800,50.713 L65.126,50.525 L65.800,50.713"/>
  <path fill="none" stroke="#8c4a6b" stroke-width="0.4" stroke-linecap="round" stroke-linejoin="round" d="M1.000,60.713 L1.700,60.713 L1.000,60.713 L1.700,60.713 L1.000,60.713 L3.957,60.713 L6.913,60.713 L9.870,60.713 L12.826,60.713 L15.783,60.713 L18.739,60.713 L21.696,60.713 L24.652,60.713 L27.609,60.713 L30.565,60.713 L33.522,60.713 L36.478,60.713 L39.435,60.713 L42.391,60.713 L45.348,60.713 L48.304,60.713 L51.261,60.713 L54.217,60.713 L57.174,60.713 L60.130,60.713 L63.087,60.713 L66.043,60.713 L69.000,60.713 L68.300,60.713 L69.000,60.713 L68.300,60.713 L69.000,60.713 M5.000,53.713 L5.700,53.713 L5.000,53.713 L5.700,53.713 L5.000,53.713 M5.000,53.713 L5.375,54.513 L5.750,52.913 L6.125,54.513 L6.500,52.913 L6.875,54.513 L7.250,52.913 L7.625,54.513 L8.000,52.913 L8.375,54.513 L8.750,52.913 L9.125,54.513 L9.500,52.913 L9.875,54.513 L10.250,52.913 L10.625,54.513 L11.000,52.913 L11.375,54.513 L11.750,52.913 L12.125,54.513 L12.500,52.913 L12.875,54.513 L13.250,52.913 L13.625,54.513 L14.000,52.913 L14.375,54.513 L14.750,52.913 L15.125,54.513 L15.500,52.913 L14.700,54.151 L16.300,54.588 L14.700,55.026 L16.300,55.463 L14.700,55.901 L16.300,56.338 L14.700,56.776 L16.300,57.213 L14.700,57.651 L16.300,58.088 L14.700,58.526 L16.300,58.963 L14.700,59.401 L16.300,59.838 L14.700,60.276 L16.300,60.713 L14.700,61.151 L16.300,61.588 L14.700,62.026 L16.300,62.463 L14.700,62.901 L16.300,63.338 L14.700,63.776 L16.300,64.213 L14.700,64.651 L16.300,65.088 L14.700,65.526 L16.300,65.963 L14.700,66.401 L16.300,66.838 L14.700,67.276 L16.300,67.713 L15.875,68.513 L16.250,67.233 L16.625,68.513 L17.000,66.913 L17.375,68.513 L17.750,66.913 L18.125,68.513 L18.500,66.913 L18.875,68.513 L19.250,66.913 L19.625,68.513 L20.000,66.913 L20.375,68.513 L20.750,66.913 L21.125,68.513 L21.500,66.913 L21.875,68.513 L22.250,66.913 L22.625,68.513 L23.000,66.913 L23.375,68.513 L23.750,66.913 L24.125,68.513 L24.500,66.913 L24.875,68.513 L25.250,66.913 L25.625,68.513 L26.000,66.913 L26.800,67.276 L25.200,66.838 L26.800,66.401 L25.200,65.963 L26.800,65.526 L25.200,65.088 L26.800,64.651 L25.200,64.213 L26.800,63.776 L25.200,63.338 L26.800,62.901 L25.200,62.463 L26.800,62.026 L25.200,61.588 L26.800,61.151 L25.200,60.713 L26.800,60.276 L25.200,59.838 L26.800,59.401 L25.200,58.963 L26.800,58.526 L25.200,58.088 L26.800,57.651 L25.200,57.213 L26.800,56.776 L25.200,56.338 L26.800,55.901 L25.200,55.463 L26.800,55.026 L25.200,54.588 L26.800,54.151 L25.200,53.713 L26.375,54.193 L26.750,52.913 L27.125,54.513 L27.500,52.913 L27.875,54.513 L28.250,52.913 L28.625,54.513 L29.000,52.913 L29.375,54.513 L29.750,52.913 L30.125,54.513 L30.500,52.913 L30.875,54.513 L31.250,52.913 L31.625,54.513 L32.000,52.913 L32.375,54.513 L32.750,52.913 L33.125,54.513 L33.500,52.913 L33.875,54.513 L34.250,52.913 L34.625,54.513 L35.000,52.913 L34.200,54.151 L35.800,54.588 L34.200,55.026 L35.800,55.463 L34.200,55.901 L35.800,56.338 L34.200,56.776 L35.800,57.213 L34.200,57.651 L35.800,58.088 L34.200,58.526 L35.800,58.963 L34.200,59.401 L35.800,59.838 L34.200,60.276 L35.800,60.713 L34.200,61.151 L35.800,61.588 L34.200,62.026 L35.800,62.463 L34.200,62.901 L35.800,63.338 L34.200,63.776 L35.800,64.213 L34.200,64.651 L35.800,65.088 L34.200,65.526 L35.800,65.963 L34.200,66.401 L35.800,66.838 L34.200,67.276 L35.800,67.713 L35.375,68.513 L35.750,67.233 L36.125,68.513 L36.500,66.913 L36.875,68.513 L37.250,66.913 L37.625,68.513 L38.000,66.913 L38.375,68.513 L38.750,66.913 L39.125,68.513 L39.500,66.913 L39.875,68.513 L40.250,66.913 L40.625,68.513 L41.000,66.913 L41.375,68.513 L41.750,66.913 L42.125,68.513 L42.500,66.913 L42.875,68.513 L43.250,66.913 L43.625,68.513 L44.000,66.913 L44.375,68.513 L44.750,66.913 L45.125,68.513 L45.500,66.913 L46.300,67.276 L44.700,66.838 L46.300,66.401 L44.700,65.963 L46.300,65.526 L44.700,65.088 L46.300,64.651 L44.700,64.213 L46.300,63.776 L44.700,63.338 L46.300,62.901 L44.700,62.463 L46.300,62.026 L44.700,61.588 L46.300,61.151 L44.700,60.713 L46.300,60.276 L44.700,59.838 L46.300,59.401 L44.700,58.963 L46.300,58.526 L44.700,58.088 L46.300,57.651 L44.700,57.213 L46.300,56.776 L44.700,56.338 L46.300,55.901 L44.700,55.463 L46.300,55.026 L44.700,54.588 L46.300,54.151 L44.700,53.713 L45.875,54.193 L46.250,52.913 L46.625,54.513 L47.000,52.913 L47.375,54.513 L47.750,52.913 L48.125,54.513 L48.500,52.913 L48.875,54.513 L49.250,52.913 L49.625,54.513 L50.000,52.913 L50.375,54.513 L50.750,52.913 L51.125,54.513 L51.500,52.913 L51.875,54.513 L52.250,52.913 L52.625,54.513 L53.000,52.913 L53.375,54.513 L53.750,52.913 L54.125,54.513 L54.500,52.913 L54.875,54.513 L55.250,52.913 L55.625,54.513 L56.000,52.913 L55.200,54.151 L56.800,54.588 L55.200,55.026 L56.800,55.463 L55.200,55.901 L56.800,56.338 L55.200,56.776 L56.800,57.213 L55.200,57.651 L56.800,58.088 L55.200,58.526 L56.800,58.963 L55.200,59.401 L56.800,59.838 L55.200,60.276 L56.800,60.713 L55.200,61.151 L56.800,61.588 L55.200,62.026 L56.800,62.463 L55.200,62.901 L56.800,63.338 L55.200,63.776 L56.800,64.213 L55.200,64.651 L56.800,65.088 L55.200,65.526 L56.800,65.963 L55.200,66.401 L56.800,66.838 L55.200,67.276 L56.800,67.713 L56.375,68.513 L56.750,67.233 L57.125,68.513 L57.500,66.913 L57.875,68.513 L58.250,66.913 L58.625,68.513 L59.000,66.913 L59.375,68.513 L59.750,66.913 L60.125,68.513 L60.500,66.913 L60.875,68.513 L61.250,66.913 L61.625,68.513 L62.000,66.913 L62.375,68.513 L62.750,66.913 L63.125,68.513 L63.500,66.913 L63.875,68.513 L64.250,66.913 L64.625,68.513 L65.000,66.913 L65.800,67.276 L64.200,66.838 L65.800,66.401 L64.200,65.963 L65.800,65.526 L64.200,65.088 L65.800,64.651 L64.200,64.213 L65.800,63.776 L64.200,63.338 L65.800,62.901 L64.200,62.463 L65.800,62.026 L64.200,61.588 L65.800,61.151 L64.200,60.713 L65.800,60.276 L64.200,59.838 L65.800,59.401 L64.200,58.963 L65.800,58.526 L64.200,58.088 L65.800,57.651 L64.200,57.213 L65.800,56.776 L64.200,56.338 L65.800,55.901 L64.200,55.463 L65.800,55.026 L64.200,54.588 L65.800,54.151 L64.200,53.713 L64.875,53.898 L64.200,53.713 L64.875,53.898 L64.200,53.713 M63.688,53.236 L64.200,53.713 L63.688,53.236 L64.200,53.713 L62.500,52.130 L60.000,50.546 L57.500,48.963 L55.000,47.380 L52.500,45.796 L50.000,44.213 L47.500,42.630 L45.000,41.046 L42.500,39.463 L40.000,37.880 L37.500,36.296 L35.000,34.713 L35.591,35.088 L35.000,34.713 L35.591,35.088 L35.000,34.713"/>
</svg>
