<svg xmlns="http://www.w3.org/2000/svg" viewBox="0 -13.075 76.15 76.15" width="256" height="256">
  <title>wide-column-split-sampler</title>
  <rect x="0" y="-13.075" width="76.15" height="76.15" fill="#f5f0e6"/>
  <path fill="none" stroke="#235789" stroke-width="0.4" stroke-linecap="round" stroke-linejoin="round" d="M3.163,49.000 L3.163,49.000 M4.525,49.000 L4.825,48.551 L1.000,48.103 L4.825,47.654 L1.000,47.206 L4.825,46.757 L1.000,46.308 L4.825,45.860 L1.000,45.411 L4.825,44.963 L1.000,44.514 L4.825,44.065 L1.000,43.617 L4.825,43.168 L1.000,42.720 L4.825,42.271 L1.000,41.822 L4.825,41.374 L1.000,40.925 L4.825,40.477 L1.000,40.028 L4.825,39.579 L1.000,39.131 L4.825,38.682 L1.000,38.234 L4.825,37.785 L1.000,37.336 L4.825,36.888 L1.000,36.439 L4.825,35.991 L1.000,35.542 L4.825,35.093 L1.000,34.645 L4.825,34.196 L1.000,33.748 L4.825,33.299 L1.000,32.850 L4.825,32.402 L1.000,31.953 L4.825,31.505 L1.000,31.056 L4.825,30.607 L1.000,30.159 L4.825,29.710 L1.000,29.262 L4.825,28.813 L1.000,28.364 L4.825,27.916 L1.000,27.467 L4.825,27.019 L1.000,26.570 L4.825,26.121 L1.000,25.673 L4.825,25.224 L1.000,24.776 L4.825,24.327 L1.000,23.879 L4.825,23.430 L1.000,22.981 L4.825,22.533 L1.000,22.084 L4.825,21.636 L1.000,21.187 L4.825,20.738 L1.000,20.290 L4.825,19.841 L1.000,19.393 L4.825,18.944 L1.000,18.495 L4.825,18.047 L1.000,17.598 L4.825,17.150 L1.000,16.701 L4.825,16.252 L1.000,15.804 L4.825,15.355 L1.000,14.907 L4.825,14.458 L1.000,14.009 L4.825,13.561 L1.000,13.112 L4.825,12.664 L1.000,12.215 L4.825,11.766 L1.000,11.318 L4.825,10.869 L1.000,10.421 L4.825,9.972 L1.000,9.523 L4.825,9.075 L1.000,8.626 L4.825,8.178 L1.000,7.729 L4.825,7.280 L1.000,6.832 L4.825,6.383 L1.000,5.935 L4.825,5.486 L1.000,5.037 L4.825,4.589 L1.000,4.140 L4.825,3.692 L1.000,3.243 L4.825,2.794 L1.000,2.346 L4.825,1.897 L1.000,1.449 L4.825,1.000 M8.350,1.000 L5.325,1.449 L9.150,1.897 L5.325,2.346 L9.150,2.794 L5.325,3.243 L9.150,3.692 L5.325,4.140 L9.150,4.589 L5.325,5.037 L9.150,5.486 L5.325,5.935 L9.150,6.383 L5.325,6.832 L9.150,7.280 L5.325,7.729 L9.150,8.178 L5.325,8.626 L9.150,9.075 L5.325,9.523 L9.150,9.972 L5.325,10.421 L9.150,10.869 L5.325,11.318 L9.150,11.766 L5.325,12.215 L9.150,12.664 L5.325,13.112 L9.150,13.561 L5.325,14.009 L9.150,14.458 L5.325,14.907 L9.150,15.355 L5.325,15.804 L9.150,16.252 L5.325,16.701 L9.150,17.150 L5.325,17.598 L9.150,18.047 L5.325,18.495 L9.150,18.944 L5.325,19.393 L9.150,19.841 L5.325,20.290 L9.150,20.738 L5.325,21.187 L9.150,21.636 L5.325,22.084 L9.150,22.533 L5.325,22.981 L9.150,23.430 L5.325,23.879 L9.150,24.327 L5.325,24.776 L9.150,25.224 L5.325,25.673 L9.150,26.121 L5.325,26.570 L9.150,27.019 L5.325,27.467 L9.150,27.916 L5.325,28.364 L9.150,28.813 L5.325,29.262 L9.150,29.710 L5.325,30.159 L9.150,30.607 L5.325,31.056 L9.150,31.505 L5.325,31.953 L9.150,32.402 L5.325,32.850 L9.150,33.299 L5.325,33.748 L9.150,34.196 L5.325,34.645 L9.150,35.093 L5.325,35.542 L9.150,35.991 L5.325,36.439 L9.150,36.888 L5.325,37.336 L9.150,37.785 L5.325,38.234 L9.150,38.682 L5.325,39.131 L9.150,39.579 L5.325,40.028 L9.150,40.477 L5.325,40.925 L9.150,41.374 L5.325,41.822 L9.150,42.271 L5.325,42.720 L9.150,43.168 L5.325,43.617 L9.150,44.065 L5.325,44.514 L9.150,44.963 L5.325,45.411 L9.150,45.860 L5.325,46.308 L9.150,46.757 L5.325,47.206 L9.150,47.654 L5.325,48.103 L9.150,48.551 L5.325,49.000 L6.020,48.918 L5.325,49.000 L6.020,48.918 L5.325,49.000"/>
  <path fill="none" stroke="#f1d302" stroke-width="0.4" stroke-linecap="round" stroke-linejoin="round" d="M25.075,49.000 L25.075,48.551 L25.075,49.000 L25.075,48.551 L25.075,49.000 M25.883,49.000 L27.183,48.551 L23.467,48.103 L27.183,47.654 L23.467,47.206 L27.183,46.757 L23.467,46.308 L27.183,45.860 L23.467,45.411 L27.183,44.963 L23.467,44.514 L27.183,44.065 L23.467,43.617 L27.183,43.168 L23.467,42.720 L27.183,42.271 L23.467,41.822 L27.183,41.374 L23.467,40.925 L27.183,40.477 L23.467,40.028 L27.183,39.579 L23.467,39.131 L27.183,38.682 L23.467,38.234 L27.183,37.785 L23.467,37.336 L27.183,36.888 L23.467,36.439 L27.183,35.991 L23.467,35.542 L27.183,35.093 L23.467,34.645 L27.183,34.196 L23.467,33.748 L27.183,33.299 L23.467,32.850 L27.183,32.402 L23.467,31.953 L27.183,31.505 L23.467,31.056 L27.183,30.607 L23.467,30.159 L27.183,29.710 L23.467,29.262 L27.183,28.813 L23.467,28.364 L27.183,27.916 L23.467,27.467 L27.183,27.019 L23.467,26.570 L27.183,26.121 L23.467,25.673 L27.183,25.224 L23.467,24.776 L27.183,24.327 L23.467,23.879 L27.183,23.430 L23.467,22.981 L27.183,22.533 L23.467,22.084 L27.183,21.636 L23.467,21.187 L27.183,20.738 L23.467,20.290 L27.183,19.841 L23.467,19.393 L27.183,18.944 L23.467,18.495 L27.183,18.047 L23.467,17.598 L27.183,17.150 L23.467,16.701 L27.183,16.252 L23.467,15.804 L27.183,15.355 L23.467,14.907 L27.183,14.458 L23.467,14.009 L27.183,13.561 L23.467,13.112 L27.183,12.664 L23.467,12.215 L27.183,11.766 L23.467,11.318 L27.183,10.869 L23.467,10.421 L27.183,9.972 L23.467,9.523 L27.183,9.075 L23.467,8.626 L27.183,8.178 L23.467,7.729 L27.183,7.280 L23.467,6.832 L27.183,6.383 L23.467,5.935 L27.183,5.486 L23.467,5.037 L27.183,4.589 L23.467,4.140 L27.183,3.692 L23.467,3.243 L27.183,2.794 L23.467,2.346 L27.183,1.897 L23.467,1.449 L27.183,1.000 M29.850,1.000 L26.683,1.449 L30.650,1.897 L26.683,2.346 L30.650,2.794 L26.683,3.243 L30.650,3.692 L26.683,4.140 L30.650,4.589 L26.683,5.037 L30.650,5.486 L26.683,5.935 L30.650,6.383 L26.683,6.832 L30.650,7.280 L26.683,7.729 L30.650,8.178 L26.683,8.626 L30.650,9.075 L26.683,9.523 L30.650,9.972 L26.683,10.421 L30.650,10.869 L26.683,11.318 L30.650,11.766 L26.683,12.215 L30.650,12.664 L26.683,13.112 L30.650,13.561 L26.683,14.009 L30.650,14.458 L26.683,14.907 L30.650,15.355 L26.683,15.804 L30.650,16.252 L26.683,16.701 L30.650,17.150 L26.683,17.598 L30.650,18.047 L26.683,18.495 L30.650,18.944 L26.683,19.393 L30.650,19.841 L26.683,20.290 L30.650,20.738 L26.683,21.187 L30.650,21.636 L26.683,22.084 L30.650,22.533 L26.683,22.981 L30.650,23.430 L26.683,23.879 L30.650,24.327 L26.683,24.776 L30.650,25.224 L26.683,25.673 L30.650,26.121 L26.683,26.570 L30.650,27.019 L26.683,27.467 L30.650,27.916 L26.683,28.364 L30.650,28.813 L26.683,29.262 L30.650,29.710 L26.683,30.159 L30.650,30.607 L26.683,31.056 L30.650,31.505 L26.683,31.953 L30.650,32.402 L26.683,32.850 L30.650,33.299 L26.683,33.748 L30.650,34.196 L26.683,34.645 L30.650,35.093 L26.683,35.542 L30.650,35.991 L26.683,36.439 L30.650,36.888 L26.683,37.336 L30.650,37.785 L26.683,38.234 L30.650,38.682 L26.683,39.131 L30.650,39.579 L26.683,40.028 L30.650,40.477 L26.683,40.925 L30.650,41.374 L26.683,41.822 L30.650,42.271 L26.683,42.720 L30.650,43.168 L26.683,43.617 L30.650,44.065 L26.683,44.514 L30.650,44.963 L26.683,45.411 L30.650,45.860 L26.683,46.308 L30.650,46.757 L26.683,47.206 L30.650,47.654 L26.683,48.103 L30.650,48.551 L26.683,49.000 L27.379,48.921 L26.683,49.000 L27.379,48.921 L26.683,49.000 M21.483,49.000 L21.233,48.551 L21.483,49.000 L21.233,48.551 L21.483,49.000 M22.667,49.000 L22.967,48.551 L19.500,48.103 L22.967,47.654 L19.500,47.206 L22.967,46.757 L19.500,46.308 L22.967,45.860 L19.500,45.411 L22.967,44.963 L19.500,44.514 L22.967,44.065 L19.500,43.617 L22.967,43.168 L19.500,42.720 L22.967,42.271 L19.500,41.822 L22.967,41.374 L19.500,40.925 L22.967,40.477 L19.500,40.028 L22.967,39.579 L19.500,39.131 L22.967,38.682 L19.500,38.234 L22.967,37.785 L19.500,37.336 L22.967,36.888 L19.500,36.439 L22.967,35.991 L19.500,35.542 L22.967,35.093 L19.500,34.645 L22.967,34.196 L19.500,33.748 L22.967,33.299 L19.500,32.850 L22.967,32.402 L19.500,31.953 L22.967,31.505 L19.500,31.056 L22.967,30.607 L19.500,30.159 L22.967,29.710 L19.500,29.262 L22.967,28.813 L19.500,28.364 L22.967,27.916 L19.500,27.467 L22.967,27.019 L19.500,26.570 L22.967,26.121 L19.500,25.673 L22.967,25.224 L19.500,24.776 L22.967,24.327 L19.500,23.879 L22.967,23.430 L19.500,22.981 L22.967,22.533 L19.500,22.084 L22.967,21.636 L19.500,21.187 L22.967,20.738 L19.500,20.290 L22.967,19.841 L19.500,19.393 L22.967,18.944 L19.500,18.495 L22.967,18.047 L19.500,17.598 L22.967,17.150 L19.500,16.701 L22.967,16.252 L19.500,15.804 L22.967,15.355 L19.500,14.907 L22.967,14.458 L19.500,14.009 L22.967,13.561 L19.500,13.112 L22.967,12.664 L19.500,12.215 L22.967,11.766 L19.500,11.318 L22.967,10.869 L19.500,10.421 L22.967,9.972 L19.500,9.523 L22.967,9.075 L19.500,8.626 L22.967,8.178 L19.500,7.729 L22.967,7.280 L19.500,6.832 L22.967,6.383 L19.500,5.935 L22.967,5.486 L19.500,5.037 L22.967,4.589 L19.500,4.140 L22.967,3.692 L19.500,3.243 L22.967,2.794 L19.500,2.346 L22.967,1.897 L19.500,1.449 L22.967,1.000 L22.272,1.090 L22.967,1.000 L22.272,1.090 L22.967,1.000"/>
  <path fill="none" stroke="#ed1c24" stroke-width="0.4" stroke-linecap="round" stroke-linejoin="round" d="M45.075,49.000 L45.075,48.551 L45.075,49.000 L45.075,48.551 L45.075,49.000 M46.550,49.000 L47.850,48.551 L42.800,48.103 L47.850,47.654 L42.800,47.206 L47.850,46.757 L42.800,46.308 L47.850,45.860 L42.800,45.411 L47.850,44.963 L42.800,44.514 L47.850,44.065 L42.800,43.617 L47.850,43.168 L42.800,42.720 L47.850,42.271 L42.800,41.822 L47.850,41.374 L42.800,40.925 L47.850,40.477 L42.800,40.028 L47.850,39.579 L42.800,39.131 L47.850,38.682 L42.800,38.234 L47.850,37.785 L42.800,37.336 L47.850,36.888 L42.800,36.439 L47.850,35.991 L42.800,35.542 L47.850,35.093 L42.800,34.645 L47.850,34.196 L42.800,33.748 L47.850,33.299 L42.800,32.850 L47.850,32.402 L42.800,31.953 L47.850,31.505 L42.800,31.056 L47.850,30.607 L42.800,30.159 L47.850,29.710 L42.800,29.262 L47.850,28.813 L42.800,28.364 L47.850,27.916 L42.800,27.467 L47.850,27.019 L42.800,26.570 L47.850,26.121 L42.800,25.673 L47.850,25.224 L42.800,24.776 L47.850,24.327 L42.800,23.879 L47.850,23.430 L42.800,22.981 L47.850,22.533 L42.800,22.084 L47.850,21.636 L42.800,21.187 L47.850,20.738 L42.800,20.290 L47.850,19.841 L42.800,19.393 L47.850,18.944 L42.800,18.495 L47.850,18.047 L42.800,17.598 L47.850,17.150 L42.800,16.701 L47.850,16.252 L42.800,15.804 L47.850,15.355 L42.800,14.907 L47.850,14.458 L42.800,14.009 L47.850,13.561 L42.800,13.112 L47.850,12.664 L42.800,12.215 L47.850,11.766 L42.800,11.318 L47.850,10.869 L42.800,10.421 L47.850,9.972 L42.800,9.523 L47.850,9.075 L42.800,8.626 L47.850,8.178 L42.800,7.729 L47.850,7.280 L42.800,6.832 L47.850,6.383 L42.800,5.935 L47.850,5.486 L42.800,5.037 L47.850,4.589 L42.800,4.140 L47.850,3.692 L42.800,3.243 L47.850,2.794 L42.800,2.346 L47.850,1.897 L42.800,1.449 L47.850,1.000 M51.850,1.000 L47.350,1.449 L52.650,1.897 L47.350,2.346 L52.650,2.794 L47.350,3.243 L52.650,3.692 L47.350,4.140 L52.650,4.589 L47.350,5.037 L52.650,5.486 L47.350,5.935 L52.650,6.383 L47.350,6.832 L52.650,7.280 L47.350,7.729 L52.650,8.178 L47.350,8.626 L52.650,9.075 L47.350,9.523 L52.650,9.972 L47.350,10.421 L52.650,10.869 L47.350,11.318 L52.650,11.766 L47.350,12.215 L52.650,12.664 L47.350,13.112 L52.650,13.561 L47.350,14.009 L52.650,14.458 L47.350,14.907 L52.650,15.355 L47.350,15.804 L52.650,16.252 L47.350,16.701 L52.650,17.150 L47.350,17.598 L52.650,18.047 L47.350,18.495 L52.650,18.944 L47.350,19.393 L52.650,19.841 L47.350,20.290 L52.650,20.738 L47.350,21.187 L52.650,21.636 L47.350,22.084 L52.650,22.533 L47.350,22.981 L52.650,23.430 L47.350,23.879 L52.650,24.327 L47.350,24.776 L52.650,25.224 L47.350,25.673 L52.650,26.121 L47.350,26.570 L52.650,27.019 L47.350,27.467 L52.650,27.916 L47.350,28.364 L52.650,28.813 L47.350,29.262 L52.650,29.710 L47.350,30.159 L52.650,30.607 L47.350,31.056 L52.650,31.505 L47.350,31.953 L52.650,32.402 L47.350,32.850 L52.650,33.299 L47.350,33.748 L52.650,34.196 L47.350,34.645 L52.650,35.093 L47.350,35.542 L52.650,35.991 L47.350,36.439 L52.650,36.888 L47.350,37.336 L52.650,37.785 L47.350,38.234 L52.650,38.682 L47.350,39.131 L52.650,39.579 L47.350,40.028 L52.650,40.477 L47.350,40.925 L52.650,41.374 L47.350,41.822 L52.650,42.271 L47.350,42.720 L52.650,43.168 L47.350,43.617 L52.650,44.065 L47.350,44.514 L52.650,44.963 L47.350,45.411 L52.650,45.860 L47.350,46.308 L52.650,46.757 L47.350,47.206 L52.650,47.654 L47.350,48.103 L52.650,48.551 L47.350,49.000 L48.048,48.941 L47.350,49.000 L48.048,48.941 L47.350,49.000 M40.150,49.000 L39.900,48.551 L40.150,49.000 L39.900,48.551 L40.150,49.000 M42.000,49.000 L42.300,48.551 L37.500,48.103 L42.300,47.654 L37.500,47.206 L42.300,46.757 L37.500,46.308 L42.300,45.860 L37.500,45.411 L42.300,44.963 L37.500,44.514 L42.300,44.065 L37.500,43.617 L42.300,43.168 L37.500,42.720 L42.300,42.271 L37.500,41.822 L42.300,41.374 L37.500,40.925 L42.300,40.477 L37.500,40.028 L42.300,39.579 L37.500,39.131 L42.300,38.682 L37.500,38.234 L42.300,37.785 L37.500,37.336 L42.300,36.888 L37.500,36.439 L42.300,35.991 L37.500,35.542 L42.300,35.093 L37.500,34.645 L42.300,34.196 L37.500,33.748 L42.300,33.299 L37.500,32.850 L42.300,32.402 L37.500,31.953 L42.300,31.505 L37.500,31.056 L42.300,30.607 L37.500,30.159 L42.300,29.710 L37.500,29.262 L42.300,28.813 L37.500,28.364 L42.300,27.916 L37.500,27.467 L42.300,27.019 L37.500,26.570 L42.300,26.121 L37.500,25.673 L42.300,25.224 L37.500,24.776 L42.300,24.327 L37.500,23.879 L42.300,23.430 L37.500,22.981 L42.300,22.533 L37.500,22.084 L42.300,21.636 L37.500,21.187 L42.300,20.738 L37.500,20.290 L42.300,19.841 L37.500,19.393 L42.300,18.944 L37.500,18.495 L42.300,18.047 L37.500,17.598 L42.300,17.150 L37.500,16.701 L42.300,16.252 L37.500,15.804 L42.300,15.355 L37.500,14.907 L42.300,14.458 L37.500,14.009 L42.300,13.561 L37.500,13.112 L42.300,12.664 L37.500,12.215 L42.300,11.766 L37.500,11.318 L42.300,10.869 L37.500,10.421 L42.300,9.972 L37.500,9.523 L42.300,9.075 L37.500,8.626 L42.300,8.178 L37.500,7.729 L42.300,7.280 L37.500,6.832 L42.300,6.383 L37.500,5.935 L42.300,5.486 L37.500,5.037 L42.300,4.589 L37.500,4.140 L42.300,3.692 L37.500,3.243 L42.300,2.794 L37.500,2.346 L42.300,1.897 L37.500,1.449 L42.300,1.000 L41.603,1.065 L42.300,1.000 L41.603,1.065 L42.300,1.000"/>
  <path fill="none" stroke="#7b2cbf" stroke-width="0.4" stroke-linecap="round" stroke-linejoin="round" d="M62.556,49.000 L62.556,48.551 L62.556,49.000 L62.556,48.551 L62.556,49.000 M64.025,49.000 L65.325,48.551 L60.288,48.103 L65.325,47.654 L60.288,47.206 L65.325,46.757 L60.288,46.308 L65.325,45.860 L60.288,45.411 L65.325,44.963 L60.288,44.514 L65.325,44.065 L60.288,43.617 L65.325,43.168 L60.288,42.720 L65.325,42.271 L60.288,41.822 L65.325,41.374 L60.288,40.925 L65.325,40.477 L60.288,40.028 L65.325,39.579 L60.288,39.131 L65.325,38.682 L60.288,38.234 L65.325,37.785 L60.288,37.336 L65.325,36.888 L60.288,36.439 L65.325,35.991 L60.288,35.542 L65.325,35.093 L60.288,34.645 L65.325,34.196 L60.288,33.748 L65.325,33.299 L60.288,32.850 L65.325,32.402 L60.288,31.953 L65.325,31.505 L60.288,31.056 L65.325,30.607 L60.288,30.159 L65.325,29.710 L60.288,29.262 L65.325,28.813 L60.288,28.364 L65.325,27.916 L60.288,27.467 L65.325,27.019 L60.288,26.570 L65.325,26.121 L60.288,25.673 L65.325,25.224 L60.288,24.776 L65.325,24.327 L60.288,23.879 L65.325,23.430 L60.288,22.981 L65.325,22.533 L60.288,22.084 L65.325,21.636 L60.288,21.187 L65.325,20.738 L60.288,20.290 L65.325,19.841 L60.288,19.393 L65.325,18.944 L60.288,18.495 L65.325,18.047 L60.288,17.598 L65.325,17.150 L60.288,16.701 L65.325,16.252 L60.288,15.804 L65.325,15.355 L60.288,14.907 L65.325,14.458 L60.288,14.009 L65.325,13.561 L60.288,13.112 L65.325,12.664 L60.288,12.215 L65.325,11.766 L60.288,11.318 L65.325,10.869 L60.288,10.421 L65.325,9.972 L60.288,9.523 L65.325,9.075 L60.288,8.626 L65.325,8.178 L60.288,7.729 L65.325,7.280 L60.288,6.832 L65.325,6.383 L60.288,5.935 L65.325,5.486 L60.288,5.037 L65.325,4.589 L60.288,4.140 L65.325,3.692 L60.288,3.243 L65.325,2.794 L60.288,2.346 L65.325,1.897 L60.288,1.449 L65.325,1.000 M69.063,1.000 L64.825,1.449 L69.863,1.897 L64.825,2.346 L69.863,2.794 L64.825,3.243 L69.863,3.692 L64.825,4.140 L69.863,4.589 L64.825,5.037 L69.863,5.486 L64.825,5.935 L69.863,6.383 L64.825,6.832 L69.863,7.280 L64.825,7.729 L69.863,8.178 L64.825,8.626 L69.863,9.075 L64.825,9.523 L69.863,9.972 L64.825,10.421 L69.863,10.869 L64.825,11.318 L69.863,11.766 L64.825,12.215 L69.863,12.664 L64.825,13.112 L69.863,13.561 L64.825,14.009 L69.863,14.458 L64.825,14.907 L69.863,15.355 L64.825,15.804 L69.863,16.252 L64.825,16.701 L69.863,17.150 L64.825,17.598 L69.863,18.047 L64.825,18.495 L69.863,18.944 L64.825,19.393 L69.863,19.841 L64.825,20.290 L69.863,20.738 L64.825,21.187 L69.863,21.636 L64.825,22.084 L69.863,22.533 L64.825,22.981 L69.863,23.430 L64.825,23.879 L69.863,24.327 L64.825,24.776 L69.863,25.224 L64.825,25.673 L69.863,26.121 L64.825,26.570 L69.863,27.019 L64.825,27.467 L69.863,27.916 L64.825,28.364 L69.863,28.813 L64.825,29.262 L69.863,29.710 L64.825,30.159 L69.863,30.607 L64.825,31.056 L69.863,31.505 L64.825,31.953 L69.863,32.402 L64.825,32.850 L69.863,33.299 L64.825,33.748 L69.863,34.196 L64.825,34.645 L69.863,35.093 L64.825,35.542 L69.863,35.991 L64.825,36.439 L69.863,36.888 L64.825,37.336 L69.863,37.785 L64.825,38.234 L69.863,38.682 L64.825,39.131 L69.863,39.579 L64.825,40.028 L69.863,40.477 L64.825,40.925 L69.863,41.374 L64.825,41.822 L69.863,42.271 L64.825,42.720 L69.863,43.168 L64.825,43.617 L69.863,44.065 L64.825,44.514 L69.863,44.963 L64.825,45.411 L69.863,45.860 L64.825,46.308 L69.863,46.757 L64.825,47.206 L69.863,47.654 L64.825,48.103 L69.863,48.551 L64.825,49.000 L65.522,48.938 L64.825,49.000 L65.522,48.938 L64.825,49.000 M57.644,49.000 L57.394,48.551 L57.644,49.000 L57.394,48.551 L57.644,49.000 M59.488,49.000 L59.788,48.551 L55.000,48.103 L59.788,47.654 L55.000,47.206 L59.788,46.757 L55.000,46.308 L59.788,45.860 L55.000,45.411 L59.788,44.963 L55.000,44.514 L59.788,44.065 L55.000,43.617 L59.788,43.168 L55.000,42.720 L59.788,42.271 L55.000,41.822 L59.788,41.374 L55.000,40.925 L59.788,40.477 L55.000,40.028 L59.788,39.579 L55.000,39.131 L59.788,38.682 L55.000,38.234 L59.788,37.785 L55.000,37.336 L59.788,36.888 L55.000,36.439 L59.788,35.991 L55.000,35.542 L59.788,35.093 L55.000,34.645 L59.788,34.196 L55.000,33.748 L59.788,33.299 L55.000,32.850 L59.788,32.402 L55.000,31.953 L59.788,31.505 L55.000,31.056 L59.788,30.607 L55.000,30.159 L59.788,29.710 L55.000,29.262 L59.788,28.813 L55.000,28.364 L59.788,27.916 L55.000,27.467 L59.788,27.019 L55.000,26.570 L59.788,26.121 L55.000,25.673 L59.788,25.224 L55.000,24.776 L59.788,24.327 L55.000,23.879 L59.788,23.430 L55.000,22.981 L59.788,22.533 L55.000,22.084 L59.788,21.636 L55.000,21.187 L59.788,20.738 L55.000,20.290 L59.788,19.841 L55.000,19.393 L59.788,18.944 L55.000,18.495 L59.788,18.047 L55.000,17.598 L59.788,17.150 L55.000,16.701 L59.788,16.252 L55.000,15.804 L59.788,15.355 L55.000,14.907 L59.788,14.458 L55.000,14.009 L59.788,13.561 L55.000,13.112 L59.788,12.664 L55.000,12.215 L59.788,11.766 L55.000,11.318 L59.788,10.869 L55.000,10.421 L59.788,9.972 L55.000,9.523 L59.788,9.075 L55.000,8.626 L59.788,8.178 L55.000,7.729 L59.788,7.280 L55.000,6.832 L59.788,6.383 L55.000,5.935 L59.788,5.486 L55.000,5.037 L59.788,4.589 L55.000,4.140 L59.788,3.692 L55.000,3.243 L59.788,2.794 L55.000,2.346 L59.788,1.897 L55.000,1.449 L59.788,1.000 L59.091,1.065 L59.788,1.000 L59.091,1.065 L59.788,1.000 M72.506,1.000 L72.756,1.449 L72.506,1.000 L72.756,1.449 L72.506,1.000 M74.350,1.000 L70.363,1.449 L75.150,1.897 L70.363,2.346 L75.150,2.794 L70.363,3.243 L75.150,3.692 L70.363,4.140 L75.150,4.589 L70.363,5.037 L75.150,5.486 L70.363,5.935 L75.150,6.383 L70.363,6.832 L75.150,7.280 L70.363,7.729 L75.150,8.178 L70.363,8.626 L75.150,9.075 L70.363,9.523 L75.150,9.972 L70.363,10.421 L75.150,10.869 L70.363,11.318 L75.150,11.766 L70.363,12.215 L75.150,12.664 L70.363,13.112 L75.150,13.561 L70.363,14.009 L75.150,14.458 L70.363,14.907 L75.150,15.355 L70.363,15.804 L75.150,16.252 L70.363,16.701 L75.150,17.150 L70.363,17.598 L75.150,18.047 L70.363,18.495 L75.150,18.944 L70.363,19.393 L75.150,19.841 L70.363,20.290 L75.150,20.738 L70.363,21.187 L75.150,21.636 L70.363,22.084 L75.150,22.533 L70.363,22.981 L75.150,23.430 L70.363,23.879 L75.150,24.327 L70.363,24.776 L75.150,25.224 L70.363,25.673 L75.150,26.121 L70.363,26.570 L75.150,27.019 L70.363,27.467 L75.150,27.916 L70.363,28.364 L75.150,28.813 L70.363,29.262 L75.150,29.710 L70.363,30.159 L75.150,30.607 L70.363,31.056 L75.150,31.505 L70.363,31.953 L75.150,32.402 L70.363,32.850 L75.150,33.299 L70.363,33.748 L75.150,34.196 L70.363,34.645 L75.150,35.093 L70.363,35.542 L75.150,35.991 L70.363,36.439 L75.150,36.888 L70.363,37.336 L75.150,37.785 L70.363,38.234 L75.150,38.682 L70.363,39.131 L75.150,39.579 L70.363,40.028 L75.150,40.477 L70.363,40.925 L75.150,41.374 L70.363,41.822 L75.150,42.271 L70.363,42.720 L75.150,43.168 L70.363,43.617 L75.150,44.065 L70.363,44.514 L75.150,44.963 L70.363,45.411 L75.150,45.860 L70.363,46.308 L75.150,46.757 L70.363,47.206 L75.150,47.654 L70.363,48.103 L75.150,48.551 L70.363,49.000 L71.059,48.935 L70.363,49.000 L71.059,48.935 L70.363,49.000"/>
</svg>
