<svg xmlns="http://www.w3.org/2000/svg" viewBox="0 -28.279 78.765 78.765" width="256" height="256">
  <title>wildflower-garland</title>
  <rect x="0" y="-28.279" width="78.765" height="78.765" fill="#f5efe4"/>
  <path fill="none" stroke="#31604f" stroke-width="0.4" stroke-linecap="round" stroke-linejoin="round" d="M39.729,11.417 L39.331,10.817 L38.934,12.017 L38.536,10.817 L38.138,12.017 L37.740,10.817 L37.343,12.017 L36.945,10.817 L36.547,12.017 L36.149,10.817 L35.752,12.017 L35.354,10.817 L34.956,12.017 L34.559,10.817 L34.161,12.017 L33.763,10.817 L33.365,12.017 L32.968,10.817 L32.570,12.017 L32.172,10.817 L31.774,12.017 L31.377,10.817 L30.979,12.017 L30.581,10.817 L30.184,12.017 L29.786,10.817 L29.388,12.017 L28.990,10.817 L28.593,12.017 L28.195,10.817 L27.797,12.017 L27.399,10.817 L27.002,12.017 L26.604,10.817 L26.206,12.017 L25.809,10.817 L25.411,12.017 L25.013,10.817 L24.615,12.017 L24.218,10.817 L23.820,12.017 L23.422,10.817 L23.024,12.017 L22.627,10.817 L22.229,12.017 L21.831,10.817 L21.434,12.017 L21.036,10.817 L20.638,12.017 L20.240,10.817 L19.843,12.017 L19.445,10.817 L19.047,12.017 L18.649,10.817 L18.252,12.017 L17.854,10.817 L17.456,12.017 L17.059,10.817 L16.661,12.017 L16.263,10.817 L15.865,12.017 L15.468,10.817 L15.070,12.017 L14.672,10.817 L14.274,12.017 L13.877,10.817 L13.479,12.017 L13.081,10.817 L12.684,12.017 L12.286,10.817 L11.888,12.017 L11.490,10.817 L11.093,12.017 L10.695,10.817 L10.297,12.017 L9.899,10.817 L9.502,12.017 L9.104,10.817 L8.706,12.017 L8.309,10.817 L7.911,12.017 L7.513,10.817 L7.115,12.017 L6.718,10.817 L6.320,12.017 L5.922,10.817 L5.524,12.017 L5.127,10.817 L4.729,12.017 L5.442,11.467 L4.716,10.435 L5.909,10.845 L5.183,9.814 L6.375,10.224 L5.662,9.198 L6.829,9.662 L6.129,8.619 L7.296,9.083 L6.595,8.040 L7.733,8.579 L7.092,7.509 L8.200,8.082 L7.558,7.012 L8.666,7.585 L8.141,6.471 L9.192,7.162 L8.724,5.994 L9.775,6.685 L9.413,5.537 L10.253,6.455 L9.997,5.237 L10.837,6.155 L10.848,4.962 L11.444,6.076 L11.625,4.826 L12.014,6.076 L12.610,4.962 L12.792,6.212 L13.462,5.237 L13.205,6.455 L14.045,5.537 L13.788,6.754 L14.734,5.994 L14.266,7.162 L15.317,6.471 L14.849,7.639 L15.900,7.012 L15.258,8.082 L16.366,7.509 L15.725,8.579 L16.833,8.006 L16.162,9.083 L17.329,8.619 L16.629,9.662 L17.796,9.198 L17.095,10.240 L18.275,9.814 L17.549,10.845 L18.742,10.435 L18.016,11.467 L19.209,11.056 L18.483,12.088 L19.675,11.677 L18.949,12.709 L20.142,12.299 L19.416,13.330 L20.596,12.882 L19.895,13.925 L21.063,13.461 L20.362,14.504 L21.529,14.040 L20.858,15.076 L21.966,14.503 L21.325,15.573 L22.433,15.000 L21.792,16.070 L22.900,15.433 L22.433,16.601 L23.484,15.910 L23.016,17.077 L23.962,16.229 L23.705,17.446 L24.545,16.529 L24.288,17.746 L25.055,16.689 L25.237,17.940 L25.833,16.826 L26.221,17.940 L26.403,16.689 L26.999,17.803 L26.913,16.529 L27.753,17.446 L27.497,16.229 L28.337,17.147 L27.974,15.910 L29.025,16.601 L28.558,15.433 L29.609,16.124 L29.025,15.000 L30.133,15.573 L29.492,14.503 L30.600,15.076 L29.958,14.006 L31.096,14.504 L30.395,13.461 L31.563,13.925 L30.862,12.882 L32.029,13.346 L31.316,12.299 L32.509,12.709 L31.783,11.677 L32.975,12.088 L32.249,11.056 L33.442,11.467 L32.716,10.435 L33.909,10.845 L33.183,9.814 L34.375,10.224 L33.662,9.198 L34.829,9.662 L34.129,8.619 L35.296,9.083 L34.595,8.040 L35.733,8.579 L35.092,7.509 L36.200,8.082 L35.558,7.012 L36.666,7.585 L36.141,6.471 L37.192,7.162 L36.724,5.994 L37.775,6.685 L37.413,5.537 L38.253,6.455 L37.997,5.237 L38.837,6.155 L38.848,4.962 L39.444,6.076 L39.625,4.826 L40.014,6.076 L40.610,4.962 L40.792,6.212 L41.462,5.237 L41.205,6.455 L42.045,5.537 L41.788,6.754 L42.734,5.994 L42.266,7.162 L43.317,6.471 L42.849,7.639 L43.900,7.012 L43.258,8.082 L44.366,7.509 L43.725,8.579 L44.833,8.006 L44.162,9.083 L45.329,8.619 L44.629,9.662 L45.796,9.198 L45.095,10.240 L46.275,9.814 L45.549,10.845 L46.742,10.435 L46.016,11.467 L47.209,11.056 L46.483,12.088 L47.675,11.677 L46.949,12.709 L48.142,12.299 L47.416,13.330 L48.596,12.882 L47.895,13.925 L49.063,13.461 L48.362,14.504 L49.529,14.040 L48.858,15.076 L49.966,14.503 L49.325,15.573 L50.433,15.000 L49.792,16.070 L50.900,15.433 L50.433,16.601 L51.484,15.910 L51.016,17.077 L51.962,16.229 L51.705,17.446 L52.545,16.529 L52.288,17.746 L53.055,16.689 L53.237,17.940 L53.833,16.826 L54.221,17.940 L54.403,16.689 L54.999,17.803 L54.913,16.529 L55.753,17.446 L55.497,16.229 L56.337,17.147 L55.974,15.910 L57.025,16.601 L56.558,15.433 L57.609,16.124 L57.025,15.000 L58.133,15.573 L57.492,14.503 L58.600,15.076 L57.958,14.006 L59.096,14.504 L58.395,13.461 L59.563,13.925 L58.862,12.882 L60.029,13.346 L59.316,12.299 L60.509,12.709 L59.783,11.677 L60.975,12.088 L60.249,11.056 L61.442,11.467 L60.716,10.435 L61.909,10.845 L61.183,9.814 L62.375,10.224 L61.662,9.198 L62.829,9.662 L62.129,8.619 L63.296,9.083 L62.595,8.040 L63.733,8.579 L63.092,7.509 L64.200,8.082 L63.558,7.012 L64.666,7.585 L64.141,6.471 L65.192,7.162 L64.724,5.994 L65.775,6.685 L65.413,5.537 L66.253,6.455 L65.997,5.237 L66.837,6.155 L66.848,4.962 L67.444,6.076 L67.625,4.826 L68.014,6.076 L68.610,4.962 L68.792,6.212 L69.462,5.237 L69.205,6.455 L70.045,5.537 L69.788,6.754 L70.734,5.994 L70.266,7.162 L71.317,6.471 L70.849,7.639 L71.900,7.012 L71.258,8.082 L72.366,7.509 L71.725,8.579 L72.833,8.006 L72.162,9.083 L73.329,8.619 L72.629,9.662 L73.796,9.198 L73.095,10.240 L74.275,9.814 L73.549,10.845 L74.742,10.435 L74.016,11.467 L75.209,11.056"/>
  <path fill="none" stroke="#5e8f8c" stroke-width="0.4" stroke-linecap="round" stroke-linejoin="round" d="M72.310,11.391 L69.890,11.365 L67.471,11.339 L65.051,11.313 L62.632,11.287 L60.213,11.260 L57.793,11.234 L55.374,11.208 L52.955,11.182 L50.535,11.156 L48.116,11.130 L45.696,11.104 L43.277,11.078 L40.858,11.052 L38.438,11.026 L36.019,11.000 L33.599,10.974 L31.180,10.948 L28.761,10.922 L26.341,10.896 L23.922,10.870 L21.503,10.844 L19.083,10.818 L16.664,10.792 L14.244,10.766 L11.825,10.740 L9.406,10.714 L6.986,10.688 L4.567,10.661 L2.147,10.635 L1.723,11.970 L2.661,13.009 L4.052,13.165 L5.452,13.125 L6.418,12.112 L6.556,10.719 L6.446,9.323 L5.392,8.402 L4.066,8.851 L3.794,10.225 L2.412,10.447 L2.147,10.635"/>
  <path fill="none" stroke="#2b2b2b" stroke-width="0.4" stroke-linecap="round" stroke-linejoin="round" d="M3.797,9.712 L5.447,8.789 L7.096,7.866 L6.078,8.501 L5.061,9.137 L3.877,8.938 L2.881,8.270 L2.569,9.429 L2.859,10.593 L1.943,11.369 L1.000,12.110 L2.110,12.566 L3.307,12.650 L3.876,13.707 L4.289,14.833 L5.102,13.950 L5.551,12.837 L6.737,12.654 L7.936,12.608 L7.336,11.569 L6.417,10.798 L6.601,9.612 L6.928,8.458 L7.096,7.866"/>
  <path fill="none" stroke="#5e8f8c" stroke-width="0.4" stroke-linecap="round" stroke-linejoin="round" d="M9.206,7.652 L11.316,7.439 L13.425,7.226 L14.691,6.627 L15.020,5.266 L14.294,4.069 L13.256,3.129 L12.247,2.159 L10.947,2.678 L9.893,3.599 L8.950,4.634 L8.680,6.008 L9.589,7.072 L10.989,7.047 L11.836,5.932 L12.694,7.038 L13.425,7.226"/>
  <path fill="none" stroke="#d9a441" stroke-width="0.4" stroke-linecap="round" stroke-linejoin="round" d="M15.591,6.731 L14.754,5.871 L13.917,5.011 L14.314,3.879 L15.055,2.935 L13.855,2.921 L12.692,3.216 L12.217,2.114 L11.770,1.000 L11.219,2.066 L10.893,3.221 L9.695,3.152 L8.507,2.983 L9.147,3.997 L9.985,4.857 L9.319,5.855 L8.578,6.799 L9.777,6.751 L10.940,6.456 L11.473,7.531 L11.920,8.645 L12.478,7.582 L12.803,6.427 L14.001,6.504 L15.189,6.673 L15.591,6.731"/>
  <path fill="none" stroke="#5e8f8c" stroke-width="0.4" stroke-linecap="round" stroke-linejoin="round" d="M17.225,7.134 L18.859,7.538 L20.493,7.942 L19.435,7.026 L18.037,7.108 L17.091,8.140 L16.630,9.462 L16.291,10.820 L15.775,12.122 L17.041,12.719 L18.342,13.236 L19.666,13.692 L21.066,13.701 L22.118,12.778 L22.210,11.381 L21.284,10.330 L20.641,9.087 L20.493,7.942"/>
  <path fill="none" stroke="#8c4a6b" stroke-width="0.4" stroke-linecap="round" stroke-linejoin="round" d="M20.027,10.279 L19.561,12.616 L19.095,14.953 L19.469,13.813 L19.843,12.673 L20.880,12.068 L22.073,11.942 L21.570,10.852 L20.602,10.144 L20.808,8.962 L21.057,7.788 L19.913,8.150 L18.940,8.852 L17.826,8.405 L16.787,7.805 L16.729,9.003 L17.097,10.146 L16.303,11.046 L15.412,11.849 L16.538,12.262 L17.738,12.266 L18.356,13.295 L18.845,14.391 L19.095,14.953"/>
  <path fill="none" stroke="#5e8f8c" stroke-width="0.4" stroke-linecap="round" stroke-linejoin="round" d="M21.128,15.859 L23.161,16.766 L25.194,17.672 L27.227,18.579 L28.142,17.519 L27.688,16.195 L26.470,15.504 L25.168,14.991 L23.881,15.542 L23.206,16.769 L22.759,18.096 L23.366,19.357 L24.762,19.465 L25.552,18.309 L26.910,18.648 L27.227,18.579"/>
  <path fill="none" stroke="#3a4e8c" stroke-width="0.4" stroke-linecap="round" stroke-linejoin="round" d="M28.395,19.843 L27.792,18.805 L27.190,17.767 L27.852,16.766 L28.800,16.031 L27.640,15.725 L26.440,15.727 L26.249,14.543 L26.087,13.354 L25.292,14.253 L24.695,15.293 L23.549,14.935 L22.439,14.480 L22.812,15.621 L23.414,16.659 L22.525,17.464 L21.576,18.199 L22.751,18.445 L23.951,18.442 L24.205,19.615 L24.367,20.804 L25.167,19.909 L25.765,18.869 L26.908,19.235 L28.018,19.689 L28.395,19.843"/>
  <path fill="none" stroke="#5e8f8c" stroke-width="0.4" stroke-linecap="round" stroke-linejoin="round" d="M28.904,17.587 L29.413,15.330 L29.923,13.073 L30.432,10.816 L29.915,12.117 L30.603,13.336 L31.951,13.717 L33.350,13.696 L34.750,13.717 L35.347,12.450 L35.488,11.057 L35.472,9.657 L34.732,8.469 L33.341,8.311 L32.335,9.285 L32.477,10.677 L31.095,10.455 L30.432,10.816"/>
  <path fill="none" stroke="#2b2b2b" stroke-width="0.4" stroke-linecap="round" stroke-linejoin="round" d="M32.715,11.402 L34.997,11.988 L37.280,12.573 L36.309,11.868 L35.339,11.163 L35.080,9.991 L35.326,8.816 L34.135,8.961 L33.164,9.666 L32.102,9.108 L31.061,8.511 L31.054,9.711 L31.425,10.853 L30.658,11.776 L29.769,12.581 L30.892,13.003 L32.092,13.003 L32.706,14.034 L33.198,15.129 L33.936,14.183 L34.307,13.042 L35.475,12.769 L36.668,12.640 L37.280,12.573"/>
  <path fill="none" stroke="#5e8f8c" stroke-width="0.4" stroke-linecap="round" stroke-linejoin="round" d="M38.861,10.944 L40.442,9.315 L42.023,7.686 L43.318,7.155 L43.877,5.871 L43.383,4.561 L42.412,3.552 L41.354,2.636 L40.426,1.587 L39.321,2.448 L38.272,3.374 L37.267,4.350 L36.627,5.594 L36.975,6.950 L38.180,7.664 L39.535,7.312 L40.935,7.300 L42.023,7.686"/>
  <path fill="none" stroke="#d9a441" stroke-width="0.4" stroke-linecap="round" stroke-linejoin="round" d="M40.950,8.422 L39.877,9.159 L40.361,8.061 L40.844,6.963 L42.043,6.906 L43.196,7.240 L42.759,6.122 L42.050,5.154 L42.894,4.301 L43.759,3.469 L42.564,3.358 L41.371,3.488 L40.986,2.352 L40.698,1.187 L39.997,2.161 L39.514,3.259 L38.339,3.016 L37.186,2.682 L37.680,3.776 L38.390,4.744 L37.592,5.640 L36.727,6.472 L37.921,6.591 L39.114,6.461 L39.492,7.600 L39.780,8.765 L39.877,9.159"/>
  <path fill="none" stroke="#5e8f8c" stroke-width="0.4" stroke-linecap="round" stroke-linejoin="round" d="M42.354,9.285 L44.830,9.411 L47.306,9.537 L46.143,8.758 L44.884,9.370 L44.346,10.662 L43.995,12.018 L44.699,13.228 L45.999,13.748 L47.370,14.032 L48.548,13.276 L48.486,11.877 L47.243,11.233 L47.413,9.844 L47.306,9.537"/>
  <path fill="none" stroke="#8c4a6b" stroke-width="0.4" stroke-linecap="round" stroke-linejoin="round" d="M45.623,10.849 L43.940,12.161 L42.257,13.473 L43.454,13.393 L44.652,13.313 L45.601,14.047 L46.164,15.106 L46.986,14.232 L47.280,13.069 L48.453,12.817 L49.635,12.608 L48.871,11.683 L47.855,11.044 L47.853,9.844 L48.020,8.655 L46.887,9.051 L45.966,9.820 L44.834,9.421 L43.755,8.895 L43.794,10.095 L44.240,11.209 L43.518,12.167 L42.684,13.030 L42.257,13.473"/>
  <path fill="none" stroke="#5e8f8c" stroke-width="0.4" stroke-linecap="round" stroke-linejoin="round" d="M44.203,14.416 L46.148,15.359 L48.094,16.303 L50.039,17.246 L51.985,18.189 L53.930,19.132 L55.876,20.075 L57.141,19.476 L57.470,18.116 L56.745,16.918 L55.707,15.979 L54.698,15.008 L53.398,15.527 L52.344,16.449 L51.401,17.484 L51.131,18.857 L52.040,19.922 L53.440,19.896 L54.286,18.781 L55.145,19.887 L55.876,20.075"/>
  <path fill="none" stroke="#3a4e8c" stroke-width="0.4" stroke-linecap="round" stroke-linejoin="round" d="M53.767,20.510 L51.658,20.944 L52.673,20.304 L53.688,19.664 L54.713,20.288 L55.482,21.208 L55.746,20.038 L55.699,18.839 L56.876,18.604 L58.058,18.398 L57.130,17.637 L56.068,17.078 L56.384,15.921 L56.797,14.794 L55.671,15.209 L54.656,15.850 L53.818,14.991 L53.049,14.070 L52.847,15.253 L52.894,16.452 L51.731,16.749 L50.549,16.955 L51.472,17.721 L52.534,18.280 L52.211,19.436 L51.798,20.563 L51.658,20.944"/>
  <path fill="none" stroke="#5e8f8c" stroke-width="0.4" stroke-linecap="round" stroke-linejoin="round" d="M52.720,18.881 L53.781,16.818 L54.843,14.755 L55.905,12.692 L56.967,10.629 L56.382,11.901 L56.850,13.220 L58.104,13.842 L59.502,13.917 L60.901,13.865 L62.295,13.998 L62.516,12.615 L62.651,11.222 L62.720,9.824 L62.339,8.476 L61.159,7.723 L59.792,8.023 L59.041,9.205 L58.026,10.169 L56.967,10.629"/>
  <path fill="none" stroke="#2b2b2b" stroke-width="0.4" stroke-linecap="round" stroke-linejoin="round" d="M58.191,12.273 L59.415,13.918 L60.639,15.562 L60.929,14.397 L61.219,13.233 L62.209,12.554 L63.390,12.342 L62.809,11.292 L61.792,10.656 L61.912,9.462 L62.075,8.273 L60.960,8.717 L60.041,9.488 L58.898,9.123 L57.818,8.600 L57.847,9.800 L58.296,10.912 L57.571,11.868 L56.740,12.734 L57.893,13.064 L59.090,12.980 L59.782,13.961 L60.348,15.019 L60.639,15.562"/>
  <path fill="none" stroke="#5e8f8c" stroke-width="0.4" stroke-linecap="round" stroke-linejoin="round" d="M62.254,14.183 L63.869,12.805 L65.484,11.426 L67.099,10.048 L68.714,8.669 L70.330,7.291 L71.244,6.231 L70.790,4.907 L69.572,4.216 L68.270,3.703 L66.983,4.254 L66.308,5.481 L65.861,6.808 L66.468,8.069 L67.864,8.177 L68.654,7.021 L70.012,7.360 L70.330,7.291"/>
  <path fill="none" stroke="#d9a441" stroke-width="0.4" stroke-linecap="round" stroke-linejoin="round" d="M68.544,7.634 L66.759,7.977 L64.973,8.321 L66.114,7.947 L67.254,7.574 L68.096,8.429 L68.618,9.510 L69.159,8.439 L69.406,7.264 L70.604,7.324 L71.801,7.412 L71.086,6.448 L70.193,5.647 L70.782,4.602 L71.457,3.610 L70.264,3.738 L69.124,4.111 L68.521,3.074 L67.999,1.993 L67.515,3.091 L67.268,4.265 L66.068,4.270 L64.871,4.181 L65.579,5.150 L66.473,5.951 L65.877,6.993 L65.202,7.985 L64.973,8.321"/>
  <path fill="none" stroke="#5e8f8c" stroke-width="0.4" stroke-linecap="round" stroke-linejoin="round" d="M67.105,8.530 L69.237,8.740 L71.369,8.949 L73.501,9.159 L75.633,9.369 L74.527,8.510 L73.164,8.831 L72.424,10.020 L72.054,11.370 L71.645,12.709 L72.695,13.634 L73.993,14.158 L75.343,14.532 L76.690,14.152 L77.229,12.860 L76.574,11.623 L75.197,11.371 L75.795,10.106 L75.633,9.369"/>
  <path fill="none" stroke="#8c4a6b" stroke-width="0.4" stroke-linecap="round" stroke-linejoin="round" d="M73.386,9.180 L71.139,8.991 L71.662,10.071 L72.185,11.151 L71.860,12.306 L71.088,13.226 L72.207,13.660 L73.396,13.497 L74.069,14.490 L74.705,15.508 L75.277,14.453 L75.489,13.272 L76.600,12.820 L77.765,12.530 L76.974,11.627 L75.916,11.061 L75.861,9.862 L75.945,8.665 L74.847,9.150 L73.981,9.981 L72.822,9.671 L71.710,9.221 L71.139,8.991"/>
</svg>
