<svg xmlns="http://www.w3.org/2000/svg" viewBox="0 0 66.208 66.208" width="256" height="256">
  <title>wreath</title>
  <rect x="0" y="0" width="66.208" height="66.208" fill="#f5efe4"/>
  <path fill="none" stroke="#c8472f" stroke-width="0.4" stroke-linecap="round" stroke-linejoin="round" d="M32.380,32.804 L32.380,32.104 L32.380,32.804 L32.380,32.104 L32.380,32.804 L32.380,31.604 L32.443,30.406 L32.568,29.212 L32.756,28.027 L33.005,26.853 L33.316,25.694 L33.687,24.553 L34.117,23.433 L34.605,22.336 L35.149,21.267 L35.749,20.228 L36.403,19.221 L37.108,18.251 L37.864,17.318 L38.667,16.426 L39.515,15.578 L40.407,14.775 L41.339,14.020 L42.310,13.314 L43.317,12.661 L44.356,12.061 L45.425,11.516 L46.521,11.028 L47.642,10.598 L48.783,10.227 L49.942,9.916 L51.116,9.667 L52.301,9.479 L53.494,9.354 L54.693,9.291 L54.693,10.491 L54.630,11.689 L54.505,12.883 L54.317,14.068 L54.067,15.242 L53.757,16.401 L53.386,17.542 L52.956,18.662 L52.468,19.759 L51.923,20.828 L51.323,21.867 L50.669,22.873 L49.964,23.844 L49.209,24.777 L48.406,25.669 L47.557,26.517 L46.666,27.320 L45.733,28.075 L44.762,28.781 L43.756,29.434 L42.717,30.034 L41.647,30.579 L40.551,31.067 L39.431,31.497 L38.290,31.868 L37.131,32.179 L35.957,32.428 L34.771,32.616 L33.578,32.741 L32.380,32.804 L32.804,32.380 L33.653,31.531 L34.544,30.728 L35.477,29.973 L36.448,29.268 L37.454,28.614 L38.493,28.014 L39.563,27.469 L40.659,26.981 L41.779,26.551 L42.920,26.180 L44.079,25.870 L45.253,25.620 L46.438,25.433 L47.632,25.307 L48.830,25.244 L50.030,25.244 L51.229,25.307 L52.422,25.433 L53.607,25.620 L54.781,25.870 L55.940,26.180 L57.081,26.551 L58.202,26.981 L59.298,27.469 L60.367,28.014 L61.406,28.614 L62.413,29.268 L63.384,29.973 L64.316,30.728 L65.208,31.531 L64.359,32.380 L63.468,33.183 L62.535,33.938 L61.564,34.643 L60.558,35.297 L59.519,35.897 L58.449,36.442 L57.353,36.930 L56.233,37.360 L55.092,37.731 L53.932,38.041 L52.759,38.291 L51.573,38.478 L50.380,38.604 L49.182,38.667 L47.982,38.667 L46.783,38.604 L45.590,38.478 L44.405,38.291 L43.231,38.041 L42.072,37.731 L40.931,37.360 L39.810,36.930 L38.714,36.442 L37.645,35.897 L36.606,35.297 L35.599,34.643 L34.628,33.938 L33.696,33.183 L32.804,32.380 L33.404,32.380 L34.604,32.380 L35.802,32.443 L36.996,32.568 L38.181,32.756 L39.355,33.005 L40.514,33.316 L41.655,33.687 L42.775,34.117 L43.872,34.605 L44.941,35.149 L45.980,35.749 L46.987,36.403 L47.957,37.108 L48.890,37.864 L49.782,38.667 L50.630,39.515 L51.433,40.407 L52.188,41.339 L52.894,42.310 L53.547,43.317 L54.147,44.356 L54.692,45.425 L55.180,46.521 L55.610,47.642 L55.981,48.783 L56.292,49.942 L56.541,51.116 L56.729,52.301 L56.854,53.494 L56.917,54.693 L55.717,54.693 L54.519,54.630 L53.325,54.505 L52.140,54.317 L50.966,54.067 L49.807,53.757 L48.666,53.386 L47.546,52.956 L46.449,52.468 L45.380,51.923 L44.341,51.323 L43.335,50.669 L42.364,49.964 L41.431,49.209 L40.539,48.406 L39.691,47.557 L38.888,46.666 L38.133,45.733 L37.427,44.762 L36.774,43.756 L36.174,42.717 L35.629,41.647 L35.141,40.551 L34.711,39.431 L34.340,38.290 L34.029,37.131 L33.780,35.957 L33.592,34.771 L33.467,33.578 L33.404,32.380 L33.828,32.804 L34.677,33.653 L35.480,34.544 L36.235,35.477 L36.940,36.448 L37.594,37.454 L38.194,38.493 L38.739,39.563 L39.227,40.659 L39.657,41.779 L40.028,42.920 L40.338,44.079 L40.588,45.253 L40.775,46.438 L40.901,47.632 L40.964,48.830 L40.964,50.030 L40.901,51.229 L40.775,52.422 L40.588,53.607 L40.338,54.781 L40.028,55.940 L39.657,57.081 L39.227,58.202 L38.739,59.298 L38.194,60.367 L37.594,61.406 L36.940,62.413 L36.235,63.384 L35.480,64.316 L34.677,65.208 L33.828,64.359 L33.025,63.468 L32.270,62.535 L31.565,61.564 L30.911,60.558 L30.311,59.519 L29.766,58.449 L29.278,57.353 L28.848,56.233 L28.477,55.092 L28.167,53.932 L27.917,52.759 L27.730,51.573 L27.604,50.380 L27.541,49.182 L27.541,47.982 L27.604,46.783 L27.730,45.590 L27.917,44.405 L28.167,43.231 L28.477,42.072 L28.848,40.931 L29.278,39.810 L29.766,38.714 L30.311,37.645 L30.911,36.606 L31.565,35.599 L32.270,34.628 L33.025,33.696 L33.828,32.804 L33.828,33.404 L33.828,34.604 L33.765,35.802 L33.640,36.996 L33.452,38.181 L33.203,39.355 L32.892,40.514 L32.521,41.655 L32.091,42.775 L31.603,43.872 L31.058,44.941 L30.458,45.980 L29.805,46.987 L29.100,47.957 L28.344,48.890 L27.541,49.782 L26.693,50.630 L25.801,51.433 L24.869,52.188 L23.898,52.894 L22.891,53.547 L21.852,54.147 L20.783,54.692 L19.687,55.180 L18.566,55.610 L17.425,55.981 L16.266,56.292 L15.092,56.541 L13.907,56.729 L12.714,56.854 L11.515,56.917 L11.515,55.717 L11.578,54.519 L11.703,53.325 L11.891,52.140 L12.141,50.966 L12.451,49.807 L12.822,48.666 L13.252,47.546 L13.740,46.449 L14.285,45.380 L14.885,44.341 L15.539,43.335 L16.244,42.364 L16.999,41.431 L17.802,40.539 L18.651,39.691 L19.542,38.888 L20.475,38.133 L21.446,37.427 L22.452,36.774 L23.491,36.174 L24.561,35.629 L25.657,35.141 L26.777,34.711 L27.918,34.340 L29.077,34.029 L30.251,33.780 L31.436,33.592 L32.630,33.467 L33.828,33.404 L33.404,33.828 L32.555,34.677 L31.664,35.480 L30.731,36.235 L29.760,36.940 L28.754,37.594 L27.715,38.194 L26.645,38.739 L25.549,39.227 L24.429,39.657 L23.288,40.028 L22.129,40.338 L20.955,40.588 L19.770,40.775 L18.576,40.901 L17.378,40.964 L16.178,40.964 L14.979,40.901 L13.786,40.775 L12.601,40.588 L11.427,40.338 L10.268,40.028 L9.127,39.657 L8.006,39.227 L6.910,38.739 L5.841,38.194 L4.802,37.594 L3.795,36.940 L2.824,36.235 L1.892,35.480 L1.000,34.677 L1.849,33.828 L2.740,33.025 L3.673,32.270 L4.644,31.565 L5.650,30.911 L6.689,30.311 L7.759,29.766 L8.855,29.278 L9.975,28.848 L11.116,28.477 L12.275,28.167 L13.449,27.917 L14.634,27.730 L15.828,27.604 L17.026,27.541 L18.226,27.541 L19.425,27.604 L20.618,27.730 L21.803,27.917 L22.977,28.167 L24.136,28.477 L25.277,28.848 L26.398,29.278 L27.494,29.766 L28.563,30.311 L29.602,30.911 L30.609,31.565 L31.580,32.270 L32.512,33.025 L33.404,33.828 L32.804,33.828 L31.604,33.828 L30.406,33.765 L29.212,33.640 L28.027,33.452 L26.853,33.203 L25.694,32.892 L24.553,32.521 L23.433,32.091 L22.336,31.603 L21.267,31.058 L20.228,30.458 L19.221,29.805 L18.251,29.100 L17.318,28.344 L16.426,27.541 L15.578,26.693 L14.775,25.801 L14.020,24.869 L13.314,23.898 L12.661,22.891 L12.061,21.852 L11.516,20.783 L11.028,19.687 L10.598,18.566 L10.227,17.425 L9.916,16.266 L9.667,15.092 L9.479,13.907 L9.354,12.714 L9.291,11.515 L10.491,11.515 L11.689,11.578 L12.883,11.703 L14.068,11.891 L15.242,12.141 L16.401,12.451 L17.542,12.822 L18.662,13.252 L19.759,13.740 L20.828,14.285 L21.867,14.885 L22.873,15.539 L23.844,16.244 L24.777,16.999 L25.669,17.802 L26.517,18.651 L27.320,19.542 L28.075,20.475 L28.781,21.446 L29.434,22.452 L30.034,23.491 L30.579,24.561 L31.067,25.657 L31.497,26.777 L31.868,27.918 L32.179,29.077 L32.428,30.251 L32.616,31.436 L32.741,32.630 L32.804,33.828 L32.380,33.404 L31.531,32.555 L30.728,31.664 L29.973,30.731 L29.268,29.760 L28.614,28.754 L28.014,27.715 L27.469,26.645 L26.981,25.549 L26.551,24.429 L26.180,23.288 L25.870,22.129 L25.620,20.955 L25.433,19.770 L25.307,18.576 L25.244,17.378 L25.244,16.178 L25.307,14.979 L25.433,13.786 L25.620,12.601 L25.870,11.427 L26.180,10.268 L26.551,9.127 L26.981,8.006 L27.469,6.910 L28.014,5.841 L28.614,4.802 L29.268,3.795 L29.973,2.824 L30.728,1.892 L31.531,1.000 L32.380,1.849 L33.183,2.740 L33.938,3.673 L34.643,4.644 L35.297,5.650 L35.897,6.689 L36.442,7.759 L36.930,8.855 L37.360,9.975 L37.731,11.116 L38.041,12.275 L38.291,13.449 L38.478,14.634 L38.604,15.828 L38.667,17.026 L38.667,18.226 L38.604,19.425 L38.478,20.618 L38.291,21.803 L38.041,22.977 L37.731,24.136 L37.360,25.277 L36.930,26.398 L36.442,27.494 L35.897,28.563 L35.297,29.602 L34.643,30.609 L33.938,31.580 L33.183,32.512 L32.380,33.404 L32.380,32.804 L32.380,33.404 L32.380,32.804 L32.380,33.404 L32.380,32.804"/>
</svg>
